<svg class="toyplot-canvas-Canvas" xmlns:toyplot="http://www.sandia.gov/toyplot" xmlns:xlink="http://www.w3.org/1999/xlink" xmlns="http://www.w3.org/2000/svg" width="560.0px" height="100.0px" viewBox="0 0 560.0 100.0" preserveAspectRatio="xMidYMid meet" style="background-color:transparent;border-color:#292724;border-style:none;border-width:1.0;fill:rgb(16.1%,15.3%,14.1%);fill-opacity:1.0;font-family:Helvetica;font-size:12px;opacity:1.0;stroke:rgb(16.1%,15.3%,14.1%);stroke-opacity:1.0;stroke-width:1.0" id="t8861bbd363a240bdbc96240352d80d28"><g class="toyplot-coordinates-Cartesian" id="t7e13d80923094e58987770b7bb0a3210"><clipPath id="t525c44f6afc244f8983a81316e519431"><rect x="15.0" y="15.0" width="110.0" height="70.0" /></clipPath><g clip-path="url(#t525c44f6afc244f8983a81316e519431)"><g class="toytree-mark-Toytree" id="t669a478996e948e78fc7887c089ae6f5"><g class="toytree-Edges" style="fill:none;stroke:rgb(14.9%,14.9%,14.9%);stroke-linecap:round;stroke-opacity:1;stroke-width:0.5"><path d="M 25.0 38.3 L 25.0 47.4 L 31.7 47.4" id="16,15" /><path d="M 31.7 47.4 L 31.7 38.3 L 40.4 38.3" id="15,14" /><path d="M 31.7 47.4 L 31.7 56.5 L 65.4 56.5" id="15,13" /><path d="M 40.4 38.3 L 40.4 42.2 L 77.5 42.2" id="14,12" /><path d="M 65.4 56.5 L 65.4 63.0 L 67.7 63.0" id="13,11" /><path d="M 67.7 63.0 L 67.7 57.8 L 80.1 57.8" id="11,10" /><path d="M 67.7 63.0 L 67.7 68.2 L 75.3 68.2" id="11,9" /><path d="M 25.0 38.3 L 25.0 29.2 L 82.8 29.2" id="16,8" /><path d="M 40.4 38.3 L 40.4 34.4 L 74.1 34.4" id="14,7" /><path d="M 77.5 42.2 L 77.5 39.6 L 95.8 39.6" id="12,6" /><path d="M 77.5 42.2 L 77.5 44.8 L 110.3 44.8" id="12,5" /><path d="M 65.4 56.5 L 65.4 50.0 L 80.9 50.0" id="13,4" /><path d="M 80.1 57.8 L 80.1 55.2 L 80.7 55.2" id="10,3" /><path d="M 80.1 57.8 L 80.1 60.4 L 80.4 60.4" id="10,2" /><path d="M 75.3 68.2 L 75.3 65.6 L 77.3 65.6" id="9,1" /><path d="M 75.3 68.2 L 75.3 70.8 L 77.8 70.8" id="9,0" /></g><g class="toytree-Nodes" style="fill:rgb(100%,0%,0%);fill-opacity:1.0;stroke:None;stroke-width:1"><g id="node-0" transform="translate(77.848,70.833)"><circle r="2.5" /></g><g id="node-1" transform="translate(77.307,65.625)"><circle r="2.5" /></g><g id="node-2" transform="translate(80.386,60.417)"><circle r="2.5" /></g><g id="node-3" transform="translate(80.659,55.208)"><circle r="2.5" /></g><g id="node-4" transform="translate(80.935,50.000)"><circle r="2.5" /></g><g id="node-5" transform="translate(110.263,44.792)"><circle r="2.5" /></g><g id="node-6" transform="translate(95.798,39.583)"><circle r="2.5" /></g><g id="node-7" transform="translate(74.149,34.375)"><circle r="2.5" /></g><g id="node-8" transform="translate(82.826,29.167)"><circle r="2.5" /></g><g id="node-9" transform="translate(75.300,68.229)"><circle r="0.0" /></g><g id="node-10" transform="translate(80.067,57.812)"><circle r="0.0" /></g><g id="node-11" transform="translate(67.740,63.021)"><circle r="0.0" /></g><g id="node-12" transform="translate(77.526,42.188)"><circle r="0.0" /></g><g id="node-13" transform="translate(65.380,56.510)"><circle r="0.0" /></g><g id="node-14" transform="translate(40.389,38.281)"><circle r="0.0" /></g><g id="node-15" transform="translate(31.708,47.396)"><circle r="0.0" /></g><g id="node-16" transform="translate(25.000,38.281)"><circle r="0.0" /></g></g></g></g></g><g class="toyplot-coordinates-Cartesian" id="ta87c58d0bf894e1a90d74737f50bbb5f"><clipPath id="t73990ac291ec480393984895916e1140"><rect x="155.0" y="15.0" width="110.0" height="70.0" /></clipPath><g clip-path="url(#t73990ac291ec480393984895916e1140)"><g class="toytree-mark-Toytree" id="t5da470dd7ed64ec49bbad1ffbdee5320"><g class="toytree-Edges" style="fill:none;stroke:rgb(14.9%,14.9%,14.9%);stroke-linecap:round;stroke-opacity:1;stroke-width:0.5"><path d="M 165.0 44.8 L 165.0 33.1 L 167.9 33.1" id="16,15" /><path d="M 165.0 44.8 L 165.0 56.5 L 165.7 56.5" id="16,14" /><path d="M 167.9 33.1 L 167.9 37.0 L 176.9 37.0" id="15,13" /><path d="M 165.7 56.5 L 165.7 48.7 L 171.2 48.7" id="14,12" /><path d="M 165.7 56.5 L 165.7 64.3 L 167.7 64.3" id="14,11" /><path d="M 171.2 48.7 L 171.2 52.6 L 177.0 52.6" id="12,10" /><path d="M 167.7 64.3 L 167.7 68.2 L 196.1 68.2" id="11,9" /><path d="M 167.9 33.1 L 167.9 29.2 L 250.3 29.2" id="15,8" /><path d="M 176.9 37.0 L 176.9 34.4 L 239.9 34.4" id="13,7" /><path d="M 176.9 37.0 L 176.9 39.6 L 240.1 39.6" id="13,6" /><path d="M 171.2 48.7 L 171.2 44.8 L 248.1 44.8" id="12,5" /><path d="M 177.0 52.6 L 177.0 50.0 L 243.1 50.0" id="10,4" /><path d="M 177.0 52.6 L 177.0 55.2 L 242.6 55.2" id="10,3" /><path d="M 167.7 64.3 L 167.7 60.4 L 244.1 60.4" id="11,2" /><path d="M 196.1 68.2 L 196.1 65.6 L 241.0 65.6" id="9,1" /><path d="M 196.1 68.2 L 196.1 70.8 L 240.3 70.8" id="9,0" /></g><g class="toytree-Nodes" style="fill:rgb(100%,0%,0%);fill-opacity:1.0;stroke:None;stroke-width:1"><g id="node-0" transform="translate(240.322,70.833)"><circle r="2.5" /></g><g id="node-1" transform="translate(241.007,65.625)"><circle r="2.5" /></g><g id="node-2" transform="translate(244.139,60.417)"><circle r="2.5" /></g><g id="node-3" transform="translate(242.622,55.208)"><circle r="2.5" /></g><g id="node-4" transform="translate(243.058,50.000)"><circle r="2.5" /></g><g id="node-5" transform="translate(248.075,44.792)"><circle r="2.5" /></g><g id="node-6" transform="translate(240.108,39.583)"><circle r="2.5" /></g><g id="node-7" transform="translate(239.872,34.375)"><circle r="2.5" /></g><g id="node-8" transform="translate(250.263,29.167)"><circle r="2.5" /></g><g id="node-9" transform="translate(196.062,68.229)"><circle r="0.0" /></g><g id="node-10" transform="translate(176.982,52.604)"><circle r="0.0" /></g><g id="node-11" transform="translate(167.723,64.323)"><circle r="0.0" /></g><g id="node-12" transform="translate(171.240,48.698)"><circle r="0.0" /></g><g id="node-13" transform="translate(176.890,36.979)"><circle r="0.0" /></g><g id="node-14" transform="translate(165.723,56.510)"><circle r="0.0" /></g><g id="node-15" transform="translate(167.934,33.073)"><circle r="0.0" /></g><g id="node-16" transform="translate(165.000,44.792)"><circle r="0.0" /></g></g></g></g></g><g class="toyplot-coordinates-Cartesian" id="tacb54c392a9b4d3aa835f2fa68fbeb75"><clipPath id="t703edfb5312d4c2b9a8ffcb46be30cd6"><rect x="295.0" y="15.0" width="110.0" height="70.0" /></clipPath><g clip-path="url(#t703edfb5312d4c2b9a8ffcb46be30cd6)"><g class="toytree-mark-Toytree" id="tab697448c2d8458da18d5dc38155bc03"><g class="toytree-Edges" style="fill:none;stroke:rgb(14.9%,14.9%,14.9%);stroke-linecap:round;stroke-opacity:1;stroke-width:0.5"><path d="M 305.0 41.5 L 305.0 33.1 L 307.1 33.1" id="16,15" /><path d="M 305.0 41.5 L 305.0 49.8 L 311.0 49.8" id="16,14" /><path d="M 307.1 33.1 L 307.1 37.0 L 318.6 37.0" id="15,13" /><path d="M 311.0 49.8 L 311.0 54.9 L 323.3 54.9" id="14,12" /><path d="M 323.3 54.9 L 323.3 59.8 L 330.1 59.8" id="12,11" /><path d="M 330.1 59.8 L 330.1 64.3 L 340.5 64.3" id="11,10" /><path d="M 340.5 64.3 L 340.5 68.2 L 366.1 68.2" id="10,9" /><path d="M 307.1 33.1 L 307.1 29.2 L 367.8 29.2" id="15,8" /><path d="M 318.6 37.0 L 318.6 34.4 L 361.2 34.4" id="13,7" /><path d="M 318.6 37.0 L 318.6 39.6 L 388.4 39.6" id="13,6" /><path d="M 311.0 49.8 L 311.0 44.8 L 353.1 44.8" id="14,5" /><path d="M 323.3 54.9 L 323.3 50.0 L 369.3 50.0" id="12,4" /><path d="M 330.1 59.8 L 330.1 55.2 L 363.9 55.2" id="11,3" /><path d="M 340.5 64.3 L 340.5 60.4 L 374.2 60.4" id="10,2" /><path d="M 366.1 68.2 L 366.1 65.6 L 390.3 65.6" id="9,1" /><path d="M 366.1 68.2 L 366.1 70.8 L 388.5 70.8" id="9,0" /></g><g class="toytree-Nodes" style="fill:rgb(100%,0%,0%);fill-opacity:1.0;stroke:None;stroke-width:1"><g id="node-0" transform="translate(388.537,70.833)"><circle r="2.5" /></g><g id="node-1" transform="translate(390.263,65.625)"><circle r="2.5" /></g><g id="node-2" transform="translate(374.195,60.417)"><circle r="2.5" /></g><g id="node-3" transform="translate(363.877,55.208)"><circle r="2.5" /></g><g id="node-4" transform="translate(369.307,50.000)"><circle r="2.5" /></g><g id="node-5" transform="translate(353.127,44.792)"><circle r="2.5" /></g><g id="node-6" transform="translate(388.429,39.583)"><circle r="2.5" /></g><g id="node-7" transform="translate(361.221,34.375)"><circle r="2.5" /></g><g id="node-8" transform="translate(367.835,29.167)"><circle r="2.5" /></g><g id="node-9" transform="translate(366.146,68.229)"><circle r="0.0" /></g><g id="node-10" transform="translate(340.477,64.323)"><circle r="0.0" /></g><g id="node-11" transform="translate(330.097,59.766)"><circle r="0.0" /></g><g id="node-12" transform="translate(323.322,54.883)"><circle r="0.0" /></g><g id="node-13" transform="translate(318.606,36.979)"><circle r="0.0" /></g><g id="node-14" transform="translate(311.000,49.837)"><circle r="0.0" /></g><g id="node-15" transform="translate(307.139,33.073)"><circle r="0.0" /></g><g id="node-16" transform="translate(305.000,41.455)"><circle r="0.0" /></g></g></g></g></g><g class="toyplot-coordinates-Cartesian" id="t9aec58a134b645b78bfd38ee5d5f6f49"><clipPath id="t469d661ee6f44f0b9122135857c58534"><rect x="435.0" y="15.0" width="110.0" height="70.0" /></clipPath><g clip-path="url(#t469d661ee6f44f0b9122135857c58534)"><g class="toytree-mark-Toytree" id="t498b85670cd44cf7a66bba5e813b97f3"><g class="toytree-Edges" style="fill:none;stroke:rgb(14.9%,14.9%,14.9%);stroke-linecap:round;stroke-opacity:1;stroke-width:0.5"><path d="M 445.0 38.8 L 445.0 48.4 L 458.0 48.4" id="16,15" /><path d="M 458.0 48.4 L 458.0 38.3 L 472.4 38.3" id="15,14" /><path d="M 458.0 48.4 L 458.0 58.5 L 483.5 58.5" id="15,13" /><path d="M 472.4 38.3 L 472.4 42.2 L 513.8 42.2" id="14,12" /><path d="M 483.5 58.5 L 483.5 52.6 L 488.9 52.6" id="13,11" /><path d="M 483.5 58.5 L 483.5 64.3 L 484.0 64.3" id="13,10" /><path d="M 484.0 64.3 L 484.0 68.2 L 487.9 68.2" id="10,9" /><path d="M 445.0 38.8 L 445.0 29.2 L 493.0 29.2" id="16,8" /><path d="M 472.4 38.3 L 472.4 34.4 L 478.1 34.4" id="14,7" /><path d="M 513.8 42.2 L 513.8 39.6 L 530.3 39.6" id="12,6" /><path d="M 513.8 42.2 L 513.8 44.8 L 519.3 44.8" id="12,5" /><path d="M 488.9 52.6 L 488.9 50.0 L 488.9 50.0" id="11,4" /><path d="M 488.9 52.6 L 488.9 55.2 L 489.5 55.2" id="11,3" /><path d="M 484.0 64.3 L 484.0 60.4 L 495.5 60.4" id="10,2" /><path d="M 487.9 68.2 L 487.9 65.6 L 487.9 65.6" id="9,1" /><path d="M 487.9 68.2 L 487.9 70.8 L 490.2 70.8" id="9,0" /></g><g class="toytree-Nodes" style="fill:rgb(100%,0%,0%);fill-opacity:1.0;stroke:None;stroke-width:1"><g id="node-0" transform="translate(490.232,70.833)"><circle r="2.5" /></g><g id="node-1" transform="translate(487.877,65.625)"><circle r="2.5" /></g><g id="node-2" transform="translate(495.529,60.417)"><circle r="2.5" /></g><g id="node-3" transform="translate(489.513,55.208)"><circle r="2.5" /></g><g id="node-4" transform="translate(488.927,50.000)"><circle r="2.5" /></g><g id="node-5" transform="translate(519.320,44.792)"><circle r="2.5" /></g><g id="node-6" transform="translate(530.263,39.583)"><circle r="2.5" /></g><g id="node-7" transform="translate(478.102,34.375)"><circle r="2.5" /></g><g id="node-8" transform="translate(493.030,29.167)"><circle r="2.5" /></g><g id="node-9" transform="translate(487.877,68.229)"><circle r="0.0" /></g><g id="node-10" transform="translate(483.987,64.323)"><circle r="0.0" /></g><g id="node-11" transform="translate(488.927,52.604)"><circle r="0.0" /></g><g id="node-12" transform="translate(513.765,42.188)"><circle r="0.0" /></g><g id="node-13" transform="translate(483.494,58.464)"><circle r="0.0" /></g><g id="node-14" transform="translate(472.396,38.281)"><circle r="0.0" /></g><g id="node-15" transform="translate(457.967,48.372)"><circle r="0.0" /></g><g id="node-16" transform="translate(445.000,38.770)"><circle r="0.0" /></g></g></g></g></g></svg>