<svg class="toyplot-canvas-Canvas" xmlns:toyplot="http://www.sandia.gov/toyplot" xmlns:xlink="http://www.w3.org/1999/xlink" xmlns="http://www.w3.org/2000/svg" width="560.0px" height="100.0px" viewBox="0 0 560.0 100.0" preserveAspectRatio="xMidYMid meet" style="background-color:transparent;border-color:#292724;border-style:none;border-width:1.0;fill:rgb(16.1%,15.3%,14.1%);fill-opacity:1.0;font-family:Helvetica;font-size:12px;opacity:1.0;stroke:rgb(16.1%,15.3%,14.1%);stroke-opacity:1.0;stroke-width:1.0" id="ta34abbb4bdf042c5aad0dc4abe5c5fca"><g class="toyplot-coordinates-Cartesian" id="t818c447a817943588e669c7f09ecf516"><clipPath id="t5b85d28b045a4385a0e5358ed46b2cfa"><rect x="15.0" y="15.0" width="110.0" height="70.0" /></clipPath><g clip-path="url(#t5b85d28b045a4385a0e5358ed46b2cfa)"><g class="toytree-mark-Toytree" id="t3f25c1ac111047538d3e530c7e1aa678"><g class="toytree-Edges" style="fill:none;stroke:rgb(14.9%,14.9%,14.9%);stroke-linecap:round;stroke-opacity:1;stroke-width:0.5"><path d="M 25.0 44.8 L 25.0 60.4 L 37.2 60.4" id="4,3" /><path d="M 25.0 44.8 L 25.0 29.2 L 109.5 29.2" id="4,2" /><path d="M 37.2 60.4 L 37.2 50.0 L 110.3 50.0" id="3,1" /><path d="M 37.2 60.4 L 37.2 70.8 L 108.7 70.8" id="3,0" /></g><g class="toytree-Nodes" style="fill:rgb(100%,0%,0%);fill-opacity:1.0;stroke:None;stroke-width:1"><g id="node-0" transform="translate(108.723,70.833)"><circle r="2.5" /></g><g id="node-1" transform="translate(110.263,50.000)"><circle r="2.5" /></g><g id="node-2" transform="translate(109.486,29.167)"><circle r="2.5" /></g><g id="node-3" transform="translate(37.234,60.417)"><circle r="0.0" /></g><g id="node-4" transform="translate(25.000,44.792)"><circle r="0.0" /></g></g></g></g></g><g class="toyplot-coordinates-Cartesian" id="td8a5df89e32549d59617f741e11b0a9a"><clipPath id="tec5f0626e1864da98fceab03eb4014ed"><rect x="155.0" y="15.0" width="110.0" height="70.0" /></clipPath><g clip-path="url(#tec5f0626e1864da98fceab03eb4014ed)"><g class="toytree-mark-Toytree" id="t23d7a719dddd49f799fc46e044218a6d"><g class="toytree-Edges" style="fill:none;stroke:rgb(14.9%,14.9%,14.9%);stroke-linecap:round;stroke-opacity:1;stroke-width:0.5"><path d="M 165.0 44.8 L 165.0 60.4 L 200.9 60.4" id="4,3" /><path d="M 165.0 44.8 L 165.0 29.2 L 248.8 29.2" id="4,2" /><path d="M 200.9 60.4 L 200.9 50.0 L 247.4 50.0" id="3,1" /><path d="M 200.9 60.4 L 200.9 70.8 L 250.3 70.8" id="3,0" /></g><g class="toytree-Nodes" style="fill:rgb(100%,0%,0%);fill-opacity:1.0;stroke:None;stroke-width:1"><g id="node-0" transform="translate(250.263,70.833)"><circle r="2.5" /></g><g id="node-1" transform="translate(247.387,50.000)"><circle r="2.5" /></g><g id="node-2" transform="translate(248.795,29.167)"><circle r="2.5" /></g><g id="node-3" transform="translate(200.855,60.417)"><circle r="0.0" /></g><g id="node-4" transform="translate(165.000,44.792)"><circle r="0.0" /></g></g></g></g></g><g class="toyplot-coordinates-Cartesian" id="tcb2e312e51274bf9b333541fc5eeb0b0"><clipPath id="t797bf4fb232f45c38f1ec8a7ff8c6691"><rect x="295.0" y="15.0" width="110.0" height="70.0" /></clipPath><g clip-path="url(#t797bf4fb232f45c38f1ec8a7ff8c6691)"><g class="toytree-mark-Toytree" id="t1f0dbd9b374848019e3a96199e2368d4"><g class="toytree-Edges" style="fill:none;stroke:rgb(14.9%,14.9%,14.9%);stroke-linecap:round;stroke-opacity:1;stroke-width:0.5"><path d="M 305.0 44.8 L 305.0 60.4 L 333.5 60.4" id="4,3" /><path d="M 305.0 44.8 L 305.0 29.2 L 386.2 29.2" id="4,2" /><path d="M 333.5 60.4 L 333.5 50.0 L 390.3 50.0" id="3,1" /><path d="M 333.5 60.4 L 333.5 70.8 L 382.6 70.8" id="3,0" /></g><g class="toytree-Nodes" style="fill:rgb(100%,0%,0%);fill-opacity:1.0;stroke:None;stroke-width:1"><g id="node-0" transform="translate(382.578,70.833)"><circle r="2.5" /></g><g id="node-1" transform="translate(390.263,50.000)"><circle r="2.5" /></g><g id="node-2" transform="translate(386.238,29.167)"><circle r="2.5" /></g><g id="node-3" transform="translate(333.497,60.417)"><circle r="0.0" /></g><g id="node-4" transform="translate(305.000,44.792)"><circle r="0.0" /></g></g></g></g></g><g class="toyplot-coordinates-Cartesian" id="t581317f065f24478ae7979fa54bf63b8"><clipPath id="tede6b290855b4aa78d11891957720300"><rect x="435.0" y="15.0" width="110.0" height="70.0" /></clipPath><g clip-path="url(#tede6b290855b4aa78d11891957720300)"><g class="toytree-mark-Toytree" id="t8c8e62933dd9480da44075a7a36f459e"><g class="toytree-Edges" style="fill:none;stroke:rgb(14.9%,14.9%,14.9%);stroke-linecap:round;stroke-opacity:1;stroke-width:0.5"><path d="M 445.0 44.8 L 445.0 60.4 L 470.4 60.4" id="4,3" /><path d="M 445.0 44.8 L 445.0 29.2 L 526.9 29.2" id="4,2" /><path d="M 470.4 60.4 L 470.4 50.0 L 530.3 50.0" id="3,1" /><path d="M 470.4 60.4 L 470.4 70.8 L 523.8 70.8" id="3,0" /></g><g class="toytree-Nodes" style="fill:rgb(100%,0%,0%);fill-opacity:1.0;stroke:None;stroke-width:1"><g id="node-0" transform="translate(523.798,70.833)"><circle r="2.5" /></g><g id="node-1" transform="translate(530.263,50.000)"><circle r="2.5" /></g><g id="node-2" transform="translate(526.910,29.167)"><circle r="2.5" /></g><g id="node-3" transform="translate(470.433,60.417)"><circle r="0.0" /></g><g id="node-4" transform="translate(445.000,44.792)"><circle r="0.0" /></g></g></g></g></g></svg>