<svg class="toyplot-canvas-Canvas" xmlns:toyplot="http://www.sandia.gov/toyplot" xmlns:xlink="http://www.w3.org/1999/xlink" xmlns="http://www.w3.org/2000/svg" width="560.0px" height="100.0px" viewBox="0 0 560.0 100.0" preserveAspectRatio="xMidYMid meet" style="background-color:transparent;border-color:#292724;border-style:none;border-width:1.0;fill:rgb(16.1%,15.3%,14.1%);fill-opacity:1.0;font-family:Helvetica;font-size:12px;opacity:1.0;stroke:rgb(16.1%,15.3%,14.1%);stroke-opacity:1.0;stroke-width:1.0" id="tcd6d0273af5c43df90bbfffd104b6596"><g class="toyplot-coordinates-Cartesian" id="t197080e2157e4a008fb7b4276ed2bc5b"><clipPath id="t8bdc55bade494e9daf320418fe5ef191"><rect x="15.0" y="15.0" width="110.0" height="70.0" /></clipPath><g clip-path="url(#t8bdc55bade494e9daf320418fe5ef191)"><g class="toytree-mark-Toytree" id="t5bb0add4cdbb44a69f6a9ff1de4f77a9"><g class="toytree-Edges" style="fill:none;stroke:rgb(14.9%,14.9%,14.9%);stroke-linecap:round;stroke-opacity:1;stroke-width:0.5"><path d="M 25.0 37.7 L 25.0 31.5 L 34.2 31.5" id="18,17" /><path d="M 25.0 37.7 L 25.0 43.9 L 27.8 43.9" id="18,16" /><path d="M 27.8 43.9 L 27.8 49.3 L 41.4 49.3" id="16,15" /><path d="M 41.4 49.3 L 41.4 55.5 L 68.2 55.5" id="15,14" /><path d="M 68.2 55.5 L 68.2 50.0 L 80.2 50.0" id="14,13" /><path d="M 68.2 55.5 L 68.2 61.0 L 70.2 61.0" id="14,12" /><path d="M 70.2 61.0 L 70.2 65.0 L 73.4 65.0" id="12,11" /><path d="M 73.4 65.0 L 73.4 68.5 L 75.7 68.5" id="11,10" /><path d="M 34.2 31.5 L 34.2 29.2 L 84.6 29.2" id="17,9" /><path d="M 34.2 31.5 L 34.2 33.8 L 79.1 33.8" id="17,8" /><path d="M 27.8 43.9 L 27.8 38.4 L 78.2 38.4" id="16,7" /><path d="M 41.4 49.3 L 41.4 43.1 L 110.3 43.1" id="15,6" /><path d="M 80.2 50.0 L 80.2 47.7 L 83.4 47.7" id="13,5" /><path d="M 80.2 50.0 L 80.2 52.3 L 80.2 52.3" id="13,4" /><path d="M 70.2 61.0 L 70.2 56.9 L 70.2 56.9" id="12,3" /><path d="M 73.4 65.0 L 73.4 61.6 L 73.4 61.6" id="11,2" /><path d="M 75.7 68.5 L 75.7 66.2 L 103.3 66.2" id="10,1" /><path d="M 75.7 68.5 L 75.7 70.8 L 76.2 70.8" id="10,0" /></g><g class="toytree-Nodes" style="fill:rgb(100%,0%,0%);fill-opacity:1.0;stroke:None;stroke-width:1"><g id="node-0" transform="translate(76.247,70.833)"><circle r="2.5" /></g><g id="node-1" transform="translate(103.330,66.204)"><circle r="2.5" /></g><g id="node-2" transform="translate(73.410,61.574)"><circle r="2.5" /></g><g id="node-3" transform="translate(70.230,56.944)"><circle r="2.5" /></g><g id="node-4" transform="translate(80.180,52.315)"><circle r="2.5" /></g><g id="node-5" transform="translate(83.437,47.685)"><circle r="2.5" /></g><g id="node-6" transform="translate(110.263,43.056)"><circle r="2.5" /></g><g id="node-7" transform="translate(78.193,38.426)"><circle r="2.5" /></g><g id="node-8" transform="translate(79.086,33.796)"><circle r="2.5" /></g><g id="node-9" transform="translate(84.582,29.167)"><circle r="2.5" /></g><g id="node-10" transform="translate(75.742,68.519)"><circle r="0.0" /></g><g id="node-11" transform="translate(73.410,65.046)"><circle r="0.0" /></g><g id="node-12" transform="translate(70.230,60.995)"><circle r="0.0" /></g><g id="node-13" transform="translate(80.180,50.000)"><circle r="0.0" /></g><g id="node-14" transform="translate(68.231,55.498)"><circle r="0.0" /></g><g id="node-15" transform="translate(41.376,49.277)"><circle r="0.0" /></g><g id="node-16" transform="translate(27.766,43.851)"><circle r="0.0" /></g><g id="node-17" transform="translate(34.200,31.481)"><circle r="0.0" /></g><g id="node-18" transform="translate(25.000,37.666)"><circle r="0.0" /></g></g></g></g></g><g class="toyplot-coordinates-Cartesian" id="t63933bd58b214304bc4724876209ca52"><clipPath id="t8b220d8cdf974b298a60ec804de8bfb0"><rect x="155.0" y="15.0" width="110.0" height="70.0" /></clipPath><g clip-path="url(#t8b220d8cdf974b298a60ec804de8bfb0)"><g class="toytree-mark-Toytree" id="tae64f23a09bb474badaf794cf0abeeb6"><g class="toytree-Edges" style="fill:none;stroke:rgb(14.9%,14.9%,14.9%);stroke-linecap:round;stroke-opacity:1;stroke-width:0.5"><path d="M 165.0 39.8 L 165.0 31.5 L 176.5 31.5" id="18,17" /><path d="M 165.0 39.8 L 165.0 48.1 L 171.1 48.1" id="18,16" /><path d="M 171.1 48.1 L 171.1 40.7 L 176.2 40.7" id="16,15" /><path d="M 171.1 48.1 L 171.1 55.5 L 182.7 55.5" id="16,14" /><path d="M 182.7 55.5 L 182.7 50.0 L 194.2 50.0" id="14,13" /><path d="M 182.7 55.5 L 182.7 61.0 L 187.7 61.0" id="14,12" /><path d="M 187.7 61.0 L 187.7 65.0 L 191.9 65.0" id="12,11" /><path d="M 191.9 65.0 L 191.9 68.5 L 209.4 68.5" id="11,10" /><path d="M 176.5 31.5 L 176.5 29.2 L 230.6 29.2" id="17,9" /><path d="M 176.5 31.5 L 176.5 33.8 L 227.5 33.8" id="17,8" /><path d="M 176.2 40.7 L 176.2 38.4 L 227.8 38.4" id="15,7" /><path d="M 176.2 40.7 L 176.2 43.1 L 229.1 43.1" id="15,6" /><path d="M 194.2 50.0 L 194.2 47.7 L 219.9 47.7" id="13,5" /><path d="M 194.2 50.0 L 194.2 52.3 L 223.2 52.3" id="13,4" /><path d="M 187.7 61.0 L 187.7 56.9 L 250.3 56.9" id="12,3" /><path d="M 191.9 65.0 L 191.9 61.6 L 234.8 61.6" id="11,2" /><path d="M 209.4 68.5 L 209.4 66.2 L 229.7 66.2" id="10,1" /><path d="M 209.4 68.5 L 209.4 70.8 L 225.7 70.8" id="10,0" /></g><g class="toytree-Nodes" style="fill:rgb(100%,0%,0%);fill-opacity:1.0;stroke:None;stroke-width:1"><g id="node-0" transform="translate(225.680,70.833)"><circle r="2.5" /></g><g id="node-1" transform="translate(229.708,66.204)"><circle r="2.5" /></g><g id="node-2" transform="translate(234.795,61.574)"><circle r="2.5" /></g><g id="node-3" transform="translate(250.263,56.944)"><circle r="2.5" /></g><g id="node-4" transform="translate(223.215,52.315)"><circle r="2.5" /></g><g id="node-5" transform="translate(219.949,47.685)"><circle r="2.5" /></g><g id="node-6" transform="translate(229.088,43.056)"><circle r="2.5" /></g><g id="node-7" transform="translate(227.841,38.426)"><circle r="2.5" /></g><g id="node-8" transform="translate(227.489,33.796)"><circle r="2.5" /></g><g id="node-9" transform="translate(230.644,29.167)"><circle r="2.5" /></g><g id="node-10" transform="translate(209.439,68.519)"><circle r="0.0" /></g><g id="node-11" transform="translate(191.926,65.046)"><circle r="0.0" /></g><g id="node-12" transform="translate(187.726,60.995)"><circle r="0.0" /></g><g id="node-13" transform="translate(194.217,50.000)"><circle r="0.0" /></g><g id="node-14" transform="translate(182.685,55.498)"><circle r="0.0" /></g><g id="node-15" transform="translate(176.213,40.741)"><circle r="0.0" /></g><g id="node-16" transform="translate(171.102,48.119)"><circle r="0.0" /></g><g id="node-17" transform="translate(176.518,31.481)"><circle r="0.0" /></g><g id="node-18" transform="translate(165.000,39.800)"><circle r="0.0" /></g></g></g></g></g><g class="toyplot-coordinates-Cartesian" id="t2b948b692ad84e27bdaa5607a94097fb"><clipPath id="t0e2a58fd01b3432b92dbfe2a3094f5a9"><rect x="295.0" y="15.0" width="110.0" height="70.0" /></clipPath><g clip-path="url(#t0e2a58fd01b3432b92dbfe2a3094f5a9)"><g class="toytree-mark-Toytree" id="t28ea93306a204688a5e503ff95b75ca7"><g class="toytree-Edges" style="fill:none;stroke:rgb(14.9%,14.9%,14.9%);stroke-linecap:round;stroke-opacity:1;stroke-width:0.5"><path d="M 305.0 34.0 L 305.0 38.8 L 323.7 38.8" id="18,17" /><path d="M 323.7 38.8 L 323.7 43.9 L 333.9 43.9" id="17,16" /><path d="M 333.9 43.9 L 333.9 49.3 L 337.5 49.3" id="16,15" /><path d="M 337.5 49.3 L 337.5 55.5 L 344.6 55.5" id="15,14" /><path d="M 344.6 55.5 L 344.6 50.0 L 354.3 50.0" id="14,13" /><path d="M 344.6 55.5 L 344.6 61.0 L 346.0 61.0" id="14,12" /><path d="M 346.0 61.0 L 346.0 65.0 L 352.0 65.0" id="12,11" /><path d="M 352.0 65.0 L 352.0 68.5 L 355.7 68.5" id="11,10" /><path d="M 305.0 34.0 L 305.0 29.2 L 368.9 29.2" id="18,9" /><path d="M 323.7 38.8 L 323.7 33.8 L 362.1 33.8" id="17,8" /><path d="M 333.9 43.9 L 333.9 38.4 L 363.8 38.4" id="16,7" /><path d="M 337.5 49.3 L 337.5 43.1 L 390.3 43.1" id="15,6" /><path d="M 354.3 50.0 L 354.3 47.7 L 360.0 47.7" id="13,5" /><path d="M 354.3 50.0 L 354.3 52.3 L 359.2 52.3" id="13,4" /><path d="M 346.0 61.0 L 346.0 56.9 L 362.0 56.9" id="12,3" /><path d="M 352.0 65.0 L 352.0 61.6 L 389.5 61.6" id="11,2" /><path d="M 355.7 68.5 L 355.7 66.2 L 368.4 66.2" id="10,1" /><path d="M 355.7 68.5 L 355.7 70.8 L 383.9 70.8" id="10,0" /></g><g class="toytree-Nodes" style="fill:rgb(100%,0%,0%);fill-opacity:1.0;stroke:None;stroke-width:1"><g id="node-0" transform="translate(383.929,70.833)"><circle r="2.5" /></g><g id="node-1" transform="translate(368.354,66.204)"><circle r="2.5" /></g><g id="node-2" transform="translate(389.450,61.574)"><circle r="2.5" /></g><g id="node-3" transform="translate(361.972,56.944)"><circle r="2.5" /></g><g id="node-4" transform="translate(359.243,52.315)"><circle r="2.5" /></g><g id="node-5" transform="translate(359.951,47.685)"><circle r="2.5" /></g><g id="node-6" transform="translate(390.263,43.056)"><circle r="2.5" /></g><g id="node-7" transform="translate(363.815,38.426)"><circle r="2.5" /></g><g id="node-8" transform="translate(362.084,33.796)"><circle r="2.5" /></g><g id="node-9" transform="translate(368.889,29.167)"><circle r="2.5" /></g><g id="node-10" transform="translate(355.702,68.519)"><circle r="0.0" /></g><g id="node-11" transform="translate(352.031,65.046)"><circle r="0.0" /></g><g id="node-12" transform="translate(345.995,60.995)"><circle r="0.0" /></g><g id="node-13" transform="translate(354.285,50.000)"><circle r="0.0" /></g><g id="node-14" transform="translate(344.578,55.498)"><circle r="0.0" /></g><g id="node-15" transform="translate(337.536,49.277)"><circle r="0.0" /></g><g id="node-16" transform="translate(333.857,43.851)"><circle r="0.0" /></g><g id="node-17" transform="translate(323.651,38.824)"><circle r="0.0" /></g><g id="node-18" transform="translate(305.000,33.995)"><circle r="0.0" /></g></g></g></g></g><g class="toyplot-coordinates-Cartesian" id="t596d61f28c1d429c85948b329f5a086c"><clipPath id="t1f47e76c48244e7eaf01975e7ff7d432"><rect x="435.0" y="15.0" width="110.0" height="70.0" /></clipPath><g clip-path="url(#t1f47e76c48244e7eaf01975e7ff7d432)"><g class="toytree-mark-Toytree" id="t855ced86e00d4e6781b97462ef9ed2ae"><g class="toytree-Edges" style="fill:none;stroke:rgb(14.9%,14.9%,14.9%);stroke-linecap:round;stroke-opacity:1;stroke-width:0.5"><path d="M 445.0 41.3 L 445.0 32.6 L 466.3 32.6" id="18,17" /><path d="M 445.0 41.3 L 445.0 50.0 L 477.0 50.0" id="18,16" /><path d="M 466.3 32.6 L 466.3 36.1 L 489.0 36.1" id="17,15" /><path d="M 477.0 50.0 L 477.0 56.9 L 483.6 56.9" id="16,14" /><path d="M 483.6 56.9 L 483.6 50.0 L 494.1 50.0" id="14,13" /><path d="M 483.6 56.9 L 483.6 63.9 L 490.4 63.9" id="14,12" /><path d="M 490.4 63.9 L 490.4 59.3 L 491.8 59.3" id="12,11" /><path d="M 490.4 63.9 L 490.4 68.5 L 490.4 68.5" id="12,10" /><path d="M 466.3 32.6 L 466.3 29.2 L 482.7 29.2" id="17,9" /><path d="M 489.0 36.1 L 489.0 33.8 L 515.0 33.8" id="15,8" /><path d="M 489.0 36.1 L 489.0 38.4 L 511.6 38.4" id="15,7" /><path d="M 477.0 50.0 L 477.0 43.1 L 530.3 43.1" id="16,6" /><path d="M 494.1 50.0 L 494.1 47.7 L 495.5 47.7" id="13,5" /><path d="M 494.1 50.0 L 494.1 52.3 L 494.1 52.3" id="13,4" /><path d="M 491.8 59.3 L 491.8 56.9 L 491.8 56.9" id="11,3" /><path d="M 491.8 59.3 L 491.8 61.6 L 493.2 61.6" id="11,2" /><path d="M 490.4 68.5 L 490.4 66.2 L 490.4 66.2" id="10,1" /><path d="M 490.4 68.5 L 490.4 70.8 L 519.0 70.8" id="10,0" /></g><g class="toytree-Nodes" style="fill:rgb(100%,0%,0%);fill-opacity:1.0;stroke:None;stroke-width:1"><g id="node-0" transform="translate(518.996,70.833)"><circle r="2.5" /></g><g id="node-1" transform="translate(490.374,66.204)"><circle r="2.5" /></g><g id="node-2" transform="translate(493.209,61.574)"><circle r="2.5" /></g><g id="node-3" transform="translate(491.790,56.944)"><circle r="2.5" /></g><g id="node-4" transform="translate(494.111,52.315)"><circle r="2.5" /></g><g id="node-5" transform="translate(495.535,47.685)"><circle r="2.5" /></g><g id="node-6" transform="translate(530.263,43.056)"><circle r="2.5" /></g><g id="node-7" transform="translate(511.556,38.426)"><circle r="2.5" /></g><g id="node-8" transform="translate(515.035,33.796)"><circle r="2.5" /></g><g id="node-9" transform="translate(482.711,29.167)"><circle r="2.5" /></g><g id="node-10" transform="translate(490.374,68.519)"><circle r="0.0" /></g><g id="node-11" transform="translate(491.790,59.259)"><circle r="0.0" /></g><g id="node-12" transform="translate(490.374,63.889)"><circle r="0.0" /></g><g id="node-13" transform="translate(494.111,50.000)"><circle r="0.0" /></g><g id="node-14" transform="translate(483.649,56.944)"><circle r="0.0" /></g><g id="node-15" transform="translate(489.005,36.111)"><circle r="0.0" /></g><g id="node-16" transform="translate(477.045,50.000)"><circle r="0.0" /></g><g id="node-17" transform="translate(466.327,32.639)"><circle r="0.0" /></g><g id="node-18" transform="translate(445.000,41.319)"><circle r="0.0" /></g></g></g></g></g></svg>