<svg class="toyplot-canvas-Canvas" xmlns:toyplot="http://www.sandia.gov/toyplot" xmlns:xlink="http://www.w3.org/1999/xlink" xmlns="http://www.w3.org/2000/svg" width="560.0px" height="100.0px" viewBox="0 0 560.0 100.0" preserveAspectRatio="xMidYMid meet" style="background-color:transparent;border-color:#292724;border-style:none;border-width:1.0;fill:rgb(16.1%,15.3%,14.1%);fill-opacity:1.0;font-family:Helvetica;font-size:12px;opacity:1.0;stroke:rgb(16.1%,15.3%,14.1%);stroke-opacity:1.0;stroke-width:1.0" id="tfa67ba6ab0a1495582767f0917845d9a"><g class="toyplot-coordinates-Cartesian" id="tb26c380011bf4392be18cdf1e42022dc"><clipPath id="t427c525b61304faa80856d59b90e1318"><rect x="15.0" y="15.0" width="110.0" height="70.0" /></clipPath><g clip-path="url(#t427c525b61304faa80856d59b90e1318)"><g class="toytree-mark-Toytree" id="t0af739964e374d68b4815fa8e34f2468"><g class="toytree-Edges" style="fill:none;stroke:rgb(14.9%,14.9%,14.9%);stroke-linecap:round;stroke-opacity:1;stroke-width:0.5"><path d="M 25.0 44.4 L 25.0 34.2 L 29.6 34.2" id="30,29" /><path d="M 25.0 44.4 L 25.0 54.6 L 26.0 54.6" id="30,28" /><path d="M 29.6 34.2 L 29.6 39.2 L 31.5 39.2" id="29,27" /><path d="M 26.0 54.6 L 26.0 57.9 L 37.6 57.9" id="28,26" /><path d="M 31.5 39.2 L 31.5 34.0 L 32.2 34.0" id="27,25" /><path d="M 31.5 39.2 L 31.5 44.4 L 37.6 44.4" id="27,24" /><path d="M 37.6 57.9 L 37.6 61.6 L 38.9 61.6" id="26,23" /><path d="M 32.2 34.0 L 32.2 36.1 L 39.0 36.1" id="25,22" /><path d="M 37.6 44.4 L 37.6 41.7 L 47.2 41.7" id="24,21" /><path d="M 37.6 44.4 L 37.6 47.2 L 54.1 47.2" id="24,20" /><path d="M 38.9 61.6 L 38.9 58.3 L 42.5 58.3" id="23,19" /><path d="M 38.9 61.6 L 38.9 64.9 L 39.9 64.9" id="23,18" /><path d="M 39.9 64.9 L 39.9 67.4 L 46.3 67.4" id="18,17" /><path d="M 46.3 67.4 L 46.3 69.4 L 54.5 69.4" id="17,16" /><path d="M 29.6 34.2 L 29.6 29.2 L 99.0 29.2" id="29,15" /><path d="M 32.2 34.0 L 32.2 31.9 L 104.8 31.9" id="25,14" /><path d="M 39.0 36.1 L 39.0 34.7 L 93.9 34.7" id="22,13" /><path d="M 39.0 36.1 L 39.0 37.5 L 87.3 37.5" id="22,12" /><path d="M 47.2 41.7 L 47.2 40.3 L 107.6 40.3" id="21,11" /><path d="M 47.2 41.7 L 47.2 43.1 L 110.3 43.1" id="21,10" /><path d="M 54.1 47.2 L 54.1 45.8 L 103.5 45.8" id="20,9" /><path d="M 54.1 47.2 L 54.1 48.6 L 103.0 48.6" id="20,8" /><path d="M 26.0 54.6 L 26.0 51.4 L 90.0 51.4" id="28,7" /><path d="M 37.6 57.9 L 37.6 54.2 L 95.8 54.2" id="26,6" /><path d="M 42.5 58.3 L 42.5 56.9 L 106.8 56.9" id="19,5" /><path d="M 42.5 58.3 L 42.5 59.7 L 105.6 59.7" id="19,4" /><path d="M 39.9 64.9 L 39.9 62.5 L 97.1 62.5" id="18,3" /><path d="M 46.3 67.4 L 46.3 65.3 L 103.0 65.3" id="17,2" /><path d="M 54.5 69.4 L 54.5 68.1 L 109.6 68.1" id="16,1" /><path d="M 54.5 69.4 L 54.5 70.8 L 99.9 70.8" id="16,0" /></g><g class="toytree-Nodes" style="fill:rgb(100%,0%,0%);fill-opacity:1.0;stroke:None;stroke-width:1"><g id="node-0" transform="translate(99.889,70.833)"><circle r="2.5" /></g><g id="node-1" transform="translate(109.618,68.056)"><circle r="2.5" /></g><g id="node-2" transform="translate(102.971,65.278)"><circle r="2.5" /></g><g id="node-3" transform="translate(97.084,62.500)"><circle r="2.5" /></g><g id="node-4" transform="translate(105.625,59.722)"><circle r="2.5" /></g><g id="node-5" transform="translate(106.770,56.944)"><circle r="2.5" /></g><g id="node-6" transform="translate(95.842,54.167)"><circle r="2.5" /></g><g id="node-7" transform="translate(90.042,51.389)"><circle r="2.5" /></g><g id="node-8" transform="translate(103.035,48.611)"><circle r="2.5" /></g><g id="node-9" transform="translate(103.533,45.833)"><circle r="2.5" /></g><g id="node-10" transform="translate(110.263,43.056)"><circle r="2.5" /></g><g id="node-11" transform="translate(107.625,40.278)"><circle r="2.5" /></g><g id="node-12" transform="translate(87.256,37.500)"><circle r="2.5" /></g><g id="node-13" transform="translate(93.914,34.722)"><circle r="2.5" /></g><g id="node-14" transform="translate(104.785,31.944)"><circle r="2.5" /></g><g id="node-15" transform="translate(98.968,29.167)"><circle r="2.5" /></g><g id="node-16" transform="translate(54.515,69.444)"><circle r="0.0" /></g><g id="node-17" transform="translate(46.306,67.361)"><circle r="0.0" /></g><g id="node-18" transform="translate(39.873,64.931)"><circle r="0.0" /></g><g id="node-19" transform="translate(42.525,58.333)"><circle r="0.0" /></g><g id="node-20" transform="translate(54.138,47.222)"><circle r="0.0" /></g><g id="node-21" transform="translate(47.183,41.667)"><circle r="0.0" /></g><g id="node-22" transform="translate(39.036,36.111)"><circle r="0.0" /></g><g id="node-23" transform="translate(38.919,61.632)"><circle r="0.0" /></g><g id="node-24" transform="translate(37.555,44.444)"><circle r="0.0" /></g><g id="node-25" transform="translate(32.238,34.028)"><circle r="0.0" /></g><g id="node-26" transform="translate(37.560,57.899)"><circle r="0.0" /></g><g id="node-27" transform="translate(31.541,39.236)"><circle r="0.0" /></g><g id="node-28" transform="translate(26.029,54.644)"><circle r="0.0" /></g><g id="node-29" transform="translate(29.554,34.201)"><circle r="0.0" /></g><g id="node-30" transform="translate(25.000,44.423)"><circle r="0.0" /></g></g></g></g></g><g class="toyplot-coordinates-Cartesian" id="tc0b0c549e1e6498e9f9aa5680bf28d95"><clipPath id="t69462e5443ee4c90b3dae531c28ec6b7"><rect x="155.0" y="15.0" width="110.0" height="70.0" /></clipPath><g clip-path="url(#t69462e5443ee4c90b3dae531c28ec6b7)"><g class="toytree-mark-Toytree" id="td75528f8253d4eb783e48d3a34c57bca"><g class="toytree-Edges" style="fill:none;stroke:rgb(14.9%,14.9%,14.9%);stroke-linecap:round;stroke-opacity:1;stroke-width:0.5"><path d="M 165.0 40.6 L 165.0 33.3 L 175.2 33.3" id="30,29" /><path d="M 165.0 40.6 L 165.0 48.0 L 171.8 48.0" id="30,28" /><path d="M 175.2 33.3 L 175.2 30.6 L 193.4 30.6" id="29,27" /><path d="M 175.2 33.3 L 175.2 36.1 L 188.5 36.1" id="29,26" /><path d="M 171.8 48.0 L 171.8 41.7 L 186.0 41.7" id="28,25" /><path d="M 171.8 48.0 L 171.8 54.3 L 186.4 54.3" id="28,24" /><path d="M 186.4 54.3 L 186.4 47.9 L 193.7 47.9" id="24,23" /><path d="M 186.4 54.3 L 186.4 60.6 L 195.5 60.6" id="24,22" /><path d="M 193.7 47.9 L 193.7 50.0 L 196.7 50.0" id="23,21" /><path d="M 195.5 60.6 L 195.5 56.2 L 201.5 56.2" id="22,20" /><path d="M 195.5 60.6 L 195.5 64.9 L 203.4 64.9" id="22,19" /><path d="M 201.5 56.2 L 201.5 58.3 L 206.0 58.3" id="20,18" /><path d="M 203.4 64.9 L 203.4 67.4 L 212.8 67.4" id="19,17" /><path d="M 212.8 67.4 L 212.8 69.4 L 221.9 69.4" id="17,16" /><path d="M 193.4 30.6 L 193.4 29.2 L 226.5 29.2" id="27,15" /><path d="M 193.4 30.6 L 193.4 31.9 L 250.3 31.9" id="27,14" /><path d="M 188.5 36.1 L 188.5 34.7 L 204.7 34.7" id="26,13" /><path d="M 188.5 36.1 L 188.5 37.5 L 207.3 37.5" id="26,12" /><path d="M 186.0 41.7 L 186.0 40.3 L 246.6 40.3" id="25,11" /><path d="M 186.0 41.7 L 186.0 43.1 L 217.4 43.1" id="25,10" /><path d="M 193.7 47.9 L 193.7 45.8 L 201.3 45.8" id="23,9" /><path d="M 196.7 50.0 L 196.7 48.6 L 209.0 48.6" id="21,8" /><path d="M 196.7 50.0 L 196.7 51.4 L 209.9 51.4" id="21,7" /><path d="M 201.5 56.2 L 201.5 54.2 L 204.6 54.2" id="20,6" /><path d="M 206.0 58.3 L 206.0 56.9 L 215.0 56.9" id="18,5" /><path d="M 206.0 58.3 L 206.0 59.7 L 216.6 59.7" id="18,4" /><path d="M 203.4 64.9 L 203.4 62.5 L 216.4 62.5" id="19,3" /><path d="M 212.8 67.4 L 212.8 65.3 L 231.0 65.3" id="17,2" /><path d="M 221.9 69.4 L 221.9 68.1 L 244.3 68.1" id="16,1" /><path d="M 221.9 69.4 L 221.9 70.8 L 230.7 70.8" id="16,0" /></g><g class="toytree-Nodes" style="fill:rgb(100%,0%,0%);fill-opacity:1.0;stroke:None;stroke-width:1"><g id="node-0" transform="translate(230.725,70.833)"><circle r="2.5" /></g><g id="node-1" transform="translate(244.336,68.056)"><circle r="2.5" /></g><g id="node-2" transform="translate(230.954,65.278)"><circle r="2.5" /></g><g id="node-3" transform="translate(216.380,62.500)"><circle r="2.5" /></g><g id="node-4" transform="translate(216.642,59.722)"><circle r="2.5" /></g><g id="node-5" transform="translate(214.957,56.944)"><circle r="2.5" /></g><g id="node-6" transform="translate(204.562,54.167)"><circle r="2.5" /></g><g id="node-7" transform="translate(209.935,51.389)"><circle r="2.5" /></g><g id="node-8" transform="translate(208.950,48.611)"><circle r="2.5" /></g><g id="node-9" transform="translate(201.335,45.833)"><circle r="2.5" /></g><g id="node-10" transform="translate(217.364,43.056)"><circle r="2.5" /></g><g id="node-11" transform="translate(246.645,40.278)"><circle r="2.5" /></g><g id="node-12" transform="translate(207.294,37.500)"><circle r="2.5" /></g><g id="node-13" transform="translate(204.734,34.722)"><circle r="2.5" /></g><g id="node-14" transform="translate(250.263,31.944)"><circle r="2.5" /></g><g id="node-15" transform="translate(226.519,29.167)"><circle r="2.5" /></g><g id="node-16" transform="translate(221.938,69.444)"><circle r="0.0" /></g><g id="node-17" transform="translate(212.824,67.361)"><circle r="0.0" /></g><g id="node-18" transform="translate(205.952,58.333)"><circle r="0.0" /></g><g id="node-19" transform="translate(203.359,64.931)"><circle r="0.0" /></g><g id="node-20" transform="translate(201.455,56.250)"><circle r="0.0" /></g><g id="node-21" transform="translate(196.750,50.000)"><circle r="0.0" /></g><g id="node-22" transform="translate(195.481,60.590)"><circle r="0.0" /></g><g id="node-23" transform="translate(193.708,47.917)"><circle r="0.0" /></g><g id="node-24" transform="translate(186.410,54.253)"><circle r="0.0" /></g><g id="node-25" transform="translate(186.049,41.667)"><circle r="0.0" /></g><g id="node-26" transform="translate(188.452,36.111)"><circle r="0.0" /></g><g id="node-27" transform="translate(193.420,30.556)"><circle r="0.0" /></g><g id="node-28" transform="translate(171.769,47.960)"><circle r="0.0" /></g><g id="node-29" transform="translate(175.234,33.333)"><circle r="0.0" /></g><g id="node-30" transform="translate(165.000,40.647)"><circle r="0.0" /></g></g></g></g></g><g class="toyplot-coordinates-Cartesian" id="t78f4bf10dbc14e75b99a1485ae6ff2a5"><clipPath id="t6885d5fdc13342d995e4729521efd007"><rect x="295.0" y="15.0" width="110.0" height="70.0" /></clipPath><g clip-path="url(#t6885d5fdc13342d995e4729521efd007)"><g class="toytree-mark-Toytree" id="teb7422008cee4dbf9fa127b5503f564a"><g class="toytree-Edges" style="fill:none;stroke:rgb(14.9%,14.9%,14.9%);stroke-linecap:round;stroke-opacity:1;stroke-width:0.5"><path d="M 305.0 35.6 L 305.0 30.6 L 309.9 30.6" id="30,29" /><path d="M 305.0 35.6 L 305.0 40.7 L 310.5 40.7" id="30,28" /><path d="M 310.5 40.7 L 310.5 46.7 L 313.5 46.7" id="28,27" /><path d="M 313.5 46.7 L 313.5 39.6 L 322.1 39.6" id="27,26" /><path d="M 313.5 46.7 L 313.5 53.9 L 321.1 53.9" id="27,25" /><path d="M 322.1 39.6 L 322.1 41.7 L 348.3 41.7" id="26,24" /><path d="M 321.1 53.9 L 321.1 47.9 L 324.4 47.9" id="25,23" /><path d="M 321.1 53.9 L 321.1 59.9 L 348.6 59.9" id="25,22" /><path d="M 324.4 47.9 L 324.4 50.0 L 330.9 50.0" id="23,21" /><path d="M 348.6 59.9 L 348.6 55.6 L 353.7 55.6" id="22,20" /><path d="M 348.6 59.9 L 348.6 64.2 L 352.7 64.2" id="22,19" /><path d="M 352.7 64.2 L 352.7 61.1 L 358.1 61.1" id="19,18" /><path d="M 352.7 64.2 L 352.7 67.4 L 360.8 67.4" id="19,17" /><path d="M 360.8 67.4 L 360.8 69.4 L 366.0 69.4" id="17,16" /><path d="M 309.9 30.6 L 309.9 29.2 L 360.2 29.2" id="29,15" /><path d="M 309.9 30.6 L 309.9 31.9 L 373.4 31.9" id="29,14" /><path d="M 310.5 40.7 L 310.5 34.7 L 355.2 34.7" id="28,13" /><path d="M 322.1 39.6 L 322.1 37.5 L 364.0 37.5" id="26,12" /><path d="M 348.3 41.7 L 348.3 40.3 L 377.2 40.3" id="24,11" /><path d="M 348.3 41.7 L 348.3 43.1 L 366.5 43.1" id="24,10" /><path d="M 324.4 47.9 L 324.4 45.8 L 349.3 45.8" id="23,9" /><path d="M 330.9 50.0 L 330.9 48.6 L 347.3 48.6" id="21,8" /><path d="M 330.9 50.0 L 330.9 51.4 L 344.3 51.4" id="21,7" /><path d="M 353.7 55.6 L 353.7 54.2 L 378.8 54.2" id="20,6" /><path d="M 353.7 55.6 L 353.7 56.9 L 372.4 56.9" id="20,5" /><path d="M 358.1 61.1 L 358.1 59.7 L 381.3 59.7" id="18,4" /><path d="M 358.1 61.1 L 358.1 62.5 L 388.1 62.5" id="18,3" /><path d="M 360.8 67.4 L 360.8 65.3 L 380.1 65.3" id="17,2" /><path d="M 366.0 69.4 L 366.0 68.1 L 385.5 68.1" id="16,1" /><path d="M 366.0 69.4 L 366.0 70.8 L 390.3 70.8" id="16,0" /></g><g class="toytree-Nodes" style="fill:rgb(100%,0%,0%);fill-opacity:1.0;stroke:None;stroke-width:1"><g id="node-0" transform="translate(390.263,70.833)"><circle r="2.5" /></g><g id="node-1" transform="translate(385.534,68.056)"><circle r="2.5" /></g><g id="node-2" transform="translate(380.083,65.278)"><circle r="2.5" /></g><g id="node-3" transform="translate(388.060,62.500)"><circle r="2.5" /></g><g id="node-4" transform="translate(381.350,59.722)"><circle r="2.5" /></g><g id="node-5" transform="translate(372.359,56.944)"><circle r="2.5" /></g><g id="node-6" transform="translate(378.808,54.167)"><circle r="2.5" /></g><g id="node-7" transform="translate(344.313,51.389)"><circle r="2.5" /></g><g id="node-8" transform="translate(347.307,48.611)"><circle r="2.5" /></g><g id="node-9" transform="translate(349.319,45.833)"><circle r="2.5" /></g><g id="node-10" transform="translate(366.478,43.056)"><circle r="2.5" /></g><g id="node-11" transform="translate(377.227,40.278)"><circle r="2.5" /></g><g id="node-12" transform="translate(363.998,37.500)"><circle r="2.5" /></g><g id="node-13" transform="translate(355.223,34.722)"><circle r="2.5" /></g><g id="node-14" transform="translate(373.372,31.944)"><circle r="2.5" /></g><g id="node-15" transform="translate(360.212,29.167)"><circle r="2.5" /></g><g id="node-16" transform="translate(365.979,69.444)"><circle r="0.0" /></g><g id="node-17" transform="translate(360.843,67.361)"><circle r="0.0" /></g><g id="node-18" transform="translate(358.064,61.111)"><circle r="0.0" /></g><g id="node-19" transform="translate(352.720,64.236)"><circle r="0.0" /></g><g id="node-20" transform="translate(353.664,55.556)"><circle r="0.0" /></g><g id="node-21" transform="translate(330.916,50.000)"><circle r="0.0" /></g><g id="node-22" transform="translate(348.551,59.896)"><circle r="0.0" /></g><g id="node-23" transform="translate(324.359,47.917)"><circle r="0.0" /></g><g id="node-24" transform="translate(348.282,41.667)"><circle r="0.0" /></g><g id="node-25" transform="translate(321.104,53.906)"><circle r="0.0" /></g><g id="node-26" transform="translate(322.110,39.583)"><circle r="0.0" /></g><g id="node-27" transform="translate(313.488,46.745)"><circle r="0.0" /></g><g id="node-28" transform="translate(310.540,40.734)"><circle r="0.0" /></g><g id="node-29" transform="translate(309.863,30.556)"><circle r="0.0" /></g><g id="node-30" transform="translate(305.000,35.645)"><circle r="0.0" /></g></g></g></g></g><g class="toyplot-coordinates-Cartesian" id="t832bf0156f1549eea29639d8da42b8e1"><clipPath id="t581f4fcce62442bf9a15f5ce8bebf48a"><rect x="435.0" y="15.0" width="110.0" height="70.0" /></clipPath><g clip-path="url(#t581f4fcce62442bf9a15f5ce8bebf48a)"><g class="toytree-mark-Toytree" id="t3aa76ce00069479f843472fa6eb536c7"><g class="toytree-Edges" style="fill:none;stroke:rgb(14.9%,14.9%,14.9%);stroke-linecap:round;stroke-opacity:1;stroke-width:0.5"><path d="M 445.0 43.9 L 445.0 32.4 L 458.7 32.4" id="30,29" /><path d="M 445.0 43.9 L 445.0 55.4 L 453.7 55.4" id="30,28" /><path d="M 458.7 32.4 L 458.7 35.6 L 466.5 35.6" id="29,27" /><path d="M 453.7 55.4 L 453.7 50.7 L 462.9 50.7" id="28,26" /><path d="M 453.7 55.4 L 453.7 60.1 L 456.7 60.1" id="28,25" /><path d="M 466.5 35.6 L 466.5 39.2 L 470.1 39.2" id="27,24" /><path d="M 462.9 50.7 L 462.9 52.8 L 491.0 52.8" id="26,23" /><path d="M 456.7 60.1 L 456.7 63.2 L 464.6 63.2" id="25,22" /><path d="M 470.1 39.2 L 470.1 36.1 L 482.9 36.1" id="24,21" /><path d="M 470.1 39.2 L 470.1 42.4 L 482.8 42.4" id="24,20" /><path d="M 464.6 63.2 L 464.6 66.7 L 471.5 66.7" id="22,19" /><path d="M 482.8 42.4 L 482.8 44.4 L 492.1 44.4" id="20,18" /><path d="M 471.5 66.7 L 471.5 63.9 L 478.3 63.9" id="19,17" /><path d="M 471.5 66.7 L 471.5 69.4 L 492.2 69.4" id="19,16" /><path d="M 458.7 32.4 L 458.7 29.2 L 480.7 29.2" id="29,15" /><path d="M 466.5 35.6 L 466.5 31.9 L 499.5 31.9" id="27,14" /><path d="M 482.9 36.1 L 482.9 34.7 L 510.8 34.7" id="21,13" /><path d="M 482.9 36.1 L 482.9 37.5 L 511.8 37.5" id="21,12" /><path d="M 482.8 42.4 L 482.8 40.3 L 501.7 40.3" id="20,11" /><path d="M 492.1 44.4 L 492.1 43.1 L 525.0 43.1" id="18,10" /><path d="M 492.1 44.4 L 492.1 45.8 L 522.1 45.8" id="18,9" /><path d="M 462.9 50.7 L 462.9 48.6 L 493.9 48.6" id="26,8" /><path d="M 491.0 52.8 L 491.0 51.4 L 516.7 51.4" id="23,7" /><path d="M 491.0 52.8 L 491.0 54.2 L 514.5 54.2" id="23,6" /><path d="M 456.7 60.1 L 456.7 56.9 L 478.5 56.9" id="25,5" /><path d="M 464.6 63.2 L 464.6 59.7 L 486.2 59.7" id="22,4" /><path d="M 478.3 63.9 L 478.3 62.5 L 519.1 62.5" id="17,3" /><path d="M 478.3 63.9 L 478.3 65.3 L 523.5 65.3" id="17,2" /><path d="M 492.2 69.4 L 492.2 68.1 L 521.6 68.1" id="16,1" /><path d="M 492.2 69.4 L 492.2 70.8 L 530.3 70.8" id="16,0" /></g><g class="toytree-Nodes" style="fill:rgb(100%,0%,0%);fill-opacity:1.0;stroke:None;stroke-width:1"><g id="node-0" transform="translate(530.263,70.833)"><circle r="2.5" /></g><g id="node-1" transform="translate(521.582,68.056)"><circle r="2.5" /></g><g id="node-2" transform="translate(523.499,65.278)"><circle r="2.5" /></g><g id="node-3" transform="translate(519.067,62.500)"><circle r="2.5" /></g><g id="node-4" transform="translate(486.183,59.722)"><circle r="2.5" /></g><g id="node-5" transform="translate(478.454,56.944)"><circle r="2.5" /></g><g id="node-6" transform="translate(514.493,54.167)"><circle r="2.5" /></g><g id="node-7" transform="translate(516.729,51.389)"><circle r="2.5" /></g><g id="node-8" transform="translate(493.887,48.611)"><circle r="2.5" /></g><g id="node-9" transform="translate(522.118,45.833)"><circle r="2.5" /></g><g id="node-10" transform="translate(525.026,43.056)"><circle r="2.5" /></g><g id="node-11" transform="translate(501.695,40.278)"><circle r="2.5" /></g><g id="node-12" transform="translate(511.834,37.500)"><circle r="2.5" /></g><g id="node-13" transform="translate(510.789,34.722)"><circle r="2.5" /></g><g id="node-14" transform="translate(499.525,31.944)"><circle r="2.5" /></g><g id="node-15" transform="translate(480.706,29.167)"><circle r="2.5" /></g><g id="node-16" transform="translate(492.227,69.444)"><circle r="0.0" /></g><g id="node-17" transform="translate(478.321,63.889)"><circle r="0.0" /></g><g id="node-18" transform="translate(492.127,44.444)"><circle r="0.0" /></g><g id="node-19" transform="translate(471.508,66.667)"><circle r="0.0" /></g><g id="node-20" transform="translate(482.842,42.361)"><circle r="0.0" /></g><g id="node-21" transform="translate(482.928,36.111)"><circle r="0.0" /></g><g id="node-22" transform="translate(464.637,63.194)"><circle r="0.0" /></g><g id="node-23" transform="translate(491.032,52.778)"><circle r="0.0" /></g><g id="node-24" transform="translate(470.068,39.236)"><circle r="0.0" /></g><g id="node-25" transform="translate(456.725,60.069)"><circle r="0.0" /></g><g id="node-26" transform="translate(462.853,50.694)"><circle r="0.0" /></g><g id="node-27" transform="translate(466.510,35.590)"><circle r="0.0" /></g><g id="node-28" transform="translate(453.697,55.382)"><circle r="0.0" /></g><g id="node-29" transform="translate(458.660,32.378)"><circle r="0.0" /></g><g id="node-30" transform="translate(445.000,43.880)"><circle r="0.0" /></g></g></g></g></g></svg>