<svg class="toyplot-canvas-Canvas" xmlns:toyplot="http://www.sandia.gov/toyplot" xmlns:xlink="http://www.w3.org/1999/xlink" xmlns="http://www.w3.org/2000/svg" width="560.0px" height="100.0px" viewBox="0 0 560.0 100.0" preserveAspectRatio="xMidYMid meet" style="background-color:transparent;border-color:#292724;border-style:none;border-width:1.0;fill:rgb(16.1%,15.3%,14.1%);fill-opacity:1.0;font-family:Helvetica;font-size:12px;opacity:1.0;stroke:rgb(16.1%,15.3%,14.1%);stroke-opacity:1.0;stroke-width:1.0" id="t54788ae3a6434006bc342e37b0490156"><g class="toyplot-coordinates-Cartesian" id="t8937ba2da9224e1d8c5bc61b19fd3c2d"><clipPath id="taa27ac76825246149fd3bb8000278351"><rect x="15.0" y="15.0" width="110.0" height="70.0" /></clipPath><g clip-path="url(#taa27ac76825246149fd3bb8000278351)"><g class="toytree-mark-Toytree" id="t789737b9c941462389f6ac3141d7152b"><g class="toytree-Edges" style="fill:none;stroke:rgb(14.9%,14.9%,14.9%);stroke-linecap:round;stroke-opacity:1;stroke-width:0.5"><path d="M 25.0 42.2 L 25.0 55.2 L 30.0 55.2" id="8,7" /><path d="M 30.0 55.2 L 30.0 44.8 L 32.9 44.8" id="7,6" /><path d="M 30.0 55.2 L 30.0 65.6 L 36.1 65.6" id="7,5" /><path d="M 25.0 42.2 L 25.0 29.2 L 106.7 29.2" id="8,4" /><path d="M 32.9 44.8 L 32.9 39.6 L 110.3 39.6" id="6,3" /><path d="M 32.9 44.8 L 32.9 50.0 L 109.2 50.0" id="6,2" /><path d="M 36.1 65.6 L 36.1 60.4 L 102.5 60.4" id="5,1" /><path d="M 36.1 65.6 L 36.1 70.8 L 105.3 70.8" id="5,0" /></g><g class="toytree-Nodes" style="fill:rgb(100%,0%,0%);fill-opacity:1.0;stroke:None;stroke-width:1"><g id="node-0" transform="translate(105.255,70.833)"><circle r="2.5" /></g><g id="node-1" transform="translate(102.547,60.417)"><circle r="2.5" /></g><g id="node-2" transform="translate(109.166,50.000)"><circle r="2.5" /></g><g id="node-3" transform="translate(110.263,39.583)"><circle r="2.5" /></g><g id="node-4" transform="translate(106.691,29.167)"><circle r="2.5" /></g><g id="node-5" transform="translate(36.055,65.625)"><circle r="0.0" /></g><g id="node-6" transform="translate(32.929,44.792)"><circle r="0.0" /></g><g id="node-7" transform="translate(29.967,55.208)"><circle r="0.0" /></g><g id="node-8" transform="translate(25.000,42.188)"><circle r="0.0" /></g></g></g></g></g><g class="toyplot-coordinates-Cartesian" id="t780f054a7f9b41de94d09f97a4d2e64e"><clipPath id="t0fb468deffed4df0a657909e05d3fd4a"><rect x="155.0" y="15.0" width="110.0" height="70.0" /></clipPath><g clip-path="url(#t0fb468deffed4df0a657909e05d3fd4a)"><g class="toytree-mark-Toytree" id="tb3331fb4c4154b178cdb6c4521a44015"><g class="toytree-Edges" style="fill:none;stroke:rgb(14.9%,14.9%,14.9%);stroke-linecap:round;stroke-opacity:1;stroke-width:0.5"><path d="M 165.0 46.1 L 165.0 34.4 L 202.8 34.4" id="8,7" /><path d="M 165.0 46.1 L 165.0 57.8 L 186.0 57.8" id="8,6" /><path d="M 186.0 57.8 L 186.0 65.6 L 199.6 65.6" id="6,5" /><path d="M 202.8 34.4 L 202.8 29.2 L 250.3 29.2" id="7,4" /><path d="M 202.8 34.4 L 202.8 39.6 L 241.3 39.6" id="7,3" /><path d="M 186.0 57.8 L 186.0 50.0 L 238.4 50.0" id="6,2" /><path d="M 199.6 65.6 L 199.6 60.4 L 249.8 60.4" id="5,1" /><path d="M 199.6 65.6 L 199.6 70.8 L 249.4 70.8" id="5,0" /></g><g class="toytree-Nodes" style="fill:rgb(100%,0%,0%);fill-opacity:1.0;stroke:None;stroke-width:1"><g id="node-0" transform="translate(249.424,70.833)"><circle r="2.5" /></g><g id="node-1" transform="translate(249.750,60.417)"><circle r="2.5" /></g><g id="node-2" transform="translate(238.420,50.000)"><circle r="2.5" /></g><g id="node-3" transform="translate(241.259,39.583)"><circle r="2.5" /></g><g id="node-4" transform="translate(250.263,29.167)"><circle r="2.5" /></g><g id="node-5" transform="translate(199.633,65.625)"><circle r="0.0" /></g><g id="node-6" transform="translate(186.024,57.812)"><circle r="0.0" /></g><g id="node-7" transform="translate(202.812,34.375)"><circle r="0.0" /></g><g id="node-8" transform="translate(165.000,46.094)"><circle r="0.0" /></g></g></g></g></g><g class="toyplot-coordinates-Cartesian" id="t0b713777082c4b37b2111004fcafd6e4"><clipPath id="te56577f0a3cb4f8f983cc7f1a83cf4de"><rect x="295.0" y="15.0" width="110.0" height="70.0" /></clipPath><g clip-path="url(#te56577f0a3cb4f8f983cc7f1a83cf4de)"><g class="toytree-mark-Toytree" id="t00a113fb0374405f82cfbaa1a79083cf"><g class="toytree-Edges" style="fill:none;stroke:rgb(14.9%,14.9%,14.9%);stroke-linecap:round;stroke-opacity:1;stroke-width:0.5"><path d="M 305.0 46.1 L 305.0 34.4 L 306.7 34.4" id="8,7" /><path d="M 305.0 46.1 L 305.0 57.8 L 311.9 57.8" id="8,6" /><path d="M 311.9 57.8 L 311.9 65.6 L 316.4 65.6" id="6,5" /><path d="M 306.7 34.4 L 306.7 29.2 L 374.3 29.2" id="7,4" /><path d="M 306.7 34.4 L 306.7 39.6 L 367.8 39.6" id="7,3" /><path d="M 311.9 57.8 L 311.9 50.0 L 360.2 50.0" id="6,2" /><path d="M 316.4 65.6 L 316.4 60.4 L 369.0 60.4" id="5,1" /><path d="M 316.4 65.6 L 316.4 70.8 L 390.3 70.8" id="5,0" /></g><g class="toytree-Nodes" style="fill:rgb(100%,0%,0%);fill-opacity:1.0;stroke:None;stroke-width:1"><g id="node-0" transform="translate(390.263,70.833)"><circle r="2.5" /></g><g id="node-1" transform="translate(368.953,60.417)"><circle r="2.5" /></g><g id="node-2" transform="translate(360.198,50.000)"><circle r="2.5" /></g><g id="node-3" transform="translate(367.831,39.583)"><circle r="2.5" /></g><g id="node-4" transform="translate(374.312,29.167)"><circle r="2.5" /></g><g id="node-5" transform="translate(316.419,65.625)"><circle r="0.0" /></g><g id="node-6" transform="translate(311.932,57.812)"><circle r="0.0" /></g><g id="node-7" transform="translate(306.730,34.375)"><circle r="0.0" /></g><g id="node-8" transform="translate(305.000,46.094)"><circle r="0.0" /></g></g></g></g></g><g class="toyplot-coordinates-Cartesian" id="t32e01d2e51634f83ba4a2c2c5ee8237d"><clipPath id="t74e578457109499e8e1c44df9822924b"><rect x="435.0" y="15.0" width="110.0" height="70.0" /></clipPath><g clip-path="url(#t74e578457109499e8e1c44df9822924b)"><g class="toytree-mark-Toytree" id="t3edce9a05d8a4a35b61bd2924e28280b"><g class="toytree-Edges" style="fill:none;stroke:rgb(14.9%,14.9%,14.9%);stroke-linecap:round;stroke-opacity:1;stroke-width:0.5"><path d="M 445.0 46.1 L 445.0 34.4 L 450.3 34.4" id="8,7" /><path d="M 445.0 46.1 L 445.0 57.8 L 452.5 57.8" id="8,6" /><path d="M 452.5 57.8 L 452.5 65.6 L 463.1 65.6" id="6,5" /><path d="M 450.3 34.4 L 450.3 29.2 L 512.7 29.2" id="7,4" /><path d="M 450.3 34.4 L 450.3 39.6 L 507.5 39.6" id="7,3" /><path d="M 452.5 57.8 L 452.5 50.0 L 530.3 50.0" id="6,2" /><path d="M 463.1 65.6 L 463.1 60.4 L 509.4 60.4" id="5,1" /><path d="M 463.1 65.6 L 463.1 70.8 L 497.9 70.8" id="5,0" /></g><g class="toytree-Nodes" style="fill:rgb(100%,0%,0%);fill-opacity:1.0;stroke:None;stroke-width:1"><g id="node-0" transform="translate(497.935,70.833)"><circle r="2.5" /></g><g id="node-1" transform="translate(509.449,60.417)"><circle r="2.5" /></g><g id="node-2" transform="translate(530.263,50.000)"><circle r="2.5" /></g><g id="node-3" transform="translate(507.516,39.583)"><circle r="2.5" /></g><g id="node-4" transform="translate(512.654,29.167)"><circle r="2.5" /></g><g id="node-5" transform="translate(463.055,65.625)"><circle r="0.0" /></g><g id="node-6" transform="translate(452.459,57.812)"><circle r="0.0" /></g><g id="node-7" transform="translate(450.336,34.375)"><circle r="0.0" /></g><g id="node-8" transform="translate(445.000,46.094)"><circle r="0.0" /></g></g></g></g></g></svg>