<svg class="toyplot-canvas-Canvas" xmlns:toyplot="http://www.sandia.gov/toyplot" xmlns:xlink="http://www.w3.org/1999/xlink" xmlns="http://www.w3.org/2000/svg" width="560.0px" height="100.0px" viewBox="0 0 560.0 100.0" preserveAspectRatio="xMidYMid meet" style="background-color:transparent;border-color:#292724;border-style:none;border-width:1.0;fill:rgb(16.1%,15.3%,14.1%);fill-opacity:1.0;font-family:Helvetica;font-size:12px;opacity:1.0;stroke:rgb(16.1%,15.3%,14.1%);stroke-opacity:1.0;stroke-width:1.0" id="t2037d339b9b945e7a9004d1df82206cc"><g class="toyplot-coordinates-Cartesian" id="t7a8c81246b23439299cd7bbac97c7258"><clipPath id="t7532d87188bc4538ad142ecc6c457b1b"><rect x="15.0" y="15.0" width="110.0" height="70.0" /></clipPath><g clip-path="url(#t7532d87188bc4538ad142ecc6c457b1b)"><g class="toytree-mark-Toytree" id="t59971f381f8e47d2bcc9dea84152ad98"><g class="toytree-Edges" style="fill:none;stroke:rgb(14.9%,14.9%,14.9%);stroke-linecap:round;stroke-opacity:1;stroke-width:0.5"><path d="M 25.0 35.0 L 25.0 40.8 L 43.8 40.8" id="20,19" /><path d="M 43.8 40.8 L 43.8 35.4 L 55.2 35.4" id="19,18" /><path d="M 43.8 40.8 L 43.8 46.2 L 45.0 46.2" id="19,17" /><path d="M 45.0 46.2 L 45.0 50.7 L 73.4 50.7" id="17,16" /><path d="M 73.4 50.7 L 73.4 55.5 L 83.3 55.5" id="16,15" /><path d="M 83.3 55.5 L 83.3 60.9 L 85.3 60.9" id="15,14" /><path d="M 85.3 60.9 L 85.3 56.2 L 93.2 56.2" id="14,13" /><path d="M 85.3 60.9 L 85.3 65.6 L 89.1 65.6" id="14,12" /><path d="M 89.1 65.6 L 89.1 68.8 L 89.1 68.8" id="12,11" /><path d="M 25.0 35.0 L 25.0 29.2 L 97.6 29.2" id="20,10" /><path d="M 55.2 35.4 L 55.2 33.3 L 110.3 33.3" id="18,9" /><path d="M 55.2 35.4 L 55.2 37.5 L 106.3 37.5" id="18,8" /><path d="M 45.0 46.2 L 45.0 41.7 L 103.1 41.7" id="17,7" /><path d="M 73.4 50.7 L 73.4 45.8 L 92.1 45.8" id="16,6" /><path d="M 83.3 55.5 L 83.3 50.0 L 89.1 50.0" id="15,5" /><path d="M 93.2 56.2 L 93.2 54.2 L 98.3 54.2" id="13,4" /><path d="M 93.2 56.2 L 93.2 58.3 L 96.6 58.3" id="13,3" /><path d="M 89.1 65.6 L 89.1 62.5 L 89.1 62.5" id="12,2" /><path d="M 89.1 68.8 L 89.1 66.7 L 89.1 66.7" id="11,1" /><path d="M 89.1 68.8 L 89.1 70.8 L 99.0 70.8" id="11,0" /></g><g class="toytree-Nodes" style="fill:rgb(100%,0%,0%);fill-opacity:1.0;stroke:None;stroke-width:1"><g id="node-0" transform="translate(99.018,70.833)"><circle r="2.5" /></g><g id="node-1" transform="translate(89.134,66.667)"><circle r="2.5" /></g><g id="node-2" transform="translate(89.134,62.500)"><circle r="2.5" /></g><g id="node-3" transform="translate(96.585,58.333)"><circle r="2.5" /></g><g id="node-4" transform="translate(98.310,54.167)"><circle r="2.5" /></g><g id="node-5" transform="translate(89.150,50.000)"><circle r="2.5" /></g><g id="node-6" transform="translate(92.095,45.833)"><circle r="2.5" /></g><g id="node-7" transform="translate(103.097,41.667)"><circle r="2.5" /></g><g id="node-8" transform="translate(106.305,37.500)"><circle r="2.5" /></g><g id="node-9" transform="translate(110.263,33.333)"><circle r="2.5" /></g><g id="node-10" transform="translate(97.557,29.167)"><circle r="2.5" /></g><g id="node-11" transform="translate(89.134,68.750)"><circle r="0.0" /></g><g id="node-12" transform="translate(89.134,65.625)"><circle r="0.0" /></g><g id="node-13" transform="translate(93.180,56.250)"><circle r="0.0" /></g><g id="node-14" transform="translate(85.293,60.938)"><circle r="0.0" /></g><g id="node-15" transform="translate(83.285,55.469)"><circle r="0.0" /></g><g id="node-16" transform="translate(73.405,50.651)"><circle r="0.0" /></g><g id="node-17" transform="translate(45.050,46.159)"><circle r="0.0" /></g><g id="node-18" transform="translate(55.158,35.417)"><circle r="0.0" /></g><g id="node-19" transform="translate(43.794,40.788)"><circle r="0.0" /></g><g id="node-20" transform="translate(25.000,34.977)"><circle r="0.0" /></g></g></g></g></g><g class="toyplot-coordinates-Cartesian" id="tda4aa52501f549aca222fd01ab35d572"><clipPath id="te07310fd14c44317ab8bf01fbc670250"><rect x="155.0" y="15.0" width="110.0" height="70.0" /></clipPath><g clip-path="url(#te07310fd14c44317ab8bf01fbc670250)"><g class="toytree-mark-Toytree" id="t4334ac63b74e498d8c7d48beccf1c068"><g class="toytree-Edges" style="fill:none;stroke:rgb(14.9%,14.9%,14.9%);stroke-linecap:round;stroke-opacity:1;stroke-width:0.5"><path d="M 165.0 35.5 L 165.0 41.8 L 168.8 41.8" id="20,19" /><path d="M 168.8 41.8 L 168.8 50.3 L 177.7 50.3" id="19,18" /><path d="M 177.7 50.3 L 177.7 41.1 L 180.3 41.1" id="18,17" /><path d="M 177.7 50.3 L 177.7 59.4 L 179.6 59.4" id="18,16" /><path d="M 180.3 41.1 L 180.3 44.8 L 185.2 44.8" id="17,15" /><path d="M 179.6 59.4 L 179.6 64.6 L 182.0 64.6" id="16,14" /><path d="M 185.2 44.8 L 185.2 47.9 L 204.3 47.9" id="15,13" /><path d="M 182.0 64.6 L 182.0 60.4 L 187.6 60.4" id="14,12" /><path d="M 182.0 64.6 L 182.0 68.8 L 187.3 68.8" id="14,11" /><path d="M 165.0 35.5 L 165.0 29.2 L 240.9 29.2" id="20,10" /><path d="M 168.8 41.8 L 168.8 33.3 L 236.2 33.3" id="19,9" /><path d="M 180.3 41.1 L 180.3 37.5 L 243.1 37.5" id="17,8" /><path d="M 185.2 44.8 L 185.2 41.7 L 239.9 41.7" id="15,7" /><path d="M 204.3 47.9 L 204.3 45.8 L 237.5 45.8" id="13,6" /><path d="M 204.3 47.9 L 204.3 50.0 L 239.6 50.0" id="13,5" /><path d="M 179.6 59.4 L 179.6 54.2 L 242.5 54.2" id="16,4" /><path d="M 187.6 60.4 L 187.6 58.3 L 239.3 58.3" id="12,3" /><path d="M 187.6 60.4 L 187.6 62.5 L 244.1 62.5" id="12,2" /><path d="M 187.3 68.8 L 187.3 66.7 L 238.7 66.7" id="11,1" /><path d="M 187.3 68.8 L 187.3 70.8 L 250.3 70.8" id="11,0" /></g><g class="toytree-Nodes" style="fill:rgb(100%,0%,0%);fill-opacity:1.0;stroke:None;stroke-width:1"><g id="node-0" transform="translate(250.263,70.833)"><circle r="2.5" /></g><g id="node-1" transform="translate(238.728,66.667)"><circle r="2.5" /></g><g id="node-2" transform="translate(244.142,62.500)"><circle r="2.5" /></g><g id="node-3" transform="translate(239.266,58.333)"><circle r="2.5" /></g><g id="node-4" transform="translate(242.543,54.167)"><circle r="2.5" /></g><g id="node-5" transform="translate(239.602,50.000)"><circle r="2.5" /></g><g id="node-6" transform="translate(237.503,45.833)"><circle r="2.5" /></g><g id="node-7" transform="translate(239.910,41.667)"><circle r="2.5" /></g><g id="node-8" transform="translate(243.131,37.500)"><circle r="2.5" /></g><g id="node-9" transform="translate(236.237,33.333)"><circle r="2.5" /></g><g id="node-10" transform="translate(240.945,29.167)"><circle r="2.5" /></g><g id="node-11" transform="translate(187.292,68.750)"><circle r="0.0" /></g><g id="node-12" transform="translate(187.568,60.417)"><circle r="0.0" /></g><g id="node-13" transform="translate(204.250,47.917)"><circle r="0.0" /></g><g id="node-14" transform="translate(182.026,64.583)"><circle r="0.0" /></g><g id="node-15" transform="translate(185.160,44.792)"><circle r="0.0" /></g><g id="node-16" transform="translate(179.610,59.375)"><circle r="0.0" /></g><g id="node-17" transform="translate(180.256,41.146)"><circle r="0.0" /></g><g id="node-18" transform="translate(177.714,50.260)"><circle r="0.0" /></g><g id="node-19" transform="translate(168.781,41.797)"><circle r="0.0" /></g><g id="node-20" transform="translate(165.000,35.482)"><circle r="0.0" /></g></g></g></g></g><g class="toyplot-coordinates-Cartesian" id="tdb5cb041ecfd4abfb76424671cfa72f4"><clipPath id="tf7a1c885816d4487a662129dc7f21f9a"><rect x="295.0" y="15.0" width="110.0" height="70.0" /></clipPath><g clip-path="url(#tf7a1c885816d4487a662129dc7f21f9a)"><g class="toytree-mark-Toytree" id="t7a14f07671d24082aefe5b9b4970797d"><g class="toytree-Edges" style="fill:none;stroke:rgb(14.9%,14.9%,14.9%);stroke-linecap:round;stroke-opacity:1;stroke-width:0.5"><path d="M 305.0 37.1 L 305.0 31.2 L 311.6 31.2" id="20,19" /><path d="M 305.0 37.1 L 305.0 43.0 L 318.9 43.0" id="20,18" /><path d="M 318.9 43.0 L 318.9 48.6 L 322.2 48.6" id="18,17" /><path d="M 322.2 48.6 L 322.2 55.5 L 335.4 55.5" id="17,16" /><path d="M 335.4 55.5 L 335.4 49.0 L 355.5 49.0" id="16,15" /><path d="M 335.4 55.5 L 335.4 62.0 L 341.6 62.0" id="16,14" /><path d="M 355.5 49.0 L 355.5 52.1 L 364.1 52.1" id="15,13" /><path d="M 341.6 62.0 L 341.6 65.6 L 345.0 65.6" id="14,12" /><path d="M 345.0 65.6 L 345.0 68.8 L 353.0 68.8" id="12,11" /><path d="M 311.6 31.2 L 311.6 29.2 L 374.5 29.2" id="19,10" /><path d="M 311.6 31.2 L 311.6 33.3 L 375.8 33.3" id="19,9" /><path d="M 318.9 43.0 L 318.9 37.5 L 385.8 37.5" id="18,8" /><path d="M 322.2 48.6 L 322.2 41.7 L 380.8 41.7" id="17,7" /><path d="M 355.5 49.0 L 355.5 45.8 L 370.0 45.8" id="15,6" /><path d="M 364.1 52.1 L 364.1 50.0 L 382.4 50.0" id="13,5" /><path d="M 364.1 52.1 L 364.1 54.2 L 376.8 54.2" id="13,4" /><path d="M 341.6 62.0 L 341.6 58.3 L 371.2 58.3" id="14,3" /><path d="M 345.0 65.6 L 345.0 62.5 L 362.6 62.5" id="12,2" /><path d="M 353.0 68.8 L 353.0 66.7 L 366.2 66.7" id="11,1" /><path d="M 353.0 68.8 L 353.0 70.8 L 390.3 70.8" id="11,0" /></g><g class="toytree-Nodes" style="fill:rgb(100%,0%,0%);fill-opacity:1.0;stroke:None;stroke-width:1"><g id="node-0" transform="translate(390.263,70.833)"><circle r="2.5" /></g><g id="node-1" transform="translate(366.203,66.667)"><circle r="2.5" /></g><g id="node-2" transform="translate(362.642,62.500)"><circle r="2.5" /></g><g id="node-3" transform="translate(371.232,58.333)"><circle r="2.5" /></g><g id="node-4" transform="translate(376.792,54.167)"><circle r="2.5" /></g><g id="node-5" transform="translate(382.403,50.000)"><circle r="2.5" /></g><g id="node-6" transform="translate(369.970,45.833)"><circle r="2.5" /></g><g id="node-7" transform="translate(380.789,41.667)"><circle r="2.5" /></g><g id="node-8" transform="translate(385.779,37.500)"><circle r="2.5" /></g><g id="node-9" transform="translate(375.800,33.333)"><circle r="2.5" /></g><g id="node-10" transform="translate(374.481,29.167)"><circle r="2.5" /></g><g id="node-11" transform="translate(352.962,68.750)"><circle r="0.0" /></g><g id="node-12" transform="translate(345.007,65.625)"><circle r="0.0" /></g><g id="node-13" transform="translate(364.096,52.083)"><circle r="0.0" /></g><g id="node-14" transform="translate(341.599,61.979)"><circle r="0.0" /></g><g id="node-15" transform="translate(355.518,48.958)"><circle r="0.0" /></g><g id="node-16" transform="translate(335.404,55.469)"><circle r="0.0" /></g><g id="node-17" transform="translate(322.164,48.568)"><circle r="0.0" /></g><g id="node-18" transform="translate(318.865,43.034)"><circle r="0.0" /></g><g id="node-19" transform="translate(311.627,31.250)"><circle r="0.0" /></g><g id="node-20" transform="translate(305.000,37.142)"><circle r="0.0" /></g></g></g></g></g><g class="toyplot-coordinates-Cartesian" id="tdcef532ddcd44bc28401d633b2dbba4d"><clipPath id="t6f9f20795fe34913ad97defa5a1fd713"><rect x="435.0" y="15.0" width="110.0" height="70.0" /></clipPath><g clip-path="url(#t6f9f20795fe34913ad97defa5a1fd713)"><g class="toytree-mark-Toytree" id="tbae3402ac2fe479aaf3a685e4440a17b"><g class="toytree-Edges" style="fill:none;stroke:rgb(14.9%,14.9%,14.9%);stroke-linecap:round;stroke-opacity:1;stroke-width:0.5"><path d="M 445.0 37.1 L 445.0 31.2 L 451.0 31.2" id="20,19" /><path d="M 445.0 37.1 L 445.0 43.0 L 457.5 43.0" id="20,18" /><path d="M 457.5 43.0 L 457.5 48.6 L 460.8 48.6" id="18,17" /><path d="M 460.8 48.6 L 460.8 55.5 L 473.9 55.5" id="17,16" /><path d="M 473.9 55.5 L 473.9 49.0 L 494.3 49.0" id="16,15" /><path d="M 473.9 55.5 L 473.9 62.0 L 480.1 62.0" id="16,14" /><path d="M 494.3 49.0 L 494.3 52.1 L 503.0 52.1" id="15,13" /><path d="M 480.1 62.0 L 480.1 65.6 L 483.7 65.6" id="14,12" /><path d="M 483.7 65.6 L 483.7 68.8 L 491.5 68.8" id="12,11" /><path d="M 451.0 31.2 L 451.0 29.2 L 514.9 29.2" id="19,10" /><path d="M 451.0 31.2 L 451.0 33.3 L 516.0 33.3" id="19,9" /><path d="M 457.5 43.0 L 457.5 37.5 L 524.9 37.5" id="18,8" /><path d="M 460.8 48.6 L 460.8 41.7 L 520.6 41.7" id="17,7" /><path d="M 494.3 49.0 L 494.3 45.8 L 510.5 45.8" id="15,6" /><path d="M 503.0 52.1 L 503.0 50.0 L 522.6 50.0" id="13,5" /><path d="M 503.0 52.1 L 503.0 54.2 L 517.2 54.2" id="13,4" /><path d="M 480.1 62.0 L 480.1 58.3 L 511.7 58.3" id="14,3" /><path d="M 483.7 65.6 L 483.7 62.5 L 503.4 62.5" id="12,2" /><path d="M 491.5 68.8 L 491.5 66.7 L 507.0 66.7" id="11,1" /><path d="M 491.5 68.8 L 491.5 70.8 L 530.3 70.8" id="11,0" /></g><g class="toytree-Nodes" style="fill:rgb(100%,0%,0%);fill-opacity:1.0;stroke:None;stroke-width:1"><g id="node-0" transform="translate(530.263,70.833)"><circle r="2.5" /></g><g id="node-1" transform="translate(506.951,66.667)"><circle r="2.5" /></g><g id="node-2" transform="translate(503.369,62.500)"><circle r="2.5" /></g><g id="node-3" transform="translate(511.701,58.333)"><circle r="2.5" /></g><g id="node-4" transform="translate(517.246,54.167)"><circle r="2.5" /></g><g id="node-5" transform="translate(522.633,50.000)"><circle r="2.5" /></g><g id="node-6" transform="translate(510.455,45.833)"><circle r="2.5" /></g><g id="node-7" transform="translate(520.627,41.667)"><circle r="2.5" /></g><g id="node-8" transform="translate(524.876,37.500)"><circle r="2.5" /></g><g id="node-9" transform="translate(515.993,33.333)"><circle r="2.5" /></g><g id="node-10" transform="translate(514.932,29.167)"><circle r="2.5" /></g><g id="node-11" transform="translate(491.455,68.750)"><circle r="0.0" /></g><g id="node-12" transform="translate(483.747,65.625)"><circle r="0.0" /></g><g id="node-13" transform="translate(502.997,52.083)"><circle r="0.0" /></g><g id="node-14" transform="translate(480.136,61.979)"><circle r="0.0" /></g><g id="node-15" transform="translate(494.278,48.958)"><circle r="0.0" /></g><g id="node-16" transform="translate(473.875,55.469)"><circle r="0.0" /></g><g id="node-17" transform="translate(460.808,48.568)"><circle r="0.0" /></g><g id="node-18" transform="translate(457.526,43.034)"><circle r="0.0" /></g><g id="node-19" transform="translate(451.022,31.250)"><circle r="0.0" /></g><g id="node-20" transform="translate(445.000,37.142)"><circle r="0.0" /></g></g></g></g></g></svg>