<svg class="toyplot-canvas-Canvas" xmlns:toyplot="http://www.sandia.gov/toyplot" xmlns:xlink="http://www.w3.org/1999/xlink" xmlns="http://www.w3.org/2000/svg" width="560.0px" height="100.0px" viewBox="0 0 560.0 100.0" preserveAspectRatio="xMidYMid meet" style="background-color:transparent;border-color:#292724;border-style:none;border-width:1.0;fill:rgb(16.1%,15.3%,14.1%);fill-opacity:1.0;font-family:Helvetica;font-size:12px;opacity:1.0;stroke:rgb(16.1%,15.3%,14.1%);stroke-opacity:1.0;stroke-width:1.0" id="t7de613afa88c4eb8bd257fae6c7097cf"><g class="toyplot-coordinates-Cartesian" id="t15a51a23ea914f88b7eec0cec13b05ae"><clipPath id="t466e263800c84a6c9cb08a23ec222ca2"><rect x="15.0" y="15.0" width="110.0" height="70.0" /></clipPath><g clip-path="url(#t466e263800c84a6c9cb08a23ec222ca2)"><g class="toytree-mark-Toytree" id="t962e45d4e3bf4fcbad89dff87b49384a"><g class="toytree-Edges" style="fill:none;stroke:rgb(14.9%,14.9%,14.9%);stroke-linecap:round;stroke-opacity:1;stroke-width:0.5"><path d="M 25.0 34.2 L 25.0 39.1 L 32.6 39.1" id="18,17" /><path d="M 32.6 39.1 L 32.6 44.5 L 42.2 44.5" id="17,16" /><path d="M 42.2 44.5 L 42.2 50.6 L 43.6 50.6" id="16,15" /><path d="M 43.6 50.6 L 43.6 58.1 L 47.4 58.1" id="15,14" /><path d="M 47.4 58.1 L 47.4 51.2 L 49.3 51.2" id="14,13" /><path d="M 47.4 58.1 L 47.4 65.0 L 49.8 65.0" id="14,12" /><path d="M 49.3 51.2 L 49.3 54.6 L 58.8 54.6" id="13,11" /><path d="M 49.8 65.0 L 49.8 68.5 L 57.1 68.5" id="12,10" /><path d="M 25.0 34.2 L 25.0 29.2 L 101.2 29.2" id="18,9" /><path d="M 32.6 39.1 L 32.6 33.8 L 109.4 33.8" id="17,8" /><path d="M 42.2 44.5 L 42.2 38.4 L 99.1 38.4" id="16,7" /><path d="M 43.6 50.6 L 43.6 43.1 L 98.5 43.1" id="15,6" /><path d="M 49.3 51.2 L 49.3 47.7 L 93.4 47.7" id="13,5" /><path d="M 58.8 54.6 L 58.8 52.3 L 104.8 52.3" id="11,4" /><path d="M 58.8 54.6 L 58.8 56.9 L 110.3 56.9" id="11,3" /><path d="M 49.8 65.0 L 49.8 61.6 L 106.6 61.6" id="12,2" /><path d="M 57.1 68.5 L 57.1 66.2 L 94.0 66.2" id="10,1" /><path d="M 57.1 68.5 L 57.1 70.8 L 98.9 70.8" id="10,0" /></g><g class="toytree-Nodes" style="fill:rgb(100%,0%,0%);fill-opacity:1.0;stroke:None;stroke-width:1"><g id="node-0" transform="translate(98.889,70.833)"><circle r="2.5" /></g><g id="node-1" transform="translate(94.047,66.204)"><circle r="2.5" /></g><g id="node-2" transform="translate(106.648,61.574)"><circle r="2.5" /></g><g id="node-3" transform="translate(110.263,56.944)"><circle r="2.5" /></g><g id="node-4" transform="translate(104.750,52.315)"><circle r="2.5" /></g><g id="node-5" transform="translate(93.371,47.685)"><circle r="2.5" /></g><g id="node-6" transform="translate(98.517,43.056)"><circle r="2.5" /></g><g id="node-7" transform="translate(99.114,38.426)"><circle r="2.5" /></g><g id="node-8" transform="translate(109.356,33.796)"><circle r="2.5" /></g><g id="node-9" transform="translate(101.201,29.167)"><circle r="2.5" /></g><g id="node-10" transform="translate(57.075,68.519)"><circle r="0.0" /></g><g id="node-11" transform="translate(58.812,54.630)"><circle r="0.0" /></g><g id="node-12" transform="translate(49.762,65.046)"><circle r="0.0" /></g><g id="node-13" transform="translate(49.275,51.157)"><circle r="0.0" /></g><g id="node-14" transform="translate(47.444,58.102)"><circle r="0.0" /></g><g id="node-15" transform="translate(43.569,50.579)"><circle r="0.0" /></g><g id="node-16" transform="translate(42.184,44.502)"><circle r="0.0" /></g><g id="node-17" transform="translate(32.560,39.149)"><circle r="0.0" /></g><g id="node-18" transform="translate(25.000,34.158)"><circle r="0.0" /></g></g></g></g></g><g class="toyplot-coordinates-Cartesian" id="td863d038447f4373b1808594174aacc2"><clipPath id="tfbbf5b5eb89749de83ba4053cd23bbd5"><rect x="155.0" y="15.0" width="110.0" height="70.0" /></clipPath><g clip-path="url(#tfbbf5b5eb89749de83ba4053cd23bbd5)"><g class="toytree-mark-Toytree" id="t193ab739a6fd43ffb977babfa320a3b2"><g class="toytree-Edges" style="fill:none;stroke:rgb(14.9%,14.9%,14.9%);stroke-linecap:round;stroke-opacity:1;stroke-width:0.5"><path d="M 165.0 46.7 L 165.0 36.7 L 166.6 36.7" id="18,17" /><path d="M 165.0 46.7 L 165.0 56.7 L 170.4 56.7" id="18,16" /><path d="M 166.6 36.7 L 166.6 31.5 L 177.1 31.5" id="17,15" /><path d="M 166.6 36.7 L 166.6 41.9 L 173.5 41.9" id="17,14" /><path d="M 170.4 56.7 L 170.4 61.0 L 175.4 61.0" id="16,13" /><path d="M 173.5 41.9 L 173.5 45.4 L 178.3 45.4" id="14,12" /><path d="M 175.4 61.0 L 175.4 65.0 L 179.8 65.0" id="13,11" /><path d="M 179.8 65.0 L 179.8 68.5 L 180.2 68.5" id="11,10" /><path d="M 177.1 31.5 L 177.1 29.2 L 193.3 29.2" id="15,9" /><path d="M 177.1 31.5 L 177.1 33.8 L 182.3 33.8" id="15,8" /><path d="M 173.5 41.9 L 173.5 38.4 L 176.7 38.4" id="14,7" /><path d="M 178.3 45.4 L 178.3 43.1 L 250.3 43.1" id="12,6" /><path d="M 178.3 45.4 L 178.3 47.7 L 182.8 47.7" id="12,5" /><path d="M 170.4 56.7 L 170.4 52.3 L 182.7 52.3" id="16,4" /><path d="M 175.4 61.0 L 175.4 56.9 L 182.3 56.9" id="13,3" /><path d="M 179.8 65.0 L 179.8 61.6 L 183.7 61.6" id="11,2" /><path d="M 180.2 68.5 L 180.2 66.2 L 206.7 66.2" id="10,1" /><path d="M 180.2 68.5 L 180.2 70.8 L 180.2 70.8" id="10,0" /></g><g class="toytree-Nodes" style="fill:rgb(100%,0%,0%);fill-opacity:1.0;stroke:None;stroke-width:1"><g id="node-0" transform="translate(180.169,70.833)"><circle r="2.5" /></g><g id="node-1" transform="translate(206.675,66.204)"><circle r="2.5" /></g><g id="node-2" transform="translate(183.718,61.574)"><circle r="2.5" /></g><g id="node-3" transform="translate(182.275,56.944)"><circle r="2.5" /></g><g id="node-4" transform="translate(182.734,52.315)"><circle r="2.5" /></g><g id="node-5" transform="translate(182.845,47.685)"><circle r="2.5" /></g><g id="node-6" transform="translate(250.263,43.056)"><circle r="2.5" /></g><g id="node-7" transform="translate(176.700,38.426)"><circle r="2.5" /></g><g id="node-8" transform="translate(182.257,33.796)"><circle r="2.5" /></g><g id="node-9" transform="translate(193.287,29.167)"><circle r="2.5" /></g><g id="node-10" transform="translate(180.169,68.519)"><circle r="0.0" /></g><g id="node-11" transform="translate(179.849,65.046)"><circle r="0.0" /></g><g id="node-12" transform="translate(178.346,45.370)"><circle r="0.0" /></g><g id="node-13" transform="translate(175.445,60.995)"><circle r="0.0" /></g><g id="node-14" transform="translate(173.461,41.898)"><circle r="0.0" /></g><g id="node-15" transform="translate(177.138,31.481)"><circle r="0.0" /></g><g id="node-16" transform="translate(170.433,56.655)"><circle r="0.0" /></g><g id="node-17" transform="translate(166.589,36.690)"><circle r="0.0" /></g><g id="node-18" transform="translate(165.000,46.672)"><circle r="0.0" /></g></g></g></g></g><g class="toyplot-coordinates-Cartesian" id="td8882589fa7549f886851c8f5e1d0750"><clipPath id="te53679c3f87a4484bd629bab8ae469ec"><rect x="295.0" y="15.0" width="110.0" height="70.0" /></clipPath><g clip-path="url(#te53679c3f87a4484bd629bab8ae469ec)"><g class="toytree-mark-Toytree" id="t63f18589288e4ee185fad60edcc985db"><g class="toytree-Edges" style="fill:none;stroke:rgb(14.9%,14.9%,14.9%);stroke-linecap:round;stroke-opacity:1;stroke-width:0.5"><path d="M 305.0 35.7 L 305.0 42.3 L 324.5 42.3" id="18,17" /><path d="M 324.5 42.3 L 324.5 50.9 L 338.6 50.9" id="17,16" /><path d="M 338.6 50.9 L 338.6 41.9 L 345.2 41.9" id="16,15" /><path d="M 338.6 50.9 L 338.6 59.8 L 339.7 59.8" id="16,14" /><path d="M 345.2 41.9 L 345.2 45.4 L 346.1 45.4" id="15,13" /><path d="M 339.7 59.8 L 339.7 54.6 L 343.1 54.6" id="14,12" /><path d="M 339.7 59.8 L 339.7 65.0 L 343.8 65.0" id="14,11" /><path d="M 343.8 65.0 L 343.8 68.5 L 356.4 68.5" id="11,10" /><path d="M 305.0 35.7 L 305.0 29.2 L 361.0 29.2" id="18,9" /><path d="M 324.5 42.3 L 324.5 33.8 L 340.2 33.8" id="17,8" /><path d="M 345.2 41.9 L 345.2 38.4 L 355.7 38.4" id="15,7" /><path d="M 346.1 45.4 L 346.1 43.1 L 352.8 43.1" id="13,6" /><path d="M 346.1 45.4 L 346.1 47.7 L 390.3 47.7" id="13,5" /><path d="M 343.1 54.6 L 343.1 52.3 L 358.6 52.3" id="12,4" /><path d="M 343.1 54.6 L 343.1 56.9 L 361.6 56.9" id="12,3" /><path d="M 343.8 65.0 L 343.8 61.6 L 355.4 61.6" id="11,2" /><path d="M 356.4 68.5 L 356.4 66.2 L 389.6 66.2" id="10,1" /><path d="M 356.4 68.5 L 356.4 70.8 L 389.1 70.8" id="10,0" /></g><g class="toytree-Nodes" style="fill:rgb(100%,0%,0%);fill-opacity:1.0;stroke:None;stroke-width:1"><g id="node-0" transform="translate(389.062,70.833)"><circle r="2.5" /></g><g id="node-1" transform="translate(389.603,66.204)"><circle r="2.5" /></g><g id="node-2" transform="translate(355.449,61.574)"><circle r="2.5" /></g><g id="node-3" transform="translate(361.595,56.944)"><circle r="2.5" /></g><g id="node-4" transform="translate(358.594,52.315)"><circle r="2.5" /></g><g id="node-5" transform="translate(390.263,47.685)"><circle r="2.5" /></g><g id="node-6" transform="translate(352.770,43.056)"><circle r="2.5" /></g><g id="node-7" transform="translate(355.749,38.426)"><circle r="2.5" /></g><g id="node-8" transform="translate(340.215,33.796)"><circle r="2.5" /></g><g id="node-9" transform="translate(360.967,29.167)"><circle r="2.5" /></g><g id="node-10" transform="translate(356.425,68.519)"><circle r="0.0" /></g><g id="node-11" transform="translate(343.817,65.046)"><circle r="0.0" /></g><g id="node-12" transform="translate(343.134,54.630)"><circle r="0.0" /></g><g id="node-13" transform="translate(346.076,45.370)"><circle r="0.0" /></g><g id="node-14" transform="translate(339.689,59.838)"><circle r="0.0" /></g><g id="node-15" transform="translate(345.190,41.898)"><circle r="0.0" /></g><g id="node-16" transform="translate(338.579,50.868)"><circle r="0.0" /></g><g id="node-17" transform="translate(324.470,42.332)"><circle r="0.0" /></g><g id="node-18" transform="translate(305.000,35.749)"><circle r="0.0" /></g></g></g></g></g><g class="toyplot-coordinates-Cartesian" id="t848db0d81f7c44d4ba9bd888ed35ba69"><clipPath id="t8b0868a269d14fae94493f00ff5d8fea"><rect x="435.0" y="15.0" width="110.0" height="70.0" /></clipPath><g clip-path="url(#t8b0868a269d14fae94493f00ff5d8fea)"><g class="toytree-mark-Toytree" id="t08e7f89a0f0445e7922f8a346e973477"><g class="toytree-Edges" style="fill:none;stroke:rgb(14.9%,14.9%,14.9%);stroke-linecap:round;stroke-opacity:1;stroke-width:0.5"><path d="M 445.2 45.7 L 445.2 33.2 L 445.5 33.2" id="18,17" /><path d="M 445.2 45.7 L 445.2 58.1 L 447.1 58.1" id="18,16" /><path d="M 445.5 33.2 L 445.5 37.3 L 448.9 37.3" id="17,15" /><path d="M 447.1 58.1 L 447.1 51.2 L 448.6 51.2" id="16,14" /><path d="M 447.1 58.1 L 447.1 65.0 L 453.4 65.0" id="16,13" /><path d="M 448.9 37.3 L 448.9 40.7 L 461.4 40.7" id="15,12" /><path d="M 448.6 51.2 L 448.6 54.6 L 458.5 54.6" id="14,11" /><path d="M 453.4 65.0 L 453.4 68.5 L 460.6 68.5" id="13,10" /><path d="M 445.5 33.2 L 445.5 29.2 L 471.8 29.2" id="17,9" /><path d="M 448.9 37.3 L 448.9 33.8 L 466.1 33.8" id="15,8" /><path d="M 461.4 40.7 L 461.4 38.4 L 469.4 38.4" id="12,7" /><path d="M 461.4 40.7 L 461.4 43.1 L 530.3 43.1" id="12,6" /><path d="M 448.6 51.2 L 448.6 47.7 L 474.2 47.7" id="14,5" /><path d="M 458.5 54.6 L 458.5 52.3 L 472.4 52.3" id="11,4" /><path d="M 458.5 54.6 L 458.5 56.9 L 470.7 56.9" id="11,3" /><path d="M 453.4 65.0 L 453.4 61.6 L 471.3 61.6" id="13,2" /><path d="M 460.6 68.5 L 460.6 66.2 L 517.4 66.2" id="10,1" /><path d="M 460.6 68.5 L 460.6 70.8 L 465.1 70.8" id="10,0" /></g><g class="toytree-Nodes" style="fill:rgb(100%,0%,0%);fill-opacity:1.0;stroke:None;stroke-width:1"><g id="node-0" transform="translate(465.146,70.833)"><circle r="2.5" /></g><g id="node-1" transform="translate(517.356,66.204)"><circle r="2.5" /></g><g id="node-2" transform="translate(471.265,61.574)"><circle r="2.5" /></g><g id="node-3" transform="translate(470.673,56.944)"><circle r="2.5" /></g><g id="node-4" transform="translate(472.421,52.315)"><circle r="2.5" /></g><g id="node-5" transform="translate(474.168,47.685)"><circle r="2.5" /></g><g id="node-6" transform="translate(530.275,43.056)"><circle r="2.5" /></g><g id="node-7" transform="translate(469.411,38.426)"><circle r="2.5" /></g><g id="node-8" transform="translate(466.072,33.796)"><circle r="2.5" /></g><g id="node-9" transform="translate(471.753,29.167)"><circle r="2.5" /></g><g id="node-10" transform="translate(460.606,68.519)"><circle r="0.0" /></g><g id="node-11" transform="translate(458.473,54.630)"><circle r="0.0" /></g><g id="node-12" transform="translate(461.358,40.741)"><circle r="0.0" /></g><g id="node-13" transform="translate(453.356,65.046)"><circle r="0.0" /></g><g id="node-14" transform="translate(448.646,51.157)"><circle r="0.0" /></g><g id="node-15" transform="translate(448.872,37.269)"><circle r="0.0" /></g><g id="node-16" transform="translate(447.100,58.102)"><circle r="0.0" /></g><g id="node-17" transform="translate(445.473,33.218)"><circle r="0.0" /></g><g id="node-18" transform="translate(445.219,45.660)"><circle r="0.0" /></g></g></g></g></g></svg>