<svg class="toyplot-canvas-Canvas" xmlns:toyplot="http://www.sandia.gov/toyplot" xmlns:xlink="http://www.w3.org/1999/xlink" xmlns="http://www.w3.org/2000/svg" width="560.0px" height="100.0px" viewBox="0 0 560.0 100.0" preserveAspectRatio="xMidYMid meet" style="background-color:transparent;border-color:#292724;border-style:none;border-width:1.0;fill:rgb(16.1%,15.3%,14.1%);fill-opacity:1.0;font-family:Helvetica;font-size:12px;opacity:1.0;stroke:rgb(16.1%,15.3%,14.1%);stroke-opacity:1.0;stroke-width:1.0" id="t0c6dcac54f104432a971ead6fd6c1ab7"><g class="toyplot-coordinates-Cartesian" id="t23e09035ac19417cb3f800e092791046"><clipPath id="t88078456c71f47678e276f00479d8730"><rect x="15.0" y="15.0" width="110.0" height="70.0" /></clipPath><g clip-path="url(#t88078456c71f47678e276f00479d8730)"><g class="toytree-mark-Toytree" id="t06d893aa3f2140ae8e06386de41caa12"><g class="toytree-Edges" style="fill:none;stroke:rgb(14.9%,14.9%,14.9%);stroke-linecap:round;stroke-opacity:1;stroke-width:0.5"><path d="M 25.0 41.3 L 25.0 53.5 L 84.7 53.5" id="6,5" /><path d="M 84.7 53.5 L 84.7 63.9 L 97.6 63.9" id="5,4" /><path d="M 25.0 41.3 L 25.0 29.2 L 108.1 29.2" id="6,3" /><path d="M 84.7 53.5 L 84.7 43.1 L 107.1 43.1" id="5,2" /><path d="M 97.6 63.9 L 97.6 56.9 L 106.9 56.9" id="4,1" /><path d="M 97.6 63.9 L 97.6 70.8 L 110.3 70.8" id="4,0" /></g><g class="toytree-Nodes" style="fill:rgb(100%,0%,0%);fill-opacity:1.0;stroke:None;stroke-width:1"><g id="node-0" transform="translate(110.263,70.833)"><circle r="2.5" /></g><g id="node-1" transform="translate(106.877,56.944)"><circle r="2.5" /></g><g id="node-2" transform="translate(107.095,43.056)"><circle r="2.5" /></g><g id="node-3" transform="translate(108.053,29.167)"><circle r="2.5" /></g><g id="node-4" transform="translate(97.641,63.889)"><circle r="0.0" /></g><g id="node-5" transform="translate(84.676,53.472)"><circle r="0.0" /></g><g id="node-6" transform="translate(25.000,41.319)"><circle r="0.0" /></g></g></g></g></g><g class="toyplot-coordinates-Cartesian" id="te990570cb39f4838974f607f14e7b1fa"><clipPath id="t84579362c56b4294a9d3e3e003563f91"><rect x="155.0" y="15.0" width="110.0" height="70.0" /></clipPath><g clip-path="url(#t84579362c56b4294a9d3e3e003563f91)"><g class="toytree-mark-Toytree" id="t8fa3d42356534a788ba0c554cb1dffe7"><g class="toytree-Edges" style="fill:none;stroke:rgb(14.9%,14.9%,14.9%);stroke-linecap:round;stroke-opacity:1;stroke-width:0.5"><path d="M 165.0 41.3 L 165.0 53.5 L 166.2 53.5" id="6,5" /><path d="M 166.2 53.5 L 166.2 63.9 L 173.1 63.9" id="5,4" /><path d="M 165.0 41.3 L 165.0 29.2 L 237.8 29.2" id="6,3" /><path d="M 166.2 53.5 L 166.2 43.1 L 235.6 43.1" id="5,2" /><path d="M 173.1 63.9 L 173.1 56.9 L 230.2 56.9" id="4,1" /><path d="M 173.1 63.9 L 173.1 70.8 L 250.3 70.8" id="4,0" /></g><g class="toytree-Nodes" style="fill:rgb(100%,0%,0%);fill-opacity:1.0;stroke:None;stroke-width:1"><g id="node-0" transform="translate(250.263,70.833)"><circle r="2.5" /></g><g id="node-1" transform="translate(230.180,56.944)"><circle r="2.5" /></g><g id="node-2" transform="translate(235.627,43.056)"><circle r="2.5" /></g><g id="node-3" transform="translate(237.751,29.167)"><circle r="2.5" /></g><g id="node-4" transform="translate(173.061,63.889)"><circle r="0.0" /></g><g id="node-5" transform="translate(166.176,53.472)"><circle r="0.0" /></g><g id="node-6" transform="translate(165.000,41.319)"><circle r="0.0" /></g></g></g></g></g><g class="toyplot-coordinates-Cartesian" id="t3fb0ae49c97e46089abfe976b580c678"><clipPath id="tae5b099b54954898b26ec5bee4324aff"><rect x="295.0" y="15.0" width="110.0" height="70.0" /></clipPath><g clip-path="url(#tae5b099b54954898b26ec5bee4324aff)"><g class="toytree-mark-Toytree" id="tca112ef307df47f3a990946774c9a439"><g class="toytree-Edges" style="fill:none;stroke:rgb(14.9%,14.9%,14.9%);stroke-linecap:round;stroke-opacity:1;stroke-width:0.5"><path d="M 305.0 41.3 L 305.0 53.5 L 347.3 53.5" id="6,5" /><path d="M 347.3 53.5 L 347.3 63.9 L 357.4 63.9" id="5,4" /><path d="M 305.0 41.3 L 305.0 29.2 L 385.9 29.2" id="6,3" /><path d="M 347.3 53.5 L 347.3 43.1 L 384.8 43.1" id="5,2" /><path d="M 357.4 63.9 L 357.4 56.9 L 383.1 56.9" id="4,1" /><path d="M 357.4 63.9 L 357.4 70.8 L 390.3 70.8" id="4,0" /></g><g class="toytree-Nodes" style="fill:rgb(100%,0%,0%);fill-opacity:1.0;stroke:None;stroke-width:1"><g id="node-0" transform="translate(390.263,70.833)"><circle r="2.5" /></g><g id="node-1" transform="translate(383.098,56.944)"><circle r="2.5" /></g><g id="node-2" transform="translate(384.782,43.056)"><circle r="2.5" /></g><g id="node-3" transform="translate(385.934,29.167)"><circle r="2.5" /></g><g id="node-4" transform="translate(357.407,63.889)"><circle r="0.0" /></g><g id="node-5" transform="translate(347.314,53.472)"><circle r="0.0" /></g><g id="node-6" transform="translate(305.000,41.319)"><circle r="0.0" /></g></g></g></g></g><g class="toyplot-coordinates-Cartesian" id="t90d7b98da71645aa8d3f14a904676e53"><clipPath id="t1e45d1b4cb484c8190e0360240938da3"><rect x="435.0" y="15.0" width="110.0" height="70.0" /></clipPath><g clip-path="url(#t1e45d1b4cb484c8190e0360240938da3)"><g class="toytree-mark-Toytree" id="td5bd3641a44c4af3b79904c930f7e5e9"><g class="toytree-Edges" style="fill:none;stroke:rgb(14.9%,14.9%,14.9%);stroke-linecap:round;stroke-opacity:1;stroke-width:0.5"><path d="M 445.0 41.3 L 445.0 53.5 L 513.3 53.5" id="6,5" /><path d="M 513.3 53.5 L 513.3 63.9 L 520.1 63.9" id="5,4" /><path d="M 445.0 41.3 L 445.0 29.2 L 527.9 29.2" id="6,3" /><path d="M 513.3 53.5 L 513.3 43.1 L 530.3 43.1" id="5,2" /><path d="M 520.1 63.9 L 520.1 56.9 L 526.8 56.9" id="4,1" /><path d="M 520.1 63.9 L 520.1 70.8 L 526.6 70.8" id="4,0" /></g><g class="toytree-Nodes" style="fill:rgb(100%,0%,0%);fill-opacity:1.0;stroke:None;stroke-width:1"><g id="node-0" transform="translate(526.620,70.833)"><circle r="2.5" /></g><g id="node-1" transform="translate(526.799,56.944)"><circle r="2.5" /></g><g id="node-2" transform="translate(530.263,43.056)"><circle r="2.5" /></g><g id="node-3" transform="translate(527.861,29.167)"><circle r="2.5" /></g><g id="node-4" transform="translate(520.084,63.889)"><circle r="0.0" /></g><g id="node-5" transform="translate(513.268,53.472)"><circle r="0.0" /></g><g id="node-6" transform="translate(445.000,41.319)"><circle r="0.0" /></g></g></g></g></g></svg>