<svg class="toyplot-canvas-Canvas" xmlns:toyplot="http://www.sandia.gov/toyplot" xmlns:xlink="http://www.w3.org/1999/xlink" xmlns="http://www.w3.org/2000/svg" width="560.0px" height="100.0px" viewBox="0 0 560.0 100.0" preserveAspectRatio="xMidYMid meet" style="background-color:transparent;border-color:#292724;border-style:none;border-width:1.0;fill:rgb(16.1%,15.3%,14.1%);fill-opacity:1.0;font-family:Helvetica;font-size:12px;opacity:1.0;stroke:rgb(16.1%,15.3%,14.1%);stroke-opacity:1.0;stroke-width:1.0" id="t8daee808ef854d3cad24362dbcb4fdb7"><g class="toyplot-coordinates-Cartesian" id="t335ee90408564674ac8742088061c853"><clipPath id="ta63b4aebb33b48a68d04497503b53e92"><rect x="15.0" y="15.0" width="110.0" height="70.0" /></clipPath><g clip-path="url(#ta63b4aebb33b48a68d04497503b53e92)"><g class="toytree-mark-Toytree" id="t4ba469337813486680192a39be98cba3"><g class="toytree-Edges" style="fill:none;stroke:rgb(14.9%,14.9%,14.9%);stroke-linecap:round;stroke-opacity:1;stroke-width:0.5"><path d="M 25.0 43.5 L 25.0 32.6 L 37.0 32.6" id="12,11" /><path d="M 25.0 43.5 L 25.0 54.3 L 56.4 54.3" id="12,10" /><path d="M 56.4 54.3 L 56.4 46.5 L 77.9 46.5" id="10,9" /><path d="M 56.4 54.3 L 56.4 62.2 L 58.9 62.2" id="10,8" /><path d="M 58.9 62.2 L 58.9 67.4 L 75.7 67.4" id="8,7" /><path d="M 37.0 32.6 L 37.0 29.2 L 89.1 29.2" id="11,6" /><path d="M 37.0 32.6 L 37.0 36.1 L 80.3 36.1" id="11,5" /><path d="M 77.9 46.5 L 77.9 43.1 L 84.7 43.1" id="9,4" /><path d="M 77.9 46.5 L 77.9 50.0 L 110.3 50.0" id="9,3" /><path d="M 58.9 62.2 L 58.9 56.9 L 84.4 56.9" id="8,2" /><path d="M 75.7 67.4 L 75.7 63.9 L 76.3 63.9" id="7,1" /><path d="M 75.7 67.4 L 75.7 70.8 L 76.9 70.8" id="7,0" /></g><g class="toytree-Nodes" style="fill:rgb(100%,0%,0%);fill-opacity:1.0;stroke:None;stroke-width:1"><g id="node-0" transform="translate(76.939,70.833)"><circle r="2.5" /></g><g id="node-1" transform="translate(76.262,63.889)"><circle r="2.5" /></g><g id="node-2" transform="translate(84.351,56.944)"><circle r="2.5" /></g><g id="node-3" transform="translate(110.263,50.000)"><circle r="2.5" /></g><g id="node-4" transform="translate(84.673,43.056)"><circle r="2.5" /></g><g id="node-5" transform="translate(80.294,36.111)"><circle r="2.5" /></g><g id="node-6" transform="translate(89.068,29.167)"><circle r="2.5" /></g><g id="node-7" transform="translate(75.653,67.361)"><circle r="0.0" /></g><g id="node-8" transform="translate(58.947,62.153)"><circle r="0.0" /></g><g id="node-9" transform="translate(77.903,46.528)"><circle r="0.0" /></g><g id="node-10" transform="translate(56.391,54.340)"><circle r="0.0" /></g><g id="node-11" transform="translate(37.020,32.639)"><circle r="0.0" /></g><g id="node-12" transform="translate(25.000,43.490)"><circle r="0.0" /></g></g></g></g></g><g class="toyplot-coordinates-Cartesian" id="t8015c6f41d5a4732b33b14b3763cf5b4"><clipPath id="t87ad7d7fe52941bc8a9db16e906b220b"><rect x="155.0" y="15.0" width="110.0" height="70.0" /></clipPath><g clip-path="url(#t87ad7d7fe52941bc8a9db16e906b220b)"><g class="toytree-mark-Toytree" id="t61835a2a2c1f465cb94c2617393fcaef"><g class="toytree-Edges" style="fill:none;stroke:rgb(14.9%,14.9%,14.9%);stroke-linecap:round;stroke-opacity:1;stroke-width:0.5"><path d="M 165.0 39.6 L 165.0 50.0 L 170.6 50.0" id="12,11" /><path d="M 170.6 50.0 L 170.6 39.6 L 177.7 39.6" id="11,10" /><path d="M 170.6 50.0 L 170.6 60.4 L 184.8 60.4" id="11,9" /><path d="M 184.8 60.4 L 184.8 53.5 L 197.4 53.5" id="9,8" /><path d="M 184.8 60.4 L 184.8 67.4 L 187.3 67.4" id="9,7" /><path d="M 165.0 39.6 L 165.0 29.2 L 225.6 29.2" id="12,6" /><path d="M 177.7 39.6 L 177.7 36.1 L 223.0 36.1" id="10,5" /><path d="M 177.7 39.6 L 177.7 43.1 L 213.9 43.1" id="10,4" /><path d="M 197.4 53.5 L 197.4 50.0 L 237.9 50.0" id="8,3" /><path d="M 197.4 53.5 L 197.4 56.9 L 250.3 56.9" id="8,2" /><path d="M 187.3 67.4 L 187.3 63.9 L 223.2 63.9" id="7,1" /><path d="M 187.3 67.4 L 187.3 70.8 L 218.9 70.8" id="7,0" /></g><g class="toytree-Nodes" style="fill:rgb(100%,0%,0%);fill-opacity:1.0;stroke:None;stroke-width:1"><g id="node-0" transform="translate(218.870,70.833)"><circle r="2.5" /></g><g id="node-1" transform="translate(223.150,63.889)"><circle r="2.5" /></g><g id="node-2" transform="translate(250.263,56.944)"><circle r="2.5" /></g><g id="node-3" transform="translate(237.888,50.000)"><circle r="2.5" /></g><g id="node-4" transform="translate(213.930,43.056)"><circle r="2.5" /></g><g id="node-5" transform="translate(223.024,36.111)"><circle r="2.5" /></g><g id="node-6" transform="translate(225.612,29.167)"><circle r="2.5" /></g><g id="node-7" transform="translate(187.258,67.361)"><circle r="0.0" /></g><g id="node-8" transform="translate(197.367,53.472)"><circle r="0.0" /></g><g id="node-9" transform="translate(184.822,60.417)"><circle r="0.0" /></g><g id="node-10" transform="translate(177.688,39.583)"><circle r="0.0" /></g><g id="node-11" transform="translate(170.555,50.000)"><circle r="0.0" /></g><g id="node-12" transform="translate(165.000,39.583)"><circle r="0.0" /></g></g></g></g></g><g class="toyplot-coordinates-Cartesian" id="tc6a7a902f7474cd9ad2ec31fe82f0483"><clipPath id="t7c17fb4ff9824ba4ad1f888ebdbe6d9a"><rect x="295.0" y="15.0" width="110.0" height="70.0" /></clipPath><g clip-path="url(#t7c17fb4ff9824ba4ad1f888ebdbe6d9a)"><g class="toytree-mark-Toytree" id="t3f80038f7ecb4682a97a13438738ff89"><g class="toytree-Edges" style="fill:none;stroke:rgb(14.9%,14.9%,14.9%);stroke-linecap:round;stroke-opacity:1;stroke-width:0.5"><path d="M 305.0 39.6 L 305.0 50.0 L 315.6 50.0" id="12,11" /><path d="M 315.6 50.0 L 315.6 39.6 L 319.7 39.6" id="11,10" /><path d="M 315.6 50.0 L 315.6 60.4 L 333.0 60.4" id="11,9" /><path d="M 333.0 60.4 L 333.0 53.5 L 357.8 53.5" id="9,8" /><path d="M 333.0 60.4 L 333.0 67.4 L 339.0 67.4" id="9,7" /><path d="M 305.0 39.6 L 305.0 29.2 L 349.8 29.2" id="12,6" /><path d="M 319.7 39.6 L 319.7 36.1 L 332.1 36.1" id="10,5" /><path d="M 319.7 39.6 L 319.7 43.1 L 351.7 43.1" id="10,4" /><path d="M 357.8 53.5 L 357.8 50.0 L 385.7 50.0" id="8,3" /><path d="M 357.8 53.5 L 357.8 56.9 L 390.3 56.9" id="8,2" /><path d="M 339.0 67.4 L 339.0 63.9 L 344.5 63.9" id="7,1" /><path d="M 339.0 67.4 L 339.0 70.8 L 344.6 70.8" id="7,0" /></g><g class="toytree-Nodes" style="fill:rgb(100%,0%,0%);fill-opacity:1.0;stroke:None;stroke-width:1"><g id="node-0" transform="translate(344.587,70.833)"><circle r="2.5" /></g><g id="node-1" transform="translate(344.465,63.889)"><circle r="2.5" /></g><g id="node-2" transform="translate(390.263,56.944)"><circle r="2.5" /></g><g id="node-3" transform="translate(385.738,50.000)"><circle r="2.5" /></g><g id="node-4" transform="translate(351.697,43.056)"><circle r="2.5" /></g><g id="node-5" transform="translate(332.134,36.111)"><circle r="2.5" /></g><g id="node-6" transform="translate(349.802,29.167)"><circle r="2.5" /></g><g id="node-7" transform="translate(339.037,67.361)"><circle r="0.0" /></g><g id="node-8" transform="translate(357.844,53.472)"><circle r="0.0" /></g><g id="node-9" transform="translate(332.982,60.417)"><circle r="0.0" /></g><g id="node-10" transform="translate(319.657,39.583)"><circle r="0.0" /></g><g id="node-11" transform="translate(315.565,50.000)"><circle r="0.0" /></g><g id="node-12" transform="translate(305.000,39.583)"><circle r="0.0" /></g></g></g></g></g><g class="toyplot-coordinates-Cartesian" id="t813f53f0f7e143bd8c709af9813e45ba"><clipPath id="ted4487ea179e45d59120d13b11f9051a"><rect x="435.0" y="15.0" width="110.0" height="70.0" /></clipPath><g clip-path="url(#ted4487ea179e45d59120d13b11f9051a)"><g class="toytree-mark-Toytree" id="tc35a2740d03a42d6b472a6051f0481e3"><g class="toytree-Edges" style="fill:none;stroke:rgb(14.9%,14.9%,14.9%);stroke-linecap:round;stroke-opacity:1;stroke-width:0.5"><path d="M 445.0 43.5 L 445.0 32.6 L 467.0 32.6" id="12,11" /><path d="M 445.0 43.5 L 445.0 54.3 L 494.6 54.3" id="12,10" /><path d="M 494.6 54.3 L 494.6 46.5 L 501.6 46.5" id="10,9" /><path d="M 494.6 54.3 L 494.6 62.2 L 504.1 62.2" id="10,8" /><path d="M 504.1 62.2 L 504.1 67.4 L 528.2 67.4" id="8,7" /><path d="M 467.0 32.6 L 467.0 29.2 L 524.5 29.2" id="11,6" /><path d="M 467.0 32.6 L 467.0 36.1 L 508.3 36.1" id="11,5" /><path d="M 501.6 46.5 L 501.6 43.1 L 502.9 43.1" id="9,4" /><path d="M 501.6 46.5 L 501.6 50.0 L 501.6 50.0" id="9,3" /><path d="M 504.1 62.2 L 504.1 56.9 L 526.6 56.9" id="8,2" /><path d="M 528.2 67.4 L 528.2 63.9 L 530.3 63.9" id="7,1" /><path d="M 528.2 67.4 L 528.2 70.8 L 528.2 70.8" id="7,0" /></g><g class="toytree-Nodes" style="fill:rgb(100%,0%,0%);fill-opacity:1.0;stroke:None;stroke-width:1"><g id="node-0" transform="translate(528.201,70.833)"><circle r="2.5" /></g><g id="node-1" transform="translate(530.263,63.889)"><circle r="2.5" /></g><g id="node-2" transform="translate(526.598,56.944)"><circle r="2.5" /></g><g id="node-3" transform="translate(501.603,50.000)"><circle r="2.5" /></g><g id="node-4" transform="translate(502.900,43.056)"><circle r="2.5" /></g><g id="node-5" transform="translate(508.323,36.111)"><circle r="2.5" /></g><g id="node-6" transform="translate(524.532,29.167)"><circle r="2.5" /></g><g id="node-7" transform="translate(528.201,67.361)"><circle r="0.0" /></g><g id="node-8" transform="translate(504.102,62.153)"><circle r="0.0" /></g><g id="node-9" transform="translate(501.603,46.528)"><circle r="0.0" /></g><g id="node-10" transform="translate(494.647,54.340)"><circle r="0.0" /></g><g id="node-11" transform="translate(467.012,32.639)"><circle r="0.0" /></g><g id="node-12" transform="translate(445.000,43.490)"><circle r="0.0" /></g></g></g></g></g></svg>