<svg class="toyplot-canvas-Canvas" xmlns:toyplot="http://www.sandia.gov/toyplot" xmlns:xlink="http://www.w3.org/1999/xlink" xmlns="http://www.w3.org/2000/svg" width="560.0px" height="100.0px" viewBox="0 0 560.0 100.0" preserveAspectRatio="xMidYMid meet" style="background-color:transparent;border-color:#292724;border-style:none;border-width:1.0;fill:rgb(16.1%,15.3%,14.1%);fill-opacity:1.0;font-family:Helvetica;font-size:12px;opacity:1.0;stroke:rgb(16.1%,15.3%,14.1%);stroke-opacity:1.0;stroke-width:1.0" id="tc5e9a0de92c0408c9c12dd283e18ca91"><g class="toyplot-coordinates-Cartesian" id="t97ea2b4260474250a186010509c8d9b3"><clipPath id="teb1c0ec1c64c41b89f6f962212034906"><rect x="15.0" y="15.0" width="110.0" height="70.0" /></clipPath><g clip-path="url(#teb1c0ec1c64c41b89f6f962212034906)"><g class="toytree-mark-Toytree" id="tff12ca461a264a4b8903a4687df87a91"><g class="toytree-Edges" style="fill:none;stroke:rgb(14.9%,14.9%,14.9%);stroke-linecap:round;stroke-opacity:1;stroke-width:0.5"><path d="M 25.2 41.3 L 25.2 33.3 L 26.3 33.3" id="58,57" /><path d="M 25.2 41.3 L 25.2 49.2 L 25.5 49.2" id="58,56" /><path d="M 26.3 33.3 L 26.3 30.2 L 28.1 30.2" id="57,55" /><path d="M 26.3 33.3 L 26.3 36.4 L 27.2 36.4" id="57,54" /><path d="M 25.5 49.2 L 25.5 43.9 L 26.5 43.9" id="56,53" /><path d="M 25.5 49.2 L 25.5 54.6 L 27.5 54.6" id="56,52" /><path d="M 28.1 30.2 L 28.1 31.3 L 42.7 31.3" id="55,51" /><path d="M 27.2 36.4 L 27.2 34.2 L 69.2 34.2" id="54,50" /><path d="M 27.2 36.4 L 27.2 38.5 L 27.7 38.5" id="54,49" /><path d="M 26.5 43.9 L 26.5 45.7 L 27.0 45.7" id="53,48" /><path d="M 27.5 54.6 L 27.5 50.4 L 30.7 50.4" id="52,47" /><path d="M 27.5 54.6 L 27.5 58.8 L 28.1 58.8" id="52,46" /><path d="M 27.7 38.5 L 27.7 37.1 L 28.3 37.1" id="49,45" /><path d="M 27.7 38.5 L 27.7 39.9 L 28.4 39.9" id="49,44" /><path d="M 27.0 45.7 L 27.0 44.3 L 29.4 44.3" id="48,43" /><path d="M 27.0 45.7 L 27.0 47.1 L 28.9 47.1" id="48,42" /><path d="M 30.7 50.4 L 30.7 51.4 L 56.5 51.4" id="47,41" /><path d="M 28.1 58.8 L 28.1 54.7 L 32.7 54.7" id="46,40" /><path d="M 28.1 58.8 L 28.1 63.0 L 30.2 63.0" id="46,39" /><path d="M 32.7 54.7 L 32.7 55.7 L 34.9 55.7" id="40,38" /><path d="M 30.2 63.0 L 30.2 59.2 L 31.5 59.2" id="39,37" /><path d="M 30.2 63.0 L 30.2 66.9 L 31.8 66.9" id="39,36" /><path d="M 31.5 59.2 L 31.5 60.4 L 32.6 60.4" id="37,35" /><path d="M 31.8 66.9 L 31.8 64.7 L 33.8 64.7" id="36,34" /><path d="M 31.8 66.9 L 31.8 69.0 L 33.4 69.0" id="36,33" /><path d="M 32.6 60.4 L 32.6 61.5 L 49.1 61.5" id="35,32" /><path d="M 33.8 64.7 L 33.8 65.8 L 44.8 65.8" id="34,31" /><path d="M 33.4 69.0 L 33.4 70.1 L 46.2 70.1" id="33,30" /><path d="M 28.1 30.2 L 28.1 29.2 L 99.9 29.2" id="55,29" /><path d="M 42.7 31.3 L 42.7 30.6 L 96.4 30.6" id="51,28" /><path d="M 42.7 31.3 L 42.7 32.0 L 95.7 32.0" id="51,27" /><path d="M 69.2 34.2 L 69.2 33.5 L 98.2 33.5" id="50,26" /><path d="M 69.2 34.2 L 69.2 34.9 L 97.8 34.9" id="50,25" /><path d="M 28.3 37.1 L 28.3 36.4 L 108.1 36.4" id="45,24" /><path d="M 28.3 37.1 L 28.3 37.8 L 100.8 37.8" id="45,23" /><path d="M 28.4 39.9 L 28.4 39.2 L 102.8 39.2" id="44,22" /><path d="M 28.4 39.9 L 28.4 40.7 L 98.8 40.7" id="44,21" /><path d="M 26.5 43.9 L 26.5 42.1 L 99.4 42.1" id="53,20" /><path d="M 29.4 44.3 L 29.4 43.5 L 99.5 43.5" id="43,19" /><path d="M 29.4 44.3 L 29.4 45.0 L 101.0 45.0" id="43,18" /><path d="M 28.9 47.1 L 28.9 46.4 L 101.7 46.4" id="42,17" /><path d="M 28.9 47.1 L 28.9 47.8 L 94.2 47.8" id="42,16" /><path d="M 30.7 50.4 L 30.7 49.3 L 105.1 49.3" id="47,15" /><path d="M 56.5 51.4 L 56.5 50.7 L 106.1 50.7" id="41,14" /><path d="M 56.5 51.4 L 56.5 52.2 L 110.3 52.2" id="41,13" /><path d="M 32.7 54.7 L 32.7 53.6 L 95.0 53.6" id="40,12" /><path d="M 34.9 55.7 L 34.9 55.0 L 99.2 55.0" id="38,11" /><path d="M 34.9 55.7 L 34.9 56.5 L 100.1 56.5" id="38,10" /><path d="M 31.5 59.2 L 31.5 57.9 L 96.1 57.9" id="37,9" /><path d="M 32.6 60.4 L 32.6 59.3 L 98.8 59.3" id="35,8" /><path d="M 49.1 61.5 L 49.1 60.8 L 95.6 60.8" id="32,7" /><path d="M 49.1 61.5 L 49.1 62.2 L 96.6 62.2" id="32,6" /><path d="M 33.8 64.7 L 33.8 63.6 L 98.3 63.6" id="34,5" /><path d="M 44.8 65.8 L 44.8 65.1 L 101.4 65.1" id="31,4" /><path d="M 44.8 65.8 L 44.8 66.5 L 97.9 66.5" id="31,3" /><path d="M 33.4 69.0 L 33.4 68.0 L 101.4 68.0" id="33,2" /><path d="M 46.2 70.1 L 46.2 69.4 L 99.3 69.4" id="30,1" /><path d="M 46.2 70.1 L 46.2 70.8 L 99.4 70.8" id="30,0" /></g><g class="toytree-Nodes" style="fill:rgb(100%,0%,0%);fill-opacity:1.0;stroke:None;stroke-width:1"><g id="node-0" transform="translate(99.366,70.833)"><circle r="2.5" /></g><g id="node-1" transform="translate(99.315,69.397)"><circle r="2.5" /></g><g id="node-2" transform="translate(101.430,67.960)"><circle r="2.5" /></g><g id="node-3" transform="translate(97.867,66.523)"><circle r="2.5" /></g><g id="node-4" transform="translate(101.432,65.086)"><circle r="2.5" /></g><g id="node-5" transform="translate(98.254,63.649)"><circle r="2.5" /></g><g id="node-6" transform="translate(96.614,62.213)"><circle r="2.5" /></g><g id="node-7" transform="translate(95.589,60.776)"><circle r="2.5" /></g><g id="node-8" transform="translate(98.784,59.339)"><circle r="2.5" /></g><g id="node-9" transform="translate(96.145,57.902)"><circle r="2.5" /></g><g id="node-10" transform="translate(100.140,56.466)"><circle r="2.5" /></g><g id="node-11" transform="translate(99.158,55.029)"><circle r="2.5" /></g><g id="node-12" transform="translate(95.010,53.592)"><circle r="2.5" /></g><g id="node-13" transform="translate(110.271,52.155)"><circle r="2.5" /></g><g id="node-14" transform="translate(106.124,50.718)"><circle r="2.5" /></g><g id="node-15" transform="translate(105.143,49.282)"><circle r="2.5" /></g><g id="node-16" transform="translate(94.167,47.845)"><circle r="2.5" /></g><g id="node-17" transform="translate(101.705,46.408)"><circle r="2.5" /></g><g id="node-18" transform="translate(101.000,44.971)"><circle r="2.5" /></g><g id="node-19" transform="translate(99.532,43.534)"><circle r="2.5" /></g><g id="node-20" transform="translate(99.445,42.098)"><circle r="2.5" /></g><g id="node-21" transform="translate(98.757,40.661)"><circle r="2.5" /></g><g id="node-22" transform="translate(102.805,39.224)"><circle r="2.5" /></g><g id="node-23" transform="translate(100.817,37.787)"><circle r="2.5" /></g><g id="node-24" transform="translate(108.097,36.351)"><circle r="2.5" /></g><g id="node-25" transform="translate(97.774,34.914)"><circle r="2.5" /></g><g id="node-26" transform="translate(98.174,33.477)"><circle r="2.5" /></g><g id="node-27" transform="translate(95.669,32.040)"><circle r="2.5" /></g><g id="node-28" transform="translate(96.405,30.603)"><circle r="2.5" /></g><g id="node-29" transform="translate(99.859,29.167)"><circle r="2.5" /></g><g id="node-30" transform="translate(46.220,70.115)"><circle r="0.0" /></g><g id="node-31" transform="translate(44.798,65.805)"><circle r="0.0" /></g><g id="node-32" transform="translate(49.115,61.494)"><circle r="0.0" /></g><g id="node-33" transform="translate(33.416,69.037)"><circle r="0.0" /></g><g id="node-34" transform="translate(33.838,64.727)"><circle r="0.0" /></g><g id="node-35" transform="translate(32.601,60.417)"><circle r="0.0" /></g><g id="node-36" transform="translate(31.756,66.882)"><circle r="0.0" /></g><g id="node-37" transform="translate(31.495,59.159)"><circle r="0.0" /></g><g id="node-38" transform="translate(34.906,55.747)"><circle r="0.0" /></g><g id="node-39" transform="translate(30.174,63.021)"><circle r="0.0" /></g><g id="node-40" transform="translate(32.660,54.670)"><circle r="0.0" /></g><g id="node-41" transform="translate(56.463,51.437)"><circle r="0.0" /></g><g id="node-42" transform="translate(28.890,47.126)"><circle r="0.0" /></g><g id="node-43" transform="translate(29.390,44.253)"><circle r="0.0" /></g><g id="node-44" transform="translate(28.421,39.943)"><circle r="0.0" /></g><g id="node-45" transform="translate(28.338,37.069)"><circle r="0.0" /></g><g id="node-46" transform="translate(28.138,58.845)"><circle r="0.0" /></g><g id="node-47" transform="translate(30.700,50.359)"><circle r="0.0" /></g><g id="node-48" transform="translate(27.050,45.690)"><circle r="0.0" /></g><g id="node-49" transform="translate(27.737,38.506)"><circle r="0.0" /></g><g id="node-50" transform="translate(69.188,34.195)"><circle r="0.0" /></g><g id="node-51" transform="translate(42.719,31.322)"><circle r="0.0" /></g><g id="node-52" transform="translate(27.477,54.602)"><circle r="0.0" /></g><g id="node-53" transform="translate(26.517,43.894)"><circle r="0.0" /></g><g id="node-54" transform="translate(27.195,36.351)"><circle r="0.0" /></g><g id="node-55" transform="translate(28.061,30.244)"><circle r="0.0" /></g><g id="node-56" transform="translate(25.473,49.248)"><circle r="0.0" /></g><g id="node-57" transform="translate(26.306,33.297)"><circle r="0.0" /></g><g id="node-58" transform="translate(25.151,41.273)"><circle r="0.0" /></g></g></g></g></g><g class="toyplot-coordinates-Cartesian" id="tc4b6575670a04252aca61aab709ac044"><clipPath id="tb557c9a77dcb4e519c9e3836dbc5f880"><rect x="155.0" y="15.0" width="110.0" height="70.0" /></clipPath><g clip-path="url(#tb557c9a77dcb4e519c9e3836dbc5f880)"><g class="toytree-mark-Toytree" id="tfa5ad31aca7d469c802486a3d0325bfd"><g class="toytree-Edges" style="fill:none;stroke:rgb(14.9%,14.9%,14.9%);stroke-linecap:round;stroke-opacity:1;stroke-width:0.5"><path d="M 165.0 39.2 L 165.0 32.4 L 167.7 32.4" id="58,57" /><path d="M 165.0 39.2 L 165.0 45.9 L 167.6 45.9" id="58,56" /><path d="M 167.7 32.4 L 167.7 29.9 L 182.8 29.9" id="57,55" /><path d="M 167.7 32.4 L 167.7 35.0 L 171.1 35.0" id="57,54" /><path d="M 167.6 45.9 L 167.6 42.8 L 215.4 42.8" id="56,53" /><path d="M 167.6 45.9 L 167.6 49.0 L 171.1 49.0" id="56,52" /><path d="M 171.1 35.0 L 171.1 32.8 L 175.2 32.8" id="54,51" /><path d="M 171.1 35.0 L 171.1 37.2 L 173.3 37.2" id="54,50" /><path d="M 171.1 49.0 L 171.1 45.7 L 175.5 45.7" id="52,49" /><path d="M 171.1 49.0 L 171.1 52.4 L 173.8 52.4" id="52,48" /><path d="M 173.3 37.2 L 173.3 35.6 L 190.8 35.6" id="50,47" /><path d="M 173.3 37.2 L 173.3 38.9 L 174.5 38.9" id="50,46" /><path d="M 173.8 52.4 L 173.8 48.6 L 180.3 48.6" id="48,45" /><path d="M 173.8 52.4 L 173.8 56.2 L 176.0 56.2" id="48,44" /><path d="M 174.5 38.9 L 174.5 39.9 L 209.0 39.9" id="46,43" /><path d="M 176.0 56.2 L 176.0 51.8 L 186.2 51.8" id="44,42" /><path d="M 176.0 56.2 L 176.0 60.6 L 176.6 60.6" id="44,41" /><path d="M 186.2 51.8 L 186.2 52.9 L 191.9 52.9" id="42,40" /><path d="M 176.6 60.6 L 176.6 57.2 L 182.0 57.2" id="41,39" /><path d="M 176.6 60.6 L 176.6 64.0 L 179.0 64.0" id="41,38" /><path d="M 182.0 57.2 L 182.0 55.7 L 192.6 55.7" id="39,37" /><path d="M 182.0 57.2 L 182.0 58.6 L 203.0 58.6" id="39,36" /><path d="M 179.0 64.0 L 179.0 61.5 L 189.7 61.5" id="38,35" /><path d="M 179.0 64.0 L 179.0 66.5 L 180.7 66.5" id="38,34" /><path d="M 180.7 66.5 L 180.7 64.4 L 191.8 64.4" id="34,33" /><path d="M 180.7 66.5 L 180.7 68.7 L 184.5 68.7" id="34,32" /><path d="M 184.5 68.7 L 184.5 67.2 L 187.6 67.2" id="32,31" /><path d="M 184.5 68.7 L 184.5 70.1 L 205.9 70.1" id="32,30" /><path d="M 182.8 29.9 L 182.8 29.2 L 215.7 29.2" id="55,29" /><path d="M 182.8 29.9 L 182.8 30.6 L 209.7 30.6" id="55,28" /><path d="M 175.2 32.8 L 175.2 32.0 L 240.5 32.0" id="51,27" /><path d="M 175.2 32.8 L 175.2 33.5 L 247.6 33.5" id="51,26" /><path d="M 190.8 35.6 L 190.8 34.9 L 215.7 34.9" id="47,25" /><path d="M 190.8 35.6 L 190.8 36.4 L 209.8 36.4" id="47,24" /><path d="M 174.5 38.9 L 174.5 37.8 L 191.9 37.8" id="46,23" /><path d="M 209.0 39.9 L 209.0 39.2 L 225.8 39.2" id="43,22" /><path d="M 209.0 39.9 L 209.0 40.7 L 227.1 40.7" id="43,21" /><path d="M 215.4 42.8 L 215.4 42.1 L 224.7 42.1" id="53,20" /><path d="M 215.4 42.8 L 215.4 43.5 L 226.0 43.5" id="53,19" /><path d="M 175.5 45.7 L 175.5 45.0 L 229.9 45.0" id="49,18" /><path d="M 175.5 45.7 L 175.5 46.4 L 206.6 46.4" id="49,17" /><path d="M 180.3 48.6 L 180.3 47.8 L 191.9 47.8" id="45,16" /><path d="M 180.3 48.6 L 180.3 49.3 L 220.1 49.3" id="45,15" /><path d="M 186.2 51.8 L 186.2 50.7 L 208.0 50.7" id="42,14" /><path d="M 191.9 52.9 L 191.9 52.2 L 239.7 52.2" id="40,13" /><path d="M 191.9 52.9 L 191.9 53.6 L 222.3 53.6" id="40,12" /><path d="M 192.6 55.7 L 192.6 55.0 L 243.6 55.0" id="37,11" /><path d="M 192.6 55.7 L 192.6 56.5 L 231.7 56.5" id="37,10" /><path d="M 203.0 58.6 L 203.0 57.9 L 247.8 57.9" id="36,9" /><path d="M 203.0 58.6 L 203.0 59.3 L 250.3 59.3" id="36,8" /><path d="M 189.7 61.5 L 189.7 60.8 L 211.6 60.8" id="35,7" /><path d="M 189.7 61.5 L 189.7 62.2 L 199.4 62.2" id="35,6" /><path d="M 191.8 64.4 L 191.8 63.6 L 199.9 63.6" id="33,5" /><path d="M 191.8 64.4 L 191.8 65.1 L 206.2 65.1" id="33,4" /><path d="M 187.6 67.2 L 187.6 66.5 L 212.6 66.5" id="31,3" /><path d="M 187.6 67.2 L 187.6 68.0 L 212.4 68.0" id="31,2" /><path d="M 205.9 70.1 L 205.9 69.4 L 212.8 69.4" id="30,1" /><path d="M 205.9 70.1 L 205.9 70.8 L 224.2 70.8" id="30,0" /></g><g class="toytree-Nodes" style="fill:rgb(100%,0%,0%);fill-opacity:1.0;stroke:None;stroke-width:1"><g id="node-0" transform="translate(224.240,70.833)"><circle r="2.5" /></g><g id="node-1" transform="translate(212.807,69.397)"><circle r="2.5" /></g><g id="node-2" transform="translate(212.361,67.960)"><circle r="2.5" /></g><g id="node-3" transform="translate(212.649,66.523)"><circle r="2.5" /></g><g id="node-4" transform="translate(206.199,65.086)"><circle r="2.5" /></g><g id="node-5" transform="translate(199.850,63.649)"><circle r="2.5" /></g><g id="node-6" transform="translate(199.391,62.213)"><circle r="2.5" /></g><g id="node-7" transform="translate(211.571,60.776)"><circle r="2.5" /></g><g id="node-8" transform="translate(250.263,59.339)"><circle r="2.5" /></g><g id="node-9" transform="translate(247.773,57.902)"><circle r="2.5" /></g><g id="node-10" transform="translate(231.667,56.466)"><circle r="2.5" /></g><g id="node-11" transform="translate(243.598,55.029)"><circle r="2.5" /></g><g id="node-12" transform="translate(222.273,53.592)"><circle r="2.5" /></g><g id="node-13" transform="translate(239.672,52.155)"><circle r="2.5" /></g><g id="node-14" transform="translate(208.033,50.718)"><circle r="2.5" /></g><g id="node-15" transform="translate(220.104,49.282)"><circle r="2.5" /></g><g id="node-16" transform="translate(191.931,47.845)"><circle r="2.5" /></g><g id="node-17" transform="translate(206.602,46.408)"><circle r="2.5" /></g><g id="node-18" transform="translate(229.871,44.971)"><circle r="2.5" /></g><g id="node-19" transform="translate(225.978,43.534)"><circle r="2.5" /></g><g id="node-20" transform="translate(224.734,42.098)"><circle r="2.5" /></g><g id="node-21" transform="translate(227.092,40.661)"><circle r="2.5" /></g><g id="node-22" transform="translate(225.751,39.224)"><circle r="2.5" /></g><g id="node-23" transform="translate(191.876,37.787)"><circle r="2.5" /></g><g id="node-24" transform="translate(209.817,36.351)"><circle r="2.5" /></g><g id="node-25" transform="translate(215.677,34.914)"><circle r="2.5" /></g><g id="node-26" transform="translate(247.580,33.477)"><circle r="2.5" /></g><g id="node-27" transform="translate(240.484,32.040)"><circle r="2.5" /></g><g id="node-28" transform="translate(209.712,30.603)"><circle r="2.5" /></g><g id="node-29" transform="translate(215.687,29.167)"><circle r="2.5" /></g><g id="node-30" transform="translate(205.859,70.115)"><circle r="0.0" /></g><g id="node-31" transform="translate(187.608,67.241)"><circle r="0.0" /></g><g id="node-32" transform="translate(184.481,68.678)"><circle r="0.0" /></g><g id="node-33" transform="translate(191.797,64.368)"><circle r="0.0" /></g><g id="node-34" transform="translate(180.679,66.523)"><circle r="0.0" /></g><g id="node-35" transform="translate(189.681,61.494)"><circle r="0.0" /></g><g id="node-36" transform="translate(202.982,58.621)"><circle r="0.0" /></g><g id="node-37" transform="translate(192.649,55.747)"><circle r="0.0" /></g><g id="node-38" transform="translate(179.004,64.009)"><circle r="0.0" /></g><g id="node-39" transform="translate(182.020,57.184)"><circle r="0.0" /></g><g id="node-40" transform="translate(191.902,52.874)"><circle r="0.0" /></g><g id="node-41" transform="translate(176.629,60.596)"><circle r="0.0" /></g><g id="node-42" transform="translate(186.238,51.796)"><circle r="0.0" /></g><g id="node-43" transform="translate(209.041,39.943)"><circle r="0.0" /></g><g id="node-44" transform="translate(176.035,56.196)"><circle r="0.0" /></g><g id="node-45" transform="translate(180.330,48.563)"><circle r="0.0" /></g><g id="node-46" transform="translate(174.544,38.865)"><circle r="0.0" /></g><g id="node-47" transform="translate(190.770,35.632)"><circle r="0.0" /></g><g id="node-48" transform="translate(173.794,52.380)"><circle r="0.0" /></g><g id="node-49" transform="translate(175.527,45.690)"><circle r="0.0" /></g><g id="node-50" transform="translate(173.289,37.249)"><circle r="0.0" /></g><g id="node-51" transform="translate(175.228,32.759)"><circle r="0.0" /></g><g id="node-52" transform="translate(171.127,49.035)"><circle r="0.0" /></g><g id="node-53" transform="translate(215.445,42.816)"><circle r="0.0" /></g><g id="node-54" transform="translate(171.139,35.004)"><circle r="0.0" /></g><g id="node-55" transform="translate(182.798,29.885)"><circle r="0.0" /></g><g id="node-56" transform="translate(167.589,45.925)"><circle r="0.0" /></g><g id="node-57" transform="translate(167.663,32.444)"><circle r="0.0" /></g><g id="node-58" transform="translate(165.000,39.185)"><circle r="0.0" /></g></g></g></g></g><g class="toyplot-coordinates-Cartesian" id="t7ac8334c509143fbb2a76ba3fd325ff6"><clipPath id="ted545d52da0b478aa02e4e41980301a2"><rect x="295.0" y="15.0" width="110.0" height="70.0" /></clipPath><g clip-path="url(#ted545d52da0b478aa02e4e41980301a2)"><g class="toytree-mark-Toytree" id="t607c0ad5520e45dfbf7d25fa576390ed"><g class="toytree-Edges" style="fill:none;stroke:rgb(14.9%,14.9%,14.9%);stroke-linecap:round;stroke-opacity:1;stroke-width:0.5"><path d="M 305.0 31.1 L 305.0 33.0 L 311.2 33.0" id="58,57" /><path d="M 311.2 33.0 L 311.2 35.5 L 315.9 35.5" id="57,56" /><path d="M 315.9 35.5 L 315.9 32.8 L 358.8 32.8" id="56,55" /><path d="M 315.9 35.5 L 315.9 38.2 L 319.6 38.2" id="56,54" /><path d="M 319.6 38.2 L 319.6 41.5 L 320.6 41.5" id="54,53" /><path d="M 320.6 41.5 L 320.6 37.1 L 339.1 37.1" id="53,52" /><path d="M 320.6 41.5 L 320.6 45.9 L 324.2 45.9" id="53,51" /><path d="M 324.2 45.9 L 324.2 39.9 L 335.7 39.9" id="51,50" /><path d="M 324.2 45.9 L 324.2 51.8 L 324.8 51.8" id="51,49" /><path d="M 324.8 51.8 L 324.8 45.1 L 331.6 45.1" id="49,48" /><path d="M 324.8 51.8 L 324.8 58.6 L 327.3 58.6" id="49,47" /><path d="M 331.6 45.1 L 331.6 42.8 L 346.2 42.8" id="48,46" /><path d="M 331.6 45.1 L 331.6 47.3 L 336.3 47.3" id="48,45" /><path d="M 327.3 58.6 L 327.3 54.3 L 331.3 54.3" id="47,44" /><path d="M 327.3 58.6 L 327.3 62.8 L 330.7 62.8" id="47,43" /><path d="M 336.3 47.3 L 336.3 45.7 L 366.7 45.7" id="45,42" /><path d="M 336.3 47.3 L 336.3 48.9 L 337.6 48.9" id="45,41" /><path d="M 331.3 54.3 L 331.3 52.9 L 336.5 52.9" id="44,40" /><path d="M 331.3 54.3 L 331.3 55.7 L 335.5 55.7" id="44,39" /><path d="M 330.7 62.8 L 330.7 59.2 L 336.6 59.2" id="43,38" /><path d="M 330.7 62.8 L 330.7 66.5 L 332.9 66.5" id="43,37" /><path d="M 337.6 48.9 L 337.6 50.0 L 352.7 50.0" id="41,36" /><path d="M 336.6 59.2 L 336.6 60.4 L 341.2 60.4" id="38,35" /><path d="M 332.9 66.5 L 332.9 64.4 L 338.2 64.4" id="37,34" /><path d="M 332.9 66.5 L 332.9 68.7 L 335.9 68.7" id="37,33" /><path d="M 341.2 60.4 L 341.2 61.5 L 343.6 61.5" id="35,32" /><path d="M 335.9 68.7 L 335.9 67.2 L 352.1 67.2" id="33,31" /><path d="M 335.9 68.7 L 335.9 70.1 L 344.6 70.1" id="33,30" /><path d="M 305.0 31.1 L 305.0 29.2 L 363.8 29.2" id="58,29" /><path d="M 311.2 33.0 L 311.2 30.6 L 372.0 30.6" id="57,28" /><path d="M 358.8 32.8 L 358.8 32.0 L 373.3 32.0" id="55,27" /><path d="M 358.8 32.8 L 358.8 33.5 L 365.1 33.5" id="55,26" /><path d="M 319.6 38.2 L 319.6 34.9 L 351.8 34.9" id="54,25" /><path d="M 339.1 37.1 L 339.1 36.4 L 363.2 36.4" id="52,24" /><path d="M 339.1 37.1 L 339.1 37.8 L 355.3 37.8" id="52,23" /><path d="M 335.7 39.9 L 335.7 39.2 L 377.7 39.2" id="50,22" /><path d="M 335.7 39.9 L 335.7 40.7 L 363.3 40.7" id="50,21" /><path d="M 346.2 42.8 L 346.2 42.1 L 386.8 42.1" id="46,20" /><path d="M 346.2 42.8 L 346.2 43.5 L 390.3 43.5" id="46,19" /><path d="M 366.7 45.7 L 366.7 45.0 L 379.6 45.0" id="42,18" /><path d="M 366.7 45.7 L 366.7 46.4 L 383.3 46.4" id="42,17" /><path d="M 337.6 48.9 L 337.6 47.8 L 352.0 47.8" id="41,16" /><path d="M 352.7 50.0 L 352.7 49.3 L 365.3 49.3" id="36,15" /><path d="M 352.7 50.0 L 352.7 50.7 L 374.4 50.7" id="36,14" /><path d="M 336.5 52.9 L 336.5 52.2 L 343.7 52.2" id="40,13" /><path d="M 336.5 52.9 L 336.5 53.6 L 381.5 53.6" id="40,12" /><path d="M 335.5 55.7 L 335.5 55.0 L 379.6 55.0" id="39,11" /><path d="M 335.5 55.7 L 335.5 56.5 L 358.9 56.5" id="39,10" /><path d="M 336.6 59.2 L 336.6 57.9 L 357.1 57.9" id="38,9" /><path d="M 341.2 60.4 L 341.2 59.3 L 371.0 59.3" id="35,8" /><path d="M 343.6 61.5 L 343.6 60.8 L 350.4 60.8" id="32,7" /><path d="M 343.6 61.5 L 343.6 62.2 L 356.2 62.2" id="32,6" /><path d="M 338.2 64.4 L 338.2 63.6 L 358.1 63.6" id="34,5" /><path d="M 338.2 64.4 L 338.2 65.1 L 361.9 65.1" id="34,4" /><path d="M 352.1 67.2 L 352.1 66.5 L 367.3 66.5" id="31,3" /><path d="M 352.1 67.2 L 352.1 68.0 L 362.3 68.0" id="31,2" /><path d="M 344.6 70.1 L 344.6 69.4 L 365.1 69.4" id="30,1" /><path d="M 344.6 70.1 L 344.6 70.8 L 351.2 70.8" id="30,0" /></g><g class="toytree-Nodes" style="fill:rgb(100%,0%,0%);fill-opacity:1.0;stroke:None;stroke-width:1"><g id="node-0" transform="translate(351.160,70.833)"><circle r="2.5" /></g><g id="node-1" transform="translate(365.085,69.397)"><circle r="2.5" /></g><g id="node-2" transform="translate(362.324,67.960)"><circle r="2.5" /></g><g id="node-3" transform="translate(367.344,66.523)"><circle r="2.5" /></g><g id="node-4" transform="translate(361.863,65.086)"><circle r="2.5" /></g><g id="node-5" transform="translate(358.094,63.649)"><circle r="2.5" /></g><g id="node-6" transform="translate(356.160,62.213)"><circle r="2.5" /></g><g id="node-7" transform="translate(350.415,60.776)"><circle r="2.5" /></g><g id="node-8" transform="translate(370.989,59.339)"><circle r="2.5" /></g><g id="node-9" transform="translate(357.073,57.902)"><circle r="2.5" /></g><g id="node-10" transform="translate(358.917,56.466)"><circle r="2.5" /></g><g id="node-11" transform="translate(379.581,55.029)"><circle r="2.5" /></g><g id="node-12" transform="translate(381.548,53.592)"><circle r="2.5" /></g><g id="node-13" transform="translate(343.741,52.155)"><circle r="2.5" /></g><g id="node-14" transform="translate(374.405,50.718)"><circle r="2.5" /></g><g id="node-15" transform="translate(365.262,49.282)"><circle r="2.5" /></g><g id="node-16" transform="translate(351.967,47.845)"><circle r="2.5" /></g><g id="node-17" transform="translate(383.297,46.408)"><circle r="2.5" /></g><g id="node-18" transform="translate(379.569,44.971)"><circle r="2.5" /></g><g id="node-19" transform="translate(390.263,43.534)"><circle r="2.5" /></g><g id="node-20" transform="translate(386.831,42.098)"><circle r="2.5" /></g><g id="node-21" transform="translate(363.332,40.661)"><circle r="2.5" /></g><g id="node-22" transform="translate(377.676,39.224)"><circle r="2.5" /></g><g id="node-23" transform="translate(355.259,37.787)"><circle r="2.5" /></g><g id="node-24" transform="translate(363.151,36.351)"><circle r="2.5" /></g><g id="node-25" transform="translate(351.835,34.914)"><circle r="2.5" /></g><g id="node-26" transform="translate(365.138,33.477)"><circle r="2.5" /></g><g id="node-27" transform="translate(373.335,32.040)"><circle r="2.5" /></g><g id="node-28" transform="translate(371.993,30.603)"><circle r="2.5" /></g><g id="node-29" transform="translate(363.838,29.167)"><circle r="2.5" /></g><g id="node-30" transform="translate(344.646,70.115)"><circle r="0.0" /></g><g id="node-31" transform="translate(352.140,67.241)"><circle r="0.0" /></g><g id="node-32" transform="translate(343.556,61.494)"><circle r="0.0" /></g><g id="node-33" transform="translate(335.894,68.678)"><circle r="0.0" /></g><g id="node-34" transform="translate(338.190,64.368)"><circle r="0.0" /></g><g id="node-35" transform="translate(341.235,60.417)"><circle r="0.0" /></g><g id="node-36" transform="translate(352.736,50.000)"><circle r="0.0" /></g><g id="node-37" transform="translate(332.928,66.523)"><circle r="0.0" /></g><g id="node-38" transform="translate(336.639,59.159)"><circle r="0.0" /></g><g id="node-39" transform="translate(335.487,55.747)"><circle r="0.0" /></g><g id="node-40" transform="translate(336.454,52.874)"><circle r="0.0" /></g><g id="node-41" transform="translate(337.569,48.922)"><circle r="0.0" /></g><g id="node-42" transform="translate(366.743,45.690)"><circle r="0.0" /></g><g id="node-43" transform="translate(330.734,62.841)"><circle r="0.0" /></g><g id="node-44" transform="translate(331.294,54.310)"><circle r="0.0" /></g><g id="node-45" transform="translate(336.310,47.306)"><circle r="0.0" /></g><g id="node-46" transform="translate(346.247,42.816)"><circle r="0.0" /></g><g id="node-47" transform="translate(327.270,58.576)"><circle r="0.0" /></g><g id="node-48" transform="translate(331.648,45.061)"><circle r="0.0" /></g><g id="node-49" transform="translate(324.772,51.818)"><circle r="0.0" /></g><g id="node-50" transform="translate(335.713,39.943)"><circle r="0.0" /></g><g id="node-51" transform="translate(324.233,45.880)"><circle r="0.0" /></g><g id="node-52" transform="translate(339.145,37.069)"><circle r="0.0" /></g><g id="node-53" transform="translate(320.595,41.475)"><circle r="0.0" /></g><g id="node-54" transform="translate(319.575,38.194)"><circle r="0.0" /></g><g id="node-55" transform="translate(358.806,32.759)"><circle r="0.0" /></g><g id="node-56" transform="translate(315.892,35.476)"><circle r="0.0" /></g><g id="node-57" transform="translate(311.238,33.040)"><circle r="0.0" /></g><g id="node-58" transform="translate(305.000,31.103)"><circle r="0.0" /></g></g></g></g></g><g class="toyplot-coordinates-Cartesian" id="tba5f9d90c1e041b59a86a7a12987b6f9"><clipPath id="t1ef782fbc85a41798c5b66742b0763fe"><rect x="435.0" y="15.0" width="110.0" height="70.0" /></clipPath><g clip-path="url(#t1ef782fbc85a41798c5b66742b0763fe)"><g class="toytree-mark-Toytree" id="t923cb629310247a5b5e2127b4aa71c24"><g class="toytree-Edges" style="fill:none;stroke:rgb(14.9%,14.9%,14.9%);stroke-linecap:round;stroke-opacity:1;stroke-width:0.5"><path d="M 445.0 37.7 L 445.0 32.4 L 446.9 32.4" id="58,57" /><path d="M 445.0 37.7 L 445.0 43.0 L 447.8 43.0" id="58,56" /><path d="M 446.9 32.4 L 446.9 30.2 L 449.5 30.2" id="57,55" /><path d="M 446.9 32.4 L 446.9 34.6 L 450.4 34.6" id="57,54" /><path d="M 447.8 43.0 L 447.8 38.9 L 450.0 38.9" id="56,53" /><path d="M 447.8 43.0 L 447.8 47.1 L 449.7 47.1" id="56,52" /><path d="M 449.5 30.2 L 449.5 31.3 L 486.9 31.3" id="55,51" /><path d="M 450.4 34.6 L 450.4 35.6 L 470.9 35.6" id="54,50" /><path d="M 450.0 38.9 L 450.0 39.9 L 462.1 39.9" id="53,49" /><path d="M 449.7 47.1 L 449.7 43.2 L 452.4 43.2" id="52,48" /><path d="M 449.7 47.1 L 449.7 51.1 L 452.9 51.1" id="52,47" /><path d="M 452.4 43.2 L 452.4 44.3 L 455.1 44.3" id="48,46" /><path d="M 452.9 51.1 L 452.9 47.1 L 454.8 47.1" id="47,45" /><path d="M 452.9 51.1 L 452.9 55.0 L 454.7 55.0" id="47,44" /><path d="M 454.7 55.0 L 454.7 51.4 L 458.7 51.4" id="44,43" /><path d="M 454.7 55.0 L 454.7 58.6 L 459.1 58.6" id="44,42" /><path d="M 458.7 51.4 L 458.7 50.0 L 464.2 50.0" id="43,41" /><path d="M 458.7 51.4 L 458.7 52.9 L 471.2 52.9" id="43,40" /><path d="M 459.1 58.6 L 459.1 62.2 L 460.8 62.2" id="42,39" /><path d="M 460.8 62.2 L 460.8 57.8 L 462.0 57.8" id="39,38" /><path d="M 460.8 62.2 L 460.8 66.5 L 462.4 66.5" id="39,37" /><path d="M 462.0 57.8 L 462.0 59.2 L 463.8 59.2" id="38,36" /><path d="M 462.4 66.5 L 462.4 64.4 L 512.6 64.4" id="37,35" /><path d="M 462.4 66.5 L 462.4 68.7 L 465.3 68.7" id="37,34" /><path d="M 463.8 59.2 L 463.8 60.4 L 466.0 60.4" id="36,33" /><path d="M 465.3 68.7 L 465.3 67.2 L 474.5 67.2" id="34,32" /><path d="M 465.3 68.7 L 465.3 70.1 L 475.4 70.1" id="34,31" /><path d="M 466.0 60.4 L 466.0 61.5 L 481.9 61.5" id="33,30" /><path d="M 449.5 30.2 L 449.5 29.2 L 509.9 29.2" id="55,29" /><path d="M 486.9 31.3 L 486.9 30.6 L 495.8 30.6" id="51,28" /><path d="M 486.9 31.3 L 486.9 32.0 L 500.6 32.0" id="51,27" /><path d="M 450.4 34.6 L 450.4 33.5 L 497.2 33.5" id="54,26" /><path d="M 470.9 35.6 L 470.9 34.9 L 493.2 34.9" id="50,25" /><path d="M 470.9 35.6 L 470.9 36.4 L 486.0 36.4" id="50,24" /><path d="M 450.0 38.9 L 450.0 37.8 L 502.4 37.8" id="53,23" /><path d="M 462.1 39.9 L 462.1 39.2 L 491.8 39.2" id="49,22" /><path d="M 462.1 39.9 L 462.1 40.7 L 490.1 40.7" id="49,21" /><path d="M 452.4 43.2 L 452.4 42.1 L 479.2 42.1" id="48,20" /><path d="M 455.1 44.3 L 455.1 43.5 L 508.4 43.5" id="46,19" /><path d="M 455.1 44.3 L 455.1 45.0 L 487.9 45.0" id="46,18" /><path d="M 454.8 47.1 L 454.8 46.4 L 485.4 46.4" id="45,17" /><path d="M 454.8 47.1 L 454.8 47.8 L 485.1 47.8" id="45,16" /><path d="M 464.2 50.0 L 464.2 49.3 L 510.3 49.3" id="41,15" /><path d="M 464.2 50.0 L 464.2 50.7 L 509.5 50.7" id="41,14" /><path d="M 471.2 52.9 L 471.2 52.2 L 508.5 52.2" id="40,13" /><path d="M 471.2 52.9 L 471.2 53.6 L 516.7 53.6" id="40,12" /><path d="M 459.1 58.6 L 459.1 55.0 L 489.2 55.0" id="42,11" /><path d="M 462.0 57.8 L 462.0 56.5 L 493.1 56.5" id="38,10" /><path d="M 463.8 59.2 L 463.8 57.9 L 493.6 57.9" id="36,9" /><path d="M 466.0 60.4 L 466.0 59.3 L 504.6 59.3" id="33,8" /><path d="M 481.9 61.5 L 481.9 60.8 L 494.3 60.8" id="30,7" /><path d="M 481.9 61.5 L 481.9 62.2 L 499.2 62.2" id="30,6" /><path d="M 512.6 64.4 L 512.6 63.6 L 525.9 63.6" id="35,5" /><path d="M 512.6 64.4 L 512.6 65.1 L 530.3 65.1" id="35,4" /><path d="M 474.5 67.2 L 474.5 66.5 L 492.0 66.5" id="32,3" /><path d="M 474.5 67.2 L 474.5 68.0 L 487.1 68.0" id="32,2" /><path d="M 475.4 70.1 L 475.4 69.4 L 492.2 69.4" id="31,1" /><path d="M 475.4 70.1 L 475.4 70.8 L 495.9 70.8" id="31,0" /></g><g class="toytree-Nodes" style="fill:rgb(100%,0%,0%);fill-opacity:1.0;stroke:None;stroke-width:1"><g id="node-0" transform="translate(495.875,70.833)"><circle r="2.5" /></g><g id="node-1" transform="translate(492.165,69.397)"><circle r="2.5" /></g><g id="node-2" transform="translate(487.104,67.960)"><circle r="2.5" /></g><g id="node-3" transform="translate(491.953,66.523)"><circle r="2.5" /></g><g id="node-4" transform="translate(530.263,65.086)"><circle r="2.5" /></g><g id="node-5" transform="translate(525.852,63.649)"><circle r="2.5" /></g><g id="node-6" transform="translate(499.157,62.213)"><circle r="2.5" /></g><g id="node-7" transform="translate(494.335,60.776)"><circle r="2.5" /></g><g id="node-8" transform="translate(504.641,59.339)"><circle r="2.5" /></g><g id="node-9" transform="translate(493.639,57.902)"><circle r="2.5" /></g><g id="node-10" transform="translate(493.057,56.466)"><circle r="2.5" /></g><g id="node-11" transform="translate(489.229,55.029)"><circle r="2.5" /></g><g id="node-12" transform="translate(516.713,53.592)"><circle r="2.5" /></g><g id="node-13" transform="translate(508.540,52.155)"><circle r="2.5" /></g><g id="node-14" transform="translate(509.524,50.718)"><circle r="2.5" /></g><g id="node-15" transform="translate(510.329,49.282)"><circle r="2.5" /></g><g id="node-16" transform="translate(485.100,47.845)"><circle r="2.5" /></g><g id="node-17" transform="translate(485.373,46.408)"><circle r="2.5" /></g><g id="node-18" transform="translate(487.899,44.971)"><circle r="2.5" /></g><g id="node-19" transform="translate(508.366,43.534)"><circle r="2.5" /></g><g id="node-20" transform="translate(479.180,42.098)"><circle r="2.5" /></g><g id="node-21" transform="translate(490.067,40.661)"><circle r="2.5" /></g><g id="node-22" transform="translate(491.805,39.224)"><circle r="2.5" /></g><g id="node-23" transform="translate(502.426,37.787)"><circle r="2.5" /></g><g id="node-24" transform="translate(485.983,36.351)"><circle r="2.5" /></g><g id="node-25" transform="translate(493.168,34.914)"><circle r="2.5" /></g><g id="node-26" transform="translate(497.193,33.477)"><circle r="2.5" /></g><g id="node-27" transform="translate(500.571,32.040)"><circle r="2.5" /></g><g id="node-28" transform="translate(495.835,30.603)"><circle r="2.5" /></g><g id="node-29" transform="translate(509.891,29.167)"><circle r="2.5" /></g><g id="node-30" transform="translate(481.915,61.494)"><circle r="0.0" /></g><g id="node-31" transform="translate(475.376,70.115)"><circle r="0.0" /></g><g id="node-32" transform="translate(474.521,67.241)"><circle r="0.0" /></g><g id="node-33" transform="translate(466.042,60.417)"><circle r="0.0" /></g><g id="node-34" transform="translate(465.326,68.678)"><circle r="0.0" /></g><g id="node-35" transform="translate(512.591,64.368)"><circle r="0.0" /></g><g id="node-36" transform="translate(463.756,59.159)"><circle r="0.0" /></g><g id="node-37" transform="translate(462.407,66.523)"><circle r="0.0" /></g><g id="node-38" transform="translate(462.005,57.812)"><circle r="0.0" /></g><g id="node-39" transform="translate(460.821,62.168)"><circle r="0.0" /></g><g id="node-40" transform="translate(471.242,52.874)"><circle r="0.0" /></g><g id="node-41" transform="translate(464.210,50.000)"><circle r="0.0" /></g><g id="node-42" transform="translate(459.057,58.598)"><circle r="0.0" /></g><g id="node-43" transform="translate(458.749,51.437)"><circle r="0.0" /></g><g id="node-44" transform="translate(454.686,55.018)"><circle r="0.0" /></g><g id="node-45" transform="translate(454.752,47.126)"><circle r="0.0" /></g><g id="node-46" transform="translate(455.135,44.253)"><circle r="0.0" /></g><g id="node-47" transform="translate(452.878,51.072)"><circle r="0.0" /></g><g id="node-48" transform="translate(452.433,43.175)"><circle r="0.0" /></g><g id="node-49" transform="translate(462.122,39.943)"><circle r="0.0" /></g><g id="node-50" transform="translate(470.943,35.632)"><circle r="0.0" /></g><g id="node-51" transform="translate(486.880,31.322)"><circle r="0.0" /></g><g id="node-52" transform="translate(449.745,47.124)"><circle r="0.0" /></g><g id="node-53" transform="translate(450.018,38.865)"><circle r="0.0" /></g><g id="node-54" transform="translate(450.446,34.555)"><circle r="0.0" /></g><g id="node-55" transform="translate(449.474,30.244)"><circle r="0.0" /></g><g id="node-56" transform="translate(447.777,42.994)"><circle r="0.0" /></g><g id="node-57" transform="translate(446.873,32.399)"><circle r="0.0" /></g><g id="node-58" transform="translate(445.000,37.697)"><circle r="0.0" /></g></g></g></g></g></svg>