<svg class="toyplot-canvas-Canvas" xmlns:toyplot="http://www.sandia.gov/toyplot" xmlns:xlink="http://www.w3.org/1999/xlink" xmlns="http://www.w3.org/2000/svg" width="560.0px" height="100.0px" viewBox="0 0 560.0 100.0" preserveAspectRatio="xMidYMid meet" style="background-color:transparent;border-color:#292724;border-style:none;border-width:1.0;fill:rgb(16.1%,15.3%,14.1%);fill-opacity:1.0;font-family:Helvetica;font-size:12px;opacity:1.0;stroke:rgb(16.1%,15.3%,14.1%);stroke-opacity:1.0;stroke-width:1.0" id="t9fd3fa3d44a0497891c632b13e1e0407"><g class="toyplot-coordinates-Cartesian" id="t50909bbad4104ba082bfa584aa53cadd"><clipPath id="t4c982187d96d4ba0b8b587da6f9f08ca"><rect x="15.0" y="15.0" width="110.0" height="70.0" /></clipPath><g clip-path="url(#t4c982187d96d4ba0b8b587da6f9f08ca)"><g class="toytree-mark-Toytree" id="t865c36afeada4c85a0f17e2499594b80"><g class="toytree-Edges" style="fill:none;stroke:rgb(14.9%,14.9%,14.9%);stroke-linecap:round;stroke-opacity:1;stroke-width:0.5"><path d="M 25.0 43.5 L 25.0 32.6 L 106.0 32.6" id="12,11" /><path d="M 25.0 43.5 L 25.0 54.3 L 42.9 54.3" id="12,10" /><path d="M 42.9 54.3 L 42.9 46.5 L 105.1 46.5" id="10,9" /><path d="M 42.9 54.3 L 42.9 62.2 L 53.9 62.2" id="10,8" /><path d="M 53.9 62.2 L 53.9 67.4 L 77.1 67.4" id="8,7" /><path d="M 106.0 32.6 L 106.0 29.2 L 106.0 29.2" id="11,6" /><path d="M 106.0 32.6 L 106.0 36.1 L 106.0 36.1" id="11,5" /><path d="M 105.1 46.5 L 105.1 43.1 L 106.8 43.1" id="9,4" /><path d="M 105.1 46.5 L 105.1 50.0 L 107.3 50.0" id="9,3" /><path d="M 53.9 62.2 L 53.9 56.9 L 110.3 56.9" id="8,2" /><path d="M 77.1 67.4 L 77.1 63.9 L 97.3 63.9" id="7,1" /><path d="M 77.1 67.4 L 77.1 70.8 L 110.0 70.8" id="7,0" /></g><g class="toytree-Nodes" style="fill:rgb(100%,0%,0%);fill-opacity:1.0;stroke:None;stroke-width:1"><g id="node-0" transform="translate(109.974,70.833)"><circle r="2.5" /></g><g id="node-1" transform="translate(97.273,63.889)"><circle r="2.5" /></g><g id="node-2" transform="translate(110.263,56.944)"><circle r="2.5" /></g><g id="node-3" transform="translate(107.310,50.000)"><circle r="2.5" /></g><g id="node-4" transform="translate(106.827,43.056)"><circle r="2.5" /></g><g id="node-5" transform="translate(106.038,36.111)"><circle r="2.5" /></g><g id="node-6" transform="translate(106.038,29.167)"><circle r="2.5" /></g><g id="node-7" transform="translate(77.082,67.361)"><circle r="0.0" /></g><g id="node-8" transform="translate(53.861,62.153)"><circle r="0.0" /></g><g id="node-9" transform="translate(105.138,46.528)"><circle r="0.0" /></g><g id="node-10" transform="translate(42.946,54.340)"><circle r="0.0" /></g><g id="node-11" transform="translate(106.038,32.639)"><circle r="0.0" /></g><g id="node-12" transform="translate(25.000,43.490)"><circle r="0.0" /></g></g></g></g></g><g class="toyplot-coordinates-Cartesian" id="t764f6c055814490592fc638b0be0abaa"><clipPath id="tcce19bd821b846f19def481c7116c410"><rect x="155.0" y="15.0" width="110.0" height="70.0" /></clipPath><g clip-path="url(#tcce19bd821b846f19def481c7116c410)"><g class="toytree-mark-Toytree" id="t4adacfb1b30a4faaa057fd84bab300e7"><g class="toytree-Edges" style="fill:none;stroke:rgb(14.9%,14.9%,14.9%);stroke-linecap:round;stroke-opacity:1;stroke-width:0.5"><path d="M 165.0 45.2 L 165.0 34.4 L 214.6 34.4" id="12,11" /><path d="M 165.0 45.2 L 165.0 56.1 L 182.6 56.1" id="12,10" /><path d="M 214.6 34.4 L 214.6 39.6 L 239.8 39.6" id="11,9" /><path d="M 182.6 56.1 L 182.6 62.2 L 194.7 62.2" id="10,8" /><path d="M 194.7 62.2 L 194.7 67.4 L 202.6 67.4" id="8,7" /><path d="M 214.6 34.4 L 214.6 29.2 L 240.2 29.2" id="11,6" /><path d="M 239.8 39.6 L 239.8 36.1 L 246.8 36.1" id="9,5" /><path d="M 239.8 39.6 L 239.8 43.1 L 239.8 43.1" id="9,4" /><path d="M 182.6 56.1 L 182.6 50.0 L 230.7 50.0" id="10,3" /><path d="M 194.7 62.2 L 194.7 56.9 L 249.7 56.9" id="8,2" /><path d="M 202.6 67.4 L 202.6 63.9 L 241.2 63.9" id="7,1" /><path d="M 202.6 67.4 L 202.6 70.8 L 250.3 70.8" id="7,0" /></g><g class="toytree-Nodes" style="fill:rgb(100%,0%,0%);fill-opacity:1.0;stroke:None;stroke-width:1"><g id="node-0" transform="translate(250.263,70.833)"><circle r="2.5" /></g><g id="node-1" transform="translate(241.238,63.889)"><circle r="2.5" /></g><g id="node-2" transform="translate(249.690,56.944)"><circle r="2.5" /></g><g id="node-3" transform="translate(230.718,50.000)"><circle r="2.5" /></g><g id="node-4" transform="translate(239.792,43.056)"><circle r="2.5" /></g><g id="node-5" transform="translate(246.772,36.111)"><circle r="2.5" /></g><g id="node-6" transform="translate(240.215,29.167)"><circle r="2.5" /></g><g id="node-7" transform="translate(202.621,67.361)"><circle r="0.0" /></g><g id="node-8" transform="translate(194.743,62.153)"><circle r="0.0" /></g><g id="node-9" transform="translate(239.792,39.583)"><circle r="0.0" /></g><g id="node-10" transform="translate(182.602,56.076)"><circle r="0.0" /></g><g id="node-11" transform="translate(214.637,34.375)"><circle r="0.0" /></g><g id="node-12" transform="translate(165.000,45.226)"><circle r="0.0" /></g></g></g></g></g><g class="toyplot-coordinates-Cartesian" id="t885db1ef9dbb413a85b92f02c12c6fc5"><clipPath id="t57f9827f006c471d9fc86393569a8299"><rect x="295.0" y="15.0" width="110.0" height="70.0" /></clipPath><g clip-path="url(#t57f9827f006c471d9fc86393569a8299)"><g class="toytree-mark-Toytree" id="taf16213df53c4ba6ac58985cbc528e5a"><g class="toytree-Edges" style="fill:none;stroke:rgb(14.9%,14.9%,14.9%);stroke-linecap:round;stroke-opacity:1;stroke-width:0.5"><path d="M 305.0 47.4 L 305.0 34.4 L 353.1 34.4" id="12,11" /><path d="M 305.0 47.4 L 305.0 60.4 L 338.3 60.4" id="12,10" /><path d="M 353.1 34.4 L 353.1 39.6 L 371.9 39.6" id="11,9" /><path d="M 338.3 60.4 L 338.3 53.5 L 350.6 53.5" id="10,8" /><path d="M 338.3 60.4 L 338.3 67.4 L 350.9 67.4" id="10,7" /><path d="M 353.1 34.4 L 353.1 29.2 L 367.0 29.2" id="11,6" /><path d="M 371.9 39.6 L 371.9 36.1 L 390.3 36.1" id="9,5" /><path d="M 371.9 39.6 L 371.9 43.1 L 375.7 43.1" id="9,4" /><path d="M 350.6 53.5 L 350.6 50.0 L 372.2 50.0" id="8,3" /><path d="M 350.6 53.5 L 350.6 56.9 L 374.4 56.9" id="8,2" /><path d="M 350.9 67.4 L 350.9 63.9 L 382.3 63.9" id="7,1" /><path d="M 350.9 67.4 L 350.9 70.8 L 377.6 70.8" id="7,0" /></g><g class="toytree-Nodes" style="fill:rgb(100%,0%,0%);fill-opacity:1.0;stroke:None;stroke-width:1"><g id="node-0" transform="translate(377.601,70.833)"><circle r="2.5" /></g><g id="node-1" transform="translate(382.344,63.889)"><circle r="2.5" /></g><g id="node-2" transform="translate(374.362,56.944)"><circle r="2.5" /></g><g id="node-3" transform="translate(372.167,50.000)"><circle r="2.5" /></g><g id="node-4" transform="translate(375.679,43.056)"><circle r="2.5" /></g><g id="node-5" transform="translate(390.263,36.111)"><circle r="2.5" /></g><g id="node-6" transform="translate(367.023,29.167)"><circle r="2.5" /></g><g id="node-7" transform="translate(350.856,67.361)"><circle r="0.0" /></g><g id="node-8" transform="translate(350.609,53.472)"><circle r="0.0" /></g><g id="node-9" transform="translate(371.909,39.583)"><circle r="0.0" /></g><g id="node-10" transform="translate(338.272,60.417)"><circle r="0.0" /></g><g id="node-11" transform="translate(353.094,34.375)"><circle r="0.0" /></g><g id="node-12" transform="translate(305.000,47.396)"><circle r="0.0" /></g></g></g></g></g><g class="toyplot-coordinates-Cartesian" id="t195201b84f2d4961b3bffa88b5bb56b3"><clipPath id="t64bbf2aec8694d68ab2f1c7ef706cc06"><rect x="435.0" y="15.0" width="110.0" height="70.0" /></clipPath><g clip-path="url(#t64bbf2aec8694d68ab2f1c7ef706cc06)"><g class="toytree-mark-Toytree" id="te51f95945be14eedb94818e8b9030769"><g class="toytree-Edges" style="fill:none;stroke:rgb(14.9%,14.9%,14.9%);stroke-linecap:round;stroke-opacity:1;stroke-width:0.5"><path d="M 445.0 43.5 L 445.0 32.6 L 517.9 32.6" id="12,11" /><path d="M 445.0 43.5 L 445.0 54.3 L 462.4 54.3" id="12,10" /><path d="M 462.4 54.3 L 462.4 46.5 L 513.1 46.5" id="10,9" /><path d="M 462.4 54.3 L 462.4 62.2 L 478.4 62.2" id="10,8" /><path d="M 478.4 62.2 L 478.4 67.4 L 503.7 67.4" id="8,7" /><path d="M 517.9 32.6 L 517.9 29.2 L 520.3 29.2" id="11,6" /><path d="M 517.9 32.6 L 517.9 36.1 L 517.9 36.1" id="11,5" /><path d="M 513.1 46.5 L 513.1 43.1 L 515.3 43.1" id="9,4" /><path d="M 513.1 46.5 L 513.1 50.0 L 513.1 50.0" id="9,3" /><path d="M 478.4 62.2 L 478.4 56.9 L 526.6 56.9" id="8,2" /><path d="M 503.7 67.4 L 503.7 63.9 L 513.4 63.9" id="7,1" /><path d="M 503.7 67.4 L 503.7 70.8 L 530.3 70.8" id="7,0" /></g><g class="toytree-Nodes" style="fill:rgb(100%,0%,0%);fill-opacity:1.0;stroke:None;stroke-width:1"><g id="node-0" transform="translate(530.263,70.833)"><circle r="2.5" /></g><g id="node-1" transform="translate(513.416,63.889)"><circle r="2.5" /></g><g id="node-2" transform="translate(526.638,56.944)"><circle r="2.5" /></g><g id="node-3" transform="translate(513.135,50.000)"><circle r="2.5" /></g><g id="node-4" transform="translate(515.336,43.056)"><circle r="2.5" /></g><g id="node-5" transform="translate(517.856,36.111)"><circle r="2.5" /></g><g id="node-6" transform="translate(520.343,29.167)"><circle r="2.5" /></g><g id="node-7" transform="translate(503.710,67.361)"><circle r="0.0" /></g><g id="node-8" transform="translate(478.383,62.153)"><circle r="0.0" /></g><g id="node-9" transform="translate(513.135,46.528)"><circle r="0.0" /></g><g id="node-10" transform="translate(462.371,54.340)"><circle r="0.0" /></g><g id="node-11" transform="translate(517.856,32.639)"><circle r="0.0" /></g><g id="node-12" transform="translate(445.000,43.490)"><circle r="0.0" /></g></g></g></g></g></svg>