<svg class="toyplot-canvas-Canvas" xmlns:toyplot="http://www.sandia.gov/toyplot" xmlns:xlink="http://www.w3.org/1999/xlink" xmlns="http://www.w3.org/2000/svg" width="560.0px" height="100.0px" viewBox="0 0 560.0 100.0" preserveAspectRatio="xMidYMid meet" style="background-color:transparent;border-color:#292724;border-style:none;border-width:1.0;fill:rgb(16.1%,15.3%,14.1%);fill-opacity:1.0;font-family:Helvetica;font-size:12px;opacity:1.0;stroke:rgb(16.1%,15.3%,14.1%);stroke-opacity:1.0;stroke-width:1.0" id="t8fa83feb537f41c6a611cfc40175f6d0"><g class="toyplot-coordinates-Cartesian" id="t4fd61137520547699f3868d8138a8994"><clipPath id="t7f42e57d11824c4e81001710bf4fb3ba"><rect x="15.0" y="15.0" width="110.0" height="70.0" /></clipPath><g clip-path="url(#t7f42e57d11824c4e81001710bf4fb3ba)"><g class="toytree-mark-Toytree" id="tfe78470717ad4ed1aaf3e737d1bf9741"><g class="toytree-Edges" style="fill:none;stroke:rgb(14.9%,14.9%,14.9%);stroke-linecap:round;stroke-opacity:1;stroke-width:0.5"><path d="M 25.0 33.3 L 25.0 37.5 L 25.5 37.5" id="32,31" /><path d="M 25.5 37.5 L 25.5 43.2 L 27.1 43.2" id="31,30" /><path d="M 27.1 43.2 L 27.1 35.7 L 51.3 35.7" id="30,29" /><path d="M 27.1 43.2 L 27.1 50.8 L 27.4 50.8" id="30,28" /><path d="M 27.4 50.8 L 27.4 42.0 L 28.2 42.0" id="28,27" /><path d="M 27.4 50.8 L 27.4 59.6 L 29.4 59.6" id="28,26" /><path d="M 28.2 42.0 L 28.2 44.5 L 29.4 44.5" id="27,25" /><path d="M 29.4 59.6 L 29.4 54.6 L 30.5 54.6" id="26,24" /><path d="M 29.4 59.6 L 29.4 64.6 L 32.7 64.6" id="26,23" /><path d="M 29.4 44.5 L 29.4 46.7 L 30.0 46.7" id="25,22" /><path d="M 30.5 54.6 L 30.5 56.5 L 31.9 56.5" id="24,21" /><path d="M 32.7 64.6 L 32.7 61.7 L 41.9 61.7" id="23,20" /><path d="M 32.7 64.6 L 32.7 67.6 L 40.7 67.6" id="23,19" /><path d="M 30.0 46.7 L 30.0 48.7 L 31.7 48.7" id="22,18" /><path d="M 40.7 67.6 L 40.7 69.5 L 70.5 69.5" id="19,17" /><path d="M 25.0 33.3 L 25.0 29.2 L 104.7 29.2" id="32,16" /><path d="M 25.5 37.5 L 25.5 31.8 L 105.6 31.8" id="31,15" /><path d="M 51.3 35.7 L 51.3 34.4 L 106.8 34.4" id="29,14" /><path d="M 51.3 35.7 L 51.3 37.0 L 101.8 37.0" id="29,13" /><path d="M 28.2 42.0 L 28.2 39.6 L 107.8 39.6" id="27,12" /><path d="M 29.4 44.5 L 29.4 42.2 L 103.7 42.2" id="25,11" /><path d="M 30.0 46.7 L 30.0 44.8 L 101.7 44.8" id="22,10" /><path d="M 31.7 48.7 L 31.7 47.4 L 103.2 47.4" id="18,9" /><path d="M 31.7 48.7 L 31.7 50.0 L 110.3 50.0" id="18,8" /><path d="M 30.5 54.6 L 30.5 52.6 L 103.5 52.6" id="24,7" /><path d="M 31.9 56.5 L 31.9 55.2 L 102.8 55.2" id="21,6" /><path d="M 31.9 56.5 L 31.9 57.8 L 104.7 57.8" id="21,5" /><path d="M 41.9 61.7 L 41.9 60.4 L 104.2 60.4" id="20,4" /><path d="M 41.9 61.7 L 41.9 63.0 L 107.1 63.0" id="20,3" /><path d="M 40.7 67.6 L 40.7 65.6 L 102.9 65.6" id="19,2" /><path d="M 70.5 69.5 L 70.5 68.2 L 105.1 68.2" id="17,1" /><path d="M 70.5 69.5 L 70.5 70.8 L 104.2 70.8" id="17,0" /></g><g class="toytree-Nodes" style="fill:rgb(100%,0%,0%);fill-opacity:1.0;stroke:None;stroke-width:1"><g id="node-0" transform="translate(104.235,70.833)"><circle r="2.5" /></g><g id="node-1" transform="translate(105.138,68.229)"><circle r="2.5" /></g><g id="node-2" transform="translate(102.949,65.625)"><circle r="2.5" /></g><g id="node-3" transform="translate(107.121,63.021)"><circle r="2.5" /></g><g id="node-4" transform="translate(104.162,60.417)"><circle r="2.5" /></g><g id="node-5" transform="translate(104.669,57.812)"><circle r="2.5" /></g><g id="node-6" transform="translate(102.840,55.208)"><circle r="2.5" /></g><g id="node-7" transform="translate(103.482,52.604)"><circle r="2.5" /></g><g id="node-8" transform="translate(110.263,50.000)"><circle r="2.5" /></g><g id="node-9" transform="translate(103.161,47.396)"><circle r="2.5" /></g><g id="node-10" transform="translate(101.739,44.792)"><circle r="2.5" /></g><g id="node-11" transform="translate(103.676,42.188)"><circle r="2.5" /></g><g id="node-12" transform="translate(107.846,39.583)"><circle r="2.5" /></g><g id="node-13" transform="translate(101.792,36.979)"><circle r="2.5" /></g><g id="node-14" transform="translate(106.781,34.375)"><circle r="2.5" /></g><g id="node-15" transform="translate(105.615,31.771)"><circle r="2.5" /></g><g id="node-16" transform="translate(104.654,29.167)"><circle r="2.5" /></g><g id="node-17" transform="translate(70.528,69.531)"><circle r="0.0" /></g><g id="node-18" transform="translate(31.718,48.698)"><circle r="0.0" /></g><g id="node-19" transform="translate(40.738,67.578)"><circle r="0.0" /></g><g id="node-20" transform="translate(41.938,61.719)"><circle r="0.0" /></g><g id="node-21" transform="translate(31.883,56.510)"><circle r="0.0" /></g><g id="node-22" transform="translate(30.048,46.745)"><circle r="0.0" /></g><g id="node-23" transform="translate(32.708,64.648)"><circle r="0.0" /></g><g id="node-24" transform="translate(30.498,54.557)"><circle r="0.0" /></g><g id="node-25" transform="translate(29.449,44.466)"><circle r="0.0" /></g><g id="node-26" transform="translate(29.354,59.603)"><circle r="0.0" /></g><g id="node-27" transform="translate(28.178,42.025)"><circle r="0.0" /></g><g id="node-28" transform="translate(27.408,50.814)"><circle r="0.0" /></g><g id="node-29" transform="translate(51.296,35.677)"><circle r="0.0" /></g><g id="node-30" transform="translate(27.146,43.245)"><circle r="0.0" /></g><g id="node-31" transform="translate(25.498,37.508)"><circle r="0.0" /></g><g id="node-32" transform="translate(25.000,33.337)"><circle r="0.0" /></g></g></g></g></g><g class="toyplot-coordinates-Cartesian" id="t997cbdfed3bf400b8cc78e793ebbc79e"><clipPath id="t8d251a57e8224d26a9bd151c01e3ef8e"><rect x="155.0" y="15.0" width="110.0" height="70.0" /></clipPath><g clip-path="url(#t8d251a57e8224d26a9bd151c01e3ef8e)"><g class="toytree-mark-Toytree" id="t7bbe432934b54b298c21f98b3134d39b"><g class="toytree-Edges" style="fill:none;stroke:rgb(14.9%,14.9%,14.9%);stroke-linecap:round;stroke-opacity:1;stroke-width:0.5"><path d="M 165.0 32.4 L 165.0 35.7 L 184.8 35.7" id="32,31" /><path d="M 184.8 35.7 L 184.8 39.7 L 197.3 39.7" id="31,30" /><path d="M 197.3 39.7 L 197.3 45.0 L 201.4 45.0" id="30,29" /><path d="M 201.4 45.0 L 201.4 53.0 L 204.6 53.0" id="29,28" /><path d="M 204.6 53.0 L 204.6 44.0 L 210.0 44.0" id="28,27" /><path d="M 204.6 53.0 L 204.6 62.0 L 205.9 62.0" id="28,26" /><path d="M 210.0 44.0 L 210.0 40.9 L 212.9 40.9" id="27,25" /><path d="M 210.0 44.0 L 210.0 47.1 L 212.2 47.1" id="27,24" /><path d="M 205.9 62.0 L 205.9 57.2 L 207.3 57.2" id="26,23" /><path d="M 205.9 62.0 L 205.9 66.9 L 210.2 66.9" id="26,22" /><path d="M 212.2 47.1 L 212.2 49.3 L 218.8 49.3" id="24,21" /><path d="M 207.3 57.2 L 207.3 59.1 L 211.1 59.1" id="23,20" /><path d="M 210.2 66.9 L 210.2 64.3 L 218.4 64.3" id="22,19" /><path d="M 210.2 66.9 L 210.2 69.5 L 212.8 69.5" id="22,18" /><path d="M 218.8 49.3 L 218.8 51.3 L 234.6 51.3" id="21,17" /><path d="M 165.0 32.4 L 165.0 29.2 L 231.9 29.2" id="32,16" /><path d="M 184.8 35.7 L 184.8 31.8 L 204.9 31.8" id="31,15" /><path d="M 197.3 39.7 L 197.3 34.4 L 234.6 34.4" id="30,14" /><path d="M 201.4 45.0 L 201.4 37.0 L 228.9 37.0" id="29,13" /><path d="M 212.9 40.9 L 212.9 39.6 L 229.1 39.6" id="25,12" /><path d="M 212.9 40.9 L 212.9 42.2 L 237.1 42.2" id="25,11" /><path d="M 212.2 47.1 L 212.2 44.8 L 250.3 44.8" id="24,10" /><path d="M 218.8 49.3 L 218.8 47.4 L 227.8 47.4" id="21,9" /><path d="M 234.6 51.3 L 234.6 50.0 L 238.5 50.0" id="17,8" /><path d="M 234.6 51.3 L 234.6 52.6 L 235.3 52.6" id="17,7" /><path d="M 207.3 57.2 L 207.3 55.2 L 228.3 55.2" id="23,6" /><path d="M 211.1 59.1 L 211.1 57.8 L 235.4 57.8" id="20,5" /><path d="M 211.1 59.1 L 211.1 60.4 L 244.2 60.4" id="20,4" /><path d="M 218.4 64.3 L 218.4 63.0 L 240.9 63.0" id="19,3" /><path d="M 218.4 64.3 L 218.4 65.6 L 231.3 65.6" id="19,2" /><path d="M 212.8 69.5 L 212.8 68.2 L 239.6 68.2" id="18,1" /><path d="M 212.8 69.5 L 212.8 70.8 L 229.8 70.8" id="18,0" /></g><g class="toytree-Nodes" style="fill:rgb(100%,0%,0%);fill-opacity:1.0;stroke:None;stroke-width:1"><g id="node-0" transform="translate(229.755,70.833)"><circle r="2.5" /></g><g id="node-1" transform="translate(239.629,68.229)"><circle r="2.5" /></g><g id="node-2" transform="translate(231.309,65.625)"><circle r="2.5" /></g><g id="node-3" transform="translate(240.870,63.021)"><circle r="2.5" /></g><g id="node-4" transform="translate(244.201,60.417)"><circle r="2.5" /></g><g id="node-5" transform="translate(235.441,57.812)"><circle r="2.5" /></g><g id="node-6" transform="translate(228.274,55.208)"><circle r="2.5" /></g><g id="node-7" transform="translate(235.344,52.604)"><circle r="2.5" /></g><g id="node-8" transform="translate(238.452,50.000)"><circle r="2.5" /></g><g id="node-9" transform="translate(227.804,47.396)"><circle r="2.5" /></g><g id="node-10" transform="translate(250.263,44.792)"><circle r="2.5" /></g><g id="node-11" transform="translate(237.149,42.188)"><circle r="2.5" /></g><g id="node-12" transform="translate(229.086,39.583)"><circle r="2.5" /></g><g id="node-13" transform="translate(228.888,36.979)"><circle r="2.5" /></g><g id="node-14" transform="translate(234.591,34.375)"><circle r="2.5" /></g><g id="node-15" transform="translate(204.899,31.771)"><circle r="2.5" /></g><g id="node-16" transform="translate(231.893,29.167)"><circle r="2.5" /></g><g id="node-17" transform="translate(234.616,51.302)"><circle r="0.0" /></g><g id="node-18" transform="translate(212.846,69.531)"><circle r="0.0" /></g><g id="node-19" transform="translate(218.425,64.323)"><circle r="0.0" /></g><g id="node-20" transform="translate(211.146,59.115)"><circle r="0.0" /></g><g id="node-21" transform="translate(218.832,49.349)"><circle r="0.0" /></g><g id="node-22" transform="translate(210.157,66.927)"><circle r="0.0" /></g><g id="node-23" transform="translate(207.254,57.161)"><circle r="0.0" /></g><g id="node-24" transform="translate(212.188,47.070)"><circle r="0.0" /></g><g id="node-25" transform="translate(212.944,40.885)"><circle r="0.0" /></g><g id="node-26" transform="translate(205.874,62.044)"><circle r="0.0" /></g><g id="node-27" transform="translate(209.979,43.978)"><circle r="0.0" /></g><g id="node-28" transform="translate(204.582,53.011)"><circle r="0.0" /></g><g id="node-29" transform="translate(201.394,44.995)"><circle r="0.0" /></g><g id="node-30" transform="translate(197.328,39.685)"><circle r="0.0" /></g><g id="node-31" transform="translate(184.802,35.728)"><circle r="0.0" /></g><g id="node-32" transform="translate(165.000,32.447)"><circle r="0.0" /></g></g></g></g></g><g class="toyplot-coordinates-Cartesian" id="tc3e773faf3d544af8a94d29d1fadc299"><clipPath id="t6e731db5b3594dedb5d9745b14e5cb8f"><rect x="295.0" y="15.0" width="110.0" height="70.0" /></clipPath><g clip-path="url(#t6e731db5b3594dedb5d9745b14e5cb8f)"><g class="toytree-mark-Toytree" id="t86fae1d6ffbc40ca8fa3aa87d234c023"><g class="toytree-Edges" style="fill:none;stroke:rgb(14.9%,14.9%,14.9%);stroke-linecap:round;stroke-opacity:1;stroke-width:0.5"><path d="M 305.0 39.4 L 305.0 31.4 L 306.0 31.4" id="32,31" /><path d="M 305.0 39.4 L 305.0 47.4 L 307.4 47.4" id="32,30" /><path d="M 306.0 31.4 L 306.0 33.7 L 309.1 33.7" id="31,29" /><path d="M 307.4 47.4 L 307.4 40.9 L 311.3 40.9" id="30,28" /><path d="M 307.4 47.4 L 307.4 53.8 L 311.4 53.8" id="30,27" /><path d="M 309.1 33.7 L 309.1 35.7 L 335.7 35.7" id="29,26" /><path d="M 311.4 53.8 L 311.4 47.1 L 313.0 47.1" id="27,25" /><path d="M 311.4 53.8 L 311.4 60.6 L 313.9 60.6" id="27,24" /><path d="M 313.0 47.1 L 313.0 49.3 L 316.6 49.3" id="25,23" /><path d="M 313.9 60.6 L 313.9 56.5 L 318.5 56.5" id="24,22" /><path d="M 313.9 60.6 L 313.9 64.6 L 316.4 64.6" id="24,21" /><path d="M 316.6 49.3 L 316.6 51.3 L 323.1 51.3" id="23,20" /><path d="M 316.4 64.6 L 316.4 61.7 L 329.2 61.7" id="21,19" /><path d="M 316.4 64.6 L 316.4 67.6 L 332.4 67.6" id="21,18" /><path d="M 332.4 67.6 L 332.4 69.5 L 367.6 69.5" id="18,17" /><path d="M 306.0 31.4 L 306.0 29.2 L 377.6 29.2" id="31,16" /><path d="M 309.1 33.7 L 309.1 31.8 L 373.0 31.8" id="29,15" /><path d="M 335.7 35.7 L 335.7 34.4 L 372.1 34.4" id="26,14" /><path d="M 335.7 35.7 L 335.7 37.0 L 376.0 37.0" id="26,13" /><path d="M 311.3 40.9 L 311.3 39.6 L 363.8 39.6" id="28,12" /><path d="M 311.3 40.9 L 311.3 42.2 L 368.6 42.2" id="28,11" /><path d="M 313.0 47.1 L 313.0 44.8 L 381.4 44.8" id="25,10" /><path d="M 316.6 49.3 L 316.6 47.4 L 390.3 47.4" id="23,9" /><path d="M 323.1 51.3 L 323.1 50.0 L 375.3 50.0" id="20,8" /><path d="M 323.1 51.3 L 323.1 52.6 L 371.5 52.6" id="20,7" /><path d="M 318.5 56.5 L 318.5 55.2 L 384.2 55.2" id="22,6" /><path d="M 318.5 56.5 L 318.5 57.8 L 385.1 57.8" id="22,5" /><path d="M 329.2 61.7 L 329.2 60.4 L 365.3 60.4" id="19,4" /><path d="M 329.2 61.7 L 329.2 63.0 L 380.4 63.0" id="19,3" /><path d="M 332.4 67.6 L 332.4 65.6 L 363.1 65.6" id="18,2" /><path d="M 367.6 69.5 L 367.6 68.2 L 376.5 68.2" id="17,1" /><path d="M 367.6 69.5 L 367.6 70.8 L 377.3 70.8" id="17,0" /></g><g class="toytree-Nodes" style="fill:rgb(100%,0%,0%);fill-opacity:1.0;stroke:None;stroke-width:1"><g id="node-0" transform="translate(377.286,70.833)"><circle r="2.5" /></g><g id="node-1" transform="translate(376.527,68.229)"><circle r="2.5" /></g><g id="node-2" transform="translate(363.119,65.625)"><circle r="2.5" /></g><g id="node-3" transform="translate(380.395,63.021)"><circle r="2.5" /></g><g id="node-4" transform="translate(365.294,60.417)"><circle r="2.5" /></g><g id="node-5" transform="translate(385.050,57.812)"><circle r="2.5" /></g><g id="node-6" transform="translate(384.243,55.208)"><circle r="2.5" /></g><g id="node-7" transform="translate(371.515,52.604)"><circle r="2.5" /></g><g id="node-8" transform="translate(375.312,50.000)"><circle r="2.5" /></g><g id="node-9" transform="translate(390.263,47.396)"><circle r="2.5" /></g><g id="node-10" transform="translate(381.380,44.792)"><circle r="2.5" /></g><g id="node-11" transform="translate(368.608,42.188)"><circle r="2.5" /></g><g id="node-12" transform="translate(363.807,39.583)"><circle r="2.5" /></g><g id="node-13" transform="translate(375.960,36.979)"><circle r="2.5" /></g><g id="node-14" transform="translate(372.100,34.375)"><circle r="2.5" /></g><g id="node-15" transform="translate(373.005,31.771)"><circle r="2.5" /></g><g id="node-16" transform="translate(377.625,29.167)"><circle r="2.5" /></g><g id="node-17" transform="translate(367.631,69.531)"><circle r="0.0" /></g><g id="node-18" transform="translate(332.438,67.578)"><circle r="0.0" /></g><g id="node-19" transform="translate(329.238,61.719)"><circle r="0.0" /></g><g id="node-20" transform="translate(323.064,51.302)"><circle r="0.0" /></g><g id="node-21" transform="translate(316.407,64.648)"><circle r="0.0" /></g><g id="node-22" transform="translate(318.535,56.510)"><circle r="0.0" /></g><g id="node-23" transform="translate(316.578,49.349)"><circle r="0.0" /></g><g id="node-24" transform="translate(313.943,60.579)"><circle r="0.0" /></g><g id="node-25" transform="translate(313.022,47.070)"><circle r="0.0" /></g><g id="node-26" transform="translate(335.664,35.677)"><circle r="0.0" /></g><g id="node-27" transform="translate(311.436,53.825)"><circle r="0.0" /></g><g id="node-28" transform="translate(311.349,40.885)"><circle r="0.0" /></g><g id="node-29" transform="translate(309.117,33.724)"><circle r="0.0" /></g><g id="node-30" transform="translate(307.401,47.355)"><circle r="0.0" /></g><g id="node-31" transform="translate(305.964,31.445)"><circle r="0.0" /></g><g id="node-32" transform="translate(305.000,39.400)"><circle r="0.0" /></g></g></g></g></g><g class="toyplot-coordinates-Cartesian" id="t5aac598de0d44a7280e74e6ae7910183"><clipPath id="t895f55c8966e4609899a19e265d2df30"><rect x="435.0" y="15.0" width="110.0" height="70.0" /></clipPath><g clip-path="url(#t895f55c8966e4609899a19e265d2df30)"><g class="toytree-mark-Toytree" id="t4083cc9205604e8fb1c17581c69ae416"><g class="toytree-Edges" style="fill:none;stroke:rgb(14.9%,14.9%,14.9%);stroke-linecap:round;stroke-opacity:1;stroke-width:0.5"><path d="M 445.0 42.3 L 445.0 32.2 L 447.7 32.2" id="32,31" /><path d="M 445.0 42.3 L 445.0 52.5 L 446.9 52.5" id="32,30" /><path d="M 447.7 32.2 L 447.7 35.2 L 455.6 35.2" id="31,29" /><path d="M 446.9 52.5 L 446.9 57.6 L 448.5 57.6" id="30,28" /><path d="M 455.6 35.2 L 455.6 38.6 L 466.9 38.6" id="29,27" /><path d="M 448.5 57.6 L 448.5 52.3 L 451.7 52.3" id="28,26" /><path d="M 448.5 57.6 L 448.5 62.9 L 455.6 62.9" id="28,25" /><path d="M 466.9 38.6 L 466.9 35.7 L 479.0 35.7" id="27,24" /><path d="M 466.9 38.6 L 466.9 41.5 L 480.0 41.5" id="27,23" /><path d="M 451.7 52.3 L 451.7 54.6 L 457.8 54.6" id="26,22" /><path d="M 455.6 62.9 L 455.6 65.3 L 461.2 65.3" id="25,21" /><path d="M 480.0 41.5 L 480.0 43.5 L 503.5 43.5" id="23,20" /><path d="M 457.8 54.6 L 457.8 56.5 L 483.3 56.5" id="22,19" /><path d="M 461.2 65.3 L 461.2 67.6 L 468.7 67.6" id="21,18" /><path d="M 468.7 67.6 L 468.7 69.5 L 487.7 69.5" id="18,17" /><path d="M 447.7 32.2 L 447.7 29.2 L 511.4 29.2" id="31,16" /><path d="M 455.6 35.2 L 455.6 31.8 L 500.6 31.8" id="29,15" /><path d="M 479.0 35.7 L 479.0 34.4 L 502.7 34.4" id="24,14" /><path d="M 479.0 35.7 L 479.0 37.0 L 509.3 37.0" id="24,13" /><path d="M 480.0 41.5 L 480.0 39.6 L 502.6 39.6" id="23,12" /><path d="M 503.5 43.5 L 503.5 42.2 L 513.1 42.2" id="20,11" /><path d="M 503.5 43.5 L 503.5 44.8 L 513.5 44.8" id="20,10" /><path d="M 446.9 52.5 L 446.9 47.4 L 501.7 47.4" id="30,9" /><path d="M 451.7 52.3 L 451.7 50.0 L 499.3 50.0" id="26,8" /><path d="M 457.8 54.6 L 457.8 52.6 L 520.3 52.6" id="22,7" /><path d="M 483.3 56.5 L 483.3 55.2 L 504.8 55.2" id="19,6" /><path d="M 483.3 56.5 L 483.3 57.8 L 496.9 57.8" id="19,5" /><path d="M 455.6 62.9 L 455.6 60.4 L 513.9 60.4" id="25,4" /><path d="M 461.2 65.3 L 461.2 63.0 L 504.0 63.0" id="21,3" /><path d="M 468.7 67.6 L 468.7 65.6 L 496.7 65.6" id="18,2" /><path d="M 487.7 69.5 L 487.7 68.2 L 530.3 68.2" id="17,1" /><path d="M 487.7 69.5 L 487.7 70.8 L 523.2 70.8" id="17,0" /></g><g class="toytree-Nodes" style="fill:rgb(100%,0%,0%);fill-opacity:1.0;stroke:None;stroke-width:1"><g id="node-0" transform="translate(523.161,70.833)"><circle r="2.5" /></g><g id="node-1" transform="translate(530.263,68.229)"><circle r="2.5" /></g><g id="node-2" transform="translate(496.686,65.625)"><circle r="2.5" /></g><g id="node-3" transform="translate(503.964,63.021)"><circle r="2.5" /></g><g id="node-4" transform="translate(513.939,60.417)"><circle r="2.5" /></g><g id="node-5" transform="translate(496.861,57.812)"><circle r="2.5" /></g><g id="node-6" transform="translate(504.771,55.208)"><circle r="2.5" /></g><g id="node-7" transform="translate(520.300,52.604)"><circle r="2.5" /></g><g id="node-8" transform="translate(499.258,50.000)"><circle r="2.5" /></g><g id="node-9" transform="translate(501.711,47.396)"><circle r="2.5" /></g><g id="node-10" transform="translate(513.481,44.792)"><circle r="2.5" /></g><g id="node-11" transform="translate(513.095,42.188)"><circle r="2.5" /></g><g id="node-12" transform="translate(502.550,39.583)"><circle r="2.5" /></g><g id="node-13" transform="translate(509.290,36.979)"><circle r="2.5" /></g><g id="node-14" transform="translate(502.730,34.375)"><circle r="2.5" /></g><g id="node-15" transform="translate(500.646,31.771)"><circle r="2.5" /></g><g id="node-16" transform="translate(511.437,29.167)"><circle r="2.5" /></g><g id="node-17" transform="translate(487.683,69.531)"><circle r="0.0" /></g><g id="node-18" transform="translate(468.718,67.578)"><circle r="0.0" /></g><g id="node-19" transform="translate(483.302,56.510)"><circle r="0.0" /></g><g id="node-20" transform="translate(503.485,43.490)"><circle r="0.0" /></g><g id="node-21" transform="translate(461.207,65.299)"><circle r="0.0" /></g><g id="node-22" transform="translate(457.786,54.557)"><circle r="0.0" /></g><g id="node-23" transform="translate(480.042,41.536)"><circle r="0.0" /></g><g id="node-24" transform="translate(479.005,35.677)"><circle r="0.0" /></g><g id="node-25" transform="translate(455.571,62.858)"><circle r="0.0" /></g><g id="node-26" transform="translate(451.671,52.279)"><circle r="0.0" /></g><g id="node-27" transform="translate(466.923,38.607)"><circle r="0.0" /></g><g id="node-28" transform="translate(448.501,57.568)"><circle r="0.0" /></g><g id="node-29" transform="translate(455.578,35.189)"><circle r="0.0" /></g><g id="node-30" transform="translate(446.864,52.482)"><circle r="0.0" /></g><g id="node-31" transform="translate(447.734,32.178)"><circle r="0.0" /></g><g id="node-32" transform="translate(445.000,42.330)"><circle r="0.0" /></g></g></g></g></g></svg>