<svg class="toyplot-canvas-Canvas" xmlns:toyplot="http://www.sandia.gov/toyplot" xmlns:xlink="http://www.w3.org/1999/xlink" xmlns="http://www.w3.org/2000/svg" width="560.0px" height="100.0px" viewBox="0 0 560.0 100.0" preserveAspectRatio="xMidYMid meet" style="background-color:transparent;border-color:#292724;border-style:none;border-width:1.0;fill:rgb(16.1%,15.3%,14.1%);fill-opacity:1.0;font-family:Helvetica;font-size:12px;opacity:1.0;stroke:rgb(16.1%,15.3%,14.1%);stroke-opacity:1.0;stroke-width:1.0" id="td35f9b82ae8547519ac4255342a021f2"><g class="toyplot-coordinates-Cartesian" id="td6a4d9e512ad4aa4887b5db04e494363"><clipPath id="t7575703d44ea4c0d9c52b5d9b337ab78"><rect x="15.0" y="15.0" width="110.0" height="70.0" /></clipPath><g clip-path="url(#t7575703d44ea4c0d9c52b5d9b337ab78)"><g class="toytree-mark-Toytree" id="t25248d8f4d6d48989c6ae2f905e2999a"><g class="toytree-Edges" style="fill:none;stroke:rgb(14.9%,14.9%,14.9%);stroke-linecap:round;stroke-opacity:1;stroke-width:0.5"><path d="M 25.0 41.0 L 25.0 31.4 L 50.7 31.4" id="28,27" /><path d="M 25.0 41.0 L 25.0 50.5 L 29.3 50.5" id="28,26" /><path d="M 50.7 31.4 L 50.7 33.6 L 95.6 33.6" id="27,25" /><path d="M 29.3 50.5 L 29.3 42.9 L 57.5 42.9" id="26,24" /><path d="M 29.3 50.5 L 29.3 58.1 L 31.6 58.1" id="26,23" /><path d="M 57.5 42.9 L 57.5 39.6 L 75.4 39.6" id="24,22" /><path d="M 57.5 42.9 L 57.5 46.3 L 96.4 46.3" id="24,21" /><path d="M 31.6 58.1 L 31.6 54.5 L 34.4 54.5" id="23,20" /><path d="M 31.6 58.1 L 31.6 61.7 L 41.8 61.7" id="23,19" /><path d="M 96.4 46.3 L 96.4 48.5 L 97.1 48.5" id="21,18" /><path d="M 41.8 61.7 L 41.8 64.5 L 55.2 64.5" id="19,17" /><path d="M 55.2 64.5 L 55.2 67.1 L 80.5 67.1" id="17,16" /><path d="M 80.5 67.1 L 80.5 69.3 L 99.9 69.3" id="16,15" /><path d="M 50.7 31.4 L 50.7 29.2 L 92.2 29.2" id="27,14" /><path d="M 95.6 33.6 L 95.6 32.1 L 104.2 32.1" id="25,13" /><path d="M 95.6 33.6 L 95.6 35.1 L 102.4 35.1" id="25,12" /><path d="M 75.4 39.6 L 75.4 38.1 L 96.3 38.1" id="22,11" /><path d="M 75.4 39.6 L 75.4 41.1 L 98.0 41.1" id="22,10" /><path d="M 96.4 46.3 L 96.4 44.0 L 98.0 44.0" id="21,9" /><path d="M 97.1 48.5 L 97.1 47.0 L 97.6 47.0" id="18,8" /><path d="M 97.1 48.5 L 97.1 50.0 L 98.0 50.0" id="18,7" /><path d="M 34.4 54.5 L 34.4 53.0 L 92.1 53.0" id="20,6" /><path d="M 34.4 54.5 L 34.4 56.0 L 91.0 56.0" id="20,5" /><path d="M 41.8 61.7 L 41.8 58.9 L 94.7 58.9" id="19,4" /><path d="M 55.2 64.5 L 55.2 61.9 L 104.3 61.9" id="17,3" /><path d="M 80.5 67.1 L 80.5 64.9 L 109.7 64.9" id="16,2" /><path d="M 99.9 69.3 L 99.9 67.9 L 106.5 67.9" id="15,1" /><path d="M 99.9 69.3 L 99.9 70.8 L 110.3 70.8" id="15,0" /></g><g class="toytree-Nodes" style="fill:rgb(100%,0%,0%);fill-opacity:1.0;stroke:None;stroke-width:1"><g id="node-0" transform="translate(110.263,70.833)"><circle r="2.5" /></g><g id="node-1" transform="translate(106.506,67.857)"><circle r="2.5" /></g><g id="node-2" transform="translate(109.675,64.881)"><circle r="2.5" /></g><g id="node-3" transform="translate(104.348,61.905)"><circle r="2.5" /></g><g id="node-4" transform="translate(94.704,58.929)"><circle r="2.5" /></g><g id="node-5" transform="translate(90.986,55.952)"><circle r="2.5" /></g><g id="node-6" transform="translate(92.061,52.976)"><circle r="2.5" /></g><g id="node-7" transform="translate(97.985,50.000)"><circle r="2.5" /></g><g id="node-8" transform="translate(97.586,47.024)"><circle r="2.5" /></g><g id="node-9" transform="translate(98.019,44.048)"><circle r="2.5" /></g><g id="node-10" transform="translate(98.030,41.071)"><circle r="2.5" /></g><g id="node-11" transform="translate(96.327,38.095)"><circle r="2.5" /></g><g id="node-12" transform="translate(102.423,35.119)"><circle r="2.5" /></g><g id="node-13" transform="translate(104.185,32.143)"><circle r="2.5" /></g><g id="node-14" transform="translate(92.172,29.167)"><circle r="2.5" /></g><g id="node-15" transform="translate(99.869,69.345)"><circle r="0.0" /></g><g id="node-16" transform="translate(80.523,67.113)"><circle r="0.0" /></g><g id="node-17" transform="translate(55.197,64.509)"><circle r="0.0" /></g><g id="node-18" transform="translate(97.120,48.512)"><circle r="0.0" /></g><g id="node-19" transform="translate(41.761,61.719)"><circle r="0.0" /></g><g id="node-20" transform="translate(34.443,54.464)"><circle r="0.0" /></g><g id="node-21" transform="translate(96.439,46.280)"><circle r="0.0" /></g><g id="node-22" transform="translate(75.358,39.583)"><circle r="0.0" /></g><g id="node-23" transform="translate(31.622,58.092)"><circle r="0.0" /></g><g id="node-24" transform="translate(57.491,42.932)"><circle r="0.0" /></g><g id="node-25" transform="translate(95.587,33.631)"><circle r="0.0" /></g><g id="node-26" transform="translate(29.337,50.512)"><circle r="0.0" /></g><g id="node-27" transform="translate(50.737,31.399)"><circle r="0.0" /></g><g id="node-28" transform="translate(25.000,40.955)"><circle r="0.0" /></g></g></g></g></g><g class="toyplot-coordinates-Cartesian" id="t02b9b8f124ff42c4b895b175b2ae5edd"><clipPath id="t96a34edc5fd74865996c24cd4f3919bd"><rect x="155.0" y="15.0" width="110.0" height="70.0" /></clipPath><g clip-path="url(#t96a34edc5fd74865996c24cd4f3919bd)"><g class="toytree-mark-Toytree" id="tf90d470649a24581b02a579101681ad4"><g class="toytree-Edges" style="fill:none;stroke:rgb(14.9%,14.9%,14.9%);stroke-linecap:round;stroke-opacity:1;stroke-width:0.5"><path d="M 165.0 42.8 L 165.0 32.9 L 170.5 32.9" id="28,27" /><path d="M 165.0 42.8 L 165.0 52.7 L 177.4 52.7" id="28,26" /><path d="M 170.5 32.9 L 170.5 36.6 L 186.2 36.6" id="27,25" /><path d="M 177.4 52.7 L 177.4 46.7 L 186.6 46.7" id="26,24" /><path d="M 177.4 52.7 L 177.4 58.8 L 187.5 58.8" id="26,23" /><path d="M 186.2 36.6 L 186.2 33.6 L 201.6 33.6" id="25,22" /><path d="M 186.2 36.6 L 186.2 39.6 L 191.1 39.6" id="25,21" /><path d="M 186.6 46.7 L 186.6 49.3 L 195.8 49.3" id="24,20" /><path d="M 187.5 58.8 L 187.5 61.7 L 191.4 61.7" id="23,19" /><path d="M 195.8 49.3 L 195.8 51.5 L 197.6 51.5" id="20,18" /><path d="M 191.4 61.7 L 191.4 64.5 L 196.4 64.5" id="19,17" /><path d="M 196.4 64.5 L 196.4 67.1 L 204.9 67.1" id="17,16" /><path d="M 204.9 67.1 L 204.9 69.3 L 209.3 69.3" id="16,15" /><path d="M 170.5 32.9 L 170.5 29.2 L 203.8 29.2" id="27,14" /><path d="M 201.6 33.6 L 201.6 32.1 L 250.3 32.1" id="22,13" /><path d="M 201.6 33.6 L 201.6 35.1 L 201.6 35.1" id="22,12" /><path d="M 191.1 39.6 L 191.1 38.1 L 196.3 38.1" id="21,11" /><path d="M 191.1 39.6 L 191.1 41.1 L 195.2 41.1" id="21,10" /><path d="M 186.6 46.7 L 186.6 44.0 L 187.7 44.0" id="24,9" /><path d="M 195.8 49.3 L 195.8 47.0 L 199.3 47.0" id="20,8" /><path d="M 197.6 51.5 L 197.6 50.0 L 197.7 50.0" id="18,7" /><path d="M 197.6 51.5 L 197.6 53.0 L 198.0 53.0" id="18,6" /><path d="M 187.5 58.8 L 187.5 56.0 L 242.4 56.0" id="23,5" /><path d="M 191.4 61.7 L 191.4 58.9 L 200.1 58.9" id="19,4" /><path d="M 196.4 64.5 L 196.4 61.9 L 207.0 61.9" id="17,3" /><path d="M 204.9 67.1 L 204.9 64.9 L 208.5 64.9" id="16,2" /><path d="M 209.3 69.3 L 209.3 67.9 L 217.0 67.9" id="15,1" /><path d="M 209.3 69.3 L 209.3 70.8 L 211.7 70.8" id="15,0" /></g><g class="toytree-Nodes" style="fill:rgb(100%,0%,0%);fill-opacity:1.0;stroke:None;stroke-width:1"><g id="node-0" transform="translate(211.748,70.833)"><circle r="2.5" /></g><g id="node-1" transform="translate(217.040,67.857)"><circle r="2.5" /></g><g id="node-2" transform="translate(208.502,64.881)"><circle r="2.5" /></g><g id="node-3" transform="translate(206.996,61.905)"><circle r="2.5" /></g><g id="node-4" transform="translate(200.122,58.929)"><circle r="2.5" /></g><g id="node-5" transform="translate(242.447,55.952)"><circle r="2.5" /></g><g id="node-6" transform="translate(197.958,52.976)"><circle r="2.5" /></g><g id="node-7" transform="translate(197.725,50.000)"><circle r="2.5" /></g><g id="node-8" transform="translate(199.290,47.024)"><circle r="2.5" /></g><g id="node-9" transform="translate(187.672,44.048)"><circle r="2.5" /></g><g id="node-10" transform="translate(195.205,41.071)"><circle r="2.5" /></g><g id="node-11" transform="translate(196.304,38.095)"><circle r="2.5" /></g><g id="node-12" transform="translate(201.580,35.119)"><circle r="2.5" /></g><g id="node-13" transform="translate(250.263,32.143)"><circle r="2.5" /></g><g id="node-14" transform="translate(203.827,29.167)"><circle r="2.5" /></g><g id="node-15" transform="translate(209.318,69.345)"><circle r="0.0" /></g><g id="node-16" transform="translate(204.915,67.113)"><circle r="0.0" /></g><g id="node-17" transform="translate(196.435,64.509)"><circle r="0.0" /></g><g id="node-18" transform="translate(197.634,51.488)"><circle r="0.0" /></g><g id="node-19" transform="translate(191.409,61.719)"><circle r="0.0" /></g><g id="node-20" transform="translate(195.778,49.256)"><circle r="0.0" /></g><g id="node-21" transform="translate(191.136,39.583)"><circle r="0.0" /></g><g id="node-22" transform="translate(201.580,33.631)"><circle r="0.0" /></g><g id="node-23" transform="translate(187.506,58.836)"><circle r="0.0" /></g><g id="node-24" transform="translate(186.640,46.652)"><circle r="0.0" /></g><g id="node-25" transform="translate(186.151,36.607)"><circle r="0.0" /></g><g id="node-26" transform="translate(177.445,52.744)"><circle r="0.0" /></g><g id="node-27" transform="translate(170.539,32.887)"><circle r="0.0" /></g><g id="node-28" transform="translate(165.000,42.815)"><circle r="0.0" /></g></g></g></g></g><g class="toyplot-coordinates-Cartesian" id="t33fbc73f11e34dbb95b8fd20be849325"><clipPath id="taf12bdf114a54fb2950760652b4bf541"><rect x="295.0" y="15.0" width="110.0" height="70.0" /></clipPath><g clip-path="url(#taf12bdf114a54fb2950760652b4bf541)"><g class="toytree-mark-Toytree" id="t99918d1ea9944d60b15bf9d9994c6eb5"><g class="toytree-Edges" style="fill:none;stroke:rgb(14.9%,14.9%,14.9%);stroke-linecap:round;stroke-opacity:1;stroke-width:0.5"><path d="M 305.0 38.6 L 305.0 48.0 L 307.1 48.0" id="28,27" /><path d="M 307.1 48.0 L 307.1 39.0 L 308.9 39.0" id="27,26" /><path d="M 307.1 48.0 L 307.1 57.0 L 310.3 57.0" id="27,25" /><path d="M 308.9 39.0 L 308.9 34.4 L 321.6 34.4" id="26,24" /><path d="M 308.9 39.0 L 308.9 43.7 L 318.9 43.7" id="26,23" /><path d="M 310.3 57.0 L 310.3 61.0 L 313.8 61.0" id="25,22" /><path d="M 321.6 34.4 L 321.6 36.6 L 366.1 36.6" id="24,21" /><path d="M 318.9 43.7 L 318.9 46.3 L 353.0 46.3" id="23,20" /><path d="M 313.8 61.0 L 313.8 57.4 L 322.2 57.4" id="22,19" /><path d="M 313.8 61.0 L 313.8 64.5 L 338.8 64.5" id="22,18" /><path d="M 353.0 46.3 L 353.0 48.5 L 353.9 48.5" id="20,17" /><path d="M 338.8 64.5 L 338.8 67.1 L 356.9 67.1" id="18,16" /><path d="M 356.9 67.1 L 356.9 69.3 L 362.2 69.3" id="16,15" /><path d="M 305.0 38.6 L 305.0 29.2 L 368.6 29.2" id="28,14" /><path d="M 321.6 34.4 L 321.6 32.1 L 366.0 32.1" id="24,13" /><path d="M 366.1 36.6 L 366.1 35.1 L 372.6 35.1" id="21,12" /><path d="M 366.1 36.6 L 366.1 38.1 L 369.7 38.1" id="21,11" /><path d="M 318.9 43.7 L 318.9 41.1 L 360.7 41.1" id="23,10" /><path d="M 353.0 46.3 L 353.0 44.0 L 377.3 44.0" id="20,9" /><path d="M 353.9 48.5 L 353.9 47.0 L 372.9 47.0" id="17,8" /><path d="M 353.9 48.5 L 353.9 50.0 L 368.6 50.0" id="17,7" /><path d="M 310.3 57.0 L 310.3 53.0 L 372.8 53.0" id="25,6" /><path d="M 322.2 57.4 L 322.2 56.0 L 390.3 56.0" id="19,5" /><path d="M 322.2 57.4 L 322.2 58.9 L 364.8 58.9" id="19,4" /><path d="M 338.8 64.5 L 338.8 61.9 L 363.3 61.9" id="18,3" /><path d="M 356.9 67.1 L 356.9 64.9 L 366.4 64.9" id="16,2" /><path d="M 362.2 69.3 L 362.2 67.9 L 362.3 67.9" id="15,1" /><path d="M 362.2 69.3 L 362.2 70.8 L 362.8 70.8" id="15,0" /></g><g class="toytree-Nodes" style="fill:rgb(100%,0%,0%);fill-opacity:1.0;stroke:None;stroke-width:1"><g id="node-0" transform="translate(362.849,70.833)"><circle r="2.5" /></g><g id="node-1" transform="translate(362.331,67.857)"><circle r="2.5" /></g><g id="node-2" transform="translate(366.393,64.881)"><circle r="2.5" /></g><g id="node-3" transform="translate(363.303,61.905)"><circle r="2.5" /></g><g id="node-4" transform="translate(364.837,58.929)"><circle r="2.5" /></g><g id="node-5" transform="translate(390.263,55.952)"><circle r="2.5" /></g><g id="node-6" transform="translate(372.782,52.976)"><circle r="2.5" /></g><g id="node-7" transform="translate(368.640,50.000)"><circle r="2.5" /></g><g id="node-8" transform="translate(372.948,47.024)"><circle r="2.5" /></g><g id="node-9" transform="translate(377.277,44.048)"><circle r="2.5" /></g><g id="node-10" transform="translate(360.739,41.071)"><circle r="2.5" /></g><g id="node-11" transform="translate(369.678,38.095)"><circle r="2.5" /></g><g id="node-12" transform="translate(372.616,35.119)"><circle r="2.5" /></g><g id="node-13" transform="translate(365.997,32.143)"><circle r="2.5" /></g><g id="node-14" transform="translate(368.553,29.167)"><circle r="2.5" /></g><g id="node-15" transform="translate(362.230,69.345)"><circle r="0.0" /></g><g id="node-16" transform="translate(356.929,67.113)"><circle r="0.0" /></g><g id="node-17" transform="translate(353.904,48.512)"><circle r="0.0" /></g><g id="node-18" transform="translate(338.778,64.509)"><circle r="0.0" /></g><g id="node-19" transform="translate(322.197,57.440)"><circle r="0.0" /></g><g id="node-20" transform="translate(353.039,46.280)"><circle r="0.0" /></g><g id="node-21" transform="translate(366.105,36.607)"><circle r="0.0" /></g><g id="node-22" transform="translate(313.756,60.975)"><circle r="0.0" /></g><g id="node-23" transform="translate(318.913,43.676)"><circle r="0.0" /></g><g id="node-24" transform="translate(321.628,34.375)"><circle r="0.0" /></g><g id="node-25" transform="translate(310.255,56.975)"><circle r="0.0" /></g><g id="node-26" transform="translate(308.937,39.025)"><circle r="0.0" /></g><g id="node-27" transform="translate(307.143,48.000)"><circle r="0.0" /></g><g id="node-28" transform="translate(305.000,38.584)"><circle r="0.0" /></g></g></g></g></g><g class="toyplot-coordinates-Cartesian" id="t8256842f00a24613a52d7570f6b5c199"><clipPath id="tf8b5d159b49443d6b25ebc5a12b20437"><rect x="435.0" y="15.0" width="110.0" height="70.0" /></clipPath><g clip-path="url(#tf8b5d159b49443d6b25ebc5a12b20437)"><g class="toytree-mark-Toytree" id="taa4d345da63a41f2ad1c1c89c26aabab"><g class="toytree-Edges" style="fill:none;stroke:rgb(14.9%,14.9%,14.9%);stroke-linecap:round;stroke-opacity:1;stroke-width:0.5"><path d="M 445.0 40.4 L 445.0 31.4 L 477.4 31.4" id="28,27" /><path d="M 445.0 40.4 L 445.0 49.4 L 449.4 49.4" id="28,26" /><path d="M 477.4 31.4 L 477.4 33.6 L 510.7 33.6" id="27,25" /><path d="M 449.4 49.4 L 449.4 42.9 L 480.8 42.9" id="26,24" /><path d="M 449.4 49.4 L 449.4 55.9 L 457.0 55.9" id="26,23" /><path d="M 480.8 42.9 L 480.8 39.6 L 493.7 39.6" id="24,22" /><path d="M 480.8 42.9 L 480.8 46.3 L 501.4 46.3" id="24,21" /><path d="M 457.0 55.9 L 457.0 58.8 L 461.8 58.8" id="23,20" /><path d="M 501.4 46.3 L 501.4 48.5 L 501.6 48.5" id="21,19" /><path d="M 461.8 58.8 L 461.8 61.7 L 481.4 61.7" id="20,18" /><path d="M 481.4 61.7 L 481.4 64.5 L 498.7 64.5" id="18,17" /><path d="M 498.7 64.5 L 498.7 67.1 L 516.4 67.1" id="17,16" /><path d="M 516.4 67.1 L 516.4 69.3 L 524.1 69.3" id="16,15" /><path d="M 477.4 31.4 L 477.4 29.2 L 493.8 29.2" id="27,14" /><path d="M 510.7 33.6 L 510.7 32.1 L 515.1 32.1" id="25,13" /><path d="M 510.7 33.6 L 510.7 35.1 L 512.3 35.1" id="25,12" /><path d="M 493.7 39.6 L 493.7 38.1 L 503.7 38.1" id="22,11" /><path d="M 493.7 39.6 L 493.7 41.1 L 504.4 41.1" id="22,10" /><path d="M 501.4 46.3 L 501.4 44.0 L 501.4 44.0" id="21,9" /><path d="M 501.6 48.5 L 501.6 47.0 L 501.8 47.0" id="19,8" /><path d="M 501.6 48.5 L 501.6 50.0 L 502.5 50.0" id="19,7" /><path d="M 457.0 55.9 L 457.0 53.0 L 491.1 53.0" id="23,6" /><path d="M 461.8 58.8 L 461.8 56.0 L 483.2 56.0" id="20,5" /><path d="M 481.4 61.7 L 481.4 58.9 L 507.5 58.9" id="18,4" /><path d="M 498.7 64.5 L 498.7 61.9 L 527.6 61.9" id="17,3" /><path d="M 516.4 67.1 L 516.4 64.9 L 530.3 64.9" id="16,2" /><path d="M 524.1 69.3 L 524.1 67.9 L 526.7 67.9" id="15,1" /><path d="M 524.1 69.3 L 524.1 70.8 L 528.6 70.8" id="15,0" /></g><g class="toytree-Nodes" style="fill:rgb(100%,0%,0%);fill-opacity:1.0;stroke:None;stroke-width:1"><g id="node-0" transform="translate(528.579,70.833)"><circle r="2.5" /></g><g id="node-1" transform="translate(526.716,67.857)"><circle r="2.5" /></g><g id="node-2" transform="translate(530.263,64.881)"><circle r="2.5" /></g><g id="node-3" transform="translate(527.574,61.905)"><circle r="2.5" /></g><g id="node-4" transform="translate(507.538,58.929)"><circle r="2.5" /></g><g id="node-5" transform="translate(483.186,55.952)"><circle r="2.5" /></g><g id="node-6" transform="translate(491.073,52.976)"><circle r="2.5" /></g><g id="node-7" transform="translate(502.498,50.000)"><circle r="2.5" /></g><g id="node-8" transform="translate(501.832,47.024)"><circle r="2.5" /></g><g id="node-9" transform="translate(501.392,44.048)"><circle r="2.5" /></g><g id="node-10" transform="translate(504.353,41.071)"><circle r="2.5" /></g><g id="node-11" transform="translate(503.664,38.095)"><circle r="2.5" /></g><g id="node-12" transform="translate(512.270,35.119)"><circle r="2.5" /></g><g id="node-13" transform="translate(515.081,32.143)"><circle r="2.5" /></g><g id="node-14" transform="translate(493.794,29.167)"><circle r="2.5" /></g><g id="node-15" transform="translate(524.147,69.345)"><circle r="0.0" /></g><g id="node-16" transform="translate(516.397,67.113)"><circle r="0.0" /></g><g id="node-17" transform="translate(498.712,64.509)"><circle r="0.0" /></g><g id="node-18" transform="translate(481.383,61.719)"><circle r="0.0" /></g><g id="node-19" transform="translate(501.613,48.512)"><circle r="0.0" /></g><g id="node-20" transform="translate(461.837,58.836)"><circle r="0.0" /></g><g id="node-21" transform="translate(501.392,46.280)"><circle r="0.0" /></g><g id="node-22" transform="translate(493.712,39.583)"><circle r="0.0" /></g><g id="node-23" transform="translate(457.028,55.906)"><circle r="0.0" /></g><g id="node-24" transform="translate(480.816,42.932)"><circle r="0.0" /></g><g id="node-25" transform="translate(510.666,33.631)"><circle r="0.0" /></g><g id="node-26" transform="translate(449.423,49.419)"><circle r="0.0" /></g><g id="node-27" transform="translate(477.363,31.399)"><circle r="0.0" /></g><g id="node-28" transform="translate(445.000,40.409)"><circle r="0.0" /></g></g></g></g></g></svg>