<svg class="toyplot-canvas-Canvas" xmlns:toyplot="http://www.sandia.gov/toyplot" xmlns:xlink="http://www.w3.org/1999/xlink" xmlns="http://www.w3.org/2000/svg" width="560.0px" height="100.0px" viewBox="0 0 560.0 100.0" preserveAspectRatio="xMidYMid meet" style="background-color:transparent;border-color:#292724;border-style:none;border-width:1.0;fill:rgb(16.1%,15.3%,14.1%);fill-opacity:1.0;font-family:Helvetica;font-size:12px;opacity:1.0;stroke:rgb(16.1%,15.3%,14.1%);stroke-opacity:1.0;stroke-width:1.0" id="t07f87a8320824e9082bfde620048bcc5"><g class="toyplot-coordinates-Cartesian" id="t3a4be82fbcad4434820ec6b2d31565cd"><clipPath id="tfd005b8b54084f0f9b6eba37d35eb4dc"><rect x="15.0" y="15.0" width="110.0" height="70.0" /></clipPath><g clip-path="url(#tfd005b8b54084f0f9b6eba37d35eb4dc)"><g class="toytree-mark-Toytree" id="t3e3ac876eca34232886ec856f55d08b4"><g class="toytree-Edges" style="fill:none;stroke:rgb(14.9%,14.9%,14.9%);stroke-linecap:round;stroke-opacity:1;stroke-width:0.5"><path d="M 25.0 36.9 L 25.0 30.4 L 59.1 30.4" id="34,33" /><path d="M 25.0 36.9 L 25.0 43.3 L 33.1 43.3" id="34,32" /><path d="M 33.1 43.3 L 33.1 35.9 L 41.7 35.9" id="32,31" /><path d="M 33.1 43.3 L 33.1 50.7 L 35.1 50.7" id="32,30" /><path d="M 41.7 35.9 L 41.7 37.7 L 56.0 37.7" id="31,29" /><path d="M 35.1 50.7 L 35.1 43.7 L 45.4 43.7" id="30,28" /><path d="M 35.1 50.7 L 35.1 57.7 L 36.7 57.7" id="30,27" /><path d="M 45.4 43.7 L 45.4 46.0 L 53.5 46.0" id="28,26" /><path d="M 36.7 57.7 L 36.7 61.8 L 38.0 61.8" id="27,25" /><path d="M 53.5 46.0 L 53.5 48.2 L 55.8 48.2" id="26,24" /><path d="M 38.0 61.8 L 38.0 58.0 L 40.1 58.0" id="25,23" /><path d="M 38.0 61.8 L 38.0 65.6 L 43.1 65.6" id="25,22" /><path d="M 55.8 48.2 L 55.8 50.0 L 87.9 50.0" id="24,21" /><path d="M 40.1 58.0 L 40.1 59.8 L 52.8 59.8" id="23,20" /><path d="M 43.1 65.6 L 43.1 67.8 L 47.7 67.8" id="22,19" /><path d="M 47.7 67.8 L 47.7 69.6 L 53.1 69.6" id="19,18" /><path d="M 59.1 30.4 L 59.1 29.2 L 98.7 29.2" id="33,17" /><path d="M 59.1 30.4 L 59.1 31.6 L 99.2 31.6" id="33,16" /><path d="M 41.7 35.9 L 41.7 34.1 L 100.6 34.1" id="31,15" /><path d="M 56.0 37.7 L 56.0 36.5 L 96.9 36.5" id="29,14" /><path d="M 56.0 37.7 L 56.0 39.0 L 96.9 39.0" id="29,13" /><path d="M 45.4 43.7 L 45.4 41.4 L 99.6 41.4" id="28,12" /><path d="M 53.5 46.0 L 53.5 43.9 L 100.7 43.9" id="26,11" /><path d="M 55.8 48.2 L 55.8 46.3 L 95.6 46.3" id="24,10" /><path d="M 87.9 50.0 L 87.9 48.8 L 99.5 48.8" id="21,9" /><path d="M 87.9 50.0 L 87.9 51.2 L 99.1 51.2" id="21,8" /><path d="M 36.7 57.7 L 36.7 53.7 L 94.8 53.7" id="27,7" /><path d="M 40.1 58.0 L 40.1 56.1 L 110.3 56.1" id="23,6" /><path d="M 52.8 59.8 L 52.8 58.6 L 106.0 58.6" id="20,5" /><path d="M 52.8 59.8 L 52.8 61.0 L 103.4 61.0" id="20,4" /><path d="M 43.1 65.6 L 43.1 63.5 L 96.4 63.5" id="22,3" /><path d="M 47.7 67.8 L 47.7 65.9 L 98.9 65.9" id="19,2" /><path d="M 53.1 69.6 L 53.1 68.4 L 92.6 68.4" id="18,1" /><path d="M 53.1 69.6 L 53.1 70.8 L 95.9 70.8" id="18,0" /></g><g class="toytree-Nodes" style="fill:rgb(100%,0%,0%);fill-opacity:1.0;stroke:None;stroke-width:1"><g id="node-0" transform="translate(95.884,70.833)"><circle r="2.5" /></g><g id="node-1" transform="translate(92.601,68.382)"><circle r="2.5" /></g><g id="node-2" transform="translate(98.920,65.931)"><circle r="2.5" /></g><g id="node-3" transform="translate(96.414,63.480)"><circle r="2.5" /></g><g id="node-4" transform="translate(103.363,61.029)"><circle r="2.5" /></g><g id="node-5" transform="translate(106.031,58.578)"><circle r="2.5" /></g><g id="node-6" transform="translate(110.263,56.127)"><circle r="2.5" /></g><g id="node-7" transform="translate(94.762,53.676)"><circle r="2.5" /></g><g id="node-8" transform="translate(99.124,51.225)"><circle r="2.5" /></g><g id="node-9" transform="translate(99.468,48.775)"><circle r="2.5" /></g><g id="node-10" transform="translate(95.645,46.324)"><circle r="2.5" /></g><g id="node-11" transform="translate(100.681,43.873)"><circle r="2.5" /></g><g id="node-12" transform="translate(99.629,41.422)"><circle r="2.5" /></g><g id="node-13" transform="translate(96.852,38.971)"><circle r="2.5" /></g><g id="node-14" transform="translate(96.869,36.520)"><circle r="2.5" /></g><g id="node-15" transform="translate(100.644,34.069)"><circle r="2.5" /></g><g id="node-16" transform="translate(99.216,31.618)"><circle r="2.5" /></g><g id="node-17" transform="translate(98.699,29.167)"><circle r="2.5" /></g><g id="node-18" transform="translate(53.096,69.608)"><circle r="0.0" /></g><g id="node-19" transform="translate(47.680,67.770)"><circle r="0.0" /></g><g id="node-20" transform="translate(52.850,59.804)"><circle r="0.0" /></g><g id="node-21" transform="translate(87.924,50.000)"><circle r="0.0" /></g><g id="node-22" transform="translate(43.150,65.625)"><circle r="0.0" /></g><g id="node-23" transform="translate(40.073,57.966)"><circle r="0.0" /></g><g id="node-24" transform="translate(55.806,48.162)"><circle r="0.0" /></g><g id="node-25" transform="translate(37.993,61.795)"><circle r="0.0" /></g><g id="node-26" transform="translate(53.457,46.017)"><circle r="0.0" /></g><g id="node-27" transform="translate(36.668,57.736)"><circle r="0.0" /></g><g id="node-28" transform="translate(45.367,43.719)"><circle r="0.0" /></g><g id="node-29" transform="translate(56.023,37.745)"><circle r="0.0" /></g><g id="node-30" transform="translate(35.067,50.728)"><circle r="0.0" /></g><g id="node-31" transform="translate(41.736,35.907)"><circle r="0.0" /></g><g id="node-32" transform="translate(33.101,43.317)"><circle r="0.0" /></g><g id="node-33" transform="translate(59.051,30.392)"><circle r="0.0" /></g><g id="node-34" transform="translate(25.000,36.855)"><circle r="0.0" /></g></g></g></g></g><g class="toyplot-coordinates-Cartesian" id="tcde26a5d7c42486a8752793c2146692d"><clipPath id="t90a38cfb85d74bdf887cb1047090d7f7"><rect x="155.0" y="15.0" width="110.0" height="70.0" /></clipPath><g clip-path="url(#t90a38cfb85d74bdf887cb1047090d7f7)"><g class="toytree-mark-Toytree" id="ta3f199bf35b44c7b84a34ff67f2e6d26"><g class="toytree-Edges" style="fill:none;stroke:rgb(14.9%,14.9%,14.9%);stroke-linecap:round;stroke-opacity:1;stroke-width:0.5"><path d="M 165.0 36.9 L 165.0 30.4 L 223.4 30.4" id="34,33" /><path d="M 165.0 36.9 L 165.0 43.4 L 186.7 43.4" id="34,32" /><path d="M 186.7 43.4 L 186.7 38.1 L 192.9 38.1" id="32,31" /><path d="M 186.7 43.4 L 186.7 48.8 L 204.3 48.8" id="32,30" /><path d="M 192.9 38.1 L 192.9 35.3 L 194.3 35.3" id="31,29" /><path d="M 192.9 38.1 L 192.9 40.8 L 209.6 40.8" id="31,28" /><path d="M 204.3 48.8 L 204.3 51.2 L 208.9 51.2" id="30,27" /><path d="M 209.6 40.8 L 209.6 42.6 L 213.9 42.6" id="28,26" /><path d="M 208.9 51.2 L 208.9 53.7 L 211.3 53.7" id="27,25" /><path d="M 211.3 53.7 L 211.3 56.1 L 212.8 56.1" id="25,24" /><path d="M 212.8 56.1 L 212.8 58.5 L 213.4 58.5" id="24,23" /><path d="M 213.4 58.5 L 213.4 61.0 L 215.6 61.0" id="23,22" /><path d="M 215.6 61.0 L 215.6 63.3 L 217.7 63.3" id="22,21" /><path d="M 217.7 63.3 L 217.7 65.6 L 220.4 65.6" id="21,20" /><path d="M 220.4 65.6 L 220.4 67.8 L 228.8 67.8" id="20,19" /><path d="M 228.8 67.8 L 228.8 69.6 L 242.0 69.6" id="19,18" /><path d="M 223.4 30.4 L 223.4 29.2 L 223.4 29.2" id="33,17" /><path d="M 223.4 30.4 L 223.4 31.6 L 237.0 31.6" id="33,16" /><path d="M 194.3 35.3 L 194.3 34.1 L 234.1 34.1" id="29,15" /><path d="M 194.3 35.3 L 194.3 36.5 L 229.6 36.5" id="29,14" /><path d="M 209.6 40.8 L 209.6 39.0 L 214.6 39.0" id="28,13" /><path d="M 213.9 42.6 L 213.9 41.4 L 219.2 41.4" id="26,12" /><path d="M 213.9 42.6 L 213.9 43.9 L 223.0 43.9" id="26,11" /><path d="M 204.3 48.8 L 204.3 46.3 L 240.6 46.3" id="30,10" /><path d="M 208.9 51.2 L 208.9 48.8 L 226.1 48.8" id="27,9" /><path d="M 211.3 53.7 L 211.3 51.2 L 219.4 51.2" id="25,8" /><path d="M 212.8 56.1 L 212.8 53.7 L 219.4 53.7" id="24,7" /><path d="M 213.4 58.5 L 213.4 56.1 L 226.6 56.1" id="23,6" /><path d="M 215.6 61.0 L 215.6 58.6 L 228.2 58.6" id="22,5" /><path d="M 217.7 63.3 L 217.7 61.0 L 231.0 61.0" id="21,4" /><path d="M 220.4 65.6 L 220.4 63.5 L 245.2 63.5" id="20,3" /><path d="M 228.8 67.8 L 228.8 65.9 L 248.6 65.9" id="19,2" /><path d="M 242.0 69.6 L 242.0 68.4 L 244.9 68.4" id="18,1" /><path d="M 242.0 69.6 L 242.0 70.8 L 250.3 70.8" id="18,0" /></g><g class="toytree-Nodes" style="fill:rgb(100%,0%,0%);fill-opacity:1.0;stroke:None;stroke-width:1"><g id="node-0" transform="translate(250.263,70.833)"><circle r="2.5" /></g><g id="node-1" transform="translate(244.926,68.382)"><circle r="2.5" /></g><g id="node-2" transform="translate(248.627,65.931)"><circle r="2.5" /></g><g id="node-3" transform="translate(245.195,63.480)"><circle r="2.5" /></g><g id="node-4" transform="translate(231.034,61.029)"><circle r="2.5" /></g><g id="node-5" transform="translate(228.205,58.578)"><circle r="2.5" /></g><g id="node-6" transform="translate(226.623,56.127)"><circle r="2.5" /></g><g id="node-7" transform="translate(219.436,53.676)"><circle r="2.5" /></g><g id="node-8" transform="translate(219.409,51.225)"><circle r="2.5" /></g><g id="node-9" transform="translate(226.087,48.775)"><circle r="2.5" /></g><g id="node-10" transform="translate(240.649,46.324)"><circle r="2.5" /></g><g id="node-11" transform="translate(222.976,43.873)"><circle r="2.5" /></g><g id="node-12" transform="translate(219.167,41.422)"><circle r="2.5" /></g><g id="node-13" transform="translate(214.555,38.971)"><circle r="2.5" /></g><g id="node-14" transform="translate(229.600,36.520)"><circle r="2.5" /></g><g id="node-15" transform="translate(234.132,34.069)"><circle r="2.5" /></g><g id="node-16" transform="translate(236.999,31.618)"><circle r="2.5" /></g><g id="node-17" transform="translate(223.402,29.167)"><circle r="2.5" /></g><g id="node-18" transform="translate(241.963,69.608)"><circle r="0.0" /></g><g id="node-19" transform="translate(228.835,67.770)"><circle r="0.0" /></g><g id="node-20" transform="translate(220.401,65.625)"><circle r="0.0" /></g><g id="node-21" transform="translate(217.706,63.327)"><circle r="0.0" /></g><g id="node-22" transform="translate(215.587,60.953)"><circle r="0.0" /></g><g id="node-23" transform="translate(213.442,58.540)"><circle r="0.0" /></g><g id="node-24" transform="translate(212.798,56.108)"><circle r="0.0" /></g><g id="node-25" transform="translate(211.283,53.667)"><circle r="0.0" /></g><g id="node-26" transform="translate(213.898,42.647)"><circle r="0.0" /></g><g id="node-27" transform="translate(208.883,51.221)"><circle r="0.0" /></g><g id="node-28" transform="translate(209.634,40.809)"><circle r="0.0" /></g><g id="node-29" transform="translate(194.320,35.294)"><circle r="0.0" /></g><g id="node-30" transform="translate(204.257,48.772)"><circle r="0.0" /></g><g id="node-31" transform="translate(192.859,38.051)"><circle r="0.0" /></g><g id="node-32" transform="translate(186.664,43.412)"><circle r="0.0" /></g><g id="node-33" transform="translate(223.362,30.392)"><circle r="0.0" /></g><g id="node-34" transform="translate(165.000,36.902)"><circle r="0.0" /></g></g></g></g></g><g class="toyplot-coordinates-Cartesian" id="t4f942dc4e699469f84f4c0e4bc57b971"><clipPath id="te94033bb306a4853be5133515c744454"><rect x="295.0" y="15.0" width="110.0" height="70.0" /></clipPath><g clip-path="url(#te94033bb306a4853be5133515c744454)"><g class="toytree-mark-Toytree" id="t8c6b614c63a941ee9b4fb5cdbb5a171c"><g class="toytree-Edges" style="fill:none;stroke:rgb(14.9%,14.9%,14.9%);stroke-linecap:round;stroke-opacity:1;stroke-width:0.5"><path d="M 305.0 35.5 L 305.0 30.4 L 364.9 30.4" id="34,33" /><path d="M 305.0 35.5 L 305.0 40.7 L 332.5 40.7" id="34,32" /><path d="M 332.5 40.7 L 332.5 47.2 L 335.4 47.2" id="32,31" /><path d="M 335.4 47.2 L 335.4 38.8 L 357.5 38.8" id="31,30" /><path d="M 335.4 47.2 L 335.4 55.7 L 338.0 55.7" id="31,29" /><path d="M 357.5 38.8 L 357.5 41.1 L 360.9 41.1" id="30,28" /><path d="M 338.0 55.7 L 338.0 50.6 L 351.7 50.6" id="29,27" /><path d="M 338.0 55.7 L 338.0 60.7 L 342.6 60.7" id="29,26" /><path d="M 360.9 41.1 L 360.9 43.3 L 367.2 43.3" id="28,25" /><path d="M 351.7 50.6 L 351.7 52.5 L 370.9 52.5" id="27,24" /><path d="M 342.6 60.7 L 342.6 57.4 L 351.3 57.4" id="26,23" /><path d="M 342.6 60.7 L 342.6 64.1 L 346.6 64.1" id="26,22" /><path d="M 367.2 43.3 L 367.2 45.1 L 376.5 45.1" id="25,21" /><path d="M 346.6 64.1 L 346.6 67.2 L 348.4 67.2" id="22,20" /><path d="M 348.4 67.2 L 348.4 64.7 L 353.7 64.7" id="20,19" /><path d="M 348.4 67.2 L 348.4 69.6 L 352.7 69.6" id="20,18" /><path d="M 364.9 30.4 L 364.9 29.2 L 382.0 29.2" id="33,17" /><path d="M 364.9 30.4 L 364.9 31.6 L 377.7 31.6" id="33,16" /><path d="M 332.5 40.7 L 332.5 34.1 L 387.4 34.1" id="32,15" /><path d="M 357.5 38.8 L 357.5 36.5 L 390.3 36.5" id="30,14" /><path d="M 360.9 41.1 L 360.9 39.0 L 387.8 39.0" id="28,13" /><path d="M 367.2 43.3 L 367.2 41.4 L 382.9 41.4" id="25,12" /><path d="M 376.5 45.1 L 376.5 43.9 L 382.1 43.9" id="21,11" /><path d="M 376.5 45.1 L 376.5 46.3 L 383.4 46.3" id="21,10" /><path d="M 351.7 50.6 L 351.7 48.8 L 386.8 48.8" id="27,9" /><path d="M 370.9 52.5 L 370.9 51.2 L 380.3 51.2" id="24,8" /><path d="M 370.9 52.5 L 370.9 53.7 L 381.0 53.7" id="24,7" /><path d="M 351.3 57.4 L 351.3 56.1 L 382.0 56.1" id="23,6" /><path d="M 351.3 57.4 L 351.3 58.6 L 372.3 58.6" id="23,5" /><path d="M 346.6 64.1 L 346.6 61.0 L 377.0 61.0" id="22,4" /><path d="M 353.7 64.7 L 353.7 63.5 L 369.2 63.5" id="19,3" /><path d="M 353.7 64.7 L 353.7 65.9 L 368.7 65.9" id="19,2" /><path d="M 352.7 69.6 L 352.7 68.4 L 375.3 68.4" id="18,1" /><path d="M 352.7 69.6 L 352.7 70.8 L 379.4 70.8" id="18,0" /></g><g class="toytree-Nodes" style="fill:rgb(100%,0%,0%);fill-opacity:1.0;stroke:None;stroke-width:1"><g id="node-0" transform="translate(379.390,70.833)"><circle r="2.5" /></g><g id="node-1" transform="translate(375.269,68.382)"><circle r="2.5" /></g><g id="node-2" transform="translate(368.675,65.931)"><circle r="2.5" /></g><g id="node-3" transform="translate(369.214,63.480)"><circle r="2.5" /></g><g id="node-4" transform="translate(377.016,61.029)"><circle r="2.5" /></g><g id="node-5" transform="translate(372.263,58.578)"><circle r="2.5" /></g><g id="node-6" transform="translate(381.999,56.127)"><circle r="2.5" /></g><g id="node-7" transform="translate(381.032,53.676)"><circle r="2.5" /></g><g id="node-8" transform="translate(380.252,51.225)"><circle r="2.5" /></g><g id="node-9" transform="translate(386.752,48.775)"><circle r="2.5" /></g><g id="node-10" transform="translate(383.445,46.324)"><circle r="2.5" /></g><g id="node-11" transform="translate(382.060,43.873)"><circle r="2.5" /></g><g id="node-12" transform="translate(382.912,41.422)"><circle r="2.5" /></g><g id="node-13" transform="translate(387.769,38.971)"><circle r="2.5" /></g><g id="node-14" transform="translate(390.263,36.520)"><circle r="2.5" /></g><g id="node-15" transform="translate(387.401,34.069)"><circle r="2.5" /></g><g id="node-16" transform="translate(377.747,31.618)"><circle r="2.5" /></g><g id="node-17" transform="translate(382.010,29.167)"><circle r="2.5" /></g><g id="node-18" transform="translate(352.659,69.608)"><circle r="0.0" /></g><g id="node-19" transform="translate(353.697,64.706)"><circle r="0.0" /></g><g id="node-20" transform="translate(348.412,67.157)"><circle r="0.0" /></g><g id="node-21" transform="translate(376.489,45.098)"><circle r="0.0" /></g><g id="node-22" transform="translate(346.610,64.093)"><circle r="0.0" /></g><g id="node-23" transform="translate(351.307,57.353)"><circle r="0.0" /></g><g id="node-24" transform="translate(370.917,52.451)"><circle r="0.0" /></g><g id="node-25" transform="translate(367.186,43.260)"><circle r="0.0" /></g><g id="node-26" transform="translate(342.555,60.723)"><circle r="0.0" /></g><g id="node-27" transform="translate(351.747,50.613)"><circle r="0.0" /></g><g id="node-28" transform="translate(360.939,41.115)"><circle r="0.0" /></g><g id="node-29" transform="translate(338.044,55.668)"><circle r="0.0" /></g><g id="node-30" transform="translate(357.450,38.817)"><circle r="0.0" /></g><g id="node-31" transform="translate(335.412,47.243)"><circle r="0.0" /></g><g id="node-32" transform="translate(332.511,40.656)"><circle r="0.0" /></g><g id="node-33" transform="translate(364.879,30.392)"><circle r="0.0" /></g><g id="node-34" transform="translate(305.000,35.524)"><circle r="0.0" /></g></g></g></g></g><g class="toyplot-coordinates-Cartesian" id="t4ab55ca7bf264fe9996020e859b859c9"><clipPath id="t217816ed7314459b90b548ef7226e47d"><rect x="435.0" y="15.0" width="110.0" height="70.0" /></clipPath><g clip-path="url(#t217816ed7314459b90b548ef7226e47d)"><g class="toytree-mark-Toytree" id="t56fa248e49194b0cafb07eaf4e9fc867"><g class="toytree-Edges" style="fill:none;stroke:rgb(14.9%,14.9%,14.9%);stroke-linecap:round;stroke-opacity:1;stroke-width:0.5"><path d="M 445.0 37.7 L 445.0 30.4 L 494.2 30.4" id="34,33" /><path d="M 445.0 37.7 L 445.0 45.0 L 464.8 45.0" id="34,32" /><path d="M 464.8 45.0 L 464.8 37.1 L 480.0 37.1" id="32,31" /><path d="M 464.8 45.0 L 464.8 52.9 L 468.6 52.9" id="32,30" /><path d="M 480.0 37.1 L 480.0 40.2 L 487.0 40.2" id="31,29" /><path d="M 468.6 52.9 L 468.6 48.2 L 484.0 48.2" id="30,28" /><path d="M 468.6 52.9 L 468.6 57.7 L 470.6 57.7" id="30,27" /><path d="M 487.0 40.2 L 487.0 37.7 L 504.9 37.7" id="29,26" /><path d="M 487.0 40.2 L 487.0 42.6 L 489.9 42.6" id="29,25" /><path d="M 484.0 48.2 L 484.0 50.0 L 494.0 50.0" id="28,24" /><path d="M 470.6 57.7 L 470.6 61.8 L 474.5 61.8" id="27,23" /><path d="M 474.5 61.8 L 474.5 58.0 L 479.7 58.0" id="23,22" /><path d="M 474.5 61.8 L 474.5 65.6 L 480.5 65.6" id="23,21" /><path d="M 479.7 58.0 L 479.7 59.8 L 497.0 59.8" id="22,20" /><path d="M 480.5 65.6 L 480.5 67.8 L 484.8 67.8" id="21,19" /><path d="M 484.8 67.8 L 484.8 69.6 L 490.7 69.6" id="19,18" /><path d="M 494.2 30.4 L 494.2 29.2 L 510.3 29.2" id="33,17" /><path d="M 494.2 30.4 L 494.2 31.6 L 510.4 31.6" id="33,16" /><path d="M 480.0 37.1 L 480.0 34.1 L 504.9 34.1" id="31,15" /><path d="M 504.9 37.7 L 504.9 36.5 L 508.8 36.5" id="26,14" /><path d="M 504.9 37.7 L 504.9 39.0 L 506.9 39.0" id="26,13" /><path d="M 489.9 42.6 L 489.9 41.4 L 502.0 41.4" id="25,12" /><path d="M 489.9 42.6 L 489.9 43.9 L 512.4 43.9" id="25,11" /><path d="M 484.0 48.2 L 484.0 46.3 L 518.3 46.3" id="28,10" /><path d="M 494.0 50.0 L 494.0 48.8 L 511.5 48.8" id="24,9" /><path d="M 494.0 50.0 L 494.0 51.2 L 509.3 51.2" id="24,8" /><path d="M 470.6 57.7 L 470.6 53.7 L 502.9 53.7" id="27,7" /><path d="M 479.7 58.0 L 479.7 56.1 L 530.3 56.1" id="22,6" /><path d="M 497.0 59.8 L 497.0 58.6 L 521.9 58.6" id="20,5" /><path d="M 497.0 59.8 L 497.0 61.0 L 521.7 61.0" id="20,4" /><path d="M 480.5 65.6 L 480.5 63.5 L 503.9 63.5" id="21,3" /><path d="M 484.8 67.8 L 484.8 65.9 L 511.1 65.9" id="19,2" /><path d="M 490.7 69.6 L 490.7 68.4 L 505.3 68.4" id="18,1" /><path d="M 490.7 69.6 L 490.7 70.8 L 508.1 70.8" id="18,0" /></g><g class="toytree-Nodes" style="fill:rgb(100%,0%,0%);fill-opacity:1.0;stroke:None;stroke-width:1"><g id="node-0" transform="translate(508.122,70.833)"><circle r="2.5" /></g><g id="node-1" transform="translate(505.307,68.382)"><circle r="2.5" /></g><g id="node-2" transform="translate(511.084,65.931)"><circle r="2.5" /></g><g id="node-3" transform="translate(503.939,63.480)"><circle r="2.5" /></g><g id="node-4" transform="translate(521.721,61.029)"><circle r="2.5" /></g><g id="node-5" transform="translate(521.923,58.578)"><circle r="2.5" /></g><g id="node-6" transform="translate(530.263,56.127)"><circle r="2.5" /></g><g id="node-7" transform="translate(502.887,53.676)"><circle r="2.5" /></g><g id="node-8" transform="translate(509.331,51.225)"><circle r="2.5" /></g><g id="node-9" transform="translate(511.507,48.775)"><circle r="2.5" /></g><g id="node-10" transform="translate(518.251,46.324)"><circle r="2.5" /></g><g id="node-11" transform="translate(512.388,43.873)"><circle r="2.5" /></g><g id="node-12" transform="translate(502.044,41.422)"><circle r="2.5" /></g><g id="node-13" transform="translate(506.949,38.971)"><circle r="2.5" /></g><g id="node-14" transform="translate(508.812,36.520)"><circle r="2.5" /></g><g id="node-15" transform="translate(504.909,34.069)"><circle r="2.5" /></g><g id="node-16" transform="translate(510.422,31.618)"><circle r="2.5" /></g><g id="node-17" transform="translate(510.330,29.167)"><circle r="2.5" /></g><g id="node-18" transform="translate(490.705,69.608)"><circle r="0.0" /></g><g id="node-19" transform="translate(484.850,67.770)"><circle r="0.0" /></g><g id="node-20" transform="translate(496.974,59.804)"><circle r="0.0" /></g><g id="node-21" transform="translate(480.512,65.625)"><circle r="0.0" /></g><g id="node-22" transform="translate(479.654,57.966)"><circle r="0.0" /></g><g id="node-23" transform="translate(474.455,61.795)"><circle r="0.0" /></g><g id="node-24" transform="translate(493.974,50.000)"><circle r="0.0" /></g><g id="node-25" transform="translate(489.922,42.647)"><circle r="0.0" /></g><g id="node-26" transform="translate(504.878,37.745)"><circle r="0.0" /></g><g id="node-27" transform="translate(470.582,57.736)"><circle r="0.0" /></g><g id="node-28" transform="translate(484.010,48.162)"><circle r="0.0" /></g><g id="node-29" transform="translate(487.017,40.196)"><circle r="0.0" /></g><g id="node-30" transform="translate(468.619,52.949)"><circle r="0.0" /></g><g id="node-31" transform="translate(479.986,37.132)"><circle r="0.0" /></g><g id="node-32" transform="translate(464.818,45.041)"><circle r="0.0" /></g><g id="node-33" transform="translate(494.215,30.392)"><circle r="0.0" /></g><g id="node-34" transform="translate(445.000,37.716)"><circle r="0.0" /></g></g></g></g></g></svg>