<svg class="toyplot-canvas-Canvas" xmlns:toyplot="http://www.sandia.gov/toyplot" xmlns:xlink="http://www.w3.org/1999/xlink" xmlns="http://www.w3.org/2000/svg" width="560.0px" height="100.0px" viewBox="0 0 560.0 100.0" preserveAspectRatio="xMidYMid meet" style="background-color:transparent;border-color:#292724;border-style:none;border-width:1.0;fill:rgb(16.1%,15.3%,14.1%);fill-opacity:1.0;font-family:Helvetica;font-size:12px;opacity:1.0;stroke:rgb(16.1%,15.3%,14.1%);stroke-opacity:1.0;stroke-width:1.0" id="t1a70e9546e0c4f368d3c15b6d1226396"><g class="toyplot-coordinates-Cartesian" id="ta905aa6e11344301975f2d3ca4b1c824"><clipPath id="td3a99ea14d77463e8680c6809e2d1a58"><rect x="15.0" y="15.0" width="110.0" height="70.0" /></clipPath><g clip-path="url(#td3a99ea14d77463e8680c6809e2d1a58)"><g class="toytree-mark-Toytree" id="td3dfa071a5254816b439626aca0862f5"><g class="toytree-Edges" style="fill:none;stroke:rgb(14.9%,14.9%,14.9%);stroke-linecap:round;stroke-opacity:1;stroke-width:0.5"><path d="M 25.0 38.9 L 25.0 48.7 L 29.4 48.7" id="8,7" /><path d="M 29.4 48.7 L 29.4 57.8 L 33.4 57.8" id="7,6" /><path d="M 33.4 57.8 L 33.4 65.6 L 52.9 65.6" id="6,5" /><path d="M 25.0 38.9 L 25.0 29.2 L 107.2 29.2" id="8,4" /><path d="M 29.4 48.7 L 29.4 39.6 L 104.3 39.6" id="7,3" /><path d="M 33.4 57.8 L 33.4 50.0 L 110.3 50.0" id="6,2" /><path d="M 52.9 65.6 L 52.9 60.4 L 104.7 60.4" id="5,1" /><path d="M 52.9 65.6 L 52.9 70.8 L 109.7 70.8" id="5,0" /></g><g class="toytree-Nodes" style="fill:rgb(100%,0%,0%);fill-opacity:1.0;stroke:None;stroke-width:1"><g id="node-0" transform="translate(109.749,70.833)"><circle r="2.5" /></g><g id="node-1" transform="translate(104.680,60.417)"><circle r="2.5" /></g><g id="node-2" transform="translate(110.263,50.000)"><circle r="2.5" /></g><g id="node-3" transform="translate(104.286,39.583)"><circle r="2.5" /></g><g id="node-4" transform="translate(107.151,29.167)"><circle r="2.5" /></g><g id="node-5" transform="translate(52.902,65.625)"><circle r="0.0" /></g><g id="node-6" transform="translate(33.422,57.812)"><circle r="0.0" /></g><g id="node-7" transform="translate(29.445,48.698)"><circle r="0.0" /></g><g id="node-8" transform="translate(25.000,38.932)"><circle r="0.0" /></g></g></g></g></g><g class="toyplot-coordinates-Cartesian" id="ted3cde686acd4863af2c9b58ecd55cd3"><clipPath id="t78bbea5f751648b18440fb02f651d99d"><rect x="155.0" y="15.0" width="110.0" height="70.0" /></clipPath><g clip-path="url(#t78bbea5f751648b18440fb02f651d99d)"><g class="toytree-mark-Toytree" id="t32a6620a70fe407fb495f3d0f13af541"><g class="toytree-Edges" style="fill:none;stroke:rgb(14.9%,14.9%,14.9%);stroke-linecap:round;stroke-opacity:1;stroke-width:0.5"><path d="M 165.0 42.2 L 165.0 55.2 L 171.0 55.2" id="8,7" /><path d="M 171.0 55.2 L 171.0 44.8 L 174.9 44.8" id="7,6" /><path d="M 171.0 55.2 L 171.0 65.6 L 178.4 65.6" id="7,5" /><path d="M 165.0 42.2 L 165.0 29.2 L 243.2 29.2" id="8,4" /><path d="M 174.9 44.8 L 174.9 39.6 L 237.3 39.6" id="6,3" /><path d="M 174.9 44.8 L 174.9 50.0 L 242.0 50.0" id="6,2" /><path d="M 178.4 65.6 L 178.4 60.4 L 244.4 60.4" id="5,1" /><path d="M 178.4 65.6 L 178.4 70.8 L 250.3 70.8" id="5,0" /></g><g class="toytree-Nodes" style="fill:rgb(100%,0%,0%);fill-opacity:1.0;stroke:None;stroke-width:1"><g id="node-0" transform="translate(250.263,70.833)"><circle r="2.5" /></g><g id="node-1" transform="translate(244.432,60.417)"><circle r="2.5" /></g><g id="node-2" transform="translate(241.993,50.000)"><circle r="2.5" /></g><g id="node-3" transform="translate(237.303,39.583)"><circle r="2.5" /></g><g id="node-4" transform="translate(243.221,29.167)"><circle r="2.5" /></g><g id="node-5" transform="translate(178.447,65.625)"><circle r="0.0" /></g><g id="node-6" transform="translate(174.927,44.792)"><circle r="0.0" /></g><g id="node-7" transform="translate(170.990,55.208)"><circle r="0.0" /></g><g id="node-8" transform="translate(165.000,42.188)"><circle r="0.0" /></g></g></g></g></g><g class="toyplot-coordinates-Cartesian" id="t3fa43a141ae648939fe5232211946369"><clipPath id="t3ebab7cf20554cddb2b6a26d4034746d"><rect x="295.0" y="15.0" width="110.0" height="70.0" /></clipPath><g clip-path="url(#t3ebab7cf20554cddb2b6a26d4034746d)"><g class="toytree-mark-Toytree" id="t6001d8b1ed234a4b8391e9c0db23410d"><g class="toytree-Edges" style="fill:none;stroke:rgb(14.9%,14.9%,14.9%);stroke-linecap:round;stroke-opacity:1;stroke-width:0.5"><path d="M 305.0 42.2 L 305.0 55.2 L 310.4 55.2" id="8,7" /><path d="M 310.4 55.2 L 310.4 44.8 L 336.2 44.8" id="7,6" /><path d="M 310.4 55.2 L 310.4 65.6 L 314.4 65.6" id="7,5" /><path d="M 305.0 42.2 L 305.0 29.2 L 369.8 29.2" id="8,4" /><path d="M 336.2 44.8 L 336.2 39.6 L 390.3 39.6" id="6,3" /><path d="M 336.2 44.8 L 336.2 50.0 L 366.5 50.0" id="6,2" /><path d="M 314.4 65.6 L 314.4 60.4 L 362.3 60.4" id="5,1" /><path d="M 314.4 65.6 L 314.4 70.8 L 366.6 70.8" id="5,0" /></g><g class="toytree-Nodes" style="fill:rgb(100%,0%,0%);fill-opacity:1.0;stroke:None;stroke-width:1"><g id="node-0" transform="translate(366.641,70.833)"><circle r="2.5" /></g><g id="node-1" transform="translate(362.290,60.417)"><circle r="2.5" /></g><g id="node-2" transform="translate(366.470,50.000)"><circle r="2.5" /></g><g id="node-3" transform="translate(390.263,39.583)"><circle r="2.5" /></g><g id="node-4" transform="translate(369.793,29.167)"><circle r="2.5" /></g><g id="node-5" transform="translate(314.359,65.625)"><circle r="0.0" /></g><g id="node-6" transform="translate(336.184,44.792)"><circle r="0.0" /></g><g id="node-7" transform="translate(310.397,55.208)"><circle r="0.0" /></g><g id="node-8" transform="translate(305.000,42.188)"><circle r="0.0" /></g></g></g></g></g><g class="toyplot-coordinates-Cartesian" id="tbbbcc575e4ce456e885a17b4fb3a148d"><clipPath id="te994a35ca9b04e2ea896d40cc9520aeb"><rect x="435.0" y="15.0" width="110.0" height="70.0" /></clipPath><g clip-path="url(#te994a35ca9b04e2ea896d40cc9520aeb)"><g class="toytree-mark-Toytree" id="t8182f91906a6438f9f4195d68b6f7f94"><g class="toytree-Edges" style="fill:none;stroke:rgb(14.9%,14.9%,14.9%);stroke-linecap:round;stroke-opacity:1;stroke-width:0.5"><path d="M 445.0 46.1 L 445.0 34.4 L 456.7 34.4" id="8,7" /><path d="M 445.0 46.1 L 445.0 57.8 L 453.2 57.8" id="8,6" /><path d="M 453.2 57.8 L 453.2 65.6 L 483.4 65.6" id="6,5" /><path d="M 456.7 34.4 L 456.7 29.2 L 530.3 29.2" id="7,4" /><path d="M 456.7 34.4 L 456.7 39.6 L 496.0 39.6" id="7,3" /><path d="M 453.2 57.8 L 453.2 50.0 L 514.6 50.0" id="6,2" /><path d="M 483.4 65.6 L 483.4 60.4 L 506.6 60.4" id="5,1" /><path d="M 483.4 65.6 L 483.4 70.8 L 505.7 70.8" id="5,0" /></g><g class="toytree-Nodes" style="fill:rgb(100%,0%,0%);fill-opacity:1.0;stroke:None;stroke-width:1"><g id="node-0" transform="translate(505.706,70.833)"><circle r="2.5" /></g><g id="node-1" transform="translate(506.624,60.417)"><circle r="2.5" /></g><g id="node-2" transform="translate(514.626,50.000)"><circle r="2.5" /></g><g id="node-3" transform="translate(495.984,39.583)"><circle r="2.5" /></g><g id="node-4" transform="translate(530.263,29.167)"><circle r="2.5" /></g><g id="node-5" transform="translate(483.415,65.625)"><circle r="0.0" /></g><g id="node-6" transform="translate(453.202,57.812)"><circle r="0.0" /></g><g id="node-7" transform="translate(456.661,34.375)"><circle r="0.0" /></g><g id="node-8" transform="translate(445.000,46.094)"><circle r="0.0" /></g></g></g></g></g></svg>