<svg class="toyplot-canvas-Canvas" xmlns:toyplot="http://www.sandia.gov/toyplot" xmlns:xlink="http://www.w3.org/1999/xlink" xmlns="http://www.w3.org/2000/svg" width="560.0px" height="100.0px" viewBox="0 0 560.0 100.0" preserveAspectRatio="xMidYMid meet" style="background-color:transparent;border-color:#292724;border-style:none;border-width:1.0;fill:rgb(16.1%,15.3%,14.1%);fill-opacity:1.0;font-family:Helvetica;font-size:12px;opacity:1.0;stroke:rgb(16.1%,15.3%,14.1%);stroke-opacity:1.0;stroke-width:1.0" id="tc0ba009b4ffa4fe4b2ba4976e7240ffb"><g class="toyplot-coordinates-Cartesian" id="t4a80542decd149c6889e38f7adcf44e0"><clipPath id="t7c6ee04fe52c42718ce4e5029d490f32"><rect x="15.0" y="15.0" width="110.0" height="70.0" /></clipPath><g clip-path="url(#t7c6ee04fe52c42718ce4e5029d490f32)"><g class="toytree-mark-Toytree" id="t793e0807e1b2467b92e566c2207151a0"><g class="toytree-Edges" style="fill:none;stroke:rgb(14.9%,14.9%,14.9%);stroke-linecap:round;stroke-opacity:1;stroke-width:0.5"><path d="M 25.0 40.4 L 25.0 32.3 L 35.5 32.3" id="20,19" /><path d="M 25.0 40.4 L 25.0 48.6 L 34.3 48.6" id="20,18" /><path d="M 35.5 32.3 L 35.5 35.4 L 38.9 35.4" id="19,17" /><path d="M 34.3 48.6 L 34.3 55.5 L 36.3 55.5" id="18,16" /><path d="M 36.3 55.5 L 36.3 49.0 L 46.7 49.0" id="16,15" /><path d="M 36.3 55.5 L 36.3 62.0 L 54.5 62.0" id="16,14" /><path d="M 46.7 49.0 L 46.7 52.1 L 54.2 52.1" id="15,13" /><path d="M 54.5 62.0 L 54.5 65.6 L 56.1 65.6" id="14,12" /><path d="M 56.1 65.6 L 56.1 68.8 L 65.2 68.8" id="12,11" /><path d="M 35.5 32.3 L 35.5 29.2 L 91.0 29.2" id="19,10" /><path d="M 38.9 35.4 L 38.9 33.3 L 99.9 33.3" id="17,9" /><path d="M 38.9 35.4 L 38.9 37.5 L 100.2 37.5" id="17,8" /><path d="M 34.3 48.6 L 34.3 41.7 L 92.1 41.7" id="18,7" /><path d="M 46.7 49.0 L 46.7 45.8 L 95.5 45.8" id="15,6" /><path d="M 54.2 52.1 L 54.2 50.0 L 100.8 50.0" id="13,5" /><path d="M 54.2 52.1 L 54.2 54.2 L 110.3 54.2" id="13,4" /><path d="M 54.5 62.0 L 54.5 58.3 L 91.3 58.3" id="14,3" /><path d="M 56.1 65.6 L 56.1 62.5 L 94.3 62.5" id="12,2" /><path d="M 65.2 68.8 L 65.2 66.7 L 98.0 66.7" id="11,1" /><path d="M 65.2 68.8 L 65.2 70.8 L 95.3 70.8" id="11,0" /></g><g class="toytree-Nodes" style="fill:rgb(100%,0%,0%);fill-opacity:1.0;stroke:None;stroke-width:1"><g id="node-0" transform="translate(95.300,70.833)"><circle r="2.5" /></g><g id="node-1" transform="translate(97.972,66.667)"><circle r="2.5" /></g><g id="node-2" transform="translate(94.277,62.500)"><circle r="2.5" /></g><g id="node-3" transform="translate(91.264,58.333)"><circle r="2.5" /></g><g id="node-4" transform="translate(110.263,54.167)"><circle r="2.5" /></g><g id="node-5" transform="translate(100.842,50.000)"><circle r="2.5" /></g><g id="node-6" transform="translate(95.546,45.833)"><circle r="2.5" /></g><g id="node-7" transform="translate(92.126,41.667)"><circle r="2.5" /></g><g id="node-8" transform="translate(100.190,37.500)"><circle r="2.5" /></g><g id="node-9" transform="translate(99.895,33.333)"><circle r="2.5" /></g><g id="node-10" transform="translate(91.027,29.167)"><circle r="2.5" /></g><g id="node-11" transform="translate(65.160,68.750)"><circle r="0.0" /></g><g id="node-12" transform="translate(56.142,65.625)"><circle r="0.0" /></g><g id="node-13" transform="translate(54.179,52.083)"><circle r="0.0" /></g><g id="node-14" transform="translate(54.454,61.979)"><circle r="0.0" /></g><g id="node-15" transform="translate(46.733,48.958)"><circle r="0.0" /></g><g id="node-16" transform="translate(36.280,55.469)"><circle r="0.0" /></g><g id="node-17" transform="translate(38.900,35.417)"><circle r="0.0" /></g><g id="node-18" transform="translate(34.254,48.568)"><circle r="0.0" /></g><g id="node-19" transform="translate(35.478,32.292)"><circle r="0.0" /></g><g id="node-20" transform="translate(25.000,40.430)"><circle r="0.0" /></g></g></g></g></g><g class="toyplot-coordinates-Cartesian" id="t65484c7bcced40979097532b22fb2b9b"><clipPath id="t5e84b958372c4ead876e454281fb53b5"><rect x="155.0" y="15.0" width="110.0" height="70.0" /></clipPath><g clip-path="url(#t5e84b958372c4ead876e454281fb53b5)"><g class="toytree-mark-Toytree" id="t7935ab4ffceb4599971c5a5d5201f3ad"><g class="toytree-Edges" style="fill:none;stroke:rgb(14.9%,14.9%,14.9%);stroke-linecap:round;stroke-opacity:1;stroke-width:0.5"><path d="M 165.0 39.8 L 165.0 32.3 L 174.0 32.3" id="20,19" /><path d="M 165.0 39.8 L 165.0 47.3 L 192.0 47.3" id="20,18" /><path d="M 174.0 32.3 L 174.0 35.4 L 195.2 35.4" id="19,17" /><path d="M 192.0 47.3 L 192.0 53.0 L 196.6 53.0" id="18,16" /><path d="M 196.6 53.0 L 196.6 47.9 L 207.3 47.9" id="16,15" /><path d="M 196.6 53.0 L 196.6 58.1 L 204.9 58.1" id="16,14" /><path d="M 204.9 58.1 L 204.9 62.0 L 213.6 62.0" id="14,13" /><path d="M 213.6 62.0 L 213.6 65.6 L 217.8 65.6" id="13,12" /><path d="M 217.8 65.6 L 217.8 68.8 L 219.4 68.8" id="12,11" /><path d="M 174.0 32.3 L 174.0 29.2 L 243.0 29.2" id="19,10" /><path d="M 195.2 35.4 L 195.2 33.3 L 238.7 33.3" id="17,9" /><path d="M 195.2 35.4 L 195.2 37.5 L 241.3 37.5" id="17,8" /><path d="M 192.0 47.3 L 192.0 41.7 L 232.0 41.7" id="18,7" /><path d="M 207.3 47.9 L 207.3 45.8 L 247.5 45.8" id="15,6" /><path d="M 207.3 47.9 L 207.3 50.0 L 237.3 50.0" id="15,5" /><path d="M 204.9 58.1 L 204.9 54.2 L 237.4 54.2" id="14,4" /><path d="M 213.6 62.0 L 213.6 58.3 L 244.8 58.3" id="13,3" /><path d="M 217.8 65.6 L 217.8 62.5 L 238.3 62.5" id="12,2" /><path d="M 219.4 68.8 L 219.4 66.7 L 250.3 66.7" id="11,1" /><path d="M 219.4 68.8 L 219.4 70.8 L 243.6 70.8" id="11,0" /></g><g class="toytree-Nodes" style="fill:rgb(100%,0%,0%);fill-opacity:1.0;stroke:None;stroke-width:1"><g id="node-0" transform="translate(243.592,70.833)"><circle r="2.5" /></g><g id="node-1" transform="translate(250.263,66.667)"><circle r="2.5" /></g><g id="node-2" transform="translate(238.318,62.500)"><circle r="2.5" /></g><g id="node-3" transform="translate(244.774,58.333)"><circle r="2.5" /></g><g id="node-4" transform="translate(237.379,54.167)"><circle r="2.5" /></g><g id="node-5" transform="translate(237.287,50.000)"><circle r="2.5" /></g><g id="node-6" transform="translate(247.519,45.833)"><circle r="2.5" /></g><g id="node-7" transform="translate(231.962,41.667)"><circle r="2.5" /></g><g id="node-8" transform="translate(241.335,37.500)"><circle r="2.5" /></g><g id="node-9" transform="translate(238.654,33.333)"><circle r="2.5" /></g><g id="node-10" transform="translate(242.998,29.167)"><circle r="2.5" /></g><g id="node-11" transform="translate(219.372,68.750)"><circle r="0.0" /></g><g id="node-12" transform="translate(217.810,65.625)"><circle r="0.0" /></g><g id="node-13" transform="translate(213.557,61.979)"><circle r="0.0" /></g><g id="node-14" transform="translate(204.859,58.073)"><circle r="0.0" /></g><g id="node-15" transform="translate(207.338,47.917)"><circle r="0.0" /></g><g id="node-16" transform="translate(196.648,52.995)"><circle r="0.0" /></g><g id="node-17" transform="translate(195.175,35.417)"><circle r="0.0" /></g><g id="node-18" transform="translate(191.997,47.331)"><circle r="0.0" /></g><g id="node-19" transform="translate(173.953,32.292)"><circle r="0.0" /></g><g id="node-20" transform="translate(165.000,39.811)"><circle r="0.0" /></g></g></g></g></g><g class="toyplot-coordinates-Cartesian" id="t6618f5379e024e9d8bc79d649aa82657"><clipPath id="t792117fd348141938f3c4abeacc188d1"><rect x="295.0" y="15.0" width="110.0" height="70.0" /></clipPath><g clip-path="url(#t792117fd348141938f3c4abeacc188d1)"><g class="toytree-mark-Toytree" id="t76ffaa77aeec4aa58df68e7eed0a9084"><g class="toytree-Edges" style="fill:none;stroke:rgb(14.9%,14.9%,14.9%);stroke-linecap:round;stroke-opacity:1;stroke-width:0.5"><path d="M 305.0 41.9 L 305.0 32.3 L 325.8 32.3" id="20,19" /><path d="M 305.0 41.9 L 305.0 51.4 L 328.5 51.4" id="20,18" /><path d="M 325.8 32.3 L 325.8 35.4 L 327.1 35.4" id="19,17" /><path d="M 328.5 51.4 L 328.5 44.8 L 336.3 44.8" id="18,16" /><path d="M 328.5 51.4 L 328.5 58.1 L 333.0 58.1" id="18,15" /><path d="M 336.3 44.8 L 336.3 47.9 L 346.7 47.9" id="16,14" /><path d="M 333.0 58.1 L 333.0 62.0 L 344.5 62.0" id="15,13" /><path d="M 344.5 62.0 L 344.5 65.6 L 350.1 65.6" id="13,12" /><path d="M 350.1 65.6 L 350.1 68.8 L 361.0 68.8" id="12,11" /><path d="M 325.8 32.3 L 325.8 29.2 L 385.9 29.2" id="19,10" /><path d="M 327.1 35.4 L 327.1 33.3 L 376.2 33.3" id="17,9" /><path d="M 327.1 35.4 L 327.1 37.5 L 373.6 37.5" id="17,8" /><path d="M 336.3 44.8 L 336.3 41.7 L 373.4 41.7" id="16,7" /><path d="M 346.7 47.9 L 346.7 45.8 L 383.1 45.8" id="14,6" /><path d="M 346.7 47.9 L 346.7 50.0 L 390.3 50.0" id="14,5" /><path d="M 333.0 58.1 L 333.0 54.2 L 379.7 54.2" id="15,4" /><path d="M 344.5 62.0 L 344.5 58.3 L 368.0 58.3" id="13,3" /><path d="M 350.1 65.6 L 350.1 62.5 L 372.2 62.5" id="12,2" /><path d="M 361.0 68.8 L 361.0 66.7 L 379.7 66.7" id="11,1" /><path d="M 361.0 68.8 L 361.0 70.8 L 384.3 70.8" id="11,0" /></g><g class="toytree-Nodes" style="fill:rgb(100%,0%,0%);fill-opacity:1.0;stroke:None;stroke-width:1"><g id="node-0" transform="translate(384.288,70.833)"><circle r="2.5" /></g><g id="node-1" transform="translate(379.658,66.667)"><circle r="2.5" /></g><g id="node-2" transform="translate(372.240,62.500)"><circle r="2.5" /></g><g id="node-3" transform="translate(368.003,58.333)"><circle r="2.5" /></g><g id="node-4" transform="translate(379.698,54.167)"><circle r="2.5" /></g><g id="node-5" transform="translate(390.263,50.000)"><circle r="2.5" /></g><g id="node-6" transform="translate(383.118,45.833)"><circle r="2.5" /></g><g id="node-7" transform="translate(373.442,41.667)"><circle r="2.5" /></g><g id="node-8" transform="translate(373.629,37.500)"><circle r="2.5" /></g><g id="node-9" transform="translate(376.208,33.333)"><circle r="2.5" /></g><g id="node-10" transform="translate(385.893,29.167)"><circle r="2.5" /></g><g id="node-11" transform="translate(361.026,68.750)"><circle r="0.0" /></g><g id="node-12" transform="translate(350.052,65.625)"><circle r="0.0" /></g><g id="node-13" transform="translate(344.509,61.979)"><circle r="0.0" /></g><g id="node-14" transform="translate(346.680,47.917)"><circle r="0.0" /></g><g id="node-15" transform="translate(333.006,58.073)"><circle r="0.0" /></g><g id="node-16" transform="translate(336.290,44.792)"><circle r="0.0" /></g><g id="node-17" transform="translate(327.098,35.417)"><circle r="0.0" /></g><g id="node-18" transform="translate(328.480,51.432)"><circle r="0.0" /></g><g id="node-19" transform="translate(325.816,32.292)"><circle r="0.0" /></g><g id="node-20" transform="translate(305.000,41.862)"><circle r="0.0" /></g></g></g></g></g><g class="toyplot-coordinates-Cartesian" id="tc0690b01a7a8412b8750fb5fd1ab62aa"><clipPath id="t48400348bf3046ada42e0e7ed3dfdf31"><rect x="435.0" y="15.0" width="110.0" height="70.0" /></clipPath><g clip-path="url(#t48400348bf3046ada42e0e7ed3dfdf31)"><g class="toytree-mark-Toytree" id="tbec3b85e4c4948daa147657d4d3eca6a"><g class="toytree-Edges" style="fill:none;stroke:rgb(14.9%,14.9%,14.9%);stroke-linecap:round;stroke-opacity:1;stroke-width:0.5"><path d="M 445.0 40.4 L 445.0 32.3 L 466.0 32.3" id="20,19" /><path d="M 445.0 40.4 L 445.0 48.6 L 455.1 48.6" id="20,18" /><path d="M 466.0 32.3 L 466.0 35.4 L 475.8 35.4" id="19,17" /><path d="M 455.1 48.6 L 455.1 55.5 L 464.1 55.5" id="18,16" /><path d="M 464.1 55.5 L 464.1 49.0 L 476.5 49.0" id="16,15" /><path d="M 464.1 55.5 L 464.1 62.0 L 487.1 62.0" id="16,14" /><path d="M 476.5 49.0 L 476.5 52.1 L 489.3 52.1" id="15,13" /><path d="M 487.1 62.0 L 487.1 65.6 L 494.0 65.6" id="14,12" /><path d="M 494.0 65.6 L 494.0 68.8 L 503.8 68.8" id="12,11" /><path d="M 466.0 32.3 L 466.0 29.2 L 497.6 29.2" id="19,10" /><path d="M 475.8 35.4 L 475.8 33.3 L 517.4 33.3" id="17,9" /><path d="M 475.8 35.4 L 475.8 37.5 L 512.2 37.5" id="17,8" /><path d="M 455.1 48.6 L 455.1 41.7 L 488.4 41.7" id="18,7" /><path d="M 476.5 49.0 L 476.5 45.8 L 501.9 45.8" id="15,6" /><path d="M 489.3 52.1 L 489.3 50.0 L 530.3 50.0" id="13,5" /><path d="M 489.3 52.1 L 489.3 54.2 L 512.1 54.2" id="13,4" /><path d="M 487.1 62.0 L 487.1 58.3 L 500.3 58.3" id="14,3" /><path d="M 494.0 65.6 L 494.0 62.5 L 513.2 62.5" id="12,2" /><path d="M 503.8 68.8 L 503.8 66.7 L 519.7 66.7" id="11,1" /><path d="M 503.8 68.8 L 503.8 70.8 L 516.7 70.8" id="11,0" /></g><g class="toytree-Nodes" style="fill:rgb(100%,0%,0%);fill-opacity:1.0;stroke:None;stroke-width:1"><g id="node-0" transform="translate(516.736,70.833)"><circle r="2.5" /></g><g id="node-1" transform="translate(519.673,66.667)"><circle r="2.5" /></g><g id="node-2" transform="translate(513.172,62.500)"><circle r="2.5" /></g><g id="node-3" transform="translate(500.288,58.333)"><circle r="2.5" /></g><g id="node-4" transform="translate(512.089,54.167)"><circle r="2.5" /></g><g id="node-5" transform="translate(530.263,50.000)"><circle r="2.5" /></g><g id="node-6" transform="translate(501.877,45.833)"><circle r="2.5" /></g><g id="node-7" transform="translate(488.407,41.667)"><circle r="2.5" /></g><g id="node-8" transform="translate(512.189,37.500)"><circle r="2.5" /></g><g id="node-9" transform="translate(517.429,33.333)"><circle r="2.5" /></g><g id="node-10" transform="translate(497.552,29.167)"><circle r="2.5" /></g><g id="node-11" transform="translate(503.828,68.750)"><circle r="0.0" /></g><g id="node-12" transform="translate(494.007,65.625)"><circle r="0.0" /></g><g id="node-13" transform="translate(489.341,52.083)"><circle r="0.0" /></g><g id="node-14" transform="translate(487.093,61.979)"><circle r="0.0" /></g><g id="node-15" transform="translate(476.522,48.958)"><circle r="0.0" /></g><g id="node-16" transform="translate(464.096,55.469)"><circle r="0.0" /></g><g id="node-17" transform="translate(475.779,35.417)"><circle r="0.0" /></g><g id="node-18" transform="translate(455.145,48.568)"><circle r="0.0" /></g><g id="node-19" transform="translate(466.019,32.292)"><circle r="0.0" /></g><g id="node-20" transform="translate(445.000,40.430)"><circle r="0.0" /></g></g></g></g></g></svg>