<svg class="toyplot-canvas-Canvas" xmlns:toyplot="http://www.sandia.gov/toyplot" xmlns:xlink="http://www.w3.org/1999/xlink" xmlns="http://www.w3.org/2000/svg" width="560.0px" height="100.0px" viewBox="0 0 560.0 100.0" preserveAspectRatio="xMidYMid meet" style="background-color:transparent;border-color:#292724;border-style:none;border-width:1.0;fill:rgb(16.1%,15.3%,14.1%);fill-opacity:1.0;font-family:Helvetica;font-size:12px;opacity:1.0;stroke:rgb(16.1%,15.3%,14.1%);stroke-opacity:1.0;stroke-width:1.0" id="tac28e35567e34be2bbc38eb80d7b2a13"><g class="toyplot-coordinates-Cartesian" id="t525a0a679b09435facb4c9610e6b4830"><clipPath id="td397089195454e03bdd64690321fab76"><rect x="15.0" y="15.0" width="110.0" height="70.0" /></clipPath><g clip-path="url(#td397089195454e03bdd64690321fab76)"><g class="toytree-mark-Toytree" id="t881cf94635664cbcbeda76bbab6b7ebe"><g class="toytree-Edges" style="fill:none;stroke:rgb(14.9%,14.9%,14.9%);stroke-linecap:round;stroke-opacity:1;stroke-width:0.5"><path d="M 25.0 44.8 L 25.0 60.4 L 74.5 60.4" id="4,3" /><path d="M 25.0 44.8 L 25.0 29.2 L 105.9 29.2" id="4,2" /><path d="M 74.5 60.4 L 74.5 50.0 L 101.9 50.0" id="3,1" /><path d="M 74.5 60.4 L 74.5 70.8 L 110.3 70.8" id="3,0" /></g><g class="toytree-Nodes" style="fill:rgb(100%,0%,0%);fill-opacity:1.0;stroke:None;stroke-width:1"><g id="node-0" transform="translate(110.263,70.833)"><circle r="2.5" /></g><g id="node-1" transform="translate(101.927,50.000)"><circle r="2.5" /></g><g id="node-2" transform="translate(105.882,29.167)"><circle r="2.5" /></g><g id="node-3" transform="translate(74.476,60.417)"><circle r="0.0" /></g><g id="node-4" transform="translate(25.000,44.792)"><circle r="0.0" /></g></g></g></g></g><g class="toyplot-coordinates-Cartesian" id="t1372584d4ad045e396e07e15c05f1965"><clipPath id="t8d689417c1574b78af0402179f2119a1"><rect x="155.0" y="15.0" width="110.0" height="70.0" /></clipPath><g clip-path="url(#t8d689417c1574b78af0402179f2119a1)"><g class="toytree-mark-Toytree" id="t94a67327f61d4efbb37b1d156af2cdd3"><g class="toytree-Edges" style="fill:none;stroke:rgb(14.9%,14.9%,14.9%);stroke-linecap:round;stroke-opacity:1;stroke-width:0.5"><path d="M 165.0 44.8 L 165.0 60.4 L 186.9 60.4" id="4,3" /><path d="M 165.0 44.8 L 165.0 29.2 L 241.7 29.2" id="4,2" /><path d="M 186.9 60.4 L 186.9 50.0 L 250.3 50.0" id="3,1" /><path d="M 186.9 60.4 L 186.9 70.8 L 234.7 70.8" id="3,0" /></g><g class="toytree-Nodes" style="fill:rgb(100%,0%,0%);fill-opacity:1.0;stroke:None;stroke-width:1"><g id="node-0" transform="translate(234.730,70.833)"><circle r="2.5" /></g><g id="node-1" transform="translate(250.263,50.000)"><circle r="2.5" /></g><g id="node-2" transform="translate(241.712,29.167)"><circle r="2.5" /></g><g id="node-3" transform="translate(186.930,60.417)"><circle r="0.0" /></g><g id="node-4" transform="translate(165.000,44.792)"><circle r="0.0" /></g></g></g></g></g><g class="toyplot-coordinates-Cartesian" id="tb974b919a523416a9fbd32b3c550d0a1"><clipPath id="td7014c2dd4214fdbb8de103500bf8984"><rect x="295.0" y="15.0" width="110.0" height="70.0" /></clipPath><g clip-path="url(#td7014c2dd4214fdbb8de103500bf8984)"><g class="toytree-mark-Toytree" id="t25f955aa5b774acbb7780a4f97eb1532"><g class="toytree-Edges" style="fill:none;stroke:rgb(14.9%,14.9%,14.9%);stroke-linecap:round;stroke-opacity:1;stroke-width:0.5"><path d="M 305.0 44.8 L 305.0 60.4 L 350.6 60.4" id="4,3" /><path d="M 305.0 44.8 L 305.0 29.2 L 378.5 29.2" id="4,2" /><path d="M 350.6 60.4 L 350.6 50.0 L 390.3 50.0" id="3,1" /><path d="M 350.6 60.4 L 350.6 70.8 L 369.6 70.8" id="3,0" /></g><g class="toytree-Nodes" style="fill:rgb(100%,0%,0%);fill-opacity:1.0;stroke:None;stroke-width:1"><g id="node-0" transform="translate(369.603,70.833)"><circle r="2.5" /></g><g id="node-1" transform="translate(390.263,50.000)"><circle r="2.5" /></g><g id="node-2" transform="translate(378.495,29.167)"><circle r="2.5" /></g><g id="node-3" transform="translate(350.634,60.417)"><circle r="0.0" /></g><g id="node-4" transform="translate(305.000,44.792)"><circle r="0.0" /></g></g></g></g></g><g class="toyplot-coordinates-Cartesian" id="td0df890e89294a79999510ed4ed5282f"><clipPath id="tf19027956b7040729d92e0ec289e338d"><rect x="435.0" y="15.0" width="110.0" height="70.0" /></clipPath><g clip-path="url(#tf19027956b7040729d92e0ec289e338d)"><g class="toytree-mark-Toytree" id="t6c008dc34c1444f5a6c9011dc6665c5c"><g class="toytree-Edges" style="fill:none;stroke:rgb(14.9%,14.9%,14.9%);stroke-linecap:round;stroke-opacity:1;stroke-width:0.5"><path d="M 445.0 44.8 L 445.0 60.4 L 502.8 60.4" id="4,3" /><path d="M 445.0 44.8 L 445.0 29.2 L 528.3 29.2" id="4,2" /><path d="M 502.8 60.4 L 502.8 50.0 L 526.5 50.0" id="3,1" /><path d="M 502.8 60.4 L 502.8 70.8 L 530.3 70.8" id="3,0" /></g><g class="toytree-Nodes" style="fill:rgb(100%,0%,0%);fill-opacity:1.0;stroke:None;stroke-width:1"><g id="node-0" transform="translate(530.263,70.833)"><circle r="2.5" /></g><g id="node-1" transform="translate(526.468,50.000)"><circle r="2.5" /></g><g id="node-2" transform="translate(528.322,29.167)"><circle r="2.5" /></g><g id="node-3" transform="translate(502.803,60.417)"><circle r="0.0" /></g><g id="node-4" transform="translate(445.000,44.792)"><circle r="0.0" /></g></g></g></g></g></svg>