<svg class="toyplot-canvas-Canvas" xmlns:toyplot="http://www.sandia.gov/toyplot" xmlns:xlink="http://www.w3.org/1999/xlink" xmlns="http://www.w3.org/2000/svg" width="560.0px" height="100.0px" viewBox="0 0 560.0 100.0" preserveAspectRatio="xMidYMid meet" style="background-color:transparent;border-color:#292724;border-style:none;border-width:1.0;fill:rgb(16.1%,15.3%,14.1%);fill-opacity:1.0;font-family:Helvetica;font-size:12px;opacity:1.0;stroke:rgb(16.1%,15.3%,14.1%);stroke-opacity:1.0;stroke-width:1.0" id="td12c6318aced4aafb5916f058bd8ce6d"><g class="toyplot-coordinates-Cartesian" id="tee7fb1cc9dc6431eb66210a01c0c21d4"><clipPath id="tc5c4cf3f4dad4f5a8ff81041e1305692"><rect x="15.0" y="15.0" width="110.0" height="70.0" /></clipPath><g clip-path="url(#tc5c4cf3f4dad4f5a8ff81041e1305692)"><g class="toytree-mark-Toytree" id="t6f1af84e91154ee180b1cf831f91117c"><g class="toytree-Edges" style="fill:none;stroke:rgb(14.9%,14.9%,14.9%);stroke-linecap:round;stroke-opacity:1;stroke-width:0.5"><path d="M 25.0 43.3 L 25.0 33.1 L 25.8 33.1" id="16,15" /><path d="M 25.0 43.3 L 25.0 53.6 L 49.8 53.6" id="16,14" /><path d="M 25.8 33.1 L 25.8 37.0 L 31.5 37.0" id="15,13" /><path d="M 49.8 53.6 L 49.8 47.4 L 71.6 47.4" id="14,12" /><path d="M 49.8 53.6 L 49.8 59.8 L 60.4 59.8" id="14,11" /><path d="M 60.4 59.8 L 60.4 64.3 L 101.6 64.3" id="11,10" /><path d="M 101.6 64.3 L 101.6 68.2 L 104.8 68.2" id="10,9" /><path d="M 25.8 33.1 L 25.8 29.2 L 105.6 29.2" id="15,8" /><path d="M 31.5 37.0 L 31.5 34.4 L 108.6 34.4" id="13,7" /><path d="M 31.5 37.0 L 31.5 39.6 L 104.9 39.6" id="13,6" /><path d="M 71.6 47.4 L 71.6 44.8 L 103.2 44.8" id="12,5" /><path d="M 71.6 47.4 L 71.6 50.0 L 106.4 50.0" id="12,4" /><path d="M 60.4 59.8 L 60.4 55.2 L 110.3 55.2" id="11,3" /><path d="M 101.6 64.3 L 101.6 60.4 L 104.1 60.4" id="10,2" /><path d="M 104.8 68.2 L 104.8 65.6 L 106.6 65.6" id="9,1" /><path d="M 104.8 68.2 L 104.8 70.8 L 108.0 70.8" id="9,0" /></g><g class="toytree-Nodes" style="fill:rgb(100%,0%,0%);fill-opacity:1.0;stroke:None;stroke-width:1"><g id="node-0" transform="translate(107.998,70.833)"><circle r="2.5" /></g><g id="node-1" transform="translate(106.635,65.625)"><circle r="2.5" /></g><g id="node-2" transform="translate(104.079,60.417)"><circle r="2.5" /></g><g id="node-3" transform="translate(110.263,55.208)"><circle r="2.5" /></g><g id="node-4" transform="translate(106.368,50.000)"><circle r="2.5" /></g><g id="node-5" transform="translate(103.195,44.792)"><circle r="2.5" /></g><g id="node-6" transform="translate(104.926,39.583)"><circle r="2.5" /></g><g id="node-7" transform="translate(108.620,34.375)"><circle r="2.5" /></g><g id="node-8" transform="translate(105.615,29.167)"><circle r="2.5" /></g><g id="node-9" transform="translate(104.831,68.229)"><circle r="0.0" /></g><g id="node-10" transform="translate(101.634,64.323)"><circle r="0.0" /></g><g id="node-11" transform="translate(60.402,59.766)"><circle r="0.0" /></g><g id="node-12" transform="translate(71.647,47.396)"><circle r="0.0" /></g><g id="node-13" transform="translate(31.496,36.979)"><circle r="0.0" /></g><g id="node-14" transform="translate(49.843,53.581)"><circle r="0.0" /></g><g id="node-15" transform="translate(25.766,33.073)"><circle r="0.0" /></g><g id="node-16" transform="translate(25.000,43.327)"><circle r="0.0" /></g></g></g></g></g><g class="toyplot-coordinates-Cartesian" id="tf527ca7170574991aeae1b8e49e7763e"><clipPath id="tb5512e18551d4b21b8de48b1982677b0"><rect x="155.0" y="15.0" width="110.0" height="70.0" /></clipPath><g clip-path="url(#tb5512e18551d4b21b8de48b1982677b0)"><g class="toytree-mark-Toytree" id="tccf66cd0ac1a4dfdac203ee54a91e7ee"><g class="toytree-Edges" style="fill:none;stroke:rgb(14.9%,14.9%,14.9%);stroke-linecap:round;stroke-opacity:1;stroke-width:0.5"><path d="M 165.0 42.4 L 165.0 33.1 L 175.3 33.1" id="16,15" /><path d="M 165.0 42.4 L 165.0 51.6 L 184.3 51.6" id="16,14" /><path d="M 175.3 33.1 L 175.3 37.0 L 178.3 37.0" id="15,13" /><path d="M 184.3 51.6 L 184.3 58.5 L 188.7 58.5" id="14,12" /><path d="M 188.7 58.5 L 188.7 52.6 L 203.6 52.6" id="12,11" /><path d="M 188.7 58.5 L 188.7 64.3 L 217.1 64.3" id="12,10" /><path d="M 217.1 64.3 L 217.1 68.2 L 226.4 68.2" id="10,9" /><path d="M 175.3 33.1 L 175.3 29.2 L 244.7 29.2" id="15,8" /><path d="M 178.3 37.0 L 178.3 34.4 L 250.3 34.4" id="13,7" /><path d="M 178.3 37.0 L 178.3 39.6 L 218.0 39.6" id="13,6" /><path d="M 184.3 51.6 L 184.3 44.8 L 234.5 44.8" id="14,5" /><path d="M 203.6 52.6 L 203.6 50.0 L 233.0 50.0" id="11,4" /><path d="M 203.6 52.6 L 203.6 55.2 L 221.6 55.2" id="11,3" /><path d="M 217.1 64.3 L 217.1 60.4 L 236.9 60.4" id="10,2" /><path d="M 226.4 68.2 L 226.4 65.6 L 238.6 65.6" id="9,1" /><path d="M 226.4 68.2 L 226.4 70.8 L 248.9 70.8" id="9,0" /></g><g class="toytree-Nodes" style="fill:rgb(100%,0%,0%);fill-opacity:1.0;stroke:None;stroke-width:1"><g id="node-0" transform="translate(248.919,70.833)"><circle r="2.5" /></g><g id="node-1" transform="translate(238.568,65.625)"><circle r="2.5" /></g><g id="node-2" transform="translate(236.916,60.417)"><circle r="2.5" /></g><g id="node-3" transform="translate(221.592,55.208)"><circle r="2.5" /></g><g id="node-4" transform="translate(233.048,50.000)"><circle r="2.5" /></g><g id="node-5" transform="translate(234.467,44.792)"><circle r="2.5" /></g><g id="node-6" transform="translate(218.030,39.583)"><circle r="2.5" /></g><g id="node-7" transform="translate(250.263,34.375)"><circle r="2.5" /></g><g id="node-8" transform="translate(244.731,29.167)"><circle r="2.5" /></g><g id="node-9" transform="translate(226.415,68.229)"><circle r="0.0" /></g><g id="node-10" transform="translate(217.118,64.323)"><circle r="0.0" /></g><g id="node-11" transform="translate(203.621,52.604)"><circle r="0.0" /></g><g id="node-12" transform="translate(188.741,58.464)"><circle r="0.0" /></g><g id="node-13" transform="translate(178.323,36.979)"><circle r="0.0" /></g><g id="node-14" transform="translate(184.313,51.628)"><circle r="0.0" /></g><g id="node-15" transform="translate(175.251,33.073)"><circle r="0.0" /></g><g id="node-16" transform="translate(165.000,42.350)"><circle r="0.0" /></g></g></g></g></g><g class="toyplot-coordinates-Cartesian" id="te1bdca2e7d8448dd9d6661c24087a528"><clipPath id="tb5eec1d3898643c88ee0683499a96f52"><rect x="295.0" y="15.0" width="110.0" height="70.0" /></clipPath><g clip-path="url(#tb5eec1d3898643c88ee0683499a96f52)"><g class="toytree-mark-Toytree" id="t1cc03088a2cd43a98a2747277a9a8630"><g class="toytree-Edges" style="fill:none;stroke:rgb(14.9%,14.9%,14.9%);stroke-linecap:round;stroke-opacity:1;stroke-width:0.5"><path d="M 305.0 44.8 L 305.0 33.1 L 308.0 33.1" id="16,15" /><path d="M 305.0 44.8 L 305.0 56.5 L 333.4 56.5" id="16,14" /><path d="M 308.0 33.1 L 308.0 37.0 L 313.6 37.0" id="15,13" /><path d="M 333.4 56.5 L 333.4 48.7 L 337.7 48.7" id="14,12" /><path d="M 333.4 56.5 L 333.4 64.3 L 363.0 64.3" id="14,11" /><path d="M 337.7 48.7 L 337.7 52.6 L 357.7 52.6" id="12,10" /><path d="M 363.0 64.3 L 363.0 68.2 L 365.6 68.2" id="11,9" /><path d="M 308.0 33.1 L 308.0 29.2 L 386.8 29.2" id="15,8" /><path d="M 313.6 37.0 L 313.6 34.4 L 386.6 34.4" id="13,7" /><path d="M 313.6 37.0 L 313.6 39.6 L 374.1 39.6" id="13,6" /><path d="M 337.7 48.7 L 337.7 44.8 L 376.4 44.8" id="12,5" /><path d="M 357.7 52.6 L 357.7 50.0 L 386.9 50.0" id="10,4" /><path d="M 357.7 52.6 L 357.7 55.2 L 390.3 55.2" id="10,3" /><path d="M 363.0 64.3 L 363.0 60.4 L 377.0 60.4" id="11,2" /><path d="M 365.6 68.2 L 365.6 65.6 L 376.6 65.6" id="9,1" /><path d="M 365.6 68.2 L 365.6 70.8 L 387.5 70.8" id="9,0" /></g><g class="toytree-Nodes" style="fill:rgb(100%,0%,0%);fill-opacity:1.0;stroke:None;stroke-width:1"><g id="node-0" transform="translate(387.541,70.833)"><circle r="2.5" /></g><g id="node-1" transform="translate(376.611,65.625)"><circle r="2.5" /></g><g id="node-2" transform="translate(377.025,60.417)"><circle r="2.5" /></g><g id="node-3" transform="translate(390.263,55.208)"><circle r="2.5" /></g><g id="node-4" transform="translate(386.875,50.000)"><circle r="2.5" /></g><g id="node-5" transform="translate(376.385,44.792)"><circle r="2.5" /></g><g id="node-6" transform="translate(374.092,39.583)"><circle r="2.5" /></g><g id="node-7" transform="translate(386.596,34.375)"><circle r="2.5" /></g><g id="node-8" transform="translate(386.753,29.167)"><circle r="2.5" /></g><g id="node-9" transform="translate(365.633,68.229)"><circle r="0.0" /></g><g id="node-10" transform="translate(357.651,52.604)"><circle r="0.0" /></g><g id="node-11" transform="translate(362.990,64.323)"><circle r="0.0" /></g><g id="node-12" transform="translate(337.673,48.698)"><circle r="0.0" /></g><g id="node-13" transform="translate(313.630,36.979)"><circle r="0.0" /></g><g id="node-14" transform="translate(333.425,56.510)"><circle r="0.0" /></g><g id="node-15" transform="translate(308.049,33.073)"><circle r="0.0" /></g><g id="node-16" transform="translate(305.000,44.792)"><circle r="0.0" /></g></g></g></g></g><g class="toyplot-coordinates-Cartesian" id="t3d61e3d9d75c46179d14130c3e329f8e"><clipPath id="taf4e337cf9f74df6bf3c68eec6840e2a"><rect x="435.0" y="15.0" width="110.0" height="70.0" /></clipPath><g clip-path="url(#taf4e337cf9f74df6bf3c68eec6840e2a)"><g class="toytree-mark-Toytree" id="tbd574707b38a496489df592fef723b71"><g class="toytree-Edges" style="fill:none;stroke:rgb(14.9%,14.9%,14.9%);stroke-linecap:round;stroke-opacity:1;stroke-width:0.5"><path d="M 445.0 43.3 L 445.0 33.1 L 455.6 33.1" id="16,15" /><path d="M 445.0 43.3 L 445.0 53.6 L 495.3 53.6" id="16,14" /><path d="M 455.6 33.1 L 455.6 37.0 L 473.6 37.0" id="15,13" /><path d="M 495.3 53.6 L 495.3 47.4 L 506.0 47.4" id="14,12" /><path d="M 495.3 53.6 L 495.3 59.8 L 505.7 59.8" id="14,11" /><path d="M 505.7 59.8 L 505.7 64.3 L 516.7 64.3" id="11,10" /><path d="M 516.7 64.3 L 516.7 68.2 L 522.3 68.2" id="10,9" /><path d="M 455.6 33.1 L 455.6 29.2 L 514.2 29.2" id="15,8" /><path d="M 473.6 37.0 L 473.6 34.4 L 518.1 34.4" id="13,7" /><path d="M 473.6 37.0 L 473.6 39.6 L 530.3 39.6" id="13,6" /><path d="M 506.0 47.4 L 506.0 44.8 L 519.3 44.8" id="12,5" /><path d="M 506.0 47.4 L 506.0 50.0 L 515.1 50.0" id="12,4" /><path d="M 505.7 59.8 L 505.7 55.2 L 526.0 55.2" id="11,3" /><path d="M 516.7 64.3 L 516.7 60.4 L 516.7 60.4" id="10,2" /><path d="M 522.3 68.2 L 522.3 65.6 L 522.5 65.6" id="9,1" /><path d="M 522.3 68.2 L 522.3 70.8 L 522.9 70.8" id="9,0" /></g><g class="toytree-Nodes" style="fill:rgb(100%,0%,0%);fill-opacity:1.0;stroke:None;stroke-width:1"><g id="node-0" transform="translate(522.877,70.833)"><circle r="2.5" /></g><g id="node-1" transform="translate(522.504,65.625)"><circle r="2.5" /></g><g id="node-2" transform="translate(516.750,60.417)"><circle r="2.5" /></g><g id="node-3" transform="translate(526.032,55.208)"><circle r="2.5" /></g><g id="node-4" transform="translate(515.125,50.000)"><circle r="2.5" /></g><g id="node-5" transform="translate(519.287,44.792)"><circle r="2.5" /></g><g id="node-6" transform="translate(530.263,39.583)"><circle r="2.5" /></g><g id="node-7" transform="translate(518.070,34.375)"><circle r="2.5" /></g><g id="node-8" transform="translate(514.186,29.167)"><circle r="2.5" /></g><g id="node-9" transform="translate(522.275,68.229)"><circle r="0.0" /></g><g id="node-10" transform="translate(516.750,64.323)"><circle r="0.0" /></g><g id="node-11" transform="translate(505.698,59.766)"><circle r="0.0" /></g><g id="node-12" transform="translate(506.047,47.396)"><circle r="0.0" /></g><g id="node-13" transform="translate(473.576,36.979)"><circle r="0.0" /></g><g id="node-14" transform="translate(495.278,53.581)"><circle r="0.0" /></g><g id="node-15" transform="translate(455.562,33.073)"><circle r="0.0" /></g><g id="node-16" transform="translate(445.000,43.327)"><circle r="0.0" /></g></g></g></g></g></svg>