<svg class="toyplot-canvas-Canvas" xmlns:toyplot="http://www.sandia.gov/toyplot" xmlns:xlink="http://www.w3.org/1999/xlink" xmlns="http://www.w3.org/2000/svg" width="560.0px" height="100.0px" viewBox="0 0 560.0 100.0" preserveAspectRatio="xMidYMid meet" style="background-color:transparent;border-color:#292724;border-style:none;border-width:1.0;fill:rgb(16.1%,15.3%,14.1%);fill-opacity:1.0;font-family:Helvetica;font-size:12px;opacity:1.0;stroke:rgb(16.1%,15.3%,14.1%);stroke-opacity:1.0;stroke-width:1.0" id="td46afe8da70041828983edf25a970b93"><g class="toyplot-coordinates-Cartesian" id="t4a10d74daef74cc58d3e31f0f5ad0c1e"><clipPath id="t136c9441aac2496f950c17bf46bbb1eb"><rect x="15.0" y="15.0" width="110.0" height="70.0" /></clipPath><g clip-path="url(#t136c9441aac2496f950c17bf46bbb1eb)"><g class="toytree-mark-Toytree" id="tfde1b8317f7e4d1ba7fea2f337fecb84"><g class="toytree-Edges" style="fill:none;stroke:rgb(14.9%,14.9%,14.9%);stroke-linecap:round;stroke-opacity:1;stroke-width:0.5"><path d="M 25.0 43.1 L 25.0 33.6 L 30.7 33.6" id="14,13" /><path d="M 25.0 43.1 L 25.0 52.6 L 32.1 52.6" id="14,12" /><path d="M 30.7 33.6 L 30.7 38.1 L 66.1 38.1" id="13,11" /><path d="M 32.1 52.6 L 32.1 58.2 L 79.7 58.2" id="12,10" /><path d="M 79.7 58.2 L 79.7 63.4 L 104.9 63.4" id="10,9" /><path d="M 104.9 63.4 L 104.9 67.9 L 104.9 67.9" id="9,8" /><path d="M 30.7 33.6 L 30.7 29.2 L 106.3 29.2" id="13,7" /><path d="M 66.1 38.1 L 66.1 35.1 L 103.4 35.1" id="11,6" /><path d="M 66.1 38.1 L 66.1 41.1 L 108.7 41.1" id="11,5" /><path d="M 32.1 52.6 L 32.1 47.0 L 110.3 47.0" id="12,4" /><path d="M 79.7 58.2 L 79.7 53.0 L 103.4 53.0" id="10,3" /><path d="M 104.9 63.4 L 104.9 58.9 L 104.9 58.9" id="9,2" /><path d="M 104.9 67.9 L 104.9 64.9 L 104.9 64.9" id="8,1" /><path d="M 104.9 67.9 L 104.9 70.8 L 104.9 70.8" id="8,0" /></g><g class="toytree-Nodes" style="fill:rgb(100%,0%,0%);fill-opacity:1.0;stroke:None;stroke-width:1"><g id="node-0" transform="translate(104.928,70.833)"><circle r="2.5" /></g><g id="node-1" transform="translate(104.928,64.881)"><circle r="2.5" /></g><g id="node-2" transform="translate(104.928,58.929)"><circle r="2.5" /></g><g id="node-3" transform="translate(103.393,52.976)"><circle r="2.5" /></g><g id="node-4" transform="translate(110.263,47.024)"><circle r="2.5" /></g><g id="node-5" transform="translate(108.673,41.071)"><circle r="2.5" /></g><g id="node-6" transform="translate(103.421,35.119)"><circle r="2.5" /></g><g id="node-7" transform="translate(106.346,29.167)"><circle r="2.5" /></g><g id="node-8" transform="translate(104.928,67.857)"><circle r="0.0" /></g><g id="node-9" transform="translate(104.928,63.393)"><circle r="0.0" /></g><g id="node-10" transform="translate(79.739,58.185)"><circle r="0.0" /></g><g id="node-11" transform="translate(66.096,38.095)"><circle r="0.0" /></g><g id="node-12" transform="translate(32.127,52.604)"><circle r="0.0" /></g><g id="node-13" transform="translate(30.717,33.631)"><circle r="0.0" /></g><g id="node-14" transform="translate(25.000,43.118)"><circle r="0.0" /></g></g></g></g></g><g class="toyplot-coordinates-Cartesian" id="tf003dfe6f18148859aa4ba3105fb9be8"><clipPath id="t0d62a11ffc4641f09bc76ae0c79c6699"><rect x="155.0" y="15.0" width="110.0" height="70.0" /></clipPath><g clip-path="url(#t0d62a11ffc4641f09bc76ae0c79c6699)"><g class="toytree-mark-Toytree" id="t79613cb1215642f4b2403ad0c4da0557"><g class="toytree-Edges" style="fill:none;stroke:rgb(14.9%,14.9%,14.9%);stroke-linecap:round;stroke-opacity:1;stroke-width:0.5"><path d="M 165.0 40.0 L 165.0 32.1 L 227.7 32.1" id="14,13" /><path d="M 165.0 40.0 L 165.0 47.8 L 168.0 47.8" id="14,12" /><path d="M 168.0 47.8 L 168.0 54.5 L 168.5 54.5" id="12,11" /><path d="M 168.5 54.5 L 168.5 61.9 L 236.3 61.9" id="11,10" /><path d="M 236.3 61.9 L 236.3 56.0 L 238.5 56.0" id="10,9" /><path d="M 236.3 61.9 L 236.3 67.9 L 237.2 67.9" id="10,8" /><path d="M 227.7 32.1 L 227.7 29.2 L 241.7 29.2" id="13,7" /><path d="M 227.7 32.1 L 227.7 35.1 L 245.6 35.1" id="13,6" /><path d="M 168.0 47.8 L 168.0 41.1 L 248.4 41.1" id="12,5" /><path d="M 168.5 54.5 L 168.5 47.0 L 250.3 47.0" id="11,4" /><path d="M 238.5 56.0 L 238.5 53.0 L 238.5 53.0" id="9,3" /><path d="M 238.5 56.0 L 238.5 58.9 L 239.4 58.9" id="9,2" /><path d="M 237.2 67.9 L 237.2 64.9 L 242.9 64.9" id="8,1" /><path d="M 237.2 67.9 L 237.2 70.8 L 243.6 70.8" id="8,0" /></g><g class="toytree-Nodes" style="fill:rgb(100%,0%,0%);fill-opacity:1.0;stroke:None;stroke-width:1"><g id="node-0" transform="translate(243.602,70.833)"><circle r="2.5" /></g><g id="node-1" transform="translate(242.921,64.881)"><circle r="2.5" /></g><g id="node-2" transform="translate(239.426,58.929)"><circle r="2.5" /></g><g id="node-3" transform="translate(238.507,52.976)"><circle r="2.5" /></g><g id="node-4" transform="translate(250.263,47.024)"><circle r="2.5" /></g><g id="node-5" transform="translate(248.383,41.071)"><circle r="2.5" /></g><g id="node-6" transform="translate(245.622,35.119)"><circle r="2.5" /></g><g id="node-7" transform="translate(241.711,29.167)"><circle r="2.5" /></g><g id="node-8" transform="translate(237.197,67.857)"><circle r="0.0" /></g><g id="node-9" transform="translate(238.507,55.952)"><circle r="0.0" /></g><g id="node-10" transform="translate(236.268,61.905)"><circle r="0.0" /></g><g id="node-11" transform="translate(168.455,54.464)"><circle r="0.0" /></g><g id="node-12" transform="translate(167.961,47.768)"><circle r="0.0" /></g><g id="node-13" transform="translate(227.702,32.143)"><circle r="0.0" /></g><g id="node-14" transform="translate(165.000,39.955)"><circle r="0.0" /></g></g></g></g></g><g class="toyplot-coordinates-Cartesian" id="t71fb878f58624d39b1b201c865a34e19"><clipPath id="t1af8ba5ca5d54dfaa507b3ea8369785c"><rect x="295.0" y="15.0" width="110.0" height="70.0" /></clipPath><g clip-path="url(#t1af8ba5ca5d54dfaa507b3ea8369785c)"><g class="toytree-mark-Toytree" id="tb5fff55a95d3431b82a66ad57810aa8e"><g class="toytree-Edges" style="fill:none;stroke:rgb(14.9%,14.9%,14.9%);stroke-linecap:round;stroke-opacity:1;stroke-width:0.5"><path d="M 305.0 39.5 L 305.0 32.1 L 352.6 32.1" id="14,13" /><path d="M 305.0 39.5 L 305.0 46.8 L 316.2 46.8" id="14,12" /><path d="M 316.2 46.8 L 316.2 52.6 L 319.1 52.6" id="12,11" /><path d="M 319.1 52.6 L 319.1 58.2 L 369.8 58.2" id="11,10" /><path d="M 369.8 58.2 L 369.8 63.4 L 371.1 63.4" id="10,9" /><path d="M 371.1 63.4 L 371.1 67.9 L 373.7 67.9" id="9,8" /><path d="M 352.6 32.1 L 352.6 29.2 L 376.4 29.2" id="13,7" /><path d="M 352.6 32.1 L 352.6 35.1 L 380.4 35.1" id="13,6" /><path d="M 316.2 46.8 L 316.2 41.1 L 370.2 41.1" id="12,5" /><path d="M 319.1 52.6 L 319.1 47.0 L 386.1 47.0" id="11,4" /><path d="M 369.8 58.2 L 369.8 53.0 L 375.0 53.0" id="10,3" /><path d="M 371.1 63.4 L 371.1 58.9 L 390.3 58.9" id="9,2" /><path d="M 373.7 67.9 L 373.7 64.9 L 376.0 64.9" id="8,1" /><path d="M 373.7 67.9 L 373.7 70.8 L 376.3 70.8" id="8,0" /></g><g class="toytree-Nodes" style="fill:rgb(100%,0%,0%);fill-opacity:1.0;stroke:None;stroke-width:1"><g id="node-0" transform="translate(376.274,70.833)"><circle r="2.5" /></g><g id="node-1" transform="translate(376.043,64.881)"><circle r="2.5" /></g><g id="node-2" transform="translate(390.263,58.929)"><circle r="2.5" /></g><g id="node-3" transform="translate(374.957,52.976)"><circle r="2.5" /></g><g id="node-4" transform="translate(386.064,47.024)"><circle r="2.5" /></g><g id="node-5" transform="translate(370.175,41.071)"><circle r="2.5" /></g><g id="node-6" transform="translate(380.406,35.119)"><circle r="2.5" /></g><g id="node-7" transform="translate(376.375,29.167)"><circle r="2.5" /></g><g id="node-8" transform="translate(373.733,67.857)"><circle r="0.0" /></g><g id="node-9" transform="translate(371.082,63.393)"><circle r="0.0" /></g><g id="node-10" transform="translate(369.829,58.185)"><circle r="0.0" /></g><g id="node-11" transform="translate(319.106,52.604)"><circle r="0.0" /></g><g id="node-12" transform="translate(316.224,46.838)"><circle r="0.0" /></g><g id="node-13" transform="translate(352.602,32.143)"><circle r="0.0" /></g><g id="node-14" transform="translate(305.000,39.490)"><circle r="0.0" /></g></g></g></g></g><g class="toyplot-coordinates-Cartesian" id="te7d600b090324841808023aecb377be6"><clipPath id="ta93d29d8be87422a8349f1b6d4a88a8d"><rect x="435.0" y="15.0" width="110.0" height="70.0" /></clipPath><g clip-path="url(#ta93d29d8be87422a8349f1b6d4a88a8d)"><g class="toytree-mark-Toytree" id="t3ac9d8534f1241ba8a86b89c78043d45"><g class="toytree-Edges" style="fill:none;stroke:rgb(14.9%,14.9%,14.9%);stroke-linecap:round;stroke-opacity:1;stroke-width:0.5"><path d="M 445.0 43.1 L 445.0 33.6 L 453.8 33.6" id="14,13" /><path d="M 445.0 43.1 L 445.0 52.6 L 459.9 52.6" id="14,12" /><path d="M 453.8 33.6 L 453.8 38.1 L 505.5 38.1" id="13,11" /><path d="M 459.9 52.6 L 459.9 58.2 L 506.8 58.2" id="12,10" /><path d="M 506.8 58.2 L 506.8 63.4 L 522.6 63.4" id="10,9" /><path d="M 522.6 63.4 L 522.6 67.9 L 522.6 67.9" id="9,8" /><path d="M 453.8 33.6 L 453.8 29.2 L 507.2 29.2" id="13,7" /><path d="M 505.5 38.1 L 505.5 35.1 L 530.3 35.1" id="11,6" /><path d="M 505.5 38.1 L 505.5 41.1 L 516.5 41.1" id="11,5" /><path d="M 459.9 52.6 L 459.9 47.0 L 519.3 47.0" id="12,4" /><path d="M 506.8 58.2 L 506.8 53.0 L 509.8 53.0" id="10,3" /><path d="M 522.6 63.4 L 522.6 58.9 L 522.6 58.9" id="9,2" /><path d="M 522.6 67.9 L 522.6 64.9 L 522.6 64.9" id="8,1" /><path d="M 522.6 67.9 L 522.6 70.8 L 522.6 70.8" id="8,0" /></g><g class="toytree-Nodes" style="fill:rgb(100%,0%,0%);fill-opacity:1.0;stroke:None;stroke-width:1"><g id="node-0" transform="translate(522.639,70.833)"><circle r="2.5" /></g><g id="node-1" transform="translate(522.639,64.881)"><circle r="2.5" /></g><g id="node-2" transform="translate(522.639,58.929)"><circle r="2.5" /></g><g id="node-3" transform="translate(509.758,52.976)"><circle r="2.5" /></g><g id="node-4" transform="translate(519.251,47.024)"><circle r="2.5" /></g><g id="node-5" transform="translate(516.544,41.071)"><circle r="2.5" /></g><g id="node-6" transform="translate(530.263,35.119)"><circle r="2.5" /></g><g id="node-7" transform="translate(507.202,29.167)"><circle r="2.5" /></g><g id="node-8" transform="translate(522.639,67.857)"><circle r="0.0" /></g><g id="node-9" transform="translate(522.639,63.393)"><circle r="0.0" /></g><g id="node-10" transform="translate(506.805,58.185)"><circle r="0.0" /></g><g id="node-11" transform="translate(505.481,38.095)"><circle r="0.0" /></g><g id="node-12" transform="translate(459.865,52.604)"><circle r="0.0" /></g><g id="node-13" transform="translate(453.834,33.631)"><circle r="0.0" /></g><g id="node-14" transform="translate(445.000,43.118)"><circle r="0.0" /></g></g></g></g></g></svg>