<svg class="toyplot-canvas-Canvas" xmlns:toyplot="http://www.sandia.gov/toyplot" xmlns:xlink="http://www.w3.org/1999/xlink" xmlns="http://www.w3.org/2000/svg" width="560.0px" height="100.0px" viewBox="0 0 560.0 100.0" preserveAspectRatio="xMidYMid meet" style="background-color:transparent;border-color:#292724;border-style:none;border-width:1.0;fill:rgb(16.1%,15.3%,14.1%);fill-opacity:1.0;font-family:Helvetica;font-size:12px;opacity:1.0;stroke:rgb(16.1%,15.3%,14.1%);stroke-opacity:1.0;stroke-width:1.0" id="t031b7791e667449d858ac7356fd600bf"><g class="toyplot-coordinates-Cartesian" id="tc02906079f7645b3b04bba5f1f1935cf"><clipPath id="t8f7b672f68db41abb041576799dd6c05"><rect x="15.0" y="15.0" width="110.0" height="70.0" /></clipPath><g clip-path="url(#t8f7b672f68db41abb041576799dd6c05)"><g class="toytree-mark-Toytree" id="t17752d2cbcd34c4a94ceb2fc47260450"><g class="toytree-Edges" style="fill:none;stroke:rgb(14.9%,14.9%,14.9%);stroke-linecap:round;stroke-opacity:1;stroke-width:0.5"><path d="M 25.0 35.7 L 25.0 31.0 L 26.8 31.0" id="40,39" /><path d="M 25.0 35.7 L 25.0 40.5 L 35.8 40.5" id="40,38" /><path d="M 26.8 31.0 L 26.8 32.8 L 29.5 32.8" id="39,37" /><path d="M 35.8 40.5 L 35.8 43.5 L 39.3 43.5" id="38,36" /><path d="M 29.5 32.8 L 29.5 34.4 L 38.0 34.4" id="37,35" /><path d="M 39.3 43.5 L 39.3 47.4 L 43.4 47.4" id="36,34" /><path d="M 43.4 47.4 L 43.4 53.2 L 45.1 53.2" id="34,33" /><path d="M 45.1 53.2 L 45.1 46.5 L 47.0 46.5" id="33,32" /><path d="M 45.1 53.2 L 45.1 59.9 L 45.9 59.9" id="33,31" /><path d="M 47.0 46.5 L 47.0 49.2 L 49.0 49.2" id="32,30" /><path d="M 45.9 59.9 L 45.9 57.3 L 75.9 57.3" id="31,29" /><path d="M 45.9 59.9 L 45.9 62.4 L 49.1 62.4" id="31,28" /><path d="M 49.0 49.2 L 49.0 46.9 L 51.8 46.9" id="30,27" /><path d="M 49.0 49.2 L 49.0 51.6 L 51.5 51.6" id="30,26" /><path d="M 49.1 62.4 L 49.1 64.5 L 51.0 64.5" id="28,25" /><path d="M 51.5 51.6 L 51.5 53.1 L 60.1 53.1" id="26,24" /><path d="M 51.0 64.5 L 51.0 66.4 L 52.7 66.4" id="25,23" /><path d="M 52.7 66.4 L 52.7 68.2 L 71.1 68.2" id="23,22" /><path d="M 71.1 68.2 L 71.1 69.8 L 78.3 69.8" id="22,21" /><path d="M 26.8 31.0 L 26.8 29.2 L 100.8 29.2" id="39,20" /><path d="M 29.5 32.8 L 29.5 31.2 L 101.6 31.2" id="37,19" /><path d="M 38.0 34.4 L 38.0 33.3 L 102.9 33.3" id="35,18" /><path d="M 38.0 34.4 L 38.0 35.4 L 97.7 35.4" id="35,17" /><path d="M 35.8 40.5 L 35.8 37.5 L 99.9 37.5" id="38,16" /><path d="M 39.3 43.5 L 39.3 39.6 L 105.7 39.6" id="36,15" /><path d="M 43.4 47.4 L 43.4 41.7 L 98.9 41.7" id="34,14" /><path d="M 47.0 46.5 L 47.0 43.8 L 96.6 43.8" id="32,13" /><path d="M 51.8 46.9 L 51.8 45.8 L 97.7 45.8" id="27,12" /><path d="M 51.8 46.9 L 51.8 47.9 L 95.3 47.9" id="27,11" /><path d="M 51.5 51.6 L 51.5 50.0 L 100.5 50.0" id="26,10" /><path d="M 60.1 53.1 L 60.1 52.1 L 97.7 52.1" id="24,9" /><path d="M 60.1 53.1 L 60.1 54.2 L 104.1 54.2" id="24,8" /><path d="M 75.9 57.3 L 75.9 56.2 L 107.1 56.2" id="29,7" /><path d="M 75.9 57.3 L 75.9 58.3 L 104.2 58.3" id="29,6" /><path d="M 49.1 62.4 L 49.1 60.4 L 92.5 60.4" id="28,5" /><path d="M 51.0 64.5 L 51.0 62.5 L 104.3 62.5" id="25,4" /><path d="M 52.7 66.4 L 52.7 64.6 L 110.3 64.6" id="23,3" /><path d="M 71.1 68.2 L 71.1 66.7 L 101.4 66.7" id="22,2" /><path d="M 78.3 69.8 L 78.3 68.8 L 99.6 68.8" id="21,1" /><path d="M 78.3 69.8 L 78.3 70.8 L 100.7 70.8" id="21,0" /></g><g class="toytree-Nodes" style="fill:rgb(100%,0%,0%);fill-opacity:1.0;stroke:None;stroke-width:1"><g id="node-0" transform="translate(100.740,70.833)"><circle r="2.5" /></g><g id="node-1" transform="translate(99.636,68.750)"><circle r="2.5" /></g><g id="node-2" transform="translate(101.426,66.667)"><circle r="2.5" /></g><g id="node-3" transform="translate(110.263,64.583)"><circle r="2.5" /></g><g id="node-4" transform="translate(104.307,62.500)"><circle r="2.5" /></g><g id="node-5" transform="translate(92.452,60.417)"><circle r="2.5" /></g><g id="node-6" transform="translate(104.232,58.333)"><circle r="2.5" /></g><g id="node-7" transform="translate(107.143,56.250)"><circle r="2.5" /></g><g id="node-8" transform="translate(104.082,54.167)"><circle r="2.5" /></g><g id="node-9" transform="translate(97.660,52.083)"><circle r="2.5" /></g><g id="node-10" transform="translate(100.487,50.000)"><circle r="2.5" /></g><g id="node-11" transform="translate(95.263,47.917)"><circle r="2.5" /></g><g id="node-12" transform="translate(97.660,45.833)"><circle r="2.5" /></g><g id="node-13" transform="translate(96.564,43.750)"><circle r="2.5" /></g><g id="node-14" transform="translate(98.871,41.667)"><circle r="2.5" /></g><g id="node-15" transform="translate(105.748,39.583)"><circle r="2.5" /></g><g id="node-16" transform="translate(99.903,37.500)"><circle r="2.5" /></g><g id="node-17" transform="translate(97.743,35.417)"><circle r="2.5" /></g><g id="node-18" transform="translate(102.919,33.333)"><circle r="2.5" /></g><g id="node-19" transform="translate(101.558,31.250)"><circle r="2.5" /></g><g id="node-20" transform="translate(100.813,29.167)"><circle r="2.5" /></g><g id="node-21" transform="translate(78.269,69.792)"><circle r="0.0" /></g><g id="node-22" transform="translate(71.126,68.229)"><circle r="0.0" /></g><g id="node-23" transform="translate(52.725,66.406)"><circle r="0.0" /></g><g id="node-24" transform="translate(60.139,53.125)"><circle r="0.0" /></g><g id="node-25" transform="translate(51.026,64.453)"><circle r="0.0" /></g><g id="node-26" transform="translate(51.545,51.562)"><circle r="0.0" /></g><g id="node-27" transform="translate(51.802,46.875)"><circle r="0.0" /></g><g id="node-28" transform="translate(49.096,62.435)"><circle r="0.0" /></g><g id="node-29" transform="translate(75.915,57.292)"><circle r="0.0" /></g><g id="node-30" transform="translate(49.013,49.219)"><circle r="0.0" /></g><g id="node-31" transform="translate(45.930,59.863)"><circle r="0.0" /></g><g id="node-32" transform="translate(47.006,46.484)"><circle r="0.0" /></g><g id="node-33" transform="translate(45.145,53.174)"><circle r="0.0" /></g><g id="node-34" transform="translate(43.446,47.420)"><circle r="0.0" /></g><g id="node-35" transform="translate(37.954,34.375)"><circle r="0.0" /></g><g id="node-36" transform="translate(39.344,43.502)"><circle r="0.0" /></g><g id="node-37" transform="translate(29.527,32.812)"><circle r="0.0" /></g><g id="node-38" transform="translate(35.791,40.501)"><circle r="0.0" /></g><g id="node-39" transform="translate(26.767,30.990)"><circle r="0.0" /></g><g id="node-40" transform="translate(25.000,35.745)"><circle r="0.0" /></g></g></g></g></g><g class="toyplot-coordinates-Cartesian" id="t365f23d4cd4b459c884599156995bb75"><clipPath id="t45310cf8296c42cc994467581d277fc2"><rect x="155.0" y="15.0" width="110.0" height="70.0" /></clipPath><g clip-path="url(#t45310cf8296c42cc994467581d277fc2)"><g class="toytree-mark-Toytree" id="t8a2f2fe9776d42de8aa0525fd4befc5b"><g class="toytree-Edges" style="fill:none;stroke:rgb(14.9%,14.9%,14.9%);stroke-linecap:round;stroke-opacity:1;stroke-width:0.5"><path d="M 165.0 36.3 L 165.0 32.3 L 184.0 32.3" id="40,39" /><path d="M 165.0 36.3 L 165.0 40.3 L 185.8 40.3" id="40,38" /><path d="M 184.0 32.3 L 184.0 30.2 L 192.3 30.2" id="39,37" /><path d="M 184.0 32.3 L 184.0 34.4 L 186.9 34.4" id="39,36" /><path d="M 185.8 40.3 L 185.8 43.0 L 194.2 43.0" id="38,35" /><path d="M 194.2 43.0 L 194.2 46.4 L 199.5 46.4" id="35,34" /><path d="M 199.5 46.4 L 199.5 42.7 L 203.7 42.7" id="34,33" /><path d="M 199.5 46.4 L 199.5 50.1 L 201.2 50.1" id="34,32" /><path d="M 201.2 50.1 L 201.2 54.5 L 203.5 54.5" id="32,31" /><path d="M 203.5 54.5 L 203.5 49.5 L 204.7 49.5" id="31,30" /><path d="M 203.5 54.5 L 203.5 59.4 L 204.3 59.4" id="31,29" /><path d="M 204.7 49.5 L 204.7 51.0 L 206.5 51.0" id="30,28" /><path d="M 204.3 59.4 L 204.3 55.7 L 206.5 55.7" id="29,27" /><path d="M 204.3 59.4 L 204.3 63.2 L 208.6 63.2" id="29,26" /><path d="M 206.5 55.7 L 206.5 57.3 L 213.7 57.3" id="27,25" /><path d="M 208.6 63.2 L 208.6 65.9 L 210.1 65.9" id="26,24" /><path d="M 210.1 65.9 L 210.1 63.5 L 215.0 63.5" id="24,23" /><path d="M 210.1 65.9 L 210.1 68.2 L 216.6 68.2" id="24,22" /><path d="M 216.6 68.2 L 216.6 69.8 L 219.9 69.8" id="22,21" /><path d="M 192.3 30.2 L 192.3 29.2 L 221.2 29.2" id="37,20" /><path d="M 192.3 30.2 L 192.3 31.2 L 205.2 31.2" id="37,19" /><path d="M 186.9 34.4 L 186.9 33.3 L 222.0 33.3" id="36,18" /><path d="M 186.9 34.4 L 186.9 35.4 L 250.3 35.4" id="36,17" /><path d="M 185.8 40.3 L 185.8 37.5 L 229.0 37.5" id="38,16" /><path d="M 194.2 43.0 L 194.2 39.6 L 238.1 39.6" id="35,15" /><path d="M 203.7 42.7 L 203.7 41.7 L 211.4 41.7" id="33,14" /><path d="M 203.7 42.7 L 203.7 43.8 L 223.2 43.8" id="33,13" /><path d="M 201.2 50.1 L 201.2 45.8 L 219.0 45.8" id="32,12" /><path d="M 204.7 49.5 L 204.7 47.9 L 209.4 47.9" id="30,11" /><path d="M 206.5 51.0 L 206.5 50.0 L 221.4 50.0" id="28,10" /><path d="M 206.5 51.0 L 206.5 52.1 L 213.6 52.1" id="28,9" /><path d="M 206.5 55.7 L 206.5 54.2 L 213.3 54.2" id="27,8" /><path d="M 213.7 57.3 L 213.7 56.2 L 225.1 56.2" id="25,7" /><path d="M 213.7 57.3 L 213.7 58.3 L 219.5 58.3" id="25,6" /><path d="M 208.6 63.2 L 208.6 60.4 L 226.4 60.4" id="26,5" /><path d="M 215.0 63.5 L 215.0 62.5 L 231.7 62.5" id="23,4" /><path d="M 215.0 63.5 L 215.0 64.6 L 224.1 64.6" id="23,3" /><path d="M 216.6 68.2 L 216.6 66.7 L 217.7 66.7" id="22,2" /><path d="M 219.9 69.8 L 219.9 68.8 L 219.9 68.8" id="21,1" /><path d="M 219.9 69.8 L 219.9 70.8 L 220.8 70.8" id="21,0" /></g><g class="toytree-Nodes" style="fill:rgb(100%,0%,0%);fill-opacity:1.0;stroke:None;stroke-width:1"><g id="node-0" transform="translate(220.800,70.833)"><circle r="2.5" /></g><g id="node-1" transform="translate(219.929,68.750)"><circle r="2.5" /></g><g id="node-2" transform="translate(217.677,66.667)"><circle r="2.5" /></g><g id="node-3" transform="translate(224.129,64.583)"><circle r="2.5" /></g><g id="node-4" transform="translate(231.719,62.500)"><circle r="2.5" /></g><g id="node-5" transform="translate(226.368,60.417)"><circle r="2.5" /></g><g id="node-6" transform="translate(219.549,58.333)"><circle r="2.5" /></g><g id="node-7" transform="translate(225.112,56.250)"><circle r="2.5" /></g><g id="node-8" transform="translate(213.322,54.167)"><circle r="2.5" /></g><g id="node-9" transform="translate(213.583,52.083)"><circle r="2.5" /></g><g id="node-10" transform="translate(221.435,50.000)"><circle r="2.5" /></g><g id="node-11" transform="translate(209.439,47.917)"><circle r="2.5" /></g><g id="node-12" transform="translate(219.014,45.833)"><circle r="2.5" /></g><g id="node-13" transform="translate(223.152,43.750)"><circle r="2.5" /></g><g id="node-14" transform="translate(211.430,41.667)"><circle r="2.5" /></g><g id="node-15" transform="translate(238.121,39.583)"><circle r="2.5" /></g><g id="node-16" transform="translate(229.050,37.500)"><circle r="2.5" /></g><g id="node-17" transform="translate(250.263,35.417)"><circle r="2.5" /></g><g id="node-18" transform="translate(222.004,33.333)"><circle r="2.5" /></g><g id="node-19" transform="translate(205.163,31.250)"><circle r="2.5" /></g><g id="node-20" transform="translate(221.165,29.167)"><circle r="2.5" /></g><g id="node-21" transform="translate(219.929,69.792)"><circle r="0.0" /></g><g id="node-22" transform="translate(216.594,68.229)"><circle r="0.0" /></g><g id="node-23" transform="translate(214.983,63.542)"><circle r="0.0" /></g><g id="node-24" transform="translate(210.142,65.885)"><circle r="0.0" /></g><g id="node-25" transform="translate(213.745,57.292)"><circle r="0.0" /></g><g id="node-26" transform="translate(208.637,63.151)"><circle r="0.0" /></g><g id="node-27" transform="translate(206.503,55.729)"><circle r="0.0" /></g><g id="node-28" transform="translate(206.496,51.042)"><circle r="0.0" /></g><g id="node-29" transform="translate(204.325,59.440)"><circle r="0.0" /></g><g id="node-30" transform="translate(204.717,49.479)"><circle r="0.0" /></g><g id="node-31" transform="translate(203.510,54.460)"><circle r="0.0" /></g><g id="node-32" transform="translate(201.220,50.146)"><circle r="0.0" /></g><g id="node-33" transform="translate(203.697,42.708)"><circle r="0.0" /></g><g id="node-34" transform="translate(199.547,46.427)"><circle r="0.0" /></g><g id="node-35" transform="translate(194.159,43.005)"><circle r="0.0" /></g><g id="node-36" transform="translate(186.890,34.375)"><circle r="0.0" /></g><g id="node-37" transform="translate(192.290,30.208)"><circle r="0.0" /></g><g id="node-38" transform="translate(185.816,40.253)"><circle r="0.0" /></g><g id="node-39" transform="translate(183.965,32.292)"><circle r="0.0" /></g><g id="node-40" transform="translate(165.000,36.272)"><circle r="0.0" /></g></g></g></g></g><g class="toyplot-coordinates-Cartesian" id="t7e3553cf9f2349f49d15a220359f133d"><clipPath id="t4f1df592f51245ed8ae4dc40851606f8"><rect x="295.0" y="15.0" width="110.0" height="70.0" /></clipPath><g clip-path="url(#t4f1df592f51245ed8ae4dc40851606f8)"><g class="toytree-mark-Toytree" id="ted1420dcea7f4e478e2875d5d52b9112"><g class="toytree-Edges" style="fill:none;stroke:rgb(14.9%,14.9%,14.9%);stroke-linecap:round;stroke-opacity:1;stroke-width:0.5"><path d="M 305.0 37.8 L 305.0 31.0 L 314.3 31.0" id="40,39" /><path d="M 305.0 37.8 L 305.0 44.6 L 329.2 44.6" id="40,38" /><path d="M 314.3 31.0 L 314.3 32.8 L 317.0 32.8" id="39,37" /><path d="M 329.2 44.6 L 329.2 38.5 L 332.3 38.5" id="38,36" /><path d="M 329.2 44.6 L 329.2 50.6 L 336.6 50.6" id="38,35" /><path d="M 317.0 32.8 L 317.0 34.4 L 331.5 34.4" id="37,34" /><path d="M 336.6 50.6 L 336.6 45.1 L 340.1 45.1" id="35,33" /><path d="M 336.6 50.6 L 336.6 56.1 L 339.1 56.1" id="35,32" /><path d="M 340.1 45.1 L 340.1 42.7 L 346.0 42.7" id="33,31" /><path d="M 340.1 45.1 L 340.1 47.4 L 359.2 47.4" id="33,30" /><path d="M 339.1 56.1 L 339.1 60.2 L 341.5 60.2" id="32,29" /><path d="M 359.2 47.4 L 359.2 49.0 L 363.4 49.0" id="30,28" /><path d="M 341.5 60.2 L 341.5 55.7 L 342.8 55.7" id="29,27" /><path d="M 341.5 60.2 L 341.5 64.6 L 344.4 64.6" id="29,26" /><path d="M 342.8 55.7 L 342.8 57.3 L 360.1 57.3" id="27,25" /><path d="M 344.4 64.6 L 344.4 61.5 L 347.1 61.5" id="26,24" /><path d="M 344.4 64.6 L 344.4 67.7 L 346.0 67.7" id="26,23" /><path d="M 346.0 67.7 L 346.0 65.6 L 352.9 65.6" id="23,22" /><path d="M 346.0 67.7 L 346.0 69.8 L 346.9 69.8" id="23,21" /><path d="M 314.3 31.0 L 314.3 29.2 L 387.1 29.2" id="39,20" /><path d="M 317.0 32.8 L 317.0 31.2 L 373.1 31.2" id="37,19" /><path d="M 331.5 34.4 L 331.5 33.3 L 370.3 33.3" id="34,18" /><path d="M 331.5 34.4 L 331.5 35.4 L 361.2 35.4" id="34,17" /><path d="M 332.3 38.5 L 332.3 37.5 L 383.8 37.5" id="36,16" /><path d="M 332.3 38.5 L 332.3 39.6 L 390.3 39.6" id="36,15" /><path d="M 346.0 42.7 L 346.0 41.7 L 379.8 41.7" id="31,14" /><path d="M 346.0 42.7 L 346.0 43.8 L 368.9 43.8" id="31,13" /><path d="M 359.2 47.4 L 359.2 45.8 L 363.0 45.8" id="30,12" /><path d="M 363.4 49.0 L 363.4 47.9 L 364.7 47.9" id="28,11" /><path d="M 363.4 49.0 L 363.4 50.0 L 365.3 50.0" id="28,10" /><path d="M 339.1 56.1 L 339.1 52.1 L 375.0 52.1" id="32,9" /><path d="M 342.8 55.7 L 342.8 54.2 L 363.2 54.2" id="27,8" /><path d="M 360.1 57.3 L 360.1 56.2 L 375.7 56.2" id="25,7" /><path d="M 360.1 57.3 L 360.1 58.3 L 370.2 58.3" id="25,6" /><path d="M 347.1 61.5 L 347.1 60.4 L 366.0 60.4" id="24,5" /><path d="M 347.1 61.5 L 347.1 62.5 L 365.8 62.5" id="24,4" /><path d="M 352.9 65.6 L 352.9 64.6 L 376.0 64.6" id="22,3" /><path d="M 352.9 65.6 L 352.9 66.7 L 379.1 66.7" id="22,2" /><path d="M 346.9 69.8 L 346.9 68.8 L 377.0 68.8" id="21,1" /><path d="M 346.9 69.8 L 346.9 70.8 L 369.0 70.8" id="21,0" /></g><g class="toytree-Nodes" style="fill:rgb(100%,0%,0%);fill-opacity:1.0;stroke:None;stroke-width:1"><g id="node-0" transform="translate(368.998,70.833)"><circle r="2.5" /></g><g id="node-1" transform="translate(376.952,68.750)"><circle r="2.5" /></g><g id="node-2" transform="translate(379.061,66.667)"><circle r="2.5" /></g><g id="node-3" transform="translate(375.977,64.583)"><circle r="2.5" /></g><g id="node-4" transform="translate(365.797,62.500)"><circle r="2.5" /></g><g id="node-5" transform="translate(365.958,60.417)"><circle r="2.5" /></g><g id="node-6" transform="translate(370.195,58.333)"><circle r="2.5" /></g><g id="node-7" transform="translate(375.696,56.250)"><circle r="2.5" /></g><g id="node-8" transform="translate(363.248,54.167)"><circle r="2.5" /></g><g id="node-9" transform="translate(375.033,52.083)"><circle r="2.5" /></g><g id="node-10" transform="translate(365.303,50.000)"><circle r="2.5" /></g><g id="node-11" transform="translate(364.687,47.917)"><circle r="2.5" /></g><g id="node-12" transform="translate(363.007,45.833)"><circle r="2.5" /></g><g id="node-13" transform="translate(368.939,43.750)"><circle r="2.5" /></g><g id="node-14" transform="translate(379.764,41.667)"><circle r="2.5" /></g><g id="node-15" transform="translate(390.263,39.583)"><circle r="2.5" /></g><g id="node-16" transform="translate(383.833,37.500)"><circle r="2.5" /></g><g id="node-17" transform="translate(361.176,35.417)"><circle r="2.5" /></g><g id="node-18" transform="translate(370.339,33.333)"><circle r="2.5" /></g><g id="node-19" transform="translate(373.093,31.250)"><circle r="2.5" /></g><g id="node-20" transform="translate(387.063,29.167)"><circle r="2.5" /></g><g id="node-21" transform="translate(346.883,69.792)"><circle r="0.0" /></g><g id="node-22" transform="translate(352.947,65.625)"><circle r="0.0" /></g><g id="node-23" transform="translate(345.978,67.708)"><circle r="0.0" /></g><g id="node-24" transform="translate(347.091,61.458)"><circle r="0.0" /></g><g id="node-25" transform="translate(360.110,57.292)"><circle r="0.0" /></g><g id="node-26" transform="translate(344.407,64.583)"><circle r="0.0" /></g><g id="node-27" transform="translate(342.847,55.729)"><circle r="0.0" /></g><g id="node-28" transform="translate(363.402,48.958)"><circle r="0.0" /></g><g id="node-29" transform="translate(341.477,60.156)"><circle r="0.0" /></g><g id="node-30" transform="translate(359.158,47.396)"><circle r="0.0" /></g><g id="node-31" transform="translate(345.952,42.708)"><circle r="0.0" /></g><g id="node-32" transform="translate(339.130,56.120)"><circle r="0.0" /></g><g id="node-33" transform="translate(340.122,45.052)"><circle r="0.0" /></g><g id="node-34" transform="translate(331.499,34.375)"><circle r="0.0" /></g><g id="node-35" transform="translate(336.588,50.586)"><circle r="0.0" /></g><g id="node-36" transform="translate(332.300,38.542)"><circle r="0.0" /></g><g id="node-37" transform="translate(317.012,32.812)"><circle r="0.0" /></g><g id="node-38" transform="translate(329.158,44.564)"><circle r="0.0" /></g><g id="node-39" transform="translate(314.276,30.990)"><circle r="0.0" /></g><g id="node-40" transform="translate(305.000,37.777)"><circle r="0.0" /></g></g></g></g></g><g class="toyplot-coordinates-Cartesian" id="t6ae429008f3d4341982f5b0461328871"><clipPath id="t3e0e404fea2c484b8be2224afafc914d"><rect x="435.0" y="15.0" width="110.0" height="70.0" /></clipPath><g clip-path="url(#t3e0e404fea2c484b8be2224afafc914d)"><g class="toytree-mark-Toytree" id="t58862ba22d3242c2ba494a0ec6242431"><g class="toytree-Edges" style="fill:none;stroke:rgb(14.9%,14.9%,14.9%);stroke-linecap:round;stroke-opacity:1;stroke-width:0.5"><path d="M 445.0 35.7 L 445.0 31.0 L 460.7 31.0" id="40,39" /><path d="M 445.0 35.7 L 445.0 40.4 L 463.4 40.4" id="40,38" /><path d="M 460.7 31.0 L 460.7 32.8 L 467.7 32.8" id="39,37" /><path d="M 463.4 40.4 L 463.4 43.4 L 469.0 43.4" id="38,36" /><path d="M 467.7 32.8 L 467.7 34.4 L 474.3 34.4" id="37,35" /><path d="M 469.0 43.4 L 469.0 47.1 L 475.1 47.1" id="36,34" /><path d="M 475.1 47.1 L 475.1 52.6 L 480.4 52.6" id="34,33" /><path d="M 480.4 52.6 L 480.4 45.8 L 483.1 45.8" id="33,32" /><path d="M 480.4 52.6 L 480.4 59.4 L 485.5 59.4" id="33,31" /><path d="M 483.1 45.8 L 483.1 47.8 L 485.2 47.8" id="32,30" /><path d="M 485.5 59.4 L 485.5 62.6 L 488.3 62.6" id="31,29" /><path d="M 485.2 47.8 L 485.2 49.7 L 488.8 49.7" id="30,28" /><path d="M 488.3 62.6 L 488.3 59.4 L 510.9 59.4" id="29,27" /><path d="M 488.3 62.6 L 488.3 65.9 L 493.5 65.9" id="29,26" /><path d="M 488.8 49.7 L 488.8 51.6 L 494.3 51.6" id="28,25" /><path d="M 493.5 65.9 L 493.5 63.5 L 498.5 63.5" id="26,24" /><path d="M 493.5 65.9 L 493.5 68.2 L 503.2 68.2" id="26,23" /><path d="M 494.3 51.6 L 494.3 53.1 L 501.5 53.1" id="25,22" /><path d="M 503.2 68.2 L 503.2 69.8 L 506.4 69.8" id="23,21" /><path d="M 460.7 31.0 L 460.7 29.2 L 508.2 29.2" id="39,20" /><path d="M 467.7 32.8 L 467.7 31.2 L 527.0 31.2" id="37,19" /><path d="M 474.3 34.4 L 474.3 33.3 L 503.2 33.3" id="35,18" /><path d="M 474.3 34.4 L 474.3 35.4 L 508.3 35.4" id="35,17" /><path d="M 463.4 40.4 L 463.4 37.5 L 502.8 37.5" id="38,16" /><path d="M 469.0 43.4 L 469.0 39.6 L 513.6 39.6" id="36,15" /><path d="M 475.1 47.1 L 475.1 41.7 L 502.1 41.7" id="34,14" /><path d="M 483.1 45.8 L 483.1 43.8 L 500.8 43.8" id="32,13" /><path d="M 485.2 47.8 L 485.2 45.8 L 508.4 45.8" id="30,12" /><path d="M 488.8 49.7 L 488.8 47.9 L 507.4 47.9" id="28,11" /><path d="M 494.3 51.6 L 494.3 50.0 L 511.8 50.0" id="25,10" /><path d="M 501.5 53.1 L 501.5 52.1 L 511.7 52.1" id="22,9" /><path d="M 501.5 53.1 L 501.5 54.2 L 516.6 54.2" id="22,8" /><path d="M 485.5 59.4 L 485.5 56.2 L 495.3 56.2" id="31,7" /><path d="M 510.9 59.4 L 510.9 58.3 L 522.4 58.3" id="27,6" /><path d="M 510.9 59.4 L 510.9 60.4 L 516.0 60.4" id="27,5" /><path d="M 498.5 63.5 L 498.5 62.5 L 522.3 62.5" id="24,4" /><path d="M 498.5 63.5 L 498.5 64.6 L 530.3 64.6" id="24,3" /><path d="M 503.2 68.2 L 503.2 66.7 L 511.8 66.7" id="23,2" /><path d="M 506.4 69.8 L 506.4 68.8 L 513.0 68.8" id="21,1" /><path d="M 506.4 69.8 L 506.4 70.8 L 511.1 70.8" id="21,0" /></g><g class="toytree-Nodes" style="fill:rgb(100%,0%,0%);fill-opacity:1.0;stroke:None;stroke-width:1"><g id="node-0" transform="translate(511.056,70.833)"><circle r="2.5" /></g><g id="node-1" transform="translate(512.997,68.750)"><circle r="2.5" /></g><g id="node-2" transform="translate(511.806,66.667)"><circle r="2.5" /></g><g id="node-3" transform="translate(530.263,64.583)"><circle r="2.5" /></g><g id="node-4" transform="translate(522.337,62.500)"><circle r="2.5" /></g><g id="node-5" transform="translate(516.014,60.417)"><circle r="2.5" /></g><g id="node-6" transform="translate(522.417,58.333)"><circle r="2.5" /></g><g id="node-7" transform="translate(495.266,56.250)"><circle r="2.5" /></g><g id="node-8" transform="translate(516.635,54.167)"><circle r="2.5" /></g><g id="node-9" transform="translate(511.744,52.083)"><circle r="2.5" /></g><g id="node-10" transform="translate(511.814,50.000)"><circle r="2.5" /></g><g id="node-11" transform="translate(507.432,47.917)"><circle r="2.5" /></g><g id="node-12" transform="translate(508.368,45.833)"><circle r="2.5" /></g><g id="node-13" transform="translate(500.764,43.750)"><circle r="2.5" /></g><g id="node-14" transform="translate(502.051,41.667)"><circle r="2.5" /></g><g id="node-15" transform="translate(513.575,39.583)"><circle r="2.5" /></g><g id="node-16" transform="translate(502.813,37.500)"><circle r="2.5" /></g><g id="node-17" transform="translate(508.252,35.417)"><circle r="2.5" /></g><g id="node-18" transform="translate(503.238,33.333)"><circle r="2.5" /></g><g id="node-19" transform="translate(526.957,31.250)"><circle r="2.5" /></g><g id="node-20" transform="translate(508.207,29.167)"><circle r="2.5" /></g><g id="node-21" transform="translate(506.424,69.792)"><circle r="0.0" /></g><g id="node-22" transform="translate(501.516,53.125)"><circle r="0.0" /></g><g id="node-23" transform="translate(503.173,68.229)"><circle r="0.0" /></g><g id="node-24" transform="translate(498.538,63.542)"><circle r="0.0" /></g><g id="node-25" transform="translate(494.321,51.562)"><circle r="0.0" /></g><g id="node-26" transform="translate(493.472,65.885)"><circle r="0.0" /></g><g id="node-27" transform="translate(510.937,59.375)"><circle r="0.0" /></g><g id="node-28" transform="translate(488.818,49.740)"><circle r="0.0" /></g><g id="node-29" transform="translate(488.347,62.630)"><circle r="0.0" /></g><g id="node-30" transform="translate(485.234,47.786)"><circle r="0.0" /></g><g id="node-31" transform="translate(485.491,59.440)"><circle r="0.0" /></g><g id="node-32" transform="translate(483.099,45.768)"><circle r="0.0" /></g><g id="node-33" transform="translate(480.437,52.604)"><circle r="0.0" /></g><g id="node-34" transform="translate(475.050,47.135)"><circle r="0.0" /></g><g id="node-35" transform="translate(474.337,34.375)"><circle r="0.0" /></g><g id="node-36" transform="translate(469.015,43.359)"><circle r="0.0" /></g><g id="node-37" transform="translate(467.700,32.812)"><circle r="0.0" /></g><g id="node-38" transform="translate(463.445,40.430)"><circle r="0.0" /></g><g id="node-39" transform="translate(460.651,30.990)"><circle r="0.0" /></g><g id="node-40" transform="translate(445.000,35.710)"><circle r="0.0" /></g></g></g></g></g></svg>