<svg class="toyplot-canvas-Canvas" xmlns:toyplot="http://www.sandia.gov/toyplot" xmlns:xlink="http://www.w3.org/1999/xlink" xmlns="http://www.w3.org/2000/svg" width="560.0px" height="100.0px" viewBox="0 0 560.0 100.0" preserveAspectRatio="xMidYMid meet" style="background-color:transparent;border-color:#292724;border-style:none;border-width:1.0;fill:rgb(16.1%,15.3%,14.1%);fill-opacity:1.0;font-family:Helvetica;font-size:12px;opacity:1.0;stroke:rgb(16.1%,15.3%,14.1%);stroke-opacity:1.0;stroke-width:1.0" id="t17b6e11164794b4e858e5fef86f52080"><g class="toyplot-coordinates-Cartesian" id="tcc06a307b0064159887d2c18ceb8f11b"><clipPath id="ta61e624d189d4ce8864138c9e119bc54"><rect x="15.0" y="15.0" width="110.0" height="70.0" /></clipPath><g clip-path="url(#ta61e624d189d4ce8864138c9e119bc54)"><g class="toytree-mark-Toytree" id="t2a0dfeb5f0ef4b349132cbd05bc5ec0c"><g class="toytree-Edges" style="fill:none;stroke:rgb(14.9%,14.9%,14.9%);stroke-linecap:round;stroke-opacity:1;stroke-width:0.5"><path d="M 25.0 36.1 L 25.0 43.1 L 63.5 43.1" id="14,13" /><path d="M 63.5 43.1 L 63.5 51.1 L 96.4 51.1" id="13,12" /><path d="M 96.4 51.1 L 96.4 44.0 L 104.6 44.0" id="12,11" /><path d="M 96.4 51.1 L 96.4 58.2 L 100.2 58.2" id="12,10" /><path d="M 100.2 58.2 L 100.2 63.4 L 104.4 63.4" id="10,9" /><path d="M 104.4 63.4 L 104.4 67.9 L 104.9 67.9" id="9,8" /><path d="M 25.0 36.1 L 25.0 29.2 L 106.8 29.2" id="14,7" /><path d="M 63.5 43.1 L 63.5 35.1 L 110.3 35.1" id="13,6" /><path d="M 104.6 44.0 L 104.6 41.1 L 104.6 41.1" id="11,5" /><path d="M 104.6 44.0 L 104.6 47.0 L 105.3 47.0" id="11,4" /><path d="M 100.2 58.2 L 100.2 53.0 L 107.4 53.0" id="10,3" /><path d="M 104.4 63.4 L 104.4 58.9 L 108.3 58.9" id="9,2" /><path d="M 104.9 67.9 L 104.9 64.9 L 104.9 64.9" id="8,1" /><path d="M 104.9 67.9 L 104.9 70.8 L 104.9 70.8" id="8,0" /></g><g class="toytree-Nodes" style="fill:rgb(100%,0%,0%);fill-opacity:1.0;stroke:None;stroke-width:1"><g id="node-0" transform="translate(104.886,70.833)"><circle r="2.5" /></g><g id="node-1" transform="translate(104.886,64.881)"><circle r="2.5" /></g><g id="node-2" transform="translate(108.292,58.929)"><circle r="2.5" /></g><g id="node-3" transform="translate(107.413,52.976)"><circle r="2.5" /></g><g id="node-4" transform="translate(105.334,47.024)"><circle r="2.5" /></g><g id="node-5" transform="translate(104.634,41.071)"><circle r="2.5" /></g><g id="node-6" transform="translate(110.263,35.119)"><circle r="2.5" /></g><g id="node-7" transform="translate(106.755,29.167)"><circle r="2.5" /></g><g id="node-8" transform="translate(104.886,67.857)"><circle r="0.0" /></g><g id="node-9" transform="translate(104.373,63.393)"><circle r="0.0" /></g><g id="node-10" transform="translate(100.186,58.185)"><circle r="0.0" /></g><g id="node-11" transform="translate(104.634,44.048)"><circle r="0.0" /></g><g id="node-12" transform="translate(96.419,51.116)"><circle r="0.0" /></g><g id="node-13" transform="translate(63.521,43.118)"><circle r="0.0" /></g><g id="node-14" transform="translate(25.000,36.142)"><circle r="0.0" /></g></g></g></g></g><g class="toyplot-coordinates-Cartesian" id="tcf9e0eefba964a238f4c3e8122662320"><clipPath id="t0c22839e0735435e9aff5698095ddd25"><rect x="155.0" y="15.0" width="110.0" height="70.0" /></clipPath><g clip-path="url(#t0c22839e0735435e9aff5698095ddd25)"><g class="toytree-mark-Toytree" id="t1a34b600b1a04af680604ada8c75fa6a"><g class="toytree-Edges" style="fill:none;stroke:rgb(14.9%,14.9%,14.9%);stroke-linecap:round;stroke-opacity:1;stroke-width:0.5"><path d="M 168.1 39.0 L 168.1 48.9 L 168.7 48.9" id="14,13" /><path d="M 168.7 48.9 L 168.7 39.6 L 169.3 39.6" id="13,12" /><path d="M 168.7 48.9 L 168.7 58.2 L 169.4 58.2" id="13,11" /><path d="M 169.3 39.6 L 169.3 44.0 L 172.2 44.0" id="12,10" /><path d="M 169.4 58.2 L 169.4 63.4 L 169.8 63.4" id="11,9" /><path d="M 169.8 63.4 L 169.8 67.9 L 172.7 67.9" id="9,8" /><path d="M 168.1 39.0 L 168.1 29.2 L 170.8 29.2" id="14,7" /><path d="M 169.3 39.6 L 169.3 35.1 L 169.6 35.1" id="12,6" /><path d="M 172.2 44.0 L 172.2 41.1 L 250.4 41.1" id="10,5" /><path d="M 172.2 44.0 L 172.2 47.0 L 172.2 47.0" id="10,4" /><path d="M 169.4 58.2 L 169.4 53.0 L 170.5 53.0" id="11,3" /><path d="M 169.8 63.4 L 169.8 58.9 L 169.8 58.9" id="9,2" /><path d="M 172.7 67.9 L 172.7 64.9 L 174.7 64.9" id="8,1" /><path d="M 172.7 67.9 L 172.7 70.8 L 173.3 70.8" id="8,0" /></g><g class="toytree-Nodes" style="fill:rgb(100%,0%,0%);fill-opacity:1.0;stroke:None;stroke-width:1"><g id="node-0" transform="translate(173.341,70.833)"><circle r="2.5" /></g><g id="node-1" transform="translate(174.678,64.881)"><circle r="2.5" /></g><g id="node-2" transform="translate(169.758,58.929)"><circle r="2.5" /></g><g id="node-3" transform="translate(170.480,52.976)"><circle r="2.5" /></g><g id="node-4" transform="translate(172.206,47.024)"><circle r="2.5" /></g><g id="node-5" transform="translate(250.424,41.071)"><circle r="2.5" /></g><g id="node-6" transform="translate(169.576,35.119)"><circle r="2.5" /></g><g id="node-7" transform="translate(170.754,29.167)"><circle r="2.5" /></g><g id="node-8" transform="translate(172.668,67.857)"><circle r="0.0" /></g><g id="node-9" transform="translate(169.758,63.393)"><circle r="0.0" /></g><g id="node-10" transform="translate(172.206,44.048)"><circle r="0.0" /></g><g id="node-11" transform="translate(169.444,58.185)"><circle r="0.0" /></g><g id="node-12" transform="translate(169.312,39.583)"><circle r="0.0" /></g><g id="node-13" transform="translate(168.697,48.884)"><circle r="0.0" /></g><g id="node-14" transform="translate(168.052,39.025)"><circle r="0.0" /></g></g></g></g></g><g class="toyplot-coordinates-Cartesian" id="td8618adb50c44bd6839e02930e5a0205"><clipPath id="t606ea135558442fb9fe956de1b4575b3"><rect x="295.0" y="15.0" width="110.0" height="70.0" /></clipPath><g clip-path="url(#t606ea135558442fb9fe956de1b4575b3)"><g class="toytree-mark-Toytree" id="t8b8b171e63af432cba6bceaa095fd166"><g class="toytree-Edges" style="fill:none;stroke:rgb(14.9%,14.9%,14.9%);stroke-linecap:round;stroke-opacity:1;stroke-width:0.5"><path d="M 305.0 35.3 L 305.0 41.4 L 369.6 41.4" id="14,13" /><path d="M 369.6 41.4 L 369.6 47.8 L 374.9 47.8" id="13,12" /><path d="M 374.9 47.8 L 374.9 54.5 L 376.4 54.5" id="12,11" /><path d="M 376.4 54.5 L 376.4 61.9 L 377.8 61.9" id="11,10" /><path d="M 377.8 61.9 L 377.8 56.0 L 382.0 56.0" id="10,9" /><path d="M 377.8 61.9 L 377.8 67.9 L 380.5 67.9" id="10,8" /><path d="M 305.0 35.3 L 305.0 29.2 L 382.1 29.2" id="14,7" /><path d="M 369.6 41.4 L 369.6 35.1 L 379.8 35.1" id="13,6" /><path d="M 374.9 47.8 L 374.9 41.1 L 378.0 41.1" id="12,5" /><path d="M 376.4 54.5 L 376.4 47.0 L 379.4 47.0" id="11,4" /><path d="M 382.0 56.0 L 382.0 53.0 L 390.3 53.0" id="9,3" /><path d="M 382.0 56.0 L 382.0 58.9 L 383.4 58.9" id="9,2" /><path d="M 380.5 67.9 L 380.5 64.9 L 384.2 64.9" id="8,1" /><path d="M 380.5 67.9 L 380.5 70.8 L 380.7 70.8" id="8,0" /></g><g class="toytree-Nodes" style="fill:rgb(100%,0%,0%);fill-opacity:1.0;stroke:None;stroke-width:1"><g id="node-0" transform="translate(380.650,70.833)"><circle r="2.5" /></g><g id="node-1" transform="translate(384.151,64.881)"><circle r="2.5" /></g><g id="node-2" transform="translate(383.389,58.929)"><circle r="2.5" /></g><g id="node-3" transform="translate(390.263,52.976)"><circle r="2.5" /></g><g id="node-4" transform="translate(379.442,47.024)"><circle r="2.5" /></g><g id="node-5" transform="translate(377.960,41.071)"><circle r="2.5" /></g><g id="node-6" transform="translate(379.836,35.119)"><circle r="2.5" /></g><g id="node-7" transform="translate(382.054,29.167)"><circle r="2.5" /></g><g id="node-8" transform="translate(380.509,67.857)"><circle r="0.0" /></g><g id="node-9" transform="translate(381.991,55.952)"><circle r="0.0" /></g><g id="node-10" transform="translate(377.786,61.905)"><circle r="0.0" /></g><g id="node-11" transform="translate(376.404,54.464)"><circle r="0.0" /></g><g id="node-12" transform="translate(374.885,47.768)"><circle r="0.0" /></g><g id="node-13" transform="translate(369.603,41.443)"><circle r="0.0" /></g><g id="node-14" transform="translate(305.000,35.305)"><circle r="0.0" /></g></g></g></g></g><g class="toyplot-coordinates-Cartesian" id="t04dce68186814c0fa8ec5ace534eb4a5"><clipPath id="t5bfaa68166a745c3bae77b56981f790b"><rect x="435.0" y="15.0" width="110.0" height="70.0" /></clipPath><g clip-path="url(#t5bfaa68166a745c3bae77b56981f790b)"><g class="toytree-mark-Toytree" id="t10a1ed9369914a3ab607c9e4cc9c3925"><g class="toytree-Edges" style="fill:none;stroke:rgb(14.9%,14.9%,14.9%);stroke-linecap:round;stroke-opacity:1;stroke-width:0.5"><path d="M 445.0 36.1 L 445.0 43.1 L 495.3 43.1" id="14,13" /><path d="M 495.3 43.1 L 495.3 51.1 L 515.1 51.1" id="13,12" /><path d="M 515.1 51.1 L 515.1 44.0 L 515.9 44.0" id="12,11" /><path d="M 515.1 51.1 L 515.1 58.2 L 520.2 58.2" id="12,10" /><path d="M 520.2 58.2 L 520.2 63.4 L 522.1 63.4" id="10,9" /><path d="M 522.1 63.4 L 522.1 67.9 L 522.1 67.9" id="9,8" /><path d="M 445.0 36.1 L 445.0 29.2 L 521.6 29.2" id="14,7" /><path d="M 495.3 43.1 L 495.3 35.1 L 530.3 35.1" id="13,6" /><path d="M 515.9 44.0 L 515.9 41.1 L 515.9 41.1" id="11,5" /><path d="M 515.9 44.0 L 515.9 47.0 L 516.1 47.0" id="11,4" /><path d="M 520.2 58.2 L 520.2 53.0 L 523.6 53.0" id="10,3" /><path d="M 522.1 63.4 L 522.1 58.9 L 523.4 58.9" id="9,2" /><path d="M 522.1 67.9 L 522.1 64.9 L 522.1 64.9" id="8,1" /><path d="M 522.1 67.9 L 522.1 70.8 L 522.1 70.8" id="8,0" /></g><g class="toytree-Nodes" style="fill:rgb(100%,0%,0%);fill-opacity:1.0;stroke:None;stroke-width:1"><g id="node-0" transform="translate(522.050,70.833)"><circle r="2.5" /></g><g id="node-1" transform="translate(522.050,64.881)"><circle r="2.5" /></g><g id="node-2" transform="translate(523.403,58.929)"><circle r="2.5" /></g><g id="node-3" transform="translate(523.625,52.976)"><circle r="2.5" /></g><g id="node-4" transform="translate(516.147,47.024)"><circle r="2.5" /></g><g id="node-5" transform="translate(515.894,41.071)"><circle r="2.5" /></g><g id="node-6" transform="translate(530.263,35.119)"><circle r="2.5" /></g><g id="node-7" transform="translate(521.587,29.167)"><circle r="2.5" /></g><g id="node-8" transform="translate(522.050,67.857)"><circle r="0.0" /></g><g id="node-9" transform="translate(522.050,63.393)"><circle r="0.0" /></g><g id="node-10" transform="translate(520.222,58.185)"><circle r="0.0" /></g><g id="node-11" transform="translate(515.894,44.048)"><circle r="0.0" /></g><g id="node-12" transform="translate(515.096,51.116)"><circle r="0.0" /></g><g id="node-13" transform="translate(495.253,43.118)"><circle r="0.0" /></g><g id="node-14" transform="translate(445.000,36.142)"><circle r="0.0" /></g></g></g></g></g></svg>