<svg class="toyplot-canvas-Canvas" xmlns:toyplot="http://www.sandia.gov/toyplot" xmlns:xlink="http://www.w3.org/1999/xlink" xmlns="http://www.w3.org/2000/svg" width="560.0px" height="100.0px" viewBox="0 0 560.0 100.0" preserveAspectRatio="xMidYMid meet" style="background-color:transparent;border-color:#292724;border-style:none;border-width:1.0;fill:rgb(16.1%,15.3%,14.1%);fill-opacity:1.0;font-family:Helvetica;font-size:12px;opacity:1.0;stroke:rgb(16.1%,15.3%,14.1%);stroke-opacity:1.0;stroke-width:1.0" id="tefdd1b005e6949cb82ee039043d8e22a"><g class="toyplot-coordinates-Cartesian" id="tf8e06cf5124d4f6dbf6d1352c7edde76"><clipPath id="t02f1379999c544cf943c105dd1a3e738"><rect x="15.0" y="15.0" width="110.0" height="70.0" /></clipPath><g clip-path="url(#t02f1379999c544cf943c105dd1a3e738)"><g class="toytree-mark-Toytree" id="tbe2877ee9e2a47c9a5af2b211a0e5025"><g class="toytree-Edges" style="fill:none;stroke:rgb(14.9%,14.9%,14.9%);stroke-linecap:round;stroke-opacity:1;stroke-width:0.5"><path d="M 25.0 42.9 L 25.0 32.6 L 27.4 32.6" id="36,35" /><path d="M 25.0 42.9 L 25.0 53.2 L 25.7 53.2" id="36,34" /><path d="M 27.4 32.6 L 27.4 36.1 L 29.9 36.1" id="35,33" /><path d="M 25.7 53.2 L 25.7 47.1 L 28.2 47.1" id="34,32" /><path d="M 25.7 53.2 L 25.7 59.3 L 29.9 59.3" id="34,31" /><path d="M 29.9 36.1 L 29.9 32.6 L 38.8 32.6" id="33,30" /><path d="M 29.9 36.1 L 29.9 39.6 L 40.6 39.6" id="33,29" /><path d="M 28.2 47.1 L 28.2 48.8 L 38.7 48.8" id="32,28" /><path d="M 29.9 59.3 L 29.9 54.1 L 61.4 54.1" id="31,27" /><path d="M 29.9 59.3 L 29.9 64.5 L 31.0 64.5" id="31,26" /><path d="M 40.6 39.6 L 40.6 37.3 L 42.5 37.3" id="29,25" /><path d="M 40.6 39.6 L 40.6 41.9 L 52.1 41.9" id="29,24" /><path d="M 61.4 54.1 L 61.4 55.8 L 69.9 55.8" id="27,23" /><path d="M 31.0 64.5 L 31.0 61.0 L 39.5 61.0" id="26,22" /><path d="M 31.0 64.5 L 31.0 67.9 L 33.1 67.9" id="26,21" /><path d="M 39.5 61.0 L 39.5 62.7 L 52.8 62.7" id="22,20" /><path d="M 33.1 67.9 L 33.1 69.7 L 38.8 69.7" id="21,19" /><path d="M 27.4 32.6 L 27.4 29.2 L 95.5 29.2" id="35,18" /><path d="M 38.8 32.6 L 38.8 31.5 L 97.7 31.5" id="30,17" /><path d="M 38.8 32.6 L 38.8 33.8 L 91.4 33.8" id="30,16" /><path d="M 42.5 37.3 L 42.5 36.1 L 97.7 36.1" id="25,15" /><path d="M 42.5 37.3 L 42.5 38.4 L 91.2 38.4" id="25,14" /><path d="M 52.1 41.9 L 52.1 40.7 L 90.9 40.7" id="24,13" /><path d="M 52.1 41.9 L 52.1 43.1 L 94.1 43.1" id="24,12" /><path d="M 28.2 47.1 L 28.2 45.4 L 81.1 45.4" id="32,11" /><path d="M 38.7 48.8 L 38.7 47.7 L 110.3 47.7" id="28,10" /><path d="M 38.7 48.8 L 38.7 50.0 L 90.3 50.0" id="28,9" /><path d="M 61.4 54.1 L 61.4 52.3 L 83.6 52.3" id="27,8" /><path d="M 69.9 55.8 L 69.9 54.6 L 88.6 54.6" id="23,7" /><path d="M 69.9 55.8 L 69.9 56.9 L 85.9 56.9" id="23,6" /><path d="M 39.5 61.0 L 39.5 59.3 L 98.8 59.3" id="22,5" /><path d="M 52.8 62.7 L 52.8 61.6 L 98.2 61.6" id="20,4" /><path d="M 52.8 62.7 L 52.8 63.9 L 99.7 63.9" id="20,3" /><path d="M 33.1 67.9 L 33.1 66.2 L 90.6 66.2" id="21,2" /><path d="M 38.8 69.7 L 38.8 68.5 L 109.5 68.5" id="19,1" /><path d="M 38.8 69.7 L 38.8 70.8 L 106.5 70.8" id="19,0" /></g><g class="toytree-Nodes" style="fill:rgb(100%,0%,0%);fill-opacity:1.0;stroke:None;stroke-width:1"><g id="node-0" transform="translate(106.499,70.833)"><circle r="2.5" /></g><g id="node-1" transform="translate(109.475,68.519)"><circle r="2.5" /></g><g id="node-2" transform="translate(90.575,66.204)"><circle r="2.5" /></g><g id="node-3" transform="translate(99.654,63.889)"><circle r="2.5" /></g><g id="node-4" transform="translate(98.153,61.574)"><circle r="2.5" /></g><g id="node-5" transform="translate(98.815,59.259)"><circle r="2.5" /></g><g id="node-6" transform="translate(85.912,56.944)"><circle r="2.5" /></g><g id="node-7" transform="translate(88.608,54.630)"><circle r="2.5" /></g><g id="node-8" transform="translate(83.610,52.315)"><circle r="2.5" /></g><g id="node-9" transform="translate(90.332,50.000)"><circle r="2.5" /></g><g id="node-10" transform="translate(110.263,47.685)"><circle r="2.5" /></g><g id="node-11" transform="translate(81.122,45.370)"><circle r="2.5" /></g><g id="node-12" transform="translate(94.054,43.056)"><circle r="2.5" /></g><g id="node-13" transform="translate(90.901,40.741)"><circle r="2.5" /></g><g id="node-14" transform="translate(91.208,38.426)"><circle r="2.5" /></g><g id="node-15" transform="translate(97.661,36.111)"><circle r="2.5" /></g><g id="node-16" transform="translate(91.418,33.796)"><circle r="2.5" /></g><g id="node-17" transform="translate(97.709,31.481)"><circle r="2.5" /></g><g id="node-18" transform="translate(95.468,29.167)"><circle r="2.5" /></g><g id="node-19" transform="translate(38.796,69.676)"><circle r="0.0" /></g><g id="node-20" transform="translate(52.776,62.731)"><circle r="0.0" /></g><g id="node-21" transform="translate(33.068,67.940)"><circle r="0.0" /></g><g id="node-22" transform="translate(39.457,60.995)"><circle r="0.0" /></g><g id="node-23" transform="translate(69.899,55.787)"><circle r="0.0" /></g><g id="node-24" transform="translate(52.053,41.898)"><circle r="0.0" /></g><g id="node-25" transform="translate(42.477,37.269)"><circle r="0.0" /></g><g id="node-26" transform="translate(30.987,64.468)"><circle r="0.0" /></g><g id="node-27" transform="translate(61.358,54.051)"><circle r="0.0" /></g><g id="node-28" transform="translate(38.709,48.843)"><circle r="0.0" /></g><g id="node-29" transform="translate(40.612,39.583)"><circle r="0.0" /></g><g id="node-30" transform="translate(38.805,32.639)"><circle r="0.0" /></g><g id="node-31" transform="translate(29.857,59.259)"><circle r="0.0" /></g><g id="node-32" transform="translate(28.234,47.106)"><circle r="0.0" /></g><g id="node-33" transform="translate(29.919,36.111)"><circle r="0.0" /></g><g id="node-34" transform="translate(25.741,53.183)"><circle r="0.0" /></g><g id="node-35" transform="translate(27.448,32.639)"><circle r="0.0" /></g><g id="node-36" transform="translate(25.000,42.911)"><circle r="0.0" /></g></g></g></g></g><g class="toyplot-coordinates-Cartesian" id="t814c3ccb77cb417e9359c10acf93b2d9"><clipPath id="teef83167475d48e1ac0d00f481728cd2"><rect x="155.0" y="15.0" width="110.0" height="70.0" /></clipPath><g clip-path="url(#teef83167475d48e1ac0d00f481728cd2)"><g class="toytree-mark-Toytree" id="tdf0c62028d5a4e94822482ad1ea1df93"><g class="toytree-Edges" style="fill:none;stroke:rgb(14.9%,14.9%,14.9%);stroke-linecap:round;stroke-opacity:1;stroke-width:0.5"><path d="M 165.0 32.9 L 165.0 36.6 L 175.8 36.6" id="36,35" /><path d="M 175.8 36.6 L 175.8 41.7 L 184.0 41.7" id="35,34" /><path d="M 184.0 41.7 L 184.0 35.0 L 196.1 35.0" id="34,33" /><path d="M 184.0 41.7 L 184.0 48.5 L 190.2 48.5" id="34,32" /><path d="M 190.2 48.5 L 190.2 40.2 L 193.0 40.2" id="32,31" /><path d="M 190.2 48.5 L 190.2 56.9 L 203.6 56.9" id="32,30" /><path d="M 193.0 40.2 L 193.0 41.9 L 196.7 41.9" id="31,29" /><path d="M 203.6 56.9 L 203.6 49.3 L 207.3 49.3" id="30,28" /><path d="M 203.6 56.9 L 203.6 64.5 L 206.5 64.5" id="30,27" /><path d="M 207.3 49.3 L 207.3 46.5 L 218.2 46.5" id="28,26" /><path d="M 207.3 49.3 L 207.3 52.0 L 214.7 52.0" id="28,25" /><path d="M 206.5 64.5 L 206.5 61.0 L 216.3 61.0" id="27,24" /><path d="M 206.5 64.5 L 206.5 67.9 L 208.9 67.9" id="27,23" /><path d="M 214.7 52.0 L 214.7 54.1 L 214.7 54.1" id="25,22" /><path d="M 216.3 61.0 L 216.3 62.7 L 218.3 62.7" id="24,21" /><path d="M 208.9 67.9 L 208.9 69.7 L 215.8 69.7" id="23,20" /><path d="M 214.7 54.1 L 214.7 55.8 L 229.7 55.8" id="22,19" /><path d="M 165.0 32.9 L 165.0 29.2 L 218.9 29.2" id="36,18" /><path d="M 175.8 36.6 L 175.8 31.5 L 229.6 31.5" id="35,17" /><path d="M 196.1 35.0 L 196.1 33.8 L 250.3 33.8" id="33,16" /><path d="M 196.1 35.0 L 196.1 36.1 L 196.1 36.1" id="33,15" /><path d="M 193.0 40.2 L 193.0 38.4 L 208.8 38.4" id="31,14" /><path d="M 196.7 41.9 L 196.7 40.7 L 229.0 40.7" id="29,13" /><path d="M 196.7 41.9 L 196.7 43.1 L 196.7 43.1" id="29,12" /><path d="M 218.2 46.5 L 218.2 45.4 L 218.2 45.4" id="26,11" /><path d="M 218.2 46.5 L 218.2 47.7 L 245.5 47.7" id="26,10" /><path d="M 214.7 52.0 L 214.7 50.0 L 214.7 50.0" id="25,9" /><path d="M 214.7 54.1 L 214.7 52.3 L 219.9 52.3" id="22,8" /><path d="M 229.7 55.8 L 229.7 54.6 L 234.6 54.6" id="19,7" /><path d="M 229.7 55.8 L 229.7 56.9 L 232.7 56.9" id="19,6" /><path d="M 216.3 61.0 L 216.3 59.3 L 216.9 59.3" id="24,5" /><path d="M 218.3 62.7 L 218.3 61.6 L 220.0 61.6" id="21,4" /><path d="M 218.3 62.7 L 218.3 63.9 L 222.2 63.9" id="21,3" /><path d="M 208.9 67.9 L 208.9 66.2 L 221.2 66.2" id="23,2" /><path d="M 215.8 69.7 L 215.8 68.5 L 234.8 68.5" id="20,1" /><path d="M 215.8 69.7 L 215.8 70.8 L 215.8 70.8" id="20,0" /></g><g class="toytree-Nodes" style="fill:rgb(100%,0%,0%);fill-opacity:1.0;stroke:None;stroke-width:1"><g id="node-0" transform="translate(215.815,70.833)"><circle r="2.5" /></g><g id="node-1" transform="translate(234.765,68.519)"><circle r="2.5" /></g><g id="node-2" transform="translate(221.182,66.204)"><circle r="2.5" /></g><g id="node-3" transform="translate(222.224,63.889)"><circle r="2.5" /></g><g id="node-4" transform="translate(220.002,61.574)"><circle r="2.5" /></g><g id="node-5" transform="translate(216.936,59.259)"><circle r="2.5" /></g><g id="node-6" transform="translate(232.672,56.944)"><circle r="2.5" /></g><g id="node-7" transform="translate(234.577,54.630)"><circle r="2.5" /></g><g id="node-8" transform="translate(219.922,52.315)"><circle r="2.5" /></g><g id="node-9" transform="translate(214.743,50.000)"><circle r="2.5" /></g><g id="node-10" transform="translate(245.501,47.685)"><circle r="2.5" /></g><g id="node-11" transform="translate(218.216,45.370)"><circle r="2.5" /></g><g id="node-12" transform="translate(196.695,43.056)"><circle r="2.5" /></g><g id="node-13" transform="translate(229.040,40.741)"><circle r="2.5" /></g><g id="node-14" transform="translate(208.830,38.426)"><circle r="2.5" /></g><g id="node-15" transform="translate(196.090,36.111)"><circle r="2.5" /></g><g id="node-16" transform="translate(250.263,33.796)"><circle r="2.5" /></g><g id="node-17" transform="translate(229.616,31.481)"><circle r="2.5" /></g><g id="node-18" transform="translate(218.950,29.167)"><circle r="2.5" /></g><g id="node-19" transform="translate(229.705,55.787)"><circle r="0.0" /></g><g id="node-20" transform="translate(215.815,69.676)"><circle r="0.0" /></g><g id="node-21" transform="translate(218.335,62.731)"><circle r="0.0" /></g><g id="node-22" transform="translate(214.743,54.051)"><circle r="0.0" /></g><g id="node-23" transform="translate(208.899,67.940)"><circle r="0.0" /></g><g id="node-24" transform="translate(216.321,60.995)"><circle r="0.0" /></g><g id="node-25" transform="translate(214.743,52.025)"><circle r="0.0" /></g><g id="node-26" transform="translate(218.216,46.528)"><circle r="0.0" /></g><g id="node-27" transform="translate(206.488,64.468)"><circle r="0.0" /></g><g id="node-28" transform="translate(207.252,49.277)"><circle r="0.0" /></g><g id="node-29" transform="translate(196.695,41.898)"><circle r="0.0" /></g><g id="node-30" transform="translate(203.631,56.872)"><circle r="0.0" /></g><g id="node-31" transform="translate(193.014,40.162)"><circle r="0.0" /></g><g id="node-32" transform="translate(190.216,48.517)"><circle r="0.0" /></g><g id="node-33" transform="translate(196.090,34.954)"><circle r="0.0" /></g><g id="node-34" transform="translate(183.985,41.735)"><circle r="0.0" /></g><g id="node-35" transform="translate(175.800,36.608)"><circle r="0.0" /></g><g id="node-36" transform="translate(165.000,32.888)"><circle r="0.0" /></g></g></g></g></g><g class="toyplot-coordinates-Cartesian" id="t203a7ccfcdc74217870b1f0a3762bb79"><clipPath id="t389e5309104b4e3bbb65abb06870042c"><rect x="295.0" y="15.0" width="110.0" height="70.0" /></clipPath><g clip-path="url(#t389e5309104b4e3bbb65abb06870042c)"><g class="toytree-mark-Toytree" id="tfa0a7a0103c34fe0a336a5b90ded9e7d"><g class="toytree-Edges" style="fill:none;stroke:rgb(14.9%,14.9%,14.9%);stroke-linecap:round;stroke-opacity:1;stroke-width:0.5"><path d="M 305.0 31.8 L 305.0 34.5 L 314.3 34.5" id="36,35" /><path d="M 314.3 34.5 L 314.3 37.4 L 318.6 37.4" id="35,34" /><path d="M 318.6 37.4 L 318.6 41.1 L 320.2 41.1" id="34,33" /><path d="M 320.2 41.1 L 320.2 46.0 L 326.9 46.0" id="33,32" /><path d="M 326.9 46.0 L 326.9 40.2 L 331.8 40.2" id="32,31" /><path d="M 326.9 46.0 L 326.9 51.9 L 332.9 51.9" id="32,30" /><path d="M 331.8 40.2 L 331.8 41.9 L 335.5 41.9" id="31,29" /><path d="M 332.9 51.9 L 332.9 47.1 L 344.4 47.1" id="30,28" /><path d="M 332.9 51.9 L 332.9 56.8 L 333.9 56.8" id="30,27" /><path d="M 344.4 47.1 L 344.4 48.8 L 347.5 48.8" id="28,26" /><path d="M 333.9 56.8 L 333.9 53.5 L 342.7 53.5" id="27,25" /><path d="M 333.9 56.8 L 333.9 60.1 L 339.8 60.1" id="27,24" /><path d="M 339.8 60.1 L 339.8 63.2 L 341.1 63.2" id="24,23" /><path d="M 341.1 63.2 L 341.1 60.4 L 341.4 60.4" id="23,22" /><path d="M 341.1 63.2 L 341.1 65.9 L 343.6 65.9" id="23,21" /><path d="M 343.6 65.9 L 343.6 67.9 L 346.9 67.9" id="21,20" /><path d="M 346.9 67.9 L 346.9 69.7 L 356.1 69.7" id="20,19" /><path d="M 305.0 31.8 L 305.0 29.2 L 356.4 29.2" id="36,18" /><path d="M 314.3 34.5 L 314.3 31.5 L 361.9 31.5" id="35,17" /><path d="M 318.6 37.4 L 318.6 33.8 L 367.3 33.8" id="34,16" /><path d="M 320.2 41.1 L 320.2 36.1 L 336.5 36.1" id="33,15" /><path d="M 331.8 40.2 L 331.8 38.4 L 342.0 38.4" id="31,14" /><path d="M 335.5 41.9 L 335.5 40.7 L 362.7 40.7" id="29,13" /><path d="M 335.5 41.9 L 335.5 43.1 L 356.0 43.1" id="29,12" /><path d="M 344.4 47.1 L 344.4 45.4 L 354.2 45.4" id="28,11" /><path d="M 347.5 48.8 L 347.5 47.7 L 355.0 47.7" id="26,10" /><path d="M 347.5 48.8 L 347.5 50.0 L 354.2 50.0" id="26,9" /><path d="M 342.7 53.5 L 342.7 52.3 L 347.3 52.3" id="25,8" /><path d="M 342.7 53.5 L 342.7 54.6 L 359.8 54.6" id="25,7" /><path d="M 339.8 60.1 L 339.8 56.9 L 372.5 56.9" id="24,6" /><path d="M 341.4 60.4 L 341.4 59.3 L 345.8 59.3" id="22,5" /><path d="M 341.4 60.4 L 341.4 61.6 L 390.3 61.6" id="22,4" /><path d="M 343.6 65.9 L 343.6 63.9 L 352.8 63.9" id="21,3" /><path d="M 346.9 67.9 L 346.9 66.2 L 362.3 66.2" id="20,2" /><path d="M 356.1 69.7 L 356.1 68.5 L 374.5 68.5" id="19,1" /><path d="M 356.1 69.7 L 356.1 70.8 L 372.1 70.8" id="19,0" /></g><g class="toytree-Nodes" style="fill:rgb(100%,0%,0%);fill-opacity:1.0;stroke:None;stroke-width:1"><g id="node-0" transform="translate(372.077,70.833)"><circle r="2.5" /></g><g id="node-1" transform="translate(374.488,68.519)"><circle r="2.5" /></g><g id="node-2" transform="translate(362.267,66.204)"><circle r="2.5" /></g><g id="node-3" transform="translate(352.798,63.889)"><circle r="2.5" /></g><g id="node-4" transform="translate(390.263,61.574)"><circle r="2.5" /></g><g id="node-5" transform="translate(345.777,59.259)"><circle r="2.5" /></g><g id="node-6" transform="translate(372.481,56.944)"><circle r="2.5" /></g><g id="node-7" transform="translate(359.850,54.630)"><circle r="2.5" /></g><g id="node-8" transform="translate(347.287,52.315)"><circle r="2.5" /></g><g id="node-9" transform="translate(354.227,50.000)"><circle r="2.5" /></g><g id="node-10" transform="translate(355.047,47.685)"><circle r="2.5" /></g><g id="node-11" transform="translate(354.177,45.370)"><circle r="2.5" /></g><g id="node-12" transform="translate(356.041,43.056)"><circle r="2.5" /></g><g id="node-13" transform="translate(362.739,40.741)"><circle r="2.5" /></g><g id="node-14" transform="translate(342.030,38.426)"><circle r="2.5" /></g><g id="node-15" transform="translate(336.476,36.111)"><circle r="2.5" /></g><g id="node-16" transform="translate(367.306,33.796)"><circle r="2.5" /></g><g id="node-17" transform="translate(361.919,31.481)"><circle r="2.5" /></g><g id="node-18" transform="translate(356.377,29.167)"><circle r="2.5" /></g><g id="node-19" transform="translate(356.103,69.676)"><circle r="0.0" /></g><g id="node-20" transform="translate(346.883,67.940)"><circle r="0.0" /></g><g id="node-21" transform="translate(343.602,65.914)"><circle r="0.0" /></g><g id="node-22" transform="translate(341.366,60.417)"><circle r="0.0" /></g><g id="node-23" transform="translate(341.092,63.166)"><circle r="0.0" /></g><g id="node-24" transform="translate(339.775,60.055)"><circle r="0.0" /></g><g id="node-25" transform="translate(342.726,53.472)"><circle r="0.0" /></g><g id="node-26" transform="translate(347.523,48.843)"><circle r="0.0" /></g><g id="node-27" transform="translate(333.897,56.764)"><circle r="0.0" /></g><g id="node-28" transform="translate(344.404,47.106)"><circle r="0.0" /></g><g id="node-29" transform="translate(335.469,41.898)"><circle r="0.0" /></g><g id="node-30" transform="translate(332.928,51.935)"><circle r="0.0" /></g><g id="node-31" transform="translate(331.760,40.162)"><circle r="0.0" /></g><g id="node-32" transform="translate(326.870,46.049)"><circle r="0.0" /></g><g id="node-33" transform="translate(320.191,41.080)"><circle r="0.0" /></g><g id="node-34" transform="translate(318.625,37.438)"><circle r="0.0" /></g><g id="node-35" transform="translate(314.307,34.460)"><circle r="0.0" /></g><g id="node-36" transform="translate(305.000,31.813)"><circle r="0.0" /></g></g></g></g></g><g class="toyplot-coordinates-Cartesian" id="te8bfbdace8764d728d7b384b4a50ef6f"><clipPath id="tf67a849588b747aab62e07aae2aac5a9"><rect x="435.0" y="15.0" width="110.0" height="70.0" /></clipPath><g clip-path="url(#tf67a849588b747aab62e07aae2aac5a9)"><g class="toytree-mark-Toytree" id="tce1833dad8c545b5a95a9d4a1e8c571d"><g class="toytree-Edges" style="fill:none;stroke:rgb(14.9%,14.9%,14.9%);stroke-linecap:round;stroke-opacity:1;stroke-width:0.5"><path d="M 445.0 41.0 L 445.0 33.1 L 454.7 33.1" id="36,35" /><path d="M 445.0 41.0 L 445.0 49.0 L 447.1 49.0" id="36,34" /><path d="M 454.7 33.1 L 454.7 30.3 L 462.7 30.3" id="35,33" /><path d="M 454.7 33.1 L 454.7 35.8 L 469.0 35.8" id="35,32" /><path d="M 447.1 49.0 L 447.1 44.8 L 457.5 44.8" id="34,31" /><path d="M 447.1 49.0 L 447.1 53.1 L 451.1 53.1" id="34,30" /><path d="M 469.0 35.8 L 469.0 37.8 L 495.6 37.8" id="32,29" /><path d="M 457.5 44.8 L 457.5 46.5 L 464.1 46.5" id="31,28" /><path d="M 451.1 53.1 L 451.1 56.2 L 460.5 56.2" id="30,27" /><path d="M 495.6 37.8 L 495.6 39.6 L 502.5 39.6" id="29,26" /><path d="M 460.5 56.2 L 460.5 60.1 L 463.8 60.1" id="27,25" /><path d="M 463.8 60.1 L 463.8 55.8 L 479.3 55.8" id="25,24" /><path d="M 463.8 60.1 L 463.8 64.5 L 469.4 64.5" id="25,23" /><path d="M 469.4 64.5 L 469.4 61.0 L 490.8 61.0" id="23,22" /><path d="M 469.4 64.5 L 469.4 67.9 L 475.7 67.9" id="23,21" /><path d="M 490.8 61.0 L 490.8 62.7 L 495.2 62.7" id="22,20" /><path d="M 475.7 67.9 L 475.7 69.7 L 490.7 69.7" id="21,19" /><path d="M 462.7 30.3 L 462.7 29.2 L 494.4 29.2" id="33,18" /><path d="M 462.7 30.3 L 462.7 31.5 L 484.5 31.5" id="33,17" /><path d="M 469.0 35.8 L 469.0 33.8 L 481.5 33.8" id="32,16" /><path d="M 495.6 37.8 L 495.6 36.1 L 498.8 36.1" id="29,15" /><path d="M 502.5 39.6 L 502.5 38.4 L 522.2 38.4" id="26,14" /><path d="M 502.5 39.6 L 502.5 40.7 L 530.3 40.7" id="26,13" /><path d="M 457.5 44.8 L 457.5 43.1 L 508.0 43.1" id="31,12" /><path d="M 464.1 46.5 L 464.1 45.4 L 496.2 45.4" id="28,11" /><path d="M 464.1 46.5 L 464.1 47.7 L 478.9 47.7" id="28,10" /><path d="M 451.1 53.1 L 451.1 50.0 L 483.2 50.0" id="30,9" /><path d="M 460.5 56.2 L 460.5 52.3 L 486.0 52.3" id="27,8" /><path d="M 479.3 55.8 L 479.3 54.6 L 506.5 54.6" id="24,7" /><path d="M 479.3 55.8 L 479.3 56.9 L 527.2 56.9" id="24,6" /><path d="M 490.8 61.0 L 490.8 59.3 L 495.7 59.3" id="22,5" /><path d="M 495.2 62.7 L 495.2 61.6 L 497.9 61.6" id="20,4" /><path d="M 495.2 62.7 L 495.2 63.9 L 503.0 63.9" id="20,3" /><path d="M 475.7 67.9 L 475.7 66.2 L 491.9 66.2" id="21,2" /><path d="M 490.7 69.7 L 490.7 68.5 L 512.5 68.5" id="19,1" /><path d="M 490.7 69.7 L 490.7 70.8 L 504.5 70.8" id="19,0" /></g><g class="toytree-Nodes" style="fill:rgb(100%,0%,0%);fill-opacity:1.0;stroke:None;stroke-width:1"><g id="node-0" transform="translate(504.456,70.833)"><circle r="2.5" /></g><g id="node-1" transform="translate(512.539,68.519)"><circle r="2.5" /></g><g id="node-2" transform="translate(491.916,66.204)"><circle r="2.5" /></g><g id="node-3" transform="translate(502.986,63.889)"><circle r="2.5" /></g><g id="node-4" transform="translate(497.879,61.574)"><circle r="2.5" /></g><g id="node-5" transform="translate(495.722,59.259)"><circle r="2.5" /></g><g id="node-6" transform="translate(527.190,56.944)"><circle r="2.5" /></g><g id="node-7" transform="translate(506.494,54.630)"><circle r="2.5" /></g><g id="node-8" transform="translate(485.986,52.315)"><circle r="2.5" /></g><g id="node-9" transform="translate(483.232,50.000)"><circle r="2.5" /></g><g id="node-10" transform="translate(478.873,47.685)"><circle r="2.5" /></g><g id="node-11" transform="translate(496.242,45.370)"><circle r="2.5" /></g><g id="node-12" transform="translate(507.976,43.056)"><circle r="2.5" /></g><g id="node-13" transform="translate(530.263,40.741)"><circle r="2.5" /></g><g id="node-14" transform="translate(522.167,38.426)"><circle r="2.5" /></g><g id="node-15" transform="translate(498.831,36.111)"><circle r="2.5" /></g><g id="node-16" transform="translate(481.510,33.796)"><circle r="2.5" /></g><g id="node-17" transform="translate(484.490,31.481)"><circle r="2.5" /></g><g id="node-18" transform="translate(494.414,29.167)"><circle r="2.5" /></g><g id="node-19" transform="translate(490.744,69.676)"><circle r="0.0" /></g><g id="node-20" transform="translate(495.224,62.731)"><circle r="0.0" /></g><g id="node-21" transform="translate(475.708,67.940)"><circle r="0.0" /></g><g id="node-22" transform="translate(490.772,60.995)"><circle r="0.0" /></g><g id="node-23" transform="translate(469.375,64.468)"><circle r="0.0" /></g><g id="node-24" transform="translate(479.260,55.787)"><circle r="0.0" /></g><g id="node-25" transform="translate(463.846,60.127)"><circle r="0.0" /></g><g id="node-26" transform="translate(502.461,39.583)"><circle r="0.0" /></g><g id="node-27" transform="translate(460.501,56.221)"><circle r="0.0" /></g><g id="node-28" transform="translate(464.119,46.528)"><circle r="0.0" /></g><g id="node-29" transform="translate(495.624,37.847)"><circle r="0.0" /></g><g id="node-30" transform="translate(451.122,53.111)"><circle r="0.0" /></g><g id="node-31" transform="translate(457.480,44.792)"><circle r="0.0" /></g><g id="node-32" transform="translate(469.017,35.822)"><circle r="0.0" /></g><g id="node-33" transform="translate(462.715,30.324)"><circle r="0.0" /></g><g id="node-34" transform="translate(447.091,48.951)"><circle r="0.0" /></g><g id="node-35" transform="translate(454.706,33.073)"><circle r="0.0" /></g><g id="node-36" transform="translate(445.000,41.012)"><circle r="0.0" /></g></g></g></g></g></svg>