<svg class="toyplot-canvas-Canvas" xmlns:toyplot="http://www.sandia.gov/toyplot" xmlns:xlink="http://www.w3.org/1999/xlink" xmlns="http://www.w3.org/2000/svg" width="560.0px" height="100.0px" viewBox="0 0 560.0 100.0" preserveAspectRatio="xMidYMid meet" style="background-color:transparent;border-color:#292724;border-style:none;border-width:1.0;fill:rgb(16.1%,15.3%,14.1%);fill-opacity:1.0;font-family:Helvetica;font-size:12px;opacity:1.0;stroke:rgb(16.1%,15.3%,14.1%);stroke-opacity:1.0;stroke-width:1.0" id="t72a95c39f53e4df5b7b0c17092227abf"><g class="toyplot-coordinates-Cartesian" id="te46422028e2d420f8c05149aa6f4698a"><clipPath id="tee47098e7be849c5ab05b387567e889a"><rect x="15.0" y="15.0" width="110.0" height="70.0" /></clipPath><g clip-path="url(#tee47098e7be849c5ab05b387567e889a)"><g class="toytree-mark-Toytree" id="t7e0d76049cab4d51a9f8738c253c5422"><g class="toytree-Edges" style="fill:none;stroke:rgb(14.9%,14.9%,14.9%);stroke-linecap:round;stroke-opacity:1;stroke-width:0.5"><path d="M 25.0 36.7 L 25.0 44.3 L 27.0 44.3" id="16,15" /><path d="M 27.0 44.3 L 27.0 37.0 L 39.9 37.0" id="15,14" /><path d="M 27.0 44.3 L 27.0 51.6 L 32.3 51.6" id="15,13" /><path d="M 32.3 51.6 L 32.3 58.5 L 34.4 58.5" id="13,12" /><path d="M 34.4 58.5 L 34.4 52.6 L 44.8 52.6" id="12,11" /><path d="M 34.4 58.5 L 34.4 64.3 L 36.4 64.3" id="12,10" /><path d="M 36.4 64.3 L 36.4 68.2 L 43.4 68.2" id="10,9" /><path d="M 25.0 36.7 L 25.0 29.2 L 105.2 29.2" id="16,8" /><path d="M 39.9 37.0 L 39.9 34.4 L 104.8 34.4" id="14,7" /><path d="M 39.9 37.0 L 39.9 39.6 L 104.5 39.6" id="14,6" /><path d="M 32.3 51.6 L 32.3 44.8 L 103.3 44.8" id="13,5" /><path d="M 44.8 52.6 L 44.8 50.0 L 105.9 50.0" id="11,4" /><path d="M 44.8 52.6 L 44.8 55.2 L 110.3 55.2" id="11,3" /><path d="M 36.4 64.3 L 36.4 60.4 L 108.4 60.4" id="10,2" /><path d="M 43.4 68.2 L 43.4 65.6 L 107.2 65.6" id="9,1" /><path d="M 43.4 68.2 L 43.4 70.8 L 98.4 70.8" id="9,0" /></g><g class="toytree-Nodes" style="fill:rgb(100%,0%,0%);fill-opacity:1.0;stroke:None;stroke-width:1"><g id="node-0" transform="translate(98.404,70.833)"><circle r="2.5" /></g><g id="node-1" transform="translate(107.155,65.625)"><circle r="2.5" /></g><g id="node-2" transform="translate(108.428,60.417)"><circle r="2.5" /></g><g id="node-3" transform="translate(110.263,55.208)"><circle r="2.5" /></g><g id="node-4" transform="translate(105.869,50.000)"><circle r="2.5" /></g><g id="node-5" transform="translate(103.334,44.792)"><circle r="2.5" /></g><g id="node-6" transform="translate(104.503,39.583)"><circle r="2.5" /></g><g id="node-7" transform="translate(104.796,34.375)"><circle r="2.5" /></g><g id="node-8" transform="translate(105.200,29.167)"><circle r="2.5" /></g><g id="node-9" transform="translate(43.394,68.229)"><circle r="0.0" /></g><g id="node-10" transform="translate(36.378,64.323)"><circle r="0.0" /></g><g id="node-11" transform="translate(44.790,52.604)"><circle r="0.0" /></g><g id="node-12" transform="translate(34.405,58.464)"><circle r="0.0" /></g><g id="node-13" transform="translate(32.267,51.628)"><circle r="0.0" /></g><g id="node-14" transform="translate(39.886,36.979)"><circle r="0.0" /></g><g id="node-15" transform="translate(26.956,44.303)"><circle r="0.0" /></g><g id="node-16" transform="translate(25.000,36.735)"><circle r="0.0" /></g></g></g></g></g><g class="toyplot-coordinates-Cartesian" id="t777777bed95145beb04fb62aaa6c89c2"><clipPath id="t10fefae493b54b848cffe2619c2fed52"><rect x="155.0" y="15.0" width="110.0" height="70.0" /></clipPath><g clip-path="url(#t10fefae493b54b848cffe2619c2fed52)"><g class="toytree-mark-Toytree" id="t624f527bf16645cc8f97de8cd0497c81"><g class="toytree-Edges" style="fill:none;stroke:rgb(14.9%,14.9%,14.9%);stroke-linecap:round;stroke-opacity:1;stroke-width:0.5"><path d="M 165.0 38.7 L 165.0 31.8 L 172.8 31.8" id="16,15" /><path d="M 165.0 38.7 L 165.0 45.6 L 175.0 45.6" id="16,14" /><path d="M 175.0 45.6 L 175.0 51.6 L 190.2 51.6" id="14,13" /><path d="M 190.2 51.6 L 190.2 58.5 L 191.2 58.5" id="13,12" /><path d="M 191.2 58.5 L 191.2 52.6 L 201.1 52.6" id="12,11" /><path d="M 191.2 58.5 L 191.2 64.3 L 194.9 64.3" id="12,10" /><path d="M 194.9 64.3 L 194.9 68.2 L 208.0 68.2" id="10,9" /><path d="M 172.8 31.8 L 172.8 29.2 L 206.1 29.2" id="15,8" /><path d="M 172.8 31.8 L 172.8 34.4 L 250.3 34.4" id="15,7" /><path d="M 175.0 45.6 L 175.0 39.6 L 203.7 39.6" id="14,6" /><path d="M 190.2 51.6 L 190.2 44.8 L 214.6 44.8" id="13,5" /><path d="M 201.1 52.6 L 201.1 50.0 L 223.4 50.0" id="11,4" /><path d="M 201.1 52.6 L 201.1 55.2 L 218.9 55.2" id="11,3" /><path d="M 194.9 64.3 L 194.9 60.4 L 227.1 60.4" id="10,2" /><path d="M 208.0 68.2 L 208.0 65.6 L 234.1 65.6" id="9,1" /><path d="M 208.0 68.2 L 208.0 70.8 L 232.8 70.8" id="9,0" /></g><g class="toytree-Nodes" style="fill:rgb(100%,0%,0%);fill-opacity:1.0;stroke:None;stroke-width:1"><g id="node-0" transform="translate(232.752,70.833)"><circle r="2.5" /></g><g id="node-1" transform="translate(234.063,65.625)"><circle r="2.5" /></g><g id="node-2" transform="translate(227.106,60.417)"><circle r="2.5" /></g><g id="node-3" transform="translate(218.949,55.208)"><circle r="2.5" /></g><g id="node-4" transform="translate(223.376,50.000)"><circle r="2.5" /></g><g id="node-5" transform="translate(214.615,44.792)"><circle r="2.5" /></g><g id="node-6" transform="translate(203.743,39.583)"><circle r="2.5" /></g><g id="node-7" transform="translate(250.263,34.375)"><circle r="2.5" /></g><g id="node-8" transform="translate(206.059,29.167)"><circle r="2.5" /></g><g id="node-9" transform="translate(208.047,68.229)"><circle r="0.0" /></g><g id="node-10" transform="translate(194.880,64.323)"><circle r="0.0" /></g><g id="node-11" transform="translate(201.079,52.604)"><circle r="0.0" /></g><g id="node-12" transform="translate(191.160,58.464)"><circle r="0.0" /></g><g id="node-13" transform="translate(190.156,51.628)"><circle r="0.0" /></g><g id="node-14" transform="translate(175.042,45.605)"><circle r="0.0" /></g><g id="node-15" transform="translate(172.828,31.771)"><circle r="0.0" /></g><g id="node-16" transform="translate(165.000,38.688)"><circle r="0.0" /></g></g></g></g></g><g class="toyplot-coordinates-Cartesian" id="t85b14482e49345199f85a7fbcffb069d"><clipPath id="t8363059eb8884366b5518d35db23d0c3"><rect x="295.0" y="15.0" width="110.0" height="70.0" /></clipPath><g clip-path="url(#t8363059eb8884366b5518d35db23d0c3)"><g class="toytree-mark-Toytree" id="tcebce8f36a3a4c2da1b5c56d438523c4"><g class="toytree-Edges" style="fill:none;stroke:rgb(14.9%,14.9%,14.9%);stroke-linecap:round;stroke-opacity:1;stroke-width:0.5"><path d="M 305.0 34.6 L 305.0 40.0 L 311.8 40.0" id="16,15" /><path d="M 311.8 40.0 L 311.8 45.6 L 322.5 45.6" id="15,14" /><path d="M 322.5 45.6 L 322.5 51.6 L 332.1 51.6" id="14,13" /><path d="M 332.1 51.6 L 332.1 58.5 L 335.4 58.5" id="13,12" /><path d="M 335.4 58.5 L 335.4 52.6 L 342.9 52.6" id="12,11" /><path d="M 335.4 58.5 L 335.4 64.3 L 338.7 64.3" id="12,10" /><path d="M 338.7 64.3 L 338.7 68.2 L 351.0 68.2" id="10,9" /><path d="M 305.0 34.6 L 305.0 29.2 L 376.2 29.2" id="16,8" /><path d="M 311.8 40.0 L 311.8 34.4 L 361.3 34.4" id="15,7" /><path d="M 322.5 45.6 L 322.5 39.6 L 376.8 39.6" id="14,6" /><path d="M 332.1 51.6 L 332.1 44.8 L 375.1 44.8" id="13,5" /><path d="M 342.9 52.6 L 342.9 50.0 L 373.3 50.0" id="11,4" /><path d="M 342.9 52.6 L 342.9 55.2 L 375.3 55.2" id="11,3" /><path d="M 338.7 64.3 L 338.7 60.4 L 390.3 60.4" id="10,2" /><path d="M 351.0 68.2 L 351.0 65.6 L 382.4 65.6" id="9,1" /><path d="M 351.0 68.2 L 351.0 70.8 L 382.8 70.8" id="9,0" /></g><g class="toytree-Nodes" style="fill:rgb(100%,0%,0%);fill-opacity:1.0;stroke:None;stroke-width:1"><g id="node-0" transform="translate(382.757,70.833)"><circle r="2.5" /></g><g id="node-1" transform="translate(382.444,65.625)"><circle r="2.5" /></g><g id="node-2" transform="translate(390.263,60.417)"><circle r="2.5" /></g><g id="node-3" transform="translate(375.257,55.208)"><circle r="2.5" /></g><g id="node-4" transform="translate(373.253,50.000)"><circle r="2.5" /></g><g id="node-5" transform="translate(375.138,44.792)"><circle r="2.5" /></g><g id="node-6" transform="translate(376.784,39.583)"><circle r="2.5" /></g><g id="node-7" transform="translate(361.296,34.375)"><circle r="2.5" /></g><g id="node-8" transform="translate(376.233,29.167)"><circle r="2.5" /></g><g id="node-9" transform="translate(350.984,68.229)"><circle r="0.0" /></g><g id="node-10" transform="translate(338.664,64.323)"><circle r="0.0" /></g><g id="node-11" transform="translate(342.890,52.604)"><circle r="0.0" /></g><g id="node-12" transform="translate(335.396,58.464)"><circle r="0.0" /></g><g id="node-13" transform="translate(332.140,51.628)"><circle r="0.0" /></g><g id="node-14" transform="translate(322.486,45.605)"><circle r="0.0" /></g><g id="node-15" transform="translate(311.768,39.990)"><circle r="0.0" /></g><g id="node-16" transform="translate(305.000,34.578)"><circle r="0.0" /></g></g></g></g></g><g class="toyplot-coordinates-Cartesian" id="t64d44e02b4204dcd9a0202bc6da94c56"><clipPath id="t46d21369ac18486d8489e2f8ce91b0c7"><rect x="435.0" y="15.0" width="110.0" height="70.0" /></clipPath><g clip-path="url(#t46d21369ac18486d8489e2f8ce91b0c7)"><g class="toytree-mark-Toytree" id="t05f499f1bc694cda99bc01d6c98e1b98"><g class="toytree-Edges" style="fill:none;stroke:rgb(14.9%,14.9%,14.9%);stroke-linecap:round;stroke-opacity:1;stroke-width:0.5"><path d="M 445.0 42.4 L 445.0 33.1 L 451.4 33.1" id="16,15" /><path d="M 445.0 42.4 L 445.0 51.6 L 454.1 51.6" id="16,14" /><path d="M 451.4 33.1 L 451.4 37.0 L 475.4 37.0" id="15,13" /><path d="M 454.1 51.6 L 454.1 58.5 L 459.9 58.5" id="14,12" /><path d="M 459.9 58.5 L 459.9 52.6 L 479.5 52.6" id="12,11" /><path d="M 459.9 58.5 L 459.9 64.3 L 473.7 64.3" id="12,10" /><path d="M 473.7 64.3 L 473.7 68.2 L 481.5 68.2" id="10,9" /><path d="M 451.4 33.1 L 451.4 29.2 L 518.2 29.2" id="15,8" /><path d="M 475.4 37.0 L 475.4 34.4 L 520.5 34.4" id="13,7" /><path d="M 475.4 37.0 L 475.4 39.6 L 510.5 39.6" id="13,6" /><path d="M 454.1 51.6 L 454.1 44.8 L 508.7 44.8" id="14,5" /><path d="M 479.5 52.6 L 479.5 50.0 L 524.5 50.0" id="11,4" /><path d="M 479.5 52.6 L 479.5 55.2 L 511.8 55.2" id="11,3" /><path d="M 473.7 64.3 L 473.7 60.4 L 530.3 60.4" id="10,2" /><path d="M 481.5 68.2 L 481.5 65.6 L 520.0 65.6" id="9,1" /><path d="M 481.5 68.2 L 481.5 70.8 L 507.3 70.8" id="9,0" /></g><g class="toytree-Nodes" style="fill:rgb(100%,0%,0%);fill-opacity:1.0;stroke:None;stroke-width:1"><g id="node-0" transform="translate(507.283,70.833)"><circle r="2.5" /></g><g id="node-1" transform="translate(520.049,65.625)"><circle r="2.5" /></g><g id="node-2" transform="translate(530.263,60.417)"><circle r="2.5" /></g><g id="node-3" transform="translate(511.784,55.208)"><circle r="2.5" /></g><g id="node-4" transform="translate(524.527,50.000)"><circle r="2.5" /></g><g id="node-5" transform="translate(508.735,44.792)"><circle r="2.5" /></g><g id="node-6" transform="translate(510.459,39.583)"><circle r="2.5" /></g><g id="node-7" transform="translate(520.523,34.375)"><circle r="2.5" /></g><g id="node-8" transform="translate(518.198,29.167)"><circle r="2.5" /></g><g id="node-9" transform="translate(481.510,68.229)"><circle r="0.0" /></g><g id="node-10" transform="translate(473.661,64.323)"><circle r="0.0" /></g><g id="node-11" transform="translate(479.512,52.604)"><circle r="0.0" /></g><g id="node-12" transform="translate(459.910,58.464)"><circle r="0.0" /></g><g id="node-13" transform="translate(475.447,36.979)"><circle r="0.0" /></g><g id="node-14" transform="translate(454.080,51.628)"><circle r="0.0" /></g><g id="node-15" transform="translate(451.406,33.073)"><circle r="0.0" /></g><g id="node-16" transform="translate(445.000,42.350)"><circle r="0.0" /></g></g></g></g></g></svg>