<svg class="toyplot-canvas-Canvas" xmlns:toyplot="http://www.sandia.gov/toyplot" xmlns:xlink="http://www.w3.org/1999/xlink" xmlns="http://www.w3.org/2000/svg" width="560.0px" height="100.0px" viewBox="0 0 560.0 100.0" preserveAspectRatio="xMidYMid meet" style="background-color:transparent;border-color:#292724;border-style:none;border-width:1.0;fill:rgb(16.1%,15.3%,14.1%);fill-opacity:1.0;font-family:Helvetica;font-size:12px;opacity:1.0;stroke:rgb(16.1%,15.3%,14.1%);stroke-opacity:1.0;stroke-width:1.0" id="t421743c5c72941e586e397425166f84f"><g class="toyplot-coordinates-Cartesian" id="tef84e5f3ba3c4f37909074943ff52ae5"><clipPath id="td2d787a611104269a9324e4ddbbb410f"><rect x="15.0" y="15.0" width="110.0" height="70.0" /></clipPath><g clip-path="url(#td2d787a611104269a9324e4ddbbb410f)"><g class="toytree-mark-Toytree" id="ta0f0130ea7d44023aff8b1528937e508"><g class="toytree-Edges" style="fill:none;stroke:rgb(14.9%,14.9%,14.9%);stroke-linecap:round;stroke-opacity:1;stroke-width:0.5"><path d="M 25.0 36.9 L 25.0 30.3 L 27.7 30.3" id="66,65" /><path d="M 25.0 36.9 L 25.0 43.5 L 27.9 43.5" id="66,64" /><path d="M 27.7 30.3 L 27.7 31.4 L 73.1 31.4" id="65,63" /><path d="M 27.9 43.5 L 27.9 35.7 L 70.9 35.7" id="64,62" /><path d="M 27.9 43.5 L 27.9 51.3 L 39.9 51.3" id="64,61" /><path d="M 73.1 31.4 L 73.1 32.3 L 84.2 32.3" id="63,60" /><path d="M 70.9 35.7 L 70.9 37.1 L 79.4 37.1" id="62,59" /><path d="M 39.9 51.3 L 39.9 45.2 L 44.2 45.2" id="61,58" /><path d="M 39.9 51.3 L 39.9 57.5 L 64.0 57.5" id="61,57" /><path d="M 79.4 37.1 L 79.4 38.8 L 84.4 38.8" id="59,56" /><path d="M 44.2 45.2 L 44.2 47.3 L 50.8 47.3" id="58,55" /><path d="M 64.0 57.5 L 64.0 55.1 L 89.1 55.1" id="57,54" /><path d="M 64.0 57.5 L 64.0 60.0 L 66.3 60.0" id="57,53" /><path d="M 84.4 38.8 L 84.4 37.4 L 94.3 37.4" id="56,52" /><path d="M 84.4 38.8 L 84.4 40.2 L 95.2 40.2" id="56,51" /><path d="M 50.8 47.3 L 50.8 45.3 L 102.4 45.3" id="55,50" /><path d="M 50.8 47.3 L 50.8 49.3 L 51.8 49.3" id="55,49" /><path d="M 66.3 60.0 L 66.3 63.0 L 69.8 63.0" id="53,48" /><path d="M 95.2 40.2 L 95.2 41.2 L 95.7 41.2" id="51,47" /><path d="M 102.4 45.3 L 102.4 46.2 L 104.9 46.2" id="50,46" /><path d="M 51.8 49.3 L 51.8 50.5 L 89.8 50.5" id="49,45" /><path d="M 69.8 63.0 L 69.8 60.1 L 72.3 60.1" id="48,44" /><path d="M 69.8 63.0 L 69.8 65.9 L 72.7 65.9" id="48,43" /><path d="M 89.8 50.5 L 89.8 51.6 L 100.8 51.6" id="45,42" /><path d="M 72.3 60.1 L 72.3 58.8 L 96.4 58.8" id="44,41" /><path d="M 72.3 60.1 L 72.3 61.4 L 100.5 61.4" id="44,40" /><path d="M 72.7 65.9 L 72.7 63.9 L 95.8 63.9" id="43,39" /><path d="M 72.7 65.9 L 72.7 67.8 L 74.3 67.8" id="43,38" /><path d="M 100.8 51.6 L 100.8 52.5 L 103.7 52.5" id="42,37" /><path d="M 74.3 67.8 L 74.3 66.4 L 93.7 66.4" id="38,36" /><path d="M 74.3 67.8 L 74.3 69.3 L 98.8 69.3" id="38,35" /><path d="M 98.8 69.3 L 98.8 70.2 L 100.0 70.2" id="35,34" /><path d="M 27.7 30.3 L 27.7 29.2 L 104.7 29.2" id="65,33" /><path d="M 73.1 31.4 L 73.1 30.4 L 104.9 30.4" id="63,32" /><path d="M 84.2 32.3 L 84.2 31.7 L 103.3 31.7" id="60,31" /><path d="M 84.2 32.3 L 84.2 33.0 L 103.4 33.0" id="60,30" /><path d="M 70.9 35.7 L 70.9 34.2 L 96.6 34.2" id="62,29" /><path d="M 79.4 37.1 L 79.4 35.5 L 102.1 35.5" id="59,28" /><path d="M 94.3 37.4 L 94.3 36.7 L 103.7 36.7" id="52,27" /><path d="M 94.3 37.4 L 94.3 38.0 L 101.6 38.0" id="52,26" /><path d="M 95.2 40.2 L 95.2 39.3 L 97.1 39.3" id="51,25" /><path d="M 95.7 41.2 L 95.7 40.5 L 97.3 40.5" id="47,24" /><path d="M 95.7 41.2 L 95.7 41.8 L 97.1 41.8" id="47,23" /><path d="M 44.2 45.2 L 44.2 43.1 L 104.6 43.1" id="58,22" /><path d="M 102.4 45.3 L 102.4 44.3 L 109.7 44.3" id="50,21" /><path d="M 104.9 46.2 L 104.9 45.6 L 105.1 45.6" id="46,20" /><path d="M 104.9 46.2 L 104.9 46.8 L 105.5 46.8" id="46,19" /><path d="M 51.8 49.3 L 51.8 48.1 L 102.0 48.1" id="49,18" /><path d="M 89.8 50.5 L 89.8 49.4 L 110.3 49.4" id="45,17" /><path d="M 100.8 51.6 L 100.8 50.6 L 110.3 50.6" id="42,16" /><path d="M 103.7 52.5 L 103.7 51.9 L 109.4 51.9" id="37,15" /><path d="M 103.7 52.5 L 103.7 53.2 L 109.1 53.2" id="37,14" /><path d="M 89.1 55.1 L 89.1 54.4 L 106.0 54.4" id="54,13" /><path d="M 89.1 55.1 L 89.1 55.7 L 108.2 55.7" id="54,12" /><path d="M 66.3 60.0 L 66.3 56.9 L 100.5 56.9" id="53,11" /><path d="M 96.4 58.8 L 96.4 58.2 L 106.5 58.2" id="41,10" /><path d="M 96.4 58.8 L 96.4 59.5 L 105.0 59.5" id="41,9" /><path d="M 100.5 61.4 L 100.5 60.7 L 104.6 60.7" id="40,8" /><path d="M 100.5 61.4 L 100.5 62.0 L 110.0 62.0" id="40,7" /><path d="M 95.8 63.9 L 95.8 63.3 L 107.9 63.3" id="39,6" /><path d="M 95.8 63.9 L 95.8 64.5 L 103.3 64.5" id="39,5" /><path d="M 93.7 66.4 L 93.7 65.8 L 107.3 65.8" id="36,4" /><path d="M 93.7 66.4 L 93.7 67.0 L 105.4 67.0" id="36,3" /><path d="M 98.8 69.3 L 98.8 68.3 L 102.0 68.3" id="35,2" /><path d="M 100.0 70.2 L 100.0 69.6 L 100.5 69.6" id="34,1" /><path d="M 100.0 70.2 L 100.0 70.8 L 100.4 70.8" id="34,0" /></g><g class="toytree-Nodes" style="fill:rgb(100%,0%,0%);fill-opacity:1.0;stroke:None;stroke-width:1"><g id="node-0" transform="translate(100.402,70.833)"><circle r="2.5" /></g><g id="node-1" transform="translate(100.525,69.571)"><circle r="2.5" /></g><g id="node-2" transform="translate(102.032,68.308)"><circle r="2.5" /></g><g id="node-3" transform="translate(105.355,67.045)"><circle r="2.5" /></g><g id="node-4" transform="translate(107.279,65.783)"><circle r="2.5" /></g><g id="node-5" transform="translate(103.256,64.520)"><circle r="2.5" /></g><g id="node-6" transform="translate(107.867,63.258)"><circle r="2.5" /></g><g id="node-7" transform="translate(110.036,61.995)"><circle r="2.5" /></g><g id="node-8" transform="translate(104.575,60.732)"><circle r="2.5" /></g><g id="node-9" transform="translate(104.960,59.470)"><circle r="2.5" /></g><g id="node-10" transform="translate(106.471,58.207)"><circle r="2.5" /></g><g id="node-11" transform="translate(100.470,56.944)"><circle r="2.5" /></g><g id="node-12" transform="translate(108.167,55.682)"><circle r="2.5" /></g><g id="node-13" transform="translate(105.956,54.419)"><circle r="2.5" /></g><g id="node-14" transform="translate(109.081,53.157)"><circle r="2.5" /></g><g id="node-15" transform="translate(109.420,51.894)"><circle r="2.5" /></g><g id="node-16" transform="translate(110.263,50.631)"><circle r="2.5" /></g><g id="node-17" transform="translate(110.261,49.369)"><circle r="2.5" /></g><g id="node-18" transform="translate(101.950,48.106)"><circle r="2.5" /></g><g id="node-19" transform="translate(105.489,46.843)"><circle r="2.5" /></g><g id="node-20" transform="translate(105.150,45.581)"><circle r="2.5" /></g><g id="node-21" transform="translate(109.684,44.318)"><circle r="2.5" /></g><g id="node-22" transform="translate(104.560,43.056)"><circle r="2.5" /></g><g id="node-23" transform="translate(97.070,41.793)"><circle r="2.5" /></g><g id="node-24" transform="translate(97.317,40.530)"><circle r="2.5" /></g><g id="node-25" transform="translate(97.061,39.268)"><circle r="2.5" /></g><g id="node-26" transform="translate(101.640,38.005)"><circle r="2.5" /></g><g id="node-27" transform="translate(103.736,36.742)"><circle r="2.5" /></g><g id="node-28" transform="translate(102.100,35.480)"><circle r="2.5" /></g><g id="node-29" transform="translate(96.553,34.217)"><circle r="2.5" /></g><g id="node-30" transform="translate(103.418,32.955)"><circle r="2.5" /></g><g id="node-31" transform="translate(103.268,31.692)"><circle r="2.5" /></g><g id="node-32" transform="translate(104.911,30.429)"><circle r="2.5" /></g><g id="node-33" transform="translate(104.717,29.167)"><circle r="2.5" /></g><g id="node-34" transform="translate(100.023,70.202)"><circle r="0.0" /></g><g id="node-35" transform="translate(98.770,69.255)"><circle r="0.0" /></g><g id="node-36" transform="translate(93.655,66.414)"><circle r="0.0" /></g><g id="node-37" transform="translate(103.745,52.525)"><circle r="0.0" /></g><g id="node-38" transform="translate(74.329,67.835)"><circle r="0.0" /></g><g id="node-39" transform="translate(95.762,63.889)"><circle r="0.0" /></g><g id="node-40" transform="translate(100.479,61.364)"><circle r="0.0" /></g><g id="node-41" transform="translate(96.357,58.838)"><circle r="0.0" /></g><g id="node-42" transform="translate(100.783,51.578)"><circle r="0.0" /></g><g id="node-43" transform="translate(72.666,65.862)"><circle r="0.0" /></g><g id="node-44" transform="translate(72.323,60.101)"><circle r="0.0" /></g><g id="node-45" transform="translate(89.777,50.473)"><circle r="0.0" /></g><g id="node-46" transform="translate(104.879,46.212)"><circle r="0.0" /></g><g id="node-47" transform="translate(95.652,41.162)"><circle r="0.0" /></g><g id="node-48" transform="translate(69.797,62.981)"><circle r="0.0" /></g><g id="node-49" transform="translate(51.779,49.290)"><circle r="0.0" /></g><g id="node-50" transform="translate(102.382,45.265)"><circle r="0.0" /></g><g id="node-51" transform="translate(95.201,40.215)"><circle r="0.0" /></g><g id="node-52" transform="translate(94.320,37.374)"><circle r="0.0" /></g><g id="node-53" transform="translate(66.285,59.963)"><circle r="0.0" /></g><g id="node-54" transform="translate(89.114,55.051)"><circle r="0.0" /></g><g id="node-55" transform="translate(50.846,47.277)"><circle r="0.0" /></g><g id="node-56" transform="translate(84.362,38.794)"><circle r="0.0" /></g><g id="node-57" transform="translate(64.016,57.507)"><circle r="0.0" /></g><g id="node-58" transform="translate(44.173,45.167)"><circle r="0.0" /></g><g id="node-59" transform="translate(79.396,37.137)"><circle r="0.0" /></g><g id="node-60" transform="translate(84.185,32.323)"><circle r="0.0" /></g><g id="node-61" transform="translate(39.855,51.337)"><circle r="0.0" /></g><g id="node-62" transform="translate(70.887,35.677)"><circle r="0.0" /></g><g id="node-63" transform="translate(73.077,31.376)"><circle r="0.0" /></g><g id="node-64" transform="translate(27.944,43.507)"><circle r="0.0" /></g><g id="node-65" transform="translate(27.733,30.271)"><circle r="0.0" /></g><g id="node-66" transform="translate(25.000,36.889)"><circle r="0.0" /></g></g></g></g></g><g class="toyplot-coordinates-Cartesian" id="t98bd18ca078847f59a480a0363618ef2"><clipPath id="te279c2f4b4b44571a6181482a66ef306"><rect x="155.0" y="15.0" width="110.0" height="70.0" /></clipPath><g clip-path="url(#te279c2f4b4b44571a6181482a66ef306)"><g class="toytree-mark-Toytree" id="t90a288b1e4b74702bc2fd760c64821bb"><g class="toytree-Edges" style="fill:none;stroke:rgb(14.9%,14.9%,14.9%);stroke-linecap:round;stroke-opacity:1;stroke-width:0.5"><path d="M 165.0 35.7 L 165.0 30.3 L 169.2 30.3" id="66,65" /><path d="M 165.0 35.7 L 165.0 41.0 L 182.3 41.0" id="66,64" /><path d="M 169.2 30.3 L 169.2 31.4 L 193.2 31.4" id="65,63" /><path d="M 182.3 41.0 L 182.3 47.9 L 186.1 47.9" id="64,62" /><path d="M 193.2 31.4 L 193.2 32.3 L 218.9 32.3" id="63,61" /><path d="M 186.1 47.9 L 186.1 37.6 L 202.6 37.6" id="62,60" /><path d="M 186.1 47.9 L 186.1 58.2 L 194.4 58.2" id="62,59" /><path d="M 202.6 37.6 L 202.6 39.7 L 212.3 39.7" id="60,58" /><path d="M 194.4 58.2 L 194.4 53.1 L 211.1 53.1" id="59,57" /><path d="M 194.4 58.2 L 194.4 63.2 L 197.0 63.2" id="59,56" /><path d="M 212.3 39.7 L 212.3 37.4 L 225.4 37.4" id="58,55" /><path d="M 212.3 39.7 L 212.3 42.0 L 213.2 42.0" id="58,54" /><path d="M 211.1 53.1 L 211.1 54.4 L 226.6 54.4" id="57,53" /><path d="M 197.0 63.2 L 197.0 65.6 L 201.3 65.6" id="56,52" /><path d="M 213.2 42.0 L 213.2 39.9 L 214.2 39.9" id="54,51" /><path d="M 213.2 42.0 L 213.2 44.1 L 217.4 44.1" id="54,50" /><path d="M 226.6 54.4 L 226.6 55.6 L 232.1 55.6" id="53,49" /><path d="M 201.3 65.6 L 201.3 63.1 L 205.1 63.1" id="52,48" /><path d="M 201.3 65.6 L 201.3 68.2 L 214.3 68.2" id="52,47" /><path d="M 217.4 44.1 L 217.4 46.4 L 220.2 46.4" id="50,46" /><path d="M 232.1 55.6 L 232.1 56.8 L 232.1 56.8" id="49,45" /><path d="M 205.1 63.1 L 205.1 64.2 L 244.3 64.2" id="48,44" /><path d="M 214.3 68.2 L 214.3 69.3 L 223.5 69.3" id="47,43" /><path d="M 220.2 46.4 L 220.2 44.0 L 224.5 44.0" id="46,42" /><path d="M 220.2 46.4 L 220.2 48.7 L 222.9 48.7" id="46,41" /><path d="M 232.1 56.8 L 232.1 57.9 L 233.0 57.9" id="45,40" /><path d="M 244.3 64.2 L 244.3 65.2 L 246.3 65.2" id="44,39" /><path d="M 223.5 69.3 L 223.5 70.2 L 233.3 70.2" id="43,38" /><path d="M 224.5 44.0 L 224.5 44.9 L 225.9 44.9" id="42,37" /><path d="M 222.9 48.7 L 222.9 47.5 L 227.4 47.5" id="41,36" /><path d="M 222.9 48.7 L 222.9 50.0 L 232.2 50.0" id="41,35" /><path d="M 233.0 57.9 L 233.0 58.8 L 238.3 58.8" id="40,34" /><path d="M 169.2 30.3 L 169.2 29.2 L 223.9 29.2" id="65,33" /><path d="M 193.2 31.4 L 193.2 30.4 L 243.6 30.4" id="63,32" /><path d="M 218.9 32.3 L 218.9 31.7 L 243.3 31.7" id="61,31" /><path d="M 218.9 32.3 L 218.9 33.0 L 218.9 33.0" id="61,30" /><path d="M 182.3 41.0 L 182.3 34.2 L 220.7 34.2" id="64,29" /><path d="M 202.6 37.6 L 202.6 35.5 L 236.2 35.5" id="60,28" /><path d="M 225.4 37.4 L 225.4 36.7 L 231.9 36.7" id="55,27" /><path d="M 225.4 37.4 L 225.4 38.0 L 228.0 38.0" id="55,26" /><path d="M 214.2 39.9 L 214.2 39.3 L 217.9 39.3" id="51,25" /><path d="M 214.2 39.9 L 214.2 40.5 L 217.7 40.5" id="51,24" /><path d="M 217.4 44.1 L 217.4 41.8 L 223.3 41.8" id="50,23" /><path d="M 224.5 44.0 L 224.5 43.1 L 225.6 43.1" id="42,22" /><path d="M 225.9 44.9 L 225.9 44.3 L 226.1 44.3" id="37,21" /><path d="M 225.9 44.9 L 225.9 45.6 L 226.0 45.6" id="37,20" /><path d="M 227.4 47.5 L 227.4 46.8 L 229.0 46.8" id="36,19" /><path d="M 227.4 47.5 L 227.4 48.1 L 229.0 48.1" id="36,18" /><path d="M 232.2 50.0 L 232.2 49.4 L 232.2 49.4" id="35,17" /><path d="M 232.2 50.0 L 232.2 50.6 L 239.9 50.6" id="35,16" /><path d="M 211.1 53.1 L 211.1 51.9 L 211.8 51.9" id="57,15" /><path d="M 226.6 54.4 L 226.6 53.2 L 236.1 53.2" id="53,14" /><path d="M 232.1 55.6 L 232.1 54.4 L 232.1 54.4" id="49,13" /><path d="M 232.1 56.8 L 232.1 55.7 L 232.1 55.7" id="45,12" /><path d="M 233.0 57.9 L 233.0 56.9 L 236.4 56.9" id="40,11" /><path d="M 238.3 58.8 L 238.3 58.2 L 241.8 58.2" id="34,10" /><path d="M 238.3 58.8 L 238.3 59.5 L 242.3 59.5" id="34,9" /><path d="M 197.0 63.2 L 197.0 60.7 L 221.8 60.7" id="56,8" /><path d="M 205.1 63.1 L 205.1 62.0 L 237.7 62.0" id="48,7" /><path d="M 244.3 64.2 L 244.3 63.3 L 246.0 63.3" id="44,6" /><path d="M 246.3 65.2 L 246.3 64.5 L 250.3 64.5" id="39,5" /><path d="M 246.3 65.2 L 246.3 65.8 L 247.8 65.8" id="39,4" /><path d="M 214.3 68.2 L 214.3 67.0 L 229.9 67.0" id="47,3" /><path d="M 223.5 69.3 L 223.5 68.3 L 230.0 68.3" id="43,2" /><path d="M 233.3 70.2 L 233.3 69.6 L 233.8 69.6" id="38,1" /><path d="M 233.3 70.2 L 233.3 70.8 L 240.0 70.8" id="38,0" /></g><g class="toytree-Nodes" style="fill:rgb(100%,0%,0%);fill-opacity:1.0;stroke:None;stroke-width:1"><g id="node-0" transform="translate(240.001,70.833)"><circle r="2.5" /></g><g id="node-1" transform="translate(233.844,69.571)"><circle r="2.5" /></g><g id="node-2" transform="translate(229.962,68.308)"><circle r="2.5" /></g><g id="node-3" transform="translate(229.909,67.045)"><circle r="2.5" /></g><g id="node-4" transform="translate(247.765,65.783)"><circle r="2.5" /></g><g id="node-5" transform="translate(250.263,64.520)"><circle r="2.5" /></g><g id="node-6" transform="translate(245.971,63.258)"><circle r="2.5" /></g><g id="node-7" transform="translate(237.743,61.995)"><circle r="2.5" /></g><g id="node-8" transform="translate(221.842,60.732)"><circle r="2.5" /></g><g id="node-9" transform="translate(242.348,59.470)"><circle r="2.5" /></g><g id="node-10" transform="translate(241.848,58.207)"><circle r="2.5" /></g><g id="node-11" transform="translate(236.351,56.944)"><circle r="2.5" /></g><g id="node-12" transform="translate(232.113,55.682)"><circle r="2.5" /></g><g id="node-13" transform="translate(232.086,54.419)"><circle r="2.5" /></g><g id="node-14" transform="translate(236.110,53.157)"><circle r="2.5" /></g><g id="node-15" transform="translate(211.821,51.894)"><circle r="2.5" /></g><g id="node-16" transform="translate(239.867,50.631)"><circle r="2.5" /></g><g id="node-17" transform="translate(232.193,49.369)"><circle r="2.5" /></g><g id="node-18" transform="translate(229.007,48.106)"><circle r="2.5" /></g><g id="node-19" transform="translate(229.025,46.843)"><circle r="2.5" /></g><g id="node-20" transform="translate(226.018,45.581)"><circle r="2.5" /></g><g id="node-21" transform="translate(226.089,44.318)"><circle r="2.5" /></g><g id="node-22" transform="translate(225.634,43.056)"><circle r="2.5" /></g><g id="node-23" transform="translate(223.350,41.793)"><circle r="2.5" /></g><g id="node-24" transform="translate(217.728,40.530)"><circle r="2.5" /></g><g id="node-25" transform="translate(217.924,39.268)"><circle r="2.5" /></g><g id="node-26" transform="translate(227.954,38.005)"><circle r="2.5" /></g><g id="node-27" transform="translate(231.863,36.742)"><circle r="2.5" /></g><g id="node-28" transform="translate(236.173,35.480)"><circle r="2.5" /></g><g id="node-29" transform="translate(220.682,34.217)"><circle r="2.5" /></g><g id="node-30" transform="translate(218.890,32.955)"><circle r="2.5" /></g><g id="node-31" transform="translate(243.251,31.692)"><circle r="2.5" /></g><g id="node-32" transform="translate(243.572,30.429)"><circle r="2.5" /></g><g id="node-33" transform="translate(223.905,29.167)"><circle r="2.5" /></g><g id="node-34" transform="translate(238.306,58.838)"><circle r="0.0" /></g><g id="node-35" transform="translate(232.193,50.000)"><circle r="0.0" /></g><g id="node-36" transform="translate(227.365,47.475)"><circle r="0.0" /></g><g id="node-37" transform="translate(225.920,44.949)"><circle r="0.0" /></g><g id="node-38" transform="translate(233.309,70.202)"><circle r="0.0" /></g><g id="node-39" transform="translate(246.337,65.152)"><circle r="0.0" /></g><g id="node-40" transform="translate(233.023,57.891)"><circle r="0.0" /></g><g id="node-41" transform="translate(222.895,48.737)"><circle r="0.0" /></g><g id="node-42" transform="translate(224.483,44.003)"><circle r="0.0" /></g><g id="node-43" transform="translate(223.537,69.255)"><circle r="0.0" /></g><g id="node-44" transform="translate(244.258,64.205)"><circle r="0.0" /></g><g id="node-45" transform="translate(232.113,56.787)"><circle r="0.0" /></g><g id="node-46" transform="translate(220.200,46.370)"><circle r="0.0" /></g><g id="node-47" transform="translate(214.310,68.150)"><circle r="0.0" /></g><g id="node-48" transform="translate(205.137,63.100)"><circle r="0.0" /></g><g id="node-49" transform="translate(232.086,55.603)"><circle r="0.0" /></g><g id="node-50" transform="translate(217.353,44.081)"><circle r="0.0" /></g><g id="node-51" transform="translate(214.168,39.899)"><circle r="0.0" /></g><g id="node-52" transform="translate(201.327,65.625)"><circle r="0.0" /></g><g id="node-53" transform="translate(226.634,54.380)"><circle r="0.0" /></g><g id="node-54" transform="translate(213.177,41.990)"><circle r="0.0" /></g><g id="node-55" transform="translate(225.447,37.374)"><circle r="0.0" /></g><g id="node-56" transform="translate(196.972,63.179)"><circle r="0.0" /></g><g id="node-57" transform="translate(211.116,53.137)"><circle r="0.0" /></g><g id="node-58" transform="translate(212.329,39.682)"><circle r="0.0" /></g><g id="node-59" transform="translate(194.411,58.158)"><circle r="0.0" /></g><g id="node-60" transform="translate(202.621,37.581)"><circle r="0.0" /></g><g id="node-61" transform="translate(218.890,32.323)"><circle r="0.0" /></g><g id="node-62" transform="translate(186.130,47.869)"><circle r="0.0" /></g><g id="node-63" transform="translate(193.172,31.376)"><circle r="0.0" /></g><g id="node-64" transform="translate(182.346,41.043)"><circle r="0.0" /></g><g id="node-65" transform="translate(169.186,30.271)"><circle r="0.0" /></g><g id="node-66" transform="translate(165.000,35.657)"><circle r="0.0" /></g></g></g></g></g><g class="toyplot-coordinates-Cartesian" id="tafbe9f4a75784d45824c49d23fe4d2d5"><clipPath id="t0299ae666040466880a0b2ae27f52de4"><rect x="295.0" y="15.0" width="110.0" height="70.0" /></clipPath><g clip-path="url(#t0299ae666040466880a0b2ae27f52de4)"><g class="toytree-mark-Toytree" id="t22ec1e6f36ca4c87b20cfdcea4e03b2a"><g class="toytree-Edges" style="fill:none;stroke:rgb(14.9%,14.9%,14.9%);stroke-linecap:round;stroke-opacity:1;stroke-width:0.5"><path d="M 305.0 36.8 L 305.0 30.3 L 311.1 30.3" id="66,65" /><path d="M 305.0 36.8 L 305.0 43.4 L 319.2 43.4" id="66,64" /><path d="M 311.1 30.3 L 311.1 31.4 L 331.2 31.4" id="65,63" /><path d="M 319.2 43.4 L 319.2 35.7 L 334.4 35.7" id="64,62" /><path d="M 319.2 43.4 L 319.2 51.1 L 329.1 51.1" id="64,61" /><path d="M 331.2 31.4 L 331.2 32.3 L 343.2 32.3" id="63,60" /><path d="M 334.4 35.7 L 334.4 37.1 L 342.1 37.1" id="62,59" /><path d="M 329.1 51.1 L 329.1 45.5 L 337.1 45.5" id="61,58" /><path d="M 329.1 51.1 L 329.1 56.6 L 336.4 56.6" id="61,57" /><path d="M 342.1 37.1 L 342.1 38.8 L 346.1 38.8" id="59,56" /><path d="M 337.1 45.5 L 337.1 47.9 L 341.9 47.9" id="58,55" /><path d="M 336.4 56.6 L 336.4 58.9 L 347.9 58.9" id="57,54" /><path d="M 346.1 38.8 L 346.1 37.4 L 352.5 37.4" id="56,53" /><path d="M 346.1 38.8 L 346.1 40.2 L 352.7 40.2" id="56,52" /><path d="M 341.9 47.9 L 341.9 45.4 L 345.4 45.4" id="55,51" /><path d="M 341.9 47.9 L 341.9 50.5 L 354.9 50.5" id="55,50" /><path d="M 347.9 58.9 L 347.9 56.3 L 363.0 56.3" id="54,49" /><path d="M 347.9 58.9 L 347.9 61.4 L 349.9 61.4" id="54,48" /><path d="M 352.7 40.2 L 352.7 41.2 L 353.6 41.2" id="52,47" /><path d="M 345.4 45.4 L 345.4 46.5 L 370.8 46.5" id="51,46" /><path d="M 354.9 50.5 L 354.9 51.6 L 360.3 51.6" id="50,45" /><path d="M 349.9 61.4 L 349.9 58.8 L 356.3 58.8" id="48,44" /><path d="M 349.9 61.4 L 349.9 64.0 L 351.4 64.0" id="48,43" /><path d="M 370.8 46.5 L 370.8 47.5 L 372.4 47.5" id="46,42" /><path d="M 360.3 51.6 L 360.3 52.5 L 371.6 52.5" id="45,41" /><path d="M 351.4 64.0 L 351.4 61.4 L 359.2 61.4" id="43,40" /><path d="M 351.4 64.0 L 351.4 66.6 L 354.1 66.6" id="43,39" /><path d="M 354.1 66.6 L 354.1 64.2 L 366.0 64.2" id="39,38" /><path d="M 354.1 66.6 L 354.1 68.9 L 355.4 68.9" id="39,37" /><path d="M 366.0 64.2 L 366.0 65.2 L 370.8 65.2" id="38,36" /><path d="M 355.4 68.9 L 355.4 67.7 L 372.3 67.7" id="37,35" /><path d="M 355.4 68.9 L 355.4 70.2 L 365.6 70.2" id="37,34" /><path d="M 311.1 30.3 L 311.1 29.2 L 365.1 29.2" id="65,33" /><path d="M 331.2 31.4 L 331.2 30.4 L 380.0 30.4" id="63,32" /><path d="M 343.2 32.3 L 343.2 31.7 L 372.4 31.7" id="60,31" /><path d="M 343.2 32.3 L 343.2 33.0 L 360.1 33.0" id="60,30" /><path d="M 334.4 35.7 L 334.4 34.2 L 345.6 34.2" id="62,29" /><path d="M 342.1 37.1 L 342.1 35.5 L 354.9 35.5" id="59,28" /><path d="M 352.5 37.4 L 352.5 36.7 L 358.3 36.7" id="53,27" /><path d="M 352.5 37.4 L 352.5 38.0 L 361.0 38.0" id="53,26" /><path d="M 352.7 40.2 L 352.7 39.3 L 357.5 39.3" id="52,25" /><path d="M 353.6 41.2 L 353.6 40.5 L 353.6 40.5" id="47,24" /><path d="M 353.6 41.2 L 353.6 41.8 L 353.6 41.8" id="47,23" /><path d="M 337.1 45.5 L 337.1 43.1 L 371.1 43.1" id="58,22" /><path d="M 345.4 45.4 L 345.4 44.3 L 380.9 44.3" id="51,21" /><path d="M 370.8 46.5 L 370.8 45.6 L 377.8 45.6" id="46,20" /><path d="M 372.4 47.5 L 372.4 46.8 L 376.7 46.8" id="42,19" /><path d="M 372.4 47.5 L 372.4 48.1 L 376.4 48.1" id="42,18" /><path d="M 354.9 50.5 L 354.9 49.4 L 372.7 49.4" id="50,17" /><path d="M 360.3 51.6 L 360.3 50.6 L 373.3 50.6" id="45,16" /><path d="M 371.6 52.5 L 371.6 51.9 L 376.2 51.9" id="41,15" /><path d="M 371.6 52.5 L 371.6 53.2 L 379.2 53.2" id="41,14" /><path d="M 336.4 56.6 L 336.4 54.4 L 367.1 54.4" id="57,13" /><path d="M 363.0 56.3 L 363.0 55.7 L 373.7 55.7" id="49,12" /><path d="M 363.0 56.3 L 363.0 56.9 L 370.0 56.9" id="49,11" /><path d="M 356.3 58.8 L 356.3 58.2 L 386.6 58.2" id="44,10" /><path d="M 356.3 58.8 L 356.3 59.5 L 364.8 59.5" id="44,9" /><path d="M 359.2 61.4 L 359.2 60.7 L 369.1 60.7" id="40,8" /><path d="M 359.2 61.4 L 359.2 62.0 L 367.2 62.0" id="40,7" /><path d="M 366.0 64.2 L 366.0 63.3 L 367.2 63.3" id="38,6" /><path d="M 370.8 65.2 L 370.8 64.5 L 370.9 64.5" id="36,5" /><path d="M 370.8 65.2 L 370.8 65.8 L 370.8 65.8" id="36,4" /><path d="M 372.3 67.7 L 372.3 67.0 L 379.1 67.0" id="35,3" /><path d="M 372.3 67.7 L 372.3 68.3 L 390.3 68.3" id="35,2" /><path d="M 365.6 70.2 L 365.6 69.6 L 369.0 69.6" id="34,1" /><path d="M 365.6 70.2 L 365.6 70.8 L 370.1 70.8" id="34,0" /></g><g class="toytree-Nodes" style="fill:rgb(100%,0%,0%);fill-opacity:1.0;stroke:None;stroke-width:1"><g id="node-0" transform="translate(370.057,70.833)"><circle r="2.5" /></g><g id="node-1" transform="translate(369.007,69.571)"><circle r="2.5" /></g><g id="node-2" transform="translate(390.263,68.308)"><circle r="2.5" /></g><g id="node-3" transform="translate(379.119,67.045)"><circle r="2.5" /></g><g id="node-4" transform="translate(370.845,65.783)"><circle r="2.5" /></g><g id="node-5" transform="translate(370.940,64.520)"><circle r="2.5" /></g><g id="node-6" transform="translate(367.240,63.258)"><circle r="2.5" /></g><g id="node-7" transform="translate(367.154,61.995)"><circle r="2.5" /></g><g id="node-8" transform="translate(369.054,60.732)"><circle r="2.5" /></g><g id="node-9" transform="translate(364.762,59.470)"><circle r="2.5" /></g><g id="node-10" transform="translate(386.572,58.207)"><circle r="2.5" /></g><g id="node-11" transform="translate(369.985,56.944)"><circle r="2.5" /></g><g id="node-12" transform="translate(373.729,55.682)"><circle r="2.5" /></g><g id="node-13" transform="translate(367.135,54.419)"><circle r="2.5" /></g><g id="node-14" transform="translate(379.210,53.157)"><circle r="2.5" /></g><g id="node-15" transform="translate(376.250,51.894)"><circle r="2.5" /></g><g id="node-16" transform="translate(373.294,50.631)"><circle r="2.5" /></g><g id="node-17" transform="translate(372.745,49.369)"><circle r="2.5" /></g><g id="node-18" transform="translate(376.417,48.106)"><circle r="2.5" /></g><g id="node-19" transform="translate(376.694,46.843)"><circle r="2.5" /></g><g id="node-20" transform="translate(377.763,45.581)"><circle r="2.5" /></g><g id="node-21" transform="translate(380.924,44.318)"><circle r="2.5" /></g><g id="node-22" transform="translate(371.117,43.056)"><circle r="2.5" /></g><g id="node-23" transform="translate(353.570,41.793)"><circle r="2.5" /></g><g id="node-24" transform="translate(353.570,40.530)"><circle r="2.5" /></g><g id="node-25" transform="translate(357.481,39.268)"><circle r="2.5" /></g><g id="node-26" transform="translate(361.043,38.005)"><circle r="2.5" /></g><g id="node-27" transform="translate(358.331,36.742)"><circle r="2.5" /></g><g id="node-28" transform="translate(354.912,35.480)"><circle r="2.5" /></g><g id="node-29" transform="translate(345.587,34.217)"><circle r="2.5" /></g><g id="node-30" transform="translate(360.053,32.955)"><circle r="2.5" /></g><g id="node-31" transform="translate(372.362,31.692)"><circle r="2.5" /></g><g id="node-32" transform="translate(379.968,30.429)"><circle r="2.5" /></g><g id="node-33" transform="translate(365.067,29.167)"><circle r="2.5" /></g><g id="node-34" transform="translate(365.569,70.202)"><circle r="0.0" /></g><g id="node-35" transform="translate(372.277,67.677)"><circle r="0.0" /></g><g id="node-36" transform="translate(370.845,65.152)"><circle r="0.0" /></g><g id="node-37" transform="translate(355.423,68.939)"><circle r="0.0" /></g><g id="node-38" transform="translate(366.022,64.205)"><circle r="0.0" /></g><g id="node-39" transform="translate(354.124,66.572)"><circle r="0.0" /></g><g id="node-40" transform="translate(359.152,61.364)"><circle r="0.0" /></g><g id="node-41" transform="translate(371.618,52.525)"><circle r="0.0" /></g><g id="node-42" transform="translate(372.425,47.475)"><circle r="0.0" /></g><g id="node-43" transform="translate(351.350,63.968)"><circle r="0.0" /></g><g id="node-44" transform="translate(356.306,58.838)"><circle r="0.0" /></g><g id="node-45" transform="translate(360.341,51.578)"><circle r="0.0" /></g><g id="node-46" transform="translate(370.797,46.528)"><circle r="0.0" /></g><g id="node-47" transform="translate(353.570,41.162)"><circle r="0.0" /></g><g id="node-48" transform="translate(349.879,61.403)"><circle r="0.0" /></g><g id="node-49" transform="translate(362.952,56.313)"><circle r="0.0" /></g><g id="node-50" transform="translate(354.917,50.473)"><circle r="0.0" /></g><g id="node-51" transform="translate(345.367,45.423)"><circle r="0.0" /></g><g id="node-52" transform="translate(352.673,40.215)"><circle r="0.0" /></g><g id="node-53" transform="translate(352.477,37.374)"><circle r="0.0" /></g><g id="node-54" transform="translate(347.946,58.858)"><circle r="0.0" /></g><g id="node-55" transform="translate(341.872,47.948)"><circle r="0.0" /></g><g id="node-56" transform="translate(346.093,38.794)"><circle r="0.0" /></g><g id="node-57" transform="translate(336.429,56.639)"><circle r="0.0" /></g><g id="node-58" transform="translate(337.146,45.502)"><circle r="0.0" /></g><g id="node-59" transform="translate(342.140,37.137)"><circle r="0.0" /></g><g id="node-60" transform="translate(343.170,32.323)"><circle r="0.0" /></g><g id="node-61" transform="translate(329.091,51.070)"><circle r="0.0" /></g><g id="node-62" transform="translate(334.391,35.677)"><circle r="0.0" /></g><g id="node-63" transform="translate(331.238,31.376)"><circle r="0.0" /></g><g id="node-64" transform="translate(319.231,43.374)"><circle r="0.0" /></g><g id="node-65" transform="translate(311.066,30.271)"><circle r="0.0" /></g><g id="node-66" transform="translate(305.000,36.823)"><circle r="0.0" /></g></g></g></g></g><g class="toyplot-coordinates-Cartesian" id="tee8f4aa1c5de462a8c35761176e2c06b"><clipPath id="t4f19ba2b07bc46d784effe0ad1deb494"><rect x="435.0" y="15.0" width="110.0" height="70.0" /></clipPath><g clip-path="url(#t4f19ba2b07bc46d784effe0ad1deb494)"><g class="toytree-mark-Toytree" id="t5979d1500443477389c18246866d5d48"><g class="toytree-Edges" style="fill:none;stroke:rgb(14.9%,14.9%,14.9%);stroke-linecap:round;stroke-opacity:1;stroke-width:0.5"><path d="M 445.0 37.2 L 445.0 30.3 L 458.7 30.3" id="66,65" /><path d="M 445.0 37.2 L 445.0 44.2 L 452.2 44.2" id="66,64" /><path d="M 458.7 30.3 L 458.7 31.4 L 503.4 31.4" id="65,63" /><path d="M 452.2 44.2 L 452.2 36.3 L 497.0 36.3" id="64,62" /><path d="M 452.2 44.2 L 452.2 52.0 L 470.6 52.0" id="64,61" /><path d="M 503.4 31.4 L 503.4 32.3 L 507.4 32.3" id="63,60" /><path d="M 497.0 36.3 L 497.0 38.3 L 503.6 38.3" id="62,59" /><path d="M 470.6 52.0 L 470.6 45.2 L 484.2 45.2" id="61,58" /><path d="M 470.6 52.0 L 470.6 58.9 L 495.0 58.9" id="61,57" /><path d="M 503.6 38.3 L 503.6 36.4 L 505.1 36.4" id="59,56" /><path d="M 503.6 38.3 L 503.6 40.2 L 504.9 40.2" id="59,55" /><path d="M 484.2 45.2 L 484.2 47.3 L 488.1 47.3" id="58,54" /><path d="M 495.0 58.9 L 495.0 55.1 L 502.0 55.1" id="57,53" /><path d="M 495.0 58.9 L 495.0 62.8 L 498.9 62.8" id="57,52" /><path d="M 505.1 36.4 L 505.1 37.4 L 505.1 37.4" id="56,51" /><path d="M 504.9 40.2 L 504.9 41.2 L 509.6 41.2" id="55,50" /><path d="M 488.1 47.3 L 488.1 45.3 L 515.8 45.3" id="54,49" /><path d="M 488.1 47.3 L 488.1 49.3 L 493.5 49.3" id="54,48" /><path d="M 498.9 62.8 L 498.9 59.0 L 501.2 59.0" id="52,47" /><path d="M 498.9 62.8 L 498.9 66.6 L 501.3 66.6" id="52,46" /><path d="M 515.8 45.3 L 515.8 46.2 L 515.8 46.2" id="49,45" /><path d="M 493.5 49.3 L 493.5 50.5 L 520.8 50.5" id="48,44" /><path d="M 501.2 59.0 L 501.2 57.6 L 510.3 57.6" id="47,43" /><path d="M 501.2 59.0 L 501.2 60.4 L 509.7 60.4" id="47,42" /><path d="M 501.3 66.6 L 501.3 64.2 L 503.6 64.2" id="46,41" /><path d="M 501.3 66.6 L 501.3 68.9 L 504.5 68.9" id="46,40" /><path d="M 520.8 50.5 L 520.8 51.6 L 527.3 51.6" id="44,39" /><path d="M 509.7 60.4 L 509.7 61.4 L 509.7 61.4" id="42,38" /><path d="M 503.6 64.2 L 503.6 65.2 L 519.0 65.2" id="41,37" /><path d="M 504.5 68.9 L 504.5 67.7 L 515.9 67.7" id="40,36" /><path d="M 504.5 68.9 L 504.5 70.2 L 513.4 70.2" id="40,35" /><path d="M 527.3 51.6 L 527.3 52.5 L 528.0 52.5" id="39,34" /><path d="M 458.7 30.3 L 458.7 29.2 L 516.6 29.2" id="65,33" /><path d="M 503.4 31.4 L 503.4 30.4 L 513.4 30.4" id="63,32" /><path d="M 507.4 32.3 L 507.4 31.7 L 511.5 31.7" id="60,31" /><path d="M 507.4 32.3 L 507.4 33.0 L 516.3 33.0" id="60,30" /><path d="M 497.0 36.3 L 497.0 34.2 L 505.0 34.2" id="62,29" /><path d="M 505.1 36.4 L 505.1 35.5 L 505.8 35.5" id="56,28" /><path d="M 505.1 37.4 L 505.1 36.7 L 505.3 36.7" id="51,27" /><path d="M 505.1 37.4 L 505.1 38.0 L 505.8 38.0" id="51,26" /><path d="M 504.9 40.2 L 504.9 39.3 L 514.3 39.3" id="55,25" /><path d="M 509.6 41.2 L 509.6 40.5 L 512.4 40.5" id="50,24" /><path d="M 509.6 41.2 L 509.6 41.8 L 511.9 41.8" id="50,23" /><path d="M 484.2 45.2 L 484.2 43.1 L 520.4 43.1" id="58,22" /><path d="M 515.8 45.3 L 515.8 44.3 L 518.6 44.3" id="49,21" /><path d="M 515.8 46.2 L 515.8 45.6 L 515.8 45.6" id="45,20" /><path d="M 515.8 46.2 L 515.8 46.8 L 516.0 46.8" id="45,19" /><path d="M 493.5 49.3 L 493.5 48.1 L 514.4 48.1" id="48,18" /><path d="M 520.8 50.5 L 520.8 49.4 L 525.8 49.4" id="44,17" /><path d="M 527.3 51.6 L 527.3 50.6 L 530.3 50.6" id="39,16" /><path d="M 528.0 52.5 L 528.0 51.9 L 529.7 51.9" id="34,15" /><path d="M 528.0 52.5 L 528.0 53.2 L 529.5 53.2" id="34,14" /><path d="M 502.0 55.1 L 502.0 54.4 L 502.6 54.4" id="53,13" /><path d="M 502.0 55.1 L 502.0 55.7 L 503.5 55.7" id="53,12" /><path d="M 510.3 57.6 L 510.3 56.9 L 513.1 56.9" id="43,11" /><path d="M 510.3 57.6 L 510.3 58.2 L 515.1 58.2" id="43,10" /><path d="M 509.7 60.4 L 509.7 59.5 L 509.9 59.5" id="42,9" /><path d="M 509.7 61.4 L 509.7 60.7 L 510.9 60.7" id="38,8" /><path d="M 509.7 61.4 L 509.7 62.0 L 509.7 62.0" id="38,7" /><path d="M 503.6 64.2 L 503.6 63.3 L 516.4 63.3" id="41,6" /><path d="M 519.0 65.2 L 519.0 64.5 L 525.1 64.5" id="37,5" /><path d="M 519.0 65.2 L 519.0 65.8 L 524.2 65.8" id="37,4" /><path d="M 515.9 67.7 L 515.9 67.0 L 516.0 67.0" id="36,3" /><path d="M 515.9 67.7 L 515.9 68.3 L 516.5 68.3" id="36,2" /><path d="M 513.4 70.2 L 513.4 69.6 L 515.3 69.6" id="35,1" /><path d="M 513.4 70.2 L 513.4 70.8 L 516.9 70.8" id="35,0" /></g><g class="toytree-Nodes" style="fill:rgb(100%,0%,0%);fill-opacity:1.0;stroke:None;stroke-width:1"><g id="node-0" transform="translate(516.921,70.833)"><circle r="2.5" /></g><g id="node-1" transform="translate(515.347,69.571)"><circle r="2.5" /></g><g id="node-2" transform="translate(516.538,68.308)"><circle r="2.5" /></g><g id="node-3" transform="translate(516.040,67.045)"><circle r="2.5" /></g><g id="node-4" transform="translate(524.167,65.783)"><circle r="2.5" /></g><g id="node-5" transform="translate(525.093,64.520)"><circle r="2.5" /></g><g id="node-6" transform="translate(516.412,63.258)"><circle r="2.5" /></g><g id="node-7" transform="translate(509.688,61.995)"><circle r="2.5" /></g><g id="node-8" transform="translate(510.944,60.732)"><circle r="2.5" /></g><g id="node-9" transform="translate(509.895,59.470)"><circle r="2.5" /></g><g id="node-10" transform="translate(515.107,58.207)"><circle r="2.5" /></g><g id="node-11" transform="translate(513.094,56.944)"><circle r="2.5" /></g><g id="node-12" transform="translate(503.473,55.682)"><circle r="2.5" /></g><g id="node-13" transform="translate(502.552,54.419)"><circle r="2.5" /></g><g id="node-14" transform="translate(529.485,53.157)"><circle r="2.5" /></g><g id="node-15" transform="translate(529.717,51.894)"><circle r="2.5" /></g><g id="node-16" transform="translate(530.263,50.631)"><circle r="2.5" /></g><g id="node-17" transform="translate(525.837,49.369)"><circle r="2.5" /></g><g id="node-18" transform="translate(514.362,48.106)"><circle r="2.5" /></g><g id="node-19" transform="translate(516.008,46.843)"><circle r="2.5" /></g><g id="node-20" transform="translate(515.793,45.581)"><circle r="2.5" /></g><g id="node-21" transform="translate(518.623,44.318)"><circle r="2.5" /></g><g id="node-22" transform="translate(520.443,43.056)"><circle r="2.5" /></g><g id="node-23" transform="translate(511.874,41.793)"><circle r="2.5" /></g><g id="node-24" transform="translate(512.399,40.530)"><circle r="2.5" /></g><g id="node-25" transform="translate(514.281,39.268)"><circle r="2.5" /></g><g id="node-26" transform="translate(505.782,38.005)"><circle r="2.5" /></g><g id="node-27" transform="translate(505.347,36.742)"><circle r="2.5" /></g><g id="node-28" transform="translate(505.779,35.480)"><circle r="2.5" /></g><g id="node-29" transform="translate(505.019,34.217)"><circle r="2.5" /></g><g id="node-30" transform="translate(516.344,32.955)"><circle r="2.5" /></g><g id="node-31" transform="translate(511.493,31.692)"><circle r="2.5" /></g><g id="node-32" transform="translate(513.385,30.429)"><circle r="2.5" /></g><g id="node-33" transform="translate(516.597,29.167)"><circle r="2.5" /></g><g id="node-34" transform="translate(528.040,52.525)"><circle r="0.0" /></g><g id="node-35" transform="translate(513.422,70.202)"><circle r="0.0" /></g><g id="node-36" transform="translate(515.856,67.677)"><circle r="0.0" /></g><g id="node-37" transform="translate(518.980,65.152)"><circle r="0.0" /></g><g id="node-38" transform="translate(509.688,61.364)"><circle r="0.0" /></g><g id="node-39" transform="translate(527.309,51.578)"><circle r="0.0" /></g><g id="node-40" transform="translate(504.485,68.939)"><circle r="0.0" /></g><g id="node-41" transform="translate(503.596,64.205)"><circle r="0.0" /></g><g id="node-42" transform="translate(509.688,60.417)"><circle r="0.0" /></g><g id="node-43" transform="translate(510.271,57.576)"><circle r="0.0" /></g><g id="node-44" transform="translate(520.786,50.473)"><circle r="0.0" /></g><g id="node-45" transform="translate(515.793,46.212)"><circle r="0.0" /></g><g id="node-46" transform="translate(501.310,66.572)"><circle r="0.0" /></g><g id="node-47" transform="translate(501.224,58.996)"><circle r="0.0" /></g><g id="node-48" transform="translate(493.472,49.290)"><circle r="0.0" /></g><g id="node-49" transform="translate(515.793,45.265)"><circle r="0.0" /></g><g id="node-50" transform="translate(509.615,41.162)"><circle r="0.0" /></g><g id="node-51" transform="translate(505.130,37.374)"><circle r="0.0" /></g><g id="node-52" transform="translate(498.917,62.784)"><circle r="0.0" /></g><g id="node-53" transform="translate(501.999,55.051)"><circle r="0.0" /></g><g id="node-54" transform="translate(488.119,47.277)"><circle r="0.0" /></g><g id="node-55" transform="translate(504.939,40.215)"><circle r="0.0" /></g><g id="node-56" transform="translate(505.130,36.427)"><circle r="0.0" /></g><g id="node-57" transform="translate(495.007,58.917)"><circle r="0.0" /></g><g id="node-58" transform="translate(484.160,45.167)"><circle r="0.0" /></g><g id="node-59" transform="translate(503.633,38.321)"><circle r="0.0" /></g><g id="node-60" transform="translate(507.370,32.323)"><circle r="0.0" /></g><g id="node-61" transform="translate(470.609,52.042)"><circle r="0.0" /></g><g id="node-62" transform="translate(496.972,36.269)"><circle r="0.0" /></g><g id="node-63" transform="translate(503.393,31.376)"><circle r="0.0" /></g><g id="node-64" transform="translate(452.169,44.155)"><circle r="0.0" /></g><g id="node-65" transform="translate(458.664,30.271)"><circle r="0.0" /></g><g id="node-66" transform="translate(445.000,37.213)"><circle r="0.0" /></g></g></g></g></g></svg>