<svg class="toyplot-canvas-Canvas" xmlns:toyplot="http://www.sandia.gov/toyplot" xmlns:xlink="http://www.w3.org/1999/xlink" xmlns="http://www.w3.org/2000/svg" width="560.0px" height="100.0px" viewBox="0 0 560.0 100.0" preserveAspectRatio="xMidYMid meet" style="background-color:transparent;border-color:#292724;border-style:none;border-width:1.0;fill:rgb(16.1%,15.3%,14.1%);fill-opacity:1.0;font-family:Helvetica;font-size:12px;opacity:1.0;stroke:rgb(16.1%,15.3%,14.1%);stroke-opacity:1.0;stroke-width:1.0" id="t5f560b60e15d4f5c9669c7998cdb0df2"><g class="toyplot-coordinates-Cartesian" id="t8e621be10e1e428391d10c953f585adb"><clipPath id="t7428c5ddbc4b4eb2aca87accf7cf8b80"><rect x="15.0" y="15.0" width="110.0" height="70.0" /></clipPath><g clip-path="url(#t7428c5ddbc4b4eb2aca87accf7cf8b80)"><g class="toytree-mark-Toytree" id="ta16f45b45f484d1cbee4ccf680dcef45"><g class="toytree-Edges" style="fill:none;stroke:rgb(14.9%,14.9%,14.9%);stroke-linecap:round;stroke-opacity:1;stroke-width:0.5"><path d="M 25.0 43.2 L 25.0 33.3 L 31.7 33.3" id="10,9" /><path d="M 25.0 43.2 L 25.0 53.1 L 61.6 53.1" id="10,8" /><path d="M 61.6 53.1 L 61.6 60.4 L 90.2 60.4" id="8,7" /><path d="M 90.2 60.4 L 90.2 66.7 L 102.6 66.7" id="7,6" /><path d="M 31.7 33.3 L 31.7 29.2 L 106.2 29.2" id="9,5" /><path d="M 31.7 33.3 L 31.7 37.5 L 104.1 37.5" id="9,4" /><path d="M 61.6 53.1 L 61.6 45.8 L 110.3 45.8" id="8,3" /><path d="M 90.2 60.4 L 90.2 54.2 L 102.1 54.2" id="7,2" /><path d="M 102.6 66.7 L 102.6 62.5 L 104.3 62.5" id="6,1" /><path d="M 102.6 66.7 L 102.6 70.8 L 104.1 70.8" id="6,0" /></g><g class="toytree-Nodes" style="fill:rgb(100%,0%,0%);fill-opacity:1.0;stroke:None;stroke-width:1"><g id="node-0" transform="translate(104.147,70.833)"><circle r="2.5" /></g><g id="node-1" transform="translate(104.269,62.500)"><circle r="2.5" /></g><g id="node-2" transform="translate(102.147,54.167)"><circle r="2.5" /></g><g id="node-3" transform="translate(110.263,45.833)"><circle r="2.5" /></g><g id="node-4" transform="translate(104.050,37.500)"><circle r="2.5" /></g><g id="node-5" transform="translate(106.167,29.167)"><circle r="2.5" /></g><g id="node-6" transform="translate(102.561,66.667)"><circle r="0.0" /></g><g id="node-7" transform="translate(90.240,60.417)"><circle r="0.0" /></g><g id="node-8" transform="translate(61.569,53.125)"><circle r="0.0" /></g><g id="node-9" transform="translate(31.715,33.333)"><circle r="0.0" /></g><g id="node-10" transform="translate(25.000,43.229)"><circle r="0.0" /></g></g></g></g></g><g class="toyplot-coordinates-Cartesian" id="t1d8d8276b7fd498aa5f7cbb70454391e"><clipPath id="t161b27f82848461eabf1e9feab231b87"><rect x="155.0" y="15.0" width="110.0" height="70.0" /></clipPath><g clip-path="url(#t161b27f82848461eabf1e9feab231b87)"><g class="toytree-mark-Toytree" id="t101a17293657419db77eb08987f41498"><g class="toytree-Edges" style="fill:none;stroke:rgb(14.9%,14.9%,14.9%);stroke-linecap:round;stroke-opacity:1;stroke-width:0.5"><path d="M 165.0 43.2 L 165.0 33.3 L 171.6 33.3" id="10,9" /><path d="M 165.0 43.2 L 165.0 53.1 L 172.1 53.1" id="10,8" /><path d="M 172.1 53.1 L 172.1 60.4 L 183.4 60.4" id="8,7" /><path d="M 183.4 60.4 L 183.4 66.7 L 226.5 66.7" id="7,6" /><path d="M 171.6 33.3 L 171.6 29.2 L 228.4 29.2" id="9,5" /><path d="M 171.6 33.3 L 171.6 37.5 L 248.7 37.5" id="9,4" /><path d="M 172.1 53.1 L 172.1 45.8 L 225.4 45.8" id="8,3" /><path d="M 183.4 60.4 L 183.4 54.2 L 250.3 54.2" id="7,2" /><path d="M 226.5 66.7 L 226.5 62.5 L 235.6 62.5" id="6,1" /><path d="M 226.5 66.7 L 226.5 70.8 L 242.0 70.8" id="6,0" /></g><g class="toytree-Nodes" style="fill:rgb(100%,0%,0%);fill-opacity:1.0;stroke:None;stroke-width:1"><g id="node-0" transform="translate(241.985,70.833)"><circle r="2.5" /></g><g id="node-1" transform="translate(235.634,62.500)"><circle r="2.5" /></g><g id="node-2" transform="translate(250.263,54.167)"><circle r="2.5" /></g><g id="node-3" transform="translate(225.428,45.833)"><circle r="2.5" /></g><g id="node-4" transform="translate(248.739,37.500)"><circle r="2.5" /></g><g id="node-5" transform="translate(228.432,29.167)"><circle r="2.5" /></g><g id="node-6" transform="translate(226.473,66.667)"><circle r="0.0" /></g><g id="node-7" transform="translate(183.393,60.417)"><circle r="0.0" /></g><g id="node-8" transform="translate(172.096,53.125)"><circle r="0.0" /></g><g id="node-9" transform="translate(171.593,33.333)"><circle r="0.0" /></g><g id="node-10" transform="translate(165.000,43.229)"><circle r="0.0" /></g></g></g></g></g><g class="toyplot-coordinates-Cartesian" id="tbe719f0b83314eb8a0eb54046fad3d6d"><clipPath id="t017121bb1a5040f596ec58b6a0faa541"><rect x="295.0" y="15.0" width="110.0" height="70.0" /></clipPath><g clip-path="url(#t017121bb1a5040f596ec58b6a0faa541)"><g class="toytree-mark-Toytree" id="t68adf98c87624fb9af4a004166e1cf2d"><g class="toytree-Edges" style="fill:none;stroke:rgb(14.9%,14.9%,14.9%);stroke-linecap:round;stroke-opacity:1;stroke-width:0.5"><path d="M 305.0 43.2 L 305.0 33.3 L 322.8 33.3" id="10,9" /><path d="M 305.0 43.2 L 305.0 53.1 L 313.8 53.1" id="10,8" /><path d="M 313.8 53.1 L 313.8 60.4 L 324.0 60.4" id="8,7" /><path d="M 324.0 60.4 L 324.0 66.7 L 364.5 66.7" id="7,6" /><path d="M 322.8 33.3 L 322.8 29.2 L 366.5 29.2" id="9,5" /><path d="M 322.8 33.3 L 322.8 37.5 L 390.3 37.5" id="9,4" /><path d="M 313.8 53.1 L 313.8 45.8 L 366.5 45.8" id="8,3" /><path d="M 324.0 60.4 L 324.0 54.2 L 389.7 54.2" id="7,2" /><path d="M 364.5 66.7 L 364.5 62.5 L 379.2 62.5" id="6,1" /><path d="M 364.5 66.7 L 364.5 70.8 L 374.2 70.8" id="6,0" /></g><g class="toytree-Nodes" style="fill:rgb(100%,0%,0%);fill-opacity:1.0;stroke:None;stroke-width:1"><g id="node-0" transform="translate(374.221,70.833)"><circle r="2.5" /></g><g id="node-1" transform="translate(379.166,62.500)"><circle r="2.5" /></g><g id="node-2" transform="translate(389.657,54.167)"><circle r="2.5" /></g><g id="node-3" transform="translate(366.543,45.833)"><circle r="2.5" /></g><g id="node-4" transform="translate(390.263,37.500)"><circle r="2.5" /></g><g id="node-5" transform="translate(366.486,29.167)"><circle r="2.5" /></g><g id="node-6" transform="translate(364.475,66.667)"><circle r="0.0" /></g><g id="node-7" transform="translate(324.049,60.417)"><circle r="0.0" /></g><g id="node-8" transform="translate(313.841,53.125)"><circle r="0.0" /></g><g id="node-9" transform="translate(322.830,33.333)"><circle r="0.0" /></g><g id="node-10" transform="translate(305.000,43.229)"><circle r="0.0" /></g></g></g></g></g><g class="toyplot-coordinates-Cartesian" id="tbacfee0a52614cd0970f6903df7fc737"><clipPath id="tb2e76b3570ec48efb94759b94456ee54"><rect x="435.0" y="15.0" width="110.0" height="70.0" /></clipPath><g clip-path="url(#tb2e76b3570ec48efb94759b94456ee54)"><g class="toytree-mark-Toytree" id="t0ddbabfa005d4574a247d2d5e9021512"><g class="toytree-Edges" style="fill:none;stroke:rgb(14.9%,14.9%,14.9%);stroke-linecap:round;stroke-opacity:1;stroke-width:0.5"><path d="M 445.0 37.2 L 445.0 45.3 L 456.9 45.3" id="10,9" /><path d="M 456.9 45.3 L 456.9 53.1 L 488.2 53.1" id="9,8" /><path d="M 488.2 53.1 L 488.2 60.4 L 496.0 60.4" id="8,7" /><path d="M 496.0 60.4 L 496.0 66.7 L 511.0 66.7" id="7,6" /><path d="M 445.0 37.2 L 445.0 29.2 L 522.1 29.2" id="10,5" /><path d="M 456.9 45.3 L 456.9 37.5 L 522.3 37.5" id="9,4" /><path d="M 488.2 53.1 L 488.2 45.8 L 523.3 45.8" id="8,3" /><path d="M 496.0 60.4 L 496.0 54.2 L 530.3 54.2" id="7,2" /><path d="M 511.0 66.7 L 511.0 62.5 L 517.8 62.5" id="6,1" /><path d="M 511.0 66.7 L 511.0 70.8 L 518.1 70.8" id="6,0" /></g><g class="toytree-Nodes" style="fill:rgb(100%,0%,0%);fill-opacity:1.0;stroke:None;stroke-width:1"><g id="node-0" transform="translate(518.062,70.833)"><circle r="2.5" /></g><g id="node-1" transform="translate(517.767,62.500)"><circle r="2.5" /></g><g id="node-2" transform="translate(530.263,54.167)"><circle r="2.5" /></g><g id="node-3" transform="translate(523.262,45.833)"><circle r="2.5" /></g><g id="node-4" transform="translate(522.287,37.500)"><circle r="2.5" /></g><g id="node-5" transform="translate(522.069,29.167)"><circle r="2.5" /></g><g id="node-6" transform="translate(510.972,66.667)"><circle r="0.0" /></g><g id="node-7" transform="translate(495.950,60.417)"><circle r="0.0" /></g><g id="node-8" transform="translate(488.151,53.125)"><circle r="0.0" /></g><g id="node-9" transform="translate(456.881,45.312)"><circle r="0.0" /></g><g id="node-10" transform="translate(445.000,37.240)"><circle r="0.0" /></g></g></g></g></g></svg>