<svg class="toyplot-canvas-Canvas" xmlns:toyplot="http://www.sandia.gov/toyplot" xmlns:xlink="http://www.w3.org/1999/xlink" xmlns="http://www.w3.org/2000/svg" width="560.0px" height="100.0px" viewBox="0 0 560.0 100.0" preserveAspectRatio="xMidYMid meet" style="background-color:transparent;border-color:#292724;border-style:none;border-width:1.0;fill:rgb(16.1%,15.3%,14.1%);fill-opacity:1.0;font-family:Helvetica;font-size:12px;opacity:1.0;stroke:rgb(16.1%,15.3%,14.1%);stroke-opacity:1.0;stroke-width:1.0" id="t6901d027977e46ad87a3d32972b8ffb4"><g class="toyplot-coordinates-Cartesian" id="ta68dfe97fa6844da870821a9b2973c25"><clipPath id="t1701ee9214d1402aa9a4cff41032fb62"><rect x="15.0" y="15.0" width="110.0" height="70.0" /></clipPath><g clip-path="url(#t1701ee9214d1402aa9a4cff41032fb62)"><g class="toytree-mark-Toytree" id="t0c8792d0b23e49c394a5bf53ffbf7e0e"><g class="toytree-Edges" style="fill:none;stroke:rgb(14.9%,14.9%,14.9%);stroke-linecap:round;stroke-opacity:1;stroke-width:0.5"><path d="M 25.0 47.9 L 25.0 35.4 L 38.9 35.4" id="10,9" /><path d="M 25.0 47.9 L 25.0 60.4 L 27.1 60.4" id="10,8" /><path d="M 38.9 35.4 L 38.9 41.7 L 47.0 41.7" id="9,7" /><path d="M 27.1 60.4 L 27.1 66.7 L 50.0 66.7" id="8,6" /><path d="M 38.9 35.4 L 38.9 29.2 L 102.1 29.2" id="9,5" /><path d="M 47.0 41.7 L 47.0 37.5 L 110.3 37.5" id="7,4" /><path d="M 47.0 41.7 L 47.0 45.8 L 101.2 45.8" id="7,3" /><path d="M 27.1 60.4 L 27.1 54.2 L 109.4 54.2" id="8,2" /><path d="M 50.0 66.7 L 50.0 62.5 L 104.0 62.5" id="6,1" /><path d="M 50.0 66.7 L 50.0 70.8 L 100.0 70.8" id="6,0" /></g><g class="toytree-Nodes" style="fill:rgb(100%,0%,0%);fill-opacity:1.0;stroke:None;stroke-width:1"><g id="node-0" transform="translate(100.044,70.833)"><circle r="2.5" /></g><g id="node-1" transform="translate(104.033,62.500)"><circle r="2.5" /></g><g id="node-2" transform="translate(109.357,54.167)"><circle r="2.5" /></g><g id="node-3" transform="translate(101.154,45.833)"><circle r="2.5" /></g><g id="node-4" transform="translate(110.263,37.500)"><circle r="2.5" /></g><g id="node-5" transform="translate(102.086,29.167)"><circle r="2.5" /></g><g id="node-6" transform="translate(49.971,66.667)"><circle r="0.0" /></g><g id="node-7" transform="translate(46.963,41.667)"><circle r="0.0" /></g><g id="node-8" transform="translate(27.060,60.417)"><circle r="0.0" /></g><g id="node-9" transform="translate(38.927,35.417)"><circle r="0.0" /></g><g id="node-10" transform="translate(25.000,47.917)"><circle r="0.0" /></g></g></g></g></g><g class="toyplot-coordinates-Cartesian" id="t52ec9105e8d040d29b100a0d64271165"><clipPath id="t59af53dbe6ea4040a038f3c72331ba81"><rect x="155.0" y="15.0" width="110.0" height="70.0" /></clipPath><g clip-path="url(#t59af53dbe6ea4040a038f3c72331ba81)"><g class="toytree-mark-Toytree" id="tde52e41537374a26bd51bf75d8970be4"><g class="toytree-Edges" style="fill:none;stroke:rgb(14.9%,14.9%,14.9%);stroke-linecap:round;stroke-opacity:1;stroke-width:0.5"><path d="M 165.0 37.2 L 165.0 45.3 L 179.6 45.3" id="10,9" /><path d="M 179.6 45.3 L 179.6 53.1 L 183.5 53.1" id="9,8" /><path d="M 183.5 53.1 L 183.5 60.4 L 195.5 60.4" id="8,7" /><path d="M 195.5 60.4 L 195.5 66.7 L 206.2 66.7" id="7,6" /><path d="M 165.0 37.2 L 165.0 29.2 L 215.9 29.2" id="10,5" /><path d="M 179.6 45.3 L 179.6 37.5 L 199.6 37.5" id="9,4" /><path d="M 183.5 53.1 L 183.5 45.8 L 210.7 45.8" id="8,3" /><path d="M 195.5 60.4 L 195.5 54.2 L 250.3 54.2" id="7,2" /><path d="M 206.2 66.7 L 206.2 62.5 L 224.4 62.5" id="6,1" /><path d="M 206.2 66.7 L 206.2 70.8 L 218.2 70.8" id="6,0" /></g><g class="toytree-Nodes" style="fill:rgb(100%,0%,0%);fill-opacity:1.0;stroke:None;stroke-width:1"><g id="node-0" transform="translate(218.168,70.833)"><circle r="2.5" /></g><g id="node-1" transform="translate(224.444,62.500)"><circle r="2.5" /></g><g id="node-2" transform="translate(250.263,54.167)"><circle r="2.5" /></g><g id="node-3" transform="translate(210.736,45.833)"><circle r="2.5" /></g><g id="node-4" transform="translate(199.581,37.500)"><circle r="2.5" /></g><g id="node-5" transform="translate(215.852,29.167)"><circle r="2.5" /></g><g id="node-6" transform="translate(206.176,66.667)"><circle r="0.0" /></g><g id="node-7" transform="translate(195.460,60.417)"><circle r="0.0" /></g><g id="node-8" transform="translate(183.486,53.125)"><circle r="0.0" /></g><g id="node-9" transform="translate(179.572,45.312)"><circle r="0.0" /></g><g id="node-10" transform="translate(165.000,37.240)"><circle r="0.0" /></g></g></g></g></g><g class="toyplot-coordinates-Cartesian" id="td793b91411e44390882c209a4f4115a4"><clipPath id="t2bdffdd15de54b22a0b5da40dafa207b"><rect x="295.0" y="15.0" width="110.0" height="70.0" /></clipPath><g clip-path="url(#t2bdffdd15de54b22a0b5da40dafa207b)"><g class="toytree-mark-Toytree" id="t83e4221a4f6b478c835e444fadbe11c3"><g class="toytree-Edges" style="fill:none;stroke:rgb(14.9%,14.9%,14.9%);stroke-linecap:round;stroke-opacity:1;stroke-width:0.5"><path d="M 305.0 47.9 L 305.0 35.4 L 324.0 35.4" id="10,9" /><path d="M 305.0 47.9 L 305.0 60.4 L 314.6 60.4" id="10,8" /><path d="M 324.0 35.4 L 324.0 41.7 L 328.1 41.7" id="9,7" /><path d="M 314.6 60.4 L 314.6 66.7 L 332.6 66.7" id="8,6" /><path d="M 324.0 35.4 L 324.0 29.2 L 383.0 29.2" id="9,5" /><path d="M 328.1 41.7 L 328.1 37.5 L 360.5 37.5" id="7,4" /><path d="M 328.1 41.7 L 328.1 45.8 L 361.0 45.8" id="7,3" /><path d="M 314.6 60.4 L 314.6 54.2 L 390.3 54.2" id="8,2" /><path d="M 332.6 66.7 L 332.6 62.5 L 361.9 62.5" id="6,1" /><path d="M 332.6 66.7 L 332.6 70.8 L 356.8 70.8" id="6,0" /></g><g class="toytree-Nodes" style="fill:rgb(100%,0%,0%);fill-opacity:1.0;stroke:None;stroke-width:1"><g id="node-0" transform="translate(356.778,70.833)"><circle r="2.5" /></g><g id="node-1" transform="translate(361.865,62.500)"><circle r="2.5" /></g><g id="node-2" transform="translate(390.263,54.167)"><circle r="2.5" /></g><g id="node-3" transform="translate(361.048,45.833)"><circle r="2.5" /></g><g id="node-4" transform="translate(360.523,37.500)"><circle r="2.5" /></g><g id="node-5" transform="translate(382.953,29.167)"><circle r="2.5" /></g><g id="node-6" transform="translate(332.578,66.667)"><circle r="0.0" /></g><g id="node-7" transform="translate(328.063,41.667)"><circle r="0.0" /></g><g id="node-8" transform="translate(314.569,60.417)"><circle r="0.0" /></g><g id="node-9" transform="translate(324.021,35.417)"><circle r="0.0" /></g><g id="node-10" transform="translate(305.000,47.917)"><circle r="0.0" /></g></g></g></g></g><g class="toyplot-coordinates-Cartesian" id="t766d0e7b81dd4ee2a3da5e21c3dd67b0"><clipPath id="t354229855feb474b861fa4f925c41e37"><rect x="435.0" y="15.0" width="110.0" height="70.0" /></clipPath><g clip-path="url(#t354229855feb474b861fa4f925c41e37)"><g class="toytree-mark-Toytree" id="t2e4af8377fb842e88995cd6f9a95a5f2"><g class="toytree-Edges" style="fill:none;stroke:rgb(14.9%,14.9%,14.9%);stroke-linecap:round;stroke-opacity:1;stroke-width:0.5"><path d="M 445.0 40.1 L 445.0 51.0 L 454.5 51.0" id="10,9" /><path d="M 454.5 51.0 L 454.5 41.7 L 486.2 41.7" id="9,8" /><path d="M 454.5 51.0 L 454.5 60.4 L 486.4 60.4" id="9,7" /><path d="M 486.4 60.4 L 486.4 66.7 L 491.9 66.7" id="7,6" /><path d="M 445.0 40.1 L 445.0 29.2 L 521.1 29.2" id="10,5" /><path d="M 486.2 41.7 L 486.2 37.5 L 519.3 37.5" id="8,4" /><path d="M 486.2 41.7 L 486.2 45.8 L 511.7 45.8" id="8,3" /><path d="M 486.4 60.4 L 486.4 54.2 L 530.3 54.2" id="7,2" /><path d="M 491.9 66.7 L 491.9 62.5 L 529.4 62.5" id="6,1" /><path d="M 491.9 66.7 L 491.9 70.8 L 518.2 70.8" id="6,0" /></g><g class="toytree-Nodes" style="fill:rgb(100%,0%,0%);fill-opacity:1.0;stroke:None;stroke-width:1"><g id="node-0" transform="translate(518.185,70.833)"><circle r="2.5" /></g><g id="node-1" transform="translate(529.440,62.500)"><circle r="2.5" /></g><g id="node-2" transform="translate(530.263,54.167)"><circle r="2.5" /></g><g id="node-3" transform="translate(511.657,45.833)"><circle r="2.5" /></g><g id="node-4" transform="translate(519.312,37.500)"><circle r="2.5" /></g><g id="node-5" transform="translate(521.112,29.167)"><circle r="2.5" /></g><g id="node-6" transform="translate(491.943,66.667)"><circle r="0.0" /></g><g id="node-7" transform="translate(486.412,60.417)"><circle r="0.0" /></g><g id="node-8" transform="translate(486.232,41.667)"><circle r="0.0" /></g><g id="node-9" transform="translate(454.483,51.042)"><circle r="0.0" /></g><g id="node-10" transform="translate(445.000,40.104)"><circle r="0.0" /></g></g></g></g></g></svg>