<svg class="toyplot-canvas-Canvas" xmlns:toyplot="http://www.sandia.gov/toyplot" xmlns:xlink="http://www.w3.org/1999/xlink" xmlns="http://www.w3.org/2000/svg" width="560.0px" height="100.0px" viewBox="0 0 560.0 100.0" preserveAspectRatio="xMidYMid meet" style="background-color:transparent;border-color:#292724;border-style:none;border-width:1.0;fill:rgb(16.1%,15.3%,14.1%);fill-opacity:1.0;font-family:Helvetica;font-size:12px;opacity:1.0;stroke:rgb(16.1%,15.3%,14.1%);stroke-opacity:1.0;stroke-width:1.0" id="te53125d02273424ab587d154445cfb09"><g class="toyplot-coordinates-Cartesian" id="t529ec654e6734390a5f4814b4fa9bb96"><clipPath id="tf32ca8aea46b406f95d698aa5720baa0"><rect x="15.0" y="15.0" width="110.0" height="70.0" /></clipPath><g clip-path="url(#tf32ca8aea46b406f95d698aa5720baa0)"><g class="toytree-mark-Toytree" id="t572c7ba0eca1411f9848472276a23d0a"><g class="toytree-Edges" style="fill:none;stroke:rgb(14.9%,14.9%,14.9%);stroke-linecap:round;stroke-opacity:1;stroke-width:0.5"><path d="M 25.0 42.4 L 25.0 33.1 L 39.5 33.1" id="16,15" /><path d="M 25.0 42.4 L 25.0 51.6 L 39.9 51.6" id="16,14" /><path d="M 39.5 33.1 L 39.5 37.0 L 49.2 37.0" id="15,13" /><path d="M 39.9 51.6 L 39.9 58.5 L 43.7 58.5" id="14,12" /><path d="M 43.7 58.5 L 43.7 52.6 L 94.7 52.6" id="12,11" /><path d="M 43.7 58.5 L 43.7 64.3 L 47.2 64.3" id="12,10" /><path d="M 47.2 64.3 L 47.2 68.2 L 56.3 68.2" id="10,9" /><path d="M 39.5 33.1 L 39.5 29.2 L 101.4 29.2" id="15,8" /><path d="M 49.2 37.0 L 49.2 34.4 L 103.2 34.4" id="13,7" /><path d="M 49.2 37.0 L 49.2 39.6 L 103.2 39.6" id="13,6" /><path d="M 39.9 51.6 L 39.9 44.8 L 97.5 44.8" id="14,5" /><path d="M 94.7 52.6 L 94.7 50.0 L 104.7 50.0" id="11,4" /><path d="M 94.7 52.6 L 94.7 55.2 L 104.7 55.2" id="11,3" /><path d="M 47.2 64.3 L 47.2 60.4 L 108.0 60.4" id="10,2" /><path d="M 56.3 68.2 L 56.3 65.6 L 93.1 65.6" id="9,1" /><path d="M 56.3 68.2 L 56.3 70.8 L 110.3 70.8" id="9,0" /></g><g class="toytree-Nodes" style="fill:rgb(100%,0%,0%);fill-opacity:1.0;stroke:None;stroke-width:1"><g id="node-0" transform="translate(110.263,70.833)"><circle r="2.5" /></g><g id="node-1" transform="translate(93.097,65.625)"><circle r="2.5" /></g><g id="node-2" transform="translate(107.987,60.417)"><circle r="2.5" /></g><g id="node-3" transform="translate(104.702,55.208)"><circle r="2.5" /></g><g id="node-4" transform="translate(104.666,50.000)"><circle r="2.5" /></g><g id="node-5" transform="translate(97.498,44.792)"><circle r="2.5" /></g><g id="node-6" transform="translate(103.168,39.583)"><circle r="2.5" /></g><g id="node-7" transform="translate(103.208,34.375)"><circle r="2.5" /></g><g id="node-8" transform="translate(101.358,29.167)"><circle r="2.5" /></g><g id="node-9" transform="translate(56.325,68.229)"><circle r="0.0" /></g><g id="node-10" transform="translate(47.224,64.323)"><circle r="0.0" /></g><g id="node-11" transform="translate(94.704,52.604)"><circle r="0.0" /></g><g id="node-12" transform="translate(43.707,58.464)"><circle r="0.0" /></g><g id="node-13" transform="translate(49.179,36.979)"><circle r="0.0" /></g><g id="node-14" transform="translate(39.889,51.628)"><circle r="0.0" /></g><g id="node-15" transform="translate(39.484,33.073)"><circle r="0.0" /></g><g id="node-16" transform="translate(25.000,42.350)"><circle r="0.0" /></g></g></g></g></g><g class="toyplot-coordinates-Cartesian" id="t0ae96e194909434daf4b7ff1eb99aa94"><clipPath id="t55254f7b6c8b49c0a79e85ea240ab2ed"><rect x="155.0" y="15.0" width="110.0" height="70.0" /></clipPath><g clip-path="url(#t55254f7b6c8b49c0a79e85ea240ab2ed)"><g class="toytree-mark-Toytree" id="t4530f1f187944882808f2594f5cb3b0a"><g class="toytree-Edges" style="fill:none;stroke:rgb(14.9%,14.9%,14.9%);stroke-linecap:round;stroke-opacity:1;stroke-width:0.5"><path d="M 165.0 42.4 L 165.0 33.1 L 169.6 33.1" id="16,15" /><path d="M 165.0 42.4 L 165.0 51.6 L 169.0 51.6" id="16,14" /><path d="M 169.6 33.1 L 169.6 37.0 L 174.3 37.0" id="15,13" /><path d="M 169.0 51.6 L 169.0 58.5 L 171.6 58.5" id="14,12" /><path d="M 171.6 58.5 L 171.6 52.6 L 176.9 52.6" id="12,11" /><path d="M 171.6 58.5 L 171.6 64.3 L 172.5 64.3" id="12,10" /><path d="M 172.5 64.3 L 172.5 68.2 L 187.0 68.2" id="10,9" /><path d="M 169.6 33.1 L 169.6 29.2 L 179.5 29.2" id="15,8" /><path d="M 174.3 37.0 L 174.3 34.4 L 178.7 34.4" id="13,7" /><path d="M 174.3 37.0 L 174.3 39.6 L 181.4 39.6" id="13,6" /><path d="M 169.0 51.6 L 169.0 44.8 L 172.3 44.8" id="14,5" /><path d="M 176.9 52.6 L 176.9 50.0 L 183.2 50.0" id="11,4" /><path d="M 176.9 52.6 L 176.9 55.2 L 177.6 55.2" id="11,3" /><path d="M 172.5 64.3 L 172.5 60.4 L 182.6 60.4" id="10,2" /><path d="M 187.0 68.2 L 187.0 65.6 L 187.0 65.6" id="9,1" /><path d="M 187.0 68.2 L 187.0 70.8 L 250.3 70.8" id="9,0" /></g><g class="toytree-Nodes" style="fill:rgb(100%,0%,0%);fill-opacity:1.0;stroke:None;stroke-width:1"><g id="node-0" transform="translate(250.263,70.833)"><circle r="2.5" /></g><g id="node-1" transform="translate(187.043,65.625)"><circle r="2.5" /></g><g id="node-2" transform="translate(182.606,60.417)"><circle r="2.5" /></g><g id="node-3" transform="translate(177.643,55.208)"><circle r="2.5" /></g><g id="node-4" transform="translate(183.224,50.000)"><circle r="2.5" /></g><g id="node-5" transform="translate(172.304,44.792)"><circle r="2.5" /></g><g id="node-6" transform="translate(181.397,39.583)"><circle r="2.5" /></g><g id="node-7" transform="translate(178.705,34.375)"><circle r="2.5" /></g><g id="node-8" transform="translate(179.540,29.167)"><circle r="2.5" /></g><g id="node-9" transform="translate(187.043,68.229)"><circle r="0.0" /></g><g id="node-10" transform="translate(172.519,64.323)"><circle r="0.0" /></g><g id="node-11" transform="translate(176.902,52.604)"><circle r="0.0" /></g><g id="node-12" transform="translate(171.559,58.464)"><circle r="0.0" /></g><g id="node-13" transform="translate(174.298,36.979)"><circle r="0.0" /></g><g id="node-14" transform="translate(168.962,51.628)"><circle r="0.0" /></g><g id="node-15" transform="translate(169.610,33.073)"><circle r="0.0" /></g><g id="node-16" transform="translate(165.000,42.350)"><circle r="0.0" /></g></g></g></g></g><g class="toyplot-coordinates-Cartesian" id="tf3ae2832fda247829707a0e45cd28955"><clipPath id="t1358c80bfb5b49379099f6d7c0058413"><rect x="295.0" y="15.0" width="110.0" height="70.0" /></clipPath><g clip-path="url(#t1358c80bfb5b49379099f6d7c0058413)"><g class="toytree-mark-Toytree" id="t21cd767acca24a32bd1d7cb5ed4b739b"><g class="toytree-Edges" style="fill:none;stroke:rgb(14.9%,14.9%,14.9%);stroke-linecap:round;stroke-opacity:1;stroke-width:0.5"><path d="M 305.0 43.3 L 305.0 33.1 L 329.3 33.1" id="16,15" /><path d="M 305.0 43.3 L 305.0 53.6 L 320.5 53.6" id="16,14" /><path d="M 329.3 33.1 L 329.3 37.0 L 342.6 37.0" id="15,13" /><path d="M 320.5 53.6 L 320.5 47.4 L 328.0 47.4" id="14,12" /><path d="M 320.5 53.6 L 320.5 59.8 L 327.4 59.8" id="14,11" /><path d="M 327.4 59.8 L 327.4 64.3 L 327.8 64.3" id="11,10" /><path d="M 327.8 64.3 L 327.8 68.2 L 338.4 68.2" id="10,9" /><path d="M 329.3 33.1 L 329.3 29.2 L 358.0 29.2" id="15,8" /><path d="M 342.6 37.0 L 342.6 34.4 L 364.5 34.4" id="13,7" /><path d="M 342.6 37.0 L 342.6 39.6 L 369.9 39.6" id="13,6" /><path d="M 328.0 47.4 L 328.0 44.8 L 362.4 44.8" id="12,5" /><path d="M 328.0 47.4 L 328.0 50.0 L 390.3 50.0" id="12,4" /><path d="M 327.4 59.8 L 327.4 55.2 L 361.2 55.2" id="11,3" /><path d="M 327.8 64.3 L 327.8 60.4 L 350.5 60.4" id="10,2" /><path d="M 338.4 68.2 L 338.4 65.6 L 388.3 65.6" id="9,1" /><path d="M 338.4 68.2 L 338.4 70.8 L 352.5 70.8" id="9,0" /></g><g class="toytree-Nodes" style="fill:rgb(100%,0%,0%);fill-opacity:1.0;stroke:None;stroke-width:1"><g id="node-0" transform="translate(352.496,70.833)"><circle r="2.5" /></g><g id="node-1" transform="translate(388.292,65.625)"><circle r="2.5" /></g><g id="node-2" transform="translate(350.543,60.417)"><circle r="2.5" /></g><g id="node-3" transform="translate(361.165,55.208)"><circle r="2.5" /></g><g id="node-4" transform="translate(390.263,50.000)"><circle r="2.5" /></g><g id="node-5" transform="translate(362.410,44.792)"><circle r="2.5" /></g><g id="node-6" transform="translate(369.855,39.583)"><circle r="2.5" /></g><g id="node-7" transform="translate(364.497,34.375)"><circle r="2.5" /></g><g id="node-8" transform="translate(358.017,29.167)"><circle r="2.5" /></g><g id="node-9" transform="translate(338.440,68.229)"><circle r="0.0" /></g><g id="node-10" transform="translate(327.806,64.323)"><circle r="0.0" /></g><g id="node-11" transform="translate(327.387,59.766)"><circle r="0.0" /></g><g id="node-12" transform="translate(327.977,47.396)"><circle r="0.0" /></g><g id="node-13" transform="translate(342.568,36.979)"><circle r="0.0" /></g><g id="node-14" transform="translate(320.536,53.581)"><circle r="0.0" /></g><g id="node-15" transform="translate(329.314,33.073)"><circle r="0.0" /></g><g id="node-16" transform="translate(305.000,43.327)"><circle r="0.0" /></g></g></g></g></g><g class="toyplot-coordinates-Cartesian" id="tb026c08f8f87458db2186f22cc2e73df"><clipPath id="ta6441548e3db40abb762dc04e2587374"><rect x="435.0" y="15.0" width="110.0" height="70.0" /></clipPath><g clip-path="url(#ta6441548e3db40abb762dc04e2587374)"><g class="toytree-mark-Toytree" id="t0855fcf2aa6c412595a8d56914eb582e"><g class="toytree-Edges" style="fill:none;stroke:rgb(14.9%,14.9%,14.9%);stroke-linecap:round;stroke-opacity:1;stroke-width:0.5"><path d="M 445.0 43.3 L 445.0 33.1 L 474.7 33.1" id="16,15" /><path d="M 445.0 43.3 L 445.0 53.6 L 475.5 53.6" id="16,14" /><path d="M 474.7 33.1 L 474.7 37.0 L 495.5 37.0" id="15,13" /><path d="M 475.5 53.6 L 475.5 47.4 L 505.5 47.4" id="14,12" /><path d="M 475.5 53.6 L 475.5 59.8 L 483.2 59.8" id="14,11" /><path d="M 483.2 59.8 L 483.2 64.3 L 489.2 64.3" id="11,10" /><path d="M 489.2 64.3 L 489.2 68.2 L 501.3 68.2" id="10,9" /><path d="M 474.7 33.1 L 474.7 29.2 L 508.8 29.2" id="15,8" /><path d="M 495.5 37.0 L 495.5 34.4 L 518.4 34.4" id="13,7" /><path d="M 495.5 37.0 L 495.5 39.6 L 522.6 39.6" id="13,6" /><path d="M 505.5 47.4 L 505.5 44.8 L 509.5 44.8" id="12,5" /><path d="M 505.5 47.4 L 505.5 50.0 L 510.6 50.0" id="12,4" /><path d="M 483.2 59.8 L 483.2 55.2 L 522.5 55.2" id="11,3" /><path d="M 489.2 64.3 L 489.2 60.4 L 512.1 60.4" id="10,2" /><path d="M 501.3 68.2 L 501.3 65.6 L 516.1 65.6" id="9,1" /><path d="M 501.3 68.2 L 501.3 70.8 L 530.3 70.8" id="9,0" /></g><g class="toytree-Nodes" style="fill:rgb(100%,0%,0%);fill-opacity:1.0;stroke:None;stroke-width:1"><g id="node-0" transform="translate(530.263,70.833)"><circle r="2.5" /></g><g id="node-1" transform="translate(516.059,65.625)"><circle r="2.5" /></g><g id="node-2" transform="translate(512.074,60.417)"><circle r="2.5" /></g><g id="node-3" transform="translate(522.468,55.208)"><circle r="2.5" /></g><g id="node-4" transform="translate(510.586,50.000)"><circle r="2.5" /></g><g id="node-5" transform="translate(509.483,44.792)"><circle r="2.5" /></g><g id="node-6" transform="translate(522.555,39.583)"><circle r="2.5" /></g><g id="node-7" transform="translate(518.437,34.375)"><circle r="2.5" /></g><g id="node-8" transform="translate(508.752,29.167)"><circle r="2.5" /></g><g id="node-9" transform="translate(501.305,68.229)"><circle r="0.0" /></g><g id="node-10" transform="translate(489.198,64.323)"><circle r="0.0" /></g><g id="node-11" transform="translate(483.172,59.766)"><circle r="0.0" /></g><g id="node-12" transform="translate(505.535,47.396)"><circle r="0.0" /></g><g id="node-13" transform="translate(495.469,36.979)"><circle r="0.0" /></g><g id="node-14" transform="translate(475.453,53.581)"><circle r="0.0" /></g><g id="node-15" transform="translate(474.678,33.073)"><circle r="0.0" /></g><g id="node-16" transform="translate(445.000,43.327)"><circle r="0.0" /></g></g></g></g></g></svg>