<svg class="toyplot-canvas-Canvas" xmlns:toyplot="http://www.sandia.gov/toyplot" xmlns:xlink="http://www.w3.org/1999/xlink" xmlns="http://www.w3.org/2000/svg" width="560.0px" height="100.0px" viewBox="0 0 560.0 100.0" preserveAspectRatio="xMidYMid meet" style="background-color:transparent;border-color:#292724;border-style:none;border-width:1.0;fill:rgb(16.1%,15.3%,14.1%);fill-opacity:1.0;font-family:Helvetica;font-size:12px;opacity:1.0;stroke:rgb(16.1%,15.3%,14.1%);stroke-opacity:1.0;stroke-width:1.0" id="t0e8104e66dac46e588bf5286134f4ba4"><g class="toyplot-coordinates-Cartesian" id="t215cec5b6778464bbac52a4d7881ebaf"><clipPath id="ta24159c523824a01b7f7c6b51ba6cd9c"><rect x="15.0" y="15.0" width="110.0" height="70.0" /></clipPath><g clip-path="url(#ta24159c523824a01b7f7c6b51ba6cd9c)"><g class="toytree-mark-Toytree" id="tf827f6e8c616416a896ac699bbd50d04"><g class="toytree-Edges" style="fill:none;stroke:rgb(14.9%,14.9%,14.9%);stroke-linecap:round;stroke-opacity:1;stroke-width:0.5"><path d="M 25.0 38.2 L 25.0 32.0 L 46.4 32.0" id="22,21" /><path d="M 25.0 38.2 L 25.0 44.4 L 28.5 44.4" id="22,20" /><path d="M 46.4 32.0 L 46.4 34.8 L 56.4 34.8" id="21,19" /><path d="M 28.5 44.4 L 28.5 48.2 L 30.6 48.2" id="20,18" /><path d="M 30.6 48.2 L 30.6 52.1 L 41.3 52.1" id="18,17" /><path d="M 41.3 52.1 L 41.3 56.2 L 65.7 56.2" id="17,16" /><path d="M 65.7 56.2 L 65.7 60.4 L 82.1 60.4" id="16,15" /><path d="M 82.1 60.4 L 82.1 65.2 L 86.3 65.2" id="15,14" /><path d="M 86.3 65.2 L 86.3 61.4 L 99.4 61.4" id="14,13" /><path d="M 86.3 65.2 L 86.3 68.9 L 102.5 68.9" id="14,12" /><path d="M 46.4 32.0 L 46.4 29.2 L 97.2 29.2" id="21,11" /><path d="M 56.4 34.8 L 56.4 33.0 L 110.3 33.0" id="19,10" /><path d="M 56.4 34.8 L 56.4 36.7 L 104.3 36.7" id="19,9" /><path d="M 28.5 44.4 L 28.5 40.5 L 105.8 40.5" id="20,8" /><path d="M 30.6 48.2 L 30.6 44.3 L 100.3 44.3" id="18,7" /><path d="M 41.3 52.1 L 41.3 48.1 L 102.7 48.1" id="17,6" /><path d="M 65.7 56.2 L 65.7 51.9 L 105.4 51.9" id="16,5" /><path d="M 82.1 60.4 L 82.1 55.7 L 103.3 55.7" id="15,4" /><path d="M 99.4 61.4 L 99.4 59.5 L 100.7 59.5" id="13,3" /><path d="M 99.4 61.4 L 99.4 63.3 L 101.7 63.3" id="13,2" /><path d="M 102.5 68.9 L 102.5 67.0 L 105.6 67.0" id="12,1" /><path d="M 102.5 68.9 L 102.5 70.8 L 107.2 70.8" id="12,0" /></g><g class="toytree-Nodes" style="fill:rgb(100%,0%,0%);fill-opacity:1.0;stroke:None;stroke-width:1"><g id="node-0" transform="translate(107.169,70.833)"><circle r="2.5" /></g><g id="node-1" transform="translate(105.562,67.045)"><circle r="2.5" /></g><g id="node-2" transform="translate(101.736,63.258)"><circle r="2.5" /></g><g id="node-3" transform="translate(100.672,59.470)"><circle r="2.5" /></g><g id="node-4" transform="translate(103.269,55.682)"><circle r="2.5" /></g><g id="node-5" transform="translate(105.395,51.894)"><circle r="2.5" /></g><g id="node-6" transform="translate(102.693,48.106)"><circle r="2.5" /></g><g id="node-7" transform="translate(100.296,44.318)"><circle r="2.5" /></g><g id="node-8" transform="translate(105.796,40.530)"><circle r="2.5" /></g><g id="node-9" transform="translate(104.298,36.742)"><circle r="2.5" /></g><g id="node-10" transform="translate(110.263,32.955)"><circle r="2.5" /></g><g id="node-11" transform="translate(97.189,29.167)"><circle r="2.5" /></g><g id="node-12" transform="translate(102.470,68.939)"><circle r="0.0" /></g><g id="node-13" transform="translate(99.423,61.364)"><circle r="0.0" /></g><g id="node-14" transform="translate(86.340,65.152)"><circle r="0.0" /></g><g id="node-15" transform="translate(82.075,60.417)"><circle r="0.0" /></g><g id="node-16" transform="translate(65.676,56.155)"><circle r="0.0" /></g><g id="node-17" transform="translate(41.324,52.131)"><circle r="0.0" /></g><g id="node-18" transform="translate(30.640,48.224)"><circle r="0.0" /></g><g id="node-19" transform="translate(56.422,34.848)"><circle r="0.0" /></g><g id="node-20" transform="translate(28.485,44.377)"><circle r="0.0" /></g><g id="node-21" transform="translate(46.368,32.008)"><circle r="0.0" /></g><g id="node-22" transform="translate(25.000,38.192)"><circle r="0.0" /></g></g></g></g></g><g class="toyplot-coordinates-Cartesian" id="t1601cef6850e44d291abe9501b3fe571"><clipPath id="t6109e242cf104c05b7219d4dc2f24bd4"><rect x="155.0" y="15.0" width="110.0" height="70.0" /></clipPath><g clip-path="url(#t6109e242cf104c05b7219d4dc2f24bd4)"><g class="toytree-mark-Toytree" id="ta1b6b64df02149748514c00e8ed0ff91"><g class="toytree-Edges" style="fill:none;stroke:rgb(14.9%,14.9%,14.9%);stroke-linecap:round;stroke-opacity:1;stroke-width:0.5"><path d="M 165.0 36.0 L 165.0 31.1 L 193.0 31.1" id="22,21" /><path d="M 165.0 36.0 L 165.0 40.9 L 174.3 40.9" id="22,20" /><path d="M 174.3 40.9 L 174.3 45.1 L 186.6 45.1" id="20,19" /><path d="M 186.6 45.1 L 186.6 49.8 L 199.5 49.8" id="19,18" /><path d="M 199.5 49.8 L 199.5 55.2 L 206.5 55.2" id="18,17" /><path d="M 206.5 55.2 L 206.5 50.0 L 212.0 50.0" id="17,16" /><path d="M 206.5 55.2 L 206.5 60.4 L 212.3 60.4" id="17,15" /><path d="M 212.3 60.4 L 212.3 65.2 L 214.4 65.2" id="15,14" /><path d="M 214.4 65.2 L 214.4 61.4 L 216.9 61.4" id="14,13" /><path d="M 214.4 65.2 L 214.4 68.9 L 218.3 68.9" id="14,12" /><path d="M 193.0 31.1 L 193.0 29.2 L 221.6 29.2" id="21,11" /><path d="M 193.0 31.1 L 193.0 33.0 L 212.1 33.0" id="21,10" /><path d="M 174.3 40.9 L 174.3 36.7 L 204.3 36.7" id="20,9" /><path d="M 186.6 45.1 L 186.6 40.5 L 193.0 40.5" id="19,8" /><path d="M 199.5 49.8 L 199.5 44.3 L 233.5 44.3" id="18,7" /><path d="M 212.0 50.0 L 212.0 48.1 L 226.7 48.1" id="16,6" /><path d="M 212.0 50.0 L 212.0 51.9 L 250.3 51.9" id="16,5" /><path d="M 212.3 60.4 L 212.3 55.7 L 216.6 55.7" id="15,4" /><path d="M 216.9 61.4 L 216.9 59.5 L 223.8 59.5" id="13,3" /><path d="M 216.9 61.4 L 216.9 63.3 L 216.9 63.3" id="13,2" /><path d="M 218.3 68.9 L 218.3 67.0 L 222.5 67.0" id="12,1" /><path d="M 218.3 68.9 L 218.3 70.8 L 218.3 70.8" id="12,0" /></g><g class="toytree-Nodes" style="fill:rgb(100%,0%,0%);fill-opacity:1.0;stroke:None;stroke-width:1"><g id="node-0" transform="translate(218.267,70.833)"><circle r="2.5" /></g><g id="node-1" transform="translate(222.540,67.045)"><circle r="2.5" /></g><g id="node-2" transform="translate(216.949,63.258)"><circle r="2.5" /></g><g id="node-3" transform="translate(223.775,59.470)"><circle r="2.5" /></g><g id="node-4" transform="translate(216.563,55.682)"><circle r="2.5" /></g><g id="node-5" transform="translate(250.263,51.894)"><circle r="2.5" /></g><g id="node-6" transform="translate(226.740,48.106)"><circle r="2.5" /></g><g id="node-7" transform="translate(233.520,44.318)"><circle r="2.5" /></g><g id="node-8" transform="translate(193.030,40.530)"><circle r="2.5" /></g><g id="node-9" transform="translate(204.302,36.742)"><circle r="2.5" /></g><g id="node-10" transform="translate(212.056,32.955)"><circle r="2.5" /></g><g id="node-11" transform="translate(221.623,29.167)"><circle r="2.5" /></g><g id="node-12" transform="translate(218.267,68.939)"><circle r="0.0" /></g><g id="node-13" transform="translate(216.949,61.364)"><circle r="0.0" /></g><g id="node-14" transform="translate(214.448,65.152)"><circle r="0.0" /></g><g id="node-15" transform="translate(212.311,60.417)"><circle r="0.0" /></g><g id="node-16" transform="translate(212.004,50.000)"><circle r="0.0" /></g><g id="node-17" transform="translate(206.532,55.208)"><circle r="0.0" /></g><g id="node-18" transform="translate(199.544,49.763)"><circle r="0.0" /></g><g id="node-19" transform="translate(186.626,45.147)"><circle r="0.0" /></g><g id="node-20" transform="translate(174.312,40.945)"><circle r="0.0" /></g><g id="node-21" transform="translate(192.999,31.061)"><circle r="0.0" /></g><g id="node-22" transform="translate(165.000,36.003)"><circle r="0.0" /></g></g></g></g></g><g class="toyplot-coordinates-Cartesian" id="t7a2aa4b270d648599ddb71b3a2e88fc3"><clipPath id="t23f6c056b8c440f58f8e2083fb4645bd"><rect x="295.0" y="15.0" width="110.0" height="70.0" /></clipPath><g clip-path="url(#t23f6c056b8c440f58f8e2083fb4645bd)"><g class="toytree-mark-Toytree" id="tbc4ad2b80d0944e39622502bea67d089"><g class="toytree-Edges" style="fill:none;stroke:rgb(14.9%,14.9%,14.9%);stroke-linecap:round;stroke-opacity:1;stroke-width:0.5"><path d="M 305.0 38.5 L 305.0 32.0 L 334.5 32.0" id="22,21" /><path d="M 305.0 38.5 L 305.0 45.0 L 311.9 45.0" id="22,20" /><path d="M 334.5 32.0 L 334.5 34.8 L 345.0 34.8" id="21,19" /><path d="M 311.9 45.0 L 311.9 49.5 L 318.1 49.5" id="20,18" /><path d="M 318.1 49.5 L 318.1 54.6 L 334.7 54.6" id="18,17" /><path d="M 334.7 54.6 L 334.7 50.0 L 338.6 50.0" id="17,16" /><path d="M 334.7 54.6 L 334.7 59.2 L 347.2 59.2" id="17,15" /><path d="M 347.2 59.2 L 347.2 62.8 L 354.2 62.8" id="15,14" /><path d="M 354.2 62.8 L 354.2 66.1 L 357.0 66.1" id="14,13" /><path d="M 357.0 66.1 L 357.0 68.9 L 367.2 68.9" id="13,12" /><path d="M 334.5 32.0 L 334.5 29.2 L 358.7 29.2" id="21,11" /><path d="M 345.0 34.8 L 345.0 33.0 L 378.8 33.0" id="19,10" /><path d="M 345.0 34.8 L 345.0 36.7 L 380.3 36.7" id="19,9" /><path d="M 311.9 45.0 L 311.9 40.5 L 361.0 40.5" id="20,8" /><path d="M 318.1 49.5 L 318.1 44.3 L 380.1 44.3" id="18,7" /><path d="M 338.6 50.0 L 338.6 48.1 L 379.7 48.1" id="16,6" /><path d="M 338.6 50.0 L 338.6 51.9 L 390.3 51.9" id="16,5" /><path d="M 347.2 59.2 L 347.2 55.7 L 368.7 55.7" id="15,4" /><path d="M 354.2 62.8 L 354.2 59.5 L 364.4 59.5" id="14,3" /><path d="M 357.0 66.1 L 357.0 63.3 L 364.5 63.3" id="13,2" /><path d="M 367.2 68.9 L 367.2 67.0 L 370.3 67.0" id="12,1" /><path d="M 367.2 68.9 L 367.2 70.8 L 370.2 70.8" id="12,0" /></g><g class="toytree-Nodes" style="fill:rgb(100%,0%,0%);fill-opacity:1.0;stroke:None;stroke-width:1"><g id="node-0" transform="translate(370.250,70.833)"><circle r="2.5" /></g><g id="node-1" transform="translate(370.343,67.045)"><circle r="2.5" /></g><g id="node-2" transform="translate(364.503,63.258)"><circle r="2.5" /></g><g id="node-3" transform="translate(364.363,59.470)"><circle r="2.5" /></g><g id="node-4" transform="translate(368.687,55.682)"><circle r="2.5" /></g><g id="node-5" transform="translate(390.263,51.894)"><circle r="2.5" /></g><g id="node-6" transform="translate(379.671,48.106)"><circle r="2.5" /></g><g id="node-7" transform="translate(380.057,44.318)"><circle r="2.5" /></g><g id="node-8" transform="translate(361.004,40.530)"><circle r="2.5" /></g><g id="node-9" transform="translate(380.277,36.742)"><circle r="2.5" /></g><g id="node-10" transform="translate(378.815,32.955)"><circle r="2.5" /></g><g id="node-11" transform="translate(358.666,29.167)"><circle r="2.5" /></g><g id="node-12" transform="translate(367.224,68.939)"><circle r="0.0" /></g><g id="node-13" transform="translate(357.013,66.098)"><circle r="0.0" /></g><g id="node-14" transform="translate(354.169,62.784)"><circle r="0.0" /></g><g id="node-15" transform="translate(347.182,59.233)"><circle r="0.0" /></g><g id="node-16" transform="translate(338.650,50.000)"><circle r="0.0" /></g><g id="node-17" transform="translate(334.682,54.616)"><circle r="0.0" /></g><g id="node-18" transform="translate(318.098,49.467)"><circle r="0.0" /></g><g id="node-19" transform="translate(345.049,34.848)"><circle r="0.0" /></g><g id="node-20" transform="translate(311.877,44.999)"><circle r="0.0" /></g><g id="node-21" transform="translate(334.492,32.008)"><circle r="0.0" /></g><g id="node-22" transform="translate(305.000,38.503)"><circle r="0.0" /></g></g></g></g></g><g class="toyplot-coordinates-Cartesian" id="t4d3e9bda00eb4aaa8e13e412cbacef45"><clipPath id="t5346338210344c2fa71eacaef46016a2"><rect x="435.0" y="15.0" width="110.0" height="70.0" /></clipPath><g clip-path="url(#t5346338210344c2fa71eacaef46016a2)"><g class="toytree-mark-Toytree" id="t218490e790384f909213e18d2d3abb4b"><g class="toytree-Edges" style="fill:none;stroke:rgb(14.9%,14.9%,14.9%);stroke-linecap:round;stroke-opacity:1;stroke-width:0.5"><path d="M 445.0 39.6 L 445.0 32.0 L 486.0 32.0" id="22,21" /><path d="M 445.0 39.6 L 445.0 47.3 L 457.4 47.3" id="22,20" /><path d="M 486.0 32.0 L 486.0 34.8 L 495.5 34.8" id="21,19" /><path d="M 457.4 47.3 L 457.4 42.4 L 470.9 42.4" id="20,18" /><path d="M 457.4 47.3 L 457.4 52.1 L 465.6 52.1" id="20,17" /><path d="M 465.6 52.1 L 465.6 56.2 L 489.7 56.2" id="17,16" /><path d="M 489.7 56.2 L 489.7 60.4 L 504.4 60.4" id="16,15" /><path d="M 504.4 60.4 L 504.4 65.2 L 509.2 65.2" id="15,14" /><path d="M 509.2 65.2 L 509.2 61.4 L 514.0 61.4" id="14,13" /><path d="M 509.2 65.2 L 509.2 68.9 L 515.7 68.9" id="14,12" /><path d="M 486.0 32.0 L 486.0 29.2 L 505.5 29.2" id="21,11" /><path d="M 495.5 34.8 L 495.5 33.0 L 523.2 33.0" id="19,10" /><path d="M 495.5 34.8 L 495.5 36.7 L 518.1 36.7" id="19,9" /><path d="M 470.9 42.4 L 470.9 40.5 L 530.3 40.5" id="18,8" /><path d="M 470.9 42.4 L 470.9 44.3 L 525.1 44.3" id="18,7" /><path d="M 465.6 52.1 L 465.6 48.1 L 502.1 48.1" id="17,6" /><path d="M 489.7 56.2 L 489.7 51.9 L 506.3 51.9" id="16,5" /><path d="M 504.4 60.4 L 504.4 55.7 L 509.3 55.7" id="15,4" /><path d="M 514.0 61.4 L 514.0 59.5 L 515.0 59.5" id="13,3" /><path d="M 514.0 61.4 L 514.0 63.3 L 514.0 63.3" id="13,2" /><path d="M 515.7 68.9 L 515.7 67.0 L 516.5 67.0" id="12,1" /><path d="M 515.7 68.9 L 515.7 70.8 L 524.1 70.8" id="12,0" /></g><g class="toytree-Nodes" style="fill:rgb(100%,0%,0%);fill-opacity:1.0;stroke:None;stroke-width:1"><g id="node-0" transform="translate(524.093,70.833)"><circle r="2.5" /></g><g id="node-1" transform="translate(516.494,67.045)"><circle r="2.5" /></g><g id="node-2" transform="translate(513.959,63.258)"><circle r="2.5" /></g><g id="node-3" transform="translate(514.993,59.470)"><circle r="2.5" /></g><g id="node-4" transform="translate(509.282,55.682)"><circle r="2.5" /></g><g id="node-5" transform="translate(506.277,51.894)"><circle r="2.5" /></g><g id="node-6" transform="translate(502.149,48.106)"><circle r="2.5" /></g><g id="node-7" transform="translate(525.087,44.318)"><circle r="2.5" /></g><g id="node-8" transform="translate(530.263,40.530)"><circle r="2.5" /></g><g id="node-9" transform="translate(518.120,36.742)"><circle r="2.5" /></g><g id="node-10" transform="translate(523.175,32.955)"><circle r="2.5" /></g><g id="node-11" transform="translate(505.457,29.167)"><circle r="2.5" /></g><g id="node-12" transform="translate(515.750,68.939)"><circle r="0.0" /></g><g id="node-13" transform="translate(513.959,61.364)"><circle r="0.0" /></g><g id="node-14" transform="translate(509.181,65.152)"><circle r="0.0" /></g><g id="node-15" transform="translate(504.360,60.417)"><circle r="0.0" /></g><g id="node-16" transform="translate(489.725,56.155)"><circle r="0.0" /></g><g id="node-17" transform="translate(465.567,52.131)"><circle r="0.0" /></g><g id="node-18" transform="translate(470.910,42.424)"><circle r="0.0" /></g><g id="node-19" transform="translate(495.498,34.848)"><circle r="0.0" /></g><g id="node-20" transform="translate(457.445,47.277)"><circle r="0.0" /></g><g id="node-21" transform="translate(486.042,32.008)"><circle r="0.0" /></g><g id="node-22" transform="translate(445.000,39.643)"><circle r="0.0" /></g></g></g></g></g></svg>