<svg class="toyplot-canvas-Canvas" xmlns:toyplot="http://www.sandia.gov/toyplot" xmlns:xlink="http://www.w3.org/1999/xlink" xmlns="http://www.w3.org/2000/svg" width="560.0px" height="100.0px" viewBox="0 0 560.0 100.0" preserveAspectRatio="xMidYMid meet" style="background-color:transparent;border-color:#292724;border-style:none;border-width:1.0;fill:rgb(16.1%,15.3%,14.1%);fill-opacity:1.0;font-family:Helvetica;font-size:12px;opacity:1.0;stroke:rgb(16.1%,15.3%,14.1%);stroke-opacity:1.0;stroke-width:1.0" id="tf7e11a381ff945d180cf252c0cb6a3fa"><g class="toyplot-coordinates-Cartesian" id="t7732f77ab1d74db4924ddaa13d92df82"><clipPath id="t2efaa616b3c74b168d0107bc45e35b31"><rect x="15.0" y="15.0" width="110.0" height="70.0" /></clipPath><g clip-path="url(#t2efaa616b3c74b168d0107bc45e35b31)"><g class="toytree-mark-Toytree" id="tfc479b50f0de4b2bb7b0bc46e55329b9"><g class="toytree-Edges" style="fill:none;stroke:rgb(14.9%,14.9%,14.9%);stroke-linecap:round;stroke-opacity:1;stroke-width:0.5"><path d="M 25.0 46.1 L 25.0 34.4 L 37.8 34.4" id="8,7" /><path d="M 25.0 46.1 L 25.0 57.8 L 45.3 57.8" id="8,6" /><path d="M 45.3 57.8 L 45.3 65.6 L 50.2 65.6" id="6,5" /><path d="M 37.8 34.4 L 37.8 29.2 L 108.8 29.2" id="7,4" /><path d="M 37.8 34.4 L 37.8 39.6 L 104.4 39.6" id="7,3" /><path d="M 45.3 57.8 L 45.3 50.0 L 102.4 50.0" id="6,2" /><path d="M 50.2 65.6 L 50.2 60.4 L 110.3 60.4" id="5,1" /><path d="M 50.2 65.6 L 50.2 70.8 L 107.3 70.8" id="5,0" /></g><g class="toytree-Nodes" style="fill:rgb(100%,0%,0%);fill-opacity:1.0;stroke:None;stroke-width:1"><g id="node-0" transform="translate(107.331,70.833)"><circle r="2.5" /></g><g id="node-1" transform="translate(110.263,60.417)"><circle r="2.5" /></g><g id="node-2" transform="translate(102.375,50.000)"><circle r="2.5" /></g><g id="node-3" transform="translate(104.412,39.583)"><circle r="2.5" /></g><g id="node-4" transform="translate(108.755,29.167)"><circle r="2.5" /></g><g id="node-5" transform="translate(50.187,65.625)"><circle r="0.0" /></g><g id="node-6" transform="translate(45.259,57.812)"><circle r="0.0" /></g><g id="node-7" transform="translate(37.790,34.375)"><circle r="0.0" /></g><g id="node-8" transform="translate(25.000,46.094)"><circle r="0.0" /></g></g></g></g></g><g class="toyplot-coordinates-Cartesian" id="te6de1a27a36d4fb09dfee0228f2457bb"><clipPath id="t4ee47b2edc5941a5a282473b08a95ac7"><rect x="155.0" y="15.0" width="110.0" height="70.0" /></clipPath><g clip-path="url(#t4ee47b2edc5941a5a282473b08a95ac7)"><g class="toytree-mark-Toytree" id="t72a9b54df50d4ce2a75e22c2a467a19b"><g class="toytree-Edges" style="fill:none;stroke:rgb(14.9%,14.9%,14.9%);stroke-linecap:round;stroke-opacity:1;stroke-width:0.5"><path d="M 165.0 46.1 L 165.0 34.4 L 191.8 34.4" id="8,7" /><path d="M 165.0 46.1 L 165.0 57.8 L 187.3 57.8" id="8,6" /><path d="M 187.3 57.8 L 187.3 65.6 L 204.9 65.6" id="6,5" /><path d="M 191.8 34.4 L 191.8 29.2 L 250.3 29.2" id="7,4" /><path d="M 191.8 34.4 L 191.8 39.6 L 241.3 39.6" id="7,3" /><path d="M 187.3 57.8 L 187.3 50.0 L 244.9 50.0" id="6,2" /><path d="M 204.9 65.6 L 204.9 60.4 L 246.3 60.4" id="5,1" /><path d="M 204.9 65.6 L 204.9 70.8 L 245.5 70.8" id="5,0" /></g><g class="toytree-Nodes" style="fill:rgb(100%,0%,0%);fill-opacity:1.0;stroke:None;stroke-width:1"><g id="node-0" transform="translate(245.497,70.833)"><circle r="2.5" /></g><g id="node-1" transform="translate(246.305,60.417)"><circle r="2.5" /></g><g id="node-2" transform="translate(244.855,50.000)"><circle r="2.5" /></g><g id="node-3" transform="translate(241.328,39.583)"><circle r="2.5" /></g><g id="node-4" transform="translate(250.263,29.167)"><circle r="2.5" /></g><g id="node-5" transform="translate(204.930,65.625)"><circle r="0.0" /></g><g id="node-6" transform="translate(187.320,57.812)"><circle r="0.0" /></g><g id="node-7" transform="translate(191.802,34.375)"><circle r="0.0" /></g><g id="node-8" transform="translate(165.000,46.094)"><circle r="0.0" /></g></g></g></g></g><g class="toyplot-coordinates-Cartesian" id="tdb53b5a2172c4a66ad87633b778ab2d4"><clipPath id="tb1e7a84e2f1b43e5bd134919dfc3ad51"><rect x="295.0" y="15.0" width="110.0" height="70.0" /></clipPath><g clip-path="url(#tb1e7a84e2f1b43e5bd134919dfc3ad51)"><g class="toytree-mark-Toytree" id="t2301aea82f824a95aa22c9c59ab3e085"><g class="toytree-Edges" style="fill:none;stroke:rgb(14.9%,14.9%,14.9%);stroke-linecap:round;stroke-opacity:1;stroke-width:0.5"><path d="M 305.0 46.1 L 305.0 34.4 L 319.8 34.4" id="8,7" /><path d="M 305.0 46.1 L 305.0 57.8 L 313.6 57.8" id="8,6" /><path d="M 313.6 57.8 L 313.6 65.6 L 336.8 65.6" id="6,5" /><path d="M 319.8 34.4 L 319.8 29.2 L 378.8 29.2" id="7,4" /><path d="M 319.8 34.4 L 319.8 39.6 L 370.7 39.6" id="7,3" /><path d="M 313.6 57.8 L 313.6 50.0 L 364.5 50.0" id="6,2" /><path d="M 336.8 65.6 L 336.8 60.4 L 390.3 60.4" id="5,1" /><path d="M 336.8 65.6 L 336.8 70.8 L 373.5 70.8" id="5,0" /></g><g class="toytree-Nodes" style="fill:rgb(100%,0%,0%);fill-opacity:1.0;stroke:None;stroke-width:1"><g id="node-0" transform="translate(373.508,70.833)"><circle r="2.5" /></g><g id="node-1" transform="translate(390.263,60.417)"><circle r="2.5" /></g><g id="node-2" transform="translate(364.506,50.000)"><circle r="2.5" /></g><g id="node-3" transform="translate(370.713,39.583)"><circle r="2.5" /></g><g id="node-4" transform="translate(378.834,29.167)"><circle r="2.5" /></g><g id="node-5" transform="translate(336.777,65.625)"><circle r="0.0" /></g><g id="node-6" transform="translate(313.648,57.812)"><circle r="0.0" /></g><g id="node-7" transform="translate(319.842,34.375)"><circle r="0.0" /></g><g id="node-8" transform="translate(305.000,46.094)"><circle r="0.0" /></g></g></g></g></g><g class="toyplot-coordinates-Cartesian" id="t9ae2b6de858248eb82cf0752386bff24"><clipPath id="t5645189957604cf9aa5ac49982688493"><rect x="435.0" y="15.0" width="110.0" height="70.0" /></clipPath><g clip-path="url(#t5645189957604cf9aa5ac49982688493)"><g class="toytree-mark-Toytree" id="t2b6efeecc1dc43c7992b0270f29c4b15"><g class="toytree-Edges" style="fill:none;stroke:rgb(14.9%,14.9%,14.9%);stroke-linecap:round;stroke-opacity:1;stroke-width:0.5"><path d="M 445.0 46.1 L 445.0 34.4 L 471.1 34.4" id="8,7" /><path d="M 445.0 46.1 L 445.0 57.8 L 474.7 57.8" id="8,6" /><path d="M 474.7 57.8 L 474.7 65.6 L 494.2 65.6" id="6,5" /><path d="M 471.1 34.4 L 471.1 29.2 L 508.5 29.2" id="7,4" /><path d="M 471.1 34.4 L 471.1 39.6 L 515.1 39.6" id="7,3" /><path d="M 474.7 57.8 L 474.7 50.0 L 493.4 50.0" id="6,2" /><path d="M 494.2 65.6 L 494.2 60.4 L 523.6 60.4" id="5,1" /><path d="M 494.2 65.6 L 494.2 70.8 L 530.3 70.8" id="5,0" /></g><g class="toytree-Nodes" style="fill:rgb(100%,0%,0%);fill-opacity:1.0;stroke:None;stroke-width:1"><g id="node-0" transform="translate(530.263,70.833)"><circle r="2.5" /></g><g id="node-1" transform="translate(523.643,60.417)"><circle r="2.5" /></g><g id="node-2" transform="translate(493.448,50.000)"><circle r="2.5" /></g><g id="node-3" transform="translate(515.144,39.583)"><circle r="2.5" /></g><g id="node-4" transform="translate(508.495,29.167)"><circle r="2.5" /></g><g id="node-5" transform="translate(494.175,65.625)"><circle r="0.0" /></g><g id="node-6" transform="translate(474.735,57.812)"><circle r="0.0" /></g><g id="node-7" transform="translate(471.076,34.375)"><circle r="0.0" /></g><g id="node-8" transform="translate(445.000,46.094)"><circle r="0.0" /></g></g></g></g></g></svg>