<svg class="toyplot-canvas-Canvas" xmlns:toyplot="http://www.sandia.gov/toyplot" xmlns:xlink="http://www.w3.org/1999/xlink" xmlns="http://www.w3.org/2000/svg" width="560.0px" height="100.0px" viewBox="0 0 560.0 100.0" preserveAspectRatio="xMidYMid meet" style="background-color:transparent;border-color:#292724;border-style:none;border-width:1.0;fill:rgb(16.1%,15.3%,14.1%);fill-opacity:1.0;font-family:Helvetica;font-size:12px;opacity:1.0;stroke:rgb(16.1%,15.3%,14.1%);stroke-opacity:1.0;stroke-width:1.0" id="tef14b84b94f14764956788b6b448ff83"><g class="toyplot-coordinates-Cartesian" id="t1ba5888aacb84fe89ae48253d4a46fb5"><clipPath id="t5c40677c1f9b4ab8b6a6bcb96534a578"><rect x="15.0" y="15.0" width="110.0" height="70.0" /></clipPath><g clip-path="url(#t5c40677c1f9b4ab8b6a6bcb96534a578)"><g class="toytree-mark-Toytree" id="t7d15de6f7f2b47aaa68c4059b21e5f47"><g class="toytree-Edges" style="fill:none;stroke:rgb(14.9%,14.9%,14.9%);stroke-linecap:round;stroke-opacity:1;stroke-width:0.5"><path d="M 25.0 46.1 L 25.0 34.4 L 96.9 34.4" id="8,7" /><path d="M 25.0 46.1 L 25.0 57.8 L 33.4 57.8" id="8,6" /><path d="M 33.4 57.8 L 33.4 65.6 L 45.0 65.6" id="6,5" /><path d="M 96.9 34.4 L 96.9 29.2 L 101.4 29.2" id="7,4" /><path d="M 96.9 34.4 L 96.9 39.6 L 100.3 39.6" id="7,3" /><path d="M 33.4 57.8 L 33.4 50.0 L 110.3 50.0" id="6,2" /><path d="M 45.0 65.6 L 45.0 60.4 L 103.8 60.4" id="5,1" /><path d="M 45.0 65.6 L 45.0 70.8 L 91.1 70.8" id="5,0" /></g><g class="toytree-Nodes" style="fill:rgb(100%,0%,0%);fill-opacity:1.0;stroke:None;stroke-width:1"><g id="node-0" transform="translate(91.075,70.833)"><circle r="2.5" /></g><g id="node-1" transform="translate(103.826,60.417)"><circle r="2.5" /></g><g id="node-2" transform="translate(110.263,50.000)"><circle r="2.5" /></g><g id="node-3" transform="translate(100.331,39.583)"><circle r="2.5" /></g><g id="node-4" transform="translate(101.405,29.167)"><circle r="2.5" /></g><g id="node-5" transform="translate(45.031,65.625)"><circle r="0.0" /></g><g id="node-6" transform="translate(33.362,57.812)"><circle r="0.0" /></g><g id="node-7" transform="translate(96.866,34.375)"><circle r="0.0" /></g><g id="node-8" transform="translate(25.000,46.094)"><circle r="0.0" /></g></g></g></g></g><g class="toyplot-coordinates-Cartesian" id="t8efb7c03946a42efbbce2994b2e1082e"><clipPath id="t369b1c8590ac439b86711b55aa9a5f19"><rect x="155.0" y="15.0" width="110.0" height="70.0" /></clipPath><g clip-path="url(#t369b1c8590ac439b86711b55aa9a5f19)"><g class="toytree-mark-Toytree" id="t4e1780b07f8d4919a182cbae158a1797"><g class="toytree-Edges" style="fill:none;stroke:rgb(14.9%,14.9%,14.9%);stroke-linecap:round;stroke-opacity:1;stroke-width:0.5"><path d="M 165.0 46.1 L 165.0 34.4 L 172.0 34.4" id="8,7" /><path d="M 165.0 46.1 L 165.0 57.8 L 192.1 57.8" id="8,6" /><path d="M 192.1 57.8 L 192.1 65.6 L 224.4 65.6" id="6,5" /><path d="M 172.0 34.4 L 172.0 29.2 L 214.9 29.2" id="7,4" /><path d="M 172.0 34.4 L 172.0 39.6 L 213.4 39.6" id="7,3" /><path d="M 192.1 57.8 L 192.1 50.0 L 192.1 50.0" id="6,2" /><path d="M 224.4 65.6 L 224.4 60.4 L 250.3 60.4" id="5,1" /><path d="M 224.4 65.6 L 224.4 70.8 L 243.8 70.8" id="5,0" /></g><g class="toytree-Nodes" style="fill:rgb(100%,0%,0%);fill-opacity:1.0;stroke:None;stroke-width:1"><g id="node-0" transform="translate(243.762,70.833)"><circle r="2.5" /></g><g id="node-1" transform="translate(250.263,60.417)"><circle r="2.5" /></g><g id="node-2" transform="translate(192.055,50.000)"><circle r="2.5" /></g><g id="node-3" transform="translate(213.425,39.583)"><circle r="2.5" /></g><g id="node-4" transform="translate(214.929,29.167)"><circle r="2.5" /></g><g id="node-5" transform="translate(224.398,65.625)"><circle r="0.0" /></g><g id="node-6" transform="translate(192.055,57.812)"><circle r="0.0" /></g><g id="node-7" transform="translate(172.012,34.375)"><circle r="0.0" /></g><g id="node-8" transform="translate(165.000,46.094)"><circle r="0.0" /></g></g></g></g></g><g class="toyplot-coordinates-Cartesian" id="t84b8f34e0c0f49f69f129f19fd736d3b"><clipPath id="t64d2335f68e84f87bee54e683408c5f1"><rect x="295.0" y="15.0" width="110.0" height="70.0" /></clipPath><g clip-path="url(#t64d2335f68e84f87bee54e683408c5f1)"><g class="toytree-mark-Toytree" id="te1b9e86bf16346c7b2d311732e1c3ea3"><g class="toytree-Edges" style="fill:none;stroke:rgb(14.9%,14.9%,14.9%);stroke-linecap:round;stroke-opacity:1;stroke-width:0.5"><path d="M 305.0 46.1 L 305.0 34.4 L 367.5 34.4" id="8,7" /><path d="M 305.0 46.1 L 305.0 57.8 L 325.1 57.8" id="8,6" /><path d="M 325.1 57.8 L 325.1 65.6 L 328.6 65.6" id="6,5" /><path d="M 367.5 34.4 L 367.5 29.2 L 384.2 29.2" id="7,4" /><path d="M 367.5 34.4 L 367.5 39.6 L 380.8 39.6" id="7,3" /><path d="M 325.1 57.8 L 325.1 50.0 L 377.9 50.0" id="6,2" /><path d="M 328.6 65.6 L 328.6 60.4 L 380.3 60.4" id="5,1" /><path d="M 328.6 65.6 L 328.6 70.8 L 390.3 70.8" id="5,0" /></g><g class="toytree-Nodes" style="fill:rgb(100%,0%,0%);fill-opacity:1.0;stroke:None;stroke-width:1"><g id="node-0" transform="translate(390.263,70.833)"><circle r="2.5" /></g><g id="node-1" transform="translate(380.293,60.417)"><circle r="2.5" /></g><g id="node-2" transform="translate(377.880,50.000)"><circle r="2.5" /></g><g id="node-3" transform="translate(380.761,39.583)"><circle r="2.5" /></g><g id="node-4" transform="translate(384.222,29.167)"><circle r="2.5" /></g><g id="node-5" transform="translate(328.640,65.625)"><circle r="0.0" /></g><g id="node-6" transform="translate(325.133,57.812)"><circle r="0.0" /></g><g id="node-7" transform="translate(367.517,34.375)"><circle r="0.0" /></g><g id="node-8" transform="translate(305.000,46.094)"><circle r="0.0" /></g></g></g></g></g><g class="toyplot-coordinates-Cartesian" id="t3fd5d17c6ba0415f8b9248960a3e48cd"><clipPath id="t9ca9cda97289438f8735c318e3908e56"><rect x="435.0" y="15.0" width="110.0" height="70.0" /></clipPath><g clip-path="url(#t9ca9cda97289438f8735c318e3908e56)"><g class="toytree-mark-Toytree" id="t0517bcdb59524485b58eb47005dd87df"><g class="toytree-Edges" style="fill:none;stroke:rgb(14.9%,14.9%,14.9%);stroke-linecap:round;stroke-opacity:1;stroke-width:0.5"><path d="M 445.0 46.1 L 445.0 34.4 L 516.1 34.4" id="8,7" /><path d="M 445.0 46.1 L 445.0 57.8 L 456.4 57.8" id="8,6" /><path d="M 456.4 57.8 L 456.4 65.6 L 475.0 65.6" id="6,5" /><path d="M 516.1 34.4 L 516.1 29.2 L 519.4 29.2" id="7,4" /><path d="M 516.1 34.4 L 516.1 39.6 L 516.7 39.6" id="7,3" /><path d="M 456.4 57.8 L 456.4 50.0 L 527.5 50.0" id="6,2" /><path d="M 475.0 65.6 L 475.0 60.4 L 530.3 60.4" id="5,1" /><path d="M 475.0 65.6 L 475.0 70.8 L 502.9 70.8" id="5,0" /></g><g class="toytree-Nodes" style="fill:rgb(100%,0%,0%);fill-opacity:1.0;stroke:None;stroke-width:1"><g id="node-0" transform="translate(502.874,70.833)"><circle r="2.5" /></g><g id="node-1" transform="translate(530.263,60.417)"><circle r="2.5" /></g><g id="node-2" transform="translate(527.542,50.000)"><circle r="2.5" /></g><g id="node-3" transform="translate(516.702,39.583)"><circle r="2.5" /></g><g id="node-4" transform="translate(519.358,29.167)"><circle r="2.5" /></g><g id="node-5" transform="translate(475.017,65.625)"><circle r="0.0" /></g><g id="node-6" transform="translate(456.398,57.812)"><circle r="0.0" /></g><g id="node-7" transform="translate(516.083,34.375)"><circle r="0.0" /></g><g id="node-8" transform="translate(445.000,46.094)"><circle r="0.0" /></g></g></g></g></g></svg>