<svg class="toyplot-canvas-Canvas" xmlns:toyplot="http://www.sandia.gov/toyplot" xmlns:xlink="http://www.w3.org/1999/xlink" xmlns="http://www.w3.org/2000/svg" width="560.0px" height="100.0px" viewBox="0 0 560.0 100.0" preserveAspectRatio="xMidYMid meet" style="background-color:transparent;border-color:#292724;border-style:none;border-width:1.0;fill:rgb(16.1%,15.3%,14.1%);fill-opacity:1.0;font-family:Helvetica;font-size:12px;opacity:1.0;stroke:rgb(16.1%,15.3%,14.1%);stroke-opacity:1.0;stroke-width:1.0" id="t1ceac8ca893f4e7998e6f99403c9c919"><g class="toyplot-coordinates-Cartesian" id="t6e68d0c9bf004cce885d409fd6ee4cbc"><clipPath id="t2fcec07db942425486620640448aeb3a"><rect x="15.0" y="15.0" width="110.0" height="70.0" /></clipPath><g clip-path="url(#t2fcec07db942425486620640448aeb3a)"><g class="toytree-mark-Toytree" id="tab7f6699f4da4acba2fff2a604c817e7"><g class="toytree-Edges" style="fill:none;stroke:rgb(14.9%,14.9%,14.9%);stroke-linecap:round;stroke-opacity:1;stroke-width:0.5"><path d="M 25.0 37.6 L 25.0 46.0 L 37.8 46.0" id="28,27" /><path d="M 37.8 46.0 L 37.8 35.0 L 42.3 35.0" id="27,26" /><path d="M 37.8 46.0 L 37.8 57.0 L 41.7 57.0" id="27,25" /><path d="M 42.3 35.0 L 42.3 37.9 L 74.5 37.9" id="26,24" /><path d="M 41.7 57.0 L 41.7 52.2 L 44.6 52.2" id="25,23" /><path d="M 41.7 57.0 L 41.7 61.7 L 64.4 61.7" id="25,22" /><path d="M 74.5 37.9 L 74.5 40.7 L 87.7 40.7" id="24,21" /><path d="M 44.6 52.2 L 44.6 54.5 L 49.5 54.5" id="23,20" /><path d="M 64.4 61.7 L 64.4 64.5 L 67.0 64.5" id="22,19" /><path d="M 87.7 40.7 L 87.7 43.3 L 91.4 43.3" id="21,18" /><path d="M 67.0 64.5 L 67.0 67.1 L 71.8 67.1" id="19,17" /><path d="M 91.4 43.3 L 91.4 45.5 L 93.8 45.5" id="18,16" /><path d="M 71.8 67.1 L 71.8 69.3 L 80.6 69.3" id="17,15" /><path d="M 25.0 37.6 L 25.0 29.2 L 93.9 29.2" id="28,14" /><path d="M 42.3 35.0 L 42.3 32.1 L 99.7 32.1" id="26,13" /><path d="M 74.5 37.9 L 74.5 35.1 L 90.5 35.1" id="24,12" /><path d="M 87.7 40.7 L 87.7 38.1 L 102.7 38.1" id="21,11" /><path d="M 91.4 43.3 L 91.4 41.1 L 93.3 41.1" id="18,10" /><path d="M 93.8 45.5 L 93.8 44.0 L 95.5 44.0" id="16,9" /><path d="M 93.8 45.5 L 93.8 47.0 L 94.4 47.0" id="16,8" /><path d="M 44.6 52.2 L 44.6 50.0 L 92.5 50.0" id="23,7" /><path d="M 49.5 54.5 L 49.5 53.0 L 106.3 53.0" id="20,6" /><path d="M 49.5 54.5 L 49.5 56.0 L 110.3 56.0" id="20,5" /><path d="M 64.4 61.7 L 64.4 58.9 L 85.9 58.9" id="22,4" /><path d="M 67.0 64.5 L 67.0 61.9 L 82.8 61.9" id="19,3" /><path d="M 71.8 67.1 L 71.8 64.9 L 88.1 64.9" id="17,2" /><path d="M 80.6 69.3 L 80.6 67.9 L 91.9 67.9" id="15,1" /><path d="M 80.6 69.3 L 80.6 70.8 L 91.7 70.8" id="15,0" /></g><g class="toytree-Nodes" style="fill:rgb(100%,0%,0%);fill-opacity:1.0;stroke:None;stroke-width:1"><g id="node-0" transform="translate(91.650,70.833)"><circle r="2.5" /></g><g id="node-1" transform="translate(91.905,67.857)"><circle r="2.5" /></g><g id="node-2" transform="translate(88.054,64.881)"><circle r="2.5" /></g><g id="node-3" transform="translate(82.771,61.905)"><circle r="2.5" /></g><g id="node-4" transform="translate(85.897,58.929)"><circle r="2.5" /></g><g id="node-5" transform="translate(110.263,55.952)"><circle r="2.5" /></g><g id="node-6" transform="translate(106.325,52.976)"><circle r="2.5" /></g><g id="node-7" transform="translate(92.519,50.000)"><circle r="2.5" /></g><g id="node-8" transform="translate(94.377,47.024)"><circle r="2.5" /></g><g id="node-9" transform="translate(95.518,44.048)"><circle r="2.5" /></g><g id="node-10" transform="translate(93.323,41.071)"><circle r="2.5" /></g><g id="node-11" transform="translate(102.657,38.095)"><circle r="2.5" /></g><g id="node-12" transform="translate(90.456,35.119)"><circle r="2.5" /></g><g id="node-13" transform="translate(99.652,32.143)"><circle r="2.5" /></g><g id="node-14" transform="translate(93.905,29.167)"><circle r="2.5" /></g><g id="node-15" transform="translate(80.582,69.345)"><circle r="0.0" /></g><g id="node-16" transform="translate(93.850,45.536)"><circle r="0.0" /></g><g id="node-17" transform="translate(71.806,67.113)"><circle r="0.0" /></g><g id="node-18" transform="translate(91.391,43.304)"><circle r="0.0" /></g><g id="node-19" transform="translate(66.998,64.509)"><circle r="0.0" /></g><g id="node-20" transform="translate(49.463,54.464)"><circle r="0.0" /></g><g id="node-21" transform="translate(87.694,40.699)"><circle r="0.0" /></g><g id="node-22" transform="translate(64.395,61.719)"><circle r="0.0" /></g><g id="node-23" transform="translate(44.594,52.232)"><circle r="0.0" /></g><g id="node-24" transform="translate(74.532,37.909)"><circle r="0.0" /></g><g id="node-25" transform="translate(41.661,56.975)"><circle r="0.0" /></g><g id="node-26" transform="translate(42.270,35.026)"><circle r="0.0" /></g><g id="node-27" transform="translate(37.844,46.001)"><circle r="0.0" /></g><g id="node-28" transform="translate(25.000,37.584)"><circle r="0.0" /></g></g></g></g></g><g class="toyplot-coordinates-Cartesian" id="t704c002abc6343caa9d9c343cc2dedf5"><clipPath id="tabad77163c5b410a9b69e1fee5fb6e06"><rect x="155.0" y="15.0" width="110.0" height="70.0" /></clipPath><g clip-path="url(#tabad77163c5b410a9b69e1fee5fb6e06)"><g class="toytree-mark-Toytree" id="tf2d8973d98e54a719ee06438a6206551"><g class="toytree-Edges" style="fill:none;stroke:rgb(14.9%,14.9%,14.9%);stroke-linecap:round;stroke-opacity:1;stroke-width:0.5"><path d="M 165.0 41.2 L 165.0 31.4 L 173.9 31.4" id="28,27" /><path d="M 165.0 41.2 L 165.0 51.0 L 167.2 51.0" id="28,26" /><path d="M 173.9 31.4 L 173.9 33.6 L 177.6 33.6" id="27,25" /><path d="M 167.2 51.0 L 167.2 41.0 L 173.4 41.0" id="26,24" /><path d="M 167.2 51.0 L 167.2 61.0 L 169.0 61.0" id="26,23" /><path d="M 173.4 41.0 L 173.4 43.9 L 177.2 43.9" id="24,22" /><path d="M 169.0 61.0 L 169.0 57.4 L 181.0 57.4" id="23,21" /><path d="M 169.0 61.0 L 169.0 64.5 L 178.3 64.5" id="23,20" /><path d="M 177.2 43.9 L 177.2 46.7 L 188.9 46.7" id="22,19" /><path d="M 178.3 64.5 L 178.3 67.1 L 180.4 67.1" id="20,18" /><path d="M 188.9 46.7 L 188.9 49.3 L 190.2 49.3" id="19,17" /><path d="M 180.4 67.1 L 180.4 69.3 L 182.8 69.3" id="18,16" /><path d="M 190.2 49.3 L 190.2 51.5 L 199.7 51.5" id="17,15" /><path d="M 173.9 31.4 L 173.9 29.2 L 175.2 29.2" id="27,14" /><path d="M 177.6 33.6 L 177.6 32.1 L 250.3 32.1" id="25,13" /><path d="M 177.6 33.6 L 177.6 35.1 L 210.9 35.1" id="25,12" /><path d="M 173.4 41.0 L 173.4 38.1 L 176.0 38.1" id="24,11" /><path d="M 177.2 43.9 L 177.2 41.1 L 181.6 41.1" id="22,10" /><path d="M 188.9 46.7 L 188.9 44.0 L 188.9 44.0" id="19,9" /><path d="M 190.2 49.3 L 190.2 47.0 L 190.2 47.0" id="17,8" /><path d="M 199.7 51.5 L 199.7 50.0 L 199.7 50.0" id="15,7" /><path d="M 199.7 51.5 L 199.7 53.0 L 213.7 53.0" id="15,6" /><path d="M 181.0 57.4 L 181.0 56.0 L 183.6 56.0" id="21,5" /><path d="M 181.0 57.4 L 181.0 58.9 L 187.6 58.9" id="21,4" /><path d="M 178.3 64.5 L 178.3 61.9 L 201.4 61.9" id="20,3" /><path d="M 180.4 67.1 L 180.4 64.9 L 184.9 64.9" id="18,2" /><path d="M 182.8 69.3 L 182.8 67.9 L 185.0 67.9" id="16,1" /><path d="M 182.8 69.3 L 182.8 70.8 L 182.8 70.8" id="16,0" /></g><g class="toytree-Nodes" style="fill:rgb(100%,0%,0%);fill-opacity:1.0;stroke:None;stroke-width:1"><g id="node-0" transform="translate(182.849,70.833)"><circle r="2.5" /></g><g id="node-1" transform="translate(184.957,67.857)"><circle r="2.5" /></g><g id="node-2" transform="translate(184.870,64.881)"><circle r="2.5" /></g><g id="node-3" transform="translate(201.398,61.905)"><circle r="2.5" /></g><g id="node-4" transform="translate(187.642,58.929)"><circle r="2.5" /></g><g id="node-5" transform="translate(183.561,55.952)"><circle r="2.5" /></g><g id="node-6" transform="translate(213.679,52.976)"><circle r="2.5" /></g><g id="node-7" transform="translate(199.718,50.000)"><circle r="2.5" /></g><g id="node-8" transform="translate(190.151,47.024)"><circle r="2.5" /></g><g id="node-9" transform="translate(188.862,44.048)"><circle r="2.5" /></g><g id="node-10" transform="translate(181.580,41.071)"><circle r="2.5" /></g><g id="node-11" transform="translate(175.995,38.095)"><circle r="2.5" /></g><g id="node-12" transform="translate(210.901,35.119)"><circle r="2.5" /></g><g id="node-13" transform="translate(250.263,32.143)"><circle r="2.5" /></g><g id="node-14" transform="translate(175.150,29.167)"><circle r="2.5" /></g><g id="node-15" transform="translate(199.718,51.488)"><circle r="0.0" /></g><g id="node-16" transform="translate(182.829,69.345)"><circle r="0.0" /></g><g id="node-17" transform="translate(190.151,49.256)"><circle r="0.0" /></g><g id="node-18" transform="translate(180.359,67.113)"><circle r="0.0" /></g><g id="node-19" transform="translate(188.862,46.652)"><circle r="0.0" /></g><g id="node-20" transform="translate(178.348,64.509)"><circle r="0.0" /></g><g id="node-21" transform="translate(180.965,57.440)"><circle r="0.0" /></g><g id="node-22" transform="translate(177.177,43.862)"><circle r="0.0" /></g><g id="node-23" transform="translate(168.986,60.975)"><circle r="0.0" /></g><g id="node-24" transform="translate(173.360,40.978)"><circle r="0.0" /></g><g id="node-25" transform="translate(177.571,33.631)"><circle r="0.0" /></g><g id="node-26" transform="translate(167.209,50.977)"><circle r="0.0" /></g><g id="node-27" transform="translate(173.920,31.399)"><circle r="0.0" /></g><g id="node-28" transform="translate(165.000,41.188)"><circle r="0.0" /></g></g></g></g></g><g class="toyplot-coordinates-Cartesian" id="t0d1ca27372104511a4ae72c28dcccad1"><clipPath id="t111830d84997409f945be5fde9042b57"><rect x="295.0" y="15.0" width="110.0" height="70.0" /></clipPath><g clip-path="url(#t111830d84997409f945be5fde9042b57)"><g class="toytree-mark-Toytree" id="t02c3630001de4eb8bb01cf49f5ea5d88"><g class="toytree-Edges" style="fill:none;stroke:rgb(14.9%,14.9%,14.9%);stroke-linecap:round;stroke-opacity:1;stroke-width:0.5"><path d="M 305.0 42.8 L 305.0 32.3 L 309.4 32.3" id="28,27" /><path d="M 305.0 42.8 L 305.0 53.2 L 315.4 53.2" id="28,26" /><path d="M 309.4 32.3 L 309.4 35.5 L 318.5 35.5" id="27,25" /><path d="M 315.4 53.2 L 315.4 56.4 L 319.0 56.4" id="26,24" /><path d="M 318.5 35.5 L 318.5 38.8 L 323.1 38.8" id="25,23" /><path d="M 319.0 56.4 L 319.0 59.9 L 323.6 59.9" id="24,22" /><path d="M 323.1 38.8 L 323.1 42.6 L 328.3 42.6" id="23,21" /><path d="M 323.6 59.9 L 323.6 63.8 L 330.9 63.8" id="22,20" /><path d="M 328.3 42.6 L 328.3 39.6 L 338.9 39.6" id="21,19" /><path d="M 328.3 42.6 L 328.3 45.5 L 335.0 45.5" id="21,18" /><path d="M 330.9 63.8 L 330.9 60.4 L 336.1 60.4" id="20,17" /><path d="M 330.9 63.8 L 330.9 67.1 L 334.7 67.1" id="20,16" /><path d="M 334.7 67.1 L 334.7 69.3 L 336.8 69.3" id="16,15" /><path d="M 309.4 32.3 L 309.4 29.2 L 328.7 29.2" id="27,14" /><path d="M 318.5 35.5 L 318.5 32.1 L 329.2 32.1" id="25,13" /><path d="M 323.1 38.8 L 323.1 35.1 L 386.3 35.1" id="23,12" /><path d="M 338.9 39.6 L 338.9 38.1 L 356.4 38.1" id="19,11" /><path d="M 338.9 39.6 L 338.9 41.1 L 358.5 41.1" id="19,10" /><path d="M 335.0 45.5 L 335.0 44.0 L 336.0 44.0" id="18,9" /><path d="M 335.0 45.5 L 335.0 47.0 L 336.5 47.0" id="18,8" /><path d="M 315.4 53.2 L 315.4 50.0 L 325.8 50.0" id="26,7" /><path d="M 319.0 56.4 L 319.0 53.0 L 390.3 53.0" id="24,6" /><path d="M 323.6 59.9 L 323.6 56.0 L 351.5 56.0" id="22,5" /><path d="M 336.1 60.4 L 336.1 58.9 L 348.1 58.9" id="17,4" /><path d="M 336.1 60.4 L 336.1 61.9 L 338.6 61.9" id="17,3" /><path d="M 334.7 67.1 L 334.7 64.9 L 337.5 64.9" id="16,2" /><path d="M 336.8 69.3 L 336.8 67.9 L 337.4 67.9" id="15,1" /><path d="M 336.8 69.3 L 336.8 70.8 L 337.0 70.8" id="15,0" /></g><g class="toytree-Nodes" style="fill:rgb(100%,0%,0%);fill-opacity:1.0;stroke:None;stroke-width:1"><g id="node-0" transform="translate(336.999,70.833)"><circle r="2.5" /></g><g id="node-1" transform="translate(337.423,67.857)"><circle r="2.5" /></g><g id="node-2" transform="translate(337.479,64.881)"><circle r="2.5" /></g><g id="node-3" transform="translate(338.583,61.905)"><circle r="2.5" /></g><g id="node-4" transform="translate(348.116,58.929)"><circle r="2.5" /></g><g id="node-5" transform="translate(351.460,55.952)"><circle r="2.5" /></g><g id="node-6" transform="translate(390.263,52.976)"><circle r="2.5" /></g><g id="node-7" transform="translate(325.825,50.000)"><circle r="2.5" /></g><g id="node-8" transform="translate(336.497,47.024)"><circle r="2.5" /></g><g id="node-9" transform="translate(336.011,44.048)"><circle r="2.5" /></g><g id="node-10" transform="translate(358.501,41.071)"><circle r="2.5" /></g><g id="node-11" transform="translate(356.404,38.095)"><circle r="2.5" /></g><g id="node-12" transform="translate(386.268,35.119)"><circle r="2.5" /></g><g id="node-13" transform="translate(329.167,32.143)"><circle r="2.5" /></g><g id="node-14" transform="translate(328.712,29.167)"><circle r="2.5" /></g><g id="node-15" transform="translate(336.774,69.345)"><circle r="0.0" /></g><g id="node-16" transform="translate(334.678,67.113)"><circle r="0.0" /></g><g id="node-17" transform="translate(336.113,60.417)"><circle r="0.0" /></g><g id="node-18" transform="translate(335.006,45.536)"><circle r="0.0" /></g><g id="node-19" transform="translate(338.924,39.583)"><circle r="0.0" /></g><g id="node-20" transform="translate(330.910,63.765)"><circle r="0.0" /></g><g id="node-21" transform="translate(328.319,42.560)"><circle r="0.0" /></g><g id="node-22" transform="translate(323.567,59.859)"><circle r="0.0" /></g><g id="node-23" transform="translate(323.103,38.839)"><circle r="0.0" /></g><g id="node-24" transform="translate(319.044,56.417)"><circle r="0.0" /></g><g id="node-25" transform="translate(318.549,35.491)"><circle r="0.0" /></g><g id="node-26" transform="translate(315.395,53.209)"><circle r="0.0" /></g><g id="node-27" transform="translate(309.353,32.329)"><circle r="0.0" /></g><g id="node-28" transform="translate(305.000,42.769)"><circle r="0.0" /></g></g></g></g></g><g class="toyplot-coordinates-Cartesian" id="tabd2ba828fed4dfeae5d2efaf4130ea4"><clipPath id="t9dbea9f6acd14cf991fa74eccf8be323"><rect x="435.0" y="15.0" width="110.0" height="70.0" /></clipPath><g clip-path="url(#t9dbea9f6acd14cf991fa74eccf8be323)"><g class="toytree-mark-Toytree" id="t68a427e9d2f940b0afeeb3f3a2a0db7d"><g class="toytree-Edges" style="fill:none;stroke:rgb(14.9%,14.9%,14.9%);stroke-linecap:round;stroke-opacity:1;stroke-width:0.5"><path d="M 445.0 43.8 L 445.0 34.7 L 456.2 34.7" id="28,27" /><path d="M 445.0 43.8 L 445.0 53.0 L 451.0 53.0" id="28,26" /><path d="M 456.2 34.7 L 456.2 30.7 L 476.0 30.7" id="27,25" /><path d="M 456.2 34.7 L 456.2 38.8 L 470.2 38.8" id="27,24" /><path d="M 451.0 53.0 L 451.0 55.9 L 452.2 55.9" id="26,23" /><path d="M 470.2 38.8 L 470.2 42.6 L 473.8 42.6" id="24,22" /><path d="M 452.2 55.9 L 452.2 58.8 L 459.9 58.8" id="23,21" /><path d="M 473.8 42.6 L 473.8 39.6 L 475.9 39.6" id="22,20" /><path d="M 473.8 42.6 L 473.8 45.5 L 478.6 45.5" id="22,19" /><path d="M 459.9 58.8 L 459.9 61.7 L 479.7 61.7" id="21,18" /><path d="M 479.7 61.7 L 479.7 64.5 L 488.1 64.5" id="18,17" /><path d="M 488.1 64.5 L 488.1 67.1 L 488.1 67.1" id="17,16" /><path d="M 488.1 67.1 L 488.1 69.3 L 489.5 69.3" id="16,15" /><path d="M 476.0 30.7 L 476.0 29.2 L 508.6 29.2" id="25,14" /><path d="M 476.0 30.7 L 476.0 32.1 L 529.7 32.1" id="25,13" /><path d="M 470.2 38.8 L 470.2 35.1 L 473.3 35.1" id="24,12" /><path d="M 475.9 39.6 L 475.9 38.1 L 486.8 38.1" id="20,11" /><path d="M 475.9 39.6 L 475.9 41.1 L 484.4 41.1" id="20,10" /><path d="M 478.6 45.5 L 478.6 44.0 L 486.5 44.0" id="19,9" /><path d="M 478.6 45.5 L 478.6 47.0 L 485.2 47.0" id="19,8" /><path d="M 451.0 53.0 L 451.0 50.0 L 475.3 50.0" id="26,7" /><path d="M 452.2 55.9 L 452.2 53.0 L 486.1 53.0" id="23,6" /><path d="M 459.9 58.8 L 459.9 56.0 L 530.3 56.0" id="21,5" /><path d="M 479.7 61.7 L 479.7 58.9 L 481.5 58.9" id="18,4" /><path d="M 488.1 64.5 L 488.1 61.9 L 488.1 61.9" id="17,3" /><path d="M 488.1 67.1 L 488.1 64.9 L 494.6 64.9" id="16,2" /><path d="M 489.5 69.3 L 489.5 67.9 L 490.2 67.9" id="15,1" /><path d="M 489.5 69.3 L 489.5 70.8 L 489.5 70.8" id="15,0" /></g><g class="toytree-Nodes" style="fill:rgb(100%,0%,0%);fill-opacity:1.0;stroke:None;stroke-width:1"><g id="node-0" transform="translate(489.466,70.833)"><circle r="2.5" /></g><g id="node-1" transform="translate(490.158,67.857)"><circle r="2.5" /></g><g id="node-2" transform="translate(494.637,64.881)"><circle r="2.5" /></g><g id="node-3" transform="translate(488.053,61.905)"><circle r="2.5" /></g><g id="node-4" transform="translate(481.528,58.929)"><circle r="2.5" /></g><g id="node-5" transform="translate(530.263,55.952)"><circle r="2.5" /></g><g id="node-6" transform="translate(486.098,52.976)"><circle r="2.5" /></g><g id="node-7" transform="translate(475.317,50.000)"><circle r="2.5" /></g><g id="node-8" transform="translate(485.180,47.024)"><circle r="2.5" /></g><g id="node-9" transform="translate(486.468,44.048)"><circle r="2.5" /></g><g id="node-10" transform="translate(484.446,41.071)"><circle r="2.5" /></g><g id="node-11" transform="translate(486.752,38.095)"><circle r="2.5" /></g><g id="node-12" transform="translate(473.250,35.119)"><circle r="2.5" /></g><g id="node-13" transform="translate(529.669,32.143)"><circle r="2.5" /></g><g id="node-14" transform="translate(508.599,29.167)"><circle r="2.5" /></g><g id="node-15" transform="translate(489.466,69.345)"><circle r="0.0" /></g><g id="node-16" transform="translate(488.053,67.113)"><circle r="0.0" /></g><g id="node-17" transform="translate(488.053,64.509)"><circle r="0.0" /></g><g id="node-18" transform="translate(479.713,61.719)"><circle r="0.0" /></g><g id="node-19" transform="translate(478.551,45.536)"><circle r="0.0" /></g><g id="node-20" transform="translate(475.917,39.583)"><circle r="0.0" /></g><g id="node-21" transform="translate(459.876,58.836)"><circle r="0.0" /></g><g id="node-22" transform="translate(473.803,42.560)"><circle r="0.0" /></g><g id="node-23" transform="translate(452.235,55.906)"><circle r="0.0" /></g><g id="node-24" transform="translate(470.243,38.839)"><circle r="0.0" /></g><g id="node-25" transform="translate(476.017,30.655)"><circle r="0.0" /></g><g id="node-26" transform="translate(451.016,52.953)"><circle r="0.0" /></g><g id="node-27" transform="translate(456.178,34.747)"><circle r="0.0" /></g><g id="node-28" transform="translate(445.000,43.850)"><circle r="0.0" /></g></g></g></g></g></svg>