<svg class="toyplot-canvas-Canvas" xmlns:toyplot="http://www.sandia.gov/toyplot" xmlns:xlink="http://www.w3.org/1999/xlink" xmlns="http://www.w3.org/2000/svg" width="560.0px" height="100.0px" viewBox="0 0 560.0 100.0" preserveAspectRatio="xMidYMid meet" style="background-color:transparent;border-color:#292724;border-style:none;border-width:1.0;fill:rgb(16.1%,15.3%,14.1%);fill-opacity:1.0;font-family:Helvetica;font-size:12px;opacity:1.0;stroke:rgb(16.1%,15.3%,14.1%);stroke-opacity:1.0;stroke-width:1.0" id="tcc46b7aae8da4e7ab960b15797c7291d"><g class="toyplot-coordinates-Cartesian" id="t985fff601a2b4cf9b4f4b8943a117902"><clipPath id="t74462fb6fe9d489880be5730b9090e0f"><rect x="15.0" y="15.0" width="110.0" height="70.0" /></clipPath><g clip-path="url(#t74462fb6fe9d489880be5730b9090e0f)"><g class="toytree-mark-Toytree" id="t2098ad2c77554347afeb062d80542744"><g class="toytree-Edges" style="fill:none;stroke:rgb(14.9%,14.9%,14.9%);stroke-linecap:round;stroke-opacity:1;stroke-width:0.5"><path d="M 25.0 41.3 L 25.0 53.5 L 93.7 53.5" id="6,5" /><path d="M 93.7 53.5 L 93.7 63.9 L 104.0 63.9" id="5,4" /><path d="M 25.0 41.3 L 25.0 29.2 L 107.9 29.2" id="6,3" /><path d="M 93.7 53.5 L 93.7 43.1 L 104.4 43.1" id="5,2" /><path d="M 104.0 63.9 L 104.0 56.9 L 109.3 56.9" id="4,1" /><path d="M 104.0 63.9 L 104.0 70.8 L 110.3 70.8" id="4,0" /></g><g class="toytree-Nodes" style="fill:rgb(100%,0%,0%);fill-opacity:1.0;stroke:None;stroke-width:1"><g id="node-0" transform="translate(110.263,70.833)"><circle r="2.5" /></g><g id="node-1" transform="translate(109.331,56.944)"><circle r="2.5" /></g><g id="node-2" transform="translate(104.432,43.056)"><circle r="2.5" /></g><g id="node-3" transform="translate(107.932,29.167)"><circle r="2.5" /></g><g id="node-4" transform="translate(104.010,63.889)"><circle r="0.0" /></g><g id="node-5" transform="translate(93.669,53.472)"><circle r="0.0" /></g><g id="node-6" transform="translate(25.000,41.319)"><circle r="0.0" /></g></g></g></g></g><g class="toyplot-coordinates-Cartesian" id="t3d2eda83207048d9b4c604f356fb2919"><clipPath id="t17860e5b3b1a4b7f826c02bceeaf3285"><rect x="155.0" y="15.0" width="110.0" height="70.0" /></clipPath><g clip-path="url(#t17860e5b3b1a4b7f826c02bceeaf3285)"><g class="toytree-mark-Toytree" id="t7d8a7acf895f4c10b6304dfbb560e8cb"><g class="toytree-Edges" style="fill:none;stroke:rgb(14.9%,14.9%,14.9%);stroke-linecap:round;stroke-opacity:1;stroke-width:0.5"><path d="M 165.0 41.3 L 165.0 53.5 L 169.5 53.5" id="6,5" /><path d="M 169.5 53.5 L 169.5 63.9 L 197.0 63.9" id="5,4" /><path d="M 165.0 41.3 L 165.0 29.2 L 247.1 29.2" id="6,3" /><path d="M 169.5 53.5 L 169.5 43.1 L 250.3 43.1" id="5,2" /><path d="M 197.0 63.9 L 197.0 56.9 L 243.4 56.9" id="4,1" /><path d="M 197.0 63.9 L 197.0 70.8 L 247.9 70.8" id="4,0" /></g><g class="toytree-Nodes" style="fill:rgb(100%,0%,0%);fill-opacity:1.0;stroke:None;stroke-width:1"><g id="node-0" transform="translate(247.851,70.833)"><circle r="2.5" /></g><g id="node-1" transform="translate(243.395,56.944)"><circle r="2.5" /></g><g id="node-2" transform="translate(250.263,43.056)"><circle r="2.5" /></g><g id="node-3" transform="translate(247.071,29.167)"><circle r="2.5" /></g><g id="node-4" transform="translate(196.960,63.889)"><circle r="0.0" /></g><g id="node-5" transform="translate(169.525,53.472)"><circle r="0.0" /></g><g id="node-6" transform="translate(165.000,41.319)"><circle r="0.0" /></g></g></g></g></g><g class="toyplot-coordinates-Cartesian" id="t932c65757cc8442ab72fe07a7034b00d"><clipPath id="t01f22af49a834698b53551abe170e476"><rect x="295.0" y="15.0" width="110.0" height="70.0" /></clipPath><g clip-path="url(#t01f22af49a834698b53551abe170e476)"><g class="toytree-mark-Toytree" id="t644485f2abbe4cdfb64584a68684db68"><g class="toytree-Edges" style="fill:none;stroke:rgb(14.9%,14.9%,14.9%);stroke-linecap:round;stroke-opacity:1;stroke-width:0.5"><path d="M 305.0 41.3 L 305.0 53.5 L 338.1 53.5" id="6,5" /><path d="M 338.1 53.5 L 338.1 63.9 L 362.6 63.9" id="5,4" /><path d="M 305.0 41.3 L 305.0 29.2 L 379.6 29.2" id="6,3" /><path d="M 338.1 53.5 L 338.1 43.1 L 370.5 43.1" id="5,2" /><path d="M 362.6 63.9 L 362.6 56.9 L 390.3 56.9" id="4,1" /><path d="M 362.6 63.9 L 362.6 70.8 L 380.6 70.8" id="4,0" /></g><g class="toytree-Nodes" style="fill:rgb(100%,0%,0%);fill-opacity:1.0;stroke:None;stroke-width:1"><g id="node-0" transform="translate(380.639,70.833)"><circle r="2.5" /></g><g id="node-1" transform="translate(390.263,56.944)"><circle r="2.5" /></g><g id="node-2" transform="translate(370.466,43.056)"><circle r="2.5" /></g><g id="node-3" transform="translate(379.583,29.167)"><circle r="2.5" /></g><g id="node-4" transform="translate(362.583,63.889)"><circle r="0.0" /></g><g id="node-5" transform="translate(338.066,53.472)"><circle r="0.0" /></g><g id="node-6" transform="translate(305.000,41.319)"><circle r="0.0" /></g></g></g></g></g><g class="toyplot-coordinates-Cartesian" id="tee62dec26e7743e69446a0726aa3540b"><clipPath id="t07d7f933d4964c5faab560d94954f8d8"><rect x="435.0" y="15.0" width="110.0" height="70.0" /></clipPath><g clip-path="url(#t07d7f933d4964c5faab560d94954f8d8)"><g class="toytree-mark-Toytree" id="t320faf9e2f9b4e0eb2507077cb6d5357"><g class="toytree-Edges" style="fill:none;stroke:rgb(14.9%,14.9%,14.9%);stroke-linecap:round;stroke-opacity:1;stroke-width:0.5"><path d="M 445.0 41.3 L 445.0 53.5 L 477.0 53.5" id="6,5" /><path d="M 477.0 53.5 L 477.0 63.9 L 501.3 63.9" id="5,4" /><path d="M 445.0 41.3 L 445.0 29.2 L 520.4 29.2" id="6,3" /><path d="M 477.0 53.5 L 477.0 43.1 L 511.8 43.1" id="5,2" /><path d="M 501.3 63.9 L 501.3 56.9 L 521.3 56.9" id="4,1" /><path d="M 501.3 63.9 L 501.3 70.8 L 530.3 70.8" id="4,0" /></g><g class="toytree-Nodes" style="fill:rgb(100%,0%,0%);fill-opacity:1.0;stroke:None;stroke-width:1"><g id="node-0" transform="translate(530.263,70.833)"><circle r="2.5" /></g><g id="node-1" transform="translate(521.291,56.944)"><circle r="2.5" /></g><g id="node-2" transform="translate(511.836,43.056)"><circle r="2.5" /></g><g id="node-3" transform="translate(520.381,29.167)"><circle r="2.5" /></g><g id="node-4" transform="translate(501.338,63.889)"><circle r="0.0" /></g><g id="node-5" transform="translate(476.979,53.472)"><circle r="0.0" /></g><g id="node-6" transform="translate(445.000,41.319)"><circle r="0.0" /></g></g></g></g></g></svg>