<svg class="toyplot-canvas-Canvas" xmlns:toyplot="http://www.sandia.gov/toyplot" xmlns:xlink="http://www.w3.org/1999/xlink" xmlns="http://www.w3.org/2000/svg" width="560.0px" height="100.0px" viewBox="0 0 560.0 100.0" preserveAspectRatio="xMidYMid meet" style="background-color:transparent;border-color:#292724;border-style:none;border-width:1.0;fill:rgb(16.1%,15.3%,14.1%);fill-opacity:1.0;font-family:Helvetica;font-size:12px;opacity:1.0;stroke:rgb(16.1%,15.3%,14.1%);stroke-opacity:1.0;stroke-width:1.0" id="t8cdcf9ef810349008f0e3c797527d0e5"><g class="toyplot-coordinates-Cartesian" id="t2e3c552fbc9d4c9084a8d1af9a8aac10"><clipPath id="ta3a270522ff544fba51d398c8ec04ced"><rect x="15.0" y="15.0" width="110.0" height="70.0" /></clipPath><g clip-path="url(#ta3a270522ff544fba51d398c8ec04ced)"><g class="toytree-mark-Toytree" id="t78952a136c964eed88a5448ba9728755"><g class="toytree-Edges" style="fill:none;stroke:rgb(14.9%,14.9%,14.9%);stroke-linecap:round;stroke-opacity:1;stroke-width:0.5"><path d="M 25.0 38.9 L 25.0 30.2 L 57.8 30.2" id="40,39" /><path d="M 25.0 38.9 L 25.0 47.6 L 30.3 47.6" id="40,38" /><path d="M 30.3 47.6 L 30.3 38.8 L 43.9 38.8" id="38,37" /><path d="M 30.3 47.6 L 30.3 56.4 L 34.5 56.4" id="38,36" /><path d="M 43.9 38.8 L 43.9 34.9 L 47.2 34.9" id="37,35" /><path d="M 43.9 38.8 L 43.9 42.7 L 59.1 42.7" id="37,34" /><path d="M 34.5 56.4 L 34.5 50.5 L 44.0 50.5" id="36,33" /><path d="M 34.5 56.4 L 34.5 62.2 L 40.5 62.2" id="36,32" /><path d="M 47.2 34.9 L 47.2 36.5 L 61.8 36.5" id="35,31" /><path d="M 59.1 42.7 L 59.1 40.6 L 65.5 40.6" id="34,30" /><path d="M 59.1 42.7 L 59.1 44.8 L 67.6 44.8" id="34,29" /><path d="M 44.0 50.5 L 44.0 53.1 L 50.6 53.1" id="33,28" /><path d="M 40.5 62.2 L 40.5 59.4 L 44.3 59.4" id="32,27" /><path d="M 40.5 62.2 L 40.5 65.1 L 41.6 65.1" id="32,26" /><path d="M 50.6 53.1 L 50.6 51.0 L 57.9 51.0" id="28,25" /><path d="M 50.6 53.1 L 50.6 55.2 L 55.4 55.2" id="28,24" /><path d="M 41.6 65.1 L 41.6 67.7 L 47.5 67.7" id="26,23" /><path d="M 47.5 67.7 L 47.5 65.6 L 51.5 65.6" id="23,22" /><path d="M 47.5 67.7 L 47.5 69.8 L 48.6 69.8" id="23,21" /><path d="M 57.8 30.2 L 57.8 29.2 L 102.0 29.2" id="39,20" /><path d="M 57.8 30.2 L 57.8 31.2 L 100.8 31.2" id="39,19" /><path d="M 47.2 34.9 L 47.2 33.3 L 103.2 33.3" id="35,18" /><path d="M 61.8 36.5 L 61.8 35.4 L 103.3 35.4" id="31,17" /><path d="M 61.8 36.5 L 61.8 37.5 L 100.6 37.5" id="31,16" /><path d="M 65.5 40.6 L 65.5 39.6 L 104.1 39.6" id="30,15" /><path d="M 65.5 40.6 L 65.5 41.7 L 105.6 41.7" id="30,14" /><path d="M 67.6 44.8 L 67.6 43.8 L 109.8 43.8" id="29,13" /><path d="M 67.6 44.8 L 67.6 45.8 L 108.0 45.8" id="29,12" /><path d="M 44.0 50.5 L 44.0 47.9 L 92.7 47.9" id="33,11" /><path d="M 57.9 51.0 L 57.9 50.0 L 109.7 50.0" id="25,10" /><path d="M 57.9 51.0 L 57.9 52.1 L 110.3 52.1" id="25,9" /><path d="M 55.4 55.2 L 55.4 54.2 L 107.0 54.2" id="24,8" /><path d="M 55.4 55.2 L 55.4 56.2 L 108.1 56.2" id="24,7" /><path d="M 44.3 59.4 L 44.3 58.3 L 97.4 58.3" id="27,6" /><path d="M 44.3 59.4 L 44.3 60.4 L 103.4 60.4" id="27,5" /><path d="M 41.6 65.1 L 41.6 62.5 L 95.6 62.5" id="26,4" /><path d="M 51.5 65.6 L 51.5 64.6 L 92.7 64.6" id="22,3" /><path d="M 51.5 65.6 L 51.5 66.7 L 89.0 66.7" id="22,2" /><path d="M 48.6 69.8 L 48.6 68.8 L 104.2 68.8" id="21,1" /><path d="M 48.6 69.8 L 48.6 70.8 L 92.8 70.8" id="21,0" /></g><g class="toytree-Nodes" style="fill:rgb(100%,0%,0%);fill-opacity:1.0;stroke:None;stroke-width:1"><g id="node-0" transform="translate(92.752,70.833)"><circle r="2.5" /></g><g id="node-1" transform="translate(104.168,68.750)"><circle r="2.5" /></g><g id="node-2" transform="translate(88.996,66.667)"><circle r="2.5" /></g><g id="node-3" transform="translate(92.694,64.583)"><circle r="2.5" /></g><g id="node-4" transform="translate(95.589,62.500)"><circle r="2.5" /></g><g id="node-5" transform="translate(103.423,60.417)"><circle r="2.5" /></g><g id="node-6" transform="translate(97.391,58.333)"><circle r="2.5" /></g><g id="node-7" transform="translate(108.108,56.250)"><circle r="2.5" /></g><g id="node-8" transform="translate(107.044,54.167)"><circle r="2.5" /></g><g id="node-9" transform="translate(110.263,52.083)"><circle r="2.5" /></g><g id="node-10" transform="translate(109.734,50.000)"><circle r="2.5" /></g><g id="node-11" transform="translate(92.719,47.917)"><circle r="2.5" /></g><g id="node-12" transform="translate(108.047,45.833)"><circle r="2.5" /></g><g id="node-13" transform="translate(109.761,43.750)"><circle r="2.5" /></g><g id="node-14" transform="translate(105.604,41.667)"><circle r="2.5" /></g><g id="node-15" transform="translate(104.099,39.583)"><circle r="2.5" /></g><g id="node-16" transform="translate(100.586,37.500)"><circle r="2.5" /></g><g id="node-17" transform="translate(103.313,35.417)"><circle r="2.5" /></g><g id="node-18" transform="translate(103.205,33.333)"><circle r="2.5" /></g><g id="node-19" transform="translate(100.837,31.250)"><circle r="2.5" /></g><g id="node-20" transform="translate(101.971,29.167)"><circle r="2.5" /></g><g id="node-21" transform="translate(48.637,69.792)"><circle r="0.0" /></g><g id="node-22" transform="translate(51.549,65.625)"><circle r="0.0" /></g><g id="node-23" transform="translate(47.461,67.708)"><circle r="0.0" /></g><g id="node-24" transform="translate(55.408,55.208)"><circle r="0.0" /></g><g id="node-25" transform="translate(57.882,51.042)"><circle r="0.0" /></g><g id="node-26" transform="translate(41.649,65.104)"><circle r="0.0" /></g><g id="node-27" transform="translate(44.330,59.375)"><circle r="0.0" /></g><g id="node-28" transform="translate(50.638,53.125)"><circle r="0.0" /></g><g id="node-29" transform="translate(67.628,44.792)"><circle r="0.0" /></g><g id="node-30" transform="translate(65.504,40.625)"><circle r="0.0" /></g><g id="node-31" transform="translate(61.820,36.458)"><circle r="0.0" /></g><g id="node-32" transform="translate(40.494,62.240)"><circle r="0.0" /></g><g id="node-33" transform="translate(43.999,50.521)"><circle r="0.0" /></g><g id="node-34" transform="translate(59.139,42.708)"><circle r="0.0" /></g><g id="node-35" transform="translate(47.178,34.896)"><circle r="0.0" /></g><g id="node-36" transform="translate(34.545,56.380)"><circle r="0.0" /></g><g id="node-37" transform="translate(43.886,38.802)"><circle r="0.0" /></g><g id="node-38" transform="translate(30.299,47.591)"><circle r="0.0" /></g><g id="node-39" transform="translate(57.835,30.208)"><circle r="0.0" /></g><g id="node-40" transform="translate(25.000,38.900)"><circle r="0.0" /></g></g></g></g></g><g class="toyplot-coordinates-Cartesian" id="t1c3c474a12ab411598b865383df54de6"><clipPath id="tc0b0996d16644c7fac39cbbe0a3dfba9"><rect x="155.0" y="15.0" width="110.0" height="70.0" /></clipPath><g clip-path="url(#tc0b0996d16644c7fac39cbbe0a3dfba9)"><g class="toytree-mark-Toytree" id="te196421fdac34dc9917ad6d8ed07d140"><g class="toytree-Edges" style="fill:none;stroke:rgb(14.9%,14.9%,14.9%);stroke-linecap:round;stroke-opacity:1;stroke-width:0.5"><path d="M 165.0 45.1 L 165.0 33.6 L 169.5 33.6" id="40,39" /><path d="M 165.0 45.1 L 165.0 56.6 L 195.1 56.6" id="40,38" /><path d="M 169.5 33.6 L 169.5 30.2 L 203.5 30.2" id="39,37" /><path d="M 169.5 33.6 L 169.5 36.9 L 184.9 36.9" id="39,36" /><path d="M 195.1 56.6 L 195.1 51.3 L 209.2 51.3" id="38,35" /><path d="M 195.1 56.6 L 195.1 61.9 L 206.5 61.9" id="38,34" /><path d="M 184.9 36.9 L 184.9 34.4 L 205.9 34.4" id="36,33" /><path d="M 184.9 36.9 L 184.9 39.5 L 186.4 39.5" id="36,32" /><path d="M 209.2 51.3 L 209.2 49.0 L 213.3 49.0" id="35,31" /><path d="M 209.2 51.3 L 209.2 53.6 L 222.4 53.6" id="35,30" /><path d="M 206.5 61.9 L 206.5 59.4 L 207.9 59.4" id="34,29" /><path d="M 206.5 61.9 L 206.5 64.5 L 209.1 64.5" id="34,28" /><path d="M 186.4 39.5 L 186.4 41.4 L 223.3 41.4" id="32,27" /><path d="M 222.4 53.6 L 222.4 55.2 L 222.9 55.2" id="30,26" /><path d="M 209.1 64.5 L 209.1 66.4 L 213.5 66.4" id="28,25" /><path d="M 223.3 41.4 L 223.3 43.2 L 231.9 43.2" id="27,24" /><path d="M 213.5 66.4 L 213.5 68.2 L 218.9 68.2" id="25,23" /><path d="M 231.9 43.2 L 231.9 44.8 L 237.6 44.8" id="24,22" /><path d="M 218.9 68.2 L 218.9 69.8 L 225.6 69.8" id="23,21" /><path d="M 203.5 30.2 L 203.5 29.2 L 225.5 29.2" id="37,20" /><path d="M 203.5 30.2 L 203.5 31.2 L 237.6 31.2" id="37,19" /><path d="M 205.9 34.4 L 205.9 33.3 L 213.7 33.3" id="33,18" /><path d="M 205.9 34.4 L 205.9 35.4 L 205.9 35.4" id="33,17" /><path d="M 186.4 39.5 L 186.4 37.5 L 200.9 37.5" id="32,16" /><path d="M 223.3 41.4 L 223.3 39.6 L 231.3 39.6" id="27,15" /><path d="M 231.9 43.2 L 231.9 41.7 L 250.3 41.7" id="24,14" /><path d="M 237.6 44.8 L 237.6 43.8 L 242.0 43.8" id="22,13" /><path d="M 237.6 44.8 L 237.6 45.8 L 244.9 45.8" id="22,12" /><path d="M 213.3 49.0 L 213.3 47.9 L 218.2 47.9" id="31,11" /><path d="M 213.3 49.0 L 213.3 50.0 L 220.3 50.0" id="31,10" /><path d="M 222.4 53.6 L 222.4 52.1 L 245.1 52.1" id="30,9" /><path d="M 222.9 55.2 L 222.9 54.2 L 227.7 54.2" id="26,8" /><path d="M 222.9 55.2 L 222.9 56.2 L 226.9 56.2" id="26,7" /><path d="M 207.9 59.4 L 207.9 58.3 L 212.4 58.3" id="29,6" /><path d="M 207.9 59.4 L 207.9 60.4 L 213.9 60.4" id="29,5" /><path d="M 209.1 64.5 L 209.1 62.5 L 222.5 62.5" id="28,4" /><path d="M 213.5 66.4 L 213.5 64.6 L 214.0 64.6" id="25,3" /><path d="M 218.9 68.2 L 218.9 66.7 L 227.0 66.7" id="23,2" /><path d="M 225.6 69.8 L 225.6 68.8 L 232.3 68.8" id="21,1" /><path d="M 225.6 69.8 L 225.6 70.8 L 232.1 70.8" id="21,0" /></g><g class="toytree-Nodes" style="fill:rgb(100%,0%,0%);fill-opacity:1.0;stroke:None;stroke-width:1"><g id="node-0" transform="translate(232.077,70.833)"><circle r="2.5" /></g><g id="node-1" transform="translate(232.335,68.750)"><circle r="2.5" /></g><g id="node-2" transform="translate(227.009,66.667)"><circle r="2.5" /></g><g id="node-3" transform="translate(213.968,64.583)"><circle r="2.5" /></g><g id="node-4" transform="translate(222.457,62.500)"><circle r="2.5" /></g><g id="node-5" transform="translate(213.892,60.417)"><circle r="2.5" /></g><g id="node-6" transform="translate(212.386,58.333)"><circle r="2.5" /></g><g id="node-7" transform="translate(226.933,56.250)"><circle r="2.5" /></g><g id="node-8" transform="translate(227.665,54.167)"><circle r="2.5" /></g><g id="node-9" transform="translate(245.053,52.083)"><circle r="2.5" /></g><g id="node-10" transform="translate(220.295,50.000)"><circle r="2.5" /></g><g id="node-11" transform="translate(218.229,47.917)"><circle r="2.5" /></g><g id="node-12" transform="translate(244.872,45.833)"><circle r="2.5" /></g><g id="node-13" transform="translate(241.967,43.750)"><circle r="2.5" /></g><g id="node-14" transform="translate(250.263,41.667)"><circle r="2.5" /></g><g id="node-15" transform="translate(231.347,39.583)"><circle r="2.5" /></g><g id="node-16" transform="translate(200.886,37.500)"><circle r="2.5" /></g><g id="node-17" transform="translate(205.932,35.417)"><circle r="2.5" /></g><g id="node-18" transform="translate(213.679,33.333)"><circle r="2.5" /></g><g id="node-19" transform="translate(237.599,31.250)"><circle r="2.5" /></g><g id="node-20" transform="translate(225.461,29.167)"><circle r="2.5" /></g><g id="node-21" transform="translate(225.642,69.792)"><circle r="0.0" /></g><g id="node-22" transform="translate(237.556,44.792)"><circle r="0.0" /></g><g id="node-23" transform="translate(218.928,68.229)"><circle r="0.0" /></g><g id="node-24" transform="translate(231.939,43.229)"><circle r="0.0" /></g><g id="node-25" transform="translate(213.473,66.406)"><circle r="0.0" /></g><g id="node-26" transform="translate(222.888,55.208)"><circle r="0.0" /></g><g id="node-27" transform="translate(223.277,41.406)"><circle r="0.0" /></g><g id="node-28" transform="translate(209.104,64.453)"><circle r="0.0" /></g><g id="node-29" transform="translate(207.921,59.375)"><circle r="0.0" /></g><g id="node-30" transform="translate(222.403,53.646)"><circle r="0.0" /></g><g id="node-31" transform="translate(213.290,48.958)"><circle r="0.0" /></g><g id="node-32" transform="translate(186.413,39.453)"><circle r="0.0" /></g><g id="node-33" transform="translate(205.932,34.375)"><circle r="0.0" /></g><g id="node-34" transform="translate(206.468,61.914)"><circle r="0.0" /></g><g id="node-35" transform="translate(209.169,51.302)"><circle r="0.0" /></g><g id="node-36" transform="translate(184.853,36.914)"><circle r="0.0" /></g><g id="node-37" transform="translate(203.500,30.208)"><circle r="0.0" /></g><g id="node-38" transform="translate(195.052,56.608)"><circle r="0.0" /></g><g id="node-39" transform="translate(169.488,33.561)"><circle r="0.0" /></g><g id="node-40" transform="translate(165.000,45.085)"><circle r="0.0" /></g></g></g></g></g><g class="toyplot-coordinates-Cartesian" id="ted7fe6b2d0304a70836251684b778cd8"><clipPath id="tffae78e520aa4e639cf24c20be675da8"><rect x="295.0" y="15.0" width="110.0" height="70.0" /></clipPath><g clip-path="url(#tffae78e520aa4e639cf24c20be675da8)"><g class="toytree-mark-Toytree" id="taabdd6bdc7ff412a80b70e888f72976f"><g class="toytree-Edges" style="fill:none;stroke:rgb(14.9%,14.9%,14.9%);stroke-linecap:round;stroke-opacity:1;stroke-width:0.5"><path d="M 305.0 38.9 L 305.0 30.2 L 335.7 30.2" id="40,39" /><path d="M 305.0 38.9 L 305.0 47.7 L 308.7 47.7" id="40,38" /><path d="M 308.7 47.7 L 308.7 38.2 L 322.5 38.2" id="38,37" /><path d="M 308.7 47.7 L 308.7 57.2 L 331.7 57.2" id="38,36" /><path d="M 322.5 38.2 L 322.5 34.9 L 326.8 34.9" id="37,35" /><path d="M 322.5 38.2 L 322.5 41.4 L 361.6 41.4" id="37,34" /><path d="M 331.7 57.2 L 331.7 51.3 L 341.5 51.3" id="36,33" /><path d="M 331.7 57.2 L 331.7 63.2 L 339.1 63.2" id="36,32" /><path d="M 326.8 34.9 L 326.8 36.5 L 338.3 36.5" id="35,31" /><path d="M 361.6 41.4 L 361.6 43.2 L 369.7 43.2" id="34,30" /><path d="M 341.5 51.3 L 341.5 49.0 L 343.3 49.0" id="33,29" /><path d="M 341.5 51.3 L 341.5 53.6 L 349.1 53.6" id="33,28" /><path d="M 339.1 63.2 L 339.1 59.9 L 345.0 59.9" id="32,27" /><path d="M 339.1 63.2 L 339.1 66.4 L 342.2 66.4" id="32,26" /><path d="M 369.7 43.2 L 369.7 44.8 L 374.5 44.8" id="30,25" /><path d="M 349.1 53.6 L 349.1 55.2 L 352.3 55.2" id="28,24" /><path d="M 345.0 59.9 L 345.0 61.5 L 346.8 61.5" id="27,23" /><path d="M 342.2 66.4 L 342.2 68.2 L 343.3 68.2" id="26,22" /><path d="M 343.3 68.2 L 343.3 69.8 L 344.3 69.8" id="22,21" /><path d="M 335.7 30.2 L 335.7 29.2 L 358.7 29.2" id="39,20" /><path d="M 335.7 30.2 L 335.7 31.2 L 361.3 31.2" id="39,19" /><path d="M 326.8 34.9 L 326.8 33.3 L 348.9 33.3" id="35,18" /><path d="M 338.3 36.5 L 338.3 35.4 L 350.7 35.4" id="31,17" /><path d="M 338.3 36.5 L 338.3 37.5 L 342.1 37.5" id="31,16" /><path d="M 361.6 41.4 L 361.6 39.6 L 388.0 39.6" id="34,15" /><path d="M 369.7 43.2 L 369.7 41.7 L 378.7 41.7" id="30,14" /><path d="M 374.5 44.8 L 374.5 43.8 L 386.2 43.8" id="25,13" /><path d="M 374.5 44.8 L 374.5 45.8 L 390.3 45.8" id="25,12" /><path d="M 343.3 49.0 L 343.3 47.9 L 352.6 47.9" id="29,11" /><path d="M 343.3 49.0 L 343.3 50.0 L 359.1 50.0" id="29,10" /><path d="M 349.1 53.6 L 349.1 52.1 L 381.5 52.1" id="28,9" /><path d="M 352.3 55.2 L 352.3 54.2 L 362.1 54.2" id="24,8" /><path d="M 352.3 55.2 L 352.3 56.2 L 362.7 56.2" id="24,7" /><path d="M 345.0 59.9 L 345.0 58.3 L 360.8 58.3" id="27,6" /><path d="M 346.8 61.5 L 346.8 60.4 L 360.6 60.4" id="23,5" /><path d="M 346.8 61.5 L 346.8 62.5 L 358.6 62.5" id="23,4" /><path d="M 342.2 66.4 L 342.2 64.6 L 348.1 64.6" id="26,3" /><path d="M 343.3 68.2 L 343.3 66.7 L 360.1 66.7" id="22,2" /><path d="M 344.3 69.8 L 344.3 68.8 L 354.8 68.8" id="21,1" /><path d="M 344.3 69.8 L 344.3 70.8 L 353.7 70.8" id="21,0" /></g><g class="toytree-Nodes" style="fill:rgb(100%,0%,0%);fill-opacity:1.0;stroke:None;stroke-width:1"><g id="node-0" transform="translate(353.747,70.833)"><circle r="2.5" /></g><g id="node-1" transform="translate(354.770,68.750)"><circle r="2.5" /></g><g id="node-2" transform="translate(360.129,66.667)"><circle r="2.5" /></g><g id="node-3" transform="translate(348.106,64.583)"><circle r="2.5" /></g><g id="node-4" transform="translate(358.623,62.500)"><circle r="2.5" /></g><g id="node-5" transform="translate(360.562,60.417)"><circle r="2.5" /></g><g id="node-6" transform="translate(360.825,58.333)"><circle r="2.5" /></g><g id="node-7" transform="translate(362.662,56.250)"><circle r="2.5" /></g><g id="node-8" transform="translate(362.106,54.167)"><circle r="2.5" /></g><g id="node-9" transform="translate(381.456,52.083)"><circle r="2.5" /></g><g id="node-10" transform="translate(359.111,50.000)"><circle r="2.5" /></g><g id="node-11" transform="translate(352.554,47.917)"><circle r="2.5" /></g><g id="node-12" transform="translate(390.263,45.833)"><circle r="2.5" /></g><g id="node-13" transform="translate(386.239,43.750)"><circle r="2.5" /></g><g id="node-14" transform="translate(378.698,41.667)"><circle r="2.5" /></g><g id="node-15" transform="translate(387.983,39.583)"><circle r="2.5" /></g><g id="node-16" transform="translate(342.134,37.500)"><circle r="2.5" /></g><g id="node-17" transform="translate(350.737,35.417)"><circle r="2.5" /></g><g id="node-18" transform="translate(348.924,33.333)"><circle r="2.5" /></g><g id="node-19" transform="translate(361.309,31.250)"><circle r="2.5" /></g><g id="node-20" transform="translate(358.689,29.167)"><circle r="2.5" /></g><g id="node-21" transform="translate(344.297,69.792)"><circle r="0.0" /></g><g id="node-22" transform="translate(343.322,68.229)"><circle r="0.0" /></g><g id="node-23" transform="translate(346.757,61.458)"><circle r="0.0" /></g><g id="node-24" transform="translate(352.325,55.208)"><circle r="0.0" /></g><g id="node-25" transform="translate(374.490,44.792)"><circle r="0.0" /></g><g id="node-26" transform="translate(342.231,66.406)"><circle r="0.0" /></g><g id="node-27" transform="translate(345.022,59.896)"><circle r="0.0" /></g><g id="node-28" transform="translate(349.085,53.646)"><circle r="0.0" /></g><g id="node-29" transform="translate(343.337,48.958)"><circle r="0.0" /></g><g id="node-30" transform="translate(369.652,43.229)"><circle r="0.0" /></g><g id="node-31" transform="translate(338.276,36.458)"><circle r="0.0" /></g><g id="node-32" transform="translate(339.065,63.151)"><circle r="0.0" /></g><g id="node-33" transform="translate(341.535,51.302)"><circle r="0.0" /></g><g id="node-34" transform="translate(361.585,41.406)"><circle r="0.0" /></g><g id="node-35" transform="translate(326.794,34.896)"><circle r="0.0" /></g><g id="node-36" transform="translate(331.704,57.227)"><circle r="0.0" /></g><g id="node-37" transform="translate(322.482,38.151)"><circle r="0.0" /></g><g id="node-38" transform="translate(308.721,47.689)"><circle r="0.0" /></g><g id="node-39" transform="translate(335.691,30.208)"><circle r="0.0" /></g><g id="node-40" transform="translate(305.000,38.949)"><circle r="0.0" /></g></g></g></g></g><g class="toyplot-coordinates-Cartesian" id="tdd47fa0ad4db455fb5d31422d0826911"><clipPath id="ta46ea3e64dbd4072aa2572e8342b2eb8"><rect x="435.0" y="15.0" width="110.0" height="70.0" /></clipPath><g clip-path="url(#ta46ea3e64dbd4072aa2572e8342b2eb8)"><g class="toytree-mark-Toytree" id="tfcf644336f3c449388e786d9a5f981af"><g class="toytree-Edges" style="fill:none;stroke:rgb(14.9%,14.9%,14.9%);stroke-linecap:round;stroke-opacity:1;stroke-width:0.5"><path d="M 445.0 42.7 L 445.0 31.4 L 462.8 31.4" id="40,39" /><path d="M 445.0 42.7 L 445.0 54.0 L 457.7 54.0" id="40,38" /><path d="M 462.8 31.4 L 462.8 33.6 L 465.1 33.6" id="39,37" /><path d="M 457.7 54.0 L 457.7 47.3 L 466.8 47.3" id="38,36" /><path d="M 457.7 54.0 L 457.7 60.7 L 460.3 60.7" id="38,35" /><path d="M 465.1 33.6 L 465.1 35.9 L 472.6 35.9" id="37,34" /><path d="M 466.8 47.3 L 466.8 44.8 L 514.2 44.8" id="36,33" /><path d="M 466.8 47.3 L 466.8 49.9 L 469.2 49.9" id="36,32" /><path d="M 460.3 60.7 L 460.3 63.2 L 464.2 63.2" id="35,31" /><path d="M 472.6 35.9 L 472.6 38.5 L 497.9 38.5" id="34,30" /><path d="M 469.2 49.9 L 469.2 51.8 L 473.3 51.8" id="32,29" /><path d="M 464.2 63.2 L 464.2 65.9 L 469.3 65.9" id="31,28" /><path d="M 497.9 38.5 L 497.9 36.5 L 504.8 36.5" id="30,27" /><path d="M 497.9 38.5 L 497.9 40.6 L 503.4 40.6" id="30,26" /><path d="M 473.3 51.8 L 473.3 53.6 L 479.6 53.6" id="29,25" /><path d="M 469.3 65.9 L 469.3 63.5 L 472.7 63.5" id="28,24" /><path d="M 469.3 65.9 L 469.3 68.2 L 471.1 68.2" id="28,23" /><path d="M 479.6 53.6 L 479.6 55.2 L 486.3 55.2" id="25,22" /><path d="M 471.1 68.2 L 471.1 69.8 L 475.1 69.8" id="23,21" /><path d="M 462.8 31.4 L 462.8 29.2 L 471.1 29.2" id="39,20" /><path d="M 465.1 33.6 L 465.1 31.2 L 478.0 31.2" id="37,19" /><path d="M 472.6 35.9 L 472.6 33.3 L 494.1 33.3" id="34,18" /><path d="M 504.8 36.5 L 504.8 35.4 L 519.0 35.4" id="27,17" /><path d="M 504.8 36.5 L 504.8 37.5 L 516.3 37.5" id="27,16" /><path d="M 503.4 40.6 L 503.4 39.6 L 518.0 39.6" id="26,15" /><path d="M 503.4 40.6 L 503.4 41.7 L 512.7 41.7" id="26,14" /><path d="M 514.2 44.8 L 514.2 43.8 L 526.7 43.8" id="33,13" /><path d="M 514.2 44.8 L 514.2 45.8 L 530.3 45.8" id="33,12" /><path d="M 469.2 49.9 L 469.2 47.9 L 485.1 47.9" id="32,11" /><path d="M 473.3 51.8 L 473.3 50.0 L 498.4 50.0" id="29,10" /><path d="M 479.6 53.6 L 479.6 52.1 L 495.1 52.1" id="25,9" /><path d="M 486.3 55.2 L 486.3 54.2 L 507.7 54.2" id="22,8" /><path d="M 486.3 55.2 L 486.3 56.2 L 500.1 56.2" id="22,7" /><path d="M 460.3 60.7 L 460.3 58.3 L 481.1 58.3" id="35,6" /><path d="M 464.2 63.2 L 464.2 60.4 L 487.1 60.4" id="31,5" /><path d="M 472.7 63.5 L 472.7 62.5 L 495.0 62.5" id="24,4" /><path d="M 472.7 63.5 L 472.7 64.6 L 483.6 64.6" id="24,3" /><path d="M 471.1 68.2 L 471.1 66.7 L 494.7 66.7" id="23,2" /><path d="M 475.1 69.8 L 475.1 68.8 L 484.9 68.8" id="21,1" /><path d="M 475.1 69.8 L 475.1 70.8 L 488.4 70.8" id="21,0" /></g><g class="toytree-Nodes" style="fill:rgb(100%,0%,0%);fill-opacity:1.0;stroke:None;stroke-width:1"><g id="node-0" transform="translate(488.359,70.833)"><circle r="2.5" /></g><g id="node-1" transform="translate(484.916,68.750)"><circle r="2.5" /></g><g id="node-2" transform="translate(494.720,66.667)"><circle r="2.5" /></g><g id="node-3" transform="translate(483.612,64.583)"><circle r="2.5" /></g><g id="node-4" transform="translate(495.015,62.500)"><circle r="2.5" /></g><g id="node-5" transform="translate(487.062,60.417)"><circle r="2.5" /></g><g id="node-6" transform="translate(481.147,58.333)"><circle r="2.5" /></g><g id="node-7" transform="translate(500.145,56.250)"><circle r="2.5" /></g><g id="node-8" transform="translate(507.748,54.167)"><circle r="2.5" /></g><g id="node-9" transform="translate(495.129,52.083)"><circle r="2.5" /></g><g id="node-10" transform="translate(498.355,50.000)"><circle r="2.5" /></g><g id="node-11" transform="translate(485.054,47.917)"><circle r="2.5" /></g><g id="node-12" transform="translate(530.263,45.833)"><circle r="2.5" /></g><g id="node-13" transform="translate(526.746,43.750)"><circle r="2.5" /></g><g id="node-14" transform="translate(512.682,41.667)"><circle r="2.5" /></g><g id="node-15" transform="translate(517.990,39.583)"><circle r="2.5" /></g><g id="node-16" transform="translate(516.280,37.500)"><circle r="2.5" /></g><g id="node-17" transform="translate(518.996,35.417)"><circle r="2.5" /></g><g id="node-18" transform="translate(494.112,33.333)"><circle r="2.5" /></g><g id="node-19" transform="translate(478.035,31.250)"><circle r="2.5" /></g><g id="node-20" transform="translate(471.067,29.167)"><circle r="2.5" /></g><g id="node-21" transform="translate(475.061,69.792)"><circle r="0.0" /></g><g id="node-22" transform="translate(486.314,55.208)"><circle r="0.0" /></g><g id="node-23" transform="translate(471.120,68.229)"><circle r="0.0" /></g><g id="node-24" transform="translate(472.704,63.542)"><circle r="0.0" /></g><g id="node-25" transform="translate(479.598,53.646)"><circle r="0.0" /></g><g id="node-26" transform="translate(503.385,40.625)"><circle r="0.0" /></g><g id="node-27" transform="translate(504.846,36.458)"><circle r="0.0" /></g><g id="node-28" transform="translate(469.335,65.885)"><circle r="0.0" /></g><g id="node-29" transform="translate(473.258,51.823)"><circle r="0.0" /></g><g id="node-30" transform="translate(497.919,38.542)"><circle r="0.0" /></g><g id="node-31" transform="translate(464.240,63.151)"><circle r="0.0" /></g><g id="node-32" transform="translate(469.191,49.870)"><circle r="0.0" /></g><g id="node-33" transform="translate(514.170,44.792)"><circle r="0.0" /></g><g id="node-34" transform="translate(472.629,35.938)"><circle r="0.0" /></g><g id="node-35" transform="translate(460.275,60.742)"><circle r="0.0" /></g><g id="node-36" transform="translate(466.760,47.331)"><circle r="0.0" /></g><g id="node-37" transform="translate(465.066,33.594)"><circle r="0.0" /></g><g id="node-38" transform="translate(457.671,54.036)"><circle r="0.0" /></g><g id="node-39" transform="translate(462.839,31.380)"><circle r="0.0" /></g><g id="node-40" transform="translate(445.000,42.708)"><circle r="0.0" /></g></g></g></g></g></svg>