<svg class="toyplot-canvas-Canvas" xmlns:toyplot="http://www.sandia.gov/toyplot" xmlns:xlink="http://www.w3.org/1999/xlink" xmlns="http://www.w3.org/2000/svg" width="560.0px" height="100.0px" viewBox="0 0 560.0 100.0" preserveAspectRatio="xMidYMid meet" style="background-color:transparent;border-color:#292724;border-style:none;border-width:1.0;fill:rgb(16.1%,15.3%,14.1%);fill-opacity:1.0;font-family:Helvetica;font-size:12px;opacity:1.0;stroke:rgb(16.1%,15.3%,14.1%);stroke-opacity:1.0;stroke-width:1.0" id="tc70b380916d148aeafba0621247c8f21"><g class="toyplot-coordinates-Cartesian" id="te8cb6a294e9144d8aa6c88677c4582d1"><clipPath id="tb29e61479cd4494c8d20777c9048bc3c"><rect x="15.0" y="15.0" width="110.0" height="70.0" /></clipPath><g clip-path="url(#tb29e61479cd4494c8d20777c9048bc3c)"><g class="toytree-mark-Toytree" id="te6cfdb28f39447ddb83a9998cef3c8bf"><g class="toytree-Edges" style="fill:none;stroke:rgb(14.9%,14.9%,14.9%);stroke-linecap:round;stroke-opacity:1;stroke-width:0.5"><path d="M 25.0 38.4 L 25.0 31.2 L 29.1 31.2" id="20,19" /><path d="M 25.0 38.4 L 25.0 45.5 L 30.9 45.5" id="20,18" /><path d="M 30.9 45.5 L 30.9 39.6 L 34.1 39.6" id="18,17" /><path d="M 30.9 45.5 L 30.9 51.4 L 50.3 51.4" id="18,16" /><path d="M 50.3 51.4 L 50.3 57.0 L 76.7 57.0" id="16,15" /><path d="M 76.7 57.0 L 76.7 52.1 L 90.6 52.1" id="15,14" /><path d="M 76.7 57.0 L 76.7 62.0 L 85.0 62.0" id="15,13" /><path d="M 85.0 62.0 L 85.0 65.6 L 95.5 65.6" id="13,12" /><path d="M 95.5 65.6 L 95.5 68.8 L 96.8 68.8" id="12,11" /><path d="M 29.1 31.2 L 29.1 29.2 L 110.3 29.2" id="19,10" /><path d="M 29.1 31.2 L 29.1 33.3 L 94.5 33.3" id="19,9" /><path d="M 34.1 39.6 L 34.1 37.5 L 103.7 37.5" id="17,8" /><path d="M 34.1 39.6 L 34.1 41.7 L 105.5 41.7" id="17,7" /><path d="M 50.3 51.4 L 50.3 45.8 L 102.0 45.8" id="16,6" /><path d="M 90.6 52.1 L 90.6 50.0 L 101.1 50.0" id="14,5" /><path d="M 90.6 52.1 L 90.6 54.2 L 100.4 54.2" id="14,4" /><path d="M 85.0 62.0 L 85.0 58.3 L 99.6 58.3" id="13,3" /><path d="M 95.5 65.6 L 95.5 62.5 L 107.7 62.5" id="12,2" /><path d="M 96.8 68.8 L 96.8 66.7 L 97.3 66.7" id="11,1" /><path d="M 96.8 68.8 L 96.8 70.8 L 98.0 70.8" id="11,0" /></g><g class="toytree-Nodes" style="fill:rgb(100%,0%,0%);fill-opacity:1.0;stroke:None;stroke-width:1"><g id="node-0" transform="translate(98.000,70.833)"><circle r="2.5" /></g><g id="node-1" transform="translate(97.304,66.667)"><circle r="2.5" /></g><g id="node-2" transform="translate(107.700,62.500)"><circle r="2.5" /></g><g id="node-3" transform="translate(99.603,58.333)"><circle r="2.5" /></g><g id="node-4" transform="translate(100.395,54.167)"><circle r="2.5" /></g><g id="node-5" transform="translate(101.096,50.000)"><circle r="2.5" /></g><g id="node-6" transform="translate(102.017,45.833)"><circle r="2.5" /></g><g id="node-7" transform="translate(105.499,41.667)"><circle r="2.5" /></g><g id="node-8" transform="translate(103.737,37.500)"><circle r="2.5" /></g><g id="node-9" transform="translate(94.491,33.333)"><circle r="2.5" /></g><g id="node-10" transform="translate(110.263,29.167)"><circle r="2.5" /></g><g id="node-11" transform="translate(96.834,68.750)"><circle r="0.0" /></g><g id="node-12" transform="translate(95.549,65.625)"><circle r="0.0" /></g><g id="node-13" transform="translate(84.997,61.979)"><circle r="0.0" /></g><g id="node-14" transform="translate(90.582,52.083)"><circle r="0.0" /></g><g id="node-15" transform="translate(76.749,57.031)"><circle r="0.0" /></g><g id="node-16" transform="translate(50.305,51.432)"><circle r="0.0" /></g><g id="node-17" transform="translate(34.109,39.583)"><circle r="0.0" /></g><g id="node-18" transform="translate(30.911,45.508)"><circle r="0.0" /></g><g id="node-19" transform="translate(29.123,31.250)"><circle r="0.0" /></g><g id="node-20" transform="translate(25.000,38.379)"><circle r="0.0" /></g></g></g></g></g><g class="toyplot-coordinates-Cartesian" id="t4b33595fb2bc4c36b538e5396e0369ae"><clipPath id="tcd8d2dd1a5374472a065f24ac477b406"><rect x="155.0" y="15.0" width="110.0" height="70.0" /></clipPath><g clip-path="url(#tcd8d2dd1a5374472a065f24ac477b406)"><g class="toytree-mark-Toytree" id="t9e745d54eb9248c7af2591c039fe1529"><g class="toytree-Edges" style="fill:none;stroke:rgb(14.9%,14.9%,14.9%);stroke-linecap:round;stroke-opacity:1;stroke-width:0.5"><path d="M 165.0 33.4 L 165.0 37.6 L 173.4 37.6" id="20,19" /><path d="M 173.4 37.6 L 173.4 41.8 L 198.5 41.8" id="19,18" /><path d="M 198.5 41.8 L 198.5 46.2 L 200.6 46.2" id="18,17" /><path d="M 200.6 46.2 L 200.6 50.7 L 223.9 50.7" id="17,16" /><path d="M 223.9 50.7 L 223.9 55.5 L 236.6 55.5" id="16,15" /><path d="M 236.6 55.5 L 236.6 60.9 L 239.6 60.9" id="15,14" /><path d="M 239.6 60.9 L 239.6 56.2 L 241.0 56.2" id="14,13" /><path d="M 239.6 60.9 L 239.6 65.6 L 240.7 65.6" id="14,12" /><path d="M 240.7 65.6 L 240.7 68.8 L 243.7 68.8" id="12,11" /><path d="M 165.0 33.4 L 165.0 29.2 L 243.1 29.2" id="20,10" /><path d="M 173.4 37.6 L 173.4 33.3 L 245.5 33.3" id="19,9" /><path d="M 198.5 41.8 L 198.5 37.5 L 240.0 37.5" id="18,8" /><path d="M 200.6 46.2 L 200.6 41.7 L 241.1 41.7" id="17,7" /><path d="M 223.9 50.7 L 223.9 45.8 L 238.7 45.8" id="16,6" /><path d="M 236.6 55.5 L 236.6 50.0 L 237.9 50.0" id="15,5" /><path d="M 241.0 56.2 L 241.0 54.2 L 244.1 54.2" id="13,4" /><path d="M 241.0 56.2 L 241.0 58.3 L 250.3 58.3" id="13,3" /><path d="M 240.7 65.6 L 240.7 62.5 L 246.7 62.5" id="12,2" /><path d="M 243.7 68.8 L 243.7 66.7 L 243.7 66.7" id="11,1" /><path d="M 243.7 68.8 L 243.7 70.8 L 245.2 70.8" id="11,0" /></g><g class="toytree-Nodes" style="fill:rgb(100%,0%,0%);fill-opacity:1.0;stroke:None;stroke-width:1"><g id="node-0" transform="translate(245.172,70.833)"><circle r="2.5" /></g><g id="node-1" transform="translate(243.730,66.667)"><circle r="2.5" /></g><g id="node-2" transform="translate(246.699,62.500)"><circle r="2.5" /></g><g id="node-3" transform="translate(250.263,58.333)"><circle r="2.5" /></g><g id="node-4" transform="translate(244.134,54.167)"><circle r="2.5" /></g><g id="node-5" transform="translate(237.947,50.000)"><circle r="2.5" /></g><g id="node-6" transform="translate(238.668,45.833)"><circle r="2.5" /></g><g id="node-7" transform="translate(241.089,41.667)"><circle r="2.5" /></g><g id="node-8" transform="translate(239.955,37.500)"><circle r="2.5" /></g><g id="node-9" transform="translate(245.469,33.333)"><circle r="2.5" /></g><g id="node-10" transform="translate(243.141,29.167)"><circle r="2.5" /></g><g id="node-11" transform="translate(243.730,68.750)"><circle r="0.0" /></g><g id="node-12" transform="translate(240.724,65.625)"><circle r="0.0" /></g><g id="node-13" transform="translate(241.002,56.250)"><circle r="0.0" /></g><g id="node-14" transform="translate(239.551,60.938)"><circle r="0.0" /></g><g id="node-15" transform="translate(236.564,55.469)"><circle r="0.0" /></g><g id="node-16" transform="translate(223.950,50.651)"><circle r="0.0" /></g><g id="node-17" transform="translate(200.634,46.159)"><circle r="0.0" /></g><g id="node-18" transform="translate(198.482,41.829)"><circle r="0.0" /></g><g id="node-19" transform="translate(173.427,37.581)"><circle r="0.0" /></g><g id="node-20" transform="translate(165.000,33.374)"><circle r="0.0" /></g></g></g></g></g><g class="toyplot-coordinates-Cartesian" id="td2550827f97e440294134bfe65b6c15e"><clipPath id="t3749828416d34ae1974f182fd6014ba6"><rect x="295.0" y="15.0" width="110.0" height="70.0" /></clipPath><g clip-path="url(#t3749828416d34ae1974f182fd6014ba6)"><g class="toytree-mark-Toytree" id="t178d2cded5ef4a02affd73f8bcb182bf"><g class="toytree-Edges" style="fill:none;stroke:rgb(14.9%,14.9%,14.9%);stroke-linecap:round;stroke-opacity:1;stroke-width:0.5"><path d="M 305.0 38.2 L 305.0 31.2 L 310.0 31.2" id="20,19" /><path d="M 305.0 38.2 L 305.0 45.1 L 315.5 45.1" id="20,18" /><path d="M 315.5 45.1 L 315.5 39.6 L 334.8 39.6" id="18,17" /><path d="M 315.5 45.1 L 315.5 50.7 L 336.1 50.7" id="18,16" /><path d="M 336.1 50.7 L 336.1 55.5 L 352.4 55.5" id="16,15" /><path d="M 352.4 55.5 L 352.4 60.9 L 354.2 60.9" id="15,14" /><path d="M 354.2 60.9 L 354.2 56.2 L 356.4 56.2" id="14,13" /><path d="M 354.2 60.9 L 354.2 65.6 L 355.6 65.6" id="14,12" /><path d="M 355.6 65.6 L 355.6 68.8 L 359.6 68.8" id="12,11" /><path d="M 310.0 31.2 L 310.0 29.2 L 377.5 29.2" id="19,10" /><path d="M 310.0 31.2 L 310.0 33.3 L 364.7 33.3" id="19,9" /><path d="M 334.8 39.6 L 334.8 37.5 L 383.5 37.5" id="17,8" /><path d="M 334.8 39.6 L 334.8 41.7 L 390.3 41.7" id="17,7" /><path d="M 336.1 50.7 L 336.1 45.8 L 364.0 45.8" id="16,6" /><path d="M 352.4 55.5 L 352.4 50.0 L 361.2 50.0" id="15,5" /><path d="M 356.4 56.2 L 356.4 54.2 L 367.8 54.2" id="13,4" /><path d="M 356.4 56.2 L 356.4 58.3 L 365.5 58.3" id="13,3" /><path d="M 355.6 65.6 L 355.6 62.5 L 380.6 62.5" id="12,2" /><path d="M 359.6 68.8 L 359.6 66.7 L 360.0 66.7" id="11,1" /><path d="M 359.6 68.8 L 359.6 70.8 L 374.6 70.8" id="11,0" /></g><g class="toytree-Nodes" style="fill:rgb(100%,0%,0%);fill-opacity:1.0;stroke:None;stroke-width:1"><g id="node-0" transform="translate(374.587,70.833)"><circle r="2.5" /></g><g id="node-1" transform="translate(359.982,66.667)"><circle r="2.5" /></g><g id="node-2" transform="translate(380.594,62.500)"><circle r="2.5" /></g><g id="node-3" transform="translate(365.462,58.333)"><circle r="2.5" /></g><g id="node-4" transform="translate(367.846,54.167)"><circle r="2.5" /></g><g id="node-5" transform="translate(361.226,50.000)"><circle r="2.5" /></g><g id="node-6" transform="translate(364.011,45.833)"><circle r="2.5" /></g><g id="node-7" transform="translate(390.263,41.667)"><circle r="2.5" /></g><g id="node-8" transform="translate(383.545,37.500)"><circle r="2.5" /></g><g id="node-9" transform="translate(364.660,33.333)"><circle r="2.5" /></g><g id="node-10" transform="translate(377.523,29.167)"><circle r="2.5" /></g><g id="node-11" transform="translate(359.604,68.750)"><circle r="0.0" /></g><g id="node-12" transform="translate(355.597,65.625)"><circle r="0.0" /></g><g id="node-13" transform="translate(356.365,56.250)"><circle r="0.0" /></g><g id="node-14" transform="translate(354.176,60.938)"><circle r="0.0" /></g><g id="node-15" transform="translate(352.387,55.469)"><circle r="0.0" /></g><g id="node-16" transform="translate(336.149,50.651)"><circle r="0.0" /></g><g id="node-17" transform="translate(334.802,39.583)"><circle r="0.0" /></g><g id="node-18" transform="translate(315.480,45.117)"><circle r="0.0" /></g><g id="node-19" transform="translate(310.048,31.250)"><circle r="0.0" /></g><g id="node-20" transform="translate(305.000,38.184)"><circle r="0.0" /></g></g></g></g></g><g class="toyplot-coordinates-Cartesian" id="t01e9a4d38b664cdba856cd6edd089f25"><clipPath id="t0d980ab4b9534d13997ace07712ba799"><rect x="435.0" y="15.0" width="110.0" height="70.0" /></clipPath><g clip-path="url(#t0d980ab4b9534d13997ace07712ba799)"><g class="toytree-mark-Toytree" id="t6fe55108bba84aa6b55e6eecaeecae15"><g class="toytree-Edges" style="fill:none;stroke:rgb(14.9%,14.9%,14.9%);stroke-linecap:round;stroke-opacity:1;stroke-width:0.5"><path d="M 445.0 38.4 L 445.0 31.2 L 456.2 31.2" id="20,19" /><path d="M 445.0 38.4 L 445.0 45.5 L 460.6 45.5" id="20,18" /><path d="M 460.6 45.5 L 460.6 39.6 L 483.0 39.6" id="18,17" /><path d="M 460.6 45.5 L 460.6 51.4 L 480.1 51.4" id="18,16" /><path d="M 480.1 51.4 L 480.1 57.0 L 497.9 57.0" id="16,15" /><path d="M 497.9 57.0 L 497.9 52.1 L 506.2 52.1" id="15,14" /><path d="M 497.9 57.0 L 497.9 62.0 L 500.2 62.0" id="15,13" /><path d="M 500.2 62.0 L 500.2 65.6 L 503.6 65.6" id="13,12" /><path d="M 503.6 65.6 L 503.6 68.8 L 503.7 68.8" id="12,11" /><path d="M 456.2 31.2 L 456.2 29.2 L 510.6 29.2" id="19,10" /><path d="M 456.2 31.2 L 456.2 33.3 L 511.7 33.3" id="19,9" /><path d="M 483.0 39.6 L 483.0 37.5 L 528.0 37.5" id="17,8" /><path d="M 483.0 39.6 L 483.0 41.7 L 530.3 41.7" id="17,7" /><path d="M 480.1 51.4 L 480.1 45.8 L 509.8 45.8" id="16,6" /><path d="M 506.2 52.1 L 506.2 50.0 L 509.2 50.0" id="14,5" /><path d="M 506.2 52.1 L 506.2 54.2 L 510.1 54.2" id="14,4" /><path d="M 500.2 62.0 L 500.2 58.3 L 507.9 58.3" id="13,3" /><path d="M 503.6 65.6 L 503.6 62.5 L 503.6 62.5" id="12,2" /><path d="M 503.7 68.8 L 503.7 66.7 L 507.6 66.7" id="11,1" /><path d="M 503.7 68.8 L 503.7 70.8 L 504.0 70.8" id="11,0" /></g><g class="toytree-Nodes" style="fill:rgb(100%,0%,0%);fill-opacity:1.0;stroke:None;stroke-width:1"><g id="node-0" transform="translate(504.046,70.833)"><circle r="2.5" /></g><g id="node-1" transform="translate(507.599,66.667)"><circle r="2.5" /></g><g id="node-2" transform="translate(503.615,62.500)"><circle r="2.5" /></g><g id="node-3" transform="translate(507.882,58.333)"><circle r="2.5" /></g><g id="node-4" transform="translate(510.144,54.167)"><circle r="2.5" /></g><g id="node-5" transform="translate(509.185,50.000)"><circle r="2.5" /></g><g id="node-6" transform="translate(509.803,45.833)"><circle r="2.5" /></g><g id="node-7" transform="translate(530.263,41.667)"><circle r="2.5" /></g><g id="node-8" transform="translate(528.042,37.500)"><circle r="2.5" /></g><g id="node-9" transform="translate(511.725,33.333)"><circle r="2.5" /></g><g id="node-10" transform="translate(510.554,29.167)"><circle r="2.5" /></g><g id="node-11" transform="translate(503.717,68.750)"><circle r="0.0" /></g><g id="node-12" transform="translate(503.574,65.625)"><circle r="0.0" /></g><g id="node-13" transform="translate(500.242,61.979)"><circle r="0.0" /></g><g id="node-14" transform="translate(506.232,52.083)"><circle r="0.0" /></g><g id="node-15" transform="translate(497.933,57.031)"><circle r="0.0" /></g><g id="node-16" transform="translate(480.140,51.432)"><circle r="0.0" /></g><g id="node-17" transform="translate(482.959,39.583)"><circle r="0.0" /></g><g id="node-18" transform="translate(460.603,45.508)"><circle r="0.0" /></g><g id="node-19" transform="translate(456.208,31.250)"><circle r="0.0" /></g><g id="node-20" transform="translate(445.000,38.379)"><circle r="0.0" /></g></g></g></g></g></svg>