<svg class="toyplot-canvas-Canvas" xmlns:toyplot="http://www.sandia.gov/toyplot" xmlns:xlink="http://www.w3.org/1999/xlink" xmlns="http://www.w3.org/2000/svg" width="560.0px" height="100.0px" viewBox="0 0 560.0 100.0" preserveAspectRatio="xMidYMid meet" style="background-color:transparent;border-color:#292724;border-style:none;border-width:1.0;fill:rgb(16.1%,15.3%,14.1%);fill-opacity:1.0;font-family:Helvetica;font-size:12px;opacity:1.0;stroke:rgb(16.1%,15.3%,14.1%);stroke-opacity:1.0;stroke-width:1.0" id="t1d710a1aa78f4b9b8ef09cb40cc14c9c"><g class="toyplot-coordinates-Cartesian" id="t3336d1949b9144d4a53d6987cfdbc716"><clipPath id="te90e5e0519a24a99a85f4d3a2f75994f"><rect x="15.0" y="15.0" width="110.0" height="70.0" /></clipPath><g clip-path="url(#te90e5e0519a24a99a85f4d3a2f75994f)"><g class="toytree-mark-Toytree" id="t8457138b36934aec8d7903d3b68cd68e"><g class="toytree-Edges" style="fill:none;stroke:rgb(14.9%,14.9%,14.9%);stroke-linecap:round;stroke-opacity:1;stroke-width:0.5"><path d="M 25.0 35.1 L 25.0 31.6 L 28.1 31.6" id="78,77" /><path d="M 25.0 35.1 L 25.0 38.6 L 25.6 38.6" id="78,76" /><path d="M 28.1 31.6 L 28.1 30.0 L 30.3 30.0" id="77,75" /><path d="M 28.1 31.6 L 28.1 33.2 L 43.2 33.2" id="77,74" /><path d="M 25.6 38.6 L 25.6 36.1 L 26.4 36.1" id="76,73" /><path d="M 25.6 38.6 L 25.6 41.2 L 26.9 41.2" id="76,72" /><path d="M 30.3 30.0 L 30.3 30.8 L 57.7 30.8" id="75,71" /><path d="M 43.2 33.2 L 43.2 34.0 L 46.3 34.0" id="74,70" /><path d="M 26.9 41.2 L 26.9 38.2 L 31.4 38.2" id="72,69" /><path d="M 26.9 41.2 L 26.9 44.1 L 30.1 44.1" id="72,68" /><path d="M 30.1 44.1 L 30.1 40.7 L 35.0 40.7" id="68,67" /><path d="M 30.1 44.1 L 30.1 47.6 L 30.4 47.6" id="68,66" /><path d="M 35.0 40.7 L 35.0 41.5 L 40.9 41.5" id="67,65" /><path d="M 30.4 47.6 L 30.4 44.7 L 32.2 44.7" id="66,64" /><path d="M 30.4 47.6 L 30.4 50.5 L 31.5 50.5" id="66,63" /><path d="M 32.2 44.7 L 32.2 43.6 L 38.9 43.6" id="64,62" /><path d="M 32.2 44.7 L 32.2 45.7 L 43.3 45.7" id="64,61" /><path d="M 31.5 50.5 L 31.5 47.9 L 33.8 47.9" id="63,60" /><path d="M 31.5 50.5 L 31.5 53.0 L 31.9 53.0" id="63,59" /><path d="M 31.9 53.0 L 31.9 50.3 L 34.2 50.3" id="59,58" /><path d="M 31.9 53.0 L 31.9 55.8 L 35.0 55.8" id="59,57" /><path d="M 34.2 50.3 L 34.2 51.1 L 38.1 51.1" id="58,56" /><path d="M 35.0 55.8 L 35.0 53.2 L 37.1 53.2" id="57,55" /><path d="M 35.0 55.8 L 35.0 58.4 L 36.1 58.4" id="57,54" /><path d="M 36.1 58.4 L 36.1 55.3 L 68.8 55.3" id="54,53" /><path d="M 36.1 58.4 L 36.1 61.5 L 38.8 61.5" id="54,52" /><path d="M 38.8 61.5 L 38.8 58.5 L 40.9 58.5" id="52,51" /><path d="M 38.8 61.5 L 38.8 64.5 L 41.6 64.5" id="52,50" /><path d="M 40.9 58.5 L 40.9 57.5 L 45.0 57.5" id="51,49" /><path d="M 40.9 58.5 L 40.9 59.6 L 47.4 59.6" id="51,48" /><path d="M 41.6 64.5 L 41.6 62.0 L 44.0 62.0" id="50,47" /><path d="M 41.6 64.5 L 41.6 66.9 L 42.8 66.9" id="50,46" /><path d="M 44.0 62.0 L 44.0 62.8 L 46.0 62.8" id="47,45" /><path d="M 42.8 66.9 L 42.8 65.2 L 47.5 65.2" id="46,44" /><path d="M 42.8 66.9 L 42.8 68.6 L 44.3 68.6" id="46,43" /><path d="M 47.5 65.2 L 47.5 66.0 L 57.9 66.0" id="44,42" /><path d="M 44.3 68.6 L 44.3 69.5 L 45.6 69.5" id="43,41" /><path d="M 45.6 69.5 L 45.6 70.3 L 51.7 70.3" id="41,40" /><path d="M 30.3 30.0 L 30.3 29.2 L 97.3 29.2" id="75,39" /><path d="M 57.7 30.8 L 57.7 30.2 L 104.5 30.2" id="71,38" /><path d="M 57.7 30.8 L 57.7 31.3 L 105.6 31.3" id="71,37" /><path d="M 43.2 33.2 L 43.2 32.4 L 96.5 32.4" id="74,36" /><path d="M 46.3 34.0 L 46.3 33.4 L 100.5 33.4" id="70,35" /><path d="M 46.3 34.0 L 46.3 34.5 L 98.9 34.5" id="70,34" /><path d="M 26.4 36.1 L 26.4 35.6 L 100.9 35.6" id="73,33" /><path d="M 26.4 36.1 L 26.4 36.6 L 97.1 36.6" id="73,32" /><path d="M 31.4 38.2 L 31.4 37.7 L 97.6 37.7" id="69,31" /><path d="M 31.4 38.2 L 31.4 38.8 L 106.0 38.8" id="69,30" /><path d="M 35.0 40.7 L 35.0 39.9 L 104.4 39.9" id="67,29" /><path d="M 40.9 41.5 L 40.9 40.9 L 99.0 40.9" id="65,28" /><path d="M 40.9 41.5 L 40.9 42.0 L 99.6 42.0" id="65,27" /><path d="M 38.9 43.6 L 38.9 43.1 L 108.6 43.1" id="62,26" /><path d="M 38.9 43.6 L 38.9 44.1 L 110.3 44.1" id="62,25" /><path d="M 43.3 45.7 L 43.3 45.2 L 98.1 45.2" id="61,24" /><path d="M 43.3 45.7 L 43.3 46.3 L 100.3 46.3" id="61,23" /><path d="M 33.8 47.9 L 33.8 47.3 L 103.1 47.3" id="60,22" /><path d="M 33.8 47.9 L 33.8 48.4 L 103.6 48.4" id="60,21" /><path d="M 34.2 50.3 L 34.2 49.5 L 107.3 49.5" id="58,20" /><path d="M 38.1 51.1 L 38.1 50.5 L 99.5 50.5" id="56,19" /><path d="M 38.1 51.1 L 38.1 51.6 L 102.6 51.6" id="56,18" /><path d="M 37.1 53.2 L 37.1 52.7 L 101.3 52.7" id="55,17" /><path d="M 37.1 53.2 L 37.1 53.7 L 99.2 53.7" id="55,16" /><path d="M 68.8 55.3 L 68.8 54.8 L 102.7 54.8" id="53,15" /><path d="M 68.8 55.3 L 68.8 55.9 L 103.4 55.9" id="53,14" /><path d="M 45.0 57.5 L 45.0 56.9 L 101.3 56.9" id="49,13" /><path d="M 45.0 57.5 L 45.0 58.0 L 94.7 58.0" id="49,12" /><path d="M 47.4 59.6 L 47.4 59.1 L 93.4 59.1" id="48,11" /><path d="M 47.4 59.6 L 47.4 60.1 L 97.4 60.1" id="48,10" /><path d="M 44.0 62.0 L 44.0 61.2 L 103.0 61.2" id="47,9" /><path d="M 46.0 62.8 L 46.0 62.3 L 95.6 62.3" id="45,8" /><path d="M 46.0 62.8 L 46.0 63.4 L 97.0 63.4" id="45,7" /><path d="M 47.5 65.2 L 47.5 64.4 L 99.8 64.4" id="44,6" /><path d="M 57.9 66.0 L 57.9 65.5 L 99.6 65.5" id="42,5" /><path d="M 57.9 66.0 L 57.9 66.6 L 102.5 66.6" id="42,4" /><path d="M 44.3 68.6 L 44.3 67.6 L 100.3 67.6" id="43,3" /><path d="M 45.6 69.5 L 45.6 68.7 L 95.8 68.7" id="41,2" /><path d="M 51.7 70.3 L 51.7 69.8 L 99.3 69.8" id="40,1" /><path d="M 51.7 70.3 L 51.7 70.8 L 96.0 70.8" id="40,0" /></g><g class="toytree-Nodes" style="fill:rgb(100%,0%,0%);fill-opacity:1.0;stroke:None;stroke-width:1"><g id="node-0" transform="translate(96.003,70.833)"><circle r="2.5" /></g><g id="node-1" transform="translate(99.304,69.765)"><circle r="2.5" /></g><g id="node-2" transform="translate(95.768,68.697)"><circle r="2.5" /></g><g id="node-3" transform="translate(100.276,67.628)"><circle r="2.5" /></g><g id="node-4" transform="translate(102.530,66.560)"><circle r="2.5" /></g><g id="node-5" transform="translate(99.556,65.491)"><circle r="2.5" /></g><g id="node-6" transform="translate(99.818,64.423)"><circle r="2.5" /></g><g id="node-7" transform="translate(96.953,63.355)"><circle r="2.5" /></g><g id="node-8" transform="translate(95.581,62.286)"><circle r="2.5" /></g><g id="node-9" transform="translate(103.005,61.218)"><circle r="2.5" /></g><g id="node-10" transform="translate(97.419,60.150)"><circle r="2.5" /></g><g id="node-11" transform="translate(93.368,59.081)"><circle r="2.5" /></g><g id="node-12" transform="translate(94.658,58.013)"><circle r="2.5" /></g><g id="node-13" transform="translate(101.275,56.944)"><circle r="2.5" /></g><g id="node-14" transform="translate(103.413,55.876)"><circle r="2.5" /></g><g id="node-15" transform="translate(102.679,54.808)"><circle r="2.5" /></g><g id="node-16" transform="translate(99.203,53.739)"><circle r="2.5" /></g><g id="node-17" transform="translate(101.297,52.671)"><circle r="2.5" /></g><g id="node-18" transform="translate(102.579,51.603)"><circle r="2.5" /></g><g id="node-19" transform="translate(99.452,50.534)"><circle r="2.5" /></g><g id="node-20" transform="translate(107.317,49.466)"><circle r="2.5" /></g><g id="node-21" transform="translate(103.632,48.397)"><circle r="2.5" /></g><g id="node-22" transform="translate(103.060,47.329)"><circle r="2.5" /></g><g id="node-23" transform="translate(100.297,46.261)"><circle r="2.5" /></g><g id="node-24" transform="translate(98.061,45.192)"><circle r="2.5" /></g><g id="node-25" transform="translate(110.263,44.124)"><circle r="2.5" /></g><g id="node-26" transform="translate(108.603,43.056)"><circle r="2.5" /></g><g id="node-27" transform="translate(99.621,41.987)"><circle r="2.5" /></g><g id="node-28" transform="translate(99.041,40.919)"><circle r="2.5" /></g><g id="node-29" transform="translate(104.399,39.850)"><circle r="2.5" /></g><g id="node-30" transform="translate(105.990,38.782)"><circle r="2.5" /></g><g id="node-31" transform="translate(97.574,37.714)"><circle r="2.5" /></g><g id="node-32" transform="translate(97.095,36.645)"><circle r="2.5" /></g><g id="node-33" transform="translate(100.901,35.577)"><circle r="2.5" /></g><g id="node-34" transform="translate(98.932,34.509)"><circle r="2.5" /></g><g id="node-35" transform="translate(100.450,33.440)"><circle r="2.5" /></g><g id="node-36" transform="translate(96.453,32.372)"><circle r="2.5" /></g><g id="node-37" transform="translate(105.622,31.303)"><circle r="2.5" /></g><g id="node-38" transform="translate(104.488,30.235)"><circle r="2.5" /></g><g id="node-39" transform="translate(97.346,29.167)"><circle r="2.5" /></g><g id="node-40" transform="translate(51.709,70.299)"><circle r="0.0" /></g><g id="node-41" transform="translate(45.640,69.498)"><circle r="0.0" /></g><g id="node-42" transform="translate(57.859,66.026)"><circle r="0.0" /></g><g id="node-43" transform="translate(44.256,68.563)"><circle r="0.0" /></g><g id="node-44" transform="translate(47.511,65.224)"><circle r="0.0" /></g><g id="node-45" transform="translate(45.985,62.821)"><circle r="0.0" /></g><g id="node-46" transform="translate(42.753,66.894)"><circle r="0.0" /></g><g id="node-47" transform="translate(43.956,62.019)"><circle r="0.0" /></g><g id="node-48" transform="translate(47.379,59.615)"><circle r="0.0" /></g><g id="node-49" transform="translate(45.023,57.479)"><circle r="0.0" /></g><g id="node-50" transform="translate(41.639,64.456)"><circle r="0.0" /></g><g id="node-51" transform="translate(40.913,58.547)"><circle r="0.0" /></g><g id="node-52" transform="translate(38.794,61.502)"><circle r="0.0" /></g><g id="node-53" transform="translate(68.835,55.342)"><circle r="0.0" /></g><g id="node-54" transform="translate(36.149,58.422)"><circle r="0.0" /></g><g id="node-55" transform="translate(37.053,53.205)"><circle r="0.0" /></g><g id="node-56" transform="translate(38.113,51.068)"><circle r="0.0" /></g><g id="node-57" transform="translate(35.012,55.813)"><circle r="0.0" /></g><g id="node-58" transform="translate(34.166,50.267)"><circle r="0.0" /></g><g id="node-59" transform="translate(31.943,53.040)"><circle r="0.0" /></g><g id="node-60" transform="translate(33.838,47.863)"><circle r="0.0" /></g><g id="node-61" transform="translate(43.278,45.726)"><circle r="0.0" /></g><g id="node-62" transform="translate(38.890,43.590)"><circle r="0.0" /></g><g id="node-63" transform="translate(31.462,50.452)"><circle r="0.0" /></g><g id="node-64" transform="translate(32.186,44.658)"><circle r="0.0" /></g><g id="node-65" transform="translate(40.866,41.453)"><circle r="0.0" /></g><g id="node-66" transform="translate(30.407,47.555)"><circle r="0.0" /></g><g id="node-67" transform="translate(34.970,40.652)"><circle r="0.0" /></g><g id="node-68" transform="translate(30.110,44.103)"><circle r="0.0" /></g><g id="node-69" transform="translate(31.387,38.248)"><circle r="0.0" /></g><g id="node-70" transform="translate(46.254,33.974)"><circle r="0.0" /></g><g id="node-71" transform="translate(57.732,30.769)"><circle r="0.0" /></g><g id="node-72" transform="translate(26.884,41.176)"><circle r="0.0" /></g><g id="node-73" transform="translate(26.434,36.111)"><circle r="0.0" /></g><g id="node-74" transform="translate(43.205,33.173)"><circle r="0.0" /></g><g id="node-75" transform="translate(30.314,29.968)"><circle r="0.0" /></g><g id="node-76" transform="translate(25.565,38.643)"><circle r="0.0" /></g><g id="node-77" transform="translate(28.062,31.571)"><circle r="0.0" /></g><g id="node-78" transform="translate(25.000,35.107)"><circle r="0.0" /></g></g></g></g></g><g class="toyplot-coordinates-Cartesian" id="t0f098c01738b43e1acaa8b1f894e3c1e"><clipPath id="t4d5d1800ead44778bbdd2df2ce2c72a2"><rect x="155.0" y="15.0" width="110.0" height="70.0" /></clipPath><g clip-path="url(#t4d5d1800ead44778bbdd2df2ce2c72a2)"><g class="toytree-mark-Toytree" id="te151e7f699214cb996c2171c28737400"><g class="toytree-Edges" style="fill:none;stroke:rgb(14.9%,14.9%,14.9%);stroke-linecap:round;stroke-opacity:1;stroke-width:0.5"><path d="M 165.0 37.5 L 165.0 30.6 L 171.3 30.6" id="78,77" /><path d="M 165.0 37.5 L 165.0 44.5 L 169.7 44.5" id="78,76" /><path d="M 171.3 30.6 L 171.3 32.0 L 174.4 32.0" id="77,75" /><path d="M 169.7 44.5 L 169.7 52.3 L 174.0 52.3" id="76,74" /><path d="M 174.4 32.0 L 174.4 30.8 L 223.4 30.8" id="75,73" /><path d="M 174.4 32.0 L 174.4 33.3 L 181.6 33.3" id="75,72" /><path d="M 174.0 52.3 L 174.0 44.0 L 174.5 44.0" id="74,71" /><path d="M 174.0 52.3 L 174.0 60.7 L 178.0 60.7" id="74,70" /><path d="M 181.6 33.3 L 181.6 34.2 L 197.8 34.2" id="72,69" /><path d="M 174.5 44.0 L 174.5 39.5 L 175.1 39.5" id="71,68" /><path d="M 174.5 44.0 L 174.5 48.5 L 182.1 48.5" id="71,67" /><path d="M 178.0 60.7 L 178.0 57.2 L 181.1 57.2" id="70,66" /><path d="M 178.0 60.7 L 178.0 64.1 L 180.6 64.1" id="70,65" /><path d="M 197.8 34.2 L 197.8 35.0 L 219.5 35.0" id="69,64" /><path d="M 175.1 39.5 L 175.1 41.3 L 181.5 41.3" id="68,63" /><path d="M 182.1 48.5 L 182.1 46.8 L 191.7 46.8" id="67,62" /><path d="M 182.1 48.5 L 182.1 50.2 L 187.3 50.2" id="67,61" /><path d="M 181.1 57.2 L 181.1 55.6 L 189.9 55.6" id="66,60" /><path d="M 181.1 57.2 L 181.1 58.8 L 191.6 58.8" id="66,59" /><path d="M 180.6 64.1 L 180.6 62.0 L 183.1 62.0" id="65,58" /><path d="M 180.6 64.1 L 180.6 66.3 L 194.4 66.3" id="65,57" /><path d="M 181.5 41.3 L 181.5 39.6 L 189.9 39.6" id="63,56" /><path d="M 181.5 41.3 L 181.5 42.9 L 183.8 42.9" id="63,55" /><path d="M 187.3 50.2 L 187.3 48.9 L 200.0 48.9" id="61,54" /><path d="M 187.3 50.2 L 187.3 51.5 L 194.9 51.5" id="61,53" /><path d="M 189.9 55.6 L 189.9 56.4 L 209.6 56.4" id="60,52" /><path d="M 191.6 58.8 L 191.6 59.6 L 221.3 59.6" id="59,51" /><path d="M 183.1 62.0 L 183.1 62.8 L 195.7 62.8" id="58,50" /><path d="M 194.4 66.3 L 194.4 65.0 L 211.5 65.0" id="57,49" /><path d="M 194.4 66.3 L 194.4 67.6 L 209.0 67.6" id="57,48" /><path d="M 189.9 39.6 L 189.9 40.4 L 193.9 40.4" id="56,47" /><path d="M 183.8 42.9 L 183.8 43.9 L 189.2 43.9" id="55,46" /><path d="M 194.9 51.5 L 194.9 52.4 L 200.6 52.4" id="53,45" /><path d="M 209.0 67.6 L 209.0 68.6 L 215.2 68.6" id="48,44" /><path d="M 189.2 43.9 L 189.2 44.7 L 192.8 44.7" id="46,43" /><path d="M 200.6 52.4 L 200.6 53.2 L 208.5 53.2" id="45,42" /><path d="M 215.2 68.6 L 215.2 69.5 L 217.0 69.5" id="44,41" /><path d="M 217.0 69.5 L 217.0 70.3 L 220.3 70.3" id="41,40" /><path d="M 171.3 30.6 L 171.3 29.2 L 190.8 29.2" id="77,39" /><path d="M 223.4 30.8 L 223.4 30.2 L 244.3 30.2" id="73,38" /><path d="M 223.4 30.8 L 223.4 31.3 L 241.0 31.3" id="73,37" /><path d="M 181.6 33.3 L 181.6 32.4 L 237.2 32.4" id="72,36" /><path d="M 197.8 34.2 L 197.8 33.4 L 230.7 33.4" id="69,35" /><path d="M 219.5 35.0 L 219.5 34.5 L 237.3 34.5" id="64,34" /><path d="M 219.5 35.0 L 219.5 35.6 L 238.5 35.6" id="64,33" /><path d="M 169.7 44.5 L 169.7 36.6 L 228.4 36.6" id="76,32" /><path d="M 175.1 39.5 L 175.1 37.7 L 245.8 37.7" id="68,31" /><path d="M 189.9 39.6 L 189.9 38.8 L 229.3 38.8" id="56,30" /><path d="M 193.9 40.4 L 193.9 39.9 L 226.3 39.9" id="47,29" /><path d="M 193.9 40.4 L 193.9 40.9 L 227.5 40.9" id="47,28" /><path d="M 183.8 42.9 L 183.8 42.0 L 224.8 42.0" id="55,27" /><path d="M 189.2 43.9 L 189.2 43.1 L 230.1 43.1" id="46,26" /><path d="M 192.8 44.7 L 192.8 44.1 L 231.4 44.1" id="43,25" /><path d="M 192.8 44.7 L 192.8 45.2 L 225.1 45.2" id="43,24" /><path d="M 191.7 46.8 L 191.7 46.3 L 237.5 46.3" id="62,23" /><path d="M 191.7 46.8 L 191.7 47.3 L 227.9 47.3" id="62,22" /><path d="M 200.0 48.9 L 200.0 48.4 L 225.4 48.4" id="54,21" /><path d="M 200.0 48.9 L 200.0 49.5 L 223.0 49.5" id="54,20" /><path d="M 194.9 51.5 L 194.9 50.5 L 230.3 50.5" id="53,19" /><path d="M 200.6 52.4 L 200.6 51.6 L 225.4 51.6" id="45,18" /><path d="M 208.5 53.2 L 208.5 52.7 L 226.9 52.7" id="42,17" /><path d="M 208.5 53.2 L 208.5 53.7 L 225.0 53.7" id="42,16" /><path d="M 189.9 55.6 L 189.9 54.8 L 189.9 54.8" id="60,15" /><path d="M 209.6 56.4 L 209.6 55.9 L 247.6 55.9" id="52,14" /><path d="M 209.6 56.4 L 209.6 56.9 L 250.3 56.9" id="52,13" /><path d="M 191.6 58.8 L 191.6 58.0 L 207.0 58.0" id="59,12" /><path d="M 221.3 59.6 L 221.3 59.1 L 249.4 59.1" id="51,11" /><path d="M 221.3 59.6 L 221.3 60.1 L 240.4 60.1" id="51,10" /><path d="M 183.1 62.0 L 183.1 61.2 L 185.4 61.2" id="58,9" /><path d="M 195.7 62.8 L 195.7 62.3 L 235.9 62.3" id="50,8" /><path d="M 195.7 62.8 L 195.7 63.4 L 232.2 63.4" id="50,7" /><path d="M 211.5 65.0 L 211.5 64.4 L 218.8 64.4" id="49,6" /><path d="M 211.5 65.0 L 211.5 65.5 L 233.2 65.5" id="49,5" /><path d="M 209.0 67.6 L 209.0 66.6 L 234.1 66.6" id="48,4" /><path d="M 215.2 68.6 L 215.2 67.6 L 236.9 67.6" id="44,3" /><path d="M 217.0 69.5 L 217.0 68.7 L 227.4 68.7" id="41,2" /><path d="M 220.3 70.3 L 220.3 69.8 L 233.6 69.8" id="40,1" /><path d="M 220.3 70.3 L 220.3 70.8 L 230.3 70.8" id="40,0" /></g><g class="toytree-Nodes" style="fill:rgb(100%,0%,0%);fill-opacity:1.0;stroke:None;stroke-width:1"><g id="node-0" transform="translate(230.262,70.833)"><circle r="2.5" /></g><g id="node-1" transform="translate(233.576,69.765)"><circle r="2.5" /></g><g id="node-2" transform="translate(227.419,68.697)"><circle r="2.5" /></g><g id="node-3" transform="translate(236.943,67.628)"><circle r="2.5" /></g><g id="node-4" transform="translate(234.145,66.560)"><circle r="2.5" /></g><g id="node-5" transform="translate(233.186,65.491)"><circle r="2.5" /></g><g id="node-6" transform="translate(218.755,64.423)"><circle r="2.5" /></g><g id="node-7" transform="translate(232.213,63.355)"><circle r="2.5" /></g><g id="node-8" transform="translate(235.913,62.286)"><circle r="2.5" /></g><g id="node-9" transform="translate(185.388,61.218)"><circle r="2.5" /></g><g id="node-10" transform="translate(240.387,60.150)"><circle r="2.5" /></g><g id="node-11" transform="translate(249.423,59.081)"><circle r="2.5" /></g><g id="node-12" transform="translate(207.009,58.013)"><circle r="2.5" /></g><g id="node-13" transform="translate(250.263,56.944)"><circle r="2.5" /></g><g id="node-14" transform="translate(247.566,55.876)"><circle r="2.5" /></g><g id="node-15" transform="translate(189.891,54.808)"><circle r="2.5" /></g><g id="node-16" transform="translate(224.956,53.739)"><circle r="2.5" /></g><g id="node-17" transform="translate(226.858,52.671)"><circle r="2.5" /></g><g id="node-18" transform="translate(225.417,51.603)"><circle r="2.5" /></g><g id="node-19" transform="translate(230.269,50.534)"><circle r="2.5" /></g><g id="node-20" transform="translate(223.050,49.466)"><circle r="2.5" /></g><g id="node-21" transform="translate(225.383,48.397)"><circle r="2.5" /></g><g id="node-22" transform="translate(227.925,47.329)"><circle r="2.5" /></g><g id="node-23" transform="translate(237.533,46.261)"><circle r="2.5" /></g><g id="node-24" transform="translate(225.138,45.192)"><circle r="2.5" /></g><g id="node-25" transform="translate(231.395,44.124)"><circle r="2.5" /></g><g id="node-26" transform="translate(230.098,43.056)"><circle r="2.5" /></g><g id="node-27" transform="translate(224.844,41.987)"><circle r="2.5" /></g><g id="node-28" transform="translate(227.464,40.919)"><circle r="2.5" /></g><g id="node-29" transform="translate(226.282,39.850)"><circle r="2.5" /></g><g id="node-30" transform="translate(229.255,38.782)"><circle r="2.5" /></g><g id="node-31" transform="translate(245.816,37.714)"><circle r="2.5" /></g><g id="node-32" transform="translate(228.352,36.645)"><circle r="2.5" /></g><g id="node-33" transform="translate(238.540,35.577)"><circle r="2.5" /></g><g id="node-34" transform="translate(237.306,34.509)"><circle r="2.5" /></g><g id="node-35" transform="translate(230.733,33.440)"><circle r="2.5" /></g><g id="node-36" transform="translate(237.176,32.372)"><circle r="2.5" /></g><g id="node-37" transform="translate(241.010,31.303)"><circle r="2.5" /></g><g id="node-38" transform="translate(244.332,30.235)"><circle r="2.5" /></g><g id="node-39" transform="translate(190.794,29.167)"><circle r="2.5" /></g><g id="node-40" transform="translate(220.252,70.299)"><circle r="0.0" /></g><g id="node-41" transform="translate(217.027,69.498)"><circle r="0.0" /></g><g id="node-42" transform="translate(208.537,53.205)"><circle r="0.0" /></g><g id="node-43" transform="translate(192.801,44.658)"><circle r="0.0" /></g><g id="node-44" transform="translate(215.206,68.563)"><circle r="0.0" /></g><g id="node-45" transform="translate(200.618,52.404)"><circle r="0.0" /></g><g id="node-46" transform="translate(189.193,43.857)"><circle r="0.0" /></g><g id="node-47" transform="translate(193.915,40.385)"><circle r="0.0" /></g><g id="node-48" transform="translate(208.994,67.561)"><circle r="0.0" /></g><g id="node-49" transform="translate(211.516,64.957)"><circle r="0.0" /></g><g id="node-50" transform="translate(195.662,62.821)"><circle r="0.0" /></g><g id="node-51" transform="translate(221.274,59.615)"><circle r="0.0" /></g><g id="node-52" transform="translate(209.584,56.410)"><circle r="0.0" /></g><g id="node-53" transform="translate(194.919,51.469)"><circle r="0.0" /></g><g id="node-54" transform="translate(200.046,48.932)"><circle r="0.0" /></g><g id="node-55" transform="translate(183.828,42.922)"><circle r="0.0" /></g><g id="node-56" transform="translate(189.858,39.583)"><circle r="0.0" /></g><g id="node-57" transform="translate(194.350,66.259)"><circle r="0.0" /></g><g id="node-58" transform="translate(183.084,62.019)"><circle r="0.0" /></g><g id="node-59" transform="translate(191.560,58.814)"><circle r="0.0" /></g><g id="node-60" transform="translate(189.891,55.609)"><circle r="0.0" /></g><g id="node-61" transform="translate(187.264,50.200)"><circle r="0.0" /></g><g id="node-62" transform="translate(191.690,46.795)"><circle r="0.0" /></g><g id="node-63" transform="translate(181.468,41.253)"><circle r="0.0" /></g><g id="node-64" transform="translate(219.530,35.043)"><circle r="0.0" /></g><g id="node-65" transform="translate(180.573,64.139)"><circle r="0.0" /></g><g id="node-66" transform="translate(181.074,57.212)"><circle r="0.0" /></g><g id="node-67" transform="translate(182.122,48.498)"><circle r="0.0" /></g><g id="node-68" transform="translate(175.140,39.483)"><circle r="0.0" /></g><g id="node-69" transform="translate(197.812,34.241)"><circle r="0.0" /></g><g id="node-70" transform="translate(178.050,60.675)"><circle r="0.0" /></g><g id="node-71" transform="translate(174.527,43.990)"><circle r="0.0" /></g><g id="node-72" transform="translate(181.583,33.307)"><circle r="0.0" /></g><g id="node-73" transform="translate(223.369,30.769)"><circle r="0.0" /></g><g id="node-74" transform="translate(173.977,52.333)"><circle r="0.0" /></g><g id="node-75" transform="translate(174.356,32.038)"><circle r="0.0" /></g><g id="node-76" transform="translate(169.678,44.489)"><circle r="0.0" /></g><g id="node-77" transform="translate(171.290,30.602)"><circle r="0.0" /></g><g id="node-78" transform="translate(165.000,37.546)"><circle r="0.0" /></g></g></g></g></g><g class="toyplot-coordinates-Cartesian" id="t3e42b93d970045e3aa1c181612bdb9e3"><clipPath id="t9b78d06dd6c54c5b8a047a7ac26f63ba"><rect x="295.0" y="15.0" width="110.0" height="70.0" /></clipPath><g clip-path="url(#t9b78d06dd6c54c5b8a047a7ac26f63ba)"><g class="toytree-mark-Toytree" id="t274a695d0ccf4667b2f262d5b1255659"><g class="toytree-Edges" style="fill:none;stroke:rgb(14.9%,14.9%,14.9%);stroke-linecap:round;stroke-opacity:1;stroke-width:0.5"><path d="M 305.0 31.6 L 305.0 29.7 L 340.3 29.7" id="78,77" /><path d="M 305.0 31.6 L 305.0 33.5 L 309.9 33.5" id="78,76" /><path d="M 309.9 33.5 L 309.9 35.7 L 313.5 35.7" id="76,75" /><path d="M 313.5 35.7 L 313.5 32.9 L 327.5 32.9" id="75,74" /><path d="M 313.5 35.7 L 313.5 38.5 L 314.9 38.5" id="75,73" /><path d="M 314.9 38.5 L 314.9 35.0 L 325.2 35.0" id="73,72" /><path d="M 314.9 38.5 L 314.9 42.0 L 320.0 42.0" id="73,71" /><path d="M 320.0 42.0 L 320.0 38.4 L 322.4 38.4" id="71,70" /><path d="M 320.0 42.0 L 320.0 45.5 L 320.7 45.5" id="71,69" /><path d="M 322.4 38.4 L 322.4 37.2 L 330.9 37.2" id="70,68" /><path d="M 322.4 38.4 L 322.4 39.7 L 325.5 39.7" id="70,67" /><path d="M 320.7 45.5 L 320.7 43.6 L 331.2 43.6" id="69,66" /><path d="M 320.7 45.5 L 320.7 47.5 L 322.5 47.5" id="69,65" /><path d="M 325.5 39.7 L 325.5 40.7 L 355.6 40.7" id="67,64" /><path d="M 322.5 47.5 L 322.5 49.7 L 324.6 49.7" id="65,63" /><path d="M 355.6 40.7 L 355.6 41.5 L 357.3 41.5" id="64,62" /><path d="M 324.6 49.7 L 324.6 47.1 L 335.6 47.1" id="63,61" /><path d="M 324.6 49.7 L 324.6 52.4 L 327.5 52.4" id="63,60" /><path d="M 335.6 47.1 L 335.6 47.9 L 338.9 47.9" id="61,59" /><path d="M 327.5 52.4 L 327.5 55.3 L 329.1 55.3" id="60,58" /><path d="M 329.1 55.3 L 329.1 60.1 L 331.6 60.1" id="58,57" /><path d="M 331.6 60.1 L 331.6 55.2 L 333.6 55.2" id="57,56" /><path d="M 331.6 60.1 L 331.6 65.1 L 334.1 65.1" id="57,55" /><path d="M 333.6 55.2 L 333.6 53.2 L 334.9 53.2" id="56,54" /><path d="M 333.6 55.2 L 333.6 57.2 L 334.6 57.2" id="56,53" /><path d="M 334.1 65.1 L 334.1 62.8 L 340.2 62.8" id="55,52" /><path d="M 334.1 65.1 L 334.1 67.3 L 336.5 67.3" id="55,51" /><path d="M 334.9 53.2 L 334.9 52.1 L 337.4 52.1" id="54,50" /><path d="M 334.9 53.2 L 334.9 54.3 L 336.7 54.3" id="54,49" /><path d="M 334.6 57.2 L 334.6 58.5 L 337.4 58.5" id="53,48" /><path d="M 340.2 62.8 L 340.2 61.8 L 344.3 61.8" id="52,47" /><path d="M 340.2 62.8 L 340.2 63.9 L 343.0 63.9" id="52,46" /><path d="M 336.5 67.3 L 336.5 66.0 L 340.5 66.0" id="51,45" /><path d="M 336.5 67.3 L 336.5 68.6 L 337.6 68.6" id="51,44" /><path d="M 337.4 58.5 L 337.4 57.5 L 339.7 57.5" id="48,43" /><path d="M 337.4 58.5 L 337.4 59.6 L 365.0 59.6" id="48,42" /><path d="M 337.6 68.6 L 337.6 69.5 L 344.5 69.5" id="44,41" /><path d="M 344.5 69.5 L 344.5 70.3 L 352.3 70.3" id="41,40" /><path d="M 340.3 29.7 L 340.3 29.2 L 370.0 29.2" id="77,39" /><path d="M 340.3 29.7 L 340.3 30.2 L 367.6 30.2" id="77,38" /><path d="M 309.9 33.5 L 309.9 31.3 L 357.3 31.3" id="76,37" /><path d="M 327.5 32.9 L 327.5 32.4 L 346.8 32.4" id="74,36" /><path d="M 327.5 32.9 L 327.5 33.4 L 354.0 33.4" id="74,35" /><path d="M 325.2 35.0 L 325.2 34.5 L 369.0 34.5" id="72,34" /><path d="M 325.2 35.0 L 325.2 35.6 L 380.4 35.6" id="72,33" /><path d="M 330.9 37.2 L 330.9 36.6 L 384.7 36.6" id="68,32" /><path d="M 330.9 37.2 L 330.9 37.7 L 373.3 37.7" id="68,31" /><path d="M 325.5 39.7 L 325.5 38.8 L 379.7 38.8" id="67,30" /><path d="M 355.6 40.7 L 355.6 39.9 L 377.5 39.9" id="64,29" /><path d="M 357.3 41.5 L 357.3 40.9 L 385.4 40.9" id="62,28" /><path d="M 357.3 41.5 L 357.3 42.0 L 375.6 42.0" id="62,27" /><path d="M 331.2 43.6 L 331.2 43.1 L 383.8 43.1" id="66,26" /><path d="M 331.2 43.6 L 331.2 44.1 L 368.2 44.1" id="66,25" /><path d="M 322.5 47.5 L 322.5 45.2 L 379.6 45.2" id="65,24" /><path d="M 335.6 47.1 L 335.6 46.3 L 380.7 46.3" id="61,23" /><path d="M 338.9 47.9 L 338.9 47.3 L 370.7 47.3" id="59,22" /><path d="M 338.9 47.9 L 338.9 48.4 L 365.9 48.4" id="59,21" /><path d="M 327.5 52.4 L 327.5 49.5 L 372.1 49.5" id="60,20" /><path d="M 329.1 55.3 L 329.1 50.5 L 366.3 50.5" id="58,19" /><path d="M 337.4 52.1 L 337.4 51.6 L 368.3 51.6" id="50,18" /><path d="M 337.4 52.1 L 337.4 52.7 L 381.8 52.7" id="50,17" /><path d="M 336.7 54.3 L 336.7 53.7 L 363.8 53.7" id="49,16" /><path d="M 336.7 54.3 L 336.7 54.8 L 361.0 54.8" id="49,15" /><path d="M 334.6 57.2 L 334.6 55.9 L 368.1 55.9" id="53,14" /><path d="M 339.7 57.5 L 339.7 56.9 L 378.6 56.9" id="43,13" /><path d="M 339.7 57.5 L 339.7 58.0 L 390.3 58.0" id="43,12" /><path d="M 365.0 59.6 L 365.0 59.1 L 372.2 59.1" id="42,11" /><path d="M 365.0 59.6 L 365.0 60.1 L 373.7 60.1" id="42,10" /><path d="M 344.3 61.8 L 344.3 61.2 L 366.3 61.2" id="47,9" /><path d="M 344.3 61.8 L 344.3 62.3 L 377.1 62.3" id="47,8" /><path d="M 343.0 63.9 L 343.0 63.4 L 359.1 63.4" id="46,7" /><path d="M 343.0 63.9 L 343.0 64.4 L 359.8 64.4" id="46,6" /><path d="M 340.5 66.0 L 340.5 65.5 L 355.9 65.5" id="45,5" /><path d="M 340.5 66.0 L 340.5 66.6 L 358.9 66.6" id="45,4" /><path d="M 337.6 68.6 L 337.6 67.6 L 363.1 67.6" id="44,3" /><path d="M 344.5 69.5 L 344.5 68.7 L 371.2 68.7" id="41,2" /><path d="M 352.3 70.3 L 352.3 69.8 L 367.1 69.8" id="40,1" /><path d="M 352.3 70.3 L 352.3 70.8 L 365.4 70.8" id="40,0" /></g><g class="toytree-Nodes" style="fill:rgb(100%,0%,0%);fill-opacity:1.0;stroke:None;stroke-width:1"><g id="node-0" transform="translate(365.406,70.833)"><circle r="2.5" /></g><g id="node-1" transform="translate(367.113,69.765)"><circle r="2.5" /></g><g id="node-2" transform="translate(371.153,68.697)"><circle r="2.5" /></g><g id="node-3" transform="translate(363.135,67.628)"><circle r="2.5" /></g><g id="node-4" transform="translate(358.898,66.560)"><circle r="2.5" /></g><g id="node-5" transform="translate(355.929,65.491)"><circle r="2.5" /></g><g id="node-6" transform="translate(359.803,64.423)"><circle r="2.5" /></g><g id="node-7" transform="translate(359.072,63.355)"><circle r="2.5" /></g><g id="node-8" transform="translate(377.096,62.286)"><circle r="2.5" /></g><g id="node-9" transform="translate(366.304,61.218)"><circle r="2.5" /></g><g id="node-10" transform="translate(373.724,60.150)"><circle r="2.5" /></g><g id="node-11" transform="translate(372.195,59.081)"><circle r="2.5" /></g><g id="node-12" transform="translate(390.263,58.013)"><circle r="2.5" /></g><g id="node-13" transform="translate(378.644,56.944)"><circle r="2.5" /></g><g id="node-14" transform="translate(368.051,55.876)"><circle r="2.5" /></g><g id="node-15" transform="translate(361.007,54.808)"><circle r="2.5" /></g><g id="node-16" transform="translate(363.807,53.739)"><circle r="2.5" /></g><g id="node-17" transform="translate(381.820,52.671)"><circle r="2.5" /></g><g id="node-18" transform="translate(368.265,51.603)"><circle r="2.5" /></g><g id="node-19" transform="translate(366.252,50.534)"><circle r="2.5" /></g><g id="node-20" transform="translate(372.080,49.466)"><circle r="2.5" /></g><g id="node-21" transform="translate(365.938,48.397)"><circle r="2.5" /></g><g id="node-22" transform="translate(370.725,47.329)"><circle r="2.5" /></g><g id="node-23" transform="translate(380.723,46.261)"><circle r="2.5" /></g><g id="node-24" transform="translate(379.648,45.192)"><circle r="2.5" /></g><g id="node-25" transform="translate(368.151,44.124)"><circle r="2.5" /></g><g id="node-26" transform="translate(383.752,43.056)"><circle r="2.5" /></g><g id="node-27" transform="translate(375.567,41.987)"><circle r="2.5" /></g><g id="node-28" transform="translate(385.377,40.919)"><circle r="2.5" /></g><g id="node-29" transform="translate(377.510,39.850)"><circle r="2.5" /></g><g id="node-30" transform="translate(379.659,38.782)"><circle r="2.5" /></g><g id="node-31" transform="translate(373.273,37.714)"><circle r="2.5" /></g><g id="node-32" transform="translate(384.686,36.645)"><circle r="2.5" /></g><g id="node-33" transform="translate(380.391,35.577)"><circle r="2.5" /></g><g id="node-34" transform="translate(368.978,34.509)"><circle r="2.5" /></g><g id="node-35" transform="translate(354.005,33.440)"><circle r="2.5" /></g><g id="node-36" transform="translate(346.817,32.372)"><circle r="2.5" /></g><g id="node-37" transform="translate(357.314,31.303)"><circle r="2.5" /></g><g id="node-38" transform="translate(367.641,30.235)"><circle r="2.5" /></g><g id="node-39" transform="translate(370.049,29.167)"><circle r="2.5" /></g><g id="node-40" transform="translate(352.335,70.299)"><circle r="0.0" /></g><g id="node-41" transform="translate(344.505,69.498)"><circle r="0.0" /></g><g id="node-42" transform="translate(364.982,59.615)"><circle r="0.0" /></g><g id="node-43" transform="translate(339.707,57.479)"><circle r="0.0" /></g><g id="node-44" transform="translate(337.554,68.563)"><circle r="0.0" /></g><g id="node-45" transform="translate(340.535,66.026)"><circle r="0.0" /></g><g id="node-46" transform="translate(343.002,63.889)"><circle r="0.0" /></g><g id="node-47" transform="translate(344.331,61.752)"><circle r="0.0" /></g><g id="node-48" transform="translate(337.358,58.547)"><circle r="0.0" /></g><g id="node-49" transform="translate(336.701,54.274)"><circle r="0.0" /></g><g id="node-50" transform="translate(337.388,52.137)"><circle r="0.0" /></g><g id="node-51" transform="translate(336.505,67.294)"><circle r="0.0" /></g><g id="node-52" transform="translate(340.158,62.821)"><circle r="0.0" /></g><g id="node-53" transform="translate(334.570,57.212)"><circle r="0.0" /></g><g id="node-54" transform="translate(334.902,53.205)"><circle r="0.0" /></g><g id="node-55" transform="translate(334.115,65.057)"><circle r="0.0" /></g><g id="node-56" transform="translate(333.580,55.208)"><circle r="0.0" /></g><g id="node-57" transform="translate(331.645,60.133)"><circle r="0.0" /></g><g id="node-58" transform="translate(329.063,55.334)"><circle r="0.0" /></g><g id="node-59" transform="translate(338.876,47.863)"><circle r="0.0" /></g><g id="node-60" transform="translate(327.471,52.400)"><circle r="0.0" /></g><g id="node-61" transform="translate(335.571,47.062)"><circle r="0.0" /></g><g id="node-62" transform="translate(357.295,41.453)"><circle r="0.0" /></g><g id="node-63" transform="translate(324.623,49.731)"><circle r="0.0" /></g><g id="node-64" transform="translate(355.611,40.652)"><circle r="0.0" /></g><g id="node-65" transform="translate(322.500,47.462)"><circle r="0.0" /></g><g id="node-66" transform="translate(331.242,43.590)"><circle r="0.0" /></g><g id="node-67" transform="translate(325.451,39.717)"><circle r="0.0" /></g><g id="node-68" transform="translate(330.928,37.179)"><circle r="0.0" /></g><g id="node-69" transform="translate(320.716,45.526)"><circle r="0.0" /></g><g id="node-70" transform="translate(322.370,38.448)"><circle r="0.0" /></g><g id="node-71" transform="translate(319.973,41.987)"><circle r="0.0" /></g><g id="node-72" transform="translate(325.229,35.043)"><circle r="0.0" /></g><g id="node-73" transform="translate(314.887,38.515)"><circle r="0.0" /></g><g id="node-74" transform="translate(327.475,32.906)"><circle r="0.0" /></g><g id="node-75" transform="translate(313.506,35.710)"><circle r="0.0" /></g><g id="node-76" transform="translate(309.905,33.507)"><circle r="0.0" /></g><g id="node-77" transform="translate(340.313,29.701)"><circle r="0.0" /></g><g id="node-78" transform="translate(305.000,31.604)"><circle r="0.0" /></g></g></g></g></g><g class="toyplot-coordinates-Cartesian" id="t798cfe769aad4c27ac28b577c0b61ed2"><clipPath id="t939e5bf969c64fd28ef20a1689f52e2c"><rect x="435.0" y="15.0" width="110.0" height="70.0" /></clipPath><g clip-path="url(#t939e5bf969c64fd28ef20a1689f52e2c)"><g class="toytree-mark-Toytree" id="tdd5c4d9aa5a94cd68b6de937c164c8e7"><g class="toytree-Edges" style="fill:none;stroke:rgb(14.9%,14.9%,14.9%);stroke-linecap:round;stroke-opacity:1;stroke-width:0.5"><path d="M 445.0 36.5 L 445.0 31.7 L 449.9 31.7" id="78,77" /><path d="M 445.0 36.5 L 445.0 41.3 L 447.3 41.3" id="78,76" /><path d="M 449.9 31.7 L 449.9 29.7 L 458.1 29.7" id="77,75" /><path d="M 449.9 31.7 L 449.9 33.7 L 456.8 33.7" id="77,74" /><path d="M 447.3 41.3 L 447.3 38.2 L 450.7 38.2" id="76,73" /><path d="M 447.3 41.3 L 447.3 44.4 L 457.8 44.4" id="76,72" /><path d="M 456.8 33.7 L 456.8 32.1 L 476.1 32.1" id="74,71" /><path d="M 456.8 33.7 L 456.8 35.3 L 473.0 35.3" id="74,70" /><path d="M 457.8 44.4 L 457.8 40.7 L 461.3 40.7" id="72,69" /><path d="M 457.8 44.4 L 457.8 48.1 L 462.0 48.1" id="72,68" /><path d="M 476.1 32.1 L 476.1 32.9 L 480.0 32.9" id="71,67" /><path d="M 473.0 35.3 L 473.0 36.1 L 509.5 36.1" id="70,66" /><path d="M 461.3 40.7 L 461.3 41.5 L 472.2 41.5" id="69,65" /><path d="M 462.0 48.1 L 462.0 44.8 L 472.9 44.8" id="68,64" /><path d="M 462.0 48.1 L 462.0 51.4 L 464.3 51.4" id="68,63" /><path d="M 472.9 44.8 L 472.9 43.6 L 485.8 43.6" id="64,62" /><path d="M 472.9 44.8 L 472.9 46.0 L 473.9 46.0" id="64,61" /><path d="M 464.3 51.4 L 464.3 48.9 L 468.5 48.9" id="63,60" /><path d="M 464.3 51.4 L 464.3 53.9 L 465.6 53.9" id="63,59" /><path d="M 473.9 46.0 L 473.9 46.8 L 494.2 46.8" id="61,58" /><path d="M 465.6 53.9 L 465.6 51.3 L 471.4 51.3" id="59,57" /><path d="M 465.6 53.9 L 465.6 56.5 L 467.5 56.5" id="59,56" /><path d="M 471.4 51.3 L 471.4 52.1 L 479.1 52.1" id="57,55" /><path d="M 467.5 56.5 L 467.5 54.3 L 472.2 54.3" id="56,54" /><path d="M 467.5 56.5 L 467.5 58.7 L 469.5 58.7" id="56,53" /><path d="M 469.5 58.7 L 469.5 56.7 L 472.5 56.7" id="53,52" /><path d="M 469.5 58.7 L 469.5 60.6 L 470.7 60.6" id="53,51" /><path d="M 472.5 56.7 L 472.5 57.5 L 474.8 57.5" id="52,50" /><path d="M 470.7 60.6 L 470.7 62.2 L 475.0 62.2" id="51,49" /><path d="M 475.0 62.2 L 475.0 60.7 L 502.7 60.7" id="49,48" /><path d="M 475.0 62.2 L 475.0 63.7 L 475.5 63.7" id="49,47" /><path d="M 475.5 63.7 L 475.5 65.1 L 477.9 65.1" id="47,46" /><path d="M 477.9 65.1 L 477.9 66.9 L 480.1 66.9" id="46,45" /><path d="M 480.1 66.9 L 480.1 65.2 L 481.7 65.2" id="45,44" /><path d="M 480.1 66.9 L 480.1 68.6 L 483.0 68.6" id="45,43" /><path d="M 481.7 65.2 L 481.7 66.0 L 487.3 66.0" id="44,42" /><path d="M 483.0 68.6 L 483.0 69.5 L 489.0 69.5" id="43,41" /><path d="M 489.0 69.5 L 489.0 70.3 L 498.5 70.3" id="41,40" /><path d="M 458.1 29.7 L 458.1 29.2 L 491.8 29.2" id="75,39" /><path d="M 458.1 29.7 L 458.1 30.2 L 490.8 30.2" id="75,38" /><path d="M 476.1 32.1 L 476.1 31.3 L 492.1 31.3" id="71,37" /><path d="M 480.0 32.9 L 480.0 32.4 L 500.6 32.4" id="67,36" /><path d="M 480.0 32.9 L 480.0 33.4 L 498.0 33.4" id="67,35" /><path d="M 473.0 35.3 L 473.0 34.5 L 513.6 34.5" id="70,34" /><path d="M 509.5 36.1 L 509.5 35.6 L 528.0 35.6" id="66,33" /><path d="M 509.5 36.1 L 509.5 36.6 L 521.3 36.6" id="66,32" /><path d="M 450.7 38.2 L 450.7 37.7 L 502.0 37.7" id="73,31" /><path d="M 450.7 38.2 L 450.7 38.8 L 490.3 38.8" id="73,30" /><path d="M 461.3 40.7 L 461.3 39.9 L 497.9 39.9" id="69,29" /><path d="M 472.2 41.5 L 472.2 40.9 L 495.6 40.9" id="65,28" /><path d="M 472.2 41.5 L 472.2 42.0 L 497.0 42.0" id="65,27" /><path d="M 485.8 43.6 L 485.8 43.1 L 530.3 43.1" id="62,26" /><path d="M 485.8 43.6 L 485.8 44.1 L 518.2 44.1" id="62,25" /><path d="M 473.9 46.0 L 473.9 45.2 L 498.8 45.2" id="61,24" /><path d="M 494.2 46.8 L 494.2 46.3 L 513.4 46.3" id="58,23" /><path d="M 494.2 46.8 L 494.2 47.3 L 521.9 47.3" id="58,22" /><path d="M 468.5 48.9 L 468.5 48.4 L 491.8 48.4" id="60,21" /><path d="M 468.5 48.9 L 468.5 49.5 L 499.1 49.5" id="60,20" /><path d="M 471.4 51.3 L 471.4 50.5 L 516.6 50.5" id="57,19" /><path d="M 479.1 52.1 L 479.1 51.6 L 512.9 51.6" id="55,18" /><path d="M 479.1 52.1 L 479.1 52.7 L 516.1 52.7" id="55,17" /><path d="M 472.2 54.3 L 472.2 53.7 L 492.9 53.7" id="54,16" /><path d="M 472.2 54.3 L 472.2 54.8 L 487.5 54.8" id="54,15" /><path d="M 472.5 56.7 L 472.5 55.9 L 486.2 55.9" id="52,14" /><path d="M 474.8 57.5 L 474.8 56.9 L 501.6 56.9" id="50,13" /><path d="M 474.8 57.5 L 474.8 58.0 L 495.3 58.0" id="50,12" /><path d="M 470.7 60.6 L 470.7 59.1 L 505.7 59.1" id="51,11" /><path d="M 502.7 60.7 L 502.7 60.1 L 514.6 60.1" id="48,10" /><path d="M 502.7 60.7 L 502.7 61.2 L 507.5 61.2" id="48,9" /><path d="M 475.5 63.7 L 475.5 62.3 L 492.0 62.3" id="47,8" /><path d="M 477.9 65.1 L 477.9 63.4 L 495.9 63.4" id="46,7" /><path d="M 481.7 65.2 L 481.7 64.4 L 503.3 64.4" id="44,6" /><path d="M 487.3 66.0 L 487.3 65.5 L 504.0 65.5" id="42,5" /><path d="M 487.3 66.0 L 487.3 66.6 L 497.7 66.6" id="42,4" /><path d="M 483.0 68.6 L 483.0 67.6 L 496.3 67.6" id="43,3" /><path d="M 489.0 69.5 L 489.0 68.7 L 508.1 68.7" id="41,2" /><path d="M 498.5 70.3 L 498.5 69.8 L 511.2 69.8" id="40,1" /><path d="M 498.5 70.3 L 498.5 70.8 L 509.3 70.8" id="40,0" /></g><g class="toytree-Nodes" style="fill:rgb(100%,0%,0%);fill-opacity:1.0;stroke:None;stroke-width:1"><g id="node-0" transform="translate(509.317,70.833)"><circle r="2.5" /></g><g id="node-1" transform="translate(511.188,69.765)"><circle r="2.5" /></g><g id="node-2" transform="translate(508.119,68.697)"><circle r="2.5" /></g><g id="node-3" transform="translate(496.321,67.628)"><circle r="2.5" /></g><g id="node-4" transform="translate(497.698,66.560)"><circle r="2.5" /></g><g id="node-5" transform="translate(503.961,65.491)"><circle r="2.5" /></g><g id="node-6" transform="translate(503.303,64.423)"><circle r="2.5" /></g><g id="node-7" transform="translate(495.890,63.355)"><circle r="2.5" /></g><g id="node-8" transform="translate(492.033,62.286)"><circle r="2.5" /></g><g id="node-9" transform="translate(507.494,61.218)"><circle r="2.5" /></g><g id="node-10" transform="translate(514.556,60.150)"><circle r="2.5" /></g><g id="node-11" transform="translate(505.717,59.081)"><circle r="2.5" /></g><g id="node-12" transform="translate(495.337,58.013)"><circle r="2.5" /></g><g id="node-13" transform="translate(501.589,56.944)"><circle r="2.5" /></g><g id="node-14" transform="translate(486.173,55.876)"><circle r="2.5" /></g><g id="node-15" transform="translate(487.484,54.808)"><circle r="2.5" /></g><g id="node-16" transform="translate(492.877,53.739)"><circle r="2.5" /></g><g id="node-17" transform="translate(516.133,52.671)"><circle r="2.5" /></g><g id="node-18" transform="translate(512.935,51.603)"><circle r="2.5" /></g><g id="node-19" transform="translate(516.633,50.534)"><circle r="2.5" /></g><g id="node-20" transform="translate(499.148,49.466)"><circle r="2.5" /></g><g id="node-21" transform="translate(491.812,48.397)"><circle r="2.5" /></g><g id="node-22" transform="translate(521.943,47.329)"><circle r="2.5" /></g><g id="node-23" transform="translate(513.357,46.261)"><circle r="2.5" /></g><g id="node-24" transform="translate(498.814,45.192)"><circle r="2.5" /></g><g id="node-25" transform="translate(518.193,44.124)"><circle r="2.5" /></g><g id="node-26" transform="translate(530.263,43.056)"><circle r="2.5" /></g><g id="node-27" transform="translate(496.984,41.987)"><circle r="2.5" /></g><g id="node-28" transform="translate(495.577,40.919)"><circle r="2.5" /></g><g id="node-29" transform="translate(497.931,39.850)"><circle r="2.5" /></g><g id="node-30" transform="translate(490.330,38.782)"><circle r="2.5" /></g><g id="node-31" transform="translate(502.005,37.714)"><circle r="2.5" /></g><g id="node-32" transform="translate(521.338,36.645)"><circle r="2.5" /></g><g id="node-33" transform="translate(528.007,35.577)"><circle r="2.5" /></g><g id="node-34" transform="translate(513.555,34.509)"><circle r="2.5" /></g><g id="node-35" transform="translate(498.008,33.440)"><circle r="2.5" /></g><g id="node-36" transform="translate(500.602,32.372)"><circle r="2.5" /></g><g id="node-37" transform="translate(492.077,31.303)"><circle r="2.5" /></g><g id="node-38" transform="translate(490.796,30.235)"><circle r="2.5" /></g><g id="node-39" transform="translate(491.821,29.167)"><circle r="2.5" /></g><g id="node-40" transform="translate(498.493,70.299)"><circle r="0.0" /></g><g id="node-41" transform="translate(489.049,69.498)"><circle r="0.0" /></g><g id="node-42" transform="translate(487.261,66.026)"><circle r="0.0" /></g><g id="node-43" transform="translate(482.991,68.563)"><circle r="0.0" /></g><g id="node-44" transform="translate(481.660,65.224)"><circle r="0.0" /></g><g id="node-45" transform="translate(480.051,66.894)"><circle r="0.0" /></g><g id="node-46" transform="translate(477.863,65.124)"><circle r="0.0" /></g><g id="node-47" transform="translate(475.507,63.705)"><circle r="0.0" /></g><g id="node-48" transform="translate(502.682,60.684)"><circle r="0.0" /></g><g id="node-49" transform="translate(474.959,62.195)"><circle r="0.0" /></g><g id="node-50" transform="translate(474.751,57.479)"><circle r="0.0" /></g><g id="node-51" transform="translate(470.679,60.638)"><circle r="0.0" /></g><g id="node-52" transform="translate(472.507,56.677)"><circle r="0.0" /></g><g id="node-53" transform="translate(469.531,58.658)"><circle r="0.0" /></g><g id="node-54" transform="translate(472.160,54.274)"><circle r="0.0" /></g><g id="node-55" transform="translate(479.096,52.137)"><circle r="0.0" /></g><g id="node-56" transform="translate(467.481,56.466)"><circle r="0.0" /></g><g id="node-57" transform="translate(471.399,51.335)"><circle r="0.0" /></g><g id="node-58" transform="translate(494.230,46.795)"><circle r="0.0" /></g><g id="node-59" transform="translate(465.649,53.901)"><circle r="0.0" /></g><g id="node-60" transform="translate(468.480,48.932)"><circle r="0.0" /></g><g id="node-61" transform="translate(473.902,45.994)"><circle r="0.0" /></g><g id="node-62" transform="translate(485.776,43.590)"><circle r="0.0" /></g><g id="node-63" transform="translate(464.285,51.416)"><circle r="0.0" /></g><g id="node-64" transform="translate(472.887,44.792)"><circle r="0.0" /></g><g id="node-65" transform="translate(472.207,41.453)"><circle r="0.0" /></g><g id="node-66" transform="translate(509.467,36.111)"><circle r="0.0" /></g><g id="node-67" transform="translate(479.961,32.906)"><circle r="0.0" /></g><g id="node-68" transform="translate(461.999,48.104)"><circle r="0.0" /></g><g id="node-69" transform="translate(461.347,40.652)"><circle r="0.0" /></g><g id="node-70" transform="translate(472.983,35.310)"><circle r="0.0" /></g><g id="node-71" transform="translate(476.121,32.105)"><circle r="0.0" /></g><g id="node-72" transform="translate(457.772,44.378)"><circle r="0.0" /></g><g id="node-73" transform="translate(450.656,38.248)"><circle r="0.0" /></g><g id="node-74" transform="translate(456.836,33.707)"><circle r="0.0" /></g><g id="node-75" transform="translate(458.086,29.701)"><circle r="0.0" /></g><g id="node-76" transform="translate(447.327,41.313)"><circle r="0.0" /></g><g id="node-77" transform="translate(449.943,31.704)"><circle r="0.0" /></g><g id="node-78" transform="translate(445.000,36.508)"><circle r="0.0" /></g></g></g></g></g></svg>