<svg class="toyplot-canvas-Canvas" xmlns:toyplot="http://www.sandia.gov/toyplot" xmlns:xlink="http://www.w3.org/1999/xlink" xmlns="http://www.w3.org/2000/svg" width="560.0px" height="100.0px" viewBox="0 0 560.0 100.0" preserveAspectRatio="xMidYMid meet" style="background-color:transparent;border-color:#292724;border-style:none;border-width:1.0;fill:rgb(16.1%,15.3%,14.1%);fill-opacity:1.0;font-family:Helvetica;font-size:12px;opacity:1.0;stroke:rgb(16.1%,15.3%,14.1%);stroke-opacity:1.0;stroke-width:1.0" id="t979635de50344057bb2e11a8dac7c2fa"><g class="toyplot-coordinates-Cartesian" id="t013fe4cb95704689829b5272fdcf8c90"><clipPath id="tcea9efa1ac994d5aa66b29f56ac147d4"><rect x="15.0" y="15.0" width="110.0" height="70.0" /></clipPath><g clip-path="url(#tcea9efa1ac994d5aa66b29f56ac147d4)"><g class="toytree-mark-Toytree" id="t5917f6e24dc046c590313ba904111c44"><g class="toytree-Edges" style="fill:none;stroke:rgb(14.9%,14.9%,14.9%);stroke-linecap:round;stroke-opacity:1;stroke-width:0.5"><path d="M 25.0 41.6 L 25.0 32.6 L 33.1 32.6" id="18,17" /><path d="M 25.0 41.6 L 25.0 50.6 L 30.6 50.6" id="18,16" /><path d="M 33.1 32.6 L 33.1 36.1 L 40.0 36.1" id="17,15" /><path d="M 30.6 50.6 L 30.6 58.1 L 36.0 58.1" id="16,14" /><path d="M 36.0 58.1 L 36.0 51.2 L 39.0 51.2" id="14,13" /><path d="M 36.0 58.1 L 36.0 65.0 L 37.3 65.0" id="14,12" /><path d="M 39.0 51.2 L 39.0 54.6 L 47.5 54.6" id="13,11" /><path d="M 37.3 65.0 L 37.3 68.5 L 45.4 68.5" id="12,10" /><path d="M 33.1 32.6 L 33.1 29.2 L 110.3 29.2" id="17,9" /><path d="M 40.0 36.1 L 40.0 33.8 L 102.8 33.8" id="15,8" /><path d="M 40.0 36.1 L 40.0 38.4 L 99.8 38.4" id="15,7" /><path d="M 30.6 50.6 L 30.6 43.1 L 106.9 43.1" id="16,6" /><path d="M 39.0 51.2 L 39.0 47.7 L 104.9 47.7" id="13,5" /><path d="M 47.5 54.6 L 47.5 52.3 L 106.8 52.3" id="11,4" /><path d="M 47.5 54.6 L 47.5 56.9 L 106.6 56.9" id="11,3" /><path d="M 37.3 65.0 L 37.3 61.6 L 108.4 61.6" id="12,2" /><path d="M 45.4 68.5 L 45.4 66.2 L 97.2 66.2" id="10,1" /><path d="M 45.4 68.5 L 45.4 70.8 L 99.1 70.8" id="10,0" /></g><g class="toytree-Nodes" style="fill:rgb(100%,0%,0%);fill-opacity:1.0;stroke:None;stroke-width:1"><g id="node-0" transform="translate(99.100,70.833)"><circle r="2.5" /></g><g id="node-1" transform="translate(97.152,66.204)"><circle r="2.5" /></g><g id="node-2" transform="translate(108.378,61.574)"><circle r="2.5" /></g><g id="node-3" transform="translate(106.603,56.944)"><circle r="2.5" /></g><g id="node-4" transform="translate(106.817,52.315)"><circle r="2.5" /></g><g id="node-5" transform="translate(104.913,47.685)"><circle r="2.5" /></g><g id="node-6" transform="translate(106.876,43.056)"><circle r="2.5" /></g><g id="node-7" transform="translate(99.845,38.426)"><circle r="2.5" /></g><g id="node-8" transform="translate(102.760,33.796)"><circle r="2.5" /></g><g id="node-9" transform="translate(110.263,29.167)"><circle r="2.5" /></g><g id="node-10" transform="translate(45.403,68.519)"><circle r="0.0" /></g><g id="node-11" transform="translate(47.484,54.630)"><circle r="0.0" /></g><g id="node-12" transform="translate(37.335,65.046)"><circle r="0.0" /></g><g id="node-13" transform="translate(38.953,51.157)"><circle r="0.0" /></g><g id="node-14" transform="translate(35.974,58.102)"><circle r="0.0" /></g><g id="node-15" transform="translate(39.981,36.111)"><circle r="0.0" /></g><g id="node-16" transform="translate(30.642,50.579)"><circle r="0.0" /></g><g id="node-17" transform="translate(33.067,32.639)"><circle r="0.0" /></g><g id="node-18" transform="translate(25.000,41.609)"><circle r="0.0" /></g></g></g></g></g><g class="toyplot-coordinates-Cartesian" id="t15df936934a143c68cef31a8c39e5042"><clipPath id="t260d1fdddc5e42a2b5b9137de0e31804"><rect x="155.0" y="15.0" width="110.0" height="70.0" /></clipPath><g clip-path="url(#t260d1fdddc5e42a2b5b9137de0e31804)"><g class="toytree-mark-Toytree" id="t91005ed38fdd4e4e8f3475378150a3e2"><g class="toytree-Edges" style="fill:none;stroke:rgb(14.9%,14.9%,14.9%);stroke-linecap:round;stroke-opacity:1;stroke-width:0.5"><path d="M 165.0 40.3 L 165.0 32.6 L 165.7 32.6" id="18,17" /><path d="M 165.0 40.3 L 165.0 48.0 L 165.8 48.0" id="18,16" /><path d="M 165.7 32.6 L 165.7 36.1 L 176.0 36.1" id="17,15" /><path d="M 165.8 48.0 L 165.8 52.9 L 170.1 52.9" id="16,14" /><path d="M 170.1 52.9 L 170.1 58.1 L 174.1 58.1" id="14,13" /><path d="M 174.1 58.1 L 174.1 63.9 L 177.2 63.9" id="13,12" /><path d="M 177.2 63.9 L 177.2 59.3 L 180.7 59.3" id="12,11" /><path d="M 177.2 63.9 L 177.2 68.5 L 188.4 68.5" id="12,10" /><path d="M 165.7 32.6 L 165.7 29.2 L 240.9 29.2" id="17,9" /><path d="M 176.0 36.1 L 176.0 33.8 L 246.4 33.8" id="15,8" /><path d="M 176.0 36.1 L 176.0 38.4 L 236.5 38.4" id="15,7" /><path d="M 165.8 48.0 L 165.8 43.1 L 236.7 43.1" id="16,6" /><path d="M 170.1 52.9 L 170.1 47.7 L 235.1 47.7" id="14,5" /><path d="M 174.1 58.1 L 174.1 52.3 L 242.7 52.3" id="13,4" /><path d="M 180.7 59.3 L 180.7 56.9 L 242.7 56.9" id="11,3" /><path d="M 180.7 59.3 L 180.7 61.6 L 250.3 61.6" id="11,2" /><path d="M 188.4 68.5 L 188.4 66.2 L 242.6 66.2" id="10,1" /><path d="M 188.4 68.5 L 188.4 70.8 L 239.3 70.8" id="10,0" /></g><g class="toytree-Nodes" style="fill:rgb(100%,0%,0%);fill-opacity:1.0;stroke:None;stroke-width:1"><g id="node-0" transform="translate(239.289,70.833)"><circle r="2.5" /></g><g id="node-1" transform="translate(242.575,66.204)"><circle r="2.5" /></g><g id="node-2" transform="translate(250.263,61.574)"><circle r="2.5" /></g><g id="node-3" transform="translate(242.662,56.944)"><circle r="2.5" /></g><g id="node-4" transform="translate(242.719,52.315)"><circle r="2.5" /></g><g id="node-5" transform="translate(235.114,47.685)"><circle r="2.5" /></g><g id="node-6" transform="translate(236.654,43.056)"><circle r="2.5" /></g><g id="node-7" transform="translate(236.460,38.426)"><circle r="2.5" /></g><g id="node-8" transform="translate(246.393,33.796)"><circle r="2.5" /></g><g id="node-9" transform="translate(240.947,29.167)"><circle r="2.5" /></g><g id="node-10" transform="translate(188.354,68.519)"><circle r="0.0" /></g><g id="node-11" transform="translate(180.662,59.259)"><circle r="0.0" /></g><g id="node-12" transform="translate(177.201,63.889)"><circle r="0.0" /></g><g id="node-13" transform="translate(174.148,58.102)"><circle r="0.0" /></g><g id="node-14" transform="translate(170.130,52.894)"><circle r="0.0" /></g><g id="node-15" transform="translate(175.991,36.111)"><circle r="0.0" /></g><g id="node-16" transform="translate(165.802,47.975)"><circle r="0.0" /></g><g id="node-17" transform="translate(165.717,32.639)"><circle r="0.0" /></g><g id="node-18" transform="translate(165.000,40.307)"><circle r="0.0" /></g></g></g></g></g><g class="toyplot-coordinates-Cartesian" id="taeae1a18a39347d49ed031275c795616"><clipPath id="t4e722132b80449bdbcb7aa8a4ccdf1f2"><rect x="295.0" y="15.0" width="110.0" height="70.0" /></clipPath><g clip-path="url(#t4e722132b80449bdbcb7aa8a4ccdf1f2)"><g class="toytree-mark-Toytree" id="t56875e9fa07c49e09956e2746d0e0af1"><g class="toytree-Edges" style="fill:none;stroke:rgb(14.9%,14.9%,14.9%);stroke-linecap:round;stroke-opacity:1;stroke-width:0.5"><path d="M 305.0 41.6 L 305.0 32.6 L 312.0 32.6" id="18,17" /><path d="M 305.0 41.6 L 305.0 50.6 L 311.7 50.6" id="18,16" /><path d="M 312.0 32.6 L 312.0 36.1 L 317.1 36.1" id="17,15" /><path d="M 311.7 50.6 L 311.7 58.1 L 315.4 58.1" id="16,14" /><path d="M 315.4 58.1 L 315.4 51.2 L 321.0 51.2" id="14,13" /><path d="M 315.4 58.1 L 315.4 65.0 L 315.8 65.0" id="14,12" /><path d="M 321.0 51.2 L 321.0 54.6 L 328.6 54.6" id="13,11" /><path d="M 315.8 65.0 L 315.8 68.5 L 323.7 68.5" id="12,10" /><path d="M 312.0 32.6 L 312.0 29.2 L 357.6 29.2" id="17,9" /><path d="M 317.1 36.1 L 317.1 33.8 L 390.3 33.8" id="15,8" /><path d="M 317.1 36.1 L 317.1 38.4 L 378.8 38.4" id="15,7" /><path d="M 311.7 50.6 L 311.7 43.1 L 388.7 43.1" id="16,6" /><path d="M 321.0 51.2 L 321.0 47.7 L 366.6 47.7" id="13,5" /><path d="M 328.6 54.6 L 328.6 52.3 L 360.5 52.3" id="11,4" /><path d="M 328.6 54.6 L 328.6 56.9 L 377.0 56.9" id="11,3" /><path d="M 315.8 65.0 L 315.8 61.6 L 370.2 61.6" id="12,2" /><path d="M 323.7 68.5 L 323.7 66.2 L 370.8 66.2" id="10,1" /><path d="M 323.7 68.5 L 323.7 70.8 L 384.3 70.8" id="10,0" /></g><g class="toytree-Nodes" style="fill:rgb(100%,0%,0%);fill-opacity:1.0;stroke:None;stroke-width:1"><g id="node-0" transform="translate(384.273,70.833)"><circle r="2.5" /></g><g id="node-1" transform="translate(370.791,66.204)"><circle r="2.5" /></g><g id="node-2" transform="translate(370.198,61.574)"><circle r="2.5" /></g><g id="node-3" transform="translate(377.029,56.944)"><circle r="2.5" /></g><g id="node-4" transform="translate(360.457,52.315)"><circle r="2.5" /></g><g id="node-5" transform="translate(366.625,47.685)"><circle r="2.5" /></g><g id="node-6" transform="translate(388.703,43.056)"><circle r="2.5" /></g><g id="node-7" transform="translate(378.813,38.426)"><circle r="2.5" /></g><g id="node-8" transform="translate(390.263,33.796)"><circle r="2.5" /></g><g id="node-9" transform="translate(357.633,29.167)"><circle r="2.5" /></g><g id="node-10" transform="translate(323.696,68.519)"><circle r="0.0" /></g><g id="node-11" transform="translate(328.559,54.630)"><circle r="0.0" /></g><g id="node-12" transform="translate(315.844,65.046)"><circle r="0.0" /></g><g id="node-13" transform="translate(321.011,51.157)"><circle r="0.0" /></g><g id="node-14" transform="translate(315.420,58.102)"><circle r="0.0" /></g><g id="node-15" transform="translate(317.076,36.111)"><circle r="0.0" /></g><g id="node-16" transform="translate(311.688,50.579)"><circle r="0.0" /></g><g id="node-17" transform="translate(311.993,32.639)"><circle r="0.0" /></g><g id="node-18" transform="translate(305.000,41.609)"><circle r="0.0" /></g></g></g></g></g><g class="toyplot-coordinates-Cartesian" id="ta99162f51ad44696956b265c66ad40d4"><clipPath id="td83e4d0718e04f5fb3904a0875c8f451"><rect x="435.0" y="15.0" width="110.0" height="70.0" /></clipPath><g clip-path="url(#td83e4d0718e04f5fb3904a0875c8f451)"><g class="toytree-mark-Toytree" id="tda8a79014a7d4e689104a1e3596ba5c9"><g class="toytree-Edges" style="fill:none;stroke:rgb(14.9%,14.9%,14.9%);stroke-linecap:round;stroke-opacity:1;stroke-width:0.5"><path d="M 445.0 41.0 L 445.0 32.6 L 467.8 32.6" id="18,17" /><path d="M 445.0 41.0 L 445.0 49.3 L 466.2 49.3" id="18,16" /><path d="M 467.8 32.6 L 467.8 36.1 L 481.7 36.1" id="17,15" /><path d="M 466.2 49.3 L 466.2 55.5 L 470.5 55.5" id="16,14" /><path d="M 470.5 55.5 L 470.5 50.0 L 487.1 50.0" id="14,13" /><path d="M 470.5 55.5 L 470.5 61.0 L 476.1 61.0" id="14,12" /><path d="M 476.1 61.0 L 476.1 65.0 L 479.9 65.0" id="12,11" /><path d="M 479.9 65.0 L 479.9 68.5 L 486.7 68.5" id="11,10" /><path d="M 467.8 32.6 L 467.8 29.2 L 519.1 29.2" id="17,9" /><path d="M 481.7 36.1 L 481.7 33.8 L 510.4 33.8" id="15,8" /><path d="M 481.7 36.1 L 481.7 38.4 L 516.0 38.4" id="15,7" /><path d="M 466.2 49.3 L 466.2 43.1 L 521.6 43.1" id="16,6" /><path d="M 487.1 50.0 L 487.1 47.7 L 514.1 47.7" id="13,5" /><path d="M 487.1 50.0 L 487.1 52.3 L 509.2 52.3" id="13,4" /><path d="M 476.1 61.0 L 476.1 56.9 L 513.1 56.9" id="12,3" /><path d="M 479.9 65.0 L 479.9 61.6 L 530.3 61.6" id="11,2" /><path d="M 486.7 68.5 L 486.7 66.2 L 516.8 66.2" id="10,1" /><path d="M 486.7 68.5 L 486.7 70.8 L 505.3 70.8" id="10,0" /></g><g class="toytree-Nodes" style="fill:rgb(100%,0%,0%);fill-opacity:1.0;stroke:None;stroke-width:1"><g id="node-0" transform="translate(505.326,70.833)"><circle r="2.5" /></g><g id="node-1" transform="translate(516.772,66.204)"><circle r="2.5" /></g><g id="node-2" transform="translate(530.263,61.574)"><circle r="2.5" /></g><g id="node-3" transform="translate(513.140,56.944)"><circle r="2.5" /></g><g id="node-4" transform="translate(509.178,52.315)"><circle r="2.5" /></g><g id="node-5" transform="translate(514.098,47.685)"><circle r="2.5" /></g><g id="node-6" transform="translate(521.563,43.056)"><circle r="2.5" /></g><g id="node-7" transform="translate(515.993,38.426)"><circle r="2.5" /></g><g id="node-8" transform="translate(510.385,33.796)"><circle r="2.5" /></g><g id="node-9" transform="translate(519.100,29.167)"><circle r="2.5" /></g><g id="node-10" transform="translate(486.670,68.519)"><circle r="0.0" /></g><g id="node-11" transform="translate(479.905,65.046)"><circle r="0.0" /></g><g id="node-12" transform="translate(476.111,60.995)"><circle r="0.0" /></g><g id="node-13" transform="translate(487.066,50.000)"><circle r="0.0" /></g><g id="node-14" transform="translate(470.491,55.498)"><circle r="0.0" /></g><g id="node-15" transform="translate(481.737,36.111)"><circle r="0.0" /></g><g id="node-16" transform="translate(466.171,49.277)"><circle r="0.0" /></g><g id="node-17" transform="translate(467.808,32.639)"><circle r="0.0" /></g><g id="node-18" transform="translate(445.000,40.958)"><circle r="0.0" /></g></g></g></g></g></svg>