<svg class="toyplot-canvas-Canvas" xmlns:toyplot="http://www.sandia.gov/toyplot" xmlns:xlink="http://www.w3.org/1999/xlink" xmlns="http://www.w3.org/2000/svg" width="560.0px" height="100.0px" viewBox="0 0 560.0 100.0" preserveAspectRatio="xMidYMid meet" style="background-color:transparent;border-color:#292724;border-style:none;border-width:1.0;fill:rgb(16.1%,15.3%,14.1%);fill-opacity:1.0;font-family:Helvetica;font-size:12px;opacity:1.0;stroke:rgb(16.1%,15.3%,14.1%);stroke-opacity:1.0;stroke-width:1.0" id="t376727db2dc24e56aab89ace81f96010"><g class="toyplot-coordinates-Cartesian" id="t4af97d23919c40bd9a47108f8550be7e"><clipPath id="t57774ec4405a4d66b0d8cdf37f1ea444"><rect x="15.0" y="15.0" width="110.0" height="70.0" /></clipPath><g clip-path="url(#t57774ec4405a4d66b0d8cdf37f1ea444)"><g class="toytree-mark-Toytree" id="td1a5e471109f4c6ba0984241175fbae1"><g class="toytree-Edges" style="fill:none;stroke:rgb(14.9%,14.9%,14.9%);stroke-linecap:round;stroke-opacity:1;stroke-width:0.5"><path d="M 25.0 36.5 L 25.0 43.9 L 26.7 43.9" id="12,11" /><path d="M 26.7 43.9 L 26.7 51.7 L 31.3 51.7" id="11,10" /><path d="M 31.3 51.7 L 31.3 60.4 L 32.1 60.4" id="10,9" /><path d="M 32.1 60.4 L 32.1 53.5 L 34.0 53.5" id="9,8" /><path d="M 32.1 60.4 L 32.1 67.4 L 37.5 67.4" id="9,7" /><path d="M 25.0 36.5 L 25.0 29.2 L 105.2 29.2" id="12,6" /><path d="M 26.7 43.9 L 26.7 36.1 L 101.5 36.1" id="11,5" /><path d="M 31.3 51.7 L 31.3 43.1 L 104.1 43.1" id="10,4" /><path d="M 34.0 53.5 L 34.0 50.0 L 103.2 50.0" id="8,3" /><path d="M 34.0 53.5 L 34.0 56.9 L 108.0 56.9" id="8,2" /><path d="M 37.5 67.4 L 37.5 63.9 L 105.0 63.9" id="7,1" /><path d="M 37.5 67.4 L 37.5 70.8 L 110.3 70.8" id="7,0" /></g><g class="toytree-Nodes" style="fill:rgb(100%,0%,0%);fill-opacity:1.0;stroke:None;stroke-width:1"><g id="node-0" transform="translate(110.263,70.833)"><circle r="2.5" /></g><g id="node-1" transform="translate(104.957,63.889)"><circle r="2.5" /></g><g id="node-2" transform="translate(107.958,56.944)"><circle r="2.5" /></g><g id="node-3" transform="translate(103.245,50.000)"><circle r="2.5" /></g><g id="node-4" transform="translate(104.080,43.056)"><circle r="2.5" /></g><g id="node-5" transform="translate(101.471,36.111)"><circle r="2.5" /></g><g id="node-6" transform="translate(105.222,29.167)"><circle r="2.5" /></g><g id="node-7" transform="translate(37.451,67.361)"><circle r="0.0" /></g><g id="node-8" transform="translate(33.991,53.472)"><circle r="0.0" /></g><g id="node-9" transform="translate(32.107,60.417)"><circle r="0.0" /></g><g id="node-10" transform="translate(31.349,51.736)"><circle r="0.0" /></g><g id="node-11" transform="translate(26.718,43.924)"><circle r="0.0" /></g><g id="node-12" transform="translate(25.000,36.545)"><circle r="0.0" /></g></g></g></g></g><g class="toyplot-coordinates-Cartesian" id="t16c8cae1bd7d409a9b70d9d8b2001c57"><clipPath id="tda54e70d8a564087816537489b0d9466"><rect x="155.0" y="15.0" width="110.0" height="70.0" /></clipPath><g clip-path="url(#tda54e70d8a564087816537489b0d9466)"><g class="toytree-mark-Toytree" id="t796f74af962d479f8ba7b8584d349adf"><g class="toytree-Edges" style="fill:none;stroke:rgb(14.9%,14.9%,14.9%);stroke-linecap:round;stroke-opacity:1;stroke-width:0.5"><path d="M 165.0 36.5 L 165.0 43.9 L 187.3 43.9" id="12,11" /><path d="M 187.3 43.9 L 187.3 51.7 L 193.7 51.7" id="11,10" /><path d="M 193.7 51.7 L 193.7 60.4 L 196.5 60.4" id="10,9" /><path d="M 196.5 60.4 L 196.5 53.5 L 206.2 53.5" id="9,8" /><path d="M 196.5 60.4 L 196.5 67.4 L 200.4 67.4" id="9,7" /><path d="M 165.0 36.5 L 165.0 29.2 L 242.3 29.2" id="12,6" /><path d="M 187.3 43.9 L 187.3 36.1 L 242.9 36.1" id="11,5" /><path d="M 193.7 51.7 L 193.7 43.1 L 240.0 43.1" id="10,4" /><path d="M 206.2 53.5 L 206.2 50.0 L 237.9 50.0" id="8,3" /><path d="M 206.2 53.5 L 206.2 56.9 L 244.8 56.9" id="8,2" /><path d="M 200.4 67.4 L 200.4 63.9 L 250.3 63.9" id="7,1" /><path d="M 200.4 67.4 L 200.4 70.8 L 239.4 70.8" id="7,0" /></g><g class="toytree-Nodes" style="fill:rgb(100%,0%,0%);fill-opacity:1.0;stroke:None;stroke-width:1"><g id="node-0" transform="translate(239.436,70.833)"><circle r="2.5" /></g><g id="node-1" transform="translate(250.263,63.889)"><circle r="2.5" /></g><g id="node-2" transform="translate(244.754,56.944)"><circle r="2.5" /></g><g id="node-3" transform="translate(237.936,50.000)"><circle r="2.5" /></g><g id="node-4" transform="translate(240.049,43.056)"><circle r="2.5" /></g><g id="node-5" transform="translate(242.906,36.111)"><circle r="2.5" /></g><g id="node-6" transform="translate(242.345,29.167)"><circle r="2.5" /></g><g id="node-7" transform="translate(200.422,67.361)"><circle r="0.0" /></g><g id="node-8" transform="translate(206.223,53.472)"><circle r="0.0" /></g><g id="node-9" transform="translate(196.452,60.417)"><circle r="0.0" /></g><g id="node-10" transform="translate(193.711,51.736)"><circle r="0.0" /></g><g id="node-11" transform="translate(187.306,43.924)"><circle r="0.0" /></g><g id="node-12" transform="translate(165.000,36.545)"><circle r="0.0" /></g></g></g></g></g><g class="toyplot-coordinates-Cartesian" id="t4682e063489741bf8c090c6dc548c123"><clipPath id="t325b639f507846f0b63cc481a01f9372"><rect x="295.0" y="15.0" width="110.0" height="70.0" /></clipPath><g clip-path="url(#t325b639f507846f0b63cc481a01f9372)"><g class="toytree-mark-Toytree" id="t0d38b0f74de04f229068b31cff3b5f50"><g class="toytree-Edges" style="fill:none;stroke:rgb(14.9%,14.9%,14.9%);stroke-linecap:round;stroke-opacity:1;stroke-width:0.5"><path d="M 305.0 41.1 L 305.0 32.6 L 310.3 32.6" id="12,11" /><path d="M 305.0 41.1 L 305.0 49.6 L 310.3 49.6" id="12,10" /><path d="M 310.3 49.6 L 310.3 56.1 L 317.0 56.1" id="10,9" /><path d="M 317.0 56.1 L 317.0 62.2 L 320.9 62.2" id="9,8" /><path d="M 320.9 62.2 L 320.9 67.4 L 325.3 67.4" id="8,7" /><path d="M 310.3 32.6 L 310.3 29.2 L 367.3 29.2" id="11,6" /><path d="M 310.3 32.6 L 310.3 36.1 L 377.2 36.1" id="11,5" /><path d="M 310.3 49.6 L 310.3 43.1 L 364.8 43.1" id="10,4" /><path d="M 317.0 56.1 L 317.0 50.0 L 376.1 50.0" id="9,3" /><path d="M 320.9 62.2 L 320.9 56.9 L 367.6 56.9" id="8,2" /><path d="M 325.3 67.4 L 325.3 63.9 L 366.7 63.9" id="7,1" /><path d="M 325.3 67.4 L 325.3 70.8 L 390.3 70.8" id="7,0" /></g><g class="toytree-Nodes" style="fill:rgb(100%,0%,0%);fill-opacity:1.0;stroke:None;stroke-width:1"><g id="node-0" transform="translate(390.263,70.833)"><circle r="2.5" /></g><g id="node-1" transform="translate(366.748,63.889)"><circle r="2.5" /></g><g id="node-2" transform="translate(367.551,56.944)"><circle r="2.5" /></g><g id="node-3" transform="translate(376.130,50.000)"><circle r="2.5" /></g><g id="node-4" transform="translate(364.815,43.056)"><circle r="2.5" /></g><g id="node-5" transform="translate(377.239,36.111)"><circle r="2.5" /></g><g id="node-6" transform="translate(367.317,29.167)"><circle r="2.5" /></g><g id="node-7" transform="translate(325.268,67.361)"><circle r="0.0" /></g><g id="node-8" transform="translate(320.911,62.153)"><circle r="0.0" /></g><g id="node-9" transform="translate(316.977,56.076)"><circle r="0.0" /></g><g id="node-10" transform="translate(310.341,49.566)"><circle r="0.0" /></g><g id="node-11" transform="translate(310.326,32.639)"><circle r="0.0" /></g><g id="node-12" transform="translate(305.000,41.102)"><circle r="0.0" /></g></g></g></g></g><g class="toyplot-coordinates-Cartesian" id="te1a5ed4a5a884d829faa8505aa1ecca2"><clipPath id="t5a51677ec7044ce481eadfc36f4b3749"><rect x="435.0" y="15.0" width="110.0" height="70.0" /></clipPath><g clip-path="url(#t5a51677ec7044ce481eadfc36f4b3749)"><g class="toytree-mark-Toytree" id="te9b0abc2639b42f2af285b3e0a2a3794"><g class="toytree-Edges" style="fill:none;stroke:rgb(14.9%,14.9%,14.9%);stroke-linecap:round;stroke-opacity:1;stroke-width:0.5"><path d="M 445.0 41.1 L 445.0 32.6 L 449.8 32.6" id="12,11" /><path d="M 445.0 41.1 L 445.0 49.6 L 449.9 49.6" id="12,10" /><path d="M 449.9 49.6 L 449.9 56.1 L 455.9 56.1" id="10,9" /><path d="M 455.9 56.1 L 455.9 62.2 L 459.5 62.2" id="9,8" /><path d="M 459.5 62.2 L 459.5 67.4 L 463.3 67.4" id="8,7" /><path d="M 449.8 32.6 L 449.8 29.2 L 509.6 29.2" id="11,6" /><path d="M 449.8 32.6 L 449.8 36.1 L 518.3 36.1" id="11,5" /><path d="M 449.9 49.6 L 449.9 43.1 L 507.3 43.1" id="10,4" /><path d="M 455.9 56.1 L 455.9 50.0 L 517.5 50.0" id="9,3" /><path d="M 459.5 62.2 L 459.5 56.9 L 509.6 56.9" id="8,2" /><path d="M 463.3 67.4 L 463.3 63.9 L 508.7 63.9" id="7,1" /><path d="M 463.3 67.4 L 463.3 70.8 L 530.3 70.8" id="7,0" /></g><g class="toytree-Nodes" style="fill:rgb(100%,0%,0%);fill-opacity:1.0;stroke:None;stroke-width:1"><g id="node-0" transform="translate(530.263,70.833)"><circle r="2.5" /></g><g id="node-1" transform="translate(508.658,63.889)"><circle r="2.5" /></g><g id="node-2" transform="translate(509.584,56.944)"><circle r="2.5" /></g><g id="node-3" transform="translate(517.523,50.000)"><circle r="2.5" /></g><g id="node-4" transform="translate(507.315,43.056)"><circle r="2.5" /></g><g id="node-5" transform="translate(518.339,36.111)"><circle r="2.5" /></g><g id="node-6" transform="translate(509.606,29.167)"><circle r="2.5" /></g><g id="node-7" transform="translate(463.333,67.361)"><circle r="0.0" /></g><g id="node-8" transform="translate(459.481,62.153)"><circle r="0.0" /></g><g id="node-9" transform="translate(455.874,56.076)"><circle r="0.0" /></g><g id="node-10" transform="translate(449.879,49.566)"><circle r="0.0" /></g><g id="node-11" transform="translate(449.758,32.639)"><circle r="0.0" /></g><g id="node-12" transform="translate(445.000,41.102)"><circle r="0.0" /></g></g></g></g></g></svg>