<svg class="toyplot-canvas-Canvas" xmlns:toyplot="http://www.sandia.gov/toyplot" xmlns:xlink="http://www.w3.org/1999/xlink" xmlns="http://www.w3.org/2000/svg" width="560.0px" height="100.0px" viewBox="0 0 560.0 100.0" preserveAspectRatio="xMidYMid meet" style="background-color:transparent;border-color:#292724;border-style:none;border-width:1.0;fill:rgb(16.1%,15.3%,14.1%);fill-opacity:1.0;font-family:Helvetica;font-size:12px;opacity:1.0;stroke:rgb(16.1%,15.3%,14.1%);stroke-opacity:1.0;stroke-width:1.0" id="t01f20b929b914bfaa5aefec299d65970"><g class="toyplot-coordinates-Cartesian" id="tef68d47c03dc4311998866ad61e9a780"><clipPath id="te6d6dacecf7d43a3ae990d3cb0d8245b"><rect x="15.0" y="15.0" width="110.0" height="70.0" /></clipPath><g clip-path="url(#te6d6dacecf7d43a3ae990d3cb0d8245b)"><g class="toytree-mark-Toytree" id="t174b3ff10a4a4a54b6e554dbf5876431"><g class="toytree-Edges" style="fill:none;stroke:rgb(14.9%,14.9%,14.9%);stroke-linecap:round;stroke-opacity:1;stroke-width:0.5"><path d="M 25.0 38.7 L 25.0 32.6 L 26.5 32.6" id="54,53" /><path d="M 25.0 38.7 L 25.0 44.8 L 27.2 44.8" id="54,52" /><path d="M 26.5 32.6 L 26.5 30.3 L 48.2 30.3" id="53,51" /><path d="M 26.5 32.6 L 26.5 35.0 L 36.4 35.0" id="53,50" /><path d="M 27.2 44.8 L 27.2 39.6 L 56.4 39.6" id="52,49" /><path d="M 27.2 44.8 L 27.2 49.9 L 28.1 49.9" id="52,48" /><path d="M 48.2 30.3 L 48.2 31.5 L 51.3 31.5" id="51,47" /><path d="M 36.4 35.0 L 36.4 36.1 L 56.4 36.1" id="50,46" /><path d="M 56.4 39.6 L 56.4 40.7 L 63.8 40.7" id="49,45" /><path d="M 28.1 49.9 L 28.1 45.0 L 31.1 45.0" id="48,44" /><path d="M 28.1 49.9 L 28.1 54.9 L 29.0 54.9" id="48,43" /><path d="M 31.1 45.0 L 31.1 46.9 L 31.8 46.9" id="44,42" /><path d="M 29.0 54.9 L 29.0 51.9 L 41.0 51.9" id="43,41" /><path d="M 29.0 54.9 L 29.0 57.8 L 31.0 57.8" id="43,40" /><path d="M 31.8 46.9 L 31.8 45.4 L 56.3 45.4" id="42,39" /><path d="M 31.8 46.9 L 31.8 48.5 L 40.6 48.5" id="42,38" /><path d="M 41.0 51.9 L 41.0 53.1 L 52.2 53.1" id="41,37" /><path d="M 31.0 57.8 L 31.0 60.3 L 33.1 60.3" id="40,36" /><path d="M 33.1 60.3 L 33.1 57.7 L 36.2 57.7" id="36,35" /><path d="M 33.1 60.3 L 33.1 62.8 L 34.0 62.8" id="36,34" /><path d="M 34.0 62.8 L 34.0 60.8 L 35.3 60.8" id="34,33" /><path d="M 34.0 62.8 L 34.0 64.9 L 34.6 64.9" id="34,32" /><path d="M 34.6 64.9 L 34.6 66.6 L 36.6 66.6" id="32,31" /><path d="M 36.6 66.6 L 36.6 68.5 L 43.2 68.5" id="31,30" /><path d="M 43.2 68.5 L 43.2 67.0 L 64.2 67.0" id="30,29" /><path d="M 43.2 68.5 L 43.2 70.1 L 51.7 70.1" id="30,28" /><path d="M 48.2 30.3 L 48.2 29.2 L 106.0 29.2" id="51,27" /><path d="M 51.3 31.5 L 51.3 30.7 L 107.8 30.7" id="47,26" /><path d="M 51.3 31.5 L 51.3 32.3 L 107.4 32.3" id="47,25" /><path d="M 36.4 35.0 L 36.4 33.8 L 105.5 33.8" id="50,24" /><path d="M 56.4 36.1 L 56.4 35.3 L 98.9 35.3" id="46,23" /><path d="M 56.4 36.1 L 56.4 36.9 L 102.2 36.9" id="46,22" /><path d="M 56.4 39.6 L 56.4 38.4 L 106.9 38.4" id="49,21" /><path d="M 63.8 40.7 L 63.8 40.0 L 104.8 40.0" id="45,20" /><path d="M 63.8 40.7 L 63.8 41.5 L 103.9 41.5" id="45,19" /><path d="M 31.1 45.0 L 31.1 43.1 L 103.9 43.1" id="44,18" /><path d="M 56.3 45.4 L 56.3 44.6 L 98.1 44.6" id="39,17" /><path d="M 56.3 45.4 L 56.3 46.1 L 97.2 46.1" id="39,16" /><path d="M 40.6 48.5 L 40.6 47.7 L 100.9 47.7" id="38,15" /><path d="M 40.6 48.5 L 40.6 49.2 L 102.9 49.2" id="38,14" /><path d="M 41.0 51.9 L 41.0 50.8 L 110.1 50.8" id="41,13" /><path d="M 52.2 53.1 L 52.2 52.3 L 104.8 52.3" id="37,12" /><path d="M 52.2 53.1 L 52.2 53.9 L 110.0 53.9" id="37,11" /><path d="M 31.0 57.8 L 31.0 55.4 L 102.9 55.4" id="40,10" /><path d="M 36.2 57.7 L 36.2 56.9 L 110.2 56.9" id="35,9" /><path d="M 36.2 57.7 L 36.2 58.5 L 110.3 58.5" id="35,8" /><path d="M 35.3 60.8 L 35.3 60.0 L 102.7 60.0" id="33,7" /><path d="M 35.3 60.8 L 35.3 61.6 L 107.2 61.6" id="33,6" /><path d="M 34.6 64.9 L 34.6 63.1 L 104.7 63.1" id="32,5" /><path d="M 36.6 66.6 L 36.6 64.7 L 104.1 64.7" id="31,4" /><path d="M 64.2 67.0 L 64.2 66.2 L 107.2 66.2" id="29,3" /><path d="M 64.2 67.0 L 64.2 67.7 L 105.9 67.7" id="29,2" /><path d="M 51.7 70.1 L 51.7 69.3 L 102.4 69.3" id="28,1" /><path d="M 51.7 70.1 L 51.7 70.8 L 102.0 70.8" id="28,0" /></g><g class="toytree-Nodes" style="fill:rgb(100%,0%,0%);fill-opacity:1.0;stroke:None;stroke-width:1"><g id="node-0" transform="translate(101.967,70.833)"><circle r="2.5" /></g><g id="node-1" transform="translate(102.402,69.290)"><circle r="2.5" /></g><g id="node-2" transform="translate(105.872,67.747)"><circle r="2.5" /></g><g id="node-3" transform="translate(107.200,66.204)"><circle r="2.5" /></g><g id="node-4" transform="translate(104.092,64.660)"><circle r="2.5" /></g><g id="node-5" transform="translate(104.707,63.117)"><circle r="2.5" /></g><g id="node-6" transform="translate(107.165,61.574)"><circle r="2.5" /></g><g id="node-7" transform="translate(102.712,60.031)"><circle r="2.5" /></g><g id="node-8" transform="translate(110.263,58.488)"><circle r="2.5" /></g><g id="node-9" transform="translate(110.175,56.944)"><circle r="2.5" /></g><g id="node-10" transform="translate(102.868,55.401)"><circle r="2.5" /></g><g id="node-11" transform="translate(109.969,53.858)"><circle r="2.5" /></g><g id="node-12" transform="translate(104.765,52.315)"><circle r="2.5" /></g><g id="node-13" transform="translate(110.065,50.772)"><circle r="2.5" /></g><g id="node-14" transform="translate(102.864,49.228)"><circle r="2.5" /></g><g id="node-15" transform="translate(100.893,47.685)"><circle r="2.5" /></g><g id="node-16" transform="translate(97.199,46.142)"><circle r="2.5" /></g><g id="node-17" transform="translate(98.111,44.599)"><circle r="2.5" /></g><g id="node-18" transform="translate(103.859,43.056)"><circle r="2.5" /></g><g id="node-19" transform="translate(103.930,41.512)"><circle r="2.5" /></g><g id="node-20" transform="translate(104.846,39.969)"><circle r="2.5" /></g><g id="node-21" transform="translate(106.880,38.426)"><circle r="2.5" /></g><g id="node-22" transform="translate(102.249,36.883)"><circle r="2.5" /></g><g id="node-23" transform="translate(98.881,35.340)"><circle r="2.5" /></g><g id="node-24" transform="translate(105.540,33.796)"><circle r="2.5" /></g><g id="node-25" transform="translate(107.358,32.253)"><circle r="2.5" /></g><g id="node-26" transform="translate(107.824,30.710)"><circle r="2.5" /></g><g id="node-27" transform="translate(105.998,29.167)"><circle r="2.5" /></g><g id="node-28" transform="translate(51.670,70.062)"><circle r="0.0" /></g><g id="node-29" transform="translate(64.199,66.975)"><circle r="0.0" /></g><g id="node-30" transform="translate(43.177,68.519)"><circle r="0.0" /></g><g id="node-31" transform="translate(36.596,66.590)"><circle r="0.0" /></g><g id="node-32" transform="translate(34.558,64.853)"><circle r="0.0" /></g><g id="node-33" transform="translate(35.276,60.802)"><circle r="0.0" /></g><g id="node-34" transform="translate(34.038,62.828)"><circle r="0.0" /></g><g id="node-35" transform="translate(36.226,57.716)"><circle r="0.0" /></g><g id="node-36" transform="translate(33.136,60.272)"><circle r="0.0" /></g><g id="node-37" transform="translate(52.233,53.086)"><circle r="0.0" /></g><g id="node-38" transform="translate(40.587,48.457)"><circle r="0.0" /></g><g id="node-39" transform="translate(56.280,45.370)"><circle r="0.0" /></g><g id="node-40" transform="translate(30.952,57.837)"><circle r="0.0" /></g><g id="node-41" transform="translate(40.978,51.929)"><circle r="0.0" /></g><g id="node-42" transform="translate(31.812,46.914)"><circle r="0.0" /></g><g id="node-43" transform="translate(29.004,54.883)"><circle r="0.0" /></g><g id="node-44" transform="translate(31.056,44.985)"><circle r="0.0" /></g><g id="node-45" transform="translate(63.784,40.741)"><circle r="0.0" /></g><g id="node-46" transform="translate(56.401,36.111)"><circle r="0.0" /></g><g id="node-47" transform="translate(51.303,31.481)"><circle r="0.0" /></g><g id="node-48" transform="translate(28.086,49.934)"><circle r="0.0" /></g><g id="node-49" transform="translate(56.394,39.583)"><circle r="0.0" /></g><g id="node-50" transform="translate(36.397,34.954)"><circle r="0.0" /></g><g id="node-51" transform="translate(48.197,30.324)"><circle r="0.0" /></g><g id="node-52" transform="translate(27.151,44.759)"><circle r="0.0" /></g><g id="node-53" transform="translate(26.499,32.639)"><circle r="0.0" /></g><g id="node-54" transform="translate(25.000,38.699)"><circle r="0.0" /></g></g></g></g></g><g class="toyplot-coordinates-Cartesian" id="tb8383a97d6cb4e1880c9846b7a7c7554"><clipPath id="t8edb45f306684785ac4d7e3c32280634"><rect x="155.0" y="15.0" width="110.0" height="70.0" /></clipPath><g clip-path="url(#t8edb45f306684785ac4d7e3c32280634)"><g class="toytree-mark-Toytree" id="t581339c6c3774737a691f5c2d06770c3"><g class="toytree-Edges" style="fill:none;stroke:rgb(14.9%,14.9%,14.9%);stroke-linecap:round;stroke-opacity:1;stroke-width:0.5"><path d="M 165.0 36.6 L 165.0 30.5 L 166.9 30.5" id="54,53" /><path d="M 165.0 36.6 L 165.0 42.6 L 178.2 42.6" id="54,52" /><path d="M 166.9 30.5 L 166.9 31.9 L 178.7 31.9" id="53,51" /><path d="M 178.2 42.6 L 178.2 36.5 L 192.3 36.5" id="52,50" /><path d="M 178.2 42.6 L 178.2 48.7 L 188.0 48.7" id="52,49" /><path d="M 178.7 31.9 L 178.7 33.0 L 240.9 33.0" id="51,48" /><path d="M 192.3 36.5 L 192.3 37.7 L 201.3 37.7" id="50,47" /><path d="M 188.0 48.7 L 188.0 42.3 L 191.5 42.3" id="49,46" /><path d="M 188.0 48.7 L 188.0 55.1 L 190.1 55.1" id="49,45" /><path d="M 191.5 42.3 L 191.5 40.7 L 193.5 40.7" id="46,44" /><path d="M 191.5 42.3 L 191.5 43.8 L 201.9 43.8" id="46,43" /><path d="M 190.1 55.1 L 190.1 48.7 L 195.1 48.7" id="45,42" /><path d="M 190.1 55.1 L 190.1 61.5 L 191.2 61.5" id="45,41" /><path d="M 195.1 48.7 L 195.1 46.9 L 200.5 46.9" id="42,40" /><path d="M 195.1 48.7 L 195.1 50.6 L 197.0 50.6" id="42,39" /><path d="M 191.2 61.5 L 191.2 57.3 L 193.9 57.3" id="41,38" /><path d="M 191.2 61.5 L 191.2 65.7 L 192.6 65.7" id="41,37" /><path d="M 197.0 50.6 L 197.0 51.9 L 214.4 51.9" id="39,36" /><path d="M 193.9 57.3 L 193.9 59.3 L 199.4 59.3" id="38,35" /><path d="M 192.6 65.7 L 192.6 63.9 L 198.0 63.9" id="37,34" /><path d="M 192.6 65.7 L 192.6 67.6 L 194.6 67.6" id="37,33" /><path d="M 214.4 51.9 L 214.4 53.1 L 218.3 53.1" id="36,32" /><path d="M 199.4 59.3 L 199.4 57.7 L 200.1 57.7" id="35,31" /><path d="M 199.4 59.3 L 199.4 60.8 L 208.6 60.8" id="35,30" /><path d="M 194.6 67.6 L 194.6 68.9 L 199.1 68.9" id="33,29" /><path d="M 199.1 68.9 L 199.1 70.1 L 201.8 70.1" id="29,28" /><path d="M 166.9 30.5 L 166.9 29.2 L 206.9 29.2" id="53,27" /><path d="M 178.7 31.9 L 178.7 30.7 L 207.9 30.7" id="51,26" /><path d="M 240.9 33.0 L 240.9 32.3 L 250.3 32.3" id="48,25" /><path d="M 240.9 33.0 L 240.9 33.8 L 245.8 33.8" id="48,24" /><path d="M 192.3 36.5 L 192.3 35.3 L 215.9 35.3" id="50,23" /><path d="M 201.3 37.7 L 201.3 36.9 L 209.0 36.9" id="47,22" /><path d="M 201.3 37.7 L 201.3 38.4 L 212.1 38.4" id="47,21" /><path d="M 193.5 40.7 L 193.5 40.0 L 214.8 40.0" id="44,20" /><path d="M 193.5 40.7 L 193.5 41.5 L 213.0 41.5" id="44,19" /><path d="M 201.9 43.8 L 201.9 43.1 L 224.5 43.1" id="43,18" /><path d="M 201.9 43.8 L 201.9 44.6 L 221.2 44.6" id="43,17" /><path d="M 200.5 46.9 L 200.5 46.1 L 218.1 46.1" id="40,16" /><path d="M 200.5 46.9 L 200.5 47.7 L 224.8 47.7" id="40,15" /><path d="M 197.0 50.6 L 197.0 49.2 L 235.7 49.2" id="39,14" /><path d="M 214.4 51.9 L 214.4 50.8 L 237.9 50.8" id="36,13" /><path d="M 218.3 53.1 L 218.3 52.3 L 237.9 52.3" id="32,12" /><path d="M 218.3 53.1 L 218.3 53.9 L 245.4 53.9" id="32,11" /><path d="M 193.9 57.3 L 193.9 55.4 L 215.8 55.4" id="38,10" /><path d="M 200.1 57.7 L 200.1 56.9 L 218.9 56.9" id="31,9" /><path d="M 200.1 57.7 L 200.1 58.5 L 224.1 58.5" id="31,8" /><path d="M 208.6 60.8 L 208.6 60.0 L 220.2 60.0" id="30,7" /><path d="M 208.6 60.8 L 208.6 61.6 L 226.5 61.6" id="30,6" /><path d="M 198.0 63.9 L 198.0 63.1 L 223.7 63.1" id="34,5" /><path d="M 198.0 63.9 L 198.0 64.7 L 225.9 64.7" id="34,4" /><path d="M 194.6 67.6 L 194.6 66.2 L 204.1 66.2" id="33,3" /><path d="M 199.1 68.9 L 199.1 67.7 L 227.5 67.7" id="29,2" /><path d="M 201.8 70.1 L 201.8 69.3 L 230.7 69.3" id="28,1" /><path d="M 201.8 70.1 L 201.8 70.8 L 213.8 70.8" id="28,0" /></g><g class="toytree-Nodes" style="fill:rgb(100%,0%,0%);fill-opacity:1.0;stroke:None;stroke-width:1"><g id="node-0" transform="translate(213.820,70.833)"><circle r="2.5" /></g><g id="node-1" transform="translate(230.685,69.290)"><circle r="2.5" /></g><g id="node-2" transform="translate(227.465,67.747)"><circle r="2.5" /></g><g id="node-3" transform="translate(204.100,66.204)"><circle r="2.5" /></g><g id="node-4" transform="translate(225.870,64.660)"><circle r="2.5" /></g><g id="node-5" transform="translate(223.684,63.117)"><circle r="2.5" /></g><g id="node-6" transform="translate(226.502,61.574)"><circle r="2.5" /></g><g id="node-7" transform="translate(220.196,60.031)"><circle r="2.5" /></g><g id="node-8" transform="translate(224.110,58.488)"><circle r="2.5" /></g><g id="node-9" transform="translate(218.942,56.944)"><circle r="2.5" /></g><g id="node-10" transform="translate(215.796,55.401)"><circle r="2.5" /></g><g id="node-11" transform="translate(245.433,53.858)"><circle r="2.5" /></g><g id="node-12" transform="translate(237.891,52.315)"><circle r="2.5" /></g><g id="node-13" transform="translate(237.856,50.772)"><circle r="2.5" /></g><g id="node-14" transform="translate(235.716,49.228)"><circle r="2.5" /></g><g id="node-15" transform="translate(224.840,47.685)"><circle r="2.5" /></g><g id="node-16" transform="translate(218.094,46.142)"><circle r="2.5" /></g><g id="node-17" transform="translate(221.212,44.599)"><circle r="2.5" /></g><g id="node-18" transform="translate(224.452,43.056)"><circle r="2.5" /></g><g id="node-19" transform="translate(212.975,41.512)"><circle r="2.5" /></g><g id="node-20" transform="translate(214.798,39.969)"><circle r="2.5" /></g><g id="node-21" transform="translate(212.134,38.426)"><circle r="2.5" /></g><g id="node-22" transform="translate(209.005,36.883)"><circle r="2.5" /></g><g id="node-23" transform="translate(215.915,35.340)"><circle r="2.5" /></g><g id="node-24" transform="translate(245.822,33.796)"><circle r="2.5" /></g><g id="node-25" transform="translate(250.263,32.253)"><circle r="2.5" /></g><g id="node-26" transform="translate(207.949,30.710)"><circle r="2.5" /></g><g id="node-27" transform="translate(206.863,29.167)"><circle r="2.5" /></g><g id="node-28" transform="translate(201.757,70.062)"><circle r="0.0" /></g><g id="node-29" transform="translate(199.100,68.904)"><circle r="0.0" /></g><g id="node-30" transform="translate(208.632,60.802)"><circle r="0.0" /></g><g id="node-31" transform="translate(200.088,57.716)"><circle r="0.0" /></g><g id="node-32" transform="translate(218.269,53.086)"><circle r="0.0" /></g><g id="node-33" transform="translate(194.564,67.554)"><circle r="0.0" /></g><g id="node-34" transform="translate(198.049,63.889)"><circle r="0.0" /></g><g id="node-35" transform="translate(199.414,59.259)"><circle r="0.0" /></g><g id="node-36" transform="translate(214.428,51.929)"><circle r="0.0" /></g><g id="node-37" transform="translate(192.591,65.721)"><circle r="0.0" /></g><g id="node-38" transform="translate(193.869,57.330)"><circle r="0.0" /></g><g id="node-39" transform="translate(196.952,50.579)"><circle r="0.0" /></g><g id="node-40" transform="translate(200.535,46.914)"><circle r="0.0" /></g><g id="node-41" transform="translate(191.212,61.526)"><circle r="0.0" /></g><g id="node-42" transform="translate(195.084,48.746)"><circle r="0.0" /></g><g id="node-43" transform="translate(201.865,43.827)"><circle r="0.0" /></g><g id="node-44" transform="translate(193.531,40.741)"><circle r="0.0" /></g><g id="node-45" transform="translate(190.105,55.136)"><circle r="0.0" /></g><g id="node-46" transform="translate(191.460,42.284)"><circle r="0.0" /></g><g id="node-47" transform="translate(201.265,37.654)"><circle r="0.0" /></g><g id="node-48" transform="translate(240.937,33.025)"><circle r="0.0" /></g><g id="node-49" transform="translate(187.976,48.710)"><circle r="0.0" /></g><g id="node-50" transform="translate(192.267,36.497)"><circle r="0.0" /></g><g id="node-51" transform="translate(178.668,31.867)"><circle r="0.0" /></g><g id="node-52" transform="translate(178.171,42.603)"><circle r="0.0" /></g><g id="node-53" transform="translate(166.902,30.517)"><circle r="0.0" /></g><g id="node-54" transform="translate(165.000,36.560)"><circle r="0.0" /></g></g></g></g></g><g class="toyplot-coordinates-Cartesian" id="t53cee9b43c9a4423a5d2a82973cfead3"><clipPath id="t612729bdf5084c758a73df3069e227db"><rect x="295.0" y="15.0" width="110.0" height="70.0" /></clipPath><g clip-path="url(#t612729bdf5084c758a73df3069e227db)"><g class="toytree-mark-Toytree" id="t6474dc2e87604c9cb1eb5d11c90336d9"><g class="toytree-Edges" style="fill:none;stroke:rgb(14.9%,14.9%,14.9%);stroke-linecap:round;stroke-opacity:1;stroke-width:0.5"><path d="M 305.0 38.1 L 305.0 32.6 L 313.8 32.6" id="54,53" /><path d="M 305.0 38.1 L 305.0 43.5 L 310.4 43.5" id="54,52" /><path d="M 313.8 32.6 L 313.8 30.3 L 345.2 30.3" id="53,51" /><path d="M 313.8 32.6 L 313.8 35.0 L 319.2 35.0" id="53,50" /><path d="M 310.4 43.5 L 310.4 39.6 L 355.3 39.6" id="52,49" /><path d="M 310.4 43.5 L 310.4 47.5 L 314.6 47.5" id="52,48" /><path d="M 345.2 30.3 L 345.2 31.5 L 350.4 31.5" id="51,47" /><path d="M 319.2 35.0 L 319.2 36.1 L 341.5 36.1" id="50,46" /><path d="M 355.3 39.6 L 355.3 40.7 L 359.1 40.7" id="49,45" /><path d="M 314.6 47.5 L 314.6 43.8 L 326.6 43.8" id="48,44" /><path d="M 314.6 47.5 L 314.6 51.1 L 316.1 51.1" id="48,43" /><path d="M 316.1 51.1 L 316.1 47.3 L 320.8 47.3" id="43,42" /><path d="M 316.1 51.1 L 316.1 55.0 L 319.7 55.0" id="43,41" /><path d="M 320.8 47.3 L 320.8 48.5 L 335.3 48.5" id="42,40" /><path d="M 319.7 55.0 L 319.7 51.9 L 341.6 51.9" id="41,39" /><path d="M 319.7 55.0 L 319.7 58.0 L 324.7 58.0" id="41,38" /><path d="M 341.6 51.9 L 341.6 53.1 L 355.7 53.1" id="39,37" /><path d="M 324.7 58.0 L 324.7 60.6 L 328.6 60.6" id="38,36" /><path d="M 328.6 60.6 L 328.6 57.7 L 332.1 57.7" id="36,35" /><path d="M 328.6 60.6 L 328.6 63.5 L 332.4 63.5" id="36,34" /><path d="M 332.4 63.5 L 332.4 60.8 L 347.6 60.8" id="34,33" /><path d="M 332.4 63.5 L 332.4 66.2 L 333.7 66.2" id="34,32" /><path d="M 333.7 66.2 L 333.7 63.9 L 338.6 63.9" id="32,31" /><path d="M 333.7 66.2 L 333.7 68.5 L 335.6 68.5" id="32,30" /><path d="M 335.6 68.5 L 335.6 67.0 L 343.5 67.0" id="30,29" /><path d="M 335.6 68.5 L 335.6 70.1 L 355.7 70.1" id="30,28" /><path d="M 345.2 30.3 L 345.2 29.2 L 370.6 29.2" id="51,27" /><path d="M 350.4 31.5 L 350.4 30.7 L 370.8 30.7" id="47,26" /><path d="M 350.4 31.5 L 350.4 32.3 L 375.4 32.3" id="47,25" /><path d="M 319.2 35.0 L 319.2 33.8 L 378.2 33.8" id="50,24" /><path d="M 341.5 36.1 L 341.5 35.3 L 354.6 35.3" id="46,23" /><path d="M 341.5 36.1 L 341.5 36.9 L 354.7 36.9" id="46,22" /><path d="M 355.3 39.6 L 355.3 38.4 L 372.3 38.4" id="49,21" /><path d="M 359.1 40.7 L 359.1 40.0 L 370.8 40.0" id="45,20" /><path d="M 359.1 40.7 L 359.1 41.5 L 368.2 41.5" id="45,19" /><path d="M 326.6 43.8 L 326.6 43.1 L 358.5 43.1" id="44,18" /><path d="M 326.6 43.8 L 326.6 44.6 L 357.2 44.6" id="44,17" /><path d="M 320.8 47.3 L 320.8 46.1 L 358.9 46.1" id="42,16" /><path d="M 335.3 48.5 L 335.3 47.7 L 354.1 47.7" id="40,15" /><path d="M 335.3 48.5 L 335.3 49.2 L 354.8 49.2" id="40,14" /><path d="M 341.6 51.9 L 341.6 50.8 L 371.7 50.8" id="39,13" /><path d="M 355.7 53.1 L 355.7 52.3 L 372.7 52.3" id="37,12" /><path d="M 355.7 53.1 L 355.7 53.9 L 379.3 53.9" id="37,11" /><path d="M 324.7 58.0 L 324.7 55.4 L 354.0 55.4" id="38,10" /><path d="M 332.1 57.7 L 332.1 56.9 L 365.1 56.9" id="35,9" /><path d="M 332.1 57.7 L 332.1 58.5 L 365.6 58.5" id="35,8" /><path d="M 347.6 60.8 L 347.6 60.0 L 357.6 60.0" id="33,7" /><path d="M 347.6 60.8 L 347.6 61.6 L 363.4 61.6" id="33,6" /><path d="M 338.6 63.9 L 338.6 63.1 L 381.4 63.1" id="31,5" /><path d="M 338.6 63.9 L 338.6 64.7 L 367.3 64.7" id="31,4" /><path d="M 343.5 67.0 L 343.5 66.2 L 390.3 66.2" id="29,3" /><path d="M 343.5 67.0 L 343.5 67.7 L 377.6 67.7" id="29,2" /><path d="M 355.7 70.1 L 355.7 69.3 L 366.2 69.3" id="28,1" /><path d="M 355.7 70.1 L 355.7 70.8 L 373.0 70.8" id="28,0" /></g><g class="toytree-Nodes" style="fill:rgb(100%,0%,0%);fill-opacity:1.0;stroke:None;stroke-width:1"><g id="node-0" transform="translate(372.991,70.833)"><circle r="2.5" /></g><g id="node-1" transform="translate(366.224,69.290)"><circle r="2.5" /></g><g id="node-2" transform="translate(377.624,67.747)"><circle r="2.5" /></g><g id="node-3" transform="translate(390.263,66.204)"><circle r="2.5" /></g><g id="node-4" transform="translate(367.350,64.660)"><circle r="2.5" /></g><g id="node-5" transform="translate(381.373,63.117)"><circle r="2.5" /></g><g id="node-6" transform="translate(363.379,61.574)"><circle r="2.5" /></g><g id="node-7" transform="translate(357.633,60.031)"><circle r="2.5" /></g><g id="node-8" transform="translate(365.609,58.488)"><circle r="2.5" /></g><g id="node-9" transform="translate(365.079,56.944)"><circle r="2.5" /></g><g id="node-10" transform="translate(353.958,55.401)"><circle r="2.5" /></g><g id="node-11" transform="translate(379.337,53.858)"><circle r="2.5" /></g><g id="node-12" transform="translate(372.685,52.315)"><circle r="2.5" /></g><g id="node-13" transform="translate(371.687,50.772)"><circle r="2.5" /></g><g id="node-14" transform="translate(354.828,49.228)"><circle r="2.5" /></g><g id="node-15" transform="translate(354.082,47.685)"><circle r="2.5" /></g><g id="node-16" transform="translate(358.866,46.142)"><circle r="2.5" /></g><g id="node-17" transform="translate(357.160,44.599)"><circle r="2.5" /></g><g id="node-18" transform="translate(358.463,43.056)"><circle r="2.5" /></g><g id="node-19" transform="translate(368.166,41.512)"><circle r="2.5" /></g><g id="node-20" transform="translate(370.800,39.969)"><circle r="2.5" /></g><g id="node-21" transform="translate(372.322,38.426)"><circle r="2.5" /></g><g id="node-22" transform="translate(354.657,36.883)"><circle r="2.5" /></g><g id="node-23" transform="translate(354.557,35.340)"><circle r="2.5" /></g><g id="node-24" transform="translate(378.236,33.796)"><circle r="2.5" /></g><g id="node-25" transform="translate(375.441,32.253)"><circle r="2.5" /></g><g id="node-26" transform="translate(370.777,30.710)"><circle r="2.5" /></g><g id="node-27" transform="translate(370.630,29.167)"><circle r="2.5" /></g><g id="node-28" transform="translate(355.681,70.062)"><circle r="0.0" /></g><g id="node-29" transform="translate(343.475,66.975)"><circle r="0.0" /></g><g id="node-30" transform="translate(335.610,68.519)"><circle r="0.0" /></g><g id="node-31" transform="translate(338.563,63.889)"><circle r="0.0" /></g><g id="node-32" transform="translate(333.715,66.204)"><circle r="0.0" /></g><g id="node-33" transform="translate(347.638,60.802)"><circle r="0.0" /></g><g id="node-34" transform="translate(332.435,63.503)"><circle r="0.0" /></g><g id="node-35" transform="translate(332.083,57.716)"><circle r="0.0" /></g><g id="node-36" transform="translate(328.619,60.610)"><circle r="0.0" /></g><g id="node-37" transform="translate(355.702,53.086)"><circle r="0.0" /></g><g id="node-38" transform="translate(324.738,58.005)"><circle r="0.0" /></g><g id="node-39" transform="translate(341.604,51.929)"><circle r="0.0" /></g><g id="node-40" transform="translate(335.338,48.457)"><circle r="0.0" /></g><g id="node-41" transform="translate(319.688,54.967)"><circle r="0.0" /></g><g id="node-42" transform="translate(320.804,47.299)"><circle r="0.0" /></g><g id="node-43" transform="translate(316.087,51.133)"><circle r="0.0" /></g><g id="node-44" transform="translate(326.566,43.827)"><circle r="0.0" /></g><g id="node-45" transform="translate(359.051,40.741)"><circle r="0.0" /></g><g id="node-46" transform="translate(341.470,36.111)"><circle r="0.0" /></g><g id="node-47" transform="translate(350.380,31.481)"><circle r="0.0" /></g><g id="node-48" transform="translate(314.629,47.480)"><circle r="0.0" /></g><g id="node-49" transform="translate(355.288,39.583)"><circle r="0.0" /></g><g id="node-50" transform="translate(319.175,34.954)"><circle r="0.0" /></g><g id="node-51" transform="translate(345.176,30.324)"><circle r="0.0" /></g><g id="node-52" transform="translate(310.439,43.532)"><circle r="0.0" /></g><g id="node-53" transform="translate(313.756,32.639)"><circle r="0.0" /></g><g id="node-54" transform="translate(305.000,38.085)"><circle r="0.0" /></g></g></g></g></g><g class="toyplot-coordinates-Cartesian" id="t677d4719eb87408891be54a708c36ef2"><clipPath id="t9f8b171475984cab810ceae7bbaa5793"><rect x="435.0" y="15.0" width="110.0" height="70.0" /></clipPath><g clip-path="url(#t9f8b171475984cab810ceae7bbaa5793)"><g class="toytree-mark-Toytree" id="t049f63679c4b4d8eb44ebc6b35190f85"><g class="toytree-Edges" style="fill:none;stroke:rgb(14.9%,14.9%,14.9%);stroke-linecap:round;stroke-opacity:1;stroke-width:0.5"><path d="M 445.0 39.3 L 445.0 32.6 L 453.7 32.6" id="54,53" /><path d="M 445.0 39.3 L 445.0 46.0 L 452.8 46.0" id="54,52" /><path d="M 453.7 32.6 L 453.7 30.3 L 488.2 30.3" id="53,51" /><path d="M 453.7 32.6 L 453.7 35.0 L 470.9 35.0" id="53,50" /><path d="M 452.8 46.0 L 452.8 40.9 L 459.9 40.9" id="52,49" /><path d="M 452.8 46.0 L 452.8 51.0 L 455.4 51.0" id="52,48" /><path d="M 488.2 30.3 L 488.2 31.5 L 493.2 31.5" id="51,47" /><path d="M 470.9 35.0 L 470.9 36.1 L 485.2 36.1" id="50,46" /><path d="M 459.9 40.9 L 459.9 39.2 L 473.4 39.2" id="49,45" /><path d="M 459.9 40.9 L 459.9 42.7 L 464.3 42.7" id="49,44" /><path d="M 455.4 51.0 L 455.4 47.3 L 503.6 47.3" id="48,43" /><path d="M 455.4 51.0 L 455.4 54.7 L 458.2 54.7" id="48,42" /><path d="M 464.3 42.7 L 464.3 43.8 L 478.3 43.8" id="44,41" /><path d="M 503.6 47.3 L 503.6 48.5 L 508.6 48.5" id="43,40" /><path d="M 458.2 54.7 L 458.2 51.9 L 484.0 51.9" id="42,39" /><path d="M 458.2 54.7 L 458.2 57.4 L 461.6 57.4" id="42,38" /><path d="M 484.0 51.9 L 484.0 53.1 L 490.3 53.1" id="39,37" /><path d="M 461.6 57.4 L 461.6 59.4 L 470.2 59.4" id="38,36" /><path d="M 470.2 59.4 L 470.2 61.9 L 473.2 61.9" id="36,35" /><path d="M 473.2 61.9 L 473.2 59.3 L 478.0 59.3" id="35,34" /><path d="M 473.2 61.9 L 473.2 64.5 L 476.2 64.5" id="35,33" /><path d="M 476.2 64.5 L 476.2 62.3 L 486.0 62.3" id="33,32" /><path d="M 476.2 64.5 L 476.2 66.6 L 480.4 66.6" id="33,31" /><path d="M 480.4 66.6 L 480.4 68.5 L 486.0 68.5" id="31,30" /><path d="M 486.0 68.5 L 486.0 67.0 L 504.5 67.0" id="30,29" /><path d="M 486.0 68.5 L 486.0 70.1 L 490.2 70.1" id="30,28" /><path d="M 488.2 30.3 L 488.2 29.2 L 509.5 29.2" id="51,27" /><path d="M 493.2 31.5 L 493.2 30.7 L 518.3 30.7" id="47,26" /><path d="M 493.2 31.5 L 493.2 32.3 L 514.0 32.3" id="47,25" /><path d="M 470.9 35.0 L 470.9 33.8 L 512.9 33.8" id="50,24" /><path d="M 485.2 36.1 L 485.2 35.3 L 500.1 35.3" id="46,23" /><path d="M 485.2 36.1 L 485.2 36.9 L 497.0 36.9" id="46,22" /><path d="M 473.4 39.2 L 473.4 38.4 L 495.0 38.4" id="45,21" /><path d="M 473.4 39.2 L 473.4 40.0 L 500.4 40.0" id="45,20" /><path d="M 464.3 42.7 L 464.3 41.5 L 505.3 41.5" id="44,19" /><path d="M 478.3 43.8 L 478.3 43.1 L 488.3 43.1" id="41,18" /><path d="M 478.3 43.8 L 478.3 44.6 L 491.0 44.6" id="41,17" /><path d="M 503.6 47.3 L 503.6 46.1 L 518.5 46.1" id="43,16" /><path d="M 508.6 48.5 L 508.6 47.7 L 516.9 47.7" id="40,15" /><path d="M 508.6 48.5 L 508.6 49.2 L 523.0 49.2" id="40,14" /><path d="M 484.0 51.9 L 484.0 50.8 L 499.0 50.8" id="39,13" /><path d="M 490.3 53.1 L 490.3 52.3 L 520.3 52.3" id="37,12" /><path d="M 490.3 53.1 L 490.3 53.9 L 514.9 53.9" id="37,11" /><path d="M 461.6 57.4 L 461.6 55.4 L 497.6 55.4" id="38,10" /><path d="M 470.2 59.4 L 470.2 56.9 L 501.5 56.9" id="36,9" /><path d="M 478.0 59.3 L 478.0 58.5 L 513.2 58.5" id="34,8" /><path d="M 478.0 59.3 L 478.0 60.0 L 513.4 60.0" id="34,7" /><path d="M 486.0 62.3 L 486.0 61.6 L 526.3 61.6" id="32,6" /><path d="M 486.0 62.3 L 486.0 63.1 L 530.3 63.1" id="32,5" /><path d="M 480.4 66.6 L 480.4 64.7 L 520.0 64.7" id="31,4" /><path d="M 504.5 67.0 L 504.5 66.2 L 516.8 66.2" id="29,3" /><path d="M 504.5 67.0 L 504.5 67.7 L 515.2 67.7" id="29,2" /><path d="M 490.2 70.1 L 490.2 69.3 L 503.8 69.3" id="28,1" /><path d="M 490.2 70.1 L 490.2 70.8 L 504.7 70.8" id="28,0" /></g><g class="toytree-Nodes" style="fill:rgb(100%,0%,0%);fill-opacity:1.0;stroke:None;stroke-width:1"><g id="node-0" transform="translate(504.669,70.833)"><circle r="2.5" /></g><g id="node-1" transform="translate(503.765,69.290)"><circle r="2.5" /></g><g id="node-2" transform="translate(515.154,67.747)"><circle r="2.5" /></g><g id="node-3" transform="translate(516.838,66.204)"><circle r="2.5" /></g><g id="node-4" transform="translate(520.041,64.660)"><circle r="2.5" /></g><g id="node-5" transform="translate(530.263,63.117)"><circle r="2.5" /></g><g id="node-6" transform="translate(526.269,61.574)"><circle r="2.5" /></g><g id="node-7" transform="translate(513.438,60.031)"><circle r="2.5" /></g><g id="node-8" transform="translate(513.153,58.488)"><circle r="2.5" /></g><g id="node-9" transform="translate(501.451,56.944)"><circle r="2.5" /></g><g id="node-10" transform="translate(497.586,55.401)"><circle r="2.5" /></g><g id="node-11" transform="translate(514.887,53.858)"><circle r="2.5" /></g><g id="node-12" transform="translate(520.341,52.315)"><circle r="2.5" /></g><g id="node-13" transform="translate(499.017,50.772)"><circle r="2.5" /></g><g id="node-14" transform="translate(522.969,49.228)"><circle r="2.5" /></g><g id="node-15" transform="translate(516.868,47.685)"><circle r="2.5" /></g><g id="node-16" transform="translate(518.463,46.142)"><circle r="2.5" /></g><g id="node-17" transform="translate(491.041,44.599)"><circle r="2.5" /></g><g id="node-18" transform="translate(488.267,43.056)"><circle r="2.5" /></g><g id="node-19" transform="translate(505.297,41.512)"><circle r="2.5" /></g><g id="node-20" transform="translate(500.405,39.969)"><circle r="2.5" /></g><g id="node-21" transform="translate(495.011,38.426)"><circle r="2.5" /></g><g id="node-22" transform="translate(496.967,36.883)"><circle r="2.5" /></g><g id="node-23" transform="translate(500.115,35.340)"><circle r="2.5" /></g><g id="node-24" transform="translate(512.941,33.796)"><circle r="2.5" /></g><g id="node-25" transform="translate(513.973,32.253)"><circle r="2.5" /></g><g id="node-26" transform="translate(518.315,30.710)"><circle r="2.5" /></g><g id="node-27" transform="translate(509.458,29.167)"><circle r="2.5" /></g><g id="node-28" transform="translate(490.173,70.062)"><circle r="0.0" /></g><g id="node-29" transform="translate(504.465,66.975)"><circle r="0.0" /></g><g id="node-30" transform="translate(485.952,68.519)"><circle r="0.0" /></g><g id="node-31" transform="translate(480.405,66.590)"><circle r="0.0" /></g><g id="node-32" transform="translate(485.991,62.346)"><circle r="0.0" /></g><g id="node-33" transform="translate(476.205,64.468)"><circle r="0.0" /></g><g id="node-34" transform="translate(477.959,59.259)"><circle r="0.0" /></g><g id="node-35" transform="translate(473.222,61.863)"><circle r="0.0" /></g><g id="node-36" transform="translate(470.234,59.404)"><circle r="0.0" /></g><g id="node-37" transform="translate(490.273,53.086)"><circle r="0.0" /></g><g id="node-38" transform="translate(461.564,57.403)"><circle r="0.0" /></g><g id="node-39" transform="translate(483.975,51.929)"><circle r="0.0" /></g><g id="node-40" transform="translate(508.554,48.457)"><circle r="0.0" /></g><g id="node-41" transform="translate(478.302,43.827)"><circle r="0.0" /></g><g id="node-42" transform="translate(458.171,54.666)"><circle r="0.0" /></g><g id="node-43" transform="translate(503.642,47.299)"><circle r="0.0" /></g><g id="node-44" transform="translate(464.289,42.670)"><circle r="0.0" /></g><g id="node-45" transform="translate(473.385,39.198)"><circle r="0.0" /></g><g id="node-46" transform="translate(485.155,36.111)"><circle r="0.0" /></g><g id="node-47" transform="translate(493.231,31.481)"><circle r="0.0" /></g><g id="node-48" transform="translate(455.408,50.983)"><circle r="0.0" /></g><g id="node-49" transform="translate(459.869,40.934)"><circle r="0.0" /></g><g id="node-50" transform="translate(470.875,34.954)"><circle r="0.0" /></g><g id="node-51" transform="translate(488.167,30.324)"><circle r="0.0" /></g><g id="node-52" transform="translate(452.808,45.958)"><circle r="0.0" /></g><g id="node-53" transform="translate(453.672,32.639)"><circle r="0.0" /></g><g id="node-54" transform="translate(445.000,39.299)"><circle r="0.0" /></g></g></g></g></g></svg>