<svg class="toyplot-canvas-Canvas" xmlns:toyplot="http://www.sandia.gov/toyplot" xmlns:xlink="http://www.w3.org/1999/xlink" xmlns="http://www.w3.org/2000/svg" width="560.0px" height="100.0px" viewBox="0 0 560.0 100.0" preserveAspectRatio="xMidYMid meet" style="background-color:transparent;border-color:#292724;border-style:none;border-width:1.0;fill:rgb(16.1%,15.3%,14.1%);fill-opacity:1.0;font-family:Helvetica;font-size:12px;opacity:1.0;stroke:rgb(16.1%,15.3%,14.1%);stroke-opacity:1.0;stroke-width:1.0" id="t2654d58482f5410fb2c7de2d5be0360c"><g class="toyplot-coordinates-Cartesian" id="td9376e4f72eb43348c24e39aeab3e6de"><clipPath id="t8504c80629554ae3bded6c67d077b6a6"><rect x="15.0" y="15.0" width="110.0" height="70.0" /></clipPath><g clip-path="url(#t8504c80629554ae3bded6c67d077b6a6)"><g class="toytree-mark-Toytree" id="teb259b23a5014d7ea043aa303d56c056"><g class="toytree-Edges" style="fill:none;stroke:rgb(14.9%,14.9%,14.9%);stroke-linecap:round;stroke-opacity:1;stroke-width:0.5"><path d="M 25.1 34.3 L 25.1 30.4 L 30.0 30.4" id="110,109" /><path d="M 25.1 34.3 L 25.1 38.1 L 25.5 38.1" id="110,108" /><path d="M 30.0 30.4 L 30.0 31.7 L 36.7 31.7" id="109,107" /><path d="M 25.5 38.1 L 25.5 36.6 L 54.9 36.6" id="108,106" /><path d="M 25.5 38.1 L 25.5 39.6 L 26.9 39.6" id="108,105" /><path d="M 36.7 31.7 L 36.7 30.3 L 41.0 30.3" id="107,104" /><path d="M 36.7 31.7 L 36.7 33.1 L 40.1 33.1" id="107,103" /><path d="M 54.9 36.6 L 54.9 37.1 L 72.6 37.1" id="106,102" /><path d="M 26.9 39.6 L 26.9 40.9 L 33.2 40.9" id="105,101" /><path d="M 40.1 33.1 L 40.1 32.0 L 44.9 32.0" id="103,100" /><path d="M 40.1 33.1 L 40.1 34.3 L 51.5 34.3" id="103,99" /><path d="M 33.2 40.9 L 33.2 39.4 L 67.4 39.4" id="101,98" /><path d="M 33.2 40.9 L 33.2 42.4 L 38.0 42.4" id="101,97" /><path d="M 44.9 32.0 L 44.9 32.6 L 54.7 32.6" id="100,96" /><path d="M 51.5 34.3 L 51.5 34.8 L 55.1 34.8" id="99,95" /><path d="M 38.0 42.4 L 38.0 44.3 L 42.6 44.3" id="97,94" /><path d="M 42.6 44.3 L 42.6 47.3 L 51.7 47.3" id="94,93" /><path d="M 51.7 47.3 L 51.7 52.5 L 54.6 52.5" id="93,92" /><path d="M 54.6 52.5 L 54.6 44.9 L 54.9 44.9" id="92,91" /><path d="M 54.6 52.5 L 54.6 60.0 L 61.4 60.0" id="92,90" /><path d="M 54.9 44.9 L 54.9 43.4 L 55.6 43.4" id="91,89" /><path d="M 54.9 44.9 L 54.9 46.5 L 57.1 46.5" id="91,88" /><path d="M 61.4 60.0 L 61.4 56.2 L 66.6 56.2" id="90,87" /><path d="M 61.4 60.0 L 61.4 63.8 L 66.3 63.8" id="90,86" /><path d="M 55.6 43.4 L 55.6 43.9 L 57.9 43.9" id="89,85" /><path d="M 57.1 46.5 L 57.1 45.5 L 59.0 45.5" id="88,84" /><path d="M 57.1 46.5 L 57.1 47.5 L 58.4 47.5" id="88,83" /><path d="M 66.6 56.2 L 66.6 54.1 L 67.1 54.1" id="87,82" /><path d="M 66.6 56.2 L 66.6 58.3 L 71.9 58.3" id="87,81" /><path d="M 66.3 63.8 L 66.3 65.2 L 66.9 65.2" id="86,80" /><path d="M 58.4 47.5 L 58.4 48.3 L 63.6 48.3" id="83,79" /><path d="M 67.1 54.1 L 67.1 54.8 L 67.9 54.8" id="82,78" /><path d="M 71.9 58.3 L 71.9 59.5 L 79.7 59.5" id="81,77" /><path d="M 66.9 65.2 L 66.9 63.8 L 70.8 63.8" id="80,76" /><path d="M 66.9 65.2 L 66.9 66.6 L 71.4 66.6" id="80,75" /><path d="M 63.6 48.3 L 63.6 49.3 L 65.1 49.3" id="79,74" /><path d="M 67.9 54.8 L 67.9 55.5 L 69.1 55.5" id="78,73" /><path d="M 79.7 59.5 L 79.7 58.3 L 82.1 58.3" id="77,72" /><path d="M 79.7 59.5 L 79.7 60.6 L 80.0 60.6" id="77,71" /><path d="M 70.8 63.8 L 70.8 64.4 L 74.4 64.4" id="76,70" /><path d="M 71.4 66.6 L 71.4 67.6 L 76.4 67.6" id="75,69" /><path d="M 65.1 49.3 L 65.1 50.6 L 69.4 50.6" id="74,68" /><path d="M 69.1 55.5 L 69.1 56.1 L 69.9 56.1" id="73,67" /><path d="M 80.0 60.6 L 80.0 59.8 L 83.2 59.8" id="71,66" /><path d="M 80.0 60.6 L 80.0 61.4 L 81.5 61.4" id="71,65" /><path d="M 76.4 67.6 L 76.4 66.7 L 79.4 66.7" id="69,64" /><path d="M 76.4 67.6 L 76.4 68.5 L 76.6 68.5" id="69,63" /><path d="M 69.4 50.6 L 69.4 49.4 L 72.1 49.4" id="68,62" /><path d="M 69.4 50.6 L 69.4 51.7 L 87.6 51.7" id="68,61" /><path d="M 76.6 68.5 L 76.6 69.2 L 77.0 69.2" id="63,60" /><path d="M 72.1 49.4 L 72.1 50.0 L 90.6 50.0" id="62,59" /><path d="M 87.6 51.7 L 87.6 52.3 L 88.6 52.3" id="61,58" /><path d="M 77.0 69.2 L 77.0 69.9 L 80.4 69.9" id="60,57" /><path d="M 80.4 69.9 L 80.4 70.5 L 80.4 70.5" id="57,56" /><path d="M 30.0 30.4 L 30.0 29.2 L 77.9 29.2" id="109,55" /><path d="M 41.0 30.3 L 41.0 29.9 L 91.4 29.9" id="104,54" /><path d="M 41.0 30.3 L 41.0 30.7 L 94.9 30.7" id="104,53" /><path d="M 44.9 32.0 L 44.9 31.4 L 83.5 31.4" id="100,52" /><path d="M 54.7 32.6 L 54.7 32.2 L 79.4 32.2" id="96,51" /><path d="M 54.7 32.6 L 54.7 33.0 L 79.4 33.0" id="96,50" /><path d="M 51.5 34.3 L 51.5 33.7 L 84.7 33.7" id="99,49" /><path d="M 55.1 34.8 L 55.1 34.5 L 82.0 34.5" id="95,48" /><path d="M 55.1 34.8 L 55.1 35.2 L 82.9 35.2" id="95,47" /><path d="M 54.9 36.6 L 54.9 36.0 L 84.4 36.0" id="106,46" /><path d="M 72.6 37.1 L 72.6 36.7 L 83.0 36.7" id="102,45" /><path d="M 72.6 37.1 L 72.6 37.5 L 84.1 37.5" id="102,44" /><path d="M 26.9 39.6 L 26.9 38.3 L 69.3 38.3" id="105,43" /><path d="M 67.4 39.4 L 67.4 39.0 L 96.2 39.0" id="98,42" /><path d="M 67.4 39.4 L 67.4 39.8 L 93.3 39.8" id="98,41" /><path d="M 38.0 42.4 L 38.0 40.5 L 83.1 40.5" id="97,40" /><path d="M 42.6 44.3 L 42.6 41.3 L 110.3 41.3" id="94,39" /><path d="M 51.7 47.3 L 51.7 42.0 L 78.6 42.0" id="93,38" /><path d="M 55.6 43.4 L 55.6 42.8 L 81.3 42.8" id="89,37" /><path d="M 57.9 43.9 L 57.9 43.6 L 85.5 43.6" id="85,36" /><path d="M 57.9 43.9 L 57.9 44.3 L 78.4 44.3" id="85,35" /><path d="M 59.0 45.5 L 59.0 45.1 L 80.7 45.1" id="84,34" /><path d="M 59.0 45.5 L 59.0 45.8 L 87.0 45.8" id="84,33" /><path d="M 58.4 47.5 L 58.4 46.6 L 83.9 46.6" id="83,32" /><path d="M 63.6 48.3 L 63.6 47.3 L 91.9 47.3" id="79,31" /><path d="M 65.1 49.3 L 65.1 48.1 L 85.2 48.1" id="74,30" /><path d="M 72.1 49.4 L 72.1 48.9 L 91.2 48.9" id="62,29" /><path d="M 90.6 50.0 L 90.6 49.6 L 93.2 49.6" id="59,28" /><path d="M 90.6 50.0 L 90.6 50.4 L 93.5 50.4" id="59,27" /><path d="M 87.6 51.7 L 87.6 51.1 L 89.5 51.1" id="61,26" /><path d="M 88.6 52.3 L 88.6 51.9 L 90.2 51.9" id="58,25" /><path d="M 88.6 52.3 L 88.6 52.7 L 90.2 52.7" id="58,24" /><path d="M 67.1 54.1 L 67.1 53.4 L 80.4 53.4" id="82,23" /><path d="M 67.9 54.8 L 67.9 54.2 L 80.5 54.2" id="78,22" /><path d="M 69.1 55.5 L 69.1 54.9 L 80.1 54.9" id="73,21" /><path d="M 69.9 56.1 L 69.9 55.7 L 78.8 55.7" id="67,20" /><path d="M 69.9 56.1 L 69.9 56.4 L 78.1 56.4" id="67,19" /><path d="M 71.9 58.3 L 71.9 57.2 L 79.9 57.2" id="81,18" /><path d="M 82.1 58.3 L 82.1 58.0 L 82.1 58.0" id="72,17" /><path d="M 82.1 58.3 L 82.1 58.7 L 82.1 58.7" id="72,16" /><path d="M 83.2 59.8 L 83.2 59.5 L 83.9 59.5" id="66,15" /><path d="M 83.2 59.8 L 83.2 60.2 L 83.7 60.2" id="66,14" /><path d="M 81.5 61.4 L 81.5 61.0 L 82.6 61.0" id="65,13" /><path d="M 81.5 61.4 L 81.5 61.7 L 82.5 61.7" id="65,12" /><path d="M 66.3 63.8 L 66.3 62.5 L 80.0 62.5" id="86,11" /><path d="M 70.8 63.8 L 70.8 63.3 L 82.1 63.3" id="76,10" /><path d="M 74.4 64.4 L 74.4 64.0 L 81.0 64.0" id="70,9" /><path d="M 74.4 64.4 L 74.4 64.8 L 81.0 64.8" id="70,8" /><path d="M 71.4 66.6 L 71.4 65.5 L 80.2 65.5" id="75,7" /><path d="M 79.4 66.7 L 79.4 66.3 L 79.4 66.3" id="64,6" /><path d="M 79.4 66.7 L 79.4 67.0 L 79.4 67.0" id="64,5" /><path d="M 76.6 68.5 L 76.6 67.8 L 79.5 67.8" id="63,4" /><path d="M 77.0 69.2 L 77.0 68.6 L 80.2 68.6" id="60,3" /><path d="M 80.4 69.9 L 80.4 69.3 L 80.4 69.3" id="57,2" /><path d="M 80.4 70.5 L 80.4 70.1 L 80.4 70.1" id="56,1" /><path d="M 80.4 70.5 L 80.4 70.8 L 80.4 70.8" id="56,0" /></g><g class="toytree-Nodes" style="fill:rgb(100%,0%,0%);fill-opacity:1.0;stroke:None;stroke-width:1"><g id="node-0" transform="translate(80.351,70.833)"><circle r="2.5" /></g><g id="node-1" transform="translate(80.351,70.076)"><circle r="2.5" /></g><g id="node-2" transform="translate(80.351,69.318)"><circle r="2.5" /></g><g id="node-3" transform="translate(80.211,68.561)"><circle r="2.5" /></g><g id="node-4" transform="translate(79.499,67.803)"><circle r="2.5" /></g><g id="node-5" transform="translate(79.434,67.045)"><circle r="2.5" /></g><g id="node-6" transform="translate(79.434,66.288)"><circle r="2.5" /></g><g id="node-7" transform="translate(80.186,65.530)"><circle r="2.5" /></g><g id="node-8" transform="translate(81.024,64.773)"><circle r="2.5" /></g><g id="node-9" transform="translate(80.952,64.015)"><circle r="2.5" /></g><g id="node-10" transform="translate(82.108,63.258)"><circle r="2.5" /></g><g id="node-11" transform="translate(80.046,62.500)"><circle r="2.5" /></g><g id="node-12" transform="translate(82.454,61.742)"><circle r="2.5" /></g><g id="node-13" transform="translate(82.598,60.985)"><circle r="2.5" /></g><g id="node-14" transform="translate(83.651,60.227)"><circle r="2.5" /></g><g id="node-15" transform="translate(83.909,59.470)"><circle r="2.5" /></g><g id="node-16" transform="translate(82.095,58.712)"><circle r="2.5" /></g><g id="node-17" transform="translate(82.095,57.955)"><circle r="2.5" /></g><g id="node-18" transform="translate(79.861,57.197)"><circle r="2.5" /></g><g id="node-19" transform="translate(78.123,56.439)"><circle r="2.5" /></g><g id="node-20" transform="translate(78.803,55.682)"><circle r="2.5" /></g><g id="node-21" transform="translate(80.139,54.924)"><circle r="2.5" /></g><g id="node-22" transform="translate(80.460,54.167)"><circle r="2.5" /></g><g id="node-23" transform="translate(80.408,53.409)"><circle r="2.5" /></g><g id="node-24" transform="translate(90.215,52.652)"><circle r="2.5" /></g><g id="node-25" transform="translate(90.158,51.894)"><circle r="2.5" /></g><g id="node-26" transform="translate(89.541,51.136)"><circle r="2.5" /></g><g id="node-27" transform="translate(93.543,50.379)"><circle r="2.5" /></g><g id="node-28" transform="translate(93.239,49.621)"><circle r="2.5" /></g><g id="node-29" transform="translate(91.216,48.864)"><circle r="2.5" /></g><g id="node-30" transform="translate(85.195,48.106)"><circle r="2.5" /></g><g id="node-31" transform="translate(91.860,47.348)"><circle r="2.5" /></g><g id="node-32" transform="translate(83.917,46.591)"><circle r="2.5" /></g><g id="node-33" transform="translate(87.022,45.833)"><circle r="2.5" /></g><g id="node-34" transform="translate(80.731,45.076)"><circle r="2.5" /></g><g id="node-35" transform="translate(78.406,44.318)"><circle r="2.5" /></g><g id="node-36" transform="translate(85.503,43.561)"><circle r="2.5" /></g><g id="node-37" transform="translate(81.347,42.803)"><circle r="2.5" /></g><g id="node-38" transform="translate(78.564,42.045)"><circle r="2.5" /></g><g id="node-39" transform="translate(110.267,41.288)"><circle r="2.5" /></g><g id="node-40" transform="translate(83.130,40.530)"><circle r="2.5" /></g><g id="node-41" transform="translate(93.267,39.773)"><circle r="2.5" /></g><g id="node-42" transform="translate(96.158,39.015)"><circle r="2.5" /></g><g id="node-43" transform="translate(69.297,38.258)"><circle r="2.5" /></g><g id="node-44" transform="translate(84.131,37.500)"><circle r="2.5" /></g><g id="node-45" transform="translate(83.037,36.742)"><circle r="2.5" /></g><g id="node-46" transform="translate(84.393,35.985)"><circle r="2.5" /></g><g id="node-47" transform="translate(82.881,35.227)"><circle r="2.5" /></g><g id="node-48" transform="translate(81.977,34.470)"><circle r="2.5" /></g><g id="node-49" transform="translate(84.666,33.712)"><circle r="2.5" /></g><g id="node-50" transform="translate(79.357,32.955)"><circle r="2.5" /></g><g id="node-51" transform="translate(79.353,32.197)"><circle r="2.5" /></g><g id="node-52" transform="translate(83.523,31.439)"><circle r="2.5" /></g><g id="node-53" transform="translate(94.879,30.682)"><circle r="2.5" /></g><g id="node-54" transform="translate(91.381,29.924)"><circle r="2.5" /></g><g id="node-55" transform="translate(77.872,29.167)"><circle r="2.5" /></g><g id="node-56" transform="translate(80.351,70.455)"><circle r="0.0" /></g><g id="node-57" transform="translate(80.351,69.886)"><circle r="0.0" /></g><g id="node-58" transform="translate(88.572,52.273)"><circle r="0.0" /></g><g id="node-59" transform="translate(90.637,50.000)"><circle r="0.0" /></g><g id="node-60" transform="translate(76.957,69.223)"><circle r="0.0" /></g><g id="node-61" transform="translate(87.584,51.705)"><circle r="0.0" /></g><g id="node-62" transform="translate(72.098,49.432)"><circle r="0.0" /></g><g id="node-63" transform="translate(76.613,68.513)"><circle r="0.0" /></g><g id="node-64" transform="translate(79.434,66.667)"><circle r="0.0" /></g><g id="node-65" transform="translate(81.482,61.364)"><circle r="0.0" /></g><g id="node-66" transform="translate(83.210,59.848)"><circle r="0.0" /></g><g id="node-67" transform="translate(69.916,56.061)"><circle r="0.0" /></g><g id="node-68" transform="translate(69.367,50.568)"><circle r="0.0" /></g><g id="node-69" transform="translate(76.433,67.590)"><circle r="0.0" /></g><g id="node-70" transform="translate(74.435,64.394)"><circle r="0.0" /></g><g id="node-71" transform="translate(79.971,60.606)"><circle r="0.0" /></g><g id="node-72" transform="translate(82.095,58.333)"><circle r="0.0" /></g><g id="node-73" transform="translate(69.139,55.492)"><circle r="0.0" /></g><g id="node-74" transform="translate(65.097,49.337)"><circle r="0.0" /></g><g id="node-75" transform="translate(71.413,66.560)"><circle r="0.0" /></g><g id="node-76" transform="translate(70.816,63.826)"><circle r="0.0" /></g><g id="node-77" transform="translate(79.704,59.470)"><circle r="0.0" /></g><g id="node-78" transform="translate(67.914,54.830)"><circle r="0.0" /></g><g id="node-79" transform="translate(63.568,48.343)"><circle r="0.0" /></g><g id="node-80" transform="translate(66.940,65.193)"><circle r="0.0" /></g><g id="node-81" transform="translate(71.912,58.333)"><circle r="0.0" /></g><g id="node-82" transform="translate(67.145,54.119)"><circle r="0.0" /></g><g id="node-83" transform="translate(58.417,47.467)"><circle r="0.0" /></g><g id="node-84" transform="translate(58.994,45.455)"><circle r="0.0" /></g><g id="node-85" transform="translate(57.927,43.939)"><circle r="0.0" /></g><g id="node-86" transform="translate(66.277,63.846)"><circle r="0.0" /></g><g id="node-87" transform="translate(66.581,56.226)"><circle r="0.0" /></g><g id="node-88" transform="translate(57.150,46.461)"><circle r="0.0" /></g><g id="node-89" transform="translate(55.628,43.371)"><circle r="0.0" /></g><g id="node-90" transform="translate(61.431,60.036)"><circle r="0.0" /></g><g id="node-91" transform="translate(54.905,44.916)"><circle r="0.0" /></g><g id="node-92" transform="translate(54.618,52.476)"><circle r="0.0" /></g><g id="node-93" transform="translate(51.748,47.261)"><circle r="0.0" /></g><g id="node-94" transform="translate(42.566,44.274)"><circle r="0.0" /></g><g id="node-95" transform="translate(55.077,34.848)"><circle r="0.0" /></g><g id="node-96" transform="translate(54.663,32.576)"><circle r="0.0" /></g><g id="node-97" transform="translate(38.042,42.402)"><circle r="0.0" /></g><g id="node-98" transform="translate(67.361,39.394)"><circle r="0.0" /></g><g id="node-99" transform="translate(51.495,34.280)"><circle r="0.0" /></g><g id="node-100" transform="translate(44.923,32.008)"><circle r="0.0" /></g><g id="node-101" transform="translate(33.236,40.898)"><circle r="0.0" /></g><g id="node-102" transform="translate(72.568,37.121)"><circle r="0.0" /></g><g id="node-103" transform="translate(40.110,33.144)"><circle r="0.0" /></g><g id="node-104" transform="translate(40.991,30.303)"><circle r="0.0" /></g><g id="node-105" transform="translate(26.949,39.578)"><circle r="0.0" /></g><g id="node-106" transform="translate(54.928,36.553)"><circle r="0.0" /></g><g id="node-107" transform="translate(36.744,31.723)"><circle r="0.0" /></g><g id="node-108" transform="translate(25.473,38.065)"><circle r="0.0" /></g><g id="node-109" transform="translate(30.025,30.445)"><circle r="0.0" /></g><g id="node-110" transform="translate(25.078,34.255)"><circle r="0.0" /></g></g></g></g></g><g class="toyplot-coordinates-Cartesian" id="tbaf0db54ee26431b9adaa2981222956b"><clipPath id="t7953009d04584dfba6a34a5e82cfadb2"><rect x="155.0" y="15.0" width="110.0" height="70.0" /></clipPath><g clip-path="url(#t7953009d04584dfba6a34a5e82cfadb2)"><g class="toytree-mark-Toytree" id="tb34c1d5b3da341e5af2e109f2c178a03"><g class="toytree-Edges" style="fill:none;stroke:rgb(14.9%,14.9%,14.9%);stroke-linecap:round;stroke-opacity:1;stroke-width:0.5"><path d="M 165.0 34.0 L 165.0 30.6 L 174.3 30.6" id="110,109" /><path d="M 165.0 34.0 L 165.0 37.3 L 172.3 37.3" id="110,108" /><path d="M 174.3 30.6 L 174.3 32.1 L 178.2 32.1" id="109,107" /><path d="M 172.3 37.3 L 172.3 38.7 L 179.4 38.7" id="108,106" /><path d="M 178.2 32.1 L 178.2 30.6 L 186.2 30.6" id="107,105" /><path d="M 178.2 32.1 L 178.2 33.6 L 191.7 33.6" id="107,104" /><path d="M 179.4 38.7 L 179.4 37.3 L 194.0 37.3" id="106,103" /><path d="M 179.4 38.7 L 179.4 40.0 L 179.5 40.0" id="106,102" /><path d="M 186.2 30.6 L 186.2 31.2 L 192.1 31.2" id="105,101" /><path d="M 191.7 33.6 L 191.7 34.3 L 199.5 34.3" id="104,100" /><path d="M 194.0 37.3 L 194.0 37.9 L 201.8 37.9" id="103,99" /><path d="M 179.5 40.0 L 179.5 41.0 L 191.7 41.0" id="102,98" /><path d="M 192.1 31.2 L 192.1 31.8 L 195.3 31.8" id="101,97" /><path d="M 199.5 34.3 L 199.5 34.8 L 205.3 34.8" id="100,96" /><path d="M 191.7 41.0 L 191.7 42.3 L 191.7 42.3" id="98,95" /><path d="M 191.7 42.3 L 191.7 44.0 L 193.5 44.0" id="95,94" /><path d="M 193.5 44.0 L 193.5 41.7 L 195.8 41.7" id="94,93" /><path d="M 193.5 44.0 L 193.5 46.3 L 195.3 46.3" id="94,92" /><path d="M 195.3 46.3 L 195.3 49.8 L 195.9 49.8" id="92,91" /><path d="M 195.9 49.8 L 195.9 45.1 L 196.3 45.1" id="91,90" /><path d="M 195.9 49.8 L 195.9 54.5 L 196.3 54.5" id="91,89" /><path d="M 196.3 45.1 L 196.3 43.9 L 198.4 43.9" id="90,88" /><path d="M 196.3 45.1 L 196.3 46.3 L 197.0 46.3" id="90,87" /><path d="M 196.3 54.5 L 196.3 51.5 L 197.4 51.5" id="89,86" /><path d="M 196.3 54.5 L 196.3 57.4 L 197.1 57.4" id="89,85" /><path d="M 197.0 46.3 L 197.0 47.6 L 197.7 47.6" id="87,84" /><path d="M 197.1 57.4 L 197.1 54.2 L 197.8 54.2" id="85,83" /><path d="M 197.1 57.4 L 197.1 60.7 L 198.1 60.7" id="85,82" /><path d="M 197.7 47.6 L 197.7 46.4 L 198.0 46.4" id="84,81" /><path d="M 197.7 47.6 L 197.7 48.8 L 197.8 48.8" id="84,80" /><path d="M 197.8 54.2 L 197.8 53.0 L 198.3 53.0" id="83,79" /><path d="M 197.8 54.2 L 197.8 55.3 L 199.3 55.3" id="83,78" /><path d="M 198.1 60.7 L 198.1 57.8 L 199.1 57.8" id="82,77" /><path d="M 198.1 60.7 L 198.1 63.6 L 199.0 63.6" id="82,76" /><path d="M 198.0 46.4 L 198.0 47.0 L 198.2 47.0" id="81,75" /><path d="M 197.8 48.8 L 197.8 49.4 L 197.8 49.4" id="80,74" /><path d="M 199.3 55.3 L 199.3 54.5 L 201.6 54.5" id="78,73" /><path d="M 199.3 55.3 L 199.3 56.1 L 202.2 56.1" id="78,72" /><path d="M 199.1 57.8 L 199.1 58.3 L 200.6 58.3" id="77,71" /><path d="M 199.0 63.6 L 199.0 60.7 L 199.7 60.7" id="76,70" /><path d="M 199.0 63.6 L 199.0 66.5 L 200.7 66.5" id="76,69" /><path d="M 197.8 49.4 L 197.8 50.0 L 197.8 50.0" id="74,68" /><path d="M 199.7 60.7 L 199.7 59.8 L 202.7 59.8" id="70,67" /><path d="M 199.7 60.7 L 199.7 61.6 L 202.5 61.6" id="70,66" /><path d="M 200.7 66.5 L 200.7 65.2 L 204.0 65.2" id="69,65" /><path d="M 200.7 66.5 L 200.7 67.8 L 202.9 67.8" id="69,64" /><path d="M 202.5 61.6 L 202.5 62.3 L 210.3 62.3" id="66,63" /><path d="M 204.0 65.2 L 204.0 64.4 L 209.4 64.4" id="65,62" /><path d="M 204.0 65.2 L 204.0 65.9 L 208.7 65.9" id="65,61" /><path d="M 202.9 67.8 L 202.9 68.5 L 203.1 68.5" id="64,60" /><path d="M 210.3 62.3 L 210.3 62.9 L 236.6 62.9" id="63,59" /><path d="M 203.1 68.5 L 203.1 69.2 L 203.6 69.2" id="60,58" /><path d="M 203.6 69.2 L 203.6 69.9 L 203.7 69.9" id="58,57" /><path d="M 203.7 69.9 L 203.7 70.5 L 204.0 70.5" id="57,56" /><path d="M 174.3 30.6 L 174.3 29.2 L 199.0 29.2" id="109,55" /><path d="M 186.2 30.6 L 186.2 29.9 L 198.2 29.9" id="105,54" /><path d="M 192.1 31.2 L 192.1 30.7 L 192.1 30.7" id="101,53" /><path d="M 195.3 31.8 L 195.3 31.4 L 205.2 31.4" id="97,52" /><path d="M 195.3 31.8 L 195.3 32.2 L 195.8 32.2" id="97,51" /><path d="M 191.7 33.6 L 191.7 33.0 L 222.7 33.0" id="104,50" /><path d="M 199.5 34.3 L 199.5 33.7 L 208.0 33.7" id="100,49" /><path d="M 205.3 34.8 L 205.3 34.5 L 207.1 34.5" id="96,48" /><path d="M 205.3 34.8 L 205.3 35.2 L 205.3 35.2" id="96,47" /><path d="M 172.3 37.3 L 172.3 36.0 L 188.2 36.0" id="108,46" /><path d="M 194.0 37.3 L 194.0 36.7 L 199.4 36.7" id="103,45" /><path d="M 201.8 37.9 L 201.8 37.5 L 205.3 37.5" id="99,44" /><path d="M 201.8 37.9 L 201.8 38.3 L 204.1 38.3" id="99,43" /><path d="M 179.5 40.0 L 179.5 39.0 L 194.2 39.0" id="102,42" /><path d="M 191.7 41.0 L 191.7 39.8 L 201.2 39.8" id="98,41" /><path d="M 191.7 42.3 L 191.7 40.5 L 191.7 40.5" id="95,40" /><path d="M 195.8 41.7 L 195.8 41.3 L 198.0 41.3" id="93,39" /><path d="M 195.8 41.7 L 195.8 42.0 L 205.1 42.0" id="93,38" /><path d="M 195.3 46.3 L 195.3 42.8 L 195.4 42.8" id="92,37" /><path d="M 198.4 43.9 L 198.4 43.6 L 199.3 43.6" id="88,36" /><path d="M 198.4 43.9 L 198.4 44.3 L 198.9 44.3" id="88,35" /><path d="M 197.0 46.3 L 197.0 45.1 L 198.8 45.1" id="87,34" /><path d="M 198.0 46.4 L 198.0 45.8 L 198.0 45.8" id="81,33" /><path d="M 198.2 47.0 L 198.2 46.6 L 198.5 46.6" id="75,32" /><path d="M 198.2 47.0 L 198.2 47.3 L 198.6 47.3" id="75,31" /><path d="M 197.8 48.8 L 197.8 48.1 L 197.8 48.1" id="80,30" /><path d="M 197.8 49.4 L 197.8 48.9 L 197.8 48.9" id="74,29" /><path d="M 197.8 50.0 L 197.8 49.6 L 197.9 49.6" id="68,28" /><path d="M 197.8 50.0 L 197.8 50.4 L 197.9 50.4" id="68,27" /><path d="M 197.4 51.5 L 197.4 51.1 L 197.4 51.1" id="86,26" /><path d="M 197.4 51.5 L 197.4 51.9 L 197.5 51.9" id="86,25" /><path d="M 198.3 53.0 L 198.3 52.7 L 198.7 52.7" id="79,24" /><path d="M 198.3 53.0 L 198.3 53.4 L 199.0 53.4" id="79,23" /><path d="M 201.6 54.5 L 201.6 54.2 L 203.6 54.2" id="73,22" /><path d="M 201.6 54.5 L 201.6 54.9 L 237.5 54.9" id="73,21" /><path d="M 202.2 56.1 L 202.2 55.7 L 202.2 55.7" id="72,20" /><path d="M 202.2 56.1 L 202.2 56.4 L 208.1 56.4" id="72,19" /><path d="M 199.1 57.8 L 199.1 57.2 L 199.1 57.2" id="77,18" /><path d="M 200.6 58.3 L 200.6 58.0 L 200.6 58.0" id="71,17" /><path d="M 200.6 58.3 L 200.6 58.7 L 209.0 58.7" id="71,16" /><path d="M 202.7 59.8 L 202.7 59.5 L 204.3 59.5" id="67,15" /><path d="M 202.7 59.8 L 202.7 60.2 L 203.6 60.2" id="67,14" /><path d="M 202.5 61.6 L 202.5 61.0 L 202.5 61.0" id="66,13" /><path d="M 210.3 62.3 L 210.3 61.7 L 212.1 61.7" id="63,12" /><path d="M 236.6 62.9 L 236.6 62.5 L 238.7 62.5" id="59,11" /><path d="M 236.6 62.9 L 236.6 63.3 L 250.3 63.3" id="59,10" /><path d="M 209.4 64.4 L 209.4 64.0 L 212.3 64.0" id="62,9" /><path d="M 209.4 64.4 L 209.4 64.8 L 212.6 64.8" id="62,8" /><path d="M 208.7 65.9 L 208.7 65.5 L 208.7 65.5" id="61,7" /><path d="M 208.7 65.9 L 208.7 66.3 L 214.2 66.3" id="61,6" /><path d="M 202.9 67.8 L 202.9 67.0 L 203.0 67.0" id="64,5" /><path d="M 203.1 68.5 L 203.1 67.8 L 203.3 67.8" id="60,4" /><path d="M 203.6 69.2 L 203.6 68.6 L 203.9 68.6" id="58,3" /><path d="M 203.7 69.9 L 203.7 69.3 L 204.2 69.3" id="57,2" /><path d="M 204.0 70.5 L 204.0 70.1 L 204.0 70.1" id="56,1" /><path d="M 204.0 70.5 L 204.0 70.8 L 204.0 70.8" id="56,0" /></g><g class="toytree-Nodes" style="fill:rgb(100%,0%,0%);fill-opacity:1.0;stroke:None;stroke-width:1"><g id="node-0" transform="translate(203.959,70.833)"><circle r="2.5" /></g><g id="node-1" transform="translate(204.028,70.076)"><circle r="2.5" /></g><g id="node-2" transform="translate(204.173,69.318)"><circle r="2.5" /></g><g id="node-3" transform="translate(203.869,68.561)"><circle r="2.5" /></g><g id="node-4" transform="translate(203.255,67.803)"><circle r="2.5" /></g><g id="node-5" transform="translate(202.972,67.045)"><circle r="2.5" /></g><g id="node-6" transform="translate(214.194,66.288)"><circle r="2.5" /></g><g id="node-7" transform="translate(208.742,65.530)"><circle r="2.5" /></g><g id="node-8" transform="translate(212.635,64.773)"><circle r="2.5" /></g><g id="node-9" transform="translate(212.303,64.015)"><circle r="2.5" /></g><g id="node-10" transform="translate(250.263,63.258)"><circle r="2.5" /></g><g id="node-11" transform="translate(238.737,62.500)"><circle r="2.5" /></g><g id="node-12" transform="translate(212.069,61.742)"><circle r="2.5" /></g><g id="node-13" transform="translate(202.455,60.985)"><circle r="2.5" /></g><g id="node-14" transform="translate(203.573,60.227)"><circle r="2.5" /></g><g id="node-15" transform="translate(204.290,59.470)"><circle r="2.5" /></g><g id="node-16" transform="translate(208.991,58.712)"><circle r="2.5" /></g><g id="node-17" transform="translate(200.570,57.955)"><circle r="2.5" /></g><g id="node-18" transform="translate(199.121,57.197)"><circle r="2.5" /></g><g id="node-19" transform="translate(208.114,56.439)"><circle r="2.5" /></g><g id="node-20" transform="translate(202.248,55.682)"><circle r="2.5" /></g><g id="node-21" transform="translate(237.495,54.924)"><circle r="2.5" /></g><g id="node-22" transform="translate(203.566,54.167)"><circle r="2.5" /></g><g id="node-23" transform="translate(198.962,53.409)"><circle r="2.5" /></g><g id="node-24" transform="translate(198.672,52.652)"><circle r="2.5" /></g><g id="node-25" transform="translate(197.506,51.894)"><circle r="2.5" /></g><g id="node-26" transform="translate(197.382,51.136)"><circle r="2.5" /></g><g id="node-27" transform="translate(197.920,50.379)"><circle r="2.5" /></g><g id="node-28" transform="translate(197.934,49.621)"><circle r="2.5" /></g><g id="node-29" transform="translate(197.830,48.864)"><circle r="2.5" /></g><g id="node-30" transform="translate(197.830,48.106)"><circle r="2.5" /></g><g id="node-31" transform="translate(198.576,47.348)"><circle r="2.5" /></g><g id="node-32" transform="translate(198.479,46.591)"><circle r="2.5" /></g><g id="node-33" transform="translate(197.982,45.833)"><circle r="2.5" /></g><g id="node-34" transform="translate(198.790,45.076)"><circle r="2.5" /></g><g id="node-35" transform="translate(198.893,44.318)"><circle r="2.5" /></g><g id="node-36" transform="translate(199.307,43.561)"><circle r="2.5" /></g><g id="node-37" transform="translate(195.422,42.803)"><circle r="2.5" /></g><g id="node-38" transform="translate(205.091,42.045)"><circle r="2.5" /></g><g id="node-39" transform="translate(198.010,41.288)"><circle r="2.5" /></g><g id="node-40" transform="translate(191.750,40.530)"><circle r="2.5" /></g><g id="node-41" transform="translate(201.198,39.773)"><circle r="2.5" /></g><g id="node-42" transform="translate(194.241,39.015)"><circle r="2.5" /></g><g id="node-43" transform="translate(204.070,38.258)"><circle r="2.5" /></g><g id="node-44" transform="translate(205.298,37.500)"><circle r="2.5" /></g><g id="node-45" transform="translate(199.432,36.742)"><circle r="2.5" /></g><g id="node-46" transform="translate(188.154,35.985)"><circle r="2.5" /></g><g id="node-47" transform="translate(205.328,35.227)"><circle r="2.5" /></g><g id="node-48" transform="translate(207.054,34.470)"><circle r="2.5" /></g><g id="node-49" transform="translate(207.965,33.712)"><circle r="2.5" /></g><g id="node-50" transform="translate(222.693,32.955)"><circle r="2.5" /></g><g id="node-51" transform="translate(195.839,32.197)"><circle r="2.5" /></g><g id="node-52" transform="translate(205.156,31.439)"><circle r="2.5" /></g><g id="node-53" transform="translate(192.077,30.682)"><circle r="2.5" /></g><g id="node-54" transform="translate(198.213,29.924)"><circle r="2.5" /></g><g id="node-55" transform="translate(199.041,29.167)"><circle r="2.5" /></g><g id="node-56" transform="translate(203.959,70.455)"><circle r="0.0" /></g><g id="node-57" transform="translate(203.738,69.886)"><circle r="0.0" /></g><g id="node-58" transform="translate(203.614,69.223)"><circle r="0.0" /></g><g id="node-59" transform="translate(236.563,62.879)"><circle r="0.0" /></g><g id="node-60" transform="translate(203.131,68.513)"><circle r="0.0" /></g><g id="node-61" transform="translate(208.742,65.909)"><circle r="0.0" /></g><g id="node-62" transform="translate(209.398,64.394)"><circle r="0.0" /></g><g id="node-63" transform="translate(210.323,62.311)"><circle r="0.0" /></g><g id="node-64" transform="translate(202.882,67.779)"><circle r="0.0" /></g><g id="node-65" transform="translate(203.973,65.152)"><circle r="0.0" /></g><g id="node-66" transform="translate(202.455,61.648)"><circle r="0.0" /></g><g id="node-67" transform="translate(202.689,59.848)"><circle r="0.0" /></g><g id="node-68" transform="translate(197.823,50.000)"><circle r="0.0" /></g><g id="node-69" transform="translate(200.674,66.465)"><circle r="0.0" /></g><g id="node-70" transform="translate(199.666,60.748)"><circle r="0.0" /></g><g id="node-71" transform="translate(200.570,58.333)"><circle r="0.0" /></g><g id="node-72" transform="translate(202.248,56.061)"><circle r="0.0" /></g><g id="node-73" transform="translate(201.550,54.545)"><circle r="0.0" /></g><g id="node-74" transform="translate(197.810,49.432)"><circle r="0.0" /></g><g id="node-75" transform="translate(198.217,46.970)"><circle r="0.0" /></g><g id="node-76" transform="translate(198.976,63.607)"><circle r="0.0" /></g><g id="node-77" transform="translate(199.121,57.765)"><circle r="0.0" /></g><g id="node-78" transform="translate(199.259,55.303)"><circle r="0.0" /></g><g id="node-79" transform="translate(198.265,53.030)"><circle r="0.0" /></g><g id="node-80" transform="translate(197.761,48.769)"><circle r="0.0" /></g><g id="node-81" transform="translate(197.962,46.402)"><circle r="0.0" /></g><g id="node-82" transform="translate(198.072,60.686)"><circle r="0.0" /></g><g id="node-83" transform="translate(197.782,54.167)"><circle r="0.0" /></g><g id="node-84" transform="translate(197.679,47.585)"><circle r="0.0" /></g><g id="node-85" transform="translate(197.071,57.426)"><circle r="0.0" /></g><g id="node-86" transform="translate(197.375,51.515)"><circle r="0.0" /></g><g id="node-87" transform="translate(196.961,46.330)"><circle r="0.0" /></g><g id="node-88" transform="translate(198.410,43.939)"><circle r="0.0" /></g><g id="node-89" transform="translate(196.291,54.471)"><circle r="0.0" /></g><g id="node-90" transform="translate(196.277,45.135)"><circle r="0.0" /></g><g id="node-91" transform="translate(195.898,49.803)"><circle r="0.0" /></g><g id="node-92" transform="translate(195.325,46.303)"><circle r="0.0" /></g><g id="node-93" transform="translate(195.787,41.667)"><circle r="0.0" /></g><g id="node-94" transform="translate(193.462,43.985)"><circle r="0.0" /></g><g id="node-95" transform="translate(191.750,42.258)"><circle r="0.0" /></g><g id="node-96" transform="translate(205.328,34.848)"><circle r="0.0" /></g><g id="node-97" transform="translate(195.252,31.818)"><circle r="0.0" /></g><g id="node-98" transform="translate(191.750,41.015)"><circle r="0.0" /></g><g id="node-99" transform="translate(201.751,37.879)"><circle r="0.0" /></g><g id="node-100" transform="translate(199.503,34.280)"><circle r="0.0" /></g><g id="node-101" transform="translate(192.077,31.250)"><circle r="0.0" /></g><g id="node-102" transform="translate(179.541,40.015)"><circle r="0.0" /></g><g id="node-103" transform="translate(193.965,37.311)"><circle r="0.0" /></g><g id="node-104" transform="translate(191.739,33.617)"><circle r="0.0" /></g><g id="node-105" transform="translate(186.231,30.587)"><circle r="0.0" /></g><g id="node-106" transform="translate(179.389,38.663)"><circle r="0.0" /></g><g id="node-107" transform="translate(178.198,32.102)"><circle r="0.0" /></g><g id="node-108" transform="translate(172.308,37.324)"><circle r="0.0" /></g><g id="node-109" transform="translate(174.326,30.634)"><circle r="0.0" /></g><g id="node-110" transform="translate(165.000,33.979)"><circle r="0.0" /></g></g></g></g></g><g class="toyplot-coordinates-Cartesian" id="t5192d99b5bb84c0a8f0f5473694a8715"><clipPath id="t2548949f5fa7435fa53856f5a4162814"><rect x="295.0" y="15.0" width="110.0" height="70.0" /></clipPath><g clip-path="url(#t2548949f5fa7435fa53856f5a4162814)"><g class="toytree-mark-Toytree" id="t4d84e3f3bfdf4b45b7fd771ae7bec3ae"><g class="toytree-Edges" style="fill:none;stroke:rgb(14.9%,14.9%,14.9%);stroke-linecap:round;stroke-opacity:1;stroke-width:0.5"><path d="M 305.0 34.3 L 305.0 30.6 L 306.7 30.6" id="110,109" /><path d="M 305.0 34.3 L 305.0 38.0 L 314.5 38.0" id="110,108" /><path d="M 306.7 30.6 L 306.7 32.0 L 327.0 32.0" id="109,107" /><path d="M 314.5 38.0 L 314.5 36.6 L 346.5 36.6" id="108,106" /><path d="M 314.5 38.0 L 314.5 39.5 L 317.7 39.5" id="108,105" /><path d="M 327.0 32.0 L 327.0 30.5 L 341.9 30.5" id="107,104" /><path d="M 327.0 32.0 L 327.0 33.4 L 330.0 33.4" id="107,103" /><path d="M 346.5 36.6 L 346.5 37.1 L 357.8 37.1" id="106,102" /><path d="M 317.7 39.5 L 317.7 40.7 L 323.1 40.7" id="105,101" /><path d="M 341.9 30.5 L 341.9 31.1 L 350.7 31.1" id="104,100" /><path d="M 330.0 33.4 L 330.0 32.6 L 338.9 32.6" id="103,99" /><path d="M 330.0 33.4 L 330.0 34.3 L 339.1 34.3" id="103,98" /><path d="M 323.1 40.7 L 323.1 42.3 L 333.0 42.3" id="101,97" /><path d="M 339.1 34.3 L 339.1 34.8 L 348.3 34.8" id="98,96" /><path d="M 333.0 42.3 L 333.0 40.3 L 336.5 40.3" id="97,95" /><path d="M 333.0 42.3 L 333.0 44.3 L 339.0 44.3" id="97,94" /><path d="M 336.5 40.3 L 336.5 40.9 L 370.8 40.9" id="95,93" /><path d="M 339.0 44.3 L 339.0 42.6 L 340.6 42.6" id="94,92" /><path d="M 339.0 44.3 L 339.0 46.0 L 340.0 46.0" id="94,91" /><path d="M 340.6 42.6 L 340.6 43.2 L 342.2 43.2" id="92,90" /><path d="M 340.0 46.0 L 340.0 47.7 L 340.2 47.7" id="91,89" /><path d="M 340.2 47.7 L 340.2 45.5 L 343.4 45.5" id="89,88" /><path d="M 340.2 47.7 L 340.2 50.0 L 341.3 50.0" id="89,87" /><path d="M 341.3 50.0 L 341.3 47.7 L 341.7 47.7" id="87,86" /><path d="M 341.3 50.0 L 341.3 52.2 L 342.0 52.2" id="87,85" /><path d="M 341.7 47.7 L 341.7 47.0 L 352.9 47.0" id="86,84" /><path d="M 341.7 47.7 L 341.7 48.5 L 347.1 48.5" id="86,83" /><path d="M 342.0 52.2 L 342.0 54.9 L 343.1 54.9" id="85,82" /><path d="M 343.1 54.9 L 343.1 51.0 L 343.4 51.0" id="82,81" /><path d="M 343.1 54.9 L 343.1 58.7 L 345.0 58.7" id="82,80" /><path d="M 343.4 51.0 L 343.4 51.7 L 345.2 51.7" id="81,79" /><path d="M 345.0 58.7 L 345.0 54.7 L 347.5 54.7" id="80,78" /><path d="M 345.0 58.7 L 345.0 62.6 L 345.1 62.6" id="80,77" /><path d="M 345.2 51.7 L 345.2 52.3 L 348.8 52.3" id="79,76" /><path d="M 347.5 54.7 L 347.5 53.8 L 349.1 53.8" id="78,75" /><path d="M 347.5 54.7 L 347.5 55.7 L 350.1 55.7" id="78,74" /><path d="M 345.1 62.6 L 345.1 64.2 L 345.8 64.2" id="77,73" /><path d="M 350.1 55.7 L 350.1 56.4 L 352.1 56.4" id="74,72" /><path d="M 345.8 64.2 L 345.8 62.1 L 358.3 62.1" id="73,71" /><path d="M 345.8 64.2 L 345.8 66.3 L 346.5 66.3" id="73,70" /><path d="M 352.1 56.4 L 352.1 57.2 L 353.3 57.2" id="72,69" /><path d="M 346.5 66.3 L 346.5 64.0 L 348.1 64.0" id="70,68" /><path d="M 346.5 66.3 L 346.5 68.6 L 349.0 68.6" id="70,67" /><path d="M 353.3 57.2 L 353.3 57.9 L 353.4 57.9" id="69,66" /><path d="M 348.1 64.0 L 348.1 64.7 L 349.2 64.7" id="68,65" /><path d="M 349.0 68.6 L 349.0 67.4 L 349.2 67.4" id="67,64" /><path d="M 349.0 68.6 L 349.0 69.7 L 349.6 69.7" id="67,63" /><path d="M 353.4 57.9 L 353.4 58.6 L 354.0 58.6" id="66,62" /><path d="M 349.2 64.7 L 349.2 65.3 L 349.6 65.3" id="65,61" /><path d="M 349.6 69.7 L 349.6 68.9 L 349.9 68.9" id="63,60" /><path d="M 349.6 69.7 L 349.6 70.5 L 349.6 70.5" id="63,59" /><path d="M 354.0 58.6 L 354.0 59.3 L 354.2 59.3" id="62,58" /><path d="M 349.6 65.3 L 349.6 65.9 L 354.6 65.9" id="61,57" /><path d="M 354.2 59.3 L 354.2 59.8 L 354.2 59.8" id="58,56" /><path d="M 306.7 30.6 L 306.7 29.2 L 339.3 29.2" id="109,55" /><path d="M 341.9 30.5 L 341.9 29.9 L 355.3 29.9" id="104,54" /><path d="M 350.7 31.1 L 350.7 30.7 L 355.2 30.7" id="100,53" /><path d="M 350.7 31.1 L 350.7 31.4 L 353.8 31.4" id="100,52" /><path d="M 338.9 32.6 L 338.9 32.2 L 360.3 32.2" id="99,51" /><path d="M 338.9 32.6 L 338.9 33.0 L 371.7 33.0" id="99,50" /><path d="M 339.1 34.3 L 339.1 33.7 L 357.9 33.7" id="98,49" /><path d="M 348.3 34.8 L 348.3 34.5 L 354.1 34.5" id="96,48" /><path d="M 348.3 34.8 L 348.3 35.2 L 350.5 35.2" id="96,47" /><path d="M 346.5 36.6 L 346.5 36.0 L 362.9 36.0" id="106,46" /><path d="M 357.8 37.1 L 357.8 36.7 L 364.6 36.7" id="102,45" /><path d="M 357.8 37.1 L 357.8 37.5 L 365.7 37.5" id="102,44" /><path d="M 317.7 39.5 L 317.7 38.3 L 341.2 38.3" id="105,43" /><path d="M 323.1 40.7 L 323.1 39.0 L 352.1 39.0" id="101,42" /><path d="M 336.5 40.3 L 336.5 39.8 L 382.4 39.8" id="95,41" /><path d="M 370.8 40.9 L 370.8 40.5 L 389.5 40.5" id="93,40" /><path d="M 370.8 40.9 L 370.8 41.3 L 390.3 41.3" id="93,39" /><path d="M 340.6 42.6 L 340.6 42.0 L 347.1 42.0" id="92,38" /><path d="M 342.2 43.2 L 342.2 42.8 L 344.9 42.8" id="90,37" /><path d="M 342.2 43.2 L 342.2 43.6 L 386.0 43.6" id="90,36" /><path d="M 340.0 46.0 L 340.0 44.3 L 342.0 44.3" id="91,35" /><path d="M 343.4 45.5 L 343.4 45.1 L 351.8 45.1" id="88,34" /><path d="M 343.4 45.5 L 343.4 45.8 L 349.7 45.8" id="88,33" /><path d="M 352.9 47.0 L 352.9 46.6 L 355.4 46.6" id="84,32" /><path d="M 352.9 47.0 L 352.9 47.3 L 355.6 47.3" id="84,31" /><path d="M 347.1 48.5 L 347.1 48.1 L 352.2 48.1" id="83,30" /><path d="M 347.1 48.5 L 347.1 48.9 L 352.1 48.9" id="83,29" /><path d="M 342.0 52.2 L 342.0 49.6 L 350.3 49.6" id="85,28" /><path d="M 343.4 51.0 L 343.4 50.4 L 346.6 50.4" id="81,27" /><path d="M 345.2 51.7 L 345.2 51.1 L 359.4 51.1" id="79,26" /><path d="M 348.8 52.3 L 348.8 51.9 L 354.4 51.9" id="76,25" /><path d="M 348.8 52.3 L 348.8 52.7 L 355.2 52.7" id="76,24" /><path d="M 349.1 53.8 L 349.1 53.4 L 349.1 53.4" id="75,23" /><path d="M 349.1 53.8 L 349.1 54.2 L 349.2 54.2" id="75,22" /><path d="M 350.1 55.7 L 350.1 54.9 L 353.3 54.9" id="74,21" /><path d="M 352.1 56.4 L 352.1 55.7 L 352.1 55.7" id="72,20" /><path d="M 353.3 57.2 L 353.3 56.4 L 354.5 56.4" id="69,19" /><path d="M 353.4 57.9 L 353.4 57.2 L 354.1 57.2" id="66,18" /><path d="M 354.0 58.6 L 354.0 58.0 L 354.0 58.0" id="62,17" /><path d="M 354.2 59.3 L 354.2 58.7 L 354.2 58.7" id="58,16" /><path d="M 354.2 59.8 L 354.2 59.5 L 354.6 59.5" id="56,15" /><path d="M 354.2 59.8 L 354.2 60.2 L 354.5 60.2" id="56,14" /><path d="M 345.1 62.6 L 345.1 61.0 L 350.2 61.0" id="77,13" /><path d="M 358.3 62.1 L 358.3 61.7 L 363.2 61.7" id="71,12" /><path d="M 358.3 62.1 L 358.3 62.5 L 362.6 62.5" id="71,11" /><path d="M 348.1 64.0 L 348.1 63.3 L 353.6 63.3" id="68,10" /><path d="M 349.2 64.7 L 349.2 64.0 L 349.6 64.0" id="65,9" /><path d="M 349.6 65.3 L 349.6 64.8 L 351.4 64.8" id="61,8" /><path d="M 354.6 65.9 L 354.6 65.5 L 356.1 65.5" id="57,7" /><path d="M 354.6 65.9 L 354.6 66.3 L 356.0 66.3" id="57,6" /><path d="M 349.2 67.4 L 349.2 67.0 L 349.3 67.0" id="64,5" /><path d="M 349.2 67.4 L 349.2 67.8 L 351.1 67.8" id="64,4" /><path d="M 349.9 68.9 L 349.9 68.6 L 349.9 68.6" id="60,3" /><path d="M 349.9 68.9 L 349.9 69.3 L 349.9 69.3" id="60,2" /><path d="M 349.6 70.5 L 349.6 70.1 L 350.4 70.1" id="59,1" /><path d="M 349.6 70.5 L 349.6 70.8 L 349.7 70.8" id="59,0" /></g><g class="toytree-Nodes" style="fill:rgb(100%,0%,0%);fill-opacity:1.0;stroke:None;stroke-width:1"><g id="node-0" transform="translate(349.662,70.833)"><circle r="2.5" /></g><g id="node-1" transform="translate(350.378,70.076)"><circle r="2.5" /></g><g id="node-2" transform="translate(349.856,69.318)"><circle r="2.5" /></g><g id="node-3" transform="translate(349.900,68.561)"><circle r="2.5" /></g><g id="node-4" transform="translate(351.094,67.803)"><circle r="2.5" /></g><g id="node-5" transform="translate(349.274,67.045)"><circle r="2.5" /></g><g id="node-6" transform="translate(355.956,66.288)"><circle r="2.5" /></g><g id="node-7" transform="translate(356.146,65.530)"><circle r="2.5" /></g><g id="node-8" transform="translate(351.440,64.773)"><circle r="2.5" /></g><g id="node-9" transform="translate(349.559,64.015)"><circle r="2.5" /></g><g id="node-10" transform="translate(353.596,63.258)"><circle r="2.5" /></g><g id="node-11" transform="translate(362.560,62.500)"><circle r="2.5" /></g><g id="node-12" transform="translate(363.190,61.742)"><circle r="2.5" /></g><g id="node-13" transform="translate(350.193,60.985)"><circle r="2.5" /></g><g id="node-14" transform="translate(354.545,60.227)"><circle r="2.5" /></g><g id="node-15" transform="translate(354.632,59.470)"><circle r="2.5" /></g><g id="node-16" transform="translate(354.157,58.712)"><circle r="2.5" /></g><g id="node-17" transform="translate(353.972,57.955)"><circle r="2.5" /></g><g id="node-18" transform="translate(354.071,57.197)"><circle r="2.5" /></g><g id="node-19" transform="translate(354.455,56.439)"><circle r="2.5" /></g><g id="node-20" transform="translate(352.134,55.682)"><circle r="2.5" /></g><g id="node-21" transform="translate(353.294,54.924)"><circle r="2.5" /></g><g id="node-22" transform="translate(349.171,54.167)"><circle r="2.5" /></g><g id="node-23" transform="translate(349.127,53.409)"><circle r="2.5" /></g><g id="node-24" transform="translate(355.227,52.652)"><circle r="2.5" /></g><g id="node-25" transform="translate(354.373,51.894)"><circle r="2.5" /></g><g id="node-26" transform="translate(359.429,51.136)"><circle r="2.5" /></g><g id="node-27" transform="translate(346.569,50.379)"><circle r="2.5" /></g><g id="node-28" transform="translate(350.305,49.621)"><circle r="2.5" /></g><g id="node-29" transform="translate(352.125,48.864)"><circle r="2.5" /></g><g id="node-30" transform="translate(352.186,48.106)"><circle r="2.5" /></g><g id="node-31" transform="translate(355.589,47.348)"><circle r="2.5" /></g><g id="node-32" transform="translate(355.408,46.591)"><circle r="2.5" /></g><g id="node-33" transform="translate(349.671,45.833)"><circle r="2.5" /></g><g id="node-34" transform="translate(351.750,45.076)"><circle r="2.5" /></g><g id="node-35" transform="translate(341.975,44.318)"><circle r="2.5" /></g><g id="node-36" transform="translate(385.962,43.561)"><circle r="2.5" /></g><g id="node-37" transform="translate(344.887,42.803)"><circle r="2.5" /></g><g id="node-38" transform="translate(347.113,42.045)"><circle r="2.5" /></g><g id="node-39" transform="translate(390.263,41.288)"><circle r="2.5" /></g><g id="node-40" transform="translate(389.461,40.530)"><circle r="2.5" /></g><g id="node-41" transform="translate(382.421,39.773)"><circle r="2.5" /></g><g id="node-42" transform="translate(352.121,39.015)"><circle r="2.5" /></g><g id="node-43" transform="translate(341.160,38.258)"><circle r="2.5" /></g><g id="node-44" transform="translate(365.675,37.500)"><circle r="2.5" /></g><g id="node-45" transform="translate(364.622,36.742)"><circle r="2.5" /></g><g id="node-46" transform="translate(362.858,35.985)"><circle r="2.5" /></g><g id="node-47" transform="translate(350.482,35.227)"><circle r="2.5" /></g><g id="node-48" transform="translate(354.088,34.470)"><circle r="2.5" /></g><g id="node-49" transform="translate(357.940,33.712)"><circle r="2.5" /></g><g id="node-50" transform="translate(371.701,32.955)"><circle r="2.5" /></g><g id="node-51" transform="translate(360.295,32.197)"><circle r="2.5" /></g><g id="node-52" transform="translate(353.829,31.439)"><circle r="2.5" /></g><g id="node-53" transform="translate(355.158,30.682)"><circle r="2.5" /></g><g id="node-54" transform="translate(355.313,29.924)"><circle r="2.5" /></g><g id="node-55" transform="translate(339.309,29.167)"><circle r="2.5" /></g><g id="node-56" transform="translate(354.157,59.848)"><circle r="0.0" /></g><g id="node-57" transform="translate(354.627,65.909)"><circle r="0.0" /></g><g id="node-58" transform="translate(354.157,59.280)"><circle r="0.0" /></g><g id="node-59" transform="translate(349.589,70.455)"><circle r="0.0" /></g><g id="node-60" transform="translate(349.856,68.939)"><circle r="0.0" /></g><g id="node-61" transform="translate(349.572,65.341)"><circle r="0.0" /></g><g id="node-62" transform="translate(353.972,58.617)"><circle r="0.0" /></g><g id="node-63" transform="translate(349.550,69.697)"><circle r="0.0" /></g><g id="node-64" transform="translate(349.192,67.424)"><circle r="0.0" /></g><g id="node-65" transform="translate(349.171,64.678)"><circle r="0.0" /></g><g id="node-66" transform="translate(353.420,57.907)"><circle r="0.0" /></g><g id="node-67" transform="translate(349.032,68.561)"><circle r="0.0" /></g><g id="node-68" transform="translate(348.127,63.968)"><circle r="0.0" /></g><g id="node-69" transform="translate(353.260,57.173)"><circle r="0.0" /></g><g id="node-70" transform="translate(346.518,66.264)"><circle r="0.0" /></g><g id="node-71" transform="translate(358.346,62.121)"><circle r="0.0" /></g><g id="node-72" transform="translate(352.134,56.428)"><circle r="0.0" /></g><g id="node-73" transform="translate(345.763,64.193)"><circle r="0.0" /></g><g id="node-74" transform="translate(350.085,55.676)"><circle r="0.0" /></g><g id="node-75" transform="translate(349.127,53.788)"><circle r="0.0" /></g><g id="node-76" transform="translate(348.847,52.273)"><circle r="0.0" /></g><g id="node-77" transform="translate(345.120,62.589)"><circle r="0.0" /></g><g id="node-78" transform="translate(347.497,54.732)"><circle r="0.0" /></g><g id="node-79" transform="translate(345.219,51.705)"><circle r="0.0" /></g><g id="node-80" transform="translate(345.025,58.660)"><circle r="0.0" /></g><g id="node-81" transform="translate(343.442,51.042)"><circle r="0.0" /></g><g id="node-82" transform="translate(343.062,54.851)"><circle r="0.0" /></g><g id="node-83" transform="translate(347.065,48.485)"><circle r="0.0" /></g><g id="node-84" transform="translate(352.867,46.970)"><circle r="0.0" /></g><g id="node-85" transform="translate(341.992,52.236)"><circle r="0.0" /></g><g id="node-86" transform="translate(341.738,47.727)"><circle r="0.0" /></g><g id="node-87" transform="translate(341.311,49.982)"><circle r="0.0" /></g><g id="node-88" transform="translate(343.420,45.455)"><circle r="0.0" /></g><g id="node-89" transform="translate(340.250,47.718)"><circle r="0.0" /></g><g id="node-90" transform="translate(342.174,43.182)"><circle r="0.0" /></g><g id="node-91" transform="translate(340.034,46.018)"><circle r="0.0" /></g><g id="node-92" transform="translate(340.556,42.614)"><circle r="0.0" /></g><g id="node-93" transform="translate(370.817,40.909)"><circle r="0.0" /></g><g id="node-94" transform="translate(338.964,44.316)"><circle r="0.0" /></g><g id="node-95" transform="translate(336.523,40.341)"><circle r="0.0" /></g><g id="node-96" transform="translate(348.338,34.848)"><circle r="0.0" /></g><g id="node-97" transform="translate(333.041,42.328)"><circle r="0.0" /></g><g id="node-98" transform="translate(339.098,34.280)"><circle r="0.0" /></g><g id="node-99" transform="translate(338.865,32.576)"><circle r="0.0" /></g><g id="node-100" transform="translate(350.654,31.061)"><circle r="0.0" /></g><g id="node-101" transform="translate(323.141,40.672)"><circle r="0.0" /></g><g id="node-102" transform="translate(357.794,37.121)"><circle r="0.0" /></g><g id="node-103" transform="translate(329.957,33.428)"><circle r="0.0" /></g><g id="node-104" transform="translate(341.897,30.492)"><circle r="0.0" /></g><g id="node-105" transform="translate(317.685,39.465)"><circle r="0.0" /></g><g id="node-106" transform="translate(346.457,36.553)"><circle r="0.0" /></g><g id="node-107" transform="translate(327.024,31.960)"><circle r="0.0" /></g><g id="node-108" transform="translate(314.475,38.009)"><circle r="0.0" /></g><g id="node-109" transform="translate(306.745,30.563)"><circle r="0.0" /></g><g id="node-110" transform="translate(305.000,34.286)"><circle r="0.0" /></g></g></g></g></g><g class="toyplot-coordinates-Cartesian" id="tcaf004a7efd4496ebb1b9dfb5b3752e4"><clipPath id="t35cc33112ab74f9fa72586aac86b6ebe"><rect x="435.0" y="15.0" width="110.0" height="70.0" /></clipPath><g clip-path="url(#t35cc33112ab74f9fa72586aac86b6ebe)"><g class="toytree-mark-Toytree" id="t81fa46c443ef4584a8c4d2014d81029d"><g class="toytree-Edges" style="fill:none;stroke:rgb(14.9%,14.9%,14.9%);stroke-linecap:round;stroke-opacity:1;stroke-width:0.5"><path d="M 445.0 34.2 L 445.0 30.6 L 446.6 30.6" id="110,109" /><path d="M 445.0 34.2 L 445.0 37.9 L 453.8 37.9" id="110,108" /><path d="M 446.6 30.6 L 446.6 32.0 L 465.9 32.0" id="109,107" /><path d="M 453.8 37.9 L 453.8 36.6 L 485.4 36.6" id="108,106" /><path d="M 453.8 37.9 L 453.8 39.3 L 457.3 39.3" id="108,105" /><path d="M 465.9 32.0 L 465.9 30.5 L 481.8 30.5" id="107,104" /><path d="M 465.9 32.0 L 465.9 33.4 L 468.7 33.4" id="107,103" /><path d="M 485.4 36.6 L 485.4 37.1 L 497.6 37.1" id="106,102" /><path d="M 457.3 39.3 L 457.3 40.4 L 462.5 40.4" id="105,101" /><path d="M 481.8 30.5 L 481.8 31.1 L 491.6 31.1" id="104,100" /><path d="M 468.7 33.4 L 468.7 32.6 L 477.0 32.6" id="103,99" /><path d="M 468.7 33.4 L 468.7 34.3 L 478.8 34.3" id="103,98" /><path d="M 462.5 40.4 L 462.5 41.7 L 471.7 41.7" id="101,97" /><path d="M 478.8 34.3 L 478.8 34.8 L 489.4 34.8" id="98,96" /><path d="M 471.7 41.7 L 471.7 40.3 L 475.1 40.3" id="97,95" /><path d="M 471.7 41.7 L 471.7 43.2 L 475.7 43.2" id="97,94" /><path d="M 475.1 40.3 L 475.1 40.9 L 508.8 40.9" id="95,93" /><path d="M 475.7 43.2 L 475.7 44.3 L 478.1 44.3" id="94,92" /><path d="M 478.1 44.3 L 478.1 45.7 L 479.8 45.7" id="92,91" /><path d="M 479.8 45.7 L 479.8 47.9 L 481.1 47.9" id="91,90" /><path d="M 481.1 47.9 L 481.1 45.5 L 483.1 45.5" id="90,89" /><path d="M 481.1 47.9 L 481.1 50.2 L 481.2 50.2" id="90,88" /><path d="M 483.1 45.5 L 483.1 44.7 L 493.9 44.7" id="89,87" /><path d="M 483.1 45.5 L 483.1 46.4 L 484.7 46.4" id="89,86" /><path d="M 481.2 50.2 L 481.2 48.5 L 487.4 48.5" id="88,85" /><path d="M 481.2 50.2 L 481.2 51.9 L 482.1 51.9" id="88,84" /><path d="M 484.7 46.4 L 484.7 47.0 L 485.6 47.0" id="86,83" /><path d="M 482.1 51.9 L 482.1 54.2 L 483.2 54.2" id="84,82" /><path d="M 483.2 54.2 L 483.2 51.0 L 483.4 51.0" id="82,81" /><path d="M 483.2 54.2 L 483.2 57.4 L 485.6 57.4" id="82,80" /><path d="M 483.4 51.0 L 483.4 51.7 L 485.4 51.7" id="81,79" /><path d="M 485.6 57.4 L 485.6 53.8 L 499.0 53.8" id="80,78" /><path d="M 485.6 57.4 L 485.6 60.9 L 486.0 60.9" id="80,77" /><path d="M 485.4 51.7 L 485.4 52.3 L 489.4 52.3" id="79,76" /><path d="M 486.0 60.9 L 486.0 56.0 L 486.4 56.0" id="77,75" /><path d="M 486.0 60.9 L 486.0 65.9 L 487.0 65.9" id="77,74" /><path d="M 486.4 56.0 L 486.4 57.1 L 489.2 57.1" id="75,73" /><path d="M 487.0 65.9 L 487.0 64.0 L 488.4 64.0" id="74,72" /><path d="M 487.0 65.9 L 487.0 67.8 L 490.1 67.8" id="74,71" /><path d="M 489.2 57.1 L 489.2 56.1 L 491.2 56.1" id="73,70" /><path d="M 489.2 57.1 L 489.2 58.1 L 492.2 58.1" id="73,69" /><path d="M 488.4 64.0 L 488.4 64.7 L 489.5 64.7" id="72,68" /><path d="M 490.1 67.8 L 490.1 68.5 L 490.3 68.5" id="71,67" /><path d="M 492.2 58.1 L 492.2 59.0 L 494.1 59.0" id="69,66" /><path d="M 489.5 64.7 L 489.5 65.3 L 490.0 65.3" id="68,65" /><path d="M 490.3 68.5 L 490.3 69.2 L 491.0 69.2" id="67,64" /><path d="M 494.1 59.0 L 494.1 60.0 L 495.7 60.0" id="66,63" /><path d="M 490.0 65.3 L 490.0 65.9 L 495.7 65.9" id="65,62" /><path d="M 491.0 69.2 L 491.0 69.9 L 491.1 69.9" id="64,61" /><path d="M 495.7 60.0 L 495.7 59.1 L 495.9 59.1" id="63,60" /><path d="M 495.7 60.0 L 495.7 60.9 L 496.5 60.9" id="63,59" /><path d="M 491.1 69.9 L 491.1 70.5 L 491.4 70.5" id="61,58" /><path d="M 496.5 60.9 L 496.5 61.6 L 496.7 61.6" id="59,57" /><path d="M 496.7 61.6 L 496.7 62.1 L 496.7 62.1" id="57,56" /><path d="M 446.6 30.6 L 446.6 29.2 L 481.8 29.2" id="109,55" /><path d="M 481.8 30.5 L 481.8 29.9 L 496.8 29.9" id="104,54" /><path d="M 491.6 31.1 L 491.6 30.7 L 496.6 30.7" id="100,53" /><path d="M 491.6 31.1 L 491.6 31.4 L 495.3 31.4" id="100,52" /><path d="M 477.0 32.6 L 477.0 32.2 L 501.3 32.2" id="99,51" /><path d="M 477.0 32.6 L 477.0 33.0 L 511.6 33.0" id="99,50" /><path d="M 478.8 34.3 L 478.8 33.7 L 499.2 33.7" id="98,49" /><path d="M 489.4 34.8 L 489.4 34.5 L 495.6 34.5" id="96,48" /><path d="M 489.4 34.8 L 489.4 35.2 L 492.3 35.2" id="96,47" /><path d="M 485.4 36.6 L 485.4 36.0 L 503.9 36.0" id="106,46" /><path d="M 497.6 37.1 L 497.6 36.7 L 505.4 36.7" id="102,45" /><path d="M 497.6 37.1 L 497.6 37.5 L 506.4 37.5" id="102,44" /><path d="M 457.3 39.3 L 457.3 38.3 L 483.5 38.3" id="105,43" /><path d="M 462.5 40.4 L 462.5 39.0 L 493.8 39.0" id="101,42" /><path d="M 475.1 40.3 L 475.1 39.8 L 522.7 39.8" id="95,41" /><path d="M 508.8 40.9 L 508.8 40.5 L 529.5 40.5" id="93,40" /><path d="M 508.8 40.9 L 508.8 41.3 L 530.3 41.3" id="93,39" /><path d="M 475.7 43.2 L 475.7 42.0 L 522.3 42.0" id="94,38" /><path d="M 478.1 44.3 L 478.1 42.8 L 486.8 42.8" id="92,37" /><path d="M 479.8 45.7 L 479.8 43.6 L 481.9 43.6" id="91,36" /><path d="M 493.9 44.7 L 493.9 44.3 L 496.8 44.3" id="87,35" /><path d="M 493.9 44.7 L 493.9 45.1 L 497.0 45.1" id="87,34" /><path d="M 484.7 46.4 L 484.7 45.8 L 489.5 45.8" id="86,33" /><path d="M 485.6 47.0 L 485.6 46.6 L 495.3 46.6" id="83,32" /><path d="M 485.6 47.0 L 485.6 47.3 L 492.5 47.3" id="83,31" /><path d="M 487.4 48.5 L 487.4 48.1 L 493.3 48.1" id="85,30" /><path d="M 487.4 48.5 L 487.4 48.9 L 493.2 48.9" id="85,29" /><path d="M 482.1 51.9 L 482.1 49.6 L 491.4 49.6" id="84,28" /><path d="M 483.4 51.0 L 483.4 50.4 L 487.0 50.4" id="81,27" /><path d="M 485.4 51.7 L 485.4 51.1 L 501.4 51.1" id="79,26" /><path d="M 489.4 52.3 L 489.4 51.9 L 495.7 51.9" id="76,25" /><path d="M 489.4 52.3 L 489.4 52.7 L 496.7 52.7" id="76,24" /><path d="M 499.0 53.8 L 499.0 53.4 L 504.5 53.4" id="78,23" /><path d="M 499.0 53.8 L 499.0 54.2 L 503.8 54.2" id="78,22" /><path d="M 486.4 56.0 L 486.4 54.9 L 492.1 54.9" id="75,21" /><path d="M 491.2 56.1 L 491.2 55.7 L 491.2 55.7" id="70,20" /><path d="M 491.2 56.1 L 491.2 56.4 L 491.3 56.4" id="70,19" /><path d="M 492.2 58.1 L 492.2 57.2 L 495.7 57.2" id="69,18" /><path d="M 494.1 59.0 L 494.1 58.0 L 494.5 58.0" id="66,17" /><path d="M 495.9 59.1 L 495.9 58.7 L 496.5 58.7" id="60,16" /><path d="M 495.9 59.1 L 495.9 59.5 L 497.2 59.5" id="60,15" /><path d="M 496.5 60.9 L 496.5 60.2 L 496.5 60.2" id="59,14" /><path d="M 496.7 61.6 L 496.7 61.0 L 496.7 61.0" id="57,13" /><path d="M 496.7 62.1 L 496.7 61.7 L 497.2 61.7" id="56,12" /><path d="M 496.7 62.1 L 496.7 62.5 L 497.1 62.5" id="56,11" /><path d="M 488.4 64.0 L 488.4 63.3 L 494.6 63.3" id="72,10" /><path d="M 489.5 64.7 L 489.5 64.0 L 490.0 64.0" id="68,9" /><path d="M 490.0 65.3 L 490.0 64.8 L 492.2 64.8" id="65,8" /><path d="M 495.7 65.9 L 495.7 65.5 L 497.4 65.5" id="62,7" /><path d="M 495.7 65.9 L 495.7 66.3 L 497.3 66.3" id="62,6" /><path d="M 490.1 67.8 L 490.1 67.0 L 492.2 67.0" id="71,5" /><path d="M 490.3 68.5 L 490.3 67.8 L 490.4 67.8" id="67,4" /><path d="M 491.0 69.2 L 491.0 68.6 L 491.1 68.6" id="64,3" /><path d="M 491.1 69.9 L 491.1 69.3 L 492.0 69.3" id="61,2" /><path d="M 491.4 70.5 L 491.4 70.1 L 491.5 70.1" id="58,1" /><path d="M 491.4 70.5 L 491.4 70.8 L 491.4 70.8" id="58,0" /></g><g class="toytree-Nodes" style="fill:rgb(100%,0%,0%);fill-opacity:1.0;stroke:None;stroke-width:1"><g id="node-0" transform="translate(491.439,70.833)"><circle r="2.5" /></g><g id="node-1" transform="translate(491.489,70.076)"><circle r="2.5" /></g><g id="node-2" transform="translate(492.032,69.318)"><circle r="2.5" /></g><g id="node-3" transform="translate(491.051,68.561)"><circle r="2.5" /></g><g id="node-4" transform="translate(490.359,67.803)"><circle r="2.5" /></g><g id="node-5" transform="translate(492.181,67.045)"><circle r="2.5" /></g><g id="node-6" transform="translate(497.255,66.288)"><circle r="2.5" /></g><g id="node-7" transform="translate(497.404,65.530)"><circle r="2.5" /></g><g id="node-8" transform="translate(492.161,64.773)"><circle r="2.5" /></g><g id="node-9" transform="translate(490.040,64.015)"><circle r="2.5" /></g><g id="node-10" transform="translate(494.591,63.258)"><circle r="2.5" /></g><g id="node-11" transform="translate(497.121,62.500)"><circle r="2.5" /></g><g id="node-12" transform="translate(497.200,61.742)"><circle r="2.5" /></g><g id="node-13" transform="translate(496.662,60.985)"><circle r="2.5" /></g><g id="node-14" transform="translate(496.488,60.227)"><circle r="2.5" /></g><g id="node-15" transform="translate(497.165,59.470)"><circle r="2.5" /></g><g id="node-16" transform="translate(496.548,58.712)"><circle r="2.5" /></g><g id="node-17" transform="translate(494.476,57.955)"><circle r="2.5" /></g><g id="node-18" transform="translate(495.711,57.197)"><circle r="2.5" /></g><g id="node-19" transform="translate(491.275,56.439)"><circle r="2.5" /></g><g id="node-20" transform="translate(491.225,55.682)"><circle r="2.5" /></g><g id="node-21" transform="translate(492.111,54.924)"><circle r="2.5" /></g><g id="node-22" transform="translate(503.828,54.167)"><circle r="2.5" /></g><g id="node-23" transform="translate(504.505,53.409)"><circle r="2.5" /></g><g id="node-24" transform="translate(496.667,52.652)"><circle r="2.5" /></g><g id="node-25" transform="translate(495.711,51.894)"><circle r="2.5" /></g><g id="node-26" transform="translate(501.353,51.136)"><circle r="2.5" /></g><g id="node-27" transform="translate(487.037,50.379)"><circle r="2.5" /></g><g id="node-28" transform="translate(491.364,49.621)"><circle r="2.5" /></g><g id="node-29" transform="translate(493.197,48.864)"><circle r="2.5" /></g><g id="node-30" transform="translate(493.257,48.106)"><circle r="2.5" /></g><g id="node-31" transform="translate(492.515,47.348)"><circle r="2.5" /></g><g id="node-32" transform="translate(495.303,46.591)"><circle r="2.5" /></g><g id="node-33" transform="translate(489.507,45.833)"><circle r="2.5" /></g><g id="node-34" transform="translate(496.991,45.076)"><circle r="2.5" /></g><g id="node-35" transform="translate(496.772,44.318)"><circle r="2.5" /></g><g id="node-36" transform="translate(481.859,43.561)"><circle r="2.5" /></g><g id="node-37" transform="translate(486.843,42.803)"><circle r="2.5" /></g><g id="node-38" transform="translate(522.326,42.045)"><circle r="2.5" /></g><g id="node-39" transform="translate(530.263,41.288)"><circle r="2.5" /></g><g id="node-40" transform="translate(529.506,40.530)"><circle r="2.5" /></g><g id="node-41" transform="translate(522.660,39.773)"><circle r="2.5" /></g><g id="node-42" transform="translate(493.849,39.015)"><circle r="2.5" /></g><g id="node-43" transform="translate(483.457,38.258)"><circle r="2.5" /></g><g id="node-44" transform="translate(506.417,37.500)"><circle r="2.5" /></g><g id="node-45" transform="translate(505.431,36.742)"><circle r="2.5" /></g><g id="node-46" transform="translate(503.878,35.985)"><circle r="2.5" /></g><g id="node-47" transform="translate(492.278,35.227)"><circle r="2.5" /></g><g id="node-48" transform="translate(495.634,34.470)"><circle r="2.5" /></g><g id="node-49" transform="translate(499.219,33.712)"><circle r="2.5" /></g><g id="node-50" transform="translate(511.568,32.955)"><circle r="2.5" /></g><g id="node-51" transform="translate(501.270,32.197)"><circle r="2.5" /></g><g id="node-52" transform="translate(495.290,31.439)"><circle r="2.5" /></g><g id="node-53" transform="translate(496.585,30.682)"><circle r="2.5" /></g><g id="node-54" transform="translate(496.759,29.924)"><circle r="2.5" /></g><g id="node-55" transform="translate(481.816,29.167)"><circle r="2.5" /></g><g id="node-56" transform="translate(496.662,62.121)"><circle r="0.0" /></g><g id="node-57" transform="translate(496.662,61.553)"><circle r="0.0" /></g><g id="node-58" transform="translate(491.439,70.455)"><circle r="0.0" /></g><g id="node-59" transform="translate(496.488,60.890)"><circle r="0.0" /></g><g id="node-60" transform="translate(495.861,59.091)"><circle r="0.0" /></g><g id="node-61" transform="translate(491.076,69.886)"><circle r="0.0" /></g><g id="node-62" transform="translate(495.686,65.909)"><circle r="0.0" /></g><g id="node-63" transform="translate(495.701,59.991)"><circle r="0.0" /></g><g id="node-64" transform="translate(491.026,69.223)"><circle r="0.0" /></g><g id="node-65" transform="translate(489.965,65.341)"><circle r="0.0" /></g><g id="node-66" transform="translate(494.053,58.973)"><circle r="0.0" /></g><g id="node-67" transform="translate(490.254,68.513)"><circle r="0.0" /></g><g id="node-68" transform="translate(489.542,64.678)"><circle r="0.0" /></g><g id="node-69" transform="translate(492.181,58.085)"><circle r="0.0" /></g><g id="node-70" transform="translate(491.225,56.061)"><circle r="0.0" /></g><g id="node-71" transform="translate(490.129,67.779)"><circle r="0.0" /></g><g id="node-72" transform="translate(488.362,63.968)"><circle r="0.0" /></g><g id="node-73" transform="translate(489.183,57.073)"><circle r="0.0" /></g><g id="node-74" transform="translate(486.968,65.874)"><circle r="0.0" /></g><g id="node-75" transform="translate(486.390,55.998)"><circle r="0.0" /></g><g id="node-76" transform="translate(489.417,52.273)"><circle r="0.0" /></g><g id="node-77" transform="translate(486.041,60.936)"><circle r="0.0" /></g><g id="node-78" transform="translate(498.988,53.788)"><circle r="0.0" /></g><g id="node-79" transform="translate(485.414,51.705)"><circle r="0.0" /></g><g id="node-80" transform="translate(485.583,57.362)"><circle r="0.0" /></g><g id="node-81" transform="translate(483.407,51.042)"><circle r="0.0" /></g><g id="node-82" transform="translate(483.223,54.202)"><circle r="0.0" /></g><g id="node-83" transform="translate(485.643,46.970)"><circle r="0.0" /></g><g id="node-84" transform="translate(482.068,51.912)"><circle r="0.0" /></g><g id="node-85" transform="translate(487.426,48.485)"><circle r="0.0" /></g><g id="node-86" transform="translate(484.737,46.402)"><circle r="0.0" /></g><g id="node-87" transform="translate(493.869,44.697)"><circle r="0.0" /></g><g id="node-88" transform="translate(481.246,50.198)"><circle r="0.0" /></g><g id="node-89" transform="translate(483.089,45.549)"><circle r="0.0" /></g><g id="node-90" transform="translate(481.117,47.874)"><circle r="0.0" /></g><g id="node-91" transform="translate(479.752,45.717)"><circle r="0.0" /></g><g id="node-92" transform="translate(478.089,44.260)"><circle r="0.0" /></g><g id="node-93" transform="translate(508.847,40.909)"><circle r="0.0" /></g><g id="node-94" transform="translate(475.724,43.153)"><circle r="0.0" /></g><g id="node-95" transform="translate(475.122,40.341)"><circle r="0.0" /></g><g id="node-96" transform="translate(489.449,34.848)"><circle r="0.0" /></g><g id="node-97" transform="translate(471.666,41.747)"><circle r="0.0" /></g><g id="node-98" transform="translate(478.774,34.280)"><circle r="0.0" /></g><g id="node-99" transform="translate(476.991,32.576)"><circle r="0.0" /></g><g id="node-100" transform="translate(491.556,31.061)"><circle r="0.0" /></g><g id="node-101" transform="translate(462.479,40.381)"><circle r="0.0" /></g><g id="node-102" transform="translate(497.584,37.121)"><circle r="0.0" /></g><g id="node-103" transform="translate(468.695,33.428)"><circle r="0.0" /></g><g id="node-104" transform="translate(481.796,30.492)"><circle r="0.0" /></g><g id="node-105" transform="translate(457.315,39.319)"><circle r="0.0" /></g><g id="node-106" transform="translate(485.444,36.553)"><circle r="0.0" /></g><g id="node-107" transform="translate(465.937,31.960)"><circle r="0.0" /></g><g id="node-108" transform="translate(453.815,37.936)"><circle r="0.0" /></g><g id="node-109" transform="translate(446.582,30.563)"><circle r="0.0" /></g><g id="node-110" transform="translate(445.000,34.250)"><circle r="0.0" /></g></g></g></g></g></svg>