<svg class="toyplot-canvas-Canvas" xmlns:toyplot="http://www.sandia.gov/toyplot" xmlns:xlink="http://www.w3.org/1999/xlink" xmlns="http://www.w3.org/2000/svg" width="560.0px" height="100.0px" viewBox="0 0 560.0 100.0" preserveAspectRatio="xMidYMid meet" style="background-color:transparent;border-color:#292724;border-style:none;border-width:1.0;fill:rgb(16.1%,15.3%,14.1%);fill-opacity:1.0;font-family:Helvetica;font-size:12px;opacity:1.0;stroke:rgb(16.1%,15.3%,14.1%);stroke-opacity:1.0;stroke-width:1.0" id="tbd009f4f564149ef82e653fc82a893bb"><g class="toyplot-coordinates-Cartesian" id="t99405f12897c4bf6b1085447ce588f57"><clipPath id="t864dbfa0a07e4b758c25f34aa952d278"><rect x="15.0" y="15.0" width="110.0" height="70.0" /></clipPath><g clip-path="url(#t864dbfa0a07e4b758c25f34aa952d278)"><g class="toytree-mark-Toytree" id="t67c1e9eaad8046b4949927b30342cdd4"><g class="toytree-Edges" style="fill:none;stroke:rgb(14.9%,14.9%,14.9%);stroke-linecap:round;stroke-opacity:1;stroke-width:0.5"><path d="M 25.0 33.0 L 25.0 36.8 L 30.2 36.8" id="22,21" /><path d="M 30.2 36.8 L 30.2 40.7 L 35.8 40.7" id="21,20" /><path d="M 35.8 40.7 L 35.8 44.6 L 43.8 44.6" id="20,19" /><path d="M 43.8 44.6 L 43.8 48.8 L 50.8 48.8" id="19,18" /><path d="M 50.8 48.8 L 50.8 53.2 L 62.0 53.2" id="18,17" /><path d="M 62.0 53.2 L 62.0 58.3 L 75.0 58.3" id="17,16" /><path d="M 75.0 58.3 L 75.0 53.8 L 96.8 53.8" id="16,15" /><path d="M 75.0 58.3 L 75.0 62.8 L 87.1 62.8" id="16,14" /><path d="M 87.1 62.8 L 87.1 66.1 L 102.9 66.1" id="14,13" /><path d="M 102.9 66.1 L 102.9 68.9 L 103.4 68.9" id="13,12" /><path d="M 25.0 33.0 L 25.0 29.2 L 106.0 29.2" id="22,11" /><path d="M 30.2 36.8 L 30.2 33.0 L 110.3 33.0" id="21,10" /><path d="M 35.8 40.7 L 35.8 36.7 L 105.9 36.7" id="20,9" /><path d="M 43.8 44.6 L 43.8 40.5 L 106.2 40.5" id="19,8" /><path d="M 50.8 48.8 L 50.8 44.3 L 107.0 44.3" id="18,7" /><path d="M 62.0 53.2 L 62.0 48.1 L 105.6 48.1" id="17,6" /><path d="M 96.8 53.8 L 96.8 51.9 L 106.9 51.9" id="15,5" /><path d="M 96.8 53.8 L 96.8 55.7 L 108.5 55.7" id="15,4" /><path d="M 87.1 62.8 L 87.1 59.5 L 104.0 59.5" id="14,3" /><path d="M 102.9 66.1 L 102.9 63.3 L 104.0 63.3" id="13,2" /><path d="M 103.4 68.9 L 103.4 67.0 L 103.9 67.0" id="12,1" /><path d="M 103.4 68.9 L 103.4 70.8 L 104.2 70.8" id="12,0" /></g><g class="toytree-Nodes" style="fill:rgb(100%,0%,0%);fill-opacity:1.0;stroke:None;stroke-width:1"><g id="node-0" transform="translate(104.178,70.833)"><circle r="2.5" /></g><g id="node-1" transform="translate(103.857,67.045)"><circle r="2.5" /></g><g id="node-2" transform="translate(103.998,63.258)"><circle r="2.5" /></g><g id="node-3" transform="translate(104.016,59.470)"><circle r="2.5" /></g><g id="node-4" transform="translate(108.452,55.682)"><circle r="2.5" /></g><g id="node-5" transform="translate(106.867,51.894)"><circle r="2.5" /></g><g id="node-6" transform="translate(105.555,48.106)"><circle r="2.5" /></g><g id="node-7" transform="translate(107.018,44.318)"><circle r="2.5" /></g><g id="node-8" transform="translate(106.217,40.530)"><circle r="2.5" /></g><g id="node-9" transform="translate(105.894,36.742)"><circle r="2.5" /></g><g id="node-10" transform="translate(110.263,32.955)"><circle r="2.5" /></g><g id="node-11" transform="translate(105.983,29.167)"><circle r="2.5" /></g><g id="node-12" transform="translate(103.423,68.939)"><circle r="0.0" /></g><g id="node-13" transform="translate(102.918,66.098)"><circle r="0.0" /></g><g id="node-14" transform="translate(87.108,62.784)"><circle r="0.0" /></g><g id="node-15" transform="translate(96.761,53.788)"><circle r="0.0" /></g><g id="node-16" transform="translate(75.043,58.286)"><circle r="0.0" /></g><g id="node-17" transform="translate(62.032,53.196)"><circle r="0.0" /></g><g id="node-18" transform="translate(50.807,48.757)"><circle r="0.0" /></g><g id="node-19" transform="translate(43.765,44.644)"><circle r="0.0" /></g><g id="node-20" transform="translate(35.841,40.693)"><circle r="0.0" /></g><g id="node-21" transform="translate(30.152,36.824)"><circle r="0.0" /></g><g id="node-22" transform="translate(25.000,32.995)"><circle r="0.0" /></g></g></g></g></g><g class="toyplot-coordinates-Cartesian" id="t9a68214e49af4ac7ba6367b53a489a3f"><clipPath id="t0242b00adf434d70a2df3aab238bb93a"><rect x="155.0" y="15.0" width="110.0" height="70.0" /></clipPath><g clip-path="url(#t0242b00adf434d70a2df3aab238bb93a)"><g class="toytree-mark-Toytree" id="tb845371ad8184ce89c2ad9fc7b6e10bf"><g class="toytree-Edges" style="fill:none;stroke:rgb(14.9%,14.9%,14.9%);stroke-linecap:round;stroke-opacity:1;stroke-width:0.5"><path d="M 165.0 33.7 L 165.0 38.2 L 181.6 38.2" id="22,21" /><path d="M 181.6 38.2 L 181.6 43.5 L 188.5 43.5" id="21,20" /><path d="M 188.5 43.5 L 188.5 50.2 L 196.4 50.2" id="20,19" /><path d="M 196.4 50.2 L 196.4 42.4 L 198.4 42.4" id="19,18" /><path d="M 196.4 50.2 L 196.4 58.0 L 198.2 58.0" id="19,17" /><path d="M 198.2 58.0 L 198.2 50.9 L 208.9 50.9" id="17,16" /><path d="M 198.2 58.0 L 198.2 65.2 L 200.3 65.2" id="17,15" /><path d="M 208.9 50.9 L 208.9 53.8 L 213.1 53.8" id="16,14" /><path d="M 200.3 65.2 L 200.3 61.4 L 202.0 61.4" id="15,13" /><path d="M 200.3 65.2 L 200.3 68.9 L 205.9 68.9" id="15,12" /><path d="M 165.0 33.7 L 165.0 29.2 L 244.6 29.2" id="22,11" /><path d="M 181.6 38.2 L 181.6 33.0 L 242.7 33.0" id="21,10" /><path d="M 188.5 43.5 L 188.5 36.7 L 244.9 36.7" id="20,9" /><path d="M 198.4 42.4 L 198.4 40.5 L 245.0 40.5" id="18,8" /><path d="M 198.4 42.4 L 198.4 44.3 L 245.7 44.3" id="18,7" /><path d="M 208.9 50.9 L 208.9 48.1 L 243.5 48.1" id="16,6" /><path d="M 213.1 53.8 L 213.1 51.9 L 250.3 51.9" id="14,5" /><path d="M 213.1 53.8 L 213.1 55.7 L 243.9 55.7" id="14,4" /><path d="M 202.0 61.4 L 202.0 59.5 L 243.1 59.5" id="13,3" /><path d="M 202.0 61.4 L 202.0 63.3 L 242.0 63.3" id="13,2" /><path d="M 205.9 68.9 L 205.9 67.0 L 242.8 67.0" id="12,1" /><path d="M 205.9 68.9 L 205.9 70.8 L 247.3 70.8" id="12,0" /></g><g class="toytree-Nodes" style="fill:rgb(100%,0%,0%);fill-opacity:1.0;stroke:None;stroke-width:1"><g id="node-0" transform="translate(247.296,70.833)"><circle r="2.5" /></g><g id="node-1" transform="translate(242.833,67.045)"><circle r="2.5" /></g><g id="node-2" transform="translate(241.998,63.258)"><circle r="2.5" /></g><g id="node-3" transform="translate(243.137,59.470)"><circle r="2.5" /></g><g id="node-4" transform="translate(243.914,55.682)"><circle r="2.5" /></g><g id="node-5" transform="translate(250.263,51.894)"><circle r="2.5" /></g><g id="node-6" transform="translate(243.454,48.106)"><circle r="2.5" /></g><g id="node-7" transform="translate(245.712,44.318)"><circle r="2.5" /></g><g id="node-8" transform="translate(244.977,40.530)"><circle r="2.5" /></g><g id="node-9" transform="translate(244.943,36.742)"><circle r="2.5" /></g><g id="node-10" transform="translate(242.667,32.955)"><circle r="2.5" /></g><g id="node-11" transform="translate(244.589,29.167)"><circle r="2.5" /></g><g id="node-12" transform="translate(205.925,68.939)"><circle r="0.0" /></g><g id="node-13" transform="translate(201.979,61.364)"><circle r="0.0" /></g><g id="node-14" transform="translate(213.124,53.788)"><circle r="0.0" /></g><g id="node-15" transform="translate(200.319,65.152)"><circle r="0.0" /></g><g id="node-16" transform="translate(208.854,50.947)"><circle r="0.0" /></g><g id="node-17" transform="translate(198.187,58.049)"><circle r="0.0" /></g><g id="node-18" transform="translate(198.353,42.424)"><circle r="0.0" /></g><g id="node-19" transform="translate(196.423,50.237)"><circle r="0.0" /></g><g id="node-20" transform="translate(188.506,43.490)"><circle r="0.0" /></g><g id="node-21" transform="translate(181.619,38.222)"><circle r="0.0" /></g><g id="node-22" transform="translate(165.000,33.694)"><circle r="0.0" /></g></g></g></g></g><g class="toyplot-coordinates-Cartesian" id="ta0bae4fd27904b948cd3aff7dc7467c4"><clipPath id="t17e0325951c844f3921e3411aa7dded0"><rect x="295.0" y="15.0" width="110.0" height="70.0" /></clipPath><g clip-path="url(#t17e0325951c844f3921e3411aa7dded0)"><g class="toytree-mark-Toytree" id="t46abfe36680f413c877d409101196859"><g class="toytree-Edges" style="fill:none;stroke:rgb(14.9%,14.9%,14.9%);stroke-linecap:round;stroke-opacity:1;stroke-width:0.5"><path d="M 305.0 33.0 L 305.0 36.8 L 313.0 36.8" id="22,21" /><path d="M 313.0 36.8 L 313.0 40.7 L 329.9 40.7" id="21,20" /><path d="M 329.9 40.7 L 329.9 44.6 L 336.3 44.6" id="20,19" /><path d="M 336.3 44.6 L 336.3 48.8 L 340.0 48.8" id="19,18" /><path d="M 340.0 48.8 L 340.0 53.2 L 345.2 53.2" id="18,17" /><path d="M 345.2 53.2 L 345.2 58.3 L 347.6 58.3" id="17,16" /><path d="M 347.6 58.3 L 347.6 53.8 L 353.8 53.8" id="16,15" /><path d="M 347.6 58.3 L 347.6 62.8 L 351.7 62.8" id="16,14" /><path d="M 351.7 62.8 L 351.7 66.1 L 354.0 66.1" id="14,13" /><path d="M 354.0 66.1 L 354.0 68.9 L 355.6 68.9" id="13,12" /><path d="M 305.0 33.0 L 305.0 29.2 L 370.4 29.2" id="22,11" /><path d="M 313.0 36.8 L 313.0 33.0 L 378.0 33.0" id="21,10" /><path d="M 329.9 40.7 L 329.9 36.7 L 375.0 36.7" id="20,9" /><path d="M 336.3 44.6 L 336.3 40.5 L 368.2 40.5" id="19,8" /><path d="M 340.0 48.8 L 340.0 44.3 L 365.1 44.3" id="18,7" /><path d="M 345.2 53.2 L 345.2 48.1 L 366.9 48.1" id="17,6" /><path d="M 353.8 53.8 L 353.8 51.9 L 390.3 51.9" id="15,5" /><path d="M 353.8 53.8 L 353.8 55.7 L 371.7 55.7" id="15,4" /><path d="M 351.7 62.8 L 351.7 59.5 L 369.8 59.5" id="14,3" /><path d="M 354.0 66.1 L 354.0 63.3 L 367.2 63.3" id="13,2" /><path d="M 355.6 68.9 L 355.6 67.0 L 364.4 67.0" id="12,1" /><path d="M 355.6 68.9 L 355.6 70.8 L 365.2 70.8" id="12,0" /></g><g class="toytree-Nodes" style="fill:rgb(100%,0%,0%);fill-opacity:1.0;stroke:None;stroke-width:1"><g id="node-0" transform="translate(365.173,70.833)"><circle r="2.5" /></g><g id="node-1" transform="translate(364.421,67.045)"><circle r="2.5" /></g><g id="node-2" transform="translate(367.228,63.258)"><circle r="2.5" /></g><g id="node-3" transform="translate(369.762,59.470)"><circle r="2.5" /></g><g id="node-4" transform="translate(371.724,55.682)"><circle r="2.5" /></g><g id="node-5" transform="translate(390.263,51.894)"><circle r="2.5" /></g><g id="node-6" transform="translate(366.865,48.106)"><circle r="2.5" /></g><g id="node-7" transform="translate(365.127,44.318)"><circle r="2.5" /></g><g id="node-8" transform="translate(368.241,40.530)"><circle r="2.5" /></g><g id="node-9" transform="translate(374.977,36.742)"><circle r="2.5" /></g><g id="node-10" transform="translate(378.032,32.955)"><circle r="2.5" /></g><g id="node-11" transform="translate(370.351,29.167)"><circle r="2.5" /></g><g id="node-12" transform="translate(355.577,68.939)"><circle r="0.0" /></g><g id="node-13" transform="translate(353.964,66.098)"><circle r="0.0" /></g><g id="node-14" transform="translate(351.718,62.784)"><circle r="0.0" /></g><g id="node-15" transform="translate(353.796,53.788)"><circle r="0.0" /></g><g id="node-16" transform="translate(347.624,58.286)"><circle r="0.0" /></g><g id="node-17" transform="translate(345.239,53.196)"><circle r="0.0" /></g><g id="node-18" transform="translate(340.004,48.757)"><circle r="0.0" /></g><g id="node-19" transform="translate(336.273,44.644)"><circle r="0.0" /></g><g id="node-20" transform="translate(329.887,40.693)"><circle r="0.0" /></g><g id="node-21" transform="translate(313.044,36.824)"><circle r="0.0" /></g><g id="node-22" transform="translate(305.000,32.995)"><circle r="0.0" /></g></g></g></g></g><g class="toyplot-coordinates-Cartesian" id="t1678db0a0ad64474a12829764f55cfcc"><clipPath id="t4d0941b676c545788dc2a8d3cdd0435c"><rect x="435.0" y="15.0" width="110.0" height="70.0" /></clipPath><g clip-path="url(#t4d0941b676c545788dc2a8d3cdd0435c)"><g class="toytree-mark-Toytree" id="t624b0f2d0283484ab51be9491f99bc7f"><g class="toytree-Edges" style="fill:none;stroke:rgb(14.9%,14.9%,14.9%);stroke-linecap:round;stroke-opacity:1;stroke-width:0.5"><path d="M 445.0 33.0 L 445.0 36.8 L 466.5 36.8" id="22,21" /><path d="M 466.5 36.8 L 466.5 40.7 L 472.0 40.7" id="21,20" /><path d="M 472.0 40.7 L 472.0 44.6 L 483.1 44.6" id="20,19" /><path d="M 483.1 44.6 L 483.1 48.8 L 490.1 48.8" id="19,18" /><path d="M 490.1 48.8 L 490.1 53.2 L 499.1 53.2" id="18,17" /><path d="M 499.1 53.2 L 499.1 58.3 L 506.2 58.3" id="17,16" /><path d="M 506.2 58.3 L 506.2 53.8 L 516.5 53.8" id="16,15" /><path d="M 506.2 58.3 L 506.2 62.8 L 508.3 62.8" id="16,14" /><path d="M 508.3 62.8 L 508.3 66.1 L 512.2 66.1" id="14,13" /><path d="M 512.2 66.1 L 512.2 68.9 L 512.3 68.9" id="13,12" /><path d="M 445.0 33.0 L 445.0 29.2 L 515.9 29.2" id="22,11" /><path d="M 466.5 36.8 L 466.5 33.0 L 530.3 33.0" id="21,10" /><path d="M 472.0 40.7 L 472.0 36.7 L 509.4 36.7" id="20,9" /><path d="M 483.1 44.6 L 483.1 40.5 L 519.8 40.5" id="19,8" /><path d="M 490.1 48.8 L 490.1 44.3 L 517.9 44.3" id="18,7" /><path d="M 499.1 53.2 L 499.1 48.1 L 513.9 48.1" id="17,6" /><path d="M 516.5 53.8 L 516.5 51.9 L 518.4 51.9" id="15,5" /><path d="M 516.5 53.8 L 516.5 55.7 L 519.7 55.7" id="15,4" /><path d="M 508.3 62.8 L 508.3 59.5 L 512.5 59.5" id="14,3" /><path d="M 512.2 66.1 L 512.2 63.3 L 512.4 63.3" id="13,2" /><path d="M 512.3 68.9 L 512.3 67.0 L 512.3 67.0" id="12,1" /><path d="M 512.3 68.9 L 512.3 70.8 L 512.5 70.8" id="12,0" /></g><g class="toytree-Nodes" style="fill:rgb(100%,0%,0%);fill-opacity:1.0;stroke:None;stroke-width:1"><g id="node-0" transform="translate(512.457,70.833)"><circle r="2.5" /></g><g id="node-1" transform="translate(512.343,67.045)"><circle r="2.5" /></g><g id="node-2" transform="translate(512.412,63.258)"><circle r="2.5" /></g><g id="node-3" transform="translate(512.531,59.470)"><circle r="2.5" /></g><g id="node-4" transform="translate(519.680,55.682)"><circle r="2.5" /></g><g id="node-5" transform="translate(518.415,51.894)"><circle r="2.5" /></g><g id="node-6" transform="translate(513.891,48.106)"><circle r="2.5" /></g><g id="node-7" transform="translate(517.915,44.318)"><circle r="2.5" /></g><g id="node-8" transform="translate(519.786,40.530)"><circle r="2.5" /></g><g id="node-9" transform="translate(509.362,36.742)"><circle r="2.5" /></g><g id="node-10" transform="translate(530.263,32.955)"><circle r="2.5" /></g><g id="node-11" transform="translate(515.871,29.167)"><circle r="2.5" /></g><g id="node-12" transform="translate(512.287,68.939)"><circle r="0.0" /></g><g id="node-13" transform="translate(512.179,66.098)"><circle r="0.0" /></g><g id="node-14" transform="translate(508.279,62.784)"><circle r="0.0" /></g><g id="node-15" transform="translate(516.538,53.788)"><circle r="0.0" /></g><g id="node-16" transform="translate(506.222,58.286)"><circle r="0.0" /></g><g id="node-17" transform="translate(499.096,53.196)"><circle r="0.0" /></g><g id="node-18" transform="translate(490.080,48.757)"><circle r="0.0" /></g><g id="node-19" transform="translate(483.143,44.644)"><circle r="0.0" /></g><g id="node-20" transform="translate(471.986,40.693)"><circle r="0.0" /></g><g id="node-21" transform="translate(466.481,36.824)"><circle r="0.0" /></g><g id="node-22" transform="translate(445.000,32.995)"><circle r="0.0" /></g></g></g></g></g></svg>