<svg class="toyplot-canvas-Canvas" xmlns:toyplot="http://www.sandia.gov/toyplot" xmlns:xlink="http://www.w3.org/1999/xlink" xmlns="http://www.w3.org/2000/svg" width="560.0px" height="100.0px" viewBox="0 0 560.0 100.0" preserveAspectRatio="xMidYMid meet" style="background-color:transparent;border-color:#292724;border-style:none;border-width:1.0;fill:rgb(16.1%,15.3%,14.1%);fill-opacity:1.0;font-family:Helvetica;font-size:12px;opacity:1.0;stroke:rgb(16.1%,15.3%,14.1%);stroke-opacity:1.0;stroke-width:1.0" id="t52ee797005a049d491185968d4bc3fe5"><g class="toyplot-coordinates-Cartesian" id="te7900aca29354f5ab2ad78fa1fc25c5d"><clipPath id="t13fb5cd9922d41659b9b72a4191aa646"><rect x="15.0" y="15.0" width="110.0" height="70.0" /></clipPath><g clip-path="url(#t13fb5cd9922d41659b9b72a4191aa646)"><g class="toytree-mark-Toytree" id="te8ad102c9853423c9799a252613899ee"><g class="toytree-Edges" style="fill:none;stroke:rgb(14.9%,14.9%,14.9%);stroke-linecap:round;stroke-opacity:1;stroke-width:0.5"><path d="M 25.0 35.1 L 25.0 31.0 L 30.6 31.0" id="34,33" /><path d="M 25.0 35.1 L 25.0 39.2 L 25.7 39.2" id="34,32" /><path d="M 30.6 31.0 L 30.6 32.8 L 36.9 32.8" id="33,31" /><path d="M 25.7 39.2 L 25.7 41.9 L 29.9 41.9" id="32,30" /><path d="M 29.9 41.9 L 29.9 44.9 L 31.3 44.9" id="30,29" /><path d="M 31.3 44.9 L 31.3 48.3 L 40.1 48.3" id="29,28" /><path d="M 40.1 48.3 L 40.1 52.8 L 75.5 52.8" id="28,27" /><path d="M 75.5 52.8 L 75.5 48.2 L 80.7 48.2" id="27,26" /><path d="M 75.5 52.8 L 75.5 57.4 L 87.9 57.4" id="27,25" /><path d="M 80.7 48.2 L 80.7 50.0 L 82.4 50.0" id="26,24" /><path d="M 87.9 57.4 L 87.9 61.2 L 90.4 61.2" id="25,23" /><path d="M 90.4 61.2 L 90.4 57.4 L 92.0 57.4" id="23,22" /><path d="M 90.4 61.2 L 90.4 65.0 L 91.0 65.0" id="23,21" /><path d="M 91.0 65.0 L 91.0 62.3 L 93.4 62.3" id="21,20" /><path d="M 91.0 65.0 L 91.0 67.8 L 91.9 67.8" id="21,19" /><path d="M 91.9 67.8 L 91.9 69.6 L 95.6 69.6" id="19,18" /><path d="M 30.6 31.0 L 30.6 29.2 L 83.7 29.2" id="33,17" /><path d="M 36.9 32.8 L 36.9 31.6 L 105.7 31.6" id="31,16" /><path d="M 36.9 32.8 L 36.9 34.1 L 100.7 34.1" id="31,15" /><path d="M 25.7 39.2 L 25.7 36.5 L 94.4 36.5" id="32,14" /><path d="M 29.9 41.9 L 29.9 39.0 L 95.9 39.0" id="30,13" /><path d="M 31.3 44.9 L 31.3 41.4 L 110.3 41.4" id="29,12" /><path d="M 40.1 48.3 L 40.1 43.9 L 97.6 43.9" id="28,11" /><path d="M 80.7 48.2 L 80.7 46.3 L 91.0 46.3" id="26,10" /><path d="M 82.4 50.0 L 82.4 48.8 L 89.7 48.8" id="24,9" /><path d="M 82.4 50.0 L 82.4 51.2 L 104.8 51.2" id="24,8" /><path d="M 87.9 57.4 L 87.9 53.7 L 91.0 53.7" id="25,7" /><path d="M 92.0 57.4 L 92.0 56.1 L 93.4 56.1" id="22,6" /><path d="M 92.0 57.4 L 92.0 58.6 L 94.1 58.6" id="22,5" /><path d="M 93.4 62.3 L 93.4 61.0 L 93.4 61.0" id="20,4" /><path d="M 93.4 62.3 L 93.4 63.5 L 93.4 63.5" id="20,3" /><path d="M 91.9 67.8 L 91.9 65.9 L 91.9 65.9" id="19,2" /><path d="M 95.6 69.6 L 95.6 68.4 L 96.1 68.4" id="18,1" /><path d="M 95.6 69.6 L 95.6 70.8 L 97.5 70.8" id="18,0" /></g><g class="toytree-Nodes" style="fill:rgb(100%,0%,0%);fill-opacity:1.0;stroke:None;stroke-width:1"><g id="node-0" transform="translate(97.542,70.833)"><circle r="2.5" /></g><g id="node-1" transform="translate(96.065,68.382)"><circle r="2.5" /></g><g id="node-2" transform="translate(91.856,65.931)"><circle r="2.5" /></g><g id="node-3" transform="translate(93.403,63.480)"><circle r="2.5" /></g><g id="node-4" transform="translate(93.403,61.029)"><circle r="2.5" /></g><g id="node-5" transform="translate(94.072,58.578)"><circle r="2.5" /></g><g id="node-6" transform="translate(93.386,56.127)"><circle r="2.5" /></g><g id="node-7" transform="translate(91.014,53.676)"><circle r="2.5" /></g><g id="node-8" transform="translate(104.781,51.225)"><circle r="2.5" /></g><g id="node-9" transform="translate(89.680,48.775)"><circle r="2.5" /></g><g id="node-10" transform="translate(90.961,46.324)"><circle r="2.5" /></g><g id="node-11" transform="translate(97.614,43.873)"><circle r="2.5" /></g><g id="node-12" transform="translate(110.263,41.422)"><circle r="2.5" /></g><g id="node-13" transform="translate(95.932,38.971)"><circle r="2.5" /></g><g id="node-14" transform="translate(94.378,36.520)"><circle r="2.5" /></g><g id="node-15" transform="translate(100.651,34.069)"><circle r="2.5" /></g><g id="node-16" transform="translate(105.718,31.618)"><circle r="2.5" /></g><g id="node-17" transform="translate(83.750,29.167)"><circle r="2.5" /></g><g id="node-18" transform="translate(95.597,69.608)"><circle r="0.0" /></g><g id="node-19" transform="translate(91.856,67.770)"><circle r="0.0" /></g><g id="node-20" transform="translate(93.403,62.255)"><circle r="0.0" /></g><g id="node-21" transform="translate(91.031,65.012)"><circle r="0.0" /></g><g id="node-22" transform="translate(91.980,57.353)"><circle r="0.0" /></g><g id="node-23" transform="translate(90.375,61.183)"><circle r="0.0" /></g><g id="node-24" transform="translate(82.390,50.000)"><circle r="0.0" /></g><g id="node-25" transform="translate(87.923,57.430)"><circle r="0.0" /></g><g id="node-26" transform="translate(80.703,48.162)"><circle r="0.0" /></g><g id="node-27" transform="translate(75.508,52.796)"><circle r="0.0" /></g><g id="node-28" transform="translate(40.128,48.334)"><circle r="0.0" /></g><g id="node-29" transform="translate(31.296,44.878)"><circle r="0.0" /></g><g id="node-30" transform="translate(29.940,41.924)"><circle r="0.0" /></g><g id="node-31" transform="translate(36.946,32.843)"><circle r="0.0" /></g><g id="node-32" transform="translate(25.741,39.222)"><circle r="0.0" /></g><g id="node-33" transform="translate(30.607,31.005)"><circle r="0.0" /></g><g id="node-34" transform="translate(25.000,35.113)"><circle r="0.0" /></g></g></g></g></g><g class="toyplot-coordinates-Cartesian" id="t43f16821f3dc49b8bafbe51fedf15ae8"><clipPath id="t938113c9fced4481b99a435e6017755c"><rect x="155.0" y="15.0" width="110.0" height="70.0" /></clipPath><g clip-path="url(#t938113c9fced4481b99a435e6017755c)"><g class="toytree-mark-Toytree" id="t4e53238eb73c492a9ee052bef4cf4c99"><g class="toytree-Edges" style="fill:none;stroke:rgb(14.9%,14.9%,14.9%);stroke-linecap:round;stroke-opacity:1;stroke-width:0.5"><path d="M 165.0 32.8 L 165.0 36.4 L 166.0 36.4" id="34,33" /><path d="M 166.0 36.4 L 166.0 41.2 L 167.4 41.2" id="33,32" /><path d="M 167.4 41.2 L 167.4 48.4 L 174.3 48.4" id="32,31" /><path d="M 174.3 48.4 L 174.3 40.5 L 175.3 40.5" id="31,30" /><path d="M 174.3 48.4 L 174.3 56.4 L 176.7 56.4" id="31,29" /><path d="M 175.3 40.5 L 175.3 37.7 L 189.3 37.7" id="30,28" /><path d="M 175.3 40.5 L 175.3 43.3 L 181.0 43.3" id="30,27" /><path d="M 176.7 56.4 L 176.7 50.9 L 187.2 50.9" id="29,26" /><path d="M 176.7 56.4 L 176.7 61.8 L 180.8 61.8" id="29,25" /><path d="M 181.0 43.3 L 181.0 45.1 L 206.5 45.1" id="27,24" /><path d="M 187.2 50.9 L 187.2 53.1 L 198.2 53.1" id="26,23" /><path d="M 180.8 61.8 L 180.8 65.0 L 187.2 65.0" id="25,22" /><path d="M 198.2 53.1 L 198.2 54.9 L 224.4 54.9" id="23,21" /><path d="M 187.2 65.0 L 187.2 62.3 L 196.4 62.3" id="22,20" /><path d="M 187.2 65.0 L 187.2 67.8 L 190.3 67.8" id="22,19" /><path d="M 190.3 67.8 L 190.3 69.6 L 199.3 69.6" id="19,18" /><path d="M 165.0 32.8 L 165.0 29.2 L 243.1 29.2" id="34,17" /><path d="M 166.0 36.4 L 166.0 31.6 L 244.3 31.6" id="33,16" /><path d="M 167.4 41.2 L 167.4 34.1 L 240.8 34.1" id="32,15" /><path d="M 189.3 37.7 L 189.3 36.5 L 238.2 36.5" id="28,14" /><path d="M 189.3 37.7 L 189.3 39.0 L 246.1 39.0" id="28,13" /><path d="M 181.0 43.3 L 181.0 41.4 L 249.5 41.4" id="27,12" /><path d="M 206.5 45.1 L 206.5 43.9 L 238.0 43.9" id="24,11" /><path d="M 206.5 45.1 L 206.5 46.3 L 232.3 46.3" id="24,10" /><path d="M 187.2 50.9 L 187.2 48.8 L 248.0 48.8" id="26,9" /><path d="M 198.2 53.1 L 198.2 51.2 L 246.7 51.2" id="23,8" /><path d="M 224.4 54.9 L 224.4 53.7 L 246.2 53.7" id="21,7" /><path d="M 224.4 54.9 L 224.4 56.1 L 243.9 56.1" id="21,6" /><path d="M 180.8 61.8 L 180.8 58.6 L 246.9 58.6" id="25,5" /><path d="M 196.4 62.3 L 196.4 61.0 L 244.5 61.0" id="20,4" /><path d="M 196.4 62.3 L 196.4 63.5 L 237.6 63.5" id="20,3" /><path d="M 190.3 67.8 L 190.3 65.9 L 246.5 65.9" id="19,2" /><path d="M 199.3 69.6 L 199.3 68.4 L 250.3 68.4" id="18,1" /><path d="M 199.3 69.6 L 199.3 70.8 L 238.5 70.8" id="18,0" /></g><g class="toytree-Nodes" style="fill:rgb(100%,0%,0%);fill-opacity:1.0;stroke:None;stroke-width:1"><g id="node-0" transform="translate(238.493,70.833)"><circle r="2.5" /></g><g id="node-1" transform="translate(250.263,68.382)"><circle r="2.5" /></g><g id="node-2" transform="translate(246.510,65.931)"><circle r="2.5" /></g><g id="node-3" transform="translate(237.609,63.480)"><circle r="2.5" /></g><g id="node-4" transform="translate(244.468,61.029)"><circle r="2.5" /></g><g id="node-5" transform="translate(246.875,58.578)"><circle r="2.5" /></g><g id="node-6" transform="translate(243.883,56.127)"><circle r="2.5" /></g><g id="node-7" transform="translate(246.237,53.676)"><circle r="2.5" /></g><g id="node-8" transform="translate(246.696,51.225)"><circle r="2.5" /></g><g id="node-9" transform="translate(248.013,48.775)"><circle r="2.5" /></g><g id="node-10" transform="translate(232.279,46.324)"><circle r="2.5" /></g><g id="node-11" transform="translate(237.993,43.873)"><circle r="2.5" /></g><g id="node-12" transform="translate(249.516,41.422)"><circle r="2.5" /></g><g id="node-13" transform="translate(246.147,38.971)"><circle r="2.5" /></g><g id="node-14" transform="translate(238.157,36.520)"><circle r="2.5" /></g><g id="node-15" transform="translate(240.775,34.069)"><circle r="2.5" /></g><g id="node-16" transform="translate(244.250,31.618)"><circle r="2.5" /></g><g id="node-17" transform="translate(243.110,29.167)"><circle r="2.5" /></g><g id="node-18" transform="translate(199.304,69.608)"><circle r="0.0" /></g><g id="node-19" transform="translate(190.304,67.770)"><circle r="0.0" /></g><g id="node-20" transform="translate(196.363,62.255)"><circle r="0.0" /></g><g id="node-21" transform="translate(224.396,54.902)"><circle r="0.0" /></g><g id="node-22" transform="translate(187.225,65.012)"><circle r="0.0" /></g><g id="node-23" transform="translate(198.212,53.064)"><circle r="0.0" /></g><g id="node-24" transform="translate(206.521,45.098)"><circle r="0.0" /></g><g id="node-25" transform="translate(180.820,61.795)"><circle r="0.0" /></g><g id="node-26" transform="translate(187.176,50.919)"><circle r="0.0" /></g><g id="node-27" transform="translate(180.963,43.260)"><circle r="0.0" /></g><g id="node-28" transform="translate(189.308,37.745)"><circle r="0.0" /></g><g id="node-29" transform="translate(176.728,56.357)"><circle r="0.0" /></g><g id="node-30" transform="translate(175.271,40.502)"><circle r="0.0" /></g><g id="node-31" transform="translate(174.266,48.430)"><circle r="0.0" /></g><g id="node-32" transform="translate(167.423,41.249)"><circle r="0.0" /></g><g id="node-33" transform="translate(165.973,36.433)"><circle r="0.0" /></g><g id="node-34" transform="translate(165.000,32.800)"><circle r="0.0" /></g></g></g></g></g><g class="toyplot-coordinates-Cartesian" id="t259194221a4747c995f03a13aa0dfdfc"><clipPath id="t52be3f01b45e4af19ac8ffc17a124b2d"><rect x="295.0" y="15.0" width="110.0" height="70.0" /></clipPath><g clip-path="url(#t52be3f01b45e4af19ac8ffc17a124b2d)"><g class="toytree-mark-Toytree" id="tf7d1d77e496949aa97a5fd56e81df9f2"><g class="toytree-Edges" style="fill:none;stroke:rgb(14.9%,14.9%,14.9%);stroke-linecap:round;stroke-opacity:1;stroke-width:0.5"><path d="M 305.0 34.7 L 305.0 40.2 L 312.9 40.2" id="34,33" /><path d="M 312.9 40.2 L 312.9 32.8 L 325.2 32.8" id="33,32" /><path d="M 312.9 40.2 L 312.9 47.5 L 316.3 47.5" id="33,31" /><path d="M 316.3 47.5 L 316.3 38.7 L 318.8 38.7" id="31,30" /><path d="M 316.3 47.5 L 316.3 56.4 L 335.5 56.4" id="31,29" /><path d="M 318.8 38.7 L 318.8 40.8 L 324.0 40.8" id="30,28" /><path d="M 335.5 56.4 L 335.5 48.6 L 344.8 48.6" id="29,27" /><path d="M 335.5 56.4 L 335.5 64.1 L 340.8 64.1" id="29,26" /><path d="M 324.0 40.8 L 324.0 42.6 L 326.7 42.6" id="28,25" /><path d="M 344.8 48.6 L 344.8 50.9 L 356.6 50.9" id="27,24" /><path d="M 340.8 64.1 L 340.8 60.4 L 341.1 60.4" id="26,23" /><path d="M 340.8 64.1 L 340.8 67.8 L 342.9 67.8" id="26,22" /><path d="M 356.6 50.9 L 356.6 53.1 L 358.2 53.1" id="24,21" /><path d="M 341.1 60.4 L 341.1 62.3 L 350.9 62.3" id="23,20" /><path d="M 342.9 67.8 L 342.9 69.6 L 346.2 69.6" id="22,19" /><path d="M 358.2 53.1 L 358.2 54.9 L 360.4 54.9" id="21,18" /><path d="M 305.0 34.7 L 305.0 29.2 L 370.7 29.2" id="34,17" /><path d="M 325.2 32.8 L 325.2 31.6 L 385.8 31.6" id="32,16" /><path d="M 325.2 32.8 L 325.2 34.1 L 366.7 34.1" id="32,15" /><path d="M 318.8 38.7 L 318.8 36.5 L 367.0 36.5" id="30,14" /><path d="M 324.0 40.8 L 324.0 39.0 L 358.6 39.0" id="28,13" /><path d="M 326.7 42.6 L 326.7 41.4 L 390.3 41.4" id="25,12" /><path d="M 326.7 42.6 L 326.7 43.9 L 388.4 43.9" id="25,11" /><path d="M 344.8 48.6 L 344.8 46.3 L 367.2 46.3" id="27,10" /><path d="M 356.6 50.9 L 356.6 48.8 L 369.4 48.8" id="24,9" /><path d="M 358.2 53.1 L 358.2 51.2 L 366.9 51.2" id="21,8" /><path d="M 360.4 54.9 L 360.4 53.7 L 376.5 53.7" id="18,7" /><path d="M 360.4 54.9 L 360.4 56.1 L 371.0 56.1" id="18,6" /><path d="M 341.1 60.4 L 341.1 58.6 L 369.4 58.6" id="23,5" /><path d="M 350.9 62.3 L 350.9 61.0 L 375.0 61.0" id="20,4" /><path d="M 350.9 62.3 L 350.9 63.5 L 369.5 63.5" id="20,3" /><path d="M 342.9 67.8 L 342.9 65.9 L 362.6 65.9" id="22,2" /><path d="M 346.2 69.6 L 346.2 68.4 L 362.2 68.4" id="19,1" /><path d="M 346.2 69.6 L 346.2 70.8 L 374.7 70.8" id="19,0" /></g><g class="toytree-Nodes" style="fill:rgb(100%,0%,0%);fill-opacity:1.0;stroke:None;stroke-width:1"><g id="node-0" transform="translate(374.703,70.833)"><circle r="2.5" /></g><g id="node-1" transform="translate(362.174,68.382)"><circle r="2.5" /></g><g id="node-2" transform="translate(362.588,65.931)"><circle r="2.5" /></g><g id="node-3" transform="translate(369.463,63.480)"><circle r="2.5" /></g><g id="node-4" transform="translate(375.016,61.029)"><circle r="2.5" /></g><g id="node-5" transform="translate(369.386,58.578)"><circle r="2.5" /></g><g id="node-6" transform="translate(371.046,56.127)"><circle r="2.5" /></g><g id="node-7" transform="translate(376.549,53.676)"><circle r="2.5" /></g><g id="node-8" transform="translate(366.931,51.225)"><circle r="2.5" /></g><g id="node-9" transform="translate(369.446,48.775)"><circle r="2.5" /></g><g id="node-10" transform="translate(367.194,46.324)"><circle r="2.5" /></g><g id="node-11" transform="translate(388.435,43.873)"><circle r="2.5" /></g><g id="node-12" transform="translate(390.263,41.422)"><circle r="2.5" /></g><g id="node-13" transform="translate(358.635,38.971)"><circle r="2.5" /></g><g id="node-14" transform="translate(366.957,36.520)"><circle r="2.5" /></g><g id="node-15" transform="translate(366.703,34.069)"><circle r="2.5" /></g><g id="node-16" transform="translate(385.751,31.618)"><circle r="2.5" /></g><g id="node-17" transform="translate(370.750,29.167)"><circle r="2.5" /></g><g id="node-18" transform="translate(360.421,54.902)"><circle r="0.0" /></g><g id="node-19" transform="translate(346.216,69.608)"><circle r="0.0" /></g><g id="node-20" transform="translate(350.863,62.255)"><circle r="0.0" /></g><g id="node-21" transform="translate(358.237,53.064)"><circle r="0.0" /></g><g id="node-22" transform="translate(342.888,67.770)"><circle r="0.0" /></g><g id="node-23" transform="translate(341.077,60.417)"><circle r="0.0" /></g><g id="node-24" transform="translate(356.603,50.919)"><circle r="0.0" /></g><g id="node-25" transform="translate(326.744,42.647)"><circle r="0.0" /></g><g id="node-26" transform="translate(340.764,64.093)"><circle r="0.0" /></g><g id="node-27" transform="translate(344.785,48.621)"><circle r="0.0" /></g><g id="node-28" transform="translate(323.959,40.809)"><circle r="0.0" /></g><g id="node-29" transform="translate(335.498,56.357)"><circle r="0.0" /></g><g id="node-30" transform="translate(318.803,38.664)"><circle r="0.0" /></g><g id="node-31" transform="translate(316.255,47.511)"><circle r="0.0" /></g><g id="node-32" transform="translate(325.178,32.843)"><circle r="0.0" /></g><g id="node-33" transform="translate(312.860,40.177)"><circle r="0.0" /></g><g id="node-34" transform="translate(305.000,34.672)"><circle r="0.0" /></g></g></g></g></g><g class="toyplot-coordinates-Cartesian" id="t16c56314f1cc4e7389b4a08bb25c27b3"><clipPath id="ta268ceeb901445cf83e8936284618fc5"><rect x="435.0" y="15.0" width="110.0" height="70.0" /></clipPath><g clip-path="url(#ta268ceeb901445cf83e8936284618fc5)"><g class="toytree-mark-Toytree" id="tb327254bf0164d4b918927ab82845e00"><g class="toytree-Edges" style="fill:none;stroke:rgb(14.9%,14.9%,14.9%);stroke-linecap:round;stroke-opacity:1;stroke-width:0.5"><path d="M 445.0 34.6 L 445.0 40.1 L 458.2 40.1" id="34,33" /><path d="M 458.2 40.1 L 458.2 33.5 L 481.2 33.5" id="33,32" /><path d="M 458.2 40.1 L 458.2 46.8 L 469.3 46.8" id="33,31" /><path d="M 481.2 33.5 L 481.2 35.3 L 489.1 35.3" id="32,30" /><path d="M 469.3 46.8 L 469.3 40.8 L 476.1 40.8" id="31,29" /><path d="M 469.3 46.8 L 469.3 52.8 L 495.5 52.8" id="31,28" /><path d="M 476.1 40.8 L 476.1 42.6 L 485.2 42.6" id="29,27" /><path d="M 495.5 52.8 L 495.5 48.2 L 498.7 48.2" id="28,26" /><path d="M 495.5 52.8 L 495.5 57.4 L 499.5 57.4" id="28,25" /><path d="M 498.7 48.2 L 498.7 50.0 L 499.5 50.0" id="26,24" /><path d="M 499.5 57.4 L 499.5 61.2 L 501.0 61.2" id="25,23" /><path d="M 501.0 61.2 L 501.0 57.4 L 501.8 57.4" id="23,22" /><path d="M 501.0 61.2 L 501.0 65.0 L 501.0 65.0" id="23,21" /><path d="M 501.0 65.0 L 501.0 62.3 L 501.7 62.3" id="21,20" /><path d="M 501.0 65.0 L 501.0 67.8 L 501.3 67.8" id="21,19" /><path d="M 501.3 67.8 L 501.3 69.6 L 502.0 69.6" id="19,18" /><path d="M 445.0 34.6 L 445.0 29.2 L 506.8 29.2" id="34,17" /><path d="M 481.2 33.5 L 481.2 31.6 L 503.5 31.6" id="32,16" /><path d="M 489.1 35.3 L 489.1 34.1 L 529.2 34.1" id="30,15" /><path d="M 489.1 35.3 L 489.1 36.5 L 524.3 36.5" id="30,14" /><path d="M 476.1 40.8 L 476.1 39.0 L 504.7 39.0" id="29,13" /><path d="M 485.2 42.6 L 485.2 41.4 L 524.5 41.4" id="27,12" /><path d="M 485.2 42.6 L 485.2 43.9 L 530.3 43.9" id="27,11" /><path d="M 498.7 48.2 L 498.7 46.3 L 501.8 46.3" id="26,10" /><path d="M 499.5 50.0 L 499.5 48.8 L 503.5 48.8" id="24,9" /><path d="M 499.5 50.0 L 499.5 51.2 L 501.4 51.2" id="24,8" /><path d="M 499.5 57.4 L 499.5 53.7 L 499.5 53.7" id="25,7" /><path d="M 501.8 57.4 L 501.8 56.1 L 501.8 56.1" id="22,6" /><path d="M 501.8 57.4 L 501.8 58.6 L 501.8 58.6" id="22,5" /><path d="M 501.7 62.3 L 501.7 61.0 L 502.4 61.0" id="20,4" /><path d="M 501.7 62.3 L 501.7 63.5 L 502.0 63.5" id="20,3" /><path d="M 501.3 67.8 L 501.3 65.9 L 501.3 65.9" id="19,2" /><path d="M 502.0 69.6 L 502.0 68.4 L 502.3 68.4" id="18,1" /><path d="M 502.0 69.6 L 502.0 70.8 L 502.0 70.8" id="18,0" /></g><g class="toytree-Nodes" style="fill:rgb(100%,0%,0%);fill-opacity:1.0;stroke:None;stroke-width:1"><g id="node-0" transform="translate(502.025,70.833)"><circle r="2.5" /></g><g id="node-1" transform="translate(502.266,68.382)"><circle r="2.5" /></g><g id="node-2" transform="translate(501.285,65.931)"><circle r="2.5" /></g><g id="node-3" transform="translate(501.964,63.480)"><circle r="2.5" /></g><g id="node-4" transform="translate(502.427,61.029)"><circle r="2.5" /></g><g id="node-5" transform="translate(501.761,58.578)"><circle r="2.5" /></g><g id="node-6" transform="translate(501.761,56.127)"><circle r="2.5" /></g><g id="node-7" transform="translate(499.511,53.676)"><circle r="2.5" /></g><g id="node-8" transform="translate(501.449,51.225)"><circle r="2.5" /></g><g id="node-9" transform="translate(503.511,48.775)"><circle r="2.5" /></g><g id="node-10" transform="translate(501.822,46.324)"><circle r="2.5" /></g><g id="node-11" transform="translate(530.263,43.873)"><circle r="2.5" /></g><g id="node-12" transform="translate(524.485,41.422)"><circle r="2.5" /></g><g id="node-13" transform="translate(504.676,38.971)"><circle r="2.5" /></g><g id="node-14" transform="translate(524.345,36.520)"><circle r="2.5" /></g><g id="node-15" transform="translate(529.222,34.069)"><circle r="2.5" /></g><g id="node-16" transform="translate(503.504,31.618)"><circle r="2.5" /></g><g id="node-17" transform="translate(506.768,29.167)"><circle r="2.5" /></g><g id="node-18" transform="translate(502.025,69.608)"><circle r="0.0" /></g><g id="node-19" transform="translate(501.285,67.770)"><circle r="0.0" /></g><g id="node-20" transform="translate(501.737,62.255)"><circle r="0.0" /></g><g id="node-21" transform="translate(501.047,65.012)"><circle r="0.0" /></g><g id="node-22" transform="translate(501.761,57.353)"><circle r="0.0" /></g><g id="node-23" transform="translate(501.047,61.183)"><circle r="0.0" /></g><g id="node-24" transform="translate(499.465,50.000)"><circle r="0.0" /></g><g id="node-25" transform="translate(499.511,57.430)"><circle r="0.0" /></g><g id="node-26" transform="translate(498.730,48.162)"><circle r="0.0" /></g><g id="node-27" transform="translate(485.225,42.647)"><circle r="0.0" /></g><g id="node-28" transform="translate(495.521,52.796)"><circle r="0.0" /></g><g id="node-29" transform="translate(476.113,40.809)"><circle r="0.0" /></g><g id="node-30" transform="translate(489.076,35.294)"><circle r="0.0" /></g><g id="node-31" transform="translate(469.318,46.802)"><circle r="0.0" /></g><g id="node-32" transform="translate(481.233,33.456)"><circle r="0.0" /></g><g id="node-33" transform="translate(458.229,40.129)"><circle r="0.0" /></g><g id="node-34" transform="translate(445.000,34.648)"><circle r="0.0" /></g></g></g></g></g></svg>