<svg class="toyplot-canvas-Canvas" xmlns:toyplot="http://www.sandia.gov/toyplot" xmlns:xlink="http://www.w3.org/1999/xlink" xmlns="http://www.w3.org/2000/svg" width="560.0px" height="100.0px" viewBox="0 0 560.0 100.0" preserveAspectRatio="xMidYMid meet" style="background-color:transparent;border-color:#292724;border-style:none;border-width:1.0;fill:rgb(16.1%,15.3%,14.1%);fill-opacity:1.0;font-family:Helvetica;font-size:12px;opacity:1.0;stroke:rgb(16.1%,15.3%,14.1%);stroke-opacity:1.0;stroke-width:1.0" id="ta2918d85b70646bdbf8bfd618a29e067"><g class="toyplot-coordinates-Cartesian" id="td5d015d04841419abeb93d0cf0184147"><clipPath id="tf91da113b816407c9a16c013c8f71855"><rect x="15.0" y="15.0" width="110.0" height="70.0" /></clipPath><g clip-path="url(#tf91da113b816407c9a16c013c8f71855)"><g class="toytree-mark-Toytree" id="te75cbff974834ddb8ccd093b5f9b19e9"><g class="toytree-Edges" style="fill:none;stroke:rgb(14.9%,14.9%,14.9%);stroke-linecap:round;stroke-opacity:1;stroke-width:0.5"><path d="M 25.3 36.0 L 25.3 30.4 L 31.9 30.4" id="34,33" /><path d="M 25.3 36.0 L 25.3 41.6 L 25.5 41.6" id="34,32" /><path d="M 25.5 41.6 L 25.5 49.0 L 27.2 49.0" id="32,31" /><path d="M 27.2 49.0 L 27.2 40.5 L 28.5 40.5" id="31,30" /><path d="M 27.2 49.0 L 27.2 57.6 L 29.3 57.6" id="31,29" /><path d="M 28.5 40.5 L 28.5 37.7 L 30.5 37.7" id="30,28" /><path d="M 28.5 40.5 L 28.5 43.3 L 29.0 43.3" id="30,27" /><path d="M 29.3 57.6 L 29.3 52.5 L 30.6 52.5" id="29,26" /><path d="M 29.3 57.6 L 29.3 62.7 L 29.4 62.7" id="29,25" /><path d="M 29.0 43.3 L 29.0 45.1 L 31.0 45.1" id="27,24" /><path d="M 30.6 52.5 L 30.6 50.0 L 39.6 50.0" id="26,23" /><path d="M 30.6 52.5 L 30.6 54.9 L 35.3 54.9" id="26,22" /><path d="M 29.4 62.7 L 29.4 59.8 L 30.8 59.8" id="25,21" /><path d="M 29.4 62.7 L 29.4 65.6 L 31.5 65.6" id="25,20" /><path d="M 31.5 65.6 L 31.5 67.8 L 36.2 67.8" id="20,19" /><path d="M 36.2 67.8 L 36.2 69.6 L 40.9 69.6" id="19,18" /><path d="M 31.9 30.4 L 31.9 29.2 L 102.7 29.2" id="33,17" /><path d="M 31.9 30.4 L 31.9 31.6 L 101.4 31.6" id="33,16" /><path d="M 25.5 41.6 L 25.5 34.1 L 101.1 34.1" id="32,15" /><path d="M 30.5 37.7 L 30.5 36.5 L 97.5 36.5" id="28,14" /><path d="M 30.5 37.7 L 30.5 39.0 L 102.0 39.0" id="28,13" /><path d="M 29.0 43.3 L 29.0 41.4 L 96.7 41.4" id="27,12" /><path d="M 31.0 45.1 L 31.0 43.9 L 99.9 43.9" id="24,11" /><path d="M 31.0 45.1 L 31.0 46.3 L 110.3 46.3" id="24,10" /><path d="M 39.6 50.0 L 39.6 48.8 L 101.9 48.8" id="23,9" /><path d="M 39.6 50.0 L 39.6 51.2 L 106.5 51.2" id="23,8" /><path d="M 35.3 54.9 L 35.3 53.7 L 101.8 53.7" id="22,7" /><path d="M 35.3 54.9 L 35.3 56.1 L 104.2 56.1" id="22,6" /><path d="M 30.8 59.8 L 30.8 58.6 L 103.0 58.6" id="21,5" /><path d="M 30.8 59.8 L 30.8 61.0 L 109.3 61.0" id="21,4" /><path d="M 31.5 65.6 L 31.5 63.5 L 98.6 63.5" id="20,3" /><path d="M 36.2 67.8 L 36.2 65.9 L 103.4 65.9" id="19,2" /><path d="M 40.9 69.6 L 40.9 68.4 L 100.5 68.4" id="18,1" /><path d="M 40.9 69.6 L 40.9 70.8 L 98.6 70.8" id="18,0" /></g><g class="toytree-Nodes" style="fill:rgb(100%,0%,0%);fill-opacity:1.0;stroke:None;stroke-width:1"><g id="node-0" transform="translate(98.578,70.833)"><circle r="2.5" /></g><g id="node-1" transform="translate(100.458,68.382)"><circle r="2.5" /></g><g id="node-2" transform="translate(103.354,65.931)"><circle r="2.5" /></g><g id="node-3" transform="translate(98.567,63.480)"><circle r="2.5" /></g><g id="node-4" transform="translate(109.262,61.029)"><circle r="2.5" /></g><g id="node-5" transform="translate(102.959,58.578)"><circle r="2.5" /></g><g id="node-6" transform="translate(104.205,56.127)"><circle r="2.5" /></g><g id="node-7" transform="translate(101.811,53.676)"><circle r="2.5" /></g><g id="node-8" transform="translate(106.479,51.225)"><circle r="2.5" /></g><g id="node-9" transform="translate(101.935,48.775)"><circle r="2.5" /></g><g id="node-10" transform="translate(110.277,46.324)"><circle r="2.5" /></g><g id="node-11" transform="translate(99.858,43.873)"><circle r="2.5" /></g><g id="node-12" transform="translate(96.718,41.422)"><circle r="2.5" /></g><g id="node-13" transform="translate(102.019,38.971)"><circle r="2.5" /></g><g id="node-14" transform="translate(97.520,36.520)"><circle r="2.5" /></g><g id="node-15" transform="translate(101.134,34.069)"><circle r="2.5" /></g><g id="node-16" transform="translate(101.369,31.618)"><circle r="2.5" /></g><g id="node-17" transform="translate(102.673,29.167)"><circle r="2.5" /></g><g id="node-18" transform="translate(40.886,69.608)"><circle r="0.0" /></g><g id="node-19" transform="translate(36.203,67.770)"><circle r="0.0" /></g><g id="node-20" transform="translate(31.480,65.625)"><circle r="0.0" /></g><g id="node-21" transform="translate(30.800,59.804)"><circle r="0.0" /></g><g id="node-22" transform="translate(35.261,54.902)"><circle r="0.0" /></g><g id="node-23" transform="translate(39.561,50.000)"><circle r="0.0" /></g><g id="node-24" transform="translate(31.025,45.098)"><circle r="0.0" /></g><g id="node-25" transform="translate(29.376,62.714)"><circle r="0.0" /></g><g id="node-26" transform="translate(30.552,52.451)"><circle r="0.0" /></g><g id="node-27" transform="translate(28.988,43.260)"><circle r="0.0" /></g><g id="node-28" transform="translate(30.520,37.745)"><circle r="0.0" /></g><g id="node-29" transform="translate(29.272,57.583)"><circle r="0.0" /></g><g id="node-30" transform="translate(28.473,40.502)"><circle r="0.0" /></g><g id="node-31" transform="translate(27.243,49.043)"><circle r="0.0" /></g><g id="node-32" transform="translate(25.472,41.556)"><circle r="0.0" /></g><g id="node-33" transform="translate(31.878,30.392)"><circle r="0.0" /></g><g id="node-34" transform="translate(25.257,35.974)"><circle r="0.0" /></g></g></g></g></g><g class="toyplot-coordinates-Cartesian" id="t78c868766fcf43c3b2f2704947910309"><clipPath id="t926dace32d5946379fb077874c67ca1a"><rect x="155.0" y="15.0" width="110.0" height="70.0" /></clipPath><g clip-path="url(#t926dace32d5946379fb077874c67ca1a)"><g class="toytree-mark-Toytree" id="t490aa2c33ff949ad92478f9d48812d12"><g class="toytree-Edges" style="fill:none;stroke:rgb(14.9%,14.9%,14.9%);stroke-linecap:round;stroke-opacity:1;stroke-width:0.5"><path d="M 165.0 35.0 L 165.0 40.9 L 168.9 40.9" id="34,33" /><path d="M 168.9 40.9 L 168.9 33.5 L 170.0 33.5" id="33,32" /><path d="M 168.9 40.9 L 168.9 48.4 L 172.5 48.4" id="33,31" /><path d="M 170.0 33.5 L 170.0 35.3 L 181.7 35.3" id="32,30" /><path d="M 172.5 48.4 L 172.5 41.1 L 174.1 41.1" id="31,29" /><path d="M 172.5 48.4 L 172.5 55.7 L 173.2 55.7" id="31,28" /><path d="M 174.1 41.1 L 174.1 43.3 L 175.5 43.3" id="29,27" /><path d="M 173.2 55.7 L 173.2 50.6 L 177.0 50.6" id="28,26" /><path d="M 173.2 55.7 L 173.2 60.7 L 175.8 60.7" id="28,25" /><path d="M 175.5 43.3 L 175.5 45.1 L 193.1 45.1" id="27,24" /><path d="M 177.0 50.6 L 177.0 52.5 L 181.5 52.5" id="26,23" /><path d="M 175.8 60.7 L 175.8 57.4 L 183.8 57.4" id="25,22" /><path d="M 175.8 60.7 L 175.8 64.1 L 178.3 64.1" id="25,21" /><path d="M 178.3 64.1 L 178.3 67.2 L 179.5 67.2" id="21,20" /><path d="M 179.5 67.2 L 179.5 64.7 L 185.2 64.7" id="20,19" /><path d="M 179.5 67.2 L 179.5 69.6 L 181.2 69.6" id="20,18" /><path d="M 165.0 35.0 L 165.0 29.2 L 204.2 29.2" id="34,17" /><path d="M 170.0 33.5 L 170.0 31.6 L 201.8 31.6" id="32,16" /><path d="M 181.7 35.3 L 181.7 34.1 L 193.0 34.1" id="30,15" /><path d="M 181.7 35.3 L 181.7 36.5 L 213.1 36.5" id="30,14" /><path d="M 174.1 41.1 L 174.1 39.0 L 219.6 39.0" id="29,13" /><path d="M 175.5 43.3 L 175.5 41.4 L 185.3 41.4" id="27,12" /><path d="M 193.1 45.1 L 193.1 43.9 L 217.3 43.9" id="24,11" /><path d="M 193.1 45.1 L 193.1 46.3 L 215.9 46.3" id="24,10" /><path d="M 177.0 50.6 L 177.0 48.8 L 204.0 48.8" id="26,9" /><path d="M 181.5 52.5 L 181.5 51.2 L 194.6 51.2" id="23,8" /><path d="M 181.5 52.5 L 181.5 53.7 L 200.0 53.7" id="23,7" /><path d="M 183.8 57.4 L 183.8 56.1 L 212.2 56.1" id="22,6" /><path d="M 183.8 57.4 L 183.8 58.6 L 209.7 58.6" id="22,5" /><path d="M 178.3 64.1 L 178.3 61.0 L 221.3 61.0" id="21,4" /><path d="M 185.2 64.7 L 185.2 63.5 L 203.5 63.5" id="19,3" /><path d="M 185.2 64.7 L 185.2 65.9 L 250.3 65.9" id="19,2" /><path d="M 181.2 69.6 L 181.2 68.4 L 200.7 68.4" id="18,1" /><path d="M 181.2 69.6 L 181.2 70.8 L 199.6 70.8" id="18,0" /></g><g class="toytree-Nodes" style="fill:rgb(100%,0%,0%);fill-opacity:1.0;stroke:None;stroke-width:1"><g id="node-0" transform="translate(199.629,70.833)"><circle r="2.5" /></g><g id="node-1" transform="translate(200.719,68.382)"><circle r="2.5" /></g><g id="node-2" transform="translate(250.263,65.931)"><circle r="2.5" /></g><g id="node-3" transform="translate(203.500,63.480)"><circle r="2.5" /></g><g id="node-4" transform="translate(221.301,61.029)"><circle r="2.5" /></g><g id="node-5" transform="translate(209.737,58.578)"><circle r="2.5" /></g><g id="node-6" transform="translate(212.213,56.127)"><circle r="2.5" /></g><g id="node-7" transform="translate(200.008,53.676)"><circle r="2.5" /></g><g id="node-8" transform="translate(194.576,51.225)"><circle r="2.5" /></g><g id="node-9" transform="translate(204.031,48.775)"><circle r="2.5" /></g><g id="node-10" transform="translate(215.911,46.324)"><circle r="2.5" /></g><g id="node-11" transform="translate(217.316,43.873)"><circle r="2.5" /></g><g id="node-12" transform="translate(185.270,41.422)"><circle r="2.5" /></g><g id="node-13" transform="translate(219.553,38.971)"><circle r="2.5" /></g><g id="node-14" transform="translate(213.122,36.520)"><circle r="2.5" /></g><g id="node-15" transform="translate(192.984,34.069)"><circle r="2.5" /></g><g id="node-16" transform="translate(201.832,31.618)"><circle r="2.5" /></g><g id="node-17" transform="translate(204.194,29.167)"><circle r="2.5" /></g><g id="node-18" transform="translate(181.166,69.608)"><circle r="0.0" /></g><g id="node-19" transform="translate(185.207,64.706)"><circle r="0.0" /></g><g id="node-20" transform="translate(179.502,67.157)"><circle r="0.0" /></g><g id="node-21" transform="translate(178.263,64.093)"><circle r="0.0" /></g><g id="node-22" transform="translate(183.834,57.353)"><circle r="0.0" /></g><g id="node-23" transform="translate(181.493,52.451)"><circle r="0.0" /></g><g id="node-24" transform="translate(193.077,45.098)"><circle r="0.0" /></g><g id="node-25" transform="translate(175.794,60.723)"><circle r="0.0" /></g><g id="node-26" transform="translate(177.049,50.613)"><circle r="0.0" /></g><g id="node-27" transform="translate(175.534,43.260)"><circle r="0.0" /></g><g id="node-28" transform="translate(173.227,55.668)"><circle r="0.0" /></g><g id="node-29" transform="translate(174.087,41.115)"><circle r="0.0" /></g><g id="node-30" transform="translate(181.721,35.294)"><circle r="0.0" /></g><g id="node-31" transform="translate(172.492,48.392)"><circle r="0.0" /></g><g id="node-32" transform="translate(169.977,33.456)"><circle r="0.0" /></g><g id="node-33" transform="translate(168.940,40.924)"><circle r="0.0" /></g><g id="node-34" transform="translate(165.000,35.045)"><circle r="0.0" /></g></g></g></g></g><g class="toyplot-coordinates-Cartesian" id="t54571868b788483dbf0dcb5ea6344fc0"><clipPath id="t7c090228146a46e0808119ca4cbc3538"><rect x="295.0" y="15.0" width="110.0" height="70.0" /></clipPath><g clip-path="url(#t7c090228146a46e0808119ca4cbc3538)"><g class="toytree-mark-Toytree" id="tf5ec301a5f7b4a80b594558a3f229b36"><g class="toytree-Edges" style="fill:none;stroke:rgb(14.9%,14.9%,14.9%);stroke-linecap:round;stroke-opacity:1;stroke-width:0.5"><path d="M 305.0 35.0 L 305.0 30.4 L 318.7 30.4" id="34,33" /><path d="M 305.0 35.0 L 305.0 39.6 L 307.5 39.6" id="34,32" /><path d="M 307.5 39.6 L 307.5 45.1 L 310.4 45.1" id="32,31" /><path d="M 310.4 45.1 L 310.4 37.7 L 314.7 37.7" id="31,30" /><path d="M 310.4 45.1 L 310.4 52.5 L 311.7 52.5" id="31,29" /><path d="M 311.7 52.5 L 311.7 44.6 L 312.2 44.6" id="29,28" /><path d="M 311.7 52.5 L 311.7 60.3 L 312.8 60.3" id="29,27" /><path d="M 312.2 44.6 L 312.2 47.9 L 315.6 47.9" id="28,26" /><path d="M 312.8 60.3 L 312.8 57.4 L 320.1 57.4" id="27,25" /><path d="M 312.8 60.3 L 312.8 63.3 L 313.9 63.3" id="27,24" /><path d="M 315.6 47.9 L 315.6 45.1 L 319.4 45.1" id="26,23" /><path d="M 315.6 47.9 L 315.6 50.6 L 322.5 50.6" id="26,22" /><path d="M 313.9 63.3 L 313.9 65.6 L 315.7 65.6" id="24,21" /><path d="M 322.5 50.6 L 322.5 52.5 L 327.9 52.5" id="22,20" /><path d="M 315.7 65.6 L 315.7 67.8 L 317.3 67.8" id="21,19" /><path d="M 317.3 67.8 L 317.3 69.6 L 334.8 69.6" id="19,18" /><path d="M 318.7 30.4 L 318.7 29.2 L 357.2 29.2" id="33,17" /><path d="M 318.7 30.4 L 318.7 31.6 L 354.6 31.6" id="33,16" /><path d="M 307.5 39.6 L 307.5 34.1 L 356.7 34.1" id="32,15" /><path d="M 314.7 37.7 L 314.7 36.5 L 362.6 36.5" id="30,14" /><path d="M 314.7 37.7 L 314.7 39.0 L 342.0 39.0" id="30,13" /><path d="M 312.2 44.6 L 312.2 41.4 L 353.0 41.4" id="28,12" /><path d="M 319.4 45.1 L 319.4 43.9 L 357.8 43.9" id="23,11" /><path d="M 319.4 45.1 L 319.4 46.3 L 390.3 46.3" id="23,10" /><path d="M 322.5 50.6 L 322.5 48.8 L 354.2 48.8" id="22,9" /><path d="M 327.9 52.5 L 327.9 51.2 L 351.0 51.2" id="20,8" /><path d="M 327.9 52.5 L 327.9 53.7 L 351.9 53.7" id="20,7" /><path d="M 320.1 57.4 L 320.1 56.1 L 357.0 56.1" id="25,6" /><path d="M 320.1 57.4 L 320.1 58.6 L 355.7 58.6" id="25,5" /><path d="M 313.9 63.3 L 313.9 61.0 L 346.4 61.0" id="24,4" /><path d="M 315.7 65.6 L 315.7 63.5 L 364.3 63.5" id="21,3" /><path d="M 317.3 67.8 L 317.3 65.9 L 359.6 65.9" id="19,2" /><path d="M 334.8 69.6 L 334.8 68.4 L 353.4 68.4" id="18,1" /><path d="M 334.8 69.6 L 334.8 70.8 L 365.1 70.8" id="18,0" /></g><g class="toytree-Nodes" style="fill:rgb(100%,0%,0%);fill-opacity:1.0;stroke:None;stroke-width:1"><g id="node-0" transform="translate(365.064,70.833)"><circle r="2.5" /></g><g id="node-1" transform="translate(353.361,68.382)"><circle r="2.5" /></g><g id="node-2" transform="translate(359.615,65.931)"><circle r="2.5" /></g><g id="node-3" transform="translate(364.313,63.480)"><circle r="2.5" /></g><g id="node-4" transform="translate(346.403,61.029)"><circle r="2.5" /></g><g id="node-5" transform="translate(355.716,58.578)"><circle r="2.5" /></g><g id="node-6" transform="translate(357.009,56.127)"><circle r="2.5" /></g><g id="node-7" transform="translate(351.888,53.676)"><circle r="2.5" /></g><g id="node-8" transform="translate(351.009,51.225)"><circle r="2.5" /></g><g id="node-9" transform="translate(354.151,48.775)"><circle r="2.5" /></g><g id="node-10" transform="translate(390.263,46.324)"><circle r="2.5" /></g><g id="node-11" transform="translate(357.763,43.873)"><circle r="2.5" /></g><g id="node-12" transform="translate(353.038,41.422)"><circle r="2.5" /></g><g id="node-13" transform="translate(341.979,38.971)"><circle r="2.5" /></g><g id="node-14" transform="translate(362.609,36.520)"><circle r="2.5" /></g><g id="node-15" transform="translate(356.728,34.069)"><circle r="2.5" /></g><g id="node-16" transform="translate(354.618,31.618)"><circle r="2.5" /></g><g id="node-17" transform="translate(357.180,29.167)"><circle r="2.5" /></g><g id="node-18" transform="translate(334.797,69.608)"><circle r="0.0" /></g><g id="node-19" transform="translate(317.293,67.770)"><circle r="0.0" /></g><g id="node-20" transform="translate(327.909,52.451)"><circle r="0.0" /></g><g id="node-21" transform="translate(315.696,65.625)"><circle r="0.0" /></g><g id="node-22" transform="translate(322.528,50.613)"><circle r="0.0" /></g><g id="node-23" transform="translate(319.364,45.098)"><circle r="0.0" /></g><g id="node-24" transform="translate(313.873,63.327)"><circle r="0.0" /></g><g id="node-25" transform="translate(320.052,57.353)"><circle r="0.0" /></g><g id="node-26" transform="translate(315.645,47.855)"><circle r="0.0" /></g><g id="node-27" transform="translate(312.804,60.340)"><circle r="0.0" /></g><g id="node-28" transform="translate(312.167,44.638)"><circle r="0.0" /></g><g id="node-29" transform="translate(311.747,52.489)"><circle r="0.0" /></g><g id="node-30" transform="translate(314.707,37.745)"><circle r="0.0" /></g><g id="node-31" transform="translate(310.449,45.117)"><circle r="0.0" /></g><g id="node-32" transform="translate(307.540,39.593)"><circle r="0.0" /></g><g id="node-33" transform="translate(318.664,30.392)"><circle r="0.0" /></g><g id="node-34" transform="translate(305.000,34.993)"><circle r="0.0" /></g></g></g></g></g><g class="toyplot-coordinates-Cartesian" id="t0eb2414f93d0411caa01b981dbb17fde"><clipPath id="tf2c6a8c3ad2645159394b0dde28b6742"><rect x="435.0" y="15.0" width="110.0" height="70.0" /></clipPath><g clip-path="url(#tf2c6a8c3ad2645159394b0dde28b6742)"><g class="toytree-mark-Toytree" id="t6f70c3257e1f4819a84ffda3cd8989d9"><g class="toytree-Edges" style="fill:none;stroke:rgb(14.9%,14.9%,14.9%);stroke-linecap:round;stroke-opacity:1;stroke-width:0.5"><path d="M 445.0 44.9 L 445.0 34.1 L 446.6 34.1" id="34,33" /><path d="M 445.0 44.9 L 445.0 55.7 L 451.1 55.7" id="34,32" /><path d="M 446.6 34.1 L 446.6 30.4 L 476.2 30.4" id="33,31" /><path d="M 446.6 34.1 L 446.6 37.7 L 455.7 37.7" id="33,30" /><path d="M 451.1 55.7 L 451.1 60.3 L 454.8 60.3" id="32,29" /><path d="M 455.7 37.7 L 455.7 41.4 L 459.0 41.4" id="30,28" /><path d="M 454.8 60.3 L 454.8 55.5 L 471.9 55.5" id="29,27" /><path d="M 454.8 60.3 L 454.8 65.0 L 460.0 65.0" id="29,26" /><path d="M 459.0 41.4 L 459.0 37.7 L 482.2 37.7" id="28,25" /><path d="M 459.0 41.4 L 459.0 45.1 L 462.1 45.1" id="28,24" /><path d="M 471.9 55.5 L 471.9 57.4 L 477.5 57.4" id="27,23" /><path d="M 460.0 65.0 L 460.0 62.3 L 466.9 62.3" id="26,22" /><path d="M 460.0 65.0 L 460.0 67.8 L 465.5 67.8" id="26,21" /><path d="M 462.1 45.1 L 462.1 42.6 L 468.5 42.6" id="24,20" /><path d="M 462.1 45.1 L 462.1 47.5 L 468.1 47.5" id="24,19" /><path d="M 465.5 67.8 L 465.5 69.6 L 472.4 69.6" id="21,18" /><path d="M 476.2 30.4 L 476.2 29.2 L 504.4 29.2" id="31,17" /><path d="M 476.2 30.4 L 476.2 31.6 L 501.0 31.6" id="31,16" /><path d="M 455.7 37.7 L 455.7 34.1 L 483.2 34.1" id="30,15" /><path d="M 482.2 37.7 L 482.2 36.5 L 512.6 36.5" id="25,14" /><path d="M 482.2 37.7 L 482.2 39.0 L 519.9 39.0" id="25,13" /><path d="M 468.5 42.6 L 468.5 41.4 L 530.3 41.4" id="20,12" /><path d="M 468.5 42.6 L 468.5 43.9 L 506.6 43.9" id="20,11" /><path d="M 468.1 47.5 L 468.1 46.3 L 508.6 46.3" id="19,10" /><path d="M 468.1 47.5 L 468.1 48.8 L 502.7 48.8" id="19,9" /><path d="M 451.1 55.7 L 451.1 51.2 L 487.8 51.2" id="32,8" /><path d="M 471.9 55.5 L 471.9 53.7 L 495.5 53.7" id="27,7" /><path d="M 477.5 57.4 L 477.5 56.1 L 500.4 56.1" id="23,6" /><path d="M 477.5 57.4 L 477.5 58.6 L 516.4 58.6" id="23,5" /><path d="M 466.9 62.3 L 466.9 61.0 L 499.5 61.0" id="22,4" /><path d="M 466.9 62.3 L 466.9 63.5 L 509.8 63.5" id="22,3" /><path d="M 465.5 67.8 L 465.5 65.9 L 518.9 65.9" id="21,2" /><path d="M 472.4 69.6 L 472.4 68.4 L 518.3 68.4" id="18,1" /><path d="M 472.4 69.6 L 472.4 70.8 L 518.3 70.8" id="18,0" /></g><g class="toytree-Nodes" style="fill:rgb(100%,0%,0%);fill-opacity:1.0;stroke:None;stroke-width:1"><g id="node-0" transform="translate(518.281,70.833)"><circle r="2.5" /></g><g id="node-1" transform="translate(518.312,68.382)"><circle r="2.5" /></g><g id="node-2" transform="translate(518.888,65.931)"><circle r="2.5" /></g><g id="node-3" transform="translate(509.785,63.480)"><circle r="2.5" /></g><g id="node-4" transform="translate(499.462,61.029)"><circle r="2.5" /></g><g id="node-5" transform="translate(516.417,58.578)"><circle r="2.5" /></g><g id="node-6" transform="translate(500.369,56.127)"><circle r="2.5" /></g><g id="node-7" transform="translate(495.474,53.676)"><circle r="2.5" /></g><g id="node-8" transform="translate(487.757,51.225)"><circle r="2.5" /></g><g id="node-9" transform="translate(502.680,48.775)"><circle r="2.5" /></g><g id="node-10" transform="translate(508.632,46.324)"><circle r="2.5" /></g><g id="node-11" transform="translate(506.567,43.873)"><circle r="2.5" /></g><g id="node-12" transform="translate(530.263,41.422)"><circle r="2.5" /></g><g id="node-13" transform="translate(519.943,38.971)"><circle r="2.5" /></g><g id="node-14" transform="translate(512.551,36.520)"><circle r="2.5" /></g><g id="node-15" transform="translate(483.194,34.069)"><circle r="2.5" /></g><g id="node-16" transform="translate(500.984,31.618)"><circle r="2.5" /></g><g id="node-17" transform="translate(504.405,29.167)"><circle r="2.5" /></g><g id="node-18" transform="translate(472.387,69.608)"><circle r="0.0" /></g><g id="node-19" transform="translate(468.093,47.549)"><circle r="0.0" /></g><g id="node-20" transform="translate(468.453,42.647)"><circle r="0.0" /></g><g id="node-21" transform="translate(465.546,67.770)"><circle r="0.0" /></g><g id="node-22" transform="translate(466.923,62.255)"><circle r="0.0" /></g><g id="node-23" transform="translate(477.456,57.353)"><circle r="0.0" /></g><g id="node-24" transform="translate(462.101,45.098)"><circle r="0.0" /></g><g id="node-25" transform="translate(482.163,37.745)"><circle r="0.0" /></g><g id="node-26" transform="translate(460.001,65.012)"><circle r="0.0" /></g><g id="node-27" transform="translate(471.937,55.515)"><circle r="0.0" /></g><g id="node-28" transform="translate(459.001,41.422)"><circle r="0.0" /></g><g id="node-29" transform="translate(454.829,60.263)"><circle r="0.0" /></g><g id="node-30" transform="translate(455.739,37.745)"><circle r="0.0" /></g><g id="node-31" transform="translate(476.211,30.392)"><circle r="0.0" /></g><g id="node-32" transform="translate(451.067,55.744)"><circle r="0.0" /></g><g id="node-33" transform="translate(446.584,34.069)"><circle r="0.0" /></g><g id="node-34" transform="translate(445.000,44.907)"><circle r="0.0" /></g></g></g></g></g></svg>