<svg class="toyplot-canvas-Canvas" xmlns:toyplot="http://www.sandia.gov/toyplot" xmlns:xlink="http://www.w3.org/1999/xlink" xmlns="http://www.w3.org/2000/svg" width="560.0px" height="100.0px" viewBox="0 0 560.0 100.0" preserveAspectRatio="xMidYMid meet" style="background-color:transparent;border-color:#292724;border-style:none;border-width:1.0;fill:rgb(16.1%,15.3%,14.1%);fill-opacity:1.0;font-family:Helvetica;font-size:12px;opacity:1.0;stroke:rgb(16.1%,15.3%,14.1%);stroke-opacity:1.0;stroke-width:1.0" id="t9fbb43e28ed845cab8b3adba1ad7b1da"><g class="toyplot-coordinates-Cartesian" id="tbbfde077c0c9451fb1c063555590517c"><clipPath id="t7b7bf4c6bf8948c8a7651ee950ea1041"><rect x="15.0" y="15.0" width="110.0" height="70.0" /></clipPath><g clip-path="url(#t7b7bf4c6bf8948c8a7651ee950ea1041)"><g class="toytree-mark-Toytree" id="tace1c48548414044a169d0154f4040de"><g class="toytree-Edges" style="fill:none;stroke:rgb(14.9%,14.9%,14.9%);stroke-linecap:round;stroke-opacity:1;stroke-width:0.5"><path d="M 25.0 33.6 L 25.0 38.1 L 50.5 38.1" id="50,49" /><path d="M 50.5 38.1 L 50.5 31.7 L 73.9 31.7" id="49,48" /><path d="M 50.5 38.1 L 50.5 44.5 L 53.9 44.5" id="49,47" /><path d="M 53.9 44.5 L 53.9 35.9 L 58.2 35.9" id="47,46" /><path d="M 53.9 44.5 L 53.9 53.1 L 62.7 53.1" id="47,45" /><path d="M 58.2 35.9 L 58.2 37.7 L 75.9 37.7" id="46,44" /><path d="M 62.7 53.1 L 62.7 47.4 L 63.7 47.4" id="45,43" /><path d="M 62.7 53.1 L 62.7 58.7 L 88.8 58.7" id="45,42" /><path d="M 75.9 37.7 L 75.9 39.6 L 82.9 39.6" id="44,41" /><path d="M 63.7 47.4 L 63.7 49.1 L 66.8 49.1" id="43,40" /><path d="M 88.8 58.7 L 88.8 61.5 L 90.6 61.5" id="42,39" /><path d="M 82.9 39.6 L 82.9 41.7 L 84.1 41.7" id="41,38" /><path d="M 66.8 49.1 L 66.8 50.6 L 85.5 50.6" id="40,37" /><path d="M 90.6 61.5 L 90.6 58.3 L 92.8 58.3" id="39,36" /><path d="M 90.6 61.5 L 90.6 64.7 L 92.2 64.7" id="39,35" /><path d="M 84.1 41.7 L 84.1 40.0 L 92.2 40.0" id="38,34" /><path d="M 84.1 41.7 L 84.1 43.3 L 90.2 43.3" id="38,33" /><path d="M 85.5 50.6 L 85.5 52.1 L 90.2 52.1" id="37,32" /><path d="M 92.2 64.7 L 92.2 62.1 L 93.0 62.1" id="35,31" /><path d="M 92.2 64.7 L 92.2 67.3 L 94.9 67.3" id="35,30" /><path d="M 90.2 52.1 L 90.2 53.3 L 93.4 53.3" id="32,29" /><path d="M 93.0 62.1 L 93.0 63.3 L 93.8 63.3" id="31,28" /><path d="M 94.9 67.3 L 94.9 68.8 L 95.0 68.8" id="30,27" /><path d="M 95.0 68.8 L 95.0 70.0 L 95.0 70.0" id="27,26" /><path d="M 25.0 33.6 L 25.0 29.2 L 96.3 29.2" id="50,25" /><path d="M 73.9 31.7 L 73.9 30.8 L 97.2 30.8" id="48,24" /><path d="M 73.9 31.7 L 73.9 32.5 L 93.6 32.5" id="48,23" /><path d="M 58.2 35.9 L 58.2 34.2 L 91.1 34.2" id="46,22" /><path d="M 75.9 37.7 L 75.9 35.8 L 90.7 35.8" id="44,21" /><path d="M 82.9 39.6 L 82.9 37.5 L 92.2 37.5" id="41,20" /><path d="M 92.2 40.0 L 92.2 39.2 L 95.1 39.2" id="34,19" /><path d="M 92.2 40.0 L 92.2 40.8 L 93.8 40.8" id="34,18" /><path d="M 90.2 43.3 L 90.2 42.5 L 90.2 42.5" id="33,17" /><path d="M 90.2 43.3 L 90.2 44.2 L 90.2 44.2" id="33,16" /><path d="M 63.7 47.4 L 63.7 45.8 L 104.4 45.8" id="43,15" /><path d="M 66.8 49.1 L 66.8 47.5 L 110.3 47.5" id="40,14" /><path d="M 85.5 50.6 L 85.5 49.2 L 99.7 49.2" id="37,13" /><path d="M 90.2 52.1 L 90.2 50.8 L 101.6 50.8" id="32,12" /><path d="M 93.4 53.3 L 93.4 52.5 L 99.9 52.5" id="29,11" /><path d="M 93.4 53.3 L 93.4 54.2 L 99.7 54.2" id="29,10" /><path d="M 88.8 58.7 L 88.8 55.8 L 98.7 55.8" id="42,9" /><path d="M 92.8 58.3 L 92.8 57.5 L 98.0 57.5" id="36,8" /><path d="M 92.8 58.3 L 92.8 59.2 L 94.6 59.2" id="36,7" /><path d="M 93.0 62.1 L 93.0 60.8 L 94.0 60.8" id="31,6" /><path d="M 93.8 63.3 L 93.8 62.5 L 96.4 62.5" id="28,5" /><path d="M 93.8 63.3 L 93.8 64.2 L 93.9 64.2" id="28,4" /><path d="M 94.9 67.3 L 94.9 65.8 L 95.8 65.8" id="30,3" /><path d="M 95.0 68.8 L 95.0 67.5 L 95.0 67.5" id="27,2" /><path d="M 95.0 70.0 L 95.0 69.2 L 95.0 69.2" id="26,1" /><path d="M 95.0 70.0 L 95.0 70.8 L 95.0 70.8" id="26,0" /></g><g class="toytree-Nodes" style="fill:rgb(100%,0%,0%);fill-opacity:1.0;stroke:None;stroke-width:1"><g id="node-0" transform="translate(94.979,70.833)"><circle r="2.5" /></g><g id="node-1" transform="translate(94.979,69.167)"><circle r="2.5" /></g><g id="node-2" transform="translate(94.979,67.500)"><circle r="2.5" /></g><g id="node-3" transform="translate(95.784,65.833)"><circle r="2.5" /></g><g id="node-4" transform="translate(93.908,64.167)"><circle r="2.5" /></g><g id="node-5" transform="translate(96.439,62.500)"><circle r="2.5" /></g><g id="node-6" transform="translate(94.017,60.833)"><circle r="2.5" /></g><g id="node-7" transform="translate(94.591,59.167)"><circle r="2.5" /></g><g id="node-8" transform="translate(98.027,57.500)"><circle r="2.5" /></g><g id="node-9" transform="translate(98.651,55.833)"><circle r="2.5" /></g><g id="node-10" transform="translate(99.668,54.167)"><circle r="2.5" /></g><g id="node-11" transform="translate(99.916,52.500)"><circle r="2.5" /></g><g id="node-12" transform="translate(101.560,50.833)"><circle r="2.5" /></g><g id="node-13" transform="translate(99.663,49.167)"><circle r="2.5" /></g><g id="node-14" transform="translate(110.263,47.500)"><circle r="2.5" /></g><g id="node-15" transform="translate(104.373,45.833)"><circle r="2.5" /></g><g id="node-16" transform="translate(90.198,44.167)"><circle r="2.5" /></g><g id="node-17" transform="translate(90.198,42.500)"><circle r="2.5" /></g><g id="node-18" transform="translate(93.814,40.833)"><circle r="2.5" /></g><g id="node-19" transform="translate(95.116,39.167)"><circle r="2.5" /></g><g id="node-20" transform="translate(92.171,37.500)"><circle r="2.5" /></g><g id="node-21" transform="translate(90.696,35.833)"><circle r="2.5" /></g><g id="node-22" transform="translate(91.118,34.167)"><circle r="2.5" /></g><g id="node-23" transform="translate(93.603,32.500)"><circle r="2.5" /></g><g id="node-24" transform="translate(97.160,30.833)"><circle r="2.5" /></g><g id="node-25" transform="translate(96.336,29.167)"><circle r="2.5" /></g><g id="node-26" transform="translate(94.979,70.000)"><circle r="0.0" /></g><g id="node-27" transform="translate(94.979,68.750)"><circle r="0.0" /></g><g id="node-28" transform="translate(93.837,63.333)"><circle r="0.0" /></g><g id="node-29" transform="translate(93.398,53.333)"><circle r="0.0" /></g><g id="node-30" transform="translate(94.908,67.292)"><circle r="0.0" /></g><g id="node-31" transform="translate(92.973,62.083)"><circle r="0.0" /></g><g id="node-32" transform="translate(90.226,52.083)"><circle r="0.0" /></g><g id="node-33" transform="translate(90.198,43.333)"><circle r="0.0" /></g><g id="node-34" transform="translate(92.175,40.000)"><circle r="0.0" /></g><g id="node-35" transform="translate(92.188,64.688)"><circle r="0.0" /></g><g id="node-36" transform="translate(92.778,58.333)"><circle r="0.0" /></g><g id="node-37" transform="translate(85.544,50.625)"><circle r="0.0" /></g><g id="node-38" transform="translate(84.124,41.667)"><circle r="0.0" /></g><g id="node-39" transform="translate(90.558,61.510)"><circle r="0.0" /></g><g id="node-40" transform="translate(66.817,49.063)"><circle r="0.0" /></g><g id="node-41" transform="translate(82.851,39.583)"><circle r="0.0" /></g><g id="node-42" transform="translate(88.772,58.672)"><circle r="0.0" /></g><g id="node-43" transform="translate(63.663,47.448)"><circle r="0.0" /></g><g id="node-44" transform="translate(75.930,37.708)"><circle r="0.0" /></g><g id="node-45" transform="translate(62.658,53.060)"><circle r="0.0" /></g><g id="node-46" transform="translate(58.168,35.938)"><circle r="0.0" /></g><g id="node-47" transform="translate(53.924,44.499)"><circle r="0.0" /></g><g id="node-48" transform="translate(73.909,31.667)"><circle r="0.0" /></g><g id="node-49" transform="translate(50.488,38.083)"><circle r="0.0" /></g><g id="node-50" transform="translate(25.000,33.625)"><circle r="0.0" /></g></g></g></g></g><g class="toyplot-coordinates-Cartesian" id="tff63ea5e09d84d9a99a741c7c907506c"><clipPath id="t77fd3fbef9c64c498a6e5df4a039112b"><rect x="155.0" y="15.0" width="110.0" height="70.0" /></clipPath><g clip-path="url(#t77fd3fbef9c64c498a6e5df4a039112b)"><g class="toytree-mark-Toytree" id="tfdb1a9ee81f146a48b2d436236571716"><g class="toytree-Edges" style="fill:none;stroke:rgb(14.9%,14.9%,14.9%);stroke-linecap:round;stroke-opacity:1;stroke-width:0.5"><path d="M 165.0 42.5 L 165.0 33.7 L 170.2 33.7" id="50,49" /><path d="M 165.0 42.5 L 165.0 51.3 L 167.3 51.3" id="50,48" /><path d="M 170.2 33.7 L 170.2 30.4 L 208.4 30.4" id="49,47" /><path d="M 170.2 33.7 L 170.2 37.1 L 175.2 37.1" id="49,46" /><path d="M 167.3 51.3 L 167.3 55.0 L 170.7 55.0" id="48,45" /><path d="M 208.4 30.4 L 208.4 31.7 L 215.4 31.7" id="47,44" /><path d="M 175.2 37.1 L 175.2 35.0 L 186.6 35.0" id="46,43" /><path d="M 175.2 37.1 L 175.2 39.1 L 188.1 39.1" id="46,42" /><path d="M 170.7 55.0 L 170.7 50.4 L 171.9 50.4" id="45,41" /><path d="M 170.7 55.0 L 170.7 59.7 L 174.3 59.7" id="45,40" /><path d="M 188.1 39.1 L 188.1 40.7 L 198.0 40.7" id="42,39" /><path d="M 171.9 50.4 L 171.9 51.7 L 189.1 51.7" id="41,38" /><path d="M 174.3 59.7 L 174.3 55.6 L 176.7 55.6" id="40,37" /><path d="M 174.3 59.7 L 174.3 63.7 L 176.1 63.7" id="40,36" /><path d="M 198.0 40.7 L 198.0 42.3 L 201.4 42.3" id="39,35" /><path d="M 176.7 55.6 L 176.7 57.1 L 205.3 57.1" id="37,34" /><path d="M 176.1 63.7 L 176.1 61.7 L 194.6 61.7" id="36,33" /><path d="M 176.1 63.7 L 176.1 65.7 L 180.0 65.7" id="36,32" /><path d="M 201.4 42.3 L 201.4 43.8 L 213.3 43.8" id="35,31" /><path d="M 205.3 57.1 L 205.3 58.3 L 215.9 58.3" id="34,30" /><path d="M 180.0 65.7 L 180.0 67.3 L 189.0 67.3" id="32,29" /><path d="M 213.3 43.8 L 213.3 45.0 L 222.0 45.0" id="31,28" /><path d="M 189.0 67.3 L 189.0 68.8 L 199.3 68.8" id="29,27" /><path d="M 199.3 68.8 L 199.3 70.0 L 212.0 70.0" id="27,26" /><path d="M 208.4 30.4 L 208.4 29.2 L 221.7 29.2" id="47,25" /><path d="M 215.4 31.7 L 215.4 30.8 L 217.6 30.8" id="44,24" /><path d="M 215.4 31.7 L 215.4 32.5 L 219.2 32.5" id="44,23" /><path d="M 186.6 35.0 L 186.6 34.2 L 240.4 34.2" id="43,22" /><path d="M 186.6 35.0 L 186.6 35.8 L 222.2 35.8" id="43,21" /><path d="M 188.1 39.1 L 188.1 37.5 L 220.1 37.5" id="42,20" /><path d="M 198.0 40.7 L 198.0 39.2 L 218.4 39.2" id="39,19" /><path d="M 201.4 42.3 L 201.4 40.8 L 221.0 40.8" id="35,18" /><path d="M 213.3 43.8 L 213.3 42.5 L 226.3 42.5" id="31,17" /><path d="M 222.0 45.0 L 222.0 44.2 L 241.5 44.2" id="28,16" /><path d="M 222.0 45.0 L 222.0 45.8 L 225.5 45.8" id="28,15" /><path d="M 167.3 51.3 L 167.3 47.5 L 215.2 47.5" id="48,14" /><path d="M 171.9 50.4 L 171.9 49.2 L 224.8 49.2" id="41,13" /><path d="M 189.1 51.7 L 189.1 50.8 L 189.1 50.8" id="38,12" /><path d="M 189.1 51.7 L 189.1 52.5 L 249.5 52.5" id="38,11" /><path d="M 176.7 55.6 L 176.7 54.2 L 225.1 54.2" id="37,10" /><path d="M 205.3 57.1 L 205.3 55.8 L 223.8 55.8" id="34,9" /><path d="M 215.9 58.3 L 215.9 57.5 L 223.0 57.5" id="30,8" /><path d="M 215.9 58.3 L 215.9 59.2 L 226.0 59.2" id="30,7" /><path d="M 194.6 61.7 L 194.6 60.8 L 232.1 60.8" id="33,6" /><path d="M 194.6 61.7 L 194.6 62.5 L 236.8 62.5" id="33,5" /><path d="M 180.0 65.7 L 180.0 64.2 L 233.5 64.2" id="32,4" /><path d="M 189.0 67.3 L 189.0 65.8 L 250.3 65.8" id="29,3" /><path d="M 199.3 68.8 L 199.3 67.5 L 230.8 67.5" id="27,2" /><path d="M 212.0 70.0 L 212.0 69.2 L 230.4 69.2" id="26,1" /><path d="M 212.0 70.0 L 212.0 70.8 L 229.7 70.8" id="26,0" /></g><g class="toytree-Nodes" style="fill:rgb(100%,0%,0%);fill-opacity:1.0;stroke:None;stroke-width:1"><g id="node-0" transform="translate(229.720,70.833)"><circle r="2.5" /></g><g id="node-1" transform="translate(230.412,69.167)"><circle r="2.5" /></g><g id="node-2" transform="translate(230.794,67.500)"><circle r="2.5" /></g><g id="node-3" transform="translate(250.263,65.833)"><circle r="2.5" /></g><g id="node-4" transform="translate(233.455,64.167)"><circle r="2.5" /></g><g id="node-5" transform="translate(236.773,62.500)"><circle r="2.5" /></g><g id="node-6" transform="translate(232.107,60.833)"><circle r="2.5" /></g><g id="node-7" transform="translate(226.043,59.167)"><circle r="2.5" /></g><g id="node-8" transform="translate(223.039,57.500)"><circle r="2.5" /></g><g id="node-9" transform="translate(223.788,55.833)"><circle r="2.5" /></g><g id="node-10" transform="translate(225.058,54.167)"><circle r="2.5" /></g><g id="node-11" transform="translate(249.500,52.500)"><circle r="2.5" /></g><g id="node-12" transform="translate(189.109,50.833)"><circle r="2.5" /></g><g id="node-13" transform="translate(224.794,49.167)"><circle r="2.5" /></g><g id="node-14" transform="translate(215.185,47.500)"><circle r="2.5" /></g><g id="node-15" transform="translate(225.476,45.833)"><circle r="2.5" /></g><g id="node-16" transform="translate(241.521,44.167)"><circle r="2.5" /></g><g id="node-17" transform="translate(226.297,42.500)"><circle r="2.5" /></g><g id="node-18" transform="translate(221.050,40.833)"><circle r="2.5" /></g><g id="node-19" transform="translate(218.449,39.167)"><circle r="2.5" /></g><g id="node-20" transform="translate(220.065,37.500)"><circle r="2.5" /></g><g id="node-21" transform="translate(222.184,35.833)"><circle r="2.5" /></g><g id="node-22" transform="translate(240.398,34.167)"><circle r="2.5" /></g><g id="node-23" transform="translate(219.152,32.500)"><circle r="2.5" /></g><g id="node-24" transform="translate(217.568,30.833)"><circle r="2.5" /></g><g id="node-25" transform="translate(221.735,29.167)"><circle r="2.5" /></g><g id="node-26" transform="translate(211.981,70.000)"><circle r="0.0" /></g><g id="node-27" transform="translate(199.290,68.750)"><circle r="0.0" /></g><g id="node-28" transform="translate(221.959,45.000)"><circle r="0.0" /></g><g id="node-29" transform="translate(189.031,67.292)"><circle r="0.0" /></g><g id="node-30" transform="translate(215.891,58.333)"><circle r="0.0" /></g><g id="node-31" transform="translate(213.266,43.750)"><circle r="0.0" /></g><g id="node-32" transform="translate(179.963,65.729)"><circle r="0.0" /></g><g id="node-33" transform="translate(194.595,61.667)"><circle r="0.0" /></g><g id="node-34" transform="translate(205.250,57.083)"><circle r="0.0" /></g><g id="node-35" transform="translate(201.409,42.292)"><circle r="0.0" /></g><g id="node-36" transform="translate(176.086,63.698)"><circle r="0.0" /></g><g id="node-37" transform="translate(176.710,55.625)"><circle r="0.0" /></g><g id="node-38" transform="translate(189.109,51.667)"><circle r="0.0" /></g><g id="node-39" transform="translate(198.035,40.729)"><circle r="0.0" /></g><g id="node-40" transform="translate(174.285,59.661)"><circle r="0.0" /></g><g id="node-41" transform="translate(171.870,50.417)"><circle r="0.0" /></g><g id="node-42" transform="translate(188.115,39.115)"><circle r="0.0" /></g><g id="node-43" transform="translate(186.578,35.000)"><circle r="0.0" /></g><g id="node-44" transform="translate(215.435,31.667)"><circle r="0.0" /></g><g id="node-45" transform="translate(170.682,55.039)"><circle r="0.0" /></g><g id="node-46" transform="translate(175.184,37.057)"><circle r="0.0" /></g><g id="node-47" transform="translate(208.419,30.417)"><circle r="0.0" /></g><g id="node-48" transform="translate(167.257,51.270)"><circle r="0.0" /></g><g id="node-49" transform="translate(170.219,33.737)"><circle r="0.0" /></g><g id="node-50" transform="translate(165.000,42.503)"><circle r="0.0" /></g></g></g></g></g><g class="toyplot-coordinates-Cartesian" id="t246ab0428e6645ddbc60950182e29176"><clipPath id="t2b391a74480c404f81c74442aa668740"><rect x="295.0" y="15.0" width="110.0" height="70.0" /></clipPath><g clip-path="url(#t2b391a74480c404f81c74442aa668740)"><g class="toytree-mark-Toytree" id="teac1831a87f24d7e946f9f1e63394b23"><g class="toytree-Edges" style="fill:none;stroke:rgb(14.9%,14.9%,14.9%);stroke-linecap:round;stroke-opacity:1;stroke-width:0.5"><path d="M 305.0 36.7 L 305.0 30.0 L 311.0 30.0" id="50,49" /><path d="M 305.0 36.7 L 305.0 43.5 L 307.4 43.5" id="50,48" /><path d="M 307.4 43.5 L 307.4 35.0 L 310.6 35.0" id="48,47" /><path d="M 307.4 43.5 L 307.4 52.0 L 308.2 52.0" id="48,46" /><path d="M 310.6 35.0 L 310.6 37.5 L 314.6 37.5" id="47,45" /><path d="M 308.2 52.0 L 308.2 47.0 L 314.1 47.0" id="46,44" /><path d="M 308.2 52.0 L 308.2 57.0 L 311.0 57.0" id="46,43" /><path d="M 314.6 37.5 L 314.6 35.0 L 316.5 35.0" id="45,42" /><path d="M 314.6 37.5 L 314.6 40.0 L 318.4 40.0" id="45,41" /><path d="M 314.1 47.0 L 314.1 45.0 L 317.3 45.0" id="44,40" /><path d="M 314.1 47.0 L 314.1 49.0 L 318.9 49.0" id="44,39" /><path d="M 311.0 57.0 L 311.0 59.9 L 314.8 59.9" id="43,38" /><path d="M 318.4 40.0 L 318.4 38.3 L 323.9 38.3" id="41,37" /><path d="M 318.4 40.0 L 318.4 41.7 L 322.2 41.7" id="41,36" /><path d="M 318.9 49.0 L 318.9 50.4 L 321.2 50.4" id="39,35" /><path d="M 314.8 59.9 L 314.8 56.7 L 318.4 56.7" id="38,34" /><path d="M 314.8 59.9 L 314.8 63.1 L 315.7 63.1" id="38,33" /><path d="M 321.2 50.4 L 321.2 51.7 L 322.4 51.7" id="35,32" /><path d="M 315.7 63.1 L 315.7 60.4 L 321.5 60.4" id="33,31" /><path d="M 315.7 63.1 L 315.7 65.7 L 318.1 65.7" id="33,30" /><path d="M 321.5 60.4 L 321.5 61.7 L 321.6 61.7" id="31,29" /><path d="M 318.1 65.7 L 318.1 67.3 L 318.3 67.3" id="30,28" /><path d="M 318.3 67.3 L 318.3 68.8 L 319.1 68.8" id="28,27" /><path d="M 319.1 68.8 L 319.1 70.0 L 321.5 70.0" id="27,26" /><path d="M 311.0 30.0 L 311.0 29.2 L 322.4 29.2" id="49,25" /><path d="M 311.0 30.0 L 311.0 30.8 L 329.9 30.8" id="49,24" /><path d="M 310.6 35.0 L 310.6 32.5 L 330.1 32.5" id="47,23" /><path d="M 316.5 35.0 L 316.5 34.2 L 323.0 34.2" id="42,22" /><path d="M 316.5 35.0 L 316.5 35.8 L 324.5 35.8" id="42,21" /><path d="M 323.9 38.3 L 323.9 37.5 L 329.6 37.5" id="37,20" /><path d="M 323.9 38.3 L 323.9 39.2 L 326.8 39.2" id="37,19" /><path d="M 322.2 41.7 L 322.2 40.8 L 325.4 40.8" id="36,18" /><path d="M 322.2 41.7 L 322.2 42.5 L 323.6 42.5" id="36,17" /><path d="M 317.3 45.0 L 317.3 44.2 L 338.1 44.2" id="40,16" /><path d="M 317.3 45.0 L 317.3 45.8 L 340.0 45.8" id="40,15" /><path d="M 318.9 49.0 L 318.9 47.5 L 329.3 47.5" id="39,14" /><path d="M 321.2 50.4 L 321.2 49.2 L 324.5 49.2" id="35,13" /><path d="M 322.4 51.7 L 322.4 50.8 L 326.3 50.8" id="32,12" /><path d="M 322.4 51.7 L 322.4 52.5 L 323.6 52.5" id="32,11" /><path d="M 311.0 57.0 L 311.0 54.2 L 390.3 54.2" id="43,10" /><path d="M 318.4 56.7 L 318.4 55.8 L 326.6 55.8" id="34,9" /><path d="M 318.4 56.7 L 318.4 57.5 L 321.2 57.5" id="34,8" /><path d="M 321.5 60.4 L 321.5 59.2 L 323.9 59.2" id="31,7" /><path d="M 321.6 61.7 L 321.6 60.8 L 323.4 60.8" id="29,6" /><path d="M 321.6 61.7 L 321.6 62.5 L 323.2 62.5" id="29,5" /><path d="M 318.1 65.7 L 318.1 64.2 L 322.3 64.2" id="30,4" /><path d="M 318.3 67.3 L 318.3 65.8 L 321.0 65.8" id="28,3" /><path d="M 319.1 68.8 L 319.1 67.5 L 320.9 67.5" id="27,2" /><path d="M 321.5 70.0 L 321.5 69.2 L 324.7 69.2" id="26,1" /><path d="M 321.5 70.0 L 321.5 70.8 L 324.1 70.8" id="26,0" /></g><g class="toytree-Nodes" style="fill:rgb(100%,0%,0%);fill-opacity:1.0;stroke:None;stroke-width:1"><g id="node-0" transform="translate(324.095,70.833)"><circle r="2.5" /></g><g id="node-1" transform="translate(324.669,69.167)"><circle r="2.5" /></g><g id="node-2" transform="translate(320.875,67.500)"><circle r="2.5" /></g><g id="node-3" transform="translate(320.966,65.833)"><circle r="2.5" /></g><g id="node-4" transform="translate(322.307,64.167)"><circle r="2.5" /></g><g id="node-5" transform="translate(323.157,62.500)"><circle r="2.5" /></g><g id="node-6" transform="translate(323.368,60.833)"><circle r="2.5" /></g><g id="node-7" transform="translate(323.917,59.167)"><circle r="2.5" /></g><g id="node-8" transform="translate(321.209,57.500)"><circle r="2.5" /></g><g id="node-9" transform="translate(326.638,55.833)"><circle r="2.5" /></g><g id="node-10" transform="translate(390.263,54.167)"><circle r="2.5" /></g><g id="node-11" transform="translate(323.637,52.500)"><circle r="2.5" /></g><g id="node-12" transform="translate(326.333,50.833)"><circle r="2.5" /></g><g id="node-13" transform="translate(324.454,49.167)"><circle r="2.5" /></g><g id="node-14" transform="translate(329.277,47.500)"><circle r="2.5" /></g><g id="node-15" transform="translate(339.975,45.833)"><circle r="2.5" /></g><g id="node-16" transform="translate(338.122,44.167)"><circle r="2.5" /></g><g id="node-17" transform="translate(323.619,42.500)"><circle r="2.5" /></g><g id="node-18" transform="translate(325.377,40.833)"><circle r="2.5" /></g><g id="node-19" transform="translate(326.773,39.167)"><circle r="2.5" /></g><g id="node-20" transform="translate(329.622,37.500)"><circle r="2.5" /></g><g id="node-21" transform="translate(324.527,35.833)"><circle r="2.5" /></g><g id="node-22" transform="translate(323.044,34.167)"><circle r="2.5" /></g><g id="node-23" transform="translate(330.142,32.500)"><circle r="2.5" /></g><g id="node-24" transform="translate(329.906,30.833)"><circle r="2.5" /></g><g id="node-25" transform="translate(322.398,29.167)"><circle r="2.5" /></g><g id="node-26" transform="translate(321.511,70.000)"><circle r="0.0" /></g><g id="node-27" transform="translate(319.131,68.750)"><circle r="0.0" /></g><g id="node-28" transform="translate(318.280,67.292)"><circle r="0.0" /></g><g id="node-29" transform="translate(321.573,61.667)"><circle r="0.0" /></g><g id="node-30" transform="translate(318.106,65.729)"><circle r="0.0" /></g><g id="node-31" transform="translate(321.500,60.417)"><circle r="0.0" /></g><g id="node-32" transform="translate(322.441,51.667)"><circle r="0.0" /></g><g id="node-33" transform="translate(315.744,63.073)"><circle r="0.0" /></g><g id="node-34" transform="translate(318.436,56.667)"><circle r="0.0" /></g><g id="node-35" transform="translate(321.176,50.417)"><circle r="0.0" /></g><g id="node-36" transform="translate(322.154,41.667)"><circle r="0.0" /></g><g id="node-37" transform="translate(323.873,38.333)"><circle r="0.0" /></g><g id="node-38" transform="translate(314.759,59.870)"><circle r="0.0" /></g><g id="node-39" transform="translate(318.876,48.958)"><circle r="0.0" /></g><g id="node-40" transform="translate(317.281,45.000)"><circle r="0.0" /></g><g id="node-41" transform="translate(318.375,40.000)"><circle r="0.0" /></g><g id="node-42" transform="translate(316.499,35.000)"><circle r="0.0" /></g><g id="node-43" transform="translate(310.950,57.018)"><circle r="0.0" /></g><g id="node-44" transform="translate(314.123,46.979)"><circle r="0.0" /></g><g id="node-45" transform="translate(314.570,37.500)"><circle r="0.0" /></g><g id="node-46" transform="translate(308.210,51.999)"><circle r="0.0" /></g><g id="node-47" transform="translate(310.645,35.000)"><circle r="0.0" /></g><g id="node-48" transform="translate(307.447,43.499)"><circle r="0.0" /></g><g id="node-49" transform="translate(310.962,30.000)"><circle r="0.0" /></g><g id="node-50" transform="translate(305.000,36.750)"><circle r="0.0" /></g></g></g></g></g><g class="toyplot-coordinates-Cartesian" id="t2223b1912f104a2b91e1231a5557bed1"><clipPath id="tf6233e2ed8434289a04d49df2bf3636c"><rect x="435.0" y="15.0" width="110.0" height="70.0" /></clipPath><g clip-path="url(#tf6233e2ed8434289a04d49df2bf3636c)"><g class="toytree-mark-Toytree" id="t679fcae078f94fe6bf9aa4bd2c547922"><g class="toytree-Edges" style="fill:none;stroke:rgb(14.9%,14.9%,14.9%);stroke-linecap:round;stroke-opacity:1;stroke-width:0.5"><path d="M 445.0 42.3 L 445.0 31.5 L 449.1 31.5" id="50,49" /><path d="M 445.0 42.3 L 445.0 53.2 L 450.9 53.2" id="50,48" /><path d="M 449.1 31.5 L 449.1 33.9 L 451.3 33.9" id="49,47" /><path d="M 450.9 53.2 L 450.9 47.0 L 456.6 47.0" id="48,46" /><path d="M 450.9 53.2 L 450.9 59.3 L 455.5 59.3" id="48,45" /><path d="M 451.3 33.9 L 451.3 31.7 L 464.0 31.7" id="47,44" /><path d="M 451.3 33.9 L 451.3 36.0 L 455.2 36.0" id="47,43" /><path d="M 456.6 47.0 L 456.6 45.0 L 459.6 45.0" id="46,42" /><path d="M 456.6 47.0 L 456.6 49.1 L 459.9 49.1" id="46,41" /><path d="M 455.5 59.3 L 455.5 56.7 L 456.1 56.7" id="45,40" /><path d="M 455.5 59.3 L 455.5 61.9 L 455.6 61.9" id="45,39" /><path d="M 455.2 36.0 L 455.2 37.9 L 457.1 37.9" id="43,38" /><path d="M 459.9 49.1 L 459.9 50.6 L 463.9 50.6" id="41,37" /><path d="M 455.6 61.9 L 455.6 64.7 L 456.0 64.7" id="39,36" /><path d="M 457.1 37.9 L 457.1 40.0 L 457.4 40.0" id="38,35" /><path d="M 463.9 50.6 L 463.9 52.1 L 465.6 52.1" id="37,34" /><path d="M 456.0 64.7 L 456.0 62.1 L 456.0 62.1" id="36,33" /><path d="M 456.0 64.7 L 456.0 67.3 L 456.6 67.3" id="36,32" /><path d="M 457.4 40.0 L 457.4 38.3 L 458.0 38.3" id="35,31" /><path d="M 457.4 40.0 L 457.4 41.7 L 459.5 41.7" id="35,30" /><path d="M 465.6 52.1 L 465.6 53.3 L 466.6 53.3" id="34,29" /><path d="M 456.0 62.1 L 456.0 63.3 L 456.1 63.3" id="33,28" /><path d="M 456.6 67.3 L 456.6 68.8 L 456.6 68.8" id="32,27" /><path d="M 456.6 68.8 L 456.6 70.0 L 456.6 70.0" id="27,26" /><path d="M 449.1 31.5 L 449.1 29.2 L 457.0 29.2" id="49,25" /><path d="M 464.0 31.7 L 464.0 30.8 L 470.4 30.8" id="44,24" /><path d="M 464.0 31.7 L 464.0 32.5 L 467.0 32.5" id="44,23" /><path d="M 455.2 36.0 L 455.2 34.2 L 457.9 34.2" id="43,22" /><path d="M 457.1 37.9 L 457.1 35.8 L 459.2 35.8" id="38,21" /><path d="M 458.0 38.3 L 458.0 37.5 L 458.0 37.5" id="31,20" /><path d="M 458.0 38.3 L 458.0 39.2 L 458.0 39.2" id="31,19" /><path d="M 459.5 41.7 L 459.5 40.8 L 459.6 40.8" id="30,18" /><path d="M 459.5 41.7 L 459.5 42.5 L 460.1 42.5" id="30,17" /><path d="M 459.6 45.0 L 459.6 44.2 L 470.1 44.2" id="42,16" /><path d="M 459.6 45.0 L 459.6 45.8 L 477.3 45.8" id="42,15" /><path d="M 459.9 49.1 L 459.9 47.5 L 530.3 47.5" id="41,14" /><path d="M 463.9 50.6 L 463.9 49.2 L 466.8 49.2" id="37,13" /><path d="M 465.6 52.1 L 465.6 50.8 L 467.3 50.8" id="34,12" /><path d="M 466.6 53.3 L 466.6 52.5 L 468.0 52.5" id="29,11" /><path d="M 466.6 53.3 L 466.6 54.2 L 467.4 54.2" id="29,10" /><path d="M 456.1 56.7 L 456.1 55.8 L 457.1 55.8" id="40,9" /><path d="M 456.1 56.7 L 456.1 57.5 L 456.3 57.5" id="40,8" /><path d="M 455.6 61.9 L 455.6 59.2 L 456.2 59.2" id="39,7" /><path d="M 456.0 62.1 L 456.0 60.8 L 456.1 60.8" id="33,6" /><path d="M 456.1 63.3 L 456.1 62.5 L 456.6 62.5" id="28,5" /><path d="M 456.1 63.3 L 456.1 64.2 L 456.1 64.2" id="28,4" /><path d="M 456.6 67.3 L 456.6 65.8 L 456.7 65.8" id="32,3" /><path d="M 456.6 68.8 L 456.6 67.5 L 456.6 67.5" id="27,2" /><path d="M 456.6 70.0 L 456.6 69.2 L 456.6 69.2" id="26,1" /><path d="M 456.6 70.0 L 456.6 70.8 L 456.6 70.8" id="26,0" /></g><g class="toytree-Nodes" style="fill:rgb(100%,0%,0%);fill-opacity:1.0;stroke:None;stroke-width:1"><g id="node-0" transform="translate(456.564,70.833)"><circle r="2.5" /></g><g id="node-1" transform="translate(456.564,69.167)"><circle r="2.5" /></g><g id="node-2" transform="translate(456.564,67.500)"><circle r="2.5" /></g><g id="node-3" transform="translate(456.716,65.833)"><circle r="2.5" /></g><g id="node-4" transform="translate(456.104,64.167)"><circle r="2.5" /></g><g id="node-5" transform="translate(456.566,62.500)"><circle r="2.5" /></g><g id="node-6" transform="translate(456.104,60.833)"><circle r="2.5" /></g><g id="node-7" transform="translate(456.192,59.167)"><circle r="2.5" /></g><g id="node-8" transform="translate(456.263,57.500)"><circle r="2.5" /></g><g id="node-9" transform="translate(457.097,55.833)"><circle r="2.5" /></g><g id="node-10" transform="translate(467.371,54.167)"><circle r="2.5" /></g><g id="node-11" transform="translate(467.976,52.500)"><circle r="2.5" /></g><g id="node-12" transform="translate(467.307,50.833)"><circle r="2.5" /></g><g id="node-13" transform="translate(466.823,49.167)"><circle r="2.5" /></g><g id="node-14" transform="translate(530.263,47.500)"><circle r="2.5" /></g><g id="node-15" transform="translate(477.297,45.833)"><circle r="2.5" /></g><g id="node-16" transform="translate(470.133,44.167)"><circle r="2.5" /></g><g id="node-17" transform="translate(460.084,42.500)"><circle r="2.5" /></g><g id="node-18" transform="translate(459.618,40.833)"><circle r="2.5" /></g><g id="node-19" transform="translate(458.031,39.167)"><circle r="2.5" /></g><g id="node-20" transform="translate(458.031,37.500)"><circle r="2.5" /></g><g id="node-21" transform="translate(459.166,35.833)"><circle r="2.5" /></g><g id="node-22" transform="translate(457.897,34.167)"><circle r="2.5" /></g><g id="node-23" transform="translate(467.032,32.500)"><circle r="2.5" /></g><g id="node-24" transform="translate(470.436,30.833)"><circle r="2.5" /></g><g id="node-25" transform="translate(457.020,29.167)"><circle r="2.5" /></g><g id="node-26" transform="translate(456.564,70.000)"><circle r="0.0" /></g><g id="node-27" transform="translate(456.564,68.750)"><circle r="0.0" /></g><g id="node-28" transform="translate(456.104,63.333)"><circle r="0.0" /></g><g id="node-29" transform="translate(466.576,53.333)"><circle r="0.0" /></g><g id="node-30" transform="translate(459.473,41.667)"><circle r="0.0" /></g><g id="node-31" transform="translate(458.031,38.333)"><circle r="0.0" /></g><g id="node-32" transform="translate(456.564,67.292)"><circle r="0.0" /></g><g id="node-33" transform="translate(455.950,62.083)"><circle r="0.0" /></g><g id="node-34" transform="translate(465.608,52.083)"><circle r="0.0" /></g><g id="node-35" transform="translate(457.447,40.000)"><circle r="0.0" /></g><g id="node-36" transform="translate(455.950,64.688)"><circle r="0.0" /></g><g id="node-37" transform="translate(463.918,50.625)"><circle r="0.0" /></g><g id="node-38" transform="translate(457.059,37.917)"><circle r="0.0" /></g><g id="node-39" transform="translate(455.647,61.927)"><circle r="0.0" /></g><g id="node-40" transform="translate(456.111,56.667)"><circle r="0.0" /></g><g id="node-41" transform="translate(459.897,49.063)"><circle r="0.0" /></g><g id="node-42" transform="translate(459.620,45.000)"><circle r="0.0" /></g><g id="node-43" transform="translate(455.246,36.042)"><circle r="0.0" /></g><g id="node-44" transform="translate(463.954,31.667)"><circle r="0.0" /></g><g id="node-45" transform="translate(455.542,59.297)"><circle r="0.0" /></g><g id="node-46" transform="translate(456.609,47.031)"><circle r="0.0" /></g><g id="node-47" transform="translate(451.330,33.854)"><circle r="0.0" /></g><g id="node-48" transform="translate(450.850,53.164)"><circle r="0.0" /></g><g id="node-49" transform="translate(449.117,31.510)"><circle r="0.0" /></g><g id="node-50" transform="translate(445.000,42.337)"><circle r="0.0" /></g></g></g></g></g></svg>