<svg class="toyplot-canvas-Canvas" xmlns:toyplot="http://www.sandia.gov/toyplot" xmlns:xlink="http://www.w3.org/1999/xlink" xmlns="http://www.w3.org/2000/svg" width="560.0px" height="100.0px" viewBox="0 0 560.0 100.0" preserveAspectRatio="xMidYMid meet" style="background-color:transparent;border-color:#292724;border-style:none;border-width:1.0;fill:rgb(16.1%,15.3%,14.1%);fill-opacity:1.0;font-family:Helvetica;font-size:12px;opacity:1.0;stroke:rgb(16.1%,15.3%,14.1%);stroke-opacity:1.0;stroke-width:1.0" id="t7c9c41bdfb6243ac81bb73316b9322e8"><g class="toyplot-coordinates-Cartesian" id="t054e28702b4b4d86839eb886b2382c42"><clipPath id="t8d65c05e07bd49db9c41439b46ebb6ba"><rect x="15.0" y="15.0" width="110.0" height="70.0" /></clipPath><g clip-path="url(#t8d65c05e07bd49db9c41439b46ebb6ba)"><g class="toytree-mark-Toytree" id="tb8131de5570e4792aad0cda52fea9ec0"><g class="toytree-Edges" style="fill:none;stroke:rgb(14.9%,14.9%,14.9%);stroke-linecap:round;stroke-opacity:1;stroke-width:0.5"><path d="M 25.0 41.7 L 25.0 33.7 L 38.0 33.7" id="54,53" /><path d="M 25.0 41.7 L 25.0 49.7 L 28.6 49.7" id="54,52" /><path d="M 38.0 33.7 L 38.0 30.5 L 55.1 30.5" id="53,51" /><path d="M 38.0 33.7 L 38.0 37.0 L 53.2 37.0" id="53,50" /><path d="M 28.6 49.7 L 28.6 53.3 L 33.7 53.3" id="52,49" /><path d="M 55.1 30.5 L 55.1 31.9 L 57.6 31.9" id="51,48" /><path d="M 53.2 37.0 L 53.2 38.6 L 64.6 38.6" id="50,47" /><path d="M 33.7 53.3 L 33.7 48.5 L 35.6 48.5" id="49,46" /><path d="M 33.7 53.3 L 33.7 58.1 L 40.4 58.1" id="49,45" /><path d="M 57.6 31.9 L 57.6 33.0 L 67.7 33.0" id="48,44" /><path d="M 64.6 38.6 L 64.6 40.4 L 64.9 40.4" id="47,43" /><path d="M 40.4 58.1 L 40.4 53.1 L 41.9 53.1" id="45,42" /><path d="M 40.4 58.1 L 40.4 63.1 L 46.6 63.1" id="45,41" /><path d="M 64.9 40.4 L 64.9 42.3 L 70.3 42.3" id="43,40" /><path d="M 41.9 53.1 L 41.9 55.4 L 44.6 55.4" id="42,39" /><path d="M 46.6 63.1 L 46.6 64.6 L 50.1 64.6" id="41,38" /><path d="M 70.3 42.3 L 70.3 40.7 L 87.5 40.7" id="40,37" /><path d="M 70.3 42.3 L 70.3 43.8 L 70.8 43.8" id="40,36" /><path d="M 44.6 55.4 L 44.6 53.1 L 55.5 53.1" id="39,35" /><path d="M 44.6 55.4 L 44.6 57.7 L 59.5 57.7" id="39,34" /><path d="M 50.1 64.6 L 50.1 66.1 L 54.9 66.1" id="38,33" /><path d="M 59.5 57.7 L 59.5 56.2 L 64.0 56.2" id="34,32" /><path d="M 59.5 57.7 L 59.5 59.3 L 63.4 59.3" id="34,31" /><path d="M 54.9 66.1 L 54.9 67.6 L 60.4 67.6" id="33,30" /><path d="M 60.4 67.6 L 60.4 68.9 L 76.5 68.9" id="30,29" /><path d="M 76.5 68.9 L 76.5 70.1 L 82.0 70.1" id="29,28" /><path d="M 55.1 30.5 L 55.1 29.2 L 100.1 29.2" id="51,27" /><path d="M 57.6 31.9 L 57.6 30.7 L 102.2 30.7" id="48,26" /><path d="M 67.7 33.0 L 67.7 32.3 L 102.2 32.3" id="44,25" /><path d="M 67.7 33.0 L 67.7 33.8 L 101.2 33.8" id="44,24" /><path d="M 53.2 37.0 L 53.2 35.3 L 100.2 35.3" id="50,23" /><path d="M 64.6 38.6 L 64.6 36.9 L 100.6 36.9" id="47,22" /><path d="M 64.9 40.4 L 64.9 38.4 L 98.0 38.4" id="43,21" /><path d="M 87.5 40.7 L 87.5 40.0 L 96.5 40.0" id="37,20" /><path d="M 87.5 40.7 L 87.5 41.5 L 96.0 41.5" id="37,19" /><path d="M 70.8 43.8 L 70.8 43.1 L 96.2 43.1" id="36,18" /><path d="M 70.8 43.8 L 70.8 44.6 L 97.6 44.6" id="36,17" /><path d="M 28.6 49.7 L 28.6 46.1 L 102.8 46.1" id="52,16" /><path d="M 35.6 48.5 L 35.6 47.7 L 101.4 47.7" id="46,15" /><path d="M 35.6 48.5 L 35.6 49.2 L 102.9 49.2" id="46,14" /><path d="M 41.9 53.1 L 41.9 50.8 L 102.1 50.8" id="42,13" /><path d="M 55.5 53.1 L 55.5 52.3 L 100.6 52.3" id="35,12" /><path d="M 55.5 53.1 L 55.5 53.9 L 98.4 53.9" id="35,11" /><path d="M 64.0 56.2 L 64.0 55.4 L 97.0 55.4" id="32,10" /><path d="M 64.0 56.2 L 64.0 56.9 L 98.3 56.9" id="32,9" /><path d="M 63.4 59.3 L 63.4 58.5 L 98.3 58.5" id="31,8" /><path d="M 63.4 59.3 L 63.4 60.0 L 94.6 60.0" id="31,7" /><path d="M 46.6 63.1 L 46.6 61.6 L 110.3 61.6" id="41,6" /><path d="M 50.1 64.6 L 50.1 63.1 L 97.7 63.1" id="38,5" /><path d="M 54.9 66.1 L 54.9 64.7 L 103.1 64.7" id="33,4" /><path d="M 60.4 67.6 L 60.4 66.2 L 95.4 66.2" id="30,3" /><path d="M 76.5 68.9 L 76.5 67.7 L 95.4 67.7" id="29,2" /><path d="M 82.0 70.1 L 82.0 69.3 L 94.5 69.3" id="28,1" /><path d="M 82.0 70.1 L 82.0 70.8 L 95.2 70.8" id="28,0" /></g><g class="toytree-Nodes" style="fill:rgb(100%,0%,0%);fill-opacity:1.0;stroke:None;stroke-width:1"><g id="node-0" transform="translate(95.244,70.833)"><circle r="2.5" /></g><g id="node-1" transform="translate(94.501,69.290)"><circle r="2.5" /></g><g id="node-2" transform="translate(95.360,67.747)"><circle r="2.5" /></g><g id="node-3" transform="translate(95.441,66.204)"><circle r="2.5" /></g><g id="node-4" transform="translate(103.118,64.660)"><circle r="2.5" /></g><g id="node-5" transform="translate(97.718,63.117)"><circle r="2.5" /></g><g id="node-6" transform="translate(110.263,61.574)"><circle r="2.5" /></g><g id="node-7" transform="translate(94.603,60.031)"><circle r="2.5" /></g><g id="node-8" transform="translate(98.308,58.488)"><circle r="2.5" /></g><g id="node-9" transform="translate(98.282,56.944)"><circle r="2.5" /></g><g id="node-10" transform="translate(97.022,55.401)"><circle r="2.5" /></g><g id="node-11" transform="translate(98.374,53.858)"><circle r="2.5" /></g><g id="node-12" transform="translate(100.623,52.315)"><circle r="2.5" /></g><g id="node-13" transform="translate(102.079,50.772)"><circle r="2.5" /></g><g id="node-14" transform="translate(102.936,49.228)"><circle r="2.5" /></g><g id="node-15" transform="translate(101.378,47.685)"><circle r="2.5" /></g><g id="node-16" transform="translate(102.802,46.142)"><circle r="2.5" /></g><g id="node-17" transform="translate(97.583,44.599)"><circle r="2.5" /></g><g id="node-18" transform="translate(96.208,43.056)"><circle r="2.5" /></g><g id="node-19" transform="translate(95.962,41.512)"><circle r="2.5" /></g><g id="node-20" transform="translate(96.450,39.969)"><circle r="2.5" /></g><g id="node-21" transform="translate(98.021,38.426)"><circle r="2.5" /></g><g id="node-22" transform="translate(100.622,36.883)"><circle r="2.5" /></g><g id="node-23" transform="translate(100.179,35.340)"><circle r="2.5" /></g><g id="node-24" transform="translate(101.182,33.796)"><circle r="2.5" /></g><g id="node-25" transform="translate(102.235,32.253)"><circle r="2.5" /></g><g id="node-26" transform="translate(102.173,30.710)"><circle r="2.5" /></g><g id="node-27" transform="translate(100.098,29.167)"><circle r="2.5" /></g><g id="node-28" transform="translate(82.034,70.062)"><circle r="0.0" /></g><g id="node-29" transform="translate(76.496,68.904)"><circle r="0.0" /></g><g id="node-30" transform="translate(60.398,67.554)"><circle r="0.0" /></g><g id="node-31" transform="translate(63.352,59.259)"><circle r="0.0" /></g><g id="node-32" transform="translate(64.019,56.173)"><circle r="0.0" /></g><g id="node-33" transform="translate(54.902,66.107)"><circle r="0.0" /></g><g id="node-34" transform="translate(59.494,57.716)"><circle r="0.0" /></g><g id="node-35" transform="translate(55.467,53.086)"><circle r="0.0" /></g><g id="node-36" transform="translate(70.795,43.827)"><circle r="0.0" /></g><g id="node-37" transform="translate(87.506,40.741)"><circle r="0.0" /></g><g id="node-38" transform="translate(50.077,64.612)"><circle r="0.0" /></g><g id="node-39" transform="translate(44.643,55.401)"><circle r="0.0" /></g><g id="node-40" transform="translate(70.252,42.284)"><circle r="0.0" /></g><g id="node-41" transform="translate(46.620,63.093)"><circle r="0.0" /></g><g id="node-42" transform="translate(41.935,53.086)"><circle r="0.0" /></g><g id="node-43" transform="translate(64.926,40.355)"><circle r="0.0" /></g><g id="node-44" transform="translate(67.651,33.025)"><circle r="0.0" /></g><g id="node-45" transform="translate(40.392,58.090)"><circle r="0.0" /></g><g id="node-46" transform="translate(35.633,48.457)"><circle r="0.0" /></g><g id="node-47" transform="translate(64.559,38.619)"><circle r="0.0" /></g><g id="node-48" transform="translate(57.565,31.867)"><circle r="0.0" /></g><g id="node-49" transform="translate(33.733,53.273)"><circle r="0.0" /></g><g id="node-50" transform="translate(53.151,36.979)"><circle r="0.0" /></g><g id="node-51" transform="translate(55.078,30.517)"><circle r="0.0" /></g><g id="node-52" transform="translate(28.605,49.708)"><circle r="0.0" /></g><g id="node-53" transform="translate(38.028,33.748)"><circle r="0.0" /></g><g id="node-54" transform="translate(25.000,41.728)"><circle r="0.0" /></g></g></g></g></g><g class="toyplot-coordinates-Cartesian" id="ta9047703f9064592b63bb1c81ca48d6c"><clipPath id="tbe2cc9c6a4304a94b6168ee2b1be3465"><rect x="155.0" y="15.0" width="110.0" height="70.0" /></clipPath><g clip-path="url(#tbe2cc9c6a4304a94b6168ee2b1be3465)"><g class="toytree-mark-Toytree" id="te0af71b2a822495b88ab3291fce2b182"><g class="toytree-Edges" style="fill:none;stroke:rgb(14.9%,14.9%,14.9%);stroke-linecap:round;stroke-opacity:1;stroke-width:0.5"><path d="M 165.0 40.4 L 165.0 32.3 L 190.1 32.3" id="54,53" /><path d="M 165.0 40.4 L 165.0 48.5 L 175.0 48.5" id="54,52" /><path d="M 190.1 32.3 L 190.1 35.5 L 193.0 35.5" id="53,51" /><path d="M 175.0 48.5 L 175.0 50.9 L 186.2 50.9" id="52,50" /><path d="M 193.0 35.5 L 193.0 32.1 L 200.4 32.1" id="51,49" /><path d="M 193.0 35.5 L 193.0 38.9 L 194.5 38.9" id="51,48" /><path d="M 186.2 50.9 L 186.2 54.2 L 192.5 54.2" id="50,47" /><path d="M 200.4 32.1 L 200.4 33.4 L 204.0 33.4" id="49,46" /><path d="M 194.5 38.9 L 194.5 40.9 L 197.4 40.9" id="48,45" /><path d="M 192.5 54.2 L 192.5 50.0 L 203.1 50.0" id="47,44" /><path d="M 192.5 54.2 L 192.5 58.4 L 193.0 58.4" id="47,43" /><path d="M 204.0 33.4 L 204.0 34.6 L 208.6 34.6" id="46,42" /><path d="M 197.4 40.9 L 197.4 39.2 L 203.6 39.2" id="45,41" /><path d="M 197.4 40.9 L 197.4 42.7 L 199.7 42.7" id="45,40" /><path d="M 193.0 58.4 L 193.0 54.6 L 203.3 54.6" id="43,39" /><path d="M 193.0 58.4 L 193.0 62.1 L 195.6 62.1" id="43,38" /><path d="M 199.7 42.7 L 199.7 43.8 L 201.3 43.8" id="40,37" /><path d="M 203.3 54.6 L 203.3 53.1 L 205.3 53.1" id="39,36" /><path d="M 203.3 54.6 L 203.3 56.2 L 207.1 56.2" id="39,35" /><path d="M 195.6 62.1 L 195.6 59.6 L 204.5 59.6" id="38,34" /><path d="M 195.6 62.1 L 195.6 64.6 L 199.5 64.6" id="38,33" /><path d="M 204.5 59.6 L 204.5 60.8 L 211.5 60.8" id="34,32" /><path d="M 199.5 64.6 L 199.5 66.1 L 199.8 66.1" id="33,31" /><path d="M 199.8 66.1 L 199.8 67.6 L 201.6 67.6" id="31,30" /><path d="M 201.6 67.6 L 201.6 68.9 L 201.8 68.9" id="30,29" /><path d="M 201.8 68.9 L 201.8 70.1 L 203.3 70.1" id="29,28" /><path d="M 190.1 32.3 L 190.1 29.2 L 205.5 29.2" id="53,27" /><path d="M 200.4 32.1 L 200.4 30.7 L 209.1 30.7" id="49,26" /><path d="M 204.0 33.4 L 204.0 32.3 L 207.1 32.3" id="46,25" /><path d="M 208.6 34.6 L 208.6 33.8 L 208.6 33.8" id="42,24" /><path d="M 208.6 34.6 L 208.6 35.3 L 211.5 35.3" id="42,23" /><path d="M 194.5 38.9 L 194.5 36.9 L 210.3 36.9" id="48,22" /><path d="M 203.6 39.2 L 203.6 38.4 L 217.3 38.4" id="41,21" /><path d="M 203.6 39.2 L 203.6 40.0 L 217.3 40.0" id="41,20" /><path d="M 199.7 42.7 L 199.7 41.5 L 206.4 41.5" id="40,19" /><path d="M 201.3 43.8 L 201.3 43.1 L 214.8 43.1" id="37,18" /><path d="M 201.3 43.8 L 201.3 44.6 L 217.9 44.6" id="37,17" /><path d="M 175.0 48.5 L 175.0 46.1 L 213.2 46.1" id="52,16" /><path d="M 186.2 50.9 L 186.2 47.7 L 209.4 47.7" id="50,15" /><path d="M 203.1 50.0 L 203.1 49.2 L 208.8 49.2" id="44,14" /><path d="M 203.1 50.0 L 203.1 50.8 L 207.5 50.8" id="44,13" /><path d="M 205.3 53.1 L 205.3 52.3 L 210.2 52.3" id="36,12" /><path d="M 205.3 53.1 L 205.3 53.9 L 212.7 53.9" id="36,11" /><path d="M 207.1 56.2 L 207.1 55.4 L 210.9 55.4" id="35,10" /><path d="M 207.1 56.2 L 207.1 56.9 L 207.1 56.9" id="35,9" /><path d="M 204.5 59.6 L 204.5 58.5 L 225.6 58.5" id="34,8" /><path d="M 211.5 60.8 L 211.5 60.0 L 250.3 60.0" id="32,7" /><path d="M 211.5 60.8 L 211.5 61.6 L 245.0 61.6" id="32,6" /><path d="M 199.5 64.6 L 199.5 63.1 L 199.5 63.1" id="33,5" /><path d="M 199.8 66.1 L 199.8 64.7 L 214.8 64.7" id="31,4" /><path d="M 201.6 67.6 L 201.6 66.2 L 201.6 66.2" id="30,3" /><path d="M 201.8 68.9 L 201.8 67.7 L 201.8 67.7" id="29,2" /><path d="M 203.3 70.1 L 203.3 69.3 L 216.1 69.3" id="28,1" /><path d="M 203.3 70.1 L 203.3 70.8 L 203.6 70.8" id="28,0" /></g><g class="toytree-Nodes" style="fill:rgb(100%,0%,0%);fill-opacity:1.0;stroke:None;stroke-width:1"><g id="node-0" transform="translate(203.565,70.833)"><circle r="2.5" /></g><g id="node-1" transform="translate(216.131,69.290)"><circle r="2.5" /></g><g id="node-2" transform="translate(201.755,67.747)"><circle r="2.5" /></g><g id="node-3" transform="translate(201.581,66.204)"><circle r="2.5" /></g><g id="node-4" transform="translate(214.843,64.660)"><circle r="2.5" /></g><g id="node-5" transform="translate(199.536,63.117)"><circle r="2.5" /></g><g id="node-6" transform="translate(244.955,61.574)"><circle r="2.5" /></g><g id="node-7" transform="translate(250.263,60.031)"><circle r="2.5" /></g><g id="node-8" transform="translate(225.565,58.488)"><circle r="2.5" /></g><g id="node-9" transform="translate(207.142,56.944)"><circle r="2.5" /></g><g id="node-10" transform="translate(210.884,55.401)"><circle r="2.5" /></g><g id="node-11" transform="translate(212.729,53.858)"><circle r="2.5" /></g><g id="node-12" transform="translate(210.240,52.315)"><circle r="2.5" /></g><g id="node-13" transform="translate(207.490,50.772)"><circle r="2.5" /></g><g id="node-14" transform="translate(208.795,49.228)"><circle r="2.5" /></g><g id="node-15" transform="translate(209.387,47.685)"><circle r="2.5" /></g><g id="node-16" transform="translate(213.181,46.142)"><circle r="2.5" /></g><g id="node-17" transform="translate(217.891,44.599)"><circle r="2.5" /></g><g id="node-18" transform="translate(214.810,43.056)"><circle r="2.5" /></g><g id="node-19" transform="translate(206.395,41.512)"><circle r="2.5" /></g><g id="node-20" transform="translate(217.299,39.969)"><circle r="2.5" /></g><g id="node-21" transform="translate(217.317,38.426)"><circle r="2.5" /></g><g id="node-22" transform="translate(210.337,36.883)"><circle r="2.5" /></g><g id="node-23" transform="translate(211.503,35.340)"><circle r="2.5" /></g><g id="node-24" transform="translate(208.632,33.796)"><circle r="2.5" /></g><g id="node-25" transform="translate(207.126,32.253)"><circle r="2.5" /></g><g id="node-26" transform="translate(209.067,30.710)"><circle r="2.5" /></g><g id="node-27" transform="translate(205.490,29.167)"><circle r="2.5" /></g><g id="node-28" transform="translate(203.321,70.062)"><circle r="0.0" /></g><g id="node-29" transform="translate(201.755,68.904)"><circle r="0.0" /></g><g id="node-30" transform="translate(201.581,67.554)"><circle r="0.0" /></g><g id="node-31" transform="translate(199.770,66.107)"><circle r="0.0" /></g><g id="node-32" transform="translate(211.536,60.802)"><circle r="0.0" /></g><g id="node-33" transform="translate(199.536,64.612)"><circle r="0.0" /></g><g id="node-34" transform="translate(204.453,59.645)"><circle r="0.0" /></g><g id="node-35" transform="translate(207.142,56.173)"><circle r="0.0" /></g><g id="node-36" transform="translate(205.262,53.086)"><circle r="0.0" /></g><g id="node-37" transform="translate(201.252,43.827)"><circle r="0.0" /></g><g id="node-38" transform="translate(195.619,62.129)"><circle r="0.0" /></g><g id="node-39" transform="translate(203.286,54.630)"><circle r="0.0" /></g><g id="node-40" transform="translate(199.668,42.670)"><circle r="0.0" /></g><g id="node-41" transform="translate(203.645,39.198)"><circle r="0.0" /></g><g id="node-42" transform="translate(208.632,34.568)"><circle r="0.0" /></g><g id="node-43" transform="translate(193.017,58.379)"><circle r="0.0" /></g><g id="node-44" transform="translate(203.138,50.000)"><circle r="0.0" /></g><g id="node-45" transform="translate(197.414,40.934)"><circle r="0.0" /></g><g id="node-46" transform="translate(204.028,33.410)"><circle r="0.0" /></g><g id="node-47" transform="translate(192.512,54.190)"><circle r="0.0" /></g><g id="node-48" transform="translate(194.490,38.908)"><circle r="0.0" /></g><g id="node-49" transform="translate(200.442,32.060)"><circle r="0.0" /></g><g id="node-50" transform="translate(186.177,50.937)"><circle r="0.0" /></g><g id="node-51" transform="translate(193.002,35.484)"><circle r="0.0" /></g><g id="node-52" transform="translate(174.985,48.540)"><circle r="0.0" /></g><g id="node-53" transform="translate(190.130,32.325)"><circle r="0.0" /></g><g id="node-54" transform="translate(165.000,40.433)"><circle r="0.0" /></g></g></g></g></g><g class="toyplot-coordinates-Cartesian" id="t2b6c862104164d5787d912b4e8c3d662"><clipPath id="t28e2c27bf4644745b8cc993e47a04da7"><rect x="295.0" y="15.0" width="110.0" height="70.0" /></clipPath><g clip-path="url(#t28e2c27bf4644745b8cc993e47a04da7)"><g class="toytree-mark-Toytree" id="t1805cd3e2eb140b8981483895a468e01"><g class="toytree-Edges" style="fill:none;stroke:rgb(14.9%,14.9%,14.9%);stroke-linecap:round;stroke-opacity:1;stroke-width:0.5"><path d="M 305.0 41.1 L 305.0 33.7 L 335.6 33.7" id="54,53" /><path d="M 305.0 41.1 L 305.0 48.4 L 310.5 48.4" id="54,52" /><path d="M 335.6 33.7 L 335.6 30.5 L 359.4 30.5" id="53,51" /><path d="M 335.6 33.7 L 335.6 36.9 L 346.2 36.9" id="53,50" /><path d="M 310.5 48.4 L 310.5 50.7 L 324.7 50.7" id="52,49" /><path d="M 359.4 30.5 L 359.4 31.9 L 362.3 31.9" id="51,48" /><path d="M 346.2 36.9 L 346.2 38.4 L 355.9 38.4" id="50,47" /><path d="M 324.7 50.7 L 324.7 53.8 L 327.8 53.8" id="49,46" /><path d="M 362.3 31.9 L 362.3 33.0 L 370.7 33.0" id="48,45" /><path d="M 355.9 38.4 L 355.9 39.9 L 357.6 39.9" id="47,44" /><path d="M 327.8 53.8 L 327.8 58.4 L 337.1 58.4" id="46,43" /><path d="M 357.6 39.9 L 357.6 41.3 L 359.1 41.3" id="44,42" /><path d="M 337.1 58.4 L 337.1 53.1 L 339.6 53.1" id="43,41" /><path d="M 337.1 58.4 L 337.1 63.6 L 345.2 63.6" id="43,40" /><path d="M 359.1 41.3 L 359.1 42.7 L 360.3 42.7" id="42,39" /><path d="M 339.6 53.1 L 339.6 55.4 L 341.5 55.4" id="41,38" /><path d="M 345.2 63.6 L 345.2 65.7 L 357.7 65.7" id="40,37" /><path d="M 360.3 42.7 L 360.3 43.8 L 368.8 43.8" id="39,36" /><path d="M 341.5 55.4 L 341.5 53.1 L 358.3 53.1" id="38,35" /><path d="M 341.5 55.4 L 341.5 57.7 L 353.2 57.7" id="38,34" /><path d="M 357.7 65.7 L 357.7 63.9 L 358.7 63.9" id="37,33" /><path d="M 357.7 65.7 L 357.7 67.6 L 360.1 67.6" id="37,32" /><path d="M 353.2 57.7 L 353.2 56.2 L 354.0 56.2" id="34,31" /><path d="M 353.2 57.7 L 353.2 59.3 L 359.9 59.3" id="34,30" /><path d="M 360.1 67.6 L 360.1 68.9 L 366.7 68.9" id="32,29" /><path d="M 366.7 68.9 L 366.7 70.1 L 367.1 70.1" id="29,28" /><path d="M 359.4 30.5 L 359.4 29.2 L 373.9 29.2" id="51,27" /><path d="M 362.3 31.9 L 362.3 30.7 L 375.4 30.7" id="48,26" /><path d="M 370.7 33.0 L 370.7 32.3 L 378.1 32.3" id="45,25" /><path d="M 370.7 33.0 L 370.7 33.8 L 379.6 33.8" id="45,24" /><path d="M 346.2 36.9 L 346.2 35.3 L 368.3 35.3" id="50,23" /><path d="M 355.9 38.4 L 355.9 36.9 L 372.3 36.9" id="47,22" /><path d="M 357.6 39.9 L 357.6 38.4 L 371.4 38.4" id="44,21" /><path d="M 359.1 41.3 L 359.1 40.0 L 374.4 40.0" id="42,20" /><path d="M 360.3 42.7 L 360.3 41.5 L 373.0 41.5" id="39,19" /><path d="M 368.8 43.8 L 368.8 43.1 L 379.0 43.1" id="36,18" /><path d="M 368.8 43.8 L 368.8 44.6 L 376.3 44.6" id="36,17" /><path d="M 310.5 48.4 L 310.5 46.1 L 376.8 46.1" id="52,16" /><path d="M 324.7 50.7 L 324.7 47.7 L 390.3 47.7" id="49,15" /><path d="M 327.8 53.8 L 327.8 49.2 L 385.9 49.2" id="46,14" /><path d="M 339.6 53.1 L 339.6 50.8 L 377.6 50.8" id="41,13" /><path d="M 358.3 53.1 L 358.3 52.3 L 374.9 52.3" id="35,12" /><path d="M 358.3 53.1 L 358.3 53.9 L 372.9 53.9" id="35,11" /><path d="M 354.0 56.2 L 354.0 55.4 L 368.7 55.4" id="31,10" /><path d="M 354.0 56.2 L 354.0 56.9 L 372.6 56.9" id="31,9" /><path d="M 359.9 59.3 L 359.9 58.5 L 370.6 58.5" id="30,8" /><path d="M 359.9 59.3 L 359.9 60.0 L 367.6 60.0" id="30,7" /><path d="M 345.2 63.6 L 345.2 61.6 L 385.3 61.6" id="40,6" /><path d="M 358.7 63.9 L 358.7 63.1 L 383.7 63.1" id="33,5" /><path d="M 358.7 63.9 L 358.7 64.7 L 378.7 64.7" id="33,4" /><path d="M 360.1 67.6 L 360.1 66.2 L 368.6 66.2" id="32,3" /><path d="M 366.7 68.9 L 366.7 67.7 L 367.2 67.7" id="29,2" /><path d="M 367.1 70.1 L 367.1 69.3 L 369.3 69.3" id="28,1" /><path d="M 367.1 70.1 L 367.1 70.8 L 368.4 70.8" id="28,0" /></g><g class="toytree-Nodes" style="fill:rgb(100%,0%,0%);fill-opacity:1.0;stroke:None;stroke-width:1"><g id="node-0" transform="translate(368.407,70.833)"><circle r="2.5" /></g><g id="node-1" transform="translate(369.287,69.290)"><circle r="2.5" /></g><g id="node-2" transform="translate(367.230,67.747)"><circle r="2.5" /></g><g id="node-3" transform="translate(368.604,66.204)"><circle r="2.5" /></g><g id="node-4" transform="translate(378.693,64.660)"><circle r="2.5" /></g><g id="node-5" transform="translate(383.676,63.117)"><circle r="2.5" /></g><g id="node-6" transform="translate(385.346,61.574)"><circle r="2.5" /></g><g id="node-7" transform="translate(367.605,60.031)"><circle r="2.5" /></g><g id="node-8" transform="translate(370.554,58.488)"><circle r="2.5" /></g><g id="node-9" transform="translate(372.593,56.944)"><circle r="2.5" /></g><g id="node-10" transform="translate(368.717,55.401)"><circle r="2.5" /></g><g id="node-11" transform="translate(372.914,53.858)"><circle r="2.5" /></g><g id="node-12" transform="translate(374.876,52.315)"><circle r="2.5" /></g><g id="node-13" transform="translate(377.617,50.772)"><circle r="2.5" /></g><g id="node-14" transform="translate(385.905,49.228)"><circle r="2.5" /></g><g id="node-15" transform="translate(390.263,47.685)"><circle r="2.5" /></g><g id="node-16" transform="translate(376.785,46.142)"><circle r="2.5" /></g><g id="node-17" transform="translate(376.329,44.599)"><circle r="2.5" /></g><g id="node-18" transform="translate(379.041,43.056)"><circle r="2.5" /></g><g id="node-19" transform="translate(372.964,41.512)"><circle r="2.5" /></g><g id="node-20" transform="translate(374.385,39.969)"><circle r="2.5" /></g><g id="node-21" transform="translate(371.395,38.426)"><circle r="2.5" /></g><g id="node-22" transform="translate(372.257,36.883)"><circle r="2.5" /></g><g id="node-23" transform="translate(368.339,35.340)"><circle r="2.5" /></g><g id="node-24" transform="translate(379.600,33.796)"><circle r="2.5" /></g><g id="node-25" transform="translate(378.137,32.253)"><circle r="2.5" /></g><g id="node-26" transform="translate(375.420,30.710)"><circle r="2.5" /></g><g id="node-27" transform="translate(373.922,29.167)"><circle r="2.5" /></g><g id="node-28" transform="translate(367.064,70.062)"><circle r="0.0" /></g><g id="node-29" transform="translate(366.671,68.904)"><circle r="0.0" /></g><g id="node-30" transform="translate(359.864,59.259)"><circle r="0.0" /></g><g id="node-31" transform="translate(354.037,56.173)"><circle r="0.0" /></g><g id="node-32" transform="translate(360.078,67.554)"><circle r="0.0" /></g><g id="node-33" transform="translate(358.651,63.889)"><circle r="0.0" /></g><g id="node-34" transform="translate(353.175,57.716)"><circle r="0.0" /></g><g id="node-35" transform="translate(358.318,53.086)"><circle r="0.0" /></g><g id="node-36" transform="translate(368.797,43.827)"><circle r="0.0" /></g><g id="node-37" transform="translate(357.664,65.721)"><circle r="0.0" /></g><g id="node-38" transform="translate(341.498,55.401)"><circle r="0.0" /></g><g id="node-39" transform="translate(360.312,42.670)"><circle r="0.0" /></g><g id="node-40" transform="translate(345.220,63.648)"><circle r="0.0" /></g><g id="node-41" transform="translate(339.572,53.086)"><circle r="0.0" /></g><g id="node-42" transform="translate(359.135,41.319)"><circle r="0.0" /></g><g id="node-43" transform="translate(337.116,58.367)"><circle r="0.0" /></g><g id="node-44" transform="translate(357.554,39.873)"><circle r="0.0" /></g><g id="node-45" transform="translate(370.723,33.025)"><circle r="0.0" /></g><g id="node-46" transform="translate(327.806,53.798)"><circle r="0.0" /></g><g id="node-47" transform="translate(355.948,38.378)"><circle r="0.0" /></g><g id="node-48" transform="translate(362.310,31.867)"><circle r="0.0" /></g><g id="node-49" transform="translate(324.690,50.741)"><circle r="0.0" /></g><g id="node-50" transform="translate(346.168,36.859)"><circle r="0.0" /></g><g id="node-51" transform="translate(359.397,30.517)"><circle r="0.0" /></g><g id="node-52" transform="translate(310.480,48.442)"><circle r="0.0" /></g><g id="node-53" transform="translate(335.615,33.688)"><circle r="0.0" /></g><g id="node-54" transform="translate(305.000,41.065)"><circle r="0.0" /></g></g></g></g></g><g class="toyplot-coordinates-Cartesian" id="tabaeb8a2be00469d94e7a903c72ca310"><clipPath id="t36f9d9faaaf54378acb5cb66c2a35e67"><rect x="435.0" y="15.0" width="110.0" height="70.0" /></clipPath><g clip-path="url(#t36f9d9faaaf54378acb5cb66c2a35e67)"><g class="toytree-mark-Toytree" id="t507714ef803a4de7a81611ce40fab19a"><g class="toytree-Edges" style="fill:none;stroke:rgb(14.9%,14.9%,14.9%);stroke-linecap:round;stroke-opacity:1;stroke-width:0.5"><path d="M 445.0 41.4 L 445.0 33.7 L 472.9 33.7" id="54,53" /><path d="M 445.0 41.4 L 445.0 49.2 L 452.6 49.2" id="54,52" /><path d="M 472.9 33.7 L 472.9 30.5 L 491.8 30.5" id="53,51" /><path d="M 472.9 33.7 L 472.9 36.9 L 484.7 36.9" id="53,50" /><path d="M 452.6 49.2 L 452.6 52.2 L 464.0 52.2" id="52,49" /><path d="M 491.8 30.5 L 491.8 31.9 L 495.0 31.9" id="51,48" /><path d="M 484.7 36.9 L 484.7 38.4 L 493.6 38.4" id="50,47" /><path d="M 464.0 52.2 L 464.0 48.5 L 468.9 48.5" id="49,46" /><path d="M 464.0 52.2 L 464.0 55.9 L 472.8 55.9" id="49,45" /><path d="M 495.0 31.9 L 495.0 33.0 L 504.4 33.0" id="48,44" /><path d="M 493.6 38.4 L 493.6 39.9 L 496.4 39.9" id="47,43" /><path d="M 472.8 55.9 L 472.8 52.1 L 483.9 52.1" id="45,42" /><path d="M 472.8 55.9 L 472.8 59.7 L 479.2 59.7" id="45,41" /><path d="M 496.4 39.9 L 496.4 41.3 L 499.5 41.3" id="43,40" /><path d="M 483.9 52.1 L 483.9 53.5 L 486.6 53.5" id="42,39" /><path d="M 479.2 59.7 L 479.2 57.7 L 490.7 57.7" id="41,38" /><path d="M 479.2 59.7 L 479.2 61.7 L 482.4 61.7" id="41,37" /><path d="M 499.5 41.3 L 499.5 42.7 L 501.5 42.7" id="40,36" /><path d="M 486.6 53.5 L 486.6 54.6 L 491.6 54.6" id="39,35" /><path d="M 482.4 61.7 L 482.4 63.4 L 490.6 63.4" id="37,34" /><path d="M 501.5 42.7 L 501.5 43.8 L 507.3 43.8" id="36,33" /><path d="M 490.6 63.4 L 490.6 65.1 L 496.8 65.1" id="34,32" /><path d="M 496.8 65.1 L 496.8 67.2 L 499.9 67.2" id="32,31" /><path d="M 499.9 67.2 L 499.9 65.4 L 503.7 65.4" id="31,30" /><path d="M 499.9 67.2 L 499.9 68.9 L 507.9 68.9" id="31,29" /><path d="M 507.9 68.9 L 507.9 70.1 L 509.8 70.1" id="29,28" /><path d="M 491.8 30.5 L 491.8 29.2 L 510.4 29.2" id="51,27" /><path d="M 495.0 31.9 L 495.0 30.7 L 510.9 30.7" id="48,26" /><path d="M 504.4 33.0 L 504.4 32.3 L 515.2 32.3" id="44,25" /><path d="M 504.4 33.0 L 504.4 33.8 L 516.7 33.8" id="44,24" /><path d="M 484.7 36.9 L 484.7 35.3 L 502.8 35.3" id="50,23" /><path d="M 493.6 38.4 L 493.6 36.9 L 503.0 36.9" id="47,22" /><path d="M 496.4 39.9 L 496.4 38.4 L 510.0 38.4" id="43,21" /><path d="M 499.5 41.3 L 499.5 40.0 L 506.1 40.0" id="40,20" /><path d="M 501.5 42.7 L 501.5 41.5 L 509.2 41.5" id="36,19" /><path d="M 507.3 43.8 L 507.3 43.1 L 509.8 43.1" id="33,18" /><path d="M 507.3 43.8 L 507.3 44.6 L 508.9 44.6" id="33,17" /><path d="M 452.6 49.2 L 452.6 46.1 L 508.0 46.1" id="52,16" /><path d="M 468.9 48.5 L 468.9 47.7 L 511.2 47.7" id="46,15" /><path d="M 468.9 48.5 L 468.9 49.2 L 512.1 49.2" id="46,14" /><path d="M 483.9 52.1 L 483.9 50.8 L 496.0 50.8" id="42,13" /><path d="M 486.6 53.5 L 486.6 52.3 L 495.5 52.3" id="39,12" /><path d="M 491.6 54.6 L 491.6 53.9 L 501.4 53.9" id="35,11" /><path d="M 491.6 54.6 L 491.6 55.4 L 503.6 55.4" id="35,10" /><path d="M 490.7 57.7 L 490.7 56.9 L 511.8 56.9" id="38,9" /><path d="M 490.7 57.7 L 490.7 58.5 L 505.2 58.5" id="38,8" /><path d="M 482.4 61.7 L 482.4 60.0 L 513.3 60.0" id="37,7" /><path d="M 490.6 63.4 L 490.6 61.6 L 510.0 61.6" id="34,6" /><path d="M 496.8 65.1 L 496.8 63.1 L 530.3 63.1" id="32,5" /><path d="M 503.7 65.4 L 503.7 64.7 L 512.5 64.7" id="30,4" /><path d="M 503.7 65.4 L 503.7 66.2 L 522.2 66.2" id="30,3" /><path d="M 507.9 68.9 L 507.9 67.7 L 513.4 67.7" id="29,2" /><path d="M 509.8 70.1 L 509.8 69.3 L 511.9 69.3" id="28,1" /><path d="M 509.8 70.1 L 509.8 70.8 L 514.4 70.8" id="28,0" /></g><g class="toytree-Nodes" style="fill:rgb(100%,0%,0%);fill-opacity:1.0;stroke:None;stroke-width:1"><g id="node-0" transform="translate(514.404,70.833)"><circle r="2.5" /></g><g id="node-1" transform="translate(511.888,69.290)"><circle r="2.5" /></g><g id="node-2" transform="translate(513.397,67.747)"><circle r="2.5" /></g><g id="node-3" transform="translate(522.168,66.204)"><circle r="2.5" /></g><g id="node-4" transform="translate(512.450,64.660)"><circle r="2.5" /></g><g id="node-5" transform="translate(530.263,63.117)"><circle r="2.5" /></g><g id="node-6" transform="translate(510.008,61.574)"><circle r="2.5" /></g><g id="node-7" transform="translate(513.280,60.031)"><circle r="2.5" /></g><g id="node-8" transform="translate(505.193,58.488)"><circle r="2.5" /></g><g id="node-9" transform="translate(511.763,56.944)"><circle r="2.5" /></g><g id="node-10" transform="translate(503.560,55.401)"><circle r="2.5" /></g><g id="node-11" transform="translate(501.408,53.858)"><circle r="2.5" /></g><g id="node-12" transform="translate(495.521,52.315)"><circle r="2.5" /></g><g id="node-13" transform="translate(496.043,50.772)"><circle r="2.5" /></g><g id="node-14" transform="translate(512.070,49.228)"><circle r="2.5" /></g><g id="node-15" transform="translate(511.214,47.685)"><circle r="2.5" /></g><g id="node-16" transform="translate(508.047,46.142)"><circle r="2.5" /></g><g id="node-17" transform="translate(508.923,44.599)"><circle r="2.5" /></g><g id="node-18" transform="translate(509.805,43.056)"><circle r="2.5" /></g><g id="node-19" transform="translate(509.241,41.512)"><circle r="2.5" /></g><g id="node-20" transform="translate(506.052,39.969)"><circle r="2.5" /></g><g id="node-21" transform="translate(510.027,38.426)"><circle r="2.5" /></g><g id="node-22" transform="translate(503.017,36.883)"><circle r="2.5" /></g><g id="node-23" transform="translate(502.839,35.340)"><circle r="2.5" /></g><g id="node-24" transform="translate(516.739,33.796)"><circle r="2.5" /></g><g id="node-25" transform="translate(515.228,32.253)"><circle r="2.5" /></g><g id="node-26" transform="translate(510.880,30.710)"><circle r="2.5" /></g><g id="node-27" transform="translate(510.399,29.167)"><circle r="2.5" /></g><g id="node-28" transform="translate(509.778,70.062)"><circle r="0.0" /></g><g id="node-29" transform="translate(507.924,68.904)"><circle r="0.0" /></g><g id="node-30" transform="translate(503.653,65.432)"><circle r="0.0" /></g><g id="node-31" transform="translate(499.934,67.168)"><circle r="0.0" /></g><g id="node-32" transform="translate(496.833,65.143)"><circle r="0.0" /></g><g id="node-33" transform="translate(507.260,43.827)"><circle r="0.0" /></g><g id="node-34" transform="translate(490.593,63.358)"><circle r="0.0" /></g><g id="node-35" transform="translate(491.626,54.630)"><circle r="0.0" /></g><g id="node-36" transform="translate(501.504,42.670)"><circle r="0.0" /></g><g id="node-37" transform="translate(482.353,61.695)"><circle r="0.0" /></g><g id="node-38" transform="translate(490.732,57.716)"><circle r="0.0" /></g><g id="node-39" transform="translate(486.594,53.472)"><circle r="0.0" /></g><g id="node-40" transform="translate(499.485,41.319)"><circle r="0.0" /></g><g id="node-41" transform="translate(479.151,59.705)"><circle r="0.0" /></g><g id="node-42" transform="translate(483.902,52.122)"><circle r="0.0" /></g><g id="node-43" transform="translate(496.421,39.873)"><circle r="0.0" /></g><g id="node-44" transform="translate(504.443,33.025)"><circle r="0.0" /></g><g id="node-45" transform="translate(472.825,55.914)"><circle r="0.0" /></g><g id="node-46" transform="translate(468.877,48.457)"><circle r="0.0" /></g><g id="node-47" transform="translate(493.563,38.378)"><circle r="0.0" /></g><g id="node-48" transform="translate(495.011,31.867)"><circle r="0.0" /></g><g id="node-49" transform="translate(464.031,52.185)"><circle r="0.0" /></g><g id="node-50" transform="translate(484.731,36.859)"><circle r="0.0" /></g><g id="node-51" transform="translate(491.764,30.517)"><circle r="0.0" /></g><g id="node-52" transform="translate(452.589,49.164)"><circle r="0.0" /></g><g id="node-53" transform="translate(472.858,33.688)"><circle r="0.0" /></g><g id="node-54" transform="translate(445.000,41.426)"><circle r="0.0" /></g></g></g></g></g></svg>