<svg class="toyplot-canvas-Canvas" xmlns:toyplot="http://www.sandia.gov/toyplot" xmlns:xlink="http://www.w3.org/1999/xlink" xmlns="http://www.w3.org/2000/svg" width="560.0px" height="100.0px" viewBox="0 0 560.0 100.0" preserveAspectRatio="xMidYMid meet" style="background-color:transparent;border-color:#292724;border-style:none;border-width:1.0;fill:rgb(16.1%,15.3%,14.1%);fill-opacity:1.0;font-family:Helvetica;font-size:12px;opacity:1.0;stroke:rgb(16.1%,15.3%,14.1%);stroke-opacity:1.0;stroke-width:1.0" id="ted1d4ad610f14615a09e1bce1579a5b9"><g class="toyplot-coordinates-Cartesian" id="t21c62542a93b40908371fe9ba66ab9b2"><clipPath id="te9800aa1b6a142e896b057a3c430b0c1"><rect x="15.0" y="15.0" width="110.0" height="70.0" /></clipPath><g clip-path="url(#te9800aa1b6a142e896b057a3c430b0c1)"><g class="toytree-mark-Toytree" id="t0f4b2974c9ab42aeaba40e5f3632d924"><g class="toytree-Edges" style="fill:none;stroke:rgb(14.9%,14.9%,14.9%);stroke-linecap:round;stroke-opacity:1;stroke-width:0.5"><path d="M 25.0 31.5 L 25.0 33.9 L 31.6 33.9" id="54,53" /><path d="M 31.6 33.9 L 31.6 37.1 L 36.7 37.1" id="53,52" /><path d="M 36.7 37.1 L 36.7 33.4 L 37.4 33.4" id="52,51" /><path d="M 36.7 37.1 L 36.7 40.7 L 38.7 40.7" id="52,50" /><path d="M 37.4 33.4 L 37.4 34.6 L 44.3 34.6" id="51,49" /><path d="M 38.7 40.7 L 38.7 44.5 L 39.0 44.5" id="50,48" /><path d="M 39.0 44.5 L 39.0 50.6 L 57.3 50.6" id="48,47" /><path d="M 57.3 50.6 L 57.3 43.9 L 59.4 43.9" id="47,46" /><path d="M 57.3 50.6 L 57.3 57.2 L 62.6 57.2" id="47,45" /><path d="M 59.4 43.9 L 59.4 41.1 L 65.6 41.1" id="46,44" /><path d="M 59.4 43.9 L 59.4 46.7 L 70.9 46.7" id="46,43" /><path d="M 62.6 57.2 L 62.6 59.1 L 68.1 59.1" id="45,42" /><path d="M 65.6 41.1 L 65.6 42.3 L 67.3 42.3" id="44,41" /><path d="M 70.9 46.7 L 70.9 48.7 L 93.1 48.7" id="43,40" /><path d="M 68.1 59.1 L 68.1 61.2 L 74.7 61.2" id="42,39" /><path d="M 93.1 48.7 L 93.1 46.9 L 97.7 46.9" id="40,38" /><path d="M 93.1 48.7 L 93.1 50.6 L 95.0 50.6" id="40,37" /><path d="M 74.7 61.2 L 74.7 59.3 L 77.9 59.3" id="39,36" /><path d="M 74.7 61.2 L 74.7 63.2 L 78.5 63.2" id="39,35" /><path d="M 95.0 50.6 L 95.0 51.9 L 99.0 51.9" id="37,34" /><path d="M 78.5 63.2 L 78.5 64.9 L 84.8 64.9" id="35,33" /><path d="M 99.0 51.9 L 99.0 53.1 L 99.3 53.1" id="34,32" /><path d="M 84.8 64.9 L 84.8 66.6 L 85.3 66.6" id="33,31" /><path d="M 85.3 66.6 L 85.3 68.5 L 86.0 68.5" id="31,30" /><path d="M 86.0 68.5 L 86.0 67.0 L 86.6 67.0" id="30,29" /><path d="M 86.0 68.5 L 86.0 70.1 L 96.7 70.1" id="30,28" /><path d="M 25.0 31.5 L 25.0 29.2 L 94.6 29.2" id="54,27" /><path d="M 31.6 33.9 L 31.6 30.7 L 88.1 30.7" id="53,26" /><path d="M 37.4 33.4 L 37.4 32.3 L 101.5 32.3" id="51,25" /><path d="M 44.3 34.6 L 44.3 33.8 L 97.9 33.8" id="49,24" /><path d="M 44.3 34.6 L 44.3 35.3 L 90.0 35.3" id="49,23" /><path d="M 38.7 40.7 L 38.7 36.9 L 84.4 36.9" id="50,22" /><path d="M 39.0 44.5 L 39.0 38.4 L 92.6 38.4" id="48,21" /><path d="M 65.6 41.1 L 65.6 40.0 L 84.3 40.0" id="44,20" /><path d="M 67.3 42.3 L 67.3 41.5 L 98.7 41.5" id="41,19" /><path d="M 67.3 42.3 L 67.3 43.1 L 94.9 43.1" id="41,18" /><path d="M 70.9 46.7 L 70.9 44.6 L 99.9 44.6" id="43,17" /><path d="M 97.7 46.9 L 97.7 46.1 L 98.8 46.1" id="38,16" /><path d="M 97.7 46.9 L 97.7 47.7 L 99.6 47.7" id="38,15" /><path d="M 95.0 50.6 L 95.0 49.2 L 99.6 49.2" id="37,14" /><path d="M 99.0 51.9 L 99.0 50.8 L 99.7 50.8" id="34,13" /><path d="M 99.3 53.1 L 99.3 52.3 L 99.3 52.3" id="32,12" /><path d="M 99.3 53.1 L 99.3 53.9 L 99.3 53.9" id="32,11" /><path d="M 62.6 57.2 L 62.6 55.4 L 100.9 55.4" id="45,10" /><path d="M 68.1 59.1 L 68.1 56.9 L 110.3 56.9" id="42,9" /><path d="M 77.9 59.3 L 77.9 58.5 L 107.5 58.5" id="36,8" /><path d="M 77.9 59.3 L 77.9 60.0 L 90.5 60.0" id="36,7" /><path d="M 78.5 63.2 L 78.5 61.6 L 88.2 61.6" id="35,6" /><path d="M 84.8 64.9 L 84.8 63.1 L 88.7 63.1" id="33,5" /><path d="M 85.3 66.6 L 85.3 64.7 L 87.4 64.7" id="31,4" /><path d="M 86.6 67.0 L 86.6 66.2 L 86.6 66.2" id="29,3" /><path d="M 86.6 67.0 L 86.6 67.7 L 86.6 67.7" id="29,2" /><path d="M 96.7 70.1 L 96.7 69.3 L 96.7 69.3" id="28,1" /><path d="M 96.7 70.1 L 96.7 70.8 L 96.7 70.8" id="28,0" /></g><g class="toytree-Nodes" style="fill:rgb(100%,0%,0%);fill-opacity:1.0;stroke:None;stroke-width:1"><g id="node-0" transform="translate(96.727,70.833)"><circle r="2.5" /></g><g id="node-1" transform="translate(96.727,69.290)"><circle r="2.5" /></g><g id="node-2" transform="translate(86.621,67.747)"><circle r="2.5" /></g><g id="node-3" transform="translate(86.621,66.204)"><circle r="2.5" /></g><g id="node-4" transform="translate(87.398,64.660)"><circle r="2.5" /></g><g id="node-5" transform="translate(88.653,63.117)"><circle r="2.5" /></g><g id="node-6" transform="translate(88.246,61.574)"><circle r="2.5" /></g><g id="node-7" transform="translate(90.453,60.031)"><circle r="2.5" /></g><g id="node-8" transform="translate(107.506,58.488)"><circle r="2.5" /></g><g id="node-9" transform="translate(110.263,56.944)"><circle r="2.5" /></g><g id="node-10" transform="translate(100.857,55.401)"><circle r="2.5" /></g><g id="node-11" transform="translate(99.282,53.858)"><circle r="2.5" /></g><g id="node-12" transform="translate(99.282,52.315)"><circle r="2.5" /></g><g id="node-13" transform="translate(99.697,50.772)"><circle r="2.5" /></g><g id="node-14" transform="translate(99.578,49.228)"><circle r="2.5" /></g><g id="node-15" transform="translate(99.601,47.685)"><circle r="2.5" /></g><g id="node-16" transform="translate(98.819,46.142)"><circle r="2.5" /></g><g id="node-17" transform="translate(99.945,44.599)"><circle r="2.5" /></g><g id="node-18" transform="translate(94.931,43.056)"><circle r="2.5" /></g><g id="node-19" transform="translate(98.724,41.512)"><circle r="2.5" /></g><g id="node-20" transform="translate(84.251,39.969)"><circle r="2.5" /></g><g id="node-21" transform="translate(92.591,38.426)"><circle r="2.5" /></g><g id="node-22" transform="translate(84.372,36.883)"><circle r="2.5" /></g><g id="node-23" transform="translate(90.004,35.340)"><circle r="2.5" /></g><g id="node-24" transform="translate(97.855,33.796)"><circle r="2.5" /></g><g id="node-25" transform="translate(101.474,32.253)"><circle r="2.5" /></g><g id="node-26" transform="translate(88.100,30.710)"><circle r="2.5" /></g><g id="node-27" transform="translate(94.566,29.167)"><circle r="2.5" /></g><g id="node-28" transform="translate(96.727,70.062)"><circle r="0.0" /></g><g id="node-29" transform="translate(86.621,66.975)"><circle r="0.0" /></g><g id="node-30" transform="translate(85.956,68.519)"><circle r="0.0" /></g><g id="node-31" transform="translate(85.313,66.590)"><circle r="0.0" /></g><g id="node-32" transform="translate(99.282,53.086)"><circle r="0.0" /></g><g id="node-33" transform="translate(84.828,64.853)"><circle r="0.0" /></g><g id="node-34" transform="translate(99.050,51.929)"><circle r="0.0" /></g><g id="node-35" transform="translate(78.483,63.214)"><circle r="0.0" /></g><g id="node-36" transform="translate(77.865,59.259)"><circle r="0.0" /></g><g id="node-37" transform="translate(95.003,50.579)"><circle r="0.0" /></g><g id="node-38" transform="translate(97.714,46.914)"><circle r="0.0" /></g><g id="node-39" transform="translate(74.691,61.236)"><circle r="0.0" /></g><g id="node-40" transform="translate(93.126,48.746)"><circle r="0.0" /></g><g id="node-41" transform="translate(67.268,42.284)"><circle r="0.0" /></g><g id="node-42" transform="translate(68.053,59.090)"><circle r="0.0" /></g><g id="node-43" transform="translate(70.935,46.672)"><circle r="0.0" /></g><g id="node-44" transform="translate(65.554,41.127)"><circle r="0.0" /></g><g id="node-45" transform="translate(62.619,57.246)"><circle r="0.0" /></g><g id="node-46" transform="translate(59.377,43.899)"><circle r="0.0" /></g><g id="node-47" transform="translate(57.277,50.573)"><circle r="0.0" /></g><g id="node-48" transform="translate(38.968,44.499)"><circle r="0.0" /></g><g id="node-49" transform="translate(44.312,34.568)"><circle r="0.0" /></g><g id="node-50" transform="translate(38.706,40.691)"><circle r="0.0" /></g><g id="node-51" transform="translate(37.351,33.410)"><circle r="0.0" /></g><g id="node-52" transform="translate(36.684,37.051)"><circle r="0.0" /></g><g id="node-53" transform="translate(31.555,33.880)"><circle r="0.0" /></g><g id="node-54" transform="translate(25.000,31.523)"><circle r="0.0" /></g></g></g></g></g><g class="toyplot-coordinates-Cartesian" id="t65c070be92554769abf0bc4ce57858f5"><clipPath id="t5fb15d3c997f40ff9504aa71f3b12727"><rect x="155.0" y="15.0" width="110.0" height="70.0" /></clipPath><g clip-path="url(#t5fb15d3c997f40ff9504aa71f3b12727)"><g class="toytree-mark-Toytree" id="t79cc2b681b624bf184e12604e5d95eee"><g class="toytree-Edges" style="fill:none;stroke:rgb(14.9%,14.9%,14.9%);stroke-linecap:round;stroke-opacity:1;stroke-width:0.5"><path d="M 165.0 31.6 L 165.0 34.0 L 185.4 34.0" id="54,53" /><path d="M 185.4 34.0 L 185.4 31.5 L 193.9 31.5" id="53,52" /><path d="M 185.4 34.0 L 185.4 36.5 L 194.6 36.5" id="53,51" /><path d="M 194.6 36.5 L 194.6 34.6 L 209.1 34.6" id="51,50" /><path d="M 194.6 36.5 L 194.6 38.5 L 196.6 38.5" id="51,49" /><path d="M 196.6 38.5 L 196.6 40.1 L 198.6 40.1" id="49,48" /><path d="M 198.6 40.1 L 198.6 41.8 L 202.4 41.8" id="48,47" /><path d="M 202.4 41.8 L 202.4 43.6 L 204.4 43.6" id="47,46" /><path d="M 204.4 43.6 L 204.4 45.8 L 208.8 45.8" id="46,45" /><path d="M 208.8 45.8 L 208.8 48.5 L 210.3 48.5" id="45,44" /><path d="M 210.3 48.5 L 210.3 52.4 L 211.5 52.4" id="44,43" /><path d="M 211.5 52.4 L 211.5 48.6 L 212.9 48.6" id="43,42" /><path d="M 211.5 52.4 L 211.5 56.1 L 213.9 56.1" id="43,41" /><path d="M 212.9 48.6 L 212.9 46.9 L 214.4 46.9" id="42,40" /><path d="M 212.9 48.6 L 212.9 50.4 L 213.1 50.4" id="42,39" /><path d="M 213.9 56.1 L 213.9 58.4 L 214.9 58.4" id="41,38" /><path d="M 213.1 50.4 L 213.1 51.5 L 213.2 51.5" id="39,37" /><path d="M 214.9 58.4 L 214.9 56.2 L 216.8 56.2" id="38,36" /><path d="M 214.9 58.4 L 214.9 60.6 L 217.6 60.6" id="38,35" /><path d="M 217.6 60.6 L 217.6 62.7 L 218.8 62.7" id="35,34" /><path d="M 218.8 62.7 L 218.8 60.8 L 221.8 60.8" id="34,33" /><path d="M 218.8 62.7 L 218.8 64.6 L 222.1 64.6" id="34,32" /><path d="M 222.1 64.6 L 222.1 66.1 L 224.6 66.1" id="32,31" /><path d="M 224.6 66.1 L 224.6 67.6 L 230.3 67.6" id="31,30" /><path d="M 230.3 67.6 L 230.3 68.9 L 231.9 68.9" id="30,29" /><path d="M 231.9 68.9 L 231.9 70.1 L 234.8 70.1" id="29,28" /><path d="M 165.0 31.6 L 165.0 29.2 L 218.0 29.2" id="54,27" /><path d="M 193.9 31.5 L 193.9 30.7 L 201.8 30.7" id="52,26" /><path d="M 193.9 31.5 L 193.9 32.3 L 211.2 32.3" id="52,25" /><path d="M 209.1 34.6 L 209.1 33.8 L 210.6 33.8" id="50,24" /><path d="M 209.1 34.6 L 209.1 35.3 L 209.7 35.3" id="50,23" /><path d="M 196.6 38.5 L 196.6 36.9 L 207.9 36.9" id="49,22" /><path d="M 198.6 40.1 L 198.6 38.4 L 211.3 38.4" id="48,21" /><path d="M 202.4 41.8 L 202.4 40.0 L 209.4 40.0" id="47,20" /><path d="M 204.4 43.6 L 204.4 41.5 L 221.7 41.5" id="46,19" /><path d="M 208.8 45.8 L 208.8 43.1 L 212.6 43.1" id="45,18" /><path d="M 210.3 48.5 L 210.3 44.6 L 213.2 44.6" id="44,17" /><path d="M 214.4 46.9 L 214.4 46.1 L 214.4 46.1" id="40,16" /><path d="M 214.4 46.9 L 214.4 47.7 L 215.9 47.7" id="40,15" /><path d="M 213.1 50.4 L 213.1 49.2 L 213.5 49.2" id="39,14" /><path d="M 213.2 51.5 L 213.2 50.8 L 215.0 50.8" id="37,13" /><path d="M 213.2 51.5 L 213.2 52.3 L 213.4 52.3" id="37,12" /><path d="M 213.9 56.1 L 213.9 53.9 L 214.4 53.9" id="41,11" /><path d="M 216.8 56.2 L 216.8 55.4 L 220.6 55.4" id="36,10" /><path d="M 216.8 56.2 L 216.8 56.9 L 228.7 56.9" id="36,9" /><path d="M 217.6 60.6 L 217.6 58.5 L 228.0 58.5" id="35,8" /><path d="M 221.8 60.8 L 221.8 60.0 L 221.8 60.0" id="33,7" /><path d="M 221.8 60.8 L 221.8 61.6 L 222.2 61.6" id="33,6" /><path d="M 222.1 64.6 L 222.1 63.1 L 237.3 63.1" id="32,5" /><path d="M 224.6 66.1 L 224.6 64.7 L 250.3 64.7" id="31,4" /><path d="M 230.3 67.6 L 230.3 66.2 L 230.3 66.2" id="30,3" /><path d="M 231.9 68.9 L 231.9 67.7 L 233.5 67.7" id="29,2" /><path d="M 234.8 70.1 L 234.8 69.3 L 236.7 69.3" id="28,1" /><path d="M 234.8 70.1 L 234.8 70.8 L 238.2 70.8" id="28,0" /></g><g class="toytree-Nodes" style="fill:rgb(100%,0%,0%);fill-opacity:1.0;stroke:None;stroke-width:1"><g id="node-0" transform="translate(238.197,70.833)"><circle r="2.5" /></g><g id="node-1" transform="translate(236.701,69.290)"><circle r="2.5" /></g><g id="node-2" transform="translate(233.462,67.747)"><circle r="2.5" /></g><g id="node-3" transform="translate(230.282,66.204)"><circle r="2.5" /></g><g id="node-4" transform="translate(250.263,64.660)"><circle r="2.5" /></g><g id="node-5" transform="translate(237.336,63.117)"><circle r="2.5" /></g><g id="node-6" transform="translate(222.219,61.574)"><circle r="2.5" /></g><g id="node-7" transform="translate(221.844,60.031)"><circle r="2.5" /></g><g id="node-8" transform="translate(227.971,58.488)"><circle r="2.5" /></g><g id="node-9" transform="translate(228.745,56.944)"><circle r="2.5" /></g><g id="node-10" transform="translate(220.637,55.401)"><circle r="2.5" /></g><g id="node-11" transform="translate(214.368,53.858)"><circle r="2.5" /></g><g id="node-12" transform="translate(213.408,52.315)"><circle r="2.5" /></g><g id="node-13" transform="translate(215.033,50.772)"><circle r="2.5" /></g><g id="node-14" transform="translate(213.491,49.228)"><circle r="2.5" /></g><g id="node-15" transform="translate(215.856,47.685)"><circle r="2.5" /></g><g id="node-16" transform="translate(214.355,46.142)"><circle r="2.5" /></g><g id="node-17" transform="translate(213.178,44.599)"><circle r="2.5" /></g><g id="node-18" transform="translate(212.620,43.056)"><circle r="2.5" /></g><g id="node-19" transform="translate(221.739,41.512)"><circle r="2.5" /></g><g id="node-20" transform="translate(209.410,39.969)"><circle r="2.5" /></g><g id="node-21" transform="translate(211.349,38.426)"><circle r="2.5" /></g><g id="node-22" transform="translate(207.869,36.883)"><circle r="2.5" /></g><g id="node-23" transform="translate(209.743,35.340)"><circle r="2.5" /></g><g id="node-24" transform="translate(210.590,33.796)"><circle r="2.5" /></g><g id="node-25" transform="translate(211.215,32.253)"><circle r="2.5" /></g><g id="node-26" transform="translate(201.809,30.710)"><circle r="2.5" /></g><g id="node-27" transform="translate(217.991,29.167)"><circle r="2.5" /></g><g id="node-28" transform="translate(234.821,70.062)"><circle r="0.0" /></g><g id="node-29" transform="translate(231.896,68.904)"><circle r="0.0" /></g><g id="node-30" transform="translate(230.282,67.554)"><circle r="0.0" /></g><g id="node-31" transform="translate(224.563,66.107)"><circle r="0.0" /></g><g id="node-32" transform="translate(222.080,64.612)"><circle r="0.0" /></g><g id="node-33" transform="translate(221.844,60.802)"><circle r="0.0" /></g><g id="node-34" transform="translate(218.758,62.707)"><circle r="0.0" /></g><g id="node-35" transform="translate(217.621,60.598)"><circle r="0.0" /></g><g id="node-36" transform="translate(216.781,56.173)"><circle r="0.0" /></g><g id="node-37" transform="translate(213.202,51.543)"><circle r="0.0" /></g><g id="node-38" transform="translate(214.918,58.385)"><circle r="0.0" /></g><g id="node-39" transform="translate(213.052,50.386)"><circle r="0.0" /></g><g id="node-40" transform="translate(214.355,46.914)"><circle r="0.0" /></g><g id="node-41" transform="translate(213.859,56.122)"><circle r="0.0" /></g><g id="node-42" transform="translate(212.904,48.650)"><circle r="0.0" /></g><g id="node-43" transform="translate(211.478,52.386)"><circle r="0.0" /></g><g id="node-44" transform="translate(210.314,48.492)"><circle r="0.0" /></g><g id="node-45" transform="translate(208.812,45.774)"><circle r="0.0" /></g><g id="node-46" transform="translate(204.361,43.643)"><circle r="0.0" /></g><g id="node-47" transform="translate(202.426,41.806)"><circle r="0.0" /></g><g id="node-48" transform="translate(198.559,40.116)"><circle r="0.0" /></g><g id="node-49" transform="translate(196.639,38.499)"><circle r="0.0" /></g><g id="node-50" transform="translate(209.107,34.568)"><circle r="0.0" /></g><g id="node-51" transform="translate(194.615,36.534)"><circle r="0.0" /></g><g id="node-52" transform="translate(193.950,31.481)"><circle r="0.0" /></g><g id="node-53" transform="translate(185.386,34.008)"><circle r="0.0" /></g><g id="node-54" transform="translate(165.000,31.587)"><circle r="0.0" /></g></g></g></g></g><g class="toyplot-coordinates-Cartesian" id="tb5447b2cf1f0443d89e69a9e82dc23c1"><clipPath id="t88b1a3d28df942b19bf54866da250afa"><rect x="295.0" y="15.0" width="110.0" height="70.0" /></clipPath><g clip-path="url(#t88b1a3d28df942b19bf54866da250afa)"><g class="toytree-mark-Toytree" id="ta2ad8b20fdab43b6b51d3eedb4291d75"><g class="toytree-Edges" style="fill:none;stroke:rgb(14.9%,14.9%,14.9%);stroke-linecap:round;stroke-opacity:1;stroke-width:0.5"><path d="M 305.0 31.5 L 305.0 33.8 L 330.6 33.8" id="54,53" /><path d="M 330.6 33.8 L 330.6 36.9 L 338.4 36.9" id="53,52" /><path d="M 338.4 36.9 L 338.4 33.4 L 339.4 33.4" id="52,51" /><path d="M 338.4 36.9 L 338.4 40.3 L 339.0 40.3" id="52,50" /><path d="M 339.4 33.4 L 339.4 34.6 L 345.2 34.6" id="51,49" /><path d="M 339.0 40.3 L 339.0 43.7 L 342.4 43.7" id="50,48" /><path d="M 342.4 43.7 L 342.4 49.0 L 345.7 49.0" id="48,47" /><path d="M 345.7 49.0 L 345.7 43.1 L 355.1 43.1" id="47,46" /><path d="M 345.7 49.0 L 345.7 55.0 L 349.9 55.0" id="47,45" /><path d="M 355.1 43.1 L 355.1 40.7 L 360.5 40.7" id="46,44" /><path d="M 355.1 43.1 L 355.1 45.4 L 358.9 45.4" id="46,43" /><path d="M 349.9 55.0 L 349.9 50.4 L 351.1 50.4" id="45,42" /><path d="M 349.9 55.0 L 349.9 59.6 L 351.1 59.6" id="45,41" /><path d="M 358.9 45.4 L 358.9 43.8 L 365.0 43.8" id="43,40" /><path d="M 358.9 45.4 L 358.9 46.9 L 359.2 46.9" id="43,39" /><path d="M 351.1 50.4 L 351.1 51.5 L 352.7 51.5" id="42,38" /><path d="M 351.1 59.6 L 351.1 56.2 L 355.5 56.2" id="41,37" /><path d="M 351.1 59.6 L 351.1 63.0 L 352.6 63.0" id="41,36" /><path d="M 355.5 56.2 L 355.5 54.6 L 359.8 54.6" id="37,35" /><path d="M 355.5 56.2 L 355.5 57.7 L 377.7 57.7" id="37,34" /><path d="M 352.6 63.0 L 352.6 60.8 L 354.0 60.8" id="36,33" /><path d="M 352.6 63.0 L 352.6 65.1 L 354.2 65.1" id="36,32" /><path d="M 354.2 65.1 L 354.2 67.2 L 356.2 67.2" id="32,31" /><path d="M 356.2 67.2 L 356.2 65.4 L 359.7 65.4" id="31,30" /><path d="M 356.2 67.2 L 356.2 68.9 L 358.9 68.9" id="31,29" /><path d="M 358.9 68.9 L 358.9 70.1 L 359.7 70.1" id="29,28" /><path d="M 305.0 31.5 L 305.0 29.2 L 366.7 29.2" id="54,27" /><path d="M 330.6 33.8 L 330.6 30.7 L 364.9 30.7" id="53,26" /><path d="M 339.4 33.4 L 339.4 32.3 L 364.5 32.3" id="51,25" /><path d="M 345.2 34.6 L 345.2 33.8 L 365.8 33.8" id="49,24" /><path d="M 345.2 34.6 L 345.2 35.3 L 368.9 35.3" id="49,23" /><path d="M 339.0 40.3 L 339.0 36.9 L 381.4 36.9" id="50,22" /><path d="M 342.4 43.7 L 342.4 38.4 L 365.5 38.4" id="48,21" /><path d="M 360.5 40.7 L 360.5 40.0 L 360.9 40.0" id="44,20" /><path d="M 360.5 40.7 L 360.5 41.5 L 360.6 41.5" id="44,19" /><path d="M 365.0 43.8 L 365.0 43.1 L 371.2 43.1" id="40,18" /><path d="M 365.0 43.8 L 365.0 44.6 L 369.0 44.6" id="40,17" /><path d="M 359.2 46.9 L 359.2 46.1 L 366.8 46.1" id="39,16" /><path d="M 359.2 46.9 L 359.2 47.7 L 363.6 47.7" id="39,15" /><path d="M 351.1 50.4 L 351.1 49.2 L 359.6 49.2" id="42,14" /><path d="M 352.7 51.5 L 352.7 50.8 L 358.0 50.8" id="38,13" /><path d="M 352.7 51.5 L 352.7 52.3 L 370.6 52.3" id="38,12" /><path d="M 359.8 54.6 L 359.8 53.9 L 379.8 53.9" id="35,11" /><path d="M 359.8 54.6 L 359.8 55.4 L 390.3 55.4" id="35,10" /><path d="M 377.7 57.7 L 377.7 56.9 L 381.4 56.9" id="34,9" /><path d="M 377.7 57.7 L 377.7 58.5 L 382.5 58.5" id="34,8" /><path d="M 354.0 60.8 L 354.0 60.0 L 363.5 60.0" id="33,7" /><path d="M 354.0 60.8 L 354.0 61.6 L 365.9 61.6" id="33,6" /><path d="M 354.2 65.1 L 354.2 63.1 L 361.8 63.1" id="32,5" /><path d="M 359.7 65.4 L 359.7 64.7 L 361.1 64.7" id="30,4" /><path d="M 359.7 65.4 L 359.7 66.2 L 365.6 66.2" id="30,3" /><path d="M 358.9 68.9 L 358.9 67.7 L 363.5 67.7" id="29,2" /><path d="M 359.7 70.1 L 359.7 69.3 L 360.3 69.3" id="28,1" /><path d="M 359.7 70.1 L 359.7 70.8 L 360.5 70.8" id="28,0" /></g><g class="toytree-Nodes" style="fill:rgb(100%,0%,0%);fill-opacity:1.0;stroke:None;stroke-width:1"><g id="node-0" transform="translate(360.511,70.833)"><circle r="2.5" /></g><g id="node-1" transform="translate(360.317,69.290)"><circle r="2.5" /></g><g id="node-2" transform="translate(363.527,67.747)"><circle r="2.5" /></g><g id="node-3" transform="translate(365.579,66.204)"><circle r="2.5" /></g><g id="node-4" transform="translate(361.059,64.660)"><circle r="2.5" /></g><g id="node-5" transform="translate(361.781,63.117)"><circle r="2.5" /></g><g id="node-6" transform="translate(365.900,61.574)"><circle r="2.5" /></g><g id="node-7" transform="translate(363.460,60.031)"><circle r="2.5" /></g><g id="node-8" transform="translate(382.533,58.488)"><circle r="2.5" /></g><g id="node-9" transform="translate(381.397,56.944)"><circle r="2.5" /></g><g id="node-10" transform="translate(390.263,55.401)"><circle r="2.5" /></g><g id="node-11" transform="translate(379.765,53.858)"><circle r="2.5" /></g><g id="node-12" transform="translate(370.631,52.315)"><circle r="2.5" /></g><g id="node-13" transform="translate(357.967,50.772)"><circle r="2.5" /></g><g id="node-14" transform="translate(359.638,49.228)"><circle r="2.5" /></g><g id="node-15" transform="translate(363.644,47.685)"><circle r="2.5" /></g><g id="node-16" transform="translate(366.766,46.142)"><circle r="2.5" /></g><g id="node-17" transform="translate(368.986,44.599)"><circle r="2.5" /></g><g id="node-18" transform="translate(371.159,43.056)"><circle r="2.5" /></g><g id="node-19" transform="translate(360.575,41.512)"><circle r="2.5" /></g><g id="node-20" transform="translate(360.902,39.969)"><circle r="2.5" /></g><g id="node-21" transform="translate(365.452,38.426)"><circle r="2.5" /></g><g id="node-22" transform="translate(381.413,36.883)"><circle r="2.5" /></g><g id="node-23" transform="translate(368.923,35.340)"><circle r="2.5" /></g><g id="node-24" transform="translate(365.807,33.796)"><circle r="2.5" /></g><g id="node-25" transform="translate(364.496,32.253)"><circle r="2.5" /></g><g id="node-26" transform="translate(364.877,30.710)"><circle r="2.5" /></g><g id="node-27" transform="translate(366.718,29.167)"><circle r="2.5" /></g><g id="node-28" transform="translate(359.729,70.062)"><circle r="0.0" /></g><g id="node-29" transform="translate(358.869,68.904)"><circle r="0.0" /></g><g id="node-30" transform="translate(359.658,65.432)"><circle r="0.0" /></g><g id="node-31" transform="translate(356.205,67.168)"><circle r="0.0" /></g><g id="node-32" transform="translate(354.206,65.143)"><circle r="0.0" /></g><g id="node-33" transform="translate(354.032,60.802)"><circle r="0.0" /></g><g id="node-34" transform="translate(377.736,57.716)"><circle r="0.0" /></g><g id="node-35" transform="translate(359.789,54.630)"><circle r="0.0" /></g><g id="node-36" transform="translate(352.631,62.973)"><circle r="0.0" /></g><g id="node-37" transform="translate(355.469,56.173)"><circle r="0.0" /></g><g id="node-38" transform="translate(352.681,51.543)"><circle r="0.0" /></g><g id="node-39" transform="translate(359.237,46.914)"><circle r="0.0" /></g><g id="node-40" transform="translate(365.024,43.827)"><circle r="0.0" /></g><g id="node-41" transform="translate(351.133,59.573)"><circle r="0.0" /></g><g id="node-42" transform="translate(351.053,50.386)"><circle r="0.0" /></g><g id="node-43" transform="translate(358.893,45.370)"><circle r="0.0" /></g><g id="node-44" transform="translate(360.488,40.741)"><circle r="0.0" /></g><g id="node-45" transform="translate(349.869,54.979)"><circle r="0.0" /></g><g id="node-46" transform="translate(355.138,43.056)"><circle r="0.0" /></g><g id="node-47" transform="translate(345.683,49.017)"><circle r="0.0" /></g><g id="node-48" transform="translate(342.434,43.722)"><circle r="0.0" /></g><g id="node-49" transform="translate(345.249,34.568)"><circle r="0.0" /></g><g id="node-50" transform="translate(338.973,40.302)"><circle r="0.0" /></g><g id="node-51" transform="translate(339.385,33.410)"><circle r="0.0" /></g><g id="node-52" transform="translate(338.425,36.856)"><circle r="0.0" /></g><g id="node-53" transform="translate(330.639,33.783)"><circle r="0.0" /></g><g id="node-54" transform="translate(305.000,31.475)"><circle r="0.0" /></g></g></g></g></g><g class="toyplot-coordinates-Cartesian" id="t3ac89bb048e04908b97330b3140e272b"><clipPath id="t64bef24525284ab281af5cf498c57fe6"><rect x="435.0" y="15.0" width="110.0" height="70.0" /></clipPath><g clip-path="url(#t64bef24525284ab281af5cf498c57fe6)"><g class="toytree-mark-Toytree" id="t881fc6a6deb54e45bb506298373154e9"><g class="toytree-Edges" style="fill:none;stroke:rgb(14.9%,14.9%,14.9%);stroke-linecap:round;stroke-opacity:1;stroke-width:0.5"><path d="M 445.0 31.7 L 445.0 34.2 L 459.1 34.2" id="54,53" /><path d="M 459.1 34.2 L 459.1 37.8 L 466.3 37.8" id="53,52" /><path d="M 466.3 37.8 L 466.3 43.3 L 468.8 43.3" id="52,51" /><path d="M 468.8 43.3 L 468.8 35.1 L 472.2 35.1" id="51,50" /><path d="M 468.8 43.3 L 468.8 51.4 L 487.8 51.4" id="51,49" /><path d="M 472.2 35.1 L 472.2 36.5 L 482.8 36.5" id="50,48" /><path d="M 487.8 51.4 L 487.8 43.8 L 495.2 43.8" id="49,47" /><path d="M 487.8 51.4 L 487.8 59.1 L 492.6 59.1" id="49,46" /><path d="M 482.8 36.5 L 482.8 37.7 L 488.5 37.7" id="48,45" /><path d="M 495.2 43.8 L 495.2 41.1 L 498.6 41.1" id="47,44" /><path d="M 495.2 43.8 L 495.2 46.4 L 503.6 46.4" id="47,43" /><path d="M 492.6 59.1 L 492.6 56.6 L 493.9 56.6" id="46,42" /><path d="M 492.6 59.1 L 492.6 61.6 L 493.5 61.6" id="46,41" /><path d="M 498.6 41.1 L 498.6 42.3 L 501.6 42.3" id="44,40" /><path d="M 503.6 46.4 L 503.6 48.2 L 511.8 48.2" id="43,39" /><path d="M 493.9 56.6 L 493.9 57.7 L 496.5 57.7" id="42,38" /><path d="M 493.5 61.6 L 493.5 63.1 L 495.4 63.1" id="41,37" /><path d="M 511.8 48.2 L 511.8 50.2 L 512.0 50.2" id="39,36" /><path d="M 495.4 63.1 L 495.4 64.6 L 495.9 64.6" id="37,35" /><path d="M 512.0 50.2 L 512.0 48.5 L 513.6 48.5" id="36,34" /><path d="M 512.0 50.2 L 512.0 51.9 L 513.0 51.9" id="36,33" /><path d="M 495.9 64.6 L 495.9 66.1 L 496.0 66.1" id="35,32" /><path d="M 513.0 51.9 L 513.0 53.1 L 513.1 53.1" id="33,31" /><path d="M 496.0 66.1 L 496.0 67.6 L 496.1 67.6" id="32,30" /><path d="M 496.1 67.6 L 496.1 68.9 L 496.2 68.9" id="30,29" /><path d="M 496.2 68.9 L 496.2 70.1 L 496.3 70.1" id="29,28" /><path d="M 445.0 31.7 L 445.0 29.2 L 503.5 29.2" id="54,27" /><path d="M 459.1 34.2 L 459.1 30.7 L 490.1 30.7" id="53,26" /><path d="M 466.3 37.8 L 466.3 32.3 L 491.1 32.3" id="52,25" /><path d="M 472.2 35.1 L 472.2 33.8 L 489.0 33.8" id="50,24" /><path d="M 482.8 36.5 L 482.8 35.3 L 530.3 35.3" id="48,23" /><path d="M 488.5 37.7 L 488.5 36.9 L 503.4 36.9" id="45,22" /><path d="M 488.5 37.7 L 488.5 38.4 L 520.5 38.4" id="45,21" /><path d="M 498.6 41.1 L 498.6 40.0 L 501.7 40.0" id="44,20" /><path d="M 501.6 42.3 L 501.6 41.5 L 511.2 41.5" id="40,19" /><path d="M 501.6 42.3 L 501.6 43.1 L 510.8 43.1" id="40,18" /><path d="M 503.6 46.4 L 503.6 44.6 L 512.1 44.6" id="43,17" /><path d="M 511.8 48.2 L 511.8 46.1 L 512.7 46.1" id="39,16" /><path d="M 513.6 48.5 L 513.6 47.7 L 514.1 47.7" id="34,15" /><path d="M 513.6 48.5 L 513.6 49.2 L 513.8 49.2" id="34,14" /><path d="M 513.0 51.9 L 513.0 50.8 L 513.0 50.8" id="33,13" /><path d="M 513.1 53.1 L 513.1 52.3 L 513.1 52.3" id="31,12" /><path d="M 513.1 53.1 L 513.1 53.9 L 513.1 53.9" id="31,11" /><path d="M 493.9 56.6 L 493.9 55.4 L 503.6 55.4" id="42,10" /><path d="M 496.5 57.7 L 496.5 56.9 L 497.2 56.9" id="38,9" /><path d="M 496.5 57.7 L 496.5 58.5 L 513.6 58.5" id="38,8" /><path d="M 493.5 61.6 L 493.5 60.0 L 495.4 60.0" id="41,7" /><path d="M 495.4 63.1 L 495.4 61.6 L 512.6 61.6" id="37,6" /><path d="M 495.9 64.6 L 495.9 63.1 L 496.2 63.1" id="35,5" /><path d="M 496.0 66.1 L 496.0 64.7 L 496.9 64.7" id="32,4" /><path d="M 496.1 67.6 L 496.1 66.2 L 496.2 66.2" id="30,3" /><path d="M 496.2 68.9 L 496.2 67.7 L 496.2 67.7" id="29,2" /><path d="M 496.3 70.1 L 496.3 69.3 L 496.3 69.3" id="28,1" /><path d="M 496.3 70.1 L 496.3 70.8 L 496.3 70.8" id="28,0" /></g><g class="toytree-Nodes" style="fill:rgb(100%,0%,0%);fill-opacity:1.0;stroke:None;stroke-width:1"><g id="node-0" transform="translate(496.330,70.833)"><circle r="2.5" /></g><g id="node-1" transform="translate(496.330,69.290)"><circle r="2.5" /></g><g id="node-2" transform="translate(496.190,67.747)"><circle r="2.5" /></g><g id="node-3" transform="translate(496.168,66.204)"><circle r="2.5" /></g><g id="node-4" transform="translate(496.909,64.660)"><circle r="2.5" /></g><g id="node-5" transform="translate(496.179,63.117)"><circle r="2.5" /></g><g id="node-6" transform="translate(512.570,61.574)"><circle r="2.5" /></g><g id="node-7" transform="translate(495.355,60.031)"><circle r="2.5" /></g><g id="node-8" transform="translate(513.619,58.488)"><circle r="2.5" /></g><g id="node-9" transform="translate(497.165,56.944)"><circle r="2.5" /></g><g id="node-10" transform="translate(503.630,55.401)"><circle r="2.5" /></g><g id="node-11" transform="translate(513.139,53.858)"><circle r="2.5" /></g><g id="node-12" transform="translate(513.139,52.315)"><circle r="2.5" /></g><g id="node-13" transform="translate(513.007,50.772)"><circle r="2.5" /></g><g id="node-14" transform="translate(513.792,49.228)"><circle r="2.5" /></g><g id="node-15" transform="translate(514.113,47.685)"><circle r="2.5" /></g><g id="node-16" transform="translate(512.662,46.142)"><circle r="2.5" /></g><g id="node-17" transform="translate(512.065,44.599)"><circle r="2.5" /></g><g id="node-18" transform="translate(510.826,43.056)"><circle r="2.5" /></g><g id="node-19" transform="translate(511.226,41.512)"><circle r="2.5" /></g><g id="node-20" transform="translate(501.672,39.969)"><circle r="2.5" /></g><g id="node-21" transform="translate(520.523,38.426)"><circle r="2.5" /></g><g id="node-22" transform="translate(503.386,36.883)"><circle r="2.5" /></g><g id="node-23" transform="translate(530.263,35.340)"><circle r="2.5" /></g><g id="node-24" transform="translate(488.954,33.796)"><circle r="2.5" /></g><g id="node-25" transform="translate(491.136,32.253)"><circle r="2.5" /></g><g id="node-26" transform="translate(490.136,30.710)"><circle r="2.5" /></g><g id="node-27" transform="translate(503.470,29.167)"><circle r="2.5" /></g><g id="node-28" transform="translate(496.330,70.062)"><circle r="0.0" /></g><g id="node-29" transform="translate(496.168,68.904)"><circle r="0.0" /></g><g id="node-30" transform="translate(496.145,67.554)"><circle r="0.0" /></g><g id="node-31" transform="translate(513.139,53.086)"><circle r="0.0" /></g><g id="node-32" transform="translate(495.982,66.107)"><circle r="0.0" /></g><g id="node-33" transform="translate(512.985,51.929)"><circle r="0.0" /></g><g id="node-34" transform="translate(513.639,48.457)"><circle r="0.0" /></g><g id="node-35" transform="translate(495.851,64.612)"><circle r="0.0" /></g><g id="node-36" transform="translate(512.045,50.193)"><circle r="0.0" /></g><g id="node-37" transform="translate(495.408,63.093)"><circle r="0.0" /></g><g id="node-38" transform="translate(496.544,57.716)"><circle r="0.0" /></g><g id="node-39" transform="translate(511.842,48.167)"><circle r="0.0" /></g><g id="node-40" transform="translate(501.557,42.284)"><circle r="0.0" /></g><g id="node-41" transform="translate(493.472,61.562)"><circle r="0.0" /></g><g id="node-42" transform="translate(493.860,56.559)"><circle r="0.0" /></g><g id="node-43" transform="translate(503.624,46.383)"><circle r="0.0" /></g><g id="node-44" transform="translate(498.618,41.127)"><circle r="0.0" /></g><g id="node-45" transform="translate(488.519,37.654)"><circle r="0.0" /></g><g id="node-46" transform="translate(492.570,59.060)"><circle r="0.0" /></g><g id="node-47" transform="translate(495.240,43.755)"><circle r="0.0" /></g><g id="node-48" transform="translate(482.849,36.497)"><circle r="0.0" /></g><g id="node-49" transform="translate(487.794,51.408)"><circle r="0.0" /></g><g id="node-50" transform="translate(472.207,35.147)"><circle r="0.0" /></g><g id="node-51" transform="translate(468.793,43.277)"><circle r="0.0" /></g><g id="node-52" transform="translate(466.337,37.765)"><circle r="0.0" /></g><g id="node-53" transform="translate(459.096,34.237)"><circle r="0.0" /></g><g id="node-54" transform="translate(445.000,31.702)"><circle r="0.0" /></g></g></g></g></g></svg>