<svg class="toyplot-canvas-Canvas" xmlns:toyplot="http://www.sandia.gov/toyplot" xmlns:xlink="http://www.w3.org/1999/xlink" xmlns="http://www.w3.org/2000/svg" width="560.0px" height="100.0px" viewBox="0 0 560.0 100.0" preserveAspectRatio="xMidYMid meet" style="background-color:transparent;border-color:#292724;border-style:none;border-width:1.0;fill:rgb(16.1%,15.3%,14.1%);fill-opacity:1.0;font-family:Helvetica;font-size:12px;opacity:1.0;stroke:rgb(16.1%,15.3%,14.1%);stroke-opacity:1.0;stroke-width:1.0" id="t9d7f9aca284c4106a35a0e10c2f4cdc0"><g class="toyplot-coordinates-Cartesian" id="t92c5ce34160f4c979d61dbc5aa7a68e3"><clipPath id="td93bb966bcde436ba165b35383f563c2"><rect x="15.0" y="15.0" width="110.0" height="70.0" /></clipPath><g clip-path="url(#td93bb966bcde436ba165b35383f563c2)"><g class="toytree-mark-Toytree" id="tcc8783b60f3d4c8faa6b86ebce336d16"><g class="toytree-Edges" style="fill:none;stroke:rgb(14.9%,14.9%,14.9%);stroke-linecap:round;stroke-opacity:1;stroke-width:0.5"><path d="M 25.0 32.4 L 25.0 30.0 L 26.5 30.0" id="50,49" /><path d="M 25.0 32.4 L 25.0 34.7 L 28.0 34.7" id="50,48" /><path d="M 28.0 34.7 L 28.0 37.0 L 30.6 37.0" id="48,47" /><path d="M 30.6 37.0 L 30.6 39.8 L 31.2 39.8" id="47,46" /><path d="M 31.2 39.8 L 31.2 36.7 L 47.7 36.7" id="46,45" /><path d="M 31.2 39.8 L 31.2 42.9 L 31.4 42.9" id="46,44" /><path d="M 31.4 42.9 L 31.4 46.6 L 32.4 46.6" id="44,43" /><path d="M 32.4 46.6 L 32.4 42.1 L 34.1 42.1" id="43,42" /><path d="M 32.4 46.6 L 32.4 51.1 L 33.1 51.1" id="43,41" /><path d="M 34.1 42.1 L 34.1 43.3 L 43.8 43.3" id="42,40" /><path d="M 33.1 51.1 L 33.1 47.3 L 35.6 47.3" id="41,39" /><path d="M 33.1 51.1 L 33.1 54.9 L 34.0 54.9" id="41,38" /><path d="M 35.6 47.3 L 35.6 48.8 L 37.5 48.8" id="39,37" /><path d="M 34.0 54.9 L 34.0 57.2 L 34.5 57.2" id="38,36" /><path d="M 37.5 48.8 L 37.5 50.0 L 40.4 50.0" id="37,35" /><path d="M 34.5 57.2 L 34.5 60.3 L 35.3 60.3" id="36,34" /><path d="M 35.3 60.3 L 35.3 57.1 L 38.4 57.1" id="34,33" /><path d="M 35.3 60.3 L 35.3 63.5 L 36.2 63.5" id="34,32" /><path d="M 38.4 57.1 L 38.4 58.3 L 40.5 58.3" id="33,31" /><path d="M 36.2 63.5 L 36.2 66.2 L 36.8 66.2" id="32,30" /><path d="M 36.8 66.2 L 36.8 63.8 L 38.2 63.8" id="30,29" /><path d="M 36.8 66.2 L 36.8 68.8 L 40.1 68.8" id="30,28" /><path d="M 38.2 63.8 L 38.2 65.0 L 40.2 65.0" id="29,27" /><path d="M 40.1 68.8 L 40.1 70.0 L 41.0 70.0" id="28,26" /><path d="M 26.5 30.0 L 26.5 29.2 L 82.3 29.2" id="49,25" /><path d="M 26.5 30.0 L 26.5 30.8 L 91.6 30.8" id="49,24" /><path d="M 28.0 34.7 L 28.0 32.5 L 88.3 32.5" id="48,23" /><path d="M 30.6 37.0 L 30.6 34.2 L 87.3 34.2" id="47,22" /><path d="M 47.7 36.7 L 47.7 35.8 L 82.9 35.8" id="45,21" /><path d="M 47.7 36.7 L 47.7 37.5 L 86.0 37.5" id="45,20" /><path d="M 31.4 42.9 L 31.4 39.2 L 84.0 39.2" id="44,19" /><path d="M 34.1 42.1 L 34.1 40.8 L 77.6 40.8" id="42,18" /><path d="M 43.8 43.3 L 43.8 42.5 L 81.8 42.5" id="40,17" /><path d="M 43.8 43.3 L 43.8 44.2 L 83.0 44.2" id="40,16" /><path d="M 35.6 47.3 L 35.6 45.8 L 87.7 45.8" id="39,15" /><path d="M 37.5 48.8 L 37.5 47.5 L 79.1 47.5" id="37,14" /><path d="M 40.4 50.0 L 40.4 49.2 L 90.4 49.2" id="35,13" /><path d="M 40.4 50.0 L 40.4 50.8 L 87.6 50.8" id="35,12" /><path d="M 34.0 54.9 L 34.0 52.5 L 78.2 52.5" id="38,11" /><path d="M 34.5 57.2 L 34.5 54.2 L 79.1 54.2" id="36,10" /><path d="M 38.4 57.1 L 38.4 55.8 L 83.9 55.8" id="33,9" /><path d="M 40.5 58.3 L 40.5 57.5 L 85.9 57.5" id="31,8" /><path d="M 40.5 58.3 L 40.5 59.2 L 83.7 59.2" id="31,7" /><path d="M 36.2 63.5 L 36.2 60.8 L 94.2 60.8" id="32,6" /><path d="M 38.2 63.8 L 38.2 62.5 L 90.9 62.5" id="29,5" /><path d="M 40.2 65.0 L 40.2 64.2 L 88.3 64.2" id="27,4" /><path d="M 40.2 65.0 L 40.2 65.8 L 91.0 65.8" id="27,3" /><path d="M 40.1 68.8 L 40.1 67.5 L 98.4 67.5" id="28,2" /><path d="M 41.0 70.0 L 41.0 69.2 L 110.3 69.2" id="26,1" /><path d="M 41.0 70.0 L 41.0 70.8 L 97.0 70.8" id="26,0" /></g><g class="toytree-Nodes" style="fill:rgb(100%,0%,0%);fill-opacity:1.0;stroke:None;stroke-width:1"><g id="node-0" transform="translate(97.049,70.833)"><circle r="2.5" /></g><g id="node-1" transform="translate(110.263,69.167)"><circle r="2.5" /></g><g id="node-2" transform="translate(98.449,67.500)"><circle r="2.5" /></g><g id="node-3" transform="translate(90.999,65.833)"><circle r="2.5" /></g><g id="node-4" transform="translate(88.269,64.167)"><circle r="2.5" /></g><g id="node-5" transform="translate(90.919,62.500)"><circle r="2.5" /></g><g id="node-6" transform="translate(94.180,60.833)"><circle r="2.5" /></g><g id="node-7" transform="translate(83.700,59.167)"><circle r="2.5" /></g><g id="node-8" transform="translate(85.875,57.500)"><circle r="2.5" /></g><g id="node-9" transform="translate(83.875,55.833)"><circle r="2.5" /></g><g id="node-10" transform="translate(79.081,54.167)"><circle r="2.5" /></g><g id="node-11" transform="translate(78.226,52.500)"><circle r="2.5" /></g><g id="node-12" transform="translate(87.563,50.833)"><circle r="2.5" /></g><g id="node-13" transform="translate(90.387,49.167)"><circle r="2.5" /></g><g id="node-14" transform="translate(79.127,47.500)"><circle r="2.5" /></g><g id="node-15" transform="translate(87.743,45.833)"><circle r="2.5" /></g><g id="node-16" transform="translate(83.048,44.167)"><circle r="2.5" /></g><g id="node-17" transform="translate(81.823,42.500)"><circle r="2.5" /></g><g id="node-18" transform="translate(77.572,40.833)"><circle r="2.5" /></g><g id="node-19" transform="translate(83.951,39.167)"><circle r="2.5" /></g><g id="node-20" transform="translate(85.969,37.500)"><circle r="2.5" /></g><g id="node-21" transform="translate(82.909,35.833)"><circle r="2.5" /></g><g id="node-22" transform="translate(87.275,34.167)"><circle r="2.5" /></g><g id="node-23" transform="translate(88.291,32.500)"><circle r="2.5" /></g><g id="node-24" transform="translate(91.627,30.833)"><circle r="2.5" /></g><g id="node-25" transform="translate(82.264,29.167)"><circle r="2.5" /></g><g id="node-26" transform="translate(40.951,70.000)"><circle r="0.0" /></g><g id="node-27" transform="translate(40.198,65.000)"><circle r="0.0" /></g><g id="node-28" transform="translate(40.082,68.750)"><circle r="0.0" /></g><g id="node-29" transform="translate(38.174,63.750)"><circle r="0.0" /></g><g id="node-30" transform="translate(36.757,66.250)"><circle r="0.0" /></g><g id="node-31" transform="translate(40.469,58.333)"><circle r="0.0" /></g><g id="node-32" transform="translate(36.245,63.542)"><circle r="0.0" /></g><g id="node-33" transform="translate(38.408,57.083)"><circle r="0.0" /></g><g id="node-34" transform="translate(35.296,60.312)"><circle r="0.0" /></g><g id="node-35" transform="translate(40.407,50.000)"><circle r="0.0" /></g><g id="node-36" transform="translate(34.519,57.240)"><circle r="0.0" /></g><g id="node-37" transform="translate(37.456,48.750)"><circle r="0.0" /></g><g id="node-38" transform="translate(33.954,54.870)"><circle r="0.0" /></g><g id="node-39" transform="translate(35.572,47.292)"><circle r="0.0" /></g><g id="node-40" transform="translate(43.754,43.333)"><circle r="0.0" /></g><g id="node-41" transform="translate(33.080,51.081)"><circle r="0.0" /></g><g id="node-42" transform="translate(34.081,42.083)"><circle r="0.0" /></g><g id="node-43" transform="translate(32.360,46.582)"><circle r="0.0" /></g><g id="node-44" transform="translate(31.402,42.874)"><circle r="0.0" /></g><g id="node-45" transform="translate(47.666,36.667)"><circle r="0.0" /></g><g id="node-46" transform="translate(31.153,39.771)"><circle r="0.0" /></g><g id="node-47" transform="translate(30.575,36.969)"><circle r="0.0" /></g><g id="node-48" transform="translate(28.039,34.734)"><circle r="0.0" /></g><g id="node-49" transform="translate(26.452,30.000)"><circle r="0.0" /></g><g id="node-50" transform="translate(25.000,32.367)"><circle r="0.0" /></g></g></g></g></g><g class="toyplot-coordinates-Cartesian" id="te403700b42bd42b2b2bf0631a4270929"><clipPath id="t4cff459cc0a745eaba7a0c3544cf03a1"><rect x="155.0" y="15.0" width="110.0" height="70.0" /></clipPath><g clip-path="url(#t4cff459cc0a745eaba7a0c3544cf03a1)"><g class="toytree-mark-Toytree" id="t8fea09f89ad64015afbc00fbd5e4947b"><g class="toytree-Edges" style="fill:none;stroke:rgb(14.9%,14.9%,14.9%);stroke-linecap:round;stroke-opacity:1;stroke-width:0.5"><path d="M 165.0 39.5 L 165.0 32.7 L 166.2 32.7" id="50,49" /><path d="M 165.0 39.5 L 165.0 46.4 L 166.5 46.4" id="50,48" /><path d="M 166.2 32.7 L 166.2 30.0 L 188.4 30.0" id="49,47" /><path d="M 166.2 32.7 L 166.2 35.3 L 184.9 35.3" id="49,46" /><path d="M 166.5 46.4 L 166.5 43.3 L 180.5 43.3" id="48,45" /><path d="M 166.5 46.4 L 166.5 49.4 L 187.9 49.4" id="48,44" /><path d="M 184.9 35.3 L 184.9 33.3 L 195.2 33.3" id="46,43" /><path d="M 184.9 35.3 L 184.9 37.3 L 193.0 37.3" id="46,42" /><path d="M 187.9 49.4 L 187.9 53.0 L 197.9 53.0" id="44,41" /><path d="M 193.0 37.3 L 193.0 38.8 L 204.6 38.8" id="42,40" /><path d="M 197.9 53.0 L 197.9 48.3 L 213.1 48.3" id="41,39" /><path d="M 197.9 53.0 L 197.9 57.6 L 205.0 57.6" id="41,38" /><path d="M 204.6 38.8 L 204.6 40.0 L 209.8 40.0" id="40,37" /><path d="M 205.0 57.6 L 205.0 52.4 L 205.7 52.4" id="38,36" /><path d="M 205.0 57.6 L 205.0 62.8 L 206.0 62.8" id="38,35" /><path d="M 205.7 52.4 L 205.7 54.1 L 207.1 54.1" id="36,34" /><path d="M 206.0 62.8 L 206.0 64.7 L 206.6 64.7" id="35,33" /><path d="M 207.1 54.1 L 207.1 55.6 L 208.3 55.6" id="34,32" /><path d="M 206.6 64.7 L 206.6 66.9 L 213.6 66.9" id="33,31" /><path d="M 208.3 55.6 L 208.3 57.1 L 210.7 57.1" id="32,30" /><path d="M 213.6 66.9 L 213.6 65.0 L 217.2 65.0" id="31,29" /><path d="M 213.6 66.9 L 213.6 68.8 L 218.4 68.8" id="31,28" /><path d="M 210.7 57.1 L 210.7 58.3 L 212.5 58.3" id="30,27" /><path d="M 218.4 68.8 L 218.4 70.0 L 229.7 70.0" id="28,26" /><path d="M 188.4 30.0 L 188.4 29.2 L 224.3 29.2" id="47,25" /><path d="M 188.4 30.0 L 188.4 30.8 L 237.1 30.8" id="47,24" /><path d="M 195.2 33.3 L 195.2 32.5 L 233.1 32.5" id="43,23" /><path d="M 195.2 33.3 L 195.2 34.2 L 228.6 34.2" id="43,22" /><path d="M 193.0 37.3 L 193.0 35.8 L 222.2 35.8" id="42,21" /><path d="M 204.6 38.8 L 204.6 37.5 L 228.4 37.5" id="40,20" /><path d="M 209.8 40.0 L 209.8 39.2 L 230.1 39.2" id="37,19" /><path d="M 209.8 40.0 L 209.8 40.8 L 225.1 40.8" id="37,18" /><path d="M 180.5 43.3 L 180.5 42.5 L 239.7 42.5" id="45,17" /><path d="M 180.5 43.3 L 180.5 44.2 L 226.1 44.2" id="45,16" /><path d="M 187.9 49.4 L 187.9 45.8 L 236.4 45.8" id="44,15" /><path d="M 213.1 48.3 L 213.1 47.5 L 224.8 47.5" id="39,14" /><path d="M 213.1 48.3 L 213.1 49.2 L 222.5 49.2" id="39,13" /><path d="M 205.7 52.4 L 205.7 50.8 L 222.1 50.8" id="36,12" /><path d="M 207.1 54.1 L 207.1 52.5 L 226.2 52.5" id="34,11" /><path d="M 208.3 55.6 L 208.3 54.2 L 218.0 54.2" id="32,10" /><path d="M 210.7 57.1 L 210.7 55.8 L 219.8 55.8" id="30,9" /><path d="M 212.5 58.3 L 212.5 57.5 L 220.8 57.5" id="27,8" /><path d="M 212.5 58.3 L 212.5 59.2 L 219.9 59.2" id="27,7" /><path d="M 206.0 62.8 L 206.0 60.8 L 228.8 60.8" id="35,6" /><path d="M 206.6 64.7 L 206.6 62.5 L 216.9 62.5" id="33,5" /><path d="M 217.2 65.0 L 217.2 64.2 L 246.7 64.2" id="29,4" /><path d="M 217.2 65.0 L 217.2 65.8 L 250.3 65.8" id="29,3" /><path d="M 218.4 68.8 L 218.4 67.5 L 238.5 67.5" id="28,2" /><path d="M 229.7 70.0 L 229.7 69.2 L 236.0 69.2" id="26,1" /><path d="M 229.7 70.0 L 229.7 70.8 L 243.2 70.8" id="26,0" /></g><g class="toytree-Nodes" style="fill:rgb(100%,0%,0%);fill-opacity:1.0;stroke:None;stroke-width:1"><g id="node-0" transform="translate(243.194,70.833)"><circle r="2.5" /></g><g id="node-1" transform="translate(236.002,69.167)"><circle r="2.5" /></g><g id="node-2" transform="translate(238.549,67.500)"><circle r="2.5" /></g><g id="node-3" transform="translate(250.263,65.833)"><circle r="2.5" /></g><g id="node-4" transform="translate(246.713,64.167)"><circle r="2.5" /></g><g id="node-5" transform="translate(216.892,62.500)"><circle r="2.5" /></g><g id="node-6" transform="translate(228.753,60.833)"><circle r="2.5" /></g><g id="node-7" transform="translate(219.888,59.167)"><circle r="2.5" /></g><g id="node-8" transform="translate(220.774,57.500)"><circle r="2.5" /></g><g id="node-9" transform="translate(219.824,55.833)"><circle r="2.5" /></g><g id="node-10" transform="translate(217.990,54.167)"><circle r="2.5" /></g><g id="node-11" transform="translate(226.236,52.500)"><circle r="2.5" /></g><g id="node-12" transform="translate(222.145,50.833)"><circle r="2.5" /></g><g id="node-13" transform="translate(222.455,49.167)"><circle r="2.5" /></g><g id="node-14" transform="translate(224.805,47.500)"><circle r="2.5" /></g><g id="node-15" transform="translate(236.365,45.833)"><circle r="2.5" /></g><g id="node-16" transform="translate(226.108,44.167)"><circle r="2.5" /></g><g id="node-17" transform="translate(239.749,42.500)"><circle r="2.5" /></g><g id="node-18" transform="translate(225.088,40.833)"><circle r="2.5" /></g><g id="node-19" transform="translate(230.071,39.167)"><circle r="2.5" /></g><g id="node-20" transform="translate(228.355,37.500)"><circle r="2.5" /></g><g id="node-21" transform="translate(222.197,35.833)"><circle r="2.5" /></g><g id="node-22" transform="translate(228.597,34.167)"><circle r="2.5" /></g><g id="node-23" transform="translate(233.078,32.500)"><circle r="2.5" /></g><g id="node-24" transform="translate(237.083,30.833)"><circle r="2.5" /></g><g id="node-25" transform="translate(224.278,29.167)"><circle r="2.5" /></g><g id="node-26" transform="translate(229.718,70.000)"><circle r="0.0" /></g><g id="node-27" transform="translate(212.527,58.333)"><circle r="0.0" /></g><g id="node-28" transform="translate(218.435,68.750)"><circle r="0.0" /></g><g id="node-29" transform="translate(217.171,65.000)"><circle r="0.0" /></g><g id="node-30" transform="translate(210.734,57.083)"><circle r="0.0" /></g><g id="node-31" transform="translate(213.561,66.875)"><circle r="0.0" /></g><g id="node-32" transform="translate(208.292,55.625)"><circle r="0.0" /></g><g id="node-33" transform="translate(206.567,64.688)"><circle r="0.0" /></g><g id="node-34" transform="translate(207.065,54.062)"><circle r="0.0" /></g><g id="node-35" transform="translate(205.951,62.760)"><circle r="0.0" /></g><g id="node-36" transform="translate(205.748,52.448)"><circle r="0.0" /></g><g id="node-37" transform="translate(209.782,40.000)"><circle r="0.0" /></g><g id="node-38" transform="translate(205.018,57.604)"><circle r="0.0" /></g><g id="node-39" transform="translate(213.146,48.333)"><circle r="0.0" /></g><g id="node-40" transform="translate(204.648,38.750)"><circle r="0.0" /></g><g id="node-41" transform="translate(197.876,52.969)"><circle r="0.0" /></g><g id="node-42" transform="translate(193.004,37.292)"><circle r="0.0" /></g><g id="node-43" transform="translate(195.196,33.333)"><circle r="0.0" /></g><g id="node-44" transform="translate(187.864,49.401)"><circle r="0.0" /></g><g id="node-45" transform="translate(180.528,43.333)"><circle r="0.0" /></g><g id="node-46" transform="translate(184.899,35.312)"><circle r="0.0" /></g><g id="node-47" transform="translate(188.376,30.000)"><circle r="0.0" /></g><g id="node-48" transform="translate(166.506,46.367)"><circle r="0.0" /></g><g id="node-49" transform="translate(166.241,32.656)"><circle r="0.0" /></g><g id="node-50" transform="translate(165.000,39.512)"><circle r="0.0" /></g></g></g></g></g><g class="toyplot-coordinates-Cartesian" id="tab639c662d2842619d8883efd52e9459"><clipPath id="t4565d35a51ed4c73a2d8f841bea9b39d"><rect x="295.0" y="15.0" width="110.0" height="70.0" /></clipPath><g clip-path="url(#t4565d35a51ed4c73a2d8f841bea9b39d)"><g class="toytree-mark-Toytree" id="t6a5b0bf7afbf49658a74516e1515c7b7"><g class="toytree-Edges" style="fill:none;stroke:rgb(14.9%,14.9%,14.9%);stroke-linecap:round;stroke-opacity:1;stroke-width:0.5"><path d="M 305.0 31.0 L 305.0 32.9 L 313.0 32.9" id="50,49" /><path d="M 313.0 32.9 L 313.0 34.9 L 319.4 34.9" id="49,48" /><path d="M 319.4 34.9 L 319.4 37.3 L 321.6 37.3" id="48,47" /><path d="M 321.6 37.3 L 321.6 35.0 L 325.1 35.0" id="47,46" /><path d="M 321.6 37.3 L 321.6 39.6 L 328.8 39.6" id="47,45" /><path d="M 328.8 39.6 L 328.8 41.7 L 329.8 41.7" id="45,44" /><path d="M 329.8 41.7 L 329.8 44.3 L 331.9 44.3" id="44,43" /><path d="M 331.9 44.3 L 331.9 41.7 L 352.8 41.7" id="43,42" /><path d="M 331.9 44.3 L 331.9 46.9 L 335.2 46.9" id="43,41" /><path d="M 335.2 46.9 L 335.2 49.7 L 336.0 49.7" id="41,40" /><path d="M 336.0 49.7 L 336.0 53.5 L 337.1 53.5" id="40,39" /><path d="M 337.1 53.5 L 337.1 48.3 L 343.1 48.3" id="39,38" /><path d="M 337.1 53.5 L 337.1 58.7 L 337.2 58.7" id="39,37" /><path d="M 337.2 58.7 L 337.2 52.9 L 339.2 52.9" id="37,36" /><path d="M 337.2 58.7 L 337.2 64.5 L 339.3 64.5" id="37,35" /><path d="M 339.2 52.9 L 339.2 55.0 L 340.3 55.0" id="36,34" /><path d="M 339.3 64.5 L 339.3 61.7 L 340.8 61.7" id="35,33" /><path d="M 339.3 64.5 L 339.3 67.3 L 344.9 67.3" id="35,32" /><path d="M 340.3 55.0 L 340.3 53.3 L 341.6 53.3" id="34,31" /><path d="M 340.3 55.0 L 340.3 56.7 L 342.7 56.7" id="34,30" /><path d="M 340.8 61.7 L 340.8 60.0 L 342.0 60.0" id="33,29" /><path d="M 340.8 61.7 L 340.8 63.3 L 346.7 63.3" id="33,28" /><path d="M 344.9 67.3 L 344.9 68.8 L 346.7 68.8" id="32,27" /><path d="M 346.7 68.8 L 346.7 70.0 L 350.8 70.0" id="27,26" /><path d="M 305.0 31.0 L 305.0 29.2 L 371.6 29.2" id="50,25" /><path d="M 313.0 32.9 L 313.0 30.8 L 375.4 30.8" id="49,24" /><path d="M 319.4 34.9 L 319.4 32.5 L 381.4 32.5" id="48,23" /><path d="M 325.1 35.0 L 325.1 34.2 L 368.7 34.2" id="46,22" /><path d="M 325.1 35.0 L 325.1 35.8 L 357.9 35.8" id="46,21" /><path d="M 328.8 39.6 L 328.8 37.5 L 379.2 37.5" id="45,20" /><path d="M 329.8 41.7 L 329.8 39.2 L 376.8 39.2" id="44,19" /><path d="M 352.8 41.7 L 352.8 40.8 L 371.1 40.8" id="42,18" /><path d="M 352.8 41.7 L 352.8 42.5 L 376.2 42.5" id="42,17" /><path d="M 335.2 46.9 L 335.2 44.2 L 376.6 44.2" id="41,16" /><path d="M 336.0 49.7 L 336.0 45.8 L 359.1 45.8" id="40,15" /><path d="M 343.1 48.3 L 343.1 47.5 L 358.6 47.5" id="38,14" /><path d="M 343.1 48.3 L 343.1 49.2 L 361.5 49.2" id="38,13" /><path d="M 339.2 52.9 L 339.2 50.8 L 359.4 50.8" id="36,12" /><path d="M 341.6 53.3 L 341.6 52.5 L 367.8 52.5" id="31,11" /><path d="M 341.6 53.3 L 341.6 54.2 L 374.4 54.2" id="31,10" /><path d="M 342.7 56.7 L 342.7 55.8 L 390.3 55.8" id="30,9" /><path d="M 342.7 56.7 L 342.7 57.5 L 374.4 57.5" id="30,8" /><path d="M 342.0 60.0 L 342.0 59.2 L 386.7 59.2" id="29,7" /><path d="M 342.0 60.0 L 342.0 60.8 L 372.4 60.8" id="29,6" /><path d="M 346.7 63.3 L 346.7 62.5 L 379.7 62.5" id="28,5" /><path d="M 346.7 63.3 L 346.7 64.2 L 364.5 64.2" id="28,4" /><path d="M 344.9 67.3 L 344.9 65.8 L 375.0 65.8" id="32,3" /><path d="M 346.7 68.8 L 346.7 67.5 L 375.0 67.5" id="27,2" /><path d="M 350.8 70.0 L 350.8 69.2 L 382.9 69.2" id="26,1" /><path d="M 350.8 70.0 L 350.8 70.8 L 372.4 70.8" id="26,0" /></g><g class="toytree-Nodes" style="fill:rgb(100%,0%,0%);fill-opacity:1.0;stroke:None;stroke-width:1"><g id="node-0" transform="translate(372.375,70.833)"><circle r="2.5" /></g><g id="node-1" transform="translate(382.912,69.167)"><circle r="2.5" /></g><g id="node-2" transform="translate(374.972,67.500)"><circle r="2.5" /></g><g id="node-3" transform="translate(375.030,65.833)"><circle r="2.5" /></g><g id="node-4" transform="translate(364.502,64.167)"><circle r="2.5" /></g><g id="node-5" transform="translate(379.688,62.500)"><circle r="2.5" /></g><g id="node-6" transform="translate(372.375,60.833)"><circle r="2.5" /></g><g id="node-7" transform="translate(386.650,59.167)"><circle r="2.5" /></g><g id="node-8" transform="translate(374.441,57.500)"><circle r="2.5" /></g><g id="node-9" transform="translate(390.263,55.833)"><circle r="2.5" /></g><g id="node-10" transform="translate(374.395,54.167)"><circle r="2.5" /></g><g id="node-11" transform="translate(367.805,52.500)"><circle r="2.5" /></g><g id="node-12" transform="translate(359.384,50.833)"><circle r="2.5" /></g><g id="node-13" transform="translate(361.458,49.167)"><circle r="2.5" /></g><g id="node-14" transform="translate(358.556,47.500)"><circle r="2.5" /></g><g id="node-15" transform="translate(359.133,45.833)"><circle r="2.5" /></g><g id="node-16" transform="translate(376.640,44.167)"><circle r="2.5" /></g><g id="node-17" transform="translate(376.168,42.500)"><circle r="2.5" /></g><g id="node-18" transform="translate(371.117,40.833)"><circle r="2.5" /></g><g id="node-19" transform="translate(376.757,39.167)"><circle r="2.5" /></g><g id="node-20" transform="translate(379.191,37.500)"><circle r="2.5" /></g><g id="node-21" transform="translate(357.924,35.833)"><circle r="2.5" /></g><g id="node-22" transform="translate(368.670,34.167)"><circle r="2.5" /></g><g id="node-23" transform="translate(381.415,32.500)"><circle r="2.5" /></g><g id="node-24" transform="translate(375.423,30.833)"><circle r="2.5" /></g><g id="node-25" transform="translate(371.559,29.167)"><circle r="2.5" /></g><g id="node-26" transform="translate(350.799,70.000)"><circle r="0.0" /></g><g id="node-27" transform="translate(346.672,68.750)"><circle r="0.0" /></g><g id="node-28" transform="translate(346.693,63.333)"><circle r="0.0" /></g><g id="node-29" transform="translate(342.048,60.000)"><circle r="0.0" /></g><g id="node-30" transform="translate(342.712,56.667)"><circle r="0.0" /></g><g id="node-31" transform="translate(341.642,53.333)"><circle r="0.0" /></g><g id="node-32" transform="translate(344.903,67.292)"><circle r="0.0" /></g><g id="node-33" transform="translate(340.764,61.667)"><circle r="0.0" /></g><g id="node-34" transform="translate(340.270,55.000)"><circle r="0.0" /></g><g id="node-35" transform="translate(339.254,64.479)"><circle r="0.0" /></g><g id="node-36" transform="translate(339.187,52.917)"><circle r="0.0" /></g><g id="node-37" transform="translate(337.226,58.698)"><circle r="0.0" /></g><g id="node-38" transform="translate(343.051,48.333)"><circle r="0.0" /></g><g id="node-39" transform="translate(337.059,53.516)"><circle r="0.0" /></g><g id="node-40" transform="translate(335.959,49.674)"><circle r="0.0" /></g><g id="node-41" transform="translate(335.190,46.921)"><circle r="0.0" /></g><g id="node-42" transform="translate(352.798,41.667)"><circle r="0.0" /></g><g id="node-43" transform="translate(331.887,44.294)"><circle r="0.0" /></g><g id="node-44" transform="translate(329.792,41.730)"><circle r="0.0" /></g><g id="node-45" transform="translate(328.834,39.615)"><circle r="0.0" /></g><g id="node-46" transform="translate(325.079,35.000)"><circle r="0.0" /></g><g id="node-47" transform="translate(321.563,37.308)"><circle r="0.0" /></g><g id="node-48" transform="translate(319.414,34.904)"><circle r="0.0" /></g><g id="node-49" transform="translate(313.008,32.869)"><circle r="0.0" /></g><g id="node-50" transform="translate(305.000,31.018)"><circle r="0.0" /></g></g></g></g></g><g class="toyplot-coordinates-Cartesian" id="tb682ec9e94de49e99459db87c1d38efa"><clipPath id="td3cb5fcd79504765a13221bf7a2d6f07"><rect x="435.0" y="15.0" width="110.0" height="70.0" /></clipPath><g clip-path="url(#td3cb5fcd79504765a13221bf7a2d6f07)"><g class="toytree-mark-Toytree" id="t42e81aa8ffb04a91adb5228b8e084aa0"><g class="toytree-Edges" style="fill:none;stroke:rgb(14.9%,14.9%,14.9%);stroke-linecap:round;stroke-opacity:1;stroke-width:0.5"><path d="M 445.0 34.0 L 445.0 30.0 L 453.8 30.0" id="50,49" /><path d="M 445.0 34.0 L 445.0 38.0 L 451.9 38.0" id="50,48" /><path d="M 451.9 38.0 L 451.9 33.3 L 455.6 33.3" id="48,47" /><path d="M 451.9 38.0 L 451.9 42.7 L 454.3 42.7" id="48,46" /><path d="M 454.3 42.7 L 454.3 37.3 L 458.0 37.3" id="46,45" /><path d="M 454.3 42.7 L 454.3 48.1 L 456.3 48.1" id="46,44" /><path d="M 458.0 37.3 L 458.0 38.8 L 460.6 38.8" id="45,43" /><path d="M 456.3 48.1 L 456.3 43.3 L 467.2 43.3" id="44,42" /><path d="M 456.3 48.1 L 456.3 52.9 L 458.9 52.9" id="44,41" /><path d="M 460.6 38.8 L 460.6 40.0 L 476.7 40.0" id="43,40" /><path d="M 458.9 52.9 L 458.9 47.4 L 461.4 47.4" id="41,39" /><path d="M 458.9 52.9 L 458.9 58.4 L 462.3 58.4" id="41,38" /><path d="M 461.4 47.4 L 461.4 49.0 L 464.2 49.0" id="39,37" /><path d="M 462.3 58.4 L 462.3 55.0 L 465.6 55.0" id="38,36" /><path d="M 462.3 58.4 L 462.3 61.7 L 466.9 61.7" id="38,35" /><path d="M 464.2 49.0 L 464.2 50.4 L 466.1 50.4" id="37,34" /><path d="M 466.9 61.7 L 466.9 58.8 L 470.6 58.8" id="35,33" /><path d="M 466.9 61.7 L 466.9 64.7 L 472.0 64.7" id="35,32" /><path d="M 466.1 50.4 L 466.1 51.7 L 470.9 51.7" id="34,31" /><path d="M 470.6 58.8 L 470.6 60.0 L 475.1 60.0" id="33,30" /><path d="M 472.0 64.7 L 472.0 66.9 L 475.1 66.9" id="32,29" /><path d="M 475.1 66.9 L 475.1 65.0 L 479.8 65.0" id="29,28" /><path d="M 475.1 66.9 L 475.1 68.8 L 480.5 68.8" id="29,27" /><path d="M 480.5 68.8 L 480.5 70.0 L 483.6 70.0" id="27,26" /><path d="M 453.8 30.0 L 453.8 29.2 L 484.9 29.2" id="49,25" /><path d="M 453.8 30.0 L 453.8 30.8 L 502.4 30.8" id="49,24" /><path d="M 455.6 33.3 L 455.6 32.5 L 493.6 32.5" id="47,23" /><path d="M 455.6 33.3 L 455.6 34.2 L 483.6 34.2" id="47,22" /><path d="M 458.0 37.3 L 458.0 35.8 L 477.0 35.8" id="45,21" /><path d="M 460.6 38.8 L 460.6 37.5 L 502.7 37.5" id="43,20" /><path d="M 476.7 40.0 L 476.7 39.2 L 488.8 39.2" id="40,19" /><path d="M 476.7 40.0 L 476.7 40.8 L 489.7 40.8" id="40,18" /><path d="M 467.2 43.3 L 467.2 42.5 L 481.8 42.5" id="42,17" /><path d="M 467.2 43.3 L 467.2 44.2 L 484.0 44.2" id="42,16" /><path d="M 461.4 47.4 L 461.4 45.8 L 481.5 45.8" id="39,15" /><path d="M 464.2 49.0 L 464.2 47.5 L 495.2 47.5" id="37,14" /><path d="M 466.1 50.4 L 466.1 49.2 L 487.7 49.2" id="34,13" /><path d="M 470.9 51.7 L 470.9 50.8 L 485.9 50.8" id="31,12" /><path d="M 470.9 51.7 L 470.9 52.5 L 487.0 52.5" id="31,11" /><path d="M 465.6 55.0 L 465.6 54.2 L 496.7 54.2" id="36,10" /><path d="M 465.6 55.0 L 465.6 55.8 L 483.1 55.8" id="36,9" /><path d="M 470.6 58.8 L 470.6 57.5 L 489.5 57.5" id="33,8" /><path d="M 475.1 60.0 L 475.1 59.2 L 495.3 59.2" id="30,7" /><path d="M 475.1 60.0 L 475.1 60.8 L 496.8 60.8" id="30,6" /><path d="M 472.0 64.7 L 472.0 62.5 L 505.2 62.5" id="32,5" /><path d="M 479.8 65.0 L 479.8 64.2 L 502.6 64.2" id="28,4" /><path d="M 479.8 65.0 L 479.8 65.8 L 505.8 65.8" id="28,3" /><path d="M 480.5 68.8 L 480.5 67.5 L 516.9 67.5" id="27,2" /><path d="M 483.6 70.0 L 483.6 69.2 L 519.3 69.2" id="26,1" /><path d="M 483.6 70.0 L 483.6 70.8 L 530.3 70.8" id="26,0" /></g><g class="toytree-Nodes" style="fill:rgb(100%,0%,0%);fill-opacity:1.0;stroke:None;stroke-width:1"><g id="node-0" transform="translate(530.263,70.833)"><circle r="2.5" /></g><g id="node-1" transform="translate(519.333,69.167)"><circle r="2.5" /></g><g id="node-2" transform="translate(516.932,67.500)"><circle r="2.5" /></g><g id="node-3" transform="translate(505.785,65.833)"><circle r="2.5" /></g><g id="node-4" transform="translate(502.623,64.167)"><circle r="2.5" /></g><g id="node-5" transform="translate(505.195,62.500)"><circle r="2.5" /></g><g id="node-6" transform="translate(496.837,60.833)"><circle r="2.5" /></g><g id="node-7" transform="translate(495.281,59.167)"><circle r="2.5" /></g><g id="node-8" transform="translate(489.488,57.500)"><circle r="2.5" /></g><g id="node-9" transform="translate(483.057,55.833)"><circle r="2.5" /></g><g id="node-10" transform="translate(496.662,54.167)"><circle r="2.5" /></g><g id="node-11" transform="translate(487.037,52.500)"><circle r="2.5" /></g><g id="node-12" transform="translate(485.877,50.833)"><circle r="2.5" /></g><g id="node-13" transform="translate(487.663,49.167)"><circle r="2.5" /></g><g id="node-14" transform="translate(495.249,47.500)"><circle r="2.5" /></g><g id="node-15" transform="translate(481.508,45.833)"><circle r="2.5" /></g><g id="node-16" transform="translate(484.042,44.167)"><circle r="2.5" /></g><g id="node-17" transform="translate(481.842,42.500)"><circle r="2.5" /></g><g id="node-18" transform="translate(489.666,40.833)"><circle r="2.5" /></g><g id="node-19" transform="translate(488.782,39.167)"><circle r="2.5" /></g><g id="node-20" transform="translate(502.711,37.500)"><circle r="2.5" /></g><g id="node-21" transform="translate(477.019,35.833)"><circle r="2.5" /></g><g id="node-22" transform="translate(483.563,34.167)"><circle r="2.5" /></g><g id="node-23" transform="translate(493.604,32.500)"><circle r="2.5" /></g><g id="node-24" transform="translate(502.429,30.833)"><circle r="2.5" /></g><g id="node-25" transform="translate(484.902,29.167)"><circle r="2.5" /></g><g id="node-26" transform="translate(483.575,70.000)"><circle r="0.0" /></g><g id="node-27" transform="translate(480.516,68.750)"><circle r="0.0" /></g><g id="node-28" transform="translate(479.760,65.000)"><circle r="0.0" /></g><g id="node-29" transform="translate(475.111,66.875)"><circle r="0.0" /></g><g id="node-30" transform="translate(475.053,60.000)"><circle r="0.0" /></g><g id="node-31" transform="translate(470.862,51.667)"><circle r="0.0" /></g><g id="node-32" transform="translate(472.006,64.688)"><circle r="0.0" /></g><g id="node-33" transform="translate(470.583,58.750)"><circle r="0.0" /></g><g id="node-34" transform="translate(466.122,50.417)"><circle r="0.0" /></g><g id="node-35" transform="translate(466.871,61.719)"><circle r="0.0" /></g><g id="node-36" transform="translate(465.619,55.000)"><circle r="0.0" /></g><g id="node-37" transform="translate(464.180,48.958)"><circle r="0.0" /></g><g id="node-38" transform="translate(462.280,58.359)"><circle r="0.0" /></g><g id="node-39" transform="translate(461.439,47.396)"><circle r="0.0" /></g><g id="node-40" transform="translate(476.661,40.000)"><circle r="0.0" /></g><g id="node-41" transform="translate(458.938,52.878)"><circle r="0.0" /></g><g id="node-42" transform="translate(467.231,43.333)"><circle r="0.0" /></g><g id="node-43" transform="translate(460.587,38.750)"><circle r="0.0" /></g><g id="node-44" transform="translate(456.262,48.105)"><circle r="0.0" /></g><g id="node-45" transform="translate(458.020,37.292)"><circle r="0.0" /></g><g id="node-46" transform="translate(454.265,42.699)"><circle r="0.0" /></g><g id="node-47" transform="translate(455.550,33.333)"><circle r="0.0" /></g><g id="node-48" transform="translate(451.918,38.016)"><circle r="0.0" /></g><g id="node-49" transform="translate(453.808,30.000)"><circle r="0.0" /></g><g id="node-50" transform="translate(445.000,34.008)"><circle r="0.0" /></g></g></g></g></g></svg>