<svg class="toyplot-canvas-Canvas" xmlns:toyplot="http://www.sandia.gov/toyplot" xmlns:xlink="http://www.w3.org/1999/xlink" xmlns="http://www.w3.org/2000/svg" width="560.0px" height="100.0px" viewBox="0 0 560.0 100.0" preserveAspectRatio="xMidYMid meet" style="background-color:transparent;border-color:#292724;border-style:none;border-width:1.0;fill:rgb(16.1%,15.3%,14.1%);fill-opacity:1.0;font-family:Helvetica;font-size:12px;opacity:1.0;stroke:rgb(16.1%,15.3%,14.1%);stroke-opacity:1.0;stroke-width:1.0" id="t63db7df301264925be5bcd26c15761e5"><g class="toyplot-coordinates-Cartesian" id="t0b51cf0758b14fd29860c9b2a4a6d4fc"><clipPath id="t38ae0de0766f4ac4a30d5b1e3011b6f7"><rect x="15.0" y="15.0" width="110.0" height="70.0" /></clipPath><g clip-path="url(#t38ae0de0766f4ac4a30d5b1e3011b6f7)"><g class="toytree-mark-Toytree" id="te78bd209a1704d0db20ee4858f4c4bf2"><g class="toytree-Edges" style="fill:none;stroke:rgb(14.9%,14.9%,14.9%);stroke-linecap:round;stroke-opacity:1;stroke-width:0.5"><path d="M 25.0 41.5 L 25.0 33.1 L 42.8 33.1" id="16,15" /><path d="M 25.0 41.5 L 25.0 49.8 L 52.8 49.8" id="16,14" /><path d="M 42.8 33.1 L 42.8 37.0 L 45.6 37.0" id="15,13" /><path d="M 52.8 49.8 L 52.8 54.9 L 55.3 54.9" id="14,12" /><path d="M 55.3 54.9 L 55.3 59.8 L 56.1 59.8" id="12,11" /><path d="M 56.1 59.8 L 56.1 64.3 L 62.8 64.3" id="11,10" /><path d="M 62.8 64.3 L 62.8 68.2 L 62.8 68.2" id="10,9" /><path d="M 42.8 33.1 L 42.8 29.2 L 110.3 29.2" id="15,8" /><path d="M 45.6 37.0 L 45.6 34.4 L 51.2 34.4" id="13,7" /><path d="M 45.6 37.0 L 45.6 39.6 L 53.1 39.6" id="13,6" /><path d="M 52.8 49.8 L 52.8 44.8 L 56.3 44.8" id="14,5" /><path d="M 55.3 54.9 L 55.3 50.0 L 61.2 50.0" id="12,4" /><path d="M 56.1 59.8 L 56.1 55.2 L 56.3 55.2" id="11,3" /><path d="M 62.8 64.3 L 62.8 60.4 L 62.8 60.4" id="10,2" /><path d="M 62.8 68.2 L 62.8 65.6 L 62.8 65.6" id="9,1" /><path d="M 62.8 68.2 L 62.8 70.8 L 62.8 70.8" id="9,0" /></g><g class="toytree-Nodes" style="fill:rgb(100%,0%,0%);fill-opacity:1.0;stroke:None;stroke-width:1"><g id="node-0" transform="translate(62.811,70.833)"><circle r="2.5" /></g><g id="node-1" transform="translate(62.811,65.625)"><circle r="2.5" /></g><g id="node-2" transform="translate(62.811,60.417)"><circle r="2.5" /></g><g id="node-3" transform="translate(56.316,55.208)"><circle r="2.5" /></g><g id="node-4" transform="translate(61.187,50.000)"><circle r="2.5" /></g><g id="node-5" transform="translate(56.337,44.792)"><circle r="2.5" /></g><g id="node-6" transform="translate(53.147,39.583)"><circle r="2.5" /></g><g id="node-7" transform="translate(51.247,34.375)"><circle r="2.5" /></g><g id="node-8" transform="translate(110.263,29.167)"><circle r="2.5" /></g><g id="node-9" transform="translate(62.811,68.229)"><circle r="0.0" /></g><g id="node-10" transform="translate(62.811,64.323)"><circle r="0.0" /></g><g id="node-11" transform="translate(56.114,59.766)"><circle r="0.0" /></g><g id="node-12" transform="translate(55.350,54.883)"><circle r="0.0" /></g><g id="node-13" transform="translate(45.563,36.979)"><circle r="0.0" /></g><g id="node-14" transform="translate(52.765,49.837)"><circle r="0.0" /></g><g id="node-15" transform="translate(42.756,33.073)"><circle r="0.0" /></g><g id="node-16" transform="translate(25.000,41.455)"><circle r="0.0" /></g></g></g></g></g><g class="toyplot-coordinates-Cartesian" id="t812335c7efad474aa9957b38d6bf66b1"><clipPath id="tb13c35bfdd654d2f9e2bfc9a0449ae37"><rect x="155.0" y="15.0" width="110.0" height="70.0" /></clipPath><g clip-path="url(#tb13c35bfdd654d2f9e2bfc9a0449ae37)"><g class="toytree-mark-Toytree" id="t7010a395142342778857438be0c84df2"><g class="toytree-Edges" style="fill:none;stroke:rgb(14.9%,14.9%,14.9%);stroke-linecap:round;stroke-opacity:1;stroke-width:0.5"><path d="M 165.0 38.2 L 165.0 31.8 L 191.4 31.8" id="16,15" /><path d="M 165.0 38.2 L 165.0 44.7 L 174.2 44.7" id="16,14" /><path d="M 174.2 44.7 L 174.2 49.8 L 185.1 49.8" id="14,13" /><path d="M 185.1 49.8 L 185.1 54.9 L 217.2 54.9" id="13,12" /><path d="M 217.2 54.9 L 217.2 59.8 L 226.1 59.8" id="12,11" /><path d="M 226.1 59.8 L 226.1 64.3 L 230.2 64.3" id="11,10" /><path d="M 230.2 64.3 L 230.2 68.2 L 232.1 68.2" id="10,9" /><path d="M 191.4 31.8 L 191.4 29.2 L 232.1 29.2" id="15,8" /><path d="M 191.4 31.8 L 191.4 34.4 L 231.8 34.4" id="15,7" /><path d="M 174.2 44.7 L 174.2 39.6 L 209.7 39.6" id="14,6" /><path d="M 185.1 49.8 L 185.1 44.8 L 225.0 44.8" id="13,5" /><path d="M 217.2 54.9 L 217.2 50.0 L 246.7 50.0" id="12,4" /><path d="M 226.1 59.8 L 226.1 55.2 L 234.4 55.2" id="11,3" /><path d="M 230.2 64.3 L 230.2 60.4 L 237.3 60.4" id="10,2" /><path d="M 232.1 68.2 L 232.1 65.6 L 250.3 65.6" id="9,1" /><path d="M 232.1 68.2 L 232.1 70.8 L 239.0 70.8" id="9,0" /></g><g class="toytree-Nodes" style="fill:rgb(100%,0%,0%);fill-opacity:1.0;stroke:None;stroke-width:1"><g id="node-0" transform="translate(239.001,70.833)"><circle r="2.5" /></g><g id="node-1" transform="translate(250.263,65.625)"><circle r="2.5" /></g><g id="node-2" transform="translate(237.343,60.417)"><circle r="2.5" /></g><g id="node-3" transform="translate(234.378,55.208)"><circle r="2.5" /></g><g id="node-4" transform="translate(246.675,50.000)"><circle r="2.5" /></g><g id="node-5" transform="translate(225.047,44.792)"><circle r="2.5" /></g><g id="node-6" transform="translate(209.669,39.583)"><circle r="2.5" /></g><g id="node-7" transform="translate(231.791,34.375)"><circle r="2.5" /></g><g id="node-8" transform="translate(232.132,29.167)"><circle r="2.5" /></g><g id="node-9" transform="translate(232.102,68.229)"><circle r="0.0" /></g><g id="node-10" transform="translate(230.230,64.323)"><circle r="0.0" /></g><g id="node-11" transform="translate(226.124,59.766)"><circle r="0.0" /></g><g id="node-12" transform="translate(217.193,54.883)"><circle r="0.0" /></g><g id="node-13" transform="translate(185.076,49.837)"><circle r="0.0" /></g><g id="node-14" transform="translate(174.204,44.710)"><circle r="0.0" /></g><g id="node-15" transform="translate(191.357,31.771)"><circle r="0.0" /></g><g id="node-16" transform="translate(165.000,38.241)"><circle r="0.0" /></g></g></g></g></g><g class="toyplot-coordinates-Cartesian" id="t3a03a77806f840689484d19b0ab06f26"><clipPath id="t614e850332de43f488781d440b1d1ea7"><rect x="295.0" y="15.0" width="110.0" height="70.0" /></clipPath><g clip-path="url(#t614e850332de43f488781d440b1d1ea7)"><g class="toytree-mark-Toytree" id="t9a520a8c546b410188a39ebbb97a8add"><g class="toytree-Edges" style="fill:none;stroke:rgb(14.9%,14.9%,14.9%);stroke-linecap:round;stroke-opacity:1;stroke-width:0.5"><path d="M 305.0 38.3 L 305.0 47.4 L 340.4 47.4" id="16,15" /><path d="M 340.4 47.4 L 340.4 38.3 L 346.3 38.3" id="15,14" /><path d="M 340.4 47.4 L 340.4 56.5 L 356.9 56.5" id="15,13" /><path d="M 346.3 38.3 L 346.3 42.2 L 369.1 42.2" id="14,12" /><path d="M 356.9 56.5 L 356.9 63.0 L 369.5 63.0" id="13,11" /><path d="M 369.5 63.0 L 369.5 57.8 L 377.4 57.8" id="11,10" /><path d="M 369.5 63.0 L 369.5 68.2 L 372.1 68.2" id="11,9" /><path d="M 305.0 38.3 L 305.0 29.2 L 377.1 29.2" id="16,8" /><path d="M 346.3 38.3 L 346.3 34.4 L 364.1 34.4" id="14,7" /><path d="M 369.1 42.2 L 369.1 39.6 L 390.3 39.6" id="12,6" /><path d="M 369.1 42.2 L 369.1 44.8 L 386.5 44.8" id="12,5" /><path d="M 356.9 56.5 L 356.9 50.0 L 369.2 50.0" id="13,4" /><path d="M 377.4 57.8 L 377.4 55.2 L 377.4 55.2" id="10,3" /><path d="M 377.4 57.8 L 377.4 60.4 L 379.5 60.4" id="10,2" /><path d="M 372.1 68.2 L 372.1 65.6 L 384.3 65.6" id="9,1" /><path d="M 372.1 68.2 L 372.1 70.8 L 373.6 70.8" id="9,0" /></g><g class="toytree-Nodes" style="fill:rgb(100%,0%,0%);fill-opacity:1.0;stroke:None;stroke-width:1"><g id="node-0" transform="translate(373.561,70.833)"><circle r="2.5" /></g><g id="node-1" transform="translate(384.259,65.625)"><circle r="2.5" /></g><g id="node-2" transform="translate(379.512,60.417)"><circle r="2.5" /></g><g id="node-3" transform="translate(377.435,55.208)"><circle r="2.5" /></g><g id="node-4" transform="translate(369.250,50.000)"><circle r="2.5" /></g><g id="node-5" transform="translate(386.545,44.792)"><circle r="2.5" /></g><g id="node-6" transform="translate(390.263,39.583)"><circle r="2.5" /></g><g id="node-7" transform="translate(364.108,34.375)"><circle r="2.5" /></g><g id="node-8" transform="translate(377.144,29.167)"><circle r="2.5" /></g><g id="node-9" transform="translate(372.054,68.229)"><circle r="0.0" /></g><g id="node-10" transform="translate(377.435,57.812)"><circle r="0.0" /></g><g id="node-11" transform="translate(369.510,63.021)"><circle r="0.0" /></g><g id="node-12" transform="translate(369.136,42.188)"><circle r="0.0" /></g><g id="node-13" transform="translate(356.858,56.510)"><circle r="0.0" /></g><g id="node-14" transform="translate(346.263,38.281)"><circle r="0.0" /></g><g id="node-15" transform="translate(340.425,47.396)"><circle r="0.0" /></g><g id="node-16" transform="translate(305.000,38.281)"><circle r="0.0" /></g></g></g></g></g><g class="toyplot-coordinates-Cartesian" id="t3098021b7ed04f92882603d2aa00cdf7"><clipPath id="tb9688bdf8d7a41128ac3aeda51c83762"><rect x="435.0" y="15.0" width="110.0" height="70.0" /></clipPath><g clip-path="url(#tb9688bdf8d7a41128ac3aeda51c83762)"><g class="toytree-mark-Toytree" id="tb4904bd3625e46a9827db1fe26c7252b"><g class="toytree-Edges" style="fill:none;stroke:rgb(14.9%,14.9%,14.9%);stroke-linecap:round;stroke-opacity:1;stroke-width:0.5"><path d="M 445.0 41.5 L 445.0 33.1 L 454.5 33.1" id="16,15" /><path d="M 445.0 41.5 L 445.0 49.8 L 459.0 49.8" id="16,14" /><path d="M 454.5 33.1 L 454.5 37.0 L 455.3 37.0" id="15,13" /><path d="M 459.0 49.8 L 459.0 54.9 L 459.0 54.9" id="14,12" /><path d="M 459.0 54.9 L 459.0 59.8 L 459.0 59.8" id="12,11" /><path d="M 459.0 59.8 L 459.0 64.3 L 461.9 64.3" id="11,10" /><path d="M 461.9 64.3 L 461.9 68.2 L 461.9 68.2" id="10,9" /><path d="M 454.5 33.1 L 454.5 29.2 L 530.3 29.2" id="15,8" /><path d="M 455.3 37.0 L 455.3 34.4 L 458.2 34.4" id="13,7" /><path d="M 455.3 37.0 L 455.3 39.6 L 458.2 39.6" id="13,6" /><path d="M 459.0 49.8 L 459.0 44.8 L 461.9 44.8" id="14,5" /><path d="M 459.0 54.9 L 459.0 50.0 L 461.9 50.0" id="12,4" /><path d="M 459.0 59.8 L 459.0 55.2 L 459.0 55.2" id="11,3" /><path d="M 461.9 64.3 L 461.9 60.4 L 461.9 60.4" id="10,2" /><path d="M 461.9 68.2 L 461.9 65.6 L 461.9 65.6" id="9,1" /><path d="M 461.9 68.2 L 461.9 70.8 L 461.9 70.8" id="9,0" /></g><g class="toytree-Nodes" style="fill:rgb(100%,0%,0%);fill-opacity:1.0;stroke:None;stroke-width:1"><g id="node-0" transform="translate(461.905,70.833)"><circle r="2.5" /></g><g id="node-1" transform="translate(461.905,65.625)"><circle r="2.5" /></g><g id="node-2" transform="translate(461.905,60.417)"><circle r="2.5" /></g><g id="node-3" transform="translate(459.028,55.208)"><circle r="2.5" /></g><g id="node-4" transform="translate(461.893,50.000)"><circle r="2.5" /></g><g id="node-5" transform="translate(461.902,44.792)"><circle r="2.5" /></g><g id="node-6" transform="translate(458.219,39.583)"><circle r="2.5" /></g><g id="node-7" transform="translate(458.156,34.375)"><circle r="2.5" /></g><g id="node-8" transform="translate(530.263,29.167)"><circle r="2.5" /></g><g id="node-9" transform="translate(461.905,68.229)"><circle r="0.0" /></g><g id="node-10" transform="translate(461.905,64.323)"><circle r="0.0" /></g><g id="node-11" transform="translate(459.028,59.766)"><circle r="0.0" /></g><g id="node-12" transform="translate(459.028,54.883)"><circle r="0.0" /></g><g id="node-13" transform="translate(455.276,36.979)"><circle r="0.0" /></g><g id="node-14" transform="translate(459.028,49.837)"><circle r="0.0" /></g><g id="node-15" transform="translate(454.476,33.073)"><circle r="0.0" /></g><g id="node-16" transform="translate(445.000,41.455)"><circle r="0.0" /></g></g></g></g></g></svg>