<svg class="toyplot-canvas-Canvas" xmlns:toyplot="http://www.sandia.gov/toyplot" xmlns:xlink="http://www.w3.org/1999/xlink" xmlns="http://www.w3.org/2000/svg" width="560.0px" height="100.0px" viewBox="0 0 560.0 100.0" preserveAspectRatio="xMidYMid meet" style="background-color:transparent;border-color:#292724;border-style:none;border-width:1.0;fill:rgb(16.1%,15.3%,14.1%);fill-opacity:1.0;font-family:Helvetica;font-size:12px;opacity:1.0;stroke:rgb(16.1%,15.3%,14.1%);stroke-opacity:1.0;stroke-width:1.0" id="t8042ee86060c48f79827e684f703f48f"><g class="toyplot-coordinates-Cartesian" id="tf57994ba7534498aa6fe2ab874d6536a"><clipPath id="taeba5e361e50498484e6a565d9011e74"><rect x="15.0" y="15.0" width="110.0" height="70.0" /></clipPath><g clip-path="url(#taeba5e361e50498484e6a565d9011e74)"><g class="toytree-mark-Toytree" id="tf1c52ed82f5c4ea0820ea1bd207dc3e6"><g class="toytree-Edges" style="fill:none;stroke:rgb(14.9%,14.9%,14.9%);stroke-linecap:round;stroke-opacity:1;stroke-width:0.5"><path d="M 25.0 31.3 L 25.0 33.4 L 36.3 33.4" id="62,61" /><path d="M 36.3 33.4 L 36.3 36.4 L 41.9 36.4" id="61,60" /><path d="M 41.9 36.4 L 41.9 32.9 L 62.5 32.9" id="60,59" /><path d="M 41.9 36.4 L 41.9 39.9 L 43.6 39.9" id="60,58" /><path d="M 62.5 32.9 L 62.5 33.9 L 73.2 33.9" id="59,57" /><path d="M 43.6 39.9 L 43.6 43.9 L 49.9 43.9" id="58,56" /><path d="M 49.9 43.9 L 49.9 37.9 L 51.5 37.9" id="56,55" /><path d="M 49.9 43.9 L 49.9 50.0 L 55.5 50.0" id="56,54" /><path d="M 55.5 50.0 L 55.5 41.9 L 61.4 41.9" id="54,53" /><path d="M 55.5 50.0 L 55.5 58.1 L 61.0 58.1" id="54,52" /><path d="M 61.4 41.9 L 61.4 43.8 L 63.6 43.8" id="53,51" /><path d="M 61.0 58.1 L 61.0 61.5 L 64.3 61.5" id="52,50" /><path d="M 63.6 43.8 L 63.6 41.9 L 73.4 41.9" id="51,49" /><path d="M 63.6 43.8 L 63.6 45.6 L 66.5 45.6" id="51,48" /><path d="M 64.3 61.5 L 64.3 58.2 L 68.0 58.2" id="50,47" /><path d="M 64.3 61.5 L 64.3 64.8 L 77.0 64.8" id="50,46" /><path d="M 66.5 45.6 L 66.5 47.3 L 77.0 47.3" id="48,45" /><path d="M 68.0 58.2 L 68.0 56.7 L 74.4 56.7" id="47,44" /><path d="M 68.0 58.2 L 68.0 59.7 L 69.8 59.7" id="47,43" /><path d="M 77.0 64.8 L 77.0 66.8 L 81.4 66.8" id="46,42" /><path d="M 77.0 47.3 L 77.0 49.3 L 83.6 49.3" id="45,41" /><path d="M 69.8 59.7 L 69.8 60.8 L 76.1 60.8" id="43,40" /><path d="M 81.4 66.8 L 81.4 64.8 L 94.0 64.8" id="42,39" /><path d="M 81.4 66.8 L 81.4 68.8 L 83.1 68.8" id="42,38" /><path d="M 83.6 49.3 L 83.6 47.3 L 89.3 47.3" id="41,37" /><path d="M 83.6 49.3 L 83.6 51.3 L 85.6 51.3" id="41,36" /><path d="M 83.1 68.8 L 83.1 67.5 L 86.3 67.5" id="38,35" /><path d="M 83.1 68.8 L 83.1 70.2 L 87.2 70.2" id="38,34" /><path d="M 85.6 51.3 L 85.6 50.0 L 86.1 50.0" id="36,33" /><path d="M 85.6 51.3 L 85.6 52.7 L 86.9 52.7" id="36,32" /><path d="M 25.0 31.3 L 25.0 29.2 L 92.9 29.2" id="62,31" /><path d="M 36.3 33.4 L 36.3 30.5 L 107.6 30.5" id="61,30" /><path d="M 62.5 32.9 L 62.5 31.9 L 101.0 31.9" id="59,29" /><path d="M 73.2 33.9 L 73.2 33.2 L 100.9 33.2" id="57,28" /><path d="M 73.2 33.9 L 73.2 34.5 L 110.3 34.5" id="57,27" /><path d="M 43.6 39.9 L 43.6 35.9 L 94.2 35.9" id="58,26" /><path d="M 51.5 37.9 L 51.5 37.2 L 85.6 37.2" id="55,25" /><path d="M 51.5 37.9 L 51.5 38.6 L 96.6 38.6" id="55,24" /><path d="M 61.4 41.9 L 61.4 39.9 L 100.3 39.9" id="53,23" /><path d="M 73.4 41.9 L 73.4 41.3 L 92.1 41.3" id="49,22" /><path d="M 73.4 41.9 L 73.4 42.6 L 88.4 42.6" id="49,21" /><path d="M 66.5 45.6 L 66.5 44.0 L 93.1 44.0" id="48,20" /><path d="M 77.0 47.3 L 77.0 45.3 L 97.8 45.3" id="45,19" /><path d="M 89.3 47.3 L 89.3 46.6 L 90.8 46.6" id="37,18" /><path d="M 89.3 47.3 L 89.3 48.0 L 89.3 48.0" id="37,17" /><path d="M 86.1 50.0 L 86.1 49.3 L 88.2 49.3" id="33,16" /><path d="M 86.1 50.0 L 86.1 50.7 L 87.2 50.7" id="33,15" /><path d="M 86.9 52.7 L 86.9 52.0 L 87.0 52.0" id="32,14" /><path d="M 86.9 52.7 L 86.9 53.4 L 87.5 53.4" id="32,13" /><path d="M 61.0 58.1 L 61.0 54.7 L 102.8 54.7" id="52,12" /><path d="M 74.4 56.7 L 74.4 56.0 L 91.7 56.0" id="44,11" /><path d="M 74.4 56.7 L 74.4 57.4 L 96.7 57.4" id="44,10" /><path d="M 69.8 59.7 L 69.8 58.7 L 86.8 58.7" id="43,9" /><path d="M 76.1 60.8 L 76.1 60.1 L 93.1 60.1" id="40,8" /><path d="M 76.1 60.8 L 76.1 61.4 L 90.1 61.4" id="40,7" /><path d="M 77.0 64.8 L 77.0 62.8 L 96.9 62.8" id="46,6" /><path d="M 94.0 64.8 L 94.0 64.1 L 94.3 64.1" id="39,5" /><path d="M 94.0 64.8 L 94.0 65.5 L 94.1 65.5" id="39,4" /><path d="M 86.3 67.5 L 86.3 66.8 L 86.3 66.8" id="35,3" /><path d="M 86.3 67.5 L 86.3 68.1 L 88.2 68.1" id="35,2" /><path d="M 87.2 70.2 L 87.2 69.5 L 88.4 69.5" id="34,1" /><path d="M 87.2 70.2 L 87.2 70.8 L 88.8 70.8" id="34,0" /></g><g class="toytree-Nodes" style="fill:rgb(100%,0%,0%);fill-opacity:1.0;stroke:None;stroke-width:1"><g id="node-0" transform="translate(88.783,70.833)"><circle r="2.5" /></g><g id="node-1" transform="translate(88.360,69.489)"><circle r="2.5" /></g><g id="node-2" transform="translate(88.182,68.145)"><circle r="2.5" /></g><g id="node-3" transform="translate(86.291,66.801)"><circle r="2.5" /></g><g id="node-4" transform="translate(94.079,65.457)"><circle r="2.5" /></g><g id="node-5" transform="translate(94.283,64.113)"><circle r="2.5" /></g><g id="node-6" transform="translate(96.921,62.769)"><circle r="2.5" /></g><g id="node-7" transform="translate(90.054,61.425)"><circle r="2.5" /></g><g id="node-8" transform="translate(93.110,60.081)"><circle r="2.5" /></g><g id="node-9" transform="translate(86.754,58.737)"><circle r="2.5" /></g><g id="node-10" transform="translate(96.690,57.392)"><circle r="2.5" /></g><g id="node-11" transform="translate(91.705,56.048)"><circle r="2.5" /></g><g id="node-12" transform="translate(102.842,54.704)"><circle r="2.5" /></g><g id="node-13" transform="translate(87.469,53.360)"><circle r="2.5" /></g><g id="node-14" transform="translate(87.015,52.016)"><circle r="2.5" /></g><g id="node-15" transform="translate(87.238,50.672)"><circle r="2.5" /></g><g id="node-16" transform="translate(88.191,49.328)"><circle r="2.5" /></g><g id="node-17" transform="translate(89.311,47.984)"><circle r="2.5" /></g><g id="node-18" transform="translate(90.824,46.640)"><circle r="2.5" /></g><g id="node-19" transform="translate(97.755,45.296)"><circle r="2.5" /></g><g id="node-20" transform="translate(93.089,43.952)"><circle r="2.5" /></g><g id="node-21" transform="translate(88.384,42.608)"><circle r="2.5" /></g><g id="node-22" transform="translate(92.129,41.263)"><circle r="2.5" /></g><g id="node-23" transform="translate(100.263,39.919)"><circle r="2.5" /></g><g id="node-24" transform="translate(96.634,38.575)"><circle r="2.5" /></g><g id="node-25" transform="translate(85.600,37.231)"><circle r="2.5" /></g><g id="node-26" transform="translate(94.230,35.887)"><circle r="2.5" /></g><g id="node-27" transform="translate(110.263,34.543)"><circle r="2.5" /></g><g id="node-28" transform="translate(100.921,33.199)"><circle r="2.5" /></g><g id="node-29" transform="translate(100.968,31.855)"><circle r="2.5" /></g><g id="node-30" transform="translate(107.572,30.511)"><circle r="2.5" /></g><g id="node-31" transform="translate(92.870,29.167)"><circle r="2.5" /></g><g id="node-32" transform="translate(86.864,52.688)"><circle r="0.0" /></g><g id="node-33" transform="translate(86.107,50.000)"><circle r="0.0" /></g><g id="node-34" transform="translate(87.153,70.161)"><circle r="0.0" /></g><g id="node-35" transform="translate(86.291,67.473)"><circle r="0.0" /></g><g id="node-36" transform="translate(85.634,51.344)"><circle r="0.0" /></g><g id="node-37" transform="translate(89.311,47.312)"><circle r="0.0" /></g><g id="node-38" transform="translate(83.081,68.817)"><circle r="0.0" /></g><g id="node-39" transform="translate(93.992,64.785)"><circle r="0.0" /></g><g id="node-40" transform="translate(76.075,60.753)"><circle r="0.0" /></g><g id="node-41" transform="translate(83.607,49.328)"><circle r="0.0" /></g><g id="node-42" transform="translate(81.410,66.801)"><circle r="0.0" /></g><g id="node-43" transform="translate(69.807,59.745)"><circle r="0.0" /></g><g id="node-44" transform="translate(74.435,56.720)"><circle r="0.0" /></g><g id="node-45" transform="translate(76.952,47.312)"><circle r="0.0" /></g><g id="node-46" transform="translate(77.015,64.785)"><circle r="0.0" /></g><g id="node-47" transform="translate(68.026,58.233)"><circle r="0.0" /></g><g id="node-48" transform="translate(66.484,45.632)"><circle r="0.0" /></g><g id="node-49" transform="translate(73.425,41.935)"><circle r="0.0" /></g><g id="node-50" transform="translate(64.327,61.509)"><circle r="0.0" /></g><g id="node-51" transform="translate(63.570,43.784)"><circle r="0.0" /></g><g id="node-52" transform="translate(60.985,58.107)"><circle r="0.0" /></g><g id="node-53" transform="translate(61.433,41.851)"><circle r="0.0" /></g><g id="node-54" transform="translate(55.474,49.979)"><circle r="0.0" /></g><g id="node-55" transform="translate(51.497,37.903)"><circle r="0.0" /></g><g id="node-56" transform="translate(49.933,43.941)"><circle r="0.0" /></g><g id="node-57" transform="translate(73.158,33.871)"><circle r="0.0" /></g><g id="node-58" transform="translate(43.562,39.914)"><circle r="0.0" /></g><g id="node-59" transform="translate(62.549,32.863)"><circle r="0.0" /></g><g id="node-60" transform="translate(41.931,36.389)"><circle r="0.0" /></g><g id="node-61" transform="translate(36.298,33.450)"><circle r="0.0" /></g><g id="node-62" transform="translate(25.000,31.308)"><circle r="0.0" /></g></g></g></g></g><g class="toyplot-coordinates-Cartesian" id="tc132f54b549a4d25aadae938013c9256"><clipPath id="tca694d3a07ff4e90847c95c9178cc0f3"><rect x="155.0" y="15.0" width="110.0" height="70.0" /></clipPath><g clip-path="url(#tca694d3a07ff4e90847c95c9178cc0f3)"><g class="toytree-mark-Toytree" id="tb5ecd3650b0041f18036f2de3c01516c"><g class="toytree-Edges" style="fill:none;stroke:rgb(14.9%,14.9%,14.9%);stroke-linecap:round;stroke-opacity:1;stroke-width:0.5"><path d="M 165.0 41.6 L 165.0 31.7 L 165.7 31.7" id="62,61" /><path d="M 165.0 41.6 L 165.0 51.6 L 169.2 51.6" id="62,60" /><path d="M 165.7 31.7 L 165.7 29.8 L 168.2 29.8" id="61,59" /><path d="M 165.7 31.7 L 165.7 33.6 L 168.6 33.6" id="61,58" /><path d="M 169.2 51.6 L 169.2 49.0 L 171.4 49.0" id="60,57" /><path d="M 169.2 51.6 L 169.2 54.2 L 172.5 54.2" id="60,56" /><path d="M 168.6 33.6 L 168.6 35.3 L 171.1 35.3" id="58,55" /><path d="M 171.4 49.0 L 171.4 50.0 L 177.4 50.0" id="57,54" /><path d="M 172.5 54.2 L 172.5 56.4 L 176.4 56.4" id="56,53" /><path d="M 171.1 35.3 L 171.1 37.4 L 180.0 37.4" id="55,52" /><path d="M 176.4 56.4 L 176.4 59.4 L 177.2 59.4" id="53,51" /><path d="M 180.0 37.4 L 180.0 40.3 L 183.0 40.3" id="52,50" /><path d="M 177.2 59.4 L 177.2 56.7 L 179.0 56.7" id="51,49" /><path d="M 177.2 59.4 L 177.2 62.0 L 181.6 62.0" id="51,48" /><path d="M 183.0 40.3 L 183.0 37.1 L 183.5 37.1" id="50,47" /><path d="M 183.0 40.3 L 183.0 43.4 L 187.4 43.4" id="50,46" /><path d="M 179.0 56.7 L 179.0 55.4 L 185.9 55.4" id="49,45" /><path d="M 179.0 56.7 L 179.0 58.1 L 185.5 58.1" id="49,44" /><path d="M 181.6 62.0 L 181.6 64.0 L 183.0 64.0" id="48,43" /><path d="M 183.5 37.1 L 183.5 38.2 L 192.5 38.2" id="47,42" /><path d="M 187.4 43.4 L 187.4 41.9 L 196.0 41.9" id="46,41" /><path d="M 187.4 43.4 L 187.4 45.0 L 193.4 45.0" id="46,40" /><path d="M 183.0 64.0 L 183.0 62.1 L 187.3 62.1" id="43,39" /><path d="M 183.0 64.0 L 183.0 65.9 L 185.0 65.9" id="43,38" /><path d="M 192.5 38.2 L 192.5 39.2 L 198.1 39.2" id="42,37" /><path d="M 193.4 45.0 L 193.4 46.0 L 203.9 46.0" id="40,36" /><path d="M 185.0 65.9 L 185.0 67.6 L 189.9 67.6" id="38,35" /><path d="M 189.9 67.6 L 189.9 66.1 L 196.6 66.1" id="35,34" /><path d="M 189.9 67.6 L 189.9 69.2 L 196.1 69.2" id="35,33" /><path d="M 196.1 69.2 L 196.1 70.2 L 198.4 70.2" id="33,32" /><path d="M 168.2 29.8 L 168.2 29.2 L 217.9 29.2" id="59,31" /><path d="M 168.2 29.8 L 168.2 30.5 L 211.3 30.5" id="59,30" /><path d="M 168.6 33.6 L 168.6 31.9 L 216.7 31.9" id="58,29" /><path d="M 171.1 35.3 L 171.1 33.2 L 229.3 33.2" id="55,28" /><path d="M 180.0 37.4 L 180.0 34.5 L 233.5 34.5" id="52,27" /><path d="M 183.5 37.1 L 183.5 35.9 L 223.5 35.9" id="47,26" /><path d="M 192.5 38.2 L 192.5 37.2 L 217.0 37.2" id="42,25" /><path d="M 198.1 39.2 L 198.1 38.6 L 217.8 38.6" id="37,24" /><path d="M 198.1 39.2 L 198.1 39.9 L 218.4 39.9" id="37,23" /><path d="M 196.0 41.9 L 196.0 41.3 L 210.0 41.3" id="41,22" /><path d="M 196.0 41.9 L 196.0 42.6 L 210.6 42.6" id="41,21" /><path d="M 193.4 45.0 L 193.4 44.0 L 210.9 44.0" id="40,20" /><path d="M 203.9 46.0 L 203.9 45.3 L 209.0 45.3" id="36,19" /><path d="M 203.9 46.0 L 203.9 46.6 L 209.2 46.6" id="36,18" /><path d="M 171.4 49.0 L 171.4 48.0 L 228.7 48.0" id="57,17" /><path d="M 177.4 50.0 L 177.4 49.3 L 220.2 49.3" id="54,16" /><path d="M 177.4 50.0 L 177.4 50.7 L 226.7 50.7" id="54,15" /><path d="M 172.5 54.2 L 172.5 52.0 L 226.4 52.0" id="56,14" /><path d="M 176.4 56.4 L 176.4 53.4 L 205.4 53.4" id="53,13" /><path d="M 185.9 55.4 L 185.9 54.7 L 206.3 54.7" id="45,12" /><path d="M 185.9 55.4 L 185.9 56.0 L 202.4 56.0" id="45,11" /><path d="M 185.5 58.1 L 185.5 57.4 L 219.0 57.4" id="44,10" /><path d="M 185.5 58.1 L 185.5 58.7 L 213.0 58.7" id="44,9" /><path d="M 181.6 62.0 L 181.6 60.1 L 203.8 60.1" id="48,8" /><path d="M 187.3 62.1 L 187.3 61.4 L 203.4 61.4" id="39,7" /><path d="M 187.3 62.1 L 187.3 62.8 L 217.9 62.8" id="39,6" /><path d="M 185.0 65.9 L 185.0 64.1 L 203.2 64.1" id="38,5" /><path d="M 196.6 66.1 L 196.6 65.5 L 250.3 65.5" id="34,4" /><path d="M 196.6 66.1 L 196.6 66.8 L 234.5 66.8" id="34,3" /><path d="M 196.1 69.2 L 196.1 68.1 L 226.1 68.1" id="33,2" /><path d="M 198.4 70.2 L 198.4 69.5 L 222.2 69.5" id="32,1" /><path d="M 198.4 70.2 L 198.4 70.8 L 229.0 70.8" id="32,0" /></g><g class="toytree-Nodes" style="fill:rgb(100%,0%,0%);fill-opacity:1.0;stroke:None;stroke-width:1"><g id="node-0" transform="translate(229.000,70.833)"><circle r="2.5" /></g><g id="node-1" transform="translate(222.243,69.489)"><circle r="2.5" /></g><g id="node-2" transform="translate(226.143,68.145)"><circle r="2.5" /></g><g id="node-3" transform="translate(234.525,66.801)"><circle r="2.5" /></g><g id="node-4" transform="translate(250.263,65.457)"><circle r="2.5" /></g><g id="node-5" transform="translate(203.183,64.113)"><circle r="2.5" /></g><g id="node-6" transform="translate(217.870,62.769)"><circle r="2.5" /></g><g id="node-7" transform="translate(203.414,61.425)"><circle r="2.5" /></g><g id="node-8" transform="translate(203.752,60.081)"><circle r="2.5" /></g><g id="node-9" transform="translate(213.026,58.737)"><circle r="2.5" /></g><g id="node-10" transform="translate(219.027,57.392)"><circle r="2.5" /></g><g id="node-11" transform="translate(202.363,56.048)"><circle r="2.5" /></g><g id="node-12" transform="translate(206.285,54.704)"><circle r="2.5" /></g><g id="node-13" transform="translate(205.409,53.360)"><circle r="2.5" /></g><g id="node-14" transform="translate(226.422,52.016)"><circle r="2.5" /></g><g id="node-15" transform="translate(226.723,50.672)"><circle r="2.5" /></g><g id="node-16" transform="translate(220.179,49.328)"><circle r="2.5" /></g><g id="node-17" transform="translate(228.729,47.984)"><circle r="2.5" /></g><g id="node-18" transform="translate(209.183,46.640)"><circle r="2.5" /></g><g id="node-19" transform="translate(208.965,45.296)"><circle r="2.5" /></g><g id="node-20" transform="translate(210.906,43.952)"><circle r="2.5" /></g><g id="node-21" transform="translate(210.624,42.608)"><circle r="2.5" /></g><g id="node-22" transform="translate(210.023,41.263)"><circle r="2.5" /></g><g id="node-23" transform="translate(218.422,39.919)"><circle r="2.5" /></g><g id="node-24" transform="translate(217.810,38.575)"><circle r="2.5" /></g><g id="node-25" transform="translate(217.049,37.231)"><circle r="2.5" /></g><g id="node-26" transform="translate(223.503,35.887)"><circle r="2.5" /></g><g id="node-27" transform="translate(233.486,34.543)"><circle r="2.5" /></g><g id="node-28" transform="translate(229.267,33.199)"><circle r="2.5" /></g><g id="node-29" transform="translate(216.719,31.855)"><circle r="2.5" /></g><g id="node-30" transform="translate(211.313,30.511)"><circle r="2.5" /></g><g id="node-31" transform="translate(217.868,29.167)"><circle r="2.5" /></g><g id="node-32" transform="translate(198.434,70.161)"><circle r="0.0" /></g><g id="node-33" transform="translate(196.128,69.153)"><circle r="0.0" /></g><g id="node-34" transform="translate(196.599,66.129)"><circle r="0.0" /></g><g id="node-35" transform="translate(189.852,67.641)"><circle r="0.0" /></g><g id="node-36" transform="translate(203.860,45.968)"><circle r="0.0" /></g><g id="node-37" transform="translate(198.084,39.247)"><circle r="0.0" /></g><g id="node-38" transform="translate(184.990,65.877)"><circle r="0.0" /></g><g id="node-39" transform="translate(187.339,62.097)"><circle r="0.0" /></g><g id="node-40" transform="translate(193.397,44.960)"><circle r="0.0" /></g><g id="node-41" transform="translate(196.039,41.935)"><circle r="0.0" /></g><g id="node-42" transform="translate(192.543,38.239)"><circle r="0.0" /></g><g id="node-43" transform="translate(182.994,63.987)"><circle r="0.0" /></g><g id="node-44" transform="translate(185.514,58.065)"><circle r="0.0" /></g><g id="node-45" transform="translate(185.889,55.376)"><circle r="0.0" /></g><g id="node-46" transform="translate(187.366,43.448)"><circle r="0.0" /></g><g id="node-47" transform="translate(183.509,37.063)"><circle r="0.0" /></g><g id="node-48" transform="translate(181.638,62.034)"><circle r="0.0" /></g><g id="node-49" transform="translate(179.028,56.720)"><circle r="0.0" /></g><g id="node-50" transform="translate(182.964,40.255)"><circle r="0.0" /></g><g id="node-51" transform="translate(177.158,59.377)"><circle r="0.0" /></g><g id="node-52" transform="translate(180.005,37.399)"><circle r="0.0" /></g><g id="node-53" transform="translate(176.405,56.369)"><circle r="0.0" /></g><g id="node-54" transform="translate(177.443,50.000)"><circle r="0.0" /></g><g id="node-55" transform="translate(171.051,35.299)"><circle r="0.0" /></g><g id="node-56" transform="translate(172.511,54.192)"><circle r="0.0" /></g><g id="node-57" transform="translate(171.409,48.992)"><circle r="0.0" /></g><g id="node-58" transform="translate(168.636,33.577)"><circle r="0.0" /></g><g id="node-59" transform="translate(168.183,29.839)"><circle r="0.0" /></g><g id="node-60" transform="translate(169.249,51.592)"><circle r="0.0" /></g><g id="node-61" transform="translate(165.696,31.708)"><circle r="0.0" /></g><g id="node-62" transform="translate(165.000,41.650)"><circle r="0.0" /></g></g></g></g></g><g class="toyplot-coordinates-Cartesian" id="td1b03abc7e434b208e40ce56338f51d6"><clipPath id="t179f8ca9c2e2490386bdc018493380c2"><rect x="295.0" y="15.0" width="110.0" height="70.0" /></clipPath><g clip-path="url(#t179f8ca9c2e2490386bdc018493380c2)"><g class="toytree-mark-Toytree" id="t165c8c4885d54b0e8fad507deb49d817"><g class="toytree-Edges" style="fill:none;stroke:rgb(14.9%,14.9%,14.9%);stroke-linecap:round;stroke-opacity:1;stroke-width:0.5"><path d="M 305.0 31.7 L 305.0 34.2 L 313.4 34.2" id="62,61" /><path d="M 313.4 34.2 L 313.4 31.5 L 322.6 31.5" id="61,60" /><path d="M 313.4 34.2 L 313.4 36.8 L 326.6 36.8" id="61,59" /><path d="M 322.6 31.5 L 322.6 32.5 L 326.3 32.5" id="60,58" /><path d="M 326.6 36.8 L 326.6 39.1 L 329.0 39.1" id="59,57" /><path d="M 329.0 39.1 L 329.0 36.6 L 334.3 36.6" id="57,56" /><path d="M 329.0 39.1 L 329.0 41.6 L 329.7 41.6" id="57,55" /><path d="M 329.7 41.6 L 329.7 39.2 L 333.8 39.2" id="55,54" /><path d="M 329.7 41.6 L 329.7 44.0 L 331.6 44.0" id="55,53" /><path d="M 331.6 44.0 L 331.6 46.7 L 333.0 46.7" id="53,52" /><path d="M 333.0 46.7 L 333.0 50.8 L 334.3 50.8" id="52,51" /><path d="M 334.3 50.8 L 334.3 45.7 L 335.4 45.7" id="51,50" /><path d="M 334.3 50.8 L 334.3 56.0 L 335.6 56.0" id="51,49" /><path d="M 335.4 45.7 L 335.4 47.5 L 336.9 47.5" id="50,48" /><path d="M 335.6 56.0 L 335.6 52.7 L 339.2 52.7" id="49,47" /><path d="M 335.6 56.0 L 335.6 59.3 L 337.9 59.3" id="49,46" /><path d="M 336.9 47.5 L 336.9 46.0 L 341.2 46.0" id="48,45" /><path d="M 336.9 47.5 L 336.9 49.0 L 339.6 49.0" id="48,44" /><path d="M 337.9 59.3 L 337.9 56.7 L 339.8 56.7" id="46,43" /><path d="M 337.9 59.3 L 337.9 61.8 L 338.2 61.8" id="46,42" /><path d="M 339.6 49.0 L 339.6 50.0 L 340.6 50.0" id="44,41" /><path d="M 339.8 56.7 L 339.8 55.4 L 343.0 55.4" id="43,40" /><path d="M 339.8 56.7 L 339.8 58.1 L 341.1 58.1" id="43,39" /><path d="M 338.2 61.8 L 338.2 63.5 L 340.4 63.5" id="42,38" /><path d="M 340.4 63.5 L 340.4 65.5 L 341.8 65.5" id="38,37" /><path d="M 341.8 65.5 L 341.8 63.4 L 349.6 63.4" id="37,36" /><path d="M 341.8 65.5 L 341.8 67.6 L 342.9 67.6" id="37,35" /><path d="M 342.9 67.6 L 342.9 66.1 L 347.9 66.1" id="35,34" /><path d="M 342.9 67.6 L 342.9 69.2 L 348.5 69.2" id="35,33" /><path d="M 348.5 69.2 L 348.5 70.2 L 350.2 70.2" id="33,32" /><path d="M 305.0 31.7 L 305.0 29.2 L 357.5 29.2" id="62,31" /><path d="M 322.6 31.5 L 322.6 30.5 L 367.6 30.5" id="60,30" /><path d="M 326.3 32.5 L 326.3 31.9 L 358.8 31.9" id="58,29" /><path d="M 326.3 32.5 L 326.3 33.2 L 347.4 33.2" id="58,28" /><path d="M 326.6 36.8 L 326.6 34.5 L 354.4 34.5" id="59,27" /><path d="M 334.3 36.6 L 334.3 35.9 L 365.1 35.9" id="56,26" /><path d="M 334.3 36.6 L 334.3 37.2 L 390.3 37.2" id="56,25" /><path d="M 333.8 39.2 L 333.8 38.6 L 352.8 38.6" id="54,24" /><path d="M 333.8 39.2 L 333.8 39.9 L 370.8 39.9" id="54,23" /><path d="M 331.6 44.0 L 331.6 41.3 L 357.1 41.3" id="53,22" /><path d="M 333.0 46.7 L 333.0 42.6 L 354.5 42.6" id="52,21" /><path d="M 335.4 45.7 L 335.4 44.0 L 356.1 44.0" id="50,20" /><path d="M 341.2 46.0 L 341.2 45.3 L 360.7 45.3" id="45,19" /><path d="M 341.2 46.0 L 341.2 46.6 L 354.8 46.6" id="45,18" /><path d="M 339.6 49.0 L 339.6 48.0 L 363.4 48.0" id="44,17" /><path d="M 340.6 50.0 L 340.6 49.3 L 359.2 49.3" id="41,16" /><path d="M 340.6 50.0 L 340.6 50.7 L 361.8 50.7" id="41,15" /><path d="M 339.2 52.7 L 339.2 52.0 L 347.8 52.0" id="47,14" /><path d="M 339.2 52.7 L 339.2 53.4 L 349.4 53.4" id="47,13" /><path d="M 343.0 55.4 L 343.0 54.7 L 354.1 54.7" id="40,12" /><path d="M 343.0 55.4 L 343.0 56.0 L 349.9 56.0" id="40,11" /><path d="M 341.1 58.1 L 341.1 57.4 L 358.7 57.4" id="39,10" /><path d="M 341.1 58.1 L 341.1 58.7 L 359.3 58.7" id="39,9" /><path d="M 338.2 61.8 L 338.2 60.1 L 359.1 60.1" id="42,8" /><path d="M 340.4 63.5 L 340.4 61.4 L 360.5 61.4" id="38,7" /><path d="M 349.6 63.4 L 349.6 62.8 L 354.6 62.8" id="36,6" /><path d="M 349.6 63.4 L 349.6 64.1 L 354.2 64.1" id="36,5" /><path d="M 347.9 66.1 L 347.9 65.5 L 359.2 65.5" id="34,4" /><path d="M 347.9 66.1 L 347.9 66.8 L 359.9 66.8" id="34,3" /><path d="M 348.5 69.2 L 348.5 68.1 L 357.2 68.1" id="33,2" /><path d="M 350.2 70.2 L 350.2 69.5 L 356.7 69.5" id="32,1" /><path d="M 350.2 70.2 L 350.2 70.8 L 357.4 70.8" id="32,0" /></g><g class="toytree-Nodes" style="fill:rgb(100%,0%,0%);fill-opacity:1.0;stroke:None;stroke-width:1"><g id="node-0" transform="translate(357.382,70.833)"><circle r="2.5" /></g><g id="node-1" transform="translate(356.725,69.489)"><circle r="2.5" /></g><g id="node-2" transform="translate(357.210,68.145)"><circle r="2.5" /></g><g id="node-3" transform="translate(359.930,66.801)"><circle r="2.5" /></g><g id="node-4" transform="translate(359.193,65.457)"><circle r="2.5" /></g><g id="node-5" transform="translate(354.212,64.113)"><circle r="2.5" /></g><g id="node-6" transform="translate(354.557,62.769)"><circle r="2.5" /></g><g id="node-7" transform="translate(360.455,61.425)"><circle r="2.5" /></g><g id="node-8" transform="translate(359.053,60.081)"><circle r="2.5" /></g><g id="node-9" transform="translate(359.345,58.737)"><circle r="2.5" /></g><g id="node-10" transform="translate(358.704,57.392)"><circle r="2.5" /></g><g id="node-11" transform="translate(349.909,56.048)"><circle r="2.5" /></g><g id="node-12" transform="translate(354.116,54.704)"><circle r="2.5" /></g><g id="node-13" transform="translate(349.408,53.360)"><circle r="2.5" /></g><g id="node-14" transform="translate(347.757,52.016)"><circle r="2.5" /></g><g id="node-15" transform="translate(361.786,50.672)"><circle r="2.5" /></g><g id="node-16" transform="translate(359.229,49.328)"><circle r="2.5" /></g><g id="node-17" transform="translate(363.356,47.984)"><circle r="2.5" /></g><g id="node-18" transform="translate(354.830,46.640)"><circle r="2.5" /></g><g id="node-19" transform="translate(360.688,45.296)"><circle r="2.5" /></g><g id="node-20" transform="translate(356.076,43.952)"><circle r="2.5" /></g><g id="node-21" transform="translate(354.533,42.608)"><circle r="2.5" /></g><g id="node-22" transform="translate(357.077,41.263)"><circle r="2.5" /></g><g id="node-23" transform="translate(370.821,39.919)"><circle r="2.5" /></g><g id="node-24" transform="translate(352.806,38.575)"><circle r="2.5" /></g><g id="node-25" transform="translate(390.263,37.231)"><circle r="2.5" /></g><g id="node-26" transform="translate(365.131,35.887)"><circle r="2.5" /></g><g id="node-27" transform="translate(354.405,34.543)"><circle r="2.5" /></g><g id="node-28" transform="translate(347.449,33.199)"><circle r="2.5" /></g><g id="node-29" transform="translate(358.796,31.855)"><circle r="2.5" /></g><g id="node-30" transform="translate(367.568,30.511)"><circle r="2.5" /></g><g id="node-31" transform="translate(357.523,29.167)"><circle r="2.5" /></g><g id="node-32" transform="translate(350.201,70.161)"><circle r="0.0" /></g><g id="node-33" transform="translate(348.527,69.153)"><circle r="0.0" /></g><g id="node-34" transform="translate(347.901,66.129)"><circle r="0.0" /></g><g id="node-35" transform="translate(342.865,67.641)"><circle r="0.0" /></g><g id="node-36" transform="translate(349.616,63.441)"><circle r="0.0" /></g><g id="node-37" transform="translate(341.819,65.541)"><circle r="0.0" /></g><g id="node-38" transform="translate(340.400,63.483)"><circle r="0.0" /></g><g id="node-39" transform="translate(341.134,58.065)"><circle r="0.0" /></g><g id="node-40" transform="translate(343.037,55.376)"><circle r="0.0" /></g><g id="node-41" transform="translate(340.613,50.000)"><circle r="0.0" /></g><g id="node-42" transform="translate(338.205,61.782)"><circle r="0.0" /></g><g id="node-43" transform="translate(339.751,56.720)"><circle r="0.0" /></g><g id="node-44" transform="translate(339.623,48.992)"><circle r="0.0" /></g><g id="node-45" transform="translate(341.210,45.968)"><circle r="0.0" /></g><g id="node-46" transform="translate(337.940,59.251)"><circle r="0.0" /></g><g id="node-47" transform="translate(339.186,52.688)"><circle r="0.0" /></g><g id="node-48" transform="translate(336.898,47.480)"><circle r="0.0" /></g><g id="node-49" transform="translate(335.584,55.970)"><circle r="0.0" /></g><g id="node-50" transform="translate(335.424,45.716)"><circle r="0.0" /></g><g id="node-51" transform="translate(334.298,50.843)"><circle r="0.0" /></g><g id="node-52" transform="translate(332.992,46.725)"><circle r="0.0" /></g><g id="node-53" transform="translate(331.637,43.994)"><circle r="0.0" /></g><g id="node-54" transform="translate(333.805,39.247)"><circle r="0.0" /></g><g id="node-55" transform="translate(329.662,41.621)"><circle r="0.0" /></g><g id="node-56" transform="translate(334.322,36.559)"><circle r="0.0" /></g><g id="node-57" transform="translate(328.973,39.090)"><circle r="0.0" /></g><g id="node-58" transform="translate(326.296,32.527)"><circle r="0.0" /></g><g id="node-59" transform="translate(326.620,36.816)"><circle r="0.0" /></g><g id="node-60" transform="translate(322.629,31.519)"><circle r="0.0" /></g><g id="node-61" transform="translate(313.401,34.168)"><circle r="0.0" /></g><g id="node-62" transform="translate(305.000,31.667)"><circle r="0.0" /></g></g></g></g></g><g class="toyplot-coordinates-Cartesian" id="t2d3016ba314b4daeb0518cb95d0b5701"><clipPath id="t649a03a3ad6140a9bc4652c7bb3ff25e"><rect x="435.0" y="15.0" width="110.0" height="70.0" /></clipPath><g clip-path="url(#t649a03a3ad6140a9bc4652c7bb3ff25e)"><g class="toytree-mark-Toytree" id="t8d9c9234e105488c9dd95b01a59d54ea"><g class="toytree-Edges" style="fill:none;stroke:rgb(14.9%,14.9%,14.9%);stroke-linecap:round;stroke-opacity:1;stroke-width:0.5"><path d="M 445.0 31.6 L 445.0 34.0 L 463.0 34.0" id="62,61" /><path d="M 463.0 34.0 L 463.0 31.5 L 479.2 31.5" id="61,60" /><path d="M 463.0 34.0 L 463.0 36.5 L 468.9 36.5" id="61,59" /><path d="M 479.2 31.5 L 479.2 32.5 L 484.6 32.5" id="60,58" /><path d="M 468.9 36.5 L 468.9 38.5 L 474.5 38.5" id="59,57" /><path d="M 474.5 38.5 L 474.5 41.1 L 478.1 41.1" id="57,56" /><path d="M 478.1 41.1 L 478.1 45.0 L 480.5 45.0" id="56,55" /><path d="M 480.5 45.0 L 480.5 51.4 L 488.4 51.4" id="55,54" /><path d="M 488.4 51.4 L 488.4 43.2 L 495.2 43.2" id="54,53" /><path d="M 488.4 51.4 L 488.4 59.7 L 493.1 59.7" id="54,52" /><path d="M 495.2 43.2 L 495.2 40.9 L 498.4 40.9" id="53,51" /><path d="M 495.2 43.2 L 495.2 45.4 L 498.0 45.4" id="53,50" /><path d="M 493.1 59.7 L 493.1 56.4 L 495.5 56.4" id="52,49" /><path d="M 493.1 59.7 L 493.1 63.0 L 496.5 63.0" id="52,48" /><path d="M 498.4 40.9 L 498.4 41.9 L 499.9 41.9" id="51,47" /><path d="M 498.0 45.4 L 498.0 46.8 L 502.5 46.8" id="50,46" /><path d="M 495.5 56.4 L 495.5 58.1 L 497.8 58.1" id="49,45" /><path d="M 496.5 63.0 L 496.5 64.6 L 499.6 64.6" id="48,44" /><path d="M 502.5 46.8 L 502.5 48.4 L 505.1 48.4" id="46,43" /><path d="M 497.8 58.1 L 497.8 56.7 L 500.9 56.7" id="45,42" /><path d="M 497.8 58.1 L 497.8 59.4 L 501.5 59.4" id="45,41" /><path d="M 499.6 64.6 L 499.6 66.4 L 502.3 66.4" id="44,40" /><path d="M 505.1 48.4 L 505.1 50.2 L 505.3 50.2" id="43,39" /><path d="M 502.3 66.4 L 502.3 64.8 L 503.1 64.8" id="40,38" /><path d="M 502.3 66.4 L 502.3 68.0 L 503.4 68.0" id="40,37" /><path d="M 505.3 50.2 L 505.3 48.7 L 505.7 48.7" id="39,36" /><path d="M 505.3 50.2 L 505.3 51.7 L 505.8 51.7" id="39,35" /><path d="M 503.4 68.0 L 503.4 69.2 L 503.4 69.2" id="37,34" /><path d="M 505.8 51.7 L 505.8 52.7 L 505.8 52.7" id="35,33" /><path d="M 503.4 69.2 L 503.4 70.2 L 503.5 70.2" id="34,32" /><path d="M 445.0 31.6 L 445.0 29.2 L 503.0 29.2" id="62,31" /><path d="M 479.2 31.5 L 479.2 30.5 L 493.8 30.5" id="60,30" /><path d="M 484.6 32.5 L 484.6 31.9 L 499.0 31.9" id="58,29" /><path d="M 484.6 32.5 L 484.6 33.2 L 492.3 33.2" id="58,28" /><path d="M 468.9 36.5 L 468.9 34.5 L 490.1 34.5" id="59,27" /><path d="M 474.5 38.5 L 474.5 35.9 L 530.3 35.9" id="57,26" /><path d="M 478.1 41.1 L 478.1 37.2 L 487.0 37.2" id="56,25" /><path d="M 480.5 45.0 L 480.5 38.6 L 500.6 38.6" id="55,24" /><path d="M 498.4 40.9 L 498.4 39.9 L 500.5 39.9" id="51,23" /><path d="M 499.9 41.9 L 499.9 41.3 L 505.1 41.3" id="47,22" /><path d="M 499.9 41.9 L 499.9 42.6 L 515.9 42.6" id="47,21" /><path d="M 498.0 45.4 L 498.0 44.0 L 506.7 44.0" id="50,20" /><path d="M 502.5 46.8 L 502.5 45.3 L 504.3 45.3" id="46,19" /><path d="M 505.1 48.4 L 505.1 46.6 L 505.3 46.6" id="43,18" /><path d="M 505.7 48.7 L 505.7 48.0 L 505.7 48.0" id="36,17" /><path d="M 505.7 48.7 L 505.7 49.3 L 505.9 49.3" id="36,16" /><path d="M 505.8 51.7 L 505.8 50.7 L 505.8 50.7" id="35,15" /><path d="M 505.8 52.7 L 505.8 52.0 L 506.1 52.0" id="33,14" /><path d="M 505.8 52.7 L 505.8 53.4 L 505.8 53.4" id="33,13" /><path d="M 495.5 56.4 L 495.5 54.7 L 498.8 54.7" id="49,12" /><path d="M 500.9 56.7 L 500.9 56.0 L 505.7 56.0" id="42,11" /><path d="M 500.9 56.7 L 500.9 57.4 L 504.5 57.4" id="42,10" /><path d="M 501.5 59.4 L 501.5 58.7 L 504.4 58.7" id="41,9" /><path d="M 501.5 59.4 L 501.5 60.1 L 509.4 60.1" id="41,8" /><path d="M 496.5 63.0 L 496.5 61.4 L 514.9 61.4" id="48,7" /><path d="M 499.6 64.6 L 499.6 62.8 L 505.8 62.8" id="44,6" /><path d="M 503.1 64.8 L 503.1 64.1 L 504.2 64.1" id="38,5" /><path d="M 503.1 64.8 L 503.1 65.5 L 503.1 65.5" id="38,4" /><path d="M 503.4 68.0 L 503.4 66.8 L 503.4 66.8" id="37,3" /><path d="M 503.4 69.2 L 503.4 68.1 L 503.4 68.1" id="34,2" /><path d="M 503.5 70.2 L 503.5 69.5 L 503.5 69.5" id="32,1" /><path d="M 503.5 70.2 L 503.5 70.8 L 504.3 70.8" id="32,0" /></g><g class="toytree-Nodes" style="fill:rgb(100%,0%,0%);fill-opacity:1.0;stroke:None;stroke-width:1"><g id="node-0" transform="translate(504.305,70.833)"><circle r="2.5" /></g><g id="node-1" transform="translate(503.546,69.489)"><circle r="2.5" /></g><g id="node-2" transform="translate(503.417,68.145)"><circle r="2.5" /></g><g id="node-3" transform="translate(503.417,66.801)"><circle r="2.5" /></g><g id="node-4" transform="translate(503.148,65.457)"><circle r="2.5" /></g><g id="node-5" transform="translate(504.213,64.113)"><circle r="2.5" /></g><g id="node-6" transform="translate(505.764,62.769)"><circle r="2.5" /></g><g id="node-7" transform="translate(514.936,61.425)"><circle r="2.5" /></g><g id="node-8" transform="translate(509.442,60.081)"><circle r="2.5" /></g><g id="node-9" transform="translate(504.450,58.737)"><circle r="2.5" /></g><g id="node-10" transform="translate(504.527,57.392)"><circle r="2.5" /></g><g id="node-11" transform="translate(505.703,56.048)"><circle r="2.5" /></g><g id="node-12" transform="translate(498.765,54.704)"><circle r="2.5" /></g><g id="node-13" transform="translate(505.821,53.360)"><circle r="2.5" /></g><g id="node-14" transform="translate(506.119,52.016)"><circle r="2.5" /></g><g id="node-15" transform="translate(505.821,50.672)"><circle r="2.5" /></g><g id="node-16" transform="translate(505.895,49.328)"><circle r="2.5" /></g><g id="node-17" transform="translate(505.738,47.984)"><circle r="2.5" /></g><g id="node-18" transform="translate(505.320,46.640)"><circle r="2.5" /></g><g id="node-19" transform="translate(504.315,45.296)"><circle r="2.5" /></g><g id="node-20" transform="translate(506.692,43.952)"><circle r="2.5" /></g><g id="node-21" transform="translate(515.877,42.608)"><circle r="2.5" /></g><g id="node-22" transform="translate(505.140,41.263)"><circle r="2.5" /></g><g id="node-23" transform="translate(500.486,39.919)"><circle r="2.5" /></g><g id="node-24" transform="translate(500.639,38.575)"><circle r="2.5" /></g><g id="node-25" transform="translate(486.979,37.231)"><circle r="2.5" /></g><g id="node-26" transform="translate(530.263,35.887)"><circle r="2.5" /></g><g id="node-27" transform="translate(490.100,34.543)"><circle r="2.5" /></g><g id="node-28" transform="translate(492.328,33.199)"><circle r="2.5" /></g><g id="node-29" transform="translate(499.038,31.855)"><circle r="2.5" /></g><g id="node-30" transform="translate(493.830,30.511)"><circle r="2.5" /></g><g id="node-31" transform="translate(503.004,29.167)"><circle r="2.5" /></g><g id="node-32" transform="translate(503.546,70.161)"><circle r="0.0" /></g><g id="node-33" transform="translate(505.821,52.688)"><circle r="0.0" /></g><g id="node-34" transform="translate(503.417,69.153)"><circle r="0.0" /></g><g id="node-35" transform="translate(505.821,51.680)"><circle r="0.0" /></g><g id="node-36" transform="translate(505.738,48.656)"><circle r="0.0" /></g><g id="node-37" transform="translate(503.417,67.977)"><circle r="0.0" /></g><g id="node-38" transform="translate(503.148,64.785)"><circle r="0.0" /></g><g id="node-39" transform="translate(505.346,50.168)"><circle r="0.0" /></g><g id="node-40" transform="translate(502.276,66.381)"><circle r="0.0" /></g><g id="node-41" transform="translate(501.459,59.409)"><circle r="0.0" /></g><g id="node-42" transform="translate(500.899,56.720)"><circle r="0.0" /></g><g id="node-43" transform="translate(505.093,48.404)"><circle r="0.0" /></g><g id="node-44" transform="translate(499.587,64.575)"><circle r="0.0" /></g><g id="node-45" transform="translate(497.768,58.065)"><circle r="0.0" /></g><g id="node-46" transform="translate(502.526,46.850)"><circle r="0.0" /></g><g id="node-47" transform="translate(499.924,41.935)"><circle r="0.0" /></g><g id="node-48" transform="translate(496.471,63.000)"><circle r="0.0" /></g><g id="node-49" transform="translate(495.474,56.384)"><circle r="0.0" /></g><g id="node-50" transform="translate(497.983,45.401)"><circle r="0.0" /></g><g id="node-51" transform="translate(498.355,40.927)"><circle r="0.0" /></g><g id="node-52" transform="translate(493.140,59.692)"><circle r="0.0" /></g><g id="node-53" transform="translate(495.211,43.164)"><circle r="0.0" /></g><g id="node-54" transform="translate(488.371,51.428)"><circle r="0.0" /></g><g id="node-55" transform="translate(480.519,45.002)"><circle r="0.0" /></g><g id="node-56" transform="translate(478.091,41.116)"><circle r="0.0" /></g><g id="node-57" transform="translate(474.537,38.502)"><circle r="0.0" /></g><g id="node-58" transform="translate(484.600,32.527)"><circle r="0.0" /></g><g id="node-59" transform="translate(468.898,36.522)"><circle r="0.0" /></g><g id="node-60" transform="translate(479.219,31.519)"><circle r="0.0" /></g><g id="node-61" transform="translate(462.977,34.021)"><circle r="0.0" /></g><g id="node-62" transform="translate(445.000,31.594)"><circle r="0.0" /></g></g></g></g></g></svg>