<svg class="toyplot-canvas-Canvas" xmlns:toyplot="http://www.sandia.gov/toyplot" xmlns:xlink="http://www.w3.org/1999/xlink" xmlns="http://www.w3.org/2000/svg" width="560.0px" height="100.0px" viewBox="0 0 560.0 100.0" preserveAspectRatio="xMidYMid meet" style="background-color:transparent;border-color:#292724;border-style:none;border-width:1.0;fill:rgb(16.1%,15.3%,14.1%);fill-opacity:1.0;font-family:Helvetica;font-size:12px;opacity:1.0;stroke:rgb(16.1%,15.3%,14.1%);stroke-opacity:1.0;stroke-width:1.0" id="t6fc2c940d7de4479a5c24bbfe650121d"><g class="toyplot-coordinates-Cartesian" id="t5f2a02dd70c94761a73ce0109c65bacd"><clipPath id="t12f34588997b43558110827ccbfc5aa5"><rect x="15.0" y="15.0" width="110.0" height="70.0" /></clipPath><g clip-path="url(#t12f34588997b43558110827ccbfc5aa5)"><g class="toytree-mark-Toytree" id="tdd4f1e1bc7b54c95941921d0aa5ba1b6"><g class="toytree-Edges" style="fill:none;stroke:rgb(14.9%,14.9%,14.9%);stroke-linecap:round;stroke-opacity:1;stroke-width:0.5"><path d="M 25.0 33.9 L 25.0 38.7 L 33.5 38.7" id="26,25" /><path d="M 33.5 38.7 L 33.5 34.0 L 49.8 34.0" id="25,24" /><path d="M 33.5 38.7 L 33.5 43.3 L 35.1 43.3" id="25,23" /><path d="M 35.1 43.3 L 35.1 47.9 L 46.1 47.9" id="23,22" /><path d="M 46.1 47.9 L 46.1 43.6 L 54.9 43.6" id="22,21" /><path d="M 46.1 47.9 L 46.1 52.2 L 52.2 52.2" id="22,20" /><path d="M 52.2 52.2 L 52.2 55.9 L 73.3 55.9" id="20,19" /><path d="M 73.3 55.9 L 73.3 60.2 L 82.0 60.2" id="19,18" /><path d="M 82.0 60.2 L 82.0 56.4 L 90.4 56.4" id="18,17" /><path d="M 82.0 60.2 L 82.0 64.0 L 84.8 64.0" id="18,16" /><path d="M 84.8 64.0 L 84.8 66.8 L 93.3 66.8" id="16,15" /><path d="M 93.3 66.8 L 93.3 69.2 L 93.5 69.2" id="15,14" /><path d="M 25.0 33.9 L 25.0 29.2 L 97.2 29.2" id="26,13" /><path d="M 49.8 34.0 L 49.8 32.4 L 96.9 32.4" id="24,12" /><path d="M 49.8 34.0 L 49.8 35.6 L 110.3 35.6" id="24,11" /><path d="M 35.1 43.3 L 35.1 38.8 L 95.2 38.8" id="23,10" /><path d="M 54.9 43.6 L 54.9 42.0 L 100.5 42.0" id="21,9" /><path d="M 54.9 43.6 L 54.9 45.2 L 103.7 45.2" id="21,8" /><path d="M 52.2 52.2 L 52.2 48.4 L 95.1 48.4" id="20,7" /><path d="M 73.3 55.9 L 73.3 51.6 L 98.8 51.6" id="19,6" /><path d="M 90.4 56.4 L 90.4 54.8 L 95.7 54.8" id="17,5" /><path d="M 90.4 56.4 L 90.4 58.0 L 94.6 58.0" id="17,4" /><path d="M 84.8 64.0 L 84.8 61.2 L 91.1 61.2" id="16,3" /><path d="M 93.3 66.8 L 93.3 64.4 L 94.7 64.4" id="15,2" /><path d="M 93.5 69.2 L 93.5 67.6 L 93.5 67.6" id="14,1" /><path d="M 93.5 69.2 L 93.5 70.8 L 93.5 70.8" id="14,0" /></g><g class="toytree-Nodes" style="fill:rgb(100%,0%,0%);fill-opacity:1.0;stroke:None;stroke-width:1"><g id="node-0" transform="translate(93.499,70.833)"><circle r="2.5" /></g><g id="node-1" transform="translate(93.499,67.628)"><circle r="2.5" /></g><g id="node-2" transform="translate(94.718,64.423)"><circle r="2.5" /></g><g id="node-3" transform="translate(91.096,61.218)"><circle r="2.5" /></g><g id="node-4" transform="translate(94.639,58.013)"><circle r="2.5" /></g><g id="node-5" transform="translate(95.735,54.808)"><circle r="2.5" /></g><g id="node-6" transform="translate(98.825,51.603)"><circle r="2.5" /></g><g id="node-7" transform="translate(95.119,48.397)"><circle r="2.5" /></g><g id="node-8" transform="translate(103.714,45.192)"><circle r="2.5" /></g><g id="node-9" transform="translate(100.543,41.987)"><circle r="2.5" /></g><g id="node-10" transform="translate(95.218,38.782)"><circle r="2.5" /></g><g id="node-11" transform="translate(110.263,35.577)"><circle r="2.5" /></g><g id="node-12" transform="translate(96.851,32.372)"><circle r="2.5" /></g><g id="node-13" transform="translate(97.195,29.167)"><circle r="2.5" /></g><g id="node-14" transform="translate(93.499,69.231)"><circle r="0.0" /></g><g id="node-15" transform="translate(93.345,66.827)"><circle r="0.0" /></g><g id="node-16" transform="translate(84.847,64.022)"><circle r="0.0" /></g><g id="node-17" transform="translate(90.360,56.410)"><circle r="0.0" /></g><g id="node-18" transform="translate(81.963,60.216)"><circle r="0.0" /></g><g id="node-19" transform="translate(73.338,55.909)"><circle r="0.0" /></g><g id="node-20" transform="translate(52.218,52.153)"><circle r="0.0" /></g><g id="node-21" transform="translate(54.919,43.590)"><circle r="0.0" /></g><g id="node-22" transform="translate(46.099,47.872)"><circle r="0.0" /></g><g id="node-23" transform="translate(35.128,43.327)"><circle r="0.0" /></g><g id="node-24" transform="translate(49.783,33.974)"><circle r="0.0" /></g><g id="node-25" transform="translate(33.479,38.651)"><circle r="0.0" /></g><g id="node-26" transform="translate(25.000,33.909)"><circle r="0.0" /></g></g></g></g></g><g class="toyplot-coordinates-Cartesian" id="t787faf74848a4f9791be0cc479a76465"><clipPath id="t1f793bcf609a419fac008e4160ce95d2"><rect x="155.0" y="15.0" width="110.0" height="70.0" /></clipPath><g clip-path="url(#t1f793bcf609a419fac008e4160ce95d2)"><g class="toytree-mark-Toytree" id="t22a45011f9f14cb1acc7f7c54415af87"><g class="toytree-Edges" style="fill:none;stroke:rgb(14.9%,14.9%,14.9%);stroke-linecap:round;stroke-opacity:1;stroke-width:0.5"><path d="M 165.0 35.5 L 165.0 30.8 L 171.5 30.8" id="26,25" /><path d="M 165.0 35.5 L 165.0 40.3 L 174.2 40.3" id="26,24" /><path d="M 174.2 40.3 L 174.2 45.0 L 181.7 45.0" id="24,23" /><path d="M 181.7 45.0 L 181.7 40.4 L 187.9 40.4" id="23,22" /><path d="M 181.7 45.0 L 181.7 49.6 L 182.9 49.6" id="23,21" /><path d="M 182.9 49.6 L 182.9 54.0 L 194.3 54.0" id="21,20" /><path d="M 194.3 54.0 L 194.3 50.0 L 196.7 50.0" id="20,19" /><path d="M 194.3 54.0 L 194.3 57.9 L 195.0 57.9" id="20,18" /><path d="M 195.0 57.9 L 195.0 61.0 L 195.8 61.0" id="18,17" /><path d="M 195.8 61.0 L 195.8 64.0 L 196.2 64.0" id="17,16" /><path d="M 196.2 64.0 L 196.2 66.8 L 196.4 66.8" id="16,15" /><path d="M 196.4 66.8 L 196.4 69.2 L 196.7 69.2" id="15,14" /><path d="M 171.5 30.8 L 171.5 29.2 L 191.0 29.2" id="25,13" /><path d="M 171.5 30.8 L 171.5 32.4 L 210.7 32.4" id="25,12" /><path d="M 174.2 40.3 L 174.2 35.6 L 188.6 35.6" id="24,11" /><path d="M 187.9 40.4 L 187.9 38.8 L 196.2 38.8" id="22,10" /><path d="M 187.9 40.4 L 187.9 42.0 L 202.1 42.0" id="22,9" /><path d="M 182.9 49.6 L 182.9 45.2 L 250.3 45.2" id="21,8" /><path d="M 196.7 50.0 L 196.7 48.4 L 197.6 48.4" id="19,7" /><path d="M 196.7 50.0 L 196.7 51.6 L 197.1 51.6" id="19,6" /><path d="M 195.0 57.9 L 195.0 54.8 L 200.3 54.8" id="18,5" /><path d="M 195.8 61.0 L 195.8 58.0 L 196.4 58.0" id="17,4" /><path d="M 196.2 64.0 L 196.2 61.2 L 196.2 61.2" id="16,3" /><path d="M 196.4 66.8 L 196.4 64.4 L 196.7 64.4" id="15,2" /><path d="M 196.7 69.2 L 196.7 67.6 L 196.9 67.6" id="14,1" /><path d="M 196.7 69.2 L 196.7 70.8 L 198.5 70.8" id="14,0" /></g><g class="toytree-Nodes" style="fill:rgb(100%,0%,0%);fill-opacity:1.0;stroke:None;stroke-width:1"><g id="node-0" transform="translate(198.510,70.833)"><circle r="2.5" /></g><g id="node-1" transform="translate(196.908,67.628)"><circle r="2.5" /></g><g id="node-2" transform="translate(196.742,64.423)"><circle r="2.5" /></g><g id="node-3" transform="translate(196.224,61.218)"><circle r="2.5" /></g><g id="node-4" transform="translate(196.367,58.013)"><circle r="2.5" /></g><g id="node-5" transform="translate(200.290,54.808)"><circle r="2.5" /></g><g id="node-6" transform="translate(197.108,51.603)"><circle r="2.5" /></g><g id="node-7" transform="translate(197.619,48.397)"><circle r="2.5" /></g><g id="node-8" transform="translate(250.263,45.192)"><circle r="2.5" /></g><g id="node-9" transform="translate(202.050,41.987)"><circle r="2.5" /></g><g id="node-10" transform="translate(196.204,38.782)"><circle r="2.5" /></g><g id="node-11" transform="translate(188.614,35.577)"><circle r="2.5" /></g><g id="node-12" transform="translate(210.734,32.372)"><circle r="2.5" /></g><g id="node-13" transform="translate(190.950,29.167)"><circle r="2.5" /></g><g id="node-14" transform="translate(196.663,69.231)"><circle r="0.0" /></g><g id="node-15" transform="translate(196.354,66.827)"><circle r="0.0" /></g><g id="node-16" transform="translate(196.181,64.022)"><circle r="0.0" /></g><g id="node-17" transform="translate(195.759,61.018)"><circle r="0.0" /></g><g id="node-18" transform="translate(195.035,57.913)"><circle r="0.0" /></g><g id="node-19" transform="translate(196.749,50.000)"><circle r="0.0" /></g><g id="node-20" transform="translate(194.255,53.956)"><circle r="0.0" /></g><g id="node-21" transform="translate(182.915,49.574)"><circle r="0.0" /></g><g id="node-22" transform="translate(187.851,40.385)"><circle r="0.0" /></g><g id="node-23" transform="translate(181.699,44.979)"><circle r="0.0" /></g><g id="node-24" transform="translate(174.159,40.278)"><circle r="0.0" /></g><g id="node-25" transform="translate(171.462,30.769)"><circle r="0.0" /></g><g id="node-26" transform="translate(165.000,35.524)"><circle r="0.0" /></g></g></g></g></g><g class="toyplot-coordinates-Cartesian" id="t735be1b195a94b93a430a3cc5bf08a4d"><clipPath id="ta40d252ef34b422eb944ad3735c1c5e4"><rect x="295.0" y="15.0" width="110.0" height="70.0" /></clipPath><g clip-path="url(#ta40d252ef34b422eb944ad3735c1c5e4)"><g class="toytree-mark-Toytree" id="t5e3e6e5458f6432fa3d36947d1c3d13c"><g class="toytree-Edges" style="fill:none;stroke:rgb(14.9%,14.9%,14.9%);stroke-linecap:round;stroke-opacity:1;stroke-width:0.5"><path d="M 305.0 35.4 L 305.0 30.8 L 315.0 30.8" id="26,25" /><path d="M 305.0 35.4 L 305.0 40.1 L 306.2 40.1" id="26,24" /><path d="M 306.2 40.1 L 306.2 44.7 L 316.2 44.7" id="24,23" /><path d="M 316.2 44.7 L 316.2 40.4 L 321.5 40.4" id="23,22" /><path d="M 316.2 44.7 L 316.2 49.0 L 319.6 49.0" id="23,21" /><path d="M 319.6 49.0 L 319.6 52.8 L 324.9 52.8" id="21,20" /><path d="M 324.9 52.8 L 324.9 57.1 L 327.4 57.1" id="20,19" /><path d="M 327.4 57.1 L 327.4 53.2 L 328.8 53.2" id="19,18" /><path d="M 327.4 57.1 L 327.4 61.0 L 328.5 61.0" id="19,17" /><path d="M 328.5 61.0 L 328.5 64.0 L 329.1 64.0" id="17,16" /><path d="M 329.1 64.0 L 329.1 66.8 L 329.2 66.8" id="16,15" /><path d="M 329.2 66.8 L 329.2 69.2 L 329.3 69.2" id="15,14" /><path d="M 315.0 30.8 L 315.0 29.2 L 326.4 29.2" id="25,13" /><path d="M 315.0 30.8 L 315.0 32.4 L 344.8 32.4" id="25,12" /><path d="M 306.2 40.1 L 306.2 35.6 L 333.1 35.6" id="24,11" /><path d="M 321.5 40.4 L 321.5 38.8 L 334.7 38.8" id="22,10" /><path d="M 321.5 40.4 L 321.5 42.0 L 337.5 42.0" id="22,9" /><path d="M 319.6 49.0 L 319.6 45.2 L 390.3 45.2" id="21,8" /><path d="M 324.9 52.8 L 324.9 48.4 L 333.7 48.4" id="20,7" /><path d="M 328.8 53.2 L 328.8 51.6 L 330.8 51.6" id="18,6" /><path d="M 328.8 53.2 L 328.8 54.8 L 329.1 54.8" id="18,5" /><path d="M 328.5 61.0 L 328.5 58.0 L 329.4 58.0" id="17,4" /><path d="M 329.1 64.0 L 329.1 61.2 L 333.0 61.2" id="16,3" /><path d="M 329.2 66.8 L 329.2 64.4 L 329.6 64.4" id="15,2" /><path d="M 329.3 69.2 L 329.3 67.6 L 329.4 67.6" id="14,1" /><path d="M 329.3 69.2 L 329.3 70.8 L 329.3 70.8" id="14,0" /></g><g class="toytree-Nodes" style="fill:rgb(100%,0%,0%);fill-opacity:1.0;stroke:None;stroke-width:1"><g id="node-0" transform="translate(329.323,70.833)"><circle r="2.5" /></g><g id="node-1" transform="translate(329.362,67.628)"><circle r="2.5" /></g><g id="node-2" transform="translate(329.580,64.423)"><circle r="2.5" /></g><g id="node-3" transform="translate(333.010,61.218)"><circle r="2.5" /></g><g id="node-4" transform="translate(329.446,58.013)"><circle r="2.5" /></g><g id="node-5" transform="translate(329.072,54.808)"><circle r="2.5" /></g><g id="node-6" transform="translate(330.753,51.603)"><circle r="2.5" /></g><g id="node-7" transform="translate(333.673,48.397)"><circle r="2.5" /></g><g id="node-8" transform="translate(390.263,45.192)"><circle r="2.5" /></g><g id="node-9" transform="translate(337.541,41.987)"><circle r="2.5" /></g><g id="node-10" transform="translate(334.677,38.782)"><circle r="2.5" /></g><g id="node-11" transform="translate(333.109,35.577)"><circle r="2.5" /></g><g id="node-12" transform="translate(344.754,32.372)"><circle r="2.5" /></g><g id="node-13" transform="translate(326.395,29.167)"><circle r="2.5" /></g><g id="node-14" transform="translate(329.256,69.231)"><circle r="0.0" /></g><g id="node-15" transform="translate(329.169,66.827)"><circle r="0.0" /></g><g id="node-16" transform="translate(329.053,64.022)"><circle r="0.0" /></g><g id="node-17" transform="translate(328.517,61.018)"><circle r="0.0" /></g><g id="node-18" transform="translate(328.843,53.205)"><circle r="0.0" /></g><g id="node-19" transform="translate(327.383,57.111)"><circle r="0.0" /></g><g id="node-20" transform="translate(324.878,52.754)"><circle r="0.0" /></g><g id="node-21" transform="translate(319.593,48.973)"><circle r="0.0" /></g><g id="node-22" transform="translate(321.519,40.385)"><circle r="0.0" /></g><g id="node-23" transform="translate(316.202,44.679)"><circle r="0.0" /></g><g id="node-24" transform="translate(306.249,40.128)"><circle r="0.0" /></g><g id="node-25" transform="translate(314.958,30.769)"><circle r="0.0" /></g><g id="node-26" transform="translate(305.000,35.449)"><circle r="0.0" /></g></g></g></g></g><g class="toyplot-coordinates-Cartesian" id="t728d291e8df44f89b8b0824858116812"><clipPath id="tae6241eb5eff4282b3093636d0535702"><rect x="435.0" y="15.0" width="110.0" height="70.0" /></clipPath><g clip-path="url(#tae6241eb5eff4282b3093636d0535702)"><g class="toytree-mark-Toytree" id="tbfa44122bf2e4991814d46263b1b91cc"><g class="toytree-Edges" style="fill:none;stroke:rgb(14.9%,14.9%,14.9%);stroke-linecap:round;stroke-opacity:1;stroke-width:0.5"><path d="M 445.0 35.4 L 445.0 30.8 L 454.9 30.8" id="26,25" /><path d="M 445.0 35.4 L 445.0 40.1 L 446.4 40.1" id="26,24" /><path d="M 446.4 40.1 L 446.4 44.7 L 456.6 44.7" id="24,23" /><path d="M 456.6 44.7 L 456.6 40.4 L 462.6 40.4" id="23,22" /><path d="M 456.6 44.7 L 456.6 49.0 L 457.9 49.0" id="23,21" /><path d="M 457.9 49.0 L 457.9 52.8 L 466.8 52.8" id="21,20" /><path d="M 466.8 52.8 L 466.8 57.1 L 470.7 57.1" id="20,19" /><path d="M 470.7 57.1 L 470.7 53.2 L 472.9 53.2" id="19,18" /><path d="M 470.7 57.1 L 470.7 61.0 L 472.0 61.0" id="19,17" /><path d="M 472.0 61.0 L 472.0 64.0 L 472.4 64.0" id="17,16" /><path d="M 472.4 64.0 L 472.4 66.8 L 472.9 66.8" id="16,15" /><path d="M 472.9 66.8 L 472.9 69.2 L 472.9 69.2" id="15,14" /><path d="M 454.9 30.8 L 454.9 29.2 L 470.4 29.2" id="25,13" /><path d="M 454.9 30.8 L 454.9 32.4 L 488.6 32.4" id="25,12" /><path d="M 446.4 40.1 L 446.4 35.6 L 477.8 35.6" id="24,11" /><path d="M 462.6 40.4 L 462.6 38.8 L 478.9 38.8" id="22,10" /><path d="M 462.6 40.4 L 462.6 42.0 L 482.1 42.0" id="22,9" /><path d="M 457.9 49.0 L 457.9 45.2 L 530.3 45.2" id="21,8" /><path d="M 466.8 52.8 L 466.8 48.4 L 477.2 48.4" id="20,7" /><path d="M 472.9 53.2 L 472.9 51.6 L 475.3 51.6" id="18,6" /><path d="M 472.9 53.2 L 472.9 54.8 L 473.2 54.8" id="18,5" /><path d="M 472.0 61.0 L 472.0 58.0 L 473.3 58.0" id="17,4" /><path d="M 472.4 64.0 L 472.4 61.2 L 477.2 61.2" id="16,3" /><path d="M 472.9 66.8 L 472.9 64.4 L 473.4 64.4" id="15,2" /><path d="M 472.9 69.2 L 472.9 67.6 L 473.0 67.6" id="14,1" /><path d="M 472.9 69.2 L 472.9 70.8 L 473.1 70.8" id="14,0" /></g><g class="toytree-Nodes" style="fill:rgb(100%,0%,0%);fill-opacity:1.0;stroke:None;stroke-width:1"><g id="node-0" transform="translate(473.103,70.833)"><circle r="2.5" /></g><g id="node-1" transform="translate(473.007,67.628)"><circle r="2.5" /></g><g id="node-2" transform="translate(473.423,64.423)"><circle r="2.5" /></g><g id="node-3" transform="translate(477.220,61.218)"><circle r="2.5" /></g><g id="node-4" transform="translate(473.313,58.013)"><circle r="2.5" /></g><g id="node-5" transform="translate(473.174,54.808)"><circle r="2.5" /></g><g id="node-6" transform="translate(475.301,51.603)"><circle r="2.5" /></g><g id="node-7" transform="translate(477.174,48.397)"><circle r="2.5" /></g><g id="node-8" transform="translate(530.263,45.192)"><circle r="2.5" /></g><g id="node-9" transform="translate(482.108,41.987)"><circle r="2.5" /></g><g id="node-10" transform="translate(478.900,38.782)"><circle r="2.5" /></g><g id="node-11" transform="translate(477.836,35.577)"><circle r="2.5" /></g><g id="node-12" transform="translate(488.587,32.372)"><circle r="2.5" /></g><g id="node-13" transform="translate(470.351,29.167)"><circle r="2.5" /></g><g id="node-14" transform="translate(472.942,69.231)"><circle r="0.0" /></g><g id="node-15" transform="translate(472.857,66.827)"><circle r="0.0" /></g><g id="node-16" transform="translate(472.387,64.022)"><circle r="0.0" /></g><g id="node-17" transform="translate(471.974,61.018)"><circle r="0.0" /></g><g id="node-18" transform="translate(472.851,53.205)"><circle r="0.0" /></g><g id="node-19" transform="translate(470.707,57.111)"><circle r="0.0" /></g><g id="node-20" transform="translate(466.752,52.754)"><circle r="0.0" /></g><g id="node-21" transform="translate(457.925,48.973)"><circle r="0.0" /></g><g id="node-22" transform="translate(462.624,40.385)"><circle r="0.0" /></g><g id="node-23" transform="translate(456.598,44.679)"><circle r="0.0" /></g><g id="node-24" transform="translate(446.416,40.128)"><circle r="0.0" /></g><g id="node-25" transform="translate(454.898,30.769)"><circle r="0.0" /></g><g id="node-26" transform="translate(445.000,35.449)"><circle r="0.0" /></g></g></g></g></g></svg>