<svg class="toyplot-canvas-Canvas" xmlns:toyplot="http://www.sandia.gov/toyplot" xmlns:xlink="http://www.w3.org/1999/xlink" xmlns="http://www.w3.org/2000/svg" width="560.0px" height="100.0px" viewBox="0 0 560.0 100.0" preserveAspectRatio="xMidYMid meet" style="background-color:transparent;border-color:#292724;border-style:none;border-width:1.0;fill:rgb(16.1%,15.3%,14.1%);fill-opacity:1.0;font-family:Helvetica;font-size:12px;opacity:1.0;stroke:rgb(16.1%,15.3%,14.1%);stroke-opacity:1.0;stroke-width:1.0" id="t92939f2ebf8541679e0f7277bc2b0870"><g class="toyplot-coordinates-Cartesian" id="t9aab10f600404bedafa02723f38ac57b"><clipPath id="t521166e754b74c88afb7ab76acc54af3"><rect x="15.0" y="15.0" width="110.0" height="70.0" /></clipPath><g clip-path="url(#t521166e754b74c88afb7ab76acc54af3)"><g class="toytree-mark-Toytree" id="td84736f94ddc41c79310c4c155b6274d"><g class="toytree-Edges" style="fill:none;stroke:rgb(14.9%,14.9%,14.9%);stroke-linecap:round;stroke-opacity:1;stroke-width:0.5"><path d="M 25.0 35.4 L 25.0 30.5 L 27.8 30.5" id="32,31" /><path d="M 25.0 35.4 L 25.0 40.3 L 27.4 40.3" id="32,30" /><path d="M 27.4 40.3 L 27.4 35.7 L 29.7 35.7" id="30,29" /><path d="M 27.4 40.3 L 27.4 44.8 L 28.8 44.8" id="30,28" /><path d="M 28.8 44.8 L 28.8 50.1 L 32.3 50.1" id="28,27" /><path d="M 32.3 50.1 L 32.3 43.5 L 41.9 43.5" id="27,26" /><path d="M 32.3 50.1 L 32.3 56.7 L 34.2 56.7" id="27,25" /><path d="M 34.2 56.7 L 34.2 49.7 L 39.5 49.7" id="25,24" /><path d="M 34.2 56.7 L 34.2 63.7 L 36.2 63.7" id="25,23" /><path d="M 39.5 49.7 L 39.5 52.0 L 45.5 52.0" id="24,22" /><path d="M 36.2 63.7 L 36.2 59.8 L 40.6 59.8" id="23,21" /><path d="M 36.2 63.7 L 36.2 67.6 L 37.1 67.6" id="23,20" /><path d="M 45.5 52.0 L 45.5 53.9 L 58.1 53.9" id="22,19" /><path d="M 40.6 59.8 L 40.6 61.7 L 49.5 61.7" id="21,18" /><path d="M 37.1 67.6 L 37.1 69.5 L 47.8 69.5" id="20,17" /><path d="M 27.8 30.5 L 27.8 29.2 L 102.3 29.2" id="31,16" /><path d="M 27.8 30.5 L 27.8 31.8 L 97.5 31.8" id="31,15" /><path d="M 29.7 35.7 L 29.7 34.4 L 94.3 34.4" id="29,14" /><path d="M 29.7 35.7 L 29.7 37.0 L 95.6 37.0" id="29,13" /><path d="M 28.8 44.8 L 28.8 39.6 L 91.4 39.6" id="28,12" /><path d="M 41.9 43.5 L 41.9 42.2 L 97.9 42.2" id="26,11" /><path d="M 41.9 43.5 L 41.9 44.8 L 95.8 44.8" id="26,10" /><path d="M 39.5 49.7 L 39.5 47.4 L 107.2 47.4" id="24,9" /><path d="M 45.5 52.0 L 45.5 50.0 L 105.6 50.0" id="22,8" /><path d="M 58.1 53.9 L 58.1 52.6 L 108.9 52.6" id="19,7" /><path d="M 58.1 53.9 L 58.1 55.2 L 110.3 55.2" id="19,6" /><path d="M 40.6 59.8 L 40.6 57.8 L 97.0 57.8" id="21,5" /><path d="M 49.5 61.7 L 49.5 60.4 L 101.3 60.4" id="18,4" /><path d="M 49.5 61.7 L 49.5 63.0 L 101.2 63.0" id="18,3" /><path d="M 37.1 67.6 L 37.1 65.6 L 101.8 65.6" id="20,2" /><path d="M 47.8 69.5 L 47.8 68.2 L 99.6 68.2" id="17,1" /><path d="M 47.8 69.5 L 47.8 70.8 L 95.6 70.8" id="17,0" /></g><g class="toytree-Nodes" style="fill:rgb(100%,0%,0%);fill-opacity:1.0;stroke:None;stroke-width:1"><g id="node-0" transform="translate(95.580,70.833)"><circle r="2.5" /></g><g id="node-1" transform="translate(99.646,68.229)"><circle r="2.5" /></g><g id="node-2" transform="translate(101.816,65.625)"><circle r="2.5" /></g><g id="node-3" transform="translate(101.236,63.021)"><circle r="2.5" /></g><g id="node-4" transform="translate(101.260,60.417)"><circle r="2.5" /></g><g id="node-5" transform="translate(96.966,57.812)"><circle r="2.5" /></g><g id="node-6" transform="translate(110.263,55.208)"><circle r="2.5" /></g><g id="node-7" transform="translate(108.940,52.604)"><circle r="2.5" /></g><g id="node-8" transform="translate(105.604,50.000)"><circle r="2.5" /></g><g id="node-9" transform="translate(107.187,47.396)"><circle r="2.5" /></g><g id="node-10" transform="translate(95.758,44.792)"><circle r="2.5" /></g><g id="node-11" transform="translate(97.863,42.188)"><circle r="2.5" /></g><g id="node-12" transform="translate(91.351,39.583)"><circle r="2.5" /></g><g id="node-13" transform="translate(95.598,36.979)"><circle r="2.5" /></g><g id="node-14" transform="translate(94.308,34.375)"><circle r="2.5" /></g><g id="node-15" transform="translate(97.497,31.771)"><circle r="2.5" /></g><g id="node-16" transform="translate(102.321,29.167)"><circle r="2.5" /></g><g id="node-17" transform="translate(47.797,69.531)"><circle r="0.0" /></g><g id="node-18" transform="translate(49.515,61.719)"><circle r="0.0" /></g><g id="node-19" transform="translate(58.070,53.906)"><circle r="0.0" /></g><g id="node-20" transform="translate(37.141,67.578)"><circle r="0.0" /></g><g id="node-21" transform="translate(40.592,59.766)"><circle r="0.0" /></g><g id="node-22" transform="translate(45.534,51.953)"><circle r="0.0" /></g><g id="node-23" transform="translate(36.197,63.672)"><circle r="0.0" /></g><g id="node-24" transform="translate(39.515,49.674)"><circle r="0.0" /></g><g id="node-25" transform="translate(34.175,56.673)"><circle r="0.0" /></g><g id="node-26" transform="translate(41.851,43.490)"><circle r="0.0" /></g><g id="node-27" transform="translate(32.325,50.081)"><circle r="0.0" /></g><g id="node-28" transform="translate(28.848,44.832)"><circle r="0.0" /></g><g id="node-29" transform="translate(29.707,35.677)"><circle r="0.0" /></g><g id="node-30" transform="translate(27.416,40.255)"><circle r="0.0" /></g><g id="node-31" transform="translate(27.806,30.469)"><circle r="0.0" /></g><g id="node-32" transform="translate(25.000,35.362)"><circle r="0.0" /></g></g></g></g></g><g class="toyplot-coordinates-Cartesian" id="taa4961b7e8cb40aca417fc8459d666e7"><clipPath id="t0cf0831c247742adae482bc476b00aba"><rect x="155.0" y="15.0" width="110.0" height="70.0" /></clipPath><g clip-path="url(#t0cf0831c247742adae482bc476b00aba)"><g class="toytree-mark-Toytree" id="t72bbf8714c7d436aa0d6fb56482170a4"><g class="toytree-Edges" style="fill:none;stroke:rgb(14.9%,14.9%,14.9%);stroke-linecap:round;stroke-opacity:1;stroke-width:0.5"><path d="M 165.0 37.0 L 165.0 30.5 L 200.3 30.5" id="32,31" /><path d="M 165.0 37.0 L 165.0 43.5 L 170.5 43.5" id="32,30" /><path d="M 170.5 43.5 L 170.5 35.7 L 196.1 35.7" id="30,29" /><path d="M 170.5 43.5 L 170.5 51.3 L 178.9 51.3" id="30,28" /><path d="M 178.9 51.3 L 178.9 43.8 L 188.5 43.8" id="28,27" /><path d="M 178.9 51.3 L 178.9 58.8 L 184.7 58.8" id="28,26" /><path d="M 188.5 43.8 L 188.5 40.9 L 206.4 40.9" id="27,25" /><path d="M 188.5 43.8 L 188.5 46.7 L 198.2 46.7" id="27,24" /><path d="M 184.7 58.8 L 184.7 53.9 L 196.7 53.9" id="26,23" /><path d="M 184.7 58.8 L 184.7 63.7 L 198.3 63.7" id="26,22" /><path d="M 198.2 46.7 L 198.2 48.7 L 209.9 48.7" id="24,21" /><path d="M 198.3 63.7 L 198.3 59.8 L 207.5 59.8" id="22,20" /><path d="M 198.3 63.7 L 198.3 67.6 L 203.8 67.6" id="22,19" /><path d="M 207.5 59.8 L 207.5 61.7 L 214.0 61.7" id="20,18" /><path d="M 203.8 67.6 L 203.8 69.5 L 205.0 69.5" id="19,17" /><path d="M 200.3 30.5 L 200.3 29.2 L 222.2 29.2" id="31,16" /><path d="M 200.3 30.5 L 200.3 31.8 L 237.5 31.8" id="31,15" /><path d="M 196.1 35.7 L 196.1 34.4 L 224.3 34.4" id="29,14" /><path d="M 196.1 35.7 L 196.1 37.0 L 220.4 37.0" id="29,13" /><path d="M 206.4 40.9 L 206.4 39.6 L 224.1 39.6" id="25,12" /><path d="M 206.4 40.9 L 206.4 42.2 L 232.3 42.2" id="25,11" /><path d="M 198.2 46.7 L 198.2 44.8 L 211.6 44.8" id="24,10" /><path d="M 209.9 48.7 L 209.9 47.4 L 228.7 47.4" id="21,9" /><path d="M 209.9 48.7 L 209.9 50.0 L 227.7 50.0" id="21,8" /><path d="M 196.7 53.9 L 196.7 52.6 L 212.6 52.6" id="23,7" /><path d="M 196.7 53.9 L 196.7 55.2 L 226.2 55.2" id="23,6" /><path d="M 207.5 59.8 L 207.5 57.8 L 235.5 57.8" id="20,5" /><path d="M 214.0 61.7 L 214.0 60.4 L 235.1 60.4" id="18,4" /><path d="M 214.0 61.7 L 214.0 63.0 L 240.9 63.0" id="18,3" /><path d="M 203.8 67.6 L 203.8 65.6 L 250.3 65.6" id="19,2" /><path d="M 205.0 69.5 L 205.0 68.2 L 249.1 68.2" id="17,1" /><path d="M 205.0 69.5 L 205.0 70.8 L 247.1 70.8" id="17,0" /></g><g class="toytree-Nodes" style="fill:rgb(100%,0%,0%);fill-opacity:1.0;stroke:None;stroke-width:1"><g id="node-0" transform="translate(247.060,70.833)"><circle r="2.5" /></g><g id="node-1" transform="translate(249.056,68.229)"><circle r="2.5" /></g><g id="node-2" transform="translate(250.263,65.625)"><circle r="2.5" /></g><g id="node-3" transform="translate(240.909,63.021)"><circle r="2.5" /></g><g id="node-4" transform="translate(235.087,60.417)"><circle r="2.5" /></g><g id="node-5" transform="translate(235.545,57.812)"><circle r="2.5" /></g><g id="node-6" transform="translate(226.163,55.208)"><circle r="2.5" /></g><g id="node-7" transform="translate(212.558,52.604)"><circle r="2.5" /></g><g id="node-8" transform="translate(227.706,50.000)"><circle r="2.5" /></g><g id="node-9" transform="translate(228.721,47.396)"><circle r="2.5" /></g><g id="node-10" transform="translate(211.599,44.792)"><circle r="2.5" /></g><g id="node-11" transform="translate(232.331,42.188)"><circle r="2.5" /></g><g id="node-12" transform="translate(224.052,39.583)"><circle r="2.5" /></g><g id="node-13" transform="translate(220.413,36.979)"><circle r="2.5" /></g><g id="node-14" transform="translate(224.283,34.375)"><circle r="2.5" /></g><g id="node-15" transform="translate(237.541,31.771)"><circle r="2.5" /></g><g id="node-16" transform="translate(222.184,29.167)"><circle r="2.5" /></g><g id="node-17" transform="translate(204.951,69.531)"><circle r="0.0" /></g><g id="node-18" transform="translate(214.019,61.719)"><circle r="0.0" /></g><g id="node-19" transform="translate(203.821,67.578)"><circle r="0.0" /></g><g id="node-20" transform="translate(207.542,59.766)"><circle r="0.0" /></g><g id="node-21" transform="translate(209.857,48.698)"><circle r="0.0" /></g><g id="node-22" transform="translate(198.336,63.672)"><circle r="0.0" /></g><g id="node-23" transform="translate(196.704,53.906)"><circle r="0.0" /></g><g id="node-24" transform="translate(198.215,46.745)"><circle r="0.0" /></g><g id="node-25" transform="translate(206.417,40.885)"><circle r="0.0" /></g><g id="node-26" transform="translate(184.671,58.789)"><circle r="0.0" /></g><g id="node-27" transform="translate(188.513,43.815)"><circle r="0.0" /></g><g id="node-28" transform="translate(178.905,51.302)"><circle r="0.0" /></g><g id="node-29" transform="translate(196.081,35.677)"><circle r="0.0" /></g><g id="node-30" transform="translate(170.471,43.490)"><circle r="0.0" /></g><g id="node-31" transform="translate(200.288,30.469)"><circle r="0.0" /></g><g id="node-32" transform="translate(165.000,36.979)"><circle r="0.0" /></g></g></g></g></g><g class="toyplot-coordinates-Cartesian" id="ta013ed4a9a5f492eb5cb7024548715ae"><clipPath id="tcb18fd30f8404357b37b821d56b4afaf"><rect x="295.0" y="15.0" width="110.0" height="70.0" /></clipPath><g clip-path="url(#tcb18fd30f8404357b37b821d56b4afaf)"><g class="toytree-mark-Toytree" id="t498331c2e20a412eb5149acd36c65824"><g class="toytree-Edges" style="fill:none;stroke:rgb(14.9%,14.9%,14.9%);stroke-linecap:round;stroke-opacity:1;stroke-width:0.5"><path d="M 305.0 37.0 L 305.0 31.1 L 312.3 31.1" id="32,31" /><path d="M 305.0 37.0 L 305.0 42.8 L 305.7 42.8" id="32,30" /><path d="M 312.3 31.1 L 312.3 33.1 L 340.9 33.1" id="31,29" /><path d="M 305.7 42.8 L 305.7 48.6 L 315.2 48.6" id="30,28" /><path d="M 315.2 48.6 L 315.2 40.9 L 318.9 40.9" id="28,27" /><path d="M 315.2 48.6 L 315.2 56.3 L 320.9 56.3" id="28,26" /><path d="M 320.9 56.3 L 320.9 49.0 L 324.7 49.0" id="26,25" /><path d="M 320.9 56.3 L 320.9 63.7 L 323.8 63.7" id="26,24" /><path d="M 324.7 49.0 L 324.7 46.1 L 331.6 46.1" id="25,23" /><path d="M 324.7 49.0 L 324.7 52.0 L 332.0 52.0" id="25,22" /><path d="M 323.8 63.7 L 323.8 59.8 L 326.8 59.8" id="24,21" /><path d="M 323.8 63.7 L 323.8 67.6 L 329.1 67.6" id="24,20" /><path d="M 332.0 52.0 L 332.0 53.9 L 336.4 53.9" id="22,19" /><path d="M 326.8 59.8 L 326.8 61.7 L 336.0 61.7" id="21,18" /><path d="M 329.1 67.6 L 329.1 69.5 L 334.9 69.5" id="20,17" /><path d="M 312.3 31.1 L 312.3 29.2 L 366.9 29.2" id="31,16" /><path d="M 340.9 33.1 L 340.9 31.8 L 373.5 31.8" id="29,15" /><path d="M 340.9 33.1 L 340.9 34.4 L 373.0 34.4" id="29,14" /><path d="M 305.7 42.8 L 305.7 37.0 L 368.2 37.0" id="30,13" /><path d="M 318.9 40.9 L 318.9 39.6 L 362.2 39.6" id="27,12" /><path d="M 318.9 40.9 L 318.9 42.2 L 354.9 42.2" id="27,11" /><path d="M 331.6 46.1 L 331.6 44.8 L 362.2 44.8" id="23,10" /><path d="M 331.6 46.1 L 331.6 47.4 L 376.7 47.4" id="23,9" /><path d="M 332.0 52.0 L 332.0 50.0 L 362.9 50.0" id="22,8" /><path d="M 336.4 53.9 L 336.4 52.6 L 380.6 52.6" id="19,7" /><path d="M 336.4 53.9 L 336.4 55.2 L 376.5 55.2" id="19,6" /><path d="M 326.8 59.8 L 326.8 57.8 L 362.8 57.8" id="21,5" /><path d="M 336.0 61.7 L 336.0 60.4 L 373.6 60.4" id="18,4" /><path d="M 336.0 61.7 L 336.0 63.0 L 380.0 63.0" id="18,3" /><path d="M 329.1 67.6 L 329.1 65.6 L 385.8 65.6" id="20,2" /><path d="M 334.9 69.5 L 334.9 68.2 L 390.3 68.2" id="17,1" /><path d="M 334.9 69.5 L 334.9 70.8 L 378.9 70.8" id="17,0" /></g><g class="toytree-Nodes" style="fill:rgb(100%,0%,0%);fill-opacity:1.0;stroke:None;stroke-width:1"><g id="node-0" transform="translate(378.946,70.833)"><circle r="2.5" /></g><g id="node-1" transform="translate(390.263,68.229)"><circle r="2.5" /></g><g id="node-2" transform="translate(385.825,65.625)"><circle r="2.5" /></g><g id="node-3" transform="translate(380.047,63.021)"><circle r="2.5" /></g><g id="node-4" transform="translate(373.602,60.417)"><circle r="2.5" /></g><g id="node-5" transform="translate(362.767,57.812)"><circle r="2.5" /></g><g id="node-6" transform="translate(376.466,55.208)"><circle r="2.5" /></g><g id="node-7" transform="translate(380.563,52.604)"><circle r="2.5" /></g><g id="node-8" transform="translate(362.921,50.000)"><circle r="2.5" /></g><g id="node-9" transform="translate(376.684,47.396)"><circle r="2.5" /></g><g id="node-10" transform="translate(362.174,44.792)"><circle r="2.5" /></g><g id="node-11" transform="translate(354.855,42.188)"><circle r="2.5" /></g><g id="node-12" transform="translate(362.229,39.583)"><circle r="2.5" /></g><g id="node-13" transform="translate(368.195,36.979)"><circle r="2.5" /></g><g id="node-14" transform="translate(373.025,34.375)"><circle r="2.5" /></g><g id="node-15" transform="translate(373.494,31.771)"><circle r="2.5" /></g><g id="node-16" transform="translate(366.922,29.167)"><circle r="2.5" /></g><g id="node-17" transform="translate(334.930,69.531)"><circle r="0.0" /></g><g id="node-18" transform="translate(336.026,61.719)"><circle r="0.0" /></g><g id="node-19" transform="translate(336.372,53.906)"><circle r="0.0" /></g><g id="node-20" transform="translate(329.074,67.578)"><circle r="0.0" /></g><g id="node-21" transform="translate(326.757,59.766)"><circle r="0.0" /></g><g id="node-22" transform="translate(331.989,51.953)"><circle r="0.0" /></g><g id="node-23" transform="translate(331.639,46.094)"><circle r="0.0" /></g><g id="node-24" transform="translate(323.821,63.672)"><circle r="0.0" /></g><g id="node-25" transform="translate(324.696,49.023)"><circle r="0.0" /></g><g id="node-26" transform="translate(320.949,56.348)"><circle r="0.0" /></g><g id="node-27" transform="translate(318.918,40.885)"><circle r="0.0" /></g><g id="node-28" transform="translate(315.213,48.617)"><circle r="0.0" /></g><g id="node-29" transform="translate(340.890,33.073)"><circle r="0.0" /></g><g id="node-30" transform="translate(305.731,42.798)"><circle r="0.0" /></g><g id="node-31" transform="translate(312.275,31.120)"><circle r="0.0" /></g><g id="node-32" transform="translate(305.000,36.959)"><circle r="0.0" /></g></g></g></g></g><g class="toyplot-coordinates-Cartesian" id="t15421547cc5f4f48ac7bb35b3ec630c6"><clipPath id="te45b0bba81684ca0849ee0b2de05c46d"><rect x="435.0" y="15.0" width="110.0" height="70.0" /></clipPath><g clip-path="url(#te45b0bba81684ca0849ee0b2de05c46d)"><g class="toytree-mark-Toytree" id="t44d2cfa77e55464c89f02761f8d28330"><g class="toytree-Edges" style="fill:none;stroke:rgb(14.9%,14.9%,14.9%);stroke-linecap:round;stroke-opacity:1;stroke-width:0.5"><path d="M 445.0 46.4 L 445.0 35.2 L 448.0 35.2" id="32,31" /><path d="M 445.0 46.4 L 445.0 57.6 L 450.2 57.6" id="32,30" /><path d="M 448.0 35.2 L 448.0 31.1 L 454.1 31.1" id="31,29" /><path d="M 448.0 35.2 L 448.0 39.3 L 448.0 39.3" id="31,28" /><path d="M 450.2 57.6 L 450.2 51.6 L 456.1 51.6" id="30,27" /><path d="M 450.2 57.6 L 450.2 63.7 L 453.4 63.7" id="30,26" /><path d="M 454.1 31.1 L 454.1 33.1 L 463.5 33.1" id="29,25" /><path d="M 448.0 39.3 L 448.0 41.5 L 457.3 41.5" id="28,24" /><path d="M 456.1 51.6 L 456.1 48.7 L 468.5 48.7" id="27,23" /><path d="M 456.1 51.6 L 456.1 54.6 L 478.4 54.6" id="27,22" /><path d="M 453.4 63.7 L 453.4 66.9 L 459.4 66.9" id="26,21" /><path d="M 457.3 41.5 L 457.3 43.5 L 463.5 43.5" id="24,20" /><path d="M 478.4 54.6 L 478.4 56.5 L 494.7 56.5" id="22,19" /><path d="M 459.4 66.9 L 459.4 64.3 L 476.0 64.3" id="21,18" /><path d="M 459.4 66.9 L 459.4 69.5 L 474.3 69.5" id="21,17" /><path d="M 454.1 31.1 L 454.1 29.2 L 486.4 29.2" id="29,16" /><path d="M 463.5 33.1 L 463.5 31.8 L 493.2 31.8" id="25,15" /><path d="M 463.5 33.1 L 463.5 34.4 L 525.2 34.4" id="25,14" /><path d="M 448.0 39.3 L 448.0 37.0 L 499.0 37.0" id="28,13" /><path d="M 457.3 41.5 L 457.3 39.6 L 492.9 39.6" id="24,12" /><path d="M 463.5 43.5 L 463.5 42.2 L 485.2 42.2" id="20,11" /><path d="M 463.5 43.5 L 463.5 44.8 L 530.3 44.8" id="20,10" /><path d="M 468.5 48.7 L 468.5 47.4 L 488.5 47.4" id="23,9" /><path d="M 468.5 48.7 L 468.5 50.0 L 495.7 50.0" id="23,8" /><path d="M 478.4 54.6 L 478.4 52.6 L 509.1 52.6" id="22,7" /><path d="M 494.7 56.5 L 494.7 55.2 L 512.1 55.2" id="19,6" /><path d="M 494.7 56.5 L 494.7 57.8 L 521.7 57.8" id="19,5" /><path d="M 453.4 63.7 L 453.4 60.4 L 483.2 60.4" id="26,4" /><path d="M 476.0 64.3 L 476.0 63.0 L 502.7 63.0" id="18,3" /><path d="M 476.0 64.3 L 476.0 65.6 L 490.7 65.6" id="18,2" /><path d="M 474.3 69.5 L 474.3 68.2 L 502.6 68.2" id="17,1" /><path d="M 474.3 69.5 L 474.3 70.8 L 490.1 70.8" id="17,0" /></g><g class="toytree-Nodes" style="fill:rgb(100%,0%,0%);fill-opacity:1.0;stroke:None;stroke-width:1"><g id="node-0" transform="translate(490.092,70.833)"><circle r="2.5" /></g><g id="node-1" transform="translate(502.569,68.229)"><circle r="2.5" /></g><g id="node-2" transform="translate(490.741,65.625)"><circle r="2.5" /></g><g id="node-3" transform="translate(502.676,63.021)"><circle r="2.5" /></g><g id="node-4" transform="translate(483.155,60.417)"><circle r="2.5" /></g><g id="node-5" transform="translate(521.717,57.812)"><circle r="2.5" /></g><g id="node-6" transform="translate(512.065,55.208)"><circle r="2.5" /></g><g id="node-7" transform="translate(509.122,52.604)"><circle r="2.5" /></g><g id="node-8" transform="translate(495.740,50.000)"><circle r="2.5" /></g><g id="node-9" transform="translate(488.517,47.396)"><circle r="2.5" /></g><g id="node-10" transform="translate(530.263,44.792)"><circle r="2.5" /></g><g id="node-11" transform="translate(485.217,42.188)"><circle r="2.5" /></g><g id="node-12" transform="translate(492.924,39.583)"><circle r="2.5" /></g><g id="node-13" transform="translate(498.957,36.979)"><circle r="2.5" /></g><g id="node-14" transform="translate(525.191,34.375)"><circle r="2.5" /></g><g id="node-15" transform="translate(493.175,31.771)"><circle r="2.5" /></g><g id="node-16" transform="translate(486.429,29.167)"><circle r="2.5" /></g><g id="node-17" transform="translate(474.303,69.531)"><circle r="0.0" /></g><g id="node-18" transform="translate(476.029,64.323)"><circle r="0.0" /></g><g id="node-19" transform="translate(494.694,56.510)"><circle r="0.0" /></g><g id="node-20" transform="translate(463.513,43.490)"><circle r="0.0" /></g><g id="node-21" transform="translate(459.382,66.927)"><circle r="0.0" /></g><g id="node-22" transform="translate(478.398,54.557)"><circle r="0.0" /></g><g id="node-23" transform="translate(468.512,48.698)"><circle r="0.0" /></g><g id="node-24" transform="translate(457.334,41.536)"><circle r="0.0" /></g><g id="node-25" transform="translate(463.536,33.073)"><circle r="0.0" /></g><g id="node-26" transform="translate(453.359,63.672)"><circle r="0.0" /></g><g id="node-27" transform="translate(456.052,51.628)"><circle r="0.0" /></g><g id="node-28" transform="translate(447.953,39.258)"><circle r="0.0" /></g><g id="node-29" transform="translate(454.116,31.120)"><circle r="0.0" /></g><g id="node-30" transform="translate(450.235,57.650)"><circle r="0.0" /></g><g id="node-31" transform="translate(447.953,35.189)"><circle r="0.0" /></g><g id="node-32" transform="translate(445.000,46.419)"><circle r="0.0" /></g></g></g></g></g></svg>