<svg class="toyplot-canvas-Canvas" xmlns:toyplot="http://www.sandia.gov/toyplot" xmlns:xlink="http://www.w3.org/1999/xlink" xmlns="http://www.w3.org/2000/svg" width="560.0px" height="100.0px" viewBox="0 0 560.0 100.0" preserveAspectRatio="xMidYMid meet" style="background-color:transparent;border-color:#292724;border-style:none;border-width:1.0;fill:rgb(16.1%,15.3%,14.1%);fill-opacity:1.0;font-family:Helvetica;font-size:12px;opacity:1.0;stroke:rgb(16.1%,15.3%,14.1%);stroke-opacity:1.0;stroke-width:1.0" id="t9d3aeda000d84cfa9fb0817c1ad67095"><g class="toyplot-coordinates-Cartesian" id="tb57c8511c1894e8a9d7fcbbc417c1245"><clipPath id="tf17ccde73aa74f2f8c4b5238d2d28fdc"><rect x="15.0" y="15.0" width="110.0" height="70.0" /></clipPath><g clip-path="url(#tf17ccde73aa74f2f8c4b5238d2d28fdc)"><g class="toytree-mark-Toytree" id="t50b93c501ad846469a8766bda9d2fca8"><g class="toytree-Edges" style="fill:none;stroke:rgb(14.9%,14.9%,14.9%);stroke-linecap:round;stroke-opacity:1;stroke-width:0.5"><path d="M 25.0 36.1 L 25.0 43.1 L 43.2 43.1" id="14,13" /><path d="M 43.2 43.1 L 43.2 51.1 L 44.6 51.1" id="13,12" /><path d="M 44.6 51.1 L 44.6 44.0 L 49.0 44.0" id="12,11" /><path d="M 44.6 51.1 L 44.6 58.2 L 46.8 58.2" id="12,10" /><path d="M 46.8 58.2 L 46.8 63.4 L 50.8 63.4" id="10,9" /><path d="M 50.8 63.4 L 50.8 67.9 L 63.5 67.9" id="9,8" /><path d="M 25.0 36.1 L 25.0 29.2 L 106.1 29.2" id="14,7" /><path d="M 43.2 43.1 L 43.2 35.1 L 110.3 35.1" id="13,6" /><path d="M 49.0 44.0 L 49.0 41.1 L 104.7 41.1" id="11,5" /><path d="M 49.0 44.0 L 49.0 47.0 L 107.7 47.0" id="11,4" /><path d="M 46.8 58.2 L 46.8 53.0 L 103.8 53.0" id="10,3" /><path d="M 50.8 63.4 L 50.8 58.9 L 107.6 58.9" id="9,2" /><path d="M 63.5 67.9 L 63.5 64.9 L 105.9 64.9" id="8,1" /><path d="M 63.5 67.9 L 63.5 70.8 L 102.9 70.8" id="8,0" /></g><g class="toytree-Nodes" style="fill:rgb(100%,0%,0%);fill-opacity:1.0;stroke:None;stroke-width:1"><g id="node-0" transform="translate(102.900,70.833)"><circle r="2.5" /></g><g id="node-1" transform="translate(105.921,64.881)"><circle r="2.5" /></g><g id="node-2" transform="translate(107.597,58.929)"><circle r="2.5" /></g><g id="node-3" transform="translate(103.815,52.976)"><circle r="2.5" /></g><g id="node-4" transform="translate(107.672,47.024)"><circle r="2.5" /></g><g id="node-5" transform="translate(104.680,41.071)"><circle r="2.5" /></g><g id="node-6" transform="translate(110.263,35.119)"><circle r="2.5" /></g><g id="node-7" transform="translate(106.052,29.167)"><circle r="2.5" /></g><g id="node-8" transform="translate(63.515,67.857)"><circle r="0.0" /></g><g id="node-9" transform="translate(50.835,63.393)"><circle r="0.0" /></g><g id="node-10" transform="translate(46.831,58.185)"><circle r="0.0" /></g><g id="node-11" transform="translate(49.033,44.048)"><circle r="0.0" /></g><g id="node-12" transform="translate(44.557,51.116)"><circle r="0.0" /></g><g id="node-13" transform="translate(43.162,43.118)"><circle r="0.0" /></g><g id="node-14" transform="translate(25.000,36.142)"><circle r="0.0" /></g></g></g></g></g><g class="toyplot-coordinates-Cartesian" id="t1b43b15302cd4b9ab450df7d82aebb2f"><clipPath id="t9fdbcb5877af46dfbde8dab15a47282a"><rect x="155.0" y="15.0" width="110.0" height="70.0" /></clipPath><g clip-path="url(#t9fdbcb5877af46dfbde8dab15a47282a)"><g class="toytree-mark-Toytree" id="t8a89a46a85424719860ac42d3786d33c"><g class="toytree-Edges" style="fill:none;stroke:rgb(14.9%,14.9%,14.9%);stroke-linecap:round;stroke-opacity:1;stroke-width:0.5"><path d="M 165.0 36.1 L 165.0 43.1 L 196.1 43.1" id="14,13" /><path d="M 196.1 43.1 L 196.1 51.1 L 208.9 51.1" id="13,12" /><path d="M 208.9 51.1 L 208.9 44.0 L 215.9 44.0" id="12,11" /><path d="M 208.9 51.1 L 208.9 58.2 L 213.6 58.2" id="12,10" /><path d="M 213.6 58.2 L 213.6 63.4 L 221.2 63.4" id="10,9" /><path d="M 221.2 63.4 L 221.2 67.9 L 226.0 67.9" id="9,8" /><path d="M 165.0 36.1 L 165.0 29.2 L 236.5 29.2" id="14,7" /><path d="M 196.1 43.1 L 196.1 35.1 L 219.5 35.1" id="13,6" /><path d="M 215.9 44.0 L 215.9 41.1 L 221.7 41.1" id="11,5" /><path d="M 215.9 44.0 L 215.9 47.0 L 244.1 47.0" id="11,4" /><path d="M 213.6 58.2 L 213.6 53.0 L 247.3 53.0" id="10,3" /><path d="M 221.2 63.4 L 221.2 58.9 L 238.5 58.9" id="9,2" /><path d="M 226.0 67.9 L 226.0 64.9 L 250.3 64.9" id="8,1" /><path d="M 226.0 67.9 L 226.0 70.8 L 249.6 70.8" id="8,0" /></g><g class="toytree-Nodes" style="fill:rgb(100%,0%,0%);fill-opacity:1.0;stroke:None;stroke-width:1"><g id="node-0" transform="translate(249.639,70.833)"><circle r="2.5" /></g><g id="node-1" transform="translate(250.263,64.881)"><circle r="2.5" /></g><g id="node-2" transform="translate(238.481,58.929)"><circle r="2.5" /></g><g id="node-3" transform="translate(247.324,52.976)"><circle r="2.5" /></g><g id="node-4" transform="translate(244.054,47.024)"><circle r="2.5" /></g><g id="node-5" transform="translate(221.689,41.071)"><circle r="2.5" /></g><g id="node-6" transform="translate(219.546,35.119)"><circle r="2.5" /></g><g id="node-7" transform="translate(236.546,29.167)"><circle r="2.5" /></g><g id="node-8" transform="translate(225.976,67.857)"><circle r="0.0" /></g><g id="node-9" transform="translate(221.236,63.393)"><circle r="0.0" /></g><g id="node-10" transform="translate(213.550,58.185)"><circle r="0.0" /></g><g id="node-11" transform="translate(215.939,44.048)"><circle r="0.0" /></g><g id="node-12" transform="translate(208.915,51.116)"><circle r="0.0" /></g><g id="node-13" transform="translate(196.109,43.118)"><circle r="0.0" /></g><g id="node-14" transform="translate(165.000,36.142)"><circle r="0.0" /></g></g></g></g></g><g class="toyplot-coordinates-Cartesian" id="t5d6360c46771427780449af18967304f"><clipPath id="t0ef269ac17df416b975bce597d8b45b2"><rect x="295.0" y="15.0" width="110.0" height="70.0" /></clipPath><g clip-path="url(#t0ef269ac17df416b975bce597d8b45b2)"><g class="toytree-mark-Toytree" id="tbaa489ec001d4b2f8511fc387ceb49a0"><g class="toytree-Edges" style="fill:none;stroke:rgb(14.9%,14.9%,14.9%);stroke-linecap:round;stroke-opacity:1;stroke-width:0.5"><path d="M 305.0 36.1 L 305.0 43.1 L 336.7 43.1" id="14,13" /><path d="M 336.7 43.1 L 336.7 51.1 L 338.6 51.1" id="13,12" /><path d="M 338.6 51.1 L 338.6 44.0 L 343.6 44.0" id="12,11" /><path d="M 338.6 51.1 L 338.6 58.2 L 340.8 58.2" id="12,10" /><path d="M 340.8 58.2 L 340.8 63.4 L 342.5 63.4" id="10,9" /><path d="M 342.5 63.4 L 342.5 67.9 L 359.8 67.9" id="9,8" /><path d="M 305.0 36.1 L 305.0 29.2 L 379.2 29.2" id="14,7" /><path d="M 336.7 43.1 L 336.7 35.1 L 373.6 35.1" id="13,6" /><path d="M 343.6 44.0 L 343.6 41.1 L 370.7 41.1" id="11,5" /><path d="M 343.6 44.0 L 343.6 47.0 L 378.0 47.0" id="11,4" /><path d="M 340.8 58.2 L 340.8 53.0 L 385.7 53.0" id="10,3" /><path d="M 342.5 63.4 L 342.5 58.9 L 375.4 58.9" id="9,2" /><path d="M 359.8 67.9 L 359.8 64.9 L 390.3 64.9" id="8,1" /><path d="M 359.8 67.9 L 359.8 70.8 L 384.8 70.8" id="8,0" /></g><g class="toytree-Nodes" style="fill:rgb(100%,0%,0%);fill-opacity:1.0;stroke:None;stroke-width:1"><g id="node-0" transform="translate(384.783,70.833)"><circle r="2.5" /></g><g id="node-1" transform="translate(390.263,64.881)"><circle r="2.5" /></g><g id="node-2" transform="translate(375.395,58.929)"><circle r="2.5" /></g><g id="node-3" transform="translate(385.721,52.976)"><circle r="2.5" /></g><g id="node-4" transform="translate(377.989,47.024)"><circle r="2.5" /></g><g id="node-5" transform="translate(370.683,41.071)"><circle r="2.5" /></g><g id="node-6" transform="translate(373.607,35.119)"><circle r="2.5" /></g><g id="node-7" transform="translate(379.183,29.167)"><circle r="2.5" /></g><g id="node-8" transform="translate(359.811,67.857)"><circle r="0.0" /></g><g id="node-9" transform="translate(342.487,63.393)"><circle r="0.0" /></g><g id="node-10" transform="translate(340.806,58.185)"><circle r="0.0" /></g><g id="node-11" transform="translate(343.604,44.048)"><circle r="0.0" /></g><g id="node-12" transform="translate(338.564,51.116)"><circle r="0.0" /></g><g id="node-13" transform="translate(336.728,43.118)"><circle r="0.0" /></g><g id="node-14" transform="translate(305.000,36.142)"><circle r="0.0" /></g></g></g></g></g><g class="toyplot-coordinates-Cartesian" id="te20ce9a9fed24260a5833710fe46b610"><clipPath id="t5c020b07de214180957f247335655316"><rect x="435.0" y="15.0" width="110.0" height="70.0" /></clipPath><g clip-path="url(#t5c020b07de214180957f247335655316)"><g class="toytree-mark-Toytree" id="t35bd8431137d4a0caac4f0f3b7a57c03"><g class="toytree-Edges" style="fill:none;stroke:rgb(14.9%,14.9%,14.9%);stroke-linecap:round;stroke-opacity:1;stroke-width:0.5"><path d="M 445.0 45.2 L 445.0 33.6 L 447.8 33.6" id="14,13" /><path d="M 445.0 45.2 L 445.0 56.7 L 450.1 56.7" id="14,12" /><path d="M 447.8 33.6 L 447.8 38.1 L 452.4 38.1" id="13,11" /><path d="M 450.1 56.7 L 450.1 50.0 L 459.0 50.0" id="12,10" /><path d="M 450.1 56.7 L 450.1 63.4 L 455.6 63.4" id="12,9" /><path d="M 455.6 63.4 L 455.6 67.9 L 463.1 67.9" id="9,8" /><path d="M 447.8 33.6 L 447.8 29.2 L 477.3 29.2" id="13,7" /><path d="M 452.4 38.1 L 452.4 35.1 L 492.7 35.1" id="11,6" /><path d="M 452.4 38.1 L 452.4 41.1 L 477.4 41.1" id="11,5" /><path d="M 459.0 50.0 L 459.0 47.0 L 474.7 47.0" id="10,4" /><path d="M 459.0 50.0 L 459.0 53.0 L 530.3 53.0" id="10,3" /><path d="M 455.6 63.4 L 455.6 58.9 L 484.2 58.9" id="9,2" /><path d="M 463.1 67.9 L 463.1 64.9 L 480.1 64.9" id="8,1" /><path d="M 463.1 67.9 L 463.1 70.8 L 472.5 70.8" id="8,0" /></g><g class="toytree-Nodes" style="fill:rgb(100%,0%,0%);fill-opacity:1.0;stroke:None;stroke-width:1"><g id="node-0" transform="translate(472.519,70.833)"><circle r="2.5" /></g><g id="node-1" transform="translate(480.141,64.881)"><circle r="2.5" /></g><g id="node-2" transform="translate(484.164,58.929)"><circle r="2.5" /></g><g id="node-3" transform="translate(530.263,52.976)"><circle r="2.5" /></g><g id="node-4" transform="translate(474.674,47.024)"><circle r="2.5" /></g><g id="node-5" transform="translate(477.389,41.071)"><circle r="2.5" /></g><g id="node-6" transform="translate(492.694,35.119)"><circle r="2.5" /></g><g id="node-7" transform="translate(477.349,29.167)"><circle r="2.5" /></g><g id="node-8" transform="translate(463.086,67.857)"><circle r="0.0" /></g><g id="node-9" transform="translate(455.641,63.393)"><circle r="0.0" /></g><g id="node-10" transform="translate(458.985,50.000)"><circle r="0.0" /></g><g id="node-11" transform="translate(452.382,38.095)"><circle r="0.0" /></g><g id="node-12" transform="translate(450.134,56.696)"><circle r="0.0" /></g><g id="node-13" transform="translate(447.797,33.631)"><circle r="0.0" /></g><g id="node-14" transform="translate(445.000,45.164)"><circle r="0.0" /></g></g></g></g></g></svg>