<svg class="toyplot-canvas-Canvas" xmlns:toyplot="http://www.sandia.gov/toyplot" xmlns:xlink="http://www.w3.org/1999/xlink" xmlns="http://www.w3.org/2000/svg" width="300.0px" height="1000.0px" viewBox="0 0 300.0 1000.0" preserveAspectRatio="xMidYMid meet" style="background-color:transparent;border-color:#292724;border-style:none;border-width:1.0;fill:rgb(16.1%,15.3%,14.1%);fill-opacity:1.0;font-family:Helvetica;font-size:12px;opacity:1.0;stroke:rgb(16.1%,15.3%,14.1%);stroke-opacity:1.0;stroke-width:1.0" id="tae8ad920b734455dafcf6077ab60bf79"><g class="toyplot-coordinates-Cartesian" id="t52e1a1b1a8fb4bb4b50e18443867bcd6"><clipPath id="t0219eba2a4c24aaab7d6c006e76daf06"><rect x="30.0" y="30.0" width="240.0" height="940.0" /></clipPath><g clip-path="url(#t0219eba2a4c24aaab7d6c006e76daf06)"><g class="toytree-mark-Toytree" id="t8857096034f7499097d4e9739a82a704"><g class="toytree-Edges" style="fill:none;stroke:rgb(14.9%,14.9%,14.9%);stroke-linecap:round;stroke-opacity:1;stroke-width:2"><path d="M 51.3 94.1 L 51.3 73.7 L 61.1 73.7" id="261,260" /><path d="M 51.3 94.1 L 51.3 147.4 L 64.5 147.4" id="261,259" /><path d="M 61.1 73.7 L 61.1 79.5 L 62.8 79.5" id="260,258" /><path d="M 64.5 147.4 L 64.5 200.1 L 65.6 200.1" id="259,257" /><path d="M 62.8 79.5 L 62.8 84.6 L 63.9 84.6" id="258,256" /><path d="M 65.6 200.1 L 65.6 135.3 L 66.9 135.3" id="257,255" /><path d="M 65.6 200.1 L 65.6 264.9 L 68.1 264.9" id="257,254" /><path d="M 66.9 135.3 L 66.9 104.7 L 79.3 104.7" id="255,253" /><path d="M 66.9 135.3 L 66.9 165.9 L 67.8 165.9" id="255,252" /><path d="M 68.1 264.9 L 68.1 274.4 L 68.5 274.4" id="254,251" /><path d="M 67.8 165.9 L 67.8 129.2 L 70.0 129.2" id="252,250" /><path d="M 67.8 165.9 L 67.8 202.6 L 69.9 202.6" id="252,249" /><path d="M 68.5 274.4 L 68.5 265.5 L 70.7 265.5" id="251,248" /><path d="M 68.5 274.4 L 68.5 283.3 L 69.0 283.3" id="251,247" /><path d="M 70.0 129.2 L 70.0 118.1 L 114.3 118.1" id="250,246" /><path d="M 70.0 129.2 L 70.0 140.3 L 80.8 140.3" id="250,245" /><path d="M 69.9 202.6 L 69.9 187.6 L 71.6 187.6" id="249,244" /><path d="M 69.9 202.6 L 69.9 217.5 L 82.7 217.5" id="249,243" /><path d="M 69.0 283.3 L 69.0 291.1 L 69.7 291.1" id="247,242" /><path d="M 80.8 140.3 L 80.8 152.4 L 86.9 152.4" id="245,241" /><path d="M 71.6 187.6 L 71.6 193.5 L 77.3 193.5" id="244,240" /><path d="M 82.7 217.5 L 82.7 226.5 L 92.2 226.5" id="243,239" /><path d="M 69.7 291.1 L 69.7 300.0 L 70.4 300.0" id="242,238" /><path d="M 86.9 152.4 L 86.9 139.8 L 91.3 139.8" id="241,237" /><path d="M 86.9 152.4 L 86.9 165.0 L 95.1 165.0" id="241,236" /><path d="M 77.3 193.5 L 77.3 198.5 L 86.7 198.5" id="240,235" /><path d="M 92.2 226.5 L 92.2 218.6 L 98.4 218.6" id="239,234" /><path d="M 92.2 226.5 L 92.2 234.5 L 97.4 234.5" id="239,233" /><path d="M 70.4 300.0 L 70.4 311.1 L 72.2 311.1" id="238,232" /><path d="M 91.3 139.8 L 91.3 144.9 L 102.7 144.9" id="237,231" /><path d="M 95.1 165.0 L 95.1 158.3 L 103.7 158.3" id="236,230" /><path d="M 95.1 165.0 L 95.1 171.7 L 105.2 171.7" id="236,229" /><path d="M 97.4 234.5 L 97.4 240.4 L 101.0 240.4" id="233,228" /><path d="M 72.2 311.1 L 72.2 326.5 L 76.2 326.5" id="232,227" /><path d="M 101.0 240.4 L 101.0 245.4 L 121.6 245.4" id="228,226" /><path d="M 76.2 326.5 L 76.2 305.7 L 94.9 305.7" id="227,225" /><path d="M 76.2 326.5 L 76.2 347.4 L 76.9 347.4" id="227,224" /><path d="M 76.9 347.4 L 76.9 322.0 L 78.3 322.0" id="224,223" /><path d="M 76.9 347.4 L 76.9 372.8 L 79.0 372.8" id="224,222" /><path d="M 78.3 322.0 L 78.3 328.3 L 79.8 328.3" id="223,221" /><path d="M 79.0 372.8 L 79.0 396.3 L 79.5 396.3" id="222,220" /><path d="M 79.8 328.3 L 79.8 334.2 L 82.6 334.2" id="221,219" /><path d="M 79.5 396.3 L 79.5 436.7 L 87.6 436.7" id="220,218" /><path d="M 82.6 334.2 L 82.6 339.2 L 84.1 339.2" id="219,217" /><path d="M 87.6 436.7 L 87.6 510.7 L 90.1 510.7" id="218,216" /><path d="M 90.1 510.7 L 90.1 386.8 L 94.8 386.8" id="216,215" /><path d="M 90.1 510.7 L 90.1 634.5 L 91.3 634.5" id="216,214" /><path d="M 94.8 386.8 L 94.8 404.4 L 101.6 404.4" id="215,213" /><path d="M 91.3 634.5 L 91.3 609.7 L 93.0 609.7" id="214,212" /><path d="M 91.3 634.5 L 91.3 659.4 L 93.3 659.4" id="214,211" /><path d="M 101.6 404.4 L 101.6 386.9 L 112.0 386.9" id="213,210" /><path d="M 101.6 404.4 L 101.6 421.8 L 104.7 421.8" id="213,209" /><path d="M 93.0 609.7 L 93.0 615.6 L 101.0 615.6" id="212,208" /><path d="M 93.3 659.4 L 93.3 634.0 L 118.7 634.0" id="211,207" /><path d="M 93.3 659.4 L 93.3 684.7 L 97.8 684.7" id="211,206" /><path d="M 112.0 386.9 L 112.0 379.4 L 121.2 379.4" id="210,205" /><path d="M 112.0 386.9 L 112.0 394.5 L 115.5 394.5" id="210,204" /><path d="M 104.7 421.8 L 104.7 434.0 L 107.1 434.0" id="209,203" /><path d="M 101.0 615.6 L 101.0 620.6 L 112.8 620.6" id="208,202" /><path d="M 97.8 684.7 L 97.8 655.7 L 102.1 655.7" id="206,201" /><path d="M 97.8 684.7 L 97.8 713.7 L 105.9 713.7" id="206,200" /><path d="M 115.5 394.5 L 115.5 399.5 L 118.0 399.5" id="204,199" /><path d="M 107.1 434.0 L 107.1 421.3 L 115.4 421.3" id="203,198" /><path d="M 107.1 434.0 L 107.1 446.8 L 107.9 446.8" id="203,197" /><path d="M 102.1 655.7 L 102.1 647.4 L 106.3 647.4" id="201,196" /><path d="M 102.1 655.7 L 102.1 664.0 L 104.1 664.0" id="201,195" /><path d="M 105.9 713.7 L 105.9 701.0 L 112.1 701.0" id="200,194" /><path d="M 105.9 713.7 L 105.9 726.4 L 110.2 726.4" id="200,193" /><path d="M 115.4 421.3 L 115.4 426.3 L 123.1 426.3" id="198,192" /><path d="M 107.9 446.8 L 107.9 457.2 L 109.9 457.2" id="197,191" /><path d="M 104.1 664.0 L 104.1 670.4 L 111.8 670.4" id="195,190" /><path d="M 110.2 726.4 L 110.2 714.4 L 119.8 714.4" id="193,189" /><path d="M 110.2 726.4 L 110.2 738.4 L 112.5 738.4" id="193,188" /><path d="M 109.9 457.2 L 109.9 471.3 L 110.9 471.3" id="191,187" /><path d="M 111.8 670.4 L 111.8 676.7 L 112.9 676.7" id="190,186" /><path d="M 112.5 738.4 L 112.5 752.4 L 113.3 752.4" id="188,185" /><path d="M 110.9 471.3 L 110.9 453.1 L 116.7 453.1" id="187,184" /><path d="M 110.9 471.3 L 110.9 489.6 L 111.8 489.6" id="187,183" /><path d="M 112.9 676.7 L 112.9 682.6 L 113.8 682.6" id="186,182" /><path d="M 113.3 752.4 L 113.3 773.7 L 114.2 773.7" id="185,181" /><path d="M 111.8 489.6 L 111.8 469.0 L 116.4 469.0" id="183,180" /><path d="M 111.8 489.6 L 111.8 510.1 L 112.9 510.1" id="183,179" /><path d="M 113.8 682.6 L 113.8 687.6 L 120.3 687.6" id="182,178" /><path d="M 114.2 773.7 L 114.2 746.7 L 114.6 746.7" id="181,177" /><path d="M 114.2 773.7 L 114.2 800.7 L 114.8 800.7" id="181,176" /><path d="M 116.4 469.0 L 116.4 474.9 L 121.5 474.9" id="180,175" /><path d="M 112.9 510.1 L 112.9 493.3 L 113.9 493.3" id="179,174" /><path d="M 112.9 510.1 L 112.9 527.0 L 114.5 527.0" id="179,173" /><path d="M 114.6 746.7 L 114.6 755.5 L 116.9 755.5" id="177,172" /><path d="M 114.8 800.7 L 114.8 783.1 L 120.1 783.1" id="176,171" /><path d="M 114.8 800.7 L 114.8 818.2 L 115.2 818.2" id="176,170" /><path d="M 121.5 474.9 L 121.5 479.9 L 123.1 479.9" id="175,169" /><path d="M 114.5 527.0 L 114.5 508.4 L 114.9 508.4" id="173,168" /><path d="M 114.5 527.0 L 114.5 545.6 L 115.8 545.6" id="173,167" /><path d="M 116.9 755.5 L 116.9 747.9 L 118.0 747.9" id="172,166" /><path d="M 116.9 755.5 L 116.9 763.0 L 120.6 763.0" id="172,165" /><path d="M 120.1 783.1 L 120.1 788.1 L 123.9 788.1" id="171,164" /><path d="M 115.2 818.2 L 115.2 801.5 L 117.1 801.5" id="170,163" /><path d="M 115.2 818.2 L 115.2 834.9 L 115.6 834.9" id="170,162" /><path d="M 114.9 508.4 L 114.9 513.4 L 116.8 513.4" id="168,161" /><path d="M 115.8 545.6 L 115.8 529.3 L 117.4 529.3" id="167,160" /><path d="M 115.8 545.6 L 115.8 561.9 L 117.2 561.9" id="167,159" /><path d="M 120.6 763.0 L 120.6 768.0 L 123.3 768.0" id="165,158" /><path d="M 115.6 834.9 L 115.6 816.6 L 116.4 816.6" id="162,157" /><path d="M 115.6 834.9 L 115.6 853.2 L 120.5 853.2" id="162,156" /><path d="M 117.4 529.3 L 117.4 535.2 L 117.4 535.2" id="160,155" /><path d="M 117.2 561.9 L 117.2 553.6 L 123.6 553.6" id="159,154" /><path d="M 117.2 561.9 L 117.2 570.1 L 119.0 570.1" id="159,153" /><path d="M 116.4 816.6 L 116.4 821.6 L 119.0 821.6" id="157,152" /><path d="M 120.5 853.2 L 120.5 835.0 L 121.5 835.0" id="156,151" /><path d="M 120.5 853.2 L 120.5 871.4 L 121.1 871.4" id="156,150" /><path d="M 117.4 535.2 L 117.4 540.2 L 118.9 540.2" id="155,149" /><path d="M 119.0 570.1 L 119.0 576.6 L 120.5 576.6" id="153,148" /><path d="M 121.1 871.4 L 121.1 850.1 L 125.5 850.1" id="150,147" /><path d="M 121.1 871.4 L 121.1 892.6 L 122.6 892.6" id="150,146" /><path d="M 120.5 576.6 L 120.5 582.9 L 122.1 582.9" id="148,145" /><path d="M 125.5 850.1 L 125.5 855.1 L 130.1 855.1" id="147,144" /><path d="M 122.6 892.6 L 122.6 875.2 L 123.2 875.2" id="146,143" /><path d="M 122.6 892.6 L 122.6 910.0 L 123.1 910.0" id="146,142" /><path d="M 122.1 582.9 L 122.1 588.8 L 124.1 588.8" id="145,141" /><path d="M 123.2 875.2 L 123.2 868.5 L 124.3 868.5" id="143,140" /><path d="M 123.2 875.2 L 123.2 881.9 L 124.8 881.9" id="143,139" /><path d="M 123.1 910.0 L 123.1 897.0 L 124.2 897.0" id="142,138" /><path d="M 123.1 910.0 L 123.1 923.0 L 123.7 923.0" id="142,137" /><path d="M 124.1 588.8 L 124.1 593.8 L 125.0 593.8" id="141,136" /><path d="M 124.2 897.0 L 124.2 902.0 L 124.7 902.0" id="138,135" /><path d="M 123.7 923.0 L 123.7 915.4 L 124.4 915.4" id="137,134" /><path d="M 123.7 923.0 L 123.7 930.5 L 123.9 930.5" id="137,133" /><path d="M 123.9 930.5 L 123.9 935.5 L 124.2 935.5" id="133,132" /><path d="M 51.3 94.1 L 51.3 61.1 L 79.4 61.1" id="261,131" /><path d="M 61.1 73.7 L 61.1 67.8 L 81.5 67.8" id="260,130" /><path d="M 62.8 79.5 L 62.8 74.5 L 84.9 74.5" id="258,129" /><path d="M 63.9 84.6 L 63.9 81.2 L 83.7 81.2" id="256,128" /><path d="M 63.9 84.6 L 63.9 87.9 L 82.6 87.9" id="256,127" /><path d="M 64.5 147.4 L 64.5 94.6 L 103.4 94.6" id="259,126" /><path d="M 79.3 104.7 L 79.3 101.3 L 108.0 101.3" id="253,125" /><path d="M 79.3 104.7 L 79.3 108.0 L 110.5 108.0" id="253,124" /><path d="M 114.3 118.1 L 114.3 114.7 L 122.6 114.7" id="246,123" /><path d="M 114.3 118.1 L 114.3 121.4 L 120.2 121.4" id="246,122" /><path d="M 80.8 140.3 L 80.8 128.1 L 118.7 128.1" id="245,121" /><path d="M 91.3 139.8 L 91.3 134.8 L 118.8 134.8" id="237,120" /><path d="M 102.7 144.9 L 102.7 141.5 L 114.9 141.5" id="231,119" /><path d="M 102.7 144.9 L 102.7 148.2 L 114.8 148.2" id="231,118" /><path d="M 103.7 158.3 L 103.7 154.9 L 115.4 154.9" id="230,117" /><path d="M 103.7 158.3 L 103.7 161.6 L 114.7 161.6" id="230,116" /><path d="M 105.2 171.7 L 105.2 168.3 L 115.2 168.3" id="229,115" /><path d="M 105.2 171.7 L 105.2 175.0 L 114.2 175.0" id="229,114" /><path d="M 71.6 187.6 L 71.6 181.7 L 113.7 181.7" id="244,113" /><path d="M 77.3 193.5 L 77.3 188.4 L 115.6 188.4" id="240,112" /><path d="M 86.7 198.5 L 86.7 195.1 L 116.9 195.1" id="235,111" /><path d="M 86.7 198.5 L 86.7 201.8 L 111.1 201.8" id="235,110" /><path d="M 82.7 217.5 L 82.7 208.5 L 146.2 208.5" id="243,109" /><path d="M 98.4 218.6 L 98.4 215.2 L 177.0 215.2" id="234,108" /><path d="M 98.4 218.6 L 98.4 221.9 L 166.3 221.9" id="234,107" /><path d="M 97.4 234.5 L 97.4 228.6 L 158.2 228.6" id="233,106" /><path d="M 101.0 240.4 L 101.0 235.3 L 136.4 235.3" id="228,105" /><path d="M 121.6 245.4 L 121.6 242.0 L 156.2 242.0" id="226,104" /><path d="M 121.6 245.4 L 121.6 248.7 L 155.2 248.7" id="226,103" /><path d="M 68.1 264.9 L 68.1 255.4 L 114.0 255.4" id="254,102" /><path d="M 70.7 265.5 L 70.7 262.1 L 121.0 262.1" id="248,101" /><path d="M 70.7 265.5 L 70.7 268.8 L 131.7 268.8" id="248,100" /><path d="M 69.0 283.3 L 69.0 275.5 L 126.3 275.5" id="247,99" /><path d="M 69.7 291.1 L 69.7 282.2 L 123.6 282.2" id="242,98" /><path d="M 70.4 300.0 L 70.4 288.9 L 134.3 288.9" id="238,97" /><path d="M 72.2 311.1 L 72.2 295.6 L 118.3 295.6" id="232,96" /><path d="M 94.9 305.7 L 94.9 302.3 L 135.0 302.3" id="225,95" /><path d="M 94.9 305.7 L 94.9 309.0 L 132.9 309.0" id="225,94" /><path d="M 78.3 322.0 L 78.3 315.7 L 138.3 315.7" id="223,93" /><path d="M 79.8 328.3 L 79.8 322.4 L 155.5 322.4" id="221,92" /><path d="M 82.6 334.2 L 82.6 329.1 L 122.1 329.1" id="219,91" /><path d="M 84.1 339.2 L 84.1 335.8 L 139.2 335.8" id="217,90" /><path d="M 84.1 339.2 L 84.1 342.5 L 129.7 342.5" id="217,89" /><path d="M 79.0 372.8 L 79.0 349.2 L 130.1 349.2" id="222,88" /><path d="M 79.5 396.3 L 79.5 355.9 L 142.8 355.9" id="220,87" /><path d="M 87.6 436.7 L 87.6 362.6 L 139.6 362.6" id="218,86" /><path d="M 94.8 386.8 L 94.8 369.3 L 126.8 369.3" id="215,85" /><path d="M 121.2 379.4 L 121.2 376.0 L 131.5 376.0" id="205,84" /><path d="M 121.2 379.4 L 121.2 382.7 L 136.0 382.7" id="205,83" /><path d="M 115.5 394.5 L 115.5 389.4 L 134.0 389.4" id="204,82" /><path d="M 118.0 399.5 L 118.0 396.1 L 132.6 396.1" id="199,81" /><path d="M 118.0 399.5 L 118.0 402.8 L 131.6 402.8" id="199,80" /><path d="M 104.7 421.8 L 104.7 409.5 L 140.1 409.5" id="209,79" /><path d="M 115.4 421.3 L 115.4 416.2 L 129.8 416.2" id="198,78" /><path d="M 123.1 426.3 L 123.1 422.9 L 136.5 422.9" id="192,77" /><path d="M 123.1 426.3 L 123.1 429.6 L 136.0 429.6" id="192,76" /><path d="M 107.9 446.8 L 107.9 436.3 L 132.1 436.3" id="197,75" /><path d="M 109.9 457.2 L 109.9 443.0 L 131.1 443.0" id="191,74" /><path d="M 116.7 453.1 L 116.7 449.7 L 132.6 449.7" id="184,73" /><path d="M 116.7 453.1 L 116.7 456.4 L 132.2 456.4" id="184,72" /><path d="M 116.4 469.0 L 116.4 463.1 L 130.8 463.1" id="180,71" /><path d="M 121.5 474.9 L 121.5 469.8 L 127.2 469.8" id="175,70" /><path d="M 123.1 479.9 L 123.1 476.5 L 127.3 476.5" id="169,69" /><path d="M 123.1 479.9 L 123.1 483.2 L 128.3 483.2" id="169,68" /><path d="M 113.9 493.3 L 113.9 489.9 L 131.1 489.9" id="174,67" /><path d="M 113.9 493.3 L 113.9 496.6 L 133.2 496.6" id="174,66" /><path d="M 114.9 508.4 L 114.9 503.4 L 132.3 503.4" id="168,65" /><path d="M 116.8 513.4 L 116.8 510.1 L 132.1 510.1" id="161,64" /><path d="M 116.8 513.4 L 116.8 516.8 L 131.6 516.8" id="161,63" /><path d="M 117.4 529.3 L 117.4 523.5 L 131.3 523.5" id="160,62" /><path d="M 117.4 535.2 L 117.4 530.2 L 133.0 530.2" id="155,61" /><path d="M 118.9 540.2 L 118.9 536.9 L 132.4 536.9" id="149,60" /><path d="M 118.9 540.2 L 118.9 543.6 L 132.2 543.6" id="149,59" /><path d="M 123.6 553.6 L 123.6 550.3 L 132.8 550.3" id="154,58" /><path d="M 123.6 553.6 L 123.6 557.0 L 131.4 557.0" id="154,57" /><path d="M 119.0 570.1 L 119.0 563.7 L 129.9 563.7" id="153,56" /><path d="M 120.5 576.6 L 120.5 570.4 L 131.9 570.4" id="148,55" /><path d="M 122.1 582.9 L 122.1 577.1 L 135.5 577.1" id="145,54" /><path d="M 124.1 588.8 L 124.1 583.8 L 133.6 583.8" id="141,53" /><path d="M 125.0 593.8 L 125.0 590.5 L 129.5 590.5" id="136,52" /><path d="M 125.0 593.8 L 125.0 597.2 L 132.8 597.2" id="136,51" /><path d="M 93.0 609.7 L 93.0 603.9 L 125.4 603.9" id="212,50" /><path d="M 101.0 615.6 L 101.0 610.6 L 133.0 610.6" id="208,49" /><path d="M 112.8 620.6 L 112.8 617.3 L 131.9 617.3" id="202,48" /><path d="M 112.8 620.6 L 112.8 624.0 L 140.6 624.0" id="202,47" /><path d="M 118.7 634.0 L 118.7 630.7 L 130.5 630.7" id="207,46" /><path d="M 118.7 634.0 L 118.7 637.4 L 134.1 637.4" id="207,45" /><path d="M 106.3 647.4 L 106.3 644.1 L 139.7 644.1" id="196,44" /><path d="M 106.3 647.4 L 106.3 650.8 L 132.2 650.8" id="196,43" /><path d="M 104.1 664.0 L 104.1 657.5 L 126.4 657.5" id="195,42" /><path d="M 111.8 670.4 L 111.8 664.2 L 127.0 664.2" id="190,41" /><path d="M 112.9 676.7 L 112.9 670.9 L 131.8 670.9" id="186,40" /><path d="M 113.8 682.6 L 113.8 677.6 L 132.0 677.6" id="182,39" /><path d="M 120.3 687.6 L 120.3 684.3 L 133.4 684.3" id="178,38" /><path d="M 120.3 687.6 L 120.3 691.0 L 133.2 691.0" id="178,37" /><path d="M 112.1 701.0 L 112.1 697.7 L 137.3 697.7" id="194,36" /><path d="M 112.1 701.0 L 112.1 704.4 L 129.1 704.4" id="194,35" /><path d="M 119.8 714.4 L 119.8 711.1 L 134.0 711.1" id="189,34" /><path d="M 119.8 714.4 L 119.8 717.8 L 134.0 717.8" id="189,33" /><path d="M 112.5 738.4 L 112.5 724.5 L 129.1 724.5" id="188,32" /><path d="M 113.3 752.4 L 113.3 731.2 L 135.6 731.2" id="185,31" /><path d="M 114.6 746.7 L 114.6 737.9 L 131.0 737.9" id="177,30" /><path d="M 118.0 747.9 L 118.0 744.6 L 154.2 744.6" id="166,29" /><path d="M 118.0 747.9 L 118.0 751.3 L 127.2 751.3" id="166,28" /><path d="M 120.6 763.0 L 120.6 758.0 L 130.5 758.0" id="165,27" /><path d="M 123.3 768.0 L 123.3 764.7 L 133.9 764.7" id="158,26" /><path d="M 123.3 768.0 L 123.3 771.4 L 130.1 771.4" id="158,25" /><path d="M 120.1 783.1 L 120.1 778.1 L 130.7 778.1" id="171,24" /><path d="M 123.9 788.1 L 123.9 784.8 L 130.7 784.8" id="164,23" /><path d="M 123.9 788.1 L 123.9 791.5 L 135.4 791.5" id="164,22" /><path d="M 117.1 801.5 L 117.1 798.2 L 131.0 798.2" id="163,21" /><path d="M 117.1 801.5 L 117.1 804.9 L 129.8 804.9" id="163,20" /><path d="M 116.4 816.6 L 116.4 811.6 L 132.6 811.6" id="157,19" /><path d="M 119.0 821.6 L 119.0 818.3 L 130.9 818.3" id="152,18" /><path d="M 119.0 821.6 L 119.0 825.0 L 130.0 825.0" id="152,17" /><path d="M 121.5 835.0 L 121.5 831.7 L 129.8 831.7" id="151,16" /><path d="M 121.5 835.0 L 121.5 838.4 L 128.8 838.4" id="151,15" /><path d="M 125.5 850.1 L 125.5 845.1 L 139.6 845.1" id="147,14" /><path d="M 130.1 855.1 L 130.1 851.8 L 138.9 851.8" id="144,13" /><path d="M 130.1 855.1 L 130.1 858.5 L 143.8 858.5" id="144,12" /><path d="M 124.3 868.5 L 124.3 865.2 L 131.8 865.2" id="140,11" /><path d="M 124.3 868.5 L 124.3 871.9 L 132.3 871.9" id="140,10" /><path d="M 124.8 881.9 L 124.8 878.6 L 130.3 878.6" id="139,9" /><path d="M 124.8 881.9 L 124.8 885.3 L 128.1 885.3" id="139,8" /><path d="M 124.2 897.0 L 124.2 892.0 L 130.6 892.0" id="138,7" /><path d="M 124.7 902.0 L 124.7 898.7 L 131.8 898.7" id="135,6" /><path d="M 124.7 902.0 L 124.7 905.4 L 130.0 905.4" id="135,5" /><path d="M 124.4 915.4 L 124.4 912.1 L 128.5 912.1" id="134,4" /><path d="M 124.4 915.4 L 124.4 918.8 L 128.8 918.8" id="134,3" /><path d="M 123.9 930.5 L 123.9 925.5 L 127.8 925.5" id="133,2" /><path d="M 124.2 935.5 L 124.2 932.2 L 130.7 932.2" id="132,1" /><path d="M 124.2 935.5 L 124.2 938.9 L 129.9 938.9" id="132,0" /></g><g class="toytree-AlignEdges" style="stroke:rgb(66.3%,66.3%,66.3%);stroke-dasharray:2, 4;stroke-linecap:round;stroke-opacity:1.0;stroke-width:2"><path d="M 177.0 938.9 L 129.9 938.9" /><path d="M 177.0 932.2 L 130.7 932.2" /><path d="M 177.0 925.5 L 127.8 925.5" /><path d="M 177.0 918.8 L 128.8 918.8" /><path d="M 177.0 912.1 L 128.5 912.1" /><path d="M 177.0 905.4 L 130.0 905.4" /><path d="M 177.0 898.7 L 131.8 898.7" /><path d="M 177.0 892.0 L 130.6 892.0" /><path d="M 177.0 885.3 L 128.1 885.3" /><path d="M 177.0 878.6 L 130.3 878.6" /><path d="M 177.0 871.9 L 132.3 871.9" /><path d="M 177.0 865.2 L 131.8 865.2" /><path d="M 177.0 858.5 L 143.8 858.5" /><path d="M 177.0 851.8 L 138.9 851.8" /><path d="M 177.0 845.1 L 139.6 845.1" /><path d="M 177.0 838.4 L 128.8 838.4" /><path d="M 177.0 831.7 L 129.8 831.7" /><path d="M 177.0 825.0 L 130.0 825.0" /><path d="M 177.0 818.3 L 130.9 818.3" /><path d="M 177.0 811.6 L 132.6 811.6" /><path d="M 177.0 804.9 L 129.8 804.9" /><path d="M 177.0 798.2 L 131.0 798.2" /><path d="M 177.0 791.5 L 135.4 791.5" /><path d="M 177.0 784.8 L 130.7 784.8" /><path d="M 177.0 778.1 L 130.7 778.1" /><path d="M 177.0 771.4 L 130.1 771.4" /><path d="M 177.0 764.7 L 133.9 764.7" /><path d="M 177.0 758.0 L 130.5 758.0" /><path d="M 177.0 751.3 L 127.2 751.3" /><path d="M 177.0 744.6 L 154.2 744.6" /><path d="M 177.0 737.9 L 131.0 737.9" /><path d="M 177.0 731.2 L 135.6 731.2" /><path d="M 177.0 724.5 L 129.1 724.5" /><path d="M 177.0 717.8 L 134.0 717.8" /><path d="M 177.0 711.1 L 134.0 711.1" /><path d="M 177.0 704.4 L 129.1 704.4" /><path d="M 177.0 697.7 L 137.3 697.7" /><path d="M 177.0 691.0 L 133.2 691.0" /><path d="M 177.0 684.3 L 133.4 684.3" /><path d="M 177.0 677.6 L 132.0 677.6" /><path d="M 177.0 670.9 L 131.8 670.9" /><path d="M 177.0 664.2 L 127.0 664.2" /><path d="M 177.0 657.5 L 126.4 657.5" /><path d="M 177.0 650.8 L 132.2 650.8" /><path d="M 177.0 644.1 L 139.7 644.1" /><path d="M 177.0 637.4 L 134.1 637.4" /><path d="M 177.0 630.7 L 130.5 630.7" /><path d="M 177.0 624.0 L 140.6 624.0" /><path d="M 177.0 617.3 L 131.9 617.3" /><path d="M 177.0 610.6 L 133.0 610.6" /><path d="M 177.0 603.9 L 125.4 603.9" /><path d="M 177.0 597.2 L 132.8 597.2" /><path d="M 177.0 590.5 L 129.5 590.5" /><path d="M 177.0 583.8 L 133.6 583.8" /><path d="M 177.0 577.1 L 135.5 577.1" /><path d="M 177.0 570.4 L 131.9 570.4" /><path d="M 177.0 563.7 L 129.9 563.7" /><path d="M 177.0 557.0 L 131.4 557.0" /><path d="M 177.0 550.3 L 132.8 550.3" /><path d="M 177.0 543.6 L 132.2 543.6" /><path d="M 177.0 536.9 L 132.4 536.9" /><path d="M 177.0 530.2 L 133.0 530.2" /><path d="M 177.0 523.5 L 131.3 523.5" /><path d="M 177.0 516.8 L 131.6 516.8" /><path d="M 177.0 510.1 L 132.1 510.1" /><path d="M 177.0 503.4 L 132.3 503.4" /><path d="M 177.0 496.6 L 133.2 496.6" /><path d="M 177.0 489.9 L 131.1 489.9" /><path d="M 177.0 483.2 L 128.3 483.2" /><path d="M 177.0 476.5 L 127.3 476.5" /><path d="M 177.0 469.8 L 127.2 469.8" /><path d="M 177.0 463.1 L 130.8 463.1" /><path d="M 177.0 456.4 L 132.2 456.4" /><path d="M 177.0 449.7 L 132.6 449.7" /><path d="M 177.0 443.0 L 131.1 443.0" /><path d="M 177.0 436.3 L 132.1 436.3" /><path d="M 177.0 429.6 L 136.0 429.6" /><path d="M 177.0 422.9 L 136.5 422.9" /><path d="M 177.0 416.2 L 129.8 416.2" /><path d="M 177.0 409.5 L 140.1 409.5" /><path d="M 177.0 402.8 L 131.6 402.8" /><path d="M 177.0 396.1 L 132.6 396.1" /><path d="M 177.0 389.4 L 134.0 389.4" /><path d="M 177.0 382.7 L 136.0 382.7" /><path d="M 177.0 376.0 L 131.5 376.0" /><path d="M 177.0 369.3 L 126.8 369.3" /><path d="M 177.0 362.6 L 139.6 362.6" /><path d="M 177.0 355.9 L 142.8 355.9" /><path d="M 177.0 349.2 L 130.1 349.2" /><path d="M 177.0 342.5 L 129.7 342.5" /><path d="M 177.0 335.8 L 139.2 335.8" /><path d="M 177.0 329.1 L 122.1 329.1" /><path d="M 177.0 322.4 L 155.5 322.4" /><path d="M 177.0 315.7 L 138.3 315.7" /><path d="M 177.0 309.0 L 132.9 309.0" /><path d="M 177.0 302.3 L 135.0 302.3" /><path d="M 177.0 295.6 L 118.3 295.6" /><path d="M 177.0 288.9 L 134.3 288.9" /><path d="M 177.0 282.2 L 123.6 282.2" /><path d="M 177.0 275.5 L 126.3 275.5" /><path d="M 177.0 268.8 L 131.7 268.8" /><path d="M 177.0 262.1 L 121.0 262.1" /><path d="M 177.0 255.4 L 114.0 255.4" /><path d="M 177.0 248.7 L 155.2 248.7" /><path d="M 177.0 242.0 L 156.2 242.0" /><path d="M 177.0 235.3 L 136.4 235.3" /><path d="M 177.0 228.6 L 158.2 228.6" /><path d="M 177.0 221.9 L 166.3 221.9" /><path d="M 177.0 215.2 L 177.0 215.2" /><path d="M 177.0 208.5 L 146.2 208.5" /><path d="M 177.0 201.8 L 111.1 201.8" /><path d="M 177.0 195.1 L 116.9 195.1" /><path d="M 177.0 188.4 L 115.6 188.4" /><path d="M 177.0 181.7 L 113.7 181.7" /><path d="M 177.0 175.0 L 114.2 175.0" /><path d="M 177.0 168.3 L 115.2 168.3" /><path d="M 177.0 161.6 L 114.7 161.6" /><path d="M 177.0 154.9 L 115.4 154.9" /><path d="M 177.0 148.2 L 114.8 148.2" /><path d="M 177.0 141.5 L 114.9 141.5" /><path d="M 177.0 134.8 L 118.8 134.8" /><path d="M 177.0 128.1 L 118.7 128.1" /><path d="M 177.0 121.4 L 120.2 121.4" /><path d="M 177.0 114.7 L 122.6 114.7" /><path d="M 177.0 108.0 L 110.5 108.0" /><path d="M 177.0 101.3 L 108.0 101.3" /><path d="M 177.0 94.6 L 103.4 94.6" /><path d="M 177.0 87.9 L 82.6 87.9" /><path d="M 177.0 81.2 L 83.7 81.2" /><path d="M 177.0 74.5 L 84.9 74.5" /><path d="M 177.0 67.8 L 81.5 67.8" /><path d="M 177.0 61.1 L 79.4 61.1" /></g><g class="toytree-TipLabels" style="fill:rgb(14.9%,14.9%,14.9%);fill-opacity:1.0;font-family:helvetica;font-size:9px;font-weight:normal;stroke:none;white-space:pre"><g transform="translate(176.98,938.88)rotate(0)"><text x="15.00" y="2.30" style="">A0A2K5HW98</text></g><g transform="translate(176.98,932.18)rotate(0)"><text x="15.00" y="2.30" style="">A0A2K6K3P5</text></g><g transform="translate(176.98,925.48)rotate(0)"><text x="15.00" y="2.30" style="">A0A096MT32</text></g><g transform="translate(176.98,918.78)rotate(0)"><text x="15.00" y="2.30" style="">A0A2K6BS58</text></g><g transform="translate(176.98,912.08)rotate(0)"><text x="15.00" y="2.30" style="">A0A2K5MLK0</text></g><g transform="translate(176.98,905.38)rotate(0)"><text x="15.00" y="2.30" style="">A0A0D9S0Q9</text></g><g transform="translate(176.98,898.68)rotate(0)"><text x="15.00" y="2.30" style="">A0A2K5YMT9</text></g><g transform="translate(176.98,891.98)rotate(0)"><text x="15.00" y="2.30" style="">A0A2K5W9E4</text></g><g transform="translate(176.98,885.28)rotate(0)"><text x="15.00" y="2.30" style="">A0A6D2Y0G2</text></g><g transform="translate(176.98,878.58)rotate(0)"><text x="15.00" y="2.30" style="">A0A2R9AC53</text></g><g transform="translate(176.98,871.88)rotate(0)"><text x="15.00" y="2.30" style="">G1RTU0</text></g><g transform="translate(176.98,865.18)rotate(0)"><text x="15.00" y="2.30" style="">A0A6D2W4N1</text></g><g transform="translate(176.98,858.48)rotate(0)"><text x="15.00" y="2.30" style="">G3S106</text></g><g transform="translate(176.98,851.78)rotate(0)"><text x="15.00" y="2.30" style="">A0A2K6RQB6</text></g><g transform="translate(176.98,845.07)rotate(0)"><text x="15.00" y="2.30" style="">F7GW78</text></g><g transform="translate(176.98,838.37)rotate(0)"><text x="15.00" y="2.30" style="">A0A2K5EC51</text></g><g transform="translate(176.98,831.67)rotate(0)"><text x="15.00" y="2.30" style="">A0A2K6V7S2</text></g><g transform="translate(176.98,824.97)rotate(0)"><text x="15.00" y="2.30" style="">A0A2K6EX61</text></g><g transform="translate(176.98,818.27)rotate(0)"><text x="15.00" y="2.30" style="">H0WSS6</text></g><g transform="translate(176.98,811.57)rotate(0)"><text x="15.00" y="2.30" style="">G1SN07</text></g><g transform="translate(176.98,804.87)rotate(0)"><text x="15.00" y="2.30" style="">A0A671ETV1</text></g><g transform="translate(176.98,798.17)rotate(0)"><text x="15.00" y="2.30" style="">A0A3Q2L9B7</text></g><g transform="translate(176.98,791.47)rotate(0)"><text x="15.00" y="2.30" style="">W5Q2A1</text></g><g transform="translate(176.98,784.77)rotate(0)"><text x="15.00" y="2.30" style="">A0A452FSQ0</text></g><g transform="translate(176.98,778.07)rotate(0)"><text x="15.00" y="2.30" style="">A0A4W2DSH0</text></g><g transform="translate(176.98,771.37)rotate(0)"><text x="15.00" y="2.30" style="">A0A384CTX8</text></g><g transform="translate(176.98,764.67)rotate(0)"><text x="15.00" y="2.30" style="">A0A452QVE4</text></g><g transform="translate(176.98,757.97)rotate(0)"><text x="15.00" y="2.30" style="">M3Z0Z9</text></g><g transform="translate(176.98,751.27)rotate(0)"><text x="15.00" y="2.30" style="">A0A337SPE5</text></g><g transform="translate(176.98,744.57)rotate(0)"><text x="15.00" y="2.30" style="">A0A673T3L4</text></g><g transform="translate(176.98,737.87)rotate(0)"><text x="15.00" y="2.30" style="">G1P4M4</text></g><g transform="translate(176.98,731.17)rotate(0)"><text x="15.00" y="2.30" style="">A0A286XIR9</text></g><g transform="translate(176.98,724.47)rotate(0)"><text x="15.00" y="2.30" style="">G3SLN8</text></g><g transform="translate(176.98,717.77)rotate(0)"><text x="15.00" y="2.30" style="">B2GUY1</text></g><g transform="translate(176.98,711.07)rotate(0)"><text x="15.00" y="2.30" style="">G3HMK5</text></g><g transform="translate(176.98,704.36)rotate(0)"><text x="15.00" y="2.30" style="">A0A4X2KG58</text></g><g transform="translate(176.98,697.66)rotate(0)"><text x="15.00" y="2.30" style="">F6YGH3</text></g><g transform="translate(176.98,690.96)rotate(0)"><text x="15.00" y="2.30" style="">A0A672UDR6</text></g><g transform="translate(176.98,684.26)rotate(0)"><text x="15.00" y="2.30" style="">A0A674GLV4</text></g><g transform="translate(176.98,677.56)rotate(0)"><text x="15.00" y="2.30" style="">U3IPH8</text></g><g transform="translate(176.98,670.86)rotate(0)"><text x="15.00" y="2.30" style="">A0A663MBW3</text></g><g transform="translate(176.98,664.16)rotate(0)"><text x="15.00" y="2.30" style="">A0A669QJC9</text></g><g transform="translate(176.98,657.46)rotate(0)"><text x="15.00" y="2.30" style="">K7FLW5</text></g><g transform="translate(176.98,650.76)rotate(0)"><text x="15.00" y="2.30" style="">A0A670IK22</text></g><g transform="translate(176.98,644.06)rotate(0)"><text x="15.00" y="2.30" style="">A0A670YQT0</text></g><g transform="translate(176.98,637.36)rotate(0)"><text x="15.00" y="2.30" style="">A0A1L8HLY0</text></g><g transform="translate(176.98,630.66)rotate(0)"><text x="15.00" y="2.30" style="">A0A1L8HUQ2</text></g><g transform="translate(176.98,623.96)rotate(0)"><text x="15.00" y="2.30" style="">A0A401SRM0</text></g><g transform="translate(176.98,617.26)rotate(0)"><text x="15.00" y="2.30" style="">A0A401PDG0</text></g><g transform="translate(176.98,610.56)rotate(0)"><text x="15.00" y="2.30" style="">A0A4W3K6Z2</text></g><g transform="translate(176.98,603.86)rotate(0)"><text x="15.00" y="2.30" style="">H3B8Z3</text></g><g transform="translate(176.98,597.16)rotate(0)"><text x="15.00" y="2.30" style="">A0A3P8QSP7</text></g><g transform="translate(176.98,590.46)rotate(0)"><text x="15.00" y="2.30" style="">A0A3Q2W3P0</text></g><g transform="translate(176.98,583.76)rotate(0)"><text x="15.00" y="2.30" style="">A0A669F9S4</text></g><g transform="translate(176.98,577.06)rotate(0)"><text x="15.00" y="2.30" style="">A0A3Q4GSW4</text></g><g transform="translate(176.98,570.36)rotate(0)"><text x="15.00" y="2.30" style="">A0A668W665</text></g><g transform="translate(176.98,563.65)rotate(0)"><text x="15.00" y="2.30" style="">A0A3Q0T2Z1</text></g><g transform="translate(176.98,556.95)rotate(0)"><text x="15.00" y="2.30" style="">A0A3Q1APX1</text></g><g transform="translate(176.98,550.25)rotate(0)"><text x="15.00" y="2.30" style="">A0A3P8U8L8</text></g><g transform="translate(176.98,543.55)rotate(0)"><text x="15.00" y="2.30" style="">A0A665WPW8</text></g><g transform="translate(176.98,536.85)rotate(0)"><text x="15.00" y="2.30" style="">A0A3B4T6P8</text></g><g transform="translate(176.98,530.15)rotate(0)"><text x="15.00" y="2.30" style="">A0A2U9CJ53</text></g><g transform="translate(176.98,523.45)rotate(0)"><text x="15.00" y="2.30" style="">A0A671WA74</text></g><g transform="translate(176.98,516.75)rotate(0)"><text x="15.00" y="2.30" style="">A0A1A8U1R0</text></g><g transform="translate(176.98,510.05)rotate(0)"><text x="15.00" y="2.30" style="">A0A3Q2ZTT6</text></g><g transform="translate(176.98,503.35)rotate(0)"><text x="15.00" y="2.30" style="">A0A3B3BIE0</text></g><g transform="translate(176.98,496.65)rotate(0)"><text x="15.00" y="2.30" style="">A0A3Q3X8B1</text></g><g transform="translate(176.98,489.95)rotate(0)"><text x="15.00" y="2.30" style="">G3NZT1</text></g><g transform="translate(176.98,483.25)rotate(0)"><text x="15.00" y="2.30" style="">A0A3B5Q007</text></g><g transform="translate(176.98,476.55)rotate(0)"><text x="15.00" y="2.30" style="">A0A087X4E6</text></g><g transform="translate(176.98,469.85)rotate(0)"><text x="15.00" y="2.30" style="">A0A3P9PIM8</text></g><g transform="translate(176.98,463.15)rotate(0)"><text x="15.00" y="2.30" style="">A0A3Q2GCF1</text></g><g transform="translate(176.98,456.45)rotate(0)"><text x="15.00" y="2.30" style="">H2T1P6</text></g><g transform="translate(176.98,449.75)rotate(0)"><text x="15.00" y="2.30" style="">H3DJ05</text></g><g transform="translate(176.98,443.05)rotate(0)"><text x="15.00" y="2.30" style="">A0A672IKJ4</text></g><g transform="translate(176.98,436.35)rotate(0)"><text x="15.00" y="2.30" style="">A0A3P8UMM3</text></g><g transform="translate(176.98,429.64)rotate(0)"><text x="15.00" y="2.30" style="">A0A673W8I3</text></g><g transform="translate(176.98,422.94)rotate(0)"><text x="15.00" y="2.30" style="">A0A673Y9Q5</text></g><g transform="translate(176.98,416.24)rotate(0)"><text x="15.00" y="2.30" style="">A0A3P8ZU05</text></g><g transform="translate(176.98,409.54)rotate(0)"><text x="15.00" y="2.30" style="">A0A3Q2YSF5</text></g><g transform="translate(176.98,402.84)rotate(0)"><text x="15.00" y="2.30" style="">A0A3B4CMZ1</text></g><g transform="translate(176.98,396.14)rotate(0)"><text x="15.00" y="2.30" style="">A0A2D0RL52</text></g><g transform="translate(176.98,389.44)rotate(0)"><text x="15.00" y="2.30" style="">A0A4W4ENP5</text></g><g transform="translate(176.98,382.74)rotate(0)"><text x="15.00" y="2.30" style="">A0A672QN77</text></g><g transform="translate(176.98,376.04)rotate(0)"><text x="15.00" y="2.30" style="">A0A672N1H1</text></g><g transform="translate(176.98,369.34)rotate(0)"><text x="15.00" y="2.30" style="">W5MXN7</text></g><g transform="translate(176.98,362.64)rotate(0)"><text x="15.00" y="2.30" style="">F7FQQ3</text></g><g transform="translate(176.98,355.94)rotate(0)"><text x="15.00" y="2.30" style="">A0A7M7SWA0</text></g><g transform="translate(176.98,349.24)rotate(0)"><text x="15.00" y="2.30" style="">S4RZR2</text></g><g transform="translate(176.98,342.54)rotate(0)"><text x="15.00" y="2.30" style="">K1Q9H9</text></g><g transform="translate(176.98,335.84)rotate(0)"><text x="15.00" y="2.30" style="">A0A0L8FXB5</text></g><g transform="translate(176.98,329.14)rotate(0)"><text x="15.00" y="2.30" style="">V4CIY5</text></g><g transform="translate(176.98,322.44)rotate(0)"><text x="15.00" y="2.30" style="">A0A1S3K7W6</text></g><g transform="translate(176.98,315.74)rotate(0)"><text x="15.00" y="2.30" style="">R7V1R1</text></g><g transform="translate(176.98,309.04)rotate(0)"><text x="15.00" y="2.30" style="">F6XLX0</text></g><g transform="translate(176.98,302.34)rotate(0)"><text x="15.00" y="2.30" style="">H2Z6T2</text></g><g transform="translate(176.98,295.64)rotate(0)"><text x="15.00" y="2.30" style="">T2MJ85</text></g><g transform="translate(176.98,288.93)rotate(0)"><text x="15.00" y="2.30" style="">E0VCI7</text></g><g transform="translate(176.98,282.23)rotate(0)"><text x="15.00" y="2.30" style="">A0A087VY93</text></g><g transform="translate(176.98,275.53)rotate(0)"><text x="15.00" y="2.30" style="">T1JCE3</text></g><g transform="translate(176.98,268.83)rotate(0)"><text x="15.00" y="2.30" style="">A0A1D2NAP3</text></g><g transform="translate(176.98,262.13)rotate(0)"><text x="15.00" y="2.30" style="">A0A226E5Q0</text></g><g transform="translate(176.98,255.43)rotate(0)"><text x="15.00" y="2.30" style="">E9HCB2</text></g><g transform="translate(176.98,248.73)rotate(0)"><text x="15.00" y="2.30" style="">A0A7I4Y1E4</text></g><g transform="translate(176.98,242.03)rotate(0)"><text x="15.00" y="2.30" style="">W2SUZ2</text></g><g transform="translate(176.98,235.33)rotate(0)"><text x="15.00" y="2.30" style="">E3M4S5</text></g><g transform="translate(176.98,228.63)rotate(0)"><text x="15.00" y="2.30" style="">A0A090LE65</text></g><g transform="translate(176.98,221.93)rotate(0)"><text x="15.00" y="2.30" style="">A0CSI4</text></g><g transform="translate(176.98,215.23)rotate(0)"><text x="15.00" y="2.30" style="">A0A1S3IEW1</text></g><g transform="translate(176.98,208.53)rotate(0)"><text x="15.00" y="2.30" style="">A0A1W0WLW6</text></g><g transform="translate(176.98,201.83)rotate(0)"><text x="15.00" y="2.30" style="">Q7PTZ9</text></g><g transform="translate(176.98,195.13)rotate(0)"><text x="15.00" y="2.30" style="">A0A182YPS4</text></g><g transform="translate(176.98,188.43)rotate(0)"><text x="15.00" y="2.30" style="">A0A084W5Q6</text></g><g transform="translate(176.98,181.73)rotate(0)"><text x="15.00" y="2.30" style="">A0A194QRE4</text></g><g transform="translate(176.98,175.03)rotate(0)"><text x="15.00" y="2.30" style="">A0A6P5VDY2</text></g><g transform="translate(176.98,168.33)rotate(0)"><text x="15.00" y="2.30" style="">A0A3B0K3U3</text></g><g transform="translate(176.98,161.63)rotate(0)"><text x="15.00" y="2.30" style="">A0A6P4ENU3</text></g><g transform="translate(176.98,154.93)rotate(0)"><text x="15.00" y="2.30" style="">A0A1W4URK8</text></g><g transform="translate(176.98,148.22)rotate(0)"><text x="15.00" y="2.30" style="">A0A484B2R6</text></g><g transform="translate(176.98,141.52)rotate(0)"><text x="15.00" y="2.30" style="">A0A6J1MF36</text></g><g transform="translate(176.98,134.82)rotate(0)"><text x="15.00" y="2.30" style="">A0A0M4EJG8</text></g><g transform="translate(176.98,128.12)rotate(0)"><text x="15.00" y="2.30" style="">A0A0L0C8P3</text></g><g transform="translate(176.98,121.42)rotate(0)"><text x="15.00" y="2.30" style="">A0A336MRV4</text></g><g transform="translate(176.98,114.72)rotate(0)"><text x="15.00" y="2.30" style="">A0A336KJJ4</text></g><g transform="translate(176.98,108.02)rotate(0)"><text x="15.00" y="2.30" style="">N6TZK4</text></g><g transform="translate(176.98,101.32)rotate(0)"><text x="15.00" y="2.30" style="">D6W9Q2</text></g><g transform="translate(176.98,94.62)rotate(0)"><text x="15.00" y="2.30" style="">T1IB56</text></g><g transform="translate(176.98,87.92)rotate(0)"><text x="15.00" y="2.30" style="">A0A026W1Q5</text></g><g transform="translate(176.98,81.22)rotate(0)"><text x="15.00" y="2.30" style="">E2AAW4</text></g><g transform="translate(176.98,74.52)rotate(0)"><text x="15.00" y="2.30" style="">A0A158NZQ1</text></g><g transform="translate(176.98,67.82)rotate(0)"><text x="15.00" y="2.30" style="">E2C0A9</text></g><g transform="translate(176.98,61.12)rotate(0)"><text x="15.00" y="2.30" style="">A0A7M6UFA0</text></g></g></g></g><g class="toyplot-coordinates-Axis" id="tf94805db52be4e68ab02c4ad816e0104" transform="translate(50.0,950.0)translate(0,20.0)"><line x1="1.2572053582092355" y1="0" x2="126.97774117913289" y2="0" style="" /><g><line x1="126.97774117913289" y1="0" x2="126.97774117913289" y2="-5" style="" /><line x1="64.11747326867106" y1="0" x2="64.11747326867106" y2="-5" style="" /><line x1="1.2572053582092355" y1="0" x2="1.2572053582092355" y2="-5" style="" /></g><g><g transform="translate(126.97774117913289,6)"><text x="-2.78" y="8.555" style="fill:rgb(16.1%,15.3%,14.1%);fill-opacity:1.0;font-family:helvetica;font-size:10.0px;font-weight:normal;stroke:none;vertical-align:baseline;white-space:pre">0</text></g><g transform="translate(64.11747326867106,6)"><text x="-11.12" y="8.555" style="fill:rgb(16.1%,15.3%,14.1%);fill-opacity:1.0;font-family:helvetica;font-size:10.0px;font-weight:normal;stroke:none;vertical-align:baseline;white-space:pre">3918</text></g><g transform="translate(1.2572053582092355,6)"><text x="-11.12" y="8.555" style="fill:rgb(16.1%,15.3%,14.1%);fill-opacity:1.0;font-family:helvetica;font-size:10.0px;font-weight:normal;stroke:none;vertical-align:baseline;white-space:pre">7835</text></g></g><g class="toyplot-coordinates-Axis-coordinates" style="visibility:hidden" transform=""><line x1="0" x2="0" y1="-3.0" y2="4.5" style="stroke:rgb(43.9%,50.2%,56.5%);stroke-opacity:1.0;stroke-width:1.0" /><text x="0" y="-6" style="alignment-baseline:alphabetic;fill:rgb(43.9%,50.2%,56.5%);fill-opacity:1.0;font-size:10px;font-weight:normal;stroke:none;text-anchor:middle" /></g></g></g></svg>