<svg class="toyplot-canvas-Canvas" xmlns:toyplot="http://www.sandia.gov/toyplot" xmlns:xlink="http://www.w3.org/1999/xlink" xmlns="http://www.w3.org/2000/svg" width="300.0px" height="1000.0px" viewBox="0 0 300.0 1000.0" preserveAspectRatio="xMidYMid meet" style="background-color:transparent;border-color:#292724;border-style:none;border-width:1.0;fill:rgb(16.1%,15.3%,14.1%);fill-opacity:1.0;font-family:Helvetica;font-size:12px;opacity:1.0;stroke:rgb(16.1%,15.3%,14.1%);stroke-opacity:1.0;stroke-width:1.0" id="t98812a2b7da04b3cbcc56ab8548ddbde"><g class="toyplot-coordinates-Cartesian" id="t983075decc514ba0938257e61854e2a8"><clipPath id="t133b9a5cbd664220adb48d38afddaf6e"><rect x="30.0" y="30.0" width="240.0" height="940.0" /></clipPath><g clip-path="url(#t133b9a5cbd664220adb48d38afddaf6e)"><g class="toytree-mark-Toytree" id="t1ca15413591b4eae9abe1f6f27695213"><g class="toytree-Edges" style="fill:none;stroke:rgb(14.9%,14.9%,14.9%);stroke-linecap:round;stroke-opacity:1;stroke-width:2"><path d="M 51.2 86.3 L 51.2 73.7 L 55.4 73.7" id="261,260" /><path d="M 51.2 86.3 L 51.2 124.0 L 56.3 124.0" id="261,259" /><path d="M 55.4 73.7 L 55.4 79.5 L 56.4 79.5" id="260,258" /><path d="M 56.3 124.0 L 56.3 153.4 L 58.7 153.4" id="259,257" /><path d="M 56.4 79.5 L 56.4 84.6 L 57.4 84.6" id="258,256" /><path d="M 58.7 153.4 L 58.7 104.7 L 61.0 104.7" id="257,255" /><path d="M 58.7 153.4 L 58.7 202.2 L 59.3 202.2" id="257,254" /><path d="M 59.3 202.2 L 59.3 133.6 L 59.9 133.6" id="254,253" /><path d="M 59.3 202.2 L 59.3 270.8 L 60.4 270.8" id="254,252" /><path d="M 59.9 133.6 L 59.9 152.4 L 61.3 152.4" id="253,251" /><path d="M 60.4 270.8 L 60.4 286.2 L 61.8 286.2" id="252,250" /><path d="M 61.3 152.4 L 61.3 126.4 L 62.9 126.4" id="251,249" /><path d="M 61.3 152.4 L 61.3 178.4 L 63.0 178.4" id="251,248" /><path d="M 61.8 286.2 L 61.8 268.4 L 62.2 268.4" id="250,247" /><path d="M 61.8 286.2 L 61.8 303.9 L 62.1 303.9" id="250,246" /><path d="M 62.9 126.4 L 62.9 131.5 L 63.6 131.5" id="249,245" /><path d="M 63.0 178.4 L 63.0 149.9 L 67.8 149.9" id="248,244" /><path d="M 63.0 178.4 L 63.0 206.8 L 63.9 206.8" id="248,243" /><path d="M 62.2 268.4 L 62.2 274.7 L 62.5 274.7" id="247,242" /><path d="M 62.1 303.9 L 62.1 312.2 L 63.4 312.2" id="246,241" /><path d="M 67.8 149.9 L 67.8 158.3 L 70.5 158.3" id="244,240" /><path d="M 63.9 206.8 L 63.9 198.5 L 73.0 198.5" id="243,239" /><path d="M 63.9 206.8 L 63.9 215.1 L 87.1 215.1" id="243,238" /><path d="M 62.5 274.7 L 62.5 280.6 L 63.6 280.6" id="242,237" /><path d="M 63.4 312.2 L 63.4 322.1 L 66.0 322.1" id="241,236" /><path d="M 70.5 158.3 L 70.5 168.3 L 74.4 168.3" id="240,235" /><path d="M 87.1 215.1 L 87.1 221.7 L 89.4 221.7" id="238,234" /><path d="M 63.6 280.6 L 63.6 285.6 L 64.9 285.6" id="237,233" /><path d="M 66.0 322.1 L 66.0 312.4 L 67.3 312.4" id="236,232" /><path d="M 66.0 322.1 L 66.0 331.9 L 66.6 331.9" id="236,231" /><path d="M 74.4 168.3 L 74.4 158.3 L 77.9 158.3" id="235,230" /><path d="M 74.4 168.3 L 74.4 178.4 L 76.9 178.4" id="235,229" /><path d="M 89.4 221.7 L 89.4 228.2 L 96.9 228.2" id="234,228" /><path d="M 66.6 331.9 L 66.6 341.3 L 67.6 341.3" id="231,227" /><path d="M 76.9 178.4 L 76.9 171.7 L 78.7 171.7" id="229,226" /><path d="M 76.9 178.4 L 76.9 185.1 L 79.6 185.1" id="229,225" /><path d="M 96.9 228.2 L 96.9 234.5 L 97.6 234.5" id="228,224" /><path d="M 67.6 341.3 L 67.6 332.5 L 68.9 332.5" id="227,223" /><path d="M 67.6 341.3 L 67.6 350.2 L 70.2 350.2" id="227,222" /><path d="M 97.6 234.5 L 97.6 240.4 L 99.1 240.4" id="224,221" /><path d="M 70.2 350.2 L 70.2 357.9 L 71.6 357.9" id="222,220" /><path d="M 99.1 240.4 L 99.1 245.4 L 103.2 245.4" id="221,219" /><path d="M 71.6 357.9 L 71.6 366.5 L 80.6 366.5" id="220,218" /><path d="M 80.6 366.5 L 80.6 377.1 L 90.1 377.1" id="218,217" /><path d="M 90.1 377.1 L 90.1 391.5 L 102.9 391.5" id="217,216" /><path d="M 102.9 391.5 L 102.9 413.6 L 105.5 413.6" id="216,215" /><path d="M 105.5 413.6 L 105.5 451.2 L 107.5 451.2" id="215,214" /><path d="M 107.5 451.2 L 107.5 519.7 L 111.2 519.7" id="214,213" /><path d="M 111.2 519.7 L 111.2 405.7 L 120.3 405.7" id="213,212" /><path d="M 111.2 519.7 L 111.2 633.6 L 113.4 633.6" id="213,211" /><path d="M 120.3 405.7 L 120.3 422.0 L 131.5 422.0" id="212,210" /><path d="M 113.4 633.6 L 113.4 643.2 L 115.3 643.2" id="211,209" /><path d="M 131.5 422.0 L 131.5 404.5 L 133.6 404.5" id="210,208" /><path d="M 131.5 422.0 L 131.5 439.5 L 138.4 439.5" id="210,207" /><path d="M 115.3 643.2 L 115.3 634.0 L 120.7 634.0" id="209,206" /><path d="M 115.3 643.2 L 115.3 652.4 L 121.2 652.4" id="209,205" /><path d="M 133.6 404.5 L 133.6 412.9 L 134.2 412.9" id="208,204" /><path d="M 138.4 439.5 L 138.4 449.3 L 139.8 449.3" id="207,203" /><path d="M 121.2 652.4 L 121.2 660.8 L 123.2 660.8" id="205,202" /><path d="M 134.2 412.9 L 134.2 406.2 L 135.2 406.2" id="204,201" /><path d="M 134.2 412.9 L 134.2 419.6 L 134.7 419.6" id="204,200" /><path d="M 139.8 449.3 L 139.8 462.4 L 141.8 462.4" id="203,199" /><path d="M 123.2 660.8 L 123.2 670.8 L 125.7 670.8" id="202,198" /><path d="M 141.8 462.4 L 141.8 448.1 L 143.7 448.1" id="199,197" /><path d="M 141.8 462.4 L 141.8 476.6 L 143.5 476.6" id="199,196" /><path d="M 125.7 670.8 L 125.7 684.2 L 128.3 684.2" id="198,195" /><path d="M 143.7 448.1 L 143.7 453.1 L 144.1 453.1" id="197,194" /><path d="M 143.5 476.6 L 143.5 490.1 L 144.3 490.1" id="196,193" /><path d="M 128.3 684.2 L 128.3 670.0 L 129.9 670.0" id="195,192" /><path d="M 128.3 684.2 L 128.3 698.3 L 130.8 698.3" id="195,191" /><path d="M 144.3 490.1 L 144.3 474.9 L 145.4 474.9" id="193,190" /><path d="M 144.3 490.1 L 144.3 505.4 L 144.9 505.4" id="193,189" /><path d="M 129.9 670.0 L 129.9 675.9 L 130.7 675.9" id="192,188" /><path d="M 130.8 698.3 L 130.8 705.7 L 140.1 705.7" id="191,187" /><path d="M 145.4 474.9 L 145.4 479.9 L 145.8 479.9" id="190,186" /><path d="M 144.9 505.4 L 144.9 520.8 L 145.8 520.8" id="189,185" /><path d="M 130.7 675.9 L 130.7 680.9 L 131.1 680.9" id="188,184" /><path d="M 140.1 705.7 L 140.1 713.7 L 145.7 713.7" id="187,183" /><path d="M 145.8 520.8 L 145.8 502.9 L 146.5 502.9" id="185,182" /><path d="M 145.8 520.8 L 145.8 538.7 L 146.2 538.7" id="185,181" /><path d="M 145.7 713.7 L 145.7 723.0 L 151.4 723.0" id="183,180" /><path d="M 146.5 502.9 L 146.5 509.2 L 148.2 509.2" id="182,179" /><path d="M 146.2 538.7 L 146.2 547.2 L 146.7 547.2" id="181,178" /><path d="M 151.4 723.0 L 151.4 714.4 L 152.3 714.4" id="180,177" /><path d="M 151.4 723.0 L 151.4 731.7 L 155.4 731.7" id="180,176" /><path d="M 148.2 509.2 L 148.2 515.1 L 150.7 515.1" id="179,175" /><path d="M 146.7 547.2 L 146.7 557.6 L 146.9 557.6" id="178,174" /><path d="M 155.4 731.7 L 155.4 738.8 L 155.9 738.8" id="176,173" /><path d="M 150.7 515.1 L 150.7 520.1 L 151.3 520.1" id="175,172" /><path d="M 146.9 557.6 L 146.9 546.9 L 147.4 546.9" id="174,171" /><path d="M 146.9 557.6 L 146.9 568.2 L 147.2 568.2" id="174,170" /><path d="M 155.9 738.8 L 155.9 746.5 L 156.5 746.5" id="173,169" /><path d="M 147.2 568.2 L 147.2 579.5 L 147.8 579.5" id="170,168" /><path d="M 156.5 746.5 L 156.5 755.2 L 158.5 755.2" id="169,167" /><path d="M 147.8 579.5 L 147.8 568.7 L 148.3 568.7" id="168,166" /><path d="M 147.8 579.5 L 147.8 590.2 L 147.8 590.2" id="168,165" /><path d="M 158.5 755.2 L 158.5 765.8 L 159.9 765.8" id="167,164" /><path d="M 148.3 568.7 L 148.3 573.7 L 148.5 573.7" id="166,163" /><path d="M 147.8 590.2 L 147.8 596.7 L 149.7 596.7" id="165,162" /><path d="M 159.9 765.8 L 159.9 754.6 L 160.2 754.6" id="164,161" /><path d="M 159.9 765.8 L 159.9 777.0 L 160.6 777.0" id="164,160" /><path d="M 149.7 596.7 L 149.7 603.0 L 150.4 603.0" id="162,159" /><path d="M 160.6 777.0 L 160.6 768.0 L 161.4 768.0" id="160,158" /><path d="M 160.6 777.0 L 160.6 785.9 L 160.9 785.9" id="160,157" /><path d="M 150.4 603.0 L 150.4 608.9 L 151.4 608.9" id="159,156" /><path d="M 160.9 785.9 L 160.9 793.8 L 161.3 793.8" id="157,155" /><path d="M 151.4 608.9 L 151.4 613.9 L 151.8 613.9" id="156,154" /><path d="M 161.3 793.8 L 161.3 802.9 L 161.6 802.9" id="155,153" /><path d="M 161.6 802.9 L 161.6 814.3 L 162.1 814.3" id="153,152" /><path d="M 162.1 814.3 L 162.1 803.2 L 162.5 803.2" id="152,151" /><path d="M 162.1 814.3 L 162.1 825.4 L 162.5 825.4" id="152,150" /><path d="M 162.5 803.2 L 162.5 808.2 L 163.2 808.2" id="151,149" /><path d="M 162.5 825.4 L 162.5 832.5 L 163.0 832.5" id="150,148" /><path d="M 163.0 832.5 L 163.0 840.0 L 167.4 840.0" id="148,147" /><path d="M 167.4 840.0 L 167.4 848.3 L 168.2 848.3" id="147,146" /><path d="M 168.2 848.3 L 168.2 858.2 L 169.4 858.2" id="146,145" /><path d="M 169.4 858.2 L 169.4 848.4 L 170.7 848.4" id="145,144" /><path d="M 169.4 858.2 L 169.4 867.9 L 171.0 867.9" id="145,143" /><path d="M 171.0 867.9 L 171.0 877.4 L 171.9 877.4" id="143,142" /><path d="M 171.9 877.4 L 171.9 889.6 L 171.9 889.6" id="142,141" /><path d="M 171.9 889.6 L 171.9 876.9 L 172.1 876.9" id="141,140" /><path d="M 171.9 889.6 L 171.9 902.2 L 172.1 902.2" id="141,139" /><path d="M 172.1 876.9 L 172.1 881.9 L 172.3 881.9" id="140,138" /><path d="M 172.1 902.2 L 172.1 912.5 L 172.1 912.5" id="139,137" /><path d="M 172.1 912.5 L 172.1 902.0 L 172.2 902.0" id="137,136" /><path d="M 172.1 912.5 L 172.1 923.0 L 172.2 923.0" id="137,135" /><path d="M 172.2 923.0 L 172.2 915.4 L 172.2 915.4" id="135,134" /><path d="M 172.2 923.0 L 172.2 930.5 L 172.3 930.5" id="135,133" /><path d="M 172.3 930.5 L 172.3 935.5 L 172.4 935.5" id="133,132" /><path d="M 51.2 86.3 L 51.2 61.1 L 62.2 61.1" id="261,131" /><path d="M 55.4 73.7 L 55.4 67.8 L 67.0 67.8" id="260,130" /><path d="M 56.4 79.5 L 56.4 74.5 L 66.5 74.5" id="258,129" /><path d="M 57.4 84.6 L 57.4 81.2 L 66.6 81.2" id="256,128" /><path d="M 57.4 84.6 L 57.4 87.9 L 66.7 87.9" id="256,127" /><path d="M 56.3 124.0 L 56.3 94.6 L 71.1 94.6" id="259,126" /><path d="M 61.0 104.7 L 61.0 101.3 L 75.1 101.3" id="255,125" /><path d="M 61.0 104.7 L 61.0 108.0 L 74.6 108.0" id="255,124" /><path d="M 59.9 133.6 L 59.9 114.7 L 75.5 114.7" id="253,123" /><path d="M 62.9 126.4 L 62.9 121.4 L 77.8 121.4" id="249,122" /><path d="M 63.6 131.5 L 63.6 128.1 L 78.3 128.1" id="245,121" /><path d="M 63.6 131.5 L 63.6 134.8 L 77.0 134.8" id="245,120" /><path d="M 67.8 149.9 L 67.8 141.5 L 85.8 141.5" id="244,119" /><path d="M 70.5 158.3 L 70.5 148.2 L 84.1 148.2" id="240,118" /><path d="M 77.9 158.3 L 77.9 154.9 L 86.8 154.9" id="230,117" /><path d="M 77.9 158.3 L 77.9 161.6 L 86.9 161.6" id="230,116" /><path d="M 78.7 171.7 L 78.7 168.3 L 87.4 168.3" id="226,115" /><path d="M 78.7 171.7 L 78.7 175.0 L 86.5 175.0" id="226,114" /><path d="M 79.6 185.1 L 79.6 181.7 L 89.3 181.7" id="225,113" /><path d="M 79.6 185.1 L 79.6 188.4 L 89.5 188.4" id="225,112" /><path d="M 73.0 198.5 L 73.0 195.1 L 85.8 195.1" id="239,111" /><path d="M 73.0 198.5 L 73.0 201.8 L 85.6 201.8" id="239,110" /><path d="M 87.1 215.1 L 87.1 208.5 L 108.7 208.5" id="238,109" /><path d="M 89.4 221.7 L 89.4 215.2 L 112.1 215.2" id="234,108" /><path d="M 96.9 228.2 L 96.9 221.9 L 121.8 221.9" id="228,107" /><path d="M 97.6 234.5 L 97.6 228.6 L 120.3 228.6" id="224,106" /><path d="M 99.1 240.4 L 99.1 235.3 L 125.9 235.3" id="221,105" /><path d="M 103.2 245.4 L 103.2 242.0 L 123.2 242.0" id="219,104" /><path d="M 103.2 245.4 L 103.2 248.7 L 123.5 248.7" id="219,103" /><path d="M 60.4 270.8 L 60.4 255.4 L 76.3 255.4" id="252,102" /><path d="M 62.2 268.4 L 62.2 262.1 L 80.5 262.1" id="247,101" /><path d="M 62.5 274.7 L 62.5 268.8 L 80.2 268.8" id="242,100" /><path d="M 63.6 280.6 L 63.6 275.5 L 81.0 275.5" id="237,99" /><path d="M 64.9 285.6 L 64.9 282.2 L 87.0 282.2" id="233,98" /><path d="M 64.9 285.6 L 64.9 288.9 L 81.9 288.9" id="233,97" /><path d="M 62.1 303.9 L 62.1 295.6 L 78.4 295.6" id="246,96" /><path d="M 63.4 312.2 L 63.4 302.3 L 79.7 302.3" id="241,95" /><path d="M 67.3 312.4 L 67.3 309.0 L 83.9 309.0" id="232,94" /><path d="M 67.3 312.4 L 67.3 315.7 L 82.8 315.7" id="232,93" /><path d="M 66.6 331.9 L 66.6 322.4 L 84.1 322.4" id="231,92" /><path d="M 68.9 332.5 L 68.9 329.1 L 87.2 329.1" id="223,91" /><path d="M 68.9 332.5 L 68.9 335.8 L 85.5 335.8" id="223,90" /><path d="M 70.2 350.2 L 70.2 342.5 L 84.9 342.5" id="222,89" /><path d="M 71.6 357.9 L 71.6 349.2 L 86.2 349.2" id="220,88" /><path d="M 80.6 366.5 L 80.6 355.9 L 93.3 355.9" id="218,87" /><path d="M 90.1 377.1 L 90.1 362.6 L 103.5 362.6" id="217,86" /><path d="M 102.9 391.5 L 102.9 369.3 L 115.3 369.3" id="216,85" /><path d="M 105.5 413.6 L 105.5 376.0 L 116.1 376.0" id="215,84" /><path d="M 107.5 451.2 L 107.5 382.7 L 118.6 382.7" id="214,83" /><path d="M 120.3 405.7 L 120.3 389.4 L 128.8 389.4" id="212,82" /><path d="M 133.6 404.5 L 133.6 396.1 L 142.3 396.1" id="208,81" /><path d="M 135.2 406.2 L 135.2 402.8 L 143.4 402.8" id="201,80" /><path d="M 135.2 406.2 L 135.2 409.5 L 143.6 409.5" id="201,79" /><path d="M 134.7 419.6 L 134.7 416.2 L 142.0 416.2" id="200,78" /><path d="M 134.7 419.6 L 134.7 422.9 L 141.8 422.9" id="200,77" /><path d="M 138.4 439.5 L 138.4 429.6 L 148.2 429.6" id="207,76" /><path d="M 139.8 449.3 L 139.8 436.3 L 148.7 436.3" id="203,75" /><path d="M 143.7 448.1 L 143.7 443.0 L 150.4 443.0" id="197,74" /><path d="M 144.1 453.1 L 144.1 449.7 L 151.0 449.7" id="194,73" /><path d="M 144.1 453.1 L 144.1 456.4 L 151.0 456.4" id="194,72" /><path d="M 143.5 476.6 L 143.5 463.1 L 150.0 463.1" id="196,71" /><path d="M 145.4 474.9 L 145.4 469.8 L 151.6 469.8" id="190,70" /><path d="M 145.8 479.9 L 145.8 476.5 L 150.9 476.5" id="186,69" /><path d="M 145.8 479.9 L 145.8 483.2 L 151.7 483.2" id="186,68" /><path d="M 144.9 505.4 L 144.9 489.9 L 151.0 489.9" id="189,67" /><path d="M 146.5 502.9 L 146.5 496.6 L 151.9 496.6" id="182,66" /><path d="M 148.2 509.2 L 148.2 503.4 L 153.0 503.4" id="179,65" /><path d="M 150.7 515.1 L 150.7 510.1 L 155.0 510.1" id="175,64" /><path d="M 151.3 520.1 L 151.3 516.8 L 155.8 516.8" id="172,63" /><path d="M 151.3 520.1 L 151.3 523.5 L 155.8 523.5" id="172,62" /><path d="M 146.2 538.7 L 146.2 530.2 L 155.3 530.2" id="181,61" /><path d="M 146.7 547.2 L 146.7 536.9 L 152.0 536.9" id="178,60" /><path d="M 147.4 546.9 L 147.4 543.6 L 152.0 543.6" id="171,59" /><path d="M 147.4 546.9 L 147.4 550.3 L 152.1 550.3" id="171,58" /><path d="M 147.2 568.2 L 147.2 557.0 L 152.2 557.0" id="170,57" /><path d="M 148.3 568.7 L 148.3 563.7 L 152.7 563.7" id="166,56" /><path d="M 148.5 573.7 L 148.5 570.4 L 152.8 570.4" id="163,55" /><path d="M 148.5 573.7 L 148.5 577.1 L 152.4 577.1" id="163,54" /><path d="M 147.8 590.2 L 147.8 583.8 L 153.0 583.8" id="165,53" /><path d="M 149.7 596.7 L 149.7 590.5 L 153.1 590.5" id="162,52" /><path d="M 150.4 603.0 L 150.4 597.2 L 155.7 597.2" id="159,51" /><path d="M 151.4 608.9 L 151.4 603.9 L 154.5 603.9" id="156,50" /><path d="M 151.8 613.9 L 151.8 610.6 L 155.4 610.6" id="154,49" /><path d="M 151.8 613.9 L 151.8 617.3 L 154.9 617.3" id="154,48" /><path d="M 113.4 633.6 L 113.4 624.0 L 123.4 624.0" id="211,47" /><path d="M 120.7 634.0 L 120.7 630.7 L 128.3 630.7" id="206,46" /><path d="M 120.7 634.0 L 120.7 637.4 L 129.1 637.4" id="206,45" /><path d="M 121.2 652.4 L 121.2 644.1 L 130.0 644.1" id="205,44" /><path d="M 123.2 660.8 L 123.2 650.8 L 131.3 650.8" id="202,43" /><path d="M 125.7 670.8 L 125.7 657.5 L 134.9 657.5" id="198,42" /><path d="M 129.9 670.0 L 129.9 664.2 L 137.2 664.2" id="192,41" /><path d="M 130.7 675.9 L 130.7 670.9 L 138.1 670.9" id="188,40" /><path d="M 131.1 680.9 L 131.1 677.6 L 138.4 677.6" id="184,39" /><path d="M 131.1 680.9 L 131.1 684.3 L 136.7 684.3" id="184,38" /><path d="M 130.8 698.3 L 130.8 691.0 L 137.7 691.0" id="191,37" /><path d="M 140.1 705.7 L 140.1 697.7 L 150.8 697.7" id="187,36" /><path d="M 145.7 713.7 L 145.7 704.4 L 152.4 704.4" id="183,35" /><path d="M 152.3 714.4 L 152.3 711.1 L 158.5 711.1" id="177,34" /><path d="M 152.3 714.4 L 152.3 717.8 L 158.9 717.8" id="177,33" /><path d="M 155.4 731.7 L 155.4 724.5 L 164.3 724.5" id="176,32" /><path d="M 155.9 738.8 L 155.9 731.2 L 161.9 731.2" id="173,31" /><path d="M 156.5 746.5 L 156.5 737.9 L 163.9 737.9" id="169,30" /><path d="M 158.5 755.2 L 158.5 744.6 L 164.2 744.6" id="167,29" /><path d="M 160.2 754.6 L 160.2 751.3 L 165.4 751.3" id="161,28" /><path d="M 160.2 754.6 L 160.2 758.0 L 166.6 758.0" id="161,27" /><path d="M 161.4 768.0 L 161.4 764.7 L 165.6 764.7" id="158,26" /><path d="M 161.4 768.0 L 161.4 771.4 L 166.3 771.4" id="158,25" /><path d="M 160.9 785.9 L 160.9 778.1 L 165.0 778.1" id="157,24" /><path d="M 161.3 793.8 L 161.3 784.8 L 165.1 784.8" id="155,23" /><path d="M 161.6 802.9 L 161.6 791.5 L 165.2 791.5" id="153,22" /><path d="M 162.5 803.2 L 162.5 798.2 L 166.5 798.2" id="151,21" /><path d="M 163.2 808.2 L 163.2 804.9 L 166.6 804.9" id="149,20" /><path d="M 163.2 808.2 L 163.2 811.6 L 166.7 811.6" id="149,19" /><path d="M 162.5 825.4 L 162.5 818.3 L 166.8 818.3" id="150,18" /><path d="M 163.0 832.5 L 163.0 825.0 L 167.0 825.0" id="148,17" /><path d="M 167.4 840.0 L 167.4 831.7 L 174.3 831.7" id="147,16" /><path d="M 168.2 848.3 L 168.2 838.4 L 175.5 838.4" id="146,15" /><path d="M 170.7 848.4 L 170.7 845.1 L 173.2 845.1" id="144,14" /><path d="M 170.7 848.4 L 170.7 851.8 L 172.8 851.8" id="144,13" /><path d="M 171.0 867.9 L 171.0 858.5 L 173.7 858.5" id="143,12" /><path d="M 171.9 877.4 L 171.9 865.2 L 173.2 865.2" id="142,11" /><path d="M 172.1 876.9 L 172.1 871.9 L 173.6 871.9" id="140,10" /><path d="M 172.3 881.9 L 172.3 878.6 L 173.5 878.6" id="138,9" /><path d="M 172.3 881.9 L 172.3 885.3 L 173.6 885.3" id="138,8" /><path d="M 172.1 902.2 L 172.1 892.0 L 173.2 892.0" id="139,7" /><path d="M 172.2 902.0 L 172.2 898.7 L 173.4 898.7" id="136,6" /><path d="M 172.2 902.0 L 172.2 905.4 L 173.5 905.4" id="136,5" /><path d="M 172.2 915.4 L 172.2 912.1 L 173.2 912.1" id="134,4" /><path d="M 172.2 915.4 L 172.2 918.8 L 173.9 918.8" id="134,3" /><path d="M 172.3 930.5 L 172.3 925.5 L 173.4 925.5" id="133,2" /><path d="M 172.4 935.5 L 172.4 932.2 L 173.3 932.2" id="132,1" /><path d="M 172.4 935.5 L 172.4 938.9 L 173.3 938.9" id="132,0" /></g><g class="toytree-AlignEdges" style="stroke:rgb(66.3%,66.3%,66.3%);stroke-dasharray:2, 4;stroke-linecap:round;stroke-opacity:1.0;stroke-width:2"><path d="M 175.5 938.9 L 173.3 938.9" /><path d="M 175.5 932.2 L 173.3 932.2" /><path d="M 175.5 925.5 L 173.4 925.5" /><path d="M 175.5 918.8 L 173.9 918.8" /><path d="M 175.5 912.1 L 173.2 912.1" /><path d="M 175.5 905.4 L 173.5 905.4" /><path d="M 175.5 898.7 L 173.4 898.7" /><path d="M 175.5 892.0 L 173.2 892.0" /><path d="M 175.5 885.3 L 173.6 885.3" /><path d="M 175.5 878.6 L 173.5 878.6" /><path d="M 175.5 871.9 L 173.6 871.9" /><path d="M 175.5 865.2 L 173.2 865.2" /><path d="M 175.5 858.5 L 173.7 858.5" /><path d="M 175.5 851.8 L 172.8 851.8" /><path d="M 175.5 845.1 L 173.2 845.1" /><path d="M 175.5 838.4 L 175.5 838.4" /><path d="M 175.5 831.7 L 174.3 831.7" /><path d="M 175.5 825.0 L 167.0 825.0" /><path d="M 175.5 818.3 L 166.8 818.3" /><path d="M 175.5 811.6 L 166.7 811.6" /><path d="M 175.5 804.9 L 166.6 804.9" /><path d="M 175.5 798.2 L 166.5 798.2" /><path d="M 175.5 791.5 L 165.2 791.5" /><path d="M 175.5 784.8 L 165.1 784.8" /><path d="M 175.5 778.1 L 165.0 778.1" /><path d="M 175.5 771.4 L 166.3 771.4" /><path d="M 175.5 764.7 L 165.6 764.7" /><path d="M 175.5 758.0 L 166.6 758.0" /><path d="M 175.5 751.3 L 165.4 751.3" /><path d="M 175.5 744.6 L 164.2 744.6" /><path d="M 175.5 737.9 L 163.9 737.9" /><path d="M 175.5 731.2 L 161.9 731.2" /><path d="M 175.5 724.5 L 164.3 724.5" /><path d="M 175.5 717.8 L 158.9 717.8" /><path d="M 175.5 711.1 L 158.5 711.1" /><path d="M 175.5 704.4 L 152.4 704.4" /><path d="M 175.5 697.7 L 150.8 697.7" /><path d="M 175.5 691.0 L 137.7 691.0" /><path d="M 175.5 684.3 L 136.7 684.3" /><path d="M 175.5 677.6 L 138.4 677.6" /><path d="M 175.5 670.9 L 138.1 670.9" /><path d="M 175.5 664.2 L 137.2 664.2" /><path d="M 175.5 657.5 L 134.9 657.5" /><path d="M 175.5 650.8 L 131.3 650.8" /><path d="M 175.5 644.1 L 130.0 644.1" /><path d="M 175.5 637.4 L 129.1 637.4" /><path d="M 175.5 630.7 L 128.3 630.7" /><path d="M 175.5 624.0 L 123.4 624.0" /><path d="M 175.5 617.3 L 154.9 617.3" /><path d="M 175.5 610.6 L 155.4 610.6" /><path d="M 175.5 603.9 L 154.5 603.9" /><path d="M 175.5 597.2 L 155.7 597.2" /><path d="M 175.5 590.5 L 153.1 590.5" /><path d="M 175.5 583.8 L 153.0 583.8" /><path d="M 175.5 577.1 L 152.4 577.1" /><path d="M 175.5 570.4 L 152.8 570.4" /><path d="M 175.5 563.7 L 152.7 563.7" /><path d="M 175.5 557.0 L 152.2 557.0" /><path d="M 175.5 550.3 L 152.1 550.3" /><path d="M 175.5 543.6 L 152.0 543.6" /><path d="M 175.5 536.9 L 152.0 536.9" /><path d="M 175.5 530.2 L 155.3 530.2" /><path d="M 175.5 523.5 L 155.8 523.5" /><path d="M 175.5 516.8 L 155.8 516.8" /><path d="M 175.5 510.1 L 155.0 510.1" /><path d="M 175.5 503.4 L 153.0 503.4" /><path d="M 175.5 496.6 L 151.9 496.6" /><path d="M 175.5 489.9 L 151.0 489.9" /><path d="M 175.5 483.2 L 151.7 483.2" /><path d="M 175.5 476.5 L 150.9 476.5" /><path d="M 175.5 469.8 L 151.6 469.8" /><path d="M 175.5 463.1 L 150.0 463.1" /><path d="M 175.5 456.4 L 151.0 456.4" /><path d="M 175.5 449.7 L 151.0 449.7" /><path d="M 175.5 443.0 L 150.4 443.0" /><path d="M 175.5 436.3 L 148.7 436.3" /><path d="M 175.5 429.6 L 148.2 429.6" /><path d="M 175.5 422.9 L 141.8 422.9" /><path d="M 175.5 416.2 L 142.0 416.2" /><path d="M 175.5 409.5 L 143.6 409.5" /><path d="M 175.5 402.8 L 143.4 402.8" /><path d="M 175.5 396.1 L 142.3 396.1" /><path d="M 175.5 389.4 L 128.8 389.4" /><path d="M 175.5 382.7 L 118.6 382.7" /><path d="M 175.5 376.0 L 116.1 376.0" /><path d="M 175.5 369.3 L 115.3 369.3" /><path d="M 175.5 362.6 L 103.5 362.6" /><path d="M 175.5 355.9 L 93.3 355.9" /><path d="M 175.5 349.2 L 86.2 349.2" /><path d="M 175.5 342.5 L 84.9 342.5" /><path d="M 175.5 335.8 L 85.5 335.8" /><path d="M 175.5 329.1 L 87.2 329.1" /><path d="M 175.5 322.4 L 84.1 322.4" /><path d="M 175.5 315.7 L 82.8 315.7" /><path d="M 175.5 309.0 L 83.9 309.0" /><path d="M 175.5 302.3 L 79.7 302.3" /><path d="M 175.5 295.6 L 78.4 295.6" /><path d="M 175.5 288.9 L 81.9 288.9" /><path d="M 175.5 282.2 L 87.0 282.2" /><path d="M 175.5 275.5 L 81.0 275.5" /><path d="M 175.5 268.8 L 80.2 268.8" /><path d="M 175.5 262.1 L 80.5 262.1" /><path d="M 175.5 255.4 L 76.3 255.4" /><path d="M 175.5 248.7 L 123.5 248.7" /><path d="M 175.5 242.0 L 123.2 242.0" /><path d="M 175.5 235.3 L 125.9 235.3" /><path d="M 175.5 228.6 L 120.3 228.6" /><path d="M 175.5 221.9 L 121.8 221.9" /><path d="M 175.5 215.2 L 112.1 215.2" /><path d="M 175.5 208.5 L 108.7 208.5" /><path d="M 175.5 201.8 L 85.6 201.8" /><path d="M 175.5 195.1 L 85.8 195.1" /><path d="M 175.5 188.4 L 89.5 188.4" /><path d="M 175.5 181.7 L 89.3 181.7" /><path d="M 175.5 175.0 L 86.5 175.0" /><path d="M 175.5 168.3 L 87.4 168.3" /><path d="M 175.5 161.6 L 86.9 161.6" /><path d="M 175.5 154.9 L 86.8 154.9" /><path d="M 175.5 148.2 L 84.1 148.2" /><path d="M 175.5 141.5 L 85.8 141.5" /><path d="M 175.5 134.8 L 77.0 134.8" /><path d="M 175.5 128.1 L 78.3 128.1" /><path d="M 175.5 121.4 L 77.8 121.4" /><path d="M 175.5 114.7 L 75.5 114.7" /><path d="M 175.5 108.0 L 74.6 108.0" /><path d="M 175.5 101.3 L 75.1 101.3" /><path d="M 175.5 94.6 L 71.1 94.6" /><path d="M 175.5 87.9 L 66.7 87.9" /><path d="M 175.5 81.2 L 66.6 81.2" /><path d="M 175.5 74.5 L 66.5 74.5" /><path d="M 175.5 67.8 L 67.0 67.8" /><path d="M 175.5 61.1 L 62.2 61.1" /></g><g class="toytree-TipLabels" style="fill:rgb(14.9%,14.9%,14.9%);fill-opacity:1.0;font-family:helvetica;font-size:9px;font-weight:normal;stroke:none;white-space:pre"><g transform="translate(175.52,938.88)rotate(0)"><text x="15.00" y="2.30" style="">A0A2K6BS58</text></g><g transform="translate(175.52,932.18)rotate(0)"><text x="15.00" y="2.30" style="">A0A2K5MLK0</text></g><g transform="translate(175.52,925.48)rotate(0)"><text x="15.00" y="2.30" style="">A0A096MT32</text></g><g transform="translate(175.52,918.78)rotate(0)"><text x="15.00" y="2.30" style="">A0A2K5W9E4</text></g><g transform="translate(175.52,912.08)rotate(0)"><text x="15.00" y="2.30" style="">A0A2K5YMT9</text></g><g transform="translate(175.52,905.38)rotate(0)"><text x="15.00" y="2.30" style="">A0A0D9S0Q9</text></g><g transform="translate(175.52,898.68)rotate(0)"><text x="15.00" y="2.30" style="">A0A2K6K3P5</text></g><g transform="translate(175.52,891.98)rotate(0)"><text x="15.00" y="2.30" style="">A0A2K5HW98</text></g><g transform="translate(175.52,885.28)rotate(0)"><text x="15.00" y="2.30" style="">A0A6D2Y0G2</text></g><g transform="translate(175.52,878.58)rotate(0)"><text x="15.00" y="2.30" style="">A0A2R9AC53</text></g><g transform="translate(175.52,871.88)rotate(0)"><text x="15.00" y="2.30" style="">G1RTU0</text></g><g transform="translate(175.52,865.18)rotate(0)"><text x="15.00" y="2.30" style="">A0A6D2W4N1</text></g><g transform="translate(175.52,858.48)rotate(0)"><text x="15.00" y="2.30" style="">A0A2K6RQB6</text></g><g transform="translate(175.52,851.78)rotate(0)"><text x="15.00" y="2.30" style="">A0A2K5EC51</text></g><g transform="translate(175.52,845.07)rotate(0)"><text x="15.00" y="2.30" style="">A0A2K6V7S2</text></g><g transform="translate(175.52,838.37)rotate(0)"><text x="15.00" y="2.30" style="">G3S106</text></g><g transform="translate(175.52,831.67)rotate(0)"><text x="15.00" y="2.30" style="">F7GW78</text></g><g transform="translate(175.52,824.97)rotate(0)"><text x="15.00" y="2.30" style="">A0A2K6EX61</text></g><g transform="translate(175.52,818.27)rotate(0)"><text x="15.00" y="2.30" style="">A0A4W2DSH0</text></g><g transform="translate(175.52,811.57)rotate(0)"><text x="15.00" y="2.30" style="">A0A384CTX8</text></g><g transform="translate(175.52,804.87)rotate(0)"><text x="15.00" y="2.30" style="">A0A337SPE5</text></g><g transform="translate(175.52,798.17)rotate(0)"><text x="15.00" y="2.30" style="">M3Z0Z9</text></g><g transform="translate(175.52,791.47)rotate(0)"><text x="15.00" y="2.30" style="">A0A671ETV1</text></g><g transform="translate(175.52,784.77)rotate(0)"><text x="15.00" y="2.30" style="">A0A3Q2L9B7</text></g><g transform="translate(175.52,778.07)rotate(0)"><text x="15.00" y="2.30" style="">G1P4M4</text></g><g transform="translate(175.52,771.37)rotate(0)"><text x="15.00" y="2.30" style="">G1SN07</text></g><g transform="translate(175.52,764.67)rotate(0)"><text x="15.00" y="2.30" style="">H0WSS6</text></g><g transform="translate(175.52,757.97)rotate(0)"><text x="15.00" y="2.30" style="">A0A452QVE4</text></g><g transform="translate(175.52,751.27)rotate(0)"><text x="15.00" y="2.30" style="">G3SLN8</text></g><g transform="translate(175.52,744.57)rotate(0)"><text x="15.00" y="2.30" style="">A0A452FSQ0</text></g><g transform="translate(175.52,737.87)rotate(0)"><text x="15.00" y="2.30" style="">W5Q2A1</text></g><g transform="translate(175.52,731.17)rotate(0)"><text x="15.00" y="2.30" style="">A0A286XIR9</text></g><g transform="translate(175.52,724.47)rotate(0)"><text x="15.00" y="2.30" style="">A0A673T3L4</text></g><g transform="translate(175.52,717.77)rotate(0)"><text x="15.00" y="2.30" style="">B2GUY1</text></g><g transform="translate(175.52,711.07)rotate(0)"><text x="15.00" y="2.30" style="">G3HMK5</text></g><g transform="translate(175.52,704.36)rotate(0)"><text x="15.00" y="2.30" style="">A0A4X2KG58</text></g><g transform="translate(175.52,697.66)rotate(0)"><text x="15.00" y="2.30" style="">F6YGH3</text></g><g transform="translate(175.52,690.96)rotate(0)"><text x="15.00" y="2.30" style="">K7FLW5</text></g><g transform="translate(175.52,684.26)rotate(0)"><text x="15.00" y="2.30" style="">U3IPH8</text></g><g transform="translate(175.52,677.56)rotate(0)"><text x="15.00" y="2.30" style="">A0A672UDR6</text></g><g transform="translate(175.52,670.86)rotate(0)"><text x="15.00" y="2.30" style="">A0A674GLV4</text></g><g transform="translate(175.52,664.16)rotate(0)"><text x="15.00" y="2.30" style="">A0A669QJC9</text></g><g transform="translate(175.52,657.46)rotate(0)"><text x="15.00" y="2.30" style="">A0A663MBW3</text></g><g transform="translate(175.52,650.76)rotate(0)"><text x="15.00" y="2.30" style="">A0A670IK22</text></g><g transform="translate(175.52,644.06)rotate(0)"><text x="15.00" y="2.30" style="">A0A670YQT0</text></g><g transform="translate(175.52,637.36)rotate(0)"><text x="15.00" y="2.30" style="">A0A1L8HLY0</text></g><g transform="translate(175.52,630.66)rotate(0)"><text x="15.00" y="2.30" style="">A0A1L8HUQ2</text></g><g transform="translate(175.52,623.96)rotate(0)"><text x="15.00" y="2.30" style="">H3B8Z3</text></g><g transform="translate(175.52,617.26)rotate(0)"><text x="15.00" y="2.30" style="">A0A3P8QSP7</text></g><g transform="translate(175.52,610.56)rotate(0)"><text x="15.00" y="2.30" style="">A0A3Q2W3P0</text></g><g transform="translate(175.52,603.86)rotate(0)"><text x="15.00" y="2.30" style="">A0A669F9S4</text></g><g transform="translate(175.52,597.16)rotate(0)"><text x="15.00" y="2.30" style="">A0A3Q4GSW4</text></g><g transform="translate(175.52,590.46)rotate(0)"><text x="15.00" y="2.30" style="">A0A3Q0T2Z1</text></g><g transform="translate(175.52,583.76)rotate(0)"><text x="15.00" y="2.30" style="">A0A3P8U8L8</text></g><g transform="translate(175.52,577.06)rotate(0)"><text x="15.00" y="2.30" style="">A0A3B4T6P8</text></g><g transform="translate(175.52,570.36)rotate(0)"><text x="15.00" y="2.30" style="">A0A671WA74</text></g><g transform="translate(175.52,563.65)rotate(0)"><text x="15.00" y="2.30" style="">A0A3Q1APX1</text></g><g transform="translate(175.52,556.95)rotate(0)"><text x="15.00" y="2.30" style="">A0A3Q2ZTT6</text></g><g transform="translate(175.52,550.25)rotate(0)"><text x="15.00" y="2.30" style="">A0A2U9CJ53</text></g><g transform="translate(175.52,543.55)rotate(0)"><text x="15.00" y="2.30" style="">A0A665WPW8</text></g><g transform="translate(175.52,536.85)rotate(0)"><text x="15.00" y="2.30" style="">G3NZT1</text></g><g transform="translate(175.52,530.15)rotate(0)"><text x="15.00" y="2.30" style="">A0A668W665</text></g><g transform="translate(175.52,523.45)rotate(0)"><text x="15.00" y="2.30" style="">A0A3B5Q007</text></g><g transform="translate(175.52,516.75)rotate(0)"><text x="15.00" y="2.30" style="">A0A3P9PIM8</text></g><g transform="translate(175.52,510.05)rotate(0)"><text x="15.00" y="2.30" style="">A0A087X4E6</text></g><g transform="translate(175.52,503.35)rotate(0)"><text x="15.00" y="2.30" style="">A0A3Q2GCF1</text></g><g transform="translate(175.52,496.65)rotate(0)"><text x="15.00" y="2.30" style="">A0A1A8U1R0</text></g><g transform="translate(175.52,489.95)rotate(0)"><text x="15.00" y="2.30" style="">A0A3B3BIE0</text></g><g transform="translate(175.52,483.25)rotate(0)"><text x="15.00" y="2.30" style="">A0A3Q3X8B1</text></g><g transform="translate(175.52,476.55)rotate(0)"><text x="15.00" y="2.30" style="">H2T1P6</text></g><g transform="translate(175.52,469.85)rotate(0)"><text x="15.00" y="2.30" style="">H3DJ05</text></g><g transform="translate(175.52,463.15)rotate(0)"><text x="15.00" y="2.30" style="">A0A672IKJ4</text></g><g transform="translate(175.52,456.45)rotate(0)"><text x="15.00" y="2.30" style="">A0A673W8I3</text></g><g transform="translate(175.52,449.75)rotate(0)"><text x="15.00" y="2.30" style="">A0A673Y9Q5</text></g><g transform="translate(175.52,443.05)rotate(0)"><text x="15.00" y="2.30" style="">A0A3P8ZU05</text></g><g transform="translate(175.52,436.35)rotate(0)"><text x="15.00" y="2.30" style="">A0A3P8UMM3</text></g><g transform="translate(175.52,429.64)rotate(0)"><text x="15.00" y="2.30" style="">A0A3Q2YSF5</text></g><g transform="translate(175.52,422.94)rotate(0)"><text x="15.00" y="2.30" style="">A0A3B4CMZ1</text></g><g transform="translate(175.52,416.24)rotate(0)"><text x="15.00" y="2.30" style="">A0A2D0RL52</text></g><g transform="translate(175.52,409.54)rotate(0)"><text x="15.00" y="2.30" style="">A0A672QN77</text></g><g transform="translate(175.52,402.84)rotate(0)"><text x="15.00" y="2.30" style="">A0A672N1H1</text></g><g transform="translate(175.52,396.14)rotate(0)"><text x="15.00" y="2.30" style="">A0A4W4ENP5</text></g><g transform="translate(175.52,389.44)rotate(0)"><text x="15.00" y="2.30" style="">W5MXN7</text></g><g transform="translate(175.52,382.74)rotate(0)"><text x="15.00" y="2.30" style="">A0A401PDG0</text></g><g transform="translate(175.52,376.04)rotate(0)"><text x="15.00" y="2.30" style="">A0A4W3K6Z2</text></g><g transform="translate(175.52,369.34)rotate(0)"><text x="15.00" y="2.30" style="">A0A401SRM0</text></g><g transform="translate(175.52,362.64)rotate(0)"><text x="15.00" y="2.30" style="">F7FQQ3</text></g><g transform="translate(175.52,355.94)rotate(0)"><text x="15.00" y="2.30" style="">S4RZR2</text></g><g transform="translate(175.52,349.24)rotate(0)"><text x="15.00" y="2.30" style="">V4CIY5</text></g><g transform="translate(175.52,342.54)rotate(0)"><text x="15.00" y="2.30" style="">K1Q9H9</text></g><g transform="translate(175.52,335.84)rotate(0)"><text x="15.00" y="2.30" style="">F6XLX0</text></g><g transform="translate(175.52,329.14)rotate(0)"><text x="15.00" y="2.30" style="">H2Z6T2</text></g><g transform="translate(175.52,322.44)rotate(0)"><text x="15.00" y="2.30" style="">A0A0L8FXB5</text></g><g transform="translate(175.52,315.74)rotate(0)"><text x="15.00" y="2.30" style="">R7V1R1</text></g><g transform="translate(175.52,309.04)rotate(0)"><text x="15.00" y="2.30" style="">A0A7M7SWA0</text></g><g transform="translate(175.52,302.34)rotate(0)"><text x="15.00" y="2.30" style="">T2MJ85</text></g><g transform="translate(175.52,295.64)rotate(0)"><text x="15.00" y="2.30" style="">A0A226E5Q0</text></g><g transform="translate(175.52,288.93)rotate(0)"><text x="15.00" y="2.30" style="">E0VCI7</text></g><g transform="translate(175.52,282.23)rotate(0)"><text x="15.00" y="2.30" style="">A0A1S3K7W6</text></g><g transform="translate(175.52,275.53)rotate(0)"><text x="15.00" y="2.30" style="">T1JCE3</text></g><g transform="translate(175.52,268.83)rotate(0)"><text x="15.00" y="2.30" style="">A0A087VY93</text></g><g transform="translate(175.52,262.13)rotate(0)"><text x="15.00" y="2.30" style="">A0A1D2NAP3</text></g><g transform="translate(175.52,255.43)rotate(0)"><text x="15.00" y="2.30" style="">E9HCB2</text></g><g transform="translate(175.52,248.73)rotate(0)"><text x="15.00" y="2.30" style="">A0A7I4Y1E4</text></g><g transform="translate(175.52,242.03)rotate(0)"><text x="15.00" y="2.30" style="">W2SUZ2</text></g><g transform="translate(175.52,235.33)rotate(0)"><text x="15.00" y="2.30" style="">A0CSI4</text></g><g transform="translate(175.52,228.63)rotate(0)"><text x="15.00" y="2.30" style="">A0A090LE65</text></g><g transform="translate(175.52,221.93)rotate(0)"><text x="15.00" y="2.30" style="">A0A1S3IEW1</text></g><g transform="translate(175.52,215.23)rotate(0)"><text x="15.00" y="2.30" style="">A0A1W0WLW6</text></g><g transform="translate(175.52,208.53)rotate(0)"><text x="15.00" y="2.30" style="">E3M4S5</text></g><g transform="translate(175.52,201.83)rotate(0)"><text x="15.00" y="2.30" style="">A0A336MRV4</text></g><g transform="translate(175.52,195.13)rotate(0)"><text x="15.00" y="2.30" style="">A0A336KJJ4</text></g><g transform="translate(175.52,188.43)rotate(0)"><text x="15.00" y="2.30" style="">A0A6P5VDY2</text></g><g transform="translate(175.52,181.73)rotate(0)"><text x="15.00" y="2.30" style="">A0A3B0K3U3</text></g><g transform="translate(175.52,175.03)rotate(0)"><text x="15.00" y="2.30" style="">A0A6P4ENU3</text></g><g transform="translate(175.52,168.33)rotate(0)"><text x="15.00" y="2.30" style="">A0A1W4URK8</text></g><g transform="translate(175.52,161.63)rotate(0)"><text x="15.00" y="2.30" style="">A0A484B2R6</text></g><g transform="translate(175.52,154.93)rotate(0)"><text x="15.00" y="2.30" style="">A0A6J1MF36</text></g><g transform="translate(175.52,148.22)rotate(0)"><text x="15.00" y="2.30" style="">A0A0L0C8P3</text></g><g transform="translate(175.52,141.52)rotate(0)"><text x="15.00" y="2.30" style="">A0A0M4EJG8</text></g><g transform="translate(175.52,134.82)rotate(0)"><text x="15.00" y="2.30" style="">Q7PTZ9</text></g><g transform="translate(175.52,128.12)rotate(0)"><text x="15.00" y="2.30" style="">A0A084W5Q6</text></g><g transform="translate(175.52,121.42)rotate(0)"><text x="15.00" y="2.30" style="">A0A182YPS4</text></g><g transform="translate(175.52,114.72)rotate(0)"><text x="15.00" y="2.30" style="">A0A194QRE4</text></g><g transform="translate(175.52,108.02)rotate(0)"><text x="15.00" y="2.30" style="">N6TZK4</text></g><g transform="translate(175.52,101.32)rotate(0)"><text x="15.00" y="2.30" style="">D6W9Q2</text></g><g transform="translate(175.52,94.62)rotate(0)"><text x="15.00" y="2.30" style="">T1IB56</text></g><g transform="translate(175.52,87.92)rotate(0)"><text x="15.00" y="2.30" style="">A0A158NZQ1</text></g><g transform="translate(175.52,81.22)rotate(0)"><text x="15.00" y="2.30" style="">A0A026W1Q5</text></g><g transform="translate(175.52,74.52)rotate(0)"><text x="15.00" y="2.30" style="">E2C0A9</text></g><g transform="translate(175.52,67.82)rotate(0)"><text x="15.00" y="2.30" style="">E2AAW4</text></g><g transform="translate(175.52,61.12)rotate(0)"><text x="15.00" y="2.30" style="">A0A7M6UFA0</text></g></g></g></g><g class="toyplot-coordinates-Axis" id="t1d744eb7fe3545fd961a21c36e805291" transform="translate(50.0,950.0)translate(0,20.0)"><line x1="1.2427443324732395" y1="0" x2="125.51717757979704" y2="0" style="" /><g><line x1="125.51717757979704" y1="0" x2="125.51717757979704" y2="-5" style="" /><line x1="63.37996095613513" y1="0" x2="63.37996095613513" y2="-5" style="" /><line x1="1.2427443324732395" y1="0" x2="1.2427443324732395" y2="-5" style="" /></g><g><g transform="translate(125.51717757979704,6)"><text x="-2.78" y="8.555" style="fill:rgb(16.1%,15.3%,14.1%);fill-opacity:1.0;font-family:helvetica;font-size:10.0px;font-weight:normal;stroke:none;vertical-align:baseline;white-space:pre">0</text></g><g transform="translate(63.37996095613513,6)"><text x="-2.78" y="8.555" style="fill:rgb(16.1%,15.3%,14.1%);fill-opacity:1.0;font-family:helvetica;font-size:10.0px;font-weight:normal;stroke:none;vertical-align:baseline;white-space:pre">3</text></g><g transform="translate(1.2427443324732395,6)"><text x="-2.78" y="8.555" style="fill:rgb(16.1%,15.3%,14.1%);fill-opacity:1.0;font-family:helvetica;font-size:10.0px;font-weight:normal;stroke:none;vertical-align:baseline;white-space:pre">6</text></g></g><g class="toyplot-coordinates-Axis-coordinates" style="visibility:hidden" transform=""><line x1="0" x2="0" y1="-3.0" y2="4.5" style="stroke:rgb(43.9%,50.2%,56.5%);stroke-opacity:1.0;stroke-width:1.0" /><text x="0" y="-6" style="alignment-baseline:alphabetic;fill:rgb(43.9%,50.2%,56.5%);fill-opacity:1.0;font-size:10px;font-weight:normal;stroke:none;text-anchor:middle" /></g></g></g></svg>