<svg class="toyplot-canvas-Canvas" xmlns:toyplot="http://www.sandia.gov/toyplot" xmlns:xlink="http://www.w3.org/1999/xlink" xmlns="http://www.w3.org/2000/svg" width="300.0px" height="1000.0px" viewBox="0 0 300.0 1000.0" preserveAspectRatio="xMidYMid meet" style="background-color:transparent;border-color:#292724;border-style:none;border-width:1.0;fill:rgb(16.1%,15.3%,14.1%);fill-opacity:1.0;font-family:Helvetica;font-size:12px;opacity:1.0;stroke:rgb(16.1%,15.3%,14.1%);stroke-opacity:1.0;stroke-width:1.0" id="tb77b3a21871c41aa9b503b2d8f9ae723"><g class="toyplot-coordinates-Cartesian" id="t0e1fa62c28a548d6b45ce6e81c736871"><clipPath id="t7fdf2047be22473da52fdc3a1bc89892"><rect x="30.0" y="30.0" width="240.0" height="940.0" /></clipPath><g clip-path="url(#t7fdf2047be22473da52fdc3a1bc89892)"><g class="toytree-mark-Toytree" id="t0d0802a860814d61ba371296ddead823"><g class="toytree-Edges" style="fill:none;stroke:rgb(14.9%,14.9%,14.9%);stroke-linecap:round;stroke-opacity:1;stroke-width:2"><path d="M 51.3 220.6 L 51.3 79.0 L 61.6 79.0" id="261,260" /><path d="M 51.3 220.6 L 51.3 521.6 L 54.8 521.6" id="261,259" /><path d="M 61.6 79.0 L 61.6 90.3 L 65.0 90.3" id="260,258" /><path d="M 54.8 521.6 L 54.8 383.2 L 56.5 383.2" id="259,257" /><path d="M 54.8 521.6 L 54.8 660.0 L 57.0 660.0" id="259,256" /><path d="M 65.0 90.3 L 65.0 106.0 L 65.8 106.0" id="258,255" /><path d="M 56.5 383.2 L 56.5 397.1 L 57.4 397.1" id="257,254" /><path d="M 57.0 660.0 L 57.0 634.0 L 88.0 634.0" id="256,253" /><path d="M 57.0 660.0 L 57.0 686.0 L 63.8 686.0" id="256,252" /><path d="M 65.8 106.0 L 65.8 84.6 L 92.0 84.6" id="255,251" /><path d="M 65.8 106.0 L 65.8 127.5 L 67.6 127.5" id="255,250" /><path d="M 57.4 397.1 L 57.4 381.1 L 67.6 381.1" id="254,249" /><path d="M 57.4 397.1 L 57.4 413.1 L 64.3 413.1" id="254,248" /><path d="M 63.8 686.0 L 63.8 656.2 L 69.5 656.2" id="252,247" /><path d="M 63.8 686.0 L 63.8 715.7 L 74.3 715.7" id="252,246" /><path d="M 67.6 127.5 L 67.6 105.5 L 70.2 105.5" id="250,245" /><path d="M 67.6 127.5 L 67.6 149.5 L 71.3 149.5" id="250,244" /><path d="M 67.6 381.1 L 67.6 386.1 L 83.7 386.1" id="249,243" /><path d="M 64.3 413.1 L 64.3 430.1 L 74.9 430.1" id="248,242" /><path d="M 69.5 656.2 L 69.5 647.4 L 79.5 647.4" id="247,241" /><path d="M 69.5 656.2 L 69.5 665.0 L 72.9 665.0" id="247,240" /><path d="M 74.3 715.7 L 74.3 701.0 L 84.8 701.0" id="246,239" /><path d="M 74.3 715.7 L 74.3 730.5 L 81.0 730.5" id="246,238" /><path d="M 70.2 105.5 L 70.2 98.0 L 73.9 98.0" id="245,237" /><path d="M 70.2 105.5 L 70.2 113.0 L 73.5 113.0" id="245,236" /><path d="M 71.3 149.5 L 71.3 170.8 L 72.6 170.8" id="244,235" /><path d="M 74.9 430.1 L 74.9 413.7 L 87.6 413.7" id="242,234" /><path d="M 74.9 430.1 L 74.9 446.5 L 80.1 446.5" id="242,233" /><path d="M 72.9 665.0 L 72.9 672.5 L 84.5 672.5" id="240,232" /><path d="M 81.0 730.5 L 81.0 714.4 L 96.2 714.4" id="238,231" /><path d="M 81.0 730.5 L 81.0 746.5 L 83.9 746.5" id="238,230" /><path d="M 73.5 113.0 L 73.5 118.1 L 76.8 118.1" id="236,229" /><path d="M 72.6 170.8 L 72.6 141.5 L 74.0 141.5" id="235,228" /><path d="M 72.6 170.8 L 72.6 200.2 L 73.6 200.2" id="235,227" /><path d="M 87.6 413.7 L 87.6 406.2 L 104.1 406.2" id="234,226" /><path d="M 87.6 413.7 L 87.6 421.3 L 91.2 421.3" id="234,225" /><path d="M 80.1 446.5 L 80.1 456.6 L 80.9 456.6" id="233,224" /><path d="M 84.5 672.5 L 84.5 680.9 L 86.0 680.9" id="232,223" /><path d="M 83.9 746.5 L 83.9 768.5 L 86.7 768.5" id="230,222" /><path d="M 74.0 141.5 L 74.0 148.1 L 85.1 148.1" id="228,221" /><path d="M 73.6 200.2 L 73.6 211.9 L 74.1 211.9" id="227,220" /><path d="M 91.2 421.3 L 91.2 426.3 L 94.4 426.3" id="225,219" /><path d="M 80.9 456.6 L 80.9 470.1 L 82.3 470.1" id="224,218" /><path d="M 86.0 680.9 L 86.0 674.2 L 89.2 674.2" id="223,217" /><path d="M 86.0 680.9 L 86.0 687.6 L 88.0 687.6" id="223,216" /><path d="M 86.7 768.5 L 86.7 734.5 L 88.3 734.5" id="222,215" /><path d="M 86.7 768.5 L 86.7 802.6 L 87.8 802.6" id="222,214" /><path d="M 85.1 148.1 L 85.1 154.7 L 87.7 154.7" id="221,213" /><path d="M 74.1 211.9 L 74.1 198.5 L 78.5 198.5" id="220,212" /><path d="M 74.1 211.9 L 74.1 225.3 L 74.9 225.3" id="220,211" /><path d="M 82.3 470.1 L 82.3 454.8 L 92.5 454.8" id="218,210" /><path d="M 82.3 470.1 L 82.3 485.5 L 85.8 485.5" id="218,209" /><path d="M 87.8 802.6 L 87.8 766.1 L 88.3 766.1" id="214,208" /><path d="M 87.8 802.6 L 87.8 839.0 L 88.6 839.0" id="214,207" /><path d="M 87.7 154.7 L 87.7 161.2 L 88.8 161.2" id="213,206" /><path d="M 74.9 225.3 L 74.9 242.0 L 77.2 242.0" id="211,205" /><path d="M 92.5 454.8 L 92.5 459.8 L 98.2 459.8" id="210,204" /><path d="M 85.8 485.5 L 85.8 501.1 L 86.9 501.1" id="209,203" /><path d="M 88.3 766.1 L 88.3 749.6 L 96.2 749.6" id="208,202" /><path d="M 88.3 766.1 L 88.3 782.7 L 89.7 782.7" id="208,201" /><path d="M 88.6 839.0 L 88.6 821.6 L 91.6 821.6" id="207,200" /><path d="M 88.6 839.0 L 88.6 856.4 L 94.8 856.4" id="207,199" /><path d="M 88.8 161.2 L 88.8 167.5 L 94.6 167.5" id="206,198" /><path d="M 77.2 242.0 L 77.2 268.8 L 80.0 268.8" id="205,197" /><path d="M 86.9 501.1 L 86.9 481.6 L 89.6 481.6" id="203,196" /><path d="M 86.9 501.1 L 86.9 520.5 L 87.9 520.5" id="203,195" /><path d="M 96.2 749.6 L 96.2 754.6 L 103.1 754.6" id="202,194" /><path d="M 89.7 782.7 L 89.7 769.7 L 90.3 769.7" id="201,193" /><path d="M 89.7 782.7 L 89.7 795.7 L 91.7 795.7" id="201,192" /><path d="M 94.8 856.4 L 94.8 836.7 L 97.7 836.7" id="199,191" /><path d="M 94.8 856.4 L 94.8 876.1 L 97.0 876.1" id="199,190" /><path d="M 94.6 167.5 L 94.6 173.4 L 103.9 173.4" id="198,189" /><path d="M 80.0 268.8 L 80.0 237.7 L 80.7 237.7" id="197,188" /><path d="M 80.0 268.8 L 80.0 299.9 L 82.0 299.9" id="197,187" /><path d="M 89.6 481.6 L 89.6 486.6 L 94.6 486.6" id="196,186" /><path d="M 87.9 520.5 L 87.9 502.5 L 95.5 502.5" id="195,185" /><path d="M 87.9 520.5 L 87.9 538.6 L 88.9 538.6" id="195,184" /><path d="M 90.3 769.7 L 90.3 774.7 L 91.5 774.7" id="193,183" /><path d="M 91.7 795.7 L 91.7 788.1 L 94.9 788.1" id="192,182" /><path d="M 91.7 795.7 L 91.7 803.2 L 94.9 803.2" id="192,181" /><path d="M 97.7 836.7 L 97.7 841.7 L 97.8 841.7" id="191,180" /><path d="M 97.0 876.1 L 97.0 858.1 L 97.1 858.1" id="190,179" /><path d="M 97.0 876.1 L 97.0 894.2 L 98.6 894.2" id="190,178" /><path d="M 103.9 173.4 L 103.9 178.4 L 137.9 178.4" id="189,177" /><path d="M 80.7 237.7 L 80.7 227.0 L 81.4 227.0" id="188,176" /><path d="M 80.7 237.7 L 80.7 248.5 L 83.3 248.5" id="188,175" /><path d="M 82.0 299.9 L 82.0 285.6 L 141.5 285.6" id="187,174" /><path d="M 82.0 299.9 L 82.0 314.3 L 83.7 314.3" id="187,173" /><path d="M 95.5 502.5 L 95.5 508.4 L 103.1 508.4" id="185,172" /><path d="M 88.9 538.6 L 88.9 553.7 L 90.4 553.7" id="184,171" /><path d="M 94.9 803.2 L 94.9 808.2 L 99.3 808.2" id="181,170" /><path d="M 97.1 858.1 L 97.1 864.3 L 98.3 864.3" id="179,169" /><path d="M 98.6 894.2 L 98.6 903.1 L 98.9 903.1" id="178,168" /><path d="M 81.4 227.0 L 81.4 232.0 L 95.7 232.0" id="176,167" /><path d="M 83.3 248.5 L 83.3 255.0 L 100.7 255.0" id="175,166" /><path d="M 83.7 314.3 L 83.7 300.7 L 101.7 300.7" id="173,165" /><path d="M 83.7 314.3 L 83.7 327.9 L 95.8 327.9" id="173,164" /><path d="M 103.1 508.4 L 103.1 513.4 L 105.4 513.4" id="172,163" /><path d="M 90.4 553.7 L 90.4 533.5 L 92.7 533.5" id="171,162" /><path d="M 90.4 553.7 L 90.4 573.8 L 92.1 573.8" id="171,161" /><path d="M 98.3 864.3 L 98.3 870.2 L 98.9 870.2" id="169,160" /><path d="M 98.9 903.1 L 98.9 914.2 L 99.1 914.2" id="168,159" /><path d="M 100.7 255.0 L 100.7 261.3 L 114.7 261.3" id="166,158" /><path d="M 101.7 300.7 L 101.7 305.7 L 106.9 305.7" id="165,157" /><path d="M 95.8 327.9 L 95.8 340.0 L 106.7 340.0" id="164,156" /><path d="M 92.1 573.8 L 92.1 550.0 L 97.8 550.0" id="161,155" /><path d="M 92.1 573.8 L 92.1 597.6 L 93.0 597.6" id="161,154" /><path d="M 98.9 870.2 L 98.9 875.2 L 99.5 875.2" id="160,153" /><path d="M 99.1 914.2 L 99.1 903.7 L 99.1 903.7" id="159,152" /><path d="M 99.1 914.2 L 99.1 924.6 L 99.2 924.6" id="159,151" /><path d="M 114.7 261.3 L 114.7 267.2 L 115.8 267.2" id="158,150" /><path d="M 106.7 340.0 L 106.7 327.5 L 114.7 327.5" id="156,149" /><path d="M 106.7 340.0 L 106.7 352.6 L 115.8 352.6" id="156,148" /><path d="M 97.8 550.0 L 97.8 556.5 L 101.4 556.5" id="155,147" /><path d="M 93.0 597.6 L 93.0 587.1 L 94.3 587.1" id="154,146" /><path d="M 93.0 597.6 L 93.0 608.0 L 94.0 608.0" id="154,145" /><path d="M 99.1 903.7 L 99.1 908.7 L 99.5 908.7" id="152,144" /><path d="M 99.2 924.6 L 99.2 930.5 L 99.4 930.5" id="151,143" /><path d="M 115.8 267.2 L 115.8 272.2 L 117.9 272.2" id="150,142" /><path d="M 114.7 327.5 L 114.7 332.5 L 132.2 332.5" id="149,141" /><path d="M 115.8 352.6 L 115.8 345.9 L 132.2 345.9" id="148,140" /><path d="M 115.8 352.6 L 115.8 359.3 L 137.1 359.3" id="148,139" /><path d="M 101.4 556.5 L 101.4 562.8 L 102.4 562.8" id="147,138" /><path d="M 94.0 608.0 L 94.0 600.5 L 103.4 600.5" id="145,137" /><path d="M 94.0 608.0 L 94.0 615.6 L 95.7 615.6" id="145,136" /><path d="M 99.4 930.5 L 99.4 935.5 L 100.6 935.5" id="143,135" /><path d="M 102.4 562.8 L 102.4 568.7 L 105.5 568.7" id="138,134" /><path d="M 95.7 615.6 L 95.7 620.6 L 97.4 620.6" id="136,133" /><path d="M 105.5 568.7 L 105.5 573.7 L 107.3 573.7" id="134,132" /><path d="M 51.3 220.6 L 51.3 61.1 L 108.2 61.1" id="261,131" /><path d="M 61.6 79.0 L 61.6 67.8 L 119.6 67.8" id="260,130" /><path d="M 65.0 90.3 L 65.0 74.5 L 133.7 74.5" id="258,129" /><path d="M 92.0 84.6 L 92.0 81.2 L 133.8 81.2" id="251,128" /><path d="M 92.0 84.6 L 92.0 87.9 L 136.0 87.9" id="251,127" /><path d="M 73.9 98.0 L 73.9 94.6 L 143.0 94.6" id="237,126" /><path d="M 73.9 98.0 L 73.9 101.3 L 136.7 101.3" id="237,125" /><path d="M 73.5 113.0 L 73.5 108.0 L 136.2 108.0" id="236,124" /><path d="M 76.8 118.1 L 76.8 114.7 L 129.3 114.7" id="229,123" /><path d="M 76.8 118.1 L 76.8 121.4 L 129.9 121.4" id="229,122" /><path d="M 71.3 149.5 L 71.3 128.1 L 136.6 128.1" id="244,121" /><path d="M 74.0 141.5 L 74.0 134.8 L 144.9 134.8" id="228,120" /><path d="M 85.1 148.1 L 85.1 141.5 L 166.5 141.5" id="221,119" /><path d="M 87.7 154.7 L 87.7 148.2 L 173.3 148.2" id="213,118" /><path d="M 88.8 161.2 L 88.8 154.9 L 177.8 154.9" id="206,117" /><path d="M 94.6 167.5 L 94.6 161.6 L 172.7 161.6" id="198,116" /><path d="M 103.9 173.4 L 103.9 168.3 L 161.4 168.3" id="189,115" /><path d="M 137.9 178.4 L 137.9 175.0 L 174.8 175.0" id="177,114" /><path d="M 137.9 178.4 L 137.9 181.7 L 174.3 181.7" id="177,113" /><path d="M 73.6 200.2 L 73.6 188.4 L 142.4 188.4" id="227,112" /><path d="M 78.5 198.5 L 78.5 195.1 L 142.4 195.1" id="212,111" /><path d="M 78.5 198.5 L 78.5 201.8 L 136.9 201.8" id="212,110" /><path d="M 74.9 225.3 L 74.9 208.5 L 143.9 208.5" id="211,109" /><path d="M 77.2 242.0 L 77.2 215.2 L 139.6 215.2" id="205,108" /><path d="M 81.4 227.0 L 81.4 221.9 L 141.8 221.9" id="176,107" /><path d="M 95.7 232.0 L 95.7 228.6 L 139.7 228.6" id="167,106" /><path d="M 95.7 232.0 L 95.7 235.3 L 141.5 235.3" id="167,105" /><path d="M 83.3 248.5 L 83.3 242.0 L 138.1 242.0" id="175,104" /><path d="M 100.7 255.0 L 100.7 248.7 L 138.7 248.7" id="166,103" /><path d="M 114.7 261.3 L 114.7 255.4 L 141.9 255.4" id="158,102" /><path d="M 115.8 267.2 L 115.8 262.1 L 142.0 262.1" id="150,101" /><path d="M 117.9 272.2 L 117.9 268.8 L 140.9 268.8" id="142,100" /><path d="M 117.9 272.2 L 117.9 275.5 L 140.9 275.5" id="142,99" /><path d="M 141.5 285.6 L 141.5 282.2 L 144.6 282.2" id="174,98" /><path d="M 141.5 285.6 L 141.5 288.9 L 144.6 288.9" id="174,97" /><path d="M 101.7 300.7 L 101.7 295.6 L 143.7 295.6" id="165,96" /><path d="M 106.9 305.7 L 106.9 302.3 L 142.9 302.3" id="157,95" /><path d="M 106.9 305.7 L 106.9 309.0 L 145.1 309.0" id="157,94" /><path d="M 95.8 327.9 L 95.8 315.7 L 142.1 315.7" id="164,93" /><path d="M 114.7 327.5 L 114.7 322.4 L 152.7 322.4" id="149,92" /><path d="M 132.2 332.5 L 132.2 329.1 L 142.5 329.1" id="141,91" /><path d="M 132.2 332.5 L 132.2 335.8 L 142.8 335.8" id="141,90" /><path d="M 132.2 345.9 L 132.2 342.5 L 143.7 342.5" id="140,89" /><path d="M 132.2 345.9 L 132.2 349.2 L 143.7 349.2" id="140,88" /><path d="M 137.1 359.3 L 137.1 355.9 L 143.3 355.9" id="139,87" /><path d="M 137.1 359.3 L 137.1 362.6 L 143.4 362.6" id="139,86" /><path d="M 56.5 383.2 L 56.5 369.3 L 95.9 369.3" id="257,85" /><path d="M 67.6 381.1 L 67.6 376.0 L 107.6 376.0" id="249,84" /><path d="M 83.7 386.1 L 83.7 382.7 L 108.9 382.7" id="243,83" /><path d="M 83.7 386.1 L 83.7 389.4 L 102.3 389.4" id="243,82" /><path d="M 64.3 413.1 L 64.3 396.1 L 99.2 396.1" id="248,81" /><path d="M 104.1 406.2 L 104.1 402.8 L 112.1 402.8" id="226,80" /><path d="M 104.1 406.2 L 104.1 409.5 L 108.6 409.5" id="226,79" /><path d="M 91.2 421.3 L 91.2 416.2 L 112.1 416.2" id="225,78" /><path d="M 94.4 426.3 L 94.4 422.9 L 108.7 422.9" id="219,77" /><path d="M 94.4 426.3 L 94.4 429.6 L 109.4 429.6" id="219,76" /><path d="M 80.1 446.5 L 80.1 436.3 L 114.5 436.3" id="233,75" /><path d="M 80.9 456.6 L 80.9 443.0 L 111.0 443.0" id="224,74" /><path d="M 92.5 454.8 L 92.5 449.7 L 108.9 449.7" id="210,73" /><path d="M 98.2 459.8 L 98.2 456.4 L 109.5 456.4" id="204,72" /><path d="M 98.2 459.8 L 98.2 463.1 L 109.9 463.1" id="204,71" /><path d="M 85.8 485.5 L 85.8 469.8 L 110.2 469.8" id="209,70" /><path d="M 89.6 481.6 L 89.6 476.5 L 108.5 476.5" id="196,69" /><path d="M 94.6 486.6 L 94.6 483.2 L 109.1 483.2" id="186,68" /><path d="M 94.6 486.6 L 94.6 489.9 L 108.3 489.9" id="186,67" /><path d="M 95.5 502.5 L 95.5 496.6 L 109.6 496.6" id="185,66" /><path d="M 103.1 508.4 L 103.1 503.4 L 109.1 503.4" id="172,65" /><path d="M 105.4 513.4 L 105.4 510.1 L 108.6 510.1" id="163,64" /><path d="M 105.4 513.4 L 105.4 516.8 L 108.5 516.8" id="163,63" /><path d="M 88.9 538.6 L 88.9 523.5 L 109.6 523.5" id="184,62" /><path d="M 92.7 533.5 L 92.7 530.2 L 108.7 530.2" id="162,61" /><path d="M 92.7 533.5 L 92.7 536.9 L 110.3 536.9" id="162,60" /><path d="M 97.8 550.0 L 97.8 543.6 L 108.0 543.6" id="155,59" /><path d="M 101.4 556.5 L 101.4 550.3 L 111.5 550.3" id="147,58" /><path d="M 102.4 562.8 L 102.4 557.0 L 109.9 557.0" id="138,57" /><path d="M 105.5 568.7 L 105.5 563.7 L 108.4 563.7" id="134,56" /><path d="M 107.3 573.7 L 107.3 570.4 L 108.0 570.4" id="132,55" /><path d="M 107.3 573.7 L 107.3 577.1 L 108.6 577.1" id="132,54" /><path d="M 94.3 587.1 L 94.3 583.8 L 108.1 583.8" id="146,53" /><path d="M 94.3 587.1 L 94.3 590.5 L 109.8 590.5" id="146,52" /><path d="M 103.4 600.5 L 103.4 597.2 L 107.4 597.2" id="137,51" /><path d="M 103.4 600.5 L 103.4 603.9 L 109.8 603.9" id="137,50" /><path d="M 95.7 615.6 L 95.7 610.6 L 109.5 610.6" id="136,49" /><path d="M 97.4 620.6 L 97.4 617.3 L 108.3 617.3" id="133,48" /><path d="M 97.4 620.6 L 97.4 624.0 L 109.6 624.0" id="133,47" /><path d="M 88.0 634.0 L 88.0 630.7 L 98.6 630.7" id="253,46" /><path d="M 88.0 634.0 L 88.0 637.4 L 100.3 637.4" id="253,45" /><path d="M 79.5 647.4 L 79.5 644.1 L 108.7 644.1" id="241,44" /><path d="M 79.5 647.4 L 79.5 650.8 L 104.7 650.8" id="241,43" /><path d="M 72.9 665.0 L 72.9 657.5 L 94.1 657.5" id="240,42" /><path d="M 84.5 672.5 L 84.5 664.2 L 106.8 664.2" id="232,41" /><path d="M 89.2 674.2 L 89.2 670.9 L 99.7 670.9" id="217,40" /><path d="M 89.2 674.2 L 89.2 677.6 L 101.7 677.6" id="217,39" /><path d="M 88.0 687.6 L 88.0 684.3 L 96.7 684.3" id="216,38" /><path d="M 88.0 687.6 L 88.0 691.0 L 98.2 691.0" id="216,37" /><path d="M 84.8 701.0 L 84.8 697.7 L 100.1 697.7" id="239,36" /><path d="M 84.8 701.0 L 84.8 704.4 L 111.3 704.4" id="239,35" /><path d="M 96.2 714.4 L 96.2 711.1 L 107.3 711.1" id="231,34" /><path d="M 96.2 714.4 L 96.2 717.8 L 106.2 717.8" id="231,33" /><path d="M 83.9 746.5 L 83.9 724.5 L 98.9 724.5" id="230,32" /><path d="M 88.3 734.5 L 88.3 731.2 L 109.8 731.2" id="215,31" /><path d="M 88.3 734.5 L 88.3 737.9 L 102.5 737.9" id="215,30" /><path d="M 96.2 749.6 L 96.2 744.6 L 100.4 744.6" id="202,29" /><path d="M 103.1 754.6 L 103.1 751.3 L 107.3 751.3" id="194,28" /><path d="M 103.1 754.6 L 103.1 758.0 L 113.5 758.0" id="194,27" /><path d="M 90.3 769.7 L 90.3 764.7 L 102.7 764.7" id="193,26" /><path d="M 91.5 774.7 L 91.5 771.4 L 104.9 771.4" id="183,25" /><path d="M 91.5 774.7 L 91.5 778.1 L 103.2 778.1" id="183,24" /><path d="M 94.9 788.1 L 94.9 784.8 L 98.9 784.8" id="182,23" /><path d="M 94.9 788.1 L 94.9 791.5 L 113.9 791.5" id="182,22" /><path d="M 94.9 803.2 L 94.9 798.2 L 102.1 798.2" id="181,21" /><path d="M 99.3 808.2 L 99.3 804.9 L 100.5 804.9" id="170,20" /><path d="M 99.3 808.2 L 99.3 811.6 L 106.4 811.6" id="170,19" /><path d="M 91.6 821.6 L 91.6 818.3 L 104.4 818.3" id="200,18" /><path d="M 91.6 821.6 L 91.6 825.0 L 99.7 825.0" id="200,17" /><path d="M 97.7 836.7 L 97.7 831.7 L 102.8 831.7" id="191,16" /><path d="M 97.8 841.7 L 97.8 838.4 L 107.1 838.4" id="180,15" /><path d="M 97.8 841.7 L 97.8 845.1 L 101.1 845.1" id="180,14" /><path d="M 97.1 858.1 L 97.1 851.8 L 98.8 851.8" id="179,13" /><path d="M 98.3 864.3 L 98.3 858.5 L 99.6 858.5" id="169,12" /><path d="M 98.9 870.2 L 98.9 865.2 L 100.4 865.2" id="160,11" /><path d="M 99.5 875.2 L 99.5 871.9 L 99.5 871.9" id="153,10" /><path d="M 99.5 875.2 L 99.5 878.6 L 99.5 878.6" id="153,9" /><path d="M 98.6 894.2 L 98.6 885.3 L 99.1 885.3" id="178,8" /><path d="M 98.9 903.1 L 98.9 892.0 L 100.2 892.0" id="168,7" /><path d="M 99.1 903.7 L 99.1 898.7 L 100.0 898.7" id="152,6" /><path d="M 99.5 908.7 L 99.5 905.4 L 101.0 905.4" id="144,5" /><path d="M 99.5 908.7 L 99.5 912.1 L 100.1 912.1" id="144,4" /><path d="M 99.2 924.6 L 99.2 918.8 L 100.0 918.8" id="151,3" /><path d="M 99.4 930.5 L 99.4 925.5 L 100.2 925.5" id="143,2" /><path d="M 100.6 935.5 L 100.6 932.2 L 100.6 932.2" id="135,1" /><path d="M 100.6 935.5 L 100.6 938.9 L 100.6 938.9" id="135,0" /></g><g class="toytree-AlignEdges" style="stroke:rgb(66.3%,66.3%,66.3%);stroke-dasharray:2, 4;stroke-linecap:round;stroke-opacity:1.0;stroke-width:2"><path d="M 177.8 938.9 L 100.6 938.9" /><path d="M 177.8 932.2 L 100.6 932.2" /><path d="M 177.8 925.5 L 100.2 925.5" /><path d="M 177.8 918.8 L 100.0 918.8" /><path d="M 177.8 912.1 L 100.1 912.1" /><path d="M 177.8 905.4 L 101.0 905.4" /><path d="M 177.8 898.7 L 100.0 898.7" /><path d="M 177.8 892.0 L 100.2 892.0" /><path d="M 177.8 885.3 L 99.1 885.3" /><path d="M 177.8 878.6 L 99.5 878.6" /><path d="M 177.8 871.9 L 99.5 871.9" /><path d="M 177.8 865.2 L 100.4 865.2" /><path d="M 177.8 858.5 L 99.6 858.5" /><path d="M 177.8 851.8 L 98.8 851.8" /><path d="M 177.8 845.1 L 101.1 845.1" /><path d="M 177.8 838.4 L 107.1 838.4" /><path d="M 177.8 831.7 L 102.8 831.7" /><path d="M 177.8 825.0 L 99.7 825.0" /><path d="M 177.8 818.3 L 104.4 818.3" /><path d="M 177.8 811.6 L 106.4 811.6" /><path d="M 177.8 804.9 L 100.5 804.9" /><path d="M 177.8 798.2 L 102.1 798.2" /><path d="M 177.8 791.5 L 113.9 791.5" /><path d="M 177.8 784.8 L 98.9 784.8" /><path d="M 177.8 778.1 L 103.2 778.1" /><path d="M 177.8 771.4 L 104.9 771.4" /><path d="M 177.8 764.7 L 102.7 764.7" /><path d="M 177.8 758.0 L 113.5 758.0" /><path d="M 177.8 751.3 L 107.3 751.3" /><path d="M 177.8 744.6 L 100.4 744.6" /><path d="M 177.8 737.9 L 102.5 737.9" /><path d="M 177.8 731.2 L 109.8 731.2" /><path d="M 177.8 724.5 L 98.9 724.5" /><path d="M 177.8 717.8 L 106.2 717.8" /><path d="M 177.8 711.1 L 107.3 711.1" /><path d="M 177.8 704.4 L 111.3 704.4" /><path d="M 177.8 697.7 L 100.1 697.7" /><path d="M 177.8 691.0 L 98.2 691.0" /><path d="M 177.8 684.3 L 96.7 684.3" /><path d="M 177.8 677.6 L 101.7 677.6" /><path d="M 177.8 670.9 L 99.7 670.9" /><path d="M 177.8 664.2 L 106.8 664.2" /><path d="M 177.8 657.5 L 94.1 657.5" /><path d="M 177.8 650.8 L 104.7 650.8" /><path d="M 177.8 644.1 L 108.7 644.1" /><path d="M 177.8 637.4 L 100.3 637.4" /><path d="M 177.8 630.7 L 98.6 630.7" /><path d="M 177.8 624.0 L 109.6 624.0" /><path d="M 177.8 617.3 L 108.3 617.3" /><path d="M 177.8 610.6 L 109.5 610.6" /><path d="M 177.8 603.9 L 109.8 603.9" /><path d="M 177.8 597.2 L 107.4 597.2" /><path d="M 177.8 590.5 L 109.8 590.5" /><path d="M 177.8 583.8 L 108.1 583.8" /><path d="M 177.8 577.1 L 108.6 577.1" /><path d="M 177.8 570.4 L 108.0 570.4" /><path d="M 177.8 563.7 L 108.4 563.7" /><path d="M 177.8 557.0 L 109.9 557.0" /><path d="M 177.8 550.3 L 111.5 550.3" /><path d="M 177.8 543.6 L 108.0 543.6" /><path d="M 177.8 536.9 L 110.3 536.9" /><path d="M 177.8 530.2 L 108.7 530.2" /><path d="M 177.8 523.5 L 109.6 523.5" /><path d="M 177.8 516.8 L 108.5 516.8" /><path d="M 177.8 510.1 L 108.6 510.1" /><path d="M 177.8 503.4 L 109.1 503.4" /><path d="M 177.8 496.6 L 109.6 496.6" /><path d="M 177.8 489.9 L 108.3 489.9" /><path d="M 177.8 483.2 L 109.1 483.2" /><path d="M 177.8 476.5 L 108.5 476.5" /><path d="M 177.8 469.8 L 110.2 469.8" /><path d="M 177.8 463.1 L 109.9 463.1" /><path d="M 177.8 456.4 L 109.5 456.4" /><path d="M 177.8 449.7 L 108.9 449.7" /><path d="M 177.8 443.0 L 111.0 443.0" /><path d="M 177.8 436.3 L 114.5 436.3" /><path d="M 177.8 429.6 L 109.4 429.6" /><path d="M 177.8 422.9 L 108.7 422.9" /><path d="M 177.8 416.2 L 112.1 416.2" /><path d="M 177.8 409.5 L 108.6 409.5" /><path d="M 177.8 402.8 L 112.1 402.8" /><path d="M 177.8 396.1 L 99.2 396.1" /><path d="M 177.8 389.4 L 102.3 389.4" /><path d="M 177.8 382.7 L 108.9 382.7" /><path d="M 177.8 376.0 L 107.6 376.0" /><path d="M 177.8 369.3 L 95.9 369.3" /><path d="M 177.8 362.6 L 143.4 362.6" /><path d="M 177.8 355.9 L 143.3 355.9" /><path d="M 177.8 349.2 L 143.7 349.2" /><path d="M 177.8 342.5 L 143.7 342.5" /><path d="M 177.8 335.8 L 142.8 335.8" /><path d="M 177.8 329.1 L 142.5 329.1" /><path d="M 177.8 322.4 L 152.7 322.4" /><path d="M 177.8 315.7 L 142.1 315.7" /><path d="M 177.8 309.0 L 145.1 309.0" /><path d="M 177.8 302.3 L 142.9 302.3" /><path d="M 177.8 295.6 L 143.7 295.6" /><path d="M 177.8 288.9 L 144.6 288.9" /><path d="M 177.8 282.2 L 144.6 282.2" /><path d="M 177.8 275.5 L 140.9 275.5" /><path d="M 177.8 268.8 L 140.9 268.8" /><path d="M 177.8 262.1 L 142.0 262.1" /><path d="M 177.8 255.4 L 141.9 255.4" /><path d="M 177.8 248.7 L 138.7 248.7" /><path d="M 177.8 242.0 L 138.1 242.0" /><path d="M 177.8 235.3 L 141.5 235.3" /><path d="M 177.8 228.6 L 139.7 228.6" /><path d="M 177.8 221.9 L 141.8 221.9" /><path d="M 177.8 215.2 L 139.6 215.2" /><path d="M 177.8 208.5 L 143.9 208.5" /><path d="M 177.8 201.8 L 136.9 201.8" /><path d="M 177.8 195.1 L 142.4 195.1" /><path d="M 177.8 188.4 L 142.4 188.4" /><path d="M 177.8 181.7 L 174.3 181.7" /><path d="M 177.8 175.0 L 174.8 175.0" /><path d="M 177.8 168.3 L 161.4 168.3" /><path d="M 177.8 161.6 L 172.7 161.6" /><path d="M 177.8 154.9 L 177.8 154.9" /><path d="M 177.8 148.2 L 173.3 148.2" /><path d="M 177.8 141.5 L 166.5 141.5" /><path d="M 177.8 134.8 L 144.9 134.8" /><path d="M 177.8 128.1 L 136.6 128.1" /><path d="M 177.8 121.4 L 129.9 121.4" /><path d="M 177.8 114.7 L 129.3 114.7" /><path d="M 177.8 108.0 L 136.2 108.0" /><path d="M 177.8 101.3 L 136.7 101.3" /><path d="M 177.8 94.6 L 143.0 94.6" /><path d="M 177.8 87.9 L 136.0 87.9" /><path d="M 177.8 81.2 L 133.8 81.2" /><path d="M 177.8 74.5 L 133.7 74.5" /><path d="M 177.8 67.8 L 119.6 67.8" /><path d="M 177.8 61.1 L 108.2 61.1" /></g><g class="toytree-TipLabels" style="fill:rgb(14.9%,14.9%,14.9%);fill-opacity:1.0;font-family:helvetica;font-size:9px;font-weight:normal;stroke:none;white-space:pre"><g transform="translate(177.83,938.88)rotate(0)"><text x="15.00" y="2.30" style="">A0A2K6K3P5</text></g><g transform="translate(177.83,932.18)rotate(0)"><text x="15.00" y="2.30" style="">A0A2K6RQB6</text></g><g transform="translate(177.83,925.48)rotate(0)"><text x="15.00" y="2.30" style="">A0A2K5HW98</text></g><g transform="translate(177.83,918.78)rotate(0)"><text x="15.00" y="2.30" style="">A0A096MT32</text></g><g transform="translate(177.83,912.08)rotate(0)"><text x="15.00" y="2.30" style="">A0A2K5W9E4</text></g><g transform="translate(177.83,905.38)rotate(0)"><text x="15.00" y="2.30" style="">A0A0D9S0Q9</text></g><g transform="translate(177.83,898.68)rotate(0)"><text x="15.00" y="2.30" style="">A0A2K6BS58</text></g><g transform="translate(177.83,891.98)rotate(0)"><text x="15.00" y="2.30" style="">A0A2K5YMT9</text></g><g transform="translate(177.83,885.28)rotate(0)"><text x="15.00" y="2.30" style="">A0A2K5MLK0</text></g><g transform="translate(177.83,878.58)rotate(0)"><text x="15.00" y="2.30" style="">A0A6D2Y0G2</text></g><g transform="translate(177.83,871.88)rotate(0)"><text x="15.00" y="2.30" style="">A0A2R9AC53</text></g><g transform="translate(177.83,865.18)rotate(0)"><text x="15.00" y="2.30" style="">G3S106</text></g><g transform="translate(177.83,858.48)rotate(0)"><text x="15.00" y="2.30" style="">A0A6D2W4N1</text></g><g transform="translate(177.83,851.78)rotate(0)"><text x="15.00" y="2.30" style="">G1RTU0</text></g><g transform="translate(177.83,845.07)rotate(0)"><text x="15.00" y="2.30" style="">A0A2K5EC51</text></g><g transform="translate(177.83,838.37)rotate(0)"><text x="15.00" y="2.30" style="">F7GW78</text></g><g transform="translate(177.83,831.67)rotate(0)"><text x="15.00" y="2.30" style="">A0A2K6V7S2</text></g><g transform="translate(177.83,824.97)rotate(0)"><text x="15.00" y="2.30" style="">A0A2K6EX61</text></g><g transform="translate(177.83,818.27)rotate(0)"><text x="15.00" y="2.30" style="">H0WSS6</text></g><g transform="translate(177.83,811.57)rotate(0)"><text x="15.00" y="2.30" style="">A0A452QVE4</text></g><g transform="translate(177.83,804.87)rotate(0)"><text x="15.00" y="2.30" style="">A0A384CTX8</text></g><g transform="translate(177.83,798.17)rotate(0)"><text x="15.00" y="2.30" style="">M3Z0Z9</text></g><g transform="translate(177.83,791.47)rotate(0)"><text x="15.00" y="2.30" style="">A0A673T3L4</text></g><g transform="translate(177.83,784.77)rotate(0)"><text x="15.00" y="2.30" style="">A0A337SPE5</text></g><g transform="translate(177.83,778.07)rotate(0)"><text x="15.00" y="2.30" style="">A0A671ETV1</text></g><g transform="translate(177.83,771.37)rotate(0)"><text x="15.00" y="2.30" style="">G1P4M4</text></g><g transform="translate(177.83,764.67)rotate(0)"><text x="15.00" y="2.30" style="">A0A3Q2L9B7</text></g><g transform="translate(177.83,757.97)rotate(0)"><text x="15.00" y="2.30" style="">W5Q2A1</text></g><g transform="translate(177.83,751.27)rotate(0)"><text x="15.00" y="2.30" style="">A0A452FSQ0</text></g><g transform="translate(177.83,744.57)rotate(0)"><text x="15.00" y="2.30" style="">A0A4W2DSH0</text></g><g transform="translate(177.83,737.87)rotate(0)"><text x="15.00" y="2.30" style="">G1SN07</text></g><g transform="translate(177.83,731.17)rotate(0)"><text x="15.00" y="2.30" style="">A0A286XIR9</text></g><g transform="translate(177.83,724.47)rotate(0)"><text x="15.00" y="2.30" style="">G3SLN8</text></g><g transform="translate(177.83,717.77)rotate(0)"><text x="15.00" y="2.30" style="">G3HMK5</text></g><g transform="translate(177.83,711.07)rotate(0)"><text x="15.00" y="2.30" style="">B2GUY1</text></g><g transform="translate(177.83,704.36)rotate(0)"><text x="15.00" y="2.30" style="">F6YGH3</text></g><g transform="translate(177.83,697.66)rotate(0)"><text x="15.00" y="2.30" style="">A0A4X2KG58</text></g><g transform="translate(177.83,690.96)rotate(0)"><text x="15.00" y="2.30" style="">U3IPH8</text></g><g transform="translate(177.83,684.26)rotate(0)"><text x="15.00" y="2.30" style="">A0A669QJC9</text></g><g transform="translate(177.83,677.56)rotate(0)"><text x="15.00" y="2.30" style="">A0A674GLV4</text></g><g transform="translate(177.83,670.86)rotate(0)"><text x="15.00" y="2.30" style="">A0A672UDR6</text></g><g transform="translate(177.83,664.16)rotate(0)"><text x="15.00" y="2.30" style="">A0A663MBW3</text></g><g transform="translate(177.83,657.46)rotate(0)"><text x="15.00" y="2.30" style="">K7FLW5</text></g><g transform="translate(177.83,650.76)rotate(0)"><text x="15.00" y="2.30" style="">A0A670IK22</text></g><g transform="translate(177.83,644.06)rotate(0)"><text x="15.00" y="2.30" style="">A0A670YQT0</text></g><g transform="translate(177.83,637.36)rotate(0)"><text x="15.00" y="2.30" style="">A0A1L8HLY0</text></g><g transform="translate(177.83,630.66)rotate(0)"><text x="15.00" y="2.30" style="">A0A1L8HUQ2</text></g><g transform="translate(177.83,623.96)rotate(0)"><text x="15.00" y="2.30" style="">A0A2U9CJ53</text></g><g transform="translate(177.83,617.26)rotate(0)"><text x="15.00" y="2.30" style="">A0A3B4T6P8</text></g><g transform="translate(177.83,610.56)rotate(0)"><text x="15.00" y="2.30" style="">A0A665WPW8</text></g><g transform="translate(177.83,603.86)rotate(0)"><text x="15.00" y="2.30" style="">A0A3P8U8L8</text></g><g transform="translate(177.83,597.16)rotate(0)"><text x="15.00" y="2.30" style="">A0A3Q1APX1</text></g><g transform="translate(177.83,590.46)rotate(0)"><text x="15.00" y="2.30" style="">G3NZT1</text></g><g transform="translate(177.83,583.76)rotate(0)"><text x="15.00" y="2.30" style="">A0A671WA74</text></g><g transform="translate(177.83,577.06)rotate(0)"><text x="15.00" y="2.30" style="">A0A3P8QSP7</text></g><g transform="translate(177.83,570.36)rotate(0)"><text x="15.00" y="2.30" style="">A0A3Q2W3P0</text></g><g transform="translate(177.83,563.65)rotate(0)"><text x="15.00" y="2.30" style="">A0A669F9S4</text></g><g transform="translate(177.83,556.95)rotate(0)"><text x="15.00" y="2.30" style="">A0A3Q4GSW4</text></g><g transform="translate(177.83,550.25)rotate(0)"><text x="15.00" y="2.30" style="">A0A668W665</text></g><g transform="translate(177.83,543.55)rotate(0)"><text x="15.00" y="2.30" style="">A0A3Q0T2Z1</text></g><g transform="translate(177.83,536.85)rotate(0)"><text x="15.00" y="2.30" style="">A0A1A8U1R0</text></g><g transform="translate(177.83,530.15)rotate(0)"><text x="15.00" y="2.30" style="">A0A3Q2ZTT6</text></g><g transform="translate(177.83,523.45)rotate(0)"><text x="15.00" y="2.30" style="">A0A3B3BIE0</text></g><g transform="translate(177.83,516.75)rotate(0)"><text x="15.00" y="2.30" style="">A0A3B5Q007</text></g><g transform="translate(177.83,510.05)rotate(0)"><text x="15.00" y="2.30" style="">A0A087X4E6</text></g><g transform="translate(177.83,503.35)rotate(0)"><text x="15.00" y="2.30" style="">A0A3P9PIM8</text></g><g transform="translate(177.83,496.65)rotate(0)"><text x="15.00" y="2.30" style="">A0A3Q2GCF1</text></g><g transform="translate(177.83,489.95)rotate(0)"><text x="15.00" y="2.30" style="">H2T1P6</text></g><g transform="translate(177.83,483.25)rotate(0)"><text x="15.00" y="2.30" style="">H3DJ05</text></g><g transform="translate(177.83,476.55)rotate(0)"><text x="15.00" y="2.30" style="">A0A3Q3X8B1</text></g><g transform="translate(177.83,469.85)rotate(0)"><text x="15.00" y="2.30" style="">A0A672IKJ4</text></g><g transform="translate(177.83,463.15)rotate(0)"><text x="15.00" y="2.30" style="">A0A673W8I3</text></g><g transform="translate(177.83,456.45)rotate(0)"><text x="15.00" y="2.30" style="">A0A673Y9Q5</text></g><g transform="translate(177.83,449.75)rotate(0)"><text x="15.00" y="2.30" style="">A0A3P8ZU05</text></g><g transform="translate(177.83,443.05)rotate(0)"><text x="15.00" y="2.30" style="">A0A3P8UMM3</text></g><g transform="translate(177.83,436.35)rotate(0)"><text x="15.00" y="2.30" style="">A0A3Q2YSF5</text></g><g transform="translate(177.83,429.64)rotate(0)"><text x="15.00" y="2.30" style="">A0A2D0RL52</text></g><g transform="translate(177.83,422.94)rotate(0)"><text x="15.00" y="2.30" style="">A0A3B4CMZ1</text></g><g transform="translate(177.83,416.24)rotate(0)"><text x="15.00" y="2.30" style="">A0A4W4ENP5</text></g><g transform="translate(177.83,409.54)rotate(0)"><text x="15.00" y="2.30" style="">A0A672N1H1</text></g><g transform="translate(177.83,402.84)rotate(0)"><text x="15.00" y="2.30" style="">A0A672QN77</text></g><g transform="translate(177.83,396.14)rotate(0)"><text x="15.00" y="2.30" style="">W5MXN7</text></g><g transform="translate(177.83,389.44)rotate(0)"><text x="15.00" y="2.30" style="">A0A401PDG0</text></g><g transform="translate(177.83,382.74)rotate(0)"><text x="15.00" y="2.30" style="">A0A401SRM0</text></g><g transform="translate(177.83,376.04)rotate(0)"><text x="15.00" y="2.30" style="">A0A4W3K6Z2</text></g><g transform="translate(177.83,369.34)rotate(0)"><text x="15.00" y="2.30" style="">H3B8Z3</text></g><g transform="translate(177.83,362.64)rotate(0)"><text x="15.00" y="2.30" style="">A0A3B0K3U3</text></g><g transform="translate(177.83,355.94)rotate(0)"><text x="15.00" y="2.30" style="">A0A6P5VDY2</text></g><g transform="translate(177.83,349.24)rotate(0)"><text x="15.00" y="2.30" style="">A0A6P4ENU3</text></g><g transform="translate(177.83,342.54)rotate(0)"><text x="15.00" y="2.30" style="">A0A1W4URK8</text></g><g transform="translate(177.83,335.84)rotate(0)"><text x="15.00" y="2.30" style="">A0A6J1MF36</text></g><g transform="translate(177.83,329.14)rotate(0)"><text x="15.00" y="2.30" style="">A0A484B2R6</text></g><g transform="translate(177.83,322.44)rotate(0)"><text x="15.00" y="2.30" style="">A0A0M4EJG8</text></g><g transform="translate(177.83,315.74)rotate(0)"><text x="15.00" y="2.30" style="">A0A0L0C8P3</text></g><g transform="translate(177.83,309.04)rotate(0)"><text x="15.00" y="2.30" style="">A0A182YPS4</text></g><g transform="translate(177.83,302.34)rotate(0)"><text x="15.00" y="2.30" style="">Q7PTZ9</text></g><g transform="translate(177.83,295.64)rotate(0)"><text x="15.00" y="2.30" style="">A0A084W5Q6</text></g><g transform="translate(177.83,288.93)rotate(0)"><text x="15.00" y="2.30" style="">A0A336KJJ4</text></g><g transform="translate(177.83,282.23)rotate(0)"><text x="15.00" y="2.30" style="">A0A336MRV4</text></g><g transform="translate(177.83,275.53)rotate(0)"><text x="15.00" y="2.30" style="">E2AAW4</text></g><g transform="translate(177.83,268.83)rotate(0)"><text x="15.00" y="2.30" style="">A0A026W1Q5</text></g><g transform="translate(177.83,262.13)rotate(0)"><text x="15.00" y="2.30" style="">E2C0A9</text></g><g transform="translate(177.83,255.43)rotate(0)"><text x="15.00" y="2.30" style="">A0A158NZQ1</text></g><g transform="translate(177.83,248.73)rotate(0)"><text x="15.00" y="2.30" style="">A0A7M6UFA0</text></g><g transform="translate(177.83,242.03)rotate(0)"><text x="15.00" y="2.30" style="">T1IB56</text></g><g transform="translate(177.83,235.33)rotate(0)"><text x="15.00" y="2.30" style="">D6W9Q2</text></g><g transform="translate(177.83,228.63)rotate(0)"><text x="15.00" y="2.30" style="">N6TZK4</text></g><g transform="translate(177.83,221.93)rotate(0)"><text x="15.00" y="2.30" style="">A0A194QRE4</text></g><g transform="translate(177.83,215.23)rotate(0)"><text x="15.00" y="2.30" style="">E9HCB2</text></g><g transform="translate(177.83,208.53)rotate(0)"><text x="15.00" y="2.30" style="">A0A087VY93</text></g><g transform="translate(177.83,201.83)rotate(0)"><text x="15.00" y="2.30" style="">A0A226E5Q0</text></g><g transform="translate(177.83,195.13)rotate(0)"><text x="15.00" y="2.30" style="">A0A1D2NAP3</text></g><g transform="translate(177.83,188.43)rotate(0)"><text x="15.00" y="2.30" style="">E0VCI7</text></g><g transform="translate(177.83,181.73)rotate(0)"><text x="15.00" y="2.30" style="">A0A7I4Y1E4</text></g><g transform="translate(177.83,175.03)rotate(0)"><text x="15.00" y="2.30" style="">W2SUZ2</text></g><g transform="translate(177.83,168.33)rotate(0)"><text x="15.00" y="2.30" style="">E3M4S5</text></g><g transform="translate(177.83,161.63)rotate(0)"><text x="15.00" y="2.30" style="">A0A090LE65</text></g><g transform="translate(177.83,154.93)rotate(0)"><text x="15.00" y="2.30" style="">A0CSI4</text></g><g transform="translate(177.83,148.22)rotate(0)"><text x="15.00" y="2.30" style="">A0A1S3IEW1</text></g><g transform="translate(177.83,141.52)rotate(0)"><text x="15.00" y="2.30" style="">A0A1W0WLW6</text></g><g transform="translate(177.83,134.82)rotate(0)"><text x="15.00" y="2.30" style="">T1JCE3</text></g><g transform="translate(177.83,128.12)rotate(0)"><text x="15.00" y="2.30" style="">T2MJ85</text></g><g transform="translate(177.83,121.42)rotate(0)"><text x="15.00" y="2.30" style="">K1Q9H9</text></g><g transform="translate(177.83,114.72)rotate(0)"><text x="15.00" y="2.30" style="">V4CIY5</text></g><g transform="translate(177.83,108.02)rotate(0)"><text x="15.00" y="2.30" style="">A0A0L8FXB5</text></g><g transform="translate(177.83,101.32)rotate(0)"><text x="15.00" y="2.30" style="">R7V1R1</text></g><g transform="translate(177.83,94.62)rotate(0)"><text x="15.00" y="2.30" style="">A0A1S3K7W6</text></g><g transform="translate(177.83,87.92)rotate(0)"><text x="15.00" y="2.30" style="">H2Z6T2</text></g><g transform="translate(177.83,81.22)rotate(0)"><text x="15.00" y="2.30" style="">F6XLX0</text></g><g transform="translate(177.83,74.52)rotate(0)"><text x="15.00" y="2.30" style="">A0A7M7SWA0</text></g><g transform="translate(177.83,67.82)rotate(0)"><text x="15.00" y="2.30" style="">S4RZR2</text></g><g transform="translate(177.83,61.12)rotate(0)"><text x="15.00" y="2.30" style="">F7FQQ3</text></g></g></g></g><g class="toyplot-coordinates-Axis" id="t83ed8653d2cc463fb87a578f34a0653b" transform="translate(50.0,950.0)translate(0,20.0)"><line x1="1.2656117785737624" y1="0" x2="127.82678963594891" y2="0" style="" /><g><line x1="127.82678963594891" y1="0" x2="127.82678963594891" y2="-5" style="" /><line x1="64.54620070726132" y1="0" x2="64.54620070726132" y2="-5" style="" /><line x1="1.265611778573739" y1="0" x2="1.265611778573739" y2="-5" style="" /></g><g><g transform="translate(127.82678963594891,6)"><text x="-6.95" y="8.555" style="fill:rgb(16.1%,15.3%,14.1%);fill-opacity:1.0;font-family:helvetica;font-size:10.0px;font-weight:normal;stroke:none;vertical-align:baseline;white-space:pre">0.0</text></g><g transform="translate(64.54620070726132,6)"><text x="-6.95" y="8.555" style="fill:rgb(16.1%,15.3%,14.1%);fill-opacity:1.0;font-family:helvetica;font-size:10.0px;font-weight:normal;stroke:none;vertical-align:baseline;white-space:pre">0.3</text></g><g transform="translate(1.265611778573739,6)"><text x="-6.95" y="8.555" style="fill:rgb(16.1%,15.3%,14.1%);fill-opacity:1.0;font-family:helvetica;font-size:10.0px;font-weight:normal;stroke:none;vertical-align:baseline;white-space:pre">0.6</text></g></g><g class="toyplot-coordinates-Axis-coordinates" style="visibility:hidden" transform=""><line x1="0" x2="0" y1="-3.0" y2="4.5" style="stroke:rgb(43.9%,50.2%,56.5%);stroke-opacity:1.0;stroke-width:1.0" /><text x="0" y="-6" style="alignment-baseline:alphabetic;fill:rgb(43.9%,50.2%,56.5%);fill-opacity:1.0;font-size:10px;font-weight:normal;stroke:none;text-anchor:middle" /></g></g></g></svg>