<svg class="toyplot-canvas-Canvas" xmlns:toyplot="http://www.sandia.gov/toyplot" xmlns:xlink="http://www.w3.org/1999/xlink" xmlns="http://www.w3.org/2000/svg" width="500.0px" height="1000.0px" viewBox="0 0 500.0 1000.0" preserveAspectRatio="xMidYMid meet" style="background-color:transparent;border-color:#292724;border-style:none;border-width:1.0;fill:rgb(16.1%,15.3%,14.1%);fill-opacity:1.0;font-family:Helvetica;font-size:12px;opacity:1.0;stroke:rgb(16.1%,15.3%,14.1%);stroke-opacity:1.0;stroke-width:1.0" id="td31999c62e654a129c55f74708df4f9f"><g class="toyplot-coordinates-Cartesian" id="tec8b7d8f347049cdb64c8e6786544beb"><clipPath id="te48193a1ead5433ead400b6271e42421"><rect x="30.0" y="30.0" width="440.0" height="940.0" /></clipPath><g clip-path="url(#te48193a1ead5433ead400b6271e42421)"><g class="toytree-mark-Toytree" id="t7ac4bbe5a0ba459cae69d08d10bbd328"><g class="toytree-Edges" style="fill:none;stroke:rgb(14.9%,14.9%,14.9%);stroke-linecap:round;stroke-opacity:1;stroke-width:2"><path d="M 50.7 114.6 L 50.7 67.6 L 52.1 67.6" id="262,261" /><path d="M 50.7 114.6 L 50.7 161.5 L 53.3 161.5" id="262,260" /><path d="M 52.1 67.6 L 52.1 74.1 L 53.6 74.1" id="261,259" /><path d="M 53.3 161.5 L 53.3 221.7 L 70.4 221.7" id="260,258" /><path d="M 53.6 74.1 L 53.6 80.4 L 61.9 80.4" id="259,257" /><path d="M 70.4 221.7 L 70.4 126.4 L 70.9 126.4" id="258,256" /><path d="M 70.4 221.7 L 70.4 317.0 L 72.3 317.0" id="258,255" /><path d="M 61.9 80.4 L 61.9 86.2 L 75.0 86.2" id="257,254" /><path d="M 70.9 126.4 L 70.9 113.0 L 71.9 113.0" id="256,253" /><path d="M 70.9 126.4 L 70.9 139.8 L 71.0 139.8" id="256,252" /><path d="M 72.3 317.0 L 72.3 338.3 L 78.5 338.3" id="255,251" /><path d="M 75.0 86.2 L 75.0 91.3 L 122.1 91.3" id="254,250" /><path d="M 71.9 113.0 L 71.9 118.1 L 77.5 118.1" id="253,249" /><path d="M 71.0 139.8 L 71.0 151.6 L 71.8 151.6" id="252,248" /><path d="M 78.5 338.3 L 78.5 313.2 L 82.0 313.2" id="251,247" /><path d="M 78.5 338.3 L 78.5 363.3 L 80.7 363.3" id="251,246" /><path d="M 71.8 151.6 L 71.8 168.3 L 75.1 168.3" id="248,245" /><path d="M 82.0 313.2 L 82.0 305.7 L 87.2 305.7" id="247,244" /><path d="M 82.0 313.2 L 82.0 320.8 L 86.7 320.8" id="247,243" /><path d="M 80.7 363.3 L 80.7 339.2 L 117.1 339.2" id="246,242" /><path d="M 80.7 363.3 L 80.7 387.4 L 82.9 387.4" id="246,241" /><path d="M 75.1 168.3 L 75.1 195.1 L 78.9 195.1" id="245,240" /><path d="M 86.7 320.8 L 86.7 325.8 L 91.2 325.8" id="243,239" /><path d="M 82.9 387.4 L 82.9 425.7 L 87.1 425.7" id="241,238" /><path d="M 78.9 195.1 L 78.9 164.0 L 80.0 164.0" id="240,237" /><path d="M 78.9 195.1 L 78.9 226.2 L 81.2 226.2" id="240,236" /><path d="M 87.1 425.7 L 87.1 495.4 L 99.5 495.4" id="238,235" /><path d="M 80.0 164.0 L 80.0 153.2 L 80.9 153.2" id="237,234" /><path d="M 80.0 164.0 L 80.0 174.8 L 83.4 174.8" id="237,233" /><path d="M 81.2 226.2 L 81.2 211.9 L 165.1 211.9" id="236,232" /><path d="M 81.2 226.2 L 81.2 240.6 L 84.6 240.6" id="236,231" /><path d="M 99.5 495.4 L 99.5 379.5 L 109.1 379.5" id="235,230" /><path d="M 99.5 495.4 L 99.5 611.2 L 103.1 611.2" id="235,229" /><path d="M 80.9 153.2 L 80.9 158.3 L 100.5 158.3" id="234,228" /><path d="M 83.4 174.8 L 83.4 181.3 L 108.0 181.3" id="233,227" /><path d="M 84.6 240.6 L 84.6 227.0 L 109.2 227.0" id="231,226" /><path d="M 84.6 240.6 L 84.6 254.2 L 100.9 254.2" id="231,225" /><path d="M 109.1 379.5 L 109.1 396.4 L 120.9 396.4" id="230,224" /><path d="M 103.1 611.2 L 103.1 625.3 L 104.6 625.3" id="229,223" /><path d="M 108.0 181.3 L 108.0 187.6 L 127.4 187.6" id="227,222" /><path d="M 109.2 227.0 L 109.2 232.0 L 116.2 232.0" id="226,221" /><path d="M 100.9 254.2 L 100.9 266.3 L 115.8 266.3" id="225,220" /><path d="M 120.9 396.4 L 120.9 380.2 L 138.1 380.2" id="224,219" /><path d="M 120.9 396.4 L 120.9 412.6 L 129.2 412.6" id="224,218" /><path d="M 104.6 625.3 L 104.6 608.9 L 118.8 608.9" id="223,217" /><path d="M 104.6 625.3 L 104.6 641.7 L 109.2 641.7" id="223,216" /><path d="M 127.4 187.6 L 127.4 193.5 L 128.9 193.5" id="222,215" /><path d="M 115.8 266.3 L 115.8 253.8 L 126.9 253.8" id="220,214" /><path d="M 115.8 266.3 L 115.8 278.9 L 128.3 278.9" id="220,213" /><path d="M 138.1 380.2 L 138.1 372.7 L 160.8 372.7" id="219,212" /><path d="M 138.1 380.2 L 138.1 387.8 L 143.1 387.8" id="219,211" /><path d="M 129.2 412.6 L 129.2 422.4 L 129.2 422.4" id="218,210" /><path d="M 118.8 608.9 L 118.8 613.9 L 142.8 613.9" id="217,209" /><path d="M 109.2 641.7 L 109.2 659.5 L 109.8 659.5" id="216,208" /><path d="M 128.9 193.5 L 128.9 198.5 L 131.8 198.5" id="215,207" /><path d="M 126.9 253.8 L 126.9 258.8 L 151.0 258.8" id="214,206" /><path d="M 128.3 278.9 L 128.3 272.2 L 151.0 272.2" id="213,205" /><path d="M 128.3 278.9 L 128.3 285.6 L 158.0 285.6" id="213,204" /><path d="M 143.1 387.8 L 143.1 392.8 L 147.5 392.8" id="211,203" /><path d="M 129.2 422.4 L 129.2 435.3 L 130.6 435.3" id="210,202" /><path d="M 109.8 659.5 L 109.8 634.0 L 152.7 634.0" id="208,201" /><path d="M 109.8 659.5 L 109.8 684.9 L 119.4 684.9" id="208,200" /><path d="M 130.6 435.3 L 130.6 421.3 L 144.1 421.3" id="202,199" /><path d="M 130.6 435.3 L 130.6 449.3 L 135.6 449.3" id="202,198" /><path d="M 119.4 684.9 L 119.4 656.2 L 125.7 656.2" id="200,197" /><path d="M 119.4 684.9 L 119.4 713.6 L 132.2 713.6" id="200,196" /><path d="M 144.1 421.3 L 144.1 426.3 L 152.0 426.3" id="199,195" /><path d="M 135.6 449.3 L 135.6 462.3 L 136.2 462.3" id="198,194" /><path d="M 125.7 656.2 L 125.7 647.4 L 135.8 647.4" id="197,193" /><path d="M 125.7 656.2 L 125.7 665.0 L 135.3 665.0" id="197,192" /><path d="M 132.2 713.6 L 132.2 701.0 L 145.3 701.0" id="196,191" /><path d="M 132.2 713.6 L 132.2 726.2 L 140.5 726.2" id="196,190" /><path d="M 136.2 462.3 L 136.2 446.4 L 147.3 446.4" id="194,189" /><path d="M 136.2 462.3 L 136.2 478.2 L 137.2 478.2" id="194,188" /><path d="M 135.3 665.0 L 135.3 672.5 L 147.5 672.5" id="192,187" /><path d="M 140.5 726.2 L 140.5 714.4 L 158.2 714.4" id="190,186" /><path d="M 140.5 726.2 L 140.5 738.0 L 146.7 738.0" id="190,185" /><path d="M 137.2 478.2 L 137.2 462.3 L 148.5 462.3" id="188,184" /><path d="M 137.2 478.2 L 137.2 494.2 L 138.9 494.2" id="188,183" /><path d="M 147.5 672.5 L 147.5 680.9 L 152.7 680.9" id="187,182" /><path d="M 146.7 738.0 L 146.7 751.4 L 148.4 751.4" id="185,181" /><path d="M 148.5 462.3 L 148.5 468.2 L 158.9 468.2" id="184,180" /><path d="M 138.9 494.2 L 138.9 505.1 L 140.5 505.1" id="183,179" /><path d="M 152.7 680.9 L 152.7 674.2 L 157.1 674.2" id="182,178" /><path d="M 152.7 680.9 L 152.7 687.6 L 155.7 687.6" id="182,177" /><path d="M 148.4 751.4 L 148.4 771.7 L 149.2 771.7" id="181,176" /><path d="M 158.9 468.2 L 158.9 473.2 L 162.3 473.2" id="180,175" /><path d="M 140.5 505.1 L 140.5 520.2 L 141.2 520.2" id="179,174" /><path d="M 149.2 771.7 L 149.2 742.9 L 158.5 742.9" id="176,173" /><path d="M 149.2 771.7 L 149.2 800.6 L 152.4 800.6" id="176,172" /><path d="M 141.2 520.2 L 141.2 500.0 L 144.3 500.0" id="174,171" /><path d="M 141.2 520.2 L 141.2 540.3 L 144.0 540.3" id="174,170" /><path d="M 158.5 742.9 L 158.5 747.9 L 162.3 747.9" id="173,169" /><path d="M 152.4 800.6 L 152.4 776.0 L 152.7 776.0" id="172,168" /><path d="M 152.4 800.6 L 152.4 825.2 L 152.9 825.2" id="172,167" /><path d="M 144.0 540.3 L 144.0 516.5 L 151.7 516.5" id="170,166" /><path d="M 144.0 540.3 L 144.0 564.1 L 144.9 564.1" id="170,165" /><path d="M 152.7 776.0 L 152.7 763.0 L 154.0 763.0" id="168,164" /><path d="M 152.7 776.0 L 152.7 789.0 L 155.4 789.0" id="168,163" /><path d="M 152.9 825.2 L 152.9 838.7 L 155.2 838.7" id="167,162" /><path d="M 151.7 516.5 L 151.7 523.0 L 155.9 523.0" id="166,161" /><path d="M 144.9 564.1 L 144.9 553.6 L 147.0 553.6" id="165,160" /><path d="M 144.9 564.1 L 144.9 574.5 L 146.1 574.5" id="165,159" /><path d="M 154.0 763.0 L 154.0 768.0 L 155.2 768.0" id="164,158" /><path d="M 155.4 789.0 L 155.4 781.4 L 159.5 781.4" id="163,157" /><path d="M 155.4 789.0 L 155.4 796.5 L 160.6 796.5" id="163,156" /><path d="M 155.2 838.7 L 155.2 821.6 L 158.6 821.6" id="162,155" /><path d="M 155.2 838.7 L 155.2 855.9 L 163.8 855.9" id="162,154" /><path d="M 155.9 523.0 L 155.9 529.3 L 158.4 529.3" id="161,153" /><path d="M 146.1 574.5 L 146.1 567.0 L 159.5 567.0" id="159,152" /><path d="M 146.1 574.5 L 146.1 582.1 L 148.8 582.1" id="159,151" /><path d="M 160.6 796.5 L 160.6 801.5 L 166.0 801.5" id="156,150" /><path d="M 163.8 855.9 L 163.8 836.7 L 166.0 836.7" id="154,149" /><path d="M 163.8 855.9 L 163.8 875.0 L 168.6 875.0" id="154,148" /><path d="M 158.4 529.3 L 158.4 535.2 L 162.4 535.2" id="153,147" /><path d="M 148.8 582.1 L 148.8 587.1 L 151.2 587.1" id="151,146" /><path d="M 166.0 836.7 L 166.0 841.7 L 166.9 841.7" id="149,145" /><path d="M 168.6 875.0 L 168.6 858.1 L 169.6 858.1" id="148,144" /><path d="M 168.6 875.0 L 168.6 892.0 L 169.8 892.0" id="148,143" /><path d="M 162.4 535.2 L 162.4 540.2 L 165.2 540.2" id="147,142" /><path d="M 169.6 858.1 L 169.6 864.3 L 171.1 864.3" id="144,141" /><path d="M 169.8 892.0 L 169.8 898.6 L 170.1 898.6" id="143,140" /><path d="M 171.1 864.3 L 171.1 870.2 L 173.9 870.2" id="141,139" /><path d="M 170.1 898.6 L 170.1 905.3 L 170.5 905.3" id="140,138" /><path d="M 173.9 870.2 L 173.9 875.2 L 173.9 875.2" id="139,137" /><path d="M 170.5 905.3 L 170.5 911.9 L 170.6 911.9" id="138,136" /><path d="M 170.6 911.9 L 170.6 918.4 L 170.7 918.4" id="136,135" /><path d="M 170.7 918.4 L 170.7 924.6 L 170.9 924.6" id="135,134" /><path d="M 170.9 924.6 L 170.9 930.5 L 171.3 930.5" id="134,133" /><path d="M 171.3 930.5 L 171.3 935.5 L 173.3 935.5" id="133,132" /><path d="M 52.1 67.6 L 52.1 61.1 L 171.5 61.1" id="261,131" /><path d="M 53.6 74.1 L 53.6 67.8 L 177.4 67.8" id="259,130" /><path d="M 61.9 80.4 L 61.9 74.5 L 170.3 74.5" id="257,129" /><path d="M 75.0 86.2 L 75.0 81.2 L 155.3 81.2" id="254,128" /><path d="M 122.1 91.3 L 122.1 87.9 L 172.7 87.9" id="250,127" /><path d="M 122.1 91.3 L 122.1 94.6 L 173.5 94.6" id="250,126" /><path d="M 53.3 161.5 L 53.3 101.3 L 165.8 101.3" id="260,125" /><path d="M 71.9 113.0 L 71.9 108.0 L 167.6 108.0" id="253,124" /><path d="M 77.5 118.1 L 77.5 114.7 L 165.8 114.7" id="249,123" /><path d="M 77.5 118.1 L 77.5 121.4 L 159.7 121.4" id="249,122" /><path d="M 71.0 139.8 L 71.0 128.1 L 170.1 128.1" id="252,121" /><path d="M 71.8 151.6 L 71.8 134.8 L 167.2 134.8" id="248,120" /><path d="M 75.1 168.3 L 75.1 141.5 L 162.1 141.5" id="245,119" /><path d="M 80.9 153.2 L 80.9 148.2 L 165.4 148.2" id="234,118" /><path d="M 100.5 158.3 L 100.5 154.9 L 162.1 154.9" id="228,117" /><path d="M 100.5 158.3 L 100.5 161.6 L 164.2 161.6" id="228,116" /><path d="M 83.4 174.8 L 83.4 168.3 L 159.1 168.3" id="233,115" /><path d="M 108.0 181.3 L 108.0 175.0 L 161.0 175.0" id="227,114" /><path d="M 127.4 187.6 L 127.4 181.7 L 165.2 181.7" id="222,113" /><path d="M 128.9 193.5 L 128.9 188.4 L 165.3 188.4" id="215,112" /><path d="M 131.8 198.5 L 131.8 195.1 L 163.8 195.1" id="207,111" /><path d="M 131.8 198.5 L 131.8 201.8 L 163.9 201.8" id="207,110" /><path d="M 165.1 211.9 L 165.1 208.5 L 169.5 208.5" id="232,109" /><path d="M 165.1 211.9 L 165.1 215.2 L 169.5 215.2" id="232,108" /><path d="M 109.2 227.0 L 109.2 221.9 L 167.7 221.9" id="226,107" /><path d="M 116.2 232.0 L 116.2 228.6 L 166.3 228.6" id="221,106" /><path d="M 116.2 232.0 L 116.2 235.3 L 169.5 235.3" id="221,105" /><path d="M 100.9 254.2 L 100.9 242.0 L 165.2 242.0" id="225,104" /><path d="M 126.9 253.8 L 126.9 248.7 L 180.0 248.7" id="214,103" /><path d="M 151.0 258.8 L 151.0 255.4 L 165.3 255.4" id="206,102" /><path d="M 151.0 258.8 L 151.0 262.1 L 165.7 262.1" id="206,101" /><path d="M 151.0 272.2 L 151.0 268.8 L 167.1 268.8" id="205,100" /><path d="M 151.0 272.2 L 151.0 275.5 L 167.1 275.5" id="205,99" /><path d="M 158.0 285.6 L 158.0 282.2 L 166.7 282.2" id="204,98" /><path d="M 158.0 285.6 L 158.0 288.9 L 166.8 288.9" id="204,97" /><path d="M 72.3 317.0 L 72.3 295.6 L 163.2 295.6" id="255,96" /><path d="M 87.2 305.7 L 87.2 302.3 L 174.1 302.3" id="244,95" /><path d="M 87.2 305.7 L 87.2 309.0 L 183.9 309.0" id="244,94" /><path d="M 86.7 320.8 L 86.7 315.7 L 173.9 315.7" id="243,93" /><path d="M 91.2 325.8 L 91.2 322.4 L 163.0 322.4" id="239,92" /><path d="M 91.2 325.8 L 91.2 329.1 L 166.6 329.1" id="239,91" /><path d="M 117.1 339.2 L 117.1 335.8 L 175.3 335.8" id="242,90" /><path d="M 117.1 339.2 L 117.1 342.5 L 178.3 342.5" id="242,89" /><path d="M 82.9 387.4 L 82.9 349.2 L 179.0 349.2" id="241,88" /><path d="M 87.1 425.7 L 87.1 355.9 L 169.6 355.9" id="238,87" /><path d="M 109.1 379.5 L 109.1 362.6 L 161.3 362.6" id="230,86" /><path d="M 160.8 372.7 L 160.8 369.3 L 171.9 369.3" id="212,85" /><path d="M 160.8 372.7 L 160.8 376.0 L 167.3 376.0" id="212,84" /><path d="M 143.1 387.8 L 143.1 382.7 L 172.1 382.7" id="211,83" /><path d="M 147.5 392.8 L 147.5 389.4 L 168.3 389.4" id="203,82" /><path d="M 147.5 392.8 L 147.5 396.1 L 167.5 396.1" id="203,81" /><path d="M 129.2 412.6 L 129.2 402.8 L 174.5 402.8" id="218,80" /><path d="M 129.2 422.4 L 129.2 409.5 L 168.9 409.5" id="210,79" /><path d="M 144.1 421.3 L 144.1 416.2 L 166.8 416.2" id="199,78" /><path d="M 152.0 426.3 L 152.0 422.9 L 167.7 422.9" id="195,77" /><path d="M 152.0 426.3 L 152.0 429.6 L 168.3 429.6" id="195,76" /><path d="M 135.6 449.3 L 135.6 436.3 L 168.8 436.3" id="198,75" /><path d="M 147.3 446.4 L 147.3 443.0 L 167.6 443.0" id="189,74" /><path d="M 147.3 446.4 L 147.3 449.7 L 166.4 449.7" id="189,73" /><path d="M 148.5 462.3 L 148.5 456.4 L 168.1 456.4" id="184,72" /><path d="M 158.9 468.2 L 158.9 463.1 L 167.1 463.1" id="180,71" /><path d="M 162.3 473.2 L 162.3 469.8 L 166.6 469.8" id="175,70" /><path d="M 162.3 473.2 L 162.3 476.5 L 166.8 476.5" id="175,69" /><path d="M 138.9 494.2 L 138.9 483.2 L 168.4 483.2" id="183,68" /><path d="M 140.5 505.1 L 140.5 489.9 L 167.2 489.9" id="179,67" /><path d="M 144.3 500.0 L 144.3 496.6 L 168.5 496.6" id="171,66" /><path d="M 144.3 500.0 L 144.3 503.4 L 166.6 503.4" id="171,65" /><path d="M 151.7 516.5 L 151.7 510.1 L 166.0 510.1" id="166,64" /><path d="M 155.9 523.0 L 155.9 516.8 L 169.7 516.8" id="161,63" /><path d="M 158.4 529.3 L 158.4 523.5 L 168.5 523.5" id="153,62" /><path d="M 162.4 535.2 L 162.4 530.2 L 166.9 530.2" id="147,61" /><path d="M 165.2 540.2 L 165.2 536.9 L 166.2 536.9" id="142,60" /><path d="M 165.2 540.2 L 165.2 543.6 L 167.0 543.6" id="142,59" /><path d="M 147.0 553.6 L 147.0 550.3 L 168.5 550.3" id="160,58" /><path d="M 147.0 553.6 L 147.0 557.0 L 166.2 557.0" id="160,57" /><path d="M 159.5 567.0 L 159.5 563.7 L 165.3 563.7" id="152,56" /><path d="M 159.5 567.0 L 159.5 570.4 L 168.3 570.4" id="152,55" /><path d="M 148.8 582.1 L 148.8 577.1 L 168.1 577.1" id="151,54" /><path d="M 151.2 587.1 L 151.2 583.8 L 168.1 583.8" id="146,53" /><path d="M 151.2 587.1 L 151.2 590.5 L 166.4 590.5" id="146,52" /><path d="M 103.1 611.2 L 103.1 597.2 L 185.2 597.2" id="229,51" /><path d="M 118.8 608.9 L 118.8 603.9 L 173.5 603.9" id="217,50" /><path d="M 142.8 613.9 L 142.8 610.6 L 169.2 610.6" id="209,49" /><path d="M 142.8 613.9 L 142.8 617.3 L 177.7 617.3" id="209,48" /><path d="M 109.2 641.7 L 109.2 624.0 L 167.8 624.0" id="216,47" /><path d="M 152.7 634.0 L 152.7 630.7 L 169.8 630.7" id="201,46" /><path d="M 152.7 634.0 L 152.7 637.4 L 167.6 637.4" id="201,45" /><path d="M 135.8 647.4 L 135.8 644.1 L 175.1 644.1" id="193,44" /><path d="M 135.8 647.4 L 135.8 650.8 L 172.3 650.8" id="193,43" /><path d="M 135.3 665.0 L 135.3 657.5 L 167.4 657.5" id="192,42" /><path d="M 147.5 672.5 L 147.5 664.2 L 175.0 664.2" id="187,41" /><path d="M 157.1 674.2 L 157.1 670.9 L 172.0 670.9" id="178,40" /><path d="M 157.1 674.2 L 157.1 677.6 L 174.2 677.6" id="178,39" /><path d="M 155.7 687.6 L 155.7 684.3 L 169.7 684.3" id="177,38" /><path d="M 155.7 687.6 L 155.7 691.0 L 167.9 691.0" id="177,37" /><path d="M 145.3 701.0 L 145.3 697.7 L 170.0 697.7" id="191,36" /><path d="M 145.3 701.0 L 145.3 704.4 L 178.9 704.4" id="191,35" /><path d="M 158.2 714.4 L 158.2 711.1 L 173.3 711.1" id="186,34" /><path d="M 158.2 714.4 L 158.2 717.8 L 172.2 717.8" id="186,33" /><path d="M 146.7 738.0 L 146.7 724.5 L 174.6 724.5" id="185,32" /><path d="M 148.4 751.4 L 148.4 731.2 L 169.9 731.2" id="181,31" /><path d="M 158.5 742.9 L 158.5 737.9 L 170.7 737.9" id="173,30" /><path d="M 162.3 747.9 L 162.3 744.6 L 171.3 744.6" id="169,29" /><path d="M 162.3 747.9 L 162.3 751.3 L 173.8 751.3" id="169,28" /><path d="M 154.0 763.0 L 154.0 758.0 L 171.7 758.0" id="164,27" /><path d="M 155.2 768.0 L 155.2 764.7 L 172.9 764.7" id="158,26" /><path d="M 155.2 768.0 L 155.2 771.4 L 172.4 771.4" id="158,25" /><path d="M 159.5 781.4 L 159.5 778.1 L 180.4 778.1" id="157,24" /><path d="M 159.5 781.4 L 159.5 784.8 L 170.6 784.8" id="157,23" /><path d="M 160.6 796.5 L 160.6 791.5 L 172.7 791.5" id="156,22" /><path d="M 166.0 801.5 L 166.0 798.2 L 171.1 798.2" id="150,21" /><path d="M 166.0 801.5 L 166.0 804.9 L 172.6 804.9" id="150,20" /><path d="M 152.9 825.2 L 152.9 811.6 L 174.5 811.6" id="167,19" /><path d="M 158.6 821.6 L 158.6 818.3 L 172.3 818.3" id="155,18" /><path d="M 158.6 821.6 L 158.6 825.0 L 174.1 825.0" id="155,17" /><path d="M 166.0 836.7 L 166.0 831.7 L 172.3 831.7" id="149,16" /><path d="M 166.9 841.7 L 166.9 838.4 L 179.4 838.4" id="145,15" /><path d="M 166.9 841.7 L 166.9 845.1 L 171.9 845.1" id="145,14" /><path d="M 169.6 858.1 L 169.6 851.8 L 171.4 851.8" id="144,13" /><path d="M 171.1 864.3 L 171.1 858.5 L 171.9 858.5" id="141,12" /><path d="M 173.9 870.2 L 173.9 865.2 L 178.7 865.2" id="139,11" /><path d="M 173.9 875.2 L 173.9 871.9 L 173.9 871.9" id="137,10" /><path d="M 173.9 875.2 L 173.9 878.6 L 173.9 878.6" id="137,9" /><path d="M 169.8 892.0 L 169.8 885.3 L 171.8 885.3" id="143,8" /><path d="M 170.1 898.6 L 170.1 892.0 L 171.7 892.0" id="140,7" /><path d="M 170.5 905.3 L 170.5 898.7 L 171.6 898.7" id="138,6" /><path d="M 170.6 911.9 L 170.6 905.4 L 171.6 905.4" id="136,5" /><path d="M 170.7 918.4 L 170.7 912.1 L 171.6 912.1" id="135,4" /><path d="M 170.9 924.6 L 170.9 918.8 L 171.7 918.8" id="134,3" /><path d="M 171.3 930.5 L 171.3 925.5 L 172.1 925.5" id="133,2" /><path d="M 173.3 935.5 L 173.3 932.2 L 174.4 932.2" id="132,1" /><path d="M 173.3 935.5 L 173.3 938.9 L 173.3 938.9" id="132,0" /></g><g class="toytree-AlignEdges" style="stroke:rgb(66.3%,66.3%,66.3%);stroke-dasharray:2, 4;stroke-linecap:round;stroke-opacity:1.0;stroke-width:2"><path d="M 185.2 938.9 L 173.3 938.9" /><path d="M 185.2 932.2 L 174.4 932.2" /><path d="M 185.2 925.5 L 172.1 925.5" /><path d="M 185.2 918.8 L 171.7 918.8" /><path d="M 185.2 912.1 L 171.6 912.1" /><path d="M 185.2 905.4 L 171.6 905.4" /><path d="M 185.2 898.7 L 171.6 898.7" /><path d="M 185.2 892.0 L 171.7 892.0" /><path d="M 185.2 885.3 L 171.8 885.3" /><path d="M 185.2 878.6 L 173.9 878.6" /><path d="M 185.2 871.9 L 173.9 871.9" /><path d="M 185.2 865.2 L 178.7 865.2" /><path d="M 185.2 858.5 L 171.9 858.5" /><path d="M 185.2 851.8 L 171.4 851.8" /><path d="M 185.2 845.1 L 171.9 845.1" /><path d="M 185.2 838.4 L 179.4 838.4" /><path d="M 185.2 831.7 L 172.3 831.7" /><path d="M 185.2 825.0 L 174.1 825.0" /><path d="M 185.2 818.3 L 172.3 818.3" /><path d="M 185.2 811.6 L 174.5 811.6" /><path d="M 185.2 804.9 L 172.6 804.9" /><path d="M 185.2 798.2 L 171.1 798.2" /><path d="M 185.2 791.5 L 172.7 791.5" /><path d="M 185.2 784.8 L 170.6 784.8" /><path d="M 185.2 778.1 L 180.4 778.1" /><path d="M 185.2 771.4 L 172.4 771.4" /><path d="M 185.2 764.7 L 172.9 764.7" /><path d="M 185.2 758.0 L 171.7 758.0" /><path d="M 185.2 751.3 L 173.8 751.3" /><path d="M 185.2 744.6 L 171.3 744.6" /><path d="M 185.2 737.9 L 170.7 737.9" /><path d="M 185.2 731.2 L 169.9 731.2" /><path d="M 185.2 724.5 L 174.6 724.5" /><path d="M 185.2 717.8 L 172.2 717.8" /><path d="M 185.2 711.1 L 173.3 711.1" /><path d="M 185.2 704.4 L 178.9 704.4" /><path d="M 185.2 697.7 L 170.0 697.7" /><path d="M 185.2 691.0 L 167.9 691.0" /><path d="M 185.2 684.3 L 169.7 684.3" /><path d="M 185.2 677.6 L 174.2 677.6" /><path d="M 185.2 670.9 L 172.0 670.9" /><path d="M 185.2 664.2 L 175.0 664.2" /><path d="M 185.2 657.5 L 167.4 657.5" /><path d="M 185.2 650.8 L 172.3 650.8" /><path d="M 185.2 644.1 L 175.1 644.1" /><path d="M 185.2 637.4 L 167.6 637.4" /><path d="M 185.2 630.7 L 169.8 630.7" /><path d="M 185.2 624.0 L 167.8 624.0" /><path d="M 185.2 617.3 L 177.7 617.3" /><path d="M 185.2 610.6 L 169.2 610.6" /><path d="M 185.2 603.9 L 173.5 603.9" /><path d="M 185.2 597.2 L 185.2 597.2" /><path d="M 185.2 590.5 L 166.4 590.5" /><path d="M 185.2 583.8 L 168.1 583.8" /><path d="M 185.2 577.1 L 168.1 577.1" /><path d="M 185.2 570.4 L 168.3 570.4" /><path d="M 185.2 563.7 L 165.3 563.7" /><path d="M 185.2 557.0 L 166.2 557.0" /><path d="M 185.2 550.3 L 168.5 550.3" /><path d="M 185.2 543.6 L 167.0 543.6" /><path d="M 185.2 536.9 L 166.2 536.9" /><path d="M 185.2 530.2 L 166.9 530.2" /><path d="M 185.2 523.5 L 168.5 523.5" /><path d="M 185.2 516.8 L 169.7 516.8" /><path d="M 185.2 510.1 L 166.0 510.1" /><path d="M 185.2 503.4 L 166.6 503.4" /><path d="M 185.2 496.6 L 168.5 496.6" /><path d="M 185.2 489.9 L 167.2 489.9" /><path d="M 185.2 483.2 L 168.4 483.2" /><path d="M 185.2 476.5 L 166.8 476.5" /><path d="M 185.2 469.8 L 166.6 469.8" /><path d="M 185.2 463.1 L 167.1 463.1" /><path d="M 185.2 456.4 L 168.1 456.4" /><path d="M 185.2 449.7 L 166.4 449.7" /><path d="M 185.2 443.0 L 167.6 443.0" /><path d="M 185.2 436.3 L 168.8 436.3" /><path d="M 185.2 429.6 L 168.3 429.6" /><path d="M 185.2 422.9 L 167.7 422.9" /><path d="M 185.2 416.2 L 166.8 416.2" /><path d="M 185.2 409.5 L 168.9 409.5" /><path d="M 185.2 402.8 L 174.5 402.8" /><path d="M 185.2 396.1 L 167.5 396.1" /><path d="M 185.2 389.4 L 168.3 389.4" /><path d="M 185.2 382.7 L 172.1 382.7" /><path d="M 185.2 376.0 L 167.3 376.0" /><path d="M 185.2 369.3 L 171.9 369.3" /><path d="M 185.2 362.6 L 161.3 362.6" /><path d="M 185.2 355.9 L 169.6 355.9" /><path d="M 185.2 349.2 L 179.0 349.2" /><path d="M 185.2 342.5 L 178.3 342.5" /><path d="M 185.2 335.8 L 175.3 335.8" /><path d="M 185.2 329.1 L 166.6 329.1" /><path d="M 185.2 322.4 L 163.0 322.4" /><path d="M 185.2 315.7 L 173.9 315.7" /><path d="M 185.2 309.0 L 183.9 309.0" /><path d="M 185.2 302.3 L 174.1 302.3" /><path d="M 185.2 295.6 L 163.2 295.6" /><path d="M 185.2 288.9 L 166.8 288.9" /><path d="M 185.2 282.2 L 166.7 282.2" /><path d="M 185.2 275.5 L 167.1 275.5" /><path d="M 185.2 268.8 L 167.1 268.8" /><path d="M 185.2 262.1 L 165.7 262.1" /><path d="M 185.2 255.4 L 165.3 255.4" /><path d="M 185.2 248.7 L 180.0 248.7" /><path d="M 185.2 242.0 L 165.2 242.0" /><path d="M 185.2 235.3 L 169.5 235.3" /><path d="M 185.2 228.6 L 166.3 228.6" /><path d="M 185.2 221.9 L 167.7 221.9" /><path d="M 185.2 215.2 L 169.5 215.2" /><path d="M 185.2 208.5 L 169.5 208.5" /><path d="M 185.2 201.8 L 163.9 201.8" /><path d="M 185.2 195.1 L 163.8 195.1" /><path d="M 185.2 188.4 L 165.3 188.4" /><path d="M 185.2 181.7 L 165.2 181.7" /><path d="M 185.2 175.0 L 161.0 175.0" /><path d="M 185.2 168.3 L 159.1 168.3" /><path d="M 185.2 161.6 L 164.2 161.6" /><path d="M 185.2 154.9 L 162.1 154.9" /><path d="M 185.2 148.2 L 165.4 148.2" /><path d="M 185.2 141.5 L 162.1 141.5" /><path d="M 185.2 134.8 L 167.2 134.8" /><path d="M 185.2 128.1 L 170.1 128.1" /><path d="M 185.2 121.4 L 159.7 121.4" /><path d="M 185.2 114.7 L 165.8 114.7" /><path d="M 185.2 108.0 L 167.6 108.0" /><path d="M 185.2 101.3 L 165.8 101.3" /><path d="M 185.2 94.6 L 173.5 94.6" /><path d="M 185.2 87.9 L 172.7 87.9" /><path d="M 185.2 81.2 L 155.3 81.2" /><path d="M 185.2 74.5 L 170.3 74.5" /><path d="M 185.2 67.8 L 177.4 67.8" /><path d="M 185.2 61.1 L 171.5 61.1" /></g><g class="toytree-TipLabels" style="fill:rgb(14.9%,14.9%,14.9%);fill-opacity:1.0;font-family:helvetica;font-size:9px;font-weight:normal;stroke:none;white-space:pre"><g transform="translate(185.17,938.88)rotate(0)"><text x="15.00" y="2.30" style="">A0A2K6K3P5 Rhinopithecus bieti (Black snub-nosed monkey) (Pygathrix bieti)</text></g><g transform="translate(185.17,932.18)rotate(0)"><text x="15.00" y="2.30" style="">A0A2K6RQB6 Rhinopithecus roxellana (Golden snub-nosed monkey) (Pygathrix roxellana)</text></g><g transform="translate(185.17,925.48)rotate(0)"><text x="15.00" y="2.30" style="">A0A2K5HW98 Colobus angolensis palliatus (Peters' Angolan colobus)</text></g><g transform="translate(185.17,918.78)rotate(0)"><text x="15.00" y="2.30" style="">A0A2K5MLK0 Cercocebus atys (Sooty mangabey) (Cercocebus torquatus atys)</text></g><g transform="translate(185.17,912.08)rotate(0)"><text x="15.00" y="2.30" style="">A0A2K5W9E4 Macaca fascicularis (Crab-eating macaque) (Cynomolgus monkey)</text></g><g transform="translate(185.17,905.38)rotate(0)"><text x="15.00" y="2.30" style="">A0A096MT32 Papio anubis (Olive baboon)</text></g><g transform="translate(185.17,898.68)rotate(0)"><text x="15.00" y="2.30" style="">A0A2K6BS58 Macaca nemestrina (Pig-tailed macaque)</text></g><g transform="translate(185.17,891.98)rotate(0)"><text x="15.00" y="2.30" style="">A0A2K5YMT9 Mandrillus leucophaeus (Drill) (Papio leucophaeus)</text></g><g transform="translate(185.17,885.28)rotate(0)"><text x="15.00" y="2.30" style="">A0A0D9S0Q9 Chlorocebus sabaeus (Green monkey) (Cercopithecus sabaeus)</text></g><g transform="translate(185.17,878.58)rotate(0)"><text x="15.00" y="2.30" style="">A0A2R9AC53 Pan paniscus (Pygmy chimpanzee) (Bonobo)</text></g><g transform="translate(185.17,871.88)rotate(0)"><text x="15.00" y="2.30" style="">A0A6D2Y0G2 Pan troglodytes (Chimpanzee)</text></g><g transform="translate(185.17,865.18)rotate(0)"><text x="15.00" y="2.30" style="">G3S106 Gorilla gorilla gorilla (Western lowland gorilla)</text></g><g transform="translate(185.17,858.48)rotate(0)"><text x="15.00" y="2.30" style="">A0A6D2W4N1 Pongo abelii (Sumatran orangutan) (Pongo pygmaeus abelii)</text></g><g transform="translate(185.17,851.78)rotate(0)"><text x="15.00" y="2.30" style="">G1RTU0 Nomascus leucogenys (Northern white-cheeked gibbon) (Hylobates leucogenys)</text></g><g transform="translate(185.17,845.07)rotate(0)"><text x="15.00" y="2.30" style="">A0A2K5EC51 Aotus nancymaae (Ma's night monkey)</text></g><g transform="translate(185.17,838.37)rotate(0)"><text x="15.00" y="2.30" style="">F7GW78 Callithrix jacchus (White-tufted-ear marmoset)</text></g><g transform="translate(185.17,831.67)rotate(0)"><text x="15.00" y="2.30" style="">A0A2K6V7S2 Saimiri boliviensis boliviensis (Bolivian squirrel monkey)</text></g><g transform="translate(185.17,824.97)rotate(0)"><text x="15.00" y="2.30" style="">H0WSS6 Otolemur garnettii (Small-eared galago) (Garnett's greater bushbaby)</text></g><g transform="translate(185.17,818.27)rotate(0)"><text x="15.00" y="2.30" style="">A0A2K6EX61 Propithecus coquereli (Coquerel's sifaka) (Propithecus verreauxi coquereli)</text></g><g transform="translate(185.17,811.57)rotate(0)"><text x="15.00" y="2.30" style="">G1SN07 Oryctolagus cuniculus (Rabbit)</text></g><g transform="translate(185.17,804.87)rotate(0)"><text x="15.00" y="2.30" style="">A0A452QVE4 Ursus americanus (American black bear) (Euarctos americanus)</text></g><g transform="translate(185.17,798.17)rotate(0)"><text x="15.00" y="2.30" style="">A0A384CTX8 Ursus maritimus (Polar bear) (Thalarctos maritimus)</text></g><g transform="translate(185.17,791.47)rotate(0)"><text x="15.00" y="2.30" style="">M3Z0Z9 Mustela putorius furo (European domestic ferret) (Mustela furo)</text></g><g transform="translate(185.17,784.77)rotate(0)"><text x="15.00" y="2.30" style="">A0A337SPE5 Felis catus (Cat) (Felis silvestris catus)</text></g><g transform="translate(185.17,778.07)rotate(0)"><text x="15.00" y="2.30" style="">A0A673T3L4 Suricata suricatta (Meerkat)</text></g><g transform="translate(185.17,771.37)rotate(0)"><text x="15.00" y="2.30" style="">G1P4M4 Myotis lucifugus (Little brown bat)</text></g><g transform="translate(185.17,764.67)rotate(0)"><text x="15.00" y="2.30" style="">A0A671ETV1 Rhinolophus ferrumequinum (Greater horseshoe bat)</text></g><g transform="translate(185.17,757.97)rotate(0)"><text x="15.00" y="2.30" style="">A0A3Q2L9B7 Equus caballus (Horse)</text></g><g transform="translate(185.17,751.27)rotate(0)"><text x="15.00" y="2.30" style="">W5Q2A1 Ovis aries (Sheep)</text></g><g transform="translate(185.17,744.57)rotate(0)"><text x="15.00" y="2.30" style="">A0A452FSQ0 Capra hircus (Goat)</text></g><g transform="translate(185.17,737.87)rotate(0)"><text x="15.00" y="2.30" style="">A0A4W2DSH0 Bos indicus x Bos taurus (Hybrid cattle)</text></g><g transform="translate(185.17,731.17)rotate(0)"><text x="15.00" y="2.30" style="">G3SLN8 Loxodonta africana (African elephant)</text></g><g transform="translate(185.17,724.47)rotate(0)"><text x="15.00" y="2.30" style="">A0A286XIR9 Cavia porcellus (Guinea pig)</text></g><g transform="translate(185.17,717.77)rotate(0)"><text x="15.00" y="2.30" style="">G3HMK5 Cricetulus griseus (Chinese hamster) (Cricetulus barabensis griseus)</text></g><g transform="translate(185.17,711.07)rotate(0)"><text x="15.00" y="2.30" style="">B2GUY1 Rattus norvegicus (Rat)</text></g><g transform="translate(185.17,704.36)rotate(0)"><text x="15.00" y="2.30" style="">F6YGH3 Monodelphis domestica (Gray short-tailed opossum)</text></g><g transform="translate(185.17,697.66)rotate(0)"><text x="15.00" y="2.30" style="">A0A4X2KG58 Vombatus ursinus (Common wombat)</text></g><g transform="translate(185.17,690.96)rotate(0)"><text x="15.00" y="2.30" style="">A0A669QJC9 Phasianus colchicus (Common pheasant)</text></g><g transform="translate(185.17,684.26)rotate(0)"><text x="15.00" y="2.30" style="">U3IPH8 Anas platyrhynchos platyrhynchos (Northern mallard)</text></g><g transform="translate(185.17,677.56)rotate(0)"><text x="15.00" y="2.30" style="">A0A674GLV4 Taeniopygia guttata (Zebra finch) (Poephila guttata)</text></g><g transform="translate(185.17,670.86)rotate(0)"><text x="15.00" y="2.30" style="">A0A672UDR6 Strigops habroptila (Kakapo)</text></g><g transform="translate(185.17,664.16)rotate(0)"><text x="15.00" y="2.30" style="">A0A663MBW3 Athene cunicularia (Burrowing owl) (Speotyto cunicularia)</text></g><g transform="translate(185.17,657.46)rotate(0)"><text x="15.00" y="2.30" style="">K7FLW5 Pelodiscus sinensis (Chinese softshell turtle) (Trionyx sinensis)</text></g><g transform="translate(185.17,650.76)rotate(0)"><text x="15.00" y="2.30" style="">A0A670IK22 Podarcis muralis (Wall lizard) (Lacerta muralis)</text></g><g transform="translate(185.17,644.06)rotate(0)"><text x="15.00" y="2.30" style="">A0A670YQT0 Pseudonaja textilis (Eastern brown snake)</text></g><g transform="translate(185.17,637.36)rotate(0)"><text x="15.00" y="2.30" style="">A0A1L8HUQ2 Xenopus laevis (African clawed frog)</text></g><g transform="translate(185.17,630.66)rotate(0)"><text x="15.00" y="2.30" style="">A0A1L8HLY0 Xenopus laevis (African clawed frog)</text></g><g transform="translate(185.17,623.96)rotate(0)"><text x="15.00" y="2.30" style="">H3B8Z3 Latimeria chalumnae (Coelacanth)</text></g><g transform="translate(185.17,617.26)rotate(0)"><text x="15.00" y="2.30" style="">A0A401SRM0 Chiloscyllium punctatum (Brownbanded bambooshark) (Hemiscyllium punctatum)</text></g><g transform="translate(185.17,610.56)rotate(0)"><text x="15.00" y="2.30" style="">A0A401PDG0 Scyliorhinus torazame (Cloudy catshark)</text></g><g transform="translate(185.17,603.86)rotate(0)"><text x="15.00" y="2.30" style="">A0A4W3K6Z2 Callorhinchus milii (Ghost shark)</text></g><g transform="translate(185.17,597.16)rotate(0)"><text x="15.00" y="2.30" style="">F7FQQ3 Ornithorhynchus anatinus (Duckbill platypus)</text></g><g transform="translate(185.17,590.46)rotate(0)"><text x="15.00" y="2.30" style="">A0A3B4T6P8 Seriola dumerili (Greater amberjack) (Caranx dumerili)</text></g><g transform="translate(185.17,583.76)rotate(0)"><text x="15.00" y="2.30" style="">A0A2U9CJ53 Scophthalmus maximus (Turbot) (Psetta maxima)</text></g><g transform="translate(185.17,577.06)rotate(0)"><text x="15.00" y="2.30" style="">A0A665WPW8 Echeneis naucrates (Live sharksucker)</text></g><g transform="translate(185.17,570.36)rotate(0)"><text x="15.00" y="2.30" style="">A0A3P8U8L8 Amphiprion percula (Orange clownfish) (Lutjanus percula)</text></g><g transform="translate(185.17,563.65)rotate(0)"><text x="15.00" y="2.30" style="">A0A3Q1APX1 Amphiprion ocellaris (Clown anemonefish)</text></g><g transform="translate(185.17,556.95)rotate(0)"><text x="15.00" y="2.30" style="">A0A671WA74 Sparus aurata (Gilthead sea bream)</text></g><g transform="translate(185.17,550.25)rotate(0)"><text x="15.00" y="2.30" style="">G3NZT1 Gasterosteus aculeatus (Three-spined stickleback)</text></g><g transform="translate(185.17,543.55)rotate(0)"><text x="15.00" y="2.30" style="">A0A3P8QSP7 Astatotilapia calliptera (Eastern happy) (Chromis callipterus)</text></g><g transform="translate(185.17,536.85)rotate(0)"><text x="15.00" y="2.30" style="">A0A3Q2W3P0 Haplochromis burtoni (Burton's mouthbrooder) (Chromis burtoni)</text></g><g transform="translate(185.17,530.15)rotate(0)"><text x="15.00" y="2.30" style="">A0A669F9S4 Oreochromis niloticus (Nile tilapia) (Tilapia nilotica)</text></g><g transform="translate(185.17,523.45)rotate(0)"><text x="15.00" y="2.30" style="">A0A3Q4GSW4 Neolamprologus brichardi (Fairy cichlid) (Lamprologus brichardi)</text></g><g transform="translate(185.17,516.75)rotate(0)"><text x="15.00" y="2.30" style="">A0A668W665 Oreochromis aureus (Israeli tilapia) (Chromis aureus)</text></g><g transform="translate(185.17,510.05)rotate(0)"><text x="15.00" y="2.30" style="">A0A3Q0T2Z1 Amphilophus citrinellus (Midas cichlid) (Cichlasoma citrinellum)</text></g><g transform="translate(185.17,503.35)rotate(0)"><text x="15.00" y="2.30" style="">A0A3Q2ZTT6 Kryptolebias marmoratus (Mangrove killifish) (Rivulus marmoratus)</text></g><g transform="translate(185.17,496.65)rotate(0)"><text x="15.00" y="2.30" style="">A0A1A8U1R0 Nothobranchius furzeri (Turquoise killifish)</text></g><g transform="translate(185.17,489.95)rotate(0)"><text x="15.00" y="2.30" style="">A0A3Q3X8B1 Mola mola (Ocean sunfish) (Tetraodon mola)</text></g><g transform="translate(185.17,483.25)rotate(0)"><text x="15.00" y="2.30" style="">A0A3B3BIE0 Oryzias melastigma (Marine medaka)</text></g><g transform="translate(185.17,476.55)rotate(0)"><text x="15.00" y="2.30" style="">A0A087X4E6 Poecilia formosa (Amazon molly) (Limia formosa)</text></g><g transform="translate(185.17,469.85)rotate(0)"><text x="15.00" y="2.30" style="">A0A3B5Q007 Xiphophorus maculatus (Southern platyfish) (Platypoecilus maculatus)</text></g><g transform="translate(185.17,463.15)rotate(0)"><text x="15.00" y="2.30" style="">A0A3P9PIM8 Poecilia reticulata (Guppy) (Acanthophacelus reticulatus)</text></g><g transform="translate(185.17,456.45)rotate(0)"><text x="15.00" y="2.30" style="">A0A3Q2GCF1 Cyprinodon variegatus (Sheepshead minnow)</text></g><g transform="translate(185.17,449.75)rotate(0)"><text x="15.00" y="2.30" style="">H2T1P6 Takifugu rubripes (Japanese pufferfish) (Fugu rubripes)</text></g><g transform="translate(185.17,443.05)rotate(0)"><text x="15.00" y="2.30" style="">H3DJ05 Tetraodon nigroviridis (Spotted green pufferfish) (Chelonodon nigroviridis)</text></g><g transform="translate(185.17,436.35)rotate(0)"><text x="15.00" y="2.30" style="">A0A672IKJ4 Salarias fasciatus (Jewelled blenny) (Blennius fasciatus)</text></g><g transform="translate(185.17,429.64)rotate(0)"><text x="15.00" y="2.30" style="">A0A673W8I3 Salmo trutta (Brown trout)</text></g><g transform="translate(185.17,422.94)rotate(0)"><text x="15.00" y="2.30" style="">A0A673Y9Q5 Salmo trutta (Brown trout)</text></g><g transform="translate(185.17,416.24)rotate(0)"><text x="15.00" y="2.30" style="">A0A3P8ZU05 Esox lucius (Northern pike)</text></g><g transform="translate(185.17,409.54)rotate(0)"><text x="15.00" y="2.30" style="">A0A3P8UMM3 Cynoglossus semilaevis (Tongue sole)</text></g><g transform="translate(185.17,402.84)rotate(0)"><text x="15.00" y="2.30" style="">A0A3Q2YSF5 Hippocampus comes (Tiger tail seahorse)</text></g><g transform="translate(185.17,396.14)rotate(0)"><text x="15.00" y="2.30" style="">A0A3B4CMZ1 Pygocentrus nattereri (Red-bellied piranha)</text></g><g transform="translate(185.17,389.44)rotate(0)"><text x="15.00" y="2.30" style="">A0A2D0RL52 Ictalurus punctatus (Channel catfish) (Silurus punctatus)</text></g><g transform="translate(185.17,382.74)rotate(0)"><text x="15.00" y="2.30" style="">A0A4W4ENP5 Electrophorus electricus (Electric eel) (Gymnotus electricus)</text></g><g transform="translate(185.17,376.04)rotate(0)"><text x="15.00" y="2.30" style="">A0A672N1H1 Sinocyclocheilus grahami (Dianchi golden-line fish) (Barbus grahami)</text></g><g transform="translate(185.17,369.34)rotate(0)"><text x="15.00" y="2.30" style="">A0A672QN77 Sinocyclocheilus grahami (Dianchi golden-line fish) (Barbus grahami)</text></g><g transform="translate(185.17,362.64)rotate(0)"><text x="15.00" y="2.30" style="">W5MXN7 Lepisosteus oculatus (Spotted gar)</text></g><g transform="translate(185.17,355.94)rotate(0)"><text x="15.00" y="2.30" style="">S4RZR2 Petromyzon marinus (Sea lamprey)</text></g><g transform="translate(185.17,349.24)rotate(0)"><text x="15.00" y="2.30" style="">A0A7M7SWA0 Strongylocentrotus purpuratus (Purple sea urchin)</text></g><g transform="translate(185.17,342.54)rotate(0)"><text x="15.00" y="2.30" style="">H2Z6T2 Ciona savignyi (Pacific transparent sea squirt)</text></g><g transform="translate(185.17,335.84)rotate(0)"><text x="15.00" y="2.30" style="">F6XLX0 Ciona intestinalis (Transparent sea squirt) (Ascidia intestinalis)</text></g><g transform="translate(185.17,329.14)rotate(0)"><text x="15.00" y="2.30" style="">K1Q9H9 Crassostrea gigas (Pacific oyster) (Crassostrea angulata)</text></g><g transform="translate(185.17,322.44)rotate(0)"><text x="15.00" y="2.30" style="">V4CIY5 Lottia gigantea (Giant owl limpet)</text></g><g transform="translate(185.17,315.74)rotate(0)"><text x="15.00" y="2.30" style="">A0A0L8FXB5 Octopus bimaculoides (California two-spotted octopus)</text></g><g transform="translate(185.17,309.04)rotate(0)"><text x="15.00" y="2.30" style="">A0A1S3K7W6 Lingula unguis</text></g><g transform="translate(185.17,302.34)rotate(0)"><text x="15.00" y="2.30" style="">R7V1R1 Capitella teleta (Polychaete worm)</text></g><g transform="translate(185.17,295.64)rotate(0)"><text x="15.00" y="2.30" style="">T2MJ85 Hydra vulgaris (Hydra) (Hydra attenuata)</text></g><g transform="translate(185.17,288.93)rotate(0)"><text x="15.00" y="2.30" style="">A0A3B0K3U3 Drosophila guanche (Fruit fly)</text></g><g transform="translate(185.17,282.23)rotate(0)"><text x="15.00" y="2.30" style="">A0A6P5VDY2 Drosophila obscura (Fruit fly)</text></g><g transform="translate(185.17,275.53)rotate(0)"><text x="15.00" y="2.30" style="">A0A1W4URK8 Drosophila ficusphila (Fruit fly)</text></g><g transform="translate(185.17,268.83)rotate(0)"><text x="15.00" y="2.30" style="">A0A6P4ENU3 Drosophila rhopaloa (Fruit fly)</text></g><g transform="translate(185.17,262.13)rotate(0)"><text x="15.00" y="2.30" style="">A0A6J1MF36 Drosophila hydei (Fruit fly)</text></g><g transform="translate(185.17,255.43)rotate(0)"><text x="15.00" y="2.30" style="">A0A484B2R6 Drosophila navojoa (Fruit fly)</text></g><g transform="translate(185.17,248.73)rotate(0)"><text x="15.00" y="2.30" style="">A0A0M4EJG8 Drosophila busckii (Fruit fly)</text></g><g transform="translate(185.17,242.03)rotate(0)"><text x="15.00" y="2.30" style="">A0A0L0C8P3 Lucilia cuprina (Green bottle fly) (Australian sheep blowfly)</text></g><g transform="translate(185.17,235.33)rotate(0)"><text x="15.00" y="2.30" style="">A0A182YPS4 Anopheles stephensi (Indo-Pakistan malaria mosquito)</text></g><g transform="translate(185.17,228.63)rotate(0)"><text x="15.00" y="2.30" style="">Q7PTZ9 Anopheles gambiae (African malaria mosquito)</text></g><g transform="translate(185.17,221.93)rotate(0)"><text x="15.00" y="2.30" style="">A0A084W5Q6 Anopheles sinensis (Mosquito)</text></g><g transform="translate(185.17,215.23)rotate(0)"><text x="15.00" y="2.30" style="">A0A336MRV4 Culicoides sonorensis (Biting midge)</text></g><g transform="translate(185.17,208.53)rotate(0)"><text x="15.00" y="2.30" style="">A0A336KJJ4 Culicoides sonorensis (Biting midge)</text></g><g transform="translate(185.17,201.83)rotate(0)"><text x="15.00" y="2.30" style="">E2AAW4 Camponotus floridanus (Florida carpenter ant)</text></g><g transform="translate(185.17,195.13)rotate(0)"><text x="15.00" y="2.30" style="">A0A026W1Q5 Ooceraea biroi (Clonal raider ant) (Cerapachys biroi)</text></g><g transform="translate(185.17,188.43)rotate(0)"><text x="15.00" y="2.30" style="">E2C0A9 Harpegnathos saltator (Jerdon's jumping ant)</text></g><g transform="translate(185.17,181.73)rotate(0)"><text x="15.00" y="2.30" style="">A0A158NZQ1 Atta cephalotes (Leafcutter ant)</text></g><g transform="translate(185.17,175.03)rotate(0)"><text x="15.00" y="2.30" style="">A0A7M6UFA0 Nasonia vitripennis (Parasitic wasp)</text></g><g transform="translate(185.17,168.33)rotate(0)"><text x="15.00" y="2.30" style="">T1IB56 Rhodnius prolixus (Triatomid bug)</text></g><g transform="translate(185.17,161.63)rotate(0)"><text x="15.00" y="2.30" style="">D6W9Q2 Tribolium castaneum (Red flour beetle)</text></g><g transform="translate(185.17,154.93)rotate(0)"><text x="15.00" y="2.30" style="">N6TZK4 Dendroctonus ponderosae (Mountain pine beetle)</text></g><g transform="translate(185.17,148.22)rotate(0)"><text x="15.00" y="2.30" style="">A0A194QRE4 Papilio machaon (Old World swallowtail butterfly)</text></g><g transform="translate(185.17,141.52)rotate(0)"><text x="15.00" y="2.30" style="">E9HCB2 Daphnia pulex (Water flea)</text></g><g transform="translate(185.17,134.82)rotate(0)"><text x="15.00" y="2.30" style="">A0A087VY93 Echinococcus multilocularis (Fox tapeworm)</text></g><g transform="translate(185.17,128.12)rotate(0)"><text x="15.00" y="2.30" style="">T1JCE3 Strigamia maritima (European centipede) (Geophilus maritimus)</text></g><g transform="translate(185.17,121.42)rotate(0)"><text x="15.00" y="2.30" style="">A0A226E5Q0 Folsomia candida (Springtail)</text></g><g transform="translate(185.17,114.72)rotate(0)"><text x="15.00" y="2.30" style="">A0A1D2NAP3 Orchesella cincta (Springtail) (Podura cincta)</text></g><g transform="translate(185.17,108.02)rotate(0)"><text x="15.00" y="2.30" style="">E0VCI7 Pediculus humanus subsp. corporis (Body louse)</text></g><g transform="translate(185.17,101.32)rotate(0)"><text x="15.00" y="2.30" style="">A0A1W0WLW6 Hypsibius dujardini (Water bear) (Macrobiotus dujardini)</text></g><g transform="translate(185.17,94.62)rotate(0)"><text x="15.00" y="2.30" style="">W2SUZ2 Necator americanus (Human hookworm)</text></g><g transform="translate(185.17,87.92)rotate(0)"><text x="15.00" y="2.30" style="">A0A7I4Y1E4 Haemonchus contortus (Barber pole worm)</text></g><g transform="translate(185.17,81.22)rotate(0)"><text x="15.00" y="2.30" style="">E3M4S5 Caenorhabditis remanei (Caenorhabditis vulgaris)</text></g><g transform="translate(185.17,74.52)rotate(0)"><text x="15.00" y="2.30" style="">A0A090LE65 Strongyloides ratti (Parasitic roundworm)</text></g><g transform="translate(185.17,67.82)rotate(0)"><text x="15.00" y="2.30" style="">A0CSI4 Paramecium tetraurelia</text></g><g transform="translate(185.17,61.12)rotate(0)"><text x="15.00" y="2.30" style="">A0A1S3IEW1 Lingula unguis</text></g></g></g></g><g class="toyplot-coordinates-Axis" id="t6e72a84592b340fb9d96fa45fb9e2a5e" transform="translate(50.0,950.0)translate(0,20.0)"><line x1="0.6724735762907963" y1="0" x2="135.16718883445435" y2="0" style="" /><g><line x1="135.16718883445435" y1="0" x2="135.16718883445435" y2="-5" style="" /><line x1="101.54351001991348" y1="0" x2="101.54351001991348" y2="-5" style="" /><line x1="67.91983120537259" y1="0" x2="67.91983120537259" y2="-5" style="" /><line x1="34.29615239083169" y1="0" x2="34.29615239083169" y2="-5" style="" /><line x1="0.6724735762908125" y1="0" x2="0.6724735762908125" y2="-5" style="" /></g><g><g transform="translate(135.16718883445435,6)"><text x="-6.95" y="8.555" style="fill:rgb(16.1%,15.3%,14.1%);fill-opacity:1.0;font-family:helvetica;font-size:10.0px;font-weight:normal;stroke:none;vertical-align:baseline;white-space:pre">0.0</text></g><g transform="translate(101.54351001991348,6)"><text x="-6.95" y="8.555" style="fill:rgb(16.1%,15.3%,14.1%);fill-opacity:1.0;font-family:helvetica;font-size:10.0px;font-weight:normal;stroke:none;vertical-align:baseline;white-space:pre">0.1</text></g><g transform="translate(67.91983120537259,6)"><text x="-6.95" y="8.555" style="fill:rgb(16.1%,15.3%,14.1%);fill-opacity:1.0;font-family:helvetica;font-size:10.0px;font-weight:normal;stroke:none;vertical-align:baseline;white-space:pre">0.2</text></g><g transform="translate(34.29615239083169,6)"><text x="-6.95" y="8.555" style="fill:rgb(16.1%,15.3%,14.1%);fill-opacity:1.0;font-family:helvetica;font-size:10.0px;font-weight:normal;stroke:none;vertical-align:baseline;white-space:pre">0.3</text></g><g transform="translate(0.6724735762908125,6)"><text x="-6.95" y="8.555" style="fill:rgb(16.1%,15.3%,14.1%);fill-opacity:1.0;font-family:helvetica;font-size:10.0px;font-weight:normal;stroke:none;vertical-align:baseline;white-space:pre">0.5</text></g></g><g class="toyplot-coordinates-Axis-coordinates" style="visibility:hidden" transform=""><line x1="0" x2="0" y1="-3.0" y2="4.5" style="stroke:rgb(43.9%,50.2%,56.5%);stroke-opacity:1.0;stroke-width:1.0" /><text x="0" y="-6" style="alignment-baseline:alphabetic;fill:rgb(43.9%,50.2%,56.5%);fill-opacity:1.0;font-size:10px;font-weight:normal;stroke:none;text-anchor:middle" /></g></g></g></svg>