<svg class="toyplot-canvas-Canvas" xmlns:toyplot="http://www.sandia.gov/toyplot" xmlns:xlink="http://www.w3.org/1999/xlink" xmlns="http://www.w3.org/2000/svg" width="560.0px" height="100.0px" viewBox="0 0 560.0 100.0" preserveAspectRatio="xMidYMid meet" style="background-color:transparent;border-color:#292724;border-style:none;border-width:1.0;fill:rgb(16.1%,15.3%,14.1%);fill-opacity:1.0;font-family:Helvetica;font-size:12px;opacity:1.0;stroke:rgb(16.1%,15.3%,14.1%);stroke-opacity:1.0;stroke-width:1.0" id="te3b7ddd2ca124f8b889d54a29898c559"><g class="toyplot-coordinates-Cartesian" id="t4de86fde358744d8a01ad1e37d66424c"><clipPath id="tcb7d3fa1e43747a7ba99c8d0ec6b338e"><rect x="15.0" y="15.0" width="110.0" height="70.0" /></clipPath><g clip-path="url(#tcb7d3fa1e43747a7ba99c8d0ec6b338e)"><g class="toytree-mark-Toytree" id="tde8677e78bb141fea4607f3fac291f4c"><g class="toytree-Edges" style="fill:none;stroke:rgb(14.9%,14.9%,14.9%);stroke-linecap:round;stroke-opacity:1;stroke-width:0.5"><path d="M 25.0 33.9 L 25.0 29.7 L 40.6 29.7" id="108,107" /><path d="M 25.0 33.9 L 25.0 38.0 L 28.4 38.0" id="108,106" /><path d="M 40.6 29.7 L 40.6 30.3 L 92.1 30.3" id="107,105" /><path d="M 28.4 38.0 L 28.4 44.6 L 29.4 44.6" id="106,104" /><path d="M 29.4 44.6 L 29.4 34.6 L 30.8 34.6" id="104,103" /><path d="M 29.4 44.6 L 29.4 54.5 L 30.0 54.5" id="104,102" /><path d="M 30.8 34.6 L 30.8 32.8 L 31.3 32.8" id="103,101" /><path d="M 30.8 34.6 L 30.8 36.5 L 31.8 36.5" id="103,100" /><path d="M 30.0 54.5 L 30.0 58.2 L 37.3 58.2" id="102,99" /><path d="M 31.3 32.8 L 31.3 33.4 L 45.9 33.4" id="101,98" /><path d="M 31.8 36.5 L 31.8 38.3 L 38.2 38.3" id="100,97" /><path d="M 37.3 58.2 L 37.3 54.9 L 39.6 54.9" id="99,96" /><path d="M 37.3 58.2 L 37.3 61.6 L 38.0 61.6" id="99,95" /><path d="M 38.2 38.3 L 38.2 35.7 L 43.8 35.7" id="97,94" /><path d="M 38.2 38.3 L 38.2 41.0 L 39.0 41.0" id="97,93" /><path d="M 39.6 54.9 L 39.6 52.8 L 42.7 52.8" id="96,92" /><path d="M 39.6 54.9 L 39.6 56.9 L 52.9 56.9" id="96,91" /><path d="M 38.0 61.6 L 38.0 60.4 L 56.1 60.4" id="95,90" /><path d="M 38.0 61.6 L 38.0 62.7 L 40.8 62.7" id="95,89" /><path d="M 39.0 41.0 L 39.0 38.1 L 51.3 38.1" id="93,88" /><path d="M 39.0 41.0 L 39.0 43.8 L 43.5 43.8" id="93,87" /><path d="M 42.7 52.8 L 42.7 51.9 L 82.7 51.9" id="92,86" /><path d="M 42.7 52.8 L 42.7 53.7 L 56.3 53.7" id="92,85" /><path d="M 52.9 56.9 L 52.9 55.8 L 82.4 55.8" id="91,84" /><path d="M 52.9 56.9 L 52.9 58.1 L 63.3 58.1" id="91,83" /><path d="M 40.8 62.7 L 40.8 63.9 L 46.5 63.9" id="89,82" /><path d="M 51.3 38.1 L 51.3 37.3 L 75.9 37.3" id="88,81" /><path d="M 51.3 38.1 L 51.3 39.0 L 59.5 39.0" id="88,80" /><path d="M 43.5 43.8 L 43.5 41.4 L 49.5 41.4" id="87,79" /><path d="M 43.5 43.8 L 43.5 46.1 L 45.3 46.1" id="87,78" /><path d="M 56.3 53.7 L 56.3 54.2 L 64.4 54.2" id="85,77" /><path d="M 63.3 58.1 L 63.3 57.3 L 84.8 57.3" id="83,76" /><path d="M 63.3 58.1 L 63.3 58.9 L 79.1 58.9" id="83,75" /><path d="M 46.5 63.9 L 46.5 65.4 L 48.4 65.4" id="82,74" /><path d="M 59.5 39.0 L 59.5 39.6 L 95.0 39.6" id="80,73" /><path d="M 49.5 41.4 L 49.5 42.1 L 51.3 42.1" id="79,72" /><path d="M 45.3 46.1 L 45.3 44.4 L 72.0 44.4" id="78,71" /><path d="M 45.3 46.1 L 45.3 47.9 L 59.5 47.9" id="78,70" /><path d="M 48.4 65.4 L 48.4 63.8 L 52.0 63.8" id="74,69" /><path d="M 48.4 65.4 L 48.4 67.0 L 51.5 67.0" id="74,68" /><path d="M 51.3 42.1 L 51.3 42.7 L 61.2 42.7" id="72,67" /><path d="M 72.0 44.4 L 72.0 45.0 L 91.9 45.0" id="71,66" /><path d="M 59.5 47.9 L 59.5 46.7 L 85.3 46.7" id="70,65" /><path d="M 59.5 47.9 L 59.5 49.0 L 70.2 49.0" id="70,64" /><path d="M 52.0 63.8 L 52.0 64.5 L 67.6 64.5" id="69,63" /><path d="M 51.5 67.0 L 51.5 67.8 L 53.5 67.8" id="68,62" /><path d="M 85.3 46.7 L 85.3 47.3 L 93.9 47.3" id="65,61" /><path d="M 70.2 49.0 L 70.2 49.6 L 73.8 49.6" id="64,60" /><path d="M 67.6 64.5 L 67.6 65.0 L 70.4 65.0" id="63,59" /><path d="M 53.5 67.8 L 53.5 68.7 L 56.7 68.7" id="62,58" /><path d="M 56.7 68.7 L 56.7 69.7 L 64.5 69.7" id="58,57" /><path d="M 64.5 69.7 L 64.5 68.9 L 73.6 68.9" id="57,56" /><path d="M 64.5 69.7 L 64.5 70.4 L 74.0 70.4" id="57,55" /><path d="M 40.6 29.7 L 40.6 29.2 L 99.6 29.2" id="107,54" /><path d="M 92.1 30.3 L 92.1 29.9 L 100.4 29.9" id="105,53" /><path d="M 92.1 30.3 L 92.1 30.7 L 100.0 30.7" id="105,52" /><path d="M 28.4 38.0 L 28.4 31.5 L 99.5 31.5" id="106,51" /><path d="M 31.3 32.8 L 31.3 32.3 L 106.9 32.3" id="101,50" /><path d="M 45.9 33.4 L 45.9 33.0 L 98.0 33.0" id="98,49" /><path d="M 45.9 33.4 L 45.9 33.8 L 95.1 33.8" id="98,48" /><path d="M 31.8 36.5 L 31.8 34.6 L 103.1 34.6" id="100,47" /><path d="M 43.8 35.7 L 43.8 35.3 L 98.0 35.3" id="94,46" /><path d="M 43.8 35.7 L 43.8 36.1 L 97.4 36.1" id="94,45" /><path d="M 75.9 37.3 L 75.9 36.9 L 103.8 36.9" id="81,44" /><path d="M 75.9 37.3 L 75.9 37.7 L 103.7 37.7" id="81,43" /><path d="M 59.5 39.0 L 59.5 38.4 L 105.6 38.4" id="80,42" /><path d="M 95.0 39.6 L 95.0 39.2 L 103.5 39.2" id="73,41" /><path d="M 95.0 39.6 L 95.0 40.0 L 105.7 40.0" id="73,40" /><path d="M 49.5 41.4 L 49.5 40.7 L 104.3 40.7" id="79,39" /><path d="M 51.3 42.1 L 51.3 41.5 L 100.8 41.5" id="72,38" /><path d="M 61.2 42.7 L 61.2 42.3 L 99.1 42.3" id="67,37" /><path d="M 61.2 42.7 L 61.2 43.1 L 99.3 43.1" id="67,36" /><path d="M 72.0 44.4 L 72.0 43.8 L 97.8 43.8" id="71,35" /><path d="M 91.9 45.0 L 91.9 44.6 L 101.9 44.6" id="66,34" /><path d="M 91.9 45.0 L 91.9 45.4 L 102.9 45.4" id="66,33" /><path d="M 85.3 46.7 L 85.3 46.1 L 100.0 46.1" id="65,32" /><path d="M 93.9 47.3 L 93.9 46.9 L 101.6 46.9" id="61,31" /><path d="M 93.9 47.3 L 93.9 47.7 L 101.7 47.7" id="61,30" /><path d="M 70.2 49.0 L 70.2 48.5 L 102.5 48.5" id="64,29" /><path d="M 73.8 49.6 L 73.8 49.2 L 100.1 49.2" id="60,28" /><path d="M 73.8 49.6 L 73.8 50.0 L 99.6 50.0" id="60,27" /><path d="M 30.0 54.5 L 30.0 50.8 L 102.9 50.8" id="102,26" /><path d="M 82.7 51.9 L 82.7 51.5 L 95.7 51.5" id="86,25" /><path d="M 82.7 51.9 L 82.7 52.3 L 95.4 52.3" id="86,24" /><path d="M 56.3 53.7 L 56.3 53.1 L 109.2 53.1" id="85,23" /><path d="M 64.4 54.2 L 64.4 53.9 L 103.8 53.9" id="77,22" /><path d="M 64.4 54.2 L 64.4 54.6 L 102.4 54.6" id="77,21" /><path d="M 82.4 55.8 L 82.4 55.4 L 96.5 55.4" id="84,20" /><path d="M 82.4 55.8 L 82.4 56.2 L 99.8 56.2" id="84,19" /><path d="M 84.8 57.3 L 84.8 56.9 L 101.0 56.9" id="76,18" /><path d="M 84.8 57.3 L 84.8 57.7 L 100.1 57.7" id="76,17" /><path d="M 79.1 58.9 L 79.1 58.5 L 104.8 58.5" id="75,16" /><path d="M 79.1 58.9 L 79.1 59.3 L 103.0 59.3" id="75,15" /><path d="M 56.1 60.4 L 56.1 60.0 L 102.4 60.0" id="90,14" /><path d="M 56.1 60.4 L 56.1 60.8 L 110.3 60.8" id="90,13" /><path d="M 40.8 62.7 L 40.8 61.6 L 103.2 61.6" id="89,12" /><path d="M 46.5 63.9 L 46.5 62.3 L 97.5 62.3" id="82,11" /><path d="M 52.0 63.8 L 52.0 63.1 L 96.5 63.1" id="69,10" /><path d="M 67.6 64.5 L 67.6 63.9 L 95.9 63.9" id="63,9" /><path d="M 70.4 65.0 L 70.4 64.7 L 94.8 64.7" id="59,8" /><path d="M 70.4 65.0 L 70.4 65.4 L 94.5 65.4" id="59,7" /><path d="M 51.5 67.0 L 51.5 66.2 L 99.3 66.2" id="68,6" /><path d="M 53.5 67.8 L 53.5 67.0 L 96.5 67.0" id="62,5" /><path d="M 56.7 68.7 L 56.7 67.7 L 95.9 67.7" id="58,4" /><path d="M 73.6 68.9 L 73.6 68.5 L 93.7 68.5" id="56,3" /><path d="M 73.6 68.9 L 73.6 69.3 L 93.2 69.3" id="56,2" /><path d="M 74.0 70.4 L 74.0 70.1 L 96.1 70.1" id="55,1" /><path d="M 74.0 70.4 L 74.0 70.8 L 94.9 70.8" id="55,0" /></g><g class="toytree-Nodes" style="fill:rgb(100%,0%,0%);fill-opacity:1.0;stroke:None;stroke-width:1"><g id="node-0" transform="translate(94.868,70.833)"><circle r="2.5" /></g><g id="node-1" transform="translate(96.058,70.062)"><circle r="2.5" /></g><g id="node-2" transform="translate(93.214,69.290)"><circle r="2.5" /></g><g id="node-3" transform="translate(93.725,68.519)"><circle r="2.5" /></g><g id="node-4" transform="translate(95.858,67.747)"><circle r="2.5" /></g><g id="node-5" transform="translate(96.542,66.975)"><circle r="2.5" /></g><g id="node-6" transform="translate(99.293,66.204)"><circle r="2.5" /></g><g id="node-7" transform="translate(94.487,65.432)"><circle r="2.5" /></g><g id="node-8" transform="translate(94.804,64.660)"><circle r="2.5" /></g><g id="node-9" transform="translate(95.850,63.889)"><circle r="2.5" /></g><g id="node-10" transform="translate(96.530,63.117)"><circle r="2.5" /></g><g id="node-11" transform="translate(97.491,62.346)"><circle r="2.5" /></g><g id="node-12" transform="translate(103.181,61.574)"><circle r="2.5" /></g><g id="node-13" transform="translate(110.263,60.802)"><circle r="2.5" /></g><g id="node-14" transform="translate(102.414,60.031)"><circle r="2.5" /></g><g id="node-15" transform="translate(102.985,59.259)"><circle r="2.5" /></g><g id="node-16" transform="translate(104.845,58.488)"><circle r="2.5" /></g><g id="node-17" transform="translate(100.068,57.716)"><circle r="2.5" /></g><g id="node-18" transform="translate(101.013,56.944)"><circle r="2.5" /></g><g id="node-19" transform="translate(99.795,56.173)"><circle r="2.5" /></g><g id="node-20" transform="translate(96.482,55.401)"><circle r="2.5" /></g><g id="node-21" transform="translate(102.431,54.630)"><circle r="2.5" /></g><g id="node-22" transform="translate(103.826,53.858)"><circle r="2.5" /></g><g id="node-23" transform="translate(109.169,53.086)"><circle r="2.5" /></g><g id="node-24" transform="translate(95.434,52.315)"><circle r="2.5" /></g><g id="node-25" transform="translate(95.651,51.543)"><circle r="2.5" /></g><g id="node-26" transform="translate(102.925,50.772)"><circle r="2.5" /></g><g id="node-27" transform="translate(99.585,50.000)"><circle r="2.5" /></g><g id="node-28" transform="translate(100.074,49.228)"><circle r="2.5" /></g><g id="node-29" transform="translate(102.472,48.457)"><circle r="2.5" /></g><g id="node-30" transform="translate(101.705,47.685)"><circle r="2.5" /></g><g id="node-31" transform="translate(101.608,46.914)"><circle r="2.5" /></g><g id="node-32" transform="translate(100.021,46.142)"><circle r="2.5" /></g><g id="node-33" transform="translate(102.865,45.370)"><circle r="2.5" /></g><g id="node-34" transform="translate(101.931,44.599)"><circle r="2.5" /></g><g id="node-35" transform="translate(97.799,43.827)"><circle r="2.5" /></g><g id="node-36" transform="translate(99.308,43.056)"><circle r="2.5" /></g><g id="node-37" transform="translate(99.111,42.284)"><circle r="2.5" /></g><g id="node-38" transform="translate(100.837,41.512)"><circle r="2.5" /></g><g id="node-39" transform="translate(104.316,40.741)"><circle r="2.5" /></g><g id="node-40" transform="translate(105.748,39.969)"><circle r="2.5" /></g><g id="node-41" transform="translate(103.489,39.198)"><circle r="2.5" /></g><g id="node-42" transform="translate(105.629,38.426)"><circle r="2.5" /></g><g id="node-43" transform="translate(103.675,37.654)"><circle r="2.5" /></g><g id="node-44" transform="translate(103.791,36.883)"><circle r="2.5" /></g><g id="node-45" transform="translate(97.379,36.111)"><circle r="2.5" /></g><g id="node-46" transform="translate(97.991,35.340)"><circle r="2.5" /></g><g id="node-47" transform="translate(103.113,34.568)"><circle r="2.5" /></g><g id="node-48" transform="translate(95.081,33.796)"><circle r="2.5" /></g><g id="node-49" transform="translate(97.952,33.025)"><circle r="2.5" /></g><g id="node-50" transform="translate(106.881,32.253)"><circle r="2.5" /></g><g id="node-51" transform="translate(99.489,31.481)"><circle r="2.5" /></g><g id="node-52" transform="translate(100.004,30.710)"><circle r="2.5" /></g><g id="node-53" transform="translate(100.365,29.938)"><circle r="2.5" /></g><g id="node-54" transform="translate(99.650,29.167)"><circle r="2.5" /></g><g id="node-55" transform="translate(73.960,70.448)"><circle r="0.0" /></g><g id="node-56" transform="translate(73.565,68.904)"><circle r="0.0" /></g><g id="node-57" transform="translate(64.513,69.676)"><circle r="0.0" /></g><g id="node-58" transform="translate(56.661,68.711)"><circle r="0.0" /></g><g id="node-59" transform="translate(70.382,65.046)"><circle r="0.0" /></g><g id="node-60" transform="translate(73.774,49.614)"><circle r="0.0" /></g><g id="node-61" transform="translate(93.907,47.299)"><circle r="0.0" /></g><g id="node-62" transform="translate(53.525,67.843)"><circle r="0.0" /></g><g id="node-63" transform="translate(67.643,64.468)"><circle r="0.0" /></g><g id="node-64" transform="translate(70.204,49.035)"><circle r="0.0" /></g><g id="node-65" transform="translate(85.293,46.721)"><circle r="0.0" /></g><g id="node-66" transform="translate(91.937,44.985)"><circle r="0.0" /></g><g id="node-67" transform="translate(61.241,42.670)"><circle r="0.0" /></g><g id="node-68" transform="translate(51.450,67.024)"><circle r="0.0" /></g><g id="node-69" transform="translate(51.952,63.792)"><circle r="0.0" /></g><g id="node-70" transform="translate(59.466,47.878)"><circle r="0.0" /></g><g id="node-71" transform="translate(71.961,44.406)"><circle r="0.0" /></g><g id="node-72" transform="translate(51.303,42.091)"><circle r="0.0" /></g><g id="node-73" transform="translate(95.029,39.583)"><circle r="0.0" /></g><g id="node-74" transform="translate(48.364,65.408)"><circle r="0.0" /></g><g id="node-75" transform="translate(79.119,58.873)"><circle r="0.0" /></g><g id="node-76" transform="translate(84.849,57.330)"><circle r="0.0" /></g><g id="node-77" transform="translate(64.385,54.244)"><circle r="0.0" /></g><g id="node-78" transform="translate(45.338,46.142)"><circle r="0.0" /></g><g id="node-79" transform="translate(49.527,41.416)"><circle r="0.0" /></g><g id="node-80" transform="translate(59.455,39.005)"><circle r="0.0" /></g><g id="node-81" transform="translate(75.934,37.269)"><circle r="0.0" /></g><g id="node-82" transform="translate(46.545,63.877)"><circle r="0.0" /></g><g id="node-83" transform="translate(63.290,58.102)"><circle r="0.0" /></g><g id="node-84" transform="translate(82.350,55.787)"><circle r="0.0" /></g><g id="node-85" transform="translate(56.266,53.665)"><circle r="0.0" /></g><g id="node-86" transform="translate(82.660,51.929)"><circle r="0.0" /></g><g id="node-87" transform="translate(43.546,43.779)"><circle r="0.0" /></g><g id="node-88" transform="translate(51.289,38.137)"><circle r="0.0" /></g><g id="node-89" transform="translate(40.776,62.725)"><circle r="0.0" /></g><g id="node-90" transform="translate(56.068,60.417)"><circle r="0.0" /></g><g id="node-91" transform="translate(52.940,56.944)"><circle r="0.0" /></g><g id="node-92" transform="translate(42.651,52.797)"><circle r="0.0" /></g><g id="node-93" transform="translate(38.975,40.958)"><circle r="0.0" /></g><g id="node-94" transform="translate(43.831,35.725)"><circle r="0.0" /></g><g id="node-95" transform="translate(38.027,61.571)"><circle r="0.0" /></g><g id="node-96" transform="translate(39.585,54.871)"><circle r="0.0" /></g><g id="node-97" transform="translate(38.161,38.342)"><circle r="0.0" /></g><g id="node-98" transform="translate(45.859,33.410)"><circle r="0.0" /></g><g id="node-99" transform="translate(37.254,58.221)"><circle r="0.0" /></g><g id="node-100" transform="translate(31.780,36.455)"><circle r="0.0" /></g><g id="node-101" transform="translate(31.331,32.832)"><circle r="0.0" /></g><g id="node-102" transform="translate(30.046,54.496)"><circle r="0.0" /></g><g id="node-103" transform="translate(30.846,34.643)"><circle r="0.0" /></g><g id="node-104" transform="translate(29.432,44.570)"><circle r="0.0" /></g><g id="node-105" transform="translate(92.145,30.324)"><circle r="0.0" /></g><g id="node-106" transform="translate(28.384,38.026)"><circle r="0.0" /></g><g id="node-107" transform="translate(40.639,29.745)"><circle r="0.0" /></g><g id="node-108" transform="translate(25.000,33.885)"><circle r="0.0" /></g></g></g></g></g><g class="toyplot-coordinates-Cartesian" id="t621835b58a074944930a87210c9307ef"><clipPath id="tb4e251c95a1a45059858edf70552bfb7"><rect x="155.0" y="15.0" width="110.0" height="70.0" /></clipPath><g clip-path="url(#tb4e251c95a1a45059858edf70552bfb7)"><g class="toytree-mark-Toytree" id="t4fecefccf43e48d98dc4fc3becae31b5"><g class="toytree-Edges" style="fill:none;stroke:rgb(14.9%,14.9%,14.9%);stroke-linecap:round;stroke-opacity:1;stroke-width:0.5"><path d="M 165.0 32.6 L 165.0 29.7 L 186.8 29.7" id="108,107" /><path d="M 165.0 32.6 L 165.0 35.4 L 169.5 35.4" id="108,106" /><path d="M 186.8 29.7 L 186.8 30.3 L 212.5 30.3" id="107,105" /><path d="M 169.5 35.4 L 169.5 39.4 L 175.7 39.4" id="106,104" /><path d="M 175.7 39.4 L 175.7 33.5 L 176.8 33.5" id="104,103" /><path d="M 175.7 39.4 L 175.7 45.3 L 179.9 45.3" id="104,102" /><path d="M 176.8 33.5 L 176.8 32.6 L 189.0 32.6" id="103,101" /><path d="M 176.8 33.5 L 176.8 34.4 L 180.5 34.4" id="103,100" /><path d="M 179.9 45.3 L 179.9 39.1 L 181.4 39.1" id="102,99" /><path d="M 179.9 45.3 L 179.9 51.4 L 183.9 51.4" id="102,98" /><path d="M 180.5 34.4 L 180.5 35.0 L 188.5 35.0" id="100,97" /><path d="M 181.4 39.1 L 181.4 36.8 L 193.4 36.8" id="99,96" /><path d="M 181.4 39.1 L 181.4 41.4 L 186.6 41.4" id="99,95" /><path d="M 183.9 51.4 L 183.9 49.6 L 185.1 49.6" id="98,94" /><path d="M 183.9 51.4 L 183.9 53.2 L 188.5 53.2" id="98,93" /><path d="M 193.4 36.8 L 193.4 37.5 L 198.9 37.5" id="96,92" /><path d="M 186.6 41.4 L 186.6 39.8 L 192.5 39.8" id="95,91" /><path d="M 186.6 41.4 L 186.6 43.1 L 189.1 43.1" id="95,90" /><path d="M 188.5 53.2 L 188.5 51.2 L 200.8 51.2" id="93,89" /><path d="M 188.5 53.2 L 188.5 55.3 L 192.9 55.3" id="93,88" /><path d="M 198.9 37.5 L 198.9 38.0 L 203.5 38.0" id="92,87" /><path d="M 192.5 39.8 L 192.5 40.4 L 196.5 40.4" id="91,86" /><path d="M 189.1 43.1 L 189.1 41.9 L 190.5 41.9" id="90,85" /><path d="M 189.1 43.1 L 189.1 44.2 L 190.4 44.2" id="90,84" /><path d="M 192.9 55.3 L 192.9 52.7 L 200.1 52.7" id="88,83" /><path d="M 192.9 55.3 L 192.9 57.9 L 193.3 57.9" id="88,82" /><path d="M 190.4 44.2 L 190.4 45.4 L 196.2 45.4" id="84,81" /><path d="M 193.3 57.9 L 193.3 54.2 L 202.8 54.2" id="82,80" /><path d="M 193.3 57.9 L 193.3 61.5 L 194.4 61.5" id="82,79" /><path d="M 196.2 45.4 L 196.2 44.2 L 197.1 44.2" id="81,78" /><path d="M 196.2 45.4 L 196.2 46.6 L 197.0 46.6" id="81,77" /><path d="M 194.4 61.5 L 194.4 57.5 L 195.5 57.5" id="79,76" /><path d="M 194.4 61.5 L 194.4 65.4 L 196.3 65.4" id="79,75" /><path d="M 197.0 46.6 L 197.0 45.8 L 200.0 45.8" id="77,74" /><path d="M 197.0 46.6 L 197.0 47.5 L 200.7 47.5" id="77,73" /><path d="M 195.5 57.5 L 195.5 56.0 L 209.1 56.0" id="76,72" /><path d="M 195.5 57.5 L 195.5 59.0 L 198.0 59.0" id="76,71" /><path d="M 196.3 65.4 L 196.3 63.6 L 199.3 63.6" id="75,70" /><path d="M 196.3 65.4 L 196.3 67.2 L 198.0 67.2" id="75,69" /><path d="M 200.7 47.5 L 200.7 48.1 L 205.3 48.1" id="73,68" /><path d="M 209.1 56.0 L 209.1 56.6 L 215.5 56.6" id="72,67" /><path d="M 198.0 59.0 L 198.0 58.1 L 198.5 58.1" id="71,66" /><path d="M 198.0 59.0 L 198.0 59.9 L 200.4 59.9" id="71,65" /><path d="M 199.3 63.6 L 199.3 62.7 L 205.6 62.7" id="70,64" /><path d="M 199.3 63.6 L 199.3 64.5 L 202.9 64.5" id="70,63" /><path d="M 198.0 67.2 L 198.0 68.3 L 202.7 68.3" id="69,62" /><path d="M 200.4 59.9 L 200.4 60.6 L 204.9 60.6" id="65,61" /><path d="M 202.9 64.5 L 202.9 65.0 L 209.2 65.0" id="63,60" /><path d="M 202.7 68.3 L 202.7 67.4 L 205.7 67.4" id="62,59" /><path d="M 202.7 68.3 L 202.7 69.2 L 208.9 69.2" id="62,58" /><path d="M 204.9 60.6 L 204.9 61.2 L 207.5 61.2" id="61,57" /><path d="M 208.9 69.2 L 208.9 69.9 L 213.7 69.9" id="58,56" /><path d="M 213.7 69.9 L 213.7 70.4 L 220.8 70.4" id="56,55" /><path d="M 186.8 29.7 L 186.8 29.2 L 200.1 29.2" id="107,54" /><path d="M 212.5 30.3 L 212.5 29.9 L 212.5 29.9" id="105,53" /><path d="M 212.5 30.3 L 212.5 30.7 L 214.5 30.7" id="105,52" /><path d="M 169.5 35.4 L 169.5 31.5 L 201.8 31.5" id="106,51" /><path d="M 189.0 32.6 L 189.0 32.3 L 239.2 32.3" id="101,50" /><path d="M 189.0 32.6 L 189.0 33.0 L 203.0 33.0" id="101,49" /><path d="M 180.5 34.4 L 180.5 33.8 L 187.6 33.8" id="100,48" /><path d="M 188.5 35.0 L 188.5 34.6 L 188.5 34.6" id="97,47" /><path d="M 188.5 35.0 L 188.5 35.3 L 198.4 35.3" id="97,46" /><path d="M 193.4 36.8 L 193.4 36.1 L 214.5 36.1" id="96,45" /><path d="M 198.9 37.5 L 198.9 36.9 L 214.3 36.9" id="92,44" /><path d="M 203.5 38.0 L 203.5 37.7 L 250.3 37.7" id="87,43" /><path d="M 203.5 38.0 L 203.5 38.4 L 223.9 38.4" id="87,42" /><path d="M 192.5 39.8 L 192.5 39.2 L 194.0 39.2" id="91,41" /><path d="M 196.5 40.4 L 196.5 40.0 L 204.6 40.0" id="86,40" /><path d="M 196.5 40.4 L 196.5 40.7 L 246.1 40.7" id="86,39" /><path d="M 190.5 41.9 L 190.5 41.5 L 191.8 41.5" id="85,38" /><path d="M 190.5 41.9 L 190.5 42.3 L 196.4 42.3" id="85,37" /><path d="M 190.4 44.2 L 190.4 43.1 L 195.9 43.1" id="84,36" /><path d="M 197.1 44.2 L 197.1 43.8 L 203.7 43.8" id="78,35" /><path d="M 197.1 44.2 L 197.1 44.6 L 202.0 44.6" id="78,34" /><path d="M 200.0 45.8 L 200.0 45.4 L 200.6 45.4" id="74,33" /><path d="M 200.0 45.8 L 200.0 46.1 L 200.5 46.1" id="74,32" /><path d="M 200.7 47.5 L 200.7 46.9 L 208.7 46.9" id="73,31" /><path d="M 205.3 48.1 L 205.3 47.7 L 220.3 47.7" id="68,30" /><path d="M 205.3 48.1 L 205.3 48.5 L 211.5 48.5" id="68,29" /><path d="M 185.1 49.6 L 185.1 49.2 L 222.7 49.2" id="94,28" /><path d="M 185.1 49.6 L 185.1 50.0 L 198.2 50.0" id="94,27" /><path d="M 200.8 51.2 L 200.8 50.8 L 232.4 50.8" id="89,26" /><path d="M 200.8 51.2 L 200.8 51.5 L 238.2 51.5" id="89,25" /><path d="M 200.1 52.7 L 200.1 52.3 L 200.1 52.3" id="83,24" /><path d="M 200.1 52.7 L 200.1 53.1 L 212.0 53.1" id="83,23" /><path d="M 202.8 54.2 L 202.8 53.9 L 202.8 53.9" id="80,22" /><path d="M 202.8 54.2 L 202.8 54.6 L 206.7 54.6" id="80,21" /><path d="M 209.1 56.0 L 209.1 55.4 L 224.7 55.4" id="72,20" /><path d="M 215.5 56.6 L 215.5 56.2 L 223.0 56.2" id="67,19" /><path d="M 215.5 56.6 L 215.5 56.9 L 225.3 56.9" id="67,18" /><path d="M 198.5 58.1 L 198.5 57.7 L 201.4 57.7" id="66,17" /><path d="M 198.5 58.1 L 198.5 58.5 L 199.5 58.5" id="66,16" /><path d="M 200.4 59.9 L 200.4 59.3 L 207.9 59.3" id="65,15" /><path d="M 204.9 60.6 L 204.9 60.0 L 208.6 60.0" id="61,14" /><path d="M 207.5 61.2 L 207.5 60.8 L 214.5 60.8" id="57,13" /><path d="M 207.5 61.2 L 207.5 61.6 L 208.8 61.6" id="57,12" /><path d="M 205.6 62.7 L 205.6 62.3 L 216.2 62.3" id="64,11" /><path d="M 205.6 62.7 L 205.6 63.1 L 205.6 63.1" id="64,10" /><path d="M 202.9 64.5 L 202.9 63.9 L 231.5 63.9" id="63,9" /><path d="M 209.2 65.0 L 209.2 64.7 L 217.1 64.7" id="60,8" /><path d="M 209.2 65.0 L 209.2 65.4 L 219.4 65.4" id="60,7" /><path d="M 198.0 67.2 L 198.0 66.2 L 213.2 66.2" id="69,6" /><path d="M 205.7 67.4 L 205.7 67.0 L 210.2 67.0" id="59,5" /><path d="M 205.7 67.4 L 205.7 67.7 L 210.3 67.7" id="59,4" /><path d="M 208.9 69.2 L 208.9 68.5 L 210.6 68.5" id="58,3" /><path d="M 213.7 69.9 L 213.7 69.3 L 219.2 69.3" id="56,2" /><path d="M 220.8 70.4 L 220.8 70.1 L 221.7 70.1" id="55,1" /><path d="M 220.8 70.4 L 220.8 70.8 L 221.8 70.8" id="55,0" /></g><g class="toytree-Nodes" style="fill:rgb(100%,0%,0%);fill-opacity:1.0;stroke:None;stroke-width:1"><g id="node-0" transform="translate(221.769,70.833)"><circle r="2.5" /></g><g id="node-1" transform="translate(221.726,70.062)"><circle r="2.5" /></g><g id="node-2" transform="translate(219.159,69.290)"><circle r="2.5" /></g><g id="node-3" transform="translate(210.579,68.519)"><circle r="2.5" /></g><g id="node-4" transform="translate(210.317,67.747)"><circle r="2.5" /></g><g id="node-5" transform="translate(210.188,66.975)"><circle r="2.5" /></g><g id="node-6" transform="translate(213.189,66.204)"><circle r="2.5" /></g><g id="node-7" transform="translate(219.416,65.432)"><circle r="2.5" /></g><g id="node-8" transform="translate(217.144,64.660)"><circle r="2.5" /></g><g id="node-9" transform="translate(231.496,63.889)"><circle r="2.5" /></g><g id="node-10" transform="translate(205.584,63.117)"><circle r="2.5" /></g><g id="node-11" transform="translate(216.195,62.346)"><circle r="2.5" /></g><g id="node-12" transform="translate(208.827,61.574)"><circle r="2.5" /></g><g id="node-13" transform="translate(214.454,60.802)"><circle r="2.5" /></g><g id="node-14" transform="translate(208.569,60.031)"><circle r="2.5" /></g><g id="node-15" transform="translate(207.942,59.259)"><circle r="2.5" /></g><g id="node-16" transform="translate(199.497,58.488)"><circle r="2.5" /></g><g id="node-17" transform="translate(201.437,57.716)"><circle r="2.5" /></g><g id="node-18" transform="translate(225.349,56.944)"><circle r="2.5" /></g><g id="node-19" transform="translate(223.001,56.173)"><circle r="2.5" /></g><g id="node-20" transform="translate(224.674,55.401)"><circle r="2.5" /></g><g id="node-21" transform="translate(206.747,54.630)"><circle r="2.5" /></g><g id="node-22" transform="translate(202.782,53.858)"><circle r="2.5" /></g><g id="node-23" transform="translate(212.031,53.086)"><circle r="2.5" /></g><g id="node-24" transform="translate(200.134,52.315)"><circle r="2.5" /></g><g id="node-25" transform="translate(238.216,51.543)"><circle r="2.5" /></g><g id="node-26" transform="translate(232.407,50.772)"><circle r="2.5" /></g><g id="node-27" transform="translate(198.157,50.000)"><circle r="2.5" /></g><g id="node-28" transform="translate(222.680,49.228)"><circle r="2.5" /></g><g id="node-29" transform="translate(211.517,48.457)"><circle r="2.5" /></g><g id="node-30" transform="translate(220.349,47.685)"><circle r="2.5" /></g><g id="node-31" transform="translate(208.714,46.914)"><circle r="2.5" /></g><g id="node-32" transform="translate(200.531,46.142)"><circle r="2.5" /></g><g id="node-33" transform="translate(200.584,45.370)"><circle r="2.5" /></g><g id="node-34" transform="translate(202.010,44.599)"><circle r="2.5" /></g><g id="node-35" transform="translate(203.703,43.827)"><circle r="2.5" /></g><g id="node-36" transform="translate(195.890,43.056)"><circle r="2.5" /></g><g id="node-37" transform="translate(196.372,42.284)"><circle r="2.5" /></g><g id="node-38" transform="translate(191.828,41.512)"><circle r="2.5" /></g><g id="node-39" transform="translate(246.083,40.741)"><circle r="2.5" /></g><g id="node-40" transform="translate(204.625,39.969)"><circle r="2.5" /></g><g id="node-41" transform="translate(193.955,39.198)"><circle r="2.5" /></g><g id="node-42" transform="translate(223.907,38.426)"><circle r="2.5" /></g><g id="node-43" transform="translate(250.263,37.654)"><circle r="2.5" /></g><g id="node-44" transform="translate(214.298,36.883)"><circle r="2.5" /></g><g id="node-45" transform="translate(214.545,36.111)"><circle r="2.5" /></g><g id="node-46" transform="translate(198.393,35.340)"><circle r="2.5" /></g><g id="node-47" transform="translate(188.532,34.568)"><circle r="2.5" /></g><g id="node-48" transform="translate(187.556,33.796)"><circle r="2.5" /></g><g id="node-49" transform="translate(202.975,33.025)"><circle r="2.5" /></g><g id="node-50" transform="translate(239.202,32.253)"><circle r="2.5" /></g><g id="node-51" transform="translate(201.822,31.481)"><circle r="2.5" /></g><g id="node-52" transform="translate(214.518,30.710)"><circle r="2.5" /></g><g id="node-53" transform="translate(212.535,29.938)"><circle r="2.5" /></g><g id="node-54" transform="translate(200.123,29.167)"><circle r="2.5" /></g><g id="node-55" transform="translate(220.783,70.448)"><circle r="0.0" /></g><g id="node-56" transform="translate(213.741,69.869)"><circle r="0.0" /></g><g id="node-57" transform="translate(207.487,61.188)"><circle r="0.0" /></g><g id="node-58" transform="translate(208.950,69.194)"><circle r="0.0" /></g><g id="node-59" transform="translate(205.724,67.361)"><circle r="0.0" /></g><g id="node-60" transform="translate(209.223,65.046)"><circle r="0.0" /></g><g id="node-61" transform="translate(204.866,60.610)"><circle r="0.0" /></g><g id="node-62" transform="translate(202.691,68.277)"><circle r="0.0" /></g><g id="node-63" transform="translate(202.862,64.468)"><circle r="0.0" /></g><g id="node-64" transform="translate(205.584,62.731)"><circle r="0.0" /></g><g id="node-65" transform="translate(200.381,59.934)"><circle r="0.0" /></g><g id="node-66" transform="translate(198.484,58.102)"><circle r="0.0" /></g><g id="node-67" transform="translate(215.467,56.559)"><circle r="0.0" /></g><g id="node-68" transform="translate(205.322,48.071)"><circle r="0.0" /></g><g id="node-69" transform="translate(198.039,67.241)"><circle r="0.0" /></g><g id="node-70" transform="translate(199.271,63.600)"><circle r="0.0" /></g><g id="node-71" transform="translate(197.953,59.018)"><circle r="0.0" /></g><g id="node-72" transform="translate(209.111,55.980)"><circle r="0.0" /></g><g id="node-73" transform="translate(200.654,47.492)"><circle r="0.0" /></g><g id="node-74" transform="translate(200.022,45.756)"><circle r="0.0" /></g><g id="node-75" transform="translate(196.292,65.420)"><circle r="0.0" /></g><g id="node-76" transform="translate(195.515,57.499)"><circle r="0.0" /></g><g id="node-77" transform="translate(196.978,46.624)"><circle r="0.0" /></g><g id="node-78" transform="translate(197.069,44.213)"><circle r="0.0" /></g><g id="node-79" transform="translate(194.400,61.460)"><circle r="0.0" /></g><g id="node-80" transform="translate(202.782,54.244)"><circle r="0.0" /></g><g id="node-81" transform="translate(196.206,45.419)"><circle r="0.0" /></g><g id="node-82" transform="translate(193.334,57.852)"><circle r="0.0" /></g><g id="node-83" transform="translate(200.134,52.701)"><circle r="0.0" /></g><g id="node-84" transform="translate(190.375,44.237)"><circle r="0.0" /></g><g id="node-85" transform="translate(190.536,41.898)"><circle r="0.0" /></g><g id="node-86" transform="translate(196.469,40.355)"><circle r="0.0" /></g><g id="node-87" transform="translate(203.457,38.040)"><circle r="0.0" /></g><g id="node-88" transform="translate(192.889,55.276)"><circle r="0.0" /></g><g id="node-89" transform="translate(200.772,51.157)"><circle r="0.0" /></g><g id="node-90" transform="translate(189.105,43.068)"><circle r="0.0" /></g><g id="node-91" transform="translate(192.546,39.776)"><circle r="0.0" /></g><g id="node-92" transform="translate(198.923,37.461)"><circle r="0.0" /></g><g id="node-93" transform="translate(188.489,53.217)"><circle r="0.0" /></g><g id="node-94" transform="translate(185.070,49.614)"><circle r="0.0" /></g><g id="node-95" transform="translate(186.635,41.422)"><circle r="0.0" /></g><g id="node-96" transform="translate(193.430,36.786)"><circle r="0.0" /></g><g id="node-97" transform="translate(188.532,34.954)"><circle r="0.0" /></g><g id="node-98" transform="translate(183.950,51.415)"><circle r="0.0" /></g><g id="node-99" transform="translate(181.426,39.104)"><circle r="0.0" /></g><g id="node-100" transform="translate(180.461,34.375)"><circle r="0.0" /></g><g id="node-101" transform="translate(188.987,32.639)"><circle r="0.0" /></g><g id="node-102" transform="translate(179.855,45.260)"><circle r="0.0" /></g><g id="node-103" transform="translate(176.779,33.507)"><circle r="0.0" /></g><g id="node-104" transform="translate(175.724,39.383)"><circle r="0.0" /></g><g id="node-105" transform="translate(212.535,30.324)"><circle r="0.0" /></g><g id="node-106" transform="translate(169.529,35.432)"><circle r="0.0" /></g><g id="node-107" transform="translate(186.795,29.745)"><circle r="0.0" /></g><g id="node-108" transform="translate(165.000,32.589)"><circle r="0.0" /></g></g></g></g></g><g class="toyplot-coordinates-Cartesian" id="t6737995beb04464e890690ec2f361437"><clipPath id="t8894a9b0f8344fbebfa8601810569d7a"><rect x="295.0" y="15.0" width="110.0" height="70.0" /></clipPath><g clip-path="url(#t8894a9b0f8344fbebfa8601810569d7a)"><g class="toytree-mark-Toytree" id="td6adcb9862df4a18916b8bfb77ac50fa"><g class="toytree-Edges" style="fill:none;stroke:rgb(14.9%,14.9%,14.9%);stroke-linecap:round;stroke-opacity:1;stroke-width:0.5"><path d="M 305.0 33.9 L 305.0 29.7 L 329.1 29.7" id="108,107" /><path d="M 305.0 33.9 L 305.0 38.1 L 312.3 38.1" id="108,106" /><path d="M 329.1 29.7 L 329.1 30.3 L 364.2 30.3" id="107,105" /><path d="M 312.3 38.1 L 312.3 44.7 L 318.8 44.7" id="106,104" /><path d="M 318.8 44.7 L 318.8 35.7 L 320.9 35.7" id="104,103" /><path d="M 318.8 44.7 L 318.8 53.8 L 323.1 53.8" id="104,102" /><path d="M 320.9 35.7 L 320.9 33.4 L 321.8 33.4" id="103,101" /><path d="M 320.9 35.7 L 320.9 38.0 L 322.4 38.0" id="103,100" /><path d="M 323.1 53.8 L 323.1 56.7 L 332.3 56.7" id="102,99" /><path d="M 321.8 33.4 L 321.8 32.6 L 325.4 32.6" id="101,98" /><path d="M 321.8 33.4 L 321.8 34.2 L 327.3 34.2" id="101,97" /><path d="M 322.4 38.0 L 322.4 36.0 L 332.2 36.0" id="100,96" /><path d="M 322.4 38.0 L 322.4 39.9 L 324.8 39.9" id="100,95" /><path d="M 332.3 56.7 L 332.3 53.8 L 334.2 53.8" id="99,94" /><path d="M 332.3 56.7 L 332.3 59.7 L 333.7 59.7" id="99,93" /><path d="M 332.2 36.0 L 332.2 36.7 L 341.3 36.7" id="96,92" /><path d="M 324.8 39.9 L 324.8 41.4 L 328.0 41.4" id="95,91" /><path d="M 334.2 53.8 L 334.2 52.1 L 353.2 52.1" id="94,90" /><path d="M 334.2 53.8 L 334.2 55.4 L 347.5 55.4" id="94,89" /><path d="M 333.7 59.7 L 333.7 61.0 L 335.6 61.0" id="93,88" /><path d="M 341.3 36.7 L 341.3 37.3 L 344.1 37.3" id="92,87" /><path d="M 328.0 41.4 L 328.0 39.8 L 334.3 39.8" id="91,86" /><path d="M 328.0 41.4 L 328.0 43.0 L 330.9 43.0" id="91,85" /><path d="M 353.2 52.1 L 353.2 52.7 L 364.6 52.7" id="90,84" /><path d="M 347.5 55.4 L 347.5 54.2 L 358.9 54.2" id="89,83" /><path d="M 347.5 55.4 L 347.5 56.6 L 358.0 56.6" id="89,82" /><path d="M 335.6 61.0 L 335.6 59.6 L 351.5 59.6" id="88,81" /><path d="M 335.6 61.0 L 335.6 62.3 L 337.8 62.3" id="88,80" /><path d="M 334.3 39.8 L 334.3 40.4 L 347.1 40.4" id="86,79" /><path d="M 330.9 43.0 L 330.9 44.4 L 331.5 44.4" id="85,78" /><path d="M 358.0 56.6 L 358.0 55.8 L 373.6 55.8" id="82,77" /><path d="M 358.0 56.6 L 358.0 57.3 L 359.2 57.3" id="82,76" /><path d="M 337.8 62.3 L 337.8 61.2 L 355.7 61.2" id="80,75" /><path d="M 337.8 62.3 L 337.8 63.5 L 341.1 63.5" id="80,74" /><path d="M 331.5 44.4 L 331.5 42.7 L 341.4 42.7" id="78,73" /><path d="M 331.5 44.4 L 331.5 46.1 L 336.3 46.1" id="78,72" /><path d="M 341.1 63.5 L 341.1 64.6 L 342.2 64.6" id="74,71" /><path d="M 336.3 46.1 L 336.3 44.4 L 346.8 44.4" id="72,70" /><path d="M 336.3 46.1 L 336.3 47.9 L 341.1 47.9" id="72,69" /><path d="M 342.2 64.6 L 342.2 66.1 L 343.1 66.1" id="71,68" /><path d="M 346.8 44.4 L 346.8 45.0 L 350.6 45.0" id="70,67" /><path d="M 341.1 47.9 L 341.1 46.7 L 348.3 46.7" id="69,66" /><path d="M 341.1 47.9 L 341.1 49.0 L 347.2 49.0" id="69,65" /><path d="M 343.1 66.1 L 343.1 64.5 L 344.6 64.5" id="68,64" /><path d="M 343.1 66.1 L 343.1 67.7 L 343.6 67.7" id="68,63" /><path d="M 348.3 46.7 L 348.3 47.3 L 354.2 47.3" id="66,62" /><path d="M 347.2 49.0 L 347.2 49.6 L 347.9 49.6" id="65,61" /><path d="M 344.6 64.5 L 344.6 65.0 L 347.7 65.0" id="64,60" /><path d="M 343.6 67.7 L 343.6 66.6 L 347.1 66.6" id="63,59" /><path d="M 343.6 67.7 L 343.6 68.7 L 345.4 68.7" id="63,58" /><path d="M 345.4 68.7 L 345.4 69.7 L 346.4 69.7" id="58,57" /><path d="M 346.4 69.7 L 346.4 68.9 L 347.4 68.9" id="57,56" /><path d="M 346.4 69.7 L 346.4 70.4 L 349.3 70.4" id="57,55" /><path d="M 329.1 29.7 L 329.1 29.2 L 358.1 29.2" id="107,54" /><path d="M 364.2 30.3 L 364.2 29.9 L 364.9 29.9" id="105,53" /><path d="M 364.2 30.3 L 364.2 30.7 L 367.9 30.7" id="105,52" /><path d="M 312.3 38.1 L 312.3 31.5 L 365.8 31.5" id="106,51" /><path d="M 325.4 32.6 L 325.4 32.3 L 384.1 32.3" id="98,50" /><path d="M 325.4 32.6 L 325.4 33.0 L 369.4 33.0" id="98,49" /><path d="M 327.3 34.2 L 327.3 33.8 L 367.7 33.8" id="97,48" /><path d="M 327.3 34.2 L 327.3 34.6 L 365.9 34.6" id="97,47" /><path d="M 332.2 36.0 L 332.2 35.3 L 380.5 35.3" id="96,46" /><path d="M 341.3 36.7 L 341.3 36.1 L 367.4 36.1" id="92,45" /><path d="M 344.1 37.3 L 344.1 36.9 L 378.3 36.9" id="87,44" /><path d="M 344.1 37.3 L 344.1 37.7 L 366.2 37.7" id="87,43" /><path d="M 324.8 39.9 L 324.8 38.4 L 390.3 38.4" id="95,42" /><path d="M 334.3 39.8 L 334.3 39.2 L 372.6 39.2" id="86,41" /><path d="M 347.1 40.4 L 347.1 40.0 L 353.2 40.0" id="79,40" /><path d="M 347.1 40.4 L 347.1 40.7 L 359.3 40.7" id="79,39" /><path d="M 330.9 43.0 L 330.9 41.5 L 363.9 41.5" id="85,38" /><path d="M 341.4 42.7 L 341.4 42.3 L 350.7 42.3" id="73,37" /><path d="M 341.4 42.7 L 341.4 43.1 L 351.7 43.1" id="73,36" /><path d="M 346.8 44.4 L 346.8 43.8 L 355.0 43.8" id="70,35" /><path d="M 350.6 45.0 L 350.6 44.6 L 354.6 44.6" id="67,34" /><path d="M 350.6 45.0 L 350.6 45.4 L 356.4 45.4" id="67,33" /><path d="M 348.3 46.7 L 348.3 46.1 L 365.1 46.1" id="66,32" /><path d="M 354.2 47.3 L 354.2 46.9 L 355.9 46.9" id="62,31" /><path d="M 354.2 47.3 L 354.2 47.7 L 355.4 47.7" id="62,30" /><path d="M 347.2 49.0 L 347.2 48.5 L 353.8 48.5" id="65,29" /><path d="M 347.9 49.6 L 347.9 49.2 L 356.5 49.2" id="61,28" /><path d="M 347.9 49.6 L 347.9 50.0 L 352.9 50.0" id="61,27" /><path d="M 323.1 53.8 L 323.1 50.8 L 354.7 50.8" id="102,26" /><path d="M 353.2 52.1 L 353.2 51.5 L 390.2 51.5" id="90,25" /><path d="M 364.6 52.7 L 364.6 52.3 L 381.0 52.3" id="84,24" /><path d="M 364.6 52.7 L 364.6 53.1 L 381.4 53.1" id="84,23" /><path d="M 358.9 54.2 L 358.9 53.9 L 364.0 53.9" id="83,22" /><path d="M 358.9 54.2 L 358.9 54.6 L 363.7 54.6" id="83,21" /><path d="M 373.6 55.8 L 373.6 55.4 L 377.0 55.4" id="77,20" /><path d="M 373.6 55.8 L 373.6 56.2 L 377.0 56.2" id="77,19" /><path d="M 359.2 57.3 L 359.2 56.9 L 370.8 56.9" id="76,18" /><path d="M 359.2 57.3 L 359.2 57.7 L 369.2 57.7" id="76,17" /><path d="M 333.7 59.7 L 333.7 58.5 L 372.6 58.5" id="93,16" /><path d="M 351.5 59.6 L 351.5 59.3 L 362.4 59.3" id="81,15" /><path d="M 351.5 59.6 L 351.5 60.0 L 362.6 60.0" id="81,14" /><path d="M 355.7 61.2 L 355.7 60.8 L 374.7 60.8" id="75,13" /><path d="M 355.7 61.2 L 355.7 61.6 L 376.0 61.6" id="75,12" /><path d="M 341.1 63.5 L 341.1 62.3 L 361.4 62.3" id="74,11" /><path d="M 342.2 64.6 L 342.2 63.1 L 355.4 63.1" id="71,10" /><path d="M 344.6 64.5 L 344.6 63.9 L 360.7 63.9" id="64,9" /><path d="M 347.7 65.0 L 347.7 64.7 L 361.5 64.7" id="60,8" /><path d="M 347.7 65.0 L 347.7 65.4 L 356.9 65.4" id="60,7" /><path d="M 347.1 66.6 L 347.1 66.2 L 369.6 66.2" id="59,6" /><path d="M 347.1 66.6 L 347.1 67.0 L 355.0 67.0" id="59,5" /><path d="M 345.4 68.7 L 345.4 67.7 L 355.5 67.7" id="58,4" /><path d="M 347.4 68.9 L 347.4 68.5 L 355.6 68.5" id="56,3" /><path d="M 347.4 68.9 L 347.4 69.3 L 366.9 69.3" id="56,2" /><path d="M 349.3 70.4 L 349.3 70.1 L 354.0 70.1" id="55,1" /><path d="M 349.3 70.4 L 349.3 70.8 L 356.3 70.8" id="55,0" /></g><g class="toytree-Nodes" style="fill:rgb(100%,0%,0%);fill-opacity:1.0;stroke:None;stroke-width:1"><g id="node-0" transform="translate(356.289,70.833)"><circle r="2.5" /></g><g id="node-1" transform="translate(353.956,70.062)"><circle r="2.5" /></g><g id="node-2" transform="translate(366.942,69.290)"><circle r="2.5" /></g><g id="node-3" transform="translate(355.603,68.519)"><circle r="2.5" /></g><g id="node-4" transform="translate(355.455,67.747)"><circle r="2.5" /></g><g id="node-5" transform="translate(354.971,66.975)"><circle r="2.5" /></g><g id="node-6" transform="translate(369.604,66.204)"><circle r="2.5" /></g><g id="node-7" transform="translate(356.898,65.432)"><circle r="2.5" /></g><g id="node-8" transform="translate(361.549,64.660)"><circle r="2.5" /></g><g id="node-9" transform="translate(360.693,63.889)"><circle r="2.5" /></g><g id="node-10" transform="translate(355.383,63.117)"><circle r="2.5" /></g><g id="node-11" transform="translate(361.371,62.346)"><circle r="2.5" /></g><g id="node-12" transform="translate(375.982,61.574)"><circle r="2.5" /></g><g id="node-13" transform="translate(374.687,60.802)"><circle r="2.5" /></g><g id="node-14" transform="translate(362.560,60.031)"><circle r="2.5" /></g><g id="node-15" transform="translate(362.447,59.259)"><circle r="2.5" /></g><g id="node-16" transform="translate(372.551,58.488)"><circle r="2.5" /></g><g id="node-17" transform="translate(369.161,57.716)"><circle r="2.5" /></g><g id="node-18" transform="translate(370.797,56.944)"><circle r="2.5" /></g><g id="node-19" transform="translate(377.046,56.173)"><circle r="2.5" /></g><g id="node-20" transform="translate(376.978,55.401)"><circle r="2.5" /></g><g id="node-21" transform="translate(363.677,54.630)"><circle r="2.5" /></g><g id="node-22" transform="translate(363.988,53.858)"><circle r="2.5" /></g><g id="node-23" transform="translate(381.432,53.086)"><circle r="2.5" /></g><g id="node-24" transform="translate(380.962,52.315)"><circle r="2.5" /></g><g id="node-25" transform="translate(390.195,51.543)"><circle r="2.5" /></g><g id="node-26" transform="translate(354.743,50.772)"><circle r="2.5" /></g><g id="node-27" transform="translate(352.948,50.000)"><circle r="2.5" /></g><g id="node-28" transform="translate(356.508,49.228)"><circle r="2.5" /></g><g id="node-29" transform="translate(353.816,48.457)"><circle r="2.5" /></g><g id="node-30" transform="translate(355.395,47.685)"><circle r="2.5" /></g><g id="node-31" transform="translate(355.895,46.914)"><circle r="2.5" /></g><g id="node-32" transform="translate(365.056,46.142)"><circle r="2.5" /></g><g id="node-33" transform="translate(356.395,45.370)"><circle r="2.5" /></g><g id="node-34" transform="translate(354.622,44.599)"><circle r="2.5" /></g><g id="node-35" transform="translate(355.031,43.827)"><circle r="2.5" /></g><g id="node-36" transform="translate(351.665,43.056)"><circle r="2.5" /></g><g id="node-37" transform="translate(350.680,42.284)"><circle r="2.5" /></g><g id="node-38" transform="translate(363.867,41.512)"><circle r="2.5" /></g><g id="node-39" transform="translate(359.273,40.741)"><circle r="2.5" /></g><g id="node-40" transform="translate(353.236,39.969)"><circle r="2.5" /></g><g id="node-41" transform="translate(372.554,39.198)"><circle r="2.5" /></g><g id="node-42" transform="translate(390.263,38.426)"><circle r="2.5" /></g><g id="node-43" transform="translate(366.184,37.654)"><circle r="2.5" /></g><g id="node-44" transform="translate(378.265,36.883)"><circle r="2.5" /></g><g id="node-45" transform="translate(367.377,36.111)"><circle r="2.5" /></g><g id="node-46" transform="translate(380.538,35.340)"><circle r="2.5" /></g><g id="node-47" transform="translate(365.866,34.568)"><circle r="2.5" /></g><g id="node-48" transform="translate(367.745,33.796)"><circle r="2.5" /></g><g id="node-49" transform="translate(369.438,33.025)"><circle r="2.5" /></g><g id="node-50" transform="translate(384.147,32.253)"><circle r="2.5" /></g><g id="node-51" transform="translate(365.764,31.481)"><circle r="2.5" /></g><g id="node-52" transform="translate(367.860,30.710)"><circle r="2.5" /></g><g id="node-53" transform="translate(364.936,29.938)"><circle r="2.5" /></g><g id="node-54" transform="translate(358.070,29.167)"><circle r="2.5" /></g><g id="node-55" transform="translate(349.309,70.448)"><circle r="0.0" /></g><g id="node-56" transform="translate(347.374,68.904)"><circle r="0.0" /></g><g id="node-57" transform="translate(346.378,69.676)"><circle r="0.0" /></g><g id="node-58" transform="translate(345.404,68.711)"><circle r="0.0" /></g><g id="node-59" transform="translate(347.120,66.590)"><circle r="0.0" /></g><g id="node-60" transform="translate(347.654,65.046)"><circle r="0.0" /></g><g id="node-61" transform="translate(347.930,49.614)"><circle r="0.0" /></g><g id="node-62" transform="translate(354.244,47.299)"><circle r="0.0" /></g><g id="node-63" transform="translate(343.632,67.650)"><circle r="0.0" /></g><g id="node-64" transform="translate(344.564,64.468)"><circle r="0.0" /></g><g id="node-65" transform="translate(347.237,49.035)"><circle r="0.0" /></g><g id="node-66" transform="translate(348.260,46.721)"><circle r="0.0" /></g><g id="node-67" transform="translate(350.642,44.985)"><circle r="0.0" /></g><g id="node-68" transform="translate(343.132,66.059)"><circle r="0.0" /></g><g id="node-69" transform="translate(341.125,47.878)"><circle r="0.0" /></g><g id="node-70" transform="translate(346.768,44.406)"><circle r="0.0" /></g><g id="node-71" transform="translate(342.235,64.588)"><circle r="0.0" /></g><g id="node-72" transform="translate(336.308,46.142)"><circle r="0.0" /></g><g id="node-73" transform="translate(341.363,42.670)"><circle r="0.0" /></g><g id="node-74" transform="translate(341.129,63.467)"><circle r="0.0" /></g><g id="node-75" transform="translate(355.660,61.188)"><circle r="0.0" /></g><g id="node-76" transform="translate(359.186,57.330)"><circle r="0.0" /></g><g id="node-77" transform="translate(373.585,55.787)"><circle r="0.0" /></g><g id="node-78" transform="translate(331.502,44.406)"><circle r="0.0" /></g><g id="node-79" transform="translate(347.071,40.355)"><circle r="0.0" /></g><g id="node-80" transform="translate(337.811,62.328)"><circle r="0.0" /></g><g id="node-81" transform="translate(351.521,59.645)"><circle r="0.0" /></g><g id="node-82" transform="translate(358.012,56.559)"><circle r="0.0" /></g><g id="node-83" transform="translate(358.947,54.244)"><circle r="0.0" /></g><g id="node-84" transform="translate(364.628,52.701)"><circle r="0.0" /></g><g id="node-85" transform="translate(330.896,42.959)"><circle r="0.0" /></g><g id="node-86" transform="translate(334.297,39.776)"><circle r="0.0" /></g><g id="node-87" transform="translate(344.086,37.269)"><circle r="0.0" /></g><g id="node-88" transform="translate(335.584,60.986)"><circle r="0.0" /></g><g id="node-89" transform="translate(347.510,55.401)"><circle r="0.0" /></g><g id="node-90" transform="translate(353.240,52.122)"><circle r="0.0" /></g><g id="node-91" transform="translate(328.014,41.368)"><circle r="0.0" /></g><g id="node-92" transform="translate(341.322,36.690)"><circle r="0.0" /></g><g id="node-93" transform="translate(333.676,59.737)"><circle r="0.0" /></g><g id="node-94" transform="translate(334.244,53.762)"><circle r="0.0" /></g><g id="node-95" transform="translate(324.817,39.897)"><circle r="0.0" /></g><g id="node-96" transform="translate(332.199,36.015)"><circle r="0.0" /></g><g id="node-97" transform="translate(327.268,34.182)"><circle r="0.0" /></g><g id="node-98" transform="translate(325.382,32.639)"><circle r="0.0" /></g><g id="node-99" transform="translate(332.274,56.749)"><circle r="0.0" /></g><g id="node-100" transform="translate(322.420,37.956)"><circle r="0.0" /></g><g id="node-101" transform="translate(321.784,33.410)"><circle r="0.0" /></g><g id="node-102" transform="translate(323.053,53.760)"><circle r="0.0" /></g><g id="node-103" transform="translate(320.898,35.683)"><circle r="0.0" /></g><g id="node-104" transform="translate(318.750,44.722)"><circle r="0.0" /></g><g id="node-105" transform="translate(364.202,30.324)"><circle r="0.0" /></g><g id="node-106" transform="translate(312.286,38.102)"><circle r="0.0" /></g><g id="node-107" transform="translate(329.068,29.745)"><circle r="0.0" /></g><g id="node-108" transform="translate(305.000,33.923)"><circle r="0.0" /></g></g></g></g></g><g class="toyplot-coordinates-Cartesian" id="t35a0f50969374beb9566b841a85cef3d"><clipPath id="t26ddf4ce1e4840b9b0b25f7500389fa0"><rect x="435.0" y="15.0" width="110.0" height="70.0" /></clipPath><g clip-path="url(#t26ddf4ce1e4840b9b0b25f7500389fa0)"><g class="toytree-mark-Toytree" id="t2bcf52dd439b4561a1841c1ee3ad0e96"><g class="toytree-Edges" style="fill:none;stroke:rgb(14.9%,14.9%,14.9%);stroke-linecap:round;stroke-opacity:1;stroke-width:0.5"><path d="M 445.0 42.0 L 445.0 31.8 L 449.8 31.8" id="108,107" /><path d="M 445.0 42.0 L 445.0 52.3 L 446.4 52.3" id="108,106" /><path d="M 449.8 31.8 L 449.8 29.7 L 491.9 29.7" id="107,105" /><path d="M 449.8 31.8 L 449.8 33.9 L 449.8 33.9" id="107,104" /><path d="M 446.4 52.3 L 446.4 54.5 L 455.5 54.5" id="106,103" /><path d="M 491.9 29.7 L 491.9 30.3 L 517.3 30.3" id="105,102" /><path d="M 449.8 33.9 L 449.8 31.9 L 471.7 31.9" id="104,101" /><path d="M 449.8 33.9 L 449.8 35.9 L 455.0 35.9" id="104,100" /><path d="M 455.5 54.5 L 455.5 58.3 L 469.8 58.3" id="103,99" /><path d="M 455.0 35.9 L 455.0 33.4 L 461.0 33.4" id="100,98" /><path d="M 455.0 35.9 L 455.0 38.3 L 467.2 38.3" id="100,97" /><path d="M 469.8 58.3 L 469.8 53.6 L 471.2 53.6" id="99,96" /><path d="M 469.8 58.3 L 469.8 63.0 L 473.5 63.0" id="99,95" /><path d="M 467.2 38.3 L 467.2 35.8 L 481.5 35.8" id="97,94" /><path d="M 467.2 38.3 L 467.2 40.8 L 469.5 40.8" id="97,93" /><path d="M 471.2 53.6 L 471.2 55.6 L 476.1 55.6" id="96,92" /><path d="M 473.5 63.0 L 473.5 61.2 L 503.1 61.2" id="95,91" /><path d="M 473.5 63.0 L 473.5 64.8 L 478.6 64.8" id="95,90" /><path d="M 481.5 35.8 L 481.5 35.0 L 488.2 35.0" id="94,89" /><path d="M 481.5 35.8 L 481.5 36.7 L 499.9 36.7" id="94,88" /><path d="M 469.5 40.8 L 469.5 38.8 L 476.0 38.8" id="93,87" /><path d="M 469.5 40.8 L 469.5 42.8 L 477.7 42.8" id="93,86" /><path d="M 476.1 55.6 L 476.1 53.6 L 484.4 53.6" id="92,85" /><path d="M 476.1 55.6 L 476.1 57.7 L 488.9 57.7" id="92,84" /><path d="M 478.6 64.8 L 478.6 63.0 L 481.9 63.0" id="90,83" /><path d="M 478.6 64.8 L 478.6 66.5 L 484.0 66.5" id="90,82" /><path d="M 499.9 36.7 L 499.9 37.3 L 507.1 37.3" id="88,81" /><path d="M 477.7 42.8 L 477.7 40.5 L 492.6 40.5" id="86,80" /><path d="M 477.7 42.8 L 477.7 45.0 L 481.9 45.0" id="86,79" /><path d="M 484.4 53.6 L 484.4 52.7 L 498.7 52.7" id="85,78" /><path d="M 484.4 53.6 L 484.4 54.4 L 499.9 54.4" id="85,77" /><path d="M 488.9 57.7 L 488.9 56.6 L 499.4 56.6" id="84,76" /><path d="M 488.9 57.7 L 488.9 58.9 L 499.3 58.9" id="84,75" /><path d="M 481.9 63.0 L 481.9 63.7 L 494.0 63.7" id="83,74" /><path d="M 484.0 66.5 L 484.0 67.7 L 486.5 67.7" id="82,73" /><path d="M 492.6 40.5 L 492.6 41.1 L 501.0 41.1" id="80,72" /><path d="M 481.9 45.0 L 481.9 43.0 L 492.6 43.0" id="79,71" /><path d="M 481.9 45.0 L 481.9 47.1 L 492.4 47.1" id="79,70" /><path d="M 499.9 54.4 L 499.9 55.0 L 505.4 55.0" id="77,69" /><path d="M 499.3 58.9 L 499.3 58.1 L 507.4 58.1" id="75,68" /><path d="M 499.3 58.9 L 499.3 59.6 L 506.2 59.6" id="75,67" /><path d="M 494.0 63.7 L 494.0 64.3 L 495.7 64.3" id="74,66" /><path d="M 486.5 67.7 L 486.5 66.6 L 489.4 66.6" id="73,65" /><path d="M 486.5 67.7 L 486.5 68.7 L 490.1 68.7" id="73,64" /><path d="M 492.6 43.0 L 492.6 43.6 L 500.1 43.6" id="71,63" /><path d="M 492.4 47.1 L 492.4 45.9 L 504.9 45.9" id="70,62" /><path d="M 492.4 47.1 L 492.4 48.3 L 497.5 48.3" id="70,61" /><path d="M 490.1 68.7 L 490.1 69.7 L 493.3 69.7" id="64,60" /><path d="M 500.1 43.6 L 500.1 44.2 L 506.3 44.2" id="63,59" /><path d="M 504.9 45.9 L 504.9 46.5 L 508.0 46.5" id="62,58" /><path d="M 497.5 48.3 L 497.5 48.8 L 501.5 48.8" id="61,57" /><path d="M 493.3 69.7 L 493.3 68.9 L 497.5 68.9" id="60,56" /><path d="M 493.3 69.7 L 493.3 70.4 L 497.1 70.4" id="60,55" /><path d="M 491.9 29.7 L 491.9 29.2 L 514.7 29.2" id="105,54" /><path d="M 517.3 30.3 L 517.3 29.9 L 518.4 29.9" id="102,53" /><path d="M 517.3 30.3 L 517.3 30.7 L 519.4 30.7" id="102,52" /><path d="M 471.7 31.9 L 471.7 31.5 L 482.6 31.5" id="101,51" /><path d="M 471.7 31.9 L 471.7 32.3 L 495.0 32.3" id="101,50" /><path d="M 461.0 33.4 L 461.0 33.0 L 517.0 33.0" id="98,49" /><path d="M 461.0 33.4 L 461.0 33.8 L 506.1 33.8" id="98,48" /><path d="M 488.2 35.0 L 488.2 34.6 L 496.5 34.6" id="89,47" /><path d="M 488.2 35.0 L 488.2 35.3 L 493.1 35.3" id="89,46" /><path d="M 499.9 36.7 L 499.9 36.1 L 519.3 36.1" id="88,45" /><path d="M 507.1 37.3 L 507.1 36.9 L 507.6 36.9" id="81,44" /><path d="M 507.1 37.3 L 507.1 37.7 L 508.8 37.7" id="81,43" /><path d="M 476.0 38.8 L 476.0 38.4 L 496.8 38.4" id="87,42" /><path d="M 476.0 38.8 L 476.0 39.2 L 499.2 39.2" id="87,41" /><path d="M 492.6 40.5 L 492.6 40.0 L 495.9 40.0" id="80,40" /><path d="M 501.0 41.1 L 501.0 40.7 L 502.7 40.7" id="72,39" /><path d="M 501.0 41.1 L 501.0 41.5 L 503.5 41.5" id="72,38" /><path d="M 492.6 43.0 L 492.6 42.3 L 508.0 42.3" id="71,37" /><path d="M 500.1 43.6 L 500.1 43.1 L 515.9 43.1" id="63,36" /><path d="M 506.3 44.2 L 506.3 43.8 L 519.4 43.8" id="59,35" /><path d="M 506.3 44.2 L 506.3 44.6 L 516.7 44.6" id="59,34" /><path d="M 504.9 45.9 L 504.9 45.4 L 507.0 45.4" id="62,33" /><path d="M 508.0 46.5 L 508.0 46.1 L 509.3 46.1" id="58,32" /><path d="M 508.0 46.5 L 508.0 46.9 L 509.6 46.9" id="58,31" /><path d="M 497.5 48.3 L 497.5 47.7 L 503.5 47.7" id="61,30" /><path d="M 501.5 48.8 L 501.5 48.5 L 508.2 48.5" id="57,29" /><path d="M 501.5 48.8 L 501.5 49.2 L 508.8 49.2" id="57,28" /><path d="M 446.4 52.3 L 446.4 50.0 L 491.3 50.0" id="106,27" /><path d="M 455.5 54.5 L 455.5 50.8 L 508.7 50.8" id="103,26" /><path d="M 471.2 53.6 L 471.2 51.5 L 502.0 51.5" id="96,25" /><path d="M 498.7 52.7 L 498.7 52.3 L 503.1 52.3" id="78,24" /><path d="M 498.7 52.7 L 498.7 53.1 L 501.0 53.1" id="78,23" /><path d="M 499.9 54.4 L 499.9 53.9 L 523.7 53.9" id="77,22" /><path d="M 505.4 55.0 L 505.4 54.6 L 516.0 54.6" id="69,21" /><path d="M 505.4 55.0 L 505.4 55.4 L 515.3 55.4" id="69,20" /><path d="M 499.4 56.6 L 499.4 56.2 L 500.8 56.2" id="76,19" /><path d="M 499.4 56.6 L 499.4 56.9 L 504.7 56.9" id="76,18" /><path d="M 507.4 58.1 L 507.4 57.7 L 510.6 57.7" id="68,17" /><path d="M 507.4 58.1 L 507.4 58.5 L 510.5 58.5" id="68,16" /><path d="M 506.2 59.6 L 506.2 59.3 L 510.8 59.3" id="67,15" /><path d="M 506.2 59.6 L 506.2 60.0 L 513.1 60.0" id="67,14" /><path d="M 503.1 61.2 L 503.1 60.8 L 513.8 60.8" id="91,13" /><path d="M 503.1 61.2 L 503.1 61.6 L 530.3 61.6" id="91,12" /><path d="M 481.9 63.0 L 481.9 62.3 L 496.8 62.3" id="83,11" /><path d="M 494.0 63.7 L 494.0 63.1 L 498.9 63.1" id="74,10" /><path d="M 495.7 64.3 L 495.7 63.9 L 502.8 63.9" id="66,9" /><path d="M 495.7 64.3 L 495.7 64.7 L 500.9 64.7" id="66,8" /><path d="M 484.0 66.5 L 484.0 65.4 L 497.3 65.4" id="82,7" /><path d="M 489.4 66.6 L 489.4 66.2 L 500.7 66.2" id="65,6" /><path d="M 489.4 66.6 L 489.4 67.0 L 508.1 67.0" id="65,5" /><path d="M 490.1 68.7 L 490.1 67.7 L 507.5 67.7" id="64,4" /><path d="M 497.5 68.9 L 497.5 68.5 L 501.4 68.5" id="56,3" /><path d="M 497.5 68.9 L 497.5 69.3 L 502.8 69.3" id="56,2" /><path d="M 497.1 70.4 L 497.1 70.1 L 503.5 70.1" id="55,1" /><path d="M 497.1 70.4 L 497.1 70.8 L 499.9 70.8" id="55,0" /></g><g class="toytree-Nodes" style="fill:rgb(100%,0%,0%);fill-opacity:1.0;stroke:None;stroke-width:1"><g id="node-0" transform="translate(499.866,70.833)"><circle r="2.5" /></g><g id="node-1" transform="translate(503.505,70.062)"><circle r="2.5" /></g><g id="node-2" transform="translate(502.847,69.290)"><circle r="2.5" /></g><g id="node-3" transform="translate(501.409,68.519)"><circle r="2.5" /></g><g id="node-4" transform="translate(507.493,67.747)"><circle r="2.5" /></g><g id="node-5" transform="translate(508.134,66.975)"><circle r="2.5" /></g><g id="node-6" transform="translate(500.687,66.204)"><circle r="2.5" /></g><g id="node-7" transform="translate(497.317,65.432)"><circle r="2.5" /></g><g id="node-8" transform="translate(500.874,64.660)"><circle r="2.5" /></g><g id="node-9" transform="translate(502.835,63.889)"><circle r="2.5" /></g><g id="node-10" transform="translate(498.904,63.117)"><circle r="2.5" /></g><g id="node-11" transform="translate(496.832,62.346)"><circle r="2.5" /></g><g id="node-12" transform="translate(530.263,61.574)"><circle r="2.5" /></g><g id="node-13" transform="translate(513.828,60.802)"><circle r="2.5" /></g><g id="node-14" transform="translate(513.137,60.031)"><circle r="2.5" /></g><g id="node-15" transform="translate(510.828,59.259)"><circle r="2.5" /></g><g id="node-16" transform="translate(510.515,58.488)"><circle r="2.5" /></g><g id="node-17" transform="translate(510.598,57.716)"><circle r="2.5" /></g><g id="node-18" transform="translate(504.707,56.944)"><circle r="2.5" /></g><g id="node-19" transform="translate(500.840,56.173)"><circle r="2.5" /></g><g id="node-20" transform="translate(515.314,55.401)"><circle r="2.5" /></g><g id="node-21" transform="translate(515.996,54.630)"><circle r="2.5" /></g><g id="node-22" transform="translate(523.729,53.858)"><circle r="2.5" /></g><g id="node-23" transform="translate(501.001,53.086)"><circle r="2.5" /></g><g id="node-24" transform="translate(503.057,52.315)"><circle r="2.5" /></g><g id="node-25" transform="translate(501.979,51.543)"><circle r="2.5" /></g><g id="node-26" transform="translate(508.732,50.772)"><circle r="2.5" /></g><g id="node-27" transform="translate(491.285,50.000)"><circle r="2.5" /></g><g id="node-28" transform="translate(508.779,49.228)"><circle r="2.5" /></g><g id="node-29" transform="translate(508.157,48.457)"><circle r="2.5" /></g><g id="node-30" transform="translate(503.514,47.685)"><circle r="2.5" /></g><g id="node-31" transform="translate(509.581,46.914)"><circle r="2.5" /></g><g id="node-32" transform="translate(509.315,46.142)"><circle r="2.5" /></g><g id="node-33" transform="translate(507.017,45.370)"><circle r="2.5" /></g><g id="node-34" transform="translate(516.650,44.599)"><circle r="2.5" /></g><g id="node-35" transform="translate(519.424,43.827)"><circle r="2.5" /></g><g id="node-36" transform="translate(515.890,43.056)"><circle r="2.5" /></g><g id="node-37" transform="translate(507.977,42.284)"><circle r="2.5" /></g><g id="node-38" transform="translate(503.499,41.512)"><circle r="2.5" /></g><g id="node-39" transform="translate(502.665,40.741)"><circle r="2.5" /></g><g id="node-40" transform="translate(495.931,39.969)"><circle r="2.5" /></g><g id="node-41" transform="translate(499.218,39.198)"><circle r="2.5" /></g><g id="node-42" transform="translate(496.845,38.426)"><circle r="2.5" /></g><g id="node-43" transform="translate(508.751,37.654)"><circle r="2.5" /></g><g id="node-44" transform="translate(507.601,36.883)"><circle r="2.5" /></g><g id="node-45" transform="translate(519.332,36.111)"><circle r="2.5" /></g><g id="node-46" transform="translate(493.139,35.340)"><circle r="2.5" /></g><g id="node-47" transform="translate(496.494,34.568)"><circle r="2.5" /></g><g id="node-48" transform="translate(506.094,33.796)"><circle r="2.5" /></g><g id="node-49" transform="translate(517.025,33.025)"><circle r="2.5" /></g><g id="node-50" transform="translate(494.960,32.253)"><circle r="2.5" /></g><g id="node-51" transform="translate(482.647,31.481)"><circle r="2.5" /></g><g id="node-52" transform="translate(519.356,30.710)"><circle r="2.5" /></g><g id="node-53" transform="translate(518.353,29.938)"><circle r="2.5" /></g><g id="node-54" transform="translate(514.714,29.167)"><circle r="2.5" /></g><g id="node-55" transform="translate(497.073,70.448)"><circle r="0.0" /></g><g id="node-56" transform="translate(497.498,68.904)"><circle r="0.0" /></g><g id="node-57" transform="translate(501.484,48.843)"><circle r="0.0" /></g><g id="node-58" transform="translate(507.997,46.528)"><circle r="0.0" /></g><g id="node-59" transform="translate(506.281,44.213)"><circle r="0.0" /></g><g id="node-60" transform="translate(493.301,69.676)"><circle r="0.0" /></g><g id="node-61" transform="translate(497.505,48.264)"><circle r="0.0" /></g><g id="node-62" transform="translate(504.879,45.949)"><circle r="0.0" /></g><g id="node-63" transform="translate(500.095,43.634)"><circle r="0.0" /></g><g id="node-64" transform="translate(490.078,68.711)"><circle r="0.0" /></g><g id="node-65" transform="translate(489.445,66.590)"><circle r="0.0" /></g><g id="node-66" transform="translate(495.696,64.275)"><circle r="0.0" /></g><g id="node-67" transform="translate(506.232,59.645)"><circle r="0.0" /></g><g id="node-68" transform="translate(507.397,58.102)"><circle r="0.0" /></g><g id="node-69" transform="translate(505.441,55.015)"><circle r="0.0" /></g><g id="node-70" transform="translate(492.370,47.106)"><circle r="0.0" /></g><g id="node-71" transform="translate(492.571,42.959)"><circle r="0.0" /></g><g id="node-72" transform="translate(500.983,41.127)"><circle r="0.0" /></g><g id="node-73" transform="translate(486.472,67.650)"><circle r="0.0" /></g><g id="node-74" transform="translate(494.030,63.696)"><circle r="0.0" /></g><g id="node-75" transform="translate(499.315,58.873)"><circle r="0.0" /></g><g id="node-76" transform="translate(499.403,56.559)"><circle r="0.0" /></g><g id="node-77" transform="translate(499.892,54.437)"><circle r="0.0" /></g><g id="node-78" transform="translate(498.734,52.701)"><circle r="0.0" /></g><g id="node-79" transform="translate(481.858,45.033)"><circle r="0.0" /></g><g id="node-80" transform="translate(492.619,40.548)"><circle r="0.0" /></g><g id="node-81" transform="translate(507.140,37.269)"><circle r="0.0" /></g><g id="node-82" transform="translate(483.962,66.541)"><circle r="0.0" /></g><g id="node-83" transform="translate(481.943,63.021)"><circle r="0.0" /></g><g id="node-84" transform="translate(488.938,57.716)"><circle r="0.0" /></g><g id="node-85" transform="translate(484.373,53.569)"><circle r="0.0" /></g><g id="node-86" transform="translate(477.731,42.790)"><circle r="0.0" /></g><g id="node-87" transform="translate(475.999,38.812)"><circle r="0.0" /></g><g id="node-88" transform="translate(499.947,36.690)"><circle r="0.0" /></g><g id="node-89" transform="translate(488.223,34.954)"><circle r="0.0" /></g><g id="node-90" transform="translate(478.600,64.781)"><circle r="0.0" /></g><g id="node-91" transform="translate(503.052,61.188)"><circle r="0.0" /></g><g id="node-92" transform="translate(476.075,55.642)"><circle r="0.0" /></g><g id="node-93" transform="translate(469.458,40.801)"><circle r="0.0" /></g><g id="node-94" transform="translate(481.535,35.822)"><circle r="0.0" /></g><g id="node-95" transform="translate(473.463,62.985)"><circle r="0.0" /></g><g id="node-96" transform="translate(471.201,53.593)"><circle r="0.0" /></g><g id="node-97" transform="translate(467.220,38.311)"><circle r="0.0" /></g><g id="node-98" transform="translate(461.025,33.410)"><circle r="0.0" /></g><g id="node-99" transform="translate(469.825,58.289)"><circle r="0.0" /></g><g id="node-100" transform="translate(455.001,35.861)"><circle r="0.0" /></g><g id="node-101" transform="translate(471.683,31.867)"><circle r="0.0" /></g><g id="node-102" transform="translate(517.263,30.324)"><circle r="0.0" /></g><g id="node-103" transform="translate(455.545,54.530)"><circle r="0.0" /></g><g id="node-104" transform="translate(449.824,33.864)"><circle r="0.0" /></g><g id="node-105" transform="translate(491.860,29.745)"><circle r="0.0" /></g><g id="node-106" transform="translate(446.386,52.265)"><circle r="0.0" /></g><g id="node-107" transform="translate(449.755,31.805)"><circle r="0.0" /></g><g id="node-108" transform="translate(445.000,42.035)"><circle r="0.0" /></g></g></g></g></g></svg>