<svg class="toyplot-canvas-Canvas" xmlns:toyplot="http://www.sandia.gov/toyplot" xmlns:xlink="http://www.w3.org/1999/xlink" xmlns="http://www.w3.org/2000/svg" width="560.0px" height="100.0px" viewBox="0 0 560.0 100.0" preserveAspectRatio="xMidYMid meet" style="background-color:transparent;border-color:#292724;border-style:none;border-width:1.0;fill:rgb(16.1%,15.3%,14.1%);fill-opacity:1.0;font-family:Helvetica;font-size:12px;opacity:1.0;stroke:rgb(16.1%,15.3%,14.1%);stroke-opacity:1.0;stroke-width:1.0" id="tdb08928a8da4495aa6eede105ccca347"><g class="toyplot-coordinates-Cartesian" id="tdc2aee499e964844ab2eb546394b810e"><clipPath id="t557cbb0f666d4ac78ff955fe1cf2ca26"><rect x="15.0" y="15.0" width="110.0" height="70.0" /></clipPath><g clip-path="url(#t557cbb0f666d4ac78ff955fe1cf2ca26)"><g class="toytree-mark-Toytree" id="t2d4127dd992d40e8b25fb1832d01b93f"><g class="toytree-Edges" style="fill:none;stroke:rgb(14.9%,14.9%,14.9%);stroke-linecap:round;stroke-opacity:1;stroke-width:0.5"><path d="M 25.0 30.9 L 25.0 32.6 L 39.9 32.6" id="68,67" /><path d="M 39.9 32.6 L 39.9 34.8 L 42.9 34.8" id="67,66" /><path d="M 42.9 34.8 L 42.9 38.0 L 51.3 38.0" id="66,65" /><path d="M 51.3 38.0 L 51.3 33.5 L 60.7 33.5" id="65,64" /><path d="M 51.3 38.0 L 51.3 42.6 L 55.3 42.6" id="65,63" /><path d="M 55.3 42.6 L 55.3 36.9 L 57.5 36.9" id="63,62" /><path d="M 55.3 42.6 L 55.3 48.2 L 61.8 48.2" id="63,61" /><path d="M 57.5 36.9 L 57.5 38.5 L 62.4 38.5" id="62,60" /><path d="M 61.8 48.2 L 61.8 53.8 L 73.6 53.8" id="61,59" /><path d="M 62.4 38.5 L 62.4 37.1 L 64.7 37.1" id="60,58" /><path d="M 62.4 38.5 L 62.4 39.9 L 66.3 39.9" id="60,57" /><path d="M 73.6 53.8 L 73.6 47.3 L 77.3 47.3" id="59,56" /><path d="M 73.6 53.8 L 73.6 60.3 L 78.1 60.3" id="59,55" /><path d="M 66.3 39.9 L 66.3 40.8 L 81.6 40.8" id="57,54" /><path d="M 77.3 47.3 L 77.3 44.8 L 80.4 44.8" id="56,53" /><path d="M 77.3 47.3 L 77.3 49.8 L 78.8 49.8" id="56,52" /><path d="M 78.1 60.3 L 78.1 58.3 L 79.8 58.3" id="55,51" /><path d="M 78.1 60.3 L 78.1 62.3 L 80.2 62.3" id="55,50" /><path d="M 80.4 44.8 L 80.4 45.7 L 80.9 45.7" id="53,49" /><path d="M 78.8 49.8 L 78.8 52.0 L 81.1 52.0" id="52,48" /><path d="M 79.8 58.3 L 79.8 59.2 L 80.9 59.2" id="51,47" /><path d="M 80.2 62.3 L 80.2 63.5 L 81.4 63.5" id="50,46" /><path d="M 81.1 52.0 L 81.1 49.7 L 81.3 49.7" id="48,45" /><path d="M 81.1 52.0 L 81.1 54.3 L 81.8 54.3" id="48,44" /><path d="M 81.4 63.5 L 81.4 64.7 L 81.4 64.7" id="46,43" /><path d="M 81.3 49.7 L 81.3 50.6 L 81.3 50.6" id="45,42" /><path d="M 81.8 54.3 L 81.8 53.1 L 81.8 53.1" id="44,41" /><path d="M 81.8 54.3 L 81.8 55.5 L 81.8 55.5" id="44,40" /><path d="M 81.4 64.7 L 81.4 65.9 L 81.4 65.9" id="43,39" /><path d="M 81.4 65.9 L 81.4 67.1 L 81.4 67.1" id="39,38" /><path d="M 81.4 67.1 L 81.4 68.2 L 81.4 68.2" id="38,37" /><path d="M 81.4 68.2 L 81.4 69.3 L 81.4 69.3" id="37,36" /><path d="M 81.4 69.3 L 81.4 70.2 L 81.4 70.2" id="36,35" /><path d="M 25.0 30.9 L 25.0 29.2 L 85.0 29.2" id="68,34" /><path d="M 39.9 32.6 L 39.9 30.4 L 110.3 30.4" id="67,33" /><path d="M 42.9 34.8 L 42.9 31.6 L 87.7 31.6" id="66,32" /><path d="M 60.7 33.5 L 60.7 32.8 L 93.8 32.8" id="64,31" /><path d="M 60.7 33.5 L 60.7 34.1 L 83.4 34.1" id="64,30" /><path d="M 57.5 36.9 L 57.5 35.3 L 77.1 35.3" id="62,29" /><path d="M 64.7 37.1 L 64.7 36.5 L 97.0 36.5" id="58,28" /><path d="M 64.7 37.1 L 64.7 37.7 L 96.9 37.7" id="58,27" /><path d="M 66.3 39.9 L 66.3 39.0 L 77.7 39.0" id="57,26" /><path d="M 81.6 40.8 L 81.6 40.2 L 90.2 40.2" id="54,25" /><path d="M 81.6 40.8 L 81.6 41.4 L 91.9 41.4" id="54,24" /><path d="M 61.8 48.2 L 61.8 42.6 L 81.3 42.6" id="61,23" /><path d="M 80.4 44.8 L 80.4 43.9 L 83.2 43.9" id="53,22" /><path d="M 80.9 45.7 L 80.9 45.1 L 81.9 45.1" id="49,21" /><path d="M 80.9 45.7 L 80.9 46.3 L 82.9 46.3" id="49,20" /><path d="M 78.8 49.8 L 78.8 47.5 L 82.4 47.5" id="52,19" /><path d="M 81.3 49.7 L 81.3 48.8 L 81.3 48.8" id="45,18" /><path d="M 81.3 50.6 L 81.3 50.0 L 81.3 50.0" id="42,17" /><path d="M 81.3 50.6 L 81.3 51.2 L 81.3 51.2" id="42,16" /><path d="M 81.8 53.1 L 81.8 52.5 L 81.8 52.5" id="41,15" /><path d="M 81.8 53.1 L 81.8 53.7 L 81.8 53.7" id="41,14" /><path d="M 81.8 55.5 L 81.8 54.9 L 81.8 54.9" id="40,13" /><path d="M 81.8 55.5 L 81.8 56.1 L 81.8 56.1" id="40,12" /><path d="M 79.8 58.3 L 79.8 57.4 L 80.8 57.4" id="51,11" /><path d="M 80.9 59.2 L 80.9 58.6 L 82.7 58.6" id="47,10" /><path d="M 80.9 59.2 L 80.9 59.8 L 81.5 59.8" id="47,9" /><path d="M 80.2 62.3 L 80.2 61.0 L 82.1 61.0" id="50,8" /><path d="M 81.4 63.5 L 81.4 62.3 L 81.4 62.3" id="46,7" /><path d="M 81.4 64.7 L 81.4 63.5 L 81.4 63.5" id="43,6" /><path d="M 81.4 65.9 L 81.4 64.7 L 81.4 64.7" id="39,5" /><path d="M 81.4 67.1 L 81.4 65.9 L 81.4 65.9" id="38,4" /><path d="M 81.4 68.2 L 81.4 67.2 L 81.4 67.2" id="37,3" /><path d="M 81.4 69.3 L 81.4 68.4 L 81.4 68.4" id="36,2" /><path d="M 81.4 70.2 L 81.4 69.6 L 81.4 69.6" id="35,1" /><path d="M 81.4 70.2 L 81.4 70.8 L 81.4 70.8" id="35,0" /></g><g class="toytree-Nodes" style="fill:rgb(100%,0%,0%);fill-opacity:1.0;stroke:None;stroke-width:1"><g id="node-0" transform="translate(81.383,70.833)"><circle r="2.5" /></g><g id="node-1" transform="translate(81.383,69.608)"><circle r="2.5" /></g><g id="node-2" transform="translate(81.383,68.382)"><circle r="2.5" /></g><g id="node-3" transform="translate(81.383,67.157)"><circle r="2.5" /></g><g id="node-4" transform="translate(81.383,65.931)"><circle r="2.5" /></g><g id="node-5" transform="translate(81.383,64.706)"><circle r="2.5" /></g><g id="node-6" transform="translate(81.383,63.480)"><circle r="2.5" /></g><g id="node-7" transform="translate(81.383,62.255)"><circle r="2.5" /></g><g id="node-8" transform="translate(82.140,61.029)"><circle r="2.5" /></g><g id="node-9" transform="translate(81.478,59.804)"><circle r="2.5" /></g><g id="node-10" transform="translate(82.650,58.578)"><circle r="2.5" /></g><g id="node-11" transform="translate(80.815,57.353)"><circle r="2.5" /></g><g id="node-12" transform="translate(81.781,56.127)"><circle r="2.5" /></g><g id="node-13" transform="translate(81.781,54.902)"><circle r="2.5" /></g><g id="node-14" transform="translate(81.781,53.676)"><circle r="2.5" /></g><g id="node-15" transform="translate(81.781,52.451)"><circle r="2.5" /></g><g id="node-16" transform="translate(81.281,51.225)"><circle r="2.5" /></g><g id="node-17" transform="translate(81.281,50.000)"><circle r="2.5" /></g><g id="node-18" transform="translate(81.281,48.775)"><circle r="2.5" /></g><g id="node-19" transform="translate(82.367,47.549)"><circle r="2.5" /></g><g id="node-20" transform="translate(82.923,46.324)"><circle r="2.5" /></g><g id="node-21" transform="translate(81.857,45.098)"><circle r="2.5" /></g><g id="node-22" transform="translate(83.211,43.873)"><circle r="2.5" /></g><g id="node-23" transform="translate(81.309,42.647)"><circle r="2.5" /></g><g id="node-24" transform="translate(91.917,41.422)"><circle r="2.5" /></g><g id="node-25" transform="translate(90.199,40.196)"><circle r="2.5" /></g><g id="node-26" transform="translate(77.677,38.971)"><circle r="2.5" /></g><g id="node-27" transform="translate(96.923,37.745)"><circle r="2.5" /></g><g id="node-28" transform="translate(97.015,36.520)"><circle r="2.5" /></g><g id="node-29" transform="translate(77.147,35.294)"><circle r="2.5" /></g><g id="node-30" transform="translate(83.359,34.069)"><circle r="2.5" /></g><g id="node-31" transform="translate(93.788,32.843)"><circle r="2.5" /></g><g id="node-32" transform="translate(87.679,31.618)"><circle r="2.5" /></g><g id="node-33" transform="translate(110.263,30.392)"><circle r="2.5" /></g><g id="node-34" transform="translate(85.015,29.167)"><circle r="2.5" /></g><g id="node-35" transform="translate(81.383,70.221)"><circle r="0.0" /></g><g id="node-36" transform="translate(81.383,69.301)"><circle r="0.0" /></g><g id="node-37" transform="translate(81.383,68.229)"><circle r="0.0" /></g><g id="node-38" transform="translate(81.383,67.080)"><circle r="0.0" /></g><g id="node-39" transform="translate(81.383,65.893)"><circle r="0.0" /></g><g id="node-40" transform="translate(81.781,55.515)"><circle r="0.0" /></g><g id="node-41" transform="translate(81.781,53.064)"><circle r="0.0" /></g><g id="node-42" transform="translate(81.281,50.613)"><circle r="0.0" /></g><g id="node-43" transform="translate(81.383,64.687)"><circle r="0.0" /></g><g id="node-44" transform="translate(81.781,54.289)"><circle r="0.0" /></g><g id="node-45" transform="translate(81.281,49.694)"><circle r="0.0" /></g><g id="node-46" transform="translate(81.383,63.471)"><circle r="0.0" /></g><g id="node-47" transform="translate(80.917,59.191)"><circle r="0.0" /></g><g id="node-48" transform="translate(81.149,51.991)"><circle r="0.0" /></g><g id="node-49" transform="translate(80.861,45.711)"><circle r="0.0" /></g><g id="node-50" transform="translate(80.234,62.250)"><circle r="0.0" /></g><g id="node-51" transform="translate(79.783,58.272)"><circle r="0.0" /></g><g id="node-52" transform="translate(78.827,49.770)"><circle r="0.0" /></g><g id="node-53" transform="translate(80.443,44.792)"><circle r="0.0" /></g><g id="node-54" transform="translate(81.628,40.809)"><circle r="0.0" /></g><g id="node-55" transform="translate(78.141,60.261)"><circle r="0.0" /></g><g id="node-56" transform="translate(77.285,47.281)"><circle r="0.0" /></g><g id="node-57" transform="translate(66.336,39.890)"><circle r="0.0" /></g><g id="node-58" transform="translate(64.727,37.132)"><circle r="0.0" /></g><g id="node-59" transform="translate(73.640,53.771)"><circle r="0.0" /></g><g id="node-60" transform="translate(62.426,38.511)"><circle r="0.0" /></g><g id="node-61" transform="translate(61.842,48.209)"><circle r="0.0" /></g><g id="node-62" transform="translate(57.512,36.903)"><circle r="0.0" /></g><g id="node-63" transform="translate(55.299,42.556)"><circle r="0.0" /></g><g id="node-64" transform="translate(60.665,33.456)"><circle r="0.0" /></g><g id="node-65" transform="translate(51.293,38.006)"><circle r="0.0" /></g><g id="node-66" transform="translate(42.920,34.812)"><circle r="0.0" /></g><g id="node-67" transform="translate(39.890,32.602)"><circle r="0.0" /></g><g id="node-68" transform="translate(25.000,30.884)"><circle r="0.0" /></g></g></g></g></g><g class="toyplot-coordinates-Cartesian" id="t505d9c4028f34756be958fcebe6c06de"><clipPath id="ta3aef12756094471880a1cb3dc52c152"><rect x="155.0" y="15.0" width="110.0" height="70.0" /></clipPath><g clip-path="url(#ta3aef12756094471880a1cb3dc52c152)"><g class="toytree-mark-Toytree" id="t775fdb7eda7849ca88eaf76049914836"><g class="toytree-Edges" style="fill:none;stroke:rgb(14.9%,14.9%,14.9%);stroke-linecap:round;stroke-opacity:1;stroke-width:0.5"><path d="M 165.0 31.2 L 165.0 33.3 L 176.0 33.3" id="68,67" /><path d="M 176.0 33.3 L 176.0 36.3 L 178.6 36.3" id="67,66" /><path d="M 178.6 36.3 L 178.6 40.9 L 187.1 40.9" id="66,65" /><path d="M 187.1 40.9 L 187.1 34.7 L 189.3 34.7" id="65,64" /><path d="M 187.1 40.9 L 187.1 47.1 L 188.4 47.1" id="65,63" /><path d="M 189.3 34.7 L 189.3 36.6 L 189.6 36.6" id="64,62" /><path d="M 188.4 47.1 L 188.4 43.7 L 191.6 43.7" id="63,61" /><path d="M 188.4 47.1 L 188.4 50.5 L 189.0 50.5" id="63,60" /><path d="M 189.6 36.6 L 189.6 34.7 L 189.6 34.7" id="62,59" /><path d="M 189.6 36.6 L 189.6 38.5 L 190.7 38.5" id="62,58" /><path d="M 191.6 43.7 L 191.6 44.8 L 193.1 44.8" id="61,57" /><path d="M 189.0 50.5 L 189.0 48.5 L 191.9 48.5" id="60,56" /><path d="M 189.0 50.5 L 189.0 52.5 L 189.8 52.5" id="60,55" /><path d="M 190.7 38.5 L 190.7 37.1 L 194.7 37.1" id="58,54" /><path d="M 190.7 38.5 L 190.7 39.9 L 191.0 39.9" id="58,53" /><path d="M 193.1 44.8 L 193.1 45.7 L 195.0 45.7" id="57,52" /><path d="M 191.9 48.5 L 191.9 49.4 L 196.4 49.4" id="56,51" /><path d="M 189.8 52.5 L 189.8 53.8 L 191.7 53.8" id="55,50" /><path d="M 191.0 39.9 L 191.0 40.8 L 191.3 40.8" id="53,49" /><path d="M 191.7 53.8 L 191.7 55.0 L 192.0 55.0" id="50,48" /><path d="M 192.0 55.0 L 192.0 56.4 L 192.0 56.4" id="48,47" /><path d="M 192.0 56.4 L 192.0 57.9 L 192.0 57.9" id="47,46" /><path d="M 192.0 57.9 L 192.0 59.8 L 192.0 59.8" id="46,45" /><path d="M 192.0 59.8 L 192.0 62.2 L 192.0 62.2" id="45,44" /><path d="M 192.0 62.2 L 192.0 59.7 L 192.2 59.7" id="44,43" /><path d="M 192.0 62.2 L 192.0 64.7 L 192.1 64.7" id="44,42" /><path d="M 192.2 59.7 L 192.2 60.7 L 192.3 60.7" id="43,41" /><path d="M 192.1 64.7 L 192.1 65.9 L 192.2 65.9" id="42,40" /><path d="M 192.3 60.7 L 192.3 61.6 L 192.6 61.6" id="41,39" /><path d="M 192.2 65.9 L 192.2 67.1 L 192.2 67.1" id="40,38" /><path d="M 192.2 67.1 L 192.2 68.2 L 192.4 68.2" id="38,37" /><path d="M 192.4 68.2 L 192.4 69.3 L 192.6 69.3" id="37,36" /><path d="M 192.6 69.3 L 192.6 70.2 L 192.7 70.2" id="36,35" /><path d="M 165.0 31.2 L 165.0 29.2 L 193.6 29.2" id="68,34" /><path d="M 176.0 33.3 L 176.0 30.4 L 190.6 30.4" id="67,33" /><path d="M 178.6 36.3 L 178.6 31.6 L 194.1 31.6" id="66,32" /><path d="M 189.3 34.7 L 189.3 32.8 L 189.3 32.8" id="64,31" /><path d="M 189.6 34.7 L 189.6 34.1 L 189.7 34.1" id="59,30" /><path d="M 189.6 34.7 L 189.6 35.3 L 189.8 35.3" id="59,29" /><path d="M 194.7 37.1 L 194.7 36.5 L 195.1 36.5" id="54,28" /><path d="M 194.7 37.1 L 194.7 37.7 L 194.7 37.7" id="54,27" /><path d="M 191.0 39.9 L 191.0 39.0 L 191.1 39.0" id="53,26" /><path d="M 191.3 40.8 L 191.3 40.2 L 191.3 40.2" id="49,25" /><path d="M 191.3 40.8 L 191.3 41.4 L 191.5 41.4" id="49,24" /><path d="M 191.6 43.7 L 191.6 42.6 L 192.9 42.6" id="61,23" /><path d="M 193.1 44.8 L 193.1 43.9 L 197.8 43.9" id="57,22" /><path d="M 195.0 45.7 L 195.0 45.1 L 195.0 45.1" id="52,21" /><path d="M 195.0 45.7 L 195.0 46.3 L 197.6 46.3" id="52,20" /><path d="M 191.9 48.5 L 191.9 47.5 L 194.3 47.5" id="56,19" /><path d="M 196.4 49.4 L 196.4 48.8 L 215.7 48.8" id="51,18" /><path d="M 196.4 49.4 L 196.4 50.0 L 250.3 50.0" id="51,17" /><path d="M 189.8 52.5 L 189.8 51.2 L 190.4 51.2" id="55,16" /><path d="M 191.7 53.8 L 191.7 52.5 L 191.7 52.5" id="50,15" /><path d="M 192.0 55.0 L 192.0 53.7 L 192.0 53.7" id="48,14" /><path d="M 192.0 56.4 L 192.0 54.9 L 192.0 54.9" id="47,13" /><path d="M 192.0 57.9 L 192.0 56.1 L 192.0 56.1" id="46,12" /><path d="M 192.0 59.8 L 192.0 57.4 L 192.0 57.4" id="45,11" /><path d="M 192.2 59.7 L 192.2 58.6 L 192.2 58.6" id="43,10" /><path d="M 192.3 60.7 L 192.3 59.8 L 192.3 59.8" id="41,9" /><path d="M 192.6 61.6 L 192.6 61.0 L 192.6 61.0" id="39,8" /><path d="M 192.6 61.6 L 192.6 62.3 L 198.2 62.3" id="39,7" /><path d="M 192.1 64.7 L 192.1 63.5 L 192.1 63.5" id="42,6" /><path d="M 192.2 65.9 L 192.2 64.7 L 192.2 64.7" id="40,5" /><path d="M 192.2 67.1 L 192.2 65.9 L 192.2 65.9" id="38,4" /><path d="M 192.4 68.2 L 192.4 67.2 L 192.5 67.2" id="37,3" /><path d="M 192.6 69.3 L 192.6 68.4 L 192.6 68.4" id="36,2" /><path d="M 192.7 70.2 L 192.7 69.6 L 194.6 69.6" id="35,1" /><path d="M 192.7 70.2 L 192.7 70.8 L 193.3 70.8" id="35,0" /></g><g class="toytree-Nodes" style="fill:rgb(100%,0%,0%);fill-opacity:1.0;stroke:None;stroke-width:1"><g id="node-0" transform="translate(193.316,70.833)"><circle r="2.5" /></g><g id="node-1" transform="translate(194.630,69.608)"><circle r="2.5" /></g><g id="node-2" transform="translate(192.639,68.382)"><circle r="2.5" /></g><g id="node-3" transform="translate(192.515,67.157)"><circle r="2.5" /></g><g id="node-4" transform="translate(192.166,65.931)"><circle r="2.5" /></g><g id="node-5" transform="translate(192.166,64.706)"><circle r="2.5" /></g><g id="node-6" transform="translate(192.146,63.480)"><circle r="2.5" /></g><g id="node-7" transform="translate(198.161,62.255)"><circle r="2.5" /></g><g id="node-8" transform="translate(192.618,61.029)"><circle r="2.5" /></g><g id="node-9" transform="translate(192.310,59.804)"><circle r="2.5" /></g><g id="node-10" transform="translate(192.187,58.578)"><circle r="2.5" /></g><g id="node-11" transform="translate(192.023,57.353)"><circle r="2.5" /></g><g id="node-12" transform="translate(192.002,56.127)"><circle r="2.5" /></g><g id="node-13" transform="translate(192.002,54.902)"><circle r="2.5" /></g><g id="node-14" transform="translate(192.002,53.676)"><circle r="2.5" /></g><g id="node-15" transform="translate(191.674,52.451)"><circle r="2.5" /></g><g id="node-16" transform="translate(190.422,51.225)"><circle r="2.5" /></g><g id="node-17" transform="translate(250.263,50.000)"><circle r="2.5" /></g><g id="node-18" transform="translate(215.651,48.775)"><circle r="2.5" /></g><g id="node-19" transform="translate(194.301,47.549)"><circle r="2.5" /></g><g id="node-20" transform="translate(197.648,46.324)"><circle r="2.5" /></g><g id="node-21" transform="translate(194.979,45.098)"><circle r="2.5" /></g><g id="node-22" transform="translate(197.832,43.873)"><circle r="2.5" /></g><g id="node-23" transform="translate(192.947,42.647)"><circle r="2.5" /></g><g id="node-24" transform="translate(191.489,41.422)"><circle r="2.5" /></g><g id="node-25" transform="translate(191.284,40.196)"><circle r="2.5" /></g><g id="node-26" transform="translate(191.119,38.971)"><circle r="2.5" /></g><g id="node-27" transform="translate(194.671,37.745)"><circle r="2.5" /></g><g id="node-28" transform="translate(195.082,36.520)"><circle r="2.5" /></g><g id="node-29" transform="translate(189.826,35.294)"><circle r="2.5" /></g><g id="node-30" transform="translate(189.662,34.069)"><circle r="2.5" /></g><g id="node-31" transform="translate(189.272,32.843)"><circle r="2.5" /></g><g id="node-32" transform="translate(194.055,31.618)"><circle r="2.5" /></g><g id="node-33" transform="translate(190.627,30.392)"><circle r="2.5" /></g><g id="node-34" transform="translate(193.570,29.167)"><circle r="2.5" /></g><g id="node-35" transform="translate(192.741,70.221)"><circle r="0.0" /></g><g id="node-36" transform="translate(192.639,69.301)"><circle r="0.0" /></g><g id="node-37" transform="translate(192.372,68.229)"><circle r="0.0" /></g><g id="node-38" transform="translate(192.166,67.080)"><circle r="0.0" /></g><g id="node-39" transform="translate(192.618,61.642)"><circle r="0.0" /></g><g id="node-40" transform="translate(192.166,65.893)"><circle r="0.0" /></g><g id="node-41" transform="translate(192.310,60.723)"><circle r="0.0" /></g><g id="node-42" transform="translate(192.146,64.687)"><circle r="0.0" /></g><g id="node-43" transform="translate(192.166,59.651)"><circle r="0.0" /></g><g id="node-44" transform="translate(192.043,62.169)"><circle r="0.0" /></g><g id="node-45" transform="translate(192.023,59.761)"><circle r="0.0" /></g><g id="node-46" transform="translate(192.002,57.944)"><circle r="0.0" /></g><g id="node-47" transform="translate(192.002,56.423)"><circle r="0.0" /></g><g id="node-48" transform="translate(192.002,55.050)"><circle r="0.0" /></g><g id="node-49" transform="translate(191.284,40.809)"><circle r="0.0" /></g><g id="node-50" transform="translate(191.674,53.750)"><circle r="0.0" /></g><g id="node-51" transform="translate(196.416,49.387)"><circle r="0.0" /></g><g id="node-52" transform="translate(194.979,45.711)"><circle r="0.0" /></g><g id="node-53" transform="translate(190.996,39.890)"><circle r="0.0" /></g><g id="node-54" transform="translate(194.671,37.132)"><circle r="0.0" /></g><g id="node-55" transform="translate(189.847,52.488)"><circle r="0.0" /></g><g id="node-56" transform="translate(191.920,48.468)"><circle r="0.0" /></g><g id="node-57" transform="translate(193.070,44.792)"><circle r="0.0" /></g><g id="node-58" transform="translate(190.750,38.511)"><circle r="0.0" /></g><g id="node-59" transform="translate(189.641,34.681)"><circle r="0.0" /></g><g id="node-60" transform="translate(188.984,50.478)"><circle r="0.0" /></g><g id="node-61" transform="translate(191.592,43.719)"><circle r="0.0" /></g><g id="node-62" transform="translate(189.580,36.596)"><circle r="0.0" /></g><g id="node-63" transform="translate(188.430,47.099)"><circle r="0.0" /></g><g id="node-64" transform="translate(189.272,34.720)"><circle r="0.0" /></g><g id="node-65" transform="translate(187.055,40.909)"><circle r="0.0" /></g><g id="node-66" transform="translate(178.576,36.263)"><circle r="0.0" /></g><g id="node-67" transform="translate(175.990,33.328)"><circle r="0.0" /></g><g id="node-68" transform="translate(165.000,31.247)"><circle r="0.0" /></g></g></g></g></g><g class="toyplot-coordinates-Cartesian" id="t5840ac395c0248fc8570088ed41f8691"><clipPath id="t084604ee6c3b45ac8bb20524a24980d5"><rect x="295.0" y="15.0" width="110.0" height="70.0" /></clipPath><g clip-path="url(#t084604ee6c3b45ac8bb20524a24980d5)"><g class="toytree-mark-Toytree" id="t030a4a597ffd43b4ba1ecbd389d2727a"><g class="toytree-Edges" style="fill:none;stroke:rgb(14.9%,14.9%,14.9%);stroke-linecap:round;stroke-opacity:1;stroke-width:0.5"><path d="M 305.0 30.6 L 305.0 32.0 L 329.4 32.0" id="68,67" /><path d="M 329.4 32.0 L 329.4 33.7 L 335.1 33.7" id="67,66" /><path d="M 335.1 33.7 L 335.1 35.8 L 338.4 35.8" id="66,65" /><path d="M 338.4 35.8 L 338.4 38.7 L 345.2 38.7" id="65,64" /><path d="M 345.2 38.7 L 345.2 35.1 L 346.3 35.1" id="64,63" /><path d="M 345.2 38.7 L 345.2 42.4 L 350.2 42.4" id="64,62" /><path d="M 346.3 35.1 L 346.3 36.2 L 347.5 36.2" id="63,61" /><path d="M 350.2 42.4 L 350.2 39.6 L 354.7 39.6" id="62,60" /><path d="M 350.2 42.4 L 350.2 45.1 L 351.9 45.1" id="62,59" /><path d="M 347.5 36.2 L 347.5 37.1 L 355.4 37.1" id="61,58" /><path d="M 351.9 45.1 L 351.9 48.8 L 357.2 48.8" id="59,57" /><path d="M 357.2 48.8 L 357.2 43.9 L 365.9 43.9" id="57,56" /><path d="M 357.2 48.8 L 357.2 53.8 L 359.9 53.8" id="57,55" /><path d="M 365.9 43.9 L 365.9 45.1 L 366.1 45.1" id="56,54" /><path d="M 359.9 53.8 L 359.9 55.1 L 364.1 55.1" id="55,53" /><path d="M 366.1 45.1 L 366.1 46.3 L 366.2 46.3" id="54,52" /><path d="M 364.1 55.1 L 364.1 56.5 L 364.5 56.5" id="53,51" /><path d="M 366.2 46.3 L 366.2 47.5 L 367.2 47.5" id="52,50" /><path d="M 364.5 56.5 L 364.5 58.1 L 364.6 58.1" id="51,49" /><path d="M 367.2 47.5 L 367.2 48.6 L 368.0 48.6" id="50,48" /><path d="M 364.6 58.1 L 364.6 60.2 L 364.7 60.2" id="49,47" /><path d="M 368.0 48.6 L 368.0 49.7 L 368.2 49.7" id="48,46" /><path d="M 364.7 60.2 L 364.7 63.0 L 364.7 63.0" id="47,45" /><path d="M 368.2 49.7 L 368.2 50.6 L 376.2 50.6" id="46,44" /><path d="M 364.7 63.0 L 364.7 59.7 L 364.8 59.7" id="45,43" /><path d="M 364.7 63.0 L 364.7 66.3 L 364.8 66.3" id="45,42" /><path d="M 364.8 59.7 L 364.8 60.7 L 364.8 60.7" id="43,41" /><path d="M 364.8 66.3 L 364.8 64.4 L 364.9 64.4" id="42,40" /><path d="M 364.8 66.3 L 364.8 68.2 L 364.9 68.2" id="42,39" /><path d="M 364.8 60.7 L 364.8 61.6 L 364.9 61.6" id="41,38" /><path d="M 364.9 64.4 L 364.9 65.3 L 364.9 65.3" id="40,37" /><path d="M 364.9 68.2 L 364.9 69.3 L 364.9 69.3" id="39,36" /><path d="M 364.9 69.3 L 364.9 70.2 L 365.1 70.2" id="36,35" /><path d="M 305.0 30.6 L 305.0 29.2 L 365.6 29.2" id="68,34" /><path d="M 329.4 32.0 L 329.4 30.4 L 390.3 30.4" id="67,33" /><path d="M 335.1 33.7 L 335.1 31.6 L 364.5 31.6" id="66,32" /><path d="M 338.4 35.8 L 338.4 32.8 L 362.5 32.8" id="65,31" /><path d="M 346.3 35.1 L 346.3 34.1 L 349.5 34.1" id="63,30" /><path d="M 347.5 36.2 L 347.5 35.3 L 358.4 35.3" id="61,29" /><path d="M 355.4 37.1 L 355.4 36.5 L 355.4 36.5" id="58,28" /><path d="M 355.4 37.1 L 355.4 37.7 L 360.8 37.7" id="58,27" /><path d="M 354.7 39.6 L 354.7 39.0 L 389.5 39.0" id="60,26" /><path d="M 354.7 39.6 L 354.7 40.2 L 364.5 40.2" id="60,25" /><path d="M 351.9 45.1 L 351.9 41.4 L 362.9 41.4" id="59,24" /><path d="M 365.9 43.9 L 365.9 42.6 L 365.9 42.6" id="56,23" /><path d="M 366.1 45.1 L 366.1 43.9 L 366.1 43.9" id="54,22" /><path d="M 366.2 46.3 L 366.2 45.1 L 366.2 45.1" id="52,21" /><path d="M 367.2 47.5 L 367.2 46.3 L 367.2 46.3" id="50,20" /><path d="M 368.0 48.6 L 368.0 47.5 L 368.0 47.5" id="48,19" /><path d="M 368.2 49.7 L 368.2 48.8 L 368.6 48.8" id="46,18" /><path d="M 376.2 50.6 L 376.2 50.0 L 376.6 50.0" id="44,17" /><path d="M 376.2 50.6 L 376.2 51.2 L 376.2 51.2" id="44,16" /><path d="M 359.9 53.8 L 359.9 52.5 L 363.0 52.5" id="55,15" /><path d="M 364.1 55.1 L 364.1 53.7 L 364.1 53.7" id="53,14" /><path d="M 364.5 56.5 L 364.5 54.9 L 364.5 54.9" id="51,13" /><path d="M 364.6 58.1 L 364.6 56.1 L 364.6 56.1" id="49,12" /><path d="M 364.7 60.2 L 364.7 57.4 L 366.8 57.4" id="47,11" /><path d="M 364.8 59.7 L 364.8 58.6 L 364.8 58.6" id="43,10" /><path d="M 364.8 60.7 L 364.8 59.8 L 364.8 59.8" id="41,9" /><path d="M 364.9 61.6 L 364.9 61.0 L 365.2 61.0" id="38,8" /><path d="M 364.9 61.6 L 364.9 62.3 L 364.9 62.3" id="38,7" /><path d="M 364.9 64.4 L 364.9 63.5 L 364.9 63.5" id="40,6" /><path d="M 364.9 65.3 L 364.9 64.7 L 370.8 64.7" id="37,5" /><path d="M 364.9 65.3 L 364.9 65.9 L 364.9 65.9" id="37,4" /><path d="M 364.9 68.2 L 364.9 67.2 L 364.9 67.2" id="39,3" /><path d="M 364.9 69.3 L 364.9 68.4 L 364.9 68.4" id="36,2" /><path d="M 365.1 70.2 L 365.1 69.6 L 365.3 69.6" id="35,1" /><path d="M 365.1 70.2 L 365.1 70.8 L 365.1 70.8" id="35,0" /></g><g class="toytree-Nodes" style="fill:rgb(100%,0%,0%);fill-opacity:1.0;stroke:None;stroke-width:1"><g id="node-0" transform="translate(365.088,70.833)"><circle r="2.5" /></g><g id="node-1" transform="translate(365.292,69.608)"><circle r="2.5" /></g><g id="node-2" transform="translate(364.885,68.382)"><circle r="2.5" /></g><g id="node-3" transform="translate(364.885,67.157)"><circle r="2.5" /></g><g id="node-4" transform="translate(364.875,65.931)"><circle r="2.5" /></g><g id="node-5" transform="translate(370.774,64.706)"><circle r="2.5" /></g><g id="node-6" transform="translate(364.875,63.480)"><circle r="2.5" /></g><g id="node-7" transform="translate(364.854,62.255)"><circle r="2.5" /></g><g id="node-8" transform="translate(365.159,61.029)"><circle r="2.5" /></g><g id="node-9" transform="translate(364.753,59.804)"><circle r="2.5" /></g><g id="node-10" transform="translate(364.753,58.578)"><circle r="2.5" /></g><g id="node-11" transform="translate(366.797,57.353)"><circle r="2.5" /></g><g id="node-12" transform="translate(364.610,56.127)"><circle r="2.5" /></g><g id="node-13" transform="translate(364.529,54.902)"><circle r="2.5" /></g><g id="node-14" transform="translate(364.102,53.676)"><circle r="2.5" /></g><g id="node-15" transform="translate(362.983,52.451)"><circle r="2.5" /></g><g id="node-16" transform="translate(376.186,51.225)"><circle r="2.5" /></g><g id="node-17" transform="translate(376.633,50.000)"><circle r="2.5" /></g><g id="node-18" transform="translate(368.597,48.775)"><circle r="2.5" /></g><g id="node-19" transform="translate(367.997,47.549)"><circle r="2.5" /></g><g id="node-20" transform="translate(367.204,46.324)"><circle r="2.5" /></g><g id="node-21" transform="translate(366.207,45.098)"><circle r="2.5" /></g><g id="node-22" transform="translate(366.095,43.873)"><circle r="2.5" /></g><g id="node-23" transform="translate(365.871,42.647)"><circle r="2.5" /></g><g id="node-24" transform="translate(362.881,41.422)"><circle r="2.5" /></g><g id="node-25" transform="translate(364.478,40.196)"><circle r="2.5" /></g><g id="node-26" transform="translate(389.480,38.971)"><circle r="2.5" /></g><g id="node-27" transform="translate(360.806,37.745)"><circle r="2.5" /></g><g id="node-28" transform="translate(355.415,36.520)"><circle r="2.5" /></g><g id="node-29" transform="translate(358.405,35.294)"><circle r="2.5" /></g><g id="node-30" transform="translate(349.495,34.069)"><circle r="2.5" /></g><g id="node-31" transform="translate(362.474,32.843)"><circle r="2.5" /></g><g id="node-32" transform="translate(364.529,31.618)"><circle r="2.5" /></g><g id="node-33" transform="translate(390.263,30.392)"><circle r="2.5" /></g><g id="node-34" transform="translate(365.599,29.167)"><circle r="2.5" /></g><g id="node-35" transform="translate(365.088,70.221)"><circle r="0.0" /></g><g id="node-36" transform="translate(364.885,69.301)"><circle r="0.0" /></g><g id="node-37" transform="translate(364.875,65.319)"><circle r="0.0" /></g><g id="node-38" transform="translate(364.854,61.642)"><circle r="0.0" /></g><g id="node-39" transform="translate(364.885,68.229)"><circle r="0.0" /></g><g id="node-40" transform="translate(364.875,64.400)"><circle r="0.0" /></g><g id="node-41" transform="translate(364.753,60.723)"><circle r="0.0" /></g><g id="node-42" transform="translate(364.814,66.314)"><circle r="0.0" /></g><g id="node-43" transform="translate(364.753,59.651)"><circle r="0.0" /></g><g id="node-44" transform="translate(376.155,50.613)"><circle r="0.0" /></g><g id="node-45" transform="translate(364.732,62.983)"><circle r="0.0" /></g><g id="node-46" transform="translate(368.180,49.694)"><circle r="0.0" /></g><g id="node-47" transform="translate(364.722,60.168)"><circle r="0.0" /></g><g id="node-48" transform="translate(367.997,48.621)"><circle r="0.0" /></g><g id="node-49" transform="translate(364.610,58.148)"><circle r="0.0" /></g><g id="node-50" transform="translate(367.204,47.472)"><circle r="0.0" /></g><g id="node-51" transform="translate(364.529,56.525)"><circle r="0.0" /></g><g id="node-52" transform="translate(366.207,46.285)"><circle r="0.0" /></g><g id="node-53" transform="translate(364.102,55.101)"><circle r="0.0" /></g><g id="node-54" transform="translate(366.095,45.079)"><circle r="0.0" /></g><g id="node-55" transform="translate(359.870,53.776)"><circle r="0.0" /></g><g id="node-56" transform="translate(365.871,43.863)"><circle r="0.0" /></g><g id="node-57" transform="translate(357.175,48.819)"><circle r="0.0" /></g><g id="node-58" transform="translate(355.415,37.132)"><circle r="0.0" /></g><g id="node-59" transform="translate(351.936,45.120)"><circle r="0.0" /></g><g id="node-60" transform="translate(354.652,39.583)"><circle r="0.0" /></g><g id="node-61" transform="translate(347.451,36.213)"><circle r="0.0" /></g><g id="node-62" transform="translate(350.248,42.352)"><circle r="0.0" /></g><g id="node-63" transform="translate(346.271,35.141)"><circle r="0.0" /></g><g id="node-64" transform="translate(345.213,38.746)"><circle r="0.0" /></g><g id="node-65" transform="translate(338.449,35.795)"><circle r="0.0" /></g><g id="node-66" transform="translate(335.092,33.706)"><circle r="0.0" /></g><g id="node-67" transform="translate(329.386,32.049)"><circle r="0.0" /></g><g id="node-68" transform="translate(305.000,30.608)"><circle r="0.0" /></g></g></g></g></g><g class="toyplot-coordinates-Cartesian" id="t798ebcca65ee4b3d82ca974746e1216d"><clipPath id="t6ecb5ea8385247a0944c49d97982db95"><rect x="435.0" y="15.0" width="110.0" height="70.0" /></clipPath><g clip-path="url(#t6ecb5ea8385247a0944c49d97982db95)"><g class="toytree-mark-Toytree" id="t0a17806c17aa41b78f8ef3668bb9ec0d"><g class="toytree-Edges" style="fill:none;stroke:rgb(14.9%,14.9%,14.9%);stroke-linecap:round;stroke-opacity:1;stroke-width:0.5"><path d="M 445.0 31.6 L 445.0 34.0 L 450.6 34.0" id="68,67" /><path d="M 450.6 34.0 L 450.6 37.6 L 461.3 37.6" id="67,66" /><path d="M 461.3 37.6 L 461.3 32.5 L 463.9 32.5" id="66,65" /><path d="M 461.3 37.6 L 461.3 42.6 L 464.7 42.6" id="66,64" /><path d="M 463.9 32.5 L 463.9 33.5 L 469.1 33.5" id="65,63" /><path d="M 464.7 42.6 L 464.7 36.9 L 467.9 36.9" id="64,62" /><path d="M 464.7 42.6 L 464.7 48.3 L 469.1 48.3" id="64,61" /><path d="M 467.9 36.9 L 467.9 38.5 L 471.9 38.5" id="62,60" /><path d="M 469.1 48.3 L 469.1 53.9 L 476.1 53.9" id="61,59" /><path d="M 471.9 38.5 L 471.9 37.1 L 480.2 37.1" id="60,58" /><path d="M 471.9 38.5 L 471.9 39.9 L 473.7 39.9" id="60,57" /><path d="M 476.1 53.9 L 476.1 47.6 L 477.6 47.6" id="59,56" /><path d="M 476.1 53.9 L 476.1 60.3 L 478.5 60.3" id="59,55" /><path d="M 473.7 39.9 L 473.7 40.8 L 479.0 40.8" id="57,54" /><path d="M 477.6 47.6 L 477.6 44.8 L 478.6 44.8" id="56,53" /><path d="M 477.6 47.6 L 477.6 50.4 L 478.5 50.4" id="56,52" /><path d="M 478.5 60.3 L 478.5 58.3 L 479.3 58.3" id="55,51" /><path d="M 478.5 60.3 L 478.5 62.3 L 479.3 62.3" id="55,50" /><path d="M 478.6 44.8 L 478.6 45.7 L 478.9 45.7" id="53,49" /><path d="M 478.5 50.4 L 478.5 48.5 L 478.5 48.5" id="52,48" /><path d="M 478.5 50.4 L 478.5 52.4 L 478.7 52.4" id="52,47" /><path d="M 479.3 58.3 L 479.3 59.2 L 479.8 59.2" id="51,46" /><path d="M 479.3 62.3 L 479.3 63.5 L 479.5 63.5" id="50,45" /><path d="M 478.5 48.5 L 478.5 49.4 L 478.5 49.4" id="48,44" /><path d="M 478.7 52.4 L 478.7 53.5 L 478.7 53.5" id="47,43" /><path d="M 479.5 63.5 L 479.5 64.7 L 479.5 64.7" id="45,42" /><path d="M 478.7 53.5 L 478.7 54.6 L 478.7 54.6" id="43,41" /><path d="M 479.5 64.7 L 479.5 65.9 L 479.5 65.9" id="42,40" /><path d="M 478.7 54.6 L 478.7 55.5 L 478.7 55.5" id="41,39" /><path d="M 479.5 65.9 L 479.5 67.1 L 479.5 67.1" id="40,38" /><path d="M 479.5 67.1 L 479.5 68.2 L 479.5 68.2" id="38,37" /><path d="M 479.5 68.2 L 479.5 69.3 L 479.5 69.3" id="37,36" /><path d="M 479.5 69.3 L 479.5 70.2 L 479.5 70.2" id="36,35" /><path d="M 445.0 31.6 L 445.0 29.2 L 481.1 29.2" id="68,34" /><path d="M 450.6 34.0 L 450.6 30.4 L 479.3 30.4" id="67,33" /><path d="M 463.9 32.5 L 463.9 31.6 L 530.3 31.6" id="65,32" /><path d="M 469.1 33.5 L 469.1 32.8 L 484.4 32.8" id="63,31" /><path d="M 469.1 33.5 L 469.1 34.1 L 477.2 34.1" id="63,30" /><path d="M 467.9 36.9 L 467.9 35.3 L 475.8 35.3" id="62,29" /><path d="M 480.2 37.1 L 480.2 36.5 L 484.4 36.5" id="58,28" /><path d="M 480.2 37.1 L 480.2 37.7 L 482.8 37.7" id="58,27" /><path d="M 473.7 39.9 L 473.7 39.0 L 474.7 39.0" id="57,26" /><path d="M 479.0 40.8 L 479.0 40.2 L 490.7 40.2" id="54,25" /><path d="M 479.0 40.8 L 479.0 41.4 L 495.3 41.4" id="54,24" /><path d="M 469.1 48.3 L 469.1 42.6 L 476.2 42.6" id="61,23" /><path d="M 478.6 44.8 L 478.6 43.9 L 479.5 43.9" id="53,22" /><path d="M 478.9 45.7 L 478.9 45.1 L 479.8 45.1" id="49,21" /><path d="M 478.9 45.7 L 478.9 46.3 L 478.9 46.3" id="49,20" /><path d="M 478.5 48.5 L 478.5 47.5 L 478.5 47.5" id="48,19" /><path d="M 478.5 49.4 L 478.5 48.8 L 478.5 48.8" id="44,18" /><path d="M 478.5 49.4 L 478.5 50.0 L 478.5 50.0" id="44,17" /><path d="M 478.7 52.4 L 478.7 51.2 L 480.6 51.2" id="47,16" /><path d="M 478.7 53.5 L 478.7 52.5 L 478.7 52.5" id="43,15" /><path d="M 478.7 54.6 L 478.7 53.7 L 478.7 53.7" id="41,14" /><path d="M 478.7 55.5 L 478.7 54.9 L 478.7 54.9" id="39,13" /><path d="M 478.7 55.5 L 478.7 56.1 L 478.7 56.1" id="39,12" /><path d="M 479.3 58.3 L 479.3 57.4 L 479.5 57.4" id="51,11" /><path d="M 479.8 59.2 L 479.8 58.6 L 480.0 58.6" id="46,10" /><path d="M 479.8 59.2 L 479.8 59.8 L 480.2 59.8" id="46,9" /><path d="M 479.3 62.3 L 479.3 61.0 L 480.1 61.0" id="50,8" /><path d="M 479.5 63.5 L 479.5 62.3 L 479.5 62.3" id="45,7" /><path d="M 479.5 64.7 L 479.5 63.5 L 479.5 63.5" id="42,6" /><path d="M 479.5 65.9 L 479.5 64.7 L 479.5 64.7" id="40,5" /><path d="M 479.5 67.1 L 479.5 65.9 L 479.5 65.9" id="38,4" /><path d="M 479.5 68.2 L 479.5 67.2 L 479.5 67.2" id="37,3" /><path d="M 479.5 69.3 L 479.5 68.4 L 479.5 68.4" id="36,2" /><path d="M 479.5 70.2 L 479.5 69.6 L 479.5 69.6" id="35,1" /><path d="M 479.5 70.2 L 479.5 70.8 L 479.5 70.8" id="35,0" /></g><g class="toytree-Nodes" style="fill:rgb(100%,0%,0%);fill-opacity:1.0;stroke:None;stroke-width:1"><g id="node-0" transform="translate(479.484,70.833)"><circle r="2.5" /></g><g id="node-1" transform="translate(479.484,69.608)"><circle r="2.5" /></g><g id="node-2" transform="translate(479.484,68.382)"><circle r="2.5" /></g><g id="node-3" transform="translate(479.484,67.157)"><circle r="2.5" /></g><g id="node-4" transform="translate(479.484,65.931)"><circle r="2.5" /></g><g id="node-5" transform="translate(479.484,64.706)"><circle r="2.5" /></g><g id="node-6" transform="translate(479.484,63.480)"><circle r="2.5" /></g><g id="node-7" transform="translate(479.484,62.255)"><circle r="2.5" /></g><g id="node-8" transform="translate(480.122,61.029)"><circle r="2.5" /></g><g id="node-9" transform="translate(480.225,59.804)"><circle r="2.5" /></g><g id="node-10" transform="translate(479.991,58.578)"><circle r="2.5" /></g><g id="node-11" transform="translate(479.527,57.353)"><circle r="2.5" /></g><g id="node-12" transform="translate(478.693,56.127)"><circle r="2.5" /></g><g id="node-13" transform="translate(478.693,54.902)"><circle r="2.5" /></g><g id="node-14" transform="translate(478.693,53.676)"><circle r="2.5" /></g><g id="node-15" transform="translate(478.693,52.451)"><circle r="2.5" /></g><g id="node-16" transform="translate(480.591,51.225)"><circle r="2.5" /></g><g id="node-17" transform="translate(478.460,50.000)"><circle r="2.5" /></g><g id="node-18" transform="translate(478.460,48.775)"><circle r="2.5" /></g><g id="node-19" transform="translate(478.460,47.549)"><circle r="2.5" /></g><g id="node-20" transform="translate(478.854,46.324)"><circle r="2.5" /></g><g id="node-21" transform="translate(479.784,45.098)"><circle r="2.5" /></g><g id="node-22" transform="translate(479.544,43.873)"><circle r="2.5" /></g><g id="node-23" transform="translate(476.232,42.647)"><circle r="2.5" /></g><g id="node-24" transform="translate(495.262,41.422)"><circle r="2.5" /></g><g id="node-25" transform="translate(490.688,40.196)"><circle r="2.5" /></g><g id="node-26" transform="translate(474.716,38.971)"><circle r="2.5" /></g><g id="node-27" transform="translate(482.836,37.745)"><circle r="2.5" /></g><g id="node-28" transform="translate(484.383,36.520)"><circle r="2.5" /></g><g id="node-29" transform="translate(475.816,35.294)"><circle r="2.5" /></g><g id="node-30" transform="translate(477.157,34.069)"><circle r="2.5" /></g><g id="node-31" transform="translate(484.391,32.843)"><circle r="2.5" /></g><g id="node-32" transform="translate(530.263,31.618)"><circle r="2.5" /></g><g id="node-33" transform="translate(479.349,30.392)"><circle r="2.5" /></g><g id="node-34" transform="translate(481.056,29.167)"><circle r="2.5" /></g><g id="node-35" transform="translate(479.484,70.221)"><circle r="0.0" /></g><g id="node-36" transform="translate(479.484,69.301)"><circle r="0.0" /></g><g id="node-37" transform="translate(479.484,68.229)"><circle r="0.0" /></g><g id="node-38" transform="translate(479.484,67.080)"><circle r="0.0" /></g><g id="node-39" transform="translate(478.693,55.515)"><circle r="0.0" /></g><g id="node-40" transform="translate(479.484,65.893)"><circle r="0.0" /></g><g id="node-41" transform="translate(478.693,54.596)"><circle r="0.0" /></g><g id="node-42" transform="translate(479.484,64.687)"><circle r="0.0" /></g><g id="node-43" transform="translate(478.693,53.523)"><circle r="0.0" /></g><g id="node-44" transform="translate(478.460,49.387)"><circle r="0.0" /></g><g id="node-45" transform="translate(479.484,63.471)"><circle r="0.0" /></g><g id="node-46" transform="translate(479.756,59.191)"><circle r="0.0" /></g><g id="node-47" transform="translate(478.693,52.374)"><circle r="0.0" /></g><g id="node-48" transform="translate(478.460,48.468)"><circle r="0.0" /></g><g id="node-49" transform="translate(478.854,45.711)"><circle r="0.0" /></g><g id="node-50" transform="translate(479.322,62.250)"><circle r="0.0" /></g><g id="node-51" transform="translate(479.286,58.272)"><circle r="0.0" /></g><g id="node-52" transform="translate(478.460,50.421)"><circle r="0.0" /></g><g id="node-53" transform="translate(478.618,44.792)"><circle r="0.0" /></g><g id="node-54" transform="translate(479.025,40.809)"><circle r="0.0" /></g><g id="node-55" transform="translate(478.499,60.261)"><circle r="0.0" /></g><g id="node-56" transform="translate(477.576,47.606)"><circle r="0.0" /></g><g id="node-57" transform="translate(473.720,39.890)"><circle r="0.0" /></g><g id="node-58" transform="translate(480.213,37.132)"><circle r="0.0" /></g><g id="node-59" transform="translate(476.059,53.934)"><circle r="0.0" /></g><g id="node-60" transform="translate(471.919,38.511)"><circle r="0.0" /></g><g id="node-61" transform="translate(469.054,48.290)"><circle r="0.0" /></g><g id="node-62" transform="translate(467.857,36.903)"><circle r="0.0" /></g><g id="node-63" transform="translate(469.130,33.456)"><circle r="0.0" /></g><g id="node-64" transform="translate(464.665,42.596)"><circle r="0.0" /></g><g id="node-65" transform="translate(463.936,32.537)"><circle r="0.0" /></g><g id="node-66" transform="translate(461.275,37.567)"><circle r="0.0" /></g><g id="node-67" transform="translate(450.642,33.979)"><circle r="0.0" /></g><g id="node-68" transform="translate(445.000,31.573)"><circle r="0.0" /></g></g></g></g></g></svg>