<svg class="toyplot-canvas-Canvas" xmlns:toyplot="http://www.sandia.gov/toyplot" xmlns:xlink="http://www.w3.org/1999/xlink" xmlns="http://www.w3.org/2000/svg" width="560.0px" height="100.0px" viewBox="0 0 560.0 100.0" preserveAspectRatio="xMidYMid meet" style="background-color:transparent;border-color:#292724;border-style:none;border-width:1.0;fill:rgb(16.1%,15.3%,14.1%);fill-opacity:1.0;font-family:Helvetica;font-size:12px;opacity:1.0;stroke:rgb(16.1%,15.3%,14.1%);stroke-opacity:1.0;stroke-width:1.0" id="t9d8b6ed9da0d4df291c87febd3a5d747"><g class="toyplot-coordinates-Cartesian" id="tc593de14555f46fb81898bb054a2e031"><clipPath id="t092104b7e43840869838bf862f07825a"><rect x="15.0" y="15.0" width="110.0" height="70.0" /></clipPath><g clip-path="url(#t092104b7e43840869838bf862f07825a)"><g class="toytree-mark-Toytree" id="tc281e4518c1d4ca4b33a04079bc8539b"><g class="toytree-Edges" style="fill:none;stroke:rgb(14.9%,14.9%,14.9%);stroke-linecap:round;stroke-opacity:1;stroke-width:0.5"><path d="M 25.0 31.5 L 25.0 29.7 L 83.9 29.7" id="86,85" /><path d="M 25.0 31.5 L 25.0 33.3 L 29.9 33.3" id="86,84" /><path d="M 29.9 33.3 L 29.9 35.5 L 32.7 35.5" id="84,83" /><path d="M 32.7 35.5 L 32.7 38.9 L 34.0 38.9" id="83,82" /><path d="M 34.0 38.9 L 34.0 34.6 L 36.4 34.6" id="82,81" /><path d="M 34.0 38.9 L 34.0 43.3 L 34.9 43.3" id="82,80" /><path d="M 36.4 34.6 L 36.4 33.5 L 40.3 33.5" id="81,79" /><path d="M 36.4 34.6 L 36.4 35.7 L 55.4 35.7" id="81,78" /><path d="M 34.9 43.3 L 34.9 39.5 L 37.0 39.5" id="80,77" /><path d="M 34.9 43.3 L 34.9 47.1 L 37.3 47.1" id="80,76" /><path d="M 55.4 35.7 L 55.4 36.4 L 60.3 36.4" id="78,75" /><path d="M 37.0 39.5 L 37.0 41.1 L 40.1 41.1" id="77,74" /><path d="M 37.3 47.1 L 37.3 48.5 L 43.1 48.5" id="76,73" /><path d="M 40.1 41.1 L 40.1 39.6 L 43.9 39.6" id="74,72" /><path d="M 40.1 41.1 L 40.1 42.6 L 42.4 42.6" id="74,71" /><path d="M 43.1 48.5 L 43.1 50.4 L 43.8 50.4" id="73,70" /><path d="M 43.9 39.6 L 43.9 40.3 L 52.6 40.3" id="72,69" /><path d="M 42.4 42.6 L 42.4 43.5 L 68.3 43.5" id="71,68" /><path d="M 43.8 50.4 L 43.8 48.3 L 55.8 48.3" id="70,67" /><path d="M 43.8 50.4 L 43.8 52.5 L 45.5 52.5" id="70,66" /><path d="M 68.3 43.5 L 68.3 44.2 L 83.7 44.2" id="68,65" /><path d="M 55.8 48.3 L 55.8 49.0 L 60.9 49.0" id="67,64" /><path d="M 45.5 52.5 L 45.5 54.5 L 47.3 54.5" id="66,63" /><path d="M 47.3 54.5 L 47.3 51.9 L 51.7 51.9" id="63,62" /><path d="M 47.3 54.5 L 47.3 57.1 L 50.4 57.1" id="63,61" /><path d="M 50.4 57.1 L 50.4 54.1 L 55.9 54.1" id="61,60" /><path d="M 50.4 57.1 L 50.4 60.0 L 51.3 60.0" id="61,59" /><path d="M 55.9 54.1 L 55.9 54.8 L 58.9 54.8" id="60,58" /><path d="M 51.3 60.0 L 51.3 57.5 L 62.8 57.5" id="59,57" /><path d="M 51.3 60.0 L 51.3 62.5 L 56.5 62.5" id="59,56" /><path d="M 62.8 57.5 L 62.8 58.7 L 76.5 58.7" id="57,55" /><path d="M 56.5 62.5 L 56.5 63.9 L 62.7 63.9" id="56,54" /><path d="M 76.5 58.7 L 76.5 57.8 L 79.1 57.8" id="55,53" /><path d="M 76.5 58.7 L 76.5 59.7 L 83.6 59.7" id="55,52" /><path d="M 62.7 63.9 L 62.7 65.7 L 74.7 65.7" id="54,51" /><path d="M 74.7 65.7 L 74.7 63.8 L 80.9 63.8" id="51,50" /><path d="M 74.7 65.7 L 74.7 67.6 L 82.9 67.6" id="51,49" /><path d="M 80.9 63.8 L 80.9 64.5 L 96.9 64.5" id="50,48" /><path d="M 82.9 67.6 L 82.9 66.5 L 86.4 66.5" id="49,47" /><path d="M 82.9 67.6 L 82.9 68.8 L 84.2 68.8" id="49,46" /><path d="M 84.2 68.8 L 84.2 69.6 L 87.7 69.6" id="46,45" /><path d="M 87.7 69.6 L 87.7 70.3 L 88.2 70.3" id="45,44" /><path d="M 83.9 29.7 L 83.9 29.2 L 90.0 29.2" id="85,43" /><path d="M 83.9 29.7 L 83.9 30.1 L 93.1 30.1" id="85,42" /><path d="M 29.9 33.3 L 29.9 31.1 L 84.0 31.1" id="84,41" /><path d="M 32.7 35.5 L 32.7 32.1 L 93.9 32.1" id="83,40" /><path d="M 40.3 33.5 L 40.3 33.0 L 103.7 33.0" id="79,39" /><path d="M 40.3 33.5 L 40.3 34.0 L 103.7 34.0" id="79,38" /><path d="M 55.4 35.7 L 55.4 35.0 L 102.6 35.0" id="78,37" /><path d="M 60.3 36.4 L 60.3 35.9 L 99.0 35.9" id="75,36" /><path d="M 60.3 36.4 L 60.3 36.9 L 102.7 36.9" id="75,35" /><path d="M 37.0 39.5 L 37.0 37.9 L 91.4 37.9" id="77,34" /><path d="M 43.9 39.6 L 43.9 38.9 L 87.4 38.9" id="72,33" /><path d="M 52.6 40.3 L 52.6 39.8 L 91.1 39.8" id="69,32" /><path d="M 52.6 40.3 L 52.6 40.8 L 90.4 40.8" id="69,31" /><path d="M 42.4 42.6 L 42.4 41.8 L 77.5 41.8" id="71,30" /><path d="M 68.3 43.5 L 68.3 42.7 L 95.3 42.7" id="68,29" /><path d="M 83.7 44.2 L 83.7 43.7 L 95.2 43.7" id="65,28" /><path d="M 83.7 44.2 L 83.7 44.7 L 94.6 44.7" id="65,27" /><path d="M 37.3 47.1 L 37.3 45.6 L 88.2 45.6" id="76,26" /><path d="M 43.1 48.5 L 43.1 46.6 L 92.5 46.6" id="73,25" /><path d="M 55.8 48.3 L 55.8 47.6 L 87.7 47.6" id="67,24" /><path d="M 60.9 49.0 L 60.9 48.5 L 91.4 48.5" id="64,23" /><path d="M 60.9 49.0 L 60.9 49.5 L 90.3 49.5" id="64,22" /><path d="M 45.5 52.5 L 45.5 50.5 L 90.6 50.5" id="66,21" /><path d="M 51.7 51.9 L 51.7 51.5 L 87.4 51.5" id="62,20" /><path d="M 51.7 51.9 L 51.7 52.4 L 88.5 52.4" id="62,19" /><path d="M 55.9 54.1 L 55.9 53.4 L 89.8 53.4" id="60,18" /><path d="M 58.9 54.8 L 58.9 54.4 L 88.7 54.4" id="58,17" /><path d="M 58.9 54.8 L 58.9 55.3 L 89.3 55.3" id="58,16" /><path d="M 62.8 57.5 L 62.8 56.3 L 96.0 56.3" id="57,15" /><path d="M 79.1 57.8 L 79.1 57.3 L 87.3 57.3" id="53,14" /><path d="M 79.1 57.8 L 79.1 58.2 L 88.3 58.2" id="53,13" /><path d="M 83.6 59.7 L 83.6 59.2 L 86.7 59.2" id="52,12" /><path d="M 83.6 59.7 L 83.6 60.2 L 88.0 60.2" id="52,11" /><path d="M 56.5 62.5 L 56.5 61.1 L 89.0 61.1" id="56,10" /><path d="M 62.7 63.9 L 62.7 62.1 L 92.1 62.1" id="54,9" /><path d="M 80.9 63.8 L 80.9 63.1 L 110.3 63.1" id="50,8" /><path d="M 96.9 64.5 L 96.9 64.1 L 101.3 64.1" id="48,7" /><path d="M 96.9 64.5 L 96.9 65.0 L 99.8 65.0" id="48,6" /><path d="M 86.4 66.5 L 86.4 66.0 L 88.9 66.0" id="47,5" /><path d="M 86.4 66.5 L 86.4 67.0 L 89.0 67.0" id="47,4" /><path d="M 84.2 68.8 L 84.2 67.9 L 87.9 67.9" id="46,3" /><path d="M 87.7 69.6 L 87.7 68.9 L 88.6 68.9" id="45,2" /><path d="M 88.2 70.3 L 88.2 69.9 L 88.8 69.9" id="44,1" /><path d="M 88.2 70.3 L 88.2 70.8 L 88.3 70.8" id="44,0" /></g><g class="toytree-Nodes" style="fill:rgb(100%,0%,0%);fill-opacity:1.0;stroke:None;stroke-width:1"><g id="node-0" transform="translate(88.330,70.833)"><circle r="2.5" /></g><g id="node-1" transform="translate(88.813,69.864)"><circle r="2.5" /></g><g id="node-2" transform="translate(88.610,68.895)"><circle r="2.5" /></g><g id="node-3" transform="translate(87.871,67.926)"><circle r="2.5" /></g><g id="node-4" transform="translate(89.045,66.957)"><circle r="2.5" /></g><g id="node-5" transform="translate(88.853,65.988)"><circle r="2.5" /></g><g id="node-6" transform="translate(99.807,65.019)"><circle r="2.5" /></g><g id="node-7" transform="translate(101.339,64.050)"><circle r="2.5" /></g><g id="node-8" transform="translate(110.263,63.081)"><circle r="2.5" /></g><g id="node-9" transform="translate(92.133,62.112)"><circle r="2.5" /></g><g id="node-10" transform="translate(89.022,61.143)"><circle r="2.5" /></g><g id="node-11" transform="translate(88.002,60.174)"><circle r="2.5" /></g><g id="node-12" transform="translate(86.739,59.205)"><circle r="2.5" /></g><g id="node-13" transform="translate(88.270,58.236)"><circle r="2.5" /></g><g id="node-14" transform="translate(87.263,57.267)"><circle r="2.5" /></g><g id="node-15" transform="translate(95.979,56.298)"><circle r="2.5" /></g><g id="node-16" transform="translate(89.345,55.329)"><circle r="2.5" /></g><g id="node-17" transform="translate(88.674,54.360)"><circle r="2.5" /></g><g id="node-18" transform="translate(89.777,53.391)"><circle r="2.5" /></g><g id="node-19" transform="translate(88.541,52.422)"><circle r="2.5" /></g><g id="node-20" transform="translate(87.357,51.453)"><circle r="2.5" /></g><g id="node-21" transform="translate(90.593,50.484)"><circle r="2.5" /></g><g id="node-22" transform="translate(90.308,49.516)"><circle r="2.5" /></g><g id="node-23" transform="translate(91.358,48.547)"><circle r="2.5" /></g><g id="node-24" transform="translate(87.658,47.578)"><circle r="2.5" /></g><g id="node-25" transform="translate(92.477,46.609)"><circle r="2.5" /></g><g id="node-26" transform="translate(88.164,45.640)"><circle r="2.5" /></g><g id="node-27" transform="translate(94.635,44.671)"><circle r="2.5" /></g><g id="node-28" transform="translate(95.195,43.702)"><circle r="2.5" /></g><g id="node-29" transform="translate(95.327,42.733)"><circle r="2.5" /></g><g id="node-30" transform="translate(77.515,41.764)"><circle r="2.5" /></g><g id="node-31" transform="translate(90.437,40.795)"><circle r="2.5" /></g><g id="node-32" transform="translate(91.097,39.826)"><circle r="2.5" /></g><g id="node-33" transform="translate(87.392,38.857)"><circle r="2.5" /></g><g id="node-34" transform="translate(91.388,37.888)"><circle r="2.5" /></g><g id="node-35" transform="translate(102.657,36.919)"><circle r="2.5" /></g><g id="node-36" transform="translate(99.024,35.950)"><circle r="2.5" /></g><g id="node-37" transform="translate(102.644,34.981)"><circle r="2.5" /></g><g id="node-38" transform="translate(103.687,34.012)"><circle r="2.5" /></g><g id="node-39" transform="translate(103.680,33.043)"><circle r="2.5" /></g><g id="node-40" transform="translate(93.945,32.074)"><circle r="2.5" /></g><g id="node-41" transform="translate(84.005,31.105)"><circle r="2.5" /></g><g id="node-42" transform="translate(93.104,30.136)"><circle r="2.5" /></g><g id="node-43" transform="translate(90.015,29.167)"><circle r="2.5" /></g><g id="node-44" transform="translate(88.217,70.349)"><circle r="0.0" /></g><g id="node-45" transform="translate(87.749,69.622)"><circle r="0.0" /></g><g id="node-46" transform="translate(84.241,68.774)"><circle r="0.0" /></g><g id="node-47" transform="translate(86.378,66.473)"><circle r="0.0" /></g><g id="node-48" transform="translate(96.937,64.535)"><circle r="0.0" /></g><g id="node-49" transform="translate(82.887,67.624)"><circle r="0.0" /></g><g id="node-50" transform="translate(80.855,63.808)"><circle r="0.0" /></g><g id="node-51" transform="translate(74.699,65.716)"><circle r="0.0" /></g><g id="node-52" transform="translate(83.646,59.690)"><circle r="0.0" /></g><g id="node-53" transform="translate(79.076,57.752)"><circle r="0.0" /></g><g id="node-54" transform="translate(62.717,63.914)"><circle r="0.0" /></g><g id="node-55" transform="translate(76.506,58.721)"><circle r="0.0" /></g><g id="node-56" transform="translate(56.469,62.529)"><circle r="0.0" /></g><g id="node-57" transform="translate(62.822,57.510)"><circle r="0.0" /></g><g id="node-58" transform="translate(58.860,54.845)"><circle r="0.0" /></g><g id="node-59" transform="translate(51.314,60.019)"><circle r="0.0" /></g><g id="node-60" transform="translate(55.897,54.118)"><circle r="0.0" /></g><g id="node-61" transform="translate(50.406,57.069)"><circle r="0.0" /></g><g id="node-62" transform="translate(51.681,51.938)"><circle r="0.0" /></g><g id="node-63" transform="translate(47.279,54.503)"><circle r="0.0" /></g><g id="node-64" transform="translate(60.861,49.031)"><circle r="0.0" /></g><g id="node-65" transform="translate(83.742,44.186)"><circle r="0.0" /></g><g id="node-66" transform="translate(45.536,52.494)"><circle r="0.0" /></g><g id="node-67" transform="translate(55.815,48.304)"><circle r="0.0" /></g><g id="node-68" transform="translate(68.297,43.459)"><circle r="0.0" /></g><g id="node-69" transform="translate(52.637,40.310)"><circle r="0.0" /></g><g id="node-70" transform="translate(43.830,50.399)"><circle r="0.0" /></g><g id="node-71" transform="translate(42.358,42.611)"><circle r="0.0" /></g><g id="node-72" transform="translate(43.877,39.583)"><circle r="0.0" /></g><g id="node-73" transform="translate(43.120,48.504)"><circle r="0.0" /></g><g id="node-74" transform="translate(40.112,41.097)"><circle r="0.0" /></g><g id="node-75" transform="translate(60.316,36.434)"><circle r="0.0" /></g><g id="node-76" transform="translate(37.261,47.072)"><circle r="0.0" /></g><g id="node-77" transform="translate(36.979,39.492)"><circle r="0.0" /></g><g id="node-78" transform="translate(55.432,35.707)"><circle r="0.0" /></g><g id="node-79" transform="translate(40.325,33.527)"><circle r="0.0" /></g><g id="node-80" transform="translate(34.918,43.282)"><circle r="0.0" /></g><g id="node-81" transform="translate(36.351,34.617)"><circle r="0.0" /></g><g id="node-82" transform="translate(33.996,38.950)"><circle r="0.0" /></g><g id="node-83" transform="translate(32.727,35.512)"><circle r="0.0" /></g><g id="node-84" transform="translate(29.922,33.308)"><circle r="0.0" /></g><g id="node-85" transform="translate(83.933,29.651)"><circle r="0.0" /></g><g id="node-86" transform="translate(25.000,31.480)"><circle r="0.0" /></g></g></g></g></g><g class="toyplot-coordinates-Cartesian" id="t02b686dc209a49ca957d57c873a1c1f9"><clipPath id="t6d48c47c06b6477083e7fcb09b62bd49"><rect x="155.0" y="15.0" width="110.0" height="70.0" /></clipPath><g clip-path="url(#t6d48c47c06b6477083e7fcb09b62bd49)"><g class="toytree-mark-Toytree" id="t3d89c51c3e4247248affbfa7d591d299"><g class="toytree-Edges" style="fill:none;stroke:rgb(14.9%,14.9%,14.9%);stroke-linecap:round;stroke-opacity:1;stroke-width:0.5"><path d="M 165.0 30.7 L 165.0 32.2 L 189.0 32.2" id="86,85" /><path d="M 189.0 32.2 L 189.0 34.3 L 194.1 34.3" id="85,84" /><path d="M 194.1 34.3 L 194.1 31.6 L 206.2 31.6" id="84,83" /><path d="M 194.1 34.3 L 194.1 37.1 L 197.1 37.1" id="84,82" /><path d="M 197.1 37.1 L 197.1 33.8 L 201.6 33.8" id="82,81" /><path d="M 197.1 37.1 L 197.1 40.4 L 199.9 40.4" id="82,80" /><path d="M 201.6 33.8 L 201.6 34.5 L 230.5 34.5" id="81,79" /><path d="M 199.9 40.4 L 199.9 36.4 L 205.0 36.4" id="80,78" /><path d="M 199.9 40.4 L 199.9 44.5 L 200.6 44.5" id="80,77" /><path d="M 200.6 44.5 L 200.6 39.5 L 201.6 39.5" id="77,76" /><path d="M 200.6 44.5 L 200.6 49.4 L 201.9 49.4" id="77,75" /><path d="M 201.6 39.5 L 201.6 38.4 L 209.0 38.4" id="76,74" /><path d="M 201.6 39.5 L 201.6 40.7 L 202.7 40.7" id="76,73" /><path d="M 201.9 49.4 L 201.9 55.1 L 203.8 55.1" id="75,72" /><path d="M 202.7 40.7 L 202.7 41.5 L 206.5 41.5" id="73,71" /><path d="M 203.8 55.1 L 203.8 47.6 L 204.9 47.6" id="72,70" /><path d="M 203.8 55.1 L 203.8 62.5 L 204.0 62.5" id="72,69" /><path d="M 206.5 41.5 L 206.5 42.2 L 214.4 42.2" id="71,68" /><path d="M 204.9 47.6 L 204.9 45.2 L 205.6 45.2" id="70,67" /><path d="M 204.9 47.6 L 204.9 50.1 L 207.3 50.1" id="70,66" /><path d="M 204.0 62.5 L 204.0 58.6 L 204.2 58.6" id="69,65" /><path d="M 204.0 62.5 L 204.0 66.5 L 204.4 66.5" id="69,64" /><path d="M 207.3 50.1 L 207.3 48.1 L 214.7 48.1" id="66,63" /><path d="M 207.3 50.1 L 207.3 52.1 L 208.3 52.1" id="66,62" /><path d="M 204.2 58.6 L 204.2 56.8 L 205.5 56.8" id="65,61" /><path d="M 204.2 58.6 L 204.2 60.4 L 205.4 60.4" id="65,60" /><path d="M 204.4 66.5 L 204.4 64.8 L 205.0 64.8" id="64,59" /><path d="M 204.4 66.5 L 204.4 68.2 L 206.2 68.2" id="64,58" /><path d="M 214.7 48.1 L 214.7 47.1 L 217.1 47.1" id="63,57" /><path d="M 214.7 48.1 L 214.7 49.0 L 219.7 49.0" id="63,56" /><path d="M 208.3 52.1 L 208.3 51.0 L 209.9 51.0" id="62,55" /><path d="M 208.3 52.1 L 208.3 53.3 L 209.7 53.3" id="62,54" /><path d="M 205.4 60.4 L 205.4 59.0 L 206.2 59.0" id="60,53" /><path d="M 205.4 60.4 L 205.4 61.9 L 208.2 61.9" id="60,52" /><path d="M 205.0 64.8 L 205.0 65.5 L 208.1 65.5" id="59,51" /><path d="M 206.2 68.2 L 206.2 69.4 L 207.8 69.4" id="58,50" /><path d="M 209.7 53.3 L 209.7 54.1 L 215.0 54.1" id="54,49" /><path d="M 206.2 59.0 L 206.2 59.7 L 212.8 59.7" id="53,48" /><path d="M 208.2 61.9 L 208.2 62.6 L 209.0 62.6" id="52,47" /><path d="M 207.8 69.4 L 207.8 68.4 L 230.9 68.4" id="50,46" /><path d="M 207.8 69.4 L 207.8 70.3 L 209.4 70.3" id="50,45" /><path d="M 215.0 54.1 L 215.0 54.8 L 220.1 54.8" id="49,44" /><path d="M 165.0 30.7 L 165.0 29.2 L 237.4 29.2" id="86,43" /><path d="M 189.0 32.2 L 189.0 30.1 L 230.7 30.1" id="85,42" /><path d="M 206.2 31.6 L 206.2 31.1 L 243.0 31.1" id="83,41" /><path d="M 206.2 31.6 L 206.2 32.1 L 241.0 32.1" id="83,40" /><path d="M 201.6 33.8 L 201.6 33.0 L 223.1 33.0" id="81,39" /><path d="M 230.5 34.5 L 230.5 34.0 L 246.6 34.0" id="79,38" /><path d="M 230.5 34.5 L 230.5 35.0 L 250.3 35.0" id="79,37" /><path d="M 205.0 36.4 L 205.0 35.9 L 242.9 35.9" id="78,36" /><path d="M 205.0 36.4 L 205.0 36.9 L 227.2 36.9" id="78,35" /><path d="M 209.0 38.4 L 209.0 37.9 L 243.0 37.9" id="74,34" /><path d="M 209.0 38.4 L 209.0 38.9 L 248.7 38.9" id="74,33" /><path d="M 202.7 40.7 L 202.7 39.8 L 229.4 39.8" id="73,32" /><path d="M 206.5 41.5 L 206.5 40.8 L 240.0 40.8" id="71,31" /><path d="M 214.4 42.2 L 214.4 41.8 L 242.6 41.8" id="68,30" /><path d="M 214.4 42.2 L 214.4 42.7 L 242.4 42.7" id="68,29" /><path d="M 201.9 49.4 L 201.9 43.7 L 229.6 43.7" id="75,28" /><path d="M 205.6 45.2 L 205.6 44.7 L 218.8 44.7" id="67,27" /><path d="M 205.6 45.2 L 205.6 45.6 L 205.6 45.6" id="67,26" /><path d="M 217.1 47.1 L 217.1 46.6 L 240.7 46.6" id="57,25" /><path d="M 217.1 47.1 L 217.1 47.6 L 240.3 47.6" id="57,24" /><path d="M 219.7 49.0 L 219.7 48.5 L 241.0 48.5" id="56,23" /><path d="M 219.7 49.0 L 219.7 49.5 L 240.9 49.5" id="56,22" /><path d="M 209.9 51.0 L 209.9 50.5 L 239.7 50.5" id="55,21" /><path d="M 209.9 51.0 L 209.9 51.5 L 239.1 51.5" id="55,20" /><path d="M 209.7 53.3 L 209.7 52.4 L 238.8 52.4" id="54,19" /><path d="M 215.0 54.1 L 215.0 53.4 L 239.6 53.4" id="49,18" /><path d="M 220.1 54.8 L 220.1 54.4 L 240.7 54.4" id="44,17" /><path d="M 220.1 54.8 L 220.1 55.3 L 242.2 55.3" id="44,16" /><path d="M 205.5 56.8 L 205.5 56.3 L 242.0 56.3" id="61,15" /><path d="M 205.5 56.8 L 205.5 57.3 L 236.3 57.3" id="61,14" /><path d="M 206.2 59.0 L 206.2 58.2 L 239.7 58.2" id="53,13" /><path d="M 212.8 59.7 L 212.8 59.2 L 235.6 59.2" id="48,12" /><path d="M 212.8 59.7 L 212.8 60.2 L 245.0 60.2" id="48,11" /><path d="M 208.2 61.9 L 208.2 61.1 L 238.2 61.1" id="52,10" /><path d="M 209.0 62.6 L 209.0 62.1 L 246.5 62.1" id="47,9" /><path d="M 209.0 62.6 L 209.0 63.1 L 238.0 63.1" id="47,8" /><path d="M 205.0 64.8 L 205.0 64.1 L 242.8 64.1" id="59,7" /><path d="M 208.1 65.5 L 208.1 65.0 L 241.2 65.0" id="51,6" /><path d="M 208.1 65.5 L 208.1 66.0 L 240.6 66.0" id="51,5" /><path d="M 206.2 68.2 L 206.2 67.0 L 235.9 67.0" id="58,4" /><path d="M 230.9 68.4 L 230.9 67.9 L 241.3 67.9" id="46,3" /><path d="M 230.9 68.4 L 230.9 68.9 L 241.2 68.9" id="46,2" /><path d="M 209.4 70.3 L 209.4 69.9 L 241.1 69.9" id="45,1" /><path d="M 209.4 70.3 L 209.4 70.8 L 240.9 70.8" id="45,0" /></g><g class="toytree-Nodes" style="fill:rgb(100%,0%,0%);fill-opacity:1.0;stroke:None;stroke-width:1"><g id="node-0" transform="translate(240.912,70.833)"><circle r="2.5" /></g><g id="node-1" transform="translate(241.093,69.864)"><circle r="2.5" /></g><g id="node-2" transform="translate(241.154,68.895)"><circle r="2.5" /></g><g id="node-3" transform="translate(241.274,67.926)"><circle r="2.5" /></g><g id="node-4" transform="translate(235.891,66.957)"><circle r="2.5" /></g><g id="node-5" transform="translate(240.584,65.988)"><circle r="2.5" /></g><g id="node-6" transform="translate(241.163,65.019)"><circle r="2.5" /></g><g id="node-7" transform="translate(242.768,64.050)"><circle r="2.5" /></g><g id="node-8" transform="translate(238.010,63.081)"><circle r="2.5" /></g><g id="node-9" transform="translate(246.548,62.112)"><circle r="2.5" /></g><g id="node-10" transform="translate(238.169,61.143)"><circle r="2.5" /></g><g id="node-11" transform="translate(244.994,60.174)"><circle r="2.5" /></g><g id="node-12" transform="translate(235.576,59.205)"><circle r="2.5" /></g><g id="node-13" transform="translate(239.727,58.236)"><circle r="2.5" /></g><g id="node-14" transform="translate(236.291,57.267)"><circle r="2.5" /></g><g id="node-15" transform="translate(241.960,56.298)"><circle r="2.5" /></g><g id="node-16" transform="translate(242.227,55.329)"><circle r="2.5" /></g><g id="node-17" transform="translate(240.731,54.360)"><circle r="2.5" /></g><g id="node-18" transform="translate(239.559,53.391)"><circle r="2.5" /></g><g id="node-19" transform="translate(238.809,52.422)"><circle r="2.5" /></g><g id="node-20" transform="translate(239.108,51.453)"><circle r="2.5" /></g><g id="node-21" transform="translate(239.723,50.484)"><circle r="2.5" /></g><g id="node-22" transform="translate(240.923,49.516)"><circle r="2.5" /></g><g id="node-23" transform="translate(241.020,48.547)"><circle r="2.5" /></g><g id="node-24" transform="translate(240.276,47.578)"><circle r="2.5" /></g><g id="node-25" transform="translate(240.700,46.609)"><circle r="2.5" /></g><g id="node-26" transform="translate(205.641,45.640)"><circle r="2.5" /></g><g id="node-27" transform="translate(218.809,44.671)"><circle r="2.5" /></g><g id="node-28" transform="translate(229.611,43.702)"><circle r="2.5" /></g><g id="node-29" transform="translate(242.352,42.733)"><circle r="2.5" /></g><g id="node-30" transform="translate(242.562,41.764)"><circle r="2.5" /></g><g id="node-31" transform="translate(239.952,40.795)"><circle r="2.5" /></g><g id="node-32" transform="translate(229.365,39.826)"><circle r="2.5" /></g><g id="node-33" transform="translate(248.745,38.857)"><circle r="2.5" /></g><g id="node-34" transform="translate(242.967,37.888)"><circle r="2.5" /></g><g id="node-35" transform="translate(227.222,36.919)"><circle r="2.5" /></g><g id="node-36" transform="translate(242.882,35.950)"><circle r="2.5" /></g><g id="node-37" transform="translate(250.263,34.981)"><circle r="2.5" /></g><g id="node-38" transform="translate(246.572,34.012)"><circle r="2.5" /></g><g id="node-39" transform="translate(223.131,33.043)"><circle r="2.5" /></g><g id="node-40" transform="translate(240.964,32.074)"><circle r="2.5" /></g><g id="node-41" transform="translate(242.953,31.105)"><circle r="2.5" /></g><g id="node-42" transform="translate(230.667,30.136)"><circle r="2.5" /></g><g id="node-43" transform="translate(237.405,29.167)"><circle r="2.5" /></g><g id="node-44" transform="translate(220.088,54.845)"><circle r="0.0" /></g><g id="node-45" transform="translate(209.414,70.349)"><circle r="0.0" /></g><g id="node-46" transform="translate(230.881,68.411)"><circle r="0.0" /></g><g id="node-47" transform="translate(209.043,62.597)"><circle r="0.0" /></g><g id="node-48" transform="translate(212.790,59.690)"><circle r="0.0" /></g><g id="node-49" transform="translate(214.989,54.118)"><circle r="0.0" /></g><g id="node-50" transform="translate(207.824,69.380)"><circle r="0.0" /></g><g id="node-51" transform="translate(208.117,65.504)"><circle r="0.0" /></g><g id="node-52" transform="translate(208.206,61.870)"><circle r="0.0" /></g><g id="node-53" transform="translate(206.163,58.963)"><circle r="0.0" /></g><g id="node-54" transform="translate(209.696,53.270)"><circle r="0.0" /></g><g id="node-55" transform="translate(209.946,50.969)"><circle r="0.0" /></g><g id="node-56" transform="translate(219.671,49.031)"><circle r="0.0" /></g><g id="node-57" transform="translate(217.114,47.093)"><circle r="0.0" /></g><g id="node-58" transform="translate(206.212,68.169)"><circle r="0.0" /></g><g id="node-59" transform="translate(205.007,64.777)"><circle r="0.0" /></g><g id="node-60" transform="translate(205.382,60.417)"><circle r="0.0" /></g><g id="node-61" transform="translate(205.464,56.783)"><circle r="0.0" /></g><g id="node-62" transform="translate(208.334,52.120)"><circle r="0.0" /></g><g id="node-63" transform="translate(214.650,48.062)"><circle r="0.0" /></g><g id="node-64" transform="translate(204.449,66.473)"><circle r="0.0" /></g><g id="node-65" transform="translate(204.201,58.600)"><circle r="0.0" /></g><g id="node-66" transform="translate(207.318,50.091)"><circle r="0.0" /></g><g id="node-67" transform="translate(205.641,45.155)"><circle r="0.0" /></g><g id="node-68" transform="translate(214.355,42.248)"><circle r="0.0" /></g><g id="node-69" transform="translate(204.025,62.536)"><circle r="0.0" /></g><g id="node-70" transform="translate(204.877,47.623)"><circle r="0.0" /></g><g id="node-71" transform="translate(206.541,41.521)"><circle r="0.0" /></g><g id="node-72" transform="translate(203.781,55.080)"><circle r="0.0" /></g><g id="node-73" transform="translate(202.707,40.673)"><circle r="0.0" /></g><g id="node-74" transform="translate(209.024,38.372)"><circle r="0.0" /></g><g id="node-75" transform="translate(201.870,49.391)"><circle r="0.0" /></g><g id="node-76" transform="translate(201.645,39.523)"><circle r="0.0" /></g><g id="node-77" transform="translate(200.635,44.457)"><circle r="0.0" /></g><g id="node-78" transform="translate(205.040,36.434)"><circle r="0.0" /></g><g id="node-79" transform="translate(230.522,34.496)"><circle r="0.0" /></g><g id="node-80" transform="translate(199.939,40.445)"><circle r="0.0" /></g><g id="node-81" transform="translate(201.573,33.769)"><circle r="0.0" /></g><g id="node-82" transform="translate(197.110,37.107)"><circle r="0.0" /></g><g id="node-83" transform="translate(206.213,31.589)"><circle r="0.0" /></g><g id="node-84" transform="translate(194.145,34.348)"><circle r="0.0" /></g><g id="node-85" transform="translate(188.992,32.242)"><circle r="0.0" /></g><g id="node-86" transform="translate(165.000,30.704)"><circle r="0.0" /></g></g></g></g></g><g class="toyplot-coordinates-Cartesian" id="t86a8f6e385164402a20ac090ae2d754c"><clipPath id="t09730a9fdfe44948b01349311acdb2cf"><rect x="295.0" y="15.0" width="110.0" height="70.0" /></clipPath><g clip-path="url(#t09730a9fdfe44948b01349311acdb2cf)"><g class="toytree-mark-Toytree" id="t40d1bae48f1e41aa9e549f580f4df3b3"><g class="toytree-Edges" style="fill:none;stroke:rgb(14.9%,14.9%,14.9%);stroke-linecap:round;stroke-opacity:1;stroke-width:0.5"><path d="M 305.0 32.7 L 305.0 29.9 L 321.0 29.9" id="86,85" /><path d="M 305.0 32.7 L 305.0 35.5 L 313.3 35.5" id="86,84" /><path d="M 321.0 29.9 L 321.0 30.6 L 324.6 30.6" id="85,83" /><path d="M 313.3 35.5 L 313.3 32.9 L 318.4 32.9" id="84,82" /><path d="M 313.3 35.5 L 313.3 38.0 L 314.9 38.0" id="84,81" /><path d="M 318.4 32.9 L 318.4 33.8 L 325.5 33.8" id="82,80" /><path d="M 314.9 38.0 L 314.9 40.1 L 319.8 40.1" id="81,79" /><path d="M 325.5 33.8 L 325.5 34.5 L 355.1 34.5" id="80,78" /><path d="M 319.8 40.1 L 319.8 37.6 L 327.1 37.6" id="79,77" /><path d="M 319.8 40.1 L 319.8 42.5 L 321.9 42.5" id="79,76" /><path d="M 327.1 37.6 L 327.1 38.4 L 341.7 38.4" id="77,75" /><path d="M 321.9 42.5 L 321.9 45.2 L 325.2 45.2" id="76,74" /><path d="M 325.2 45.2 L 325.2 41.6 L 328.4 41.6" id="74,73" /><path d="M 325.2 45.2 L 325.2 48.8 L 328.7 48.8" id="74,72" /><path d="M 328.4 41.6 L 328.4 42.5 L 332.2 42.5" id="73,71" /><path d="M 328.7 48.8 L 328.7 45.5 L 332.1 45.5" id="72,70" /><path d="M 328.7 48.8 L 328.7 52.2 L 329.4 52.2" id="72,69" /><path d="M 332.2 42.5 L 332.2 43.2 L 340.8 43.2" id="71,68" /><path d="M 332.1 45.5 L 332.1 46.4 L 334.8 46.4" id="70,67" /><path d="M 329.4 52.2 L 329.4 49.4 L 332.1 49.4" id="69,66" /><path d="M 329.4 52.2 L 329.4 55.0 L 332.2 55.0" id="69,65" /><path d="M 334.8 46.4 L 334.8 47.1 L 350.4 47.1" id="67,64" /><path d="M 332.1 49.4 L 332.1 50.2 L 334.3 50.2" id="66,63" /><path d="M 332.2 55.0 L 332.2 52.9 L 336.0 52.9" id="65,62" /><path d="M 332.2 55.0 L 332.2 57.0 L 334.7 57.0" id="65,61" /><path d="M 334.3 50.2 L 334.3 51.0 L 337.4 51.0" id="63,60" /><path d="M 334.7 57.0 L 334.7 59.7 L 335.6 59.7" id="61,59" /><path d="M 335.6 59.7 L 335.6 57.0 L 337.7 57.0" id="59,58" /><path d="M 335.6 59.7 L 335.6 62.4 L 337.0 62.4" id="59,57" /><path d="M 337.7 57.0 L 337.7 55.8 L 340.6 55.8" id="58,56" /><path d="M 337.7 57.0 L 337.7 58.1 L 342.6 58.1" id="58,55" /><path d="M 337.0 62.4 L 337.0 63.6 L 337.5 63.6" id="57,54" /><path d="M 342.6 58.1 L 342.6 59.0 L 345.4 59.0" id="55,53" /><path d="M 337.5 63.6 L 337.5 65.1 L 341.1 65.1" id="54,52" /><path d="M 345.4 59.0 L 345.4 59.7 L 346.6 59.7" id="53,51" /><path d="M 341.1 65.1 L 341.1 67.1 L 342.5 67.1" id="52,50" /><path d="M 342.5 67.1 L 342.5 65.5 L 345.1 65.5" id="50,49" /><path d="M 342.5 67.1 L 342.5 68.8 L 346.7 68.8" id="50,48" /><path d="M 345.1 65.5 L 345.1 64.5 L 351.1 64.5" id="49,47" /><path d="M 345.1 65.5 L 345.1 66.5 L 359.3 66.5" id="49,46" /><path d="M 346.7 68.8 L 346.7 69.6 L 348.4 69.6" id="48,45" /><path d="M 348.4 69.6 L 348.4 70.3 L 350.4 70.3" id="45,44" /><path d="M 321.0 29.9 L 321.0 29.2 L 352.9 29.2" id="85,43" /><path d="M 324.6 30.6 L 324.6 30.1 L 354.9 30.1" id="83,42" /><path d="M 324.6 30.6 L 324.6 31.1 L 368.2 31.1" id="83,41" /><path d="M 318.4 32.9 L 318.4 32.1 L 369.4 32.1" id="82,40" /><path d="M 325.5 33.8 L 325.5 33.0 L 385.1 33.0" id="80,39" /><path d="M 355.1 34.5 L 355.1 34.0 L 361.4 34.0" id="78,38" /><path d="M 355.1 34.5 L 355.1 35.0 L 373.3 35.0" id="78,37" /><path d="M 314.9 38.0 L 314.9 35.9 L 360.1 35.9" id="81,36" /><path d="M 327.1 37.6 L 327.1 36.9 L 350.0 36.9" id="77,35" /><path d="M 341.7 38.4 L 341.7 37.9 L 356.0 37.9" id="75,34" /><path d="M 341.7 38.4 L 341.7 38.9 L 358.0 38.9" id="75,33" /><path d="M 321.9 42.5 L 321.9 39.8 L 358.1 39.8" id="76,32" /><path d="M 328.4 41.6 L 328.4 40.8 L 344.9 40.8" id="73,31" /><path d="M 332.2 42.5 L 332.2 41.8 L 358.9 41.8" id="71,30" /><path d="M 340.8 43.2 L 340.8 42.7 L 362.4 42.7" id="68,29" /><path d="M 340.8 43.2 L 340.8 43.7 L 360.5 43.7" id="68,28" /><path d="M 332.1 45.5 L 332.1 44.7 L 359.3 44.7" id="70,27" /><path d="M 334.8 46.4 L 334.8 45.6 L 374.3 45.6" id="67,26" /><path d="M 350.4 47.1 L 350.4 46.6 L 384.9 46.6" id="64,25" /><path d="M 350.4 47.1 L 350.4 47.6 L 390.3 47.6" id="64,24" /><path d="M 332.1 49.4 L 332.1 48.5 L 357.5 48.5" id="66,23" /><path d="M 334.3 50.2 L 334.3 49.5 L 351.3 49.5" id="63,22" /><path d="M 337.4 51.0 L 337.4 50.5 L 347.0 50.5" id="60,21" /><path d="M 337.4 51.0 L 337.4 51.5 L 348.3 51.5" id="60,20" /><path d="M 336.0 52.9 L 336.0 52.4 L 348.4 52.4" id="62,19" /><path d="M 336.0 52.9 L 336.0 53.4 L 354.1 53.4" id="62,18" /><path d="M 334.7 57.0 L 334.7 54.4 L 358.1 54.4" id="61,17" /><path d="M 340.6 55.8 L 340.6 55.3 L 372.1 55.3" id="56,16" /><path d="M 340.6 55.8 L 340.6 56.3 L 367.5 56.3" id="56,15" /><path d="M 342.6 58.1 L 342.6 57.3 L 349.3 57.3" id="55,14" /><path d="M 345.4 59.0 L 345.4 58.2 L 351.7 58.2" id="53,13" /><path d="M 346.6 59.7 L 346.6 59.2 L 350.1 59.2" id="51,12" /><path d="M 346.6 59.7 L 346.6 60.2 L 350.5 60.2" id="51,11" /><path d="M 337.0 62.4 L 337.0 61.1 L 354.4 61.1" id="57,10" /><path d="M 337.5 63.6 L 337.5 62.1 L 353.0 62.1" id="54,9" /><path d="M 341.1 65.1 L 341.1 63.1 L 356.4 63.1" id="52,8" /><path d="M 351.1 64.5 L 351.1 64.1 L 354.3 64.1" id="47,7" /><path d="M 351.1 64.5 L 351.1 65.0 L 355.6 65.0" id="47,6" /><path d="M 359.3 66.5 L 359.3 66.0 L 365.7 66.0" id="46,5" /><path d="M 359.3 66.5 L 359.3 67.0 L 368.6 67.0" id="46,4" /><path d="M 346.7 68.8 L 346.7 67.9 L 354.2 67.9" id="48,3" /><path d="M 348.4 69.6 L 348.4 68.9 L 356.5 68.9" id="45,2" /><path d="M 350.4 70.3 L 350.4 69.9 L 358.9 69.9" id="44,1" /><path d="M 350.4 70.3 L 350.4 70.8 L 354.7 70.8" id="44,0" /></g><g class="toytree-Nodes" style="fill:rgb(100%,0%,0%);fill-opacity:1.0;stroke:None;stroke-width:1"><g id="node-0" transform="translate(354.711,70.833)"><circle r="2.5" /></g><g id="node-1" transform="translate(358.855,69.864)"><circle r="2.5" /></g><g id="node-2" transform="translate(356.516,68.895)"><circle r="2.5" /></g><g id="node-3" transform="translate(354.248,67.926)"><circle r="2.5" /></g><g id="node-4" transform="translate(368.624,66.957)"><circle r="2.5" /></g><g id="node-5" transform="translate(365.746,65.988)"><circle r="2.5" /></g><g id="node-6" transform="translate(355.555,65.019)"><circle r="2.5" /></g><g id="node-7" transform="translate(354.349,64.050)"><circle r="2.5" /></g><g id="node-8" transform="translate(356.380,63.081)"><circle r="2.5" /></g><g id="node-9" transform="translate(353.046,62.112)"><circle r="2.5" /></g><g id="node-10" transform="translate(354.398,61.143)"><circle r="2.5" /></g><g id="node-11" transform="translate(350.480,60.174)"><circle r="2.5" /></g><g id="node-12" transform="translate(350.074,59.205)"><circle r="2.5" /></g><g id="node-13" transform="translate(351.712,58.236)"><circle r="2.5" /></g><g id="node-14" transform="translate(349.335,57.267)"><circle r="2.5" /></g><g id="node-15" transform="translate(367.527,56.298)"><circle r="2.5" /></g><g id="node-16" transform="translate(372.071,55.329)"><circle r="2.5" /></g><g id="node-17" transform="translate(358.102,54.360)"><circle r="2.5" /></g><g id="node-18" transform="translate(354.146,53.391)"><circle r="2.5" /></g><g id="node-19" transform="translate(348.442,52.422)"><circle r="2.5" /></g><g id="node-20" transform="translate(348.322,51.453)"><circle r="2.5" /></g><g id="node-21" transform="translate(347.003,50.484)"><circle r="2.5" /></g><g id="node-22" transform="translate(351.275,49.516)"><circle r="2.5" /></g><g id="node-23" transform="translate(357.469,48.547)"><circle r="2.5" /></g><g id="node-24" transform="translate(390.263,47.578)"><circle r="2.5" /></g><g id="node-25" transform="translate(384.876,46.609)"><circle r="2.5" /></g><g id="node-26" transform="translate(374.290,45.640)"><circle r="2.5" /></g><g id="node-27" transform="translate(359.341,44.671)"><circle r="2.5" /></g><g id="node-28" transform="translate(360.483,43.702)"><circle r="2.5" /></g><g id="node-29" transform="translate(362.381,42.733)"><circle r="2.5" /></g><g id="node-30" transform="translate(358.851,41.764)"><circle r="2.5" /></g><g id="node-31" transform="translate(344.878,40.795)"><circle r="2.5" /></g><g id="node-32" transform="translate(358.060,39.826)"><circle r="2.5" /></g><g id="node-33" transform="translate(357.970,38.857)"><circle r="2.5" /></g><g id="node-34" transform="translate(355.996,37.888)"><circle r="2.5" /></g><g id="node-35" transform="translate(350.032,36.919)"><circle r="2.5" /></g><g id="node-36" transform="translate(360.110,35.950)"><circle r="2.5" /></g><g id="node-37" transform="translate(373.303,34.981)"><circle r="2.5" /></g><g id="node-38" transform="translate(361.353,34.012)"><circle r="2.5" /></g><g id="node-39" transform="translate(385.057,33.043)"><circle r="2.5" /></g><g id="node-40" transform="translate(369.381,32.074)"><circle r="2.5" /></g><g id="node-41" transform="translate(368.233,31.105)"><circle r="2.5" /></g><g id="node-42" transform="translate(354.949,30.136)"><circle r="2.5" /></g><g id="node-43" transform="translate(352.945,29.167)"><circle r="2.5" /></g><g id="node-44" transform="translate(350.360,70.349)"><circle r="0.0" /></g><g id="node-45" transform="translate(348.427,69.622)"><circle r="0.0" /></g><g id="node-46" transform="translate(359.349,66.473)"><circle r="0.0" /></g><g id="node-47" transform="translate(351.147,64.535)"><circle r="0.0" /></g><g id="node-48" transform="translate(346.698,68.774)"><circle r="0.0" /></g><g id="node-49" transform="translate(345.101,65.504)"><circle r="0.0" /></g><g id="node-50" transform="translate(342.464,67.139)"><circle r="0.0" /></g><g id="node-51" transform="translate(346.604,59.690)"><circle r="0.0" /></g><g id="node-52" transform="translate(341.073,65.110)"><circle r="0.0" /></g><g id="node-53" transform="translate(345.410,58.963)"><circle r="0.0" /></g><g id="node-54" transform="translate(337.547,63.611)"><circle r="0.0" /></g><g id="node-55" transform="translate(342.644,58.115)"><circle r="0.0" /></g><g id="node-56" transform="translate(340.640,55.814)"><circle r="0.0" /></g><g id="node-57" transform="translate(337.035,62.377)"><circle r="0.0" /></g><g id="node-58" transform="translate(337.683,56.965)"><circle r="0.0" /></g><g id="node-59" transform="translate(335.611,59.671)"><circle r="0.0" /></g><g id="node-60" transform="translate(337.359,50.969)"><circle r="0.0" /></g><g id="node-61" transform="translate(334.695,57.016)"><circle r="0.0" /></g><g id="node-62" transform="translate(335.999,52.907)"><circle r="0.0" /></g><g id="node-63" transform="translate(334.315,50.242)"><circle r="0.0" /></g><g id="node-64" transform="translate(350.443,47.093)"><circle r="0.0" /></g><g id="node-65" transform="translate(332.201,54.961)"><circle r="0.0" /></g><g id="node-66" transform="translate(332.070,49.394)"><circle r="0.0" /></g><g id="node-67" transform="translate(334.790,46.366)"><circle r="0.0" /></g><g id="node-68" transform="translate(340.806,43.217)"><circle r="0.0" /></g><g id="node-69" transform="translate(329.357,52.178)"><circle r="0.0" /></g><g id="node-70" transform="translate(332.122,45.518)"><circle r="0.0" /></g><g id="node-71" transform="translate(332.160,42.490)"><circle r="0.0" /></g><g id="node-72" transform="translate(328.671,48.848)"><circle r="0.0" /></g><g id="node-73" transform="translate(328.423,41.642)"><circle r="0.0" /></g><g id="node-74" transform="translate(325.247,45.245)"><circle r="0.0" /></g><g id="node-75" transform="translate(341.669,38.372)"><circle r="0.0" /></g><g id="node-76" transform="translate(321.902,42.535)"><circle r="0.0" /></g><g id="node-77" transform="translate(327.127,37.645)"><circle r="0.0" /></g><g id="node-78" transform="translate(355.084,34.496)"><circle r="0.0" /></g><g id="node-79" transform="translate(319.784,40.090)"><circle r="0.0" /></g><g id="node-80" transform="translate(325.503,33.769)"><circle r="0.0" /></g><g id="node-81" transform="translate(314.906,38.020)"><circle r="0.0" /></g><g id="node-82" transform="translate(318.364,32.922)"><circle r="0.0" /></g><g id="node-83" transform="translate(324.558,30.620)"><circle r="0.0" /></g><g id="node-84" transform="translate(313.267,35.471)"><circle r="0.0" /></g><g id="node-85" transform="translate(320.979,29.893)"><circle r="0.0" /></g><g id="node-86" transform="translate(305.000,32.682)"><circle r="0.0" /></g></g></g></g></g><g class="toyplot-coordinates-Cartesian" id="t8833dba307b344d49ba4d979f66c83fe"><clipPath id="t3a6c3ab8afb647e5b4959f7f6e0d3db4"><rect x="435.0" y="15.0" width="110.0" height="70.0" /></clipPath><g clip-path="url(#t3a6c3ab8afb647e5b4959f7f6e0d3db4)"><g class="toytree-mark-Toytree" id="t5df772369fa348589e43dc10d7f9d837"><g class="toytree-Edges" style="fill:none;stroke:rgb(14.9%,14.9%,14.9%);stroke-linecap:round;stroke-opacity:1;stroke-width:0.5"><path d="M 445.0 32.3 L 445.0 29.9 L 446.8 29.9" id="86,85" /><path d="M 445.0 32.3 L 445.0 34.7 L 449.6 34.7" id="86,84" /><path d="M 446.8 29.9 L 446.8 30.6 L 513.3 30.6" id="85,83" /><path d="M 449.6 34.7 L 449.6 37.3 L 454.1 37.3" id="84,82" /><path d="M 454.1 37.3 L 454.1 33.8 L 492.8 33.8" id="82,81" /><path d="M 454.1 37.3 L 454.1 40.8 L 460.0 40.8" id="82,80" /><path d="M 492.8 33.8 L 492.8 34.5 L 498.6 34.5" id="81,79" /><path d="M 460.0 40.8 L 460.0 36.7 L 465.0 36.7" id="80,78" /><path d="M 460.0 40.8 L 460.0 45.0 L 466.3 45.0" id="80,77" /><path d="M 465.0 36.7 L 465.0 37.4 L 476.7 37.4" id="78,76" /><path d="M 466.3 45.0 L 466.3 41.1 L 469.8 41.1" id="77,75" /><path d="M 466.3 45.0 L 466.3 48.9 L 477.1 48.9" id="77,74" /><path d="M 469.8 41.1 L 469.8 39.6 L 508.0 39.6" id="75,73" /><path d="M 469.8 41.1 L 469.8 42.7 L 478.0 42.7" id="75,72" /><path d="M 477.1 48.9 L 477.1 51.2 L 481.4 51.2" id="74,71" /><path d="M 508.0 39.6 L 508.0 40.3 L 511.9 40.3" id="73,70" /><path d="M 478.0 42.7 L 478.0 43.6 L 482.6 43.6" id="72,69" /><path d="M 481.4 51.2 L 481.4 48.3 L 491.0 48.3" id="71,68" /><path d="M 481.4 51.2 L 481.4 54.1 L 485.2 54.1" id="71,67" /><path d="M 482.6 43.6 L 482.6 44.4 L 498.1 44.4" id="69,66" /><path d="M 491.0 48.3 L 491.0 49.0 L 498.3 49.0" id="68,65" /><path d="M 485.2 54.1 L 485.2 51.2 L 490.5 51.2" id="67,64" /><path d="M 485.2 54.1 L 485.2 57.0 L 491.5 57.0" id="67,63" /><path d="M 498.1 44.4 L 498.1 45.2 L 503.8 45.2" id="66,62" /><path d="M 490.5 51.2 L 490.5 51.9 L 493.6 51.9" id="64,61" /><path d="M 491.5 57.0 L 491.5 54.1 L 497.0 54.1" id="63,60" /><path d="M 491.5 57.0 L 491.5 59.8 L 496.4 59.8" id="63,59" /><path d="M 497.0 54.1 L 497.0 54.8 L 501.7 54.8" id="60,58" /><path d="M 496.4 59.8 L 496.4 57.5 L 503.6 57.5" id="59,57" /><path d="M 496.4 59.8 L 496.4 62.2 L 502.1 62.2" id="59,56" /><path d="M 503.6 57.5 L 503.6 58.7 L 508.0 58.7" id="57,55" /><path d="M 502.1 62.2 L 502.1 63.2 L 505.7 63.2" id="56,54" /><path d="M 508.0 58.7 L 508.0 57.8 L 510.4 57.8" id="55,53" /><path d="M 508.0 58.7 L 508.0 59.7 L 508.4 59.7" id="55,52" /><path d="M 505.7 63.2 L 505.7 64.3 L 510.0 64.3" id="54,51" /><path d="M 510.0 64.3 L 510.0 65.5 L 511.0 65.5" id="51,50" /><path d="M 511.0 65.5 L 511.0 67.0 L 511.4 67.0" id="50,49" /><path d="M 511.4 67.0 L 511.4 65.5 L 512.8 65.5" id="49,48" /><path d="M 511.4 67.0 L 511.4 68.5 L 512.3 68.5" id="49,47" /><path d="M 512.3 68.5 L 512.3 67.4 L 517.2 67.4" id="47,46" /><path d="M 512.3 68.5 L 512.3 69.6 L 512.5 69.6" id="47,45" /><path d="M 512.5 69.6 L 512.5 70.3 L 512.5 70.3" id="45,44" /><path d="M 446.8 29.9 L 446.8 29.2 L 503.8 29.2" id="85,43" /><path d="M 513.3 30.6 L 513.3 30.1 L 517.0 30.1" id="83,42" /><path d="M 513.3 30.6 L 513.3 31.1 L 513.3 31.1" id="83,41" /><path d="M 449.6 34.7 L 449.6 32.1 L 489.5 32.1" id="84,40" /><path d="M 492.8 33.8 L 492.8 33.0 L 514.0 33.0" id="81,39" /><path d="M 498.6 34.5 L 498.6 34.0 L 506.8 34.0" id="79,38" /><path d="M 498.6 34.5 L 498.6 35.0 L 520.7 35.0" id="79,37" /><path d="M 465.0 36.7 L 465.0 35.9 L 494.7 35.9" id="78,36" /><path d="M 476.7 37.4 L 476.7 36.9 L 526.6 36.9" id="76,35" /><path d="M 476.7 37.4 L 476.7 37.9 L 515.4 37.9" id="76,34" /><path d="M 508.0 39.6 L 508.0 38.9 L 519.5 38.9" id="73,33" /><path d="M 511.9 40.3 L 511.9 39.8 L 514.8 39.8" id="70,32" /><path d="M 511.9 40.3 L 511.9 40.8 L 514.2 40.8" id="70,31" /><path d="M 478.0 42.7 L 478.0 41.8 L 506.9 41.8" id="72,30" /><path d="M 482.6 43.6 L 482.6 42.7 L 505.3 42.7" id="69,29" /><path d="M 498.1 44.4 L 498.1 43.7 L 510.5 43.7" id="66,28" /><path d="M 503.8 45.2 L 503.8 44.7 L 517.4 44.7" id="62,27" /><path d="M 503.8 45.2 L 503.8 45.6 L 530.3 45.6" id="62,26" /><path d="M 477.1 48.9 L 477.1 46.6 L 505.3 46.6" id="74,25" /><path d="M 491.0 48.3 L 491.0 47.6 L 501.2 47.6" id="68,24" /><path d="M 498.3 49.0 L 498.3 48.5 L 507.1 48.5" id="65,23" /><path d="M 498.3 49.0 L 498.3 49.5 L 508.5 49.5" id="65,22" /><path d="M 490.5 51.2 L 490.5 50.5 L 501.1 50.5" id="64,21" /><path d="M 493.6 51.9 L 493.6 51.5 L 508.4 51.5" id="61,20" /><path d="M 493.6 51.9 L 493.6 52.4 L 518.2 52.4" id="61,19" /><path d="M 497.0 54.1 L 497.0 53.4 L 509.8 53.4" id="60,18" /><path d="M 501.7 54.8 L 501.7 54.4 L 510.0 54.4" id="58,17" /><path d="M 501.7 54.8 L 501.7 55.3 L 513.1 55.3" id="58,16" /><path d="M 503.6 57.5 L 503.6 56.3 L 515.1 56.3" id="57,15" /><path d="M 510.4 57.8 L 510.4 57.3 L 511.0 57.3" id="53,14" /><path d="M 510.4 57.8 L 510.4 58.2 L 511.1 58.2" id="53,13" /><path d="M 508.4 59.7 L 508.4 59.2 L 509.9 59.2" id="52,12" /><path d="M 508.4 59.7 L 508.4 60.2 L 511.0 60.2" id="52,11" /><path d="M 502.1 62.2 L 502.1 61.1 L 512.2 61.1" id="56,10" /><path d="M 505.7 63.2 L 505.7 62.1 L 515.2 62.1" id="54,9" /><path d="M 510.0 64.3 L 510.0 63.1 L 513.2 63.1" id="51,8" /><path d="M 511.0 65.5 L 511.0 64.1 L 511.3 64.1" id="50,7" /><path d="M 512.8 65.5 L 512.8 65.0 L 513.0 65.0" id="48,6" /><path d="M 512.8 65.5 L 512.8 66.0 L 513.5 66.0" id="48,5" /><path d="M 517.2 67.4 L 517.2 67.0 L 518.4 67.0" id="46,4" /><path d="M 517.2 67.4 L 517.2 67.9 L 517.7 67.9" id="46,3" /><path d="M 512.5 69.6 L 512.5 68.9 L 512.5 68.9" id="45,2" /><path d="M 512.5 70.3 L 512.5 69.9 L 512.7 69.9" id="44,1" /><path d="M 512.5 70.3 L 512.5 70.8 L 512.8 70.8" id="44,0" /></g><g class="toytree-Nodes" style="fill:rgb(100%,0%,0%);fill-opacity:1.0;stroke:None;stroke-width:1"><g id="node-0" transform="translate(512.811,70.833)"><circle r="2.5" /></g><g id="node-1" transform="translate(512.663,69.864)"><circle r="2.5" /></g><g id="node-2" transform="translate(512.517,68.895)"><circle r="2.5" /></g><g id="node-3" transform="translate(517.747,67.926)"><circle r="2.5" /></g><g id="node-4" transform="translate(518.375,66.957)"><circle r="2.5" /></g><g id="node-5" transform="translate(513.468,65.988)"><circle r="2.5" /></g><g id="node-6" transform="translate(513.047,65.019)"><circle r="2.5" /></g><g id="node-7" transform="translate(511.321,64.050)"><circle r="2.5" /></g><g id="node-8" transform="translate(513.218,63.081)"><circle r="2.5" /></g><g id="node-9" transform="translate(515.199,62.112)"><circle r="2.5" /></g><g id="node-10" transform="translate(512.159,61.143)"><circle r="2.5" /></g><g id="node-11" transform="translate(510.992,60.174)"><circle r="2.5" /></g><g id="node-12" transform="translate(509.900,59.205)"><circle r="2.5" /></g><g id="node-13" transform="translate(511.133,58.236)"><circle r="2.5" /></g><g id="node-14" transform="translate(511.014,57.267)"><circle r="2.5" /></g><g id="node-15" transform="translate(515.102,56.298)"><circle r="2.5" /></g><g id="node-16" transform="translate(513.097,55.329)"><circle r="2.5" /></g><g id="node-17" transform="translate(510.014,54.360)"><circle r="2.5" /></g><g id="node-18" transform="translate(509.762,53.391)"><circle r="2.5" /></g><g id="node-19" transform="translate(518.242,52.422)"><circle r="2.5" /></g><g id="node-20" transform="translate(508.356,51.453)"><circle r="2.5" /></g><g id="node-21" transform="translate(501.108,50.484)"><circle r="2.5" /></g><g id="node-22" transform="translate(508.530,49.516)"><circle r="2.5" /></g><g id="node-23" transform="translate(507.141,48.547)"><circle r="2.5" /></g><g id="node-24" transform="translate(501.230,47.578)"><circle r="2.5" /></g><g id="node-25" transform="translate(505.311,46.609)"><circle r="2.5" /></g><g id="node-26" transform="translate(530.263,45.640)"><circle r="2.5" /></g><g id="node-27" transform="translate(517.396,44.671)"><circle r="2.5" /></g><g id="node-28" transform="translate(510.524,43.702)"><circle r="2.5" /></g><g id="node-29" transform="translate(505.279,42.733)"><circle r="2.5" /></g><g id="node-30" transform="translate(506.868,41.764)"><circle r="2.5" /></g><g id="node-31" transform="translate(514.229,40.795)"><circle r="2.5" /></g><g id="node-32" transform="translate(514.825,39.826)"><circle r="2.5" /></g><g id="node-33" transform="translate(519.493,38.857)"><circle r="2.5" /></g><g id="node-34" transform="translate(515.371,37.888)"><circle r="2.5" /></g><g id="node-35" transform="translate(526.618,36.919)"><circle r="2.5" /></g><g id="node-36" transform="translate(494.738,35.950)"><circle r="2.5" /></g><g id="node-37" transform="translate(520.661,34.981)"><circle r="2.5" /></g><g id="node-38" transform="translate(506.770,34.012)"><circle r="2.5" /></g><g id="node-39" transform="translate(513.989,33.043)"><circle r="2.5" /></g><g id="node-40" transform="translate(489.549,32.074)"><circle r="2.5" /></g><g id="node-41" transform="translate(513.290,31.105)"><circle r="2.5" /></g><g id="node-42" transform="translate(517.012,30.136)"><circle r="2.5" /></g><g id="node-43" transform="translate(503.791,29.167)"><circle r="2.5" /></g><g id="node-44" transform="translate(512.517,70.349)"><circle r="0.0" /></g><g id="node-45" transform="translate(512.517,69.622)"><circle r="0.0" /></g><g id="node-46" transform="translate(517.185,67.442)"><circle r="0.0" /></g><g id="node-47" transform="translate(512.254,68.532)"><circle r="0.0" /></g><g id="node-48" transform="translate(512.814,65.504)"><circle r="0.0" /></g><g id="node-49" transform="translate(511.377,67.018)"><circle r="0.0" /></g><g id="node-50" transform="translate(510.988,65.534)"><circle r="0.0" /></g><g id="node-51" transform="translate(509.991,64.308)"><circle r="0.0" /></g><g id="node-52" transform="translate(508.407,59.690)"><circle r="0.0" /></g><g id="node-53" transform="translate(510.381,57.752)"><circle r="0.0" /></g><g id="node-54" transform="translate(505.739,63.210)"><circle r="0.0" /></g><g id="node-55" transform="translate(508.018,58.721)"><circle r="0.0" /></g><g id="node-56" transform="translate(502.065,62.177)"><circle r="0.0" /></g><g id="node-57" transform="translate(503.572,57.510)"><circle r="0.0" /></g><g id="node-58" transform="translate(501.667,54.845)"><circle r="0.0" /></g><g id="node-59" transform="translate(496.447,59.843)"><circle r="0.0" /></g><g id="node-60" transform="translate(496.993,54.118)"><circle r="0.0" /></g><g id="node-61" transform="translate(493.617,51.938)"><circle r="0.0" /></g><g id="node-62" transform="translate(503.782,45.155)"><circle r="0.0" /></g><g id="node-63" transform="translate(491.463,56.981)"><circle r="0.0" /></g><g id="node-64" transform="translate(490.466,51.211)"><circle r="0.0" /></g><g id="node-65" transform="translate(498.338,49.031)"><circle r="0.0" /></g><g id="node-66" transform="translate(498.082,44.428)"><circle r="0.0" /></g><g id="node-67" transform="translate(485.194,54.096)"><circle r="0.0" /></g><g id="node-68" transform="translate(490.995,48.304)"><circle r="0.0" /></g><g id="node-69" transform="translate(482.589,43.580)"><circle r="0.0" /></g><g id="node-70" transform="translate(511.879,40.310)"><circle r="0.0" /></g><g id="node-71" transform="translate(481.426,51.200)"><circle r="0.0" /></g><g id="node-72" transform="translate(477.990,42.672)"><circle r="0.0" /></g><g id="node-73" transform="translate(507.965,39.583)"><circle r="0.0" /></g><g id="node-74" transform="translate(477.129,48.904)"><circle r="0.0" /></g><g id="node-75" transform="translate(469.797,41.128)"><circle r="0.0" /></g><g id="node-76" transform="translate(476.656,37.403)"><circle r="0.0" /></g><g id="node-77" transform="translate(466.350,45.016)"><circle r="0.0" /></g><g id="node-78" transform="translate(465.004,36.676)"><circle r="0.0" /></g><g id="node-79" transform="translate(498.639,34.496)"><circle r="0.0" /></g><g id="node-80" transform="translate(460.015,40.846)"><circle r="0.0" /></g><g id="node-81" transform="translate(492.839,33.769)"><circle r="0.0" /></g><g id="node-82" transform="translate(454.059,37.308)"><circle r="0.0" /></g><g id="node-83" transform="translate(513.290,30.620)"><circle r="0.0" /></g><g id="node-84" transform="translate(449.551,34.691)"><circle r="0.0" /></g><g id="node-85" transform="translate(446.803,29.893)"><circle r="0.0" /></g><g id="node-86" transform="translate(445.000,32.292)"><circle r="0.0" /></g></g></g></g></g></svg>