<svg class="toyplot-canvas-Canvas" xmlns:toyplot="http://www.sandia.gov/toyplot" xmlns:xlink="http://www.w3.org/1999/xlink" xmlns="http://www.w3.org/2000/svg" width="560.0px" height="100.0px" viewBox="0 0 560.0 100.0" preserveAspectRatio="xMidYMid meet" style="background-color:transparent;border-color:#292724;border-style:none;border-width:1.0;fill:rgb(16.1%,15.3%,14.1%);fill-opacity:1.0;font-family:Helvetica;font-size:12px;opacity:1.0;stroke:rgb(16.1%,15.3%,14.1%);stroke-opacity:1.0;stroke-width:1.0" id="t616d24513ff94ef28b7a64b83c90fa23"><g class="toyplot-coordinates-Cartesian" id="t5bb8dcae5fc44ecc99a4102c51232db2"><clipPath id="t80b4f55ca91f4b7b89a679dc0d3676e9"><rect x="15.0" y="15.0" width="110.0" height="70.0" /></clipPath><g clip-path="url(#t80b4f55ca91f4b7b89a679dc0d3676e9)"><g class="toytree-mark-Toytree" id="tc04b0271425041619528f4da0e186bc1"><g class="toytree-Edges" style="fill:none;stroke:rgb(14.9%,14.9%,14.9%);stroke-linecap:round;stroke-opacity:1;stroke-width:0.5"><path d="M 25.0 32.2 L 25.0 35.2 L 29.3 35.2" id="48,47" /><path d="M 29.3 35.2 L 29.3 39.5 L 34.8 39.5" id="47,46" /><path d="M 34.8 39.5 L 34.8 46.3 L 41.7 46.3" id="46,45" /><path d="M 41.7 46.3 L 41.7 37.3 L 60.5 37.3" id="45,44" /><path d="M 41.7 46.3 L 41.7 55.2 L 63.8 55.2" id="45,43" /><path d="M 60.5 37.3 L 60.5 40.2 L 64.3 40.2" id="44,42" /><path d="M 63.8 55.2 L 63.8 57.0 L 64.7 57.0" id="43,41" /><path d="M 64.3 40.2 L 64.3 37.4 L 73.1 37.4" id="42,40" /><path d="M 64.3 40.2 L 64.3 43.0 L 69.6 43.0" id="42,39" /><path d="M 64.7 57.0 L 64.7 58.7 L 65.5 58.7" id="41,38" /><path d="M 73.1 37.4 L 73.1 38.7 L 74.6 38.7" id="40,37" /><path d="M 69.6 43.0 L 69.6 44.7 L 80.4 44.7" id="39,36" /><path d="M 65.5 58.7 L 65.5 60.6 L 70.9 60.6" id="38,35" /><path d="M 80.4 44.7 L 80.4 46.4 L 85.8 46.4" id="36,34" /><path d="M 70.9 60.6 L 70.9 62.4 L 78.5 62.4" id="35,33" /><path d="M 85.8 46.4 L 85.8 48.0 L 86.5 48.0" id="34,32" /><path d="M 78.5 62.4 L 78.5 64.4 L 85.9 64.4" id="33,31" /><path d="M 86.5 48.0 L 86.5 49.6 L 91.8 49.6" id="32,30" /><path d="M 85.9 64.4 L 85.9 66.7 L 86.4 66.7" id="31,29" /><path d="M 91.8 49.6 L 91.8 50.9 L 91.8 50.9" id="30,28" /><path d="M 86.4 66.7 L 86.4 64.8 L 92.3 64.8" id="29,27" /><path d="M 86.4 66.7 L 86.4 68.7 L 90.8 68.7" id="29,26" /><path d="M 90.8 68.7 L 90.8 70.0 L 90.9 70.0" id="26,25" /><path d="M 25.0 32.2 L 25.0 29.2 L 94.2 29.2" id="48,24" /><path d="M 29.3 35.2 L 29.3 30.9 L 98.0 30.9" id="47,23" /><path d="M 34.8 39.5 L 34.8 32.6 L 89.4 32.6" id="46,22" /><path d="M 60.5 37.3 L 60.5 34.4 L 110.3 34.4" id="44,21" /><path d="M 73.1 37.4 L 73.1 36.1 L 97.2 36.1" id="40,20" /><path d="M 74.6 38.7 L 74.6 37.8 L 93.8 37.8" id="37,19" /><path d="M 74.6 38.7 L 74.6 39.6 L 94.7 39.6" id="37,18" /><path d="M 69.6 43.0 L 69.6 41.3 L 92.3 41.3" id="39,17" /><path d="M 80.4 44.7 L 80.4 43.1 L 93.0 43.1" id="36,16" /><path d="M 85.8 46.4 L 85.8 44.8 L 94.2 44.8" id="34,15" /><path d="M 86.5 48.0 L 86.5 46.5 L 100.0 46.5" id="32,14" /><path d="M 91.8 49.6 L 91.8 48.3 L 91.8 48.3" id="30,13" /><path d="M 91.8 50.9 L 91.8 50.0 L 91.8 50.0" id="28,12" /><path d="M 91.8 50.9 L 91.8 51.7 L 91.8 51.7" id="28,11" /><path d="M 63.8 55.2 L 63.8 53.5 L 98.7 53.5" id="43,10" /><path d="M 64.7 57.0 L 64.7 55.2 L 101.0 55.2" id="41,9" /><path d="M 65.5 58.7 L 65.5 56.9 L 83.5 56.9" id="38,8" /><path d="M 70.9 60.6 L 70.9 58.7 L 102.3 58.7" id="35,7" /><path d="M 78.5 62.4 L 78.5 60.4 L 86.3 60.4" id="33,6" /><path d="M 85.9 64.4 L 85.9 62.2 L 90.1 62.2" id="31,5" /><path d="M 92.3 64.8 L 92.3 63.9 L 95.2 63.9" id="27,4" /><path d="M 92.3 64.8 L 92.3 65.6 L 94.3 65.6" id="27,3" /><path d="M 90.8 68.7 L 90.8 67.4 L 91.4 67.4" id="26,2" /><path d="M 90.9 70.0 L 90.9 69.1 L 90.9 69.1" id="25,1" /><path d="M 90.9 70.0 L 90.9 70.8 L 90.9 70.8" id="25,0" /></g><g class="toytree-Nodes" style="fill:rgb(100%,0%,0%);fill-opacity:1.0;stroke:None;stroke-width:1"><g id="node-0" transform="translate(90.905,70.833)"><circle r="2.5" /></g><g id="node-1" transform="translate(90.905,69.097)"><circle r="2.5" /></g><g id="node-2" transform="translate(91.432,67.361)"><circle r="2.5" /></g><g id="node-3" transform="translate(94.295,65.625)"><circle r="2.5" /></g><g id="node-4" transform="translate(95.157,63.889)"><circle r="2.5" /></g><g id="node-5" transform="translate(90.138,62.153)"><circle r="2.5" /></g><g id="node-6" transform="translate(86.263,60.417)"><circle r="2.5" /></g><g id="node-7" transform="translate(102.292,58.681)"><circle r="2.5" /></g><g id="node-8" transform="translate(83.475,56.944)"><circle r="2.5" /></g><g id="node-9" transform="translate(100.991,55.208)"><circle r="2.5" /></g><g id="node-10" transform="translate(98.700,53.472)"><circle r="2.5" /></g><g id="node-11" transform="translate(91.825,51.736)"><circle r="2.5" /></g><g id="node-12" transform="translate(91.825,50.000)"><circle r="2.5" /></g><g id="node-13" transform="translate(91.825,48.264)"><circle r="2.5" /></g><g id="node-14" transform="translate(100.008,46.528)"><circle r="2.5" /></g><g id="node-15" transform="translate(94.166,44.792)"><circle r="2.5" /></g><g id="node-16" transform="translate(93.039,43.056)"><circle r="2.5" /></g><g id="node-17" transform="translate(92.265,41.319)"><circle r="2.5" /></g><g id="node-18" transform="translate(94.688,39.583)"><circle r="2.5" /></g><g id="node-19" transform="translate(93.794,37.847)"><circle r="2.5" /></g><g id="node-20" transform="translate(97.159,36.111)"><circle r="2.5" /></g><g id="node-21" transform="translate(110.263,34.375)"><circle r="2.5" /></g><g id="node-22" transform="translate(89.385,32.639)"><circle r="2.5" /></g><g id="node-23" transform="translate(98.001,30.903)"><circle r="2.5" /></g><g id="node-24" transform="translate(94.219,29.167)"><circle r="2.5" /></g><g id="node-25" transform="translate(90.905,69.965)"><circle r="0.0" /></g><g id="node-26" transform="translate(90.816,68.663)"><circle r="0.0" /></g><g id="node-27" transform="translate(92.256,64.757)"><circle r="0.0" /></g><g id="node-28" transform="translate(91.825,50.868)"><circle r="0.0" /></g><g id="node-29" transform="translate(86.414,66.710)"><circle r="0.0" /></g><g id="node-30" transform="translate(91.825,49.566)"><circle r="0.0" /></g><g id="node-31" transform="translate(85.889,64.431)"><circle r="0.0" /></g><g id="node-32" transform="translate(86.506,48.047)"><circle r="0.0" /></g><g id="node-33" transform="translate(78.450,62.424)"><circle r="0.0" /></g><g id="node-34" transform="translate(85.807,46.419)"><circle r="0.0" /></g><g id="node-35" transform="translate(70.905,60.552)"><circle r="0.0" /></g><g id="node-36" transform="translate(80.365,44.737)"><circle r="0.0" /></g><g id="node-37" transform="translate(74.596,38.715)"><circle r="0.0" /></g><g id="node-38" transform="translate(65.520,58.748)"><circle r="0.0" /></g><g id="node-39" transform="translate(69.585,43.028)"><circle r="0.0" /></g><g id="node-40" transform="translate(73.055,37.413)"><circle r="0.0" /></g><g id="node-41" transform="translate(64.703,56.978)"><circle r="0.0" /></g><g id="node-42" transform="translate(64.254,40.221)"><circle r="0.0" /></g><g id="node-43" transform="translate(63.816,55.225)"><circle r="0.0" /></g><g id="node-44" transform="translate(60.511,37.298)"><circle r="0.0" /></g><g id="node-45" transform="translate(41.739,46.262)"><circle r="0.0" /></g><g id="node-46" transform="translate(34.758,39.450)"><circle r="0.0" /></g><g id="node-47" transform="translate(29.333,35.177)"><circle r="0.0" /></g><g id="node-48" transform="translate(25.000,32.172)"><circle r="0.0" /></g></g></g></g></g><g class="toyplot-coordinates-Cartesian" id="t163000766bfb4bfd9e628f186d6e3e04"><clipPath id="t114e75643ad3487e971e501e88fdab9e"><rect x="155.0" y="15.0" width="110.0" height="70.0" /></clipPath><g clip-path="url(#t114e75643ad3487e971e501e88fdab9e)"><g class="toytree-mark-Toytree" id="tb3f5e137501a4ba994de5fc6d3f93577"><g class="toytree-Edges" style="fill:none;stroke:rgb(14.9%,14.9%,14.9%);stroke-linecap:round;stroke-opacity:1;stroke-width:0.5"><path d="M 165.0 39.1 L 165.0 32.1 L 168.6 32.1" id="48,47" /><path d="M 165.0 39.1 L 165.0 46.1 L 166.3 46.1" id="48,46" /><path d="M 168.6 32.1 L 168.6 30.0 L 175.4 30.0" id="47,45" /><path d="M 168.6 32.1 L 168.6 34.2 L 169.5 34.2" id="47,44" /><path d="M 166.3 46.1 L 166.3 40.5 L 170.0 40.5" id="46,43" /><path d="M 166.3 46.1 L 166.3 51.8 L 167.1 51.8" id="46,42" /><path d="M 169.5 34.2 L 169.5 35.7 L 171.9 35.7" id="44,41" /><path d="M 167.1 51.8 L 167.1 45.1 L 168.8 45.1" id="42,40" /><path d="M 167.1 51.8 L 167.1 58.6 L 168.1 58.6" id="42,39" /><path d="M 171.9 35.7 L 171.9 37.0 L 185.7 37.0" id="41,38" /><path d="M 168.8 45.1 L 168.8 47.1 L 173.6 47.1" id="40,37" /><path d="M 168.1 58.6 L 168.1 56.1 L 187.4 56.1" id="39,36" /><path d="M 168.1 58.6 L 168.1 61.0 L 170.3 61.0" id="39,35" /><path d="M 173.6 47.1 L 173.6 49.3 L 176.8 49.3" id="37,34" /><path d="M 170.3 61.0 L 170.3 63.4 L 173.1 63.4" id="35,33" /><path d="M 176.8 49.3 L 176.8 47.4 L 180.4 47.4" id="34,32" /><path d="M 176.8 49.3 L 176.8 51.3 L 192.2 51.3" id="34,31" /><path d="M 173.1 63.4 L 173.1 61.3 L 184.1 61.3" id="33,30" /><path d="M 173.1 63.4 L 173.1 65.5 L 178.3 65.5" id="33,29" /><path d="M 192.2 51.3 L 192.2 52.6 L 196.2 52.6" id="31,28" /><path d="M 178.3 65.5 L 178.3 67.1 L 187.4 67.1" id="29,27" /><path d="M 187.4 67.1 L 187.4 68.7 L 191.0 68.7" id="27,26" /><path d="M 191.0 68.7 L 191.0 70.0 L 199.5 70.0" id="26,25" /><path d="M 175.4 30.0 L 175.4 29.2 L 233.4 29.2" id="45,24" /><path d="M 175.4 30.0 L 175.4 30.9 L 237.9 30.9" id="45,23" /><path d="M 169.5 34.2 L 169.5 32.6 L 232.1 32.6" id="44,22" /><path d="M 171.9 35.7 L 171.9 34.4 L 229.5 34.4" id="41,21" /><path d="M 185.7 37.0 L 185.7 36.1 L 228.4 36.1" id="38,20" /><path d="M 185.7 37.0 L 185.7 37.8 L 226.2 37.8" id="38,19" /><path d="M 170.0 40.5 L 170.0 39.6 L 236.1 39.6" id="43,18" /><path d="M 170.0 40.5 L 170.0 41.3 L 233.6 41.3" id="43,17" /><path d="M 168.8 45.1 L 168.8 43.1 L 208.4 43.1" id="40,16" /><path d="M 173.6 47.1 L 173.6 44.8 L 232.1 44.8" id="37,15" /><path d="M 180.4 47.4 L 180.4 46.5 L 235.7 46.5" id="32,14" /><path d="M 180.4 47.4 L 180.4 48.3 L 233.4 48.3" id="32,13" /><path d="M 192.2 51.3 L 192.2 50.0 L 234.6 50.0" id="31,12" /><path d="M 196.2 52.6 L 196.2 51.7 L 228.4 51.7" id="28,11" /><path d="M 196.2 52.6 L 196.2 53.5 L 231.7 53.5" id="28,10" /><path d="M 187.4 56.1 L 187.4 55.2 L 236.7 55.2" id="36,9" /><path d="M 187.4 56.1 L 187.4 56.9 L 239.5 56.9" id="36,8" /><path d="M 170.3 61.0 L 170.3 58.7 L 229.6 58.7" id="35,7" /><path d="M 184.1 61.3 L 184.1 60.4 L 233.0 60.4" id="30,6" /><path d="M 184.1 61.3 L 184.1 62.2 L 250.3 62.2" id="30,5" /><path d="M 178.3 65.5 L 178.3 63.9 L 229.1 63.9" id="29,4" /><path d="M 187.4 67.1 L 187.4 65.6 L 233.6 65.6" id="27,3" /><path d="M 191.0 68.7 L 191.0 67.4 L 225.5 67.4" id="26,2" /><path d="M 199.5 70.0 L 199.5 69.1 L 230.3 69.1" id="25,1" /><path d="M 199.5 70.0 L 199.5 70.8 L 226.5 70.8" id="25,0" /></g><g class="toytree-Nodes" style="fill:rgb(100%,0%,0%);fill-opacity:1.0;stroke:None;stroke-width:1"><g id="node-0" transform="translate(226.474,70.833)"><circle r="2.5" /></g><g id="node-1" transform="translate(230.341,69.097)"><circle r="2.5" /></g><g id="node-2" transform="translate(225.473,67.361)"><circle r="2.5" /></g><g id="node-3" transform="translate(233.590,65.625)"><circle r="2.5" /></g><g id="node-4" transform="translate(229.078,63.889)"><circle r="2.5" /></g><g id="node-5" transform="translate(250.263,62.153)"><circle r="2.5" /></g><g id="node-6" transform="translate(233.045,60.417)"><circle r="2.5" /></g><g id="node-7" transform="translate(229.562,58.681)"><circle r="2.5" /></g><g id="node-8" transform="translate(239.463,56.944)"><circle r="2.5" /></g><g id="node-9" transform="translate(236.732,55.208)"><circle r="2.5" /></g><g id="node-10" transform="translate(231.679,53.472)"><circle r="2.5" /></g><g id="node-11" transform="translate(228.423,51.736)"><circle r="2.5" /></g><g id="node-12" transform="translate(234.561,50.000)"><circle r="2.5" /></g><g id="node-13" transform="translate(233.442,48.264)"><circle r="2.5" /></g><g id="node-14" transform="translate(235.679,46.528)"><circle r="2.5" /></g><g id="node-15" transform="translate(232.138,44.792)"><circle r="2.5" /></g><g id="node-16" transform="translate(208.412,43.056)"><circle r="2.5" /></g><g id="node-17" transform="translate(233.593,41.319)"><circle r="2.5" /></g><g id="node-18" transform="translate(236.140,39.583)"><circle r="2.5" /></g><g id="node-19" transform="translate(226.170,37.847)"><circle r="2.5" /></g><g id="node-20" transform="translate(228.366,36.111)"><circle r="2.5" /></g><g id="node-21" transform="translate(229.495,34.375)"><circle r="2.5" /></g><g id="node-22" transform="translate(232.142,32.639)"><circle r="2.5" /></g><g id="node-23" transform="translate(237.885,30.903)"><circle r="2.5" /></g><g id="node-24" transform="translate(233.380,29.167)"><circle r="2.5" /></g><g id="node-25" transform="translate(199.515,69.965)"><circle r="0.0" /></g><g id="node-26" transform="translate(191.015,68.663)"><circle r="0.0" /></g><g id="node-27" transform="translate(187.387,67.144)"><circle r="0.0" /></g><g id="node-28" transform="translate(196.228,52.604)"><circle r="0.0" /></g><g id="node-29" transform="translate(178.286,65.516)"><circle r="0.0" /></g><g id="node-30" transform="translate(184.111,61.285)"><circle r="0.0" /></g><g id="node-31" transform="translate(192.215,51.302)"><circle r="0.0" /></g><g id="node-32" transform="translate(180.406,47.396)"><circle r="0.0" /></g><g id="node-33" transform="translate(173.053,63.401)"><circle r="0.0" /></g><g id="node-34" transform="translate(176.809,49.349)"><circle r="0.0" /></g><g id="node-35" transform="translate(170.299,61.041)"><circle r="0.0" /></g><g id="node-36" transform="translate(187.408,56.076)"><circle r="0.0" /></g><g id="node-37" transform="translate(173.591,47.070)"><circle r="0.0" /></g><g id="node-38" transform="translate(185.687,36.979)"><circle r="0.0" /></g><g id="node-39" transform="translate(168.097,58.558)"><circle r="0.0" /></g><g id="node-40" transform="translate(168.834,45.063)"><circle r="0.0" /></g><g id="node-41" transform="translate(171.895,35.677)"><circle r="0.0" /></g><g id="node-42" transform="translate(167.147,51.811)"><circle r="0.0" /></g><g id="node-43" transform="translate(170.024,40.451)"><circle r="0.0" /></g><g id="node-44" transform="translate(169.505,34.158)"><circle r="0.0" /></g><g id="node-45" transform="translate(175.427,30.035)"><circle r="0.0" /></g><g id="node-46" transform="translate(166.316,46.131)"><circle r="0.0" /></g><g id="node-47" transform="translate(168.558,32.096)"><circle r="0.0" /></g><g id="node-48" transform="translate(165.000,39.114)"><circle r="0.0" /></g></g></g></g></g><g class="toyplot-coordinates-Cartesian" id="t2f5aadaae67147068dc6d1a082eccc43"><clipPath id="td464d229e0954ff3bfa53f020c4e2130"><rect x="295.0" y="15.0" width="110.0" height="70.0" /></clipPath><g clip-path="url(#td464d229e0954ff3bfa53f020c4e2130)"><g class="toytree-mark-Toytree" id="t7f92397edfdd4b7386f197ce213dcecf"><g class="toytree-Edges" style="fill:none;stroke:rgb(14.9%,14.9%,14.9%);stroke-linecap:round;stroke-opacity:1;stroke-width:0.5"><path d="M 305.0 32.5 L 305.0 35.9 L 317.4 35.9" id="48,47" /><path d="M 317.4 35.9 L 317.4 41.0 L 322.5 41.0" id="47,46" /><path d="M 322.5 41.0 L 322.5 49.3 L 327.3 49.3" id="46,45" /><path d="M 327.3 49.3 L 327.3 39.7 L 333.3 39.7" id="45,44" /><path d="M 327.3 49.3 L 327.3 58.9 L 335.2 58.9" id="45,43" /><path d="M 333.3 39.7 L 333.3 35.7 L 344.0 35.7" id="44,42" /><path d="M 333.3 39.7 L 333.3 43.7 L 335.6 43.7" id="44,41" /><path d="M 335.2 58.9 L 335.2 55.0 L 340.3 55.0" id="43,40" /><path d="M 335.2 58.9 L 335.2 62.7 L 337.7 62.7" id="43,39" /><path d="M 344.0 35.7 L 344.0 37.0 L 346.5 37.0" id="42,38" /><path d="M 335.6 43.7 L 335.6 40.9 L 343.4 40.9" id="41,37" /><path d="M 335.6 43.7 L 335.6 46.4 L 336.8 46.4" id="41,36" /><path d="M 340.3 55.0 L 340.3 56.5 L 342.2 56.5" id="40,35" /><path d="M 337.7 62.7 L 337.7 65.1 L 339.3 65.1" id="39,34" /><path d="M 343.4 40.9 L 343.4 42.2 L 347.8 42.2" id="37,33" /><path d="M 336.8 46.4 L 336.8 48.0 L 340.3 48.0" id="36,32" /><path d="M 342.2 56.5 L 342.2 57.8 L 345.2 57.8" id="35,31" /><path d="M 339.3 65.1 L 339.3 63.0 L 343.7 63.0" id="34,30" /><path d="M 339.3 65.1 L 339.3 67.1 L 340.1 67.1" id="34,29" /><path d="M 340.3 48.0 L 340.3 49.6 L 343.3 49.6" id="32,28" /><path d="M 340.1 67.1 L 340.1 68.7 L 342.2 68.7" id="29,27" /><path d="M 343.3 49.6 L 343.3 50.9 L 345.9 50.9" id="28,26" /><path d="M 342.2 68.7 L 342.2 70.0 L 347.8 70.0" id="27,25" /><path d="M 305.0 32.5 L 305.0 29.2 L 357.0 29.2" id="48,24" /><path d="M 317.4 35.9 L 317.4 30.9 L 338.5 30.9" id="47,23" /><path d="M 322.5 41.0 L 322.5 32.6 L 361.8 32.6" id="46,22" /><path d="M 344.0 35.7 L 344.0 34.4 L 371.3 34.4" id="42,21" /><path d="M 346.5 37.0 L 346.5 36.1 L 363.2 36.1" id="38,20" /><path d="M 346.5 37.0 L 346.5 37.8 L 363.5 37.8" id="38,19" /><path d="M 343.4 40.9 L 343.4 39.6 L 367.3 39.6" id="37,18" /><path d="M 347.8 42.2 L 347.8 41.3 L 367.7 41.3" id="33,17" /><path d="M 347.8 42.2 L 347.8 43.1 L 390.3 43.1" id="33,16" /><path d="M 336.8 46.4 L 336.8 44.8 L 354.6 44.8" id="36,15" /><path d="M 340.3 48.0 L 340.3 46.5 L 353.2 46.5" id="32,14" /><path d="M 343.3 49.6 L 343.3 48.3 L 352.2 48.3" id="28,13" /><path d="M 345.9 50.9 L 345.9 50.0 L 349.2 50.0" id="26,12" /><path d="M 345.9 50.9 L 345.9 51.7 L 349.3 51.7" id="26,11" /><path d="M 340.3 55.0 L 340.3 53.5 L 364.7 53.5" id="40,10" /><path d="M 342.2 56.5 L 342.2 55.2 L 357.7 55.2" id="35,9" /><path d="M 345.2 57.8 L 345.2 56.9 L 360.4 56.9" id="31,8" /><path d="M 345.2 57.8 L 345.2 58.7 L 360.3 58.7" id="31,7" /><path d="M 337.7 62.7 L 337.7 60.4 L 345.6 60.4" id="39,6" /><path d="M 343.7 63.0 L 343.7 62.2 L 354.7 62.2" id="30,5" /><path d="M 343.7 63.0 L 343.7 63.9 L 360.6 63.9" id="30,4" /><path d="M 340.1 67.1 L 340.1 65.6 L 361.4 65.6" id="29,3" /><path d="M 342.2 68.7 L 342.2 67.4 L 350.6 67.4" id="27,2" /><path d="M 347.8 70.0 L 347.8 69.1 L 354.8 69.1" id="25,1" /><path d="M 347.8 70.0 L 347.8 70.8 L 355.7 70.8" id="25,0" /></g><g class="toytree-Nodes" style="fill:rgb(100%,0%,0%);fill-opacity:1.0;stroke:None;stroke-width:1"><g id="node-0" transform="translate(355.657,70.833)"><circle r="2.5" /></g><g id="node-1" transform="translate(354.763,69.097)"><circle r="2.5" /></g><g id="node-2" transform="translate(350.579,67.361)"><circle r="2.5" /></g><g id="node-3" transform="translate(361.370,65.625)"><circle r="2.5" /></g><g id="node-4" transform="translate(360.630,63.889)"><circle r="2.5" /></g><g id="node-5" transform="translate(354.664,62.153)"><circle r="2.5" /></g><g id="node-6" transform="translate(345.615,60.417)"><circle r="2.5" /></g><g id="node-7" transform="translate(360.253,58.681)"><circle r="2.5" /></g><g id="node-8" transform="translate(360.382,56.944)"><circle r="2.5" /></g><g id="node-9" transform="translate(357.687,55.208)"><circle r="2.5" /></g><g id="node-10" transform="translate(364.686,53.472)"><circle r="2.5" /></g><g id="node-11" transform="translate(349.328,51.736)"><circle r="2.5" /></g><g id="node-12" transform="translate(349.169,50.000)"><circle r="2.5" /></g><g id="node-13" transform="translate(352.172,48.264)"><circle r="2.5" /></g><g id="node-14" transform="translate(353.170,46.528)"><circle r="2.5" /></g><g id="node-15" transform="translate(354.634,44.792)"><circle r="2.5" /></g><g id="node-16" transform="translate(390.263,43.056)"><circle r="2.5" /></g><g id="node-17" transform="translate(367.718,41.319)"><circle r="2.5" /></g><g id="node-18" transform="translate(367.316,39.583)"><circle r="2.5" /></g><g id="node-19" transform="translate(363.455,37.847)"><circle r="2.5" /></g><g id="node-20" transform="translate(363.206,36.111)"><circle r="2.5" /></g><g id="node-21" transform="translate(371.302,34.375)"><circle r="2.5" /></g><g id="node-22" transform="translate(361.832,32.639)"><circle r="2.5" /></g><g id="node-23" transform="translate(338.517,30.903)"><circle r="2.5" /></g><g id="node-24" transform="translate(356.954,29.167)"><circle r="2.5" /></g><g id="node-25" transform="translate(347.765,69.965)"><circle r="0.0" /></g><g id="node-26" transform="translate(345.948,50.868)"><circle r="0.0" /></g><g id="node-27" transform="translate(342.185,68.663)"><circle r="0.0" /></g><g id="node-28" transform="translate(343.302,49.566)"><circle r="0.0" /></g><g id="node-29" transform="translate(340.126,67.144)"><circle r="0.0" /></g><g id="node-30" transform="translate(343.699,63.021)"><circle r="0.0" /></g><g id="node-31" transform="translate(345.228,57.812)"><circle r="0.0" /></g><g id="node-32" transform="translate(340.319,48.047)"><circle r="0.0" /></g><g id="node-33" transform="translate(347.794,42.188)"><circle r="0.0" /></g><g id="node-34" transform="translate(339.317,65.082)"><circle r="0.0" /></g><g id="node-35" transform="translate(342.151,56.510)"><circle r="0.0" /></g><g id="node-36" transform="translate(336.785,46.419)"><circle r="0.0" /></g><g id="node-37" transform="translate(343.372,40.885)"><circle r="0.0" /></g><g id="node-38" transform="translate(346.454,36.979)"><circle r="0.0" /></g><g id="node-39" transform="translate(337.703,62.750)"><circle r="0.0" /></g><g id="node-40" transform="translate(340.344,54.991)"><circle r="0.0" /></g><g id="node-41" transform="translate(335.609,43.652)"><circle r="0.0" /></g><g id="node-42" transform="translate(343.962,35.677)"><circle r="0.0" /></g><g id="node-43" transform="translate(335.226,58.870)"><circle r="0.0" /></g><g id="node-44" transform="translate(333.335,39.665)"><circle r="0.0" /></g><g id="node-45" transform="translate(327.339,49.268)"><circle r="0.0" /></g><g id="node-46" transform="translate(322.544,40.953)"><circle r="0.0" /></g><g id="node-47" transform="translate(317.357,35.928)"><circle r="0.0" /></g><g id="node-48" transform="translate(305.000,32.547)"><circle r="0.0" /></g></g></g></g></g><g class="toyplot-coordinates-Cartesian" id="ted1336b343464b93b1e5e6743a6915b4"><clipPath id="te4aa4f46a38c4191a602ed3f53dfa8c4"><rect x="435.0" y="15.0" width="110.0" height="70.0" /></clipPath><g clip-path="url(#te4aa4f46a38c4191a602ed3f53dfa8c4)"><g class="toytree-mark-Toytree" id="t800ed0da0ae94ee395d524636ae4c867"><g class="toytree-Edges" style="fill:none;stroke:rgb(14.9%,14.9%,14.9%);stroke-linecap:round;stroke-opacity:1;stroke-width:0.5"><path d="M 445.0 32.5 L 445.0 35.8 L 450.1 35.8" id="48,47" /><path d="M 450.1 35.8 L 450.1 40.6 L 458.5 40.6" id="47,46" /><path d="M 458.5 40.6 L 458.5 48.6 L 469.4 48.6" id="46,45" /><path d="M 469.4 48.6 L 469.4 39.5 L 494.8 39.5" id="45,44" /><path d="M 469.4 48.6 L 469.4 57.7 L 487.8 57.7" id="45,43" /><path d="M 494.8 39.5 L 494.8 35.9 L 496.8 35.9" id="44,42" /><path d="M 494.8 39.5 L 494.8 43.0 L 498.7 43.0" id="44,41" /><path d="M 487.8 57.7 L 487.8 54.8 L 490.3 54.8" id="43,40" /><path d="M 487.8 57.7 L 487.8 60.6 L 491.8 60.6" id="43,39" /><path d="M 496.8 35.9 L 496.8 37.4 L 500.9 37.4" id="42,38" /><path d="M 498.7 43.0 L 498.7 44.7 L 506.3 44.7" id="41,37" /><path d="M 490.3 54.8 L 490.3 56.1 L 492.8 56.1" id="40,36" /><path d="M 491.8 60.6 L 491.8 62.4 L 495.1 62.4" id="39,35" /><path d="M 500.9 37.4 L 500.9 38.7 L 506.5 38.7" id="38,34" /><path d="M 506.3 44.7 L 506.3 46.4 L 508.4 46.4" id="37,33" /><path d="M 495.1 62.4 L 495.1 64.4 L 499.6 64.4" id="35,32" /><path d="M 508.4 46.4 L 508.4 48.0 L 509.8 48.0" id="33,31" /><path d="M 499.6 64.4 L 499.6 66.7 L 500.2 66.7" id="32,30" /><path d="M 509.8 48.0 L 509.8 49.6 L 511.0 49.6" id="31,29" /><path d="M 500.2 66.7 L 500.2 64.8 L 500.7 64.8" id="30,28" /><path d="M 500.2 66.7 L 500.2 68.7 L 501.7 68.7" id="30,27" /><path d="M 511.0 49.6 L 511.0 50.9 L 511.0 50.9" id="29,26" /><path d="M 501.7 68.7 L 501.7 70.0 L 501.7 70.0" id="27,25" /><path d="M 445.0 32.5 L 445.0 29.2 L 507.6 29.2" id="48,24" /><path d="M 450.1 35.8 L 450.1 30.9 L 496.8 30.9" id="47,23" /><path d="M 458.5 40.6 L 458.5 32.6 L 528.5 32.6" id="46,22" /><path d="M 496.8 35.9 L 496.8 34.4 L 530.3 34.4" id="42,21" /><path d="M 500.9 37.4 L 500.9 36.1 L 505.7 36.1" id="38,20" /><path d="M 506.5 38.7 L 506.5 37.8 L 518.5 37.8" id="34,19" /><path d="M 506.5 38.7 L 506.5 39.6 L 513.0 39.6" id="34,18" /><path d="M 498.7 43.0 L 498.7 41.3 L 507.9 41.3" id="41,17" /><path d="M 506.3 44.7 L 506.3 43.1 L 521.8 43.1" id="37,16" /><path d="M 508.4 46.4 L 508.4 44.8 L 510.7 44.8" id="33,15" /><path d="M 509.8 48.0 L 509.8 46.5 L 513.7 46.5" id="31,14" /><path d="M 511.0 49.6 L 511.0 48.3 L 511.0 48.3" id="29,13" /><path d="M 511.0 50.9 L 511.0 50.0 L 511.0 50.0" id="26,12" /><path d="M 511.0 50.9 L 511.0 51.7 L 511.0 51.7" id="26,11" /><path d="M 490.3 54.8 L 490.3 53.5 L 511.5 53.5" id="40,10" /><path d="M 492.8 56.1 L 492.8 55.2 L 496.5 55.2" id="36,9" /><path d="M 492.8 56.1 L 492.8 56.9 L 508.4 56.9" id="36,8" /><path d="M 491.8 60.6 L 491.8 58.7 L 507.7 58.7" id="39,7" /><path d="M 495.1 62.4 L 495.1 60.4 L 497.5 60.4" id="35,6" /><path d="M 499.6 64.4 L 499.6 62.2 L 500.8 62.2" id="32,5" /><path d="M 500.7 64.8 L 500.7 63.9 L 501.8 63.9" id="28,4" /><path d="M 500.7 64.8 L 500.7 65.6 L 501.4 65.6" id="28,3" /><path d="M 501.7 68.7 L 501.7 67.4 L 502.0 67.4" id="27,2" /><path d="M 501.7 70.0 L 501.7 69.1 L 501.7 69.1" id="25,1" /><path d="M 501.7 70.0 L 501.7 70.8 L 501.7 70.8" id="25,0" /></g><g class="toytree-Nodes" style="fill:rgb(100%,0%,0%);fill-opacity:1.0;stroke:None;stroke-width:1"><g id="node-0" transform="translate(501.741,70.833)"><circle r="2.5" /></g><g id="node-1" transform="translate(501.741,69.097)"><circle r="2.5" /></g><g id="node-2" transform="translate(501.961,67.361)"><circle r="2.5" /></g><g id="node-3" transform="translate(501.358,65.625)"><circle r="2.5" /></g><g id="node-4" transform="translate(501.806,63.889)"><circle r="2.5" /></g><g id="node-5" transform="translate(500.771,62.153)"><circle r="2.5" /></g><g id="node-6" transform="translate(497.456,60.417)"><circle r="2.5" /></g><g id="node-7" transform="translate(507.709,58.681)"><circle r="2.5" /></g><g id="node-8" transform="translate(508.371,56.944)"><circle r="2.5" /></g><g id="node-9" transform="translate(496.550,55.208)"><circle r="2.5" /></g><g id="node-10" transform="translate(511.537,53.472)"><circle r="2.5" /></g><g id="node-11" transform="translate(511.049,51.736)"><circle r="2.5" /></g><g id="node-12" transform="translate(511.049,50.000)"><circle r="2.5" /></g><g id="node-13" transform="translate(511.049,48.264)"><circle r="2.5" /></g><g id="node-14" transform="translate(513.653,46.528)"><circle r="2.5" /></g><g id="node-15" transform="translate(510.685,44.792)"><circle r="2.5" /></g><g id="node-16" transform="translate(521.773,43.056)"><circle r="2.5" /></g><g id="node-17" transform="translate(507.934,41.319)"><circle r="2.5" /></g><g id="node-18" transform="translate(512.976,39.583)"><circle r="2.5" /></g><g id="node-19" transform="translate(518.526,37.847)"><circle r="2.5" /></g><g id="node-20" transform="translate(505.744,36.111)"><circle r="2.5" /></g><g id="node-21" transform="translate(530.263,34.375)"><circle r="2.5" /></g><g id="node-22" transform="translate(528.468,32.639)"><circle r="2.5" /></g><g id="node-23" transform="translate(496.820,30.903)"><circle r="2.5" /></g><g id="node-24" transform="translate(507.607,29.167)"><circle r="2.5" /></g><g id="node-25" transform="translate(501.741,69.965)"><circle r="0.0" /></g><g id="node-26" transform="translate(511.049,50.868)"><circle r="0.0" /></g><g id="node-27" transform="translate(501.741,68.663)"><circle r="0.0" /></g><g id="node-28" transform="translate(500.715,64.757)"><circle r="0.0" /></g><g id="node-29" transform="translate(511.049,49.566)"><circle r="0.0" /></g><g id="node-30" transform="translate(500.203,66.710)"><circle r="0.0" /></g><g id="node-31" transform="translate(509.840,48.047)"><circle r="0.0" /></g><g id="node-32" transform="translate(499.558,64.431)"><circle r="0.0" /></g><g id="node-33" transform="translate(508.391,46.419)"><circle r="0.0" /></g><g id="node-34" transform="translate(506.541,38.715)"><circle r="0.0" /></g><g id="node-35" transform="translate(495.074,62.424)"><circle r="0.0" /></g><g id="node-36" transform="translate(492.756,56.076)"><circle r="0.0" /></g><g id="node-37" transform="translate(506.333,44.737)"><circle r="0.0" /></g><g id="node-38" transform="translate(500.860,37.413)"><circle r="0.0" /></g><g id="node-39" transform="translate(491.820,60.552)"><circle r="0.0" /></g><g id="node-40" transform="translate(490.312,54.774)"><circle r="0.0" /></g><g id="node-41" transform="translate(498.661,43.028)"><circle r="0.0" /></g><g id="node-42" transform="translate(496.838,35.894)"><circle r="0.0" /></g><g id="node-43" transform="translate(487.753,57.663)"><circle r="0.0" /></g><g id="node-44" transform="translate(494.778,39.461)"><circle r="0.0" /></g><g id="node-45" transform="translate(469.400,48.562)"><circle r="0.0" /></g><g id="node-46" transform="translate(458.519,40.601)"><circle r="0.0" /></g><g id="node-47" transform="translate(450.150,35.752)"><circle r="0.0" /></g><g id="node-48" transform="translate(445.000,32.459)"><circle r="0.0" /></g></g></g></g></g></svg>