<svg class="toyplot-canvas-Canvas" xmlns:toyplot="http://www.sandia.gov/toyplot" xmlns:xlink="http://www.w3.org/1999/xlink" xmlns="http://www.w3.org/2000/svg" width="560.0px" height="100.0px" viewBox="0 0 560.0 100.0" preserveAspectRatio="xMidYMid meet" style="background-color:transparent;border-color:#292724;border-style:none;border-width:1.0;fill:rgb(16.1%,15.3%,14.1%);fill-opacity:1.0;font-family:Helvetica;font-size:12px;opacity:1.0;stroke:rgb(16.1%,15.3%,14.1%);stroke-opacity:1.0;stroke-width:1.0" id="tde6feef723ac470781137e45de03b4d8"><g class="toyplot-coordinates-Cartesian" id="t7dcb1dd6d0e34990ae7d74d6ea09e6b6"><clipPath id="t15a04d9ae1fa49c38422735e72167f7e"><rect x="15.0" y="15.0" width="110.0" height="70.0" /></clipPath><g clip-path="url(#t15a04d9ae1fa49c38422735e72167f7e)"><g class="toytree-mark-Toytree" id="ta501699acac746f587521454a1059942"><g class="toytree-Edges" style="fill:none;stroke:rgb(14.9%,14.9%,14.9%);stroke-linecap:round;stroke-opacity:1;stroke-width:0.5"><path d="M 25.0 41.3 L 25.0 53.5 L 48.2 53.5" id="6,5" /><path d="M 48.2 53.5 L 48.2 63.9 L 110.3 63.9" id="5,4" /><path d="M 25.0 41.3 L 25.0 29.2 L 90.0 29.2" id="6,3" /><path d="M 48.2 53.5 L 48.2 43.1 L 77.6 43.1" id="5,2" /><path d="M 110.3 63.9 L 110.3 56.9 L 110.3 56.9" id="4,1" /><path d="M 110.3 63.9 L 110.3 70.8 L 110.3 70.8" id="4,0" /></g><g class="toytree-Nodes" style="fill:rgb(100%,0%,0%);fill-opacity:1.0;stroke:None;stroke-width:1"><g id="node-0" transform="translate(110.263,70.833)"><circle r="2.5" /></g><g id="node-1" transform="translate(110.263,56.944)"><circle r="2.5" /></g><g id="node-2" transform="translate(77.595,43.056)"><circle r="2.5" /></g><g id="node-3" transform="translate(90.009,29.167)"><circle r="2.5" /></g><g id="node-4" transform="translate(110.263,63.889)"><circle r="0.0" /></g><g id="node-5" transform="translate(48.194,53.472)"><circle r="0.0" /></g><g id="node-6" transform="translate(25.000,41.319)"><circle r="0.0" /></g></g></g></g></g><g class="toyplot-coordinates-Cartesian" id="t150bda851af542a6aa13f8c69016fc8e"><clipPath id="t3be1352050cf4c7a8f964511a39658d4"><rect x="155.0" y="15.0" width="110.0" height="70.0" /></clipPath><g clip-path="url(#t3be1352050cf4c7a8f964511a39658d4)"><g class="toytree-mark-Toytree" id="t9d2c3ac9e34346c285e849e459cd4c4d"><g class="toytree-Edges" style="fill:none;stroke:rgb(14.9%,14.9%,14.9%);stroke-linecap:round;stroke-opacity:1;stroke-width:0.5"><path d="M 165.0 41.3 L 165.0 53.5 L 239.0 53.5" id="6,5" /><path d="M 239.0 53.5 L 239.0 63.9 L 242.0 63.9" id="5,4" /><path d="M 165.0 41.3 L 165.0 29.2 L 246.9 29.2" id="6,3" /><path d="M 239.0 53.5 L 239.0 43.1 L 250.3 43.1" id="5,2" /><path d="M 242.0 63.9 L 242.0 56.9 L 247.8 56.9" id="4,1" /><path d="M 242.0 63.9 L 242.0 70.8 L 243.1 70.8" id="4,0" /></g><g class="toytree-Nodes" style="fill:rgb(100%,0%,0%);fill-opacity:1.0;stroke:None;stroke-width:1"><g id="node-0" transform="translate(243.075,70.833)"><circle r="2.5" /></g><g id="node-1" transform="translate(247.808,56.944)"><circle r="2.5" /></g><g id="node-2" transform="translate(250.263,43.056)"><circle r="2.5" /></g><g id="node-3" transform="translate(246.938,29.167)"><circle r="2.5" /></g><g id="node-4" transform="translate(241.978,63.889)"><circle r="0.0" /></g><g id="node-5" transform="translate(238.969,53.472)"><circle r="0.0" /></g><g id="node-6" transform="translate(165.000,41.319)"><circle r="0.0" /></g></g></g></g></g><g class="toyplot-coordinates-Cartesian" id="t11d56b7d889e480ab201302c07474f57"><clipPath id="ta180f0c543d349b588f0b6e7b3ac85ce"><rect x="295.0" y="15.0" width="110.0" height="70.0" /></clipPath><g clip-path="url(#ta180f0c543d349b588f0b6e7b3ac85ce)"><g class="toytree-mark-Toytree" id="tb55c9b707c69423da1ef659611b067ea"><g class="toytree-Edges" style="fill:none;stroke:rgb(14.9%,14.9%,14.9%);stroke-linecap:round;stroke-opacity:1;stroke-width:0.5"><path d="M 305.0 41.3 L 305.0 53.5 L 364.8 53.5" id="6,5" /><path d="M 364.8 53.5 L 364.8 63.9 L 372.7 63.9" id="5,4" /><path d="M 305.0 41.3 L 305.0 29.2 L 385.2 29.2" id="6,3" /><path d="M 364.8 53.5 L 364.8 43.1 L 390.3 43.1" id="5,2" /><path d="M 372.7 63.9 L 372.7 56.9 L 384.9 56.9" id="4,1" /><path d="M 372.7 63.9 L 372.7 70.8 L 381.1 70.8" id="4,0" /></g><g class="toytree-Nodes" style="fill:rgb(100%,0%,0%);fill-opacity:1.0;stroke:None;stroke-width:1"><g id="node-0" transform="translate(381.102,70.833)"><circle r="2.5" /></g><g id="node-1" transform="translate(384.857,56.944)"><circle r="2.5" /></g><g id="node-2" transform="translate(390.263,43.056)"><circle r="2.5" /></g><g id="node-3" transform="translate(385.232,29.167)"><circle r="2.5" /></g><g id="node-4" transform="translate(372.692,63.889)"><circle r="0.0" /></g><g id="node-5" transform="translate(364.808,53.472)"><circle r="0.0" /></g><g id="node-6" transform="translate(305.000,41.319)"><circle r="0.0" /></g></g></g></g></g><g class="toyplot-coordinates-Cartesian" id="t19c41015b99b462c86c84f1e398260b8"><clipPath id="t24927df40fae4f41b66a79e7ac3c04e8"><rect x="435.0" y="15.0" width="110.0" height="70.0" /></clipPath><g clip-path="url(#t24927df40fae4f41b66a79e7ac3c04e8)"><g class="toytree-mark-Toytree" id="t27efc95f49874b08ac3c12b579b48c9a"><g class="toytree-Edges" style="fill:none;stroke:rgb(14.9%,14.9%,14.9%);stroke-linecap:round;stroke-opacity:1;stroke-width:0.5"><path d="M 445.0 41.3 L 445.0 53.5 L 504.1 53.5" id="6,5" /><path d="M 504.1 53.5 L 504.1 63.9 L 512.6 63.9" id="5,4" /><path d="M 445.0 41.3 L 445.0 29.2 L 525.5 29.2" id="6,3" /><path d="M 504.1 53.5 L 504.1 43.1 L 530.3 43.1" id="5,2" /><path d="M 512.6 63.9 L 512.6 56.9 L 525.3 56.9" id="4,1" /><path d="M 512.6 63.9 L 512.6 70.8 L 521.4 70.8" id="4,0" /></g><g class="toytree-Nodes" style="fill:rgb(100%,0%,0%);fill-opacity:1.0;stroke:None;stroke-width:1"><g id="node-0" transform="translate(521.411,70.833)"><circle r="2.5" /></g><g id="node-1" transform="translate(525.289,56.944)"><circle r="2.5" /></g><g id="node-2" transform="translate(530.263,43.056)"><circle r="2.5" /></g><g id="node-3" transform="translate(525.492,29.167)"><circle r="2.5" /></g><g id="node-4" transform="translate(512.623,63.889)"><circle r="0.0" /></g><g id="node-5" transform="translate(504.073,53.472)"><circle r="0.0" /></g><g id="node-6" transform="translate(445.000,41.319)"><circle r="0.0" /></g></g></g></g></g></svg>