<svg class="toyplot-canvas-Canvas" xmlns:toyplot="http://www.sandia.gov/toyplot" xmlns:xlink="http://www.w3.org/1999/xlink" xmlns="http://www.w3.org/2000/svg" width="560.0px" height="100.0px" viewBox="0 0 560.0 100.0" preserveAspectRatio="xMidYMid meet" style="background-color:transparent;border-color:#292724;border-style:none;border-width:1.0;fill:rgb(16.1%,15.3%,14.1%);fill-opacity:1.0;font-family:Helvetica;font-size:12px;opacity:1.0;stroke:rgb(16.1%,15.3%,14.1%);stroke-opacity:1.0;stroke-width:1.0" id="tdfcc6f06630d4b19961cfe002ed572b9"><g class="toyplot-coordinates-Cartesian" id="ta469798f5bd546308ac586dc13b5937f"><clipPath id="tb667ffef9d944d0fb9a58a8f4a7bf28b"><rect x="15.0" y="15.0" width="110.0" height="70.0" /></clipPath><g clip-path="url(#tb667ffef9d944d0fb9a58a8f4a7bf28b)"><g class="toytree-mark-Toytree" id="t18e50210369a42adb1c66d68793ac444"><g class="toytree-Edges" style="fill:none;stroke:rgb(14.9%,14.9%,14.9%);stroke-linecap:round;stroke-opacity:1;stroke-width:0.5"><path d="M 25.0 43.2 L 25.0 33.3 L 102.2 33.3" id="10,9" /><path d="M 25.0 43.2 L 25.0 53.1 L 84.7 53.1" id="10,8" /><path d="M 84.7 53.1 L 84.7 60.4 L 95.7 60.4" id="8,7" /><path d="M 95.7 60.4 L 95.7 66.7 L 95.7 66.7" id="7,6" /><path d="M 102.2 33.3 L 102.2 29.2 L 102.2 29.2" id="9,5" /><path d="M 102.2 33.3 L 102.2 37.5 L 102.2 37.5" id="9,4" /><path d="M 84.7 53.1 L 84.7 45.8 L 110.3 45.8" id="8,3" /><path d="M 95.7 60.4 L 95.7 54.2 L 95.7 54.2" id="7,2" /><path d="M 95.7 66.7 L 95.7 62.5 L 95.7 62.5" id="6,1" /><path d="M 95.7 66.7 L 95.7 70.8 L 95.7 70.8" id="6,0" /></g><g class="toytree-Nodes" style="fill:rgb(100%,0%,0%);fill-opacity:1.0;stroke:None;stroke-width:1"><g id="node-0" transform="translate(95.657,70.833)"><circle r="2.5" /></g><g id="node-1" transform="translate(95.657,62.500)"><circle r="2.5" /></g><g id="node-2" transform="translate(95.657,54.167)"><circle r="2.5" /></g><g id="node-3" transform="translate(110.263,45.833)"><circle r="2.5" /></g><g id="node-4" transform="translate(102.230,37.500)"><circle r="2.5" /></g><g id="node-5" transform="translate(102.230,29.167)"><circle r="2.5" /></g><g id="node-6" transform="translate(95.657,66.667)"><circle r="0.0" /></g><g id="node-7" transform="translate(95.657,60.417)"><circle r="0.0" /></g><g id="node-8" transform="translate(84.702,53.125)"><circle r="0.0" /></g><g id="node-9" transform="translate(102.230,33.333)"><circle r="0.0" /></g><g id="node-10" transform="translate(25.000,43.229)"><circle r="0.0" /></g></g></g></g></g><g class="toyplot-coordinates-Cartesian" id="tb10f0d6725734387ab2fde710f418b41"><clipPath id="tf84f948943c84c41b410d7d9bcfb16b8"><rect x="155.0" y="15.0" width="110.0" height="70.0" /></clipPath><g clip-path="url(#tf84f948943c84c41b410d7d9bcfb16b8)"><g class="toytree-mark-Toytree" id="t81fdcf779c7a4f3cbcb304e00814c5d3"><g class="toytree-Edges" style="fill:none;stroke:rgb(14.9%,14.9%,14.9%);stroke-linecap:round;stroke-opacity:1;stroke-width:0.5"><path d="M 165.0 43.2 L 165.0 33.3 L 218.4 33.3" id="10,9" /><path d="M 165.0 43.2 L 165.0 53.1 L 168.9 53.1" id="10,8" /><path d="M 168.9 53.1 L 168.9 60.4 L 209.0 60.4" id="8,7" /><path d="M 209.0 60.4 L 209.0 66.7 L 218.8 66.7" id="7,6" /><path d="M 218.4 33.3 L 218.4 29.2 L 250.3 29.2" id="9,5" /><path d="M 218.4 33.3 L 218.4 37.5 L 228.4 37.5" id="9,4" /><path d="M 168.9 53.1 L 168.9 45.8 L 226.9 45.8" id="8,3" /><path d="M 209.0 60.4 L 209.0 54.2 L 242.1 54.2" id="7,2" /><path d="M 218.8 66.7 L 218.8 62.5 L 243.6 62.5" id="6,1" /><path d="M 218.8 66.7 L 218.8 70.8 L 240.9 70.8" id="6,0" /></g><g class="toytree-Nodes" style="fill:rgb(100%,0%,0%);fill-opacity:1.0;stroke:None;stroke-width:1"><g id="node-0" transform="translate(240.901,70.833)"><circle r="2.5" /></g><g id="node-1" transform="translate(243.566,62.500)"><circle r="2.5" /></g><g id="node-2" transform="translate(242.098,54.167)"><circle r="2.5" /></g><g id="node-3" transform="translate(226.892,45.833)"><circle r="2.5" /></g><g id="node-4" transform="translate(228.379,37.500)"><circle r="2.5" /></g><g id="node-5" transform="translate(250.263,29.167)"><circle r="2.5" /></g><g id="node-6" transform="translate(218.835,66.667)"><circle r="0.0" /></g><g id="node-7" transform="translate(208.966,60.417)"><circle r="0.0" /></g><g id="node-8" transform="translate(168.931,53.125)"><circle r="0.0" /></g><g id="node-9" transform="translate(218.425,33.333)"><circle r="0.0" /></g><g id="node-10" transform="translate(165.000,43.229)"><circle r="0.0" /></g></g></g></g></g><g class="toyplot-coordinates-Cartesian" id="t5c191c8941d349db8873c45e5cdad9ff"><clipPath id="tbfd8f6a754884e978d3ab2c6856437c8"><rect x="295.0" y="15.0" width="110.0" height="70.0" /></clipPath><g clip-path="url(#tbfd8f6a754884e978d3ab2c6856437c8)"><g class="toytree-mark-Toytree" id="t22c20c7bec1c44049133671f49d9742a"><g class="toytree-Edges" style="fill:none;stroke:rgb(14.9%,14.9%,14.9%);stroke-linecap:round;stroke-opacity:1;stroke-width:0.5"><path d="M 305.0 43.2 L 305.0 33.3 L 359.7 33.3" id="10,9" /><path d="M 305.0 43.2 L 305.0 53.1 L 310.9 53.1" id="10,8" /><path d="M 310.9 53.1 L 310.9 60.4 L 350.8 60.4" id="8,7" /><path d="M 350.8 60.4 L 350.8 66.7 L 359.4 66.7" id="7,6" /><path d="M 359.7 33.3 L 359.7 29.2 L 371.2 29.2" id="9,5" /><path d="M 359.7 33.3 L 359.7 37.5 L 390.3 37.5" id="9,4" /><path d="M 310.9 53.1 L 310.9 45.8 L 369.2 45.8" id="8,3" /><path d="M 350.8 60.4 L 350.8 54.2 L 385.5 54.2" id="7,2" /><path d="M 359.4 66.7 L 359.4 62.5 L 383.7 62.5" id="6,1" /><path d="M 359.4 66.7 L 359.4 70.8 L 382.1 70.8" id="6,0" /></g><g class="toytree-Nodes" style="fill:rgb(100%,0%,0%);fill-opacity:1.0;stroke:None;stroke-width:1"><g id="node-0" transform="translate(382.105,70.833)"><circle r="2.5" /></g><g id="node-1" transform="translate(383.684,62.500)"><circle r="2.5" /></g><g id="node-2" transform="translate(385.455,54.167)"><circle r="2.5" /></g><g id="node-3" transform="translate(369.183,45.833)"><circle r="2.5" /></g><g id="node-4" transform="translate(390.263,37.500)"><circle r="2.5" /></g><g id="node-5" transform="translate(371.188,29.167)"><circle r="2.5" /></g><g id="node-6" transform="translate(359.360,66.667)"><circle r="0.0" /></g><g id="node-7" transform="translate(350.782,60.417)"><circle r="0.0" /></g><g id="node-8" transform="translate(310.924,53.125)"><circle r="0.0" /></g><g id="node-9" transform="translate(359.708,33.333)"><circle r="0.0" /></g><g id="node-10" transform="translate(305.000,43.229)"><circle r="0.0" /></g></g></g></g></g><g class="toyplot-coordinates-Cartesian" id="t2051f3debda94d59ac4243f53c474fe7"><clipPath id="t35ca3447e9694e1aa513d607c4b71a12"><rect x="435.0" y="15.0" width="110.0" height="70.0" /></clipPath><g clip-path="url(#t35ca3447e9694e1aa513d607c4b71a12)"><g class="toytree-mark-Toytree" id="t5763677e17b2462e9cd0ca1637315d3b"><g class="toytree-Edges" style="fill:none;stroke:rgb(14.9%,14.9%,14.9%);stroke-linecap:round;stroke-opacity:1;stroke-width:0.5"><path d="M 445.0 43.2 L 445.0 33.3 L 479.6 33.3" id="10,9" /><path d="M 445.0 43.2 L 445.0 53.1 L 452.0 53.1" id="10,8" /><path d="M 452.0 53.1 L 452.0 60.4 L 491.4 60.4" id="8,7" /><path d="M 491.4 60.4 L 491.4 66.7 L 499.9 66.7" id="7,6" /><path d="M 479.6 33.3 L 479.6 29.2 L 509.2 29.2" id="9,5" /><path d="M 479.6 33.3 L 479.6 37.5 L 501.4 37.5" id="9,4" /><path d="M 452.0 53.1 L 452.0 45.8 L 491.5 45.8" id="8,3" /><path d="M 491.4 60.4 L 491.4 54.2 L 501.8 54.2" id="7,2" /><path d="M 499.9 66.7 L 499.9 62.5 L 508.6 62.5" id="6,1" /><path d="M 499.9 66.7 L 499.9 70.8 L 530.3 70.8" id="6,0" /></g><g class="toytree-Nodes" style="fill:rgb(100%,0%,0%);fill-opacity:1.0;stroke:None;stroke-width:1"><g id="node-0" transform="translate(530.263,70.833)"><circle r="2.5" /></g><g id="node-1" transform="translate(508.610,62.500)"><circle r="2.5" /></g><g id="node-2" transform="translate(501.776,54.167)"><circle r="2.5" /></g><g id="node-3" transform="translate(491.486,45.833)"><circle r="2.5" /></g><g id="node-4" transform="translate(501.360,37.500)"><circle r="2.5" /></g><g id="node-5" transform="translate(509.189,29.167)"><circle r="2.5" /></g><g id="node-6" transform="translate(499.865,66.667)"><circle r="0.0" /></g><g id="node-7" transform="translate(491.395,60.417)"><circle r="0.0" /></g><g id="node-8" transform="translate(451.963,53.125)"><circle r="0.0" /></g><g id="node-9" transform="translate(479.615,33.333)"><circle r="0.0" /></g><g id="node-10" transform="translate(445.000,43.229)"><circle r="0.0" /></g></g></g></g></g></svg>