<svg class="toyplot-canvas-Canvas" xmlns:toyplot="http://www.sandia.gov/toyplot" xmlns:xlink="http://www.w3.org/1999/xlink" xmlns="http://www.w3.org/2000/svg" width="560.0px" height="100.0px" viewBox="0 0 560.0 100.0" preserveAspectRatio="xMidYMid meet" style="background-color:transparent;border-color:#292724;border-style:none;border-width:1.0;fill:rgb(16.1%,15.3%,14.1%);fill-opacity:1.0;font-family:Helvetica;font-size:12px;opacity:1.0;stroke:rgb(16.1%,15.3%,14.1%);stroke-opacity:1.0;stroke-width:1.0" id="t818e18a963d3424a983fef64ce32cc2b"><g class="toyplot-coordinates-Cartesian" id="t4b509201d1d2440cb9c3cb9c65870bd1"><clipPath id="t70b05091a8944839819233898ce7ab39"><rect x="15.0" y="15.0" width="110.0" height="70.0" /></clipPath><g clip-path="url(#t70b05091a8944839819233898ce7ab39)"><g class="toytree-mark-Toytree" id="t2b090d0bbcd94ef5b51bd253d27aba75"><g class="toytree-Edges" style="fill:none;stroke:rgb(14.9%,14.9%,14.9%);stroke-linecap:round;stroke-opacity:1;stroke-width:0.5"><path d="M 25.0 42.4 L 25.0 31.9 L 26.1 31.9" id="42,41" /><path d="M 25.0 42.4 L 25.0 53.0 L 33.6 53.0" id="42,40" /><path d="M 26.1 31.9 L 26.1 34.6 L 48.1 34.6" id="41,39" /><path d="M 33.6 53.0 L 33.6 55.0 L 38.0 55.0" id="40,38" /><path d="M 48.1 34.6 L 48.1 32.1 L 70.4 32.1" id="39,37" /><path d="M 48.1 34.6 L 48.1 37.1 L 59.2 37.1" id="39,36" /><path d="M 38.0 55.0 L 38.0 57.0 L 62.5 57.0" id="38,35" /><path d="M 59.2 37.1 L 59.2 39.1 L 65.2 39.1" id="36,34" /><path d="M 62.5 57.0 L 62.5 59.1 L 68.8 59.1" id="35,33" /><path d="M 65.2 39.1 L 65.2 41.0 L 73.5 41.0" id="34,32" /><path d="M 68.8 59.1 L 68.8 61.2 L 83.7 61.2" id="33,31" /><path d="M 73.5 41.0 L 73.5 42.9 L 79.5 42.9" id="32,30" /><path d="M 83.7 61.2 L 83.7 63.5 L 89.8 63.5" id="31,29" /><path d="M 79.5 42.9 L 79.5 44.8 L 85.4 44.8" id="30,28" /><path d="M 89.8 63.5 L 89.8 66.1 L 97.7 66.1" id="29,27" /><path d="M 85.4 44.8 L 85.4 46.5 L 91.8 46.5" id="28,26" /><path d="M 97.7 66.1 L 97.7 63.9 L 100.9 63.9" id="27,25" /><path d="M 97.7 66.1 L 97.7 68.4 L 103.0 68.4" id="27,24" /><path d="M 91.8 46.5 L 91.8 48.0 L 101.8 48.0" id="26,23" /><path d="M 103.0 68.4 L 103.0 69.8 L 103.6 69.8" id="24,22" /><path d="M 26.1 31.9 L 26.1 29.2 L 91.6 29.2" id="41,21" /><path d="M 70.4 32.1 L 70.4 31.2 L 102.7 31.2" id="37,20" /><path d="M 70.4 32.1 L 70.4 33.1 L 97.2 33.1" id="37,19" /><path d="M 59.2 37.1 L 59.2 35.1 L 105.8 35.1" id="36,18" /><path d="M 65.2 39.1 L 65.2 37.1 L 107.1 37.1" id="34,17" /><path d="M 73.5 41.0 L 73.5 39.1 L 105.0 39.1" id="32,16" /><path d="M 79.5 42.9 L 79.5 41.1 L 106.9 41.1" id="30,15" /><path d="M 85.4 44.8 L 85.4 43.1 L 104.0 43.1" id="28,14" /><path d="M 91.8 46.5 L 91.8 45.0 L 101.5 45.0" id="26,13" /><path d="M 101.8 48.0 L 101.8 47.0 L 101.8 47.0" id="23,12" /><path d="M 101.8 48.0 L 101.8 49.0 L 101.8 49.0" id="23,11" /><path d="M 33.6 53.0 L 33.6 51.0 L 106.8 51.0" id="40,10" /><path d="M 38.0 55.0 L 38.0 53.0 L 110.3 53.0" id="38,9" /><path d="M 62.5 57.0 L 62.5 55.0 L 100.8 55.0" id="35,8" /><path d="M 68.8 59.1 L 68.8 56.9 L 91.0 56.9" id="33,7" /><path d="M 83.7 61.2 L 83.7 58.9 L 101.1 58.9" id="31,6" /><path d="M 89.8 63.5 L 89.8 60.9 L 100.0 60.9" id="29,5" /><path d="M 100.9 63.9 L 100.9 62.9 L 105.0 62.9" id="25,4" /><path d="M 100.9 63.9 L 100.9 64.9 L 102.1 64.9" id="25,3" /><path d="M 103.0 68.4 L 103.0 66.9 L 103.0 66.9" id="24,2" /><path d="M 103.6 69.8 L 103.6 68.8 L 103.6 68.8" id="22,1" /><path d="M 103.6 69.8 L 103.6 70.8 L 103.6 70.8" id="22,0" /></g><g class="toytree-Nodes" style="fill:rgb(100%,0%,0%);fill-opacity:1.0;stroke:None;stroke-width:1"><g id="node-0" transform="translate(103.571,70.833)"><circle r="2.5" /></g><g id="node-1" transform="translate(103.571,68.849)"><circle r="2.5" /></g><g id="node-2" transform="translate(103.050,66.865)"><circle r="2.5" /></g><g id="node-3" transform="translate(102.111,64.881)"><circle r="2.5" /></g><g id="node-4" transform="translate(104.951,62.897)"><circle r="2.5" /></g><g id="node-5" transform="translate(99.968,60.913)"><circle r="2.5" /></g><g id="node-6" transform="translate(101.100,58.929)"><circle r="2.5" /></g><g id="node-7" transform="translate(91.006,56.944)"><circle r="2.5" /></g><g id="node-8" transform="translate(100.823,54.960)"><circle r="2.5" /></g><g id="node-9" transform="translate(110.263,52.976)"><circle r="2.5" /></g><g id="node-10" transform="translate(106.771,50.992)"><circle r="2.5" /></g><g id="node-11" transform="translate(101.776,49.008)"><circle r="2.5" /></g><g id="node-12" transform="translate(101.776,47.024)"><circle r="2.5" /></g><g id="node-13" transform="translate(101.468,45.040)"><circle r="2.5" /></g><g id="node-14" transform="translate(103.974,43.056)"><circle r="2.5" /></g><g id="node-15" transform="translate(106.945,41.071)"><circle r="2.5" /></g><g id="node-16" transform="translate(104.972,39.087)"><circle r="2.5" /></g><g id="node-17" transform="translate(107.086,37.103)"><circle r="2.5" /></g><g id="node-18" transform="translate(105.779,35.119)"><circle r="2.5" /></g><g id="node-19" transform="translate(97.158,33.135)"><circle r="2.5" /></g><g id="node-20" transform="translate(102.675,31.151)"><circle r="2.5" /></g><g id="node-21" transform="translate(91.552,29.167)"><circle r="2.5" /></g><g id="node-22" transform="translate(103.571,69.841)"><circle r="0.0" /></g><g id="node-23" transform="translate(101.776,48.016)"><circle r="0.0" /></g><g id="node-24" transform="translate(103.050,68.353)"><circle r="0.0" /></g><g id="node-25" transform="translate(100.925,63.889)"><circle r="0.0" /></g><g id="node-26" transform="translate(91.823,46.528)"><circle r="0.0" /></g><g id="node-27" transform="translate(97.712,66.121)"><circle r="0.0" /></g><g id="node-28" transform="translate(85.442,44.792)"><circle r="0.0" /></g><g id="node-29" transform="translate(89.846,63.517)"><circle r="0.0" /></g><g id="node-30" transform="translate(79.514,42.932)"><circle r="0.0" /></g><g id="node-31" transform="translate(83.725,61.223)"><circle r="0.0" /></g><g id="node-32" transform="translate(73.506,41.009)"><circle r="0.0" /></g><g id="node-33" transform="translate(68.815,59.084)"><circle r="0.0" /></g><g id="node-34" transform="translate(65.200,39.056)"><circle r="0.0" /></g><g id="node-35" transform="translate(62.523,57.022)"><circle r="0.0" /></g><g id="node-36" transform="translate(59.244,37.088)"><circle r="0.0" /></g><g id="node-37" transform="translate(70.416,32.143)"><circle r="0.0" /></g><g id="node-38" transform="translate(37.967,54.999)"><circle r="0.0" /></g><g id="node-39" transform="translate(48.134,34.615)"><circle r="0.0" /></g><g id="node-40" transform="translate(33.641,52.996)"><circle r="0.0" /></g><g id="node-41" transform="translate(26.116,31.891)"><circle r="0.0" /></g><g id="node-42" transform="translate(25.000,42.443)"><circle r="0.0" /></g></g></g></g></g><g class="toyplot-coordinates-Cartesian" id="t7c030989847045d3a29e0ae8c6966948"><clipPath id="t63d941babfbc4809bb86caf9d26e55e1"><rect x="155.0" y="15.0" width="110.0" height="70.0" /></clipPath><g clip-path="url(#t63d941babfbc4809bb86caf9d26e55e1)"><g class="toytree-mark-Toytree" id="t34d078255d804518a46451c844709999"><g class="toytree-Edges" style="fill:none;stroke:rgb(14.9%,14.9%,14.9%);stroke-linecap:round;stroke-opacity:1;stroke-width:0.5"><path d="M 165.0 40.9 L 165.0 32.8 L 174.3 32.8" id="42,41" /><path d="M 165.0 40.9 L 165.0 49.1 L 175.4 49.1" id="42,40" /><path d="M 174.3 32.8 L 174.3 30.2 L 187.4 30.2" id="41,39" /><path d="M 174.3 32.8 L 174.3 35.4 L 186.1 35.4" id="41,38" /><path d="M 175.4 49.1 L 175.4 51.2 L 181.1 51.2" id="40,37" /><path d="M 186.1 35.4 L 186.1 37.7 L 191.9 37.7" id="38,36" /><path d="M 181.1 51.2 L 181.1 53.3 L 185.3 53.3" id="37,35" /><path d="M 191.9 37.7 L 191.9 40.3 L 196.0 40.3" id="36,34" /><path d="M 185.3 53.3 L 185.3 55.6 L 189.3 55.6" id="35,33" /><path d="M 196.0 40.3 L 196.0 38.1 L 204.1 38.1" id="34,32" /><path d="M 196.0 40.3 L 196.0 42.6 L 203.6 42.6" id="34,31" /><path d="M 189.3 55.6 L 189.3 58.3 L 192.4 58.3" id="33,30" /><path d="M 203.6 42.6 L 203.6 44.0 L 211.2 44.0" id="31,29" /><path d="M 192.4 58.3 L 192.4 61.6 L 206.4 61.6" id="30,28" /><path d="M 206.4 61.6 L 206.4 58.4 L 219.0 58.4" id="28,27" /><path d="M 206.4 61.6 L 206.4 64.8 L 207.2 64.8" id="28,26" /><path d="M 219.0 58.4 L 219.0 59.9 L 222.7 59.9" id="27,25" /><path d="M 207.2 64.8 L 207.2 66.6 L 210.9 66.6" id="26,24" /><path d="M 210.9 66.6 L 210.9 68.4 L 223.6 68.4" id="24,23" /><path d="M 223.6 68.4 L 223.6 69.8 L 233.5 69.8" id="23,22" /><path d="M 187.4 30.2 L 187.4 29.2 L 215.9 29.2" id="39,21" /><path d="M 187.4 30.2 L 187.4 31.2 L 232.8 31.2" id="39,20" /><path d="M 186.1 35.4 L 186.1 33.1 L 232.9 33.1" id="38,19" /><path d="M 191.9 37.7 L 191.9 35.1 L 232.0 35.1" id="36,18" /><path d="M 204.1 38.1 L 204.1 37.1 L 234.3 37.1" id="32,17" /><path d="M 204.1 38.1 L 204.1 39.1 L 243.7 39.1" id="32,16" /><path d="M 203.6 42.6 L 203.6 41.1 L 236.4 41.1" id="31,15" /><path d="M 211.2 44.0 L 211.2 43.1 L 234.0 43.1" id="29,14" /><path d="M 211.2 44.0 L 211.2 45.0 L 250.3 45.0" id="29,13" /><path d="M 175.4 49.1 L 175.4 47.0 L 233.9 47.0" id="40,12" /><path d="M 181.1 51.2 L 181.1 49.0 L 221.0 49.0" id="37,11" /><path d="M 185.3 53.3 L 185.3 51.0 L 229.6 51.0" id="35,10" /><path d="M 189.3 55.6 L 189.3 53.0 L 236.0 53.0" id="33,9" /><path d="M 192.4 58.3 L 192.4 55.0 L 216.5 55.0" id="30,8" /><path d="M 219.0 58.4 L 219.0 56.9 L 239.2 56.9" id="27,7" /><path d="M 222.7 59.9 L 222.7 58.9 L 243.0 58.9" id="25,6" /><path d="M 222.7 59.9 L 222.7 60.9 L 237.8 60.9" id="25,5" /><path d="M 207.2 64.8 L 207.2 62.9 L 237.4 62.9" id="26,4" /><path d="M 210.9 66.6 L 210.9 64.9 L 236.8 64.9" id="24,3" /><path d="M 223.6 68.4 L 223.6 66.9 L 237.0 66.9" id="23,2" /><path d="M 233.5 69.8 L 233.5 68.8 L 238.4 68.8" id="22,1" /><path d="M 233.5 69.8 L 233.5 70.8 L 240.8 70.8" id="22,0" /></g><g class="toytree-Nodes" style="fill:rgb(100%,0%,0%);fill-opacity:1.0;stroke:None;stroke-width:1"><g id="node-0" transform="translate(240.842,70.833)"><circle r="2.5" /></g><g id="node-1" transform="translate(238.423,68.849)"><circle r="2.5" /></g><g id="node-2" transform="translate(237.033,66.865)"><circle r="2.5" /></g><g id="node-3" transform="translate(236.829,64.881)"><circle r="2.5" /></g><g id="node-4" transform="translate(237.359,62.897)"><circle r="2.5" /></g><g id="node-5" transform="translate(237.789,60.913)"><circle r="2.5" /></g><g id="node-6" transform="translate(243.011,58.929)"><circle r="2.5" /></g><g id="node-7" transform="translate(239.226,56.944)"><circle r="2.5" /></g><g id="node-8" transform="translate(216.492,54.960)"><circle r="2.5" /></g><g id="node-9" transform="translate(235.972,52.976)"><circle r="2.5" /></g><g id="node-10" transform="translate(229.630,50.992)"><circle r="2.5" /></g><g id="node-11" transform="translate(221.020,49.008)"><circle r="2.5" /></g><g id="node-12" transform="translate(233.886,47.024)"><circle r="2.5" /></g><g id="node-13" transform="translate(250.263,45.040)"><circle r="2.5" /></g><g id="node-14" transform="translate(234.016,43.056)"><circle r="2.5" /></g><g id="node-15" transform="translate(236.440,41.071)"><circle r="2.5" /></g><g id="node-16" transform="translate(243.696,39.087)"><circle r="2.5" /></g><g id="node-17" transform="translate(234.265,37.103)"><circle r="2.5" /></g><g id="node-18" transform="translate(232.016,35.119)"><circle r="2.5" /></g><g id="node-19" transform="translate(232.875,33.135)"><circle r="2.5" /></g><g id="node-20" transform="translate(232.822,31.151)"><circle r="2.5" /></g><g id="node-21" transform="translate(215.929,29.167)"><circle r="2.5" /></g><g id="node-22" transform="translate(233.468,69.841)"><circle r="0.0" /></g><g id="node-23" transform="translate(223.551,68.353)"><circle r="0.0" /></g><g id="node-24" transform="translate(210.866,66.617)"><circle r="0.0" /></g><g id="node-25" transform="translate(222.662,59.921)"><circle r="0.0" /></g><g id="node-26" transform="translate(207.183,64.757)"><circle r="0.0" /></g><g id="node-27" transform="translate(219.023,58.433)"><circle r="0.0" /></g><g id="node-28" transform="translate(206.365,61.595)"><circle r="0.0" /></g><g id="node-29" transform="translate(211.198,44.048)"><circle r="0.0" /></g><g id="node-30" transform="translate(192.376,58.278)"><circle r="0.0" /></g><g id="node-31" transform="translate(203.570,42.560)"><circle r="0.0" /></g><g id="node-32" transform="translate(204.068,38.095)"><circle r="0.0" /></g><g id="node-33" transform="translate(189.294,55.627)"><circle r="0.0" /></g><g id="node-34" transform="translate(195.962,40.327)"><circle r="0.0" /></g><g id="node-35" transform="translate(185.296,53.309)"><circle r="0.0" /></g><g id="node-36" transform="translate(191.928,37.723)"><circle r="0.0" /></g><g id="node-37" transform="translate(181.066,51.159)"><circle r="0.0" /></g><g id="node-38" transform="translate(186.134,35.429)"><circle r="0.0" /></g><g id="node-39" transform="translate(187.447,30.159)"><circle r="0.0" /></g><g id="node-40" transform="translate(175.414,49.091)"><circle r="0.0" /></g><g id="node-41" transform="translate(174.342,32.794)"><circle r="0.0" /></g><g id="node-42" transform="translate(165.000,40.943)"><circle r="0.0" /></g></g></g></g></g><g class="toyplot-coordinates-Cartesian" id="t688ed660cae54076a54aa40d4dcc751b"><clipPath id="t22f4673235e14fc999720bd96c4f1dbc"><rect x="295.0" y="15.0" width="110.0" height="70.0" /></clipPath><g clip-path="url(#t22f4673235e14fc999720bd96c4f1dbc)"><g class="toytree-mark-Toytree" id="t79a4ee7808d24978a9f49a76ddbe6395"><g class="toytree-Edges" style="fill:none;stroke:rgb(14.9%,14.9%,14.9%);stroke-linecap:round;stroke-opacity:1;stroke-width:0.5"><path d="M 305.0 40.4 L 305.0 31.3 L 305.8 31.3" id="42,41" /><path d="M 305.0 40.4 L 305.0 49.5 L 311.0 49.5" id="42,40" /><path d="M 305.8 31.3 L 305.8 33.5 L 310.6 33.5" id="41,39" /><path d="M 311.0 49.5 L 311.0 52.1 L 315.7 52.1" id="40,38" /><path d="M 310.6 33.5 L 310.6 35.8 L 320.1 35.8" id="39,37" /><path d="M 315.7 52.1 L 315.7 55.1 L 323.9 55.1" id="38,36" /><path d="M 320.1 35.8 L 320.1 38.5 L 323.8 38.5" id="37,35" /><path d="M 323.9 55.1 L 323.9 52.0 L 327.2 52.0" id="36,34" /><path d="M 323.9 55.1 L 323.9 58.3 L 337.9 58.3" id="36,33" /><path d="M 323.8 38.5 L 323.8 36.1 L 327.0 36.1" id="35,32" /><path d="M 323.8 38.5 L 323.8 40.8 L 334.8 40.8" id="35,31" /><path d="M 337.9 58.3 L 337.9 61.6 L 355.1 61.6" id="33,30" /><path d="M 334.8 40.8 L 334.8 42.6 L 337.8 42.6" id="31,29" /><path d="M 355.1 61.6 L 355.1 58.4 L 362.0 58.4" id="30,28" /><path d="M 355.1 61.6 L 355.1 64.8 L 358.5 64.8" id="30,27" /><path d="M 337.8 42.6 L 337.8 44.0 L 343.2 44.0" id="29,26" /><path d="M 362.0 58.4 L 362.0 59.9 L 366.0 59.9" id="28,25" /><path d="M 358.5 64.8 L 358.5 66.6 L 359.0 66.6" id="27,24" /><path d="M 359.0 66.6 L 359.0 68.4 L 361.0 68.4" id="24,23" /><path d="M 361.0 68.4 L 361.0 69.8 L 363.5 69.8" id="23,22" /><path d="M 305.8 31.3 L 305.8 29.2 L 356.6 29.2" id="41,21" /><path d="M 310.6 33.5 L 310.6 31.2 L 367.1 31.2" id="39,20" /><path d="M 320.1 35.8 L 320.1 33.1 L 366.0 33.1" id="37,19" /><path d="M 327.0 36.1 L 327.0 35.1 L 360.9 35.1" id="32,18" /><path d="M 327.0 36.1 L 327.0 37.1 L 363.5 37.1" id="32,17" /><path d="M 334.8 40.8 L 334.8 39.1 L 390.3 39.1" id="31,16" /><path d="M 337.8 42.6 L 337.8 41.1 L 367.8 41.1" id="29,15" /><path d="M 343.2 44.0 L 343.2 43.1 L 368.6 43.1" id="26,14" /><path d="M 343.2 44.0 L 343.2 45.0 L 367.1 45.0" id="26,13" /><path d="M 311.0 49.5 L 311.0 47.0 L 355.3 47.0" id="40,12" /><path d="M 315.7 52.1 L 315.7 49.0 L 366.2 49.0" id="38,11" /><path d="M 327.2 52.0 L 327.2 51.0 L 369.4 51.0" id="34,10" /><path d="M 327.2 52.0 L 327.2 53.0 L 364.2 53.0" id="34,9" /><path d="M 337.9 58.3 L 337.9 55.0 L 368.0 55.0" id="33,8" /><path d="M 362.0 58.4 L 362.0 56.9 L 364.3 56.9" id="28,7" /><path d="M 366.0 59.9 L 366.0 58.9 L 371.3 58.9" id="25,6" /><path d="M 366.0 59.9 L 366.0 60.9 L 373.4 60.9" id="25,5" /><path d="M 358.5 64.8 L 358.5 62.9 L 367.6 62.9" id="27,4" /><path d="M 359.0 66.6 L 359.0 64.9 L 365.9 64.9" id="24,3" /><path d="M 361.0 68.4 L 361.0 66.9 L 367.3 66.9" id="23,2" /><path d="M 363.5 69.8 L 363.5 68.8 L 368.1 68.8" id="22,1" /><path d="M 363.5 69.8 L 363.5 70.8 L 366.9 70.8" id="22,0" /></g><g class="toytree-Nodes" style="fill:rgb(100%,0%,0%);fill-opacity:1.0;stroke:None;stroke-width:1"><g id="node-0" transform="translate(366.916,70.833)"><circle r="2.5" /></g><g id="node-1" transform="translate(368.119,68.849)"><circle r="2.5" /></g><g id="node-2" transform="translate(367.291,66.865)"><circle r="2.5" /></g><g id="node-3" transform="translate(365.884,64.881)"><circle r="2.5" /></g><g id="node-4" transform="translate(367.603,62.897)"><circle r="2.5" /></g><g id="node-5" transform="translate(373.387,60.913)"><circle r="2.5" /></g><g id="node-6" transform="translate(371.350,58.929)"><circle r="2.5" /></g><g id="node-7" transform="translate(364.310,56.944)"><circle r="2.5" /></g><g id="node-8" transform="translate(367.978,54.960)"><circle r="2.5" /></g><g id="node-9" transform="translate(364.189,52.976)"><circle r="2.5" /></g><g id="node-10" transform="translate(369.427,50.992)"><circle r="2.5" /></g><g id="node-11" transform="translate(366.183,49.008)"><circle r="2.5" /></g><g id="node-12" transform="translate(355.279,47.024)"><circle r="2.5" /></g><g id="node-13" transform="translate(367.110,45.040)"><circle r="2.5" /></g><g id="node-14" transform="translate(368.609,43.056)"><circle r="2.5" /></g><g id="node-15" transform="translate(367.787,41.071)"><circle r="2.5" /></g><g id="node-16" transform="translate(390.263,39.087)"><circle r="2.5" /></g><g id="node-17" transform="translate(363.545,37.103)"><circle r="2.5" /></g><g id="node-18" transform="translate(360.922,35.119)"><circle r="2.5" /></g><g id="node-19" transform="translate(365.963,33.135)"><circle r="2.5" /></g><g id="node-20" transform="translate(367.068,31.151)"><circle r="2.5" /></g><g id="node-21" transform="translate(356.607,29.167)"><circle r="2.5" /></g><g id="node-22" transform="translate(363.508,69.841)"><circle r="0.0" /></g><g id="node-23" transform="translate(361.020,68.353)"><circle r="0.0" /></g><g id="node-24" transform="translate(358.983,66.617)"><circle r="0.0" /></g><g id="node-25" transform="translate(365.960,59.921)"><circle r="0.0" /></g><g id="node-26" transform="translate(343.228,44.048)"><circle r="0.0" /></g><g id="node-27" transform="translate(358.480,64.757)"><circle r="0.0" /></g><g id="node-28" transform="translate(362.029,58.433)"><circle r="0.0" /></g><g id="node-29" transform="translate(337.753,42.560)"><circle r="0.0" /></g><g id="node-30" transform="translate(355.138,61.595)"><circle r="0.0" /></g><g id="node-31" transform="translate(334.792,40.823)"><circle r="0.0" /></g><g id="node-32" transform="translate(327.019,36.111)"><circle r="0.0" /></g><g id="node-33" transform="translate(337.910,58.278)"><circle r="0.0" /></g><g id="node-34" transform="translate(327.206,51.984)"><circle r="0.0" /></g><g id="node-35" transform="translate(323.845,38.467)"><circle r="0.0" /></g><g id="node-36" transform="translate(323.871,55.131)"><circle r="0.0" /></g><g id="node-37" transform="translate(320.072,35.801)"><circle r="0.0" /></g><g id="node-38" transform="translate(315.674,52.069)"><circle r="0.0" /></g><g id="node-39" transform="translate(310.571,33.476)"><circle r="0.0" /></g><g id="node-40" transform="translate(310.975,49.547)"><circle r="0.0" /></g><g id="node-41" transform="translate(305.815,31.321)"><circle r="0.0" /></g><g id="node-42" transform="translate(305.000,40.434)"><circle r="0.0" /></g></g></g></g></g><g class="toyplot-coordinates-Cartesian" id="t428d12c02961427486199c74f11c7b1f"><clipPath id="t42dc85a3e0244bf5b540290bd9ef86bc"><rect x="435.0" y="15.0" width="110.0" height="70.0" /></clipPath><g clip-path="url(#t42dc85a3e0244bf5b540290bd9ef86bc)"><g class="toytree-mark-Toytree" id="t931b97c1fe4e4e728f362f74ebb625ab"><g class="toytree-Edges" style="fill:none;stroke:rgb(14.9%,14.9%,14.9%);stroke-linecap:round;stroke-opacity:1;stroke-width:0.5"><path d="M 445.0 42.6 L 445.0 31.9 L 451.7 31.9" id="42,41" /><path d="M 445.0 42.6 L 445.0 53.4 L 451.2 53.4" id="42,40" /><path d="M 451.7 31.9 L 451.7 34.6 L 482.1 34.6" id="41,39" /><path d="M 451.2 53.4 L 451.2 55.8 L 470.5 55.8" id="40,38" /><path d="M 482.1 34.6 L 482.1 32.1 L 491.2 32.1" id="39,37" /><path d="M 482.1 34.6 L 482.1 37.1 L 496.4 37.1" id="39,36" /><path d="M 470.5 55.8 L 470.5 58.6 L 502.0 58.6" id="38,35" /><path d="M 496.4 37.1 L 496.4 39.1 L 505.1 39.1" id="36,34" /><path d="M 502.0 58.6 L 502.0 56.0 L 505.9 56.0" id="35,33" /><path d="M 502.0 58.6 L 502.0 61.2 L 509.3 61.2" id="35,32" /><path d="M 505.1 39.1 L 505.1 41.0 L 512.3 41.0" id="34,31" /><path d="M 509.3 61.2 L 509.3 63.5 L 511.4 63.5" id="32,30" /><path d="M 512.3 41.0 L 512.3 42.9 L 516.6 42.9" id="31,29" /><path d="M 511.4 63.5 L 511.4 66.1 L 514.1 66.1" id="30,28" /><path d="M 516.6 42.9 L 516.6 44.8 L 518.9 44.8" id="29,27" /><path d="M 514.1 66.1 L 514.1 63.9 L 515.0 63.9" id="28,26" /><path d="M 514.1 66.1 L 514.1 68.4 L 515.4 68.4" id="28,25" /><path d="M 518.9 44.8 L 518.9 46.5 L 519.7 46.5" id="27,24" /><path d="M 515.4 68.4 L 515.4 69.8 L 515.5 69.8" id="25,23" /><path d="M 519.7 46.5 L 519.7 48.0 L 520.9 48.0" id="24,22" /><path d="M 451.7 31.9 L 451.7 29.2 L 494.9 29.2" id="41,21" /><path d="M 491.2 32.1 L 491.2 31.2 L 502.2 31.2" id="37,20" /><path d="M 491.2 32.1 L 491.2 33.1 L 499.8 33.1" id="37,19" /><path d="M 496.4 37.1 L 496.4 35.1 L 511.1 35.1" id="36,18" /><path d="M 505.1 39.1 L 505.1 37.1 L 519.7 37.1" id="34,17" /><path d="M 512.3 41.0 L 512.3 39.1 L 523.1 39.1" id="31,16" /><path d="M 516.6 42.9 L 516.6 41.1 L 524.5 41.1" id="29,15" /><path d="M 518.9 44.8 L 518.9 43.1 L 526.5 43.1" id="27,14" /><path d="M 519.7 46.5 L 519.7 45.0 L 530.3 45.0" id="24,13" /><path d="M 520.9 48.0 L 520.9 47.0 L 520.9 47.0" id="22,12" /><path d="M 520.9 48.0 L 520.9 49.0 L 520.9 49.0" id="22,11" /><path d="M 451.2 53.4 L 451.2 51.0 L 504.6 51.0" id="40,10" /><path d="M 470.5 55.8 L 470.5 53.0 L 509.0 53.0" id="38,9" /><path d="M 505.9 56.0 L 505.9 55.0 L 520.3 55.0" id="33,8" /><path d="M 505.9 56.0 L 505.9 56.9 L 510.2 56.9" id="33,7" /><path d="M 509.3 61.2 L 509.3 58.9 L 513.7 58.9" id="32,6" /><path d="M 511.4 63.5 L 511.4 60.9 L 514.1 60.9" id="30,5" /><path d="M 515.0 63.9 L 515.0 62.9 L 515.3 62.9" id="26,4" /><path d="M 515.0 63.9 L 515.0 64.9 L 516.1 64.9" id="26,3" /><path d="M 515.4 68.4 L 515.4 66.9 L 515.5 66.9" id="25,2" /><path d="M 515.5 69.8 L 515.5 68.8 L 515.5 68.8" id="23,1" /><path d="M 515.5 69.8 L 515.5 70.8 L 515.5 70.8" id="23,0" /></g><g class="toytree-Nodes" style="fill:rgb(100%,0%,0%);fill-opacity:1.0;stroke:None;stroke-width:1"><g id="node-0" transform="translate(515.535,70.833)"><circle r="2.5" /></g><g id="node-1" transform="translate(515.535,68.849)"><circle r="2.5" /></g><g id="node-2" transform="translate(515.484,66.865)"><circle r="2.5" /></g><g id="node-3" transform="translate(516.084,64.881)"><circle r="2.5" /></g><g id="node-4" transform="translate(515.320,62.897)"><circle r="2.5" /></g><g id="node-5" transform="translate(514.067,60.913)"><circle r="2.5" /></g><g id="node-6" transform="translate(513.679,58.929)"><circle r="2.5" /></g><g id="node-7" transform="translate(510.165,56.944)"><circle r="2.5" /></g><g id="node-8" transform="translate(520.278,54.960)"><circle r="2.5" /></g><g id="node-9" transform="translate(508.960,52.976)"><circle r="2.5" /></g><g id="node-10" transform="translate(504.552,50.992)"><circle r="2.5" /></g><g id="node-11" transform="translate(520.944,49.008)"><circle r="2.5" /></g><g id="node-12" transform="translate(520.944,47.024)"><circle r="2.5" /></g><g id="node-13" transform="translate(530.263,45.040)"><circle r="2.5" /></g><g id="node-14" transform="translate(526.542,43.056)"><circle r="2.5" /></g><g id="node-15" transform="translate(524.532,41.071)"><circle r="2.5" /></g><g id="node-16" transform="translate(523.075,39.087)"><circle r="2.5" /></g><g id="node-17" transform="translate(519.655,37.103)"><circle r="2.5" /></g><g id="node-18" transform="translate(511.132,35.119)"><circle r="2.5" /></g><g id="node-19" transform="translate(499.789,33.135)"><circle r="2.5" /></g><g id="node-20" transform="translate(502.183,31.151)"><circle r="2.5" /></g><g id="node-21" transform="translate(494.866,29.167)"><circle r="2.5" /></g><g id="node-22" transform="translate(520.944,48.016)"><circle r="0.0" /></g><g id="node-23" transform="translate(515.535,69.841)"><circle r="0.0" /></g><g id="node-24" transform="translate(519.689,46.528)"><circle r="0.0" /></g><g id="node-25" transform="translate(515.391,68.353)"><circle r="0.0" /></g><g id="node-26" transform="translate(515.039,63.889)"><circle r="0.0" /></g><g id="node-27" transform="translate(518.944,44.792)"><circle r="0.0" /></g><g id="node-28" transform="translate(514.148,66.121)"><circle r="0.0" /></g><g id="node-29" transform="translate(516.598,42.932)"><circle r="0.0" /></g><g id="node-30" transform="translate(511.363,63.517)"><circle r="0.0" /></g><g id="node-31" transform="translate(512.311,41.009)"><circle r="0.0" /></g><g id="node-32" transform="translate(509.251,61.223)"><circle r="0.0" /></g><g id="node-33" transform="translate(505.922,55.952)"><circle r="0.0" /></g><g id="node-34" transform="translate(505.107,39.056)"><circle r="0.0" /></g><g id="node-35" transform="translate(502.009,58.588)"><circle r="0.0" /></g><g id="node-36" transform="translate(496.392,37.088)"><circle r="0.0" /></g><g id="node-37" transform="translate(491.210,32.143)"><circle r="0.0" /></g><g id="node-38" transform="translate(470.533,55.782)"><circle r="0.0" /></g><g id="node-39" transform="translate(482.112,34.615)"><circle r="0.0" /></g><g id="node-40" transform="translate(451.176,53.387)"><circle r="0.0" /></g><g id="node-41" transform="translate(451.653,31.891)"><circle r="0.0" /></g><g id="node-42" transform="translate(445.000,42.639)"><circle r="0.0" /></g></g></g></g></g></svg>