<svg class="toyplot-canvas-Canvas" xmlns:toyplot="http://www.sandia.gov/toyplot" xmlns:xlink="http://www.w3.org/1999/xlink" xmlns="http://www.w3.org/2000/svg" width="560.0px" height="100.0px" viewBox="0 0 560.0 100.0" preserveAspectRatio="xMidYMid meet" style="background-color:transparent;border-color:#292724;border-style:none;border-width:1.0;fill:rgb(16.1%,15.3%,14.1%);fill-opacity:1.0;font-family:Helvetica;font-size:12px;opacity:1.0;stroke:rgb(16.1%,15.3%,14.1%);stroke-opacity:1.0;stroke-width:1.0" id="t163a9f78a89a434db293e78bd0cb05b4"><g class="toyplot-coordinates-Cartesian" id="tc48f8d8e29584a77b9cdbed01289b68d"><clipPath id="t0b23037844f54f1e99d1263b09717046"><rect x="15.0" y="15.0" width="110.0" height="70.0" /></clipPath><g clip-path="url(#t0b23037844f54f1e99d1263b09717046)"><g class="toytree-mark-Toytree" id="t221fe1b5d10b4777991c2d45abcc7350"><g class="toytree-Edges" style="fill:none;stroke:rgb(14.9%,14.9%,14.9%);stroke-linecap:round;stroke-opacity:1;stroke-width:0.5"><path d="M 25.0 35.0 L 25.0 40.9 L 26.3 40.9" id="36,35" /><path d="M 26.3 40.9 L 26.3 33.7 L 29.6 33.7" id="35,34" /><path d="M 26.3 40.9 L 26.3 48.1 L 30.5 48.1" id="35,33" /><path d="M 29.6 33.7 L 29.6 36.0 L 34.5 36.0" id="34,32" /><path d="M 30.5 48.1 L 30.5 50.7 L 38.3 50.7" id="33,31" /><path d="M 34.5 36.0 L 34.5 38.1 L 39.7 38.1" id="32,30" /><path d="M 38.3 50.7 L 38.3 53.8 L 68.0 53.8" id="31,29" /><path d="M 39.7 38.1 L 39.7 40.2 L 51.6 40.2" id="30,28" /><path d="M 68.0 53.8 L 68.0 57.6 L 72.0 57.6" id="29,27" /><path d="M 51.6 40.2 L 51.6 41.9 L 55.3 41.9" id="28,26" /><path d="M 72.0 57.6 L 72.0 53.5 L 79.0 53.5" id="27,25" /><path d="M 72.0 57.6 L 72.0 61.7 L 75.5 61.7" id="27,24" /><path d="M 75.5 61.7 L 75.5 58.1 L 78.6 58.1" id="24,23" /><path d="M 75.5 61.7 L 75.5 65.3 L 75.7 65.3" id="24,22" /><path d="M 75.7 65.3 L 75.7 62.7 L 77.8 62.7" id="22,21" /><path d="M 75.7 65.3 L 75.7 67.9 L 76.8 67.9" id="22,20" /><path d="M 76.8 67.9 L 76.8 69.7 L 78.5 69.7" id="20,19" /><path d="M 25.0 35.0 L 25.0 29.2 L 85.2 29.2" id="36,18" /><path d="M 29.6 33.7 L 29.6 31.5 L 90.6 31.5" id="34,17" /><path d="M 34.5 36.0 L 34.5 33.8 L 107.5 33.8" id="32,16" /><path d="M 39.7 38.1 L 39.7 36.1 L 78.3 36.1" id="30,15" /><path d="M 51.6 40.2 L 51.6 38.4 L 77.0 38.4" id="28,14" /><path d="M 55.3 41.9 L 55.3 40.7 L 78.2 40.7" id="26,13" /><path d="M 55.3 41.9 L 55.3 43.1 L 90.5 43.1" id="26,12" /><path d="M 30.5 48.1 L 30.5 45.4 L 95.7 45.4" id="33,11" /><path d="M 38.3 50.7 L 38.3 47.7 L 110.3 47.7" id="31,10" /><path d="M 68.0 53.8 L 68.0 50.0 L 76.1 50.0" id="29,9" /><path d="M 79.0 53.5 L 79.0 52.3 L 88.1 52.3" id="25,8" /><path d="M 79.0 53.5 L 79.0 54.6 L 103.0 54.6" id="25,7" /><path d="M 78.6 58.1 L 78.6 56.9 L 78.6 56.9" id="23,6" /><path d="M 78.6 58.1 L 78.6 59.3 L 78.6 59.3" id="23,5" /><path d="M 77.8 62.7 L 77.8 61.6 L 78.1 61.6" id="21,4" /><path d="M 77.8 62.7 L 77.8 63.9 L 81.8 63.9" id="21,3" /><path d="M 76.8 67.9 L 76.8 66.2 L 79.4 66.2" id="20,2" /><path d="M 78.5 69.7 L 78.5 68.5 L 78.5 68.5" id="19,1" /><path d="M 78.5 69.7 L 78.5 70.8 L 78.5 70.8" id="19,0" /></g><g class="toytree-Nodes" style="fill:rgb(100%,0%,0%);fill-opacity:1.0;stroke:None;stroke-width:1"><g id="node-0" transform="translate(78.526,70.833)"><circle r="2.5" /></g><g id="node-1" transform="translate(78.526,68.519)"><circle r="2.5" /></g><g id="node-2" transform="translate(79.427,66.204)"><circle r="2.5" /></g><g id="node-3" transform="translate(81.795,63.889)"><circle r="2.5" /></g><g id="node-4" transform="translate(78.126,61.574)"><circle r="2.5" /></g><g id="node-5" transform="translate(78.631,59.259)"><circle r="2.5" /></g><g id="node-6" transform="translate(78.631,56.944)"><circle r="2.5" /></g><g id="node-7" transform="translate(102.992,54.630)"><circle r="2.5" /></g><g id="node-8" transform="translate(88.067,52.315)"><circle r="2.5" /></g><g id="node-9" transform="translate(76.067,50.000)"><circle r="2.5" /></g><g id="node-10" transform="translate(110.263,47.685)"><circle r="2.5" /></g><g id="node-11" transform="translate(95.720,45.370)"><circle r="2.5" /></g><g id="node-12" transform="translate(90.525,43.056)"><circle r="2.5" /></g><g id="node-13" transform="translate(78.219,40.741)"><circle r="2.5" /></g><g id="node-14" transform="translate(77.039,38.426)"><circle r="2.5" /></g><g id="node-15" transform="translate(78.263,36.111)"><circle r="2.5" /></g><g id="node-16" transform="translate(107.498,33.796)"><circle r="2.5" /></g><g id="node-17" transform="translate(90.636,31.481)"><circle r="2.5" /></g><g id="node-18" transform="translate(85.167,29.167)"><circle r="2.5" /></g><g id="node-19" transform="translate(78.526,69.676)"><circle r="0.0" /></g><g id="node-20" transform="translate(76.786,67.940)"><circle r="0.0" /></g><g id="node-21" transform="translate(77.771,62.731)"><circle r="0.0" /></g><g id="node-22" transform="translate(75.668,65.336)"><circle r="0.0" /></g><g id="node-23" transform="translate(78.631,58.102)"><circle r="0.0" /></g><g id="node-24" transform="translate(75.539,61.719)"><circle r="0.0" /></g><g id="node-25" transform="translate(79.038,53.472)"><circle r="0.0" /></g><g id="node-26" transform="translate(55.255,41.898)"><circle r="0.0" /></g><g id="node-27" transform="translate(71.986,57.595)"><circle r="0.0" /></g><g id="node-28" transform="translate(51.588,40.162)"><circle r="0.0" /></g><g id="node-29" transform="translate(67.971,53.798)"><circle r="0.0" /></g><g id="node-30" transform="translate(39.658,38.137)"><circle r="0.0" /></g><g id="node-31" transform="translate(38.290,50.741)"><circle r="0.0" /></g><g id="node-32" transform="translate(34.469,35.966)"><circle r="0.0" /></g><g id="node-33" transform="translate(30.493,48.056)"><circle r="0.0" /></g><g id="node-34" transform="translate(29.586,33.724)"><circle r="0.0" /></g><g id="node-35" transform="translate(26.287,40.890)"><circle r="0.0" /></g><g id="node-36" transform="translate(25.000,35.028)"><circle r="0.0" /></g></g></g></g></g><g class="toyplot-coordinates-Cartesian" id="t81e2ab5034d84adabed01d944e63ec56"><clipPath id="t39d0111a050449b8bd30dc936fd1df36"><rect x="155.0" y="15.0" width="110.0" height="70.0" /></clipPath><g clip-path="url(#t39d0111a050449b8bd30dc936fd1df36)"><g class="toytree-mark-Toytree" id="t0e7e665c5f2349258040788335f7aa60"><g class="toytree-Edges" style="fill:none;stroke:rgb(14.9%,14.9%,14.9%);stroke-linecap:round;stroke-opacity:1;stroke-width:0.5"><path d="M 165.0 32.8 L 165.0 36.5 L 165.7 36.5" id="36,35" /><path d="M 165.7 36.5 L 165.7 32.6 L 174.6 32.6" id="35,34" /><path d="M 165.7 36.5 L 165.7 40.3 L 166.8 40.3" id="35,33" /><path d="M 166.8 40.3 L 166.8 44.5 L 169.6 44.5" id="33,32" /><path d="M 169.6 44.5 L 169.6 39.6 L 211.1 39.6" id="32,31" /><path d="M 169.6 44.5 L 169.6 49.4 L 187.8 49.4" id="32,30" /><path d="M 187.8 49.4 L 187.8 44.2 L 202.3 44.2" id="30,29" /><path d="M 187.8 49.4 L 187.8 54.7 L 199.0 54.7" id="30,28" /><path d="M 199.0 54.7 L 199.0 49.7 L 199.7 49.7" id="28,27" /><path d="M 199.0 54.7 L 199.0 59.6 L 212.1 59.6" id="28,26" /><path d="M 199.7 49.7 L 199.7 51.7 L 205.2 51.7" id="27,25" /><path d="M 212.1 59.6 L 212.1 62.3 L 221.2 62.3" id="26,24" /><path d="M 205.2 51.7 L 205.2 53.5 L 208.9 53.5" id="25,23" /><path d="M 221.2 62.3 L 221.2 65.3 L 225.2 65.3" id="24,22" /><path d="M 225.2 65.3 L 225.2 62.7 L 230.9 62.7" id="22,21" /><path d="M 225.2 65.3 L 225.2 67.9 L 227.1 67.9" id="22,20" /><path d="M 227.1 67.9 L 227.1 69.7 L 234.4 69.7" id="20,19" /><path d="M 165.0 32.8 L 165.0 29.2 L 234.2 29.2" id="36,18" /><path d="M 174.6 32.6 L 174.6 31.5 L 222.6 31.5" id="34,17" /><path d="M 174.6 32.6 L 174.6 33.8 L 250.3 33.8" id="34,16" /><path d="M 166.8 40.3 L 166.8 36.1 L 231.9 36.1" id="33,15" /><path d="M 211.1 39.6 L 211.1 38.4 L 236.6 38.4" id="31,14" /><path d="M 211.1 39.6 L 211.1 40.7 L 239.1 40.7" id="31,13" /><path d="M 202.3 44.2 L 202.3 43.1 L 241.2 43.1" id="29,12" /><path d="M 202.3 44.2 L 202.3 45.4 L 220.5 45.4" id="29,11" /><path d="M 199.7 49.7 L 199.7 47.7 L 217.7 47.7" id="27,10" /><path d="M 205.2 51.7 L 205.2 50.0 L 242.6 50.0" id="25,9" /><path d="M 208.9 53.5 L 208.9 52.3 L 238.8 52.3" id="23,8" /><path d="M 208.9 53.5 L 208.9 54.6 L 216.0 54.6" id="23,7" /><path d="M 212.1 59.6 L 212.1 56.9 L 232.8 56.9" id="26,6" /><path d="M 221.2 62.3 L 221.2 59.3 L 246.1 59.3" id="24,5" /><path d="M 230.9 62.7 L 230.9 61.6 L 240.9 61.6" id="21,4" /><path d="M 230.9 62.7 L 230.9 63.9 L 240.2 63.9" id="21,3" /><path d="M 227.1 67.9 L 227.1 66.2 L 244.6 66.2" id="20,2" /><path d="M 234.4 69.7 L 234.4 68.5 L 237.1 68.5" id="19,1" /><path d="M 234.4 69.7 L 234.4 70.8 L 243.3 70.8" id="19,0" /></g><g class="toytree-Nodes" style="fill:rgb(100%,0%,0%);fill-opacity:1.0;stroke:None;stroke-width:1"><g id="node-0" transform="translate(243.255,70.833)"><circle r="2.5" /></g><g id="node-1" transform="translate(237.141,68.519)"><circle r="2.5" /></g><g id="node-2" transform="translate(244.583,66.204)"><circle r="2.5" /></g><g id="node-3" transform="translate(240.190,63.889)"><circle r="2.5" /></g><g id="node-4" transform="translate(240.852,61.574)"><circle r="2.5" /></g><g id="node-5" transform="translate(246.098,59.259)"><circle r="2.5" /></g><g id="node-6" transform="translate(232.777,56.944)"><circle r="2.5" /></g><g id="node-7" transform="translate(216.008,54.630)"><circle r="2.5" /></g><g id="node-8" transform="translate(238.785,52.315)"><circle r="2.5" /></g><g id="node-9" transform="translate(242.559,50.000)"><circle r="2.5" /></g><g id="node-10" transform="translate(217.749,47.685)"><circle r="2.5" /></g><g id="node-11" transform="translate(220.469,45.370)"><circle r="2.5" /></g><g id="node-12" transform="translate(241.183,43.056)"><circle r="2.5" /></g><g id="node-13" transform="translate(239.053,40.741)"><circle r="2.5" /></g><g id="node-14" transform="translate(236.564,38.426)"><circle r="2.5" /></g><g id="node-15" transform="translate(231.855,36.111)"><circle r="2.5" /></g><g id="node-16" transform="translate(250.263,33.796)"><circle r="2.5" /></g><g id="node-17" transform="translate(222.581,31.481)"><circle r="2.5" /></g><g id="node-18" transform="translate(234.157,29.167)"><circle r="2.5" /></g><g id="node-19" transform="translate(234.382,69.676)"><circle r="0.0" /></g><g id="node-20" transform="translate(227.095,67.940)"><circle r="0.0" /></g><g id="node-21" transform="translate(230.897,62.731)"><circle r="0.0" /></g><g id="node-22" transform="translate(225.151,65.336)"><circle r="0.0" /></g><g id="node-23" transform="translate(208.949,53.472)"><circle r="0.0" /></g><g id="node-24" transform="translate(221.233,62.297)"><circle r="0.0" /></g><g id="node-25" transform="translate(205.173,51.736)"><circle r="0.0" /></g><g id="node-26" transform="translate(212.064,59.621)"><circle r="0.0" /></g><g id="node-27" transform="translate(199.651,49.711)"><circle r="0.0" /></g><g id="node-28" transform="translate(199.018,54.666)"><circle r="0.0" /></g><g id="node-29" transform="translate(202.348,44.213)"><circle r="0.0" /></g><g id="node-30" transform="translate(187.779,49.439)"><circle r="0.0" /></g><g id="node-31" transform="translate(211.076,39.583)"><circle r="0.0" /></g><g id="node-32" transform="translate(169.558,44.511)"><circle r="0.0" /></g><g id="node-33" transform="translate(166.814,40.311)"><circle r="0.0" /></g><g id="node-34" transform="translate(174.634,32.639)"><circle r="0.0" /></g><g id="node-35" transform="translate(165.727,36.475)"><circle r="0.0" /></g><g id="node-36" transform="translate(165.000,32.821)"><circle r="0.0" /></g></g></g></g></g><g class="toyplot-coordinates-Cartesian" id="tb1cc7cf845124a5c8bbd69ff6065592c"><clipPath id="t130a7941ea70451c8181e68207b35ec8"><rect x="295.0" y="15.0" width="110.0" height="70.0" /></clipPath><g clip-path="url(#t130a7941ea70451c8181e68207b35ec8)"><g class="toytree-mark-Toytree" id="t7cbbcf64825f41c999c212c7e8300404"><g class="toytree-Edges" style="fill:none;stroke:rgb(14.9%,14.9%,14.9%);stroke-linecap:round;stroke-opacity:1;stroke-width:0.5"><path d="M 305.0 32.5 L 305.0 35.7 L 308.3 35.7" id="36,35" /><path d="M 308.3 35.7 L 308.3 40.0 L 313.7 40.0" id="35,34" /><path d="M 313.7 40.0 L 313.7 46.2 L 319.1 46.2" id="34,33" /><path d="M 319.1 46.2 L 319.1 38.3 L 321.5 38.3" id="33,32" /><path d="M 319.1 46.2 L 319.1 54.1 L 322.1 54.1" id="33,31" /><path d="M 321.5 38.3 L 321.5 40.5 L 322.4 40.5" id="32,30" /><path d="M 322.1 54.1 L 322.1 49.4 L 323.4 49.4" id="31,29" /><path d="M 322.1 54.1 L 322.1 58.8 L 323.8 58.8" id="31,28" /><path d="M 322.4 40.5 L 322.4 42.5 L 324.1 42.5" id="30,27" /><path d="M 323.4 49.4 L 323.4 51.2 L 336.7 51.2" id="29,26" /><path d="M 323.8 58.8 L 323.8 63.0 L 324.5 63.0" id="28,25" /><path d="M 324.1 42.5 L 324.1 44.2 L 326.7 44.2" id="27,24" /><path d="M 324.5 63.0 L 324.5 58.7 L 325.4 58.7" id="25,23" /><path d="M 324.5 63.0 L 324.5 67.4 L 325.4 67.4" id="25,22" /><path d="M 325.4 58.7 L 325.4 60.4 L 326.1 60.4" id="23,21" /><path d="M 325.4 67.4 L 325.4 65.0 L 326.9 65.0" id="22,20" /><path d="M 325.4 67.4 L 325.4 69.7 L 327.6 69.7" id="22,19" /><path d="M 305.0 32.5 L 305.0 29.2 L 332.4 29.2" id="36,18" /><path d="M 308.3 35.7 L 308.3 31.5 L 338.5 31.5" id="35,17" /><path d="M 313.7 40.0 L 313.7 33.8 L 324.5 33.8" id="34,16" /><path d="M 321.5 38.3 L 321.5 36.1 L 333.6 36.1" id="32,15" /><path d="M 322.4 40.5 L 322.4 38.4 L 334.4 38.4" id="30,14" /><path d="M 324.1 42.5 L 324.1 40.7 L 332.7 40.7" id="27,13" /><path d="M 326.7 44.2 L 326.7 43.1 L 333.7 43.1" id="24,12" /><path d="M 326.7 44.2 L 326.7 45.4 L 335.9 45.4" id="24,11" /><path d="M 323.4 49.4 L 323.4 47.7 L 331.7 47.7" id="29,10" /><path d="M 336.7 51.2 L 336.7 50.0 L 390.3 50.0" id="26,9" /><path d="M 336.7 51.2 L 336.7 52.3 L 341.9 52.3" id="26,8" /><path d="M 323.8 58.8 L 323.8 54.6 L 331.9 54.6" id="28,7" /><path d="M 325.4 58.7 L 325.4 56.9 L 327.8 56.9" id="23,6" /><path d="M 326.1 60.4 L 326.1 59.3 L 333.1 59.3" id="21,5" /><path d="M 326.1 60.4 L 326.1 61.6 L 332.8 61.6" id="21,4" /><path d="M 326.9 65.0 L 326.9 63.9 L 328.8 63.9" id="20,3" /><path d="M 326.9 65.0 L 326.9 66.2 L 329.3 66.2" id="20,2" /><path d="M 327.6 69.7 L 327.6 68.5 L 328.5 68.5" id="19,1" /><path d="M 327.6 69.7 L 327.6 70.8 L 328.6 70.8" id="19,0" /></g><g class="toytree-Nodes" style="fill:rgb(100%,0%,0%);fill-opacity:1.0;stroke:None;stroke-width:1"><g id="node-0" transform="translate(328.613,70.833)"><circle r="2.5" /></g><g id="node-1" transform="translate(328.497,68.519)"><circle r="2.5" /></g><g id="node-2" transform="translate(329.260,66.204)"><circle r="2.5" /></g><g id="node-3" transform="translate(328.792,63.889)"><circle r="2.5" /></g><g id="node-4" transform="translate(332.780,61.574)"><circle r="2.5" /></g><g id="node-5" transform="translate(333.132,59.259)"><circle r="2.5" /></g><g id="node-6" transform="translate(327.756,56.944)"><circle r="2.5" /></g><g id="node-7" transform="translate(331.914,54.630)"><circle r="2.5" /></g><g id="node-8" transform="translate(341.917,52.315)"><circle r="2.5" /></g><g id="node-9" transform="translate(390.263,50.000)"><circle r="2.5" /></g><g id="node-10" transform="translate(331.680,47.685)"><circle r="2.5" /></g><g id="node-11" transform="translate(335.860,45.370)"><circle r="2.5" /></g><g id="node-12" transform="translate(333.698,43.056)"><circle r="2.5" /></g><g id="node-13" transform="translate(332.674,40.741)"><circle r="2.5" /></g><g id="node-14" transform="translate(334.397,38.426)"><circle r="2.5" /></g><g id="node-15" transform="translate(333.577,36.111)"><circle r="2.5" /></g><g id="node-16" transform="translate(324.510,33.796)"><circle r="2.5" /></g><g id="node-17" transform="translate(338.514,31.481)"><circle r="2.5" /></g><g id="node-18" transform="translate(332.406,29.167)"><circle r="2.5" /></g><g id="node-19" transform="translate(327.608,69.676)"><circle r="0.0" /></g><g id="node-20" transform="translate(326.882,65.046)"><circle r="0.0" /></g><g id="node-21" transform="translate(326.117,60.417)"><circle r="0.0" /></g><g id="node-22" transform="translate(325.433,67.361)"><circle r="0.0" /></g><g id="node-23" transform="translate(325.417,58.681)"><circle r="0.0" /></g><g id="node-24" transform="translate(326.690,44.213)"><circle r="0.0" /></g><g id="node-25" transform="translate(324.478,63.021)"><circle r="0.0" /></g><g id="node-26" transform="translate(336.696,51.157)"><circle r="0.0" /></g><g id="node-27" transform="translate(324.073,42.477)"><circle r="0.0" /></g><g id="node-28" transform="translate(323.768,58.825)"><circle r="0.0" /></g><g id="node-29" transform="translate(323.397,49.421)"><circle r="0.0" /></g><g id="node-30" transform="translate(322.432,40.451)"><circle r="0.0" /></g><g id="node-31" transform="translate(322.135,54.123)"><circle r="0.0" /></g><g id="node-32" transform="translate(321.498,38.281)"><circle r="0.0" /></g><g id="node-33" transform="translate(319.123,46.202)"><circle r="0.0" /></g><g id="node-34" transform="translate(313.683,39.999)"><circle r="0.0" /></g><g id="node-35" transform="translate(308.333,35.740)"><circle r="0.0" /></g><g id="node-36" transform="translate(305.000,32.454)"><circle r="0.0" /></g></g></g></g></g><g class="toyplot-coordinates-Cartesian" id="tf28982c021254c8887af6ee21f3a0f0f"><clipPath id="t09f6841e14c04439805cb5cf7ef8f99d"><rect x="435.0" y="15.0" width="110.0" height="70.0" /></clipPath><g clip-path="url(#t09f6841e14c04439805cb5cf7ef8f99d)"><g class="toytree-mark-Toytree" id="t24ff0597d4cf46e7a2acabc6b3b38d4d"><g class="toytree-Edges" style="fill:none;stroke:rgb(14.9%,14.9%,14.9%);stroke-linecap:round;stroke-opacity:1;stroke-width:0.5"><path d="M 445.0 32.5 L 445.0 35.7 L 448.2 35.7" id="36,35" /><path d="M 448.2 35.7 L 448.2 40.0 L 453.9 40.0" id="35,34" /><path d="M 453.9 40.0 L 453.9 46.2 L 459.4 46.2" id="34,33" /><path d="M 459.4 46.2 L 459.4 38.3 L 462.2 38.3" id="33,32" /><path d="M 459.4 46.2 L 459.4 54.1 L 461.9 54.1" id="33,31" /><path d="M 462.2 38.3 L 462.2 40.5 L 463.2 40.5" id="32,30" /><path d="M 461.9 54.1 L 461.9 49.4 L 462.5 49.4" id="31,29" /><path d="M 461.9 54.1 L 461.9 58.8 L 464.7 58.8" id="31,28" /><path d="M 463.2 40.5 L 463.2 42.5 L 465.0 42.5" id="30,27" /><path d="M 462.5 49.4 L 462.5 51.2 L 475.6 51.2" id="29,26" /><path d="M 464.7 58.8 L 464.7 63.0 L 465.7 63.0" id="28,25" /><path d="M 465.0 42.5 L 465.0 44.2 L 467.9 44.2" id="27,24" /><path d="M 465.7 63.0 L 465.7 58.7 L 466.7 58.7" id="25,23" /><path d="M 465.7 63.0 L 465.7 67.4 L 466.8 67.4" id="25,22" /><path d="M 466.7 58.7 L 466.7 60.4 L 467.4 60.4" id="23,21" /><path d="M 466.8 67.4 L 466.8 65.0 L 468.5 65.0" id="22,20" /><path d="M 466.8 67.4 L 466.8 69.7 L 469.5 69.7" id="22,19" /><path d="M 445.0 32.5 L 445.0 29.2 L 474.7 29.2" id="36,18" /><path d="M 448.2 35.7 L 448.2 31.5 L 480.7 31.5" id="35,17" /><path d="M 453.9 40.0 L 453.9 33.8 L 466.8 33.8" id="34,16" /><path d="M 462.2 38.3 L 462.2 36.1 L 476.1 36.1" id="32,15" /><path d="M 463.2 40.5 L 463.2 38.4 L 477.0 38.4" id="30,14" /><path d="M 465.0 42.5 L 465.0 40.7 L 475.1 40.7" id="27,13" /><path d="M 467.9 44.2 L 467.9 43.1 L 476.2 43.1" id="24,12" /><path d="M 467.9 44.2 L 467.9 45.4 L 478.5 45.4" id="24,11" /><path d="M 462.5 49.4 L 462.5 47.7 L 472.5 47.7" id="29,10" /><path d="M 475.6 51.2 L 475.6 50.0 L 530.3 50.0" id="26,9" /><path d="M 475.6 51.2 L 475.6 52.3 L 484.2 52.3" id="26,8" /><path d="M 464.7 58.8 L 464.7 54.6 L 473.9 54.6" id="28,7" /><path d="M 466.7 58.7 L 466.7 56.9 L 469.7 56.9" id="23,6" /><path d="M 467.4 60.4 L 467.4 59.3 L 475.7 59.3" id="21,5" /><path d="M 467.4 60.4 L 467.4 61.6 L 475.2 61.6" id="21,4" /><path d="M 468.5 65.0 L 468.5 63.9 L 470.7 63.9" id="20,3" /><path d="M 468.5 65.0 L 468.5 66.2 L 471.3 66.2" id="20,2" /><path d="M 469.5 69.7 L 469.5 68.5 L 470.6 68.5" id="19,1" /><path d="M 469.5 69.7 L 469.5 70.8 L 470.6 70.8" id="19,0" /></g><g class="toytree-Nodes" style="fill:rgb(100%,0%,0%);fill-opacity:1.0;stroke:None;stroke-width:1"><g id="node-0" transform="translate(470.649,70.833)"><circle r="2.5" /></g><g id="node-1" transform="translate(470.560,68.519)"><circle r="2.5" /></g><g id="node-2" transform="translate(471.296,66.204)"><circle r="2.5" /></g><g id="node-3" transform="translate(470.734,63.889)"><circle r="2.5" /></g><g id="node-4" transform="translate(475.221,61.574)"><circle r="2.5" /></g><g id="node-5" transform="translate(475.657,59.259)"><circle r="2.5" /></g><g id="node-6" transform="translate(469.685,56.944)"><circle r="2.5" /></g><g id="node-7" transform="translate(473.891,54.630)"><circle r="2.5" /></g><g id="node-8" transform="translate(484.246,52.315)"><circle r="2.5" /></g><g id="node-9" transform="translate(530.263,50.000)"><circle r="2.5" /></g><g id="node-10" transform="translate(472.523,47.685)"><circle r="2.5" /></g><g id="node-11" transform="translate(478.523,45.370)"><circle r="2.5" /></g><g id="node-12" transform="translate(476.198,43.056)"><circle r="2.5" /></g><g id="node-13" transform="translate(475.063,40.741)"><circle r="2.5" /></g><g id="node-14" transform="translate(476.988,38.426)"><circle r="2.5" /></g><g id="node-15" transform="translate(476.078,36.111)"><circle r="2.5" /></g><g id="node-16" transform="translate(466.784,33.796)"><circle r="2.5" /></g><g id="node-17" transform="translate(480.657,31.481)"><circle r="2.5" /></g><g id="node-18" transform="translate(474.662,29.167)"><circle r="2.5" /></g><g id="node-19" transform="translate(469.483,69.676)"><circle r="0.0" /></g><g id="node-20" transform="translate(468.456,65.046)"><circle r="0.0" /></g><g id="node-21" transform="translate(467.429,60.417)"><circle r="0.0" /></g><g id="node-22" transform="translate(466.828,67.361)"><circle r="0.0" /></g><g id="node-23" transform="translate(466.740,58.681)"><circle r="0.0" /></g><g id="node-24" transform="translate(467.944,44.213)"><circle r="0.0" /></g><g id="node-25" transform="translate(465.706,63.021)"><circle r="0.0" /></g><g id="node-26" transform="translate(475.607,51.157)"><circle r="0.0" /></g><g id="node-27" transform="translate(465.033,42.477)"><circle r="0.0" /></g><g id="node-28" transform="translate(464.746,58.825)"><circle r="0.0" /></g><g id="node-29" transform="translate(462.451,49.421)"><circle r="0.0" /></g><g id="node-30" transform="translate(463.229,40.451)"><circle r="0.0" /></g><g id="node-31" transform="translate(461.917,54.123)"><circle r="0.0" /></g><g id="node-32" transform="translate(462.218,38.281)"><circle r="0.0" /></g><g id="node-33" transform="translate(459.380,46.202)"><circle r="0.0" /></g><g id="node-34" transform="translate(453.941,39.999)"><circle r="0.0" /></g><g id="node-35" transform="translate(448.234,35.740)"><circle r="0.0" /></g><g id="node-36" transform="translate(445.000,32.454)"><circle r="0.0" /></g></g></g></g></g></svg>