<svg class="toyplot-canvas-Canvas" xmlns:toyplot="http://www.sandia.gov/toyplot" xmlns:xlink="http://www.w3.org/1999/xlink" xmlns="http://www.w3.org/2000/svg" width="560.0px" height="100.0px" viewBox="0 0 560.0 100.0" preserveAspectRatio="xMidYMid meet" style="background-color:transparent;border-color:#292724;border-style:none;border-width:1.0;fill:rgb(16.1%,15.3%,14.1%);fill-opacity:1.0;font-family:Helvetica;font-size:12px;opacity:1.0;stroke:rgb(16.1%,15.3%,14.1%);stroke-opacity:1.0;stroke-width:1.0" id="tacd2288b93b04c70847980ec49364019"><g class="toyplot-coordinates-Cartesian" id="tf65c6103999c4bc5ae299736d604d9b0"><clipPath id="t510abd619f264ca1b07dd6043b8090da"><rect x="15.0" y="15.0" width="110.0" height="70.0" /></clipPath><g clip-path="url(#t510abd619f264ca1b07dd6043b8090da)"><g class="toytree-mark-Toytree" id="tae1814df7c2048a085e4f684bebc7f1f"><g class="toytree-Edges" style="fill:none;stroke:rgb(14.9%,14.9%,14.9%);stroke-linecap:round;stroke-opacity:1;stroke-width:0.5"><path d="M 25.0 35.7 L 25.0 42.2 L 42.2 42.2" id="32,31" /><path d="M 42.2 42.2 L 42.2 35.0 L 72.8 35.0" id="31,30" /><path d="M 42.2 42.2 L 42.2 49.4 L 58.1 49.4" id="31,29" /><path d="M 72.8 35.0 L 72.8 38.3 L 80.7 38.3" id="30,28" /><path d="M 58.1 49.4 L 58.1 46.1 L 78.2 46.1" id="29,27" /><path d="M 58.1 49.4 L 58.1 52.7 L 65.5 52.7" id="29,26" /><path d="M 80.7 38.3 L 80.7 35.7 L 85.4 35.7" id="28,25" /><path d="M 80.7 38.3 L 80.7 40.9 L 83.3 40.9" id="28,24" /><path d="M 65.5 52.7 L 65.5 55.4 L 73.3 55.4" id="26,23" /><path d="M 73.3 55.4 L 73.3 58.2 L 79.3 58.2" id="23,22" /><path d="M 79.3 58.2 L 79.3 61.2 L 86.7 61.2" id="22,21" /><path d="M 86.7 61.2 L 86.7 64.6 L 89.8 64.6" id="21,20" /><path d="M 89.8 64.6 L 89.8 61.7 L 90.8 61.7" id="20,19" /><path d="M 89.8 64.6 L 89.8 67.6 L 97.8 67.6" id="20,18" /><path d="M 97.8 67.6 L 97.8 69.5 L 97.9 69.5" id="18,17" /><path d="M 25.0 35.7 L 25.0 29.2 L 94.0 29.2" id="32,16" /><path d="M 72.8 35.0 L 72.8 31.8 L 87.2 31.8" id="30,15" /><path d="M 85.4 35.7 L 85.4 34.4 L 87.8 34.4" id="25,14" /><path d="M 85.4 35.7 L 85.4 37.0 L 89.2 37.0" id="25,13" /><path d="M 83.3 40.9 L 83.3 39.6 L 86.6 39.6" id="24,12" /><path d="M 83.3 40.9 L 83.3 42.2 L 88.2 42.2" id="24,11" /><path d="M 78.2 46.1 L 78.2 44.8 L 100.7 44.8" id="27,10" /><path d="M 78.2 46.1 L 78.2 47.4 L 110.3 47.4" id="27,9" /><path d="M 65.5 52.7 L 65.5 50.0 L 103.7 50.0" id="26,8" /><path d="M 73.3 55.4 L 73.3 52.6 L 97.4 52.6" id="23,7" /><path d="M 79.3 58.2 L 79.3 55.2 L 91.4 55.2" id="22,6" /><path d="M 86.7 61.2 L 86.7 57.8 L 97.5 57.8" id="21,5" /><path d="M 90.8 61.7 L 90.8 60.4 L 91.5 60.4" id="19,4" /><path d="M 90.8 61.7 L 90.8 63.0 L 91.8 63.0" id="19,3" /><path d="M 97.8 67.6 L 97.8 65.6 L 98.5 65.6" id="18,2" /><path d="M 97.9 69.5 L 97.9 68.2 L 97.9 68.2" id="17,1" /><path d="M 97.9 69.5 L 97.9 70.8 L 97.9 70.8" id="17,0" /></g><g class="toytree-Nodes" style="fill:rgb(100%,0%,0%);fill-opacity:1.0;stroke:None;stroke-width:1"><g id="node-0" transform="translate(97.928,70.833)"><circle r="2.5" /></g><g id="node-1" transform="translate(97.928,68.229)"><circle r="2.5" /></g><g id="node-2" transform="translate(98.520,65.625)"><circle r="2.5" /></g><g id="node-3" transform="translate(91.802,63.021)"><circle r="2.5" /></g><g id="node-4" transform="translate(91.526,60.417)"><circle r="2.5" /></g><g id="node-5" transform="translate(97.451,57.812)"><circle r="2.5" /></g><g id="node-6" transform="translate(91.354,55.208)"><circle r="2.5" /></g><g id="node-7" transform="translate(97.357,52.604)"><circle r="2.5" /></g><g id="node-8" transform="translate(103.735,50.000)"><circle r="2.5" /></g><g id="node-9" transform="translate(110.263,47.396)"><circle r="2.5" /></g><g id="node-10" transform="translate(100.688,44.792)"><circle r="2.5" /></g><g id="node-11" transform="translate(88.180,42.188)"><circle r="2.5" /></g><g id="node-12" transform="translate(86.622,39.583)"><circle r="2.5" /></g><g id="node-13" transform="translate(89.229,36.979)"><circle r="2.5" /></g><g id="node-14" transform="translate(87.794,34.375)"><circle r="2.5" /></g><g id="node-15" transform="translate(87.202,31.771)"><circle r="2.5" /></g><g id="node-16" transform="translate(94.029,29.167)"><circle r="2.5" /></g><g id="node-17" transform="translate(97.928,69.531)"><circle r="0.0" /></g><g id="node-18" transform="translate(97.785,67.578)"><circle r="0.0" /></g><g id="node-19" transform="translate(90.785,61.719)"><circle r="0.0" /></g><g id="node-20" transform="translate(89.768,64.648)"><circle r="0.0" /></g><g id="node-21" transform="translate(86.710,61.230)"><circle r="0.0" /></g><g id="node-22" transform="translate(79.323,58.219)"><circle r="0.0" /></g><g id="node-23" transform="translate(73.329,55.412)"><circle r="0.0" /></g><g id="node-24" transform="translate(83.299,40.885)"><circle r="0.0" /></g><g id="node-25" transform="translate(85.435,35.677)"><circle r="0.0" /></g><g id="node-26" transform="translate(65.503,52.706)"><circle r="0.0" /></g><g id="node-27" transform="translate(78.228,46.094)"><circle r="0.0" /></g><g id="node-28" transform="translate(80.668,38.281)"><circle r="0.0" /></g><g id="node-29" transform="translate(58.052,49.400)"><circle r="0.0" /></g><g id="node-30" transform="translate(72.819,35.026)"><circle r="0.0" /></g><g id="node-31" transform="translate(42.155,42.213)"><circle r="0.0" /></g><g id="node-32" transform="translate(25.000,35.690)"><circle r="0.0" /></g></g></g></g></g><g class="toyplot-coordinates-Cartesian" id="t742097e20eb0427c91f994646d2e179e"><clipPath id="t637e28dd14b745d0883107a37569b0b2"><rect x="155.0" y="15.0" width="110.0" height="70.0" /></clipPath><g clip-path="url(#t637e28dd14b745d0883107a37569b0b2)"><g class="toytree-mark-Toytree" id="t20a2f735a6064f01b81c7e5fa581ab3f"><g class="toytree-Edges" style="fill:none;stroke:rgb(14.9%,14.9%,14.9%);stroke-linecap:round;stroke-opacity:1;stroke-width:0.5"><path d="M 165.0 39.5 L 165.0 33.1 L 167.5 33.1" id="32,31" /><path d="M 165.0 39.5 L 165.0 46.0 L 169.8 46.0" id="32,30" /><path d="M 167.5 33.1 L 167.5 30.5 L 171.4 30.5" id="31,29" /><path d="M 167.5 33.1 L 167.5 35.7 L 177.8 35.7" id="31,28" /><path d="M 169.8 46.0 L 169.8 41.5 L 179.4 41.5" id="30,27" /><path d="M 169.8 46.0 L 169.8 50.4 L 175.5 50.4" id="30,26" /><path d="M 179.4 41.5 L 179.4 43.5 L 181.5 43.5" id="27,25" /><path d="M 175.5 50.4 L 175.5 53.5 L 181.8 53.5" id="26,24" /><path d="M 181.8 53.5 L 181.8 56.9 L 198.1 56.9" id="24,23" /><path d="M 198.1 56.9 L 198.1 61.2 L 202.4 61.2" id="23,22" /><path d="M 202.4 61.2 L 202.4 57.2 L 204.2 57.2" id="22,21" /><path d="M 202.4 61.2 L 202.4 65.3 L 203.9 65.3" id="22,20" /><path d="M 204.2 57.2 L 204.2 59.1 L 214.0 59.1" id="21,19" /><path d="M 203.9 65.3 L 203.9 67.6 L 209.7 67.6" id="20,18" /><path d="M 209.7 67.6 L 209.7 69.5 L 211.5 69.5" id="18,17" /><path d="M 171.4 30.5 L 171.4 29.2 L 216.9 29.2" id="29,16" /><path d="M 171.4 30.5 L 171.4 31.8 L 212.6 31.8" id="29,15" /><path d="M 177.8 35.7 L 177.8 34.4 L 219.3 34.4" id="28,14" /><path d="M 177.8 35.7 L 177.8 37.0 L 227.9 37.0" id="28,13" /><path d="M 179.4 41.5 L 179.4 39.6 L 204.1 39.6" id="27,12" /><path d="M 181.5 43.5 L 181.5 42.2 L 205.7 42.2" id="25,11" /><path d="M 181.5 43.5 L 181.5 44.8 L 228.6 44.8" id="25,10" /><path d="M 175.5 50.4 L 175.5 47.4 L 212.0 47.4" id="26,9" /><path d="M 181.8 53.5 L 181.8 50.0 L 243.6 50.0" id="24,8" /><path d="M 198.1 56.9 L 198.1 52.6 L 211.3 52.6" id="23,7" /><path d="M 204.2 57.2 L 204.2 55.2 L 219.3 55.2" id="21,6" /><path d="M 214.0 59.1 L 214.0 57.8 L 250.3 57.8" id="19,5" /><path d="M 214.0 59.1 L 214.0 60.4 L 221.3 60.4" id="19,4" /><path d="M 203.9 65.3 L 203.9 63.0 L 220.6 63.0" id="20,3" /><path d="M 209.7 67.6 L 209.7 65.6 L 217.4 65.6" id="18,2" /><path d="M 211.5 69.5 L 211.5 68.2 L 222.4 68.2" id="17,1" /><path d="M 211.5 69.5 L 211.5 70.8 L 220.0 70.8" id="17,0" /></g><g class="toytree-Nodes" style="fill:rgb(100%,0%,0%);fill-opacity:1.0;stroke:None;stroke-width:1"><g id="node-0" transform="translate(219.971,70.833)"><circle r="2.5" /></g><g id="node-1" transform="translate(222.380,68.229)"><circle r="2.5" /></g><g id="node-2" transform="translate(217.372,65.625)"><circle r="2.5" /></g><g id="node-3" transform="translate(220.601,63.021)"><circle r="2.5" /></g><g id="node-4" transform="translate(221.301,60.417)"><circle r="2.5" /></g><g id="node-5" transform="translate(250.263,57.812)"><circle r="2.5" /></g><g id="node-6" transform="translate(219.325,55.208)"><circle r="2.5" /></g><g id="node-7" transform="translate(211.301,52.604)"><circle r="2.5" /></g><g id="node-8" transform="translate(243.570,50.000)"><circle r="2.5" /></g><g id="node-9" transform="translate(211.955,47.396)"><circle r="2.5" /></g><g id="node-10" transform="translate(228.577,44.792)"><circle r="2.5" /></g><g id="node-11" transform="translate(205.694,42.188)"><circle r="2.5" /></g><g id="node-12" transform="translate(204.072,39.583)"><circle r="2.5" /></g><g id="node-13" transform="translate(227.861,36.979)"><circle r="2.5" /></g><g id="node-14" transform="translate(219.325,34.375)"><circle r="2.5" /></g><g id="node-15" transform="translate(212.600,31.771)"><circle r="2.5" /></g><g id="node-16" transform="translate(216.947,29.167)"><circle r="2.5" /></g><g id="node-17" transform="translate(211.529,69.531)"><circle r="0.0" /></g><g id="node-18" transform="translate(209.687,67.578)"><circle r="0.0" /></g><g id="node-19" transform="translate(214.010,59.115)"><circle r="0.0" /></g><g id="node-20" transform="translate(203.915,65.299)"><circle r="0.0" /></g><g id="node-21" transform="translate(204.167,57.161)"><circle r="0.0" /></g><g id="node-22" transform="translate(202.435,61.230)"><circle r="0.0" /></g><g id="node-23" transform="translate(198.072,56.917)"><circle r="0.0" /></g><g id="node-24" transform="translate(181.788,53.459)"><circle r="0.0" /></g><g id="node-25" transform="translate(181.544,43.490)"><circle r="0.0" /></g><g id="node-26" transform="translate(175.528,50.427)"><circle r="0.0" /></g><g id="node-27" transform="translate(179.442,41.536)"><circle r="0.0" /></g><g id="node-28" transform="translate(177.843,35.677)"><circle r="0.0" /></g><g id="node-29" transform="translate(171.425,30.469)"><circle r="0.0" /></g><g id="node-30" transform="translate(169.756,45.982)"><circle r="0.0" /></g><g id="node-31" transform="translate(167.496,33.073)"><circle r="0.0" /></g><g id="node-32" transform="translate(165.000,39.527)"><circle r="0.0" /></g></g></g></g></g><g class="toyplot-coordinates-Cartesian" id="tcd9e0df9b26e449ea68c8e571de7375f"><clipPath id="t081d3f7e37ef47ffb0e7e6a7c001d667"><rect x="295.0" y="15.0" width="110.0" height="70.0" /></clipPath><g clip-path="url(#t081d3f7e37ef47ffb0e7e6a7c001d667)"><g class="toytree-mark-Toytree" id="t55d431a1e7294cf3aee931c8fb7a8642"><g class="toytree-Edges" style="fill:none;stroke:rgb(14.9%,14.9%,14.9%);stroke-linecap:round;stroke-opacity:1;stroke-width:0.5"><path d="M 305.0 42.9 L 305.0 33.2 L 306.5 33.2" id="32,31" /><path d="M 305.0 42.9 L 305.0 52.7 L 308.8 52.7" id="32,30" /><path d="M 306.5 33.2 L 306.5 37.1 L 309.6 37.1" id="31,29" /><path d="M 308.8 52.7 L 308.8 55.4 L 316.3 55.4" id="30,28" /><path d="M 309.6 37.1 L 309.6 33.1 L 323.2 33.1" id="29,27" /><path d="M 309.6 37.1 L 309.6 41.2 L 314.5 41.2" id="29,26" /><path d="M 316.3 55.4 L 316.3 58.2 L 319.8 58.2" id="28,25" /><path d="M 314.5 41.2 L 314.5 38.3 L 320.4 38.3" id="26,24" /><path d="M 314.5 41.2 L 314.5 44.1 L 316.1 44.1" id="26,23" /><path d="M 319.8 58.2 L 319.8 61.2 L 325.6 61.2" id="25,22" /><path d="M 316.1 44.1 L 316.1 46.1 L 328.8 46.1" id="23,21" /><path d="M 325.6 61.2 L 325.6 64.6 L 327.3 64.6" id="22,20" /><path d="M 327.3 64.6 L 327.3 61.7 L 328.4 61.7" id="20,19" /><path d="M 327.3 64.6 L 327.3 67.6 L 331.5 67.6" id="20,18" /><path d="M 331.5 67.6 L 331.5 69.5 L 335.1 69.5" id="18,17" /><path d="M 306.5 33.2 L 306.5 29.2 L 331.9 29.2" id="31,16" /><path d="M 323.2 33.1 L 323.2 31.8 L 333.4 31.8" id="27,15" /><path d="M 323.2 33.1 L 323.2 34.4 L 332.6 34.4" id="27,14" /><path d="M 320.4 38.3 L 320.4 37.0 L 331.6 37.0" id="24,13" /><path d="M 320.4 38.3 L 320.4 39.6 L 331.8 39.6" id="24,12" /><path d="M 316.1 44.1 L 316.1 42.2 L 334.5 42.2" id="23,11" /><path d="M 328.8 46.1 L 328.8 44.8 L 344.2 44.8" id="21,10" /><path d="M 328.8 46.1 L 328.8 47.4 L 390.3 47.4" id="21,9" /><path d="M 308.8 52.7 L 308.8 50.0 L 331.7 50.0" id="30,8" /><path d="M 316.3 55.4 L 316.3 52.6 L 333.5 52.6" id="28,7" /><path d="M 319.8 58.2 L 319.8 55.2 L 348.4 55.2" id="25,6" /><path d="M 325.6 61.2 L 325.6 57.8 L 333.9 57.8" id="22,5" /><path d="M 328.4 61.7 L 328.4 60.4 L 332.4 60.4" id="19,4" /><path d="M 328.4 61.7 L 328.4 63.0 L 334.4 63.0" id="19,3" /><path d="M 331.5 67.6 L 331.5 65.6 L 336.7 65.6" id="18,2" /><path d="M 335.1 69.5 L 335.1 68.2 L 339.5 68.2" id="17,1" /><path d="M 335.1 69.5 L 335.1 70.8 L 338.2 70.8" id="17,0" /></g><g class="toytree-Nodes" style="fill:rgb(100%,0%,0%);fill-opacity:1.0;stroke:None;stroke-width:1"><g id="node-0" transform="translate(338.235,70.833)"><circle r="2.5" /></g><g id="node-1" transform="translate(339.545,68.229)"><circle r="2.5" /></g><g id="node-2" transform="translate(336.704,65.625)"><circle r="2.5" /></g><g id="node-3" transform="translate(334.364,63.021)"><circle r="2.5" /></g><g id="node-4" transform="translate(332.442,60.417)"><circle r="2.5" /></g><g id="node-5" transform="translate(333.878,57.812)"><circle r="2.5" /></g><g id="node-6" transform="translate(348.380,55.208)"><circle r="2.5" /></g><g id="node-7" transform="translate(333.514,52.604)"><circle r="2.5" /></g><g id="node-8" transform="translate(331.745,50.000)"><circle r="2.5" /></g><g id="node-9" transform="translate(390.263,47.396)"><circle r="2.5" /></g><g id="node-10" transform="translate(344.203,44.792)"><circle r="2.5" /></g><g id="node-11" transform="translate(334.529,42.188)"><circle r="2.5" /></g><g id="node-12" transform="translate(331.777,39.583)"><circle r="2.5" /></g><g id="node-13" transform="translate(331.619,36.979)"><circle r="2.5" /></g><g id="node-14" transform="translate(332.596,34.375)"><circle r="2.5" /></g><g id="node-15" transform="translate(333.409,31.771)"><circle r="2.5" /></g><g id="node-16" transform="translate(331.941,29.167)"><circle r="2.5" /></g><g id="node-17" transform="translate(335.140,69.531)"><circle r="0.0" /></g><g id="node-18" transform="translate(331.460,67.578)"><circle r="0.0" /></g><g id="node-19" transform="translate(328.439,61.719)"><circle r="0.0" /></g><g id="node-20" transform="translate(327.256,64.648)"><circle r="0.0" /></g><g id="node-21" transform="translate(328.788,46.094)"><circle r="0.0" /></g><g id="node-22" transform="translate(325.614,61.230)"><circle r="0.0" /></g><g id="node-23" transform="translate(316.093,44.141)"><circle r="0.0" /></g><g id="node-24" transform="translate(320.450,38.281)"><circle r="0.0" /></g><g id="node-25" transform="translate(319.815,58.219)"><circle r="0.0" /></g><g id="node-26" transform="translate(314.461,41.211)"><circle r="0.0" /></g><g id="node-27" transform="translate(323.180,33.073)"><circle r="0.0" /></g><g id="node-28" transform="translate(316.256,55.412)"><circle r="0.0" /></g><g id="node-29" transform="translate(309.560,37.142)"><circle r="0.0" /></g><g id="node-30" transform="translate(308.847,52.706)"><circle r="0.0" /></g><g id="node-31" transform="translate(306.466,33.154)"><circle r="0.0" /></g><g id="node-32" transform="translate(305.000,42.930)"><circle r="0.0" /></g></g></g></g></g><g class="toyplot-coordinates-Cartesian" id="tf47302890e584b0aa9c2b3e08b3f2dd0"><clipPath id="tde03715ba1194626b2b71deb9cd104ec"><rect x="435.0" y="15.0" width="110.0" height="70.0" /></clipPath><g clip-path="url(#tde03715ba1194626b2b71deb9cd104ec)"><g class="toytree-mark-Toytree" id="t19f82d51d49f45b69bd7516c311059b7"><g class="toytree-Edges" style="fill:none;stroke:rgb(14.9%,14.9%,14.9%);stroke-linecap:round;stroke-opacity:1;stroke-width:0.5"><path d="M 445.0 35.7 L 445.0 42.2 L 463.7 42.2" id="32,31" /><path d="M 463.7 42.2 L 463.7 35.0 L 491.4 35.0" id="31,30" /><path d="M 463.7 42.2 L 463.7 49.3 L 485.2 49.3" id="31,29" /><path d="M 491.4 35.0 L 491.4 38.3 L 496.7 38.3" id="30,28" /><path d="M 485.2 49.3 L 485.2 46.1 L 507.4 46.1" id="29,27" /><path d="M 485.2 49.3 L 485.2 52.6 L 494.3 52.6" id="29,26" /><path d="M 496.7 38.3 L 496.7 35.7 L 500.5 35.7" id="28,25" /><path d="M 496.7 38.3 L 496.7 40.9 L 497.3 40.9" id="28,24" /><path d="M 494.3 52.6 L 494.3 55.2 L 500.3 55.2" id="26,23" /><path d="M 500.3 55.2 L 500.3 57.8 L 504.5 57.8" id="23,22" /><path d="M 504.5 57.8 L 504.5 60.3 L 508.8 60.3" id="22,21" /><path d="M 508.8 60.3 L 508.8 62.9 L 510.8 62.9" id="21,20" /><path d="M 510.8 62.9 L 510.8 65.3 L 511.2 65.3" id="20,19" /><path d="M 511.2 65.3 L 511.2 67.6 L 515.7 67.6" id="19,18" /><path d="M 515.7 67.6 L 515.7 69.5 L 515.7 69.5" id="18,17" /><path d="M 445.0 35.7 L 445.0 29.2 L 509.5 29.2" id="32,16" /><path d="M 491.4 35.0 L 491.4 31.8 L 496.6 31.8" id="30,15" /><path d="M 500.5 35.7 L 500.5 34.4 L 501.9 34.4" id="25,14" /><path d="M 500.5 35.7 L 500.5 37.0 L 501.3 37.0" id="25,13" /><path d="M 497.3 40.9 L 497.3 39.6 L 498.8 39.6" id="24,12" /><path d="M 497.3 40.9 L 497.3 42.2 L 499.1 42.2" id="24,11" /><path d="M 507.4 46.1 L 507.4 44.8 L 530.3 44.8" id="27,10" /><path d="M 507.4 46.1 L 507.4 47.4 L 517.0 47.4" id="27,9" /><path d="M 494.3 52.6 L 494.3 50.0 L 520.7 50.0" id="26,8" /><path d="M 500.3 55.2 L 500.3 52.6 L 515.9 52.6" id="23,7" /><path d="M 504.5 57.8 L 504.5 55.2 L 510.8 55.2" id="22,6" /><path d="M 508.8 60.3 L 508.8 57.8 L 514.6 57.8" id="21,5" /><path d="M 510.8 62.9 L 510.8 60.4 L 510.8 60.4" id="20,4" /><path d="M 511.2 65.3 L 511.2 63.0 L 511.6 63.0" id="19,3" /><path d="M 515.7 67.6 L 515.7 65.6 L 516.1 65.6" id="18,2" /><path d="M 515.7 69.5 L 515.7 68.2 L 515.7 68.2" id="17,1" /><path d="M 515.7 69.5 L 515.7 70.8 L 515.7 70.8" id="17,0" /></g><g class="toytree-Nodes" style="fill:rgb(100%,0%,0%);fill-opacity:1.0;stroke:None;stroke-width:1"><g id="node-0" transform="translate(515.669,70.833)"><circle r="2.5" /></g><g id="node-1" transform="translate(515.669,68.229)"><circle r="2.5" /></g><g id="node-2" transform="translate(516.066,65.625)"><circle r="2.5" /></g><g id="node-3" transform="translate(511.600,63.021)"><circle r="2.5" /></g><g id="node-4" transform="translate(510.801,60.417)"><circle r="2.5" /></g><g id="node-5" transform="translate(514.620,57.812)"><circle r="2.5" /></g><g id="node-6" transform="translate(510.751,55.208)"><circle r="2.5" /></g><g id="node-7" transform="translate(515.898,52.604)"><circle r="2.5" /></g><g id="node-8" transform="translate(520.672,50.000)"><circle r="2.5" /></g><g id="node-9" transform="translate(516.997,47.396)"><circle r="2.5" /></g><g id="node-10" transform="translate(530.263,44.792)"><circle r="2.5" /></g><g id="node-11" transform="translate(499.072,42.188)"><circle r="2.5" /></g><g id="node-12" transform="translate(498.842,39.583)"><circle r="2.5" /></g><g id="node-13" transform="translate(501.328,36.979)"><circle r="2.5" /></g><g id="node-14" transform="translate(501.889,34.375)"><circle r="2.5" /></g><g id="node-15" transform="translate(496.598,31.771)"><circle r="2.5" /></g><g id="node-16" transform="translate(509.457,29.167)"><circle r="2.5" /></g><g id="node-17" transform="translate(515.669,69.531)"><circle r="0.0" /></g><g id="node-18" transform="translate(515.669,67.578)"><circle r="0.0" /></g><g id="node-19" transform="translate(511.197,65.299)"><circle r="0.0" /></g><g id="node-20" transform="translate(510.801,62.858)"><circle r="0.0" /></g><g id="node-21" transform="translate(508.812,60.335)"><circle r="0.0" /></g><g id="node-22" transform="translate(504.451,57.772)"><circle r="0.0" /></g><g id="node-23" transform="translate(500.324,55.188)"><circle r="0.0" /></g><g id="node-24" transform="translate(497.307,40.885)"><circle r="0.0" /></g><g id="node-25" transform="translate(500.495,35.677)"><circle r="0.0" /></g><g id="node-26" transform="translate(494.307,52.594)"><circle r="0.0" /></g><g id="node-27" transform="translate(507.448,46.094)"><circle r="0.0" /></g><g id="node-28" transform="translate(496.718,38.281)"><circle r="0.0" /></g><g id="node-29" transform="translate(485.231,49.344)"><circle r="0.0" /></g><g id="node-30" transform="translate(491.373,35.026)"><circle r="0.0" /></g><g id="node-31" transform="translate(463.695,42.185)"><circle r="0.0" /></g><g id="node-32" transform="translate(445.000,35.676)"><circle r="0.0" /></g></g></g></g></g></svg>