<svg class="toyplot-canvas-Canvas" xmlns:toyplot="http://www.sandia.gov/toyplot" xmlns:xlink="http://www.w3.org/1999/xlink" xmlns="http://www.w3.org/2000/svg" width="560.0px" height="100.0px" viewBox="0 0 560.0 100.0" preserveAspectRatio="xMidYMid meet" style="background-color:transparent;border-color:#292724;border-style:none;border-width:1.0;fill:rgb(16.1%,15.3%,14.1%);fill-opacity:1.0;font-family:Helvetica;font-size:12px;opacity:1.0;stroke:rgb(16.1%,15.3%,14.1%);stroke-opacity:1.0;stroke-width:1.0" id="tf776c04df5bf43b29d2ad13f935f3264"><g class="toyplot-coordinates-Cartesian" id="tee2fbce5f3904f0981a5a47892651451"><clipPath id="t42b2947f56774c119e4abf633ec5dcca"><rect x="15.0" y="15.0" width="110.0" height="70.0" /></clipPath><g clip-path="url(#t42b2947f56774c119e4abf633ec5dcca)"><g class="toytree-mark-Toytree" id="t65751c11cd8245c39d2ef7dc64875109"><g class="toytree-Edges" style="fill:none;stroke:rgb(14.9%,14.9%,14.9%);stroke-linecap:round;stroke-opacity:1;stroke-width:0.5"><path d="M 25.0 33.7 L 25.0 38.3 L 37.3 38.3" id="38,37" /><path d="M 37.3 38.3 L 37.3 33.0 L 45.8 33.0" id="37,36" /><path d="M 37.3 38.3 L 37.3 43.5 L 40.5 43.5" id="37,35" /><path d="M 45.8 33.0 L 45.8 34.6 L 51.1 34.6" id="36,34" /><path d="M 40.5 43.5 L 40.5 39.6 L 41.9 39.6" id="35,33" /><path d="M 40.5 43.5 L 40.5 47.5 L 42.7 47.5" id="35,32" /><path d="M 41.9 39.6 L 41.9 41.2 L 44.0 41.2" id="33,31" /><path d="M 42.7 47.5 L 42.7 50.5 L 47.3 50.5" id="32,30" /><path d="M 47.3 50.5 L 47.3 54.2 L 53.2 54.2" id="30,29" /><path d="M 53.2 54.2 L 53.2 50.0 L 57.1 50.0" id="29,28" /><path d="M 53.2 54.2 L 53.2 58.5 L 57.0 58.5" id="29,27" /><path d="M 57.0 58.5 L 57.0 54.9 L 60.9 54.9" id="27,26" /><path d="M 57.0 58.5 L 57.0 62.0 L 70.2 62.0" id="27,25" /><path d="M 60.9 54.9 L 60.9 56.6 L 61.8 56.6" id="26,24" /><path d="M 70.2 62.0 L 70.2 64.1 L 71.7 64.1" id="25,23" /><path d="M 71.7 64.1 L 71.7 66.2 L 75.0 66.2" id="23,22" /><path d="M 75.0 66.2 L 75.0 68.1 L 76.5 68.1" id="22,21" /><path d="M 76.5 68.1 L 76.5 69.7 L 87.6 69.7" id="21,20" /><path d="M 25.0 33.7 L 25.0 29.2 L 83.6 29.2" id="38,19" /><path d="M 45.8 33.0 L 45.8 31.4 L 88.4 31.4" id="36,18" /><path d="M 51.1 34.6 L 51.1 33.6 L 90.8 33.6" id="34,17" /><path d="M 51.1 34.6 L 51.1 35.7 L 94.5 35.7" id="34,16" /><path d="M 41.9 39.6 L 41.9 37.9 L 92.2 37.9" id="33,15" /><path d="M 44.0 41.2 L 44.0 40.1 L 110.3 40.1" id="31,14" /><path d="M 44.0 41.2 L 44.0 42.3 L 87.8 42.3" id="31,13" /><path d="M 42.7 47.5 L 42.7 44.5 L 82.9 44.5" id="32,12" /><path d="M 47.3 50.5 L 47.3 46.7 L 86.6 46.7" id="30,11" /><path d="M 57.1 50.0 L 57.1 48.9 L 57.1 48.9" id="28,10" /><path d="M 57.1 50.0 L 57.1 51.1 L 57.1 51.1" id="28,9" /><path d="M 60.9 54.9 L 60.9 53.3 L 79.8 53.3" id="26,8" /><path d="M 61.8 56.6 L 61.8 55.5 L 81.6 55.5" id="24,7" /><path d="M 61.8 56.6 L 61.8 57.7 L 79.9 57.7" id="24,6" /><path d="M 70.2 62.0 L 70.2 59.9 L 78.7 59.9" id="25,5" /><path d="M 71.7 64.1 L 71.7 62.1 L 75.6 62.1" id="23,4" /><path d="M 75.0 66.2 L 75.0 64.3 L 91.9 64.3" id="22,3" /><path d="M 76.5 68.1 L 76.5 66.4 L 92.3 66.4" id="21,2" /><path d="M 87.6 69.7 L 87.6 68.6 L 87.6 68.6" id="20,1" /><path d="M 87.6 69.7 L 87.6 70.8 L 87.6 70.8" id="20,0" /></g><g class="toytree-Nodes" style="fill:rgb(100%,0%,0%);fill-opacity:1.0;stroke:None;stroke-width:1"><g id="node-0" transform="translate(87.597,70.833)"><circle r="2.5" /></g><g id="node-1" transform="translate(87.597,68.640)"><circle r="2.5" /></g><g id="node-2" transform="translate(92.316,66.447)"><circle r="2.5" /></g><g id="node-3" transform="translate(91.909,64.254)"><circle r="2.5" /></g><g id="node-4" transform="translate(75.573,62.061)"><circle r="2.5" /></g><g id="node-5" transform="translate(78.687,59.868)"><circle r="2.5" /></g><g id="node-6" transform="translate(79.865,57.675)"><circle r="2.5" /></g><g id="node-7" transform="translate(81.603,55.482)"><circle r="2.5" /></g><g id="node-8" transform="translate(79.803,53.289)"><circle r="2.5" /></g><g id="node-9" transform="translate(57.107,51.096)"><circle r="2.5" /></g><g id="node-10" transform="translate(57.107,48.904)"><circle r="2.5" /></g><g id="node-11" transform="translate(86.618,46.711)"><circle r="2.5" /></g><g id="node-12" transform="translate(82.860,44.518)"><circle r="2.5" /></g><g id="node-13" transform="translate(87.807,42.325)"><circle r="2.5" /></g><g id="node-14" transform="translate(110.263,40.132)"><circle r="2.5" /></g><g id="node-15" transform="translate(92.204,37.939)"><circle r="2.5" /></g><g id="node-16" transform="translate(94.501,35.746)"><circle r="2.5" /></g><g id="node-17" transform="translate(90.796,33.553)"><circle r="2.5" /></g><g id="node-18" transform="translate(88.419,31.360)"><circle r="2.5" /></g><g id="node-19" transform="translate(83.646,29.167)"><circle r="2.5" /></g><g id="node-20" transform="translate(87.597,69.737)"><circle r="0.0" /></g><g id="node-21" transform="translate(76.495,68.092)"><circle r="0.0" /></g><g id="node-22" transform="translate(74.961,66.173)"><circle r="0.0" /></g><g id="node-23" transform="translate(71.673,64.117)"><circle r="0.0" /></g><g id="node-24" transform="translate(61.796,56.579)"><circle r="0.0" /></g><g id="node-25" transform="translate(70.231,61.993)"><circle r="0.0" /></g><g id="node-26" transform="translate(60.931,54.934)"><circle r="0.0" /></g><g id="node-27" transform="translate(57.007,58.464)"><circle r="0.0" /></g><g id="node-28" transform="translate(57.107,50.000)"><circle r="0.0" /></g><g id="node-29" transform="translate(53.210,54.232)"><circle r="0.0" /></g><g id="node-30" transform="translate(47.349,50.471)"><circle r="0.0" /></g><g id="node-31" transform="translate(44.047,41.228)"><circle r="0.0" /></g><g id="node-32" transform="translate(42.721,47.494)"><circle r="0.0" /></g><g id="node-33" transform="translate(41.943,39.583)"><circle r="0.0" /></g><g id="node-34" transform="translate(51.123,34.649)"><circle r="0.0" /></g><g id="node-35" transform="translate(40.456,43.539)"><circle r="0.0" /></g><g id="node-36" transform="translate(45.756,33.004)"><circle r="0.0" /></g><g id="node-37" transform="translate(37.273,38.272)"><circle r="0.0" /></g><g id="node-38" transform="translate(25.000,33.719)"><circle r="0.0" /></g></g></g></g></g><g class="toyplot-coordinates-Cartesian" id="t7569db9e5d3040028cc70e30fdd64bdd"><clipPath id="t740ff60edda443d7a0ea15f8fee3044d"><rect x="155.0" y="15.0" width="110.0" height="70.0" /></clipPath><g clip-path="url(#t740ff60edda443d7a0ea15f8fee3044d)"><g class="toytree-mark-Toytree" id="tdae93aa77b624792a5accae2710ef737"><g class="toytree-Edges" style="fill:none;stroke:rgb(14.9%,14.9%,14.9%);stroke-linecap:round;stroke-opacity:1;stroke-width:0.5"><path d="M 165.0 36.6 L 165.0 43.9 L 166.5 43.9" id="38,37" /><path d="M 166.5 43.9 L 166.5 33.5 L 176.0 33.5" id="37,36" /><path d="M 166.5 43.9 L 166.5 54.4 L 185.0 54.4" id="37,35" /><path d="M 176.0 33.5 L 176.0 35.6 L 178.0 35.6" id="36,34" /><path d="M 185.0 54.4 L 185.0 48.1 L 192.5 48.1" id="35,33" /><path d="M 185.0 54.4 L 185.0 60.7 L 190.9 60.7" id="35,32" /><path d="M 178.0 35.6 L 178.0 37.7 L 180.4 37.7" id="34,31" /><path d="M 192.5 48.1 L 192.5 45.6 L 210.4 45.6" id="33,30" /><path d="M 192.5 48.1 L 192.5 50.5 L 204.6 50.5" id="33,29" /><path d="M 190.9 60.7 L 190.9 56.6 L 203.7 56.6" id="32,28" /><path d="M 190.9 60.7 L 190.9 64.8 L 192.3 64.8" id="32,27" /><path d="M 180.4 37.7 L 180.4 39.6 L 185.5 39.6" id="31,26" /><path d="M 204.6 50.5 L 204.6 52.2 L 207.2 52.2" id="29,25" /><path d="M 192.3 64.8 L 192.3 61.5 L 196.1 61.5" id="27,24" /><path d="M 192.3 64.8 L 192.3 68.1 L 200.5 68.1" id="27,23" /><path d="M 185.5 39.6 L 185.5 41.2 L 185.5 41.2" id="26,22" /><path d="M 196.1 61.5 L 196.1 63.2 L 205.8 63.2" id="24,21" /><path d="M 200.5 68.1 L 200.5 69.7 L 207.7 69.7" id="23,20" /><path d="M 165.0 36.6 L 165.0 29.2 L 220.6 29.2" id="38,19" /><path d="M 176.0 33.5 L 176.0 31.4 L 250.3 31.4" id="36,18" /><path d="M 178.0 35.6 L 178.0 33.6 L 244.7 33.6" id="34,17" /><path d="M 180.4 37.7 L 180.4 35.7 L 242.2 35.7" id="31,16" /><path d="M 185.5 39.6 L 185.5 37.9 L 185.5 37.9" id="26,15" /><path d="M 185.5 41.2 L 185.5 40.1 L 240.8 40.1" id="22,14" /><path d="M 185.5 41.2 L 185.5 42.3 L 235.0 42.3" id="22,13" /><path d="M 210.4 45.6 L 210.4 44.5 L 242.0 44.5" id="30,12" /><path d="M 210.4 45.6 L 210.4 46.7 L 226.5 46.7" id="30,11" /><path d="M 204.6 50.5 L 204.6 48.9 L 218.7 48.9" id="29,10" /><path d="M 207.2 52.2 L 207.2 51.1 L 215.0 51.1" id="25,9" /><path d="M 207.2 52.2 L 207.2 53.3 L 210.6 53.3" id="25,8" /><path d="M 203.7 56.6 L 203.7 55.5 L 215.0 55.5" id="28,7" /><path d="M 203.7 56.6 L 203.7 57.7 L 214.1 57.7" id="28,6" /><path d="M 196.1 61.5 L 196.1 59.9 L 214.1 59.9" id="24,5" /><path d="M 205.8 63.2 L 205.8 62.1 L 224.2 62.1" id="21,4" /><path d="M 205.8 63.2 L 205.8 64.3 L 241.6 64.3" id="21,3" /><path d="M 200.5 68.1 L 200.5 66.4 L 224.1 66.4" id="23,2" /><path d="M 207.7 69.7 L 207.7 68.6 L 213.7 68.6" id="20,1" /><path d="M 207.7 69.7 L 207.7 70.8 L 228.1 70.8" id="20,0" /></g><g class="toytree-Nodes" style="fill:rgb(100%,0%,0%);fill-opacity:1.0;stroke:None;stroke-width:1"><g id="node-0" transform="translate(228.067,70.833)"><circle r="2.5" /></g><g id="node-1" transform="translate(213.686,68.640)"><circle r="2.5" /></g><g id="node-2" transform="translate(224.066,66.447)"><circle r="2.5" /></g><g id="node-3" transform="translate(241.557,64.254)"><circle r="2.5" /></g><g id="node-4" transform="translate(224.209,62.061)"><circle r="2.5" /></g><g id="node-5" transform="translate(214.110,59.868)"><circle r="2.5" /></g><g id="node-6" transform="translate(214.124,57.675)"><circle r="2.5" /></g><g id="node-7" transform="translate(214.966,55.482)"><circle r="2.5" /></g><g id="node-8" transform="translate(210.559,53.289)"><circle r="2.5" /></g><g id="node-9" transform="translate(215.015,51.096)"><circle r="2.5" /></g><g id="node-10" transform="translate(218.689,48.904)"><circle r="2.5" /></g><g id="node-11" transform="translate(226.455,46.711)"><circle r="2.5" /></g><g id="node-12" transform="translate(242.033,44.518)"><circle r="2.5" /></g><g id="node-13" transform="translate(235.047,42.325)"><circle r="2.5" /></g><g id="node-14" transform="translate(240.795,40.132)"><circle r="2.5" /></g><g id="node-15" transform="translate(185.541,37.939)"><circle r="2.5" /></g><g id="node-16" transform="translate(242.182,35.746)"><circle r="2.5" /></g><g id="node-17" transform="translate(244.697,33.553)"><circle r="2.5" /></g><g id="node-18" transform="translate(250.263,31.360)"><circle r="2.5" /></g><g id="node-19" transform="translate(220.616,29.167)"><circle r="2.5" /></g><g id="node-20" transform="translate(207.661,69.737)"><circle r="0.0" /></g><g id="node-21" transform="translate(205.751,63.158)"><circle r="0.0" /></g><g id="node-22" transform="translate(185.541,41.228)"><circle r="0.0" /></g><g id="node-23" transform="translate(200.494,68.092)"><circle r="0.0" /></g><g id="node-24" transform="translate(196.116,61.513)"><circle r="0.0" /></g><g id="node-25" transform="translate(207.179,52.193)"><circle r="0.0" /></g><g id="node-26" transform="translate(185.541,39.583)"><circle r="0.0" /></g><g id="node-27" transform="translate(192.285,64.803)"><circle r="0.0" /></g><g id="node-28" transform="translate(203.710,56.579)"><circle r="0.0" /></g><g id="node-29" transform="translate(204.560,50.548)"><circle r="0.0" /></g><g id="node-30" transform="translate(210.442,45.614)"><circle r="0.0" /></g><g id="node-31" transform="translate(180.378,37.664)"><circle r="0.0" /></g><g id="node-32" transform="translate(190.938,60.691)"><circle r="0.0" /></g><g id="node-33" transform="translate(192.518,48.081)"><circle r="0.0" /></g><g id="node-34" transform="translate(178.033,35.609)"><circle r="0.0" /></g><g id="node-35" transform="translate(185.001,54.386)"><circle r="0.0" /></g><g id="node-36" transform="translate(175.971,33.484)"><circle r="0.0" /></g><g id="node-37" transform="translate(166.456,43.935)"><circle r="0.0" /></g><g id="node-38" transform="translate(165.000,36.551)"><circle r="0.0" /></g></g></g></g></g><g class="toyplot-coordinates-Cartesian" id="t3108dc8f384447629b6be86f43218549"><clipPath id="t96e32f4430f6497fa8744bc1728b9d6c"><rect x="295.0" y="15.0" width="110.0" height="70.0" /></clipPath><g clip-path="url(#t96e32f4430f6497fa8744bc1728b9d6c)"><g class="toytree-mark-Toytree" id="tfcf6ce70831745c6994f79cce6263060"><g class="toytree-Edges" style="fill:none;stroke:rgb(14.9%,14.9%,14.9%);stroke-linecap:round;stroke-opacity:1;stroke-width:0.5"><path d="M 305.0 34.1 L 305.0 39.0 L 321.5 39.0" id="38,37" /><path d="M 321.5 39.0 L 321.5 33.4 L 325.1 33.4" id="37,36" /><path d="M 321.5 39.0 L 321.5 44.7 L 327.4 44.7" id="37,35" /><path d="M 325.1 33.4 L 325.1 35.5 L 342.7 35.5" id="36,34" /><path d="M 327.4 44.7 L 327.4 47.0 L 333.3 47.0" id="35,33" /><path d="M 342.7 35.5 L 342.7 37.4 L 342.7 37.4" id="34,32" /><path d="M 333.3 47.0 L 333.3 49.6 L 334.1 49.6" id="33,31" /><path d="M 342.7 37.4 L 342.7 39.0 L 352.7 39.0" id="32,30" /><path d="M 334.1 49.6 L 334.1 52.4 L 338.2 52.4" id="31,29" /><path d="M 338.2 52.4 L 338.2 55.9 L 340.1 55.9" id="29,28" /><path d="M 340.1 55.9 L 340.1 60.7 L 342.8 60.7" id="28,27" /><path d="M 342.8 60.7 L 342.8 56.6 L 344.2 56.6" id="27,26" /><path d="M 342.8 60.7 L 342.8 64.8 L 344.7 64.8" id="27,25" /><path d="M 344.2 56.6 L 344.2 54.4 L 345.9 54.4" id="26,24" /><path d="M 344.2 56.6 L 344.2 58.8 L 345.5 58.8" id="26,23" /><path d="M 344.7 64.8 L 344.7 67.5 L 354.4 67.5" id="25,22" /><path d="M 354.4 67.5 L 354.4 65.4 L 356.6 65.4" id="22,21" /><path d="M 354.4 67.5 L 354.4 69.7 L 368.3 69.7" id="22,20" /><path d="M 305.0 34.1 L 305.0 29.2 L 357.1 29.2" id="38,19" /><path d="M 325.1 33.4 L 325.1 31.4 L 378.4 31.4" id="36,18" /><path d="M 342.7 35.5 L 342.7 33.6 L 342.7 33.6" id="34,17" /><path d="M 342.7 37.4 L 342.7 35.7 L 373.9 35.7" id="32,16" /><path d="M 352.7 39.0 L 352.7 37.9 L 390.3 37.9" id="30,15" /><path d="M 352.7 39.0 L 352.7 40.1 L 364.8 40.1" id="30,14" /><path d="M 327.4 44.7 L 327.4 42.3 L 374.1 42.3" id="35,13" /><path d="M 333.3 47.0 L 333.3 44.5 L 348.4 44.5" id="33,12" /><path d="M 334.1 49.6 L 334.1 46.7 L 345.5 46.7" id="31,11" /><path d="M 338.2 52.4 L 338.2 48.9 L 349.2 48.9" id="29,10" /><path d="M 340.1 55.9 L 340.1 51.1 L 356.7 51.1" id="28,9" /><path d="M 345.9 54.4 L 345.9 53.3 L 350.7 53.3" id="24,8" /><path d="M 345.9 54.4 L 345.9 55.5 L 345.9 55.5" id="24,7" /><path d="M 345.5 58.8 L 345.5 57.7 L 346.1 57.7" id="23,6" /><path d="M 345.5 58.8 L 345.5 59.9 L 350.4 59.9" id="23,5" /><path d="M 344.7 64.8 L 344.7 62.1 L 347.4 62.1" id="25,4" /><path d="M 356.6 65.4 L 356.6 64.3 L 368.1 64.3" id="21,3" /><path d="M 356.6 65.4 L 356.6 66.4 L 381.7 66.4" id="21,2" /><path d="M 368.3 69.7 L 368.3 68.6 L 368.6 68.6" id="20,1" /><path d="M 368.3 69.7 L 368.3 70.8 L 368.3 70.8" id="20,0" /></g><g class="toytree-Nodes" style="fill:rgb(100%,0%,0%);fill-opacity:1.0;stroke:None;stroke-width:1"><g id="node-0" transform="translate(368.256,70.833)"><circle r="2.5" /></g><g id="node-1" transform="translate(368.551,68.640)"><circle r="2.5" /></g><g id="node-2" transform="translate(381.678,66.447)"><circle r="2.5" /></g><g id="node-3" transform="translate(368.102,64.254)"><circle r="2.5" /></g><g id="node-4" transform="translate(347.435,62.061)"><circle r="2.5" /></g><g id="node-5" transform="translate(350.387,59.868)"><circle r="2.5" /></g><g id="node-6" transform="translate(346.131,57.675)"><circle r="2.5" /></g><g id="node-7" transform="translate(345.881,55.482)"><circle r="2.5" /></g><g id="node-8" transform="translate(350.667,53.289)"><circle r="2.5" /></g><g id="node-9" transform="translate(356.682,51.096)"><circle r="2.5" /></g><g id="node-10" transform="translate(349.216,48.904)"><circle r="2.5" /></g><g id="node-11" transform="translate(345.528,46.711)"><circle r="2.5" /></g><g id="node-12" transform="translate(348.384,44.518)"><circle r="2.5" /></g><g id="node-13" transform="translate(374.087,42.325)"><circle r="2.5" /></g><g id="node-14" transform="translate(364.759,40.132)"><circle r="2.5" /></g><g id="node-15" transform="translate(390.263,37.939)"><circle r="2.5" /></g><g id="node-16" transform="translate(373.933,35.746)"><circle r="2.5" /></g><g id="node-17" transform="translate(342.664,33.553)"><circle r="2.5" /></g><g id="node-18" transform="translate(378.395,31.360)"><circle r="2.5" /></g><g id="node-19" transform="translate(357.117,29.167)"><circle r="2.5" /></g><g id="node-20" transform="translate(368.256,69.737)"><circle r="0.0" /></g><g id="node-21" transform="translate(356.594,65.351)"><circle r="0.0" /></g><g id="node-22" transform="translate(354.400,67.544)"><circle r="0.0" /></g><g id="node-23" transform="translate(345.498,58.772)"><circle r="0.0" /></g><g id="node-24" transform="translate(345.881,54.386)"><circle r="0.0" /></g><g id="node-25" transform="translate(344.703,64.803)"><circle r="0.0" /></g><g id="node-26" transform="translate(344.225,56.579)"><circle r="0.0" /></g><g id="node-27" transform="translate(342.789,60.691)"><circle r="0.0" /></g><g id="node-28" transform="translate(340.087,55.894)"><circle r="0.0" /></g><g id="node-29" transform="translate(338.217,52.399)"><circle r="0.0" /></g><g id="node-30" transform="translate(352.699,39.035)"><circle r="0.0" /></g><g id="node-31" transform="translate(334.108,49.555)"><circle r="0.0" /></g><g id="node-32" transform="translate(342.664,37.390)"><circle r="0.0" /></g><g id="node-33" transform="translate(333.313,47.036)"><circle r="0.0" /></g><g id="node-34" transform="translate(342.664,35.471)"><circle r="0.0" /></g><g id="node-35" transform="translate(327.438,44.680)"><circle r="0.0" /></g><g id="node-36" transform="translate(325.060,33.416)"><circle r="0.0" /></g><g id="node-37" transform="translate(321.496,39.048)"><circle r="0.0" /></g><g id="node-38" transform="translate(305.000,34.107)"><circle r="0.0" /></g></g></g></g></g><g class="toyplot-coordinates-Cartesian" id="t899d74435c144610b09d30cb1dfeac04"><clipPath id="t8e3ca3e36b0041cfb1e8d177af7bac56"><rect x="435.0" y="15.0" width="110.0" height="70.0" /></clipPath><g clip-path="url(#t8e3ca3e36b0041cfb1e8d177af7bac56)"><g class="toytree-mark-Toytree" id="t8719f30657934a159a802124a5fc6263"><g class="toytree-Edges" style="fill:none;stroke:rgb(14.9%,14.9%,14.9%);stroke-linecap:round;stroke-opacity:1;stroke-width:0.5"><path d="M 445.0 33.7 L 445.0 38.3 L 451.4 38.3" id="38,37" /><path d="M 451.4 38.3 L 451.4 33.0 L 467.9 33.0" id="37,36" /><path d="M 451.4 38.3 L 451.4 43.5 L 463.9 43.5" id="37,35" /><path d="M 467.9 33.0 L 467.9 34.6 L 474.2 34.6" id="36,34" /><path d="M 463.9 43.5 L 463.9 49.1 L 470.0 49.1" id="35,33" /><path d="M 470.0 49.1 L 470.0 43.4 L 475.4 43.4" id="33,32" /><path d="M 470.0 49.1 L 470.0 54.8 L 476.2 54.8" id="33,31" /><path d="M 475.4 43.4 L 475.4 41.2 L 483.8 41.2" id="32,30" /><path d="M 475.4 43.4 L 475.4 45.6 L 478.2 45.6" id="32,29" /><path d="M 476.2 54.8 L 476.2 50.5 L 482.7 50.5" id="31,28" /><path d="M 476.2 54.8 L 476.2 59.1 L 479.3 59.1" id="31,27" /><path d="M 482.7 50.5 L 482.7 52.2 L 486.8 52.2" id="28,26" /><path d="M 479.3 59.1 L 479.3 62.7 L 483.1 62.7" id="27,25" /><path d="M 483.1 62.7 L 483.1 59.3 L 483.3 59.3" id="25,24" /><path d="M 483.1 62.7 L 483.1 66.2 L 484.8 66.2" id="25,23" /><path d="M 483.3 59.3 L 483.3 61.0 L 483.3 61.0" id="24,22" /><path d="M 484.8 66.2 L 484.8 68.1 L 485.6 68.1" id="23,21" /><path d="M 485.6 68.1 L 485.6 69.7 L 488.1 69.7" id="21,20" /><path d="M 445.0 33.7 L 445.0 29.2 L 493.7 29.2" id="38,19" /><path d="M 467.9 33.0 L 467.9 31.4 L 490.0 31.4" id="36,18" /><path d="M 474.2 34.6 L 474.2 33.6 L 500.3 33.6" id="34,17" /><path d="M 474.2 34.6 L 474.2 35.7 L 497.6 35.7" id="34,16" /><path d="M 463.9 43.5 L 463.9 37.9 L 485.9 37.9" id="35,15" /><path d="M 483.8 41.2 L 483.8 40.1 L 505.1 40.1" id="30,14" /><path d="M 483.8 41.2 L 483.8 42.3 L 530.3 42.3" id="30,13" /><path d="M 478.2 45.6 L 478.2 44.5 L 503.0 44.5" id="29,12" /><path d="M 478.2 45.6 L 478.2 46.7 L 509.4 46.7" id="29,11" /><path d="M 482.7 50.5 L 482.7 48.9 L 489.2 48.9" id="28,10" /><path d="M 486.8 52.2 L 486.8 51.1 L 494.2 51.1" id="26,9" /><path d="M 486.8 52.2 L 486.8 53.3 L 496.2 53.3" id="26,8" /><path d="M 479.3 59.1 L 479.3 55.5 L 495.8 55.5" id="27,7" /><path d="M 483.3 59.3 L 483.3 57.7 L 483.3 57.7" id="24,6" /><path d="M 483.3 61.0 L 483.3 59.9 L 483.3 59.9" id="22,5" /><path d="M 483.3 61.0 L 483.3 62.1 L 487.8 62.1" id="22,4" /><path d="M 484.8 66.2 L 484.8 64.3 L 491.5 64.3" id="23,3" /><path d="M 485.6 68.1 L 485.6 66.4 L 490.7 66.4" id="21,2" /><path d="M 488.1 69.7 L 488.1 68.6 L 488.1 68.6" id="20,1" /><path d="M 488.1 69.7 L 488.1 70.8 L 488.1 70.8" id="20,0" /></g><g class="toytree-Nodes" style="fill:rgb(100%,0%,0%);fill-opacity:1.0;stroke:None;stroke-width:1"><g id="node-0" transform="translate(488.079,70.833)"><circle r="2.5" /></g><g id="node-1" transform="translate(488.079,68.640)"><circle r="2.5" /></g><g id="node-2" transform="translate(490.698,66.447)"><circle r="2.5" /></g><g id="node-3" transform="translate(491.454,64.254)"><circle r="2.5" /></g><g id="node-4" transform="translate(487.832,62.061)"><circle r="2.5" /></g><g id="node-5" transform="translate(483.329,59.868)"><circle r="2.5" /></g><g id="node-6" transform="translate(483.264,57.675)"><circle r="2.5" /></g><g id="node-7" transform="translate(495.829,55.482)"><circle r="2.5" /></g><g id="node-8" transform="translate(496.239,53.289)"><circle r="2.5" /></g><g id="node-9" transform="translate(494.239,51.096)"><circle r="2.5" /></g><g id="node-10" transform="translate(489.187,48.904)"><circle r="2.5" /></g><g id="node-11" transform="translate(509.363,46.711)"><circle r="2.5" /></g><g id="node-12" transform="translate(502.968,44.518)"><circle r="2.5" /></g><g id="node-13" transform="translate(530.263,42.325)"><circle r="2.5" /></g><g id="node-14" transform="translate(505.111,40.132)"><circle r="2.5" /></g><g id="node-15" transform="translate(485.885,37.939)"><circle r="2.5" /></g><g id="node-16" transform="translate(497.551,35.746)"><circle r="2.5" /></g><g id="node-17" transform="translate(500.345,33.553)"><circle r="2.5" /></g><g id="node-18" transform="translate(489.971,31.360)"><circle r="2.5" /></g><g id="node-19" transform="translate(493.663,29.167)"><circle r="2.5" /></g><g id="node-20" transform="translate(488.079,69.737)"><circle r="0.0" /></g><g id="node-21" transform="translate(485.609,68.092)"><circle r="0.0" /></g><g id="node-22" transform="translate(483.311,60.965)"><circle r="0.0" /></g><g id="node-23" transform="translate(484.803,66.173)"><circle r="0.0" /></g><g id="node-24" transform="translate(483.264,59.320)"><circle r="0.0" /></g><g id="node-25" transform="translate(483.095,62.747)"><circle r="0.0" /></g><g id="node-26" transform="translate(486.834,52.193)"><circle r="0.0" /></g><g id="node-27" transform="translate(479.345,59.115)"><circle r="0.0" /></g><g id="node-28" transform="translate(482.651,50.548)"><circle r="0.0" /></g><g id="node-29" transform="translate(478.223,45.614)"><circle r="0.0" /></g><g id="node-30" transform="translate(483.844,41.228)"><circle r="0.0" /></g><g id="node-31" transform="translate(476.174,54.831)"><circle r="0.0" /></g><g id="node-32" transform="translate(475.390,43.421)"><circle r="0.0" /></g><g id="node-33" transform="translate(470.025,49.126)"><circle r="0.0" /></g><g id="node-34" transform="translate(474.238,34.649)"><circle r="0.0" /></g><g id="node-35" transform="translate(463.866,43.532)"><circle r="0.0" /></g><g id="node-36" transform="translate(467.859,33.004)"><circle r="0.0" /></g><g id="node-37" transform="translate(451.407,38.268)"><circle r="0.0" /></g><g id="node-38" transform="translate(445.000,33.718)"><circle r="0.0" /></g></g></g></g></g></svg>