<svg class="toyplot-canvas-Canvas" xmlns:toyplot="http://www.sandia.gov/toyplot" xmlns:xlink="http://www.w3.org/1999/xlink" xmlns="http://www.w3.org/2000/svg" width="560.0px" height="100.0px" viewBox="0 0 560.0 100.0" preserveAspectRatio="xMidYMid meet" style="background-color:transparent;border-color:#292724;border-style:none;border-width:1.0;fill:rgb(16.1%,15.3%,14.1%);fill-opacity:1.0;font-family:Helvetica;font-size:12px;opacity:1.0;stroke:rgb(16.1%,15.3%,14.1%);stroke-opacity:1.0;stroke-width:1.0" id="tc82c4369a3f24e5f8cb847fd77a465b2"><g class="toyplot-coordinates-Cartesian" id="t4422f90c8772431692b1f7414eb2cf86"><clipPath id="tdf72ff9478814983ba1c7d62cd3a53b8"><rect x="15.0" y="15.0" width="110.0" height="70.0" /></clipPath><g clip-path="url(#tdf72ff9478814983ba1c7d62cd3a53b8)"><g class="toytree-mark-Toytree" id="t61caf099fb7d45909f7ce1a43ee4d145"><g class="toytree-Edges" style="fill:none;stroke:rgb(14.9%,14.9%,14.9%);stroke-linecap:round;stroke-opacity:1;stroke-width:0.5"><path d="M 25.0 37.7 L 25.0 31.5 L 36.6 31.5" id="18,17" /><path d="M 25.0 37.7 L 25.0 43.9 L 29.5 43.9" id="18,16" /><path d="M 29.5 43.9 L 29.5 49.3 L 41.7 49.3" id="16,15" /><path d="M 41.7 49.3 L 41.7 55.5 L 47.9 55.5" id="15,14" /><path d="M 47.9 55.5 L 47.9 50.0 L 94.3 50.0" id="14,13" /><path d="M 47.9 55.5 L 47.9 61.0 L 53.2 61.0" id="14,12" /><path d="M 53.2 61.0 L 53.2 65.0 L 85.2 65.0" id="12,11" /><path d="M 85.2 65.0 L 85.2 68.5 L 86.2 68.5" id="11,10" /><path d="M 36.6 31.5 L 36.6 29.2 L 94.1 29.2" id="17,9" /><path d="M 36.6 31.5 L 36.6 33.8 L 97.5 33.8" id="17,8" /><path d="M 29.5 43.9 L 29.5 38.4 L 91.3 38.4" id="16,7" /><path d="M 41.7 49.3 L 41.7 43.1 L 93.7 43.1" id="15,6" /><path d="M 94.3 50.0 L 94.3 47.7 L 110.1 47.7" id="13,5" /><path d="M 94.3 50.0 L 94.3 52.3 L 110.3 52.3" id="13,4" /><path d="M 53.2 61.0 L 53.2 56.9 L 104.0 56.9" id="12,3" /><path d="M 85.2 65.0 L 85.2 61.6 L 88.7 61.6" id="11,2" /><path d="M 86.2 68.5 L 86.2 66.2 L 88.1 66.2" id="10,1" /><path d="M 86.2 68.5 L 86.2 70.8 L 88.8 70.8" id="10,0" /></g><g class="toytree-Nodes" style="fill:rgb(100%,0%,0%);fill-opacity:1.0;stroke:None;stroke-width:1"><g id="node-0" transform="translate(88.758,70.833)"><circle r="2.5" /></g><g id="node-1" transform="translate(88.125,66.204)"><circle r="2.5" /></g><g id="node-2" transform="translate(88.742,61.574)"><circle r="2.5" /></g><g id="node-3" transform="translate(104.032,56.944)"><circle r="2.5" /></g><g id="node-4" transform="translate(110.263,52.315)"><circle r="2.5" /></g><g id="node-5" transform="translate(110.072,47.685)"><circle r="2.5" /></g><g id="node-6" transform="translate(93.726,43.056)"><circle r="2.5" /></g><g id="node-7" transform="translate(91.260,38.426)"><circle r="2.5" /></g><g id="node-8" transform="translate(97.517,33.796)"><circle r="2.5" /></g><g id="node-9" transform="translate(94.129,29.167)"><circle r="2.5" /></g><g id="node-10" transform="translate(86.208,68.519)"><circle r="0.0" /></g><g id="node-11" transform="translate(85.190,65.046)"><circle r="0.0" /></g><g id="node-12" transform="translate(53.220,60.995)"><circle r="0.0" /></g><g id="node-13" transform="translate(94.327,50.000)"><circle r="0.0" /></g><g id="node-14" transform="translate(47.889,55.498)"><circle r="0.0" /></g><g id="node-15" transform="translate(41.683,49.277)"><circle r="0.0" /></g><g id="node-16" transform="translate(29.526,43.851)"><circle r="0.0" /></g><g id="node-17" transform="translate(36.572,31.481)"><circle r="0.0" /></g><g id="node-18" transform="translate(25.000,37.666)"><circle r="0.0" /></g></g></g></g></g><g class="toyplot-coordinates-Cartesian" id="t5cb904a777884e07b778316f1f1b3e09"><clipPath id="tf2378b331eda48bba25e8eb3a2c39848"><rect x="155.0" y="15.0" width="110.0" height="70.0" /></clipPath><g clip-path="url(#tf2378b331eda48bba25e8eb3a2c39848)"><g class="toytree-mark-Toytree" id="t9147227a6c2f4400b80f0220558842ad"><g class="toytree-Edges" style="fill:none;stroke:rgb(14.9%,14.9%,14.9%);stroke-linecap:round;stroke-opacity:1;stroke-width:0.5"><path d="M 165.0 37.1 L 165.0 44.9 L 167.6 44.9" id="18,17" /><path d="M 167.6 44.9 L 167.6 36.1 L 175.2 36.1" id="17,16" /><path d="M 167.6 44.9 L 167.6 53.8 L 169.7 53.8" id="17,15" /><path d="M 169.7 53.8 L 169.7 46.5 L 174.6 46.5" id="15,14" /><path d="M 169.7 53.8 L 169.7 61.0 L 182.6 61.0" id="15,13" /><path d="M 174.6 46.5 L 174.6 50.0 L 204.2 50.0" id="14,12" /><path d="M 182.6 61.0 L 182.6 65.0 L 183.9 65.0" id="13,11" /><path d="M 183.9 65.0 L 183.9 68.5 L 190.9 68.5" id="11,10" /><path d="M 165.0 37.1 L 165.0 29.2 L 243.2 29.2" id="18,9" /><path d="M 175.2 36.1 L 175.2 33.8 L 236.3 33.8" id="16,8" /><path d="M 175.2 36.1 L 175.2 38.4 L 245.9 38.4" id="16,7" /><path d="M 174.6 46.5 L 174.6 43.1 L 247.0 43.1" id="14,6" /><path d="M 204.2 50.0 L 204.2 47.7 L 245.3 47.7" id="12,5" /><path d="M 204.2 50.0 L 204.2 52.3 L 250.3 52.3" id="12,4" /><path d="M 182.6 61.0 L 182.6 56.9 L 245.7 56.9" id="13,3" /><path d="M 183.9 65.0 L 183.9 61.6 L 243.0 61.6" id="11,2" /><path d="M 190.9 68.5 L 190.9 66.2 L 240.3 66.2" id="10,1" /><path d="M 190.9 68.5 L 190.9 70.8 L 237.4 70.8" id="10,0" /></g><g class="toytree-Nodes" style="fill:rgb(100%,0%,0%);fill-opacity:1.0;stroke:None;stroke-width:1"><g id="node-0" transform="translate(237.388,70.833)"><circle r="2.5" /></g><g id="node-1" transform="translate(240.259,66.204)"><circle r="2.5" /></g><g id="node-2" transform="translate(243.038,61.574)"><circle r="2.5" /></g><g id="node-3" transform="translate(245.682,56.944)"><circle r="2.5" /></g><g id="node-4" transform="translate(250.263,52.315)"><circle r="2.5" /></g><g id="node-5" transform="translate(245.314,47.685)"><circle r="2.5" /></g><g id="node-6" transform="translate(247.021,43.056)"><circle r="2.5" /></g><g id="node-7" transform="translate(245.913,38.426)"><circle r="2.5" /></g><g id="node-8" transform="translate(236.335,33.796)"><circle r="2.5" /></g><g id="node-9" transform="translate(243.221,29.167)"><circle r="2.5" /></g><g id="node-10" transform="translate(190.851,68.519)"><circle r="0.0" /></g><g id="node-11" transform="translate(183.875,65.046)"><circle r="0.0" /></g><g id="node-12" transform="translate(204.188,50.000)"><circle r="0.0" /></g><g id="node-13" transform="translate(182.616,60.995)"><circle r="0.0" /></g><g id="node-14" transform="translate(174.622,46.528)"><circle r="0.0" /></g><g id="node-15" transform="translate(169.711,53.762)"><circle r="0.0" /></g><g id="node-16" transform="translate(175.203,36.111)"><circle r="0.0" /></g><g id="node-17" transform="translate(167.619,44.936)"><circle r="0.0" /></g><g id="node-18" transform="translate(165.000,37.052)"><circle r="0.0" /></g></g></g></g></g><g class="toyplot-coordinates-Cartesian" id="t8e98d3dd3f1a4328b6ff01988a3bea50"><clipPath id="t4914ed89f8e64a42af7ccb68e4d67785"><rect x="295.0" y="15.0" width="110.0" height="70.0" /></clipPath><g clip-path="url(#t4914ed89f8e64a42af7ccb68e4d67785)"><g class="toytree-mark-Toytree" id="t11b1fe77ea6f4c43a543db13f47d3785"><g class="toytree-Edges" style="fill:none;stroke:rgb(14.9%,14.9%,14.9%);stroke-linecap:round;stroke-opacity:1;stroke-width:0.5"><path d="M 305.0 48.3 L 305.0 36.7 L 309.3 36.7" id="18,17" /><path d="M 305.0 48.3 L 305.0 59.8 L 310.0 59.8" id="18,16" /><path d="M 309.3 36.7 L 309.3 31.5 L 345.5 31.5" id="17,15" /><path d="M 309.3 36.7 L 309.3 41.9 L 321.8 41.9" id="17,14" /><path d="M 310.0 59.8 L 310.0 54.6 L 311.9 54.6" id="16,13" /><path d="M 310.0 59.8 L 310.0 65.0 L 321.2 65.0" id="16,12" /><path d="M 321.8 41.9 L 321.8 45.4 L 337.8 45.4" id="14,11" /><path d="M 321.2 65.0 L 321.2 68.5 L 335.2 68.5" id="12,10" /><path d="M 345.5 31.5 L 345.5 29.2 L 373.8 29.2" id="15,9" /><path d="M 345.5 31.5 L 345.5 33.8 L 382.2 33.8" id="15,8" /><path d="M 321.8 41.9 L 321.8 38.4 L 353.8 38.4" id="14,7" /><path d="M 337.8 45.4 L 337.8 43.1 L 362.6 43.1" id="11,6" /><path d="M 337.8 45.4 L 337.8 47.7 L 367.7 47.7" id="11,5" /><path d="M 311.9 54.6 L 311.9 52.3 L 360.0 52.3" id="13,4" /><path d="M 311.9 54.6 L 311.9 56.9 L 350.8 56.9" id="13,3" /><path d="M 321.2 65.0 L 321.2 61.6 L 361.4 61.6" id="12,2" /><path d="M 335.2 68.5 L 335.2 66.2 L 390.2 66.2" id="10,1" /><path d="M 335.2 68.5 L 335.2 70.8 L 390.3 70.8" id="10,0" /></g><g class="toytree-Nodes" style="fill:rgb(100%,0%,0%);fill-opacity:1.0;stroke:None;stroke-width:1"><g id="node-0" transform="translate(390.263,70.833)"><circle r="2.5" /></g><g id="node-1" transform="translate(390.200,66.204)"><circle r="2.5" /></g><g id="node-2" transform="translate(361.394,61.574)"><circle r="2.5" /></g><g id="node-3" transform="translate(350.844,56.944)"><circle r="2.5" /></g><g id="node-4" transform="translate(360.028,52.315)"><circle r="2.5" /></g><g id="node-5" transform="translate(367.657,47.685)"><circle r="2.5" /></g><g id="node-6" transform="translate(362.573,43.056)"><circle r="2.5" /></g><g id="node-7" transform="translate(353.810,38.426)"><circle r="2.5" /></g><g id="node-8" transform="translate(382.242,33.796)"><circle r="2.5" /></g><g id="node-9" transform="translate(373.790,29.167)"><circle r="2.5" /></g><g id="node-10" transform="translate(335.178,68.519)"><circle r="0.0" /></g><g id="node-11" transform="translate(337.787,45.370)"><circle r="0.0" /></g><g id="node-12" transform="translate(321.197,65.046)"><circle r="0.0" /></g><g id="node-13" transform="translate(311.862,54.630)"><circle r="0.0" /></g><g id="node-14" transform="translate(321.787,41.898)"><circle r="0.0" /></g><g id="node-15" transform="translate(345.485,31.481)"><circle r="0.0" /></g><g id="node-16" transform="translate(309.956,59.838)"><circle r="0.0" /></g><g id="node-17" transform="translate(309.267,36.690)"><circle r="0.0" /></g><g id="node-18" transform="translate(305.000,48.264)"><circle r="0.0" /></g></g></g></g></g><g class="toyplot-coordinates-Cartesian" id="taa42b1d947394572a43778e1937c79bd"><clipPath id="t8559a008b543473691f1b6dd6b1fdcbf"><rect x="435.0" y="15.0" width="110.0" height="70.0" /></clipPath><g clip-path="url(#t8559a008b543473691f1b6dd6b1fdcbf)"><g class="toytree-mark-Toytree" id="tdc7a35a4e6a64983bc5944d7cd0369ed"><g class="toytree-Edges" style="fill:none;stroke:rgb(14.9%,14.9%,14.9%);stroke-linecap:round;stroke-opacity:1;stroke-width:0.5"><path d="M 445.0 48.3 L 445.0 36.7 L 449.7 36.7" id="18,17" /><path d="M 445.0 48.3 L 445.0 59.8 L 449.0 59.8" id="18,16" /><path d="M 449.7 36.7 L 449.7 31.5 L 451.8 31.5" id="17,15" /><path d="M 449.7 36.7 L 449.7 41.9 L 460.2 41.9" id="17,14" /><path d="M 449.0 59.8 L 449.0 54.6 L 484.3 54.6" id="16,13" /><path d="M 449.0 59.8 L 449.0 65.0 L 461.6 65.0" id="16,12" /><path d="M 460.2 41.9 L 460.2 45.4 L 473.4 45.4" id="14,11" /><path d="M 461.6 65.0 L 461.6 68.5 L 477.5 68.5" id="12,10" /><path d="M 451.8 31.5 L 451.8 29.2 L 493.0 29.2" id="15,9" /><path d="M 451.8 31.5 L 451.8 33.8 L 501.9 33.8" id="15,8" /><path d="M 460.2 41.9 L 460.2 38.4 L 502.9 38.4" id="14,7" /><path d="M 473.4 45.4 L 473.4 43.1 L 530.3 43.1" id="11,6" /><path d="M 473.4 45.4 L 473.4 47.7 L 530.2 47.7" id="11,5" /><path d="M 484.3 54.6 L 484.3 52.3 L 514.9 52.3" id="13,4" /><path d="M 484.3 54.6 L 484.3 56.9 L 522.9 56.9" id="13,3" /><path d="M 461.6 65.0 L 461.6 61.6 L 496.0 61.6" id="12,2" /><path d="M 477.5 68.5 L 477.5 66.2 L 504.2 66.2" id="10,1" /><path d="M 477.5 68.5 L 477.5 70.8 L 509.1 70.8" id="10,0" /></g><g class="toytree-Nodes" style="fill:rgb(100%,0%,0%);fill-opacity:1.0;stroke:None;stroke-width:1"><g id="node-0" transform="translate(509.129,70.833)"><circle r="2.5" /></g><g id="node-1" transform="translate(504.244,66.204)"><circle r="2.5" /></g><g id="node-2" transform="translate(495.960,61.574)"><circle r="2.5" /></g><g id="node-3" transform="translate(522.878,56.944)"><circle r="2.5" /></g><g id="node-4" transform="translate(514.866,52.315)"><circle r="2.5" /></g><g id="node-5" transform="translate(530.228,47.685)"><circle r="2.5" /></g><g id="node-6" transform="translate(530.263,43.056)"><circle r="2.5" /></g><g id="node-7" transform="translate(502.889,38.426)"><circle r="2.5" /></g><g id="node-8" transform="translate(501.852,33.796)"><circle r="2.5" /></g><g id="node-9" transform="translate(492.996,29.167)"><circle r="2.5" /></g><g id="node-10" transform="translate(477.476,68.519)"><circle r="0.0" /></g><g id="node-11" transform="translate(473.362,45.370)"><circle r="0.0" /></g><g id="node-12" transform="translate(461.566,65.046)"><circle r="0.0" /></g><g id="node-13" transform="translate(484.346,54.630)"><circle r="0.0" /></g><g id="node-14" transform="translate(460.166,41.898)"><circle r="0.0" /></g><g id="node-15" transform="translate(451.829,31.481)"><circle r="0.0" /></g><g id="node-16" transform="translate(449.021,59.838)"><circle r="0.0" /></g><g id="node-17" transform="translate(449.659,36.690)"><circle r="0.0" /></g><g id="node-18" transform="translate(445.000,48.264)"><circle r="0.0" /></g></g></g></g></g></svg>