<svg class="toyplot-canvas-Canvas" xmlns:toyplot="http://www.sandia.gov/toyplot" xmlns:xlink="http://www.w3.org/1999/xlink" xmlns="http://www.w3.org/2000/svg" width="560.0px" height="100.0px" viewBox="0 0 560.0 100.0" preserveAspectRatio="xMidYMid meet" style="background-color:transparent;border-color:#292724;border-style:none;border-width:1.0;fill:rgb(16.1%,15.3%,14.1%);fill-opacity:1.0;font-family:Helvetica;font-size:12px;opacity:1.0;stroke:rgb(16.1%,15.3%,14.1%);stroke-opacity:1.0;stroke-width:1.0" id="td1fbb04d37c54826bcbee8de8509046e"><g class="toyplot-coordinates-Cartesian" id="t03f23bd810f04099a3666b925bff4b6c"><clipPath id="t3ee0c0412f9b459b8a5e7e21fab08dc4"><rect x="15.0" y="15.0" width="110.0" height="70.0" /></clipPath><g clip-path="url(#t3ee0c0412f9b459b8a5e7e21fab08dc4)"><g class="toytree-mark-Toytree" id="t4d06f1261a5840118fb2bee1ab2a8a16"><g class="toytree-Edges" style="fill:none;stroke:rgb(14.9%,14.9%,14.9%);stroke-linecap:round;stroke-opacity:1;stroke-width:0.5"><path d="M 25.0 41.3 L 25.0 53.5 L 36.3 53.5" id="6,5" /><path d="M 36.3 53.5 L 36.3 63.9 L 54.4 63.9" id="5,4" /><path d="M 25.0 41.3 L 25.0 29.2 L 106.1 29.2" id="6,3" /><path d="M 36.3 53.5 L 36.3 43.1 L 101.4 43.1" id="5,2" /><path d="M 54.4 63.9 L 54.4 56.9 L 107.3 56.9" id="4,1" /><path d="M 54.4 63.9 L 54.4 70.8 L 110.3 70.8" id="4,0" /></g><g class="toytree-Nodes" style="fill:rgb(100%,0%,0%);fill-opacity:1.0;stroke:None;stroke-width:1"><g id="node-0" transform="translate(110.263,70.833)"><circle r="2.5" /></g><g id="node-1" transform="translate(107.315,56.944)"><circle r="2.5" /></g><g id="node-2" transform="translate(101.356,43.056)"><circle r="2.5" /></g><g id="node-3" transform="translate(106.139,29.167)"><circle r="2.5" /></g><g id="node-4" transform="translate(54.365,63.889)"><circle r="0.0" /></g><g id="node-5" transform="translate(36.306,53.472)"><circle r="0.0" /></g><g id="node-6" transform="translate(25.000,41.319)"><circle r="0.0" /></g></g></g></g></g><g class="toyplot-coordinates-Cartesian" id="tef011cecd16140d8b617fbddce664afc"><clipPath id="t5521f320b117464a9907006d9b4f8ba9"><rect x="155.0" y="15.0" width="110.0" height="70.0" /></clipPath><g clip-path="url(#t5521f320b117464a9907006d9b4f8ba9)"><g class="toytree-mark-Toytree" id="t93005685cde64490a91830fb51b786d5"><g class="toytree-Edges" style="fill:none;stroke:rgb(14.9%,14.9%,14.9%);stroke-linecap:round;stroke-opacity:1;stroke-width:0.5"><path d="M 165.0 41.3 L 165.0 53.5 L 190.0 53.5" id="6,5" /><path d="M 190.0 53.5 L 190.0 63.9 L 198.2 63.9" id="5,4" /><path d="M 165.0 41.3 L 165.0 29.2 L 246.3 29.2" id="6,3" /><path d="M 190.0 53.5 L 190.0 43.1 L 250.3 43.1" id="5,2" /><path d="M 198.2 63.9 L 198.2 56.9 L 243.4 56.9" id="4,1" /><path d="M 198.2 63.9 L 198.2 70.8 L 245.6 70.8" id="4,0" /></g><g class="toytree-Nodes" style="fill:rgb(100%,0%,0%);fill-opacity:1.0;stroke:None;stroke-width:1"><g id="node-0" transform="translate(245.599,70.833)"><circle r="2.5" /></g><g id="node-1" transform="translate(243.364,56.944)"><circle r="2.5" /></g><g id="node-2" transform="translate(250.263,43.056)"><circle r="2.5" /></g><g id="node-3" transform="translate(246.307,29.167)"><circle r="2.5" /></g><g id="node-4" transform="translate(198.226,63.889)"><circle r="0.0" /></g><g id="node-5" transform="translate(189.986,53.472)"><circle r="0.0" /></g><g id="node-6" transform="translate(165.000,41.319)"><circle r="0.0" /></g></g></g></g></g><g class="toyplot-coordinates-Cartesian" id="t47781a388a6c465f8f335882d77d0a2c"><clipPath id="t0ce0f648d1744220b4d7efa55af50059"><rect x="295.0" y="15.0" width="110.0" height="70.0" /></clipPath><g clip-path="url(#t0ce0f648d1744220b4d7efa55af50059)"><g class="toytree-mark-Toytree" id="t1963d99675714d588d4891ea78c6335e"><g class="toytree-Edges" style="fill:none;stroke:rgb(14.9%,14.9%,14.9%);stroke-linecap:round;stroke-opacity:1;stroke-width:0.5"><path d="M 305.0 41.3 L 305.0 53.5 L 318.1 53.5" id="6,5" /><path d="M 318.1 53.5 L 318.1 63.9 L 346.3 63.9" id="5,4" /><path d="M 305.0 41.3 L 305.0 29.2 L 378.2 29.2" id="6,3" /><path d="M 318.1 53.5 L 318.1 43.1 L 362.4 43.1" id="5,2" /><path d="M 346.3 63.9 L 346.3 56.9 L 390.3 56.9" id="4,1" /><path d="M 346.3 63.9 L 346.3 70.8 L 389.1 70.8" id="4,0" /></g><g class="toytree-Nodes" style="fill:rgb(100%,0%,0%);fill-opacity:1.0;stroke:None;stroke-width:1"><g id="node-0" transform="translate(389.103,70.833)"><circle r="2.5" /></g><g id="node-1" transform="translate(390.263,56.944)"><circle r="2.5" /></g><g id="node-2" transform="translate(362.442,43.056)"><circle r="2.5" /></g><g id="node-3" transform="translate(378.181,29.167)"><circle r="2.5" /></g><g id="node-4" transform="translate(346.318,63.889)"><circle r="0.0" /></g><g id="node-5" transform="translate(318.061,53.472)"><circle r="0.0" /></g><g id="node-6" transform="translate(305.000,41.319)"><circle r="0.0" /></g></g></g></g></g><g class="toyplot-coordinates-Cartesian" id="t79900f1d635446579e82451e3b345495"><clipPath id="t97e1da8dd9e440fb84b518423371e09b"><rect x="435.0" y="15.0" width="110.0" height="70.0" /></clipPath><g clip-path="url(#t97e1da8dd9e440fb84b518423371e09b)"><g class="toytree-mark-Toytree" id="tf1c7b852494d40f892dd42599ed4c8ca"><g class="toytree-Edges" style="fill:none;stroke:rgb(14.9%,14.9%,14.9%);stroke-linecap:round;stroke-opacity:1;stroke-width:0.5"><path d="M 445.0 41.3 L 445.0 53.5 L 466.2 53.5" id="6,5" /><path d="M 466.2 53.5 L 466.2 63.9 L 495.7 63.9" id="5,4" /><path d="M 445.0 41.3 L 445.0 29.2 L 518.0 29.2" id="6,3" /><path d="M 466.2 53.5 L 466.2 43.1 L 505.4 43.1" id="5,2" /><path d="M 495.7 63.9 L 495.7 56.9 L 530.3 56.9" id="4,1" /><path d="M 495.7 63.9 L 495.7 70.8 L 523.1 70.8" id="4,0" /></g><g class="toytree-Nodes" style="fill:rgb(100%,0%,0%);fill-opacity:1.0;stroke:None;stroke-width:1"><g id="node-0" transform="translate(523.104,70.833)"><circle r="2.5" /></g><g id="node-1" transform="translate(530.263,56.944)"><circle r="2.5" /></g><g id="node-2" transform="translate(505.374,43.056)"><circle r="2.5" /></g><g id="node-3" transform="translate(518.024,29.167)"><circle r="2.5" /></g><g id="node-4" transform="translate(495.675,63.889)"><circle r="0.0" /></g><g id="node-5" transform="translate(466.247,53.472)"><circle r="0.0" /></g><g id="node-6" transform="translate(445.000,41.319)"><circle r="0.0" /></g></g></g></g></g></svg>