<svg class="toyplot-canvas-Canvas" xmlns:toyplot="http://www.sandia.gov/toyplot" xmlns:xlink="http://www.w3.org/1999/xlink" xmlns="http://www.w3.org/2000/svg" width="560.0px" height="100.0px" viewBox="0 0 560.0 100.0" preserveAspectRatio="xMidYMid meet" style="background-color:transparent;border-color:#292724;border-style:none;border-width:1.0;fill:rgb(16.1%,15.3%,14.1%);fill-opacity:1.0;font-family:Helvetica;font-size:12px;opacity:1.0;stroke:rgb(16.1%,15.3%,14.1%);stroke-opacity:1.0;stroke-width:1.0" id="t2de472b7dd964846b0c3073b9a72a7f0"><g class="toyplot-coordinates-Cartesian" id="t63ed096a528045baadba2738d09b675e"><clipPath id="ta9901f17d4e94ee59d7f5b84eaab94aa"><rect x="15.0" y="15.0" width="110.0" height="70.0" /></clipPath><g clip-path="url(#ta9901f17d4e94ee59d7f5b84eaab94aa)"><g class="toytree-mark-Toytree" id="t64e3fc3f1c4c4695850f1b0db80cff26"><g class="toytree-Edges" style="fill:none;stroke:rgb(14.9%,14.9%,14.9%);stroke-linecap:round;stroke-opacity:1;stroke-width:0.5"><path d="M 25.0 40.6 L 25.0 32.7 L 30.1 32.7" id="76,75" /><path d="M 25.0 40.6 L 25.0 48.4 L 46.5 48.4" id="76,74" /><path d="M 30.1 32.7 L 30.1 36.3 L 40.4 36.3" id="75,73" /><path d="M 46.5 48.4 L 46.5 50.1 L 51.6 50.1" id="74,72" /><path d="M 40.4 36.3 L 40.4 32.1 L 50.5 32.1" id="73,71" /><path d="M 40.4 36.3 L 40.4 40.5 L 44.1 40.5" id="73,70" /><path d="M 51.6 50.1 L 51.6 48.4 L 56.0 48.4" id="72,69" /><path d="M 51.6 50.1 L 51.6 51.8 L 57.2 51.8" id="72,68" /><path d="M 50.5 32.1 L 50.5 30.8 L 77.7 30.8" id="71,67" /><path d="M 50.5 32.1 L 50.5 33.5 L 72.2 33.5" id="71,66" /><path d="M 44.1 40.5 L 44.1 38.8 L 87.0 38.8" id="70,65" /><path d="M 44.1 40.5 L 44.1 42.3 L 51.5 42.3" id="70,64" /><path d="M 57.2 51.8 L 57.2 53.6 L 58.8 53.6" id="68,63" /><path d="M 72.2 33.5 L 72.2 34.5 L 75.8 34.5" id="66,62" /><path d="M 87.0 38.8 L 87.0 39.6 L 89.5 39.6" id="65,61" /><path d="M 51.5 42.3 L 51.5 43.3 L 65.2 43.3" id="64,60" /><path d="M 58.8 53.6 L 58.8 56.2 L 61.8 56.2" id="63,59" /><path d="M 75.8 34.5 L 75.8 35.5 L 84.6 35.5" id="62,58" /><path d="M 65.2 43.3 L 65.2 44.2 L 88.2 44.2" id="60,57" /><path d="M 61.8 56.2 L 61.8 53.2 L 74.7 53.2" id="59,56" /><path d="M 61.8 56.2 L 61.8 59.2 L 79.0 59.2" id="59,55" /><path d="M 84.6 35.5 L 84.6 36.3 L 86.9 36.3" id="58,54" /><path d="M 88.2 44.2 L 88.2 45.1 L 92.8 45.1" id="57,53" /><path d="M 74.7 53.2 L 74.7 54.1 L 77.7 54.1" id="56,52" /><path d="M 79.0 59.2 L 79.0 57.4 L 83.2 57.4" id="55,51" /><path d="M 79.0 59.2 L 79.0 61.0 L 79.9 61.0" id="55,50" /><path d="M 77.7 54.1 L 77.7 54.9 L 82.9 54.9" id="52,49" /><path d="M 83.2 57.4 L 83.2 58.2 L 91.6 58.2" id="51,48" /><path d="M 79.9 61.0 L 79.9 62.1 L 86.3 62.1" id="50,47" /><path d="M 86.3 62.1 L 86.3 63.2 L 90.1 63.2" id="47,46" /><path d="M 90.1 63.2 L 90.1 64.2 L 92.3 64.2" id="46,45" /><path d="M 92.3 64.2 L 92.3 65.3 L 93.6 65.3" id="45,44" /><path d="M 93.6 65.3 L 93.6 66.4 L 94.3 66.4" id="44,43" /><path d="M 94.3 66.4 L 94.3 67.5 L 94.3 67.5" id="43,42" /><path d="M 94.3 67.5 L 94.3 68.5 L 94.3 68.5" id="42,41" /><path d="M 94.3 68.5 L 94.3 69.5 L 94.3 69.5" id="41,40" /><path d="M 94.3 69.5 L 94.3 70.3 L 94.3 70.3" id="40,39" /><path d="M 30.1 32.7 L 30.1 29.2 L 106.3 29.2" id="75,38" /><path d="M 77.7 30.8 L 77.7 30.3 L 89.7 30.3" id="67,37" /><path d="M 77.7 30.8 L 77.7 31.4 L 94.3 31.4" id="67,36" /><path d="M 72.2 33.5 L 72.2 32.5 L 94.6 32.5" id="66,35" /><path d="M 75.8 34.5 L 75.8 33.6 L 91.0 33.6" id="62,34" /><path d="M 84.6 35.5 L 84.6 34.6 L 96.8 34.6" id="58,33" /><path d="M 86.9 36.3 L 86.9 35.7 L 89.1 35.7" id="54,32" /><path d="M 86.9 36.3 L 86.9 36.8 L 90.5 36.8" id="54,31" /><path d="M 87.0 38.8 L 87.0 37.9 L 98.1 37.9" id="65,30" /><path d="M 89.5 39.6 L 89.5 39.0 L 99.0 39.0" id="61,29" /><path d="M 89.5 39.6 L 89.5 40.1 L 98.9 40.1" id="61,28" /><path d="M 51.5 42.3 L 51.5 41.2 L 98.6 41.2" id="64,27" /><path d="M 65.2 43.3 L 65.2 42.3 L 106.2 42.3" id="60,26" /><path d="M 88.2 44.2 L 88.2 43.4 L 100.4 43.4" id="57,25" /><path d="M 92.8 45.1 L 92.8 44.5 L 100.4 44.5" id="53,24" /><path d="M 92.8 45.1 L 92.8 45.6 L 100.4 45.6" id="53,23" /><path d="M 46.5 48.4 L 46.5 46.7 L 96.4 46.7" id="74,22" /><path d="M 56.0 48.4 L 56.0 47.8 L 98.2 47.8" id="69,21" /><path d="M 56.0 48.4 L 56.0 48.9 L 98.1 48.9" id="69,20" /><path d="M 57.2 51.8 L 57.2 50.0 L 95.0 50.0" id="68,19" /><path d="M 58.8 53.6 L 58.8 51.1 L 93.9 51.1" id="63,18" /><path d="M 74.7 53.2 L 74.7 52.2 L 92.4 52.2" id="56,17" /><path d="M 77.7 54.1 L 77.7 53.3 L 110.3 53.3" id="52,16" /><path d="M 82.9 54.9 L 82.9 54.4 L 107.0 54.4" id="49,15" /><path d="M 82.9 54.9 L 82.9 55.5 L 103.3 55.5" id="49,14" /><path d="M 83.2 57.4 L 83.2 56.6 L 85.7 56.6" id="51,13" /><path d="M 91.6 58.2 L 91.6 57.7 L 106.4 57.7" id="48,12" /><path d="M 91.6 58.2 L 91.6 58.8 L 96.3 58.8" id="48,11" /><path d="M 79.9 61.0 L 79.9 59.9 L 92.9 59.9" id="50,10" /><path d="M 86.3 62.1 L 86.3 61.0 L 92.9 61.0" id="47,9" /><path d="M 90.1 63.2 L 90.1 62.1 L 95.0 62.1" id="46,8" /><path d="M 92.3 64.2 L 92.3 63.2 L 92.8 63.2" id="45,7" /><path d="M 93.6 65.3 L 93.6 64.3 L 97.5 64.3" id="44,6" /><path d="M 94.3 66.4 L 94.3 65.4 L 96.5 65.4" id="43,5" /><path d="M 94.3 67.5 L 94.3 66.4 L 94.3 66.4" id="42,4" /><path d="M 94.3 68.5 L 94.3 67.5 L 94.3 67.5" id="41,3" /><path d="M 94.3 69.5 L 94.3 68.6 L 94.3 68.6" id="40,2" /><path d="M 94.3 70.3 L 94.3 69.7 L 99.2 69.7" id="39,1" /><path d="M 94.3 70.3 L 94.3 70.8 L 94.3 70.8" id="39,0" /></g><g class="toytree-Nodes" style="fill:rgb(100%,0%,0%);fill-opacity:1.0;stroke:None;stroke-width:1"><g id="node-0" transform="translate(94.329,70.833)"><circle r="2.5" /></g><g id="node-1" transform="translate(99.246,69.737)"><circle r="2.5" /></g><g id="node-2" transform="translate(94.329,68.640)"><circle r="2.5" /></g><g id="node-3" transform="translate(94.329,67.544)"><circle r="2.5" /></g><g id="node-4" transform="translate(94.329,66.447)"><circle r="2.5" /></g><g id="node-5" transform="translate(96.486,65.351)"><circle r="2.5" /></g><g id="node-6" transform="translate(97.528,64.254)"><circle r="2.5" /></g><g id="node-7" transform="translate(92.810,63.158)"><circle r="2.5" /></g><g id="node-8" transform="translate(95.048,62.061)"><circle r="2.5" /></g><g id="node-9" transform="translate(92.871,60.965)"><circle r="2.5" /></g><g id="node-10" transform="translate(92.913,59.868)"><circle r="2.5" /></g><g id="node-11" transform="translate(96.263,58.772)"><circle r="2.5" /></g><g id="node-12" transform="translate(106.365,57.675)"><circle r="2.5" /></g><g id="node-13" transform="translate(85.715,56.579)"><circle r="2.5" /></g><g id="node-14" transform="translate(103.295,55.482)"><circle r="2.5" /></g><g id="node-15" transform="translate(107.041,54.386)"><circle r="2.5" /></g><g id="node-16" transform="translate(110.263,53.289)"><circle r="2.5" /></g><g id="node-17" transform="translate(92.365,52.193)"><circle r="2.5" /></g><g id="node-18" transform="translate(93.859,51.096)"><circle r="2.5" /></g><g id="node-19" transform="translate(95.027,50.000)"><circle r="2.5" /></g><g id="node-20" transform="translate(98.099,48.904)"><circle r="2.5" /></g><g id="node-21" transform="translate(98.174,47.807)"><circle r="2.5" /></g><g id="node-22" transform="translate(96.406,46.711)"><circle r="2.5" /></g><g id="node-23" transform="translate(100.384,45.614)"><circle r="2.5" /></g><g id="node-24" transform="translate(100.449,44.518)"><circle r="2.5" /></g><g id="node-25" transform="translate(100.423,43.421)"><circle r="2.5" /></g><g id="node-26" transform="translate(106.179,42.325)"><circle r="2.5" /></g><g id="node-27" transform="translate(98.569,41.228)"><circle r="2.5" /></g><g id="node-28" transform="translate(98.932,40.132)"><circle r="2.5" /></g><g id="node-29" transform="translate(98.955,39.035)"><circle r="2.5" /></g><g id="node-30" transform="translate(98.091,37.939)"><circle r="2.5" /></g><g id="node-31" transform="translate(90.477,36.842)"><circle r="2.5" /></g><g id="node-32" transform="translate(89.119,35.746)"><circle r="2.5" /></g><g id="node-33" transform="translate(96.771,34.649)"><circle r="2.5" /></g><g id="node-34" transform="translate(91.006,33.553)"><circle r="2.5" /></g><g id="node-35" transform="translate(94.638,32.456)"><circle r="2.5" /></g><g id="node-36" transform="translate(94.319,31.360)"><circle r="2.5" /></g><g id="node-37" transform="translate(89.716,30.263)"><circle r="2.5" /></g><g id="node-38" transform="translate(106.261,29.167)"><circle r="2.5" /></g><g id="node-39" transform="translate(94.329,70.285)"><circle r="0.0" /></g><g id="node-40" transform="translate(94.329,69.463)"><circle r="0.0" /></g><g id="node-41" transform="translate(94.329,68.503)"><circle r="0.0" /></g><g id="node-42" transform="translate(94.329,67.475)"><circle r="0.0" /></g><g id="node-43" transform="translate(94.292,66.413)"><circle r="0.0" /></g><g id="node-44" transform="translate(93.578,65.334)"><circle r="0.0" /></g><g id="node-45" transform="translate(92.269,64.246)"><circle r="0.0" /></g><g id="node-46" transform="translate(90.140,63.154)"><circle r="0.0" /></g><g id="node-47" transform="translate(86.312,62.059)"><circle r="0.0" /></g><g id="node-48" transform="translate(91.597,58.224)"><circle r="0.0" /></g><g id="node-49" transform="translate(82.924,54.934)"><circle r="0.0" /></g><g id="node-50" transform="translate(79.918,60.964)"><circle r="0.0" /></g><g id="node-51" transform="translate(83.153,57.401)"><circle r="0.0" /></g><g id="node-52" transform="translate(77.686,54.112)"><circle r="0.0" /></g><g id="node-53" transform="translate(92.806,45.066)"><circle r="0.0" /></g><g id="node-54" transform="translate(86.871,36.294)"><circle r="0.0" /></g><g id="node-55" transform="translate(78.958,59.183)"><circle r="0.0" /></g><g id="node-56" transform="translate(74.694,53.152)"><circle r="0.0" /></g><g id="node-57" transform="translate(88.215,44.243)"><circle r="0.0" /></g><g id="node-58" transform="translate(84.562,35.471)"><circle r="0.0" /></g><g id="node-59" transform="translate(61.809,56.167)"><circle r="0.0" /></g><g id="node-60" transform="translate(65.221,43.284)"><circle r="0.0" /></g><g id="node-61" transform="translate(89.461,39.583)"><circle r="0.0" /></g><g id="node-62" transform="translate(75.828,34.512)"><circle r="0.0" /></g><g id="node-63" transform="translate(58.790,53.632)"><circle r="0.0" /></g><g id="node-64" transform="translate(51.514,42.256)"><circle r="0.0" /></g><g id="node-65" transform="translate(87.044,38.761)"><circle r="0.0" /></g><g id="node-66" transform="translate(72.246,33.484)"><circle r="0.0" /></g><g id="node-67" transform="translate(77.734,30.811)"><circle r="0.0" /></g><g id="node-68" transform="translate(57.168,51.816)"><circle r="0.0" /></g><g id="node-69" transform="translate(56.049,48.355)"><circle r="0.0" /></g><g id="node-70" transform="translate(44.122,40.508)"><circle r="0.0" /></g><g id="node-71" transform="translate(50.461,32.148)"><circle r="0.0" /></g><g id="node-72" transform="translate(51.616,50.086)"><circle r="0.0" /></g><g id="node-73" transform="translate(40.385,36.328)"><circle r="0.0" /></g><g id="node-74" transform="translate(46.509,48.398)"><circle r="0.0" /></g><g id="node-75" transform="translate(30.146,32.747)"><circle r="0.0" /></g><g id="node-76" transform="translate(25.000,40.573)"><circle r="0.0" /></g></g></g></g></g><g class="toyplot-coordinates-Cartesian" id="tf2eb5ef8edd546a7a31a93ba03cab51b"><clipPath id="t43143629bb394118b1901034fec523ee"><rect x="155.0" y="15.0" width="110.0" height="70.0" /></clipPath><g clip-path="url(#t43143629bb394118b1901034fec523ee)"><g class="toytree-mark-Toytree" id="t2b829cb7ed724f4bb3740f47caff6479"><g class="toytree-Edges" style="fill:none;stroke:rgb(14.9%,14.9%,14.9%);stroke-linecap:round;stroke-opacity:1;stroke-width:0.5"><path d="M 165.0 35.0 L 165.0 30.0 L 171.2 30.0" id="76,75" /><path d="M 165.0 35.0 L 165.0 40.0 L 167.6 40.0" id="76,74" /><path d="M 171.2 30.0 L 171.2 30.8 L 198.0 30.8" id="75,73" /><path d="M 167.6 40.0 L 167.6 33.3 L 173.6 33.3" id="74,72" /><path d="M 167.6 40.0 L 167.6 46.8 L 167.9 46.8" id="74,71" /><path d="M 173.6 33.3 L 173.6 34.1 L 177.5 34.1" id="72,70" /><path d="M 167.9 46.8 L 167.9 40.0 L 172.3 40.0" id="71,69" /><path d="M 167.9 46.8 L 167.9 53.5 L 172.9 53.5" id="71,68" /><path d="M 172.3 40.0 L 172.3 37.4 L 181.2 37.4" id="69,67" /><path d="M 172.3 40.0 L 172.3 42.7 L 175.8 42.7" id="69,66" /><path d="M 172.9 53.5 L 172.9 49.9 L 183.2 49.9" id="68,65" /><path d="M 172.9 53.5 L 172.9 57.2 L 173.9 57.2" id="68,64" /><path d="M 181.2 37.4 L 181.2 36.3 L 185.5 36.3" id="67,63" /><path d="M 181.2 37.4 L 181.2 38.5 L 191.8 38.5" id="67,62" /><path d="M 175.8 42.7 L 175.8 41.0 L 177.0 41.0" id="66,61" /><path d="M 175.8 42.7 L 175.8 44.4 L 180.0 44.4" id="66,60" /><path d="M 183.2 49.9 L 183.2 50.8 L 203.2 50.8" id="65,59" /><path d="M 173.9 57.2 L 173.9 54.1 L 176.4 54.1" id="64,58" /><path d="M 173.9 57.2 L 173.9 60.3 L 175.2 60.3" id="64,57" /><path d="M 177.0 41.0 L 177.0 41.8 L 188.9 41.8" id="61,56" /><path d="M 180.0 44.4 L 180.0 45.5 L 186.9 45.5" id="60,55" /><path d="M 203.2 50.8 L 203.2 51.6 L 208.4 51.6" id="59,54" /><path d="M 176.4 54.1 L 176.4 54.9 L 180.5 54.9" id="58,53" /><path d="M 175.2 60.3 L 175.2 57.4 L 178.7 57.4" id="57,52" /><path d="M 175.2 60.3 L 175.2 63.2 L 176.2 63.2" id="57,51" /><path d="M 186.9 45.5 L 186.9 46.4 L 190.4 46.4" id="55,50" /><path d="M 178.7 57.4 L 178.7 58.2 L 186.6 58.2" id="52,49" /><path d="M 176.2 63.2 L 176.2 60.7 L 193.1 60.7" id="51,48" /><path d="M 176.2 63.2 L 176.2 65.7 L 179.5 65.7" id="51,47" /><path d="M 190.4 46.4 L 190.4 47.3 L 203.9 47.3" id="50,46" /><path d="M 193.1 60.7 L 193.1 61.5 L 199.1 61.5" id="48,45" /><path d="M 179.5 65.7 L 179.5 64.0 L 184.8 64.0" id="47,44" /><path d="M 179.5 65.7 L 179.5 67.5 L 185.2 67.5" id="47,43" /><path d="M 184.8 64.0 L 184.8 64.8 L 192.9 64.8" id="44,42" /><path d="M 185.2 67.5 L 185.2 68.5 L 193.0 68.5" id="43,41" /><path d="M 193.0 68.5 L 193.0 69.5 L 195.3 69.5" id="41,40" /><path d="M 195.3 69.5 L 195.3 70.3 L 202.0 70.3" id="40,39" /><path d="M 171.2 30.0 L 171.2 29.2 L 225.5 29.2" id="75,38" /><path d="M 198.0 30.8 L 198.0 30.3 L 237.3 30.3" id="73,37" /><path d="M 198.0 30.8 L 198.0 31.4 L 235.2 31.4" id="73,36" /><path d="M 173.6 33.3 L 173.6 32.5 L 234.8 32.5" id="72,35" /><path d="M 177.5 34.1 L 177.5 33.6 L 210.2 33.6" id="70,34" /><path d="M 177.5 34.1 L 177.5 34.6 L 235.9 34.6" id="70,33" /><path d="M 185.5 36.3 L 185.5 35.7 L 209.7 35.7" id="63,32" /><path d="M 185.5 36.3 L 185.5 36.8 L 239.3 36.8" id="63,31" /><path d="M 191.8 38.5 L 191.8 37.9 L 240.4 37.9" id="62,30" /><path d="M 191.8 38.5 L 191.8 39.0 L 239.7 39.0" id="62,29" /><path d="M 177.0 41.0 L 177.0 40.1 L 243.1 40.1" id="61,28" /><path d="M 188.9 41.8 L 188.9 41.2 L 229.1 41.2" id="56,27" /><path d="M 188.9 41.8 L 188.9 42.3 L 236.9 42.3" id="56,26" /><path d="M 180.0 44.4 L 180.0 43.4 L 210.4 43.4" id="60,25" /><path d="M 186.9 45.5 L 186.9 44.5 L 250.3 44.5" id="55,24" /><path d="M 190.4 46.4 L 190.4 45.6 L 242.2 45.6" id="50,23" /><path d="M 203.9 47.3 L 203.9 46.7 L 242.3 46.7" id="46,22" /><path d="M 203.9 47.3 L 203.9 47.8 L 241.8 47.8" id="46,21" /><path d="M 183.2 49.9 L 183.2 48.9 L 236.3 48.9" id="65,20" /><path d="M 203.2 50.8 L 203.2 50.0 L 238.7 50.0" id="59,19" /><path d="M 208.4 51.6 L 208.4 51.1 L 238.2 51.1" id="54,18" /><path d="M 208.4 51.6 L 208.4 52.2 L 238.8 52.2" id="54,17" /><path d="M 176.4 54.1 L 176.4 53.3 L 235.5 53.3" id="58,16" /><path d="M 180.5 54.9 L 180.5 54.4 L 249.8 54.4" id="53,15" /><path d="M 180.5 54.9 L 180.5 55.5 L 235.0 55.5" id="53,14" /><path d="M 178.7 57.4 L 178.7 56.6 L 232.4 56.6" id="52,13" /><path d="M 186.6 58.2 L 186.6 57.7 L 235.1 57.7" id="49,12" /><path d="M 186.6 58.2 L 186.6 58.8 L 209.5 58.8" id="49,11" /><path d="M 193.1 60.7 L 193.1 59.9 L 239.7 59.9" id="48,10" /><path d="M 199.1 61.5 L 199.1 61.0 L 201.9 61.0" id="45,9" /><path d="M 199.1 61.5 L 199.1 62.1 L 236.4 62.1" id="45,8" /><path d="M 184.8 64.0 L 184.8 63.2 L 239.3 63.2" id="44,7" /><path d="M 192.9 64.8 L 192.9 64.3 L 235.3 64.3" id="42,6" /><path d="M 192.9 64.8 L 192.9 65.4 L 242.4 65.4" id="42,5" /><path d="M 185.2 67.5 L 185.2 66.4 L 248.0 66.4" id="43,4" /><path d="M 193.0 68.5 L 193.0 67.5 L 237.8 67.5" id="41,3" /><path d="M 195.3 69.5 L 195.3 68.6 L 236.4 68.6" id="40,2" /><path d="M 202.0 70.3 L 202.0 69.7 L 238.4 69.7" id="39,1" /><path d="M 202.0 70.3 L 202.0 70.8 L 236.8 70.8" id="39,0" /></g><g class="toytree-Nodes" style="fill:rgb(100%,0%,0%);fill-opacity:1.0;stroke:None;stroke-width:1"><g id="node-0" transform="translate(236.763,70.833)"><circle r="2.5" /></g><g id="node-1" transform="translate(238.396,69.737)"><circle r="2.5" /></g><g id="node-2" transform="translate(236.429,68.640)"><circle r="2.5" /></g><g id="node-3" transform="translate(237.815,67.544)"><circle r="2.5" /></g><g id="node-4" transform="translate(248.026,66.447)"><circle r="2.5" /></g><g id="node-5" transform="translate(242.400,65.351)"><circle r="2.5" /></g><g id="node-6" transform="translate(235.280,64.254)"><circle r="2.5" /></g><g id="node-7" transform="translate(239.328,63.158)"><circle r="2.5" /></g><g id="node-8" transform="translate(236.416,62.061)"><circle r="2.5" /></g><g id="node-9" transform="translate(201.905,60.965)"><circle r="2.5" /></g><g id="node-10" transform="translate(239.666,59.868)"><circle r="2.5" /></g><g id="node-11" transform="translate(209.456,58.772)"><circle r="2.5" /></g><g id="node-12" transform="translate(235.105,57.675)"><circle r="2.5" /></g><g id="node-13" transform="translate(232.421,56.579)"><circle r="2.5" /></g><g id="node-14" transform="translate(235.032,55.482)"><circle r="2.5" /></g><g id="node-15" transform="translate(249.767,54.386)"><circle r="2.5" /></g><g id="node-16" transform="translate(235.548,53.289)"><circle r="2.5" /></g><g id="node-17" transform="translate(238.842,52.193)"><circle r="2.5" /></g><g id="node-18" transform="translate(238.245,51.096)"><circle r="2.5" /></g><g id="node-19" transform="translate(238.653,50.000)"><circle r="2.5" /></g><g id="node-20" transform="translate(236.343,48.904)"><circle r="2.5" /></g><g id="node-21" transform="translate(241.813,47.807)"><circle r="2.5" /></g><g id="node-22" transform="translate(242.261,46.711)"><circle r="2.5" /></g><g id="node-23" transform="translate(242.193,45.614)"><circle r="2.5" /></g><g id="node-24" transform="translate(250.263,44.518)"><circle r="2.5" /></g><g id="node-25" transform="translate(210.394,43.421)"><circle r="2.5" /></g><g id="node-26" transform="translate(236.875,42.325)"><circle r="2.5" /></g><g id="node-27" transform="translate(229.053,41.228)"><circle r="2.5" /></g><g id="node-28" transform="translate(243.091,40.132)"><circle r="2.5" /></g><g id="node-29" transform="translate(239.725,39.035)"><circle r="2.5" /></g><g id="node-30" transform="translate(240.450,37.939)"><circle r="2.5" /></g><g id="node-31" transform="translate(239.284,36.842)"><circle r="2.5" /></g><g id="node-32" transform="translate(209.709,35.746)"><circle r="2.5" /></g><g id="node-33" transform="translate(235.891,34.649)"><circle r="2.5" /></g><g id="node-34" transform="translate(210.203,33.553)"><circle r="2.5" /></g><g id="node-35" transform="translate(234.762,32.456)"><circle r="2.5" /></g><g id="node-36" transform="translate(235.232,31.360)"><circle r="2.5" /></g><g id="node-37" transform="translate(237.349,30.263)"><circle r="2.5" /></g><g id="node-38" transform="translate(225.484,29.167)"><circle r="2.5" /></g><g id="node-39" transform="translate(201.962,70.285)"><circle r="0.0" /></g><g id="node-40" transform="translate(195.260,69.463)"><circle r="0.0" /></g><g id="node-41" transform="translate(192.972,68.503)"><circle r="0.0" /></g><g id="node-42" transform="translate(192.869,64.803)"><circle r="0.0" /></g><g id="node-43" transform="translate(185.205,67.475)"><circle r="0.0" /></g><g id="node-44" transform="translate(184.845,63.980)"><circle r="0.0" /></g><g id="node-45" transform="translate(199.079,61.513)"><circle r="0.0" /></g><g id="node-46" transform="translate(203.883,47.259)"><circle r="0.0" /></g><g id="node-47" transform="translate(179.476,65.728)"><circle r="0.0" /></g><g id="node-48" transform="translate(193.125,60.691)"><circle r="0.0" /></g><g id="node-49" transform="translate(186.575,58.224)"><circle r="0.0" /></g><g id="node-50" transform="translate(190.352,46.436)"><circle r="0.0" /></g><g id="node-51" transform="translate(176.153,63.209)"><circle r="0.0" /></g><g id="node-52" transform="translate(178.668,57.401)"><circle r="0.0" /></g><g id="node-53" transform="translate(180.530,54.934)"><circle r="0.0" /></g><g id="node-54" transform="translate(208.372,51.645)"><circle r="0.0" /></g><g id="node-55" transform="translate(186.904,45.477)"><circle r="0.0" /></g><g id="node-56" transform="translate(188.881,41.776)"><circle r="0.0" /></g><g id="node-57" transform="translate(175.191,60.305)"><circle r="0.0" /></g><g id="node-58" transform="translate(176.390,54.112)"><circle r="0.0" /></g><g id="node-59" transform="translate(203.200,50.822)"><circle r="0.0" /></g><g id="node-60" transform="translate(180.027,44.449)"><circle r="0.0" /></g><g id="node-61" transform="translate(177.025,40.954)"><circle r="0.0" /></g><g id="node-62" transform="translate(191.832,38.487)"><circle r="0.0" /></g><g id="node-63" transform="translate(185.464,36.294)"><circle r="0.0" /></g><g id="node-64" transform="translate(173.940,57.209)"><circle r="0.0" /></g><g id="node-65" transform="translate(183.235,49.863)"><circle r="0.0" /></g><g id="node-66" transform="translate(175.756,42.701)"><circle r="0.0" /></g><g id="node-67" transform="translate(181.173,37.390)"><circle r="0.0" /></g><g id="node-68" transform="translate(172.912,53.536)"><circle r="0.0" /></g><g id="node-69" transform="translate(172.282,40.046)"><circle r="0.0" /></g><g id="node-70" transform="translate(177.482,34.101)"><circle r="0.0" /></g><g id="node-71" transform="translate(167.875,46.791)"><circle r="0.0" /></g><g id="node-72" transform="translate(173.617,33.279)"><circle r="0.0" /></g><g id="node-73" transform="translate(198.004,30.811)"><circle r="0.0" /></g><g id="node-74" transform="translate(167.607,40.035)"><circle r="0.0" /></g><g id="node-75" transform="translate(171.186,29.989)"><circle r="0.0" /></g><g id="node-76" transform="translate(165.000,35.012)"><circle r="0.0" /></g></g></g></g></g><g class="toyplot-coordinates-Cartesian" id="t7b1e1a4680b844158ca50aa7b0997b52"><clipPath id="t0f5544ddcd4445c28ffbd70b05adb173"><rect x="295.0" y="15.0" width="110.0" height="70.0" /></clipPath><g clip-path="url(#t0f5544ddcd4445c28ffbd70b05adb173)"><g class="toytree-mark-Toytree" id="t3143ca9c27a748e0b836fa14bd323cfe"><g class="toytree-Edges" style="fill:none;stroke:rgb(14.9%,14.9%,14.9%);stroke-linecap:round;stroke-opacity:1;stroke-width:0.5"><path d="M 305.0 33.0 L 305.0 29.7 L 337.2 29.7" id="76,75" /><path d="M 305.0 33.0 L 305.0 36.2 L 307.5 36.2" id="76,74" /><path d="M 307.5 36.2 L 307.5 32.4 L 324.7 32.4" id="74,73" /><path d="M 307.5 36.2 L 307.5 40.1 L 309.5 40.1" id="74,72" /><path d="M 324.7 32.4 L 324.7 33.4 L 333.3 33.4" id="73,71" /><path d="M 309.5 40.1 L 309.5 43.3 L 314.3 43.3" id="72,70" /><path d="M 333.3 33.4 L 333.3 34.4 L 341.3 34.4" id="71,69" /><path d="M 314.3 43.3 L 314.3 48.7 L 320.6 48.7" id="70,68" /><path d="M 341.3 34.4 L 341.3 35.2 L 343.6 35.2" id="69,67" /><path d="M 320.6 48.7 L 320.6 41.7 L 324.3 41.7" id="68,66" /><path d="M 320.6 48.7 L 320.6 55.8 L 322.3 55.8" id="68,65" /><path d="M 324.3 41.7 L 324.3 39.6 L 331.8 39.6" id="66,64" /><path d="M 324.3 41.7 L 324.3 43.8 L 328.0 43.8" id="66,63" /><path d="M 322.3 55.8 L 322.3 51.8 L 323.0 51.8" id="65,62" /><path d="M 322.3 55.8 L 322.3 59.8 L 326.7 59.8" id="65,61" /><path d="M 328.0 43.8 L 328.0 42.1 L 345.6 42.1" id="63,60" /><path d="M 328.0 43.8 L 328.0 45.5 L 336.6 45.5" id="63,59" /><path d="M 323.0 51.8 L 323.0 50.5 L 329.6 50.5" id="62,58" /><path d="M 323.0 51.8 L 323.0 53.0 L 327.8 53.0" id="62,57" /><path d="M 326.7 59.8 L 326.7 56.4 L 328.1 56.4" id="61,56" /><path d="M 326.7 59.8 L 326.7 63.2 L 329.7 63.2" id="61,55" /><path d="M 345.6 42.1 L 345.6 42.9 L 347.6 42.9" id="60,54" /><path d="M 336.6 45.5 L 336.6 46.6 L 339.5 46.6" id="59,53" /><path d="M 327.8 53.0 L 327.8 53.8 L 334.4 53.8" id="57,52" /><path d="M 328.1 56.4 L 328.1 57.4 L 341.9 57.4" id="56,51" /><path d="M 329.7 63.2 L 329.7 60.7 L 334.5 60.7" id="55,50" /><path d="M 329.7 63.2 L 329.7 65.8 L 331.7 65.8" id="55,49" /><path d="M 339.5 46.6 L 339.5 47.5 L 349.4 47.5" id="53,48" /><path d="M 341.9 57.4 L 341.9 58.2 L 367.2 58.2" id="51,47" /><path d="M 334.5 60.7 L 334.5 61.5 L 338.6 61.5" id="50,46" /><path d="M 331.7 65.8 L 331.7 63.7 L 338.1 63.7" id="49,45" /><path d="M 331.7 65.8 L 331.7 67.8 L 335.2 67.8" id="49,44" /><path d="M 349.4 47.5 L 349.4 48.4 L 356.3 48.4" id="48,43" /><path d="M 335.2 67.8 L 335.2 66.2 L 337.9 66.2" id="44,42" /><path d="M 335.2 67.8 L 335.2 69.5 L 336.6 69.5" id="44,41" /><path d="M 337.9 66.2 L 337.9 67.0 L 341.3 67.0" id="42,40" /><path d="M 336.6 69.5 L 336.6 70.3 L 340.6 70.3" id="41,39" /><path d="M 337.2 29.7 L 337.2 29.2 L 368.8 29.2" id="75,38" /><path d="M 337.2 29.7 L 337.2 30.3 L 359.4 30.3" id="75,37" /><path d="M 324.7 32.4 L 324.7 31.4 L 363.7 31.4" id="73,36" /><path d="M 333.3 33.4 L 333.3 32.5 L 357.3 32.5" id="71,35" /><path d="M 341.3 34.4 L 341.3 33.6 L 369.0 33.6" id="69,34" /><path d="M 343.6 35.2 L 343.6 34.6 L 353.4 34.6" id="67,33" /><path d="M 343.6 35.2 L 343.6 35.7 L 356.6 35.7" id="67,32" /><path d="M 309.5 40.1 L 309.5 36.8 L 360.3 36.8" id="72,31" /><path d="M 314.3 43.3 L 314.3 37.9 L 347.8 37.9" id="70,30" /><path d="M 331.8 39.6 L 331.8 39.0 L 359.0 39.0" id="64,29" /><path d="M 331.8 39.6 L 331.8 40.1 L 367.6 40.1" id="64,28" /><path d="M 345.6 42.1 L 345.6 41.2 L 362.4 41.2" id="60,27" /><path d="M 347.6 42.9 L 347.6 42.3 L 362.0 42.3" id="54,26" /><path d="M 347.6 42.9 L 347.6 43.4 L 358.4 43.4" id="54,25" /><path d="M 336.6 45.5 L 336.6 44.5 L 368.1 44.5" id="59,24" /><path d="M 339.5 46.6 L 339.5 45.6 L 381.0 45.6" id="53,23" /><path d="M 349.4 47.5 L 349.4 46.7 L 374.6 46.7" id="48,22" /><path d="M 356.3 48.4 L 356.3 47.8 L 379.1 47.8" id="43,21" /><path d="M 356.3 48.4 L 356.3 48.9 L 381.0 48.9" id="43,20" /><path d="M 329.6 50.5 L 329.6 50.0 L 360.4 50.0" id="58,19" /><path d="M 329.6 50.5 L 329.6 51.1 L 351.0 51.1" id="58,18" /><path d="M 327.8 53.0 L 327.8 52.2 L 354.8 52.2" id="57,17" /><path d="M 334.4 53.8 L 334.4 53.3 L 355.0 53.3" id="52,16" /><path d="M 334.4 53.8 L 334.4 54.4 L 368.3 54.4" id="52,15" /><path d="M 328.1 56.4 L 328.1 55.5 L 368.5 55.5" id="56,14" /><path d="M 341.9 57.4 L 341.9 56.6 L 390.3 56.6" id="51,13" /><path d="M 367.2 58.2 L 367.2 57.7 L 387.5 57.7" id="47,12" /><path d="M 367.2 58.2 L 367.2 58.8 L 382.3 58.8" id="47,11" /><path d="M 334.5 60.7 L 334.5 59.9 L 358.4 59.9" id="50,10" /><path d="M 338.6 61.5 L 338.6 61.0 L 367.2 61.0" id="46,9" /><path d="M 338.6 61.5 L 338.6 62.1 L 361.8 62.1" id="46,8" /><path d="M 338.1 63.7 L 338.1 63.2 L 357.7 63.2" id="45,7" /><path d="M 338.1 63.7 L 338.1 64.3 L 353.5 64.3" id="45,6" /><path d="M 337.9 66.2 L 337.9 65.4 L 366.1 65.4" id="42,5" /><path d="M 341.3 67.0 L 341.3 66.4 L 367.7 66.4" id="40,4" /><path d="M 341.3 67.0 L 341.3 67.5 L 372.5 67.5" id="40,3" /><path d="M 336.6 69.5 L 336.6 68.6 L 356.3 68.6" id="41,2" /><path d="M 340.6 70.3 L 340.6 69.7 L 365.4 69.7" id="39,1" /><path d="M 340.6 70.3 L 340.6 70.8 L 372.8 70.8" id="39,0" /></g><g class="toytree-Nodes" style="fill:rgb(100%,0%,0%);fill-opacity:1.0;stroke:None;stroke-width:1"><g id="node-0" transform="translate(372.764,70.833)"><circle r="2.5" /></g><g id="node-1" transform="translate(365.403,69.737)"><circle r="2.5" /></g><g id="node-2" transform="translate(356.270,68.640)"><circle r="2.5" /></g><g id="node-3" transform="translate(372.520,67.544)"><circle r="2.5" /></g><g id="node-4" transform="translate(367.701,66.447)"><circle r="2.5" /></g><g id="node-5" transform="translate(366.120,65.351)"><circle r="2.5" /></g><g id="node-6" transform="translate(353.493,64.254)"><circle r="2.5" /></g><g id="node-7" transform="translate(357.692,63.158)"><circle r="2.5" /></g><g id="node-8" transform="translate(361.806,62.061)"><circle r="2.5" /></g><g id="node-9" transform="translate(367.192,60.965)"><circle r="2.5" /></g><g id="node-10" transform="translate(358.405,59.868)"><circle r="2.5" /></g><g id="node-11" transform="translate(382.269,58.772)"><circle r="2.5" /></g><g id="node-12" transform="translate(387.530,57.675)"><circle r="2.5" /></g><g id="node-13" transform="translate(390.263,56.579)"><circle r="2.5" /></g><g id="node-14" transform="translate(368.485,55.482)"><circle r="2.5" /></g><g id="node-15" transform="translate(368.344,54.386)"><circle r="2.5" /></g><g id="node-16" transform="translate(354.968,53.289)"><circle r="2.5" /></g><g id="node-17" transform="translate(354.764,52.193)"><circle r="2.5" /></g><g id="node-18" transform="translate(350.960,51.096)"><circle r="2.5" /></g><g id="node-19" transform="translate(360.358,50.000)"><circle r="2.5" /></g><g id="node-20" transform="translate(380.993,48.904)"><circle r="2.5" /></g><g id="node-21" transform="translate(379.071,47.807)"><circle r="2.5" /></g><g id="node-22" transform="translate(374.629,46.711)"><circle r="2.5" /></g><g id="node-23" transform="translate(380.971,45.614)"><circle r="2.5" /></g><g id="node-24" transform="translate(368.100,44.518)"><circle r="2.5" /></g><g id="node-25" transform="translate(358.396,43.421)"><circle r="2.5" /></g><g id="node-26" transform="translate(362.037,42.325)"><circle r="2.5" /></g><g id="node-27" transform="translate(362.369,41.228)"><circle r="2.5" /></g><g id="node-28" transform="translate(367.617,40.132)"><circle r="2.5" /></g><g id="node-29" transform="translate(358.998,39.035)"><circle r="2.5" /></g><g id="node-30" transform="translate(347.833,37.939)"><circle r="2.5" /></g><g id="node-31" transform="translate(360.265,36.842)"><circle r="2.5" /></g><g id="node-32" transform="translate(356.576,35.746)"><circle r="2.5" /></g><g id="node-33" transform="translate(353.413,34.649)"><circle r="2.5" /></g><g id="node-34" transform="translate(368.981,33.553)"><circle r="2.5" /></g><g id="node-35" transform="translate(357.284,32.456)"><circle r="2.5" /></g><g id="node-36" transform="translate(363.662,31.360)"><circle r="2.5" /></g><g id="node-37" transform="translate(359.448,30.263)"><circle r="2.5" /></g><g id="node-38" transform="translate(368.757,29.167)"><circle r="2.5" /></g><g id="node-39" transform="translate(340.626,70.285)"><circle r="0.0" /></g><g id="node-40" transform="translate(341.300,66.996)"><circle r="0.0" /></g><g id="node-41" transform="translate(336.578,69.463)"><circle r="0.0" /></g><g id="node-42" transform="translate(337.920,66.173)"><circle r="0.0" /></g><g id="node-43" transform="translate(356.314,48.355)"><circle r="0.0" /></g><g id="node-44" transform="translate(335.179,67.818)"><circle r="0.0" /></g><g id="node-45" transform="translate(338.120,63.706)"><circle r="0.0" /></g><g id="node-46" transform="translate(338.611,61.513)"><circle r="0.0" /></g><g id="node-47" transform="translate(367.161,58.224)"><circle r="0.0" /></g><g id="node-48" transform="translate(349.449,47.533)"><circle r="0.0" /></g><g id="node-49" transform="translate(331.742,65.762)"><circle r="0.0" /></g><g id="node-50" transform="translate(334.545,60.691)"><circle r="0.0" /></g><g id="node-51" transform="translate(341.884,57.401)"><circle r="0.0" /></g><g id="node-52" transform="translate(334.417,53.838)"><circle r="0.0" /></g><g id="node-53" transform="translate(339.470,46.573)"><circle r="0.0" /></g><g id="node-54" transform="translate(347.571,42.873)"><circle r="0.0" /></g><g id="node-55" transform="translate(329.718,63.226)"><circle r="0.0" /></g><g id="node-56" transform="translate(328.101,56.442)"><circle r="0.0" /></g><g id="node-57" transform="translate(327.826,53.015)"><circle r="0.0" /></g><g id="node-58" transform="translate(329.594,50.548)"><circle r="0.0" /></g><g id="node-59" transform="translate(336.618,45.546)"><circle r="0.0" /></g><g id="node-60" transform="translate(345.614,42.050)"><circle r="0.0" /></g><g id="node-61" transform="translate(326.724,59.834)"><circle r="0.0" /></g><g id="node-62" transform="translate(323.016,51.782)"><circle r="0.0" /></g><g id="node-63" transform="translate(327.995,43.798)"><circle r="0.0" /></g><g id="node-64" transform="translate(331.751,39.583)"><circle r="0.0" /></g><g id="node-65" transform="translate(322.299,55.808)"><circle r="0.0" /></g><g id="node-66" transform="translate(324.296,41.691)"><circle r="0.0" /></g><g id="node-67" transform="translate(343.590,35.197)"><circle r="0.0" /></g><g id="node-68" transform="translate(320.625,48.749)"><circle r="0.0" /></g><g id="node-69" transform="translate(341.348,34.375)"><circle r="0.0" /></g><g id="node-70" transform="translate(314.331,43.344)"><circle r="0.0" /></g><g id="node-71" transform="translate(333.345,33.416)"><circle r="0.0" /></g><g id="node-72" transform="translate(309.450,40.093)"><circle r="0.0" /></g><g id="node-73" transform="translate(324.713,32.388)"><circle r="0.0" /></g><g id="node-74" transform="translate(307.488,36.240)"><circle r="0.0" /></g><g id="node-75" transform="translate(337.174,29.715)"><circle r="0.0" /></g><g id="node-76" transform="translate(305.000,32.978)"><circle r="0.0" /></g></g></g></g></g><g class="toyplot-coordinates-Cartesian" id="tc9c54e13db1c42cdb3eca7d66fe8506b"><clipPath id="tdc75d40440d94ae988d8eaf89ad64a32"><rect x="435.0" y="15.0" width="110.0" height="70.0" /></clipPath><g clip-path="url(#tdc75d40440d94ae988d8eaf89ad64a32)"><g class="toytree-mark-Toytree" id="ta40b0fe1f3ad43b9831948f1a92b3fb1"><g class="toytree-Edges" style="fill:none;stroke:rgb(14.9%,14.9%,14.9%);stroke-linecap:round;stroke-opacity:1;stroke-width:0.5"><path d="M 445.0 40.3 L 445.0 32.6 L 462.4 32.6" id="76,75" /><path d="M 445.0 40.3 L 445.0 47.9 L 472.3 47.9" id="76,74" /><path d="M 462.4 32.6 L 462.4 36.0 L 472.6 36.0" id="75,73" /><path d="M 472.3 47.9 L 472.3 49.2 L 480.7 49.2" id="74,72" /><path d="M 472.6 36.0 L 472.6 32.1 L 487.2 32.1" id="73,71" /><path d="M 472.6 36.0 L 472.6 39.9 L 479.3 39.9" id="73,70" /><path d="M 480.7 49.2 L 480.7 50.5 L 482.6 50.5" id="72,69" /><path d="M 487.2 32.1 L 487.2 30.8 L 499.6 30.8" id="71,68" /><path d="M 487.2 32.1 L 487.2 33.5 L 504.9 33.5" id="71,67" /><path d="M 479.3 39.9 L 479.3 41.9 L 484.2 41.9" id="70,66" /><path d="M 482.6 50.5 L 482.6 52.2 L 485.7 52.2" id="69,65" /><path d="M 504.9 33.5 L 504.9 34.5 L 507.0 34.5" id="67,64" /><path d="M 484.2 41.9 L 484.2 39.9 L 509.2 39.9" id="66,63" /><path d="M 484.2 41.9 L 484.2 44.0 L 500.1 44.0" id="66,62" /><path d="M 485.7 52.2 L 485.7 50.5 L 493.6 50.5" id="65,61" /><path d="M 485.7 52.2 L 485.7 53.8 L 490.9 53.8" id="65,60" /><path d="M 507.0 34.5 L 507.0 35.5 L 510.9 35.5" id="64,59" /><path d="M 509.2 39.9 L 509.2 40.7 L 512.9 40.7" id="63,58" /><path d="M 500.1 44.0 L 500.1 42.9 L 503.3 42.9" id="62,57" /><path d="M 500.1 44.0 L 500.1 45.1 L 504.0 45.1" id="62,56" /><path d="M 490.9 53.8 L 490.9 55.4 L 493.3 55.4" id="60,55" /><path d="M 510.9 35.5 L 510.9 36.3 L 510.9 36.3" id="59,54" /><path d="M 493.3 55.4 L 493.3 53.8 L 499.1 53.8" id="55,53" /><path d="M 493.3 55.4 L 493.3 57.0 L 500.1 57.0" id="55,52" /><path d="M 500.1 57.0 L 500.1 58.4 L 505.3 58.4" id="52,51" /><path d="M 505.3 58.4 L 505.3 60.3 L 507.1 60.3" id="51,50" /><path d="M 507.1 60.3 L 507.1 58.5 L 510.0 58.5" id="50,49" /><path d="M 507.1 60.3 L 507.1 62.1 L 509.2 62.1" id="50,48" /><path d="M 510.0 58.5 L 510.0 59.3 L 513.6 59.3" id="49,47" /><path d="M 509.2 62.1 L 509.2 63.2 L 510.3 63.2" id="48,46" /><path d="M 510.3 63.2 L 510.3 64.2 L 511.0 64.2" id="46,45" /><path d="M 511.0 64.2 L 511.0 65.3 L 511.0 65.3" id="45,44" /><path d="M 511.0 65.3 L 511.0 66.4 L 511.0 66.4" id="44,43" /><path d="M 511.0 66.4 L 511.0 67.5 L 511.0 67.5" id="43,42" /><path d="M 511.0 67.5 L 511.0 68.5 L 511.0 68.5" id="42,41" /><path d="M 511.0 68.5 L 511.0 69.5 L 511.0 69.5" id="41,40" /><path d="M 511.0 69.5 L 511.0 70.3 L 511.0 70.3" id="40,39" /><path d="M 462.4 32.6 L 462.4 29.2 L 503.9 29.2" id="75,38" /><path d="M 499.6 30.8 L 499.6 30.3 L 505.2 30.3" id="68,37" /><path d="M 499.6 30.8 L 499.6 31.4 L 502.5 31.4" id="68,36" /><path d="M 504.9 33.5 L 504.9 32.5 L 511.6 32.5" id="67,35" /><path d="M 507.0 34.5 L 507.0 33.6 L 510.3 33.6" id="64,34" /><path d="M 510.9 35.5 L 510.9 34.6 L 515.2 34.6" id="59,33" /><path d="M 510.9 36.3 L 510.9 35.7 L 512.5 35.7" id="54,32" /><path d="M 510.9 36.3 L 510.9 36.8 L 510.9 36.8" id="54,31" /><path d="M 479.3 39.9 L 479.3 37.9 L 492.4 37.9" id="70,30" /><path d="M 509.2 39.9 L 509.2 39.0 L 509.2 39.0" id="63,29" /><path d="M 512.9 40.7 L 512.9 40.1 L 515.6 40.1" id="58,28" /><path d="M 512.9 40.7 L 512.9 41.2 L 515.7 41.2" id="58,27" /><path d="M 503.3 42.9 L 503.3 42.3 L 505.8 42.3" id="57,26" /><path d="M 503.3 42.9 L 503.3 43.4 L 504.8 43.4" id="57,25" /><path d="M 504.0 45.1 L 504.0 44.5 L 504.4 44.5" id="56,24" /><path d="M 504.0 45.1 L 504.0 45.6 L 530.3 45.6" id="56,23" /><path d="M 472.3 47.9 L 472.3 46.7 L 495.4 46.7" id="74,22" /><path d="M 480.7 49.2 L 480.7 47.8 L 500.8 47.8" id="72,21" /><path d="M 482.6 50.5 L 482.6 48.9 L 494.9 48.9" id="69,20" /><path d="M 493.6 50.5 L 493.6 50.0 L 507.1 50.0" id="61,19" /><path d="M 493.6 50.5 L 493.6 51.1 L 523.8 51.1" id="61,18" /><path d="M 490.9 53.8 L 490.9 52.2 L 494.7 52.2" id="60,17" /><path d="M 499.1 53.8 L 499.1 53.3 L 504.3 53.3" id="53,16" /><path d="M 499.1 53.8 L 499.1 54.4 L 508.0 54.4" id="53,15" /><path d="M 500.1 57.0 L 500.1 55.5 L 516.6 55.5" id="52,14" /><path d="M 505.3 58.4 L 505.3 56.6 L 508.8 56.6" id="51,13" /><path d="M 510.0 58.5 L 510.0 57.7 L 510.0 57.7" id="49,12" /><path d="M 513.6 59.3 L 513.6 58.8 L 515.6 58.8" id="47,11" /><path d="M 513.6 59.3 L 513.6 59.9 L 517.1 59.9" id="47,10" /><path d="M 509.2 62.1 L 509.2 61.0 L 511.7 61.0" id="48,9" /><path d="M 510.3 63.2 L 510.3 62.1 L 510.3 62.1" id="46,8" /><path d="M 511.0 64.2 L 511.0 63.2 L 517.2 63.2" id="45,7" /><path d="M 511.0 65.3 L 511.0 64.3 L 512.4 64.3" id="44,6" /><path d="M 511.0 66.4 L 511.0 65.4 L 511.7 65.4" id="43,5" /><path d="M 511.0 67.5 L 511.0 66.4 L 517.5 66.4" id="42,4" /><path d="M 511.0 68.5 L 511.0 67.5 L 511.0 67.5" id="41,3" /><path d="M 511.0 69.5 L 511.0 68.6 L 511.0 68.6" id="40,2" /><path d="M 511.0 70.3 L 511.0 69.7 L 511.0 69.7" id="39,1" /><path d="M 511.0 70.3 L 511.0 70.8 L 511.0 70.8" id="39,0" /></g><g class="toytree-Nodes" style="fill:rgb(100%,0%,0%);fill-opacity:1.0;stroke:None;stroke-width:1"><g id="node-0" transform="translate(511.024,70.833)"><circle r="2.5" /></g><g id="node-1" transform="translate(511.024,69.737)"><circle r="2.5" /></g><g id="node-2" transform="translate(511.024,68.640)"><circle r="2.5" /></g><g id="node-3" transform="translate(511.024,67.544)"><circle r="2.5" /></g><g id="node-4" transform="translate(517.508,66.447)"><circle r="2.5" /></g><g id="node-5" transform="translate(511.720,65.351)"><circle r="2.5" /></g><g id="node-6" transform="translate(512.428,64.254)"><circle r="2.5" /></g><g id="node-7" transform="translate(517.224,63.158)"><circle r="2.5" /></g><g id="node-8" transform="translate(510.326,62.061)"><circle r="2.5" /></g><g id="node-9" transform="translate(511.717,60.965)"><circle r="2.5" /></g><g id="node-10" transform="translate(517.136,59.868)"><circle r="2.5" /></g><g id="node-11" transform="translate(515.551,58.772)"><circle r="2.5" /></g><g id="node-12" transform="translate(509.988,57.675)"><circle r="2.5" /></g><g id="node-13" transform="translate(508.752,56.579)"><circle r="2.5" /></g><g id="node-14" transform="translate(516.642,55.482)"><circle r="2.5" /></g><g id="node-15" transform="translate(508.003,54.386)"><circle r="2.5" /></g><g id="node-16" transform="translate(504.261,53.289)"><circle r="2.5" /></g><g id="node-17" transform="translate(494.707,52.193)"><circle r="2.5" /></g><g id="node-18" transform="translate(523.790,51.096)"><circle r="2.5" /></g><g id="node-19" transform="translate(507.104,50.000)"><circle r="2.5" /></g><g id="node-20" transform="translate(494.903,48.904)"><circle r="2.5" /></g><g id="node-21" transform="translate(500.775,47.807)"><circle r="2.5" /></g><g id="node-22" transform="translate(495.360,46.711)"><circle r="2.5" /></g><g id="node-23" transform="translate(530.263,45.614)"><circle r="2.5" /></g><g id="node-24" transform="translate(504.437,44.518)"><circle r="2.5" /></g><g id="node-25" transform="translate(504.761,43.421)"><circle r="2.5" /></g><g id="node-26" transform="translate(505.785,42.325)"><circle r="2.5" /></g><g id="node-27" transform="translate(515.730,41.228)"><circle r="2.5" /></g><g id="node-28" transform="translate(515.627,40.132)"><circle r="2.5" /></g><g id="node-29" transform="translate(509.157,39.035)"><circle r="2.5" /></g><g id="node-30" transform="translate(492.385,37.939)"><circle r="2.5" /></g><g id="node-31" transform="translate(510.865,36.842)"><circle r="2.5" /></g><g id="node-32" transform="translate(512.531,35.746)"><circle r="2.5" /></g><g id="node-33" transform="translate(515.154,34.649)"><circle r="2.5" /></g><g id="node-34" transform="translate(510.258,33.553)"><circle r="2.5" /></g><g id="node-35" transform="translate(511.600,32.456)"><circle r="2.5" /></g><g id="node-36" transform="translate(502.504,31.360)"><circle r="2.5" /></g><g id="node-37" transform="translate(505.189,30.263)"><circle r="2.5" /></g><g id="node-38" transform="translate(503.912,29.167)"><circle r="2.5" /></g><g id="node-39" transform="translate(511.024,70.285)"><circle r="0.0" /></g><g id="node-40" transform="translate(511.024,69.463)"><circle r="0.0" /></g><g id="node-41" transform="translate(511.024,68.503)"><circle r="0.0" /></g><g id="node-42" transform="translate(511.024,67.475)"><circle r="0.0" /></g><g id="node-43" transform="translate(511.024,66.413)"><circle r="0.0" /></g><g id="node-44" transform="translate(511.024,65.334)"><circle r="0.0" /></g><g id="node-45" transform="translate(511.024,64.246)"><circle r="0.0" /></g><g id="node-46" transform="translate(510.326,63.154)"><circle r="0.0" /></g><g id="node-47" transform="translate(513.602,59.320)"><circle r="0.0" /></g><g id="node-48" transform="translate(509.156,62.059)"><circle r="0.0" /></g><g id="node-49" transform="translate(509.988,58.498)"><circle r="0.0" /></g><g id="node-50" transform="translate(507.104,60.279)"><circle r="0.0" /></g><g id="node-51" transform="translate(505.283,58.429)"><circle r="0.0" /></g><g id="node-52" transform="translate(500.094,56.956)"><circle r="0.0" /></g><g id="node-53" transform="translate(499.076,53.838)"><circle r="0.0" /></g><g id="node-54" transform="translate(510.865,36.294)"><circle r="0.0" /></g><g id="node-55" transform="translate(493.327,55.397)"><circle r="0.0" /></g><g id="node-56" transform="translate(504.010,45.066)"><circle r="0.0" /></g><g id="node-57" transform="translate(503.277,42.873)"><circle r="0.0" /></g><g id="node-58" transform="translate(512.852,40.680)"><circle r="0.0" /></g><g id="node-59" transform="translate(510.865,35.471)"><circle r="0.0" /></g><g id="node-60" transform="translate(490.938,53.795)"><circle r="0.0" /></g><g id="node-61" transform="translate(493.645,50.548)"><circle r="0.0" /></g><g id="node-62" transform="translate(500.074,43.969)"><circle r="0.0" /></g><g id="node-63" transform="translate(509.157,39.857)"><circle r="0.0" /></g><g id="node-64" transform="translate(507.021,34.512)"><circle r="0.0" /></g><g id="node-65" transform="translate(485.705,52.172)"><circle r="0.0" /></g><g id="node-66" transform="translate(484.237,41.913)"><circle r="0.0" /></g><g id="node-67" transform="translate(504.869,33.484)"><circle r="0.0" /></g><g id="node-68" transform="translate(499.627,30.811)"><circle r="0.0" /></g><g id="node-69" transform="translate(482.623,50.538)"><circle r="0.0" /></g><g id="node-70" transform="translate(479.270,39.926)"><circle r="0.0" /></g><g id="node-71" transform="translate(487.184,32.148)"><circle r="0.0" /></g><g id="node-72" transform="translate(480.656,49.172)"><circle r="0.0" /></g><g id="node-73" transform="translate(472.565,36.037)"><circle r="0.0" /></g><g id="node-74" transform="translate(472.307,47.941)"><circle r="0.0" /></g><g id="node-75" transform="translate(462.448,32.602)"><circle r="0.0" /></g><g id="node-76" transform="translate(445.000,40.272)"><circle r="0.0" /></g></g></g></g></g></svg>