<svg class="toyplot-canvas-Canvas" xmlns:toyplot="http://www.sandia.gov/toyplot" xmlns:xlink="http://www.w3.org/1999/xlink" xmlns="http://www.w3.org/2000/svg" width="560.0px" height="100.0px" viewBox="0 0 560.0 100.0" preserveAspectRatio="xMidYMid meet" style="background-color:transparent;border-color:#292724;border-style:none;border-width:1.0;fill:rgb(16.1%,15.3%,14.1%);fill-opacity:1.0;font-family:Helvetica;font-size:12px;opacity:1.0;stroke:rgb(16.1%,15.3%,14.1%);stroke-opacity:1.0;stroke-width:1.0" id="t1963bbb6dfce4dc1ab47105e8e86b9d2"><g class="toyplot-coordinates-Cartesian" id="td3c0284cfc1a4a68bdb8511562fc7da6"><clipPath id="tb17631749d2e4beca4f39789c4e00f2e"><rect x="15.0" y="15.0" width="110.0" height="70.0" /></clipPath><g clip-path="url(#tb17631749d2e4beca4f39789c4e00f2e)"><g class="toytree-mark-Toytree" id="t292a6084dd144653ba6f0ca2d982f003"><g class="toytree-Edges" style="fill:none;stroke:rgb(14.9%,14.9%,14.9%);stroke-linecap:round;stroke-opacity:1;stroke-width:0.5"><path d="M 25.0 41.3 L 25.0 53.5 L 29.0 53.5" id="6,5" /><path d="M 29.0 53.5 L 29.0 63.9 L 54.7 63.9" id="5,4" /><path d="M 25.0 41.3 L 25.0 29.2 L 101.0 29.2" id="6,3" /><path d="M 29.0 53.5 L 29.0 43.1 L 95.4 43.1" id="5,2" /><path d="M 54.7 63.9 L 54.7 56.9 L 110.3 56.9" id="4,1" /><path d="M 54.7 63.9 L 54.7 70.8 L 98.8 70.8" id="4,0" /></g><g class="toytree-Nodes" style="fill:rgb(100%,0%,0%);fill-opacity:1.0;stroke:None;stroke-width:1"><g id="node-0" transform="translate(98.833,70.833)"><circle r="2.5" /></g><g id="node-1" transform="translate(110.263,56.944)"><circle r="2.5" /></g><g id="node-2" transform="translate(95.435,43.056)"><circle r="2.5" /></g><g id="node-3" transform="translate(100.995,29.167)"><circle r="2.5" /></g><g id="node-4" transform="translate(54.657,63.889)"><circle r="0.0" /></g><g id="node-5" transform="translate(29.016,53.472)"><circle r="0.0" /></g><g id="node-6" transform="translate(25.000,41.319)"><circle r="0.0" /></g></g></g></g></g><g class="toyplot-coordinates-Cartesian" id="tf832c4077fc047cdaf4893115d4e6f02"><clipPath id="t4d5998113abc43c4ab9a02125793858d"><rect x="155.0" y="15.0" width="110.0" height="70.0" /></clipPath><g clip-path="url(#t4d5998113abc43c4ab9a02125793858d)"><g class="toytree-mark-Toytree" id="td5082af3f5f84bdf87a3eb7c65109e42"><g class="toytree-Edges" style="fill:none;stroke:rgb(14.9%,14.9%,14.9%);stroke-linecap:round;stroke-opacity:1;stroke-width:0.5"><path d="M 165.0 41.3 L 165.0 53.5 L 181.9 53.5" id="6,5" /><path d="M 181.9 53.5 L 181.9 63.9 L 207.3 63.9" id="5,4" /><path d="M 165.0 41.3 L 165.0 29.2 L 214.7 29.2" id="6,3" /><path d="M 181.9 53.5 L 181.9 43.1 L 202.3 43.1" id="5,2" /><path d="M 207.3 63.9 L 207.3 56.9 L 211.9 56.9" id="4,1" /><path d="M 207.3 63.9 L 207.3 70.8 L 250.3 70.8" id="4,0" /></g><g class="toytree-Nodes" style="fill:rgb(100%,0%,0%);fill-opacity:1.0;stroke:None;stroke-width:1"><g id="node-0" transform="translate(250.263,70.833)"><circle r="2.5" /></g><g id="node-1" transform="translate(211.877,56.944)"><circle r="2.5" /></g><g id="node-2" transform="translate(202.299,43.056)"><circle r="2.5" /></g><g id="node-3" transform="translate(214.742,29.167)"><circle r="2.5" /></g><g id="node-4" transform="translate(207.341,63.889)"><circle r="0.0" /></g><g id="node-5" transform="translate(181.861,53.472)"><circle r="0.0" /></g><g id="node-6" transform="translate(165.000,41.319)"><circle r="0.0" /></g></g></g></g></g><g class="toyplot-coordinates-Cartesian" id="t3dfd2bbe1dff4122b750e172ef0b40c4"><clipPath id="t6797f3a759a343cfb1e30bedede515d8"><rect x="295.0" y="15.0" width="110.0" height="70.0" /></clipPath><g clip-path="url(#t6797f3a759a343cfb1e30bedede515d8)"><g class="toytree-mark-Toytree" id="t7e4e7227b0f64094ad99bd86fd7a0f95"><g class="toytree-Edges" style="fill:none;stroke:rgb(14.9%,14.9%,14.9%);stroke-linecap:round;stroke-opacity:1;stroke-width:0.5"><path d="M 305.0 50.0 L 305.0 36.1 L 317.8 36.1" id="6,5" /><path d="M 305.0 50.0 L 305.0 63.9 L 321.6 63.9" id="6,4" /><path d="M 317.8 36.1 L 317.8 29.2 L 390.3 29.2" id="5,3" /><path d="M 317.8 36.1 L 317.8 43.1 L 358.5 43.1" id="5,2" /><path d="M 321.6 63.9 L 321.6 56.9 L 368.4 56.9" id="4,1" /><path d="M 321.6 63.9 L 321.6 70.8 L 373.2 70.8" id="4,0" /></g><g class="toytree-Nodes" style="fill:rgb(100%,0%,0%);fill-opacity:1.0;stroke:None;stroke-width:1"><g id="node-0" transform="translate(373.245,70.833)"><circle r="2.5" /></g><g id="node-1" transform="translate(368.351,56.944)"><circle r="2.5" /></g><g id="node-2" transform="translate(358.511,43.056)"><circle r="2.5" /></g><g id="node-3" transform="translate(390.263,29.167)"><circle r="2.5" /></g><g id="node-4" transform="translate(321.636,63.889)"><circle r="0.0" /></g><g id="node-5" transform="translate(317.844,36.111)"><circle r="0.0" /></g><g id="node-6" transform="translate(305.000,50.000)"><circle r="0.0" /></g></g></g></g></g><g class="toyplot-coordinates-Cartesian" id="tb6fc71566bff4b84aa133d1fde7b7b61"><clipPath id="t5b93ebfe8bce4272885b1f6618b34d4d"><rect x="435.0" y="15.0" width="110.0" height="70.0" /></clipPath><g clip-path="url(#t5b93ebfe8bce4272885b1f6618b34d4d)"><g class="toytree-mark-Toytree" id="ta9ae3879a6314e6b9fc1a7dfd617c7b0"><g class="toytree-Edges" style="fill:none;stroke:rgb(14.9%,14.9%,14.9%);stroke-linecap:round;stroke-opacity:1;stroke-width:0.5"><path d="M 445.0 50.0 L 445.0 36.1 L 456.1 36.1" id="6,5" /><path d="M 445.0 50.0 L 445.0 63.9 L 476.2 63.9" id="6,4" /><path d="M 456.1 36.1 L 456.1 29.2 L 530.3 29.2" id="5,3" /><path d="M 456.1 36.1 L 456.1 43.1 L 508.4 43.1" id="5,2" /><path d="M 476.2 63.9 L 476.2 56.9 L 525.6 56.9" id="4,1" /><path d="M 476.2 63.9 L 476.2 70.8 L 511.2 70.8" id="4,0" /></g><g class="toytree-Nodes" style="fill:rgb(100%,0%,0%);fill-opacity:1.0;stroke:None;stroke-width:1"><g id="node-0" transform="translate(511.194,70.833)"><circle r="2.5" /></g><g id="node-1" transform="translate(525.624,56.944)"><circle r="2.5" /></g><g id="node-2" transform="translate(508.374,43.056)"><circle r="2.5" /></g><g id="node-3" transform="translate(530.263,29.167)"><circle r="2.5" /></g><g id="node-4" transform="translate(476.189,63.889)"><circle r="0.0" /></g><g id="node-5" transform="translate(456.107,36.111)"><circle r="0.0" /></g><g id="node-6" transform="translate(445.000,50.000)"><circle r="0.0" /></g></g></g></g></g></svg>