<svg class="toyplot-canvas-Canvas" xmlns:toyplot="http://www.sandia.gov/toyplot" xmlns:xlink="http://www.w3.org/1999/xlink" xmlns="http://www.w3.org/2000/svg" width="560.0px" height="100.0px" viewBox="0 0 560.0 100.0" preserveAspectRatio="xMidYMid meet" style="background-color:transparent;border-color:#292724;border-style:none;border-width:1.0;fill:rgb(16.1%,15.3%,14.1%);fill-opacity:1.0;font-family:Helvetica;font-size:12px;opacity:1.0;stroke:rgb(16.1%,15.3%,14.1%);stroke-opacity:1.0;stroke-width:1.0" id="td8648e080c824018bdbd3c69ca5c59e8"><g class="toyplot-coordinates-Cartesian" id="t2007f38032f048cc9fe51f7fa30d35df"><clipPath id="tc8fb8f8ad0b142938d348d45f245f962"><rect x="15.0" y="15.0" width="110.0" height="70.0" /></clipPath><g clip-path="url(#tc8fb8f8ad0b142938d348d45f245f962)"><g class="toytree-mark-Toytree" id="ta993728697d34e079e93dd6b4ee6f482"><g class="toytree-Edges" style="fill:none;stroke:rgb(14.9%,14.9%,14.9%);stroke-linecap:round;stroke-opacity:1;stroke-width:0.5"><path d="M 25.0 41.5 L 25.0 33.1 L 29.9 33.1" id="16,15" /><path d="M 25.0 41.5 L 25.0 49.8 L 28.4 49.8" id="16,14" /><path d="M 29.9 33.1 L 29.9 37.0 L 36.0 37.0" id="15,13" /><path d="M 28.4 49.8 L 28.4 54.9 L 29.2 54.9" id="14,12" /><path d="M 29.2 54.9 L 29.2 59.8 L 31.8 59.8" id="12,11" /><path d="M 31.8 59.8 L 31.8 64.3 L 33.0 64.3" id="11,10" /><path d="M 33.0 64.3 L 33.0 68.2 L 47.7 68.2" id="10,9" /><path d="M 29.9 33.1 L 29.9 29.2 L 106.8 29.2" id="15,8" /><path d="M 36.0 37.0 L 36.0 34.4 L 108.7 34.4" id="13,7" /><path d="M 36.0 37.0 L 36.0 39.6 L 102.9 39.6" id="13,6" /><path d="M 28.4 49.8 L 28.4 44.8 L 107.3 44.8" id="14,5" /><path d="M 29.2 54.9 L 29.2 50.0 L 107.4 50.0" id="12,4" /><path d="M 31.8 59.8 L 31.8 55.2 L 103.6 55.2" id="11,3" /><path d="M 33.0 64.3 L 33.0 60.4 L 102.0 60.4" id="10,2" /><path d="M 47.7 68.2 L 47.7 65.6 L 106.4 65.6" id="9,1" /><path d="M 47.7 68.2 L 47.7 70.8 L 110.3 70.8" id="9,0" /></g><g class="toytree-Nodes" style="fill:rgb(100%,0%,0%);fill-opacity:1.0;stroke:None;stroke-width:1"><g id="node-0" transform="translate(110.263,70.833)"><circle r="2.5" /></g><g id="node-1" transform="translate(106.400,65.625)"><circle r="2.5" /></g><g id="node-2" transform="translate(102.042,60.417)"><circle r="2.5" /></g><g id="node-3" transform="translate(103.626,55.208)"><circle r="2.5" /></g><g id="node-4" transform="translate(107.425,50.000)"><circle r="2.5" /></g><g id="node-5" transform="translate(107.301,44.792)"><circle r="2.5" /></g><g id="node-6" transform="translate(102.944,39.583)"><circle r="2.5" /></g><g id="node-7" transform="translate(108.712,34.375)"><circle r="2.5" /></g><g id="node-8" transform="translate(106.820,29.167)"><circle r="2.5" /></g><g id="node-9" transform="translate(47.654,68.229)"><circle r="0.0" /></g><g id="node-10" transform="translate(33.042,64.323)"><circle r="0.0" /></g><g id="node-11" transform="translate(31.785,59.766)"><circle r="0.0" /></g><g id="node-12" transform="translate(29.232,54.883)"><circle r="0.0" /></g><g id="node-13" transform="translate(36.048,36.979)"><circle r="0.0" /></g><g id="node-14" transform="translate(28.389,49.837)"><circle r="0.0" /></g><g id="node-15" transform="translate(29.859,33.073)"><circle r="0.0" /></g><g id="node-16" transform="translate(25.000,41.455)"><circle r="0.0" /></g></g></g></g></g><g class="toyplot-coordinates-Cartesian" id="tc327bff4137142cb823fe4467d3294a5"><clipPath id="ted2d9c2e0ee1478fb6a2e4069f1795dd"><rect x="155.0" y="15.0" width="110.0" height="70.0" /></clipPath><g clip-path="url(#ted2d9c2e0ee1478fb6a2e4069f1795dd)"><g class="toytree-mark-Toytree" id="te0d2f3e404794e0cabd6dcf4003d69ed"><g class="toytree-Edges" style="fill:none;stroke:rgb(14.9%,14.9%,14.9%);stroke-linecap:round;stroke-opacity:1;stroke-width:0.5"><path d="M 165.0 43.3 L 165.0 33.1 L 188.1 33.1" id="16,15" /><path d="M 165.0 43.3 L 165.0 53.6 L 169.7 53.6" id="16,14" /><path d="M 188.1 33.1 L 188.1 37.0 L 192.8 37.0" id="15,13" /><path d="M 169.7 53.6 L 169.7 47.4 L 203.8 47.4" id="14,12" /><path d="M 169.7 53.6 L 169.7 59.8 L 175.8 59.8" id="14,11" /><path d="M 175.8 59.8 L 175.8 64.3 L 189.4 64.3" id="11,10" /><path d="M 189.4 64.3 L 189.4 68.2 L 191.8 68.2" id="10,9" /><path d="M 188.1 33.1 L 188.1 29.2 L 224.3 29.2" id="15,8" /><path d="M 192.8 37.0 L 192.8 34.4 L 207.8 34.4" id="13,7" /><path d="M 192.8 37.0 L 192.8 39.6 L 241.9 39.6" id="13,6" /><path d="M 203.8 47.4 L 203.8 44.8 L 221.7 44.8" id="12,5" /><path d="M 203.8 47.4 L 203.8 50.0 L 209.9 50.0" id="12,4" /><path d="M 175.8 59.8 L 175.8 55.2 L 228.6 55.2" id="11,3" /><path d="M 189.4 64.3 L 189.4 60.4 L 212.9 60.4" id="10,2" /><path d="M 191.8 68.2 L 191.8 65.6 L 250.3 65.6" id="9,1" /><path d="M 191.8 68.2 L 191.8 70.8 L 220.2 70.8" id="9,0" /></g><g class="toytree-Nodes" style="fill:rgb(100%,0%,0%);fill-opacity:1.0;stroke:None;stroke-width:1"><g id="node-0" transform="translate(220.246,70.833)"><circle r="2.5" /></g><g id="node-1" transform="translate(250.263,65.625)"><circle r="2.5" /></g><g id="node-2" transform="translate(212.866,60.417)"><circle r="2.5" /></g><g id="node-3" transform="translate(228.567,55.208)"><circle r="2.5" /></g><g id="node-4" transform="translate(209.923,50.000)"><circle r="2.5" /></g><g id="node-5" transform="translate(221.724,44.792)"><circle r="2.5" /></g><g id="node-6" transform="translate(241.903,39.583)"><circle r="2.5" /></g><g id="node-7" transform="translate(207.760,34.375)"><circle r="2.5" /></g><g id="node-8" transform="translate(224.311,29.167)"><circle r="2.5" /></g><g id="node-9" transform="translate(191.774,68.229)"><circle r="0.0" /></g><g id="node-10" transform="translate(189.357,64.323)"><circle r="0.0" /></g><g id="node-11" transform="translate(175.844,59.766)"><circle r="0.0" /></g><g id="node-12" transform="translate(203.806,47.396)"><circle r="0.0" /></g><g id="node-13" transform="translate(192.795,36.979)"><circle r="0.0" /></g><g id="node-14" transform="translate(169.653,53.581)"><circle r="0.0" /></g><g id="node-15" transform="translate(188.096,33.073)"><circle r="0.0" /></g><g id="node-16" transform="translate(165.000,43.327)"><circle r="0.0" /></g></g></g></g></g><g class="toyplot-coordinates-Cartesian" id="t40f6d1eb277d4d2897b8733e3cb0dcb3"><clipPath id="t5e5d956cf8d14922824e691ace155693"><rect x="295.0" y="15.0" width="110.0" height="70.0" /></clipPath><g clip-path="url(#t5e5d956cf8d14922824e691ace155693)"><g class="toytree-mark-Toytree" id="tcc117678ed124929858c459d0a638506"><g class="toytree-Edges" style="fill:none;stroke:rgb(14.9%,14.9%,14.9%);stroke-linecap:round;stroke-opacity:1;stroke-width:0.5"><path d="M 305.0 42.4 L 305.0 33.1 L 318.4 33.1" id="16,15" /><path d="M 305.0 42.4 L 305.0 51.6 L 313.7 51.6" id="16,14" /><path d="M 318.4 33.1 L 318.4 37.0 L 321.7 37.0" id="15,13" /><path d="M 313.7 51.6 L 313.7 58.5 L 320.8 58.5" id="14,12" /><path d="M 320.8 58.5 L 320.8 52.6 L 343.3 52.6" id="12,11" /><path d="M 320.8 58.5 L 320.8 64.3 L 327.5 64.3" id="12,10" /><path d="M 327.5 64.3 L 327.5 68.2 L 332.0 68.2" id="10,9" /><path d="M 318.4 33.1 L 318.4 29.2 L 369.5 29.2" id="15,8" /><path d="M 321.7 37.0 L 321.7 34.4 L 379.7 34.4" id="13,7" /><path d="M 321.7 37.0 L 321.7 39.6 L 387.4 39.6" id="13,6" /><path d="M 313.7 51.6 L 313.7 44.8 L 376.8 44.8" id="14,5" /><path d="M 343.3 52.6 L 343.3 50.0 L 377.5 50.0" id="11,4" /><path d="M 343.3 52.6 L 343.3 55.2 L 376.8 55.2" id="11,3" /><path d="M 327.5 64.3 L 327.5 60.4 L 373.9 60.4" id="10,2" /><path d="M 332.0 68.2 L 332.0 65.6 L 390.3 65.6" id="9,1" /><path d="M 332.0 68.2 L 332.0 70.8 L 375.8 70.8" id="9,0" /></g><g class="toytree-Nodes" style="fill:rgb(100%,0%,0%);fill-opacity:1.0;stroke:None;stroke-width:1"><g id="node-0" transform="translate(375.756,70.833)"><circle r="2.5" /></g><g id="node-1" transform="translate(390.263,65.625)"><circle r="2.5" /></g><g id="node-2" transform="translate(373.852,60.417)"><circle r="2.5" /></g><g id="node-3" transform="translate(376.803,55.208)"><circle r="2.5" /></g><g id="node-4" transform="translate(377.469,50.000)"><circle r="2.5" /></g><g id="node-5" transform="translate(376.843,44.792)"><circle r="2.5" /></g><g id="node-6" transform="translate(387.375,39.583)"><circle r="2.5" /></g><g id="node-7" transform="translate(379.693,34.375)"><circle r="2.5" /></g><g id="node-8" transform="translate(369.539,29.167)"><circle r="2.5" /></g><g id="node-9" transform="translate(331.966,68.229)"><circle r="0.0" /></g><g id="node-10" transform="translate(327.488,64.323)"><circle r="0.0" /></g><g id="node-11" transform="translate(343.266,52.604)"><circle r="0.0" /></g><g id="node-12" transform="translate(320.772,58.464)"><circle r="0.0" /></g><g id="node-13" transform="translate(321.725,36.979)"><circle r="0.0" /></g><g id="node-14" transform="translate(313.738,51.628)"><circle r="0.0" /></g><g id="node-15" transform="translate(318.371,33.073)"><circle r="0.0" /></g><g id="node-16" transform="translate(305.000,42.350)"><circle r="0.0" /></g></g></g></g></g><g class="toyplot-coordinates-Cartesian" id="t365c577497df45acb332b20fa2e3dddb"><clipPath id="t2af6ff0dbd9b4f3c8576e3a590a8bb2c"><rect x="435.0" y="15.0" width="110.0" height="70.0" /></clipPath><g clip-path="url(#t2af6ff0dbd9b4f3c8576e3a590a8bb2c)"><g class="toytree-mark-Toytree" id="tc617ae6893e340dbb523be05fe82a507"><g class="toytree-Edges" style="fill:none;stroke:rgb(14.9%,14.9%,14.9%);stroke-linecap:round;stroke-opacity:1;stroke-width:0.5"><path d="M 445.0 41.5 L 445.0 33.1 L 462.5 33.1" id="16,15" /><path d="M 445.0 41.5 L 445.0 49.8 L 450.9 49.8" id="16,14" /><path d="M 462.5 33.1 L 462.5 37.0 L 469.8 37.0" id="15,13" /><path d="M 450.9 49.8 L 450.9 54.9 L 462.4 54.9" id="14,12" /><path d="M 462.4 54.9 L 462.4 59.8 L 467.4 59.8" id="12,11" /><path d="M 467.4 59.8 L 467.4 64.3 L 474.1 64.3" id="11,10" /><path d="M 474.1 64.3 L 474.1 68.2 L 495.0 68.2" id="10,9" /><path d="M 462.5 33.1 L 462.5 29.2 L 522.0 29.2" id="15,8" /><path d="M 469.8 37.0 L 469.8 34.4 L 502.7 34.4" id="13,7" /><path d="M 469.8 37.0 L 469.8 39.6 L 519.2 39.6" id="13,6" /><path d="M 450.9 49.8 L 450.9 44.8 L 502.1 44.8" id="14,5" /><path d="M 462.4 54.9 L 462.4 50.0 L 499.4 50.0" id="12,4" /><path d="M 467.4 59.8 L 467.4 55.2 L 521.7 55.2" id="11,3" /><path d="M 474.1 64.3 L 474.1 60.4 L 516.6 60.4" id="10,2" /><path d="M 495.0 68.2 L 495.0 65.6 L 530.3 65.6" id="9,1" /><path d="M 495.0 68.2 L 495.0 70.8 L 522.2 70.8" id="9,0" /></g><g class="toytree-Nodes" style="fill:rgb(100%,0%,0%);fill-opacity:1.0;stroke:None;stroke-width:1"><g id="node-0" transform="translate(522.226,70.833)"><circle r="2.5" /></g><g id="node-1" transform="translate(530.263,65.625)"><circle r="2.5" /></g><g id="node-2" transform="translate(516.626,60.417)"><circle r="2.5" /></g><g id="node-3" transform="translate(521.682,55.208)"><circle r="2.5" /></g><g id="node-4" transform="translate(499.360,50.000)"><circle r="2.5" /></g><g id="node-5" transform="translate(502.055,44.792)"><circle r="2.5" /></g><g id="node-6" transform="translate(519.177,39.583)"><circle r="2.5" /></g><g id="node-7" transform="translate(502.727,34.375)"><circle r="2.5" /></g><g id="node-8" transform="translate(521.953,29.167)"><circle r="2.5" /></g><g id="node-9" transform="translate(494.961,68.229)"><circle r="0.0" /></g><g id="node-10" transform="translate(474.097,64.323)"><circle r="0.0" /></g><g id="node-11" transform="translate(467.420,59.766)"><circle r="0.0" /></g><g id="node-12" transform="translate(462.430,54.883)"><circle r="0.0" /></g><g id="node-13" transform="translate(469.814,36.979)"><circle r="0.0" /></g><g id="node-14" transform="translate(450.950,49.837)"><circle r="0.0" /></g><g id="node-15" transform="translate(462.542,33.073)"><circle r="0.0" /></g><g id="node-16" transform="translate(445.000,41.455)"><circle r="0.0" /></g></g></g></g></g></svg>