<svg class="toyplot-canvas-Canvas" xmlns:toyplot="http://www.sandia.gov/toyplot" xmlns:xlink="http://www.w3.org/1999/xlink" xmlns="http://www.w3.org/2000/svg" width="560.0px" height="100.0px" viewBox="0 0 560.0 100.0" preserveAspectRatio="xMidYMid meet" style="background-color:transparent;border-color:#292724;border-style:none;border-width:1.0;fill:rgb(16.1%,15.3%,14.1%);fill-opacity:1.0;font-family:Helvetica;font-size:12px;opacity:1.0;stroke:rgb(16.1%,15.3%,14.1%);stroke-opacity:1.0;stroke-width:1.0" id="t828a0873ec9d4978ac1b869c3aa5bfe3"><g class="toyplot-coordinates-Cartesian" id="tf7c95e910486477faff1f36cbd02c7a0"><clipPath id="t7322fb8a2c2346ecac1c1aebb0f98a0d"><rect x="15.0" y="15.0" width="110.0" height="70.0" /></clipPath><g clip-path="url(#t7322fb8a2c2346ecac1c1aebb0f98a0d)"><g class="toytree-mark-Toytree" id="tc289d235d18e48e7b5a79f79ae55cb7c"><g class="toytree-Edges" style="fill:none;stroke:rgb(14.9%,14.9%,14.9%);stroke-linecap:round;stroke-opacity:1;stroke-width:0.5"><path d="M 25.0 43.3 L 25.0 33.1 L 27.8 33.1" id="16,15" /><path d="M 25.0 43.3 L 25.0 53.6 L 69.6 53.6" id="16,14" /><path d="M 27.8 33.1 L 27.8 37.0 L 36.0 37.0" id="15,13" /><path d="M 69.6 53.6 L 69.6 47.4 L 90.9 47.4" id="14,12" /><path d="M 69.6 53.6 L 69.6 59.8 L 79.4 59.8" id="14,11" /><path d="M 79.4 59.8 L 79.4 64.3 L 101.6 64.3" id="11,10" /><path d="M 101.6 64.3 L 101.6 68.2 L 102.6 68.2" id="10,9" /><path d="M 27.8 33.1 L 27.8 29.2 L 100.1 29.2" id="15,8" /><path d="M 36.0 37.0 L 36.0 34.4 L 102.5 34.4" id="13,7" /><path d="M 36.0 37.0 L 36.0 39.6 L 110.3 39.6" id="13,6" /><path d="M 90.9 47.4 L 90.9 44.8 L 103.2 44.8" id="12,5" /><path d="M 90.9 47.4 L 90.9 50.0 L 104.7 50.0" id="12,4" /><path d="M 79.4 59.8 L 79.4 55.2 L 108.2 55.2" id="11,3" /><path d="M 101.6 64.3 L 101.6 60.4 L 101.9 60.4" id="10,2" /><path d="M 102.6 68.2 L 102.6 65.6 L 102.7 65.6" id="9,1" /><path d="M 102.6 68.2 L 102.6 70.8 L 104.0 70.8" id="9,0" /></g><g class="toytree-Nodes" style="fill:rgb(100%,0%,0%);fill-opacity:1.0;stroke:None;stroke-width:1"><g id="node-0" transform="translate(104.047,70.833)"><circle r="2.5" /></g><g id="node-1" transform="translate(102.714,65.625)"><circle r="2.5" /></g><g id="node-2" transform="translate(101.852,60.417)"><circle r="2.5" /></g><g id="node-3" transform="translate(108.204,55.208)"><circle r="2.5" /></g><g id="node-4" transform="translate(104.718,50.000)"><circle r="2.5" /></g><g id="node-5" transform="translate(103.243,44.792)"><circle r="2.5" /></g><g id="node-6" transform="translate(110.263,39.583)"><circle r="2.5" /></g><g id="node-7" transform="translate(102.546,34.375)"><circle r="2.5" /></g><g id="node-8" transform="translate(100.116,29.167)"><circle r="2.5" /></g><g id="node-9" transform="translate(102.645,68.229)"><circle r="0.0" /></g><g id="node-10" transform="translate(101.575,64.323)"><circle r="0.0" /></g><g id="node-11" transform="translate(79.364,59.766)"><circle r="0.0" /></g><g id="node-12" transform="translate(90.873,47.396)"><circle r="0.0" /></g><g id="node-13" transform="translate(35.969,36.979)"><circle r="0.0" /></g><g id="node-14" transform="translate(69.579,53.581)"><circle r="0.0" /></g><g id="node-15" transform="translate(27.772,33.073)"><circle r="0.0" /></g><g id="node-16" transform="translate(25.000,43.327)"><circle r="0.0" /></g></g></g></g></g><g class="toyplot-coordinates-Cartesian" id="t1f16598e808d4c8a9e59dfdd7c579414"><clipPath id="t30b956393aa7458b992a181309d2a65e"><rect x="155.0" y="15.0" width="110.0" height="70.0" /></clipPath><g clip-path="url(#t30b956393aa7458b992a181309d2a65e)"><g class="toytree-mark-Toytree" id="t8bc7c5f9f2724306b298870b14e48f0c"><g class="toytree-Edges" style="fill:none;stroke:rgb(14.9%,14.9%,14.9%);stroke-linecap:round;stroke-opacity:1;stroke-width:0.5"><path d="M 165.0 41.5 L 165.0 33.1 L 178.1 33.1" id="16,15" /><path d="M 165.0 41.5 L 165.0 49.8 L 194.6 49.8" id="16,14" /><path d="M 178.1 33.1 L 178.1 37.0 L 200.7 37.0" id="15,13" /><path d="M 194.6 49.8 L 194.6 54.9 L 197.7 54.9" id="14,12" /><path d="M 197.7 54.9 L 197.7 59.8 L 203.8 59.8" id="12,11" /><path d="M 203.8 59.8 L 203.8 64.3 L 211.5 64.3" id="11,10" /><path d="M 211.5 64.3 L 211.5 68.2 L 223.3 68.2" id="10,9" /><path d="M 178.1 33.1 L 178.1 29.2 L 250.3 29.2" id="15,8" /><path d="M 200.7 37.0 L 200.7 34.4 L 225.5 34.4" id="13,7" /><path d="M 200.7 37.0 L 200.7 39.6 L 224.2 39.6" id="13,6" /><path d="M 194.6 49.8 L 194.6 44.8 L 232.6 44.8" id="14,5" /><path d="M 197.7 54.9 L 197.7 50.0 L 220.2 50.0" id="12,4" /><path d="M 203.8 59.8 L 203.8 55.2 L 234.1 55.2" id="11,3" /><path d="M 211.5 64.3 L 211.5 60.4 L 234.1 60.4" id="10,2" /><path d="M 223.3 68.2 L 223.3 65.6 L 236.2 65.6" id="9,1" /><path d="M 223.3 68.2 L 223.3 70.8 L 234.0 70.8" id="9,0" /></g><g class="toytree-Nodes" style="fill:rgb(100%,0%,0%);fill-opacity:1.0;stroke:None;stroke-width:1"><g id="node-0" transform="translate(234.007,70.833)"><circle r="2.5" /></g><g id="node-1" transform="translate(236.221,65.625)"><circle r="2.5" /></g><g id="node-2" transform="translate(234.098,60.417)"><circle r="2.5" /></g><g id="node-3" transform="translate(234.052,55.208)"><circle r="2.5" /></g><g id="node-4" transform="translate(220.196,50.000)"><circle r="2.5" /></g><g id="node-5" transform="translate(232.608,44.792)"><circle r="2.5" /></g><g id="node-6" transform="translate(224.241,39.583)"><circle r="2.5" /></g><g id="node-7" transform="translate(225.479,34.375)"><circle r="2.5" /></g><g id="node-8" transform="translate(250.263,29.167)"><circle r="2.5" /></g><g id="node-9" transform="translate(223.341,68.229)"><circle r="0.0" /></g><g id="node-10" transform="translate(211.537,64.323)"><circle r="0.0" /></g><g id="node-11" transform="translate(203.789,59.766)"><circle r="0.0" /></g><g id="node-12" transform="translate(197.671,54.883)"><circle r="0.0" /></g><g id="node-13" transform="translate(200.685,36.979)"><circle r="0.0" /></g><g id="node-14" transform="translate(194.597,49.837)"><circle r="0.0" /></g><g id="node-15" transform="translate(178.079,33.073)"><circle r="0.0" /></g><g id="node-16" transform="translate(165.000,41.455)"><circle r="0.0" /></g></g></g></g></g><g class="toyplot-coordinates-Cartesian" id="td15b1e366b3a4146a581a59846a33b68"><clipPath id="tea7cad7fd20e47f7ad09c7925cce049f"><rect x="295.0" y="15.0" width="110.0" height="70.0" /></clipPath><g clip-path="url(#tea7cad7fd20e47f7ad09c7925cce049f)"><g class="toytree-mark-Toytree" id="te979263d9a9f4d01ad8ebff60d4bc08a"><g class="toytree-Edges" style="fill:none;stroke:rgb(14.9%,14.9%,14.9%);stroke-linecap:round;stroke-opacity:1;stroke-width:0.5"><path d="M 305.0 38.2 L 305.0 31.8 L 320.1 31.8" id="16,15" /><path d="M 305.0 38.2 L 305.0 44.7 L 314.5 44.7" id="16,14" /><path d="M 314.5 44.7 L 314.5 49.8 L 351.4 49.8" id="14,13" /><path d="M 351.4 49.8 L 351.4 54.9 L 357.3 54.9" id="13,12" /><path d="M 357.3 54.9 L 357.3 59.8 L 361.0 59.8" id="12,11" /><path d="M 361.0 59.8 L 361.0 64.3 L 365.9 64.3" id="11,10" /><path d="M 365.9 64.3 L 365.9 68.2 L 368.7 68.2" id="10,9" /><path d="M 320.1 31.8 L 320.1 29.2 L 366.3 29.2" id="15,8" /><path d="M 320.1 31.8 L 320.1 34.4 L 390.3 34.4" id="15,7" /><path d="M 314.5 44.7 L 314.5 39.6 L 356.8 39.6" id="14,6" /><path d="M 351.4 49.8 L 351.4 44.8 L 380.5 44.8" id="13,5" /><path d="M 357.3 54.9 L 357.3 50.0 L 378.3 50.0" id="12,4" /><path d="M 361.0 59.8 L 361.0 55.2 L 385.7 55.2" id="11,3" /><path d="M 365.9 64.3 L 365.9 60.4 L 382.3 60.4" id="10,2" /><path d="M 368.7 68.2 L 368.7 65.6 L 381.2 65.6" id="9,1" /><path d="M 368.7 68.2 L 368.7 70.8 L 378.1 70.8" id="9,0" /></g><g class="toytree-Nodes" style="fill:rgb(100%,0%,0%);fill-opacity:1.0;stroke:None;stroke-width:1"><g id="node-0" transform="translate(378.063,70.833)"><circle r="2.5" /></g><g id="node-1" transform="translate(381.209,65.625)"><circle r="2.5" /></g><g id="node-2" transform="translate(382.333,60.417)"><circle r="2.5" /></g><g id="node-3" transform="translate(385.710,55.208)"><circle r="2.5" /></g><g id="node-4" transform="translate(378.335,50.000)"><circle r="2.5" /></g><g id="node-5" transform="translate(380.467,44.792)"><circle r="2.5" /></g><g id="node-6" transform="translate(356.845,39.583)"><circle r="2.5" /></g><g id="node-7" transform="translate(390.263,34.375)"><circle r="2.5" /></g><g id="node-8" transform="translate(366.276,29.167)"><circle r="2.5" /></g><g id="node-9" transform="translate(368.728,68.229)"><circle r="0.0" /></g><g id="node-10" transform="translate(365.909,64.323)"><circle r="0.0" /></g><g id="node-11" transform="translate(361.048,59.766)"><circle r="0.0" /></g><g id="node-12" transform="translate(357.338,54.883)"><circle r="0.0" /></g><g id="node-13" transform="translate(351.424,49.837)"><circle r="0.0" /></g><g id="node-14" transform="translate(314.529,44.710)"><circle r="0.0" /></g><g id="node-15" transform="translate(320.073,31.771)"><circle r="0.0" /></g><g id="node-16" transform="translate(305.000,38.241)"><circle r="0.0" /></g></g></g></g></g><g class="toyplot-coordinates-Cartesian" id="t3f97530b91b84d899d43b412ada2596f"><clipPath id="t56623089fa6b4d8381fbfc52c7847b62"><rect x="435.0" y="15.0" width="110.0" height="70.0" /></clipPath><g clip-path="url(#t56623089fa6b4d8381fbfc52c7847b62)"><g class="toytree-mark-Toytree" id="tcbd5330ec53c4dd9ab4aedfa9fb675cd"><g class="toytree-Edges" style="fill:none;stroke:rgb(14.9%,14.9%,14.9%);stroke-linecap:round;stroke-opacity:1;stroke-width:0.5"><path d="M 445.0 39.2 L 445.0 31.8 L 462.6 31.8" id="16,15" /><path d="M 445.0 39.2 L 445.0 46.6 L 456.8 46.6" id="16,14" /><path d="M 456.8 46.6 L 456.8 53.6 L 504.9 53.6" id="14,13" /><path d="M 504.9 53.6 L 504.9 47.4 L 512.0 47.4" id="13,12" /><path d="M 504.9 53.6 L 504.9 59.8 L 516.2 59.8" id="13,11" /><path d="M 516.2 59.8 L 516.2 64.3 L 524.4 64.3" id="11,10" /><path d="M 524.4 64.3 L 524.4 68.2 L 524.8 68.2" id="10,9" /><path d="M 462.6 31.8 L 462.6 29.2 L 521.1 29.2" id="15,8" /><path d="M 462.6 31.8 L 462.6 34.4 L 525.5 34.4" id="15,7" /><path d="M 456.8 46.6 L 456.8 39.6 L 525.5 39.6" id="14,6" /><path d="M 512.0 47.4 L 512.0 44.8 L 519.6 44.8" id="12,5" /><path d="M 512.0 47.4 L 512.0 50.0 L 514.5 50.0" id="12,4" /><path d="M 516.2 59.8 L 516.2 55.2 L 530.3 55.2" id="11,3" /><path d="M 524.4 64.3 L 524.4 60.4 L 524.4 60.4" id="10,2" /><path d="M 524.8 68.2 L 524.8 65.6 L 525.3 65.6" id="9,1" /><path d="M 524.8 68.2 L 524.8 70.8 L 524.8 70.8" id="9,0" /></g><g class="toytree-Nodes" style="fill:rgb(100%,0%,0%);fill-opacity:1.0;stroke:None;stroke-width:1"><g id="node-0" transform="translate(524.839,70.833)"><circle r="2.5" /></g><g id="node-1" transform="translate(525.308,65.625)"><circle r="2.5" /></g><g id="node-2" transform="translate(524.369,60.417)"><circle r="2.5" /></g><g id="node-3" transform="translate(530.263,55.208)"><circle r="2.5" /></g><g id="node-4" transform="translate(514.536,50.000)"><circle r="2.5" /></g><g id="node-5" transform="translate(519.630,44.792)"><circle r="2.5" /></g><g id="node-6" transform="translate(525.479,39.583)"><circle r="2.5" /></g><g id="node-7" transform="translate(525.461,34.375)"><circle r="2.5" /></g><g id="node-8" transform="translate(521.074,29.167)"><circle r="2.5" /></g><g id="node-9" transform="translate(524.839,68.229)"><circle r="0.0" /></g><g id="node-10" transform="translate(524.369,64.323)"><circle r="0.0" /></g><g id="node-11" transform="translate(516.235,59.766)"><circle r="0.0" /></g><g id="node-12" transform="translate(511.987,47.396)"><circle r="0.0" /></g><g id="node-13" transform="translate(504.908,53.581)"><circle r="0.0" /></g><g id="node-14" transform="translate(456.796,46.582)"><circle r="0.0" /></g><g id="node-15" transform="translate(462.600,31.771)"><circle r="0.0" /></g><g id="node-16" transform="translate(445.000,39.176)"><circle r="0.0" /></g></g></g></g></g></svg>