<svg class="toyplot-canvas-Canvas" xmlns:toyplot="http://www.sandia.gov/toyplot" xmlns:xlink="http://www.w3.org/1999/xlink" xmlns="http://www.w3.org/2000/svg" width="560.0px" height="100.0px" viewBox="0 0 560.0 100.0" preserveAspectRatio="xMidYMid meet" style="background-color:transparent;border-color:#292724;border-style:none;border-width:1.0;fill:rgb(16.1%,15.3%,14.1%);fill-opacity:1.0;font-family:Helvetica;font-size:12px;opacity:1.0;stroke:rgb(16.1%,15.3%,14.1%);stroke-opacity:1.0;stroke-width:1.0" id="te3712d0e0e3548078808b18018b3accb"><g class="toyplot-coordinates-Cartesian" id="tbc444490e9ca49b6a89d31f654c1c536"><clipPath id="t06204f92994e448cb7563efa6896b14d"><rect x="15.0" y="15.0" width="110.0" height="70.0" /></clipPath><g clip-path="url(#t06204f92994e448cb7563efa6896b14d)"><g class="toytree-mark-Toytree" id="t58fc68b10e374ee4b32bbba4ce1b784b"><g class="toytree-Edges" style="fill:none;stroke:rgb(14.9%,14.9%,14.9%);stroke-linecap:round;stroke-opacity:1;stroke-width:0.5"><path d="M 25.0 35.9 L 25.0 42.7 L 38.3 42.7" id="18,17" /><path d="M 38.3 42.7 L 38.3 36.1 L 40.2 36.1" id="17,16" /><path d="M 38.3 42.7 L 38.3 49.3 L 43.7 49.3" id="17,15" /><path d="M 43.7 49.3 L 43.7 55.5 L 45.0 55.5" id="15,14" /><path d="M 45.0 55.5 L 45.0 50.0 L 48.4 50.0" id="14,13" /><path d="M 45.0 55.5 L 45.0 61.0 L 46.8 61.0" id="14,12" /><path d="M 46.8 61.0 L 46.8 65.0 L 48.6 65.0" id="12,11" /><path d="M 48.6 65.0 L 48.6 68.5 L 50.7 68.5" id="11,10" /><path d="M 25.0 35.9 L 25.0 29.2 L 100.9 29.2" id="18,9" /><path d="M 40.2 36.1 L 40.2 33.8 L 93.0 33.8" id="16,8" /><path d="M 40.2 36.1 L 40.2 38.4 L 100.2 38.4" id="16,7" /><path d="M 43.7 49.3 L 43.7 43.1 L 102.1 43.1" id="15,6" /><path d="M 48.4 50.0 L 48.4 47.7 L 106.2 47.7" id="13,5" /><path d="M 48.4 50.0 L 48.4 52.3 L 110.3 52.3" id="13,4" /><path d="M 46.8 61.0 L 46.8 56.9 L 93.3 56.9" id="12,3" /><path d="M 48.6 65.0 L 48.6 61.6 L 108.2 61.6" id="11,2" /><path d="M 50.7 68.5 L 50.7 66.2 L 97.0 66.2" id="10,1" /><path d="M 50.7 68.5 L 50.7 70.8 L 101.5 70.8" id="10,0" /></g><g class="toytree-Nodes" style="fill:rgb(100%,0%,0%);fill-opacity:1.0;stroke:None;stroke-width:1"><g id="node-0" transform="translate(101.473,70.833)"><circle r="2.5" /></g><g id="node-1" transform="translate(96.975,66.204)"><circle r="2.5" /></g><g id="node-2" transform="translate(108.201,61.574)"><circle r="2.5" /></g><g id="node-3" transform="translate(93.341,56.944)"><circle r="2.5" /></g><g id="node-4" transform="translate(110.263,52.315)"><circle r="2.5" /></g><g id="node-5" transform="translate(106.173,47.685)"><circle r="2.5" /></g><g id="node-6" transform="translate(102.122,43.056)"><circle r="2.5" /></g><g id="node-7" transform="translate(100.213,38.426)"><circle r="2.5" /></g><g id="node-8" transform="translate(92.982,33.796)"><circle r="2.5" /></g><g id="node-9" transform="translate(100.859,29.167)"><circle r="2.5" /></g><g id="node-10" transform="translate(50.702,68.519)"><circle r="0.0" /></g><g id="node-11" transform="translate(48.576,65.046)"><circle r="0.0" /></g><g id="node-12" transform="translate(46.828,60.995)"><circle r="0.0" /></g><g id="node-13" transform="translate(48.357,50.000)"><circle r="0.0" /></g><g id="node-14" transform="translate(45.006,55.498)"><circle r="0.0" /></g><g id="node-15" transform="translate(43.687,49.277)"><circle r="0.0" /></g><g id="node-16" transform="translate(40.232,36.111)"><circle r="0.0" /></g><g id="node-17" transform="translate(38.316,42.694)"><circle r="0.0" /></g><g id="node-18" transform="translate(25.000,35.930)"><circle r="0.0" /></g></g></g></g></g><g class="toyplot-coordinates-Cartesian" id="t83e96a0631a744b1810610053cb09ddb"><clipPath id="tc7d4633869404487ac564f1d42867f59"><rect x="155.0" y="15.0" width="110.0" height="70.0" /></clipPath><g clip-path="url(#tc7d4633869404487ac564f1d42867f59)"><g class="toytree-mark-Toytree" id="tebd5f14983074cba8df48928419137bb"><g class="toytree-Edges" style="fill:none;stroke:rgb(14.9%,14.9%,14.9%);stroke-linecap:round;stroke-opacity:1;stroke-width:0.5"><path d="M 165.0 40.1 L 165.0 32.6 L 182.8 32.6" id="18,17" /><path d="M 165.0 40.1 L 165.0 47.6 L 183.2 47.6" id="18,16" /><path d="M 182.8 32.6 L 182.8 36.1 L 204.6 36.1" id="17,15" /><path d="M 183.2 47.6 L 183.2 52.2 L 189.7 52.2" id="16,14" /><path d="M 189.7 52.2 L 189.7 56.7 L 189.8 56.7" id="14,13" /><path d="M 189.8 56.7 L 189.8 61.0 L 192.9 61.0" id="13,12" /><path d="M 192.9 61.0 L 192.9 65.0 L 196.2 65.0" id="12,11" /><path d="M 196.2 65.0 L 196.2 68.5 L 199.5 68.5" id="11,10" /><path d="M 182.8 32.6 L 182.8 29.2 L 182.8 29.2" id="17,9" /><path d="M 204.6 36.1 L 204.6 33.8 L 250.3 33.8" id="15,8" /><path d="M 204.6 36.1 L 204.6 38.4 L 213.6 38.4" id="15,7" /><path d="M 183.2 47.6 L 183.2 43.1 L 183.2 43.1" id="16,6" /><path d="M 189.7 52.2 L 189.7 47.7 L 191.7 47.7" id="14,5" /><path d="M 189.8 56.7 L 189.8 52.3 L 203.9 52.3" id="13,4" /><path d="M 192.9 61.0 L 192.9 56.9 L 200.8 56.9" id="12,3" /><path d="M 196.2 65.0 L 196.2 61.6 L 231.9 61.6" id="11,2" /><path d="M 199.5 68.5 L 199.5 66.2 L 203.0 66.2" id="10,1" /><path d="M 199.5 68.5 L 199.5 70.8 L 209.5 70.8" id="10,0" /></g><g class="toytree-Nodes" style="fill:rgb(100%,0%,0%);fill-opacity:1.0;stroke:None;stroke-width:1"><g id="node-0" transform="translate(209.497,70.833)"><circle r="2.5" /></g><g id="node-1" transform="translate(202.970,66.204)"><circle r="2.5" /></g><g id="node-2" transform="translate(231.938,61.574)"><circle r="2.5" /></g><g id="node-3" transform="translate(200.790,56.944)"><circle r="2.5" /></g><g id="node-4" transform="translate(203.940,52.315)"><circle r="2.5" /></g><g id="node-5" transform="translate(191.700,47.685)"><circle r="2.5" /></g><g id="node-6" transform="translate(183.235,43.056)"><circle r="2.5" /></g><g id="node-7" transform="translate(213.573,38.426)"><circle r="2.5" /></g><g id="node-8" transform="translate(250.263,33.796)"><circle r="2.5" /></g><g id="node-9" transform="translate(182.803,29.167)"><circle r="2.5" /></g><g id="node-10" transform="translate(199.494,68.519)"><circle r="0.0" /></g><g id="node-11" transform="translate(196.184,65.046)"><circle r="0.0" /></g><g id="node-12" transform="translate(192.925,60.995)"><circle r="0.0" /></g><g id="node-13" transform="translate(189.818,56.655)"><circle r="0.0" /></g><g id="node-14" transform="translate(189.700,52.170)"><circle r="0.0" /></g><g id="node-15" transform="translate(204.582,36.111)"><circle r="0.0" /></g><g id="node-16" transform="translate(183.235,47.613)"><circle r="0.0" /></g><g id="node-17" transform="translate(182.803,32.639)"><circle r="0.0" /></g><g id="node-18" transform="translate(165.000,40.126)"><circle r="0.0" /></g></g></g></g></g><g class="toyplot-coordinates-Cartesian" id="tf6b213cdca6040cfb482fdb03d34522b"><clipPath id="tbb75ac6fad5d42f09e51441de49b2c47"><rect x="295.0" y="15.0" width="110.0" height="70.0" /></clipPath><g clip-path="url(#tbb75ac6fad5d42f09e51441de49b2c47)"><g class="toytree-mark-Toytree" id="t84609ae359054f7da473a17eb2a27d23"><g class="toytree-Edges" style="fill:none;stroke:rgb(14.9%,14.9%,14.9%);stroke-linecap:round;stroke-opacity:1;stroke-width:0.5"><path d="M 305.0 41.0 L 305.0 32.6 L 319.2 32.6" id="18,17" /><path d="M 305.0 41.0 L 305.0 49.3 L 321.0 49.3" id="18,16" /><path d="M 319.2 32.6 L 319.2 36.1 L 329.4 36.1" id="17,15" /><path d="M 321.0 49.3 L 321.0 55.5 L 322.5 55.5" id="16,14" /><path d="M 322.5 55.5 L 322.5 50.0 L 326.4 50.0" id="14,13" /><path d="M 322.5 55.5 L 322.5 61.0 L 334.1 61.0" id="14,12" /><path d="M 334.1 61.0 L 334.1 65.0 L 346.9 65.0" id="12,11" /><path d="M 346.9 65.0 L 346.9 68.5 L 351.0 68.5" id="11,10" /><path d="M 319.2 32.6 L 319.2 29.2 L 335.1 29.2" id="17,9" /><path d="M 329.4 36.1 L 329.4 33.8 L 372.5 33.8" id="15,8" /><path d="M 329.4 36.1 L 329.4 38.4 L 376.8 38.4" id="15,7" /><path d="M 321.0 49.3 L 321.0 43.1 L 338.0 43.1" id="16,6" /><path d="M 326.4 50.0 L 326.4 47.7 L 346.8 47.7" id="13,5" /><path d="M 326.4 50.0 L 326.4 52.3 L 337.9 52.3" id="13,4" /><path d="M 334.1 61.0 L 334.1 56.9 L 354.1 56.9" id="12,3" /><path d="M 346.9 65.0 L 346.9 61.6 L 390.3 61.6" id="11,2" /><path d="M 351.0 68.5 L 351.0 66.2 L 385.8 66.2" id="10,1" /><path d="M 351.0 68.5 L 351.0 70.8 L 374.9 70.8" id="10,0" /></g><g class="toytree-Nodes" style="fill:rgb(100%,0%,0%);fill-opacity:1.0;stroke:None;stroke-width:1"><g id="node-0" transform="translate(374.942,70.833)"><circle r="2.5" /></g><g id="node-1" transform="translate(385.801,66.204)"><circle r="2.5" /></g><g id="node-2" transform="translate(390.263,61.574)"><circle r="2.5" /></g><g id="node-3" transform="translate(354.119,56.944)"><circle r="2.5" /></g><g id="node-4" transform="translate(337.865,52.315)"><circle r="2.5" /></g><g id="node-5" transform="translate(346.818,47.685)"><circle r="2.5" /></g><g id="node-6" transform="translate(337.962,43.056)"><circle r="2.5" /></g><g id="node-7" transform="translate(376.823,38.426)"><circle r="2.5" /></g><g id="node-8" transform="translate(372.465,33.796)"><circle r="2.5" /></g><g id="node-9" transform="translate(335.083,29.167)"><circle r="2.5" /></g><g id="node-10" transform="translate(351.042,68.519)"><circle r="0.0" /></g><g id="node-11" transform="translate(346.936,65.046)"><circle r="0.0" /></g><g id="node-12" transform="translate(334.064,60.995)"><circle r="0.0" /></g><g id="node-13" transform="translate(326.386,50.000)"><circle r="0.0" /></g><g id="node-14" transform="translate(322.457,55.498)"><circle r="0.0" /></g><g id="node-15" transform="translate(329.446,36.111)"><circle r="0.0" /></g><g id="node-16" transform="translate(321.044,49.277)"><circle r="0.0" /></g><g id="node-17" transform="translate(319.228,32.639)"><circle r="0.0" /></g><g id="node-18" transform="translate(305.000,40.958)"><circle r="0.0" /></g></g></g></g></g><g class="toyplot-coordinates-Cartesian" id="t7cdc56ccc80d46f897d6954a14df7dae"><clipPath id="ta7e061f51d194f22bca1a2e1a4d70950"><rect x="435.0" y="15.0" width="110.0" height="70.0" /></clipPath><g clip-path="url(#ta7e061f51d194f22bca1a2e1a4d70950)"><g class="toytree-mark-Toytree" id="t371ecf26bd4c48499605c3605d43fbe3"><g class="toytree-Edges" style="fill:none;stroke:rgb(14.9%,14.9%,14.9%);stroke-linecap:round;stroke-opacity:1;stroke-width:0.5"><path d="M 445.0 40.1 L 445.0 32.6 L 453.4 32.6" id="18,17" /><path d="M 445.0 40.1 L 445.0 47.6 L 448.9 47.6" id="18,16" /><path d="M 453.4 32.6 L 453.4 36.1 L 458.2 36.1" id="17,15" /><path d="M 448.9 47.6 L 448.9 52.2 L 452.1 52.2" id="16,14" /><path d="M 452.1 52.2 L 452.1 56.7 L 454.0 56.7" id="14,13" /><path d="M 454.0 56.7 L 454.0 61.0 L 457.3 61.0" id="13,12" /><path d="M 457.3 61.0 L 457.3 65.0 L 460.0 65.0" id="12,11" /><path d="M 460.0 65.0 L 460.0 68.5 L 463.3 68.5" id="11,10" /><path d="M 453.4 32.6 L 453.4 29.2 L 472.8 29.2" id="17,9" /><path d="M 458.2 36.1 L 458.2 33.8 L 530.3 33.8" id="15,8" /><path d="M 458.2 36.1 L 458.2 38.4 L 462.6 38.4" id="15,7" /><path d="M 448.9 47.6 L 448.9 43.1 L 470.1 43.1" id="16,6" /><path d="M 452.1 52.2 L 452.1 47.7 L 464.1 47.7" id="14,5" /><path d="M 454.0 56.7 L 454.0 52.3 L 469.6 52.3" id="13,4" /><path d="M 457.3 61.0 L 457.3 56.9 L 466.4 56.9" id="12,3" /><path d="M 460.0 65.0 L 460.0 61.6 L 486.9 61.6" id="11,2" /><path d="M 463.3 68.5 L 463.3 66.2 L 485.3 66.2" id="10,1" /><path d="M 463.3 68.5 L 463.3 70.8 L 480.9 70.8" id="10,0" /></g><g class="toytree-Nodes" style="fill:rgb(100%,0%,0%);fill-opacity:1.0;stroke:None;stroke-width:1"><g id="node-0" transform="translate(480.916,70.833)"><circle r="2.5" /></g><g id="node-1" transform="translate(485.338,66.204)"><circle r="2.5" /></g><g id="node-2" transform="translate(486.923,61.574)"><circle r="2.5" /></g><g id="node-3" transform="translate(466.389,56.944)"><circle r="2.5" /></g><g id="node-4" transform="translate(469.573,52.315)"><circle r="2.5" /></g><g id="node-5" transform="translate(464.116,47.685)"><circle r="2.5" /></g><g id="node-6" transform="translate(470.089,43.056)"><circle r="2.5" /></g><g id="node-7" transform="translate(462.606,38.426)"><circle r="2.5" /></g><g id="node-8" transform="translate(530.263,33.796)"><circle r="2.5" /></g><g id="node-9" transform="translate(472.786,29.167)"><circle r="2.5" /></g><g id="node-10" transform="translate(463.278,68.519)"><circle r="0.0" /></g><g id="node-11" transform="translate(460.017,65.046)"><circle r="0.0" /></g><g id="node-12" transform="translate(457.278,60.995)"><circle r="0.0" /></g><g id="node-13" transform="translate(454.001,56.655)"><circle r="0.0" /></g><g id="node-14" transform="translate(452.147,52.170)"><circle r="0.0" /></g><g id="node-15" transform="translate(458.238,36.111)"><circle r="0.0" /></g><g id="node-16" transform="translate(448.894,47.613)"><circle r="0.0" /></g><g id="node-17" transform="translate(453.370,32.639)"><circle r="0.0" /></g><g id="node-18" transform="translate(445.000,40.126)"><circle r="0.0" /></g></g></g></g></g></svg>