<svg class="toyplot-canvas-Canvas" xmlns:toyplot="http://www.sandia.gov/toyplot" xmlns:xlink="http://www.w3.org/1999/xlink" xmlns="http://www.w3.org/2000/svg" width="560.0px" height="100.0px" viewBox="0 0 560.0 100.0" preserveAspectRatio="xMidYMid meet" style="background-color:transparent;border-color:#292724;border-style:none;border-width:1.0;fill:rgb(16.1%,15.3%,14.1%);fill-opacity:1.0;font-family:Helvetica;font-size:12px;opacity:1.0;stroke:rgb(16.1%,15.3%,14.1%);stroke-opacity:1.0;stroke-width:1.0" id="tfd3839bf8f8d49a184e2edf1e04a6a2f"><g class="toyplot-coordinates-Cartesian" id="t7d7deef712f24b049b2545c6a212af6c"><clipPath id="t8fa139845a8d4eba9ee5fda3f9c44a8c"><rect x="15.0" y="15.0" width="110.0" height="70.0" /></clipPath><g clip-path="url(#t8fa139845a8d4eba9ee5fda3f9c44a8c)"><g class="toytree-mark-Toytree" id="t0a2cc97221f041de9c6323854fd3aa43"><g class="toytree-Edges" style="fill:none;stroke:rgb(14.9%,14.9%,14.9%);stroke-linecap:round;stroke-opacity:1;stroke-width:0.5"><path d="M 25.0 43.0 L 25.0 33.3 L 28.9 33.3" id="46,45" /><path d="M 25.0 43.0 L 25.0 52.7 L 30.6 52.7" id="46,44" /><path d="M 28.9 33.3 L 28.9 30.1 L 39.9 30.1" id="45,43" /><path d="M 28.9 33.3 L 28.9 36.5 L 32.7 36.5" id="45,42" /><path d="M 30.6 52.7 L 30.6 47.2 L 35.1 47.2" id="44,41" /><path d="M 30.6 52.7 L 30.6 58.2 L 32.7 58.2" id="44,40" /><path d="M 32.7 36.5 L 32.7 33.7 L 35.6 33.7" id="42,39" /><path d="M 32.7 36.5 L 32.7 39.4 L 48.0 39.4" id="42,38" /><path d="M 35.1 47.2 L 35.1 49.0 L 40.6 49.0" id="41,37" /><path d="M 32.7 58.2 L 32.7 60.1 L 35.5 60.1" id="40,36" /><path d="M 48.0 39.4 L 48.0 37.3 L 70.2 37.3" id="38,35" /><path d="M 48.0 39.4 L 48.0 41.4 L 74.6 41.4" id="38,34" /><path d="M 40.6 49.0 L 40.6 50.7 L 60.8 50.7" id="37,33" /><path d="M 35.5 60.1 L 35.5 62.1 L 39.7 62.1" id="36,32" /><path d="M 74.6 41.4 L 74.6 42.8 L 80.0 42.8" id="34,31" /><path d="M 60.8 50.7 L 60.8 52.3 L 73.3 52.3" id="33,30" /><path d="M 39.7 62.1 L 39.7 64.2 L 42.0 64.2" id="32,29" /><path d="M 73.3 52.3 L 73.3 53.6 L 78.2 53.6" id="30,28" /><path d="M 42.0 64.2 L 42.0 66.5 L 60.9 66.5" id="29,27" /><path d="M 60.9 66.5 L 60.9 64.5 L 77.1 64.5" id="27,26" /><path d="M 60.9 66.5 L 60.9 68.6 L 79.3 68.6" id="27,25" /><path d="M 79.3 68.6 L 79.3 69.9 L 79.7 69.9" id="25,24" /><path d="M 39.9 30.1 L 39.9 29.2 L 78.5 29.2" id="43,23" /><path d="M 39.9 30.1 L 39.9 31.0 L 78.6 31.0" id="43,22" /><path d="M 35.6 33.7 L 35.6 32.8 L 77.9 32.8" id="39,21" /><path d="M 35.6 33.7 L 35.6 34.6 L 78.7 34.6" id="39,20" /><path d="M 70.2 37.3 L 70.2 36.4 L 85.4 36.4" id="35,19" /><path d="M 70.2 37.3 L 70.2 38.2 L 85.3 38.2" id="35,18" /><path d="M 74.6 41.4 L 74.6 40.0 L 88.2 40.0" id="34,17" /><path d="M 80.0 42.8 L 80.0 41.8 L 84.0 41.8" id="31,16" /><path d="M 80.0 42.8 L 80.0 43.7 L 82.9 43.7" id="31,15" /><path d="M 35.1 47.2 L 35.1 45.5 L 85.4 45.5" id="41,14" /><path d="M 40.6 49.0 L 40.6 47.3 L 80.3 47.3" id="37,13" /><path d="M 60.8 50.7 L 60.8 49.1 L 81.6 49.1" id="33,12" /><path d="M 73.3 52.3 L 73.3 50.9 L 81.0 50.9" id="30,11" /><path d="M 78.2 53.6 L 78.2 52.7 L 80.5 52.7" id="28,10" /><path d="M 78.2 53.6 L 78.2 54.5 L 80.6 54.5" id="28,9" /><path d="M 32.7 58.2 L 32.7 56.3 L 81.8 56.3" id="40,8" /><path d="M 35.5 60.1 L 35.5 58.2 L 80.6 58.2" id="36,7" /><path d="M 39.7 62.1 L 39.7 60.0 L 76.5 60.0" id="32,6" /><path d="M 42.0 64.2 L 42.0 61.8 L 110.3 61.8" id="29,5" /><path d="M 77.1 64.5 L 77.1 63.6 L 80.8 63.6" id="26,4" /><path d="M 77.1 64.5 L 77.1 65.4 L 81.5 65.4" id="26,3" /><path d="M 79.3 68.6 L 79.3 67.2 L 79.8 67.2" id="25,2" /><path d="M 79.7 69.9 L 79.7 69.0 L 79.8 69.0" id="24,1" /><path d="M 79.7 69.9 L 79.7 70.8 L 80.0 70.8" id="24,0" /></g><g class="toytree-Nodes" style="fill:rgb(100%,0%,0%);fill-opacity:1.0;stroke:None;stroke-width:1"><g id="node-0" transform="translate(80.024,70.833)"><circle r="2.5" /></g><g id="node-1" transform="translate(79.811,69.022)"><circle r="2.5" /></g><g id="node-2" transform="translate(79.827,67.210)"><circle r="2.5" /></g><g id="node-3" transform="translate(81.522,65.399)"><circle r="2.5" /></g><g id="node-4" transform="translate(80.782,63.587)"><circle r="2.5" /></g><g id="node-5" transform="translate(110.263,61.775)"><circle r="2.5" /></g><g id="node-6" transform="translate(76.480,59.964)"><circle r="2.5" /></g><g id="node-7" transform="translate(80.560,58.152)"><circle r="2.5" /></g><g id="node-8" transform="translate(81.806,56.341)"><circle r="2.5" /></g><g id="node-9" transform="translate(80.555,54.529)"><circle r="2.5" /></g><g id="node-10" transform="translate(80.471,52.717)"><circle r="2.5" /></g><g id="node-11" transform="translate(80.963,50.906)"><circle r="2.5" /></g><g id="node-12" transform="translate(81.632,49.094)"><circle r="2.5" /></g><g id="node-13" transform="translate(80.257,47.283)"><circle r="2.5" /></g><g id="node-14" transform="translate(85.353,45.471)"><circle r="2.5" /></g><g id="node-15" transform="translate(82.941,43.659)"><circle r="2.5" /></g><g id="node-16" transform="translate(83.960,41.848)"><circle r="2.5" /></g><g id="node-17" transform="translate(88.187,40.036)"><circle r="2.5" /></g><g id="node-18" transform="translate(85.274,38.225)"><circle r="2.5" /></g><g id="node-19" transform="translate(85.417,36.413)"><circle r="2.5" /></g><g id="node-20" transform="translate(78.686,34.601)"><circle r="2.5" /></g><g id="node-21" transform="translate(77.862,32.790)"><circle r="2.5" /></g><g id="node-22" transform="translate(78.598,30.978)"><circle r="2.5" /></g><g id="node-23" transform="translate(78.487,29.167)"><circle r="2.5" /></g><g id="node-24" transform="translate(79.656,69.928)"><circle r="0.0" /></g><g id="node-25" transform="translate(79.262,68.569)"><circle r="0.0" /></g><g id="node-26" transform="translate(77.050,64.493)"><circle r="0.0" /></g><g id="node-27" transform="translate(60.915,66.531)"><circle r="0.0" /></g><g id="node-28" transform="translate(78.157,53.623)"><circle r="0.0" /></g><g id="node-29" transform="translate(41.955,64.153)"><circle r="0.0" /></g><g id="node-30" transform="translate(73.277,52.264)"><circle r="0.0" /></g><g id="node-31" transform="translate(80.047,42.754)"><circle r="0.0" /></g><g id="node-32" transform="translate(39.708,62.058)"><circle r="0.0" /></g><g id="node-33" transform="translate(60.809,50.679)"><circle r="0.0" /></g><g id="node-34" transform="translate(74.562,41.395)"><circle r="0.0" /></g><g id="node-35" transform="translate(70.205,37.319)"><circle r="0.0" /></g><g id="node-36" transform="translate(35.453,60.105)"><circle r="0.0" /></g><g id="node-37" transform="translate(40.584,48.981)"><circle r="0.0" /></g><g id="node-38" transform="translate(47.960,39.357)"><circle r="0.0" /></g><g id="node-39" transform="translate(35.645,33.696)"><circle r="0.0" /></g><g id="node-40" transform="translate(32.745,58.223)"><circle r="0.0" /></g><g id="node-41" transform="translate(35.066,47.226)"><circle r="0.0" /></g><g id="node-42" transform="translate(32.722,36.526)"><circle r="0.0" /></g><g id="node-43" transform="translate(39.928,30.072)"><circle r="0.0" /></g><g id="node-44" transform="translate(30.586,52.724)"><circle r="0.0" /></g><g id="node-45" transform="translate(28.942,33.299)"><circle r="0.0" /></g><g id="node-46" transform="translate(25.000,43.012)"><circle r="0.0" /></g></g></g></g></g><g class="toyplot-coordinates-Cartesian" id="t5f3af581413a4f548f89db630660cace"><clipPath id="t56ebf2bb728e406e89d89ed0df26d412"><rect x="155.0" y="15.0" width="110.0" height="70.0" /></clipPath><g clip-path="url(#t56ebf2bb728e406e89d89ed0df26d412)"><g class="toytree-mark-Toytree" id="t22a59fc8ac0e43e99bd4a5b0695466a4"><g class="toytree-Edges" style="fill:none;stroke:rgb(14.9%,14.9%,14.9%);stroke-linecap:round;stroke-opacity:1;stroke-width:0.5"><path d="M 165.0 35.4 L 165.0 41.6 L 179.6 41.6" id="46,45" /><path d="M 179.6 41.6 L 179.6 33.9 L 181.3 33.9" id="45,44" /><path d="M 179.6 41.6 L 179.6 49.2 L 181.7 49.2" id="45,43" /><path d="M 181.3 33.9 L 181.3 31.9 L 187.4 31.9" id="44,42" /><path d="M 181.3 33.9 L 181.3 36.0 L 189.0 36.0" id="44,41" /><path d="M 181.7 49.2 L 181.7 43.0 L 183.3 43.0" id="43,40" /><path d="M 181.7 49.2 L 181.7 55.5 L 184.0 55.5" id="43,39" /><path d="M 189.0 36.0 L 189.0 37.3 L 191.1 37.3" id="41,38" /><path d="M 183.3 43.0 L 183.3 40.9 L 186.1 40.9" id="40,37" /><path d="M 183.3 43.0 L 183.3 45.0 L 189.4 45.0" id="40,36" /><path d="M 184.0 55.5 L 184.0 50.5 L 187.8 50.5" id="39,35" /><path d="M 184.0 55.5 L 184.0 60.5 L 184.9 60.5" id="39,34" /><path d="M 189.4 45.0 L 189.4 46.4 L 192.5 46.4" id="36,33" /><path d="M 187.8 50.5 L 187.8 51.8 L 192.3 51.8" id="35,32" /><path d="M 184.9 60.5 L 184.9 56.1 L 185.4 56.1" id="34,31" /><path d="M 184.9 60.5 L 184.9 64.8 L 185.6 64.8" id="34,30" /><path d="M 185.4 56.1 L 185.4 57.7 L 187.7 57.7" id="31,29" /><path d="M 185.6 64.8 L 185.6 62.7 L 188.8 62.7" id="30,28" /><path d="M 185.6 64.8 L 185.6 67.0 L 187.2 67.0" id="30,27" /><path d="M 187.7 57.7 L 187.7 59.1 L 193.0 59.1" id="29,26" /><path d="M 187.2 67.0 L 187.2 68.6 L 189.2 68.6" id="27,25" /><path d="M 189.2 68.6 L 189.2 69.9 L 196.9 69.9" id="25,24" /><path d="M 165.0 35.4 L 165.0 29.2 L 242.2 29.2" id="46,23" /><path d="M 187.4 31.9 L 187.4 31.0 L 237.6 31.0" id="42,22" /><path d="M 187.4 31.9 L 187.4 32.8 L 237.7 32.8" id="42,21" /><path d="M 189.0 36.0 L 189.0 34.6 L 235.5 34.6" id="41,20" /><path d="M 191.1 37.3 L 191.1 36.4 L 237.1 36.4" id="38,19" /><path d="M 191.1 37.3 L 191.1 38.2 L 236.8 38.2" id="38,18" /><path d="M 186.1 40.9 L 186.1 40.0 L 241.7 40.0" id="37,17" /><path d="M 186.1 40.9 L 186.1 41.8 L 242.2 41.8" id="37,16" /><path d="M 189.4 45.0 L 189.4 43.7 L 242.3 43.7" id="36,15" /><path d="M 192.5 46.4 L 192.5 45.5 L 244.4 45.5" id="33,14" /><path d="M 192.5 46.4 L 192.5 47.3 L 243.8 47.3" id="33,13" /><path d="M 187.8 50.5 L 187.8 49.1 L 249.5 49.1" id="35,12" /><path d="M 192.3 51.8 L 192.3 50.9 L 244.2 50.9" id="32,11" /><path d="M 192.3 51.8 L 192.3 52.7 L 245.4 52.7" id="32,10" /><path d="M 185.4 56.1 L 185.4 54.5 L 250.3 54.5" id="31,9" /><path d="M 187.7 57.7 L 187.7 56.3 L 244.1 56.3" id="29,8" /><path d="M 193.0 59.1 L 193.0 58.2 L 231.1 58.2" id="26,7" /><path d="M 193.0 59.1 L 193.0 60.0 L 246.6 60.0" id="26,6" /><path d="M 188.8 62.7 L 188.8 61.8 L 245.7 61.8" id="28,5" /><path d="M 188.8 62.7 L 188.8 63.6 L 244.0 63.6" id="28,4" /><path d="M 187.2 67.0 L 187.2 65.4 L 244.4 65.4" id="27,3" /><path d="M 189.2 68.6 L 189.2 67.2 L 245.9 67.2" id="25,2" /><path d="M 196.9 69.9 L 196.9 69.0 L 244.1 69.0" id="24,1" /><path d="M 196.9 69.9 L 196.9 70.8 L 242.6 70.8" id="24,0" /></g><g class="toytree-Nodes" style="fill:rgb(100%,0%,0%);fill-opacity:1.0;stroke:None;stroke-width:1"><g id="node-0" transform="translate(242.586,70.833)"><circle r="2.5" /></g><g id="node-1" transform="translate(244.141,69.022)"><circle r="2.5" /></g><g id="node-2" transform="translate(245.911,67.210)"><circle r="2.5" /></g><g id="node-3" transform="translate(244.352,65.399)"><circle r="2.5" /></g><g id="node-4" transform="translate(244.003,63.587)"><circle r="2.5" /></g><g id="node-5" transform="translate(245.682,61.775)"><circle r="2.5" /></g><g id="node-6" transform="translate(246.559,59.964)"><circle r="2.5" /></g><g id="node-7" transform="translate(231.066,58.152)"><circle r="2.5" /></g><g id="node-8" transform="translate(244.059,56.341)"><circle r="2.5" /></g><g id="node-9" transform="translate(250.263,54.529)"><circle r="2.5" /></g><g id="node-10" transform="translate(245.437,52.717)"><circle r="2.5" /></g><g id="node-11" transform="translate(244.240,50.906)"><circle r="2.5" /></g><g id="node-12" transform="translate(249.544,49.094)"><circle r="2.5" /></g><g id="node-13" transform="translate(243.770,47.283)"><circle r="2.5" /></g><g id="node-14" transform="translate(244.381,45.471)"><circle r="2.5" /></g><g id="node-15" transform="translate(242.275,43.659)"><circle r="2.5" /></g><g id="node-16" transform="translate(242.177,41.848)"><circle r="2.5" /></g><g id="node-17" transform="translate(241.669,40.036)"><circle r="2.5" /></g><g id="node-18" transform="translate(236.838,38.225)"><circle r="2.5" /></g><g id="node-19" transform="translate(237.073,36.413)"><circle r="2.5" /></g><g id="node-20" transform="translate(235.490,34.601)"><circle r="2.5" /></g><g id="node-21" transform="translate(237.655,32.790)"><circle r="2.5" /></g><g id="node-22" transform="translate(237.573,30.978)"><circle r="2.5" /></g><g id="node-23" transform="translate(242.198,29.167)"><circle r="2.5" /></g><g id="node-24" transform="translate(196.941,69.928)"><circle r="0.0" /></g><g id="node-25" transform="translate(189.173,68.569)"><circle r="0.0" /></g><g id="node-26" transform="translate(192.976,59.058)"><circle r="0.0" /></g><g id="node-27" transform="translate(187.213,66.984)"><circle r="0.0" /></g><g id="node-28" transform="translate(188.788,62.681)"><circle r="0.0" /></g><g id="node-29" transform="translate(187.730,57.699)"><circle r="0.0" /></g><g id="node-30" transform="translate(185.620,64.832)"><circle r="0.0" /></g><g id="node-31" transform="translate(185.416,56.114)"><circle r="0.0" /></g><g id="node-32" transform="translate(192.256,51.812)"><circle r="0.0" /></g><g id="node-33" transform="translate(192.531,46.377)"><circle r="0.0" /></g><g id="node-34" transform="translate(184.896,60.473)"><circle r="0.0" /></g><g id="node-35" transform="translate(187.843,50.453)"><circle r="0.0" /></g><g id="node-36" transform="translate(189.358,45.018)"><circle r="0.0" /></g><g id="node-37" transform="translate(186.144,40.942)"><circle r="0.0" /></g><g id="node-38" transform="translate(191.128,37.319)"><circle r="0.0" /></g><g id="node-39" transform="translate(183.990,55.463)"><circle r="0.0" /></g><g id="node-40" transform="translate(183.264,42.980)"><circle r="0.0" /></g><g id="node-41" transform="translate(188.971,35.960)"><circle r="0.0" /></g><g id="node-42" transform="translate(187.419,31.884)"><circle r="0.0" /></g><g id="node-43" transform="translate(181.726,49.222)"><circle r="0.0" /></g><g id="node-44" transform="translate(181.267,33.922)"><circle r="0.0" /></g><g id="node-45" transform="translate(179.622,41.572)"><circle r="0.0" /></g><g id="node-46" transform="translate(165.000,35.369)"><circle r="0.0" /></g></g></g></g></g><g class="toyplot-coordinates-Cartesian" id="t2616fc7f905c4cc59875dc5d83efd71e"><clipPath id="t506183c095094aeeb6d37bb9c33dc5b8"><rect x="295.0" y="15.0" width="110.0" height="70.0" /></clipPath><g clip-path="url(#t506183c095094aeeb6d37bb9c33dc5b8)"><g class="toytree-mark-Toytree" id="t9bfa9dcc6d234c07abcb6e56b30c5e07"><g class="toytree-Edges" style="fill:none;stroke:rgb(14.9%,14.9%,14.9%);stroke-linecap:round;stroke-opacity:1;stroke-width:0.5"><path d="M 305.0 42.8 L 305.0 33.3 L 311.6 33.3" id="46,45" /><path d="M 305.0 42.8 L 305.0 52.2 L 306.5 52.2" id="46,44" /><path d="M 311.6 33.3 L 311.6 30.1 L 316.7 30.1" id="45,43" /><path d="M 311.6 33.3 L 311.6 36.5 L 312.5 36.5" id="45,42" /><path d="M 306.5 52.2 L 306.5 47.2 L 310.9 47.2" id="44,41" /><path d="M 306.5 52.2 L 306.5 57.3 L 309.0 57.3" id="44,40" /><path d="M 312.5 36.5 L 312.5 33.7 L 315.3 33.7" id="42,39" /><path d="M 312.5 36.5 L 312.5 39.4 L 320.2 39.4" id="42,38" /><path d="M 310.9 47.2 L 310.9 48.9 L 316.7 48.9" id="41,37" /><path d="M 309.0 57.3 L 309.0 60.1 L 309.5 60.1" id="40,36" /><path d="M 320.2 39.4 L 320.2 37.3 L 323.8 37.3" id="38,35" /><path d="M 320.2 39.4 L 320.2 41.4 L 325.6 41.4" id="38,34" /><path d="M 316.7 48.9 L 316.7 50.5 L 322.8 50.5" id="37,33" /><path d="M 309.5 60.1 L 309.5 57.2 L 312.4 57.2" id="36,32" /><path d="M 309.5 60.1 L 309.5 62.9 L 311.1 62.9" id="36,31" /><path d="M 325.6 41.4 L 325.6 42.8 L 329.8 42.8" id="34,30" /><path d="M 322.8 50.5 L 322.8 51.8 L 330.0 51.8" id="33,29" /><path d="M 311.1 62.9 L 311.1 65.9 L 314.1 65.9" id="31,28" /><path d="M 314.1 65.9 L 314.1 63.1 L 322.5 63.1" id="28,27" /><path d="M 314.1 65.9 L 314.1 68.6 L 317.9 68.6" id="28,26" /><path d="M 322.5 63.1 L 322.5 64.5 L 328.9 64.5" id="27,25" /><path d="M 317.9 68.6 L 317.9 69.9 L 323.5 69.9" id="26,24" /><path d="M 316.7 30.1 L 316.7 29.2 L 348.2 29.2" id="43,23" /><path d="M 316.7 30.1 L 316.7 31.0 L 352.3 31.0" id="43,22" /><path d="M 315.3 33.7 L 315.3 32.8 L 341.8 32.8" id="39,21" /><path d="M 315.3 33.7 L 315.3 34.6 L 347.8 34.6" id="39,20" /><path d="M 323.8 37.3 L 323.8 36.4 L 359.6 36.4" id="35,19" /><path d="M 323.8 37.3 L 323.8 38.2 L 348.0 38.2" id="35,18" /><path d="M 325.6 41.4 L 325.6 40.0 L 354.1 40.0" id="34,17" /><path d="M 329.8 42.8 L 329.8 41.8 L 353.1 41.8" id="30,16" /><path d="M 329.8 42.8 L 329.8 43.7 L 361.6 43.7" id="30,15" /><path d="M 310.9 47.2 L 310.9 45.5 L 356.5 45.5" id="41,14" /><path d="M 316.7 48.9 L 316.7 47.3 L 346.6 47.3" id="37,13" /><path d="M 322.8 50.5 L 322.8 49.1 L 352.3 49.1" id="33,12" /><path d="M 330.0 51.8 L 330.0 50.9 L 349.9 50.9" id="29,11" /><path d="M 330.0 51.8 L 330.0 52.7 L 351.0 52.7" id="29,10" /><path d="M 309.0 57.3 L 309.0 54.5 L 333.7 54.5" id="40,9" /><path d="M 312.4 57.2 L 312.4 56.3 L 354.8 56.3" id="32,8" /><path d="M 312.4 57.2 L 312.4 58.2 L 356.4 58.2" id="32,7" /><path d="M 311.1 62.9 L 311.1 60.0 L 350.3 60.0" id="31,6" /><path d="M 322.5 63.1 L 322.5 61.8 L 354.2 61.8" id="27,5" /><path d="M 328.9 64.5 L 328.9 63.6 L 351.6 63.6" id="25,4" /><path d="M 328.9 64.5 L 328.9 65.4 L 355.9 65.4" id="25,3" /><path d="M 317.9 68.6 L 317.9 67.2 L 390.3 67.2" id="26,2" /><path d="M 323.5 69.9 L 323.5 69.0 L 346.1 69.0" id="24,1" /><path d="M 323.5 69.9 L 323.5 70.8 L 349.4 70.8" id="24,0" /></g><g class="toytree-Nodes" style="fill:rgb(100%,0%,0%);fill-opacity:1.0;stroke:None;stroke-width:1"><g id="node-0" transform="translate(349.360,70.833)"><circle r="2.5" /></g><g id="node-1" transform="translate(346.137,69.022)"><circle r="2.5" /></g><g id="node-2" transform="translate(390.263,67.210)"><circle r="2.5" /></g><g id="node-3" transform="translate(355.900,65.399)"><circle r="2.5" /></g><g id="node-4" transform="translate(351.584,63.587)"><circle r="2.5" /></g><g id="node-5" transform="translate(354.207,61.775)"><circle r="2.5" /></g><g id="node-6" transform="translate(350.263,59.964)"><circle r="2.5" /></g><g id="node-7" transform="translate(356.444,58.152)"><circle r="2.5" /></g><g id="node-8" transform="translate(354.845,56.341)"><circle r="2.5" /></g><g id="node-9" transform="translate(333.665,54.529)"><circle r="2.5" /></g><g id="node-10" transform="translate(351.047,52.717)"><circle r="2.5" /></g><g id="node-11" transform="translate(349.941,50.906)"><circle r="2.5" /></g><g id="node-12" transform="translate(352.308,49.094)"><circle r="2.5" /></g><g id="node-13" transform="translate(346.579,47.283)"><circle r="2.5" /></g><g id="node-14" transform="translate(356.453,45.471)"><circle r="2.5" /></g><g id="node-15" transform="translate(361.609,43.659)"><circle r="2.5" /></g><g id="node-16" transform="translate(353.128,41.848)"><circle r="2.5" /></g><g id="node-17" transform="translate(354.085,40.036)"><circle r="2.5" /></g><g id="node-18" transform="translate(348.009,38.225)"><circle r="2.5" /></g><g id="node-19" transform="translate(359.650,36.413)"><circle r="2.5" /></g><g id="node-20" transform="translate(347.762,34.601)"><circle r="2.5" /></g><g id="node-21" transform="translate(341.822,32.790)"><circle r="2.5" /></g><g id="node-22" transform="translate(352.335,30.978)"><circle r="2.5" /></g><g id="node-23" transform="translate(348.240,29.167)"><circle r="2.5" /></g><g id="node-24" transform="translate(323.544,69.928)"><circle r="0.0" /></g><g id="node-25" transform="translate(328.875,64.493)"><circle r="0.0" /></g><g id="node-26" transform="translate(317.872,68.569)"><circle r="0.0" /></g><g id="node-27" transform="translate(322.542,63.134)"><circle r="0.0" /></g><g id="node-28" transform="translate(314.080,65.851)"><circle r="0.0" /></g><g id="node-29" transform="translate(330.034,51.812)"><circle r="0.0" /></g><g id="node-30" transform="translate(329.767,42.754)"><circle r="0.0" /></g><g id="node-31" transform="translate(311.148,62.908)"><circle r="0.0" /></g><g id="node-32" transform="translate(312.371,57.246)"><circle r="0.0" /></g><g id="node-33" transform="translate(322.757,50.453)"><circle r="0.0" /></g><g id="node-34" transform="translate(325.559,41.395)"><circle r="0.0" /></g><g id="node-35" transform="translate(323.811,37.319)"><circle r="0.0" /></g><g id="node-36" transform="translate(309.480,60.077)"><circle r="0.0" /></g><g id="node-37" transform="translate(316.728,48.868)"><circle r="0.0" /></g><g id="node-38" transform="translate(320.212,39.357)"><circle r="0.0" /></g><g id="node-39" transform="translate(315.280,33.696)"><circle r="0.0" /></g><g id="node-40" transform="translate(308.987,57.303)"><circle r="0.0" /></g><g id="node-41" transform="translate(310.917,47.169)"><circle r="0.0" /></g><g id="node-42" transform="translate(312.531,36.526)"><circle r="0.0" /></g><g id="node-43" transform="translate(316.714,30.072)"><circle r="0.0" /></g><g id="node-44" transform="translate(306.465,52.236)"><circle r="0.0" /></g><g id="node-45" transform="translate(311.602,33.299)"><circle r="0.0" /></g><g id="node-46" transform="translate(305.000,42.768)"><circle r="0.0" /></g></g></g></g></g><g class="toyplot-coordinates-Cartesian" id="t08aac982b45840cd801ebe9771ac2ae1"><clipPath id="t4b60846fd6584fa4b1f62375ae7eaf04"><rect x="435.0" y="15.0" width="110.0" height="70.0" /></clipPath><g clip-path="url(#t4b60846fd6584fa4b1f62375ae7eaf04)"><g class="toytree-mark-Toytree" id="tff556ee897a04666aecd2f19bd105f9b"><g class="toytree-Edges" style="fill:none;stroke:rgb(14.9%,14.9%,14.9%);stroke-linecap:round;stroke-opacity:1;stroke-width:0.5"><path d="M 445.0 43.7 L 445.0 33.3 L 451.3 33.3" id="46,45" /><path d="M 445.0 43.7 L 445.0 54.1 L 446.6 54.1" id="46,44" /><path d="M 451.3 33.3 L 451.3 30.1 L 456.4 30.1" id="45,43" /><path d="M 451.3 33.3 L 451.3 36.5 L 452.2 36.5" id="45,42" /><path d="M 446.6 54.1 L 446.6 47.2 L 450.9 47.2" id="44,41" /><path d="M 446.6 54.1 L 446.6 61.0 L 448.8 61.0" id="44,40" /><path d="M 452.2 36.5 L 452.2 33.7 L 455.4 33.7" id="42,39" /><path d="M 452.2 36.5 L 452.2 39.4 L 459.7 39.4" id="42,38" /><path d="M 450.9 47.2 L 450.9 48.9 L 457.5 48.9" id="41,37" /><path d="M 448.8 61.0 L 448.8 56.1 L 450.1 56.1" id="40,36" /><path d="M 448.8 61.0 L 448.8 65.9 L 451.5 65.9" id="40,35" /><path d="M 459.7 39.4 L 459.7 37.3 L 463.6 37.3" id="38,34" /><path d="M 459.7 39.4 L 459.7 41.4 L 465.0 41.4" id="38,33" /><path d="M 457.5 48.9 L 457.5 50.5 L 463.6 50.5" id="37,32" /><path d="M 450.1 56.1 L 450.1 57.7 L 451.2 57.7" id="36,31" /><path d="M 451.5 65.9 L 451.5 63.1 L 460.3 63.1" id="35,30" /><path d="M 451.5 65.9 L 451.5 68.6 L 454.5 68.6" id="35,29" /><path d="M 465.0 41.4 L 465.0 42.8 L 469.3 42.8" id="33,28" /><path d="M 463.6 50.5 L 463.6 51.8 L 471.6 51.8" id="32,27" /><path d="M 451.2 57.7 L 451.2 59.1 L 453.6 59.1" id="31,26" /><path d="M 460.3 63.1 L 460.3 64.5 L 467.0 64.5" id="30,25" /><path d="M 454.5 68.6 L 454.5 69.9 L 461.8 69.9" id="29,24" /><path d="M 456.4 30.1 L 456.4 29.2 L 493.2 29.2" id="43,23" /><path d="M 456.4 30.1 L 456.4 31.0 L 497.1 31.0" id="43,22" /><path d="M 455.4 33.7 L 455.4 32.8 L 486.9 32.8" id="39,21" /><path d="M 455.4 33.7 L 455.4 34.6 L 492.8 34.6" id="39,20" /><path d="M 463.6 37.3 L 463.6 36.4 L 504.2 36.4" id="34,19" /><path d="M 463.6 37.3 L 463.6 38.2 L 493.0 38.2" id="34,18" /><path d="M 465.0 41.4 L 465.0 40.0 L 498.5 40.0" id="33,17" /><path d="M 469.3 42.8 L 469.3 41.8 L 497.7 41.8" id="28,16" /><path d="M 469.3 42.8 L 469.3 43.7 L 505.8 43.7" id="28,15" /><path d="M 450.9 47.2 L 450.9 45.5 L 501.0 45.5" id="41,14" /><path d="M 457.5 48.9 L 457.5 47.3 L 492.4 47.3" id="37,13" /><path d="M 463.6 50.5 L 463.6 49.1 L 497.9 49.1" id="32,12" /><path d="M 471.6 51.8 L 471.6 50.9 L 495.6 50.9" id="27,11" /><path d="M 471.6 51.8 L 471.6 52.7 L 496.7 52.7" id="27,10" /><path d="M 450.1 56.1 L 450.1 54.5 L 480.0 54.5" id="36,9" /><path d="M 451.2 57.7 L 451.2 56.3 L 495.8 56.3" id="31,8" /><path d="M 453.6 59.1 L 453.6 58.2 L 501.2 58.2" id="26,7" /><path d="M 453.6 59.1 L 453.6 60.0 L 502.7 60.0" id="26,6" /><path d="M 460.3 63.1 L 460.3 61.8 L 496.9 61.8" id="30,5" /><path d="M 467.0 64.5 L 467.0 63.6 L 494.4 63.6" id="25,4" /><path d="M 467.0 64.5 L 467.0 65.4 L 498.6 65.4" id="25,3" /><path d="M 454.5 68.6 L 454.5 67.2 L 530.3 67.2" id="29,2" /><path d="M 461.8 69.9 L 461.8 69.0 L 489.0 69.0" id="24,1" /><path d="M 461.8 69.9 L 461.8 70.8 L 492.0 70.8" id="24,0" /></g><g class="toytree-Nodes" style="fill:rgb(100%,0%,0%);fill-opacity:1.0;stroke:None;stroke-width:1"><g id="node-0" transform="translate(492.040,70.833)"><circle r="2.5" /></g><g id="node-1" transform="translate(489.041,69.022)"><circle r="2.5" /></g><g id="node-2" transform="translate(530.263,67.210)"><circle r="2.5" /></g><g id="node-3" transform="translate(498.568,65.399)"><circle r="2.5" /></g><g id="node-4" transform="translate(494.397,63.587)"><circle r="2.5" /></g><g id="node-5" transform="translate(496.931,61.775)"><circle r="2.5" /></g><g id="node-6" transform="translate(502.736,59.964)"><circle r="2.5" /></g><g id="node-7" transform="translate(501.200,58.152)"><circle r="2.5" /></g><g id="node-8" transform="translate(495.771,56.341)"><circle r="2.5" /></g><g id="node-9" transform="translate(480.047,54.529)"><circle r="2.5" /></g><g id="node-10" transform="translate(496.709,52.717)"><circle r="2.5" /></g><g id="node-11" transform="translate(495.642,50.906)"><circle r="2.5" /></g><g id="node-12" transform="translate(497.942,49.094)"><circle r="2.5" /></g><g id="node-13" transform="translate(492.440,47.283)"><circle r="2.5" /></g><g id="node-14" transform="translate(500.981,45.471)"><circle r="2.5" /></g><g id="node-15" transform="translate(505.782,43.659)"><circle r="2.5" /></g><g id="node-16" transform="translate(497.681,41.848)"><circle r="2.5" /></g><g id="node-17" transform="translate(498.546,40.036)"><circle r="2.5" /></g><g id="node-18" transform="translate(492.976,38.225)"><circle r="2.5" /></g><g id="node-19" transform="translate(504.205,36.413)"><circle r="2.5" /></g><g id="node-20" transform="translate(492.758,34.601)"><circle r="2.5" /></g><g id="node-21" transform="translate(486.937,32.790)"><circle r="2.5" /></g><g id="node-22" transform="translate(497.071,30.978)"><circle r="2.5" /></g><g id="node-23" transform="translate(493.174,29.167)"><circle r="2.5" /></g><g id="node-24" transform="translate(461.841,69.928)"><circle r="0.0" /></g><g id="node-25" transform="translate(467.035,64.493)"><circle r="0.0" /></g><g id="node-26" transform="translate(453.562,59.058)"><circle r="0.0" /></g><g id="node-27" transform="translate(471.639,51.812)"><circle r="0.0" /></g><g id="node-28" transform="translate(469.333,42.754)"><circle r="0.0" /></g><g id="node-29" transform="translate(454.528,68.569)"><circle r="0.0" /></g><g id="node-30" transform="translate(460.256,63.134)"><circle r="0.0" /></g><g id="node-31" transform="translate(451.242,57.699)"><circle r="0.0" /></g><g id="node-32" transform="translate(463.559,50.453)"><circle r="0.0" /></g><g id="node-33" transform="translate(465.032,41.395)"><circle r="0.0" /></g><g id="node-34" transform="translate(463.626,37.319)"><circle r="0.0" /></g><g id="node-35" transform="translate(451.529,65.851)"><circle r="0.0" /></g><g id="node-36" transform="translate(450.102,56.114)"><circle r="0.0" /></g><g id="node-37" transform="translate(457.451,48.868)"><circle r="0.0" /></g><g id="node-38" transform="translate(459.721,39.357)"><circle r="0.0" /></g><g id="node-39" transform="translate(455.408,33.696)"><circle r="0.0" /></g><g id="node-40" transform="translate(448.788,60.983)"><circle r="0.0" /></g><g id="node-41" transform="translate(450.902,47.169)"><circle r="0.0" /></g><g id="node-42" transform="translate(452.190,36.526)"><circle r="0.0" /></g><g id="node-43" transform="translate(456.418,30.072)"><circle r="0.0" /></g><g id="node-44" transform="translate(446.630,54.076)"><circle r="0.0" /></g><g id="node-45" transform="translate(451.261,33.299)"><circle r="0.0" /></g><g id="node-46" transform="translate(445.000,43.688)"><circle r="0.0" /></g></g></g></g></g></svg>