<svg class="toyplot-canvas-Canvas" xmlns:toyplot="http://www.sandia.gov/toyplot" xmlns:xlink="http://www.w3.org/1999/xlink" xmlns="http://www.w3.org/2000/svg" width="560.0px" height="100.0px" viewBox="0 0 560.0 100.0" preserveAspectRatio="xMidYMid meet" style="background-color:transparent;border-color:#292724;border-style:none;border-width:1.0;fill:rgb(16.1%,15.3%,14.1%);fill-opacity:1.0;font-family:Helvetica;font-size:12px;opacity:1.0;stroke:rgb(16.1%,15.3%,14.1%);stroke-opacity:1.0;stroke-width:1.0" id="t68a7e269ea1e43a4becd205e67eb4a3c"><g class="toyplot-coordinates-Cartesian" id="t6cf6badcc4ef4a8684a0360c4606e3f6"><clipPath id="tbf9ee201fbb94801a104edf3dcc11c40"><rect x="15.0" y="15.0" width="110.0" height="70.0" /></clipPath><g clip-path="url(#tbf9ee201fbb94801a104edf3dcc11c40)"><g class="toytree-mark-Toytree" id="t56a51a6ab42d4fae90ec192ff928aa51"><g class="toytree-Edges" style="fill:none;stroke:rgb(14.9%,14.9%,14.9%);stroke-linecap:round;stroke-opacity:1;stroke-width:0.5"><path d="M 25.0 39.4 L 25.0 32.3 L 33.7 32.3" id="20,19" /><path d="M 25.0 39.4 L 25.0 46.5 L 28.5 46.5" id="20,18" /><path d="M 33.7 32.3 L 33.7 35.4 L 39.1 35.4" id="19,17" /><path d="M 28.5 46.5 L 28.5 51.4 L 65.6 51.4" id="18,16" /><path d="M 65.6 51.4 L 65.6 57.0 L 69.9 57.0" id="16,15" /><path d="M 69.9 57.0 L 69.9 52.1 L 90.7 52.1" id="15,14" /><path d="M 69.9 57.0 L 69.9 62.0 L 77.1 62.0" id="15,13" /><path d="M 77.1 62.0 L 77.1 65.6 L 87.5 65.6" id="13,12" /><path d="M 87.5 65.6 L 87.5 68.8 L 99.7 68.8" id="12,11" /><path d="M 33.7 32.3 L 33.7 29.2 L 96.4 29.2" id="19,10" /><path d="M 39.1 35.4 L 39.1 33.3 L 89.6 33.3" id="17,9" /><path d="M 39.1 35.4 L 39.1 37.5 L 110.3 37.5" id="17,8" /><path d="M 28.5 46.5 L 28.5 41.7 L 99.3 41.7" id="18,7" /><path d="M 65.6 51.4 L 65.6 45.8 L 96.6 45.8" id="16,6" /><path d="M 90.7 52.1 L 90.7 50.0 L 99.8 50.0" id="14,5" /><path d="M 90.7 52.1 L 90.7 54.2 L 99.5 54.2" id="14,4" /><path d="M 77.1 62.0 L 77.1 58.3 L 97.0 58.3" id="13,3" /><path d="M 87.5 65.6 L 87.5 62.5 L 93.1 62.5" id="12,2" /><path d="M 99.7 68.8 L 99.7 66.7 L 99.7 66.7" id="11,1" /><path d="M 99.7 68.8 L 99.7 70.8 L 99.7 70.8" id="11,0" /></g><g class="toytree-Nodes" style="fill:rgb(100%,0%,0%);fill-opacity:1.0;stroke:None;stroke-width:1"><g id="node-0" transform="translate(99.715,70.833)"><circle r="2.5" /></g><g id="node-1" transform="translate(99.715,66.667)"><circle r="2.5" /></g><g id="node-2" transform="translate(93.146,62.500)"><circle r="2.5" /></g><g id="node-3" transform="translate(97.029,58.333)"><circle r="2.5" /></g><g id="node-4" transform="translate(99.504,54.167)"><circle r="2.5" /></g><g id="node-5" transform="translate(99.772,50.000)"><circle r="2.5" /></g><g id="node-6" transform="translate(96.579,45.833)"><circle r="2.5" /></g><g id="node-7" transform="translate(99.328,41.667)"><circle r="2.5" /></g><g id="node-8" transform="translate(110.263,37.500)"><circle r="2.5" /></g><g id="node-9" transform="translate(89.649,33.333)"><circle r="2.5" /></g><g id="node-10" transform="translate(96.383,29.167)"><circle r="2.5" /></g><g id="node-11" transform="translate(99.715,68.750)"><circle r="0.0" /></g><g id="node-12" transform="translate(87.454,65.625)"><circle r="0.0" /></g><g id="node-13" transform="translate(77.126,61.979)"><circle r="0.0" /></g><g id="node-14" transform="translate(90.661,52.083)"><circle r="0.0" /></g><g id="node-15" transform="translate(69.895,57.031)"><circle r="0.0" /></g><g id="node-16" transform="translate(65.611,51.432)"><circle r="0.0" /></g><g id="node-17" transform="translate(39.055,35.417)"><circle r="0.0" /></g><g id="node-18" transform="translate(28.486,46.549)"><circle r="0.0" /></g><g id="node-19" transform="translate(33.705,32.292)"><circle r="0.0" /></g><g id="node-20" transform="translate(25.000,39.421)"><circle r="0.0" /></g></g></g></g></g><g class="toyplot-coordinates-Cartesian" id="t1287476954b2423e947711026e071eab"><clipPath id="t39c14af02bd94ffc91a697220360b5a4"><rect x="155.0" y="15.0" width="110.0" height="70.0" /></clipPath><g clip-path="url(#t39c14af02bd94ffc91a697220360b5a4)"><g class="toytree-mark-Toytree" id="t618ac4e53973422d97b7c8570a11cf0c"><g class="toytree-Edges" style="fill:none;stroke:rgb(14.9%,14.9%,14.9%);stroke-linecap:round;stroke-opacity:1;stroke-width:0.5"><path d="M 165.0 33.4 L 165.0 37.6 L 203.8 37.6" id="20,19" /><path d="M 203.8 37.6 L 203.8 41.8 L 207.3 41.8" id="19,18" /><path d="M 207.3 41.8 L 207.3 46.2 L 216.7 46.2" id="18,17" /><path d="M 216.7 46.2 L 216.7 50.7 L 224.2 50.7" id="17,16" /><path d="M 224.2 50.7 L 224.2 55.5 L 227.3 55.5" id="16,15" /><path d="M 227.3 55.5 L 227.3 60.9 L 228.7 60.9" id="15,14" /><path d="M 228.7 60.9 L 228.7 56.2 L 231.0 56.2" id="14,13" /><path d="M 228.7 60.9 L 228.7 65.6 L 232.3 65.6" id="14,12" /><path d="M 232.3 65.6 L 232.3 68.8 L 239.0 68.8" id="12,11" /><path d="M 165.0 33.4 L 165.0 29.2 L 231.5 29.2" id="20,10" /><path d="M 203.8 37.6 L 203.8 33.3 L 209.6 33.3" id="19,9" /><path d="M 207.3 41.8 L 207.3 37.5 L 224.0 37.5" id="18,8" /><path d="M 216.7 46.2 L 216.7 41.7 L 250.3 41.7" id="17,7" /><path d="M 224.2 50.7 L 224.2 45.8 L 231.3 45.8" id="16,6" /><path d="M 227.3 55.5 L 227.3 50.0 L 230.2 50.0" id="15,5" /><path d="M 231.0 56.2 L 231.0 54.2 L 233.5 54.2" id="13,4" /><path d="M 231.0 56.2 L 231.0 58.3 L 232.2 58.3" id="13,3" /><path d="M 232.3 65.6 L 232.3 62.5 L 240.5 62.5" id="12,2" /><path d="M 239.0 68.8 L 239.0 66.7 L 239.3 66.7" id="11,1" /><path d="M 239.0 68.8 L 239.0 70.8 L 242.0 70.8" id="11,0" /></g><g class="toytree-Nodes" style="fill:rgb(100%,0%,0%);fill-opacity:1.0;stroke:None;stroke-width:1"><g id="node-0" transform="translate(241.978,70.833)"><circle r="2.5" /></g><g id="node-1" transform="translate(239.323,66.667)"><circle r="2.5" /></g><g id="node-2" transform="translate(240.521,62.500)"><circle r="2.5" /></g><g id="node-3" transform="translate(232.176,58.333)"><circle r="2.5" /></g><g id="node-4" transform="translate(233.477,54.167)"><circle r="2.5" /></g><g id="node-5" transform="translate(230.250,50.000)"><circle r="2.5" /></g><g id="node-6" transform="translate(231.315,45.833)"><circle r="2.5" /></g><g id="node-7" transform="translate(250.263,41.667)"><circle r="2.5" /></g><g id="node-8" transform="translate(223.953,37.500)"><circle r="2.5" /></g><g id="node-9" transform="translate(209.641,33.333)"><circle r="2.5" /></g><g id="node-10" transform="translate(231.462,29.167)"><circle r="2.5" /></g><g id="node-11" transform="translate(238.968,68.750)"><circle r="0.0" /></g><g id="node-12" transform="translate(232.331,65.625)"><circle r="0.0" /></g><g id="node-13" transform="translate(230.997,56.250)"><circle r="0.0" /></g><g id="node-14" transform="translate(228.686,60.938)"><circle r="0.0" /></g><g id="node-15" transform="translate(227.333,55.469)"><circle r="0.0" /></g><g id="node-16" transform="translate(224.168,50.651)"><circle r="0.0" /></g><g id="node-17" transform="translate(216.688,46.159)"><circle r="0.0" /></g><g id="node-18" transform="translate(207.282,41.829)"><circle r="0.0" /></g><g id="node-19" transform="translate(203.822,37.581)"><circle r="0.0" /></g><g id="node-20" transform="translate(165.000,33.374)"><circle r="0.0" /></g></g></g></g></g><g class="toyplot-coordinates-Cartesian" id="t5e27dd4deb09497f990d2d78750f78a4"><clipPath id="t03b01f3264b8464585aa76e2f4de510d"><rect x="295.0" y="15.0" width="110.0" height="70.0" /></clipPath><g clip-path="url(#t03b01f3264b8464585aa76e2f4de510d)"><g class="toytree-mark-Toytree" id="t999f6a6dd7f542e99292b810fef1681d"><g class="toytree-Edges" style="fill:none;stroke:rgb(14.9%,14.9%,14.9%);stroke-linecap:round;stroke-opacity:1;stroke-width:0.5"><path d="M 305.0 33.3 L 305.0 37.5 L 325.8 37.5" id="20,19" /><path d="M 325.8 37.5 L 325.8 41.7 L 334.4 41.7" id="19,18" /><path d="M 334.4 41.7 L 334.4 46.0 L 340.3 46.0" id="18,17" /><path d="M 340.3 46.0 L 340.3 50.3 L 352.1 50.3" id="17,16" /><path d="M 352.1 50.3 L 352.1 54.7 L 356.1 54.7" id="16,15" /><path d="M 356.1 54.7 L 356.1 59.4 L 357.3 59.4" id="15,14" /><path d="M 357.3 59.4 L 357.3 64.6 L 361.5 64.6" id="14,13" /><path d="M 361.5 64.6 L 361.5 60.4 L 363.5 60.4" id="13,12" /><path d="M 361.5 64.6 L 361.5 68.8 L 368.6 68.8" id="13,11" /><path d="M 305.0 33.3 L 305.0 29.2 L 371.8 29.2" id="20,10" /><path d="M 325.8 37.5 L 325.8 33.3 L 357.3 33.3" id="19,9" /><path d="M 334.4 41.7 L 334.4 37.5 L 366.5 37.5" id="18,8" /><path d="M 340.3 46.0 L 340.3 41.7 L 390.3 41.7" id="17,7" /><path d="M 352.1 50.3 L 352.1 45.8 L 368.2 45.8" id="16,6" /><path d="M 356.1 54.7 L 356.1 50.0 L 372.0 50.0" id="15,5" /><path d="M 357.3 59.4 L 357.3 54.2 L 369.0 54.2" id="14,4" /><path d="M 363.5 60.4 L 363.5 58.3 L 380.2 58.3" id="12,3" /><path d="M 363.5 60.4 L 363.5 62.5 L 370.6 62.5" id="12,2" /><path d="M 368.6 68.8 L 368.6 66.7 L 375.1 66.7" id="11,1" /><path d="M 368.6 68.8 L 368.6 70.8 L 380.1 70.8" id="11,0" /></g><g class="toytree-Nodes" style="fill:rgb(100%,0%,0%);fill-opacity:1.0;stroke:None;stroke-width:1"><g id="node-0" transform="translate(380.053,70.833)"><circle r="2.5" /></g><g id="node-1" transform="translate(375.050,66.667)"><circle r="2.5" /></g><g id="node-2" transform="translate(370.632,62.500)"><circle r="2.5" /></g><g id="node-3" transform="translate(380.166,58.333)"><circle r="2.5" /></g><g id="node-4" transform="translate(368.950,54.167)"><circle r="2.5" /></g><g id="node-5" transform="translate(372.016,50.000)"><circle r="2.5" /></g><g id="node-6" transform="translate(368.212,45.833)"><circle r="2.5" /></g><g id="node-7" transform="translate(390.263,41.667)"><circle r="2.5" /></g><g id="node-8" transform="translate(366.541,37.500)"><circle r="2.5" /></g><g id="node-9" transform="translate(357.284,33.333)"><circle r="2.5" /></g><g id="node-10" transform="translate(371.837,29.167)"><circle r="2.5" /></g><g id="node-11" transform="translate(368.633,68.750)"><circle r="0.0" /></g><g id="node-12" transform="translate(363.507,60.417)"><circle r="0.0" /></g><g id="node-13" transform="translate(361.467,64.583)"><circle r="0.0" /></g><g id="node-14" transform="translate(357.254,59.375)"><circle r="0.0" /></g><g id="node-15" transform="translate(356.136,54.688)"><circle r="0.0" /></g><g id="node-16" transform="translate(352.107,50.260)"><circle r="0.0" /></g><g id="node-17" transform="translate(340.349,45.964)"><circle r="0.0" /></g><g id="node-18" transform="translate(334.424,41.732)"><circle r="0.0" /></g><g id="node-19" transform="translate(325.792,37.533)"><circle r="0.0" /></g><g id="node-20" transform="translate(305.000,33.350)"><circle r="0.0" /></g></g></g></g></g><g class="toyplot-coordinates-Cartesian" id="t5a8f02bb68fe4d1493d43852a3c455c1"><clipPath id="tc470a32e4cdd4f6294a74818dcdd4b5d"><rect x="435.0" y="15.0" width="110.0" height="70.0" /></clipPath><g clip-path="url(#tc470a32e4cdd4f6294a74818dcdd4b5d)"><g class="toytree-mark-Toytree" id="t7d0413b2ce9a4f8ea742b3c5f98257e9"><g class="toytree-Edges" style="fill:none;stroke:rgb(14.9%,14.9%,14.9%);stroke-linecap:round;stroke-opacity:1;stroke-width:0.5"><path d="M 445.0 36.8 L 445.0 44.5 L 446.2 44.5" id="20,19" /><path d="M 446.2 44.5 L 446.2 36.5 L 461.9 36.5" id="19,18" /><path d="M 446.2 44.5 L 446.2 52.6 L 481.1 52.6" id="19,17" /><path d="M 461.9 36.5 L 461.9 39.6 L 478.2 39.6" id="18,16" /><path d="M 481.1 52.6 L 481.1 59.4 L 489.0 59.4" id="17,15" /><path d="M 489.0 59.4 L 489.0 53.1 L 492.9 53.1" id="15,14" /><path d="M 489.0 59.4 L 489.0 65.6 L 491.6 65.6" id="15,13" /><path d="M 492.9 53.1 L 492.9 56.2 L 498.9 56.2" id="14,12" /><path d="M 491.6 65.6 L 491.6 68.8 L 506.7 68.8" id="13,11" /><path d="M 445.0 36.8 L 445.0 29.2 L 500.1 29.2" id="20,10" /><path d="M 461.9 36.5 L 461.9 33.3 L 487.1 33.3" id="18,9" /><path d="M 478.2 39.6 L 478.2 37.5 L 495.7 37.5" id="16,8" /><path d="M 478.2 39.6 L 478.2 41.7 L 530.3 41.7" id="16,7" /><path d="M 481.1 52.6 L 481.1 45.8 L 493.7 45.8" id="17,6" /><path d="M 492.9 53.1 L 492.9 50.0 L 494.8 50.0" id="14,5" /><path d="M 498.9 56.2 L 498.9 54.2 L 498.9 54.2" id="12,4" /><path d="M 498.9 56.2 L 498.9 58.3 L 498.9 58.3" id="12,3" /><path d="M 491.6 65.6 L 491.6 62.5 L 500.7 62.5" id="13,2" /><path d="M 506.7 68.8 L 506.7 66.7 L 510.2 66.7" id="11,1" /><path d="M 506.7 68.8 L 506.7 70.8 L 510.3 70.8" id="11,0" /></g><g class="toytree-Nodes" style="fill:rgb(100%,0%,0%);fill-opacity:1.0;stroke:None;stroke-width:1"><g id="node-0" transform="translate(510.273,70.833)"><circle r="2.5" /></g><g id="node-1" transform="translate(510.207,66.667)"><circle r="2.5" /></g><g id="node-2" transform="translate(500.686,62.500)"><circle r="2.5" /></g><g id="node-3" transform="translate(498.902,58.333)"><circle r="2.5" /></g><g id="node-4" transform="translate(498.902,54.167)"><circle r="2.5" /></g><g id="node-5" transform="translate(494.781,50.000)"><circle r="2.5" /></g><g id="node-6" transform="translate(493.727,45.833)"><circle r="2.5" /></g><g id="node-7" transform="translate(530.263,41.667)"><circle r="2.5" /></g><g id="node-8" transform="translate(495.748,37.500)"><circle r="2.5" /></g><g id="node-9" transform="translate(487.064,33.333)"><circle r="2.5" /></g><g id="node-10" transform="translate(500.148,29.167)"><circle r="2.5" /></g><g id="node-11" transform="translate(506.656,68.750)"><circle r="0.0" /></g><g id="node-12" transform="translate(498.902,56.250)"><circle r="0.0" /></g><g id="node-13" transform="translate(491.566,65.625)"><circle r="0.0" /></g><g id="node-14" transform="translate(492.913,53.125)"><circle r="0.0" /></g><g id="node-15" transform="translate(488.960,59.375)"><circle r="0.0" /></g><g id="node-16" transform="translate(478.181,39.583)"><circle r="0.0" /></g><g id="node-17" transform="translate(481.131,52.604)"><circle r="0.0" /></g><g id="node-18" transform="translate(461.941,36.458)"><circle r="0.0" /></g><g id="node-19" transform="translate(446.180,44.531)"><circle r="0.0" /></g><g id="node-20" transform="translate(445.000,36.849)"><circle r="0.0" /></g></g></g></g></g></svg>