<svg class="toyplot-canvas-Canvas" xmlns:toyplot="http://www.sandia.gov/toyplot" xmlns:xlink="http://www.w3.org/1999/xlink" xmlns="http://www.w3.org/2000/svg" width="560.0px" height="100.0px" viewBox="0 0 560.0 100.0" preserveAspectRatio="xMidYMid meet" style="background-color:transparent;border-color:#292724;border-style:none;border-width:1.0;fill:rgb(16.1%,15.3%,14.1%);fill-opacity:1.0;font-family:Helvetica;font-size:12px;opacity:1.0;stroke:rgb(16.1%,15.3%,14.1%);stroke-opacity:1.0;stroke-width:1.0" id="t6d8d1166b1224a2db63a2f9422ff7fcf"><g class="toyplot-coordinates-Cartesian" id="tbd71c8dc4b854e34b3a427a7210ee820"><clipPath id="t8e8ee96a2c484044bace47d146898530"><rect x="15.0" y="15.0" width="110.0" height="70.0" /></clipPath><g clip-path="url(#t8e8ee96a2c484044bace47d146898530)"><g class="toytree-mark-Toytree" id="t374af26b54cf43d69a9a1668dcafb366"><g class="toytree-Edges" style="fill:none;stroke:rgb(14.9%,14.9%,14.9%);stroke-linecap:round;stroke-opacity:1;stroke-width:0.5"><path d="M 25.0 34.8 L 25.0 40.4 L 27.3 40.4" id="52,51" /><path d="M 27.3 40.4 L 27.3 33.4 L 39.6 33.4" id="51,50" /><path d="M 27.3 40.4 L 27.3 47.4 L 28.9 47.4" id="51,49" /><path d="M 39.6 33.4 L 39.6 31.6 L 48.2 31.6" id="50,48" /><path d="M 39.6 33.4 L 39.6 35.2 L 59.3 35.2" id="50,47" /><path d="M 28.9 47.4 L 28.9 40.9 L 33.8 40.9" id="49,46" /><path d="M 28.9 47.4 L 28.9 53.9 L 30.5 53.9" id="49,45" /><path d="M 59.3 35.2 L 59.3 36.4 L 82.6 36.4" id="47,44" /><path d="M 33.8 40.9 L 33.8 43.1 L 36.1 43.1" id="46,43" /><path d="M 30.5 53.9 L 30.5 50.8 L 33.4 50.8" id="45,42" /><path d="M 30.5 53.9 L 30.5 57.1 L 32.8 57.1" id="45,41" /><path d="M 36.1 43.1 L 36.1 41.2 L 43.6 41.2" id="43,40" /><path d="M 36.1 43.1 L 36.1 45.0 L 38.1 45.0" id="43,39" /><path d="M 32.8 57.1 L 32.8 54.4 L 35.1 54.4" id="41,38" /><path d="M 32.8 57.1 L 32.8 59.8 L 42.1 59.8" id="41,37" /><path d="M 38.1 45.0 L 38.1 46.4 L 42.7 46.4" id="39,36" /><path d="M 35.1 54.4 L 35.1 55.6 L 46.8 55.6" id="38,35" /><path d="M 42.1 59.8 L 42.1 61.5 L 60.3 61.5" id="37,34" /><path d="M 42.7 46.4 L 42.7 47.6 L 49.3 47.6" id="36,33" /><path d="M 60.3 61.5 L 60.3 63.4 L 66.0 63.4" id="34,32" /><path d="M 66.0 63.4 L 66.0 65.5 L 73.6 65.5" id="32,31" /><path d="M 73.6 65.5 L 73.6 63.6 L 91.0 63.6" id="31,30" /><path d="M 73.6 65.5 L 73.6 67.4 L 76.4 67.4" id="31,29" /><path d="M 76.4 67.4 L 76.4 68.8 L 91.2 68.8" id="29,28" /><path d="M 91.2 68.8 L 91.2 70.0 L 93.2 70.0" id="28,27" /><path d="M 25.0 34.8 L 25.0 29.2 L 93.9 29.2" id="52,26" /><path d="M 48.2 31.6 L 48.2 30.8 L 91.8 30.8" id="48,25" /><path d="M 48.2 31.6 L 48.2 32.4 L 100.0 32.4" id="48,24" /><path d="M 59.3 35.2 L 59.3 34.0 L 91.8 34.0" id="47,23" /><path d="M 82.6 36.4 L 82.6 35.6 L 95.2 35.6" id="44,22" /><path d="M 82.6 36.4 L 82.6 37.2 L 93.4 37.2" id="44,21" /><path d="M 33.8 40.9 L 33.8 38.8 L 110.3 38.8" id="46,20" /><path d="M 43.6 41.2 L 43.6 40.4 L 95.6 40.4" id="40,19" /><path d="M 43.6 41.2 L 43.6 42.0 L 100.0 42.0" id="40,18" /><path d="M 38.1 45.0 L 38.1 43.6 L 101.6 43.6" id="39,17" /><path d="M 42.7 46.4 L 42.7 45.2 L 89.0 45.2" id="36,16" /><path d="M 49.3 47.6 L 49.3 46.8 L 94.9 46.8" id="33,15" /><path d="M 49.3 47.6 L 49.3 48.4 L 94.3 48.4" id="33,14" /><path d="M 33.4 50.8 L 33.4 50.0 L 99.4 50.0" id="42,13" /><path d="M 33.4 50.8 L 33.4 51.6 L 95.2 51.6" id="42,12" /><path d="M 35.1 54.4 L 35.1 53.2 L 79.1 53.2" id="38,11" /><path d="M 46.8 55.6 L 46.8 54.8 L 100.5 54.8" id="35,10" /><path d="M 46.8 55.6 L 46.8 56.4 L 94.6 56.4" id="35,9" /><path d="M 42.1 59.8 L 42.1 58.0 L 91.9 58.0" id="37,8" /><path d="M 60.3 61.5 L 60.3 59.6 L 84.2 59.6" id="34,7" /><path d="M 66.0 63.4 L 66.0 61.2 L 92.3 61.2" id="32,6" /><path d="M 91.0 63.6 L 91.0 62.8 L 96.3 62.8" id="30,5" /><path d="M 91.0 63.6 L 91.0 64.4 L 95.3 64.4" id="30,4" /><path d="M 76.4 67.4 L 76.4 66.0 L 88.8 66.0" id="29,3" /><path d="M 91.2 68.8 L 91.2 67.6 L 92.0 67.6" id="28,2" /><path d="M 93.2 70.0 L 93.2 69.2 L 93.2 69.2" id="27,1" /><path d="M 93.2 70.0 L 93.2 70.8 L 93.2 70.8" id="27,0" /></g><g class="toytree-Nodes" style="fill:rgb(100%,0%,0%);fill-opacity:1.0;stroke:None;stroke-width:1"><g id="node-0" transform="translate(93.192,70.833)"><circle r="2.5" /></g><g id="node-1" transform="translate(93.192,69.231)"><circle r="2.5" /></g><g id="node-2" transform="translate(91.952,67.628)"><circle r="2.5" /></g><g id="node-3" transform="translate(88.834,66.026)"><circle r="2.5" /></g><g id="node-4" transform="translate(95.344,64.423)"><circle r="2.5" /></g><g id="node-5" transform="translate(96.327,62.821)"><circle r="2.5" /></g><g id="node-6" transform="translate(92.297,61.218)"><circle r="2.5" /></g><g id="node-7" transform="translate(84.240,59.615)"><circle r="2.5" /></g><g id="node-8" transform="translate(91.932,58.013)"><circle r="2.5" /></g><g id="node-9" transform="translate(94.649,56.410)"><circle r="2.5" /></g><g id="node-10" transform="translate(100.459,54.808)"><circle r="2.5" /></g><g id="node-11" transform="translate(79.132,53.205)"><circle r="2.5" /></g><g id="node-12" transform="translate(95.185,51.603)"><circle r="2.5" /></g><g id="node-13" transform="translate(99.387,50.000)"><circle r="2.5" /></g><g id="node-14" transform="translate(94.341,48.397)"><circle r="2.5" /></g><g id="node-15" transform="translate(94.908,46.795)"><circle r="2.5" /></g><g id="node-16" transform="translate(89.042,45.192)"><circle r="2.5" /></g><g id="node-17" transform="translate(101.597,43.590)"><circle r="2.5" /></g><g id="node-18" transform="translate(99.983,41.987)"><circle r="2.5" /></g><g id="node-19" transform="translate(95.647,40.385)"><circle r="2.5" /></g><g id="node-20" transform="translate(110.263,38.782)"><circle r="2.5" /></g><g id="node-21" transform="translate(93.424,37.179)"><circle r="2.5" /></g><g id="node-22" transform="translate(95.231,35.577)"><circle r="2.5" /></g><g id="node-23" transform="translate(91.821,33.974)"><circle r="2.5" /></g><g id="node-24" transform="translate(99.976,32.372)"><circle r="2.5" /></g><g id="node-25" transform="translate(91.841,30.769)"><circle r="2.5" /></g><g id="node-26" transform="translate(93.934,29.167)"><circle r="2.5" /></g><g id="node-27" transform="translate(93.192,70.032)"><circle r="0.0" /></g><g id="node-28" transform="translate(91.243,68.830)"><circle r="0.0" /></g><g id="node-29" transform="translate(76.366,67.428)"><circle r="0.0" /></g><g id="node-30" transform="translate(90.964,63.622)"><circle r="0.0" /></g><g id="node-31" transform="translate(73.563,65.525)"><circle r="0.0" /></g><g id="node-32" transform="translate(66.032,63.371)"><circle r="0.0" /></g><g id="node-33" transform="translate(49.344,47.596)"><circle r="0.0" /></g><g id="node-34" transform="translate(60.342,61.493)"><circle r="0.0" /></g><g id="node-35" transform="translate(46.849,55.609)"><circle r="0.0" /></g><g id="node-36" transform="translate(42.706,46.394)"><circle r="0.0" /></g><g id="node-37" transform="translate(42.097,59.753)"><circle r="0.0" /></g><g id="node-38" transform="translate(35.147,54.407)"><circle r="0.0" /></g><g id="node-39" transform="translate(38.081,44.992)"><circle r="0.0" /></g><g id="node-40" transform="translate(43.567,41.186)"><circle r="0.0" /></g><g id="node-41" transform="translate(32.755,57.080)"><circle r="0.0" /></g><g id="node-42" transform="translate(33.406,50.801)"><circle r="0.0" /></g><g id="node-43" transform="translate(36.081,43.089)"><circle r="0.0" /></g><g id="node-44" transform="translate(82.592,36.378)"><circle r="0.0" /></g><g id="node-45" transform="translate(30.548,53.941)"><circle r="0.0" /></g><g id="node-46" transform="translate(33.845,40.935)"><circle r="0.0" /></g><g id="node-47" transform="translate(59.308,35.176)"><circle r="0.0" /></g><g id="node-48" transform="translate(48.193,31.571)"><circle r="0.0" /></g><g id="node-49" transform="translate(28.878,47.438)"><circle r="0.0" /></g><g id="node-50" transform="translate(39.566,33.373)"><circle r="0.0" /></g><g id="node-51" transform="translate(27.278,40.406)"><circle r="0.0" /></g><g id="node-52" transform="translate(25.000,34.786)"><circle r="0.0" /></g></g></g></g></g><g class="toyplot-coordinates-Cartesian" id="t5ead9f453786444684ecf560bf8b079b"><clipPath id="t26bbbe1745c0493581b56888f6c393c8"><rect x="155.0" y="15.0" width="110.0" height="70.0" /></clipPath><g clip-path="url(#t26bbbe1745c0493581b56888f6c393c8)"><g class="toytree-mark-Toytree" id="t872081b3d62e4dac81003907d6423573"><g class="toytree-Edges" style="fill:none;stroke:rgb(14.9%,14.9%,14.9%);stroke-linecap:round;stroke-opacity:1;stroke-width:0.5"><path d="M 165.0 38.6 L 165.0 32.2 L 165.7 32.2" id="52,51" /><path d="M 165.0 38.6 L 165.0 45.1 L 169.7 45.1" id="52,50" /><path d="M 165.7 32.2 L 165.7 30.0 L 169.1 30.0" id="51,49" /><path d="M 165.7 32.2 L 165.7 34.4 L 167.6 34.4" id="51,48" /><path d="M 169.7 45.1 L 169.7 49.8 L 175.1 49.8" id="50,47" /><path d="M 167.6 34.4 L 167.6 36.4 L 172.5 36.4" id="48,46" /><path d="M 175.1 49.8 L 175.1 44.4 L 178.2 44.4" id="47,45" /><path d="M 175.1 49.8 L 175.1 55.2 L 177.5 55.2" id="47,44" /><path d="M 172.5 36.4 L 172.5 34.8 L 187.5 34.8" id="46,43" /><path d="M 172.5 36.4 L 172.5 38.0 L 182.2 38.0" id="46,42" /><path d="M 178.2 44.4 L 178.2 42.8 L 191.7 42.8" id="45,41" /><path d="M 178.2 44.4 L 178.2 46.0 L 180.4 46.0" id="45,40" /><path d="M 177.5 55.2 L 177.5 49.6 L 182.9 49.6" id="44,39" /><path d="M 177.5 55.2 L 177.5 60.9 L 178.3 60.9" id="44,38" /><path d="M 182.9 49.6 L 182.9 50.8 L 186.6 50.8" id="39,37" /><path d="M 178.3 60.9 L 178.3 56.8 L 189.6 56.8" id="38,36" /><path d="M 178.3 60.9 L 178.3 64.9 L 182.0 64.9" id="38,35" /><path d="M 189.6 56.8 L 189.6 54.4 L 190.7 54.4" id="36,34" /><path d="M 189.6 56.8 L 189.6 59.2 L 191.2 59.2" id="36,33" /><path d="M 182.0 64.9 L 182.0 67.0 L 183.1 67.0" id="35,32" /><path d="M 190.7 54.4 L 190.7 55.6 L 211.4 55.6" id="34,31" /><path d="M 191.2 59.2 L 191.2 60.4 L 205.3 60.4" id="33,30" /><path d="M 183.1 67.0 L 183.1 65.2 L 205.4 65.2" id="32,29" /><path d="M 183.1 67.0 L 183.1 68.8 L 186.3 68.8" id="32,28" /><path d="M 186.3 68.8 L 186.3 70.0 L 193.0 70.0" id="28,27" /><path d="M 169.1 30.0 L 169.1 29.2 L 211.0 29.2" id="49,26" /><path d="M 169.1 30.0 L 169.1 30.8 L 233.4 30.8" id="49,25" /><path d="M 167.6 34.4 L 167.6 32.4 L 221.5 32.4" id="48,24" /><path d="M 187.5 34.8 L 187.5 34.0 L 231.5 34.0" id="43,23" /><path d="M 187.5 34.8 L 187.5 35.6 L 229.0 35.6" id="43,22" /><path d="M 182.2 38.0 L 182.2 37.2 L 231.5 37.2" id="42,21" /><path d="M 182.2 38.0 L 182.2 38.8 L 217.1 38.8" id="42,20" /><path d="M 169.7 45.1 L 169.7 40.4 L 237.2 40.4" id="50,19" /><path d="M 191.7 42.8 L 191.7 42.0 L 241.7 42.0" id="41,18" /><path d="M 191.7 42.8 L 191.7 43.6 L 229.5 43.6" id="41,17" /><path d="M 180.4 46.0 L 180.4 45.2 L 216.5 45.2" id="40,16" /><path d="M 180.4 46.0 L 180.4 46.8 L 229.0 46.8" id="40,15" /><path d="M 182.9 49.6 L 182.9 48.4 L 192.3 48.4" id="39,14" /><path d="M 186.6 50.8 L 186.6 50.0 L 234.5 50.0" id="37,13" /><path d="M 186.6 50.8 L 186.6 51.6 L 249.2 51.6" id="37,12" /><path d="M 190.7 54.4 L 190.7 53.2 L 236.2 53.2" id="34,11" /><path d="M 211.4 55.6 L 211.4 54.8 L 246.9 54.8" id="31,10" /><path d="M 211.4 55.6 L 211.4 56.4 L 220.0 56.4" id="31,9" /><path d="M 191.2 59.2 L 191.2 58.0 L 236.3 58.0" id="33,8" /><path d="M 205.3 60.4 L 205.3 59.6 L 208.2 59.6" id="30,7" /><path d="M 205.3 60.4 L 205.3 61.2 L 217.2 61.2" id="30,6" /><path d="M 182.0 64.9 L 182.0 62.8 L 223.0 62.8" id="35,5" /><path d="M 205.4 65.2 L 205.4 64.4 L 223.1 64.4" id="29,4" /><path d="M 205.4 65.2 L 205.4 66.0 L 224.0 66.0" id="29,3" /><path d="M 186.3 68.8 L 186.3 67.6 L 250.3 67.6" id="28,2" /><path d="M 193.0 70.0 L 193.0 69.2 L 217.7 69.2" id="27,1" /><path d="M 193.0 70.0 L 193.0 70.8 L 218.3 70.8" id="27,0" /></g><g class="toytree-Nodes" style="fill:rgb(100%,0%,0%);fill-opacity:1.0;stroke:None;stroke-width:1"><g id="node-0" transform="translate(218.324,70.833)"><circle r="2.5" /></g><g id="node-1" transform="translate(217.732,69.231)"><circle r="2.5" /></g><g id="node-2" transform="translate(250.263,67.628)"><circle r="2.5" /></g><g id="node-3" transform="translate(223.976,66.026)"><circle r="2.5" /></g><g id="node-4" transform="translate(223.115,64.423)"><circle r="2.5" /></g><g id="node-5" transform="translate(222.970,62.821)"><circle r="2.5" /></g><g id="node-6" transform="translate(217.233,61.218)"><circle r="2.5" /></g><g id="node-7" transform="translate(208.170,59.615)"><circle r="2.5" /></g><g id="node-8" transform="translate(236.262,58.013)"><circle r="2.5" /></g><g id="node-9" transform="translate(220.039,56.410)"><circle r="2.5" /></g><g id="node-10" transform="translate(246.885,54.808)"><circle r="2.5" /></g><g id="node-11" transform="translate(236.209,53.205)"><circle r="2.5" /></g><g id="node-12" transform="translate(249.169,51.603)"><circle r="2.5" /></g><g id="node-13" transform="translate(234.547,50.000)"><circle r="2.5" /></g><g id="node-14" transform="translate(192.309,48.397)"><circle r="2.5" /></g><g id="node-15" transform="translate(229.003,46.795)"><circle r="2.5" /></g><g id="node-16" transform="translate(216.497,45.192)"><circle r="2.5" /></g><g id="node-17" transform="translate(229.503,43.590)"><circle r="2.5" /></g><g id="node-18" transform="translate(241.667,41.987)"><circle r="2.5" /></g><g id="node-19" transform="translate(237.172,40.385)"><circle r="2.5" /></g><g id="node-20" transform="translate(217.053,38.782)"><circle r="2.5" /></g><g id="node-21" transform="translate(231.471,37.179)"><circle r="2.5" /></g><g id="node-22" transform="translate(229.020,35.577)"><circle r="2.5" /></g><g id="node-23" transform="translate(231.485,33.974)"><circle r="2.5" /></g><g id="node-24" transform="translate(221.492,32.372)"><circle r="2.5" /></g><g id="node-25" transform="translate(233.410,30.769)"><circle r="2.5" /></g><g id="node-26" transform="translate(210.987,29.167)"><circle r="2.5" /></g><g id="node-27" transform="translate(193.039,70.032)"><circle r="0.0" /></g><g id="node-28" transform="translate(186.270,68.830)"><circle r="0.0" /></g><g id="node-29" transform="translate(205.407,65.224)"><circle r="0.0" /></g><g id="node-30" transform="translate(205.275,60.417)"><circle r="0.0" /></g><g id="node-31" transform="translate(211.364,55.609)"><circle r="0.0" /></g><g id="node-32" transform="translate(183.118,67.027)"><circle r="0.0" /></g><g id="node-33" transform="translate(191.212,59.215)"><circle r="0.0" /></g><g id="node-34" transform="translate(190.722,54.407)"><circle r="0.0" /></g><g id="node-35" transform="translate(181.978,64.924)"><circle r="0.0" /></g><g id="node-36" transform="translate(189.578,56.811)"><circle r="0.0" /></g><g id="node-37" transform="translate(186.572,50.801)"><circle r="0.0" /></g><g id="node-38" transform="translate(178.308,60.867)"><circle r="0.0" /></g><g id="node-39" transform="translate(182.918,49.599)"><circle r="0.0" /></g><g id="node-40" transform="translate(180.411,45.994)"><circle r="0.0" /></g><g id="node-41" transform="translate(191.701,42.788)"><circle r="0.0" /></g><g id="node-42" transform="translate(182.186,37.981)"><circle r="0.0" /></g><g id="node-43" transform="translate(187.519,34.776)"><circle r="0.0" /></g><g id="node-44" transform="translate(177.460,55.233)"><circle r="0.0" /></g><g id="node-45" transform="translate(178.157,44.391)"><circle r="0.0" /></g><g id="node-46" transform="translate(172.538,36.378)"><circle r="0.0" /></g><g id="node-47" transform="translate(175.097,49.812)"><circle r="0.0" /></g><g id="node-48" transform="translate(167.590,34.375)"><circle r="0.0" /></g><g id="node-49" transform="translate(169.065,29.968)"><circle r="0.0" /></g><g id="node-50" transform="translate(169.705,45.098)"><circle r="0.0" /></g><g id="node-51" transform="translate(165.697,32.171)"><circle r="0.0" /></g><g id="node-52" transform="translate(165.000,38.635)"><circle r="0.0" /></g></g></g></g></g><g class="toyplot-coordinates-Cartesian" id="t8613d4549f67427abb491aa41d6a6b9c"><clipPath id="t7cf6f0b1365140d0b2fe9388d48d0231"><rect x="295.0" y="15.0" width="110.0" height="70.0" /></clipPath><g clip-path="url(#t7cf6f0b1365140d0b2fe9388d48d0231)"><g class="toytree-mark-Toytree" id="t5fe285adb650461eb2838abfe1777a7c"><g class="toytree-Edges" style="fill:none;stroke:rgb(14.9%,14.9%,14.9%);stroke-linecap:round;stroke-opacity:1;stroke-width:0.5"><path d="M 305.0 36.2 L 305.0 31.8 L 310.3 31.8" id="52,51" /><path d="M 305.0 36.2 L 305.0 40.6 L 307.4 40.6" id="52,50" /><path d="M 310.3 31.8 L 310.3 30.0 L 311.0 30.0" id="51,49" /><path d="M 310.3 31.8 L 310.3 33.6 L 316.1 33.6" id="51,48" /><path d="M 307.4 40.6 L 307.4 43.9 L 312.3 43.9" id="50,47" /><path d="M 316.1 33.6 L 316.1 34.8 L 319.4 34.8" id="48,46" /><path d="M 312.3 43.9 L 312.3 40.0 L 315.5 40.0" id="47,45" /><path d="M 312.3 43.9 L 312.3 47.9 L 313.2 47.9" id="47,44" /><path d="M 315.5 40.0 L 315.5 41.2 L 325.8 41.2" id="45,43" /><path d="M 313.2 47.9 L 313.2 44.4 L 320.6 44.4" id="44,42" /><path d="M 313.2 47.9 L 313.2 51.4 L 314.4 51.4" id="44,41" /><path d="M 314.4 51.4 L 314.4 47.6 L 322.7 47.6" id="41,40" /><path d="M 314.4 51.4 L 314.4 55.2 L 317.4 55.2" id="41,39" /><path d="M 317.4 55.2 L 317.4 50.8 L 334.8 50.8" id="39,38" /><path d="M 317.4 55.2 L 317.4 59.6 L 324.2 59.6" id="39,37" /><path d="M 324.2 59.6 L 324.2 55.8 L 336.8 55.8" id="37,36" /><path d="M 324.2 59.6 L 324.2 63.4 L 324.8 63.4" id="37,35" /><path d="M 336.8 55.8 L 336.8 54.0 L 343.5 54.0" id="36,34" /><path d="M 336.8 55.8 L 336.8 57.6 L 339.5 57.6" id="36,33" /><path d="M 324.8 63.4 L 324.8 65.5 L 328.2 65.5" id="35,32" /><path d="M 339.5 57.6 L 339.5 58.8 L 350.7 58.8" id="33,31" /><path d="M 328.2 65.5 L 328.2 63.6 L 337.2 63.6" id="32,30" /><path d="M 328.2 65.5 L 328.2 67.4 L 332.7 67.4" id="32,29" /><path d="M 332.7 67.4 L 332.7 68.8 L 339.1 68.8" id="29,28" /><path d="M 339.1 68.8 L 339.1 70.0 L 343.0 70.0" id="28,27" /><path d="M 311.0 30.0 L 311.0 29.2 L 366.6 29.2" id="49,26" /><path d="M 311.0 30.0 L 311.0 30.8 L 351.7 30.8" id="49,25" /><path d="M 316.1 33.6 L 316.1 32.4 L 365.7 32.4" id="48,24" /><path d="M 319.4 34.8 L 319.4 34.0 L 361.6 34.0" id="46,23" /><path d="M 319.4 34.8 L 319.4 35.6 L 359.3 35.6" id="46,22" /><path d="M 307.4 40.6 L 307.4 37.2 L 355.9 37.2" id="50,21" /><path d="M 315.5 40.0 L 315.5 38.8 L 376.9 38.8" id="45,20" /><path d="M 325.8 41.2 L 325.8 40.4 L 366.2 40.4" id="43,19" /><path d="M 325.8 41.2 L 325.8 42.0 L 367.9 42.0" id="43,18" /><path d="M 320.6 44.4 L 320.6 43.6 L 361.3 43.6" id="42,17" /><path d="M 320.6 44.4 L 320.6 45.2 L 352.0 45.2" id="42,16" /><path d="M 322.7 47.6 L 322.7 46.8 L 360.0 46.8" id="40,15" /><path d="M 322.7 47.6 L 322.7 48.4 L 371.6 48.4" id="40,14" /><path d="M 334.8 50.8 L 334.8 50.0 L 361.5 50.0" id="38,13" /><path d="M 334.8 50.8 L 334.8 51.6 L 359.5 51.6" id="38,12" /><path d="M 343.5 54.0 L 343.5 53.2 L 347.9 53.2" id="34,11" /><path d="M 343.5 54.0 L 343.5 54.8 L 355.7 54.8" id="34,10" /><path d="M 339.5 57.6 L 339.5 56.4 L 366.6 56.4" id="33,9" /><path d="M 350.7 58.8 L 350.7 58.0 L 390.3 58.0" id="31,8" /><path d="M 350.7 58.8 L 350.7 59.6 L 369.4 59.6" id="31,7" /><path d="M 324.8 63.4 L 324.8 61.2 L 353.4 61.2" id="35,6" /><path d="M 337.2 63.6 L 337.2 62.8 L 356.0 62.8" id="30,5" /><path d="M 337.2 63.6 L 337.2 64.4 L 356.4 64.4" id="30,4" /><path d="M 332.7 67.4 L 332.7 66.0 L 355.2 66.0" id="29,3" /><path d="M 339.1 68.8 L 339.1 67.6 L 357.9 67.6" id="28,2" /><path d="M 343.0 70.0 L 343.0 69.2 L 355.8 69.2" id="27,1" /><path d="M 343.0 70.0 L 343.0 70.8 L 361.5 70.8" id="27,0" /></g><g class="toytree-Nodes" style="fill:rgb(100%,0%,0%);fill-opacity:1.0;stroke:None;stroke-width:1"><g id="node-0" transform="translate(361.452,70.833)"><circle r="2.5" /></g><g id="node-1" transform="translate(355.814,69.231)"><circle r="2.5" /></g><g id="node-2" transform="translate(357.911,67.628)"><circle r="2.5" /></g><g id="node-3" transform="translate(355.151,66.026)"><circle r="2.5" /></g><g id="node-4" transform="translate(356.434,64.423)"><circle r="2.5" /></g><g id="node-5" transform="translate(355.969,62.821)"><circle r="2.5" /></g><g id="node-6" transform="translate(353.446,61.218)"><circle r="2.5" /></g><g id="node-7" transform="translate(369.370,59.615)"><circle r="2.5" /></g><g id="node-8" transform="translate(390.263,58.013)"><circle r="2.5" /></g><g id="node-9" transform="translate(366.614,56.410)"><circle r="2.5" /></g><g id="node-10" transform="translate(355.742,54.808)"><circle r="2.5" /></g><g id="node-11" transform="translate(347.915,53.205)"><circle r="2.5" /></g><g id="node-12" transform="translate(359.481,51.603)"><circle r="2.5" /></g><g id="node-13" transform="translate(361.476,50.000)"><circle r="2.5" /></g><g id="node-14" transform="translate(371.583,48.397)"><circle r="2.5" /></g><g id="node-15" transform="translate(359.970,46.795)"><circle r="2.5" /></g><g id="node-16" transform="translate(351.984,45.192)"><circle r="2.5" /></g><g id="node-17" transform="translate(361.340,43.590)"><circle r="2.5" /></g><g id="node-18" transform="translate(367.888,41.987)"><circle r="2.5" /></g><g id="node-19" transform="translate(366.183,40.385)"><circle r="2.5" /></g><g id="node-20" transform="translate(376.901,38.782)"><circle r="2.5" /></g><g id="node-21" transform="translate(355.882,37.179)"><circle r="2.5" /></g><g id="node-22" transform="translate(359.295,35.577)"><circle r="2.5" /></g><g id="node-23" transform="translate(361.595,33.974)"><circle r="2.5" /></g><g id="node-24" transform="translate(365.717,32.372)"><circle r="2.5" /></g><g id="node-25" transform="translate(351.696,30.769)"><circle r="2.5" /></g><g id="node-26" transform="translate(366.613,29.167)"><circle r="2.5" /></g><g id="node-27" transform="translate(343.038,70.032)"><circle r="0.0" /></g><g id="node-28" transform="translate(339.130,68.830)"><circle r="0.0" /></g><g id="node-29" transform="translate(332.708,67.428)"><circle r="0.0" /></g><g id="node-30" transform="translate(337.169,63.622)"><circle r="0.0" /></g><g id="node-31" transform="translate(350.661,58.814)"><circle r="0.0" /></g><g id="node-32" transform="translate(328.243,65.525)"><circle r="0.0" /></g><g id="node-33" transform="translate(339.508,57.612)"><circle r="0.0" /></g><g id="node-34" transform="translate(343.474,54.006)"><circle r="0.0" /></g><g id="node-35" transform="translate(324.775,63.371)"><circle r="0.0" /></g><g id="node-36" transform="translate(336.762,55.809)"><circle r="0.0" /></g><g id="node-37" transform="translate(324.165,59.590)"><circle r="0.0" /></g><g id="node-38" transform="translate(334.834,50.801)"><circle r="0.0" /></g><g id="node-39" transform="translate(317.423,55.196)"><circle r="0.0" /></g><g id="node-40" transform="translate(322.746,47.596)"><circle r="0.0" /></g><g id="node-41" transform="translate(314.358,51.396)"><circle r="0.0" /></g><g id="node-42" transform="translate(320.581,44.391)"><circle r="0.0" /></g><g id="node-43" transform="translate(325.821,41.186)"><circle r="0.0" /></g><g id="node-44" transform="translate(313.234,47.894)"><circle r="0.0" /></g><g id="node-45" transform="translate(315.486,39.984)"><circle r="0.0" /></g><g id="node-46" transform="translate(319.422,34.776)"><circle r="0.0" /></g><g id="node-47" transform="translate(312.295,43.939)"><circle r="0.0" /></g><g id="node-48" transform="translate(316.114,33.574)"><circle r="0.0" /></g><g id="node-49" transform="translate(311.014,29.968)"><circle r="0.0" /></g><g id="node-50" transform="translate(307.359,40.559)"><circle r="0.0" /></g><g id="node-51" transform="translate(310.336,31.771)"><circle r="0.0" /></g><g id="node-52" transform="translate(305.000,36.165)"><circle r="0.0" /></g></g></g></g></g><g class="toyplot-coordinates-Cartesian" id="t0815026385374cf4826735eef8a475c2"><clipPath id="te9058cfe62cd4afc86d8dda82b2f1550"><rect x="435.0" y="15.0" width="110.0" height="70.0" /></clipPath><g clip-path="url(#te9058cfe62cd4afc86d8dda82b2f1550)"><g class="toytree-mark-Toytree" id="t005a5c2527604314b5790878fb66e8e1"><g class="toytree-Edges" style="fill:none;stroke:rgb(14.9%,14.9%,14.9%);stroke-linecap:round;stroke-opacity:1;stroke-width:0.5"><path d="M 445.3 35.7 L 445.3 30.4 L 453.8 30.4" id="52,51" /><path d="M 445.3 35.7 L 445.3 41.0 L 445.5 41.0" id="52,50" /><path d="M 453.8 30.4 L 453.8 31.6 L 461.6 31.6" id="51,49" /><path d="M 445.5 41.0 L 445.5 35.5 L 466.3 35.5" id="50,48" /><path d="M 445.5 41.0 L 445.5 46.6 L 447.4 46.6" id="50,47" /><path d="M 466.3 35.5 L 466.3 37.0 L 476.6 37.0" id="48,46" /><path d="M 447.4 46.6 L 447.4 51.2 L 453.1 51.2" id="47,45" /><path d="M 476.6 37.0 L 476.6 38.4 L 504.2 38.4" id="46,44" /><path d="M 453.1 51.2 L 453.1 46.3 L 475.2 46.3" id="45,43" /><path d="M 453.1 51.2 L 453.1 56.0 L 460.8 56.0" id="45,42" /><path d="M 504.2 38.4 L 504.2 39.6 L 507.4 39.6" id="44,41" /><path d="M 475.2 46.3 L 475.2 44.4 L 491.5 44.4" id="43,40" /><path d="M 475.2 46.3 L 475.2 48.2 L 487.3 48.2" id="43,39" /><path d="M 460.8 56.0 L 460.8 54.0 L 475.0 54.0" id="42,38" /><path d="M 460.8 56.0 L 460.8 58.0 L 464.8 58.0" id="42,37" /><path d="M 487.3 48.2 L 487.3 49.6 L 492.2 49.6" id="39,36" /><path d="M 464.8 58.0 L 464.8 59.7 L 470.4 59.7" id="37,35" /><path d="M 492.2 49.6 L 492.2 50.8 L 499.1 50.8" id="36,34" /><path d="M 470.4 59.7 L 470.4 61.3 L 489.6 61.3" id="35,33" /><path d="M 489.6 61.3 L 489.6 63.1 L 496.2 63.1" id="33,32" /><path d="M 496.2 63.1 L 496.2 64.9 L 500.1 64.9" id="32,31" /><path d="M 500.1 64.9 L 500.1 67.0 L 501.9 67.0" id="31,30" /><path d="M 501.9 67.0 L 501.9 65.2 L 509.0 65.2" id="30,29" /><path d="M 501.9 67.0 L 501.9 68.8 L 506.3 68.8" id="30,28" /><path d="M 506.3 68.8 L 506.3 70.0 L 506.3 70.0" id="28,27" /><path d="M 453.8 30.4 L 453.8 29.2 L 514.9 29.2" id="51,26" /><path d="M 461.6 31.6 L 461.6 30.8 L 499.3 30.8" id="49,25" /><path d="M 461.6 31.6 L 461.6 32.4 L 502.8 32.4" id="49,24" /><path d="M 466.3 35.5 L 466.3 34.0 L 504.9 34.0" id="48,23" /><path d="M 476.6 37.0 L 476.6 35.6 L 488.1 35.6" id="46,22" /><path d="M 504.2 38.4 L 504.2 37.2 L 505.1 37.2" id="44,21" /><path d="M 507.4 39.6 L 507.4 38.8 L 508.9 38.8" id="41,20" /><path d="M 507.4 39.6 L 507.4 40.4 L 530.3 40.4" id="41,19" /><path d="M 447.4 46.6 L 447.4 42.0 L 491.3 42.0" id="47,18" /><path d="M 491.5 44.4 L 491.5 43.6 L 513.5 43.6" id="40,17" /><path d="M 491.5 44.4 L 491.5 45.2 L 516.0 45.2" id="40,16" /><path d="M 487.3 48.2 L 487.3 46.8 L 515.0 46.8" id="39,15" /><path d="M 492.2 49.6 L 492.2 48.4 L 514.6 48.4" id="36,14" /><path d="M 499.1 50.8 L 499.1 50.0 L 524.9 50.0" id="34,13" /><path d="M 499.1 50.8 L 499.1 51.6 L 509.8 51.6" id="34,12" /><path d="M 475.0 54.0 L 475.0 53.2 L 491.6 53.2" id="38,11" /><path d="M 475.0 54.0 L 475.0 54.8 L 511.8 54.8" id="38,10" /><path d="M 464.8 58.0 L 464.8 56.4 L 485.9 56.4" id="37,9" /><path d="M 470.4 59.7 L 470.4 58.0 L 498.2 58.0" id="35,8" /><path d="M 489.6 61.3 L 489.6 59.6 L 497.6 59.6" id="33,7" /><path d="M 496.2 63.1 L 496.2 61.2 L 505.6 61.2" id="32,6" /><path d="M 500.1 64.9 L 500.1 62.8 L 501.2 62.8" id="31,5" /><path d="M 509.0 65.2 L 509.0 64.4 L 509.0 64.4" id="29,4" /><path d="M 509.0 65.2 L 509.0 66.0 L 529.5 66.0" id="29,3" /><path d="M 506.3 68.8 L 506.3 67.6 L 506.9 67.6" id="28,2" /><path d="M 506.3 70.0 L 506.3 69.2 L 506.3 69.2" id="27,1" /><path d="M 506.3 70.0 L 506.3 70.8 L 506.3 70.8" id="27,0" /></g><g class="toytree-Nodes" style="fill:rgb(100%,0%,0%);fill-opacity:1.0;stroke:None;stroke-width:1"><g id="node-0" transform="translate(506.336,70.833)"><circle r="2.5" /></g><g id="node-1" transform="translate(506.336,69.231)"><circle r="2.5" /></g><g id="node-2" transform="translate(506.856,67.628)"><circle r="2.5" /></g><g id="node-3" transform="translate(529.527,66.026)"><circle r="2.5" /></g><g id="node-4" transform="translate(509.023,64.423)"><circle r="2.5" /></g><g id="node-5" transform="translate(501.207,62.821)"><circle r="2.5" /></g><g id="node-6" transform="translate(505.562,61.218)"><circle r="2.5" /></g><g id="node-7" transform="translate(497.612,59.615)"><circle r="2.5" /></g><g id="node-8" transform="translate(498.169,58.013)"><circle r="2.5" /></g><g id="node-9" transform="translate(485.853,56.410)"><circle r="2.5" /></g><g id="node-10" transform="translate(511.751,54.808)"><circle r="2.5" /></g><g id="node-11" transform="translate(491.555,53.205)"><circle r="2.5" /></g><g id="node-12" transform="translate(509.848,51.603)"><circle r="2.5" /></g><g id="node-13" transform="translate(524.922,50.000)"><circle r="2.5" /></g><g id="node-14" transform="translate(514.579,48.397)"><circle r="2.5" /></g><g id="node-15" transform="translate(514.970,46.795)"><circle r="2.5" /></g><g id="node-16" transform="translate(516.047,45.192)"><circle r="2.5" /></g><g id="node-17" transform="translate(513.485,43.590)"><circle r="2.5" /></g><g id="node-18" transform="translate(491.292,41.987)"><circle r="2.5" /></g><g id="node-19" transform="translate(530.278,40.385)"><circle r="2.5" /></g><g id="node-20" transform="translate(508.932,38.782)"><circle r="2.5" /></g><g id="node-21" transform="translate(505.080,37.179)"><circle r="2.5" /></g><g id="node-22" transform="translate(488.058,35.577)"><circle r="2.5" /></g><g id="node-23" transform="translate(504.946,33.974)"><circle r="2.5" /></g><g id="node-24" transform="translate(502.810,32.372)"><circle r="2.5" /></g><g id="node-25" transform="translate(499.259,30.769)"><circle r="2.5" /></g><g id="node-26" transform="translate(514.923,29.167)"><circle r="2.5" /></g><g id="node-27" transform="translate(506.336,70.032)"><circle r="0.0" /></g><g id="node-28" transform="translate(506.309,68.830)"><circle r="0.0" /></g><g id="node-29" transform="translate(508.996,65.224)"><circle r="0.0" /></g><g id="node-30" transform="translate(501.921,67.027)"><circle r="0.0" /></g><g id="node-31" transform="translate(500.103,64.924)"><circle r="0.0" /></g><g id="node-32" transform="translate(496.222,63.071)"><circle r="0.0" /></g><g id="node-33" transform="translate(489.571,61.343)"><circle r="0.0" /></g><g id="node-34" transform="translate(499.138,50.801)"><circle r="0.0" /></g><g id="node-35" transform="translate(470.397,59.678)"><circle r="0.0" /></g><g id="node-36" transform="translate(492.168,49.599)"><circle r="0.0" /></g><g id="node-37" transform="translate(464.757,58.044)"><circle r="0.0" /></g><g id="node-38" transform="translate(475.035,54.006)"><circle r="0.0" /></g><g id="node-39" transform="translate(487.274,48.197)"><circle r="0.0" /></g><g id="node-40" transform="translate(491.540,44.391)"><circle r="0.0" /></g><g id="node-41" transform="translate(507.444,39.583)"><circle r="0.0" /></g><g id="node-42" transform="translate(460.808,56.025)"><circle r="0.0" /></g><g id="node-43" transform="translate(475.177,46.294)"><circle r="0.0" /></g><g id="node-44" transform="translate(504.158,38.381)"><circle r="0.0" /></g><g id="node-45" transform="translate(453.071,51.160)"><circle r="0.0" /></g><g id="node-46" transform="translate(476.649,36.979)"><circle r="0.0" /></g><g id="node-47" transform="translate(447.398,46.573)"><circle r="0.0" /></g><g id="node-48" transform="translate(466.266,35.477)"><circle r="0.0" /></g><g id="node-49" transform="translate(461.590,31.571)"><circle r="0.0" /></g><g id="node-50" transform="translate(445.472,41.025)"><circle r="0.0" /></g><g id="node-51" transform="translate(453.803,30.369)"><circle r="0.0" /></g><g id="node-52" transform="translate(445.290,35.697)"><circle r="0.0" /></g></g></g></g></g></svg>