<svg class="toyplot-canvas-Canvas" xmlns:toyplot="http://www.sandia.gov/toyplot" xmlns:xlink="http://www.w3.org/1999/xlink" xmlns="http://www.w3.org/2000/svg" width="560.0px" height="100.0px" viewBox="0 0 560.0 100.0" preserveAspectRatio="xMidYMid meet" style="background-color:transparent;border-color:#292724;border-style:none;border-width:1.0;fill:rgb(16.1%,15.3%,14.1%);fill-opacity:1.0;font-family:Helvetica;font-size:12px;opacity:1.0;stroke:rgb(16.1%,15.3%,14.1%);stroke-opacity:1.0;stroke-width:1.0" id="t1e7bb97420b24220a3a2188a7a570d7a"><g class="toyplot-coordinates-Cartesian" id="t550eb53db7fd4ff282e8644917ce56bc"><clipPath id="tb285584d9efb4a52945de594e1553e34"><rect x="15.0" y="15.0" width="110.0" height="70.0" /></clipPath><g clip-path="url(#tb285584d9efb4a52945de594e1553e34)"><g class="toytree-mark-Toytree" id="t93da4ce0a8094aa6b0e96f160c8126c6"><g class="toytree-Edges" style="fill:none;stroke:rgb(14.9%,14.9%,14.9%);stroke-linecap:round;stroke-opacity:1;stroke-width:0.5"><path d="M 25.0 34.1 L 25.0 39.1 L 27.2 39.1" id="24,23" /><path d="M 27.2 39.1 L 27.2 45.5 L 32.1 45.5" id="23,22" /><path d="M 32.1 45.5 L 32.1 38.7 L 43.3 38.7" id="22,21" /><path d="M 32.1 45.5 L 32.1 52.3 L 34.4 52.3" id="22,20" /><path d="M 43.3 38.7 L 43.3 41.3 L 55.7 41.3" id="21,19" /><path d="M 34.4 52.3 L 34.4 58.0 L 35.8 58.0" id="20,18" /><path d="M 35.8 58.0 L 35.8 52.6 L 40.1 52.6" id="18,17" /><path d="M 35.8 58.0 L 35.8 63.5 L 36.8 63.5" id="18,16" /><path d="M 40.1 52.6 L 40.1 55.2 L 57.6 55.2" id="17,15" /><path d="M 36.8 63.5 L 36.8 66.5 L 39.3 66.5" id="16,14" /><path d="M 39.3 66.5 L 39.3 69.1 L 48.3 69.1" id="14,13" /><path d="M 25.0 34.1 L 25.0 29.2 L 96.0 29.2" id="24,12" /><path d="M 27.2 39.1 L 27.2 32.6 L 89.2 32.6" id="23,11" /><path d="M 43.3 38.7 L 43.3 36.1 L 110.3 36.1" id="21,10" /><path d="M 55.7 41.3 L 55.7 39.6 L 97.1 39.6" id="19,9" /><path d="M 55.7 41.3 L 55.7 43.1 L 92.9 43.1" id="19,8" /><path d="M 34.4 52.3 L 34.4 46.5 L 93.7 46.5" id="20,7" /><path d="M 40.1 52.6 L 40.1 50.0 L 91.8 50.0" id="17,6" /><path d="M 57.6 55.2 L 57.6 53.5 L 99.9 53.5" id="15,5" /><path d="M 57.6 55.2 L 57.6 56.9 L 101.0 56.9" id="15,4" /><path d="M 36.8 63.5 L 36.8 60.4 L 81.1 60.4" id="16,3" /><path d="M 39.3 66.5 L 39.3 63.9 L 96.5 63.9" id="14,2" /><path d="M 48.3 69.1 L 48.3 67.4 L 102.8 67.4" id="13,1" /><path d="M 48.3 69.1 L 48.3 70.8 L 104.9 70.8" id="13,0" /></g><g class="toytree-Nodes" style="fill:rgb(100%,0%,0%);fill-opacity:1.0;stroke:None;stroke-width:1"><g id="node-0" transform="translate(104.890,70.833)"><circle r="2.5" /></g><g id="node-1" transform="translate(102.795,67.361)"><circle r="2.5" /></g><g id="node-2" transform="translate(96.501,63.889)"><circle r="2.5" /></g><g id="node-3" transform="translate(81.147,60.417)"><circle r="2.5" /></g><g id="node-4" transform="translate(101.002,56.944)"><circle r="2.5" /></g><g id="node-5" transform="translate(99.881,53.472)"><circle r="2.5" /></g><g id="node-6" transform="translate(91.794,50.000)"><circle r="2.5" /></g><g id="node-7" transform="translate(93.707,46.528)"><circle r="2.5" /></g><g id="node-8" transform="translate(92.925,43.056)"><circle r="2.5" /></g><g id="node-9" transform="translate(97.073,39.583)"><circle r="2.5" /></g><g id="node-10" transform="translate(110.263,36.111)"><circle r="2.5" /></g><g id="node-11" transform="translate(89.204,32.639)"><circle r="2.5" /></g><g id="node-12" transform="translate(95.971,29.167)"><circle r="2.5" /></g><g id="node-13" transform="translate(48.300,69.097)"><circle r="0.0" /></g><g id="node-14" transform="translate(39.276,66.493)"><circle r="0.0" /></g><g id="node-15" transform="translate(57.611,55.208)"><circle r="0.0" /></g><g id="node-16" transform="translate(36.790,63.455)"><circle r="0.0" /></g><g id="node-17" transform="translate(40.072,52.604)"><circle r="0.0" /></g><g id="node-18" transform="translate(35.796,58.030)"><circle r="0.0" /></g><g id="node-19" transform="translate(55.684,41.319)"><circle r="0.0" /></g><g id="node-20" transform="translate(34.414,52.279)"><circle r="0.0" /></g><g id="node-21" transform="translate(43.324,38.715)"><circle r="0.0" /></g><g id="node-22" transform="translate(32.132,45.497)"><circle r="0.0" /></g><g id="node-23" transform="translate(27.200,39.068)"><circle r="0.0" /></g><g id="node-24" transform="translate(25.000,34.117)"><circle r="0.0" /></g></g></g></g></g><g class="toyplot-coordinates-Cartesian" id="t1a7cbb964a3c4dac84b4cf765d4e0fbd"><clipPath id="tc6bfff62cc874023bf30e417d0141e45"><rect x="155.0" y="15.0" width="110.0" height="70.0" /></clipPath><g clip-path="url(#tc6bfff62cc874023bf30e417d0141e45)"><g class="toytree-mark-Toytree" id="t5c389ebf6acb40c7837f3b631a472d15"><g class="toytree-Edges" style="fill:none;stroke:rgb(14.9%,14.9%,14.9%);stroke-linecap:round;stroke-opacity:1;stroke-width:0.5"><path d="M 165.0 41.6 L 165.0 32.2 L 171.1 32.2" id="24,23" /><path d="M 165.0 41.6 L 165.0 51.0 L 167.1 51.0" id="24,22" /><path d="M 171.1 32.2 L 171.1 35.2 L 173.3 35.2" id="23,21" /><path d="M 167.1 51.0 L 167.1 44.8 L 167.6 44.8" id="22,20" /><path d="M 167.1 51.0 L 167.1 57.2 L 169.1 57.2" id="22,19" /><path d="M 173.3 35.2 L 173.3 37.8 L 189.0 37.8" id="21,18" /><path d="M 169.1 57.2 L 169.1 51.7 L 170.5 51.7" id="19,17" /><path d="M 169.1 57.2 L 169.1 62.6 L 172.0 62.6" id="19,16" /><path d="M 172.0 62.6 L 172.0 58.7 L 176.4 58.7" id="16,15" /><path d="M 172.0 62.6 L 172.0 66.5 L 176.3 66.5" id="16,14" /><path d="M 176.3 66.5 L 176.3 69.1 L 186.4 69.1" id="14,13" /><path d="M 171.1 32.2 L 171.1 29.2 L 171.1 29.2" id="23,12" /><path d="M 173.3 35.2 L 173.3 32.6 L 180.2 32.6" id="21,11" /><path d="M 189.0 37.8 L 189.0 36.1 L 250.3 36.1" id="18,10" /><path d="M 189.0 37.8 L 189.0 39.6 L 207.5 39.6" id="18,9" /><path d="M 167.6 44.8 L 167.6 43.1 L 176.5 43.1" id="20,8" /><path d="M 167.6 44.8 L 167.6 46.5 L 175.1 46.5" id="20,7" /><path d="M 170.5 51.7 L 170.5 50.0 L 174.7 50.0" id="17,6" /><path d="M 170.5 51.7 L 170.5 53.5 L 175.9 53.5" id="17,5" /><path d="M 176.4 58.7 L 176.4 56.9 L 176.4 56.9" id="15,4" /><path d="M 176.4 58.7 L 176.4 60.4 L 180.2 60.4" id="15,3" /><path d="M 176.3 66.5 L 176.3 63.9 L 178.8 63.9" id="14,2" /><path d="M 186.4 69.1 L 186.4 67.4 L 202.5 67.4" id="13,1" /><path d="M 186.4 69.1 L 186.4 70.8 L 201.9 70.8" id="13,0" /></g><g class="toytree-Nodes" style="fill:rgb(100%,0%,0%);fill-opacity:1.0;stroke:None;stroke-width:1"><g id="node-0" transform="translate(201.878,70.833)"><circle r="2.5" /></g><g id="node-1" transform="translate(202.518,67.361)"><circle r="2.5" /></g><g id="node-2" transform="translate(178.764,63.889)"><circle r="2.5" /></g><g id="node-3" transform="translate(180.234,60.417)"><circle r="2.5" /></g><g id="node-4" transform="translate(176.398,56.944)"><circle r="2.5" /></g><g id="node-5" transform="translate(175.935,53.472)"><circle r="2.5" /></g><g id="node-6" transform="translate(174.656,50.000)"><circle r="2.5" /></g><g id="node-7" transform="translate(175.119,46.528)"><circle r="2.5" /></g><g id="node-8" transform="translate(176.462,43.056)"><circle r="2.5" /></g><g id="node-9" transform="translate(207.455,39.583)"><circle r="2.5" /></g><g id="node-10" transform="translate(250.263,36.111)"><circle r="2.5" /></g><g id="node-11" transform="translate(180.153,32.639)"><circle r="2.5" /></g><g id="node-12" transform="translate(171.058,29.167)"><circle r="2.5" /></g><g id="node-13" transform="translate(186.373,69.097)"><circle r="0.0" /></g><g id="node-14" transform="translate(176.334,66.493)"><circle r="0.0" /></g><g id="node-15" transform="translate(176.398,58.681)"><circle r="0.0" /></g><g id="node-16" transform="translate(171.970,62.587)"><circle r="0.0" /></g><g id="node-17" transform="translate(170.500,51.736)"><circle r="0.0" /></g><g id="node-18" transform="translate(188.977,37.847)"><circle r="0.0" /></g><g id="node-19" transform="translate(169.125,57.161)"><circle r="0.0" /></g><g id="node-20" transform="translate(167.638,44.792)"><circle r="0.0" /></g><g id="node-21" transform="translate(173.295,35.243)"><circle r="0.0" /></g><g id="node-22" transform="translate(167.095,50.977)"><circle r="0.0" /></g><g id="node-23" transform="translate(171.058,32.205)"><circle r="0.0" /></g><g id="node-24" transform="translate(165.000,41.591)"><circle r="0.0" /></g></g></g></g></g><g class="toyplot-coordinates-Cartesian" id="t01961a7d77f842e89d583b673cb6797c"><clipPath id="tea19a5337e924c66971c9d349ab982e6"><rect x="295.0" y="15.0" width="110.0" height="70.0" /></clipPath><g clip-path="url(#tea19a5337e924c66971c9d349ab982e6)"><g class="toytree-mark-Toytree" id="t807c7760f5564e2db63e8d5bbf45128c"><g class="toytree-Edges" style="fill:none;stroke:rgb(14.9%,14.9%,14.9%);stroke-linecap:round;stroke-opacity:1;stroke-width:0.5"><path d="M 305.0 37.1 L 305.0 30.9 L 314.9 30.9" id="24,23" /><path d="M 305.0 37.1 L 305.0 43.3 L 319.3 43.3" id="24,22" /><path d="M 319.3 43.3 L 319.3 37.8 L 330.8 37.8" id="22,21" /><path d="M 319.3 43.3 L 319.3 48.7 L 324.8 48.7" id="22,20" /><path d="M 324.8 48.7 L 324.8 54.3 L 326.4 54.3" id="20,19" /><path d="M 326.4 54.3 L 326.4 48.3 L 343.2 48.3" id="19,18" /><path d="M 326.4 54.3 L 326.4 60.4 L 329.6 60.4" id="19,17" /><path d="M 329.6 60.4 L 329.6 55.2 L 333.3 55.2" id="17,16" /><path d="M 329.6 60.4 L 329.6 65.6 L 333.1 65.6" id="17,15" /><path d="M 333.1 65.6 L 333.1 62.2 L 351.6 62.2" id="15,14" /><path d="M 333.1 65.6 L 333.1 69.1 L 337.2 69.1" id="15,13" /><path d="M 314.9 30.9 L 314.9 29.2 L 390.3 29.2" id="23,12" /><path d="M 314.9 30.9 L 314.9 32.6 L 348.9 32.6" id="23,11" /><path d="M 330.8 37.8 L 330.8 36.1 L 356.9 36.1" id="21,10" /><path d="M 330.8 37.8 L 330.8 39.6 L 361.0 39.6" id="21,9" /><path d="M 324.8 48.7 L 324.8 43.1 L 360.9 43.1" id="20,8" /><path d="M 343.2 48.3 L 343.2 46.5 L 383.0 46.5" id="18,7" /><path d="M 343.2 48.3 L 343.2 50.0 L 379.5 50.0" id="18,6" /><path d="M 333.3 55.2 L 333.3 53.5 L 358.3 53.5" id="16,5" /><path d="M 333.3 55.2 L 333.3 56.9 L 364.9 56.9" id="16,4" /><path d="M 351.6 62.2 L 351.6 60.4 L 359.9 60.4" id="14,3" /><path d="M 351.6 62.2 L 351.6 63.9 L 368.1 63.9" id="14,2" /><path d="M 337.2 69.1 L 337.2 67.4 L 353.3 67.4" id="13,1" /><path d="M 337.2 69.1 L 337.2 70.8 L 358.7 70.8" id="13,0" /></g><g class="toytree-Nodes" style="fill:rgb(100%,0%,0%);fill-opacity:1.0;stroke:None;stroke-width:1"><g id="node-0" transform="translate(358.736,70.833)"><circle r="2.5" /></g><g id="node-1" transform="translate(353.345,67.361)"><circle r="2.5" /></g><g id="node-2" transform="translate(368.098,63.889)"><circle r="2.5" /></g><g id="node-3" transform="translate(359.898,60.417)"><circle r="2.5" /></g><g id="node-4" transform="translate(364.934,56.944)"><circle r="2.5" /></g><g id="node-5" transform="translate(358.252,53.472)"><circle r="2.5" /></g><g id="node-6" transform="translate(379.460,50.000)"><circle r="2.5" /></g><g id="node-7" transform="translate(382.979,46.528)"><circle r="2.5" /></g><g id="node-8" transform="translate(360.867,43.056)"><circle r="2.5" /></g><g id="node-9" transform="translate(360.996,39.583)"><circle r="2.5" /></g><g id="node-10" transform="translate(356.880,36.111)"><circle r="2.5" /></g><g id="node-11" transform="translate(348.944,32.639)"><circle r="2.5" /></g><g id="node-12" transform="translate(390.263,29.167)"><circle r="2.5" /></g><g id="node-13" transform="translate(337.237,69.097)"><circle r="0.0" /></g><g id="node-14" transform="translate(351.570,62.153)"><circle r="0.0" /></g><g id="node-15" transform="translate(333.122,65.625)"><circle r="0.0" /></g><g id="node-16" transform="translate(333.348,55.208)"><circle r="0.0" /></g><g id="node-17" transform="translate(329.587,60.417)"><circle r="0.0" /></g><g id="node-18" transform="translate(343.209,48.264)"><circle r="0.0" /></g><g id="node-19" transform="translate(326.359,54.340)"><circle r="0.0" /></g><g id="node-20" transform="translate(324.826,48.698)"><circle r="0.0" /></g><g id="node-21" transform="translate(330.781,37.847)"><circle r="0.0" /></g><g id="node-22" transform="translate(319.306,43.273)"><circle r="0.0" /></g><g id="node-23" transform="translate(314.888,30.903)"><circle r="0.0" /></g><g id="node-24" transform="translate(305.000,37.088)"><circle r="0.0" /></g></g></g></g></g><g class="toyplot-coordinates-Cartesian" id="t5c326b9773d940feb6d6346d49db44df"><clipPath id="te1bf02876f7141caaf5f7bfad980f596"><rect x="435.0" y="15.0" width="110.0" height="70.0" /></clipPath><g clip-path="url(#te1bf02876f7141caaf5f7bfad980f596)"><g class="toytree-mark-Toytree" id="t0d4727ed5547413d809586b45750b2e3"><g class="toytree-Edges" style="fill:none;stroke:rgb(14.9%,14.9%,14.9%);stroke-linecap:round;stroke-opacity:1;stroke-width:0.5"><path d="M 445.0 38.7 L 445.0 31.8 L 450.7 31.8" id="24,23" /><path d="M 445.0 38.7 L 445.0 45.7 L 448.0 45.7" id="24,22" /><path d="M 450.7 31.8 L 450.7 34.4 L 464.5 34.4" id="23,21" /><path d="M 448.0 45.7 L 448.0 51.8 L 454.7 51.8" id="22,20" /><path d="M 454.7 51.8 L 454.7 45.7 L 470.9 45.7" id="20,19" /><path d="M 454.7 51.8 L 454.7 58.0 L 458.5 58.0" id="20,18" /><path d="M 470.9 45.7 L 470.9 48.3 L 480.5 48.3" id="19,17" /><path d="M 458.5 58.0 L 458.5 62.6 L 459.9 62.6" id="18,16" /><path d="M 459.9 62.6 L 459.9 58.7 L 473.4 58.7" id="16,15" /><path d="M 459.9 62.6 L 459.9 66.5 L 467.8 66.5" id="16,14" /><path d="M 467.8 66.5 L 467.8 69.1 L 485.6 69.1" id="14,13" /><path d="M 450.7 31.8 L 450.7 29.2 L 486.2 29.2" id="23,12" /><path d="M 464.5 34.4 L 464.5 32.6 L 530.3 32.6" id="21,11" /><path d="M 464.5 34.4 L 464.5 36.1 L 501.2 36.1" id="21,10" /><path d="M 448.0 45.7 L 448.0 39.6 L 487.2 39.6" id="22,9" /><path d="M 470.9 45.7 L 470.9 43.1 L 522.8 43.1" id="19,8" /><path d="M 480.5 48.3 L 480.5 46.5 L 505.3 46.5" id="17,7" /><path d="M 480.5 48.3 L 480.5 50.0 L 499.1 50.0" id="17,6" /><path d="M 458.5 58.0 L 458.5 53.5 L 480.1 53.5" id="18,5" /><path d="M 473.4 58.7 L 473.4 56.9 L 509.3 56.9" id="15,4" /><path d="M 473.4 58.7 L 473.4 60.4 L 504.7 60.4" id="15,3" /><path d="M 467.8 66.5 L 467.8 63.9 L 505.1 63.9" id="14,2" /><path d="M 485.6 69.1 L 485.6 67.4 L 512.5 67.4" id="13,1" /><path d="M 485.6 69.1 L 485.6 70.8 L 506.3 70.8" id="13,0" /></g><g class="toytree-Nodes" style="fill:rgb(100%,0%,0%);fill-opacity:1.0;stroke:None;stroke-width:1"><g id="node-0" transform="translate(506.294,70.833)"><circle r="2.5" /></g><g id="node-1" transform="translate(512.485,67.361)"><circle r="2.5" /></g><g id="node-2" transform="translate(505.104,63.889)"><circle r="2.5" /></g><g id="node-3" transform="translate(504.745,60.417)"><circle r="2.5" /></g><g id="node-4" transform="translate(509.251,56.944)"><circle r="2.5" /></g><g id="node-5" transform="translate(480.131,53.472)"><circle r="2.5" /></g><g id="node-6" transform="translate(499.059,50.000)"><circle r="2.5" /></g><g id="node-7" transform="translate(505.269,46.528)"><circle r="2.5" /></g><g id="node-8" transform="translate(522.848,43.056)"><circle r="2.5" /></g><g id="node-9" transform="translate(487.179,39.583)"><circle r="2.5" /></g><g id="node-10" transform="translate(501.247,36.111)"><circle r="2.5" /></g><g id="node-11" transform="translate(530.263,32.639)"><circle r="2.5" /></g><g id="node-12" transform="translate(486.170,29.167)"><circle r="2.5" /></g><g id="node-13" transform="translate(485.617,69.097)"><circle r="0.0" /></g><g id="node-14" transform="translate(467.802,66.493)"><circle r="0.0" /></g><g id="node-15" transform="translate(473.391,58.681)"><circle r="0.0" /></g><g id="node-16" transform="translate(459.944,62.587)"><circle r="0.0" /></g><g id="node-17" transform="translate(480.533,48.264)"><circle r="0.0" /></g><g id="node-18" transform="translate(458.487,58.030)"><circle r="0.0" /></g><g id="node-19" transform="translate(470.863,45.660)"><circle r="0.0" /></g><g id="node-20" transform="translate(454.717,51.845)"><circle r="0.0" /></g><g id="node-21" transform="translate(464.505,34.375)"><circle r="0.0" /></g><g id="node-22" transform="translate(448.046,45.714)"><circle r="0.0" /></g><g id="node-23" transform="translate(450.688,31.771)"><circle r="0.0" /></g><g id="node-24" transform="translate(445.000,38.742)"><circle r="0.0" /></g></g></g></g></g></svg>