<svg class="toyplot-canvas-Canvas" xmlns:toyplot="http://www.sandia.gov/toyplot" xmlns:xlink="http://www.w3.org/1999/xlink" xmlns="http://www.w3.org/2000/svg" width="560.0px" height="100.0px" viewBox="0 0 560.0 100.0" preserveAspectRatio="xMidYMid meet" style="background-color:transparent;border-color:#292724;border-style:none;border-width:1.0;fill:rgb(16.1%,15.3%,14.1%);fill-opacity:1.0;font-family:Helvetica;font-size:12px;opacity:1.0;stroke:rgb(16.1%,15.3%,14.1%);stroke-opacity:1.0;stroke-width:1.0" id="t129cc6062c694b7293829943f28f6b1b"><g class="toyplot-coordinates-Cartesian" id="tfe220ebd673645d5af3e8d6555661b1a"><clipPath id="t477562befc454cd88298b2072d42fca1"><rect x="15.0" y="15.0" width="110.0" height="70.0" /></clipPath><g clip-path="url(#t477562befc454cd88298b2072d42fca1)"><g class="toytree-mark-Toytree" id="tb57ceea3ab8b45839c4adf3e303a902c"><g class="toytree-Edges" style="fill:none;stroke:rgb(14.9%,14.9%,14.9%);stroke-linecap:round;stroke-opacity:1;stroke-width:0.5"><path d="M 25.0 41.7 L 25.0 31.2 L 28.7 31.2" id="72,71" /><path d="M 25.0 41.7 L 25.0 52.2 L 26.6 52.2" id="72,70" /><path d="M 28.7 31.2 L 28.7 33.3 L 33.8 33.3" id="71,69" /><path d="M 26.6 52.2 L 26.6 54.5 L 36.8 54.5" id="70,68" /><path d="M 33.8 33.3 L 33.8 36.2 L 35.8 36.2" id="69,67" /><path d="M 36.8 54.5 L 36.8 52.0 L 40.0 52.0" id="68,66" /><path d="M 36.8 54.5 L 36.8 56.9 L 37.7 56.9" id="68,65" /><path d="M 35.8 36.2 L 35.8 32.3 L 37.0 32.3" id="67,64" /><path d="M 35.8 36.2 L 35.8 40.1 L 37.4 40.1" id="67,63" /><path d="M 40.0 52.0 L 40.0 52.9 L 52.7 52.9" id="66,62" /><path d="M 37.7 56.9 L 37.7 59.3 L 39.4 59.3" id="65,61" /><path d="M 37.0 32.3 L 37.0 33.2 L 40.5 33.2" id="64,60" /><path d="M 37.4 40.1 L 37.4 36.0 L 38.0 36.0" id="63,59" /><path d="M 37.4 40.1 L 37.4 44.1 L 38.1 44.1" id="63,58" /><path d="M 39.4 59.3 L 39.4 56.7 L 47.4 56.7" id="61,57" /><path d="M 39.4 59.3 L 39.4 61.9 L 41.3 61.9" id="61,56" /><path d="M 38.0 36.0 L 38.0 37.1 L 41.0 37.1" id="59,55" /><path d="M 38.1 44.1 L 38.1 41.8 L 40.8 41.8" id="58,54" /><path d="M 38.1 44.1 L 38.1 46.4 L 41.9 46.4" id="58,53" /><path d="M 47.4 56.7 L 47.4 57.5 L 57.0 57.5" id="57,52" /><path d="M 41.3 61.9 L 41.3 59.8 L 45.6 59.8" id="56,51" /><path d="M 41.3 61.9 L 41.3 63.9 L 44.2 63.9" id="56,50" /><path d="M 41.0 37.1 L 41.0 38.1 L 42.4 38.1" id="55,49" /><path d="M 40.8 41.8 L 40.8 42.8 L 46.3 42.8" id="54,48" /><path d="M 41.9 46.4 L 41.9 47.4 L 47.6 47.4" id="53,47" /><path d="M 44.2 63.9 L 44.2 62.2 L 46.0 62.2" id="50,46" /><path d="M 44.2 63.9 L 44.2 65.6 L 45.5 65.6" id="50,45" /><path d="M 42.4 38.1 L 42.4 39.0 L 44.6 39.0" id="49,44" /><path d="M 46.3 42.8 L 46.3 43.6 L 52.2 43.6" id="48,43" /><path d="M 47.6 47.4 L 47.6 48.3 L 57.3 48.3" id="47,42" /><path d="M 45.5 65.6 L 45.5 67.4 L 49.8 67.4" id="45,41" /><path d="M 49.8 67.4 L 49.8 65.6 L 56.8 65.6" id="41,40" /><path d="M 49.8 67.4 L 49.8 69.1 L 50.7 69.1" id="41,39" /><path d="M 50.7 69.1 L 50.7 67.9 L 56.5 67.9" id="39,38" /><path d="M 50.7 69.1 L 50.7 70.3 L 55.3 70.3" id="39,37" /><path d="M 28.7 31.2 L 28.7 29.2 L 101.2 29.2" id="71,36" /><path d="M 33.8 33.3 L 33.8 30.3 L 103.4 30.3" id="69,35" /><path d="M 37.0 32.3 L 37.0 31.5 L 106.2 31.5" id="64,34" /><path d="M 40.5 33.2 L 40.5 32.6 L 106.4 32.6" id="60,33" /><path d="M 40.5 33.2 L 40.5 33.8 L 108.2 33.8" id="60,32" /><path d="M 38.0 36.0 L 38.0 35.0 L 107.1 35.0" id="59,31" /><path d="M 41.0 37.1 L 41.0 36.1 L 98.6 36.1" id="55,30" /><path d="M 42.4 38.1 L 42.4 37.3 L 105.1 37.3" id="49,29" /><path d="M 44.6 39.0 L 44.6 38.4 L 103.5 38.4" id="44,28" /><path d="M 44.6 39.0 L 44.6 39.6 L 105.8 39.6" id="44,27" /><path d="M 40.8 41.8 L 40.8 40.7 L 98.3 40.7" id="54,26" /><path d="M 46.3 42.8 L 46.3 41.9 L 104.6 41.9" id="48,25" /><path d="M 52.2 43.6 L 52.2 43.1 L 107.2 43.1" id="43,24" /><path d="M 52.2 43.6 L 52.2 44.2 L 105.4 44.2" id="43,23" /><path d="M 41.9 46.4 L 41.9 45.4 L 105.4 45.4" id="53,22" /><path d="M 47.6 47.4 L 47.6 46.5 L 109.4 46.5" id="47,21" /><path d="M 57.3 48.3 L 57.3 47.7 L 107.9 47.7" id="42,20" /><path d="M 57.3 48.3 L 57.3 48.8 L 107.8 48.8" id="42,19" /><path d="M 26.6 52.2 L 26.6 50.0 L 110.3 50.0" id="70,18" /><path d="M 40.0 52.0 L 40.0 51.2 L 100.2 51.2" id="66,17" /><path d="M 52.7 52.9 L 52.7 52.3 L 104.4 52.3" id="62,16" /><path d="M 52.7 52.9 L 52.7 53.5 L 108.5 53.5" id="62,15" /><path d="M 37.7 56.9 L 37.7 54.6 L 105.9 54.6" id="65,14" /><path d="M 47.4 56.7 L 47.4 55.8 L 107.5 55.8" id="57,13" /><path d="M 57.0 57.5 L 57.0 56.9 L 103.1 56.9" id="52,12" /><path d="M 57.0 57.5 L 57.0 58.1 L 101.6 58.1" id="52,11" /><path d="M 45.6 59.8 L 45.6 59.3 L 106.8 59.3" id="51,10" /><path d="M 45.6 59.8 L 45.6 60.4 L 108.3 60.4" id="51,9" /><path d="M 46.0 62.2 L 46.0 61.6 L 108.1 61.6" id="46,8" /><path d="M 46.0 62.2 L 46.0 62.7 L 107.4 62.7" id="46,7" /><path d="M 45.5 65.6 L 45.5 63.9 L 103.0 63.9" id="45,6" /><path d="M 56.8 65.6 L 56.8 65.0 L 102.5 65.0" id="40,5" /><path d="M 56.8 65.6 L 56.8 66.2 L 106.4 66.2" id="40,4" /><path d="M 56.5 67.9 L 56.5 67.4 L 103.3 67.4" id="38,3" /><path d="M 56.5 67.9 L 56.5 68.5 L 99.9 68.5" id="38,2" /><path d="M 55.3 70.3 L 55.3 69.7 L 104.2 69.7" id="37,1" /><path d="M 55.3 70.3 L 55.3 70.8 L 104.9 70.8" id="37,0" /></g><g class="toytree-Nodes" style="fill:rgb(100%,0%,0%);fill-opacity:1.0;stroke:None;stroke-width:1"><g id="node-0" transform="translate(104.928,70.833)"><circle r="2.5" /></g><g id="node-1" transform="translate(104.207,69.676)"><circle r="2.5" /></g><g id="node-2" transform="translate(99.940,68.519)"><circle r="2.5" /></g><g id="node-3" transform="translate(103.317,67.361)"><circle r="2.5" /></g><g id="node-4" transform="translate(106.445,66.204)"><circle r="2.5" /></g><g id="node-5" transform="translate(102.533,65.046)"><circle r="2.5" /></g><g id="node-6" transform="translate(103.030,63.889)"><circle r="2.5" /></g><g id="node-7" transform="translate(107.409,62.731)"><circle r="2.5" /></g><g id="node-8" transform="translate(108.060,61.574)"><circle r="2.5" /></g><g id="node-9" transform="translate(108.295,60.417)"><circle r="2.5" /></g><g id="node-10" transform="translate(106.826,59.259)"><circle r="2.5" /></g><g id="node-11" transform="translate(101.593,58.102)"><circle r="2.5" /></g><g id="node-12" transform="translate(103.078,56.944)"><circle r="2.5" /></g><g id="node-13" transform="translate(107.542,55.787)"><circle r="2.5" /></g><g id="node-14" transform="translate(105.862,54.630)"><circle r="2.5" /></g><g id="node-15" transform="translate(108.469,53.472)"><circle r="2.5" /></g><g id="node-16" transform="translate(104.424,52.315)"><circle r="2.5" /></g><g id="node-17" transform="translate(100.220,51.157)"><circle r="2.5" /></g><g id="node-18" transform="translate(110.263,50.000)"><circle r="2.5" /></g><g id="node-19" transform="translate(107.767,48.843)"><circle r="2.5" /></g><g id="node-20" transform="translate(107.908,47.685)"><circle r="2.5" /></g><g id="node-21" transform="translate(109.443,46.528)"><circle r="2.5" /></g><g id="node-22" transform="translate(105.373,45.370)"><circle r="2.5" /></g><g id="node-23" transform="translate(105.439,44.213)"><circle r="2.5" /></g><g id="node-24" transform="translate(107.215,43.056)"><circle r="2.5" /></g><g id="node-25" transform="translate(104.564,41.898)"><circle r="2.5" /></g><g id="node-26" transform="translate(98.329,40.741)"><circle r="2.5" /></g><g id="node-27" transform="translate(105.836,39.583)"><circle r="2.5" /></g><g id="node-28" transform="translate(103.492,38.426)"><circle r="2.5" /></g><g id="node-29" transform="translate(105.089,37.269)"><circle r="2.5" /></g><g id="node-30" transform="translate(98.647,36.111)"><circle r="2.5" /></g><g id="node-31" transform="translate(107.111,34.954)"><circle r="2.5" /></g><g id="node-32" transform="translate(108.229,33.796)"><circle r="2.5" /></g><g id="node-33" transform="translate(106.354,32.639)"><circle r="2.5" /></g><g id="node-34" transform="translate(106.197,31.481)"><circle r="2.5" /></g><g id="node-35" transform="translate(103.386,30.324)"><circle r="2.5" /></g><g id="node-36" transform="translate(101.239,29.167)"><circle r="2.5" /></g><g id="node-37" transform="translate(55.305,70.255)"><circle r="0.0" /></g><g id="node-38" transform="translate(56.515,67.940)"><circle r="0.0" /></g><g id="node-39" transform="translate(50.699,69.097)"><circle r="0.0" /></g><g id="node-40" transform="translate(56.782,65.625)"><circle r="0.0" /></g><g id="node-41" transform="translate(49.786,67.361)"><circle r="0.0" /></g><g id="node-42" transform="translate(57.331,48.264)"><circle r="0.0" /></g><g id="node-43" transform="translate(52.191,43.634)"><circle r="0.0" /></g><g id="node-44" transform="translate(44.616,39.005)"><circle r="0.0" /></g><g id="node-45" transform="translate(45.451,65.625)"><circle r="0.0" /></g><g id="node-46" transform="translate(46.028,62.153)"><circle r="0.0" /></g><g id="node-47" transform="translate(47.555,47.396)"><circle r="0.0" /></g><g id="node-48" transform="translate(46.280,42.766)"><circle r="0.0" /></g><g id="node-49" transform="translate(42.366,38.137)"><circle r="0.0" /></g><g id="node-50" transform="translate(44.248,63.889)"><circle r="0.0" /></g><g id="node-51" transform="translate(45.646,59.838)"><circle r="0.0" /></g><g id="node-52" transform="translate(57.015,57.523)"><circle r="0.0" /></g><g id="node-53" transform="translate(41.864,46.383)"><circle r="0.0" /></g><g id="node-54" transform="translate(40.829,41.753)"><circle r="0.0" /></g><g id="node-55" transform="translate(41.040,37.124)"><circle r="0.0" /></g><g id="node-56" transform="translate(41.336,61.863)"><circle r="0.0" /></g><g id="node-57" transform="translate(47.380,56.655)"><circle r="0.0" /></g><g id="node-58" transform="translate(38.147,44.068)"><circle r="0.0" /></g><g id="node-59" transform="translate(37.972,36.039)"><circle r="0.0" /></g><g id="node-60" transform="translate(40.451,33.218)"><circle r="0.0" /></g><g id="node-61" transform="translate(39.386,59.259)"><circle r="0.0" /></g><g id="node-62" transform="translate(52.725,52.894)"><circle r="0.0" /></g><g id="node-63" transform="translate(37.392,40.054)"><circle r="0.0" /></g><g id="node-64" transform="translate(37.000,32.350)"><circle r="0.0" /></g><g id="node-65" transform="translate(37.727,56.944)"><circle r="0.0" /></g><g id="node-66" transform="translate(39.967,52.025)"><circle r="0.0" /></g><g id="node-67" transform="translate(35.813,36.202)"><circle r="0.0" /></g><g id="node-68" transform="translate(36.775,54.485)"><circle r="0.0" /></g><g id="node-69" transform="translate(33.841,33.263)"><circle r="0.0" /></g><g id="node-70" transform="translate(26.570,52.242)"><circle r="0.0" /></g><g id="node-71" transform="translate(28.699,31.215)"><circle r="0.0" /></g><g id="node-72" transform="translate(25.000,41.729)"><circle r="0.0" /></g></g></g></g></g><g class="toyplot-coordinates-Cartesian" id="td73f8222d87649ebb4a8f9e3f6ccf173"><clipPath id="tcb2c89209d694286b381817983b2dbd8"><rect x="155.0" y="15.0" width="110.0" height="70.0" /></clipPath><g clip-path="url(#tcb2c89209d694286b381817983b2dbd8)"><g class="toytree-mark-Toytree" id="t81973b54976e4e55aca4b95ae0d0cad8"><g class="toytree-Edges" style="fill:none;stroke:rgb(14.9%,14.9%,14.9%);stroke-linecap:round;stroke-opacity:1;stroke-width:0.5"><path d="M 165.0 35.9 L 165.0 42.6 L 190.4 42.6" id="72,71" /><path d="M 190.4 42.6 L 190.4 33.4 L 205.7 33.4" id="71,70" /><path d="M 190.4 42.6 L 190.4 51.7 L 201.4 51.7" id="71,69" /><path d="M 205.7 33.4 L 205.7 36.6 L 209.7 36.6" id="70,68" /><path d="M 201.4 51.7 L 201.4 48.6 L 220.1 48.6" id="69,67" /><path d="M 201.4 51.7 L 201.4 54.8 L 220.6 54.8" id="69,66" /><path d="M 209.7 36.6 L 209.7 32.6 L 215.0 32.6" id="68,65" /><path d="M 209.7 36.6 L 209.7 40.5 L 217.2 40.5" id="68,64" /><path d="M 220.1 48.6 L 220.1 49.4 L 229.8 49.4" id="67,63" /><path d="M 220.6 54.8 L 220.6 58.4 L 225.9 58.4" id="66,62" /><path d="M 215.0 32.6 L 215.0 33.7 L 217.6 33.7" id="65,61" /><path d="M 217.2 40.5 L 217.2 42.6 L 220.2 42.6" id="64,60" /><path d="M 225.9 58.4 L 225.9 54.9 L 226.8 54.9" id="62,59" /><path d="M 225.9 58.4 L 225.9 61.9 L 226.1 61.9" id="62,58" /><path d="M 217.6 33.7 L 217.6 34.8 L 224.1 34.8" id="61,57" /><path d="M 220.2 42.6 L 220.2 40.5 L 223.5 40.5" id="60,56" /><path d="M 220.2 42.6 L 220.2 44.8 L 221.6 44.8" id="60,55" /><path d="M 226.8 54.9 L 226.8 53.2 L 228.0 53.2" id="59,54" /><path d="M 226.8 54.9 L 226.8 56.7 L 227.0 56.7" id="59,53" /><path d="M 226.1 61.9 L 226.1 59.8 L 227.3 59.8" id="58,52" /><path d="M 226.1 61.9 L 226.1 64.0 L 227.2 64.0" id="58,51" /><path d="M 224.1 34.8 L 224.1 35.8 L 226.4 35.8" id="57,50" /><path d="M 223.5 40.5 L 223.5 41.3 L 224.1 41.3" id="56,49" /><path d="M 221.6 44.8 L 221.6 43.6 L 225.3 43.6" id="55,48" /><path d="M 221.6 44.8 L 221.6 45.9 L 231.7 45.9" id="55,47" /><path d="M 228.0 53.2 L 228.0 54.1 L 228.3 54.1" id="54,46" /><path d="M 227.0 56.7 L 227.0 57.5 L 229.3 57.5" id="53,45" /><path d="M 227.2 64.0 L 227.2 66.4 L 227.4 66.4" id="51,44" /><path d="M 226.4 35.8 L 226.4 36.7 L 227.9 36.7" id="50,43" /><path d="M 227.4 66.4 L 227.4 63.7 L 228.8 63.7" id="44,42" /><path d="M 227.4 66.4 L 227.4 69.1 L 228.4 69.1" id="44,41" /><path d="M 228.8 63.7 L 228.8 64.8 L 229.3 64.8" id="42,40" /><path d="M 228.4 69.1 L 228.4 67.9 L 230.0 67.9" id="41,39" /><path d="M 228.4 69.1 L 228.4 70.3 L 229.3 70.3" id="41,38" /><path d="M 229.3 64.8 L 229.3 65.6 L 231.0 65.6" id="40,37" /><path d="M 165.0 35.9 L 165.0 29.2 L 232.1 29.2" id="72,36" /><path d="M 205.7 33.4 L 205.7 30.3 L 230.6 30.3" id="70,35" /><path d="M 215.0 32.6 L 215.0 31.5 L 221.3 31.5" id="65,34" /><path d="M 217.6 33.7 L 217.6 32.6 L 229.9 32.6" id="61,33" /><path d="M 224.1 34.8 L 224.1 33.8 L 230.3 33.8" id="57,32" /><path d="M 226.4 35.8 L 226.4 35.0 L 236.9 35.0" id="50,31" /><path d="M 227.9 36.7 L 227.9 36.1 L 236.0 36.1" id="43,30" /><path d="M 227.9 36.7 L 227.9 37.3 L 229.9 37.3" id="43,29" /><path d="M 217.2 40.5 L 217.2 38.4 L 222.3 38.4" id="64,28" /><path d="M 223.5 40.5 L 223.5 39.6 L 229.3 39.6" id="56,27" /><path d="M 224.1 41.3 L 224.1 40.7 L 230.0 40.7" id="49,26" /><path d="M 224.1 41.3 L 224.1 41.9 L 233.6 41.9" id="49,25" /><path d="M 225.3 43.6 L 225.3 43.1 L 233.1 43.1" id="48,24" /><path d="M 225.3 43.6 L 225.3 44.2 L 236.6 44.2" id="48,23" /><path d="M 231.7 45.9 L 231.7 45.4 L 233.9 45.4" id="47,22" /><path d="M 231.7 45.9 L 231.7 46.5 L 236.4 46.5" id="47,21" /><path d="M 220.1 48.6 L 220.1 47.7 L 241.4 47.7" id="67,20" /><path d="M 229.8 49.4 L 229.8 48.8 L 250.3 48.8" id="63,19" /><path d="M 229.8 49.4 L 229.8 50.0 L 243.6 50.0" id="63,18" /><path d="M 220.6 54.8 L 220.6 51.2 L 220.6 51.2" id="66,17" /><path d="M 228.0 53.2 L 228.0 52.3 L 228.8 52.3" id="54,16" /><path d="M 228.3 54.1 L 228.3 53.5 L 236.9 53.5" id="46,15" /><path d="M 228.3 54.1 L 228.3 54.6 L 230.5 54.6" id="46,14" /><path d="M 227.0 56.7 L 227.0 55.8 L 233.4 55.8" id="53,13" /><path d="M 229.3 57.5 L 229.3 56.9 L 230.4 56.9" id="45,12" /><path d="M 229.3 57.5 L 229.3 58.1 L 235.3 58.1" id="45,11" /><path d="M 227.3 59.8 L 227.3 59.3 L 231.1 59.3" id="52,10" /><path d="M 227.3 59.8 L 227.3 60.4 L 228.5 60.4" id="52,9" /><path d="M 227.2 64.0 L 227.2 61.6 L 227.3 61.6" id="51,8" /><path d="M 228.8 63.7 L 228.8 62.7 L 228.8 62.7" id="42,7" /><path d="M 229.3 64.8 L 229.3 63.9 L 232.8 63.9" id="40,6" /><path d="M 231.0 65.6 L 231.0 65.0 L 235.7 65.0" id="37,5" /><path d="M 231.0 65.6 L 231.0 66.2 L 233.3 66.2" id="37,4" /><path d="M 230.0 67.9 L 230.0 67.4 L 236.2 67.4" id="39,3" /><path d="M 230.0 67.9 L 230.0 68.5 L 233.3 68.5" id="39,2" /><path d="M 229.3 70.3 L 229.3 69.7 L 230.4 69.7" id="38,1" /><path d="M 229.3 70.3 L 229.3 70.8 L 232.6 70.8" id="38,0" /></g><g class="toytree-Nodes" style="fill:rgb(100%,0%,0%);fill-opacity:1.0;stroke:None;stroke-width:1"><g id="node-0" transform="translate(232.640,70.833)"><circle r="2.5" /></g><g id="node-1" transform="translate(230.383,69.676)"><circle r="2.5" /></g><g id="node-2" transform="translate(233.298,68.519)"><circle r="2.5" /></g><g id="node-3" transform="translate(236.212,67.361)"><circle r="2.5" /></g><g id="node-4" transform="translate(233.277,66.204)"><circle r="2.5" /></g><g id="node-5" transform="translate(235.660,65.046)"><circle r="2.5" /></g><g id="node-6" transform="translate(232.767,63.889)"><circle r="2.5" /></g><g id="node-7" transform="translate(228.783,62.731)"><circle r="2.5" /></g><g id="node-8" transform="translate(227.322,61.574)"><circle r="2.5" /></g><g id="node-9" transform="translate(228.492,60.417)"><circle r="2.5" /></g><g id="node-10" transform="translate(231.105,59.259)"><circle r="2.5" /></g><g id="node-11" transform="translate(235.325,58.102)"><circle r="2.5" /></g><g id="node-12" transform="translate(230.408,56.944)"><circle r="2.5" /></g><g id="node-13" transform="translate(233.437,55.787)"><circle r="2.5" /></g><g id="node-14" transform="translate(230.475,54.630)"><circle r="2.5" /></g><g id="node-15" transform="translate(236.860,53.472)"><circle r="2.5" /></g><g id="node-16" transform="translate(228.801,52.315)"><circle r="2.5" /></g><g id="node-17" transform="translate(220.599,51.157)"><circle r="2.5" /></g><g id="node-18" transform="translate(243.642,50.000)"><circle r="2.5" /></g><g id="node-19" transform="translate(250.263,48.843)"><circle r="2.5" /></g><g id="node-20" transform="translate(241.350,47.685)"><circle r="2.5" /></g><g id="node-21" transform="translate(236.417,46.528)"><circle r="2.5" /></g><g id="node-22" transform="translate(233.942,45.370)"><circle r="2.5" /></g><g id="node-23" transform="translate(236.576,44.213)"><circle r="2.5" /></g><g id="node-24" transform="translate(233.095,43.056)"><circle r="2.5" /></g><g id="node-25" transform="translate(233.596,41.898)"><circle r="2.5" /></g><g id="node-26" transform="translate(229.999,40.741)"><circle r="2.5" /></g><g id="node-27" transform="translate(229.302,39.583)"><circle r="2.5" /></g><g id="node-28" transform="translate(222.298,38.426)"><circle r="2.5" /></g><g id="node-29" transform="translate(229.900,37.269)"><circle r="2.5" /></g><g id="node-30" transform="translate(235.985,36.111)"><circle r="2.5" /></g><g id="node-31" transform="translate(236.881,34.954)"><circle r="2.5" /></g><g id="node-32" transform="translate(230.272,33.796)"><circle r="2.5" /></g><g id="node-33" transform="translate(229.882,32.639)"><circle r="2.5" /></g><g id="node-34" transform="translate(221.264,31.481)"><circle r="2.5" /></g><g id="node-35" transform="translate(230.588,30.324)"><circle r="2.5" /></g><g id="node-36" transform="translate(232.075,29.167)"><circle r="2.5" /></g><g id="node-37" transform="translate(230.960,65.625)"><circle r="0.0" /></g><g id="node-38" transform="translate(229.318,70.255)"><circle r="0.0" /></g><g id="node-39" transform="translate(230.011,67.940)"><circle r="0.0" /></g><g id="node-40" transform="translate(229.342,64.757)"><circle r="0.0" /></g><g id="node-41" transform="translate(228.418,69.097)"><circle r="0.0" /></g><g id="node-42" transform="translate(228.783,63.744)"><circle r="0.0" /></g><g id="node-43" transform="translate(227.910,36.690)"><circle r="0.0" /></g><g id="node-44" transform="translate(227.363,66.421)"><circle r="0.0" /></g><g id="node-45" transform="translate(229.312,57.523)"><circle r="0.0" /></g><g id="node-46" transform="translate(228.266,54.051)"><circle r="0.0" /></g><g id="node-47" transform="translate(231.671,45.949)"><circle r="0.0" /></g><g id="node-48" transform="translate(225.348,43.634)"><circle r="0.0" /></g><g id="node-49" transform="translate(224.076,41.319)"><circle r="0.0" /></g><g id="node-50" transform="translate(226.359,35.822)"><circle r="0.0" /></g><g id="node-51" transform="translate(227.183,63.997)"><circle r="0.0" /></g><g id="node-52" transform="translate(227.305,59.838)"><circle r="0.0" /></g><g id="node-53" transform="translate(227.028,56.655)"><circle r="0.0" /></g><g id="node-54" transform="translate(227.980,53.183)"><circle r="0.0" /></g><g id="node-55" transform="translate(221.576,44.792)"><circle r="0.0" /></g><g id="node-56" transform="translate(223.492,40.451)"><circle r="0.0" /></g><g id="node-57" transform="translate(224.108,34.809)"><circle r="0.0" /></g><g id="node-58" transform="translate(226.137,61.918)"><circle r="0.0" /></g><g id="node-59" transform="translate(226.811,54.919)"><circle r="0.0" /></g><g id="node-60" transform="translate(220.207,42.622)"><circle r="0.0" /></g><g id="node-61" transform="translate(217.605,33.724)"><circle r="0.0" /></g><g id="node-62" transform="translate(225.934,58.418)"><circle r="0.0" /></g><g id="node-63" transform="translate(229.824,49.421)"><circle r="0.0" /></g><g id="node-64" transform="translate(217.176,40.524)"><circle r="0.0" /></g><g id="node-65" transform="translate(215.031,32.603)"><circle r="0.0" /></g><g id="node-66" transform="translate(220.599,54.788)"><circle r="0.0" /></g><g id="node-67" transform="translate(220.115,48.553)"><circle r="0.0" /></g><g id="node-68" transform="translate(209.720,36.563)"><circle r="0.0" /></g><g id="node-69" transform="translate(201.437,51.671)"><circle r="0.0" /></g><g id="node-70" transform="translate(205.684,33.444)"><circle r="0.0" /></g><g id="node-71" transform="translate(190.449,42.557)"><circle r="0.0" /></g><g id="node-72" transform="translate(165.000,35.862)"><circle r="0.0" /></g></g></g></g></g><g class="toyplot-coordinates-Cartesian" id="tb4a692db3f404ada99416ec518e4529d"><clipPath id="td5a713d871104295bdf345c2683ad8e9"><rect x="295.0" y="15.0" width="110.0" height="70.0" /></clipPath><g clip-path="url(#td5a713d871104295bdf345c2683ad8e9)"><g class="toytree-mark-Toytree" id="t924c471f931c4321bc45f497d91be529"><g class="toytree-Edges" style="fill:none;stroke:rgb(14.9%,14.9%,14.9%);stroke-linecap:round;stroke-opacity:1;stroke-width:0.5"><path d="M 305.0 36.0 L 305.0 42.9 L 326.9 42.9" id="72,71" /><path d="M 326.9 42.9 L 326.9 32.4 L 333.8 32.4" id="71,70" /><path d="M 326.9 42.9 L 326.9 53.4 L 349.7 53.4" id="71,69" /><path d="M 333.8 32.4 L 333.8 34.5 L 340.4 34.5" id="70,68" /><path d="M 349.7 53.4 L 349.7 55.7 L 357.0 55.7" id="69,67" /><path d="M 340.4 34.5 L 340.4 32.3 L 346.2 32.3" id="68,66" /><path d="M 340.4 34.5 L 340.4 36.6 L 346.7 36.6" id="68,65" /><path d="M 357.0 55.7 L 357.0 52.9 L 363.5 52.9" id="67,64" /><path d="M 357.0 55.7 L 357.0 58.6 L 360.3 58.6" id="67,63" /><path d="M 346.2 32.3 L 346.2 33.2 L 352.4 33.2" id="66,62" /><path d="M 346.7 36.6 L 346.7 38.2 L 350.9 38.2" id="65,61" /><path d="M 360.3 58.6 L 360.3 55.5 L 363.2 55.5" id="63,60" /><path d="M 360.3 58.6 L 360.3 61.7 L 362.5 61.7" id="63,59" /><path d="M 350.9 38.2 L 350.9 40.2 L 354.4 40.2" id="61,58" /><path d="M 363.2 55.5 L 363.2 56.4 L 370.4 56.4" id="60,57" /><path d="M 362.5 61.7 L 362.5 59.0 L 364.2 59.0" id="59,56" /><path d="M 362.5 61.7 L 362.5 64.4 L 364.0 64.4" id="59,55" /><path d="M 354.4 40.2 L 354.4 43.1 L 357.6 43.1" id="58,54" /><path d="M 364.2 59.0 L 364.2 59.8 L 368.8 59.8" id="56,53" /><path d="M 364.0 64.4 L 364.0 62.2 L 364.5 62.2" id="55,52" /><path d="M 364.0 64.4 L 364.0 66.6 L 365.2 66.6" id="55,51" /><path d="M 357.6 43.1 L 357.6 40.2 L 361.6 40.2" id="54,50" /><path d="M 357.6 43.1 L 357.6 46.1 L 358.3 46.1" id="54,49" /><path d="M 365.2 66.6 L 365.2 64.8 L 366.5 64.8" id="51,48" /><path d="M 365.2 66.6 L 365.2 68.4 L 365.6 68.4" id="51,47" /><path d="M 361.6 40.2 L 361.6 39.0 L 367.6 39.0" id="50,46" /><path d="M 361.6 40.2 L 361.6 41.3 L 372.6 41.3" id="50,45" /><path d="M 358.3 46.1 L 358.3 43.9 L 362.6 43.9" id="49,44" /><path d="M 358.3 46.1 L 358.3 48.3 L 364.6 48.3" id="49,43" /><path d="M 366.5 64.8 L 366.5 65.6 L 372.0 65.6" id="48,42" /><path d="M 365.6 68.4 L 365.6 69.4 L 367.9 69.4" id="47,41" /><path d="M 362.6 43.9 L 362.6 44.8 L 365.0 44.8" id="44,40" /><path d="M 364.6 48.3 L 364.6 47.1 L 366.5 47.1" id="43,39" /><path d="M 364.6 48.3 L 364.6 49.4 L 365.5 49.4" id="43,38" /><path d="M 367.9 69.4 L 367.9 70.3 L 371.8 70.3" id="41,37" /><path d="M 305.0 36.0 L 305.0 29.2 L 378.7 29.2" id="72,36" /><path d="M 333.8 32.4 L 333.8 30.3 L 367.2 30.3" id="70,35" /><path d="M 346.2 32.3 L 346.2 31.5 L 373.0 31.5" id="66,34" /><path d="M 352.4 33.2 L 352.4 32.6 L 382.6 32.6" id="62,33" /><path d="M 352.4 33.2 L 352.4 33.8 L 379.2 33.8" id="62,32" /><path d="M 346.7 36.6 L 346.7 35.0 L 380.9 35.0" id="65,31" /><path d="M 350.9 38.2 L 350.9 36.1 L 372.2 36.1" id="61,30" /><path d="M 354.4 40.2 L 354.4 37.3 L 381.8 37.3" id="58,29" /><path d="M 367.6 39.0 L 367.6 38.4 L 384.0 38.4" id="46,28" /><path d="M 367.6 39.0 L 367.6 39.6 L 379.1 39.6" id="46,27" /><path d="M 372.6 41.3 L 372.6 40.7 L 383.0 40.7" id="45,26" /><path d="M 372.6 41.3 L 372.6 41.9 L 387.7 41.9" id="45,25" /><path d="M 362.6 43.9 L 362.6 43.1 L 381.5 43.1" id="44,24" /><path d="M 365.0 44.8 L 365.0 44.2 L 383.1 44.2" id="40,23" /><path d="M 365.0 44.8 L 365.0 45.4 L 378.9 45.4" id="40,22" /><path d="M 366.5 47.1 L 366.5 46.5 L 382.8 46.5" id="39,21" /><path d="M 366.5 47.1 L 366.5 47.7 L 381.2 47.7" id="39,20" /><path d="M 365.5 49.4 L 365.5 48.8 L 384.9 48.8" id="38,19" /><path d="M 365.5 49.4 L 365.5 50.0 L 377.4 50.0" id="38,18" /><path d="M 349.7 53.4 L 349.7 51.2 L 358.3 51.2" id="69,17" /><path d="M 363.5 52.9 L 363.5 52.3 L 370.5 52.3" id="64,16" /><path d="M 363.5 52.9 L 363.5 53.5 L 373.2 53.5" id="64,15" /><path d="M 363.2 55.5 L 363.2 54.6 L 379.8 54.6" id="60,14" /><path d="M 370.4 56.4 L 370.4 55.8 L 381.0 55.8" id="57,13" /><path d="M 370.4 56.4 L 370.4 56.9 L 379.7 56.9" id="57,12" /><path d="M 364.2 59.0 L 364.2 58.1 L 381.5 58.1" id="56,11" /><path d="M 368.8 59.8 L 368.8 59.3 L 383.4 59.3" id="53,10" /><path d="M 368.8 59.8 L 368.8 60.4 L 383.6 60.4" id="53,9" /><path d="M 364.5 62.2 L 364.5 61.6 L 370.6 61.6" id="52,8" /><path d="M 364.5 62.2 L 364.5 62.7 L 371.8 62.7" id="52,7" /><path d="M 366.5 64.8 L 366.5 63.9 L 374.2 63.9" id="48,6" /><path d="M 372.0 65.6 L 372.0 65.0 L 380.0 65.0" id="42,5" /><path d="M 372.0 65.6 L 372.0 66.2 L 384.2 66.2" id="42,4" /><path d="M 365.6 68.4 L 365.6 67.4 L 388.4 67.4" id="47,3" /><path d="M 367.9 69.4 L 367.9 68.5 L 382.9 68.5" id="41,2" /><path d="M 371.8 70.3 L 371.8 69.7 L 381.6 69.7" id="37,1" /><path d="M 371.8 70.3 L 371.8 70.8 L 390.3 70.8" id="37,0" /></g><g class="toytree-Nodes" style="fill:rgb(100%,0%,0%);fill-opacity:1.0;stroke:None;stroke-width:1"><g id="node-0" transform="translate(390.263,70.833)"><circle r="2.5" /></g><g id="node-1" transform="translate(381.557,69.676)"><circle r="2.5" /></g><g id="node-2" transform="translate(382.935,68.519)"><circle r="2.5" /></g><g id="node-3" transform="translate(388.381,67.361)"><circle r="2.5" /></g><g id="node-4" transform="translate(384.244,66.204)"><circle r="2.5" /></g><g id="node-5" transform="translate(379.966,65.046)"><circle r="2.5" /></g><g id="node-6" transform="translate(374.172,63.889)"><circle r="2.5" /></g><g id="node-7" transform="translate(371.829,62.731)"><circle r="2.5" /></g><g id="node-8" transform="translate(370.627,61.574)"><circle r="2.5" /></g><g id="node-9" transform="translate(383.580,60.417)"><circle r="2.5" /></g><g id="node-10" transform="translate(383.373,59.259)"><circle r="2.5" /></g><g id="node-11" transform="translate(381.538,58.102)"><circle r="2.5" /></g><g id="node-12" transform="translate(379.725,56.944)"><circle r="2.5" /></g><g id="node-13" transform="translate(381.046,55.787)"><circle r="2.5" /></g><g id="node-14" transform="translate(379.765,54.630)"><circle r="2.5" /></g><g id="node-15" transform="translate(373.217,53.472)"><circle r="2.5" /></g><g id="node-16" transform="translate(370.498,52.315)"><circle r="2.5" /></g><g id="node-17" transform="translate(358.297,51.157)"><circle r="2.5" /></g><g id="node-18" transform="translate(377.426,50.000)"><circle r="2.5" /></g><g id="node-19" transform="translate(384.942,48.843)"><circle r="2.5" /></g><g id="node-20" transform="translate(381.175,47.685)"><circle r="2.5" /></g><g id="node-21" transform="translate(382.791,46.528)"><circle r="2.5" /></g><g id="node-22" transform="translate(378.935,45.370)"><circle r="2.5" /></g><g id="node-23" transform="translate(383.101,44.213)"><circle r="2.5" /></g><g id="node-24" transform="translate(381.497,43.056)"><circle r="2.5" /></g><g id="node-25" transform="translate(387.676,41.898)"><circle r="2.5" /></g><g id="node-26" transform="translate(383.022,40.741)"><circle r="2.5" /></g><g id="node-27" transform="translate(379.104,39.583)"><circle r="2.5" /></g><g id="node-28" transform="translate(384.046,38.426)"><circle r="2.5" /></g><g id="node-29" transform="translate(381.773,37.269)"><circle r="2.5" /></g><g id="node-30" transform="translate(372.199,36.111)"><circle r="2.5" /></g><g id="node-31" transform="translate(380.890,34.954)"><circle r="2.5" /></g><g id="node-32" transform="translate(379.158,33.796)"><circle r="2.5" /></g><g id="node-33" transform="translate(382.640,32.639)"><circle r="2.5" /></g><g id="node-34" transform="translate(372.972,31.481)"><circle r="2.5" /></g><g id="node-35" transform="translate(367.232,30.324)"><circle r="2.5" /></g><g id="node-36" transform="translate(378.736,29.167)"><circle r="2.5" /></g><g id="node-37" transform="translate(371.770,70.255)"><circle r="0.0" /></g><g id="node-38" transform="translate(365.525,49.421)"><circle r="0.0" /></g><g id="node-39" transform="translate(366.527,47.106)"><circle r="0.0" /></g><g id="node-40" transform="translate(365.046,44.792)"><circle r="0.0" /></g><g id="node-41" transform="translate(367.855,69.387)"><circle r="0.0" /></g><g id="node-42" transform="translate(372.036,65.625)"><circle r="0.0" /></g><g id="node-43" transform="translate(364.554,48.264)"><circle r="0.0" /></g><g id="node-44" transform="translate(362.600,43.924)"><circle r="0.0" /></g><g id="node-45" transform="translate(372.618,41.319)"><circle r="0.0" /></g><g id="node-46" transform="translate(367.592,39.005)"><circle r="0.0" /></g><g id="node-47" transform="translate(365.638,68.374)"><circle r="0.0" /></g><g id="node-48" transform="translate(366.511,64.757)"><circle r="0.0" /></g><g id="node-49" transform="translate(358.344,46.094)"><circle r="0.0" /></g><g id="node-50" transform="translate(361.610,40.162)"><circle r="0.0" /></g><g id="node-51" transform="translate(365.224,66.565)"><circle r="0.0" /></g><g id="node-52" transform="translate(364.526,62.153)"><circle r="0.0" /></g><g id="node-53" transform="translate(368.757,59.838)"><circle r="0.0" /></g><g id="node-54" transform="translate(357.579,43.128)"><circle r="0.0" /></g><g id="node-55" transform="translate(364.028,64.359)"><circle r="0.0" /></g><g id="node-56" transform="translate(364.162,58.970)"><circle r="0.0" /></g><g id="node-57" transform="translate(370.442,56.366)"><circle r="0.0" /></g><g id="node-58" transform="translate(354.385,40.198)"><circle r="0.0" /></g><g id="node-59" transform="translate(362.478,61.664)"><circle r="0.0" /></g><g id="node-60" transform="translate(363.210,55.498)"><circle r="0.0" /></g><g id="node-61" transform="translate(350.868,38.155)"><circle r="0.0" /></g><g id="node-62" transform="translate(352.384,33.218)"><circle r="0.0" /></g><g id="node-63" transform="translate(360.323,58.581)"><circle r="0.0" /></g><g id="node-64" transform="translate(363.480,52.894)"><circle r="0.0" /></g><g id="node-65" transform="translate(346.693,36.554)"><circle r="0.0" /></g><g id="node-66" transform="translate(346.236,32.350)"><circle r="0.0" /></g><g id="node-67" transform="translate(356.972,55.737)"><circle r="0.0" /></g><g id="node-68" transform="translate(340.351,34.452)"><circle r="0.0" /></g><g id="node-69" transform="translate(349.668,53.447)"><circle r="0.0" /></g><g id="node-70" transform="translate(333.762,32.388)"><circle r="0.0" /></g><g id="node-71" transform="translate(326.881,42.918)"><circle r="0.0" /></g><g id="node-72" transform="translate(305.000,36.042)"><circle r="0.0" /></g></g></g></g></g><g class="toyplot-coordinates-Cartesian" id="tcd4020bf35024f9dbaf385050282c9c5"><clipPath id="t0fb64c6a3cd4455abf508a12fe06729b"><rect x="435.0" y="15.0" width="110.0" height="70.0" /></clipPath><g clip-path="url(#t0fb64c6a3cd4455abf508a12fe06729b)"><g class="toytree-mark-Toytree" id="t817daf856a944a059b7d2ed0e0cac437"><g class="toytree-Edges" style="fill:none;stroke:rgb(14.9%,14.9%,14.9%);stroke-linecap:round;stroke-opacity:1;stroke-width:0.5"><path d="M 445.0 41.3 L 445.0 31.2 L 466.2 31.2" id="72,71" /><path d="M 445.0 41.3 L 445.0 51.4 L 451.3 51.4" id="72,70" /><path d="M 466.2 31.2 L 466.2 33.3 L 471.0 33.3" id="71,69" /><path d="M 451.3 51.4 L 451.3 52.7 L 464.9 52.7" id="70,68" /><path d="M 471.0 33.3 L 471.0 30.9 L 475.0 30.9" id="69,67" /><path d="M 471.0 33.3 L 471.0 35.7 L 472.6 35.7" id="69,66" /><path d="M 464.9 52.7 L 464.9 54.3 L 474.3 54.3" id="68,65" /><path d="M 472.6 35.7 L 472.6 33.5 L 473.8 33.5" id="66,64" /><path d="M 472.6 35.7 L 472.6 37.8 L 476.8 37.8" id="66,63" /><path d="M 474.3 54.3 L 474.3 56.3 L 477.5 56.3" id="65,62" /><path d="M 473.8 33.5 L 473.8 34.4 L 480.7 34.4" id="64,61" /><path d="M 476.8 37.8 L 476.8 39.5 L 477.7 39.5" id="63,60" /><path d="M 477.5 56.3 L 477.5 59.1 L 479.2 59.1" id="62,59" /><path d="M 477.7 39.5 L 477.7 41.8 L 478.9 41.8" id="60,58" /><path d="M 479.2 59.1 L 479.2 56.4 L 483.8 56.4" id="59,57" /><path d="M 479.2 59.1 L 479.2 61.9 L 482.9 61.9" id="59,56" /><path d="M 478.9 41.8 L 478.9 39.4 L 483.3 39.4" id="58,55" /><path d="M 478.9 41.8 L 478.9 44.2 L 482.8 44.2" id="58,54" /><path d="M 483.8 56.4 L 483.8 55.2 L 488.2 55.2" id="57,53" /><path d="M 483.8 56.4 L 483.8 57.5 L 500.6 57.5" id="57,52" /><path d="M 482.9 61.9 L 482.9 59.8 L 488.9 59.8" id="56,51" /><path d="M 482.9 61.9 L 482.9 64.0 L 484.3 64.0" id="56,50" /><path d="M 483.3 39.4 L 483.3 40.5 L 492.7 40.5" id="55,49" /><path d="M 482.8 44.2 L 482.8 45.3 L 485.3 45.3" id="54,48" /><path d="M 484.3 64.0 L 484.3 62.2 L 487.5 62.2" id="50,47" /><path d="M 484.3 64.0 L 484.3 65.8 L 488.5 65.8" id="50,46" /><path d="M 492.7 40.5 L 492.7 41.3 L 499.4 41.3" id="49,45" /><path d="M 485.3 45.3 L 485.3 46.4 L 488.7 46.4" id="48,44" /><path d="M 488.5 65.8 L 488.5 67.7 L 491.2 67.7" id="46,43" /><path d="M 488.7 46.4 L 488.7 47.4 L 497.2 47.4" id="44,42" /><path d="M 491.2 67.7 L 491.2 65.9 L 501.3 65.9" id="43,41" /><path d="M 491.2 67.7 L 491.2 69.4 L 497.7 69.4" id="43,40" /><path d="M 497.2 47.4 L 497.2 48.3 L 504.6 48.3" id="42,39" /><path d="M 501.3 65.9 L 501.3 66.8 L 510.8 66.8" id="41,38" /><path d="M 497.7 69.4 L 497.7 70.3 L 502.0 70.3" id="40,37" /><path d="M 466.2 31.2 L 466.2 29.2 L 491.5 29.2" id="71,36" /><path d="M 475.0 30.9 L 475.0 30.3 L 495.9 30.3" id="67,35" /><path d="M 475.0 30.9 L 475.0 31.5 L 508.0 31.5" id="67,34" /><path d="M 473.8 33.5 L 473.8 32.6 L 503.1 32.6" id="64,33" /><path d="M 480.7 34.4 L 480.7 33.8 L 530.3 33.8" id="61,32" /><path d="M 480.7 34.4 L 480.7 35.0 L 494.3 35.0" id="61,31" /><path d="M 476.8 37.8 L 476.8 36.1 L 513.3 36.1" id="63,30" /><path d="M 477.7 39.5 L 477.7 37.3 L 509.2 37.3" id="60,29" /><path d="M 483.3 39.4 L 483.3 38.4 L 501.5 38.4" id="55,28" /><path d="M 492.7 40.5 L 492.7 39.6 L 514.0 39.6" id="49,27" /><path d="M 499.4 41.3 L 499.4 40.7 L 520.0 40.7" id="45,26" /><path d="M 499.4 41.3 L 499.4 41.9 L 513.9 41.9" id="45,25" /><path d="M 482.8 44.2 L 482.8 43.1 L 523.0 43.1" id="54,24" /><path d="M 485.3 45.3 L 485.3 44.2 L 516.7 44.2" id="48,23" /><path d="M 488.7 46.4 L 488.7 45.4 L 517.2 45.4" id="44,22" /><path d="M 497.2 47.4 L 497.2 46.5 L 519.2 46.5" id="42,21" /><path d="M 504.6 48.3 L 504.6 47.7 L 522.9 47.7" id="39,20" /><path d="M 504.6 48.3 L 504.6 48.8 L 518.9 48.8" id="39,19" /><path d="M 451.3 51.4 L 451.3 50.0 L 500.9 50.0" id="70,18" /><path d="M 464.9 52.7 L 464.9 51.2 L 484.1 51.2" id="68,17" /><path d="M 474.3 54.3 L 474.3 52.3 L 508.6 52.3" id="65,16" /><path d="M 477.5 56.3 L 477.5 53.5 L 495.1 53.5" id="62,15" /><path d="M 488.2 55.2 L 488.2 54.6 L 512.4 54.6" id="53,14" /><path d="M 488.2 55.2 L 488.2 55.8 L 513.1 55.8" id="53,13" /><path d="M 500.6 57.5 L 500.6 56.9 L 511.8 56.9" id="52,12" /><path d="M 500.6 57.5 L 500.6 58.1 L 523.7 58.1" id="52,11" /><path d="M 488.9 59.8 L 488.9 59.3 L 519.2 59.3" id="51,10" /><path d="M 488.9 59.8 L 488.9 60.4 L 525.0 60.4" id="51,9" /><path d="M 487.5 62.2 L 487.5 61.6 L 500.6 61.6" id="47,8" /><path d="M 487.5 62.2 L 487.5 62.7 L 504.7 62.7" id="47,7" /><path d="M 488.5 65.8 L 488.5 63.9 L 505.3 63.9" id="46,6" /><path d="M 501.3 65.9 L 501.3 65.0 L 529.0 65.0" id="41,5" /><path d="M 510.8 66.8 L 510.8 66.2 L 523.8 66.2" id="38,4" /><path d="M 510.8 66.8 L 510.8 67.4 L 524.3 67.4" id="38,3" /><path d="M 497.7 69.4 L 497.7 68.5 L 512.1 68.5" id="40,2" /><path d="M 502.0 70.3 L 502.0 69.7 L 520.3 69.7" id="37,1" /><path d="M 502.0 70.3 L 502.0 70.8 L 517.9 70.8" id="37,0" /></g><g class="toytree-Nodes" style="fill:rgb(100%,0%,0%);fill-opacity:1.0;stroke:None;stroke-width:1"><g id="node-0" transform="translate(517.887,70.833)"><circle r="2.5" /></g><g id="node-1" transform="translate(520.346,69.676)"><circle r="2.5" /></g><g id="node-2" transform="translate(512.135,68.519)"><circle r="2.5" /></g><g id="node-3" transform="translate(524.347,67.361)"><circle r="2.5" /></g><g id="node-4" transform="translate(523.789,66.204)"><circle r="2.5" /></g><g id="node-5" transform="translate(529.033,65.046)"><circle r="2.5" /></g><g id="node-6" transform="translate(505.309,63.889)"><circle r="2.5" /></g><g id="node-7" transform="translate(504.696,62.731)"><circle r="2.5" /></g><g id="node-8" transform="translate(500.641,61.574)"><circle r="2.5" /></g><g id="node-9" transform="translate(524.961,60.417)"><circle r="2.5" /></g><g id="node-10" transform="translate(519.191,59.259)"><circle r="2.5" /></g><g id="node-11" transform="translate(523.714,58.102)"><circle r="2.5" /></g><g id="node-12" transform="translate(511.763,56.944)"><circle r="2.5" /></g><g id="node-13" transform="translate(513.107,55.787)"><circle r="2.5" /></g><g id="node-14" transform="translate(512.351,54.630)"><circle r="2.5" /></g><g id="node-15" transform="translate(495.125,53.472)"><circle r="2.5" /></g><g id="node-16" transform="translate(508.625,52.315)"><circle r="2.5" /></g><g id="node-17" transform="translate(484.133,51.157)"><circle r="2.5" /></g><g id="node-18" transform="translate(500.947,50.000)"><circle r="2.5" /></g><g id="node-19" transform="translate(518.882,48.843)"><circle r="2.5" /></g><g id="node-20" transform="translate(522.949,47.685)"><circle r="2.5" /></g><g id="node-21" transform="translate(519.221,46.528)"><circle r="2.5" /></g><g id="node-22" transform="translate(517.172,45.370)"><circle r="2.5" /></g><g id="node-23" transform="translate(516.732,44.213)"><circle r="2.5" /></g><g id="node-24" transform="translate(522.951,43.056)"><circle r="2.5" /></g><g id="node-25" transform="translate(513.855,41.898)"><circle r="2.5" /></g><g id="node-26" transform="translate(519.969,40.741)"><circle r="2.5" /></g><g id="node-27" transform="translate(513.983,39.583)"><circle r="2.5" /></g><g id="node-28" transform="translate(501.532,38.426)"><circle r="2.5" /></g><g id="node-29" transform="translate(509.199,37.269)"><circle r="2.5" /></g><g id="node-30" transform="translate(513.337,36.111)"><circle r="2.5" /></g><g id="node-31" transform="translate(494.265,34.954)"><circle r="2.5" /></g><g id="node-32" transform="translate(530.263,33.796)"><circle r="2.5" /></g><g id="node-33" transform="translate(503.058,32.639)"><circle r="2.5" /></g><g id="node-34" transform="translate(508.021,31.481)"><circle r="2.5" /></g><g id="node-35" transform="translate(495.938,30.324)"><circle r="2.5" /></g><g id="node-36" transform="translate(491.538,29.167)"><circle r="2.5" /></g><g id="node-37" transform="translate(501.980,70.255)"><circle r="0.0" /></g><g id="node-38" transform="translate(510.776,66.782)"><circle r="0.0" /></g><g id="node-39" transform="translate(504.637,48.264)"><circle r="0.0" /></g><g id="node-40" transform="translate(497.654,69.387)"><circle r="0.0" /></g><g id="node-41" transform="translate(501.343,65.914)"><circle r="0.0" /></g><g id="node-42" transform="translate(497.189,47.396)"><circle r="0.0" /></g><g id="node-43" transform="translate(491.152,67.650)"><circle r="0.0" /></g><g id="node-44" transform="translate(488.699,46.383)"><circle r="0.0" /></g><g id="node-45" transform="translate(499.382,41.319)"><circle r="0.0" /></g><g id="node-46" transform="translate(488.468,65.770)"><circle r="0.0" /></g><g id="node-47" transform="translate(487.515,62.153)"><circle r="0.0" /></g><g id="node-48" transform="translate(485.290,45.298)"><circle r="0.0" /></g><g id="node-49" transform="translate(492.718,40.451)"><circle r="0.0" /></g><g id="node-50" transform="translate(484.280,63.961)"><circle r="0.0" /></g><g id="node-51" transform="translate(488.925,59.838)"><circle r="0.0" /></g><g id="node-52" transform="translate(500.552,57.523)"><circle r="0.0" /></g><g id="node-53" transform="translate(488.216,55.208)"><circle r="0.0" /></g><g id="node-54" transform="translate(482.808,44.177)"><circle r="0.0" /></g><g id="node-55" transform="translate(483.253,39.439)"><circle r="0.0" /></g><g id="node-56" transform="translate(482.851,61.900)"><circle r="0.0" /></g><g id="node-57" transform="translate(483.832,56.366)"><circle r="0.0" /></g><g id="node-58" transform="translate(478.854,41.808)"><circle r="0.0" /></g><g id="node-59" transform="translate(479.244,59.133)"><circle r="0.0" /></g><g id="node-60" transform="translate(477.701,39.538)"><circle r="0.0" /></g><g id="node-61" transform="translate(480.745,34.375)"><circle r="0.0" /></g><g id="node-62" transform="translate(477.490,56.302)"><circle r="0.0" /></g><g id="node-63" transform="translate(476.825,37.825)"><circle r="0.0" /></g><g id="node-64" transform="translate(473.754,33.507)"><circle r="0.0" /></g><g id="node-65" transform="translate(474.285,54.309)"><circle r="0.0" /></g><g id="node-66" transform="translate(472.599,35.666)"><circle r="0.0" /></g><g id="node-67" transform="translate(474.960,30.903)"><circle r="0.0" /></g><g id="node-68" transform="translate(464.875,52.733)"><circle r="0.0" /></g><g id="node-69" transform="translate(471.034,33.284)"><circle r="0.0" /></g><g id="node-70" transform="translate(451.273,51.367)"><circle r="0.0" /></g><g id="node-71" transform="translate(466.177,31.225)"><circle r="0.0" /></g><g id="node-72" transform="translate(445.000,41.296)"><circle r="0.0" /></g></g></g></g></g></svg>