<svg class="toyplot-canvas-Canvas" xmlns:toyplot="http://www.sandia.gov/toyplot" xmlns:xlink="http://www.w3.org/1999/xlink" xmlns="http://www.w3.org/2000/svg" width="560.0px" height="100.0px" viewBox="0 0 560.0 100.0" preserveAspectRatio="xMidYMid meet" style="background-color:transparent;border-color:#292724;border-style:none;border-width:1.0;fill:rgb(16.1%,15.3%,14.1%);fill-opacity:1.0;font-family:Helvetica;font-size:12px;opacity:1.0;stroke:rgb(16.1%,15.3%,14.1%);stroke-opacity:1.0;stroke-width:1.0" id="t17077fe1b5e3448a9ef95be9ff4070d1"><g class="toyplot-coordinates-Cartesian" id="tc2a4052190294b6285c2f4ec4899a7c4"><clipPath id="td23b98c5838149cca959197d0fd502b9"><rect x="15.0" y="15.0" width="110.0" height="70.0" /></clipPath><g clip-path="url(#td23b98c5838149cca959197d0fd502b9)"><g class="toytree-mark-Toytree" id="tb4939349d6a2494680ff181060ab076c"><g class="toytree-Edges" style="fill:none;stroke:rgb(14.9%,14.9%,14.9%);stroke-linecap:round;stroke-opacity:1;stroke-width:0.5"><path d="M 25.0 44.8 L 25.0 32.7 L 29.7 32.7" id="22,21" /><path d="M 25.0 44.8 L 25.0 56.9 L 27.7 56.9" id="22,20" /><path d="M 29.7 32.7 L 29.7 36.3 L 35.0 36.3" id="21,19" /><path d="M 27.7 56.9 L 27.7 50.9 L 29.5 50.9" id="20,18" /><path d="M 27.7 56.9 L 27.7 62.8 L 32.0 62.8" id="20,17" /><path d="M 35.0 36.3 L 35.0 39.6 L 47.7 39.6" id="19,16" /><path d="M 29.5 50.9 L 29.5 53.8 L 31.9 53.8" id="18,15" /><path d="M 32.0 62.8 L 32.0 66.1 L 36.9 66.1" id="17,14" /><path d="M 47.7 39.6 L 47.7 42.4 L 54.9 42.4" id="16,13" /><path d="M 36.9 66.1 L 36.9 68.9 L 43.4 68.9" id="14,12" /><path d="M 29.7 32.7 L 29.7 29.2 L 110.3 29.2" id="21,11" /><path d="M 35.0 36.3 L 35.0 33.0 L 103.3 33.0" id="19,10" /><path d="M 47.7 39.6 L 47.7 36.7 L 104.1 36.7" id="16,9" /><path d="M 54.9 42.4 L 54.9 40.5 L 100.9 40.5" id="13,8" /><path d="M 54.9 42.4 L 54.9 44.3 L 100.6 44.3" id="13,7" /><path d="M 29.5 50.9 L 29.5 48.1 L 109.8 48.1" id="18,6" /><path d="M 31.9 53.8 L 31.9 51.9 L 102.1 51.9" id="15,5" /><path d="M 31.9 53.8 L 31.9 55.7 L 100.8 55.7" id="15,4" /><path d="M 32.0 62.8 L 32.0 59.5 L 107.7 59.5" id="17,3" /><path d="M 36.9 66.1 L 36.9 63.3 L 104.2 63.3" id="14,2" /><path d="M 43.4 68.9 L 43.4 67.0 L 100.0 67.0" id="12,1" /><path d="M 43.4 68.9 L 43.4 70.8 L 102.1 70.8" id="12,0" /></g><g class="toytree-Nodes" style="fill:rgb(100%,0%,0%);fill-opacity:1.0;stroke:None;stroke-width:1"><g id="node-0" transform="translate(102.103,70.833)"><circle r="2.5" /></g><g id="node-1" transform="translate(100.006,67.045)"><circle r="2.5" /></g><g id="node-2" transform="translate(104.246,63.258)"><circle r="2.5" /></g><g id="node-3" transform="translate(107.739,59.470)"><circle r="2.5" /></g><g id="node-4" transform="translate(100.773,55.682)"><circle r="2.5" /></g><g id="node-5" transform="translate(102.064,51.894)"><circle r="2.5" /></g><g id="node-6" transform="translate(109.848,48.106)"><circle r="2.5" /></g><g id="node-7" transform="translate(100.567,44.318)"><circle r="2.5" /></g><g id="node-8" transform="translate(100.864,40.530)"><circle r="2.5" /></g><g id="node-9" transform="translate(104.111,36.742)"><circle r="2.5" /></g><g id="node-10" transform="translate(103.349,32.955)"><circle r="2.5" /></g><g id="node-11" transform="translate(110.263,29.167)"><circle r="2.5" /></g><g id="node-12" transform="translate(43.373,68.939)"><circle r="0.0" /></g><g id="node-13" transform="translate(54.907,42.424)"><circle r="0.0" /></g><g id="node-14" transform="translate(36.881,66.098)"><circle r="0.0" /></g><g id="node-15" transform="translate(31.865,53.788)"><circle r="0.0" /></g><g id="node-16" transform="translate(47.651,39.583)"><circle r="0.0" /></g><g id="node-17" transform="translate(31.956,62.784)"><circle r="0.0" /></g><g id="node-18" transform="translate(29.450,50.947)"><circle r="0.0" /></g><g id="node-19" transform="translate(35.034,36.269)"><circle r="0.0" /></g><g id="node-20" transform="translate(27.743,56.866)"><circle r="0.0" /></g><g id="node-21" transform="translate(29.747,32.718)"><circle r="0.0" /></g><g id="node-22" transform="translate(25.000,44.792)"><circle r="0.0" /></g></g></g></g></g><g class="toyplot-coordinates-Cartesian" id="t95bca1c7951e4418992276eb582d9ec3"><clipPath id="tf7b24ca08d074cd98c40409f40cf7a56"><rect x="155.0" y="15.0" width="110.0" height="70.0" /></clipPath><g clip-path="url(#tf7b24ca08d074cd98c40409f40cf7a56)"><g class="toytree-mark-Toytree" id="t4045cd1a9cfe4c2085c712b2ea9ed815"><g class="toytree-Edges" style="fill:none;stroke:rgb(14.9%,14.9%,14.9%);stroke-linecap:round;stroke-opacity:1;stroke-width:0.5"><path d="M 165.0 44.8 L 165.0 35.3 L 173.0 35.3" id="22,21" /><path d="M 165.0 44.8 L 165.0 54.3 L 171.4 54.3" id="22,20" /><path d="M 173.0 35.3 L 173.0 31.1 L 178.4 31.1" id="21,19" /><path d="M 173.0 35.3 L 173.0 39.6 L 184.8 39.6" id="21,18" /><path d="M 171.4 54.3 L 171.4 60.4 L 175.7 60.4" id="20,17" /><path d="M 184.8 39.6 L 184.8 42.4 L 190.1 42.4" id="18,16" /><path d="M 175.7 60.4 L 175.7 54.7 L 186.0 54.7" id="17,15" /><path d="M 175.7 60.4 L 175.7 66.1 L 186.1 66.1" id="17,14" /><path d="M 186.0 54.7 L 186.0 57.6 L 203.8 57.6" id="15,13" /><path d="M 186.1 66.1 L 186.1 68.9 L 186.8 68.9" id="14,12" /><path d="M 178.4 31.1 L 178.4 29.2 L 202.1 29.2" id="19,11" /><path d="M 178.4 31.1 L 178.4 33.0 L 250.3 33.0" id="19,10" /><path d="M 184.8 39.6 L 184.8 36.7 L 198.9 36.7" id="18,9" /><path d="M 190.1 42.4 L 190.1 40.5 L 200.0 40.5" id="16,8" /><path d="M 190.1 42.4 L 190.1 44.3 L 199.6 44.3" id="16,7" /><path d="M 171.4 54.3 L 171.4 48.1 L 188.0 48.1" id="20,6" /><path d="M 186.0 54.7 L 186.0 51.9 L 207.5 51.9" id="15,5" /><path d="M 203.8 57.6 L 203.8 55.7 L 248.1 55.7" id="13,4" /><path d="M 203.8 57.6 L 203.8 59.5 L 231.1 59.5" id="13,3" /><path d="M 186.1 66.1 L 186.1 63.3 L 191.0 63.3" id="14,2" /><path d="M 186.8 68.9 L 186.8 67.0 L 205.2 67.0" id="12,1" /><path d="M 186.8 68.9 L 186.8 70.8 L 215.1 70.8" id="12,0" /></g><g class="toytree-Nodes" style="fill:rgb(100%,0%,0%);fill-opacity:1.0;stroke:None;stroke-width:1"><g id="node-0" transform="translate(215.133,70.833)"><circle r="2.5" /></g><g id="node-1" transform="translate(205.160,67.045)"><circle r="2.5" /></g><g id="node-2" transform="translate(190.962,63.258)"><circle r="2.5" /></g><g id="node-3" transform="translate(231.061,59.470)"><circle r="2.5" /></g><g id="node-4" transform="translate(248.051,55.682)"><circle r="2.5" /></g><g id="node-5" transform="translate(207.497,51.894)"><circle r="2.5" /></g><g id="node-6" transform="translate(187.968,48.106)"><circle r="2.5" /></g><g id="node-7" transform="translate(199.563,44.318)"><circle r="2.5" /></g><g id="node-8" transform="translate(199.951,40.530)"><circle r="2.5" /></g><g id="node-9" transform="translate(198.927,36.742)"><circle r="2.5" /></g><g id="node-10" transform="translate(250.263,32.955)"><circle r="2.5" /></g><g id="node-11" transform="translate(202.090,29.167)"><circle r="2.5" /></g><g id="node-12" transform="translate(186.772,68.939)"><circle r="0.0" /></g><g id="node-13" transform="translate(203.842,57.576)"><circle r="0.0" /></g><g id="node-14" transform="translate(186.119,66.098)"><circle r="0.0" /></g><g id="node-15" transform="translate(185.959,54.735)"><circle r="0.0" /></g><g id="node-16" transform="translate(190.091,42.424)"><circle r="0.0" /></g><g id="node-17" transform="translate(175.670,60.417)"><circle r="0.0" /></g><g id="node-18" transform="translate(184.780,39.583)"><circle r="0.0" /></g><g id="node-19" transform="translate(178.396,31.061)"><circle r="0.0" /></g><g id="node-20" transform="translate(171.399,54.261)"><circle r="0.0" /></g><g id="node-21" transform="translate(173.043,35.322)"><circle r="0.0" /></g><g id="node-22" transform="translate(165.000,44.792)"><circle r="0.0" /></g></g></g></g></g><g class="toyplot-coordinates-Cartesian" id="taf3da9e0fecc486482fe482da6d0b0e5"><clipPath id="tf83c6f741854406d8d2ad667f1e9c1eb"><rect x="295.0" y="15.0" width="110.0" height="70.0" /></clipPath><g clip-path="url(#tf83c6f741854406d8d2ad667f1e9c1eb)"><g class="toytree-mark-Toytree" id="ta4270d762e714054908bab1a8165316f"><g class="toytree-Edges" style="fill:none;stroke:rgb(14.9%,14.9%,14.9%);stroke-linecap:round;stroke-opacity:1;stroke-width:0.5"><path d="M 305.0 37.6 L 305.0 31.1 L 307.9 31.1" id="22,21" /><path d="M 305.0 37.6 L 305.0 44.1 L 310.8 44.1" id="22,20" /><path d="M 310.8 44.1 L 310.8 51.5 L 313.3 51.5" id="20,19" /><path d="M 313.3 51.5 L 313.3 43.8 L 320.1 43.8" id="19,18" /><path d="M 313.3 51.5 L 313.3 59.2 L 322.1 59.2" id="19,17" /><path d="M 320.1 43.8 L 320.1 47.2 L 327.4 47.2" id="18,16" /><path d="M 322.1 59.2 L 322.1 62.8 L 322.8 62.8" id="17,15" /><path d="M 327.4 47.2 L 327.4 50.0 L 329.0 50.0" id="16,14" /><path d="M 322.8 62.8 L 322.8 66.1 L 337.3 66.1" id="15,13" /><path d="M 337.3 66.1 L 337.3 68.9 L 339.5 68.9" id="13,12" /><path d="M 307.9 31.1 L 307.9 29.2 L 355.4 29.2" id="21,11" /><path d="M 307.9 31.1 L 307.9 33.0 L 351.5 33.0" id="21,10" /><path d="M 310.8 44.1 L 310.8 36.7 L 349.1 36.7" id="20,9" /><path d="M 320.1 43.8 L 320.1 40.5 L 352.6 40.5" id="18,8" /><path d="M 327.4 47.2 L 327.4 44.3 L 346.8 44.3" id="16,7" /><path d="M 329.0 50.0 L 329.0 48.1 L 349.6 48.1" id="14,6" /><path d="M 329.0 50.0 L 329.0 51.9 L 356.4 51.9" id="14,5" /><path d="M 322.1 59.2 L 322.1 55.7 L 355.8 55.7" id="17,4" /><path d="M 322.8 62.8 L 322.8 59.5 L 390.3 59.5" id="15,3" /><path d="M 337.3 66.1 L 337.3 63.3 L 351.5 63.3" id="13,2" /><path d="M 339.5 68.9 L 339.5 67.0 L 352.7 67.0" id="12,1" /><path d="M 339.5 68.9 L 339.5 70.8 L 349.1 70.8" id="12,0" /></g><g class="toytree-Nodes" style="fill:rgb(100%,0%,0%);fill-opacity:1.0;stroke:None;stroke-width:1"><g id="node-0" transform="translate(349.115,70.833)"><circle r="2.5" /></g><g id="node-1" transform="translate(352.699,67.045)"><circle r="2.5" /></g><g id="node-2" transform="translate(351.476,63.258)"><circle r="2.5" /></g><g id="node-3" transform="translate(390.263,59.470)"><circle r="2.5" /></g><g id="node-4" transform="translate(355.754,55.682)"><circle r="2.5" /></g><g id="node-5" transform="translate(356.416,51.894)"><circle r="2.5" /></g><g id="node-6" transform="translate(349.585,48.106)"><circle r="2.5" /></g><g id="node-7" transform="translate(346.768,44.318)"><circle r="2.5" /></g><g id="node-8" transform="translate(352.600,40.530)"><circle r="2.5" /></g><g id="node-9" transform="translate(349.054,36.742)"><circle r="2.5" /></g><g id="node-10" transform="translate(351.511,32.955)"><circle r="2.5" /></g><g id="node-11" transform="translate(355.373,29.167)"><circle r="2.5" /></g><g id="node-12" transform="translate(339.504,68.939)"><circle r="0.0" /></g><g id="node-13" transform="translate(337.311,66.098)"><circle r="0.0" /></g><g id="node-14" transform="translate(328.965,50.000)"><circle r="0.0" /></g><g id="node-15" transform="translate(322.820,62.784)"><circle r="0.0" /></g><g id="node-16" transform="translate(327.411,47.159)"><circle r="0.0" /></g><g id="node-17" transform="translate(322.134,59.233)"><circle r="0.0" /></g><g id="node-18" transform="translate(320.123,43.845)"><circle r="0.0" /></g><g id="node-19" transform="translate(313.297,51.539)"><circle r="0.0" /></g><g id="node-20" transform="translate(310.792,44.141)"><circle r="0.0" /></g><g id="node-21" transform="translate(307.935,31.061)"><circle r="0.0" /></g><g id="node-22" transform="translate(305.000,37.601)"><circle r="0.0" /></g></g></g></g></g><g class="toyplot-coordinates-Cartesian" id="t47b3a3b67f9e487fb4780453fc367532"><clipPath id="t408b260ebc3f4f57b8a5a718668955e8"><rect x="435.0" y="15.0" width="110.0" height="70.0" /></clipPath><g clip-path="url(#t408b260ebc3f4f57b8a5a718668955e8)"><g class="toytree-mark-Toytree" id="t44406c9ecc424d799c6294fe2ca26a0b"><g class="toytree-Edges" style="fill:none;stroke:rgb(14.9%,14.9%,14.9%);stroke-linecap:round;stroke-opacity:1;stroke-width:0.5"><path d="M 445.0 43.7 L 445.0 32.7 L 447.9 32.7" id="22,21" /><path d="M 445.0 43.7 L 445.0 54.6 L 452.6 54.6" id="22,20" /><path d="M 447.9 32.7 L 447.9 36.3 L 466.3 36.3" id="21,19" /><path d="M 452.6 54.6 L 452.6 50.0 L 459.4 50.0" id="20,18" /><path d="M 452.6 54.6 L 452.6 59.2 L 461.8 59.2" id="20,17" /><path d="M 466.3 36.3 L 466.3 39.6 L 474.0 39.6" id="19,16" /><path d="M 461.8 59.2 L 461.8 62.8 L 471.3 62.8" id="17,15" /><path d="M 474.0 39.6 L 474.0 42.4 L 478.5 42.4" id="16,14" /><path d="M 471.3 62.8 L 471.3 66.1 L 484.1 66.1" id="15,13" /><path d="M 484.1 66.1 L 484.1 68.9 L 493.8 68.9" id="13,12" /><path d="M 447.9 32.7 L 447.9 29.2 L 500.5 29.2" id="21,11" /><path d="M 466.3 36.3 L 466.3 33.0 L 524.0 33.0" id="19,10" /><path d="M 474.0 39.6 L 474.0 36.7 L 518.2 36.7" id="16,9" /><path d="M 478.5 42.4 L 478.5 40.5 L 513.2 40.5" id="14,8" /><path d="M 478.5 42.4 L 478.5 44.3 L 499.2 44.3" id="14,7" /><path d="M 459.4 50.0 L 459.4 48.1 L 498.0 48.1" id="18,6" /><path d="M 459.4 50.0 L 459.4 51.9 L 500.7 51.9" id="18,5" /><path d="M 461.8 59.2 L 461.8 55.7 L 530.3 55.7" id="17,4" /><path d="M 471.3 62.8 L 471.3 59.5 L 517.5 59.5" id="15,3" /><path d="M 484.1 66.1 L 484.1 63.3 L 507.9 63.3" id="13,2" /><path d="M 493.8 68.9 L 493.8 67.0 L 509.6 67.0" id="12,1" /><path d="M 493.8 68.9 L 493.8 70.8 L 513.2 70.8" id="12,0" /></g><g class="toytree-Nodes" style="fill:rgb(100%,0%,0%);fill-opacity:1.0;stroke:None;stroke-width:1"><g id="node-0" transform="translate(513.156,70.833)"><circle r="2.5" /></g><g id="node-1" transform="translate(509.584,67.045)"><circle r="2.5" /></g><g id="node-2" transform="translate(507.922,63.258)"><circle r="2.5" /></g><g id="node-3" transform="translate(517.464,59.470)"><circle r="2.5" /></g><g id="node-4" transform="translate(530.263,55.682)"><circle r="2.5" /></g><g id="node-5" transform="translate(500.697,51.894)"><circle r="2.5" /></g><g id="node-6" transform="translate(498.036,48.106)"><circle r="2.5" /></g><g id="node-7" transform="translate(499.209,44.318)"><circle r="2.5" /></g><g id="node-8" transform="translate(513.190,40.530)"><circle r="2.5" /></g><g id="node-9" transform="translate(518.238,36.742)"><circle r="2.5" /></g><g id="node-10" transform="translate(523.992,32.955)"><circle r="2.5" /></g><g id="node-11" transform="translate(500.506,29.167)"><circle r="2.5" /></g><g id="node-12" transform="translate(493.760,68.939)"><circle r="0.0" /></g><g id="node-13" transform="translate(484.118,66.098)"><circle r="0.0" /></g><g id="node-14" transform="translate(478.452,42.424)"><circle r="0.0" /></g><g id="node-15" transform="translate(471.291,62.784)"><circle r="0.0" /></g><g id="node-16" transform="translate(473.997,39.583)"><circle r="0.0" /></g><g id="node-17" transform="translate(461.769,59.233)"><circle r="0.0" /></g><g id="node-18" transform="translate(459.408,50.000)"><circle r="0.0" /></g><g id="node-19" transform="translate(466.290,36.269)"><circle r="0.0" /></g><g id="node-20" transform="translate(452.602,54.616)"><circle r="0.0" /></g><g id="node-21" transform="translate(447.931,32.718)"><circle r="0.0" /></g><g id="node-22" transform="translate(445.000,43.667)"><circle r="0.0" /></g></g></g></g></g></svg>