<svg class="toyplot-canvas-Canvas" xmlns:toyplot="http://www.sandia.gov/toyplot" xmlns:xlink="http://www.w3.org/1999/xlink" xmlns="http://www.w3.org/2000/svg" width="560.0px" height="100.0px" viewBox="0 0 560.0 100.0" preserveAspectRatio="xMidYMid meet" style="background-color:transparent;border-color:#292724;border-style:none;border-width:1.0;fill:rgb(16.1%,15.3%,14.1%);fill-opacity:1.0;font-family:Helvetica;font-size:12px;opacity:1.0;stroke:rgb(16.1%,15.3%,14.1%);stroke-opacity:1.0;stroke-width:1.0" id="t37b963d2600248329edc24dfbdc4543d"><g class="toyplot-coordinates-Cartesian" id="t8f85c307410549dab98d49d371ed924d"><clipPath id="t69a0c7e452204faeb18f10a477aaee93"><rect x="15.0" y="15.0" width="110.0" height="70.0" /></clipPath><g clip-path="url(#t69a0c7e452204faeb18f10a477aaee93)"><g class="toytree-mark-Toytree" id="tc40649fd970647c6928dea253b0096fb"><g class="toytree-Edges" style="fill:none;stroke:rgb(14.9%,14.9%,14.9%);stroke-linecap:round;stroke-opacity:1;stroke-width:0.5"><path d="M 25.0 35.9 L 25.0 30.4 L 73.0 30.4" id="58,57" /><path d="M 25.0 35.9 L 25.0 41.3 L 26.8 41.3" id="58,56" /><path d="M 73.0 30.4 L 73.0 31.7 L 76.2 31.7" id="57,55" /><path d="M 26.8 41.3 L 26.8 47.7 L 31.6 47.7" id="56,54" /><path d="M 76.2 31.7 L 76.2 32.8 L 98.5 32.8" id="55,53" /><path d="M 31.6 47.7 L 31.6 38.8 L 33.7 38.8" id="54,52" /><path d="M 31.6 47.7 L 31.6 56.5 L 34.5 56.5" id="54,51" /><path d="M 33.7 38.8 L 33.7 41.3 L 40.2 41.3" id="52,50" /><path d="M 34.5 56.5 L 34.5 53.4 L 40.8 53.4" id="51,49" /><path d="M 34.5 56.5 L 34.5 59.7 L 37.0 59.7" id="51,48" /><path d="M 40.2 41.3 L 40.2 38.5 L 43.5 38.5" id="50,47" /><path d="M 40.2 41.3 L 40.2 44.1 L 42.6 44.1" id="50,46" /><path d="M 40.8 53.4 L 40.8 54.7 L 42.4 54.7" id="49,45" /><path d="M 37.0 59.7 L 37.0 61.4 L 39.6 61.4" id="48,44" /><path d="M 42.6 44.1 L 42.6 41.4 L 65.0 41.4" id="46,43" /><path d="M 42.6 44.1 L 42.6 46.8 L 46.8 46.8" id="46,42" /><path d="M 42.4 54.7 L 42.4 55.7 L 46.8 55.7" id="45,41" /><path d="M 39.6 61.4 L 39.6 63.5 L 43.2 63.5" id="44,40" /><path d="M 46.8 46.8 L 46.8 44.6 L 66.7 44.6" id="42,39" /><path d="M 46.8 46.8 L 46.8 48.9 L 48.1 48.9" id="42,38" /><path d="M 43.2 63.5 L 43.2 61.5 L 44.8 61.5" id="40,37" /><path d="M 43.2 63.5 L 43.2 65.5 L 53.7 65.5" id="40,36" /><path d="M 66.7 44.6 L 66.7 45.7 L 69.3 45.7" id="39,35" /><path d="M 48.1 48.9 L 48.1 50.0 L 51.3 50.0" id="38,34" /><path d="M 53.7 65.5 L 53.7 67.4 L 60.4 67.4" id="36,33" /><path d="M 60.4 67.4 L 60.4 65.8 L 63.4 65.8" id="33,32" /><path d="M 60.4 67.4 L 60.4 69.0 L 85.1 69.0" id="33,31" /><path d="M 85.1 69.0 L 85.1 70.1 L 102.1 70.1" id="31,30" /><path d="M 73.0 30.4 L 73.0 29.2 L 105.5 29.2" id="57,29" /><path d="M 76.2 31.7 L 76.2 30.6 L 106.3 30.6" id="55,28" /><path d="M 98.5 32.8 L 98.5 32.0 L 102.7 32.0" id="53,27" /><path d="M 98.5 32.8 L 98.5 33.5 L 103.6 33.5" id="53,26" /><path d="M 26.8 41.3 L 26.8 34.9 L 109.4 34.9" id="56,25" /><path d="M 33.7 38.8 L 33.7 36.4 L 107.5 36.4" id="52,24" /><path d="M 43.5 38.5 L 43.5 37.8 L 107.3 37.8" id="47,23" /><path d="M 43.5 38.5 L 43.5 39.2 L 104.2 39.2" id="47,22" /><path d="M 65.0 41.4 L 65.0 40.7 L 104.4 40.7" id="43,21" /><path d="M 65.0 41.4 L 65.0 42.1 L 105.6 42.1" id="43,20" /><path d="M 66.7 44.6 L 66.7 43.5 L 104.8 43.5" id="39,19" /><path d="M 69.3 45.7 L 69.3 45.0 L 105.1 45.0" id="35,18" /><path d="M 69.3 45.7 L 69.3 46.4 L 102.4 46.4" id="35,17" /><path d="M 48.1 48.9 L 48.1 47.8 L 106.8 47.8" id="38,16" /><path d="M 51.3 50.0 L 51.3 49.3 L 110.3 49.3" id="34,15" /><path d="M 51.3 50.0 L 51.3 50.7 L 107.2 50.7" id="34,14" /><path d="M 40.8 53.4 L 40.8 52.2 L 109.2 52.2" id="49,13" /><path d="M 42.4 54.7 L 42.4 53.6 L 106.2 53.6" id="45,12" /><path d="M 46.8 55.7 L 46.8 55.0 L 101.7 55.0" id="41,11" /><path d="M 46.8 55.7 L 46.8 56.5 L 101.8 56.5" id="41,10" /><path d="M 37.0 59.7 L 37.0 57.9 L 107.0 57.9" id="48,9" /><path d="M 39.6 61.4 L 39.6 59.3 L 101.1 59.3" id="44,8" /><path d="M 44.8 61.5 L 44.8 60.8 L 101.8 60.8" id="37,7" /><path d="M 44.8 61.5 L 44.8 62.2 L 98.4 62.2" id="37,6" /><path d="M 53.7 65.5 L 53.7 63.6 L 106.7 63.6" id="36,5" /><path d="M 63.4 65.8 L 63.4 65.1 L 101.7 65.1" id="32,4" /><path d="M 63.4 65.8 L 63.4 66.5 L 101.0 66.5" id="32,3" /><path d="M 85.1 69.0 L 85.1 68.0 L 102.8 68.0" id="31,2" /><path d="M 102.1 70.1 L 102.1 69.4 L 102.6 69.4" id="30,1" /><path d="M 102.1 70.1 L 102.1 70.8 L 102.2 70.8" id="30,0" /></g><g class="toytree-Nodes" style="fill:rgb(100%,0%,0%);fill-opacity:1.0;stroke:None;stroke-width:1"><g id="node-0" transform="translate(102.237,70.833)"><circle r="2.5" /></g><g id="node-1" transform="translate(102.634,69.397)"><circle r="2.5" /></g><g id="node-2" transform="translate(102.754,67.960)"><circle r="2.5" /></g><g id="node-3" transform="translate(100.979,66.523)"><circle r="2.5" /></g><g id="node-4" transform="translate(101.665,65.086)"><circle r="2.5" /></g><g id="node-5" transform="translate(106.715,63.649)"><circle r="2.5" /></g><g id="node-6" transform="translate(98.443,62.213)"><circle r="2.5" /></g><g id="node-7" transform="translate(101.753,60.776)"><circle r="2.5" /></g><g id="node-8" transform="translate(101.080,59.339)"><circle r="2.5" /></g><g id="node-9" transform="translate(107.027,57.902)"><circle r="2.5" /></g><g id="node-10" transform="translate(101.797,56.466)"><circle r="2.5" /></g><g id="node-11" transform="translate(101.689,55.029)"><circle r="2.5" /></g><g id="node-12" transform="translate(106.231,53.592)"><circle r="2.5" /></g><g id="node-13" transform="translate(109.236,52.155)"><circle r="2.5" /></g><g id="node-14" transform="translate(107.155,50.718)"><circle r="2.5" /></g><g id="node-15" transform="translate(110.263,49.282)"><circle r="2.5" /></g><g id="node-16" transform="translate(106.849,47.845)"><circle r="2.5" /></g><g id="node-17" transform="translate(102.431,46.408)"><circle r="2.5" /></g><g id="node-18" transform="translate(105.130,44.971)"><circle r="2.5" /></g><g id="node-19" transform="translate(104.797,43.534)"><circle r="2.5" /></g><g id="node-20" transform="translate(105.630,42.098)"><circle r="2.5" /></g><g id="node-21" transform="translate(104.394,40.661)"><circle r="2.5" /></g><g id="node-22" transform="translate(104.177,39.224)"><circle r="2.5" /></g><g id="node-23" transform="translate(107.318,37.787)"><circle r="2.5" /></g><g id="node-24" transform="translate(107.490,36.351)"><circle r="2.5" /></g><g id="node-25" transform="translate(109.373,34.914)"><circle r="2.5" /></g><g id="node-26" transform="translate(103.553,33.477)"><circle r="2.5" /></g><g id="node-27" transform="translate(102.668,32.040)"><circle r="2.5" /></g><g id="node-28" transform="translate(106.313,30.603)"><circle r="2.5" /></g><g id="node-29" transform="translate(105.472,29.167)"><circle r="2.5" /></g><g id="node-30" transform="translate(102.125,70.115)"><circle r="0.0" /></g><g id="node-31" transform="translate(85.081,69.037)"><circle r="0.0" /></g><g id="node-32" transform="translate(63.402,65.805)"><circle r="0.0" /></g><g id="node-33" transform="translate(60.434,67.421)"><circle r="0.0" /></g><g id="node-34" transform="translate(51.261,50.000)"><circle r="0.0" /></g><g id="node-35" transform="translate(69.271,45.690)"><circle r="0.0" /></g><g id="node-36" transform="translate(53.702,65.535)"><circle r="0.0" /></g><g id="node-37" transform="translate(44.820,61.494)"><circle r="0.0" /></g><g id="node-38" transform="translate(48.058,48.922)"><circle r="0.0" /></g><g id="node-39" transform="translate(66.679,44.612)"><circle r="0.0" /></g><g id="node-40" transform="translate(43.212,63.515)"><circle r="0.0" /></g><g id="node-41" transform="translate(46.775,55.747)"><circle r="0.0" /></g><g id="node-42" transform="translate(46.781,46.767)"><circle r="0.0" /></g><g id="node-43" transform="translate(65.026,41.379)"><circle r="0.0" /></g><g id="node-44" transform="translate(39.571,61.427)"><circle r="0.0" /></g><g id="node-45" transform="translate(42.355,54.670)"><circle r="0.0" /></g><g id="node-46" transform="translate(42.574,44.073)"><circle r="0.0" /></g><g id="node-47" transform="translate(43.547,38.506)"><circle r="0.0" /></g><g id="node-48" transform="translate(36.963,59.665)"><circle r="0.0" /></g><g id="node-49" transform="translate(40.846,53.412)"><circle r="0.0" /></g><g id="node-50" transform="translate(40.158,41.290)"><circle r="0.0" /></g><g id="node-51" transform="translate(34.527,56.538)"><circle r="0.0" /></g><g id="node-52" transform="translate(33.688,38.820)"><circle r="0.0" /></g><g id="node-53" transform="translate(98.461,32.759)"><circle r="0.0" /></g><g id="node-54" transform="translate(31.597,47.679)"><circle r="0.0" /></g><g id="node-55" transform="translate(76.195,31.681)"><circle r="0.0" /></g><g id="node-56" transform="translate(26.834,41.297)"><circle r="0.0" /></g><g id="node-57" transform="translate(73.010,30.424)"><circle r="0.0" /></g><g id="node-58" transform="translate(25.000,35.860)"><circle r="0.0" /></g></g></g></g></g><g class="toyplot-coordinates-Cartesian" id="tee2b2bb85ec14cf3a8f0ae1df10446ad"><clipPath id="tb7df6e0a7b6b4dad8fe7c321340f9139"><rect x="155.0" y="15.0" width="110.0" height="70.0" /></clipPath><g clip-path="url(#tb7df6e0a7b6b4dad8fe7c321340f9139)"><g class="toytree-mark-Toytree" id="tff557c83e0ad4fee9f40a69363803a26"><g class="toytree-Edges" style="fill:none;stroke:rgb(14.9%,14.9%,14.9%);stroke-linecap:round;stroke-opacity:1;stroke-width:0.5"><path d="M 165.0 35.9 L 165.0 30.4 L 209.4 30.4" id="58,57" /><path d="M 165.0 35.9 L 165.0 41.4 L 166.7 41.4" id="58,56" /><path d="M 209.4 30.4 L 209.4 31.7 L 212.4 31.7" id="57,55" /><path d="M 166.7 41.4 L 166.7 47.8 L 182.0 47.8" id="56,54" /><path d="M 212.4 31.7 L 212.4 32.8 L 217.5 32.8" id="55,53" /><path d="M 182.0 47.8 L 182.0 38.5 L 190.0 38.5" id="54,52" /><path d="M 182.0 47.8 L 182.0 57.1 L 188.4 57.1" id="54,51" /><path d="M 190.0 38.5 L 190.0 40.7 L 197.1 40.7" id="52,50" /><path d="M 188.4 57.1 L 188.4 53.4 L 190.2 53.4" id="51,49" /><path d="M 188.4 57.1 L 188.4 60.8 L 190.2 60.8" id="51,48" /><path d="M 197.1 40.7 L 197.1 43.5 L 200.3 43.5" id="50,47" /><path d="M 190.2 53.4 L 190.2 54.7 L 193.4 54.7" id="49,46" /><path d="M 190.2 60.8 L 190.2 63.7 L 193.0 63.7" id="48,45" /><path d="M 200.3 43.5 L 200.3 40.3 L 207.6 40.3" id="47,44" /><path d="M 200.3 43.5 L 200.3 46.8 L 207.9 46.8" id="47,43" /><path d="M 193.4 54.7 L 193.4 55.7 L 199.2 55.7" id="46,42" /><path d="M 193.0 63.7 L 193.0 60.6 L 199.9 60.6" id="45,41" /><path d="M 193.0 63.7 L 193.0 66.9 L 200.7 66.9" id="45,40" /><path d="M 207.6 40.3 L 207.6 41.4 L 216.5 41.4" id="44,39" /><path d="M 207.9 46.8 L 207.9 44.6 L 219.9 44.6" id="43,38" /><path d="M 207.9 46.8 L 207.9 48.9 L 211.7 48.9" id="43,37" /><path d="M 199.9 60.6 L 199.9 61.9 L 213.3 61.9" id="41,36" /><path d="M 200.7 66.9 L 200.7 68.7 L 203.1 68.7" id="40,35" /><path d="M 219.9 44.6 L 219.9 45.7 L 226.2 45.7" id="38,34" /><path d="M 211.7 48.9 L 211.7 50.0 L 217.7 50.0" id="37,33" /><path d="M 213.3 61.9 L 213.3 62.9 L 216.2 62.9" id="36,32" /><path d="M 203.1 68.7 L 203.1 67.2 L 204.4 67.2" id="35,31" /><path d="M 203.1 68.7 L 203.1 70.1 L 207.6 70.1" id="35,30" /><path d="M 209.4 30.4 L 209.4 29.2 L 218.4 29.2" id="57,29" /><path d="M 212.4 31.7 L 212.4 30.6 L 216.1 30.6" id="55,28" /><path d="M 217.5 32.8 L 217.5 32.0 L 218.3 32.0" id="53,27" /><path d="M 217.5 32.8 L 217.5 33.5 L 221.1 33.5" id="53,26" /><path d="M 166.7 41.4 L 166.7 34.9 L 221.8 34.9" id="56,25" /><path d="M 190.0 38.5 L 190.0 36.4 L 250.3 36.4" id="52,24" /><path d="M 197.1 40.7 L 197.1 37.8 L 229.4 37.8" id="50,23" /><path d="M 207.6 40.3 L 207.6 39.2 L 221.8 39.2" id="44,22" /><path d="M 216.5 41.4 L 216.5 40.7 L 220.3 40.7" id="39,21" /><path d="M 216.5 41.4 L 216.5 42.1 L 220.4 42.1" id="39,20" /><path d="M 219.9 44.6 L 219.9 43.5 L 231.2 43.5" id="38,19" /><path d="M 226.2 45.7 L 226.2 45.0 L 228.6 45.0" id="34,18" /><path d="M 226.2 45.7 L 226.2 46.4 L 227.4 46.4" id="34,17" /><path d="M 211.7 48.9 L 211.7 47.8 L 223.8 47.8" id="37,16" /><path d="M 217.7 50.0 L 217.7 49.3 L 237.3 49.3" id="33,15" /><path d="M 217.7 50.0 L 217.7 50.7 L 228.7 50.7" id="33,14" /><path d="M 190.2 53.4 L 190.2 52.2 L 204.8 52.2" id="49,13" /><path d="M 193.4 54.7 L 193.4 53.6 L 217.5 53.6" id="46,12" /><path d="M 199.2 55.7 L 199.2 55.0 L 214.2 55.0" id="42,11" /><path d="M 199.2 55.7 L 199.2 56.5 L 203.3 56.5" id="42,10" /><path d="M 190.2 60.8 L 190.2 57.9 L 208.9 57.9" id="48,9" /><path d="M 199.9 60.6 L 199.9 59.3 L 205.2 59.3" id="41,8" /><path d="M 213.3 61.9 L 213.3 60.8 L 237.8 60.8" id="36,7" /><path d="M 216.2 62.9 L 216.2 62.2 L 233.4 62.2" id="32,6" /><path d="M 216.2 62.9 L 216.2 63.6 L 219.0 63.6" id="32,5" /><path d="M 200.7 66.9 L 200.7 65.1 L 224.8 65.1" id="40,4" /><path d="M 204.4 67.2 L 204.4 66.5 L 206.4 66.5" id="31,3" /><path d="M 204.4 67.2 L 204.4 68.0 L 205.3 68.0" id="31,2" /><path d="M 207.6 70.1 L 207.6 69.4 L 209.2 69.4" id="30,1" /><path d="M 207.6 70.1 L 207.6 70.8 L 212.4 70.8" id="30,0" /></g><g class="toytree-Nodes" style="fill:rgb(100%,0%,0%);fill-opacity:1.0;stroke:None;stroke-width:1"><g id="node-0" transform="translate(212.436,70.833)"><circle r="2.5" /></g><g id="node-1" transform="translate(209.228,69.397)"><circle r="2.5" /></g><g id="node-2" transform="translate(205.327,67.960)"><circle r="2.5" /></g><g id="node-3" transform="translate(206.437,66.523)"><circle r="2.5" /></g><g id="node-4" transform="translate(224.751,65.086)"><circle r="2.5" /></g><g id="node-5" transform="translate(218.985,63.649)"><circle r="2.5" /></g><g id="node-6" transform="translate(233.425,62.213)"><circle r="2.5" /></g><g id="node-7" transform="translate(237.809,60.776)"><circle r="2.5" /></g><g id="node-8" transform="translate(205.166,59.339)"><circle r="2.5" /></g><g id="node-9" transform="translate(208.879,57.902)"><circle r="2.5" /></g><g id="node-10" transform="translate(203.307,56.466)"><circle r="2.5" /></g><g id="node-11" transform="translate(214.195,55.029)"><circle r="2.5" /></g><g id="node-12" transform="translate(217.503,53.592)"><circle r="2.5" /></g><g id="node-13" transform="translate(204.777,52.155)"><circle r="2.5" /></g><g id="node-14" transform="translate(228.669,50.718)"><circle r="2.5" /></g><g id="node-15" transform="translate(237.327,49.282)"><circle r="2.5" /></g><g id="node-16" transform="translate(223.757,47.845)"><circle r="2.5" /></g><g id="node-17" transform="translate(227.398,46.408)"><circle r="2.5" /></g><g id="node-18" transform="translate(228.641,44.971)"><circle r="2.5" /></g><g id="node-19" transform="translate(231.161,43.534)"><circle r="2.5" /></g><g id="node-20" transform="translate(220.372,42.098)"><circle r="2.5" /></g><g id="node-21" transform="translate(220.261,40.661)"><circle r="2.5" /></g><g id="node-22" transform="translate(221.826,39.224)"><circle r="2.5" /></g><g id="node-23" transform="translate(229.407,37.787)"><circle r="2.5" /></g><g id="node-24" transform="translate(250.263,36.351)"><circle r="2.5" /></g><g id="node-25" transform="translate(221.782,34.914)"><circle r="2.5" /></g><g id="node-26" transform="translate(221.100,33.477)"><circle r="2.5" /></g><g id="node-27" transform="translate(218.326,32.040)"><circle r="2.5" /></g><g id="node-28" transform="translate(216.100,30.603)"><circle r="2.5" /></g><g id="node-29" transform="translate(218.431,29.167)"><circle r="2.5" /></g><g id="node-30" transform="translate(207.585,70.115)"><circle r="0.0" /></g><g id="node-31" transform="translate(204.411,67.241)"><circle r="0.0" /></g><g id="node-32" transform="translate(216.188,62.931)"><circle r="0.0" /></g><g id="node-33" transform="translate(217.653,50.000)"><circle r="0.0" /></g><g id="node-34" transform="translate(226.160,45.690)"><circle r="0.0" /></g><g id="node-35" transform="translate(203.062,68.678)"><circle r="0.0" /></g><g id="node-36" transform="translate(213.291,61.853)"><circle r="0.0" /></g><g id="node-37" transform="translate(211.714,48.922)"><circle r="0.0" /></g><g id="node-38" transform="translate(219.906,44.612)"><circle r="0.0" /></g><g id="node-39" transform="translate(216.543,41.379)"><circle r="0.0" /></g><g id="node-40" transform="translate(200.681,66.882)"><circle r="0.0" /></g><g id="node-41" transform="translate(199.899,60.596)"><circle r="0.0" /></g><g id="node-42" transform="translate(199.233,55.747)"><circle r="0.0" /></g><g id="node-43" transform="translate(207.902,46.767)"><circle r="0.0" /></g><g id="node-44" transform="translate(207.585,40.302)"><circle r="0.0" /></g><g id="node-45" transform="translate(192.967,63.739)"><circle r="0.0" /></g><g id="node-46" transform="translate(193.439,54.670)"><circle r="0.0" /></g><g id="node-47" transform="translate(200.315,43.534)"><circle r="0.0" /></g><g id="node-48" transform="translate(190.220,60.821)"><circle r="0.0" /></g><g id="node-49" transform="translate(190.187,53.412)"><circle r="0.0" /></g><g id="node-50" transform="translate(197.052,40.661)"><circle r="0.0" /></g><g id="node-51" transform="translate(188.383,57.117)"><circle r="0.0" /></g><g id="node-52" transform="translate(189.998,38.506)"><circle r="0.0" /></g><g id="node-53" transform="translate(217.549,32.759)"><circle r="0.0" /></g><g id="node-54" transform="translate(182.040,47.811)"><circle r="0.0" /></g><g id="node-55" transform="translate(212.426,31.681)"><circle r="0.0" /></g><g id="node-56" transform="translate(166.695,41.362)"><circle r="0.0" /></g><g id="node-57" transform="translate(209.435,30.424)"><circle r="0.0" /></g><g id="node-58" transform="translate(165.000,35.893)"><circle r="0.0" /></g></g></g></g></g><g class="toyplot-coordinates-Cartesian" id="t8d22df89823f4b7b9d76dbdb97b4e7f5"><clipPath id="tf367548054b94042b588456e1738cee7"><rect x="295.0" y="15.0" width="110.0" height="70.0" /></clipPath><g clip-path="url(#tf367548054b94042b588456e1738cee7)"><g class="toytree-mark-Toytree" id="tea2e184156c34003a965ad0b90f2d710"><g class="toytree-Edges" style="fill:none;stroke:rgb(14.9%,14.9%,14.9%);stroke-linecap:round;stroke-opacity:1;stroke-width:0.5"><path d="M 305.0 34.2 L 305.0 39.3 L 306.7 39.3" id="58,57" /><path d="M 306.7 39.3 L 306.7 31.9 L 354.6 31.9" id="57,56" /><path d="M 306.7 39.3 L 306.7 46.7 L 320.9 46.7" id="57,55" /><path d="M 354.6 31.9 L 354.6 33.1 L 356.6 33.1" id="56,54" /><path d="M 320.9 46.7 L 320.9 38.0 L 326.1 38.0" id="55,53" /><path d="M 320.9 46.7 L 320.9 55.3 L 326.1 55.3" id="55,52" /><path d="M 356.6 33.1 L 356.6 34.2 L 362.6 34.2" id="54,51" /><path d="M 326.1 38.0 L 326.1 39.7 L 333.2 39.7" id="53,50" /><path d="M 326.1 55.3 L 326.1 58.4 L 326.2 58.4" id="52,49" /><path d="M 333.2 39.7 L 333.2 41.6 L 336.2 41.6" id="50,48" /><path d="M 326.2 58.4 L 326.2 54.8 L 335.4 54.8" id="49,47" /><path d="M 326.2 58.4 L 326.2 62.0 L 330.8 62.0" id="49,46" /><path d="M 336.2 41.6 L 336.2 44.1 L 337.1 44.1" id="48,45" /><path d="M 335.4 54.8 L 335.4 56.1 L 343.0 56.1" id="47,44" /><path d="M 330.8 62.0 L 330.8 64.6 L 333.8 64.6" id="46,43" /><path d="M 337.1 44.1 L 337.1 41.4 L 354.8 41.4" id="45,42" /><path d="M 337.1 44.1 L 337.1 46.8 L 343.5 46.8" id="45,41" /><path d="M 343.0 56.1 L 343.0 57.2 L 346.4 57.2" id="44,40" /><path d="M 333.8 64.6 L 333.8 61.9 L 336.1 61.9" id="43,39" /><path d="M 333.8 64.6 L 333.8 67.4 L 340.8 67.4" id="43,38" /><path d="M 343.5 46.8 L 343.5 44.6 L 361.0 44.6" id="41,37" /><path d="M 343.5 46.8 L 343.5 48.9 L 350.9 48.9" id="41,36" /><path d="M 336.1 61.9 L 336.1 62.9 L 340.9 62.9" id="39,35" /><path d="M 340.8 67.4 L 340.8 65.8 L 345.3 65.8" id="38,34" /><path d="M 340.8 67.4 L 340.8 69.0 L 346.8 69.0" id="38,33" /><path d="M 361.0 44.6 L 361.0 45.7 L 368.5 45.7" id="37,32" /><path d="M 350.9 48.9 L 350.9 50.0 L 354.2 50.0" id="36,31" /><path d="M 346.8 69.0 L 346.8 70.1 L 349.8 70.1" id="33,30" /><path d="M 305.0 34.2 L 305.0 29.2 L 368.5 29.2" id="58,29" /><path d="M 354.6 31.9 L 354.6 30.6 L 367.3 30.6" id="56,28" /><path d="M 356.6 33.1 L 356.6 32.0 L 375.2 32.0" id="54,27" /><path d="M 362.6 34.2 L 362.6 33.5 L 367.7 33.5" id="51,26" /><path d="M 362.6 34.2 L 362.6 34.9 L 369.4 34.9" id="51,25" /><path d="M 326.1 38.0 L 326.1 36.4 L 383.0 36.4" id="53,24" /><path d="M 333.2 39.7 L 333.2 37.8 L 376.6 37.8" id="50,23" /><path d="M 336.2 41.6 L 336.2 39.2 L 374.9 39.2" id="48,22" /><path d="M 354.8 41.4 L 354.8 40.7 L 373.5 40.7" id="42,21" /><path d="M 354.8 41.4 L 354.8 42.1 L 366.9 42.1" id="42,20" /><path d="M 361.0 44.6 L 361.0 43.5 L 384.7 43.5" id="37,19" /><path d="M 368.5 45.7 L 368.5 45.0 L 378.8 45.0" id="32,18" /><path d="M 368.5 45.7 L 368.5 46.4 L 375.5 46.4" id="32,17" /><path d="M 350.9 48.9 L 350.9 47.8 L 379.9 47.8" id="36,16" /><path d="M 354.2 50.0 L 354.2 49.3 L 376.3 49.3" id="31,15" /><path d="M 354.2 50.0 L 354.2 50.7 L 390.3 50.7" id="31,14" /><path d="M 326.1 55.3 L 326.1 52.2 L 374.3 52.2" id="52,13" /><path d="M 335.4 54.8 L 335.4 53.6 L 359.3 53.6" id="47,12" /><path d="M 343.0 56.1 L 343.0 55.0 L 372.8 55.0" id="44,11" /><path d="M 346.4 57.2 L 346.4 56.5 L 371.2 56.5" id="40,10" /><path d="M 346.4 57.2 L 346.4 57.9 L 366.1 57.9" id="40,9" /><path d="M 330.8 62.0 L 330.8 59.3 L 367.1 59.3" id="46,8" /><path d="M 336.1 61.9 L 336.1 60.8 L 360.9 60.8" id="39,7" /><path d="M 340.9 62.9 L 340.9 62.2 L 367.9 62.2" id="35,6" /><path d="M 340.9 62.9 L 340.9 63.6 L 364.8 63.6" id="35,5" /><path d="M 345.3 65.8 L 345.3 65.1 L 357.2 65.1" id="34,4" /><path d="M 345.3 65.8 L 345.3 66.5 L 359.2 66.5" id="34,3" /><path d="M 346.8 69.0 L 346.8 68.0 L 355.6 68.0" id="33,2" /><path d="M 349.8 70.1 L 349.8 69.4 L 354.6 69.4" id="30,1" /><path d="M 349.8 70.1 L 349.8 70.8 L 354.6 70.8" id="30,0" /></g><g class="toytree-Nodes" style="fill:rgb(100%,0%,0%);fill-opacity:1.0;stroke:None;stroke-width:1"><g id="node-0" transform="translate(354.618,70.833)"><circle r="2.5" /></g><g id="node-1" transform="translate(354.618,69.397)"><circle r="2.5" /></g><g id="node-2" transform="translate(355.601,67.960)"><circle r="2.5" /></g><g id="node-3" transform="translate(359.207,66.523)"><circle r="2.5" /></g><g id="node-4" transform="translate(357.185,65.086)"><circle r="2.5" /></g><g id="node-5" transform="translate(364.822,63.649)"><circle r="2.5" /></g><g id="node-6" transform="translate(367.871,62.213)"><circle r="2.5" /></g><g id="node-7" transform="translate(360.900,60.776)"><circle r="2.5" /></g><g id="node-8" transform="translate(367.052,59.339)"><circle r="2.5" /></g><g id="node-9" transform="translate(366.100,57.902)"><circle r="2.5" /></g><g id="node-10" transform="translate(371.171,56.466)"><circle r="2.5" /></g><g id="node-11" transform="translate(372.828,55.029)"><circle r="2.5" /></g><g id="node-12" transform="translate(359.316,53.592)"><circle r="2.5" /></g><g id="node-13" transform="translate(374.290,52.155)"><circle r="2.5" /></g><g id="node-14" transform="translate(390.263,50.718)"><circle r="2.5" /></g><g id="node-15" transform="translate(376.328,49.282)"><circle r="2.5" /></g><g id="node-16" transform="translate(379.921,47.845)"><circle r="2.5" /></g><g id="node-17" transform="translate(375.450,46.408)"><circle r="2.5" /></g><g id="node-18" transform="translate(378.758,44.971)"><circle r="2.5" /></g><g id="node-19" transform="translate(384.651,43.534)"><circle r="2.5" /></g><g id="node-20" transform="translate(366.903,42.098)"><circle r="2.5" /></g><g id="node-21" transform="translate(373.463,40.661)"><circle r="2.5" /></g><g id="node-22" transform="translate(374.874,39.224)"><circle r="2.5" /></g><g id="node-23" transform="translate(376.618,37.787)"><circle r="2.5" /></g><g id="node-24" transform="translate(382.959,36.351)"><circle r="2.5" /></g><g id="node-25" transform="translate(369.411,34.914)"><circle r="2.5" /></g><g id="node-26" transform="translate(367.656,33.477)"><circle r="2.5" /></g><g id="node-27" transform="translate(375.160,32.040)"><circle r="2.5" /></g><g id="node-28" transform="translate(367.350,30.603)"><circle r="2.5" /></g><g id="node-29" transform="translate(368.547,29.167)"><circle r="2.5" /></g><g id="node-30" transform="translate(349.778,70.115)"><circle r="0.0" /></g><g id="node-31" transform="translate(354.218,50.000)"><circle r="0.0" /></g><g id="node-32" transform="translate(368.541,45.690)"><circle r="0.0" /></g><g id="node-33" transform="translate(346.753,69.037)"><circle r="0.0" /></g><g id="node-34" transform="translate(345.264,65.805)"><circle r="0.0" /></g><g id="node-35" transform="translate(340.855,62.931)"><circle r="0.0" /></g><g id="node-36" transform="translate(350.934,48.922)"><circle r="0.0" /></g><g id="node-37" transform="translate(361.029,44.612)"><circle r="0.0" /></g><g id="node-38" transform="translate(340.839,67.421)"><circle r="0.0" /></g><g id="node-39" transform="translate(336.113,61.853)"><circle r="0.0" /></g><g id="node-40" transform="translate(346.376,57.184)"><circle r="0.0" /></g><g id="node-41" transform="translate(343.457,46.767)"><circle r="0.0" /></g><g id="node-42" transform="translate(354.782,41.379)"><circle r="0.0" /></g><g id="node-43" transform="translate(333.801,64.637)"><circle r="0.0" /></g><g id="node-44" transform="translate(342.967,56.106)"><circle r="0.0" /></g><g id="node-45" transform="translate(337.108,44.073)"><circle r="0.0" /></g><g id="node-46" transform="translate(330.803,61.988)"><circle r="0.0" /></g><g id="node-47" transform="translate(335.372,54.849)"><circle r="0.0" /></g><g id="node-48" transform="translate(336.160,41.649)"><circle r="0.0" /></g><g id="node-49" transform="translate(326.179,58.419)"><circle r="0.0" /></g><g id="node-50" transform="translate(333.198,39.718)"><circle r="0.0" /></g><g id="node-51" transform="translate(362.557,34.195)"><circle r="0.0" /></g><g id="node-52" transform="translate(326.124,55.287)"><circle r="0.0" /></g><g id="node-53" transform="translate(326.136,38.034)"><circle r="0.0" /></g><g id="node-54" transform="translate(356.612,33.118)"><circle r="0.0" /></g><g id="node-55" transform="translate(320.896,46.661)"><circle r="0.0" /></g><g id="node-56" transform="translate(354.637,31.861)"><circle r="0.0" /></g><g id="node-57" transform="translate(306.671,39.261)"><circle r="0.0" /></g><g id="node-58" transform="translate(305.000,34.214)"><circle r="0.0" /></g></g></g></g></g><g class="toyplot-coordinates-Cartesian" id="t184f1969fea74421a1721fdfed268150"><clipPath id="te4e4d03923014115bab9ff99be022861"><rect x="435.0" y="15.0" width="110.0" height="70.0" /></clipPath><g clip-path="url(#te4e4d03923014115bab9ff99be022861)"><g class="toytree-mark-Toytree" id="tb8049e5486164c0ba28782b612bfcdd9"><g class="toytree-Edges" style="fill:none;stroke:rgb(14.9%,14.9%,14.9%);stroke-linecap:round;stroke-opacity:1;stroke-width:0.5"><path d="M 445.0 38.8 L 445.0 30.4 L 484.6 30.4" id="58,57" /><path d="M 445.0 38.8 L 445.0 47.2 L 455.0 47.2" id="58,56" /><path d="M 484.6 30.4 L 484.6 31.7 L 488.5 31.7" id="57,55" /><path d="M 455.0 47.2 L 455.0 37.4 L 459.1 37.4" id="56,54" /><path d="M 455.0 47.2 L 455.0 57.0 L 460.8 57.0" id="56,53" /><path d="M 488.5 31.7 L 488.5 32.8 L 492.0 32.8" id="55,52" /><path d="M 459.1 37.4 L 459.1 39.9 L 465.5 39.9" id="54,51" /><path d="M 460.8 57.0 L 460.8 53.1 L 463.6 53.1" id="53,50" /><path d="M 460.8 57.0 L 460.8 60.8 L 463.0 60.8" id="53,49" /><path d="M 465.5 39.9 L 465.5 37.1 L 469.1 37.1" id="51,48" /><path d="M 465.5 39.9 L 465.5 42.6 L 470.4 42.6" id="51,47" /><path d="M 463.6 53.1 L 463.6 51.4 L 473.2 51.4" id="50,46" /><path d="M 463.6 53.1 L 463.6 54.8 L 471.9 54.8" id="50,45" /><path d="M 463.0 60.8 L 463.0 62.2 L 465.4 62.2" id="49,44" /><path d="M 470.4 42.6 L 470.4 39.9 L 483.4 39.9" id="47,43" /><path d="M 470.4 42.6 L 470.4 45.3 L 473.3 45.3" id="47,42" /><path d="M 471.9 54.8 L 471.9 56.1 L 476.3 56.1" id="45,41" /><path d="M 465.4 62.2 L 465.4 63.6 L 468.6 63.6" id="44,40" /><path d="M 473.3 45.3 L 473.3 43.2 L 479.6 43.2" id="42,39" /><path d="M 473.3 45.3 L 473.3 47.5 L 479.9 47.5" id="42,38" /><path d="M 476.3 56.1 L 476.3 57.2 L 478.6 57.2" id="41,37" /><path d="M 468.6 63.6 L 468.6 65.0 L 477.5 65.0" id="40,36" /><path d="M 479.6 43.2 L 479.6 44.3 L 480.9 44.3" id="39,35" /><path d="M 479.9 47.5 L 479.9 48.6 L 485.5 48.6" id="38,34" /><path d="M 477.5 65.0 L 477.5 66.4 L 481.4 66.4" id="36,33" /><path d="M 481.4 66.4 L 481.4 67.8 L 485.5 67.8" id="33,32" /><path d="M 485.5 67.8 L 485.5 69.0 L 488.6 69.0" id="32,31" /><path d="M 488.6 69.0 L 488.6 70.1 L 491.0 70.1" id="31,30" /><path d="M 484.6 30.4 L 484.6 29.2 L 487.6 29.2" id="57,29" /><path d="M 488.5 31.7 L 488.5 30.6 L 494.4 30.6" id="55,28" /><path d="M 492.0 32.8 L 492.0 32.0 L 492.7 32.0" id="52,27" /><path d="M 492.0 32.8 L 492.0 33.5 L 492.8 33.5" id="52,26" /><path d="M 459.1 37.4 L 459.1 34.9 L 488.0 34.9" id="54,25" /><path d="M 469.1 37.1 L 469.1 36.4 L 492.0 36.4" id="48,24" /><path d="M 469.1 37.1 L 469.1 37.8 L 485.0 37.8" id="48,23" /><path d="M 483.4 39.9 L 483.4 39.2 L 492.5 39.2" id="43,22" /><path d="M 483.4 39.9 L 483.4 40.7 L 492.3 40.7" id="43,21" /><path d="M 479.6 43.2 L 479.6 42.1 L 488.0 42.1" id="39,20" /><path d="M 480.9 44.3 L 480.9 43.5 L 485.9 43.5" id="35,19" /><path d="M 480.9 44.3 L 480.9 45.0 L 489.2 45.0" id="35,18" /><path d="M 479.9 47.5 L 479.9 46.4 L 496.2 46.4" id="38,17" /><path d="M 485.5 48.6 L 485.5 47.8 L 506.7 47.8" id="34,16" /><path d="M 485.5 48.6 L 485.5 49.3 L 500.2 49.3" id="34,15" /><path d="M 473.2 51.4 L 473.2 50.7 L 495.3 50.7" id="46,14" /><path d="M 473.2 51.4 L 473.2 52.2 L 530.3 52.2" id="46,13" /><path d="M 471.9 54.8 L 471.9 53.6 L 500.2 53.6" id="45,12" /><path d="M 476.3 56.1 L 476.3 55.0 L 492.2 55.0" id="41,11" /><path d="M 478.6 57.2 L 478.6 56.5 L 498.3 56.5" id="37,10" /><path d="M 478.6 57.2 L 478.6 57.9 L 491.1 57.9" id="37,9" /><path d="M 463.0 60.8 L 463.0 59.3 L 483.4 59.3" id="49,8" /><path d="M 465.4 62.2 L 465.4 60.8 L 483.0 60.8" id="44,7" /><path d="M 468.6 63.6 L 468.6 62.2 L 485.3 62.2" id="40,6" /><path d="M 477.5 65.0 L 477.5 63.6 L 485.3 63.6" id="36,5" /><path d="M 481.4 66.4 L 481.4 65.1 L 487.9 65.1" id="33,4" /><path d="M 485.5 67.8 L 485.5 66.5 L 499.7 66.5" id="32,3" /><path d="M 488.6 69.0 L 488.6 68.0 L 491.6 68.0" id="31,2" /><path d="M 491.0 70.1 L 491.0 69.4 L 491.0 69.4" id="30,1" /><path d="M 491.0 70.1 L 491.0 70.8 L 491.1 70.8" id="30,0" /></g><g class="toytree-Nodes" style="fill:rgb(100%,0%,0%);fill-opacity:1.0;stroke:None;stroke-width:1"><g id="node-0" transform="translate(491.090,70.833)"><circle r="2.5" /></g><g id="node-1" transform="translate(491.027,69.397)"><circle r="2.5" /></g><g id="node-2" transform="translate(491.580,67.960)"><circle r="2.5" /></g><g id="node-3" transform="translate(499.747,66.523)"><circle r="2.5" /></g><g id="node-4" transform="translate(487.896,65.086)"><circle r="2.5" /></g><g id="node-5" transform="translate(485.296,63.649)"><circle r="2.5" /></g><g id="node-6" transform="translate(485.256,62.213)"><circle r="2.5" /></g><g id="node-7" transform="translate(483.018,60.776)"><circle r="2.5" /></g><g id="node-8" transform="translate(483.421,59.339)"><circle r="2.5" /></g><g id="node-9" transform="translate(491.127,57.902)"><circle r="2.5" /></g><g id="node-10" transform="translate(498.276,56.466)"><circle r="2.5" /></g><g id="node-11" transform="translate(492.230,55.029)"><circle r="2.5" /></g><g id="node-12" transform="translate(500.218,53.592)"><circle r="2.5" /></g><g id="node-13" transform="translate(530.263,52.155)"><circle r="2.5" /></g><g id="node-14" transform="translate(495.261,50.718)"><circle r="2.5" /></g><g id="node-15" transform="translate(500.178,49.282)"><circle r="2.5" /></g><g id="node-16" transform="translate(506.729,47.845)"><circle r="2.5" /></g><g id="node-17" transform="translate(496.240,46.408)"><circle r="2.5" /></g><g id="node-18" transform="translate(489.245,44.971)"><circle r="2.5" /></g><g id="node-19" transform="translate(485.885,43.534)"><circle r="2.5" /></g><g id="node-20" transform="translate(488.000,42.098)"><circle r="2.5" /></g><g id="node-21" transform="translate(492.292,40.661)"><circle r="2.5" /></g><g id="node-22" transform="translate(492.501,39.224)"><circle r="2.5" /></g><g id="node-23" transform="translate(485.039,37.787)"><circle r="2.5" /></g><g id="node-24" transform="translate(491.977,36.351)"><circle r="2.5" /></g><g id="node-25" transform="translate(488.038,34.914)"><circle r="2.5" /></g><g id="node-26" transform="translate(492.825,33.477)"><circle r="2.5" /></g><g id="node-27" transform="translate(492.651,32.040)"><circle r="2.5" /></g><g id="node-28" transform="translate(494.436,30.603)"><circle r="2.5" /></g><g id="node-29" transform="translate(487.564,29.167)"><circle r="2.5" /></g><g id="node-30" transform="translate(491.027,70.115)"><circle r="0.0" /></g><g id="node-31" transform="translate(488.613,69.037)"><circle r="0.0" /></g><g id="node-32" transform="translate(485.521,67.780)"><circle r="0.0" /></g><g id="node-33" transform="translate(481.362,66.433)"><circle r="0.0" /></g><g id="node-34" transform="translate(485.510,48.563)"><circle r="0.0" /></g><g id="node-35" transform="translate(480.878,44.253)"><circle r="0.0" /></g><g id="node-36" transform="translate(477.541,65.041)"><circle r="0.0" /></g><g id="node-37" transform="translate(478.562,57.184)"><circle r="0.0" /></g><g id="node-38" transform="translate(479.877,47.486)"><circle r="0.0" /></g><g id="node-39" transform="translate(479.602,43.175)"><circle r="0.0" /></g><g id="node-40" transform="translate(468.648,63.627)"><circle r="0.0" /></g><g id="node-41" transform="translate(476.263,56.106)"><circle r="0.0" /></g><g id="node-42" transform="translate(473.296,45.330)"><circle r="0.0" /></g><g id="node-43" transform="translate(483.386,39.943)"><circle r="0.0" /></g><g id="node-44" transform="translate(465.426,62.201)"><circle r="0.0" /></g><g id="node-45" transform="translate(471.943,54.849)"><circle r="0.0" /></g><g id="node-46" transform="translate(473.194,51.437)"><circle r="0.0" /></g><g id="node-47" transform="translate(470.399,42.636)"><circle r="0.0" /></g><g id="node-48" transform="translate(469.091,37.069)"><circle r="0.0" /></g><g id="node-49" transform="translate(463.041,60.770)"><circle r="0.0" /></g><g id="node-50" transform="translate(463.627,53.143)"><circle r="0.0" /></g><g id="node-51" transform="translate(465.471,39.853)"><circle r="0.0" /></g><g id="node-52" transform="translate(492.011,32.759)"><circle r="0.0" /></g><g id="node-53" transform="translate(460.786,56.957)"><circle r="0.0" /></g><g id="node-54" transform="translate(459.077,37.383)"><circle r="0.0" /></g><g id="node-55" transform="translate(488.549,31.681)"><circle r="0.0" /></g><g id="node-56" transform="translate(454.972,47.170)"><circle r="0.0" /></g><g id="node-57" transform="translate(484.628,30.424)"><circle r="0.0" /></g><g id="node-58" transform="translate(445.000,38.797)"><circle r="0.0" /></g></g></g></g></g></svg>