<svg class="toyplot-canvas-Canvas" xmlns:toyplot="http://www.sandia.gov/toyplot" xmlns:xlink="http://www.w3.org/1999/xlink" xmlns="http://www.w3.org/2000/svg" width="560.0px" height="100.0px" viewBox="0 0 560.0 100.0" preserveAspectRatio="xMidYMid meet" style="background-color:transparent;border-color:#292724;border-style:none;border-width:1.0;fill:rgb(16.1%,15.3%,14.1%);fill-opacity:1.0;font-family:Helvetica;font-size:12px;opacity:1.0;stroke:rgb(16.1%,15.3%,14.1%);stroke-opacity:1.0;stroke-width:1.0" id="t0cab1046a75f4450b008196b24a4fb9e"><g class="toyplot-coordinates-Cartesian" id="tde37a99f6d8f4755bf1af2757d2e79eb"><clipPath id="t92d83bac891a42e6a880696aa8f42678"><rect x="15.0" y="15.0" width="110.0" height="70.0" /></clipPath><g clip-path="url(#t92d83bac891a42e6a880696aa8f42678)"><g class="toytree-mark-Toytree" id="t8540baae2426441382e8be9ef9577c15"><g class="toytree-Edges" style="fill:none;stroke:rgb(14.9%,14.9%,14.9%);stroke-linecap:round;stroke-opacity:1;stroke-width:0.5"><path d="M 25.0 38.5 L 25.0 47.8 L 74.7 47.8" id="12,11" /><path d="M 74.7 47.8 L 74.7 39.6 L 100.8 39.6" id="11,10" /><path d="M 74.7 47.8 L 74.7 56.1 L 82.2 56.1" id="11,9" /><path d="M 82.2 56.1 L 82.2 62.2 L 102.6 62.2" id="9,8" /><path d="M 102.6 62.2 L 102.6 67.4 L 102.7 67.4" id="8,7" /><path d="M 25.0 38.5 L 25.0 29.2 L 105.5 29.2" id="12,6" /><path d="M 100.8 39.6 L 100.8 36.1 L 105.4 36.1" id="10,5" /><path d="M 100.8 39.6 L 100.8 43.1 L 104.7 43.1" id="10,4" /><path d="M 82.2 56.1 L 82.2 50.0 L 110.3 50.0" id="9,3" /><path d="M 102.6 62.2 L 102.6 56.9 L 104.7 56.9" id="8,2" /><path d="M 102.7 67.4 L 102.7 63.9 L 102.7 63.9" id="7,1" /><path d="M 102.7 67.4 L 102.7 70.8 L 102.7 70.8" id="7,0" /></g><g class="toytree-Nodes" style="fill:rgb(100%,0%,0%);fill-opacity:1.0;stroke:None;stroke-width:1"><g id="node-0" transform="translate(102.654,70.833)"><circle r="2.5" /></g><g id="node-1" transform="translate(102.654,63.889)"><circle r="2.5" /></g><g id="node-2" transform="translate(104.650,56.944)"><circle r="2.5" /></g><g id="node-3" transform="translate(110.263,50.000)"><circle r="2.5" /></g><g id="node-4" transform="translate(104.691,43.056)"><circle r="2.5" /></g><g id="node-5" transform="translate(105.400,36.111)"><circle r="2.5" /></g><g id="node-6" transform="translate(105.455,29.167)"><circle r="2.5" /></g><g id="node-7" transform="translate(102.654,67.361)"><circle r="0.0" /></g><g id="node-8" transform="translate(102.553,62.153)"><circle r="0.0" /></g><g id="node-9" transform="translate(82.150,56.076)"><circle r="0.0" /></g><g id="node-10" transform="translate(100.819,39.583)"><circle r="0.0" /></g><g id="node-11" transform="translate(74.740,47.830)"><circle r="0.0" /></g><g id="node-12" transform="translate(25.000,38.498)"><circle r="0.0" /></g></g></g></g></g><g class="toyplot-coordinates-Cartesian" id="tf0cea38399954cfb98d569c6ad137918"><clipPath id="t58f06e65183742259b83224691ad81df"><rect x="155.0" y="15.0" width="110.0" height="70.0" /></clipPath><g clip-path="url(#t58f06e65183742259b83224691ad81df)"><g class="toytree-mark-Toytree" id="te370c58514bd40e09e15f04cbc5a5fd0"><g class="toytree-Edges" style="fill:none;stroke:rgb(14.9%,14.9%,14.9%);stroke-linecap:round;stroke-opacity:1;stroke-width:0.5"><path d="M 165.0 38.5 L 165.0 47.8 L 171.8 47.8" id="12,11" /><path d="M 171.8 47.8 L 171.8 39.6 L 195.1 39.6" id="11,10" /><path d="M 171.8 47.8 L 171.8 56.1 L 176.7 56.1" id="11,9" /><path d="M 176.7 56.1 L 176.7 62.2 L 189.6 62.2" id="9,8" /><path d="M 189.6 62.2 L 189.6 67.4 L 224.3 67.4" id="8,7" /><path d="M 165.0 38.5 L 165.0 29.2 L 244.0 29.2" id="12,6" /><path d="M 195.1 39.6 L 195.1 36.1 L 237.8 36.1" id="10,5" /><path d="M 195.1 39.6 L 195.1 43.1 L 232.4 43.1" id="10,4" /><path d="M 176.7 56.1 L 176.7 50.0 L 250.3 50.0" id="9,3" /><path d="M 189.6 62.2 L 189.6 56.9 L 249.3 56.9" id="8,2" /><path d="M 224.3 67.4 L 224.3 63.9 L 249.1 63.9" id="7,1" /><path d="M 224.3 67.4 L 224.3 70.8 L 249.1 70.8" id="7,0" /></g><g class="toytree-Nodes" style="fill:rgb(100%,0%,0%);fill-opacity:1.0;stroke:None;stroke-width:1"><g id="node-0" transform="translate(249.071,70.833)"><circle r="2.5" /></g><g id="node-1" transform="translate(249.118,63.889)"><circle r="2.5" /></g><g id="node-2" transform="translate(249.320,56.944)"><circle r="2.5" /></g><g id="node-3" transform="translate(250.263,50.000)"><circle r="2.5" /></g><g id="node-4" transform="translate(232.449,43.056)"><circle r="2.5" /></g><g id="node-5" transform="translate(237.759,36.111)"><circle r="2.5" /></g><g id="node-6" transform="translate(244.021,29.167)"><circle r="2.5" /></g><g id="node-7" transform="translate(224.260,67.361)"><circle r="0.0" /></g><g id="node-8" transform="translate(189.588,62.153)"><circle r="0.0" /></g><g id="node-9" transform="translate(176.729,56.076)"><circle r="0.0" /></g><g id="node-10" transform="translate(195.128,39.583)"><circle r="0.0" /></g><g id="node-11" transform="translate(171.824,47.830)"><circle r="0.0" /></g><g id="node-12" transform="translate(165.000,38.498)"><circle r="0.0" /></g></g></g></g></g><g class="toyplot-coordinates-Cartesian" id="t091fa1d1e8324cb7b12e369d28dee4bc"><clipPath id="tb284d9a2985649f8840c95f30b30c9fa"><rect x="295.0" y="15.0" width="110.0" height="70.0" /></clipPath><g clip-path="url(#tb284d9a2985649f8840c95f30b30c9fa)"><g class="toytree-mark-Toytree" id="tf13f20b937d34385952c2fd94db258fa"><g class="toytree-Edges" style="fill:none;stroke:rgb(14.9%,14.9%,14.9%);stroke-linecap:round;stroke-opacity:1;stroke-width:0.5"><path d="M 305.0 43.5 L 305.0 32.6 L 309.6 32.6" id="12,11" /><path d="M 305.0 43.5 L 305.0 54.3 L 329.1 54.3" id="12,10" /><path d="M 329.1 54.3 L 329.1 46.5 L 370.4 46.5" id="10,9" /><path d="M 329.1 54.3 L 329.1 62.2 L 340.0 62.2" id="10,8" /><path d="M 340.0 62.2 L 340.0 67.4 L 370.3 67.4" id="8,7" /><path d="M 309.6 32.6 L 309.6 29.2 L 390.3 29.2" id="11,6" /><path d="M 309.6 32.6 L 309.6 36.1 L 371.1 36.1" id="11,5" /><path d="M 370.4 46.5 L 370.4 43.1 L 376.7 43.1" id="9,4" /><path d="M 370.4 46.5 L 370.4 50.0 L 388.4 50.0" id="9,3" /><path d="M 340.0 62.2 L 340.0 56.9 L 377.7 56.9" id="8,2" /><path d="M 370.3 67.4 L 370.3 63.9 L 381.0 63.9" id="7,1" /><path d="M 370.3 67.4 L 370.3 70.8 L 374.9 70.8" id="7,0" /></g><g class="toytree-Nodes" style="fill:rgb(100%,0%,0%);fill-opacity:1.0;stroke:None;stroke-width:1"><g id="node-0" transform="translate(374.928,70.833)"><circle r="2.5" /></g><g id="node-1" transform="translate(381.016,63.889)"><circle r="2.5" /></g><g id="node-2" transform="translate(377.750,56.944)"><circle r="2.5" /></g><g id="node-3" transform="translate(388.405,50.000)"><circle r="2.5" /></g><g id="node-4" transform="translate(376.661,43.056)"><circle r="2.5" /></g><g id="node-5" transform="translate(371.096,36.111)"><circle r="2.5" /></g><g id="node-6" transform="translate(390.263,29.167)"><circle r="2.5" /></g><g id="node-7" transform="translate(370.273,67.361)"><circle r="0.0" /></g><g id="node-8" transform="translate(339.953,62.153)"><circle r="0.0" /></g><g id="node-9" transform="translate(370.443,46.528)"><circle r="0.0" /></g><g id="node-10" transform="translate(329.058,54.340)"><circle r="0.0" /></g><g id="node-11" transform="translate(309.606,32.639)"><circle r="0.0" /></g><g id="node-12" transform="translate(305.000,43.490)"><circle r="0.0" /></g></g></g></g></g><g class="toyplot-coordinates-Cartesian" id="t2282282656fd4eeea5d796877ae253d6"><clipPath id="t42e9be1d375c4873a1c00c6712afe303"><rect x="435.0" y="15.0" width="110.0" height="70.0" /></clipPath><g clip-path="url(#t42e9be1d375c4873a1c00c6712afe303)"><g class="toytree-mark-Toytree" id="t00b2b4420e074c9284e67bd5a4eb028b"><g class="toytree-Edges" style="fill:none;stroke:rgb(14.9%,14.9%,14.9%);stroke-linecap:round;stroke-opacity:1;stroke-width:0.5"><path d="M 445.0 43.5 L 445.0 32.6 L 449.0 32.6" id="12,11" /><path d="M 445.0 43.5 L 445.0 54.3 L 467.4 54.3" id="12,10" /><path d="M 467.4 54.3 L 467.4 46.5 L 509.7 46.5" id="10,9" /><path d="M 467.4 54.3 L 467.4 62.2 L 478.5 62.2" id="10,8" /><path d="M 478.5 62.2 L 478.5 67.4 L 510.8 67.4" id="8,7" /><path d="M 449.0 32.6 L 449.0 29.2 L 530.3 29.2" id="11,6" /><path d="M 449.0 32.6 L 449.0 36.1 L 513.3 36.1" id="11,5" /><path d="M 509.7 46.5 L 509.7 43.1 L 517.7 43.1" id="9,4" /><path d="M 509.7 46.5 L 509.7 50.0 L 529.0 50.0" id="9,3" /><path d="M 478.5 62.2 L 478.5 56.9 L 519.5 56.9" id="8,2" /><path d="M 510.8 67.4 L 510.8 63.9 L 522.3 63.9" id="7,1" /><path d="M 510.8 67.4 L 510.8 70.8 L 516.9 70.8" id="7,0" /></g><g class="toytree-Nodes" style="fill:rgb(100%,0%,0%);fill-opacity:1.0;stroke:None;stroke-width:1"><g id="node-0" transform="translate(516.865,70.833)"><circle r="2.5" /></g><g id="node-1" transform="translate(522.254,63.889)"><circle r="2.5" /></g><g id="node-2" transform="translate(519.486,56.944)"><circle r="2.5" /></g><g id="node-3" transform="translate(528.980,50.000)"><circle r="2.5" /></g><g id="node-4" transform="translate(517.743,43.056)"><circle r="2.5" /></g><g id="node-5" transform="translate(513.273,36.111)"><circle r="2.5" /></g><g id="node-6" transform="translate(530.263,29.167)"><circle r="2.5" /></g><g id="node-7" transform="translate(510.815,67.361)"><circle r="0.0" /></g><g id="node-8" transform="translate(478.515,62.153)"><circle r="0.0" /></g><g id="node-9" transform="translate(509.687,46.528)"><circle r="0.0" /></g><g id="node-10" transform="translate(467.359,54.340)"><circle r="0.0" /></g><g id="node-11" transform="translate(448.970,32.639)"><circle r="0.0" /></g><g id="node-12" transform="translate(445.000,43.490)"><circle r="0.0" /></g></g></g></g></g></svg>