<svg class="toyplot-canvas-Canvas" xmlns:toyplot="http://www.sandia.gov/toyplot" xmlns:xlink="http://www.w3.org/1999/xlink" xmlns="http://www.w3.org/2000/svg" width="560.0px" height="100.0px" viewBox="0 0 560.0 100.0" preserveAspectRatio="xMidYMid meet" style="background-color:transparent;border-color:#292724;border-style:none;border-width:1.0;fill:rgb(16.1%,15.3%,14.1%);fill-opacity:1.0;font-family:Helvetica;font-size:12px;opacity:1.0;stroke:rgb(16.1%,15.3%,14.1%);stroke-opacity:1.0;stroke-width:1.0" id="tc76232f630bd47c089aaeac534674956"><g class="toyplot-coordinates-Cartesian" id="t9c68780bd6ee4d28a553e9bd7b607f3c"><clipPath id="t5419325099c145cfb575d7b2620e3055"><rect x="15.0" y="15.0" width="110.0" height="70.0" /></clipPath><g clip-path="url(#t5419325099c145cfb575d7b2620e3055)"><g class="toytree-mark-Toytree" id="tc509bbb5e87c4a42a28939939cab73fe"><g class="toytree-Edges" style="fill:none;stroke:rgb(14.9%,14.9%,14.9%);stroke-linecap:round;stroke-opacity:1;stroke-width:0.5"><path d="M 25.0 30.6 L 25.0 32.1 L 28.8 32.1" id="104,103" /><path d="M 28.8 32.1 L 28.8 34.2 L 33.3 34.2" id="103,102" /><path d="M 33.3 34.2 L 33.3 31.4 L 38.8 31.4" id="102,101" /><path d="M 33.3 34.2 L 33.3 36.9 L 37.5 36.9" id="102,100" /><path d="M 38.8 31.4 L 38.8 32.0 L 47.0 32.0" id="101,99" /><path d="M 37.5 36.9 L 37.5 33.8 L 39.5 33.8" id="100,98" /><path d="M 37.5 36.9 L 37.5 40.1 L 39.4 40.1" id="100,97" /><path d="M 39.5 33.8 L 39.5 34.4 L 52.4 34.4" id="98,96" /><path d="M 39.4 40.1 L 39.4 36.9 L 41.7 36.9" id="97,95" /><path d="M 39.4 40.1 L 39.4 43.3 L 41.0 43.3" id="97,94" /><path d="M 41.7 36.9 L 41.7 36.0 L 45.1 36.0" id="95,93" /><path d="M 41.7 36.9 L 41.7 37.8 L 45.3 37.8" id="95,92" /><path d="M 41.0 43.3 L 41.0 40.2 L 47.2 40.2" id="94,91" /><path d="M 41.0 43.3 L 41.0 46.5 L 41.6 46.5" id="94,90" /><path d="M 45.3 37.8 L 45.3 38.4 L 47.8 38.4" id="92,89" /><path d="M 47.2 40.2 L 47.2 40.8 L 82.1 40.8" id="91,88" /><path d="M 41.6 46.5 L 41.6 43.3 L 42.9 43.3" id="90,87" /><path d="M 41.6 46.5 L 41.6 49.6 L 43.0 49.6" id="90,86" /><path d="M 42.9 43.3 L 42.9 42.4 L 46.2 42.4" id="87,85" /><path d="M 42.9 43.3 L 42.9 44.3 L 43.5 44.3" id="87,84" /><path d="M 43.0 49.6 L 43.0 52.4 L 43.9 52.4" id="86,83" /><path d="M 43.5 44.3 L 43.5 45.0 L 47.5 45.0" id="84,82" /><path d="M 43.9 52.4 L 43.9 48.8 L 53.9 48.8" id="83,81" /><path d="M 43.9 52.4 L 43.9 56.0 L 46.0 56.0" id="83,80" /><path d="M 47.5 45.0 L 47.5 45.6 L 52.7 45.6" id="82,79" /><path d="M 53.9 48.8 L 53.9 50.0 L 55.0 50.0" id="81,78" /><path d="M 46.0 56.0 L 46.0 53.6 L 53.3 53.6" id="80,77" /><path d="M 46.0 56.0 L 46.0 58.3 L 47.7 58.3" id="80,76" /><path d="M 55.0 50.0 L 55.0 48.8 L 74.5 48.8" id="78,75" /><path d="M 55.0 50.0 L 55.0 51.2 L 57.9 51.2" id="78,74" /><path d="M 47.7 58.3 L 47.7 55.5 L 49.4 55.5" id="76,73" /><path d="M 47.7 58.3 L 47.7 61.2 L 58.4 61.2" id="76,72" /><path d="M 57.9 51.2 L 57.9 50.4 L 77.5 50.4" id="74,71" /><path d="M 57.9 51.2 L 57.9 52.0 L 73.2 52.0" id="74,70" /><path d="M 49.4 55.5 L 49.4 56.2 L 52.9 56.2" id="73,69" /><path d="M 58.4 61.2 L 58.4 59.0 L 61.4 59.0" id="72,68" /><path d="M 58.4 61.2 L 58.4 63.3 L 63.0 63.3" id="72,67" /><path d="M 52.9 56.2 L 52.9 56.8 L 56.2 56.8" id="69,66" /><path d="M 61.4 59.0 L 61.4 60.0 L 62.2 60.0" id="68,65" /><path d="M 63.0 63.3 L 63.0 64.6 L 65.1 64.6" id="67,64" /><path d="M 62.2 60.0 L 62.2 59.2 L 64.1 59.2" id="65,63" /><path d="M 62.2 60.0 L 62.2 60.8 L 65.5 60.8" id="65,62" /><path d="M 65.1 64.6 L 65.1 63.2 L 82.9 63.2" id="64,61" /><path d="M 65.1 64.6 L 65.1 66.0 L 66.3 66.0" id="64,60" /><path d="M 66.3 66.0 L 66.3 64.8 L 70.5 64.8" id="60,59" /><path d="M 66.3 66.0 L 66.3 67.1 L 68.5 67.1" id="60,58" /><path d="M 68.5 67.1 L 68.5 68.2 L 69.2 68.2" id="58,57" /><path d="M 69.2 68.2 L 69.2 67.2 L 71.5 67.2" id="57,56" /><path d="M 69.2 68.2 L 69.2 69.1 L 70.1 69.1" id="57,55" /><path d="M 70.1 69.1 L 70.1 69.8 L 70.1 69.8" id="55,54" /><path d="M 70.1 69.8 L 70.1 70.4 L 70.1 70.4" id="54,53" /><path d="M 25.0 30.6 L 25.0 29.2 L 80.0 29.2" id="104,52" /><path d="M 28.8 32.1 L 28.8 30.0 L 85.8 30.0" id="103,51" /><path d="M 38.8 31.4 L 38.8 30.8 L 76.8 30.8" id="101,50" /><path d="M 47.0 32.0 L 47.0 31.6 L 83.3 31.6" id="99,49" /><path d="M 47.0 32.0 L 47.0 32.4 L 76.8 32.4" id="99,48" /><path d="M 39.5 33.8 L 39.5 33.2 L 81.8 33.2" id="98,47" /><path d="M 52.4 34.4 L 52.4 34.0 L 79.7 34.0" id="96,46" /><path d="M 52.4 34.4 L 52.4 34.8 L 79.6 34.8" id="96,45" /><path d="M 45.1 36.0 L 45.1 35.6 L 99.5 35.6" id="93,44" /><path d="M 45.1 36.0 L 45.1 36.4 L 96.8 36.4" id="93,43" /><path d="M 45.3 37.8 L 45.3 37.2 L 95.2 37.2" id="92,42" /><path d="M 47.8 38.4 L 47.8 38.0 L 77.3 38.0" id="89,41" /><path d="M 47.8 38.4 L 47.8 38.8 L 80.0 38.8" id="89,40" /><path d="M 47.2 40.2 L 47.2 39.6 L 96.9 39.6" id="91,39" /><path d="M 82.1 40.8 L 82.1 40.4 L 82.6 40.4" id="88,38" /><path d="M 82.1 40.8 L 82.1 41.2 L 82.9 41.2" id="88,37" /><path d="M 46.2 42.4 L 46.2 42.0 L 80.6 42.0" id="85,36" /><path d="M 46.2 42.4 L 46.2 42.8 L 80.5 42.8" id="85,35" /><path d="M 43.5 44.3 L 43.5 43.6 L 86.1 43.6" id="84,34" /><path d="M 47.5 45.0 L 47.5 44.4 L 81.0 44.4" id="82,33" /><path d="M 52.7 45.6 L 52.7 45.2 L 81.4 45.2" id="79,32" /><path d="M 52.7 45.6 L 52.7 46.0 L 95.7 46.0" id="79,31" /><path d="M 43.0 49.6 L 43.0 46.8 L 60.0 46.8" id="86,30" /><path d="M 53.9 48.8 L 53.9 47.6 L 91.6 47.6" id="81,29" /><path d="M 74.5 48.8 L 74.5 48.4 L 110.3 48.4" id="75,28" /><path d="M 74.5 48.8 L 74.5 49.2 L 84.2 49.2" id="75,27" /><path d="M 77.5 50.4 L 77.5 50.0 L 79.6 50.0" id="71,26" /><path d="M 77.5 50.4 L 77.5 50.8 L 81.8 50.8" id="71,25" /><path d="M 73.2 52.0 L 73.2 51.6 L 76.4 51.6" id="70,24" /><path d="M 73.2 52.0 L 73.2 52.4 L 76.7 52.4" id="70,23" /><path d="M 53.3 53.6 L 53.3 53.2 L 53.8 53.2" id="77,22" /><path d="M 53.3 53.6 L 53.3 54.0 L 77.5 54.0" id="77,21" /><path d="M 49.4 55.5 L 49.4 54.8 L 76.0 54.8" id="73,20" /><path d="M 52.9 56.2 L 52.9 55.6 L 78.0 55.6" id="69,19" /><path d="M 56.2 56.8 L 56.2 56.4 L 81.2 56.4" id="66,18" /><path d="M 56.2 56.8 L 56.2 57.2 L 79.7 57.2" id="66,17" /><path d="M 61.4 59.0 L 61.4 58.0 L 73.0 58.0" id="68,16" /><path d="M 64.1 59.2 L 64.1 58.8 L 78.8 58.8" id="63,15" /><path d="M 64.1 59.2 L 64.1 59.6 L 75.9 59.6" id="63,14" /><path d="M 65.5 60.8 L 65.5 60.4 L 75.3 60.4" id="62,13" /><path d="M 65.5 60.8 L 65.5 61.2 L 75.5 61.2" id="62,12" /><path d="M 63.0 63.3 L 63.0 62.0 L 102.6 62.0" id="67,11" /><path d="M 82.9 63.2 L 82.9 62.8 L 86.9 62.8" id="61,10" /><path d="M 82.9 63.2 L 82.9 63.6 L 95.3 63.6" id="61,9" /><path d="M 70.5 64.8 L 70.5 64.4 L 102.5 64.4" id="59,8" /><path d="M 70.5 64.8 L 70.5 65.2 L 74.0 65.2" id="59,7" /><path d="M 68.5 67.1 L 68.5 66.0 L 72.1 66.0" id="58,6" /><path d="M 71.5 67.2 L 71.5 66.8 L 71.7 66.8" id="56,5" /><path d="M 71.5 67.2 L 71.5 67.6 L 72.6 67.6" id="56,4" /><path d="M 70.1 69.1 L 70.1 68.4 L 70.1 68.4" id="55,3" /><path d="M 70.1 69.8 L 70.1 69.2 L 70.1 69.2" id="54,2" /><path d="M 70.1 70.4 L 70.1 70.0 L 70.1 70.0" id="53,1" /><path d="M 70.1 70.4 L 70.1 70.8 L 70.1 70.8" id="53,0" /></g><g class="toytree-Nodes" style="fill:rgb(100%,0%,0%);fill-opacity:1.0;stroke:None;stroke-width:1"><g id="node-0" transform="translate(70.080,70.833)"><circle r="2.5" /></g><g id="node-1" transform="translate(70.080,70.032)"><circle r="2.5" /></g><g id="node-2" transform="translate(70.080,69.231)"><circle r="2.5" /></g><g id="node-3" transform="translate(70.080,68.429)"><circle r="2.5" /></g><g id="node-4" transform="translate(72.595,67.628)"><circle r="2.5" /></g><g id="node-5" transform="translate(71.660,66.827)"><circle r="2.5" /></g><g id="node-6" transform="translate(72.115,66.026)"><circle r="2.5" /></g><g id="node-7" transform="translate(73.977,65.224)"><circle r="2.5" /></g><g id="node-8" transform="translate(102.471,64.423)"><circle r="2.5" /></g><g id="node-9" transform="translate(95.323,63.622)"><circle r="2.5" /></g><g id="node-10" transform="translate(86.877,62.821)"><circle r="2.5" /></g><g id="node-11" transform="translate(102.609,62.019)"><circle r="2.5" /></g><g id="node-12" transform="translate(75.451,61.218)"><circle r="2.5" /></g><g id="node-13" transform="translate(75.310,60.417)"><circle r="2.5" /></g><g id="node-14" transform="translate(75.906,59.615)"><circle r="2.5" /></g><g id="node-15" transform="translate(78.843,58.814)"><circle r="2.5" /></g><g id="node-16" transform="translate(72.982,58.013)"><circle r="2.5" /></g><g id="node-17" transform="translate(79.668,57.212)"><circle r="2.5" /></g><g id="node-18" transform="translate(81.169,56.410)"><circle r="2.5" /></g><g id="node-19" transform="translate(78.042,55.609)"><circle r="2.5" /></g><g id="node-20" transform="translate(75.958,54.808)"><circle r="2.5" /></g><g id="node-21" transform="translate(77.503,54.006)"><circle r="2.5" /></g><g id="node-22" transform="translate(53.815,53.205)"><circle r="2.5" /></g><g id="node-23" transform="translate(76.651,52.404)"><circle r="2.5" /></g><g id="node-24" transform="translate(76.373,51.603)"><circle r="2.5" /></g><g id="node-25" transform="translate(81.806,50.801)"><circle r="2.5" /></g><g id="node-26" transform="translate(79.639,50.000)"><circle r="2.5" /></g><g id="node-27" transform="translate(84.180,49.199)"><circle r="2.5" /></g><g id="node-28" transform="translate(110.263,48.397)"><circle r="2.5" /></g><g id="node-29" transform="translate(91.626,47.596)"><circle r="2.5" /></g><g id="node-30" transform="translate(59.998,46.795)"><circle r="2.5" /></g><g id="node-31" transform="translate(95.667,45.994)"><circle r="2.5" /></g><g id="node-32" transform="translate(81.360,45.192)"><circle r="2.5" /></g><g id="node-33" transform="translate(81.002,44.391)"><circle r="2.5" /></g><g id="node-34" transform="translate(86.087,43.590)"><circle r="2.5" /></g><g id="node-35" transform="translate(80.489,42.788)"><circle r="2.5" /></g><g id="node-36" transform="translate(80.625,41.987)"><circle r="2.5" /></g><g id="node-37" transform="translate(82.896,41.186)"><circle r="2.5" /></g><g id="node-38" transform="translate(82.586,40.385)"><circle r="2.5" /></g><g id="node-39" transform="translate(96.854,39.583)"><circle r="2.5" /></g><g id="node-40" transform="translate(79.976,38.782)"><circle r="2.5" /></g><g id="node-41" transform="translate(77.345,37.981)"><circle r="2.5" /></g><g id="node-42" transform="translate(95.174,37.179)"><circle r="2.5" /></g><g id="node-43" transform="translate(96.785,36.378)"><circle r="2.5" /></g><g id="node-44" transform="translate(99.532,35.577)"><circle r="2.5" /></g><g id="node-45" transform="translate(79.641,34.776)"><circle r="2.5" /></g><g id="node-46" transform="translate(79.674,33.974)"><circle r="2.5" /></g><g id="node-47" transform="translate(81.757,33.173)"><circle r="2.5" /></g><g id="node-48" transform="translate(76.845,32.372)"><circle r="2.5" /></g><g id="node-49" transform="translate(83.326,31.571)"><circle r="2.5" /></g><g id="node-50" transform="translate(76.777,30.769)"><circle r="2.5" /></g><g id="node-51" transform="translate(85.835,29.968)"><circle r="2.5" /></g><g id="node-52" transform="translate(79.978,29.167)"><circle r="2.5" /></g><g id="node-53" transform="translate(70.080,70.433)"><circle r="0.0" /></g><g id="node-54" transform="translate(70.080,69.832)"><circle r="0.0" /></g><g id="node-55" transform="translate(70.080,69.131)"><circle r="0.0" /></g><g id="node-56" transform="translate(71.507,67.228)"><circle r="0.0" /></g><g id="node-57" transform="translate(69.191,68.179)"><circle r="0.0" /></g><g id="node-58" transform="translate(68.533,67.102)"><circle r="0.0" /></g><g id="node-59" transform="translate(70.541,64.824)"><circle r="0.0" /></g><g id="node-60" transform="translate(66.300,65.963)"><circle r="0.0" /></g><g id="node-61" transform="translate(82.931,63.221)"><circle r="0.0" /></g><g id="node-62" transform="translate(65.454,60.817)"><circle r="0.0" /></g><g id="node-63" transform="translate(64.087,59.215)"><circle r="0.0" /></g><g id="node-64" transform="translate(65.080,64.592)"><circle r="0.0" /></g><g id="node-65" transform="translate(62.211,60.016)"><circle r="0.0" /></g><g id="node-66" transform="translate(56.222,56.811)"><circle r="0.0" /></g><g id="node-67" transform="translate(63.041,63.306)"><circle r="0.0" /></g><g id="node-68" transform="translate(61.444,59.014)"><circle r="0.0" /></g><g id="node-69" transform="translate(52.888,56.210)"><circle r="0.0" /></g><g id="node-70" transform="translate(73.203,52.003)"><circle r="0.0" /></g><g id="node-71" transform="translate(77.517,50.401)"><circle r="0.0" /></g><g id="node-72" transform="translate(58.431,61.160)"><circle r="0.0" /></g><g id="node-73" transform="translate(49.416,55.509)"><circle r="0.0" /></g><g id="node-74" transform="translate(57.924,51.202)"><circle r="0.0" /></g><g id="node-75" transform="translate(74.473,48.798)"><circle r="0.0" /></g><g id="node-76" transform="translate(47.739,58.334)"><circle r="0.0" /></g><g id="node-77" transform="translate(53.250,53.606)"><circle r="0.0" /></g><g id="node-78" transform="translate(54.992,50.000)"><circle r="0.0" /></g><g id="node-79" transform="translate(52.735,45.593)"><circle r="0.0" /></g><g id="node-80" transform="translate(45.975,55.970)"><circle r="0.0" /></g><g id="node-81" transform="translate(53.852,48.798)"><circle r="0.0" /></g><g id="node-82" transform="translate(47.480,44.992)"><circle r="0.0" /></g><g id="node-83" transform="translate(43.942,52.384)"><circle r="0.0" /></g><g id="node-84" transform="translate(43.479,44.291)"><circle r="0.0" /></g><g id="node-85" transform="translate(46.227,42.388)"><circle r="0.0" /></g><g id="node-86" transform="translate(43.026,49.589)"><circle r="0.0" /></g><g id="node-87" transform="translate(42.933,43.339)"><circle r="0.0" /></g><g id="node-88" transform="translate(82.121,40.785)"><circle r="0.0" /></g><g id="node-89" transform="translate(47.846,38.381)"><circle r="0.0" /></g><g id="node-90" transform="translate(41.613,46.464)"><circle r="0.0" /></g><g id="node-91" transform="translate(47.247,40.184)"><circle r="0.0" /></g><g id="node-92" transform="translate(45.272,37.780)"><circle r="0.0" /></g><g id="node-93" transform="translate(45.061,35.978)"><circle r="0.0" /></g><g id="node-94" transform="translate(41.040,43.324)"><circle r="0.0" /></g><g id="node-95" transform="translate(41.708,36.879)"><circle r="0.0" /></g><g id="node-96" transform="translate(52.411,34.375)"><circle r="0.0" /></g><g id="node-97" transform="translate(39.440,40.102)"><circle r="0.0" /></g><g id="node-98" transform="translate(39.475,33.774)"><circle r="0.0" /></g><g id="node-99" transform="translate(46.996,31.971)"><circle r="0.0" /></g><g id="node-100" transform="translate(37.454,36.938)"><circle r="0.0" /></g><g id="node-101" transform="translate(38.827,31.370)"><circle r="0.0" /></g><g id="node-102" transform="translate(33.308,34.154)"><circle r="0.0" /></g><g id="node-103" transform="translate(28.770,32.061)"><circle r="0.0" /></g><g id="node-104" transform="translate(25.000,30.614)"><circle r="0.0" /></g></g></g></g></g><g class="toyplot-coordinates-Cartesian" id="t83da1f17b3314a9088578a8ec3c1d380"><clipPath id="t24f16eebae6d4fcb959b39bfa1752e83"><rect x="155.0" y="15.0" width="110.0" height="70.0" /></clipPath><g clip-path="url(#t24f16eebae6d4fcb959b39bfa1752e83)"><g class="toytree-mark-Toytree" id="t1015425a6b464c028888cdb65eabf5ce"><g class="toytree-Edges" style="fill:none;stroke:rgb(14.9%,14.9%,14.9%);stroke-linecap:round;stroke-opacity:1;stroke-width:0.5"><path d="M 165.0 36.7 L 165.0 31.3 L 166.6 31.3" id="104,103" /><path d="M 165.0 36.7 L 165.0 42.0 L 167.4 42.0" id="104,102" /><path d="M 166.6 31.3 L 166.6 29.8 L 172.6 29.8" id="103,101" /><path d="M 166.6 31.3 L 166.6 32.9 L 168.1 32.9" id="103,100" /><path d="M 167.4 42.0 L 167.4 36.8 L 183.3 36.8" id="102,99" /><path d="M 167.4 42.0 L 167.4 47.3 L 170.8 47.3" id="102,98" /><path d="M 172.6 29.8 L 172.6 30.4 L 201.9 30.4" id="101,97" /><path d="M 168.1 32.9 L 168.1 32.0 L 176.9 32.0" id="100,96" /><path d="M 168.1 32.9 L 168.1 33.8 L 171.2 33.8" id="100,95" /><path d="M 183.3 36.8 L 183.3 36.0 L 191.6 36.0" id="99,94" /><path d="M 183.3 36.8 L 183.3 37.6 L 193.5 37.6" id="99,93" /><path d="M 170.8 47.3 L 170.8 42.3 L 172.7 42.3" id="98,92" /><path d="M 170.8 47.3 L 170.8 52.3 L 171.9 52.3" id="98,91" /><path d="M 171.2 33.8 L 171.2 34.4 L 183.6 34.4" id="95,90" /><path d="M 172.7 42.3 L 172.7 40.1 L 175.5 40.1" id="92,89" /><path d="M 172.7 42.3 L 172.7 44.5 L 176.9 44.5" id="92,88" /><path d="M 171.9 52.3 L 171.9 54.6 L 174.7 54.6" id="91,87" /><path d="M 175.5 40.1 L 175.5 39.2 L 192.4 39.2" id="89,86" /><path d="M 175.5 40.1 L 175.5 41.0 L 178.1 41.0" id="89,85" /><path d="M 176.9 44.5 L 176.9 46.1 L 176.9 46.1" id="88,84" /><path d="M 174.7 54.6 L 174.7 51.5 L 180.9 51.5" id="87,83" /><path d="M 174.7 54.6 L 174.7 57.7 L 177.0 57.7" id="87,82" /><path d="M 178.1 41.0 L 178.1 41.6 L 205.0 41.6" id="85,81" /><path d="M 176.9 46.1 L 176.9 44.3 L 189.1 44.3" id="84,80" /><path d="M 176.9 46.1 L 176.9 48.0 L 181.2 48.0" id="84,79" /><path d="M 180.9 51.5 L 180.9 52.2 L 180.9 52.2" id="83,78" /><path d="M 177.0 57.7 L 177.0 54.4 L 181.7 54.4" id="82,77" /><path d="M 177.0 57.7 L 177.0 60.9 L 181.8 60.9" id="82,76" /><path d="M 189.1 44.3 L 189.1 45.0 L 190.8 45.0" id="80,75" /><path d="M 181.2 48.0 L 181.2 47.2 L 193.0 47.2" id="79,74" /><path d="M 181.2 48.0 L 181.2 48.8 L 185.3 48.8" id="79,73" /><path d="M 180.9 52.2 L 180.9 52.8 L 188.2 52.8" id="78,72" /><path d="M 181.8 60.9 L 181.8 57.6 L 185.6 57.6" id="76,71" /><path d="M 181.8 60.9 L 181.8 64.2 L 182.6 64.2" id="76,70" /><path d="M 190.8 45.0 L 190.8 45.6 L 193.1 45.6" id="75,69" /><path d="M 185.6 57.6 L 185.6 56.2 L 191.4 56.2" id="71,68" /><path d="M 185.6 57.6 L 185.6 59.0 L 189.7 59.0" id="71,67" /><path d="M 182.6 64.2 L 182.6 62.4 L 208.4 62.4" id="70,66" /><path d="M 182.6 64.2 L 182.6 66.0 L 187.9 66.0" id="70,65" /><path d="M 191.4 56.2 L 191.4 56.8 L 194.7 56.8" id="68,64" /><path d="M 189.7 59.0 L 189.7 60.0 L 191.9 60.0" id="67,63" /><path d="M 187.9 66.0 L 187.9 64.2 L 199.6 64.2" id="65,62" /><path d="M 187.9 66.0 L 187.9 67.7 L 197.1 67.7" id="65,61" /><path d="M 191.9 60.0 L 191.9 59.2 L 197.3 59.2" id="63,60" /><path d="M 191.9 60.0 L 191.9 60.8 L 195.2 60.8" id="63,59" /><path d="M 199.6 64.2 L 199.6 64.8 L 214.2 64.8" id="62,58" /><path d="M 197.1 67.7 L 197.1 66.4 L 201.1 66.4" id="61,57" /><path d="M 197.1 67.7 L 197.1 68.9 L 198.6 68.9" id="61,56" /><path d="M 198.6 68.9 L 198.6 68.0 L 202.1 68.0" id="56,55" /><path d="M 198.6 68.9 L 198.6 69.8 L 201.1 69.8" id="56,54" /><path d="M 201.1 69.8 L 201.1 70.4 L 202.0 70.4" id="54,53" /><path d="M 172.6 29.8 L 172.6 29.2 L 202.9 29.2" id="101,52" /><path d="M 201.9 30.4 L 201.9 30.0 L 226.7 30.0" id="97,51" /><path d="M 201.9 30.4 L 201.9 30.8 L 201.9 30.8" id="97,50" /><path d="M 176.9 32.0 L 176.9 31.6 L 198.7 31.6" id="96,49" /><path d="M 176.9 32.0 L 176.9 32.4 L 194.3 32.4" id="96,48" /><path d="M 171.2 33.8 L 171.2 33.2 L 204.2 33.2" id="95,47" /><path d="M 183.6 34.4 L 183.6 34.0 L 195.3 34.0" id="90,46" /><path d="M 183.6 34.4 L 183.6 34.8 L 197.4 34.8" id="90,45" /><path d="M 191.6 36.0 L 191.6 35.6 L 201.7 35.6" id="94,44" /><path d="M 191.6 36.0 L 191.6 36.4 L 198.3 36.4" id="94,43" /><path d="M 193.5 37.6 L 193.5 37.2 L 194.5 37.2" id="93,42" /><path d="M 193.5 37.6 L 193.5 38.0 L 198.5 38.0" id="93,41" /><path d="M 192.4 39.2 L 192.4 38.8 L 192.4 38.8" id="86,40" /><path d="M 192.4 39.2 L 192.4 39.6 L 206.4 39.6" id="86,39" /><path d="M 178.1 41.0 L 178.1 40.4 L 184.8 40.4" id="85,38" /><path d="M 205.0 41.6 L 205.0 41.2 L 211.3 41.2" id="81,37" /><path d="M 205.0 41.6 L 205.0 42.0 L 205.0 42.0" id="81,36" /><path d="M 176.9 44.5 L 176.9 42.8 L 176.9 42.8" id="88,35" /><path d="M 189.1 44.3 L 189.1 43.6 L 207.3 43.6" id="80,34" /><path d="M 190.8 45.0 L 190.8 44.4 L 209.0 44.4" id="75,33" /><path d="M 193.1 45.6 L 193.1 45.2 L 207.7 45.2" id="69,32" /><path d="M 193.1 45.6 L 193.1 46.0 L 206.7 46.0" id="69,31" /><path d="M 193.0 47.2 L 193.0 46.8 L 195.8 46.8" id="74,30" /><path d="M 193.0 47.2 L 193.0 47.6 L 195.0 47.6" id="74,29" /><path d="M 185.3 48.8 L 185.3 48.4 L 200.6 48.4" id="73,28" /><path d="M 185.3 48.8 L 185.3 49.2 L 196.5 49.2" id="73,27" /><path d="M 171.9 52.3 L 171.9 50.0 L 204.0 50.0" id="91,26" /><path d="M 180.9 51.5 L 180.9 50.8 L 180.9 50.8" id="83,25" /><path d="M 180.9 52.2 L 180.9 51.6 L 204.8 51.6" id="78,24" /><path d="M 188.2 52.8 L 188.2 52.4 L 198.5 52.4" id="72,23" /><path d="M 188.2 52.8 L 188.2 53.2 L 211.3 53.2" id="72,22" /><path d="M 181.7 54.4 L 181.7 54.0 L 222.2 54.0" id="77,21" /><path d="M 181.7 54.4 L 181.7 54.8 L 196.3 54.8" id="77,20" /><path d="M 191.4 56.2 L 191.4 55.6 L 196.2 55.6" id="68,19" /><path d="M 194.7 56.8 L 194.7 56.4 L 197.9 56.4" id="64,18" /><path d="M 194.7 56.8 L 194.7 57.2 L 197.3 57.2" id="64,17" /><path d="M 189.7 59.0 L 189.7 58.0 L 196.7 58.0" id="67,16" /><path d="M 197.3 59.2 L 197.3 58.8 L 250.3 58.8" id="60,15" /><path d="M 197.3 59.2 L 197.3 59.6 L 201.0 59.6" id="60,14" /><path d="M 195.2 60.8 L 195.2 60.4 L 215.3 60.4" id="59,13" /><path d="M 195.2 60.8 L 195.2 61.2 L 198.0 61.2" id="59,12" /><path d="M 208.4 62.4 L 208.4 62.0 L 212.3 62.0" id="66,11" /><path d="M 208.4 62.4 L 208.4 62.8 L 208.4 62.8" id="66,10" /><path d="M 199.6 64.2 L 199.6 63.6 L 218.3 63.6" id="62,9" /><path d="M 214.2 64.8 L 214.2 64.4 L 221.2 64.4" id="58,8" /><path d="M 214.2 64.8 L 214.2 65.2 L 238.8 65.2" id="58,7" /><path d="M 201.1 66.4 L 201.1 66.0 L 208.9 66.0" id="57,6" /><path d="M 201.1 66.4 L 201.1 66.8 L 201.1 66.8" id="57,5" /><path d="M 202.1 68.0 L 202.1 67.6 L 217.7 67.6" id="55,4" /><path d="M 202.1 68.0 L 202.1 68.4 L 218.8 68.4" id="55,3" /><path d="M 201.1 69.8 L 201.1 69.2 L 202.8 69.2" id="54,2" /><path d="M 202.0 70.4 L 202.0 70.0 L 203.5 70.0" id="53,1" /><path d="M 202.0 70.4 L 202.0 70.8 L 205.2 70.8" id="53,0" /></g><g class="toytree-Nodes" style="fill:rgb(100%,0%,0%);fill-opacity:1.0;stroke:None;stroke-width:1"><g id="node-0" transform="translate(205.155,70.833)"><circle r="2.5" /></g><g id="node-1" transform="translate(203.529,70.032)"><circle r="2.5" /></g><g id="node-2" transform="translate(202.797,69.231)"><circle r="2.5" /></g><g id="node-3" transform="translate(218.783,68.429)"><circle r="2.5" /></g><g id="node-4" transform="translate(217.685,67.628)"><circle r="2.5" /></g><g id="node-5" transform="translate(201.115,66.827)"><circle r="2.5" /></g><g id="node-6" transform="translate(208.862,66.026)"><circle r="2.5" /></g><g id="node-7" transform="translate(238.848,65.224)"><circle r="2.5" /></g><g id="node-8" transform="translate(221.218,64.423)"><circle r="2.5" /></g><g id="node-9" transform="translate(218.256,63.622)"><circle r="2.5" /></g><g id="node-10" transform="translate(208.360,62.821)"><circle r="2.5" /></g><g id="node-11" transform="translate(212.275,62.019)"><circle r="2.5" /></g><g id="node-12" transform="translate(197.995,61.218)"><circle r="2.5" /></g><g id="node-13" transform="translate(215.327,60.417)"><circle r="2.5" /></g><g id="node-14" transform="translate(201.026,59.615)"><circle r="2.5" /></g><g id="node-15" transform="translate(250.263,58.814)"><circle r="2.5" /></g><g id="node-16" transform="translate(196.719,58.013)"><circle r="2.5" /></g><g id="node-17" transform="translate(197.268,57.212)"><circle r="2.5" /></g><g id="node-18" transform="translate(197.855,56.410)"><circle r="2.5" /></g><g id="node-19" transform="translate(196.216,55.609)"><circle r="2.5" /></g><g id="node-20" transform="translate(196.272,54.808)"><circle r="2.5" /></g><g id="node-21" transform="translate(222.184,54.006)"><circle r="2.5" /></g><g id="node-22" transform="translate(211.284,53.205)"><circle r="2.5" /></g><g id="node-23" transform="translate(198.464,52.404)"><circle r="2.5" /></g><g id="node-24" transform="translate(204.823,51.603)"><circle r="2.5" /></g><g id="node-25" transform="translate(180.928,50.801)"><circle r="2.5" /></g><g id="node-26" transform="translate(203.993,50.000)"><circle r="2.5" /></g><g id="node-27" transform="translate(196.497,49.199)"><circle r="2.5" /></g><g id="node-28" transform="translate(200.583,48.397)"><circle r="2.5" /></g><g id="node-29" transform="translate(195.042,47.596)"><circle r="2.5" /></g><g id="node-30" transform="translate(195.765,46.795)"><circle r="2.5" /></g><g id="node-31" transform="translate(206.653,45.994)"><circle r="2.5" /></g><g id="node-32" transform="translate(207.683,45.192)"><circle r="2.5" /></g><g id="node-33" transform="translate(208.998,44.391)"><circle r="2.5" /></g><g id="node-34" transform="translate(207.317,43.590)"><circle r="2.5" /></g><g id="node-35" transform="translate(176.905,42.788)"><circle r="2.5" /></g><g id="node-36" transform="translate(204.963,41.987)"><circle r="2.5" /></g><g id="node-37" transform="translate(211.262,41.186)"><circle r="2.5" /></g><g id="node-38" transform="translate(184.792,40.385)"><circle r="2.5" /></g><g id="node-39" transform="translate(206.351,39.583)"><circle r="2.5" /></g><g id="node-40" transform="translate(192.432,38.782)"><circle r="2.5" /></g><g id="node-41" transform="translate(198.493,37.981)"><circle r="2.5" /></g><g id="node-42" transform="translate(194.467,37.179)"><circle r="2.5" /></g><g id="node-43" transform="translate(198.268,36.378)"><circle r="2.5" /></g><g id="node-44" transform="translate(201.673,35.577)"><circle r="2.5" /></g><g id="node-45" transform="translate(197.407,34.776)"><circle r="2.5" /></g><g id="node-46" transform="translate(195.313,33.974)"><circle r="2.5" /></g><g id="node-47" transform="translate(204.158,33.173)"><circle r="2.5" /></g><g id="node-48" transform="translate(194.309,32.372)"><circle r="2.5" /></g><g id="node-49" transform="translate(198.684,31.571)"><circle r="2.5" /></g><g id="node-50" transform="translate(201.893,30.769)"><circle r="2.5" /></g><g id="node-51" transform="translate(226.708,29.968)"><circle r="2.5" /></g><g id="node-52" transform="translate(202.919,29.167)"><circle r="2.5" /></g><g id="node-53" transform="translate(202.043,70.433)"><circle r="0.0" /></g><g id="node-54" transform="translate(201.090,69.832)"><circle r="0.0" /></g><g id="node-55" transform="translate(202.145,68.029)"><circle r="0.0" /></g><g id="node-56" transform="translate(198.621,68.930)"><circle r="0.0" /></g><g id="node-57" transform="translate(201.115,66.426)"><circle r="0.0" /></g><g id="node-58" transform="translate(214.157,64.824)"><circle r="0.0" /></g><g id="node-59" transform="translate(195.191,60.817)"><circle r="0.0" /></g><g id="node-60" transform="translate(197.340,59.215)"><circle r="0.0" /></g><g id="node-61" transform="translate(197.144,67.678)"><circle r="0.0" /></g><g id="node-62" transform="translate(199.638,64.223)"><circle r="0.0" /></g><g id="node-63" transform="translate(191.871,60.016)"><circle r="0.0" /></g><g id="node-64" transform="translate(194.731,56.811)"><circle r="0.0" /></g><g id="node-65" transform="translate(187.853,65.951)"><circle r="0.0" /></g><g id="node-66" transform="translate(208.360,62.420)"><circle r="0.0" /></g><g id="node-67" transform="translate(189.666,59.014)"><circle r="0.0" /></g><g id="node-68" transform="translate(191.356,56.210)"><circle r="0.0" /></g><g id="node-69" transform="translate(193.058,45.593)"><circle r="0.0" /></g><g id="node-70" transform="translate(182.558,64.185)"><circle r="0.0" /></g><g id="node-71" transform="translate(185.584,57.612)"><circle r="0.0" /></g><g id="node-72" transform="translate(188.168,52.804)"><circle r="0.0" /></g><g id="node-73" transform="translate(185.282,48.798)"><circle r="0.0" /></g><g id="node-74" transform="translate(192.999,47.196)"><circle r="0.0" /></g><g id="node-75" transform="translate(190.781,44.992)"><circle r="0.0" /></g><g id="node-76" transform="translate(181.800,60.899)"><circle r="0.0" /></g><g id="node-77" transform="translate(181.668,54.407)"><circle r="0.0" /></g><g id="node-78" transform="translate(180.928,52.204)"><circle r="0.0" /></g><g id="node-79" transform="translate(181.191,47.997)"><circle r="0.0" /></g><g id="node-80" transform="translate(189.057,44.291)"><circle r="0.0" /></g><g id="node-81" transform="translate(204.963,41.587)"><circle r="0.0" /></g><g id="node-82" transform="translate(177.020,57.653)"><circle r="0.0" /></g><g id="node-83" transform="translate(180.928,51.502)"><circle r="0.0" /></g><g id="node-84" transform="translate(176.905,46.144)"><circle r="0.0" /></g><g id="node-85" transform="translate(178.140,40.986)"><circle r="0.0" /></g><g id="node-86" transform="translate(192.432,39.183)"><circle r="0.0" /></g><g id="node-87" transform="translate(174.713,54.578)"><circle r="0.0" /></g><g id="node-88" transform="translate(176.905,44.466)"><circle r="0.0" /></g><g id="node-89" transform="translate(175.458,40.084)"><circle r="0.0" /></g><g id="node-90" transform="translate(183.634,34.375)"><circle r="0.0" /></g><g id="node-91" transform="translate(171.874,52.289)"><circle r="0.0" /></g><g id="node-92" transform="translate(172.704,42.275)"><circle r="0.0" /></g><g id="node-93" transform="translate(193.458,37.580)"><circle r="0.0" /></g><g id="node-94" transform="translate(191.607,35.978)"><circle r="0.0" /></g><g id="node-95" transform="translate(171.210,33.774)"><circle r="0.0" /></g><g id="node-96" transform="translate(176.875,31.971)"><circle r="0.0" /></g><g id="node-97" transform="translate(201.893,30.369)"><circle r="0.0" /></g><g id="node-98" transform="translate(170.772,47.282)"><circle r="0.0" /></g><g id="node-99" transform="translate(183.332,36.779)"><circle r="0.0" /></g><g id="node-100" transform="translate(168.060,32.873)"><circle r="0.0" /></g><g id="node-101" transform="translate(172.601,29.768)"><circle r="0.0" /></g><g id="node-102" transform="translate(167.409,42.030)"><circle r="0.0" /></g><g id="node-103" transform="translate(166.600,31.320)"><circle r="0.0" /></g><g id="node-104" transform="translate(165.000,36.675)"><circle r="0.0" /></g></g></g></g></g><g class="toyplot-coordinates-Cartesian" id="t29280505ede8419dab7136cc5c7a620c"><clipPath id="t82424918936f456b80aa71211099f4c6"><rect x="295.0" y="15.0" width="110.0" height="70.0" /></clipPath><g clip-path="url(#t82424918936f456b80aa71211099f4c6)"><g class="toytree-mark-Toytree" id="ta99161f28d75498d89940443a52114fe"><g class="toytree-Edges" style="fill:none;stroke:rgb(14.9%,14.9%,14.9%);stroke-linecap:round;stroke-opacity:1;stroke-width:0.5"><path d="M 305.0 39.9 L 305.0 32.8 L 306.8 32.8" id="104,103" /><path d="M 305.0 39.9 L 305.0 47.0 L 305.7 47.0" id="104,102" /><path d="M 306.8 32.8 L 306.8 29.8 L 307.5 29.8" id="103,101" /><path d="M 306.8 32.8 L 306.8 35.9 L 309.0 35.9" id="103,100" /><path d="M 305.7 47.0 L 305.7 50.5 L 307.8 50.5" id="102,99" /><path d="M 307.5 29.8 L 307.5 30.4 L 314.4 30.4" id="101,98" /><path d="M 309.0 35.9 L 309.0 33.2 L 317.6 33.2" id="100,97" /><path d="M 309.0 35.9 L 309.0 38.6 L 311.2 38.6" id="100,96" /><path d="M 307.8 50.5 L 307.8 46.9 L 309.1 46.9" id="99,95" /><path d="M 307.8 50.5 L 307.8 54.0 L 309.0 54.0" id="99,94" /><path d="M 317.6 33.2 L 317.6 32.0 L 324.5 32.0" id="97,93" /><path d="M 317.6 33.2 L 317.6 34.4 L 318.7 34.4" id="97,92" /><path d="M 311.2 38.6 L 311.2 37.0 L 314.1 37.0" id="96,91" /><path d="M 311.2 38.6 L 311.2 40.1 L 311.8 40.1" id="96,90" /><path d="M 309.1 46.9 L 309.1 45.6 L 312.1 45.6" id="95,89" /><path d="M 309.1 46.9 L 309.1 48.3 L 312.1 48.3" id="95,88" /><path d="M 309.0 54.0 L 309.0 51.4 L 310.4 51.4" id="94,87" /><path d="M 309.0 54.0 L 309.0 56.6 L 309.6 56.6" id="94,86" /><path d="M 318.7 34.4 L 318.7 33.6 L 321.5 33.6" id="92,85" /><path d="M 318.7 34.4 L 318.7 35.2 L 325.2 35.2" id="92,84" /><path d="M 314.1 37.0 L 314.1 37.6 L 317.0 37.6" id="91,83" /><path d="M 311.8 40.1 L 311.8 39.2 L 316.1 39.2" id="90,82" /><path d="M 311.8 40.1 L 311.8 41.1 L 316.3 41.1" id="90,81" /><path d="M 312.1 45.6 L 312.1 44.8 L 316.9 44.8" id="89,80" /><path d="M 312.1 45.6 L 312.1 46.4 L 317.2 46.4" id="89,79" /><path d="M 312.1 48.3 L 312.1 49.0 L 315.4 49.0" id="88,78" /><path d="M 310.4 51.4 L 310.4 52.0 L 317.6 52.0" id="87,77" /><path d="M 309.6 56.6 L 309.6 53.8 L 313.3 53.8" id="86,76" /><path d="M 309.6 56.6 L 309.6 59.4 L 314.2 59.4" id="86,75" /><path d="M 316.3 41.1 L 316.3 41.8 L 318.4 41.8" id="81,74" /><path d="M 315.4 49.0 L 315.4 49.6 L 320.8 49.6" id="78,73" /><path d="M 313.3 53.8 L 313.3 54.4 L 327.6 54.4" id="76,72" /><path d="M 314.2 59.4 L 314.2 56.2 L 315.6 56.2" id="75,71" /><path d="M 314.2 59.4 L 314.2 62.5 L 316.3 62.5" id="75,70" /><path d="M 318.4 41.8 L 318.4 42.4 L 320.5 42.4" id="74,69" /><path d="M 315.6 56.2 L 315.6 56.8 L 318.1 56.8" id="71,68" /><path d="M 316.3 62.5 L 316.3 59.4 L 319.5 59.4" id="70,67" /><path d="M 316.3 62.5 L 316.3 65.7 L 317.0 65.7" id="70,66" /><path d="M 319.5 59.4 L 319.5 58.4 L 332.6 58.4" id="67,65" /><path d="M 319.5 59.4 L 319.5 60.3 L 324.7 60.3" id="67,64" /><path d="M 317.0 65.7 L 317.0 63.5 L 319.8 63.5" id="66,63" /><path d="M 317.0 65.7 L 317.0 67.9 L 317.6 67.9" id="66,62" /><path d="M 324.7 60.3 L 324.7 61.0 L 330.3 61.0" id="64,61" /><path d="M 319.8 63.5 L 319.8 64.2 L 320.2 64.2" id="63,60" /><path d="M 317.6 67.9 L 317.6 66.6 L 318.1 66.6" id="62,59" /><path d="M 317.6 67.9 L 317.6 69.1 L 318.3 69.1" id="62,58" /><path d="M 330.3 61.0 L 330.3 61.6 L 338.6 61.6" id="61,57" /><path d="M 320.2 64.2 L 320.2 64.8 L 321.0 64.8" id="60,56" /><path d="M 318.1 66.6 L 318.1 67.2 L 319.4 67.2" id="59,55" /><path d="M 318.3 69.1 L 318.3 69.8 L 320.4 69.8" id="58,54" /><path d="M 320.4 69.8 L 320.4 70.4 L 322.9 70.4" id="54,53" /><path d="M 307.5 29.8 L 307.5 29.2 L 322.5 29.2" id="101,52" /><path d="M 314.4 30.4 L 314.4 30.0 L 333.0 30.0" id="98,51" /><path d="M 314.4 30.4 L 314.4 30.8 L 320.7 30.8" id="98,50" /><path d="M 324.5 32.0 L 324.5 31.6 L 369.4 31.6" id="93,49" /><path d="M 324.5 32.0 L 324.5 32.4 L 326.6 32.4" id="93,48" /><path d="M 321.5 33.6 L 321.5 33.2 L 329.1 33.2" id="85,47" /><path d="M 321.5 33.6 L 321.5 34.0 L 326.7 34.0" id="85,46" /><path d="M 325.2 35.2 L 325.2 34.8 L 328.5 34.8" id="84,45" /><path d="M 325.2 35.2 L 325.2 35.6 L 328.7 35.6" id="84,44" /><path d="M 314.1 37.0 L 314.1 36.4 L 327.6 36.4" id="91,43" /><path d="M 317.0 37.6 L 317.0 37.2 L 333.4 37.2" id="83,42" /><path d="M 317.0 37.6 L 317.0 38.0 L 327.2 38.0" id="83,41" /><path d="M 316.1 39.2 L 316.1 38.8 L 329.5 38.8" id="82,40" /><path d="M 316.1 39.2 L 316.1 39.6 L 328.2 39.6" id="82,39" /><path d="M 316.3 41.1 L 316.3 40.4 L 329.5 40.4" id="81,38" /><path d="M 318.4 41.8 L 318.4 41.2 L 327.1 41.2" id="74,37" /><path d="M 320.5 42.4 L 320.5 42.0 L 328.1 42.0" id="69,36" /><path d="M 320.5 42.4 L 320.5 42.8 L 326.3 42.8" id="69,35" /><path d="M 305.7 47.0 L 305.7 43.6 L 323.1 43.6" id="102,34" /><path d="M 316.9 44.8 L 316.9 44.4 L 340.9 44.4" id="80,33" /><path d="M 316.9 44.8 L 316.9 45.2 L 323.1 45.2" id="80,32" /><path d="M 317.2 46.4 L 317.2 46.0 L 335.5 46.0" id="79,31" /><path d="M 317.2 46.4 L 317.2 46.8 L 319.3 46.8" id="79,30" /><path d="M 312.1 48.3 L 312.1 47.6 L 318.7 47.6" id="88,29" /><path d="M 315.4 49.0 L 315.4 48.4 L 332.6 48.4" id="78,28" /><path d="M 320.8 49.6 L 320.8 49.2 L 347.4 49.2" id="73,27" /><path d="M 320.8 49.6 L 320.8 50.0 L 343.6 50.0" id="73,26" /><path d="M 310.4 51.4 L 310.4 50.8 L 361.3 50.8" id="87,25" /><path d="M 317.6 52.0 L 317.6 51.6 L 326.8 51.6" id="77,24" /><path d="M 317.6 52.0 L 317.6 52.4 L 329.8 52.4" id="77,23" /><path d="M 313.3 53.8 L 313.3 53.2 L 328.4 53.2" id="76,22" /><path d="M 327.6 54.4 L 327.6 54.0 L 328.4 54.0" id="72,21" /><path d="M 327.6 54.4 L 327.6 54.8 L 328.0 54.8" id="72,20" /><path d="M 315.6 56.2 L 315.6 55.6 L 331.7 55.6" id="71,19" /><path d="M 318.1 56.8 L 318.1 56.4 L 337.1 56.4" id="68,18" /><path d="M 318.1 56.8 L 318.1 57.2 L 326.7 57.2" id="68,17" /><path d="M 332.6 58.4 L 332.6 58.0 L 343.0 58.0" id="65,16" /><path d="M 332.6 58.4 L 332.6 58.8 L 351.2 58.8" id="65,15" /><path d="M 324.7 60.3 L 324.7 59.6 L 351.0 59.6" id="64,14" /><path d="M 330.3 61.0 L 330.3 60.4 L 390.3 60.4" id="61,13" /><path d="M 338.6 61.6 L 338.6 61.2 L 361.5 61.2" id="57,12" /><path d="M 338.6 61.6 L 338.6 62.0 L 345.1 62.0" id="57,11" /><path d="M 319.8 63.5 L 319.8 62.8 L 319.9 62.8" id="63,10" /><path d="M 320.2 64.2 L 320.2 63.6 L 321.7 63.6" id="60,9" /><path d="M 321.0 64.8 L 321.0 64.4 L 321.0 64.4" id="56,8" /><path d="M 321.0 64.8 L 321.0 65.2 L 324.9 65.2" id="56,7" /><path d="M 318.1 66.6 L 318.1 66.0 L 319.7 66.0" id="59,6" /><path d="M 319.4 67.2 L 319.4 66.8 L 319.4 66.8" id="55,5" /><path d="M 319.4 67.2 L 319.4 67.6 L 320.0 67.6" id="55,4" /><path d="M 318.3 69.1 L 318.3 68.4 L 320.8 68.4" id="58,3" /><path d="M 320.4 69.8 L 320.4 69.2 L 325.9 69.2" id="54,2" /><path d="M 322.9 70.4 L 322.9 70.0 L 359.5 70.0" id="53,1" /><path d="M 322.9 70.4 L 322.9 70.8 L 325.9 70.8" id="53,0" /></g><g class="toytree-Nodes" style="fill:rgb(100%,0%,0%);fill-opacity:1.0;stroke:None;stroke-width:1"><g id="node-0" transform="translate(325.889,70.833)"><circle r="2.5" /></g><g id="node-1" transform="translate(359.452,70.032)"><circle r="2.5" /></g><g id="node-2" transform="translate(325.940,69.231)"><circle r="2.5" /></g><g id="node-3" transform="translate(320.753,68.429)"><circle r="2.5" /></g><g id="node-4" transform="translate(320.025,67.628)"><circle r="2.5" /></g><g id="node-5" transform="translate(319.387,66.827)"><circle r="2.5" /></g><g id="node-6" transform="translate(319.668,66.026)"><circle r="2.5" /></g><g id="node-7" transform="translate(324.910,65.224)"><circle r="2.5" /></g><g id="node-8" transform="translate(320.953,64.423)"><circle r="2.5" /></g><g id="node-9" transform="translate(321.668,63.622)"><circle r="2.5" /></g><g id="node-10" transform="translate(319.949,62.821)"><circle r="2.5" /></g><g id="node-11" transform="translate(345.079,62.019)"><circle r="2.5" /></g><g id="node-12" transform="translate(361.486,61.218)"><circle r="2.5" /></g><g id="node-13" transform="translate(390.263,60.417)"><circle r="2.5" /></g><g id="node-14" transform="translate(351.015,59.615)"><circle r="2.5" /></g><g id="node-15" transform="translate(351.223,58.814)"><circle r="2.5" /></g><g id="node-16" transform="translate(343.011,58.013)"><circle r="2.5" /></g><g id="node-17" transform="translate(326.697,57.212)"><circle r="2.5" /></g><g id="node-18" transform="translate(337.071,56.410)"><circle r="2.5" /></g><g id="node-19" transform="translate(331.654,55.609)"><circle r="2.5" /></g><g id="node-20" transform="translate(327.953,54.808)"><circle r="2.5" /></g><g id="node-21" transform="translate(328.352,54.006)"><circle r="2.5" /></g><g id="node-22" transform="translate(328.370,53.205)"><circle r="2.5" /></g><g id="node-23" transform="translate(329.829,52.404)"><circle r="2.5" /></g><g id="node-24" transform="translate(326.842,51.603)"><circle r="2.5" /></g><g id="node-25" transform="translate(361.252,50.801)"><circle r="2.5" /></g><g id="node-26" transform="translate(343.641,50.000)"><circle r="2.5" /></g><g id="node-27" transform="translate(347.351,49.199)"><circle r="2.5" /></g><g id="node-28" transform="translate(332.582,48.397)"><circle r="2.5" /></g><g id="node-29" transform="translate(318.745,47.596)"><circle r="2.5" /></g><g id="node-30" transform="translate(319.294,46.795)"><circle r="2.5" /></g><g id="node-31" transform="translate(335.497,45.994)"><circle r="2.5" /></g><g id="node-32" transform="translate(323.127,45.192)"><circle r="2.5" /></g><g id="node-33" transform="translate(340.922,44.391)"><circle r="2.5" /></g><g id="node-34" transform="translate(323.144,43.590)"><circle r="2.5" /></g><g id="node-35" transform="translate(326.287,42.788)"><circle r="2.5" /></g><g id="node-36" transform="translate(328.066,41.987)"><circle r="2.5" /></g><g id="node-37" transform="translate(327.130,41.186)"><circle r="2.5" /></g><g id="node-38" transform="translate(329.525,40.385)"><circle r="2.5" /></g><g id="node-39" transform="translate(328.219,39.583)"><circle r="2.5" /></g><g id="node-40" transform="translate(329.495,38.782)"><circle r="2.5" /></g><g id="node-41" transform="translate(327.172,37.981)"><circle r="2.5" /></g><g id="node-42" transform="translate(333.444,37.179)"><circle r="2.5" /></g><g id="node-43" transform="translate(327.581,36.378)"><circle r="2.5" /></g><g id="node-44" transform="translate(328.657,35.577)"><circle r="2.5" /></g><g id="node-45" transform="translate(328.538,34.776)"><circle r="2.5" /></g><g id="node-46" transform="translate(326.687,33.974)"><circle r="2.5" /></g><g id="node-47" transform="translate(329.121,33.173)"><circle r="2.5" /></g><g id="node-48" transform="translate(326.610,32.372)"><circle r="2.5" /></g><g id="node-49" transform="translate(369.356,31.571)"><circle r="2.5" /></g><g id="node-50" transform="translate(320.747,30.769)"><circle r="2.5" /></g><g id="node-51" transform="translate(333.035,29.968)"><circle r="2.5" /></g><g id="node-52" transform="translate(322.513,29.167)"><circle r="2.5" /></g><g id="node-53" transform="translate(322.927,70.433)"><circle r="0.0" /></g><g id="node-54" transform="translate(320.434,69.832)"><circle r="0.0" /></g><g id="node-55" transform="translate(319.387,67.228)"><circle r="0.0" /></g><g id="node-56" transform="translate(320.953,64.824)"><circle r="0.0" /></g><g id="node-57" transform="translate(338.560,61.619)"><circle r="0.0" /></g><g id="node-58" transform="translate(318.285,69.131)"><circle r="0.0" /></g><g id="node-59" transform="translate(318.123,66.627)"><circle r="0.0" /></g><g id="node-60" transform="translate(320.204,64.223)"><circle r="0.0" /></g><g id="node-61" transform="translate(330.276,61.018)"><circle r="0.0" /></g><g id="node-62" transform="translate(317.621,67.879)"><circle r="0.0" /></g><g id="node-63" transform="translate(319.842,63.522)"><circle r="0.0" /></g><g id="node-64" transform="translate(324.710,60.317)"><circle r="0.0" /></g><g id="node-65" transform="translate(332.565,58.413)"><circle r="0.0" /></g><g id="node-66" transform="translate(317.030,65.700)"><circle r="0.0" /></g><g id="node-67" transform="translate(319.511,59.365)"><circle r="0.0" /></g><g id="node-68" transform="translate(318.055,56.811)"><circle r="0.0" /></g><g id="node-69" transform="translate(320.517,42.388)"><circle r="0.0" /></g><g id="node-70" transform="translate(316.311,62.533)"><circle r="0.0" /></g><g id="node-71" transform="translate(315.643,56.210)"><circle r="0.0" /></g><g id="node-72" transform="translate(327.578,54.407)"><circle r="0.0" /></g><g id="node-73" transform="translate(320.753,49.599)"><circle r="0.0" /></g><g id="node-74" transform="translate(318.356,41.787)"><circle r="0.0" /></g><g id="node-75" transform="translate(314.243,59.371)"><circle r="0.0" /></g><g id="node-76" transform="translate(313.273,53.806)"><circle r="0.0" /></g><g id="node-77" transform="translate(317.570,52.003)"><circle r="0.0" /></g><g id="node-78" transform="translate(315.370,48.998)"><circle r="0.0" /></g><g id="node-79" transform="translate(317.226,46.394)"><circle r="0.0" /></g><g id="node-80" transform="translate(316.877,44.792)"><circle r="0.0" /></g><g id="node-81" transform="translate(316.292,41.086)"><circle r="0.0" /></g><g id="node-82" transform="translate(316.135,39.183)"><circle r="0.0" /></g><g id="node-83" transform="translate(316.990,37.580)"><circle r="0.0" /></g><g id="node-84" transform="translate(325.172,35.176)"><circle r="0.0" /></g><g id="node-85" transform="translate(321.479,33.574)"><circle r="0.0" /></g><g id="node-86" transform="translate(309.609,56.589)"><circle r="0.0" /></g><g id="node-87" transform="translate(310.371,51.402)"><circle r="0.0" /></g><g id="node-88" transform="translate(312.086,48.297)"><circle r="0.0" /></g><g id="node-89" transform="translate(312.090,45.593)"><circle r="0.0" /></g><g id="node-90" transform="translate(311.760,40.134)"><circle r="0.0" /></g><g id="node-91" transform="translate(314.084,36.979)"><circle r="0.0" /></g><g id="node-92" transform="translate(318.688,34.375)"><circle r="0.0" /></g><g id="node-93" transform="translate(324.496,31.971)"><circle r="0.0" /></g><g id="node-94" transform="translate(308.975,53.995)"><circle r="0.0" /></g><g id="node-95" transform="translate(309.098,46.945)"><circle r="0.0" /></g><g id="node-96" transform="translate(311.224,38.557)"><circle r="0.0" /></g><g id="node-97" transform="translate(317.581,33.173)"><circle r="0.0" /></g><g id="node-98" transform="translate(314.403,30.369)"><circle r="0.0" /></g><g id="node-99" transform="translate(307.754,50.470)"><circle r="0.0" /></g><g id="node-100" transform="translate(308.965,35.865)"><circle r="0.0" /></g><g id="node-101" transform="translate(307.501,29.768)"><circle r="0.0" /></g><g id="node-102" transform="translate(305.677,47.030)"><circle r="0.0" /></g><g id="node-103" transform="translate(306.786,32.816)"><circle r="0.0" /></g><g id="node-104" transform="translate(305.000,39.923)"><circle r="0.0" /></g></g></g></g></g><g class="toyplot-coordinates-Cartesian" id="tba72777c29c74b81afbf4798394ebc8d"><clipPath id="t0960658bd19a48d793dcda1b2b393791"><rect x="435.0" y="15.0" width="110.0" height="70.0" /></clipPath><g clip-path="url(#t0960658bd19a48d793dcda1b2b393791)"><g class="toytree-mark-Toytree" id="tc61e3e6905ad4eabbdfaf49664685174"><g class="toytree-Edges" style="fill:none;stroke:rgb(14.9%,14.9%,14.9%);stroke-linecap:round;stroke-opacity:1;stroke-width:0.5"><path d="M 445.0 31.5 L 445.0 33.9 L 455.1 33.9" id="104,103" /><path d="M 455.1 33.9 L 455.1 30.6 L 458.1 30.6" id="103,102" /><path d="M 455.1 33.9 L 455.1 37.3 L 462.4 37.3" id="103,101" /><path d="M 458.1 30.6 L 458.1 31.2 L 467.8 31.2" id="102,100" /><path d="M 462.4 37.3 L 462.4 33.4 L 466.4 33.4" id="101,99" /><path d="M 462.4 37.3 L 462.4 41.1 L 465.0 41.1" id="101,98" /><path d="M 466.4 33.4 L 466.4 34.5 L 467.8 34.5" id="99,97" /><path d="M 465.0 41.1 L 465.0 37.6 L 471.8 37.6" id="98,96" /><path d="M 465.0 41.1 L 465.0 44.7 L 467.4 44.7" id="98,95" /><path d="M 467.8 34.5 L 467.8 33.6 L 479.9 33.6" id="97,94" /><path d="M 467.8 34.5 L 467.8 35.4 L 479.0 35.4" id="97,93" /><path d="M 467.4 44.7 L 467.4 41.1 L 472.9 41.1" id="95,92" /><path d="M 467.4 44.7 L 467.4 48.3 L 470.0 48.3" id="95,91" /><path d="M 479.0 35.4 L 479.0 36.0 L 486.9 36.0" id="93,90" /><path d="M 472.9 41.1 L 472.9 39.4 L 475.8 39.4" id="92,89" /><path d="M 472.9 41.1 L 472.9 42.8 L 483.9 42.8" id="92,88" /><path d="M 470.0 48.3 L 470.0 49.8 L 474.2 49.8" id="91,87" /><path d="M 475.8 39.4 L 475.8 40.0 L 483.6 40.0" id="89,86" /><path d="M 483.9 42.8 L 483.9 41.6 L 496.9 41.6" id="88,85" /><path d="M 483.9 42.8 L 483.9 44.1 L 485.5 44.1" id="88,84" /><path d="M 474.2 49.8 L 474.2 48.2 L 477.0 48.2" id="87,83" /><path d="M 474.2 49.8 L 474.2 51.3 L 479.2 51.3" id="87,82" /><path d="M 485.5 44.1 L 485.5 43.2 L 497.1 43.2" id="84,81" /><path d="M 485.5 44.1 L 485.5 45.0 L 493.9 45.0" id="84,80" /><path d="M 477.0 48.2 L 477.0 48.8 L 504.6 48.8" id="83,79" /><path d="M 479.2 51.3 L 479.2 52.6 L 480.2 52.6" id="82,78" /><path d="M 493.9 45.0 L 493.9 45.6 L 494.7 45.6" id="80,77" /><path d="M 480.2 52.6 L 480.2 54.5 L 482.0 54.5" id="78,76" /><path d="M 482.0 54.5 L 482.0 57.3 L 482.1 57.3" id="76,75" /><path d="M 482.1 57.3 L 482.1 54.3 L 485.5 54.3" id="75,74" /><path d="M 482.1 57.3 L 482.1 60.3 L 495.0 60.3" id="75,73" /><path d="M 485.5 54.3 L 485.5 53.0 L 491.3 53.0" id="74,72" /><path d="M 485.5 54.3 L 485.5 55.5 L 487.4 55.5" id="74,71" /><path d="M 495.0 60.3 L 495.0 62.7 L 495.8 62.7" id="73,70" /><path d="M 491.3 53.0 L 491.3 53.6 L 494.0 53.6" id="72,69" /><path d="M 487.4 55.5 L 487.4 56.2 L 492.7 56.2" id="71,68" /><path d="M 495.8 62.7 L 495.8 60.0 L 497.2 60.0" id="70,67" /><path d="M 495.8 62.7 L 495.8 65.3 L 500.8 65.3" id="70,66" /><path d="M 492.7 56.2 L 492.7 56.8 L 501.0 56.8" id="68,65" /><path d="M 497.2 60.0 L 497.2 59.2 L 497.6 59.2" id="67,64" /><path d="M 497.2 60.0 L 497.2 60.8 L 498.7 60.8" id="67,63" /><path d="M 500.8 65.3 L 500.8 62.8 L 500.9 62.8" id="66,62" /><path d="M 500.8 65.3 L 500.8 67.9 L 500.9 67.9" id="66,61" /><path d="M 500.9 62.8 L 500.9 63.5 L 500.9 63.5" id="62,60" /><path d="M 500.9 67.9 L 500.9 66.6 L 501.3 66.6" id="61,59" /><path d="M 500.9 67.9 L 500.9 69.1 L 500.9 69.1" id="61,58" /><path d="M 500.9 63.5 L 500.9 64.2 L 501.4 64.2" id="60,57" /><path d="M 501.3 66.6 L 501.3 67.2 L 502.1 67.2" id="59,56" /><path d="M 500.9 69.1 L 500.9 69.8 L 500.9 69.8" id="58,55" /><path d="M 501.4 64.2 L 501.4 64.8 L 506.9 64.8" id="57,54" /><path d="M 500.9 69.8 L 500.9 70.4 L 500.9 70.4" id="55,53" /><path d="M 445.0 31.5 L 445.0 29.2 L 501.8 29.2" id="104,52" /><path d="M 458.1 30.6 L 458.1 30.0 L 504.8 30.0" id="102,51" /><path d="M 467.8 31.2 L 467.8 30.8 L 516.8 30.8" id="100,50" /><path d="M 467.8 31.2 L 467.8 31.6 L 497.3 31.6" id="100,49" /><path d="M 466.4 33.4 L 466.4 32.4 L 490.3 32.4" id="99,48" /><path d="M 479.9 33.6 L 479.9 33.2 L 492.2 33.2" id="94,47" /><path d="M 479.9 33.6 L 479.9 34.0 L 489.2 34.0" id="94,46" /><path d="M 479.0 35.4 L 479.0 34.8 L 504.3 34.8" id="93,45" /><path d="M 486.9 36.0 L 486.9 35.6 L 497.8 35.6" id="90,44" /><path d="M 486.9 36.0 L 486.9 36.4 L 510.7 36.4" id="90,43" /><path d="M 471.8 37.6 L 471.8 37.2 L 490.7 37.2" id="96,42" /><path d="M 471.8 37.6 L 471.8 38.0 L 492.0 38.0" id="96,41" /><path d="M 475.8 39.4 L 475.8 38.8 L 492.1 38.8" id="89,40" /><path d="M 483.6 40.0 L 483.6 39.6 L 510.0 39.6" id="86,39" /><path d="M 483.6 40.0 L 483.6 40.4 L 498.7 40.4" id="86,38" /><path d="M 496.9 41.6 L 496.9 41.2 L 506.8 41.2" id="85,37" /><path d="M 496.9 41.6 L 496.9 42.0 L 498.7 42.0" id="85,36" /><path d="M 497.1 43.2 L 497.1 42.8 L 499.3 42.8" id="81,35" /><path d="M 497.1 43.2 L 497.1 43.6 L 497.1 43.6" id="81,34" /><path d="M 493.9 45.0 L 493.9 44.4 L 494.4 44.4" id="80,33" /><path d="M 494.7 45.6 L 494.7 45.2 L 498.1 45.2" id="77,32" /><path d="M 494.7 45.6 L 494.7 46.0 L 503.6 46.0" id="77,31" /><path d="M 470.0 48.3 L 470.0 46.8 L 516.0 46.8" id="91,30" /><path d="M 477.0 48.2 L 477.0 47.6 L 500.0 47.6" id="83,29" /><path d="M 504.6 48.8 L 504.6 48.4 L 505.0 48.4" id="79,28" /><path d="M 504.6 48.8 L 504.6 49.2 L 504.7 49.2" id="79,27" /><path d="M 479.2 51.3 L 479.2 50.0 L 494.3 50.0" id="82,26" /><path d="M 480.2 52.6 L 480.2 50.8 L 495.4 50.8" id="78,25" /><path d="M 482.0 54.5 L 482.0 51.6 L 494.0 51.6" id="76,24" /><path d="M 491.3 53.0 L 491.3 52.4 L 505.5 52.4" id="72,23" /><path d="M 494.0 53.6 L 494.0 53.2 L 530.3 53.2" id="69,22" /><path d="M 494.0 53.6 L 494.0 54.0 L 505.9 54.0" id="69,21" /><path d="M 487.4 55.5 L 487.4 54.8 L 502.9 54.8" id="71,20" /><path d="M 492.7 56.2 L 492.7 55.6 L 498.5 55.6" id="68,19" /><path d="M 501.0 56.8 L 501.0 56.4 L 515.6 56.4" id="65,18" /><path d="M 501.0 56.8 L 501.0 57.2 L 523.9 57.2" id="65,17" /><path d="M 495.0 60.3 L 495.0 58.0 L 501.6 58.0" id="73,16" /><path d="M 497.6 59.2 L 497.6 58.8 L 502.7 58.8" id="64,15" /><path d="M 497.6 59.2 L 497.6 59.6 L 501.9 59.6" id="64,14" /><path d="M 498.7 60.8 L 498.7 60.4 L 502.2 60.4" id="63,13" /><path d="M 498.7 60.8 L 498.7 61.2 L 502.6 61.2" id="63,12" /><path d="M 500.9 62.8 L 500.9 62.0 L 502.6 62.0" id="62,11" /><path d="M 500.9 63.5 L 500.9 62.8 L 519.7 62.8" id="60,10" /><path d="M 501.4 64.2 L 501.4 63.6 L 506.9 63.6" id="57,9" /><path d="M 506.9 64.8 L 506.9 64.4 L 508.1 64.4" id="54,8" /><path d="M 506.9 64.8 L 506.9 65.2 L 508.9 65.2" id="54,7" /><path d="M 501.3 66.6 L 501.3 66.0 L 503.9 66.0" id="59,6" /><path d="M 502.1 67.2 L 502.1 66.8 L 502.5 66.8" id="56,5" /><path d="M 502.1 67.2 L 502.1 67.6 L 502.1 67.6" id="56,4" /><path d="M 500.9 69.1 L 500.9 68.4 L 500.9 68.4" id="58,3" /><path d="M 500.9 69.8 L 500.9 69.2 L 500.9 69.2" id="55,2" /><path d="M 500.9 70.4 L 500.9 70.0 L 500.9 70.0" id="53,1" /><path d="M 500.9 70.4 L 500.9 70.8 L 500.9 70.8" id="53,0" /></g><g class="toytree-Nodes" style="fill:rgb(100%,0%,0%);fill-opacity:1.0;stroke:None;stroke-width:1"><g id="node-0" transform="translate(500.901,70.833)"><circle r="2.5" /></g><g id="node-1" transform="translate(500.901,70.032)"><circle r="2.5" /></g><g id="node-2" transform="translate(500.901,69.231)"><circle r="2.5" /></g><g id="node-3" transform="translate(500.901,68.429)"><circle r="2.5" /></g><g id="node-4" transform="translate(502.132,67.628)"><circle r="2.5" /></g><g id="node-5" transform="translate(502.460,66.827)"><circle r="2.5" /></g><g id="node-6" transform="translate(503.900,66.026)"><circle r="2.5" /></g><g id="node-7" transform="translate(508.920,65.224)"><circle r="2.5" /></g><g id="node-8" transform="translate(508.086,64.423)"><circle r="2.5" /></g><g id="node-9" transform="translate(506.909,63.622)"><circle r="2.5" /></g><g id="node-10" transform="translate(519.713,62.821)"><circle r="2.5" /></g><g id="node-11" transform="translate(502.644,62.019)"><circle r="2.5" /></g><g id="node-12" transform="translate(502.566,61.218)"><circle r="2.5" /></g><g id="node-13" transform="translate(502.177,60.417)"><circle r="2.5" /></g><g id="node-14" transform="translate(501.908,59.615)"><circle r="2.5" /></g><g id="node-15" transform="translate(502.722,58.814)"><circle r="2.5" /></g><g id="node-16" transform="translate(501.552,58.013)"><circle r="2.5" /></g><g id="node-17" transform="translate(523.872,57.212)"><circle r="2.5" /></g><g id="node-18" transform="translate(515.598,56.410)"><circle r="2.5" /></g><g id="node-19" transform="translate(498.458,55.609)"><circle r="2.5" /></g><g id="node-20" transform="translate(502.858,54.808)"><circle r="2.5" /></g><g id="node-21" transform="translate(505.946,54.006)"><circle r="2.5" /></g><g id="node-22" transform="translate(530.263,53.205)"><circle r="2.5" /></g><g id="node-23" transform="translate(505.499,52.404)"><circle r="2.5" /></g><g id="node-24" transform="translate(494.003,51.603)"><circle r="2.5" /></g><g id="node-25" transform="translate(495.358,50.801)"><circle r="2.5" /></g><g id="node-26" transform="translate(494.275,50.000)"><circle r="2.5" /></g><g id="node-27" transform="translate(504.656,49.199)"><circle r="2.5" /></g><g id="node-28" transform="translate(504.972,48.397)"><circle r="2.5" /></g><g id="node-29" transform="translate(499.968,47.596)"><circle r="2.5" /></g><g id="node-30" transform="translate(516.044,46.795)"><circle r="2.5" /></g><g id="node-31" transform="translate(503.606,45.994)"><circle r="2.5" /></g><g id="node-32" transform="translate(498.129,45.192)"><circle r="2.5" /></g><g id="node-33" transform="translate(494.447,44.391)"><circle r="2.5" /></g><g id="node-34" transform="translate(497.117,43.590)"><circle r="2.5" /></g><g id="node-35" transform="translate(499.251,42.788)"><circle r="2.5" /></g><g id="node-36" transform="translate(498.749,41.987)"><circle r="2.5" /></g><g id="node-37" transform="translate(506.806,41.186)"><circle r="2.5" /></g><g id="node-38" transform="translate(498.699,40.385)"><circle r="2.5" /></g><g id="node-39" transform="translate(509.993,39.583)"><circle r="2.5" /></g><g id="node-40" transform="translate(492.091,38.782)"><circle r="2.5" /></g><g id="node-41" transform="translate(492.012,37.981)"><circle r="2.5" /></g><g id="node-42" transform="translate(490.733,37.179)"><circle r="2.5" /></g><g id="node-43" transform="translate(510.686,36.378)"><circle r="2.5" /></g><g id="node-44" transform="translate(497.789,35.577)"><circle r="2.5" /></g><g id="node-45" transform="translate(504.344,34.776)"><circle r="2.5" /></g><g id="node-46" transform="translate(489.212,33.974)"><circle r="2.5" /></g><g id="node-47" transform="translate(492.218,33.173)"><circle r="2.5" /></g><g id="node-48" transform="translate(490.348,32.372)"><circle r="2.5" /></g><g id="node-49" transform="translate(497.264,31.571)"><circle r="2.5" /></g><g id="node-50" transform="translate(516.765,30.769)"><circle r="2.5" /></g><g id="node-51" transform="translate(504.826,29.968)"><circle r="2.5" /></g><g id="node-52" transform="translate(501.767,29.167)"><circle r="2.5" /></g><g id="node-53" transform="translate(500.901,70.433)"><circle r="0.0" /></g><g id="node-54" transform="translate(506.917,64.824)"><circle r="0.0" /></g><g id="node-55" transform="translate(500.901,69.832)"><circle r="0.0" /></g><g id="node-56" transform="translate(502.091,67.228)"><circle r="0.0" /></g><g id="node-57" transform="translate(501.403,64.223)"><circle r="0.0" /></g><g id="node-58" transform="translate(500.901,69.131)"><circle r="0.0" /></g><g id="node-59" transform="translate(501.349,66.627)"><circle r="0.0" /></g><g id="node-60" transform="translate(500.911,63.522)"><circle r="0.0" /></g><g id="node-61" transform="translate(500.860,67.879)"><circle r="0.0" /></g><g id="node-62" transform="translate(500.859,62.770)"><circle r="0.0" /></g><g id="node-63" transform="translate(498.726,60.817)"><circle r="0.0" /></g><g id="node-64" transform="translate(497.644,59.215)"><circle r="0.0" /></g><g id="node-65" transform="translate(501.018,56.811)"><circle r="0.0" /></g><g id="node-66" transform="translate(500.819,65.325)"><circle r="0.0" /></g><g id="node-67" transform="translate(497.197,60.016)"><circle r="0.0" /></g><g id="node-68" transform="translate(492.663,56.210)"><circle r="0.0" /></g><g id="node-69" transform="translate(493.968,53.606)"><circle r="0.0" /></g><g id="node-70" transform="translate(495.823,62.670)"><circle r="0.0" /></g><g id="node-71" transform="translate(487.368,55.509)"><circle r="0.0" /></g><g id="node-72" transform="translate(491.342,53.005)"><circle r="0.0" /></g><g id="node-73" transform="translate(494.993,60.342)"><circle r="0.0" /></g><g id="node-74" transform="translate(485.538,54.257)"><circle r="0.0" /></g><g id="node-75" transform="translate(482.086,57.299)"><circle r="0.0" /></g><g id="node-76" transform="translate(482.045,54.451)"><circle r="0.0" /></g><g id="node-77" transform="translate(494.681,45.593)"><circle r="0.0" /></g><g id="node-78" transform="translate(480.175,52.626)"><circle r="0.0" /></g><g id="node-79" transform="translate(504.615,48.798)"><circle r="0.0" /></g><g id="node-80" transform="translate(493.858,44.992)"><circle r="0.0" /></g><g id="node-81" transform="translate(497.076,43.189)"><circle r="0.0" /></g><g id="node-82" transform="translate(479.173,51.313)"><circle r="0.0" /></g><g id="node-83" transform="translate(476.995,48.197)"><circle r="0.0" /></g><g id="node-84" transform="translate(485.481,44.091)"><circle r="0.0" /></g><g id="node-85" transform="translate(496.857,41.587)"><circle r="0.0" /></g><g id="node-86" transform="translate(483.558,39.984)"><circle r="0.0" /></g><g id="node-87" transform="translate(474.159,49.755)"><circle r="0.0" /></g><g id="node-88" transform="translate(483.893,42.839)"><circle r="0.0" /></g><g id="node-89" transform="translate(475.778,39.383)"><circle r="0.0" /></g><g id="node-90" transform="translate(486.925,35.978)"><circle r="0.0" /></g><g id="node-91" transform="translate(469.972,48.275)"><circle r="0.0" /></g><g id="node-92" transform="translate(472.922,41.111)"><circle r="0.0" /></g><g id="node-93" transform="translate(478.996,35.377)"><circle r="0.0" /></g><g id="node-94" transform="translate(479.885,33.574)"><circle r="0.0" /></g><g id="node-95" transform="translate(467.415,44.693)"><circle r="0.0" /></g><g id="node-96" transform="translate(471.754,37.580)"><circle r="0.0" /></g><g id="node-97" transform="translate(467.813,34.475)"><circle r="0.0" /></g><g id="node-98" transform="translate(464.967,41.137)"><circle r="0.0" /></g><g id="node-99" transform="translate(466.364,33.423)"><circle r="0.0" /></g><g id="node-100" transform="translate(467.779,31.170)"><circle r="0.0" /></g><g id="node-101" transform="translate(462.364,37.280)"><circle r="0.0" /></g><g id="node-102" transform="translate(458.129,30.569)"><circle r="0.0" /></g><g id="node-103" transform="translate(455.140,33.924)"><circle r="0.0" /></g><g id="node-104" transform="translate(445.000,31.546)"><circle r="0.0" /></g></g></g></g></g></svg>