<svg class="toyplot-canvas-Canvas" xmlns:toyplot="http://www.sandia.gov/toyplot" xmlns:xlink="http://www.w3.org/1999/xlink" xmlns="http://www.w3.org/2000/svg" width="560.0px" height="100.0px" viewBox="0 0 560.0 100.0" preserveAspectRatio="xMidYMid meet" style="background-color:transparent;border-color:#292724;border-style:none;border-width:1.0;fill:rgb(16.1%,15.3%,14.1%);fill-opacity:1.0;font-family:Helvetica;font-size:12px;opacity:1.0;stroke:rgb(16.1%,15.3%,14.1%);stroke-opacity:1.0;stroke-width:1.0" id="t25968ffebd2543708c0007151c37b175"><g class="toyplot-coordinates-Cartesian" id="t7bb054bd3537474886641e6a530c3fcc"><clipPath id="t3f119f4c114c4001b537b58bf388af07"><rect x="15.0" y="15.0" width="110.0" height="70.0" /></clipPath><g clip-path="url(#t3f119f4c114c4001b537b58bf388af07)"><g class="toytree-mark-Toytree" id="td697c9f2b2174143b570a62ad7b3a90b"><g class="toytree-Edges" style="fill:none;stroke:rgb(14.9%,14.9%,14.9%);stroke-linecap:round;stroke-opacity:1;stroke-width:0.5"><path d="M 25.0 36.0 L 25.0 30.9 L 25.7 30.9" id="24,23" /><path d="M 25.0 36.0 L 25.0 41.0 L 28.7 41.0" id="24,22" /><path d="M 28.7 41.0 L 28.7 46.0 L 36.0 46.0" id="22,21" /><path d="M 36.0 46.0 L 36.0 41.3 L 41.9 41.3" id="21,20" /><path d="M 36.0 46.0 L 36.0 50.6 L 41.3 50.6" id="21,19" /><path d="M 41.3 50.6 L 41.3 54.7 L 58.2 54.7" id="19,18" /><path d="M 58.2 54.7 L 58.2 59.3 L 73.4 59.3" id="18,17" /><path d="M 73.4 59.3 L 73.4 55.2 L 94.7 55.2" id="17,16" /><path d="M 73.4 59.3 L 73.4 63.5 L 82.8 63.5" id="17,15" /><path d="M 82.8 63.5 L 82.8 66.5 L 104.2 66.5" id="15,14" /><path d="M 104.2 66.5 L 104.2 69.1 L 104.6 69.1" id="14,13" /><path d="M 25.7 30.9 L 25.7 29.2 L 106.5 29.2" id="23,12" /><path d="M 25.7 30.9 L 25.7 32.6 L 106.1 32.6" id="23,11" /><path d="M 28.7 41.0 L 28.7 36.1 L 106.9 36.1" id="22,10" /><path d="M 41.9 41.3 L 41.9 39.6 L 99.2 39.6" id="20,9" /><path d="M 41.9 41.3 L 41.9 43.1 L 109.9 43.1" id="20,8" /><path d="M 41.3 50.6 L 41.3 46.5 L 100.3 46.5" id="19,7" /><path d="M 58.2 54.7 L 58.2 50.0 L 109.0 50.0" id="18,6" /><path d="M 94.7 55.2 L 94.7 53.5 L 110.3 53.5" id="16,5" /><path d="M 94.7 55.2 L 94.7 56.9 L 109.9 56.9" id="16,4" /><path d="M 82.8 63.5 L 82.8 60.4 L 107.1 60.4" id="15,3" /><path d="M 104.2 66.5 L 104.2 63.9 L 106.3 63.9" id="14,2" /><path d="M 104.6 69.1 L 104.6 67.4 L 105.9 67.4" id="13,1" /><path d="M 104.6 69.1 L 104.6 70.8 L 106.1 70.8" id="13,0" /></g><g class="toytree-Nodes" style="fill:rgb(100%,0%,0%);fill-opacity:1.0;stroke:None;stroke-width:1"><g id="node-0" transform="translate(106.057,70.833)"><circle r="2.5" /></g><g id="node-1" transform="translate(105.882,67.361)"><circle r="2.5" /></g><g id="node-2" transform="translate(106.281,63.889)"><circle r="2.5" /></g><g id="node-3" transform="translate(107.103,60.417)"><circle r="2.5" /></g><g id="node-4" transform="translate(109.900,56.944)"><circle r="2.5" /></g><g id="node-5" transform="translate(110.263,53.472)"><circle r="2.5" /></g><g id="node-6" transform="translate(108.993,50.000)"><circle r="2.5" /></g><g id="node-7" transform="translate(100.294,46.528)"><circle r="2.5" /></g><g id="node-8" transform="translate(109.863,43.056)"><circle r="2.5" /></g><g id="node-9" transform="translate(99.193,39.583)"><circle r="2.5" /></g><g id="node-10" transform="translate(106.936,36.111)"><circle r="2.5" /></g><g id="node-11" transform="translate(106.058,32.639)"><circle r="2.5" /></g><g id="node-12" transform="translate(106.495,29.167)"><circle r="2.5" /></g><g id="node-13" transform="translate(104.579,69.097)"><circle r="0.0" /></g><g id="node-14" transform="translate(104.201,66.493)"><circle r="0.0" /></g><g id="node-15" transform="translate(82.798,63.455)"><circle r="0.0" /></g><g id="node-16" transform="translate(94.738,55.208)"><circle r="0.0" /></g><g id="node-17" transform="translate(73.412,59.332)"><circle r="0.0" /></g><g id="node-18" transform="translate(58.198,54.666)"><circle r="0.0" /></g><g id="node-19" transform="translate(41.322,50.597)"><circle r="0.0" /></g><g id="node-20" transform="translate(41.927,41.319)"><circle r="0.0" /></g><g id="node-21" transform="translate(36.036,45.958)"><circle r="0.0" /></g><g id="node-22" transform="translate(28.722,41.035)"><circle r="0.0" /></g><g id="node-23" transform="translate(25.713,30.903)"><circle r="0.0" /></g><g id="node-24" transform="translate(25.000,35.969)"><circle r="0.0" /></g></g></g></g></g><g class="toyplot-coordinates-Cartesian" id="t36f3db162679473592f4956d921e1fd4"><clipPath id="t684bef7bc74041d08ac338f692d4cbe1"><rect x="155.0" y="15.0" width="110.0" height="70.0" /></clipPath><g clip-path="url(#t684bef7bc74041d08ac338f692d4cbe1)"><g class="toytree-mark-Toytree" id="t1e0ecc3a8f35443fbc55f9d9a6d2b4cc"><g class="toytree-Edges" style="fill:none;stroke:rgb(14.9%,14.9%,14.9%);stroke-linecap:round;stroke-opacity:1;stroke-width:0.5"><path d="M 165.0 38.2 L 165.0 30.9 L 166.7 30.9" id="24,23" /><path d="M 165.0 38.2 L 165.0 45.5 L 165.8 45.5" id="24,22" /><path d="M 165.8 45.5 L 165.8 37.8 L 175.8 37.8" id="22,21" /><path d="M 165.8 45.5 L 165.8 53.1 L 167.7 53.1" id="22,20" /><path d="M 167.7 53.1 L 167.7 46.1 L 169.3 46.1" id="20,19" /><path d="M 167.7 53.1 L 167.7 60.2 L 168.5 60.2" id="20,18" /><path d="M 169.3 46.1 L 169.3 49.1 L 175.5 49.1" id="19,17" /><path d="M 168.5 60.2 L 168.5 63.5 L 170.7 63.5" id="18,16" /><path d="M 175.5 49.1 L 175.5 51.7 L 181.3 51.7" id="17,15" /><path d="M 170.7 63.5 L 170.7 66.5 L 182.2 66.5" id="16,14" /><path d="M 182.2 66.5 L 182.2 69.1 L 192.8 69.1" id="14,13" /><path d="M 166.7 30.9 L 166.7 29.2 L 243.0 29.2" id="23,12" /><path d="M 166.7 30.9 L 166.7 32.6 L 235.6 32.6" id="23,11" /><path d="M 175.8 37.8 L 175.8 36.1 L 231.4 36.1" id="21,10" /><path d="M 175.8 37.8 L 175.8 39.6 L 250.3 39.6" id="21,9" /><path d="M 169.3 46.1 L 169.3 43.1 L 233.0 43.1" id="19,8" /><path d="M 175.5 49.1 L 175.5 46.5 L 244.4 46.5" id="17,7" /><path d="M 181.3 51.7 L 181.3 50.0 L 239.9 50.0" id="15,6" /><path d="M 181.3 51.7 L 181.3 53.5 L 238.5 53.5" id="15,5" /><path d="M 168.5 60.2 L 168.5 56.9 L 238.4 56.9" id="18,4" /><path d="M 170.7 63.5 L 170.7 60.4 L 236.9 60.4" id="16,3" /><path d="M 182.2 66.5 L 182.2 63.9 L 238.8 63.9" id="14,2" /><path d="M 192.8 69.1 L 192.8 67.4 L 241.7 67.4" id="13,1" /><path d="M 192.8 69.1 L 192.8 70.8 L 240.4 70.8" id="13,0" /></g><g class="toytree-Nodes" style="fill:rgb(100%,0%,0%);fill-opacity:1.0;stroke:None;stroke-width:1"><g id="node-0" transform="translate(240.381,70.833)"><circle r="2.5" /></g><g id="node-1" transform="translate(241.745,67.361)"><circle r="2.5" /></g><g id="node-2" transform="translate(238.752,63.889)"><circle r="2.5" /></g><g id="node-3" transform="translate(236.867,60.417)"><circle r="2.5" /></g><g id="node-4" transform="translate(238.377,56.944)"><circle r="2.5" /></g><g id="node-5" transform="translate(238.544,53.472)"><circle r="2.5" /></g><g id="node-6" transform="translate(239.928,50.000)"><circle r="2.5" /></g><g id="node-7" transform="translate(244.412,46.528)"><circle r="2.5" /></g><g id="node-8" transform="translate(232.970,43.056)"><circle r="2.5" /></g><g id="node-9" transform="translate(250.263,39.583)"><circle r="2.5" /></g><g id="node-10" transform="translate(231.431,36.111)"><circle r="2.5" /></g><g id="node-11" transform="translate(235.554,32.639)"><circle r="2.5" /></g><g id="node-12" transform="translate(243.040,29.167)"><circle r="2.5" /></g><g id="node-13" transform="translate(192.845,69.097)"><circle r="0.0" /></g><g id="node-14" transform="translate(182.184,66.493)"><circle r="0.0" /></g><g id="node-15" transform="translate(181.317,51.736)"><circle r="0.0" /></g><g id="node-16" transform="translate(170.736,63.455)"><circle r="0.0" /></g><g id="node-17" transform="translate(175.475,49.132)"><circle r="0.0" /></g><g id="node-18" transform="translate(168.496,60.200)"><circle r="0.0" /></g><g id="node-19" transform="translate(169.308,46.094)"><circle r="0.0" /></g><g id="node-20" transform="translate(167.722,53.147)"><circle r="0.0" /></g><g id="node-21" transform="translate(175.846,37.847)"><circle r="0.0" /></g><g id="node-22" transform="translate(165.768,45.497)"><circle r="0.0" /></g><g id="node-23" transform="translate(166.736,30.903)"><circle r="0.0" /></g><g id="node-24" transform="translate(165.000,38.200)"><circle r="0.0" /></g></g></g></g></g><g class="toyplot-coordinates-Cartesian" id="t8d7c226c30514d63afc4c5c18e78145a"><clipPath id="tbf7bc0a5e1ad46c99d4d77ad2f33ac0b"><rect x="295.0" y="15.0" width="110.0" height="70.0" /></clipPath><g clip-path="url(#tbf7bc0a5e1ad46c99d4d77ad2f33ac0b)"><g class="toytree-mark-Toytree" id="t46c1ecf7a25a4711a240fe16abf7111a"><g class="toytree-Edges" style="fill:none;stroke:rgb(14.9%,14.9%,14.9%);stroke-linecap:round;stroke-opacity:1;stroke-width:0.5"><path d="M 305.0 35.9 L 305.0 42.7 L 310.4 42.7" id="24,23" /><path d="M 310.4 42.7 L 310.4 35.2 L 314.4 35.2" id="23,22" /><path d="M 310.4 42.7 L 310.4 50.2 L 314.4 50.2" id="23,21" /><path d="M 314.4 35.2 L 314.4 37.8 L 316.7 37.8" id="22,20" /><path d="M 314.4 50.2 L 314.4 44.8 L 329.1 44.8" id="21,19" /><path d="M 314.4 50.2 L 314.4 55.6 L 318.8 55.6" id="21,18" /><path d="M 318.8 55.6 L 318.8 61.3 L 320.5 61.3" id="18,17" /><path d="M 320.5 61.3 L 320.5 56.1 L 323.7 56.1" id="17,16" /><path d="M 320.5 61.3 L 320.5 66.5 L 329.3 66.5" id="17,15" /><path d="M 323.7 56.1 L 323.7 58.7 L 328.2 58.7" id="16,14" /><path d="M 329.3 66.5 L 329.3 69.1 L 338.3 69.1" id="15,13" /><path d="M 305.0 35.9 L 305.0 29.2 L 349.4 29.2" id="24,12" /><path d="M 314.4 35.2 L 314.4 32.6 L 349.5 32.6" id="22,11" /><path d="M 316.7 37.8 L 316.7 36.1 L 347.1 36.1" id="20,10" /><path d="M 316.7 37.8 L 316.7 39.6 L 344.7 39.6" id="20,9" /><path d="M 329.1 44.8 L 329.1 43.1 L 347.6 43.1" id="19,8" /><path d="M 329.1 44.8 L 329.1 46.5 L 390.3 46.5" id="19,7" /><path d="M 318.8 55.6 L 318.8 50.0 L 349.9 50.0" id="18,6" /><path d="M 323.7 56.1 L 323.7 53.5 L 356.9 53.5" id="16,5" /><path d="M 328.2 58.7 L 328.2 56.9 L 341.0 56.9" id="14,4" /><path d="M 328.2 58.7 L 328.2 60.4 L 343.7 60.4" id="14,3" /><path d="M 329.3 66.5 L 329.3 63.9 L 349.2 63.9" id="15,2" /><path d="M 338.3 69.1 L 338.3 67.4 L 349.3 67.4" id="13,1" /><path d="M 338.3 69.1 L 338.3 70.8 L 349.7 70.8" id="13,0" /></g><g class="toytree-Nodes" style="fill:rgb(100%,0%,0%);fill-opacity:1.0;stroke:None;stroke-width:1"><g id="node-0" transform="translate(349.738,70.833)"><circle r="2.5" /></g><g id="node-1" transform="translate(349.334,67.361)"><circle r="2.5" /></g><g id="node-2" transform="translate(349.200,63.889)"><circle r="2.5" /></g><g id="node-3" transform="translate(343.724,60.417)"><circle r="2.5" /></g><g id="node-4" transform="translate(340.994,56.944)"><circle r="2.5" /></g><g id="node-5" transform="translate(356.910,53.472)"><circle r="2.5" /></g><g id="node-6" transform="translate(349.862,50.000)"><circle r="2.5" /></g><g id="node-7" transform="translate(390.263,46.528)"><circle r="2.5" /></g><g id="node-8" transform="translate(347.571,43.056)"><circle r="2.5" /></g><g id="node-9" transform="translate(344.675,39.583)"><circle r="2.5" /></g><g id="node-10" transform="translate(347.116,36.111)"><circle r="2.5" /></g><g id="node-11" transform="translate(349.464,32.639)"><circle r="2.5" /></g><g id="node-12" transform="translate(349.385,29.167)"><circle r="2.5" /></g><g id="node-13" transform="translate(338.341,69.097)"><circle r="0.0" /></g><g id="node-14" transform="translate(328.242,58.681)"><circle r="0.0" /></g><g id="node-15" transform="translate(329.266,66.493)"><circle r="0.0" /></g><g id="node-16" transform="translate(323.702,56.076)"><circle r="0.0" /></g><g id="node-17" transform="translate(320.459,61.285)"><circle r="0.0" /></g><g id="node-18" transform="translate(318.836,55.642)"><circle r="0.0" /></g><g id="node-19" transform="translate(329.100,44.792)"><circle r="0.0" /></g><g id="node-20" transform="translate(316.679,37.847)"><circle r="0.0" /></g><g id="node-21" transform="translate(314.394,50.217)"><circle r="0.0" /></g><g id="node-22" transform="translate(314.430,35.243)"><circle r="0.0" /></g><g id="node-23" transform="translate(310.433,42.730)"><circle r="0.0" /></g><g id="node-24" transform="translate(305.000,35.948)"><circle r="0.0" /></g></g></g></g></g><g class="toyplot-coordinates-Cartesian" id="tc580f909d759479096f46f90d8fb49a2"><clipPath id="t3de92a6a2ce0483c9a0f17ec5352d7e3"><rect x="435.0" y="15.0" width="110.0" height="70.0" /></clipPath><g clip-path="url(#t3de92a6a2ce0483c9a0f17ec5352d7e3)"><g class="toytree-mark-Toytree" id="tf5dba2a2f70c4a929c5bb96572037cf0"><g class="toytree-Edges" style="fill:none;stroke:rgb(14.9%,14.9%,14.9%);stroke-linecap:round;stroke-opacity:1;stroke-width:0.5"><path d="M 445.0 33.0 L 445.0 36.8 L 452.0 36.8" id="24,23" /><path d="M 452.0 36.8 L 452.0 41.0 L 453.8 41.0" id="23,22" /><path d="M 453.8 41.0 L 453.8 45.8 L 466.7 45.8" id="22,21" /><path d="M 466.7 45.8 L 466.7 41.3 L 479.1 41.3" id="21,20" /><path d="M 466.7 45.8 L 466.7 50.3 L 476.7 50.3" id="21,19" /><path d="M 476.7 50.3 L 476.7 54.0 L 497.4 54.0" id="19,18" /><path d="M 497.4 54.0 L 497.4 58.0 L 510.4 58.0" id="18,17" /><path d="M 510.4 58.0 L 510.4 62.6 L 512.5 62.6" id="17,16" /><path d="M 512.5 62.6 L 512.5 58.7 L 525.8 58.7" id="16,15" /><path d="M 512.5 62.6 L 512.5 66.5 L 517.7 66.5" id="16,14" /><path d="M 517.7 66.5 L 517.7 69.1 L 517.9 69.1" id="14,13" /><path d="M 445.0 33.0 L 445.0 29.2 L 513.4 29.2" id="24,12" /><path d="M 452.0 36.8 L 452.0 32.6 L 494.7 32.6" id="23,11" /><path d="M 453.8 41.0 L 453.8 36.1 L 515.2 36.1" id="22,10" /><path d="M 479.1 41.3 L 479.1 39.6 L 522.8 39.6" id="20,9" /><path d="M 479.1 41.3 L 479.1 43.1 L 497.2 43.1" id="20,8" /><path d="M 476.7 50.3 L 476.7 46.5 L 502.6 46.5" id="19,7" /><path d="M 497.4 54.0 L 497.4 50.0 L 518.2 50.0" id="18,6" /><path d="M 510.4 58.0 L 510.4 53.5 L 517.4 53.5" id="17,5" /><path d="M 525.8 58.7 L 525.8 56.9 L 530.3 56.9" id="15,4" /><path d="M 525.8 58.7 L 525.8 60.4 L 529.8 60.4" id="15,3" /><path d="M 517.7 66.5 L 517.7 63.9 L 517.9 63.9" id="14,2" /><path d="M 517.9 69.1 L 517.9 67.4 L 518.5 67.4" id="13,1" /><path d="M 517.9 69.1 L 517.9 70.8 L 518.3 70.8" id="13,0" /></g><g class="toytree-Nodes" style="fill:rgb(100%,0%,0%);fill-opacity:1.0;stroke:None;stroke-width:1"><g id="node-0" transform="translate(518.300,70.833)"><circle r="2.5" /></g><g id="node-1" transform="translate(518.546,67.361)"><circle r="2.5" /></g><g id="node-2" transform="translate(517.890,63.889)"><circle r="2.5" /></g><g id="node-3" transform="translate(529.774,60.417)"><circle r="2.5" /></g><g id="node-4" transform="translate(530.263,56.944)"><circle r="2.5" /></g><g id="node-5" transform="translate(517.366,53.472)"><circle r="2.5" /></g><g id="node-6" transform="translate(518.210,50.000)"><circle r="2.5" /></g><g id="node-7" transform="translate(502.571,46.528)"><circle r="2.5" /></g><g id="node-8" transform="translate(497.186,43.056)"><circle r="2.5" /></g><g id="node-9" transform="translate(522.787,39.583)"><circle r="2.5" /></g><g id="node-10" transform="translate(515.153,36.111)"><circle r="2.5" /></g><g id="node-11" transform="translate(494.719,32.639)"><circle r="2.5" /></g><g id="node-12" transform="translate(513.353,29.167)"><circle r="2.5" /></g><g id="node-13" transform="translate(517.872,69.097)"><circle r="0.0" /></g><g id="node-14" transform="translate(517.729,66.493)"><circle r="0.0" /></g><g id="node-15" transform="translate(525.839,58.681)"><circle r="0.0" /></g><g id="node-16" transform="translate(512.546,62.587)"><circle r="0.0" /></g><g id="node-17" transform="translate(510.380,58.030)"><circle r="0.0" /></g><g id="node-18" transform="translate(497.434,54.015)"><circle r="0.0" /></g><g id="node-19" transform="translate(476.730,50.271)"><circle r="0.0" /></g><g id="node-20" transform="translate(479.143,41.319)"><circle r="0.0" /></g><g id="node-21" transform="translate(466.737,45.795)"><circle r="0.0" /></g><g id="node-22" transform="translate(453.833,40.953)"><circle r="0.0" /></g><g id="node-23" transform="translate(452.013,36.796)"><circle r="0.0" /></g><g id="node-24" transform="translate(445.000,32.981)"><circle r="0.0" /></g></g></g></g></g></svg>