<svg class="toyplot-canvas-Canvas" xmlns:toyplot="http://www.sandia.gov/toyplot" xmlns:xlink="http://www.w3.org/1999/xlink" xmlns="http://www.w3.org/2000/svg" width="560.0px" height="100.0px" viewBox="0 0 560.0 100.0" preserveAspectRatio="xMidYMid meet" style="background-color:transparent;border-color:#292724;border-style:none;border-width:1.0;fill:rgb(16.1%,15.3%,14.1%);fill-opacity:1.0;font-family:Helvetica;font-size:12px;opacity:1.0;stroke:rgb(16.1%,15.3%,14.1%);stroke-opacity:1.0;stroke-width:1.0" id="tc0c59046c4134a8289aa72c2380aa1d7"><g class="toyplot-coordinates-Cartesian" id="tfcc1951c095c48e7b6d944a77bd7d55c"><clipPath id="tdd9acbc2e02942de92b85120b3612e79"><rect x="15.0" y="15.0" width="110.0" height="70.0" /></clipPath><g clip-path="url(#tdd9acbc2e02942de92b85120b3612e79)"><g class="toytree-mark-Toytree" id="t3665b22c3d8b42c793d9cced8bd8cd10"><g class="toytree-Edges" style="fill:none;stroke:rgb(14.9%,14.9%,14.9%);stroke-linecap:round;stroke-opacity:1;stroke-width:0.5"><path d="M 25.0 32.6 L 25.0 36.1 L 35.6 36.1" id="28,27" /><path d="M 35.6 36.1 L 35.6 40.0 L 40.7 40.0" id="27,26" /><path d="M 40.7 40.0 L 40.7 45.0 L 41.5 45.0" id="26,25" /><path d="M 41.5 45.0 L 41.5 39.6 L 45.5 39.6" id="25,24" /><path d="M 41.5 45.0 L 41.5 50.3 L 47.7 50.3" id="25,23" /><path d="M 47.7 50.3 L 47.7 45.5 L 50.4 45.5" id="23,22" /><path d="M 47.7 50.3 L 47.7 55.2 L 54.4 55.2" id="23,21" /><path d="M 54.4 55.2 L 54.4 51.5 L 76.2 51.5" id="21,20" /><path d="M 54.4 55.2 L 54.4 58.8 L 57.0 58.8" id="21,19" /><path d="M 57.0 58.8 L 57.0 61.7 L 74.6 61.7" id="19,18" /><path d="M 74.6 61.7 L 74.6 64.5 L 88.2 64.5" id="18,17" /><path d="M 88.2 64.5 L 88.2 67.1 L 88.9 67.1" id="17,16" /><path d="M 88.9 67.1 L 88.9 69.3 L 89.7 69.3" id="16,15" /><path d="M 25.0 32.6 L 25.0 29.2 L 94.8 29.2" id="28,14" /><path d="M 35.6 36.1 L 35.6 32.1 L 110.3 32.1" id="27,13" /><path d="M 40.7 40.0 L 40.7 35.1 L 94.6 35.1" id="26,12" /><path d="M 45.5 39.6 L 45.5 38.1 L 100.1 38.1" id="24,11" /><path d="M 45.5 39.6 L 45.5 41.1 L 100.3 41.1" id="24,10" /><path d="M 50.4 45.5 L 50.4 44.0 L 92.1 44.0" id="22,9" /><path d="M 50.4 45.5 L 50.4 47.0 L 104.6 47.0" id="22,8" /><path d="M 76.2 51.5 L 76.2 50.0 L 91.5 50.0" id="20,7" /><path d="M 76.2 51.5 L 76.2 53.0 L 92.1 53.0" id="20,6" /><path d="M 57.0 58.8 L 57.0 56.0 L 92.5 56.0" id="19,5" /><path d="M 74.6 61.7 L 74.6 58.9 L 93.0 58.9" id="18,4" /><path d="M 88.2 64.5 L 88.2 61.9 L 90.6 61.9" id="17,3" /><path d="M 88.9 67.1 L 88.9 64.9 L 89.9 64.9" id="16,2" /><path d="M 89.7 69.3 L 89.7 67.9 L 90.5 67.9" id="15,1" /><path d="M 89.7 69.3 L 89.7 70.8 L 92.0 70.8" id="15,0" /></g><g class="toytree-Nodes" style="fill:rgb(100%,0%,0%);fill-opacity:1.0;stroke:None;stroke-width:1"><g id="node-0" transform="translate(92.010,70.833)"><circle r="2.5" /></g><g id="node-1" transform="translate(90.520,67.857)"><circle r="2.5" /></g><g id="node-2" transform="translate(89.949,64.881)"><circle r="2.5" /></g><g id="node-3" transform="translate(90.600,61.905)"><circle r="2.5" /></g><g id="node-4" transform="translate(93.032,58.929)"><circle r="2.5" /></g><g id="node-5" transform="translate(92.518,55.952)"><circle r="2.5" /></g><g id="node-6" transform="translate(92.078,52.976)"><circle r="2.5" /></g><g id="node-7" transform="translate(91.532,50.000)"><circle r="2.5" /></g><g id="node-8" transform="translate(104.556,47.024)"><circle r="2.5" /></g><g id="node-9" transform="translate(92.077,44.048)"><circle r="2.5" /></g><g id="node-10" transform="translate(100.317,41.071)"><circle r="2.5" /></g><g id="node-11" transform="translate(100.070,38.095)"><circle r="2.5" /></g><g id="node-12" transform="translate(94.577,35.119)"><circle r="2.5" /></g><g id="node-13" transform="translate(110.263,32.143)"><circle r="2.5" /></g><g id="node-14" transform="translate(94.832,29.167)"><circle r="2.5" /></g><g id="node-15" transform="translate(89.748,69.345)"><circle r="0.0" /></g><g id="node-16" transform="translate(88.853,67.113)"><circle r="0.0" /></g><g id="node-17" transform="translate(88.233,64.509)"><circle r="0.0" /></g><g id="node-18" transform="translate(74.635,61.719)"><circle r="0.0" /></g><g id="node-19" transform="translate(57.006,58.836)"><circle r="0.0" /></g><g id="node-20" transform="translate(76.163,51.488)"><circle r="0.0" /></g><g id="node-21" transform="translate(54.365,55.162)"><circle r="0.0" /></g><g id="node-22" transform="translate(50.442,45.536)"><circle r="0.0" /></g><g id="node-23" transform="translate(47.687,50.349)"><circle r="0.0" /></g><g id="node-24" transform="translate(45.493,39.583)"><circle r="0.0" /></g><g id="node-25" transform="translate(41.489,44.966)"><circle r="0.0" /></g><g id="node-26" transform="translate(40.670,40.043)"><circle r="0.0" /></g><g id="node-27" transform="translate(35.564,36.093)"><circle r="0.0" /></g><g id="node-28" transform="translate(25.000,32.630)"><circle r="0.0" /></g></g></g></g></g><g class="toyplot-coordinates-Cartesian" id="t0b3f91f7e0f547f4a3ffa0f2bc5c6b80"><clipPath id="t9d32514d88ab4645bb741e9ed2da145f"><rect x="155.0" y="15.0" width="110.0" height="70.0" /></clipPath><g clip-path="url(#t9d32514d88ab4645bb741e9ed2da145f)"><g class="toytree-mark-Toytree" id="tbf3061380b4445d89f80d777641c2bae"><g class="toytree-Edges" style="fill:none;stroke:rgb(14.9%,14.9%,14.9%);stroke-linecap:round;stroke-opacity:1;stroke-width:0.5"><path d="M 165.0 35.7 L 165.0 42.3 L 170.2 42.3" id="28,27" /><path d="M 170.2 42.3 L 170.2 34.7 L 172.7 34.7" id="27,26" /><path d="M 170.2 42.3 L 170.2 49.9 L 172.9 49.9" id="27,25" /><path d="M 172.7 34.7 L 172.7 37.4 L 183.1 37.4" id="26,24" /><path d="M 172.9 49.9 L 172.9 55.7 L 176.6 55.7" id="25,23" /><path d="M 183.1 37.4 L 183.1 39.6 L 188.7 39.6" id="24,22" /><path d="M 176.6 55.7 L 176.6 49.6 L 180.6 49.6" id="23,21" /><path d="M 176.6 55.7 L 176.6 61.7 L 180.1 61.7" id="23,20" /><path d="M 180.6 49.6 L 180.6 52.2 L 186.4 52.2" id="21,19" /><path d="M 180.1 61.7 L 180.1 64.5 L 187.9 64.5" id="20,18" /><path d="M 186.4 52.2 L 186.4 54.5 L 188.4 54.5" id="19,17" /><path d="M 187.9 64.5 L 187.9 67.1 L 202.5 67.1" id="18,16" /><path d="M 202.5 67.1 L 202.5 69.3 L 208.1 69.3" id="16,15" /><path d="M 165.0 35.7 L 165.0 29.2 L 230.4 29.2" id="28,14" /><path d="M 172.7 34.7 L 172.7 32.1 L 239.0 32.1" id="26,13" /><path d="M 183.1 37.4 L 183.1 35.1 L 222.9 35.1" id="24,12" /><path d="M 188.7 39.6 L 188.7 38.1 L 238.1 38.1" id="22,11" /><path d="M 188.7 39.6 L 188.7 41.1 L 226.0 41.1" id="22,10" /><path d="M 172.9 49.9 L 172.9 44.0 L 250.1 44.0" id="25,9" /><path d="M 180.6 49.6 L 180.6 47.0 L 250.3 47.0" id="21,8" /><path d="M 186.4 52.2 L 186.4 50.0 L 237.2 50.0" id="19,7" /><path d="M 188.4 54.5 L 188.4 53.0 L 226.9 53.0" id="17,6" /><path d="M 188.4 54.5 L 188.4 56.0 L 225.9 56.0" id="17,5" /><path d="M 180.1 61.7 L 180.1 58.9 L 231.8 58.9" id="20,4" /><path d="M 187.9 64.5 L 187.9 61.9 L 224.2 61.9" id="18,3" /><path d="M 202.5 67.1 L 202.5 64.9 L 223.9 64.9" id="16,2" /><path d="M 208.1 69.3 L 208.1 67.9 L 222.8 67.9" id="15,1" /><path d="M 208.1 69.3 L 208.1 70.8 L 223.5 70.8" id="15,0" /></g><g class="toytree-Nodes" style="fill:rgb(100%,0%,0%);fill-opacity:1.0;stroke:None;stroke-width:1"><g id="node-0" transform="translate(223.474,70.833)"><circle r="2.5" /></g><g id="node-1" transform="translate(222.771,67.857)"><circle r="2.5" /></g><g id="node-2" transform="translate(223.887,64.881)"><circle r="2.5" /></g><g id="node-3" transform="translate(224.234,61.905)"><circle r="2.5" /></g><g id="node-4" transform="translate(231.773,58.929)"><circle r="2.5" /></g><g id="node-5" transform="translate(225.896,55.952)"><circle r="2.5" /></g><g id="node-6" transform="translate(226.922,52.976)"><circle r="2.5" /></g><g id="node-7" transform="translate(237.174,50.000)"><circle r="2.5" /></g><g id="node-8" transform="translate(250.263,47.024)"><circle r="2.5" /></g><g id="node-9" transform="translate(250.100,44.048)"><circle r="2.5" /></g><g id="node-10" transform="translate(225.960,41.071)"><circle r="2.5" /></g><g id="node-11" transform="translate(238.109,38.095)"><circle r="2.5" /></g><g id="node-12" transform="translate(222.908,35.119)"><circle r="2.5" /></g><g id="node-13" transform="translate(239.032,32.143)"><circle r="2.5" /></g><g id="node-14" transform="translate(230.383,29.167)"><circle r="2.5" /></g><g id="node-15" transform="translate(208.095,69.345)"><circle r="0.0" /></g><g id="node-16" transform="translate(202.538,67.113)"><circle r="0.0" /></g><g id="node-17" transform="translate(188.431,54.464)"><circle r="0.0" /></g><g id="node-18" transform="translate(187.859,64.509)"><circle r="0.0" /></g><g id="node-19" transform="translate(186.372,52.232)"><circle r="0.0" /></g><g id="node-20" transform="translate(180.112,61.719)"><circle r="0.0" /></g><g id="node-21" transform="translate(180.618,49.628)"><circle r="0.0" /></g><g id="node-22" transform="translate(188.721,39.583)"><circle r="0.0" /></g><g id="node-23" transform="translate(176.552,55.673)"><circle r="0.0" /></g><g id="node-24" transform="translate(183.132,37.351)"><circle r="0.0" /></g><g id="node-25" transform="translate(172.880,49.860)"><circle r="0.0" /></g><g id="node-26" transform="translate(172.661,34.747)"><circle r="0.0" /></g><g id="node-27" transform="translate(170.175,42.304)"><circle r="0.0" /></g><g id="node-28" transform="translate(165.000,35.735)"><circle r="0.0" /></g></g></g></g></g><g class="toyplot-coordinates-Cartesian" id="t4e72e04a4ad44394b0a08df7f793cc4e"><clipPath id="t0045c2673e634c98b3cc5fb8198bdcc0"><rect x="295.0" y="15.0" width="110.0" height="70.0" /></clipPath><g clip-path="url(#t0045c2673e634c98b3cc5fb8198bdcc0)"><g class="toytree-mark-Toytree" id="tbaea61ee89fe4f689c46e1b6981b15c6"><g class="toytree-Edges" style="fill:none;stroke:rgb(14.9%,14.9%,14.9%);stroke-linecap:round;stroke-opacity:1;stroke-width:0.5"><path d="M 305.0 33.3 L 305.0 37.5 L 318.3 37.5" id="28,27" /><path d="M 318.3 37.5 L 318.3 42.8 L 324.0 42.8" id="27,26" /><path d="M 324.0 42.8 L 324.0 50.5 L 328.6 50.5" id="26,25" /><path d="M 328.6 50.5 L 328.6 42.9 L 330.2 42.9" id="25,24" /><path d="M 328.6 50.5 L 328.6 58.1 L 332.4 58.1" id="25,23" /><path d="M 330.2 42.9 L 330.2 39.6 L 336.5 39.6" id="24,22" /><path d="M 330.2 42.9 L 330.2 46.3 L 335.6 46.3" id="24,21" /><path d="M 332.4 58.1 L 332.4 54.5 L 346.5 54.5" id="23,20" /><path d="M 332.4 58.1 L 332.4 61.7 L 342.5 61.7" id="23,19" /><path d="M 335.6 46.3 L 335.6 48.5 L 337.6 48.5" id="21,18" /><path d="M 342.5 61.7 L 342.5 64.5 L 345.1 64.5" id="19,17" /><path d="M 345.1 64.5 L 345.1 67.1 L 350.2 67.1" id="17,16" /><path d="M 350.2 67.1 L 350.2 69.3 L 353.5 69.3" id="16,15" /><path d="M 305.0 33.3 L 305.0 29.2 L 367.2 29.2" id="28,14" /><path d="M 318.3 37.5 L 318.3 32.1 L 386.8 32.1" id="27,13" /><path d="M 324.0 42.8 L 324.0 35.1 L 362.3 35.1" id="26,12" /><path d="M 336.5 39.6 L 336.5 38.1 L 390.3 38.1" id="22,11" /><path d="M 336.5 39.6 L 336.5 41.1 L 363.2 41.1" id="22,10" /><path d="M 335.6 46.3 L 335.6 44.0 L 379.2 44.0" id="21,9" /><path d="M 337.6 48.5 L 337.6 47.0 L 372.5 47.0" id="18,8" /><path d="M 337.6 48.5 L 337.6 50.0 L 367.7 50.0" id="18,7" /><path d="M 346.5 54.5 L 346.5 53.0 L 368.1 53.0" id="20,6" /><path d="M 346.5 54.5 L 346.5 56.0 L 359.6 56.0" id="20,5" /><path d="M 342.5 61.7 L 342.5 58.9 L 360.5 58.9" id="19,4" /><path d="M 345.1 64.5 L 345.1 61.9 L 372.4 61.9" id="17,3" /><path d="M 350.2 67.1 L 350.2 64.9 L 362.4 64.9" id="16,2" /><path d="M 353.5 69.3 L 353.5 67.9 L 358.1 67.9" id="15,1" /><path d="M 353.5 69.3 L 353.5 70.8 L 358.5 70.8" id="15,0" /></g><g class="toytree-Nodes" style="fill:rgb(100%,0%,0%);fill-opacity:1.0;stroke:None;stroke-width:1"><g id="node-0" transform="translate(358.503,70.833)"><circle r="2.5" /></g><g id="node-1" transform="translate(358.050,67.857)"><circle r="2.5" /></g><g id="node-2" transform="translate(362.447,64.881)"><circle r="2.5" /></g><g id="node-3" transform="translate(372.411,61.905)"><circle r="2.5" /></g><g id="node-4" transform="translate(360.527,58.929)"><circle r="2.5" /></g><g id="node-5" transform="translate(359.601,55.952)"><circle r="2.5" /></g><g id="node-6" transform="translate(368.141,52.976)"><circle r="2.5" /></g><g id="node-7" transform="translate(367.721,50.000)"><circle r="2.5" /></g><g id="node-8" transform="translate(372.543,47.024)"><circle r="2.5" /></g><g id="node-9" transform="translate(379.202,44.048)"><circle r="2.5" /></g><g id="node-10" transform="translate(363.153,41.071)"><circle r="2.5" /></g><g id="node-11" transform="translate(390.263,38.095)"><circle r="2.5" /></g><g id="node-12" transform="translate(362.309,35.119)"><circle r="2.5" /></g><g id="node-13" transform="translate(386.799,32.143)"><circle r="2.5" /></g><g id="node-14" transform="translate(367.246,29.167)"><circle r="2.5" /></g><g id="node-15" transform="translate(353.505,69.345)"><circle r="0.0" /></g><g id="node-16" transform="translate(350.183,67.113)"><circle r="0.0" /></g><g id="node-17" transform="translate(345.064,64.509)"><circle r="0.0" /></g><g id="node-18" transform="translate(337.638,48.512)"><circle r="0.0" /></g><g id="node-19" transform="translate(342.521,61.719)"><circle r="0.0" /></g><g id="node-20" transform="translate(346.465,54.464)"><circle r="0.0" /></g><g id="node-21" transform="translate(335.636,46.280)"><circle r="0.0" /></g><g id="node-22" transform="translate(336.491,39.583)"><circle r="0.0" /></g><g id="node-23" transform="translate(332.441,58.092)"><circle r="0.0" /></g><g id="node-24" transform="translate(330.152,42.932)"><circle r="0.0" /></g><g id="node-25" transform="translate(328.607,50.512)"><circle r="0.0" /></g><g id="node-26" transform="translate(323.984,42.815)"><circle r="0.0" /></g><g id="node-27" transform="translate(318.313,37.479)"><circle r="0.0" /></g><g id="node-28" transform="translate(305.000,33.323)"><circle r="0.0" /></g></g></g></g></g><g class="toyplot-coordinates-Cartesian" id="tc5bb5f2b02084c05b7995bcb15da119e"><clipPath id="t2631d40c12d74cdab7a414799722849f"><rect x="435.0" y="15.0" width="110.0" height="70.0" /></clipPath><g clip-path="url(#t2631d40c12d74cdab7a414799722849f)"><g class="toytree-mark-Toytree" id="t06c53f12caf6492e90272512ef3d1700"><g class="toytree-Edges" style="fill:none;stroke:rgb(14.9%,14.9%,14.9%);stroke-linecap:round;stroke-opacity:1;stroke-width:0.5"><path d="M 445.0 35.9 L 445.0 42.7 L 455.2 42.7" id="28,27" /><path d="M 455.2 42.7 L 455.2 34.7 L 461.1 34.7" id="27,26" /><path d="M 455.2 42.7 L 455.2 50.6 L 460.9 50.6" id="27,25" /><path d="M 461.1 34.7 L 461.1 37.4 L 467.9 37.4" id="26,24" /><path d="M 460.9 50.6 L 460.9 45.5 L 465.2 45.5" id="25,23" /><path d="M 460.9 50.6 L 460.9 55.7 L 471.9 55.7" id="25,22" /><path d="M 467.9 37.4 L 467.9 39.6 L 469.9 39.6" id="24,21" /><path d="M 471.9 55.7 L 471.9 51.5 L 478.6 51.5" id="22,20" /><path d="M 471.9 55.7 L 471.9 59.9 L 478.5 59.9" id="22,19" /><path d="M 478.5 59.9 L 478.5 63.8 L 486.4 63.8" id="19,18" /><path d="M 486.4 63.8 L 486.4 60.4 L 486.4 60.4" id="18,17" /><path d="M 486.4 63.8 L 486.4 67.1 L 486.6 67.1" id="18,16" /><path d="M 486.6 67.1 L 486.6 69.3 L 486.6 69.3" id="16,15" /><path d="M 445.0 35.9 L 445.0 29.2 L 489.6 29.2" id="28,14" /><path d="M 461.1 34.7 L 461.1 32.1 L 485.7 32.1" id="26,13" /><path d="M 467.9 37.4 L 467.9 35.1 L 530.3 35.1" id="24,12" /><path d="M 469.9 39.6 L 469.9 38.1 L 492.8 38.1" id="21,11" /><path d="M 469.9 39.6 L 469.9 41.1 L 498.6 41.1" id="21,10" /><path d="M 465.2 45.5 L 465.2 44.0 L 478.3 44.0" id="23,9" /><path d="M 465.2 45.5 L 465.2 47.0 L 499.5 47.0" id="23,8" /><path d="M 478.6 51.5 L 478.6 50.0 L 482.0 50.0" id="20,7" /><path d="M 478.6 51.5 L 478.6 53.0 L 483.2 53.0" id="20,6" /><path d="M 478.5 59.9 L 478.5 56.0 L 493.1 56.0" id="19,5" /><path d="M 486.4 60.4 L 486.4 58.9 L 486.6 58.9" id="17,4" /><path d="M 486.4 60.4 L 486.4 61.9 L 487.1 61.9" id="17,3" /><path d="M 486.6 67.1 L 486.6 64.9 L 496.8 64.9" id="16,2" /><path d="M 486.6 69.3 L 486.6 67.9 L 486.6 67.9" id="15,1" /><path d="M 486.6 69.3 L 486.6 70.8 L 487.4 70.8" id="15,0" /></g><g class="toytree-Nodes" style="fill:rgb(100%,0%,0%);fill-opacity:1.0;stroke:None;stroke-width:1"><g id="node-0" transform="translate(487.389,70.833)"><circle r="2.5" /></g><g id="node-1" transform="translate(486.649,67.857)"><circle r="2.5" /></g><g id="node-2" transform="translate(496.812,64.881)"><circle r="2.5" /></g><g id="node-3" transform="translate(487.144,61.905)"><circle r="2.5" /></g><g id="node-4" transform="translate(486.649,58.929)"><circle r="2.5" /></g><g id="node-5" transform="translate(493.058,55.952)"><circle r="2.5" /></g><g id="node-6" transform="translate(483.215,52.976)"><circle r="2.5" /></g><g id="node-7" transform="translate(481.977,50.000)"><circle r="2.5" /></g><g id="node-8" transform="translate(499.493,47.024)"><circle r="2.5" /></g><g id="node-9" transform="translate(478.283,44.048)"><circle r="2.5" /></g><g id="node-10" transform="translate(498.639,41.071)"><circle r="2.5" /></g><g id="node-11" transform="translate(492.758,38.095)"><circle r="2.5" /></g><g id="node-12" transform="translate(530.263,35.119)"><circle r="2.5" /></g><g id="node-13" transform="translate(485.744,32.143)"><circle r="2.5" /></g><g id="node-14" transform="translate(489.612,29.167)"><circle r="2.5" /></g><g id="node-15" transform="translate(486.649,69.345)"><circle r="0.0" /></g><g id="node-16" transform="translate(486.649,67.113)"><circle r="0.0" /></g><g id="node-17" transform="translate(486.404,60.417)"><circle r="0.0" /></g><g id="node-18" transform="translate(486.404,63.765)"><circle r="0.0" /></g><g id="node-19" transform="translate(478.487,59.859)"><circle r="0.0" /></g><g id="node-20" transform="translate(478.599,51.488)"><circle r="0.0" /></g><g id="node-21" transform="translate(469.883,39.583)"><circle r="0.0" /></g><g id="node-22" transform="translate(471.915,55.673)"><circle r="0.0" /></g><g id="node-23" transform="translate(465.187,45.536)"><circle r="0.0" /></g><g id="node-24" transform="translate(467.901,37.351)"><circle r="0.0" /></g><g id="node-25" transform="translate(460.935,50.605)"><circle r="0.0" /></g><g id="node-26" transform="translate(461.148,34.747)"><circle r="0.0" /></g><g id="node-27" transform="translate(455.191,42.676)"><circle r="0.0" /></g><g id="node-28" transform="translate(445.000,35.921)"><circle r="0.0" /></g></g></g></g></g></svg>