<svg class="toyplot-canvas-Canvas" xmlns:toyplot="http://www.sandia.gov/toyplot" xmlns:xlink="http://www.w3.org/1999/xlink" xmlns="http://www.w3.org/2000/svg" width="560.0px" height="100.0px" viewBox="0 0 560.0 100.0" preserveAspectRatio="xMidYMid meet" style="background-color:transparent;border-color:#292724;border-style:none;border-width:1.0;fill:rgb(16.1%,15.3%,14.1%);fill-opacity:1.0;font-family:Helvetica;font-size:12px;opacity:1.0;stroke:rgb(16.1%,15.3%,14.1%);stroke-opacity:1.0;stroke-width:1.0" id="ta0dde6ce56e742a2a9480f67e901847c"><g class="toyplot-coordinates-Cartesian" id="t1d6e46e0323a41cf8bd2f3e71e547efc"><clipPath id="td114bcab51bc4636b362a784890feea5"><rect x="15.0" y="15.0" width="110.0" height="70.0" /></clipPath><g clip-path="url(#td114bcab51bc4636b362a784890feea5)"><g class="toytree-mark-Toytree" id="ta236ae7f605145b1a0271b79cef4ea04"><g class="toytree-Edges" style="fill:none;stroke:rgb(14.9%,14.9%,14.9%);stroke-linecap:round;stroke-opacity:1;stroke-width:0.5"><path d="M 25.0 40.9 L 25.0 32.9 L 36.7 32.9" id="54,53" /><path d="M 25.0 40.9 L 25.0 49.0 L 33.4 49.0" id="54,52" /><path d="M 36.7 32.9 L 36.7 29.9 L 39.0 29.9" id="53,51" /><path d="M 36.7 32.9 L 36.7 35.8 L 38.9 35.8" id="53,50" /><path d="M 33.4 49.0 L 33.4 43.8 L 42.6 43.8" id="52,49" /><path d="M 33.4 49.0 L 33.4 54.2 L 37.3 54.2" id="52,48" /><path d="M 38.9 35.8 L 38.9 33.4 L 42.2 33.4" id="50,47" /><path d="M 38.9 35.8 L 38.9 38.2 L 40.9 38.2" id="50,46" /><path d="M 37.3 54.2 L 37.3 48.6 L 39.1 48.6" id="48,45" /><path d="M 37.3 54.2 L 37.3 59.7 L 40.3 59.7" id="48,44" /><path d="M 42.2 33.4 L 42.2 34.6 L 58.9 34.6" id="47,43" /><path d="M 40.9 38.2 L 40.9 39.6 L 52.7 39.6" id="46,42" /><path d="M 39.1 48.6 L 39.1 46.9 L 42.0 46.9" id="45,41" /><path d="M 39.1 48.6 L 39.1 50.4 L 41.9 50.4" id="45,40" /><path d="M 40.3 59.7 L 40.3 56.2 L 44.9 56.2" id="44,39" /><path d="M 40.3 59.7 L 40.3 63.3 L 41.6 63.3" id="44,38" /><path d="M 52.7 39.6 L 52.7 40.7 L 61.0 40.7" id="42,37" /><path d="M 41.9 50.4 L 41.9 51.5 L 48.8 51.5" id="40,36" /><path d="M 44.9 56.2 L 44.9 54.6 L 56.2 54.6" id="39,35" /><path d="M 44.9 56.2 L 44.9 57.7 L 55.8 57.7" id="39,34" /><path d="M 41.6 63.3 L 41.6 60.8 L 46.1 60.8" id="38,33" /><path d="M 41.6 63.3 L 41.6 65.7 L 44.9 65.7" id="38,32" /><path d="M 44.9 65.7 L 44.9 63.9 L 47.6 63.9" id="32,31" /><path d="M 44.9 65.7 L 44.9 67.6 L 47.0 67.6" id="32,30" /><path d="M 47.0 67.6 L 47.0 68.9 L 51.2 68.9" id="30,29" /><path d="M 51.2 68.9 L 51.2 70.1 L 54.6 70.1" id="29,28" /><path d="M 39.0 29.9 L 39.0 29.2 L 90.2 29.2" id="51,27" /><path d="M 39.0 29.9 L 39.0 30.7 L 79.9 30.7" id="51,26" /><path d="M 42.2 33.4 L 42.2 32.3 L 88.2 32.3" id="47,25" /><path d="M 58.9 34.6 L 58.9 33.8 L 91.4 33.8" id="43,24" /><path d="M 58.9 34.6 L 58.9 35.3 L 91.3 35.3" id="43,23" /><path d="M 40.9 38.2 L 40.9 36.9 L 93.5 36.9" id="46,22" /><path d="M 52.7 39.6 L 52.7 38.4 L 104.0 38.4" id="42,21" /><path d="M 61.0 40.7 L 61.0 40.0 L 97.1 40.0" id="37,20" /><path d="M 61.0 40.7 L 61.0 41.5 L 96.8 41.5" id="37,19" /><path d="M 42.6 43.8 L 42.6 43.1 L 102.6 43.1" id="49,18" /><path d="M 42.6 43.8 L 42.6 44.6 L 110.3 44.6" id="49,17" /><path d="M 42.0 46.9 L 42.0 46.1 L 95.1 46.1" id="41,16" /><path d="M 42.0 46.9 L 42.0 47.7 L 89.8 47.7" id="41,15" /><path d="M 41.9 50.4 L 41.9 49.2 L 95.0 49.2" id="40,14" /><path d="M 48.8 51.5 L 48.8 50.8 L 108.4 50.8" id="36,13" /><path d="M 48.8 51.5 L 48.8 52.3 L 91.8 52.3" id="36,12" /><path d="M 56.2 54.6 L 56.2 53.9 L 94.3 53.9" id="35,11" /><path d="M 56.2 54.6 L 56.2 55.4 L 94.0 55.4" id="35,10" /><path d="M 55.8 57.7 L 55.8 56.9 L 84.3 56.9" id="34,9" /><path d="M 55.8 57.7 L 55.8 58.5 L 88.1 58.5" id="34,8" /><path d="M 46.1 60.8 L 46.1 60.0 L 88.5 60.0" id="33,7" /><path d="M 46.1 60.8 L 46.1 61.6 L 88.1 61.6" id="33,6" /><path d="M 47.6 63.9 L 47.6 63.1 L 90.4 63.1" id="31,5" /><path d="M 47.6 63.9 L 47.6 64.7 L 84.3 64.7" id="31,4" /><path d="M 47.0 67.6 L 47.0 66.2 L 79.5 66.2" id="30,3" /><path d="M 51.2 68.9 L 51.2 67.7 L 95.4 67.7" id="29,2" /><path d="M 54.6 70.1 L 54.6 69.3 L 89.4 69.3" id="28,1" /><path d="M 54.6 70.1 L 54.6 70.8 L 91.3 70.8" id="28,0" /></g><g class="toytree-Nodes" style="fill:rgb(100%,0%,0%);fill-opacity:1.0;stroke:None;stroke-width:1"><g id="node-0" transform="translate(91.307,70.833)"><circle r="2.5" /></g><g id="node-1" transform="translate(89.444,69.290)"><circle r="2.5" /></g><g id="node-2" transform="translate(95.378,67.747)"><circle r="2.5" /></g><g id="node-3" transform="translate(79.507,66.204)"><circle r="2.5" /></g><g id="node-4" transform="translate(84.299,64.660)"><circle r="2.5" /></g><g id="node-5" transform="translate(90.393,63.117)"><circle r="2.5" /></g><g id="node-6" transform="translate(88.135,61.574)"><circle r="2.5" /></g><g id="node-7" transform="translate(88.468,60.031)"><circle r="2.5" /></g><g id="node-8" transform="translate(88.129,58.488)"><circle r="2.5" /></g><g id="node-9" transform="translate(84.322,56.944)"><circle r="2.5" /></g><g id="node-10" transform="translate(93.957,55.401)"><circle r="2.5" /></g><g id="node-11" transform="translate(94.279,53.858)"><circle r="2.5" /></g><g id="node-12" transform="translate(91.794,52.315)"><circle r="2.5" /></g><g id="node-13" transform="translate(108.358,50.772)"><circle r="2.5" /></g><g id="node-14" transform="translate(95.014,49.228)"><circle r="2.5" /></g><g id="node-15" transform="translate(89.795,47.685)"><circle r="2.5" /></g><g id="node-16" transform="translate(95.080,46.142)"><circle r="2.5" /></g><g id="node-17" transform="translate(110.263,44.599)"><circle r="2.5" /></g><g id="node-18" transform="translate(102.607,43.056)"><circle r="2.5" /></g><g id="node-19" transform="translate(96.810,41.512)"><circle r="2.5" /></g><g id="node-20" transform="translate(97.068,39.969)"><circle r="2.5" /></g><g id="node-21" transform="translate(103.958,38.426)"><circle r="2.5" /></g><g id="node-22" transform="translate(93.459,36.883)"><circle r="2.5" /></g><g id="node-23" transform="translate(91.275,35.340)"><circle r="2.5" /></g><g id="node-24" transform="translate(91.371,33.796)"><circle r="2.5" /></g><g id="node-25" transform="translate(88.196,32.253)"><circle r="2.5" /></g><g id="node-26" transform="translate(79.886,30.710)"><circle r="2.5" /></g><g id="node-27" transform="translate(90.193,29.167)"><circle r="2.5" /></g><g id="node-28" transform="translate(54.567,70.062)"><circle r="0.0" /></g><g id="node-29" transform="translate(51.158,68.904)"><circle r="0.0" /></g><g id="node-30" transform="translate(47.006,67.554)"><circle r="0.0" /></g><g id="node-31" transform="translate(47.614,63.889)"><circle r="0.0" /></g><g id="node-32" transform="translate(44.909,65.721)"><circle r="0.0" /></g><g id="node-33" transform="translate(46.087,60.802)"><circle r="0.0" /></g><g id="node-34" transform="translate(55.781,57.716)"><circle r="0.0" /></g><g id="node-35" transform="translate(56.224,54.630)"><circle r="0.0" /></g><g id="node-36" transform="translate(48.822,51.543)"><circle r="0.0" /></g><g id="node-37" transform="translate(60.982,40.741)"><circle r="0.0" /></g><g id="node-38" transform="translate(41.611,63.262)"><circle r="0.0" /></g><g id="node-39" transform="translate(44.891,56.173)"><circle r="0.0" /></g><g id="node-40" transform="translate(41.921,50.386)"><circle r="0.0" /></g><g id="node-41" transform="translate(41.978,46.914)"><circle r="0.0" /></g><g id="node-42" transform="translate(52.696,39.583)"><circle r="0.0" /></g><g id="node-43" transform="translate(58.942,34.568)"><circle r="0.0" /></g><g id="node-44" transform="translate(40.262,59.717)"><circle r="0.0" /></g><g id="node-45" transform="translate(39.050,48.650)"><circle r="0.0" /></g><g id="node-46" transform="translate(40.931,38.233)"><circle r="0.0" /></g><g id="node-47" transform="translate(42.231,33.410)"><circle r="0.0" /></g><g id="node-48" transform="translate(37.282,54.184)"><circle r="0.0" /></g><g id="node-49" transform="translate(42.566,43.827)"><circle r="0.0" /></g><g id="node-50" transform="translate(38.937,35.822)"><circle r="0.0" /></g><g id="node-51" transform="translate(38.951,29.938)"><circle r="0.0" /></g><g id="node-52" transform="translate(33.450,49.005)"><circle r="0.0" /></g><g id="node-53" transform="translate(36.700,32.880)"><circle r="0.0" /></g><g id="node-54" transform="translate(25.000,40.943)"><circle r="0.0" /></g></g></g></g></g><g class="toyplot-coordinates-Cartesian" id="t95648251f1734af48383bb91961f3b12"><clipPath id="t4ccbdd56bd8a45539d2bd3022ef83246"><rect x="155.0" y="15.0" width="110.0" height="70.0" /></clipPath><g clip-path="url(#t4ccbdd56bd8a45539d2bd3022ef83246)"><g class="toytree-mark-Toytree" id="tad844ddba76a488fac9ba5113a3cf78d"><g class="toytree-Edges" style="fill:none;stroke:rgb(14.9%,14.9%,14.9%);stroke-linecap:round;stroke-opacity:1;stroke-width:0.5"><path d="M 165.0 42.3 L 165.0 33.0 L 166.0 33.0" id="54,53" /><path d="M 165.0 42.3 L 165.0 51.6 L 169.9 51.6" id="54,52" /><path d="M 166.0 33.0 L 166.0 30.3 L 179.7 30.3" id="53,51" /><path d="M 166.0 33.0 L 166.0 35.6 L 177.6 35.6" id="53,50" /><path d="M 169.9 51.6 L 169.9 48.5 L 178.2 48.5" id="52,49" /><path d="M 169.9 51.6 L 169.9 54.7 L 172.4 54.7" id="52,48" /><path d="M 179.7 30.3 L 179.7 31.5 L 205.2 31.5" id="51,47" /><path d="M 177.6 35.6 L 177.6 37.4 L 185.5 37.4" id="50,46" /><path d="M 172.4 54.7 L 172.4 51.9 L 176.7 51.9" id="48,45" /><path d="M 172.4 54.7 L 172.4 57.6 L 175.1 57.6" id="48,44" /><path d="M 185.5 37.4 L 185.5 39.5 L 191.1 39.5" id="46,43" /><path d="M 176.7 51.9 L 176.7 53.1 L 192.1 53.1" id="45,42" /><path d="M 175.1 57.6 L 175.1 59.7 L 179.0 59.7" id="44,41" /><path d="M 191.1 39.5 L 191.1 37.7 L 199.7 37.7" id="43,40" /><path d="M 191.1 39.5 L 191.1 41.4 L 196.5 41.4" id="43,39" /><path d="M 179.0 59.7 L 179.0 57.7 L 194.7 57.7" id="41,38" /><path d="M 179.0 59.7 L 179.0 61.7 L 184.5 61.7" id="41,37" /><path d="M 196.5 41.4 L 196.5 42.9 L 200.7 42.9" id="39,36" /><path d="M 184.5 61.7 L 184.5 63.4 L 186.5 63.4" id="37,35" /><path d="M 200.7 42.9 L 200.7 44.2 L 210.9 44.2" id="36,34" /><path d="M 186.5 63.4 L 186.5 65.1 L 188.4 65.1" id="35,33" /><path d="M 210.9 44.2 L 210.9 45.4 L 218.5 45.4" id="34,32" /><path d="M 188.4 65.1 L 188.4 67.2 L 195.1 67.2" id="33,31" /><path d="M 195.1 67.2 L 195.1 65.4 L 202.1 65.4" id="31,30" /><path d="M 195.1 67.2 L 195.1 68.9 L 204.0 68.9" id="31,29" /><path d="M 204.0 68.9 L 204.0 70.1 L 213.0 70.1" id="29,28" /><path d="M 179.7 30.3 L 179.7 29.2 L 211.2 29.2" id="51,27" /><path d="M 205.2 31.5 L 205.2 30.7 L 224.8 30.7" id="47,26" /><path d="M 205.2 31.5 L 205.2 32.3 L 232.1 32.3" id="47,25" /><path d="M 177.6 35.6 L 177.6 33.8 L 239.9 33.8" id="50,24" /><path d="M 185.5 37.4 L 185.5 35.3 L 206.0 35.3" id="46,23" /><path d="M 199.7 37.7 L 199.7 36.9 L 209.9 36.9" id="40,22" /><path d="M 199.7 37.7 L 199.7 38.4 L 214.7 38.4" id="40,21" /><path d="M 196.5 41.4 L 196.5 40.0 L 215.2 40.0" id="39,20" /><path d="M 200.7 42.9 L 200.7 41.5 L 221.1 41.5" id="36,19" /><path d="M 210.9 44.2 L 210.9 43.1 L 226.4 43.1" id="34,18" /><path d="M 218.5 45.4 L 218.5 44.6 L 225.9 44.6" id="32,17" /><path d="M 218.5 45.4 L 218.5 46.1 L 233.9 46.1" id="32,16" /><path d="M 178.2 48.5 L 178.2 47.7 L 223.0 47.7" id="49,15" /><path d="M 178.2 48.5 L 178.2 49.2 L 240.1 49.2" id="49,14" /><path d="M 176.7 51.9 L 176.7 50.8 L 209.8 50.8" id="45,13" /><path d="M 192.1 53.1 L 192.1 52.3 L 212.8 52.3" id="42,12" /><path d="M 192.1 53.1 L 192.1 53.9 L 208.0 53.9" id="42,11" /><path d="M 175.1 57.6 L 175.1 55.4 L 250.3 55.4" id="44,10" /><path d="M 194.7 57.7 L 194.7 56.9 L 218.9 56.9" id="38,9" /><path d="M 194.7 57.7 L 194.7 58.5 L 222.7 58.5" id="38,8" /><path d="M 184.5 61.7 L 184.5 60.0 L 227.7 60.0" id="37,7" /><path d="M 186.5 63.4 L 186.5 61.6 L 214.5 61.6" id="35,6" /><path d="M 188.4 65.1 L 188.4 63.1 L 210.5 63.1" id="33,5" /><path d="M 202.1 65.4 L 202.1 64.7 L 217.1 64.7" id="30,4" /><path d="M 202.1 65.4 L 202.1 66.2 L 215.0 66.2" id="30,3" /><path d="M 204.0 68.9 L 204.0 67.7 L 237.0 67.7" id="29,2" /><path d="M 213.0 70.1 L 213.0 69.3 L 218.0 69.3" id="28,1" /><path d="M 213.0 70.1 L 213.0 70.8 L 227.0 70.8" id="28,0" /></g><g class="toytree-Nodes" style="fill:rgb(100%,0%,0%);fill-opacity:1.0;stroke:None;stroke-width:1"><g id="node-0" transform="translate(227.050,70.833)"><circle r="2.5" /></g><g id="node-1" transform="translate(218.037,69.290)"><circle r="2.5" /></g><g id="node-2" transform="translate(236.997,67.747)"><circle r="2.5" /></g><g id="node-3" transform="translate(215.002,66.204)"><circle r="2.5" /></g><g id="node-4" transform="translate(217.147,64.660)"><circle r="2.5" /></g><g id="node-5" transform="translate(210.476,63.117)"><circle r="2.5" /></g><g id="node-6" transform="translate(214.465,61.574)"><circle r="2.5" /></g><g id="node-7" transform="translate(227.653,60.031)"><circle r="2.5" /></g><g id="node-8" transform="translate(222.679,58.488)"><circle r="2.5" /></g><g id="node-9" transform="translate(218.892,56.944)"><circle r="2.5" /></g><g id="node-10" transform="translate(250.263,55.401)"><circle r="2.5" /></g><g id="node-11" transform="translate(207.996,53.858)"><circle r="2.5" /></g><g id="node-12" transform="translate(212.843,52.315)"><circle r="2.5" /></g><g id="node-13" transform="translate(209.795,50.772)"><circle r="2.5" /></g><g id="node-14" transform="translate(240.086,49.228)"><circle r="2.5" /></g><g id="node-15" transform="translate(222.951,47.685)"><circle r="2.5" /></g><g id="node-16" transform="translate(233.851,46.142)"><circle r="2.5" /></g><g id="node-17" transform="translate(225.855,44.599)"><circle r="2.5" /></g><g id="node-18" transform="translate(226.372,43.056)"><circle r="2.5" /></g><g id="node-19" transform="translate(221.074,41.512)"><circle r="2.5" /></g><g id="node-20" transform="translate(215.204,39.969)"><circle r="2.5" /></g><g id="node-21" transform="translate(214.743,38.426)"><circle r="2.5" /></g><g id="node-22" transform="translate(209.858,36.883)"><circle r="2.5" /></g><g id="node-23" transform="translate(205.977,35.340)"><circle r="2.5" /></g><g id="node-24" transform="translate(239.935,33.796)"><circle r="2.5" /></g><g id="node-25" transform="translate(232.087,32.253)"><circle r="2.5" /></g><g id="node-26" transform="translate(224.829,30.710)"><circle r="2.5" /></g><g id="node-27" transform="translate(211.203,29.167)"><circle r="2.5" /></g><g id="node-28" transform="translate(213.029,70.062)"><circle r="0.0" /></g><g id="node-29" transform="translate(204.036,68.904)"><circle r="0.0" /></g><g id="node-30" transform="translate(202.079,65.432)"><circle r="0.0" /></g><g id="node-31" transform="translate(195.077,67.168)"><circle r="0.0" /></g><g id="node-32" transform="translate(218.524,45.370)"><circle r="0.0" /></g><g id="node-33" transform="translate(188.380,65.143)"><circle r="0.0" /></g><g id="node-34" transform="translate(210.938,44.213)"><circle r="0.0" /></g><g id="node-35" transform="translate(186.525,63.358)"><circle r="0.0" /></g><g id="node-36" transform="translate(200.672,42.863)"><circle r="0.0" /></g><g id="node-37" transform="translate(184.496,61.695)"><circle r="0.0" /></g><g id="node-38" transform="translate(194.736,57.716)"><circle r="0.0" /></g><g id="node-39" transform="translate(196.478,41.416)"><circle r="0.0" /></g><g id="node-40" transform="translate(199.741,37.654)"><circle r="0.0" /></g><g id="node-41" transform="translate(178.973,59.705)"><circle r="0.0" /></g><g id="node-42" transform="translate(192.101,53.086)"><circle r="0.0" /></g><g id="node-43" transform="translate(191.133,39.535)"><circle r="0.0" /></g><g id="node-44" transform="translate(175.079,57.553)"><circle r="0.0" /></g><g id="node-45" transform="translate(176.720,51.929)"><circle r="0.0" /></g><g id="node-46" transform="translate(185.506,37.437)"><circle r="0.0" /></g><g id="node-47" transform="translate(205.201,31.481)"><circle r="0.0" /></g><g id="node-48" transform="translate(172.434,54.741)"><circle r="0.0" /></g><g id="node-49" transform="translate(178.219,48.457)"><circle r="0.0" /></g><g id="node-50" transform="translate(177.610,35.617)"><circle r="0.0" /></g><g id="node-51" transform="translate(179.659,30.324)"><circle r="0.0" /></g><g id="node-52" transform="translate(169.878,51.599)"><circle r="0.0" /></g><g id="node-53" transform="translate(165.969,32.970)"><circle r="0.0" /></g><g id="node-54" transform="translate(165.000,42.285)"><circle r="0.0" /></g></g></g></g></g><g class="toyplot-coordinates-Cartesian" id="tfb5ced45bff74475bb9427ee9f795f67"><clipPath id="t1cb82bafa4834a5ab43358c8c9e23bd5"><rect x="295.0" y="15.0" width="110.0" height="70.0" /></clipPath><g clip-path="url(#t1cb82bafa4834a5ab43358c8c9e23bd5)"><g class="toytree-mark-Toytree" id="t9e028f37d5224daca029d10df0d7009d"><g class="toytree-Edges" style="fill:none;stroke:rgb(14.9%,14.9%,14.9%);stroke-linecap:round;stroke-opacity:1;stroke-width:0.5"><path d="M 305.0 41.4 L 305.0 33.8 L 324.7 33.8" id="54,53" /><path d="M 305.0 41.4 L 305.0 49.0 L 312.3 49.0" id="54,52" /><path d="M 324.7 33.8 L 324.7 30.3 L 330.5 30.3" id="53,51" /><path d="M 324.7 33.8 L 324.7 37.3 L 325.2 37.3" id="53,50" /><path d="M 312.3 49.0 L 312.3 43.8 L 320.6 43.8" id="52,49" /><path d="M 312.3 49.0 L 312.3 54.3 L 316.8 54.3" id="52,48" /><path d="M 330.5 30.3 L 330.5 31.5 L 342.3 31.5" id="51,47" /><path d="M 325.2 37.3 L 325.2 35.0 L 336.7 35.0" id="50,46" /><path d="M 325.2 37.3 L 325.2 39.6 L 330.4 39.6" id="50,45" /><path d="M 316.8 54.3 L 316.8 49.3 L 318.3 49.3" id="48,44" /><path d="M 316.8 54.3 L 316.8 59.2 L 322.6 59.2" id="48,43" /><path d="M 336.7 35.0 L 336.7 36.1 L 342.8 36.1" id="46,42" /><path d="M 330.4 39.6 L 330.4 40.7 L 336.0 40.7" id="45,41" /><path d="M 318.3 49.3 L 318.3 46.9 L 335.3 46.9" id="44,40" /><path d="M 318.3 49.3 L 318.3 51.7 L 321.7 51.7" id="44,39" /><path d="M 322.6 59.2 L 322.6 61.5 L 325.1 61.5" id="43,38" /><path d="M 321.7 51.7 L 321.7 50.0 L 324.2 50.0" id="39,37" /><path d="M 321.7 51.7 L 321.7 53.5 L 326.6 53.5" id="39,36" /><path d="M 325.1 61.5 L 325.1 59.3 L 360.2 59.3" id="38,35" /><path d="M 325.1 61.5 L 325.1 63.6 L 327.4 63.6" id="38,34" /><path d="M 326.6 53.5 L 326.6 54.6 L 331.8 54.6" id="36,33" /><path d="M 327.4 63.6 L 327.4 65.7 L 329.2 65.7" id="34,32" /><path d="M 329.2 65.7 L 329.2 63.9 L 331.1 63.9" id="32,31" /><path d="M 329.2 65.7 L 329.2 67.6 L 330.7 67.6" id="32,30" /><path d="M 330.7 67.6 L 330.7 68.9 L 335.6 68.9" id="30,29" /><path d="M 335.6 68.9 L 335.6 70.1 L 341.1 70.1" id="29,28" /><path d="M 330.5 30.3 L 330.5 29.2 L 350.6 29.2" id="51,27" /><path d="M 342.3 31.5 L 342.3 30.7 L 347.8 30.7" id="47,26" /><path d="M 342.3 31.5 L 342.3 32.3 L 362.2 32.3" id="47,25" /><path d="M 336.7 35.0 L 336.7 33.8 L 367.3 33.8" id="46,24" /><path d="M 342.8 36.1 L 342.8 35.3 L 356.0 35.3" id="42,23" /><path d="M 342.8 36.1 L 342.8 36.9 L 357.5 36.9" id="42,22" /><path d="M 330.4 39.6 L 330.4 38.4 L 346.8 38.4" id="45,21" /><path d="M 336.0 40.7 L 336.0 40.0 L 354.2 40.0" id="41,20" /><path d="M 336.0 40.7 L 336.0 41.5 L 351.9 41.5" id="41,19" /><path d="M 320.6 43.8 L 320.6 43.1 L 359.2 43.1" id="49,18" /><path d="M 320.6 43.8 L 320.6 44.6 L 364.5 44.6" id="49,17" /><path d="M 335.3 46.9 L 335.3 46.1 L 349.2 46.1" id="40,16" /><path d="M 335.3 46.9 L 335.3 47.7 L 351.3 47.7" id="40,15" /><path d="M 324.2 50.0 L 324.2 49.2 L 351.5 49.2" id="37,14" /><path d="M 324.2 50.0 L 324.2 50.8 L 363.4 50.8" id="37,13" /><path d="M 326.6 53.5 L 326.6 52.3 L 353.2 52.3" id="36,12" /><path d="M 331.8 54.6 L 331.8 53.9 L 351.1 53.9" id="33,11" /><path d="M 331.8 54.6 L 331.8 55.4 L 347.5 55.4" id="33,10" /><path d="M 322.6 59.2 L 322.6 56.9 L 377.1 56.9" id="43,9" /><path d="M 360.2 59.3 L 360.2 58.5 L 382.6 58.5" id="35,8" /><path d="M 360.2 59.3 L 360.2 60.0 L 390.3 60.0" id="35,7" /><path d="M 327.4 63.6 L 327.4 61.6 L 353.4 61.6" id="34,6" /><path d="M 331.1 63.9 L 331.1 63.1 L 345.9 63.1" id="31,5" /><path d="M 331.1 63.9 L 331.1 64.7 L 340.1 64.7" id="31,4" /><path d="M 330.7 67.6 L 330.7 66.2 L 347.3 66.2" id="30,3" /><path d="M 335.6 68.9 L 335.6 67.7 L 345.0 67.7" id="29,2" /><path d="M 341.1 70.1 L 341.1 69.3 L 353.7 69.3" id="28,1" /><path d="M 341.1 70.1 L 341.1 70.8 L 354.1 70.8" id="28,0" /></g><g class="toytree-Nodes" style="fill:rgb(100%,0%,0%);fill-opacity:1.0;stroke:None;stroke-width:1"><g id="node-0" transform="translate(354.065,70.833)"><circle r="2.5" /></g><g id="node-1" transform="translate(353.687,69.290)"><circle r="2.5" /></g><g id="node-2" transform="translate(344.994,67.747)"><circle r="2.5" /></g><g id="node-3" transform="translate(347.256,66.204)"><circle r="2.5" /></g><g id="node-4" transform="translate(340.060,64.660)"><circle r="2.5" /></g><g id="node-5" transform="translate(345.924,63.117)"><circle r="2.5" /></g><g id="node-6" transform="translate(353.437,61.574)"><circle r="2.5" /></g><g id="node-7" transform="translate(390.263,60.031)"><circle r="2.5" /></g><g id="node-8" transform="translate(382.604,58.488)"><circle r="2.5" /></g><g id="node-9" transform="translate(377.146,56.944)"><circle r="2.5" /></g><g id="node-10" transform="translate(347.535,55.401)"><circle r="2.5" /></g><g id="node-11" transform="translate(351.085,53.858)"><circle r="2.5" /></g><g id="node-12" transform="translate(353.191,52.315)"><circle r="2.5" /></g><g id="node-13" transform="translate(363.362,50.772)"><circle r="2.5" /></g><g id="node-14" transform="translate(351.482,49.228)"><circle r="2.5" /></g><g id="node-15" transform="translate(351.307,47.685)"><circle r="2.5" /></g><g id="node-16" transform="translate(349.173,46.142)"><circle r="2.5" /></g><g id="node-17" transform="translate(364.524,44.599)"><circle r="2.5" /></g><g id="node-18" transform="translate(359.198,43.056)"><circle r="2.5" /></g><g id="node-19" transform="translate(351.861,41.512)"><circle r="2.5" /></g><g id="node-20" transform="translate(354.165,39.969)"><circle r="2.5" /></g><g id="node-21" transform="translate(346.799,38.426)"><circle r="2.5" /></g><g id="node-22" transform="translate(357.508,36.883)"><circle r="2.5" /></g><g id="node-23" transform="translate(355.969,35.340)"><circle r="2.5" /></g><g id="node-24" transform="translate(367.301,33.796)"><circle r="2.5" /></g><g id="node-25" transform="translate(362.202,32.253)"><circle r="2.5" /></g><g id="node-26" transform="translate(347.772,30.710)"><circle r="2.5" /></g><g id="node-27" transform="translate(350.558,29.167)"><circle r="2.5" /></g><g id="node-28" transform="translate(341.127,70.062)"><circle r="0.0" /></g><g id="node-29" transform="translate(335.564,68.904)"><circle r="0.0" /></g><g id="node-30" transform="translate(330.687,67.554)"><circle r="0.0" /></g><g id="node-31" transform="translate(331.093,63.889)"><circle r="0.0" /></g><g id="node-32" transform="translate(329.171,65.721)"><circle r="0.0" /></g><g id="node-33" transform="translate(331.792,54.630)"><circle r="0.0" /></g><g id="node-34" transform="translate(327.443,63.648)"><circle r="0.0" /></g><g id="node-35" transform="translate(360.180,59.259)"><circle r="0.0" /></g><g id="node-36" transform="translate(326.602,53.472)"><circle r="0.0" /></g><g id="node-37" transform="translate(324.204,50.000)"><circle r="0.0" /></g><g id="node-38" transform="translate(325.110,61.454)"><circle r="0.0" /></g><g id="node-39" transform="translate(321.696,51.736)"><circle r="0.0" /></g><g id="node-40" transform="translate(335.272,46.914)"><circle r="0.0" /></g><g id="node-41" transform="translate(336.038,40.741)"><circle r="0.0" /></g><g id="node-42" transform="translate(342.832,36.111)"><circle r="0.0" /></g><g id="node-43" transform="translate(322.622,59.199)"><circle r="0.0" /></g><g id="node-44" transform="translate(318.301,49.325)"><circle r="0.0" /></g><g id="node-45" transform="translate(330.381,39.583)"><circle r="0.0" /></g><g id="node-46" transform="translate(336.675,34.954)"><circle r="0.0" /></g><g id="node-47" transform="translate(342.332,31.481)"><circle r="0.0" /></g><g id="node-48" transform="translate(316.837,54.262)"><circle r="0.0" /></g><g id="node-49" transform="translate(320.639,43.827)"><circle r="0.0" /></g><g id="node-50" transform="translate(325.172,37.269)"><circle r="0.0" /></g><g id="node-51" transform="translate(330.532,30.324)"><circle r="0.0" /></g><g id="node-52" transform="translate(312.300,49.045)"><circle r="0.0" /></g><g id="node-53" transform="translate(324.719,33.796)"><circle r="0.0" /></g><g id="node-54" transform="translate(305.000,41.420)"><circle r="0.0" /></g></g></g></g></g><g class="toyplot-coordinates-Cartesian" id="t403f36a1778b4a9c953037c7bb6b39e1"><clipPath id="td22f89584a634b4385208ff94679eca9"><rect x="435.0" y="15.0" width="110.0" height="70.0" /></clipPath><g clip-path="url(#td22f89584a634b4385208ff94679eca9)"><g class="toytree-mark-Toytree" id="tb0ab704b9727463c847a93dd04836e95"><g class="toytree-Edges" style="fill:none;stroke:rgb(14.9%,14.9%,14.9%);stroke-linecap:round;stroke-opacity:1;stroke-width:0.5"><path d="M 445.0 39.0 L 445.0 30.7 L 455.0 30.7" id="54,53" /><path d="M 445.0 39.0 L 445.0 47.3 L 449.1 47.3" id="54,52" /><path d="M 455.0 30.7 L 455.0 32.2 L 457.0 32.2" id="53,51" /><path d="M 449.1 47.3 L 449.1 43.8 L 465.7 43.8" id="52,50" /><path d="M 449.1 47.3 L 449.1 50.8 L 452.6 50.8" id="52,49" /><path d="M 457.0 32.2 L 457.0 33.8 L 459.8 33.8" id="51,48" /><path d="M 452.6 50.8 L 452.6 55.4 L 457.6 55.4" id="49,47" /><path d="M 459.8 33.8 L 459.8 35.3 L 464.8 35.3" id="48,46" /><path d="M 457.6 55.4 L 457.6 50.2 L 463.8 50.2" id="47,45" /><path d="M 457.6 55.4 L 457.6 60.7 L 459.3 60.7" id="47,44" /><path d="M 464.8 35.3 L 464.8 36.8 L 478.4 36.8" id="46,43" /><path d="M 463.8 50.2 L 463.8 52.7 L 463.8 52.7" id="45,42" /><path d="M 459.3 60.7 L 459.3 62.8 L 460.2 62.8" id="44,41" /><path d="M 478.4 36.8 L 478.4 38.2 L 483.3 38.2" id="43,40" /><path d="M 463.8 52.7 L 463.8 50.4 L 468.8 50.4" id="42,39" /><path d="M 463.8 52.7 L 463.8 55.0 L 468.5 55.0" id="42,38" /><path d="M 460.2 62.8 L 460.2 60.8 L 463.2 60.8" id="41,37" /><path d="M 460.2 62.8 L 460.2 64.9 L 465.7 64.9" id="41,36" /><path d="M 483.3 38.2 L 483.3 39.6 L 506.2 39.6" id="40,35" /><path d="M 468.8 50.4 L 468.8 51.5 L 477.6 51.5" id="39,34" /><path d="M 468.5 55.0 L 468.5 56.2 L 474.0 56.2" id="38,33" /><path d="M 465.7 64.9 L 465.7 66.6 L 468.3 66.6" id="36,32" /><path d="M 506.2 39.6 L 506.2 40.7 L 509.9 40.7" id="35,31" /><path d="M 468.3 66.6 L 468.3 68.5 L 478.7 68.5" id="32,30" /><path d="M 478.7 68.5 L 478.7 67.0 L 488.9 67.0" id="30,29" /><path d="M 478.7 68.5 L 478.7 70.1 L 483.8 70.1" id="30,28" /><path d="M 455.0 30.7 L 455.0 29.2 L 464.2 29.2" id="53,27" /><path d="M 457.0 32.2 L 457.0 30.7 L 475.9 30.7" id="51,26" /><path d="M 459.8 33.8 L 459.8 32.3 L 492.9 32.3" id="48,25" /><path d="M 464.8 35.3 L 464.8 33.8 L 481.6 33.8" id="46,24" /><path d="M 478.4 36.8 L 478.4 35.3 L 487.9 35.3" id="43,23" /><path d="M 483.3 38.2 L 483.3 36.9 L 489.1 36.9" id="40,22" /><path d="M 506.2 39.6 L 506.2 38.4 L 518.5 38.4" id="35,21" /><path d="M 509.9 40.7 L 509.9 40.0 L 530.3 40.0" id="31,20" /><path d="M 509.9 40.7 L 509.9 41.5 L 518.4 41.5" id="31,19" /><path d="M 465.7 43.8 L 465.7 43.1 L 507.4 43.1" id="50,18" /><path d="M 465.7 43.8 L 465.7 44.6 L 493.5 44.6" id="50,17" /><path d="M 452.6 50.8 L 452.6 46.1 L 481.1 46.1" id="49,16" /><path d="M 463.8 50.2 L 463.8 47.7 L 470.9 47.7" id="45,15" /><path d="M 468.8 50.4 L 468.8 49.2 L 489.1 49.2" id="39,14" /><path d="M 477.6 51.5 L 477.6 50.8 L 511.1 50.8" id="34,13" /><path d="M 477.6 51.5 L 477.6 52.3 L 495.1 52.3" id="34,12" /><path d="M 468.5 55.0 L 468.5 53.9 L 483.3 53.9" id="38,11" /><path d="M 474.0 56.2 L 474.0 55.4 L 498.4 55.4" id="33,10" /><path d="M 474.0 56.2 L 474.0 56.9 L 483.4 56.9" id="33,9" /><path d="M 459.3 60.7 L 459.3 58.5 L 473.2 58.5" id="44,8" /><path d="M 463.2 60.8 L 463.2 60.0 L 480.2 60.0" id="37,7" /><path d="M 463.2 60.8 L 463.2 61.6 L 473.9 61.6" id="37,6" /><path d="M 465.7 64.9 L 465.7 63.1 L 482.9 63.1" id="36,5" /><path d="M 468.3 66.6 L 468.3 64.7 L 485.1 64.7" id="32,4" /><path d="M 488.9 67.0 L 488.9 66.2 L 502.8 66.2" id="29,3" /><path d="M 488.9 67.0 L 488.9 67.7 L 499.2 67.7" id="29,2" /><path d="M 483.8 70.1 L 483.8 69.3 L 493.1 69.3" id="28,1" /><path d="M 483.8 70.1 L 483.8 70.8 L 495.7 70.8" id="28,0" /></g><g class="toytree-Nodes" style="fill:rgb(100%,0%,0%);fill-opacity:1.0;stroke:None;stroke-width:1"><g id="node-0" transform="translate(495.731,70.833)"><circle r="2.5" /></g><g id="node-1" transform="translate(493.075,69.290)"><circle r="2.5" /></g><g id="node-2" transform="translate(499.221,67.747)"><circle r="2.5" /></g><g id="node-3" transform="translate(502.789,66.204)"><circle r="2.5" /></g><g id="node-4" transform="translate(485.122,64.660)"><circle r="2.5" /></g><g id="node-5" transform="translate(482.882,63.117)"><circle r="2.5" /></g><g id="node-6" transform="translate(473.924,61.574)"><circle r="2.5" /></g><g id="node-7" transform="translate(480.190,60.031)"><circle r="2.5" /></g><g id="node-8" transform="translate(473.204,58.488)"><circle r="2.5" /></g><g id="node-9" transform="translate(483.361,56.944)"><circle r="2.5" /></g><g id="node-10" transform="translate(498.389,55.401)"><circle r="2.5" /></g><g id="node-11" transform="translate(483.301,53.858)"><circle r="2.5" /></g><g id="node-12" transform="translate(495.113,52.315)"><circle r="2.5" /></g><g id="node-13" transform="translate(511.052,50.772)"><circle r="2.5" /></g><g id="node-14" transform="translate(489.120,49.228)"><circle r="2.5" /></g><g id="node-15" transform="translate(470.857,47.685)"><circle r="2.5" /></g><g id="node-16" transform="translate(481.109,46.142)"><circle r="2.5" /></g><g id="node-17" transform="translate(493.454,44.599)"><circle r="2.5" /></g><g id="node-18" transform="translate(507.413,43.056)"><circle r="2.5" /></g><g id="node-19" transform="translate(518.397,41.512)"><circle r="2.5" /></g><g id="node-20" transform="translate(530.263,39.969)"><circle r="2.5" /></g><g id="node-21" transform="translate(518.489,38.426)"><circle r="2.5" /></g><g id="node-22" transform="translate(489.056,36.883)"><circle r="2.5" /></g><g id="node-23" transform="translate(487.900,35.340)"><circle r="2.5" /></g><g id="node-24" transform="translate(481.585,33.796)"><circle r="2.5" /></g><g id="node-25" transform="translate(492.934,32.253)"><circle r="2.5" /></g><g id="node-26" transform="translate(475.900,30.710)"><circle r="2.5" /></g><g id="node-27" transform="translate(464.243,29.167)"><circle r="2.5" /></g><g id="node-28" transform="translate(483.826,70.062)"><circle r="0.0" /></g><g id="node-29" transform="translate(488.852,66.975)"><circle r="0.0" /></g><g id="node-30" transform="translate(478.668,68.519)"><circle r="0.0" /></g><g id="node-31" transform="translate(509.909,40.741)"><circle r="0.0" /></g><g id="node-32" transform="translate(468.313,66.590)"><circle r="0.0" /></g><g id="node-33" transform="translate(473.955,56.173)"><circle r="0.0" /></g><g id="node-34" transform="translate(477.598,51.543)"><circle r="0.0" /></g><g id="node-35" transform="translate(506.185,39.583)"><circle r="0.0" /></g><g id="node-36" transform="translate(465.686,64.853)"><circle r="0.0" /></g><g id="node-37" transform="translate(463.188,60.802)"><circle r="0.0" /></g><g id="node-38" transform="translate(468.533,55.015)"><circle r="0.0" /></g><g id="node-39" transform="translate(468.807,50.386)"><circle r="0.0" /></g><g id="node-40" transform="translate(483.331,38.233)"><circle r="0.0" /></g><g id="node-41" transform="translate(460.206,62.828)"><circle r="0.0" /></g><g id="node-42" transform="translate(463.820,52.701)"><circle r="0.0" /></g><g id="node-43" transform="translate(478.390,36.786)"><circle r="0.0" /></g><g id="node-44" transform="translate(459.344,60.658)"><circle r="0.0" /></g><g id="node-45" transform="translate(463.792,50.193)"><circle r="0.0" /></g><g id="node-46" transform="translate(464.822,35.291)"><circle r="0.0" /></g><g id="node-47" transform="translate(457.584,55.425)"><circle r="0.0" /></g><g id="node-48" transform="translate(459.842,33.772)"><circle r="0.0" /></g><g id="node-49" transform="translate(452.603,50.784)"><circle r="0.0" /></g><g id="node-50" transform="translate(465.715,43.827)"><circle r="0.0" /></g><g id="node-51" transform="translate(457.037,32.241)"><circle r="0.0" /></g><g id="node-52" transform="translate(449.076,47.305)"><circle r="0.0" /></g><g id="node-53" transform="translate(454.993,30.704)"><circle r="0.0" /></g><g id="node-54" transform="translate(445.000,39.005)"><circle r="0.0" /></g></g></g></g></g></svg>