<svg class="toyplot-canvas-Canvas" xmlns:toyplot="http://www.sandia.gov/toyplot" xmlns:xlink="http://www.w3.org/1999/xlink" xmlns="http://www.w3.org/2000/svg" width="560.0px" height="100.0px" viewBox="0 0 560.0 100.0" preserveAspectRatio="xMidYMid meet" style="background-color:transparent;border-color:#292724;border-style:none;border-width:1.0;fill:rgb(16.1%,15.3%,14.1%);fill-opacity:1.0;font-family:Helvetica;font-size:12px;opacity:1.0;stroke:rgb(16.1%,15.3%,14.1%);stroke-opacity:1.0;stroke-width:1.0" id="tf4fe76052ac145efa74ca375f0efdc86"><g class="toyplot-coordinates-Cartesian" id="td8f07d8391bb4c3cb3458b3312ff4190"><clipPath id="t0aeeefeb90f247d0b72e4f079b546d26"><rect x="15.0" y="15.0" width="110.0" height="70.0" /></clipPath><g clip-path="url(#t0aeeefeb90f247d0b72e4f079b546d26)"><g class="toytree-mark-Toytree" id="t64f4a8694b75474b9f75cb25359ea4d9"><g class="toytree-Edges" style="fill:none;stroke:rgb(14.9%,14.9%,14.9%);stroke-linecap:round;stroke-opacity:1;stroke-width:0.5"><path d="M 25.0 37.2 L 25.0 45.3 L 35.6 45.3" id="10,9" /><path d="M 35.6 45.3 L 35.6 53.1 L 70.3 53.1" id="9,8" /><path d="M 70.3 53.1 L 70.3 60.4 L 84.7 60.4" id="8,7" /><path d="M 84.7 60.4 L 84.7 66.7 L 96.7 66.7" id="7,6" /><path d="M 25.0 37.2 L 25.0 29.2 L 106.7 29.2" id="10,5" /><path d="M 35.6 45.3 L 35.6 37.5 L 108.4 37.5" id="9,4" /><path d="M 70.3 53.1 L 70.3 45.8 L 106.0 45.8" id="8,3" /><path d="M 84.7 60.4 L 84.7 54.2 L 105.9 54.2" id="7,2" /><path d="M 96.7 66.7 L 96.7 62.5 L 103.4 62.5" id="6,1" /><path d="M 96.7 66.7 L 96.7 70.8 L 110.3 70.8" id="6,0" /></g><g class="toytree-Nodes" style="fill:rgb(100%,0%,0%);fill-opacity:1.0;stroke:None;stroke-width:1"><g id="node-0" transform="translate(110.263,70.833)"><circle r="2.5" /></g><g id="node-1" transform="translate(103.398,62.500)"><circle r="2.5" /></g><g id="node-2" transform="translate(105.920,54.167)"><circle r="2.5" /></g><g id="node-3" transform="translate(105.978,45.833)"><circle r="2.5" /></g><g id="node-4" transform="translate(108.444,37.500)"><circle r="2.5" /></g><g id="node-5" transform="translate(106.734,29.167)"><circle r="2.5" /></g><g id="node-6" transform="translate(96.734,66.667)"><circle r="0.0" /></g><g id="node-7" transform="translate(84.715,60.417)"><circle r="0.0" /></g><g id="node-8" transform="translate(70.348,53.125)"><circle r="0.0" /></g><g id="node-9" transform="translate(35.599,45.312)"><circle r="0.0" /></g><g id="node-10" transform="translate(25.000,37.240)"><circle r="0.0" /></g></g></g></g></g><g class="toyplot-coordinates-Cartesian" id="tb97cbdb496034d80ad372bbfb09a8fd2"><clipPath id="t39e1baf746354eecac49ab97afa95f9f"><rect x="155.0" y="15.0" width="110.0" height="70.0" /></clipPath><g clip-path="url(#t39e1baf746354eecac49ab97afa95f9f)"><g class="toytree-mark-Toytree" id="t08ed0bba532f42a28ff82beed865b287"><g class="toytree-Edges" style="fill:none;stroke:rgb(14.9%,14.9%,14.9%);stroke-linecap:round;stroke-opacity:1;stroke-width:0.5"><path d="M 165.0 37.2 L 165.0 45.3 L 183.3 45.3" id="10,9" /><path d="M 183.3 45.3 L 183.3 53.1 L 184.6 53.1" id="9,8" /><path d="M 184.6 53.1 L 184.6 60.4 L 186.4 60.4" id="8,7" /><path d="M 186.4 60.4 L 186.4 66.7 L 191.5 66.7" id="7,6" /><path d="M 165.0 37.2 L 165.0 29.2 L 248.6 29.2" id="10,5" /><path d="M 183.3 45.3 L 183.3 37.5 L 247.1 37.5" id="9,4" /><path d="M 184.6 53.1 L 184.6 45.8 L 250.1 45.8" id="8,3" /><path d="M 186.4 60.4 L 186.4 54.2 L 246.4 54.2" id="7,2" /><path d="M 191.5 66.7 L 191.5 62.5 L 249.1 62.5" id="6,1" /><path d="M 191.5 66.7 L 191.5 70.8 L 250.3 70.8" id="6,0" /></g><g class="toytree-Nodes" style="fill:rgb(100%,0%,0%);fill-opacity:1.0;stroke:None;stroke-width:1"><g id="node-0" transform="translate(250.263,70.833)"><circle r="2.5" /></g><g id="node-1" transform="translate(249.081,62.500)"><circle r="2.5" /></g><g id="node-2" transform="translate(246.444,54.167)"><circle r="2.5" /></g><g id="node-3" transform="translate(250.137,45.833)"><circle r="2.5" /></g><g id="node-4" transform="translate(247.082,37.500)"><circle r="2.5" /></g><g id="node-5" transform="translate(248.572,29.167)"><circle r="2.5" /></g><g id="node-6" transform="translate(191.529,66.667)"><circle r="0.0" /></g><g id="node-7" transform="translate(186.382,60.417)"><circle r="0.0" /></g><g id="node-8" transform="translate(184.642,53.125)"><circle r="0.0" /></g><g id="node-9" transform="translate(183.321,45.312)"><circle r="0.0" /></g><g id="node-10" transform="translate(165.000,37.240)"><circle r="0.0" /></g></g></g></g></g><g class="toyplot-coordinates-Cartesian" id="t99fe3c0fdcea493b9f135832e61a0ab3"><clipPath id="tc34e087c3ddb4e0984b21422d235d4d8"><rect x="295.0" y="15.0" width="110.0" height="70.0" /></clipPath><g clip-path="url(#tc34e087c3ddb4e0984b21422d235d4d8)"><g class="toytree-mark-Toytree" id="t44c5b612e12444ea94c4ba068edfe2c8"><g class="toytree-Edges" style="fill:none;stroke:rgb(14.9%,14.9%,14.9%);stroke-linecap:round;stroke-opacity:1;stroke-width:0.5"><path d="M 305.0 43.2 L 305.0 33.3 L 311.3 33.3" id="10,9" /><path d="M 305.0 43.2 L 305.0 53.1 L 317.4 53.1" id="10,8" /><path d="M 317.4 53.1 L 317.4 60.4 L 331.4 60.4" id="8,7" /><path d="M 331.4 60.4 L 331.4 66.7 L 346.0 66.7" id="7,6" /><path d="M 311.3 33.3 L 311.3 29.2 L 360.9 29.2" id="9,5" /><path d="M 311.3 33.3 L 311.3 37.5 L 390.3 37.5" id="9,4" /><path d="M 317.4 53.1 L 317.4 45.8 L 365.5 45.8" id="8,3" /><path d="M 331.4 60.4 L 331.4 54.2 L 369.9 54.2" id="7,2" /><path d="M 346.0 66.7 L 346.0 62.5 L 380.9 62.5" id="6,1" /><path d="M 346.0 66.7 L 346.0 70.8 L 375.7 70.8" id="6,0" /></g><g class="toytree-Nodes" style="fill:rgb(100%,0%,0%);fill-opacity:1.0;stroke:None;stroke-width:1"><g id="node-0" transform="translate(375.680,70.833)"><circle r="2.5" /></g><g id="node-1" transform="translate(380.881,62.500)"><circle r="2.5" /></g><g id="node-2" transform="translate(369.872,54.167)"><circle r="2.5" /></g><g id="node-3" transform="translate(365.527,45.833)"><circle r="2.5" /></g><g id="node-4" transform="translate(390.263,37.500)"><circle r="2.5" /></g><g id="node-5" transform="translate(360.901,29.167)"><circle r="2.5" /></g><g id="node-6" transform="translate(345.960,66.667)"><circle r="0.0" /></g><g id="node-7" transform="translate(331.412,60.417)"><circle r="0.0" /></g><g id="node-8" transform="translate(317.429,53.125)"><circle r="0.0" /></g><g id="node-9" transform="translate(311.274,33.333)"><circle r="0.0" /></g><g id="node-10" transform="translate(305.000,43.229)"><circle r="0.0" /></g></g></g></g></g><g class="toyplot-coordinates-Cartesian" id="t2dc202a1ea2a422399b981542d46f84e"><clipPath id="tb8ce5ffa6226413ba6e3aef4d2eaf9f7"><rect x="435.0" y="15.0" width="110.0" height="70.0" /></clipPath><g clip-path="url(#tb8ce5ffa6226413ba6e3aef4d2eaf9f7)"><g class="toytree-mark-Toytree" id="t4348a338a92e4967aac914400f5610fc"><g class="toytree-Edges" style="fill:none;stroke:rgb(14.9%,14.9%,14.9%);stroke-linecap:round;stroke-opacity:1;stroke-width:0.5"><path d="M 445.0 38.5 L 445.0 47.9 L 462.4 47.9" id="10,9" /><path d="M 462.4 47.9 L 462.4 58.3 L 504.4 58.3" id="9,8" /><path d="M 504.4 58.3 L 504.4 50.0 L 511.5 50.0" id="8,7" /><path d="M 504.4 58.3 L 504.4 66.7 L 505.8 66.7" id="8,6" /><path d="M 445.0 38.5 L 445.0 29.2 L 517.5 29.2" id="10,5" /><path d="M 462.4 47.9 L 462.4 37.5 L 530.3 37.5" id="9,4" /><path d="M 511.5 50.0 L 511.5 45.8 L 517.6 45.8" id="7,3" /><path d="M 511.5 50.0 L 511.5 54.2 L 514.0 54.2" id="7,2" /><path d="M 505.8 66.7 L 505.8 62.5 L 514.0 62.5" id="6,1" /><path d="M 505.8 66.7 L 505.8 70.8 L 514.2 70.8" id="6,0" /></g><g class="toytree-Nodes" style="fill:rgb(100%,0%,0%);fill-opacity:1.0;stroke:None;stroke-width:1"><g id="node-0" transform="translate(514.173,70.833)"><circle r="2.5" /></g><g id="node-1" transform="translate(513.954,62.500)"><circle r="2.5" /></g><g id="node-2" transform="translate(513.973,54.167)"><circle r="2.5" /></g><g id="node-3" transform="translate(517.608,45.833)"><circle r="2.5" /></g><g id="node-4" transform="translate(530.263,37.500)"><circle r="2.5" /></g><g id="node-5" transform="translate(517.495,29.167)"><circle r="2.5" /></g><g id="node-6" transform="translate(505.757,66.667)"><circle r="0.0" /></g><g id="node-7" transform="translate(511.512,50.000)"><circle r="0.0" /></g><g id="node-8" transform="translate(504.385,58.333)"><circle r="0.0" /></g><g id="node-9" transform="translate(462.355,47.917)"><circle r="0.0" /></g><g id="node-10" transform="translate(445.000,38.542)"><circle r="0.0" /></g></g></g></g></g></svg>