<svg class="toyplot-canvas-Canvas" xmlns:toyplot="http://www.sandia.gov/toyplot" xmlns:xlink="http://www.w3.org/1999/xlink" xmlns="http://www.w3.org/2000/svg" width="560.0px" height="100.0px" viewBox="0 0 560.0 100.0" preserveAspectRatio="xMidYMid meet" style="background-color:transparent;border-color:#292724;border-style:none;border-width:1.0;fill:rgb(16.1%,15.3%,14.1%);fill-opacity:1.0;font-family:Helvetica;font-size:12px;opacity:1.0;stroke:rgb(16.1%,15.3%,14.1%);stroke-opacity:1.0;stroke-width:1.0" id="t9191b43eb2d64863a5befa3a0fe1d5df"><g class="toyplot-coordinates-Cartesian" id="te03fbc4eeb854b58b5bd124fd948e995"><clipPath id="t8a2af5adcbf0490fb78938ed6613a546"><rect x="15.0" y="15.0" width="110.0" height="70.0" /></clipPath><g clip-path="url(#t8a2af5adcbf0490fb78938ed6613a546)"><g class="toytree-mark-Toytree" id="t7b5d85bcaf714fb980bc485c9d12eba8"><g class="toytree-Edges" style="fill:none;stroke:rgb(14.9%,14.9%,14.9%);stroke-linecap:round;stroke-opacity:1;stroke-width:0.5"><path d="M 25.0 31.9 L 25.0 34.7 L 27.8 34.7" id="38,37" /><path d="M 27.8 34.7 L 27.8 38.1 L 28.3 38.1" id="37,36" /><path d="M 28.3 38.1 L 28.3 34.6 L 39.5 34.6" id="36,35" /><path d="M 28.3 38.1 L 28.3 41.5 L 30.9 41.5" id="36,34" /><path d="M 30.9 41.5 L 30.9 45.1 L 35.5 45.1" id="34,33" /><path d="M 35.5 45.1 L 35.5 41.2 L 38.2 41.2" id="33,32" /><path d="M 35.5 45.1 L 35.5 48.9 L 39.5 48.9" id="33,31" /><path d="M 39.5 48.9 L 39.5 53.2 L 50.1 53.2" id="31,30" /><path d="M 50.1 53.2 L 50.1 48.6 L 50.8 48.6" id="30,29" /><path d="M 50.1 53.2 L 50.1 57.8 L 54.1 57.8" id="30,28" /><path d="M 50.8 48.6 L 50.8 50.5 L 53.9 50.5" id="29,27" /><path d="M 54.1 57.8 L 54.1 60.2 L 65.0 60.2" id="28,26" /><path d="M 53.9 50.5 L 53.9 52.2 L 58.4 52.2" id="27,25" /><path d="M 65.0 60.2 L 65.0 62.7 L 74.2 62.7" id="26,24" /><path d="M 74.2 62.7 L 74.2 65.6 L 76.7 65.6" id="24,23" /><path d="M 76.7 65.6 L 76.7 63.2 L 90.4 63.2" id="23,22" /><path d="M 76.7 65.6 L 76.7 68.1 L 92.0 68.1" id="23,21" /><path d="M 92.0 68.1 L 92.0 69.7 L 107.7 69.7" id="21,20" /><path d="M 25.0 31.9 L 25.0 29.2 L 99.9 29.2" id="38,19" /><path d="M 27.8 34.7 L 27.8 31.4 L 92.5 31.4" id="37,18" /><path d="M 39.5 34.6 L 39.5 33.6 L 98.7 33.6" id="35,17" /><path d="M 39.5 34.6 L 39.5 35.7 L 97.6 35.7" id="35,16" /><path d="M 30.9 41.5 L 30.9 37.9 L 99.3 37.9" id="34,15" /><path d="M 38.2 41.2 L 38.2 40.1 L 95.3 40.1" id="32,14" /><path d="M 38.2 41.2 L 38.2 42.3 L 97.0 42.3" id="32,13" /><path d="M 39.5 48.9 L 39.5 44.5 L 101.2 44.5" id="31,12" /><path d="M 50.8 48.6 L 50.8 46.7 L 99.2 46.7" id="29,11" /><path d="M 53.9 50.5 L 53.9 48.9 L 99.8 48.9" id="27,10" /><path d="M 58.4 52.2 L 58.4 51.1 L 98.2 51.1" id="25,9" /><path d="M 58.4 52.2 L 58.4 53.3 L 99.2 53.3" id="25,8" /><path d="M 54.1 57.8 L 54.1 55.5 L 100.8 55.5" id="28,7" /><path d="M 65.0 60.2 L 65.0 57.7 L 102.3 57.7" id="26,6" /><path d="M 74.2 62.7 L 74.2 59.9 L 98.7 59.9" id="24,5" /><path d="M 90.4 63.2 L 90.4 62.1 L 100.7 62.1" id="22,4" /><path d="M 90.4 63.2 L 90.4 64.3 L 101.4 64.3" id="22,3" /><path d="M 92.0 68.1 L 92.0 66.4 L 99.8 66.4" id="21,2" /><path d="M 107.7 69.7 L 107.7 68.6 L 110.1 68.6" id="20,1" /><path d="M 107.7 69.7 L 107.7 70.8 L 110.3 70.8" id="20,0" /></g><g class="toytree-Nodes" style="fill:rgb(100%,0%,0%);fill-opacity:1.0;stroke:None;stroke-width:1"><g id="node-0" transform="translate(110.263,70.833)"><circle r="2.5" /></g><g id="node-1" transform="translate(110.054,68.640)"><circle r="2.5" /></g><g id="node-2" transform="translate(99.756,66.447)"><circle r="2.5" /></g><g id="node-3" transform="translate(101.408,64.254)"><circle r="2.5" /></g><g id="node-4" transform="translate(100.728,62.061)"><circle r="2.5" /></g><g id="node-5" transform="translate(98.727,59.868)"><circle r="2.5" /></g><g id="node-6" transform="translate(102.328,57.675)"><circle r="2.5" /></g><g id="node-7" transform="translate(100.831,55.482)"><circle r="2.5" /></g><g id="node-8" transform="translate(99.160,53.289)"><circle r="2.5" /></g><g id="node-9" transform="translate(98.156,51.096)"><circle r="2.5" /></g><g id="node-10" transform="translate(99.819,48.904)"><circle r="2.5" /></g><g id="node-11" transform="translate(99.205,46.711)"><circle r="2.5" /></g><g id="node-12" transform="translate(101.232,44.518)"><circle r="2.5" /></g><g id="node-13" transform="translate(97.015,42.325)"><circle r="2.5" /></g><g id="node-14" transform="translate(95.328,40.132)"><circle r="2.5" /></g><g id="node-15" transform="translate(99.332,37.939)"><circle r="2.5" /></g><g id="node-16" transform="translate(97.598,35.746)"><circle r="2.5" /></g><g id="node-17" transform="translate(98.662,33.553)"><circle r="2.5" /></g><g id="node-18" transform="translate(92.530,31.360)"><circle r="2.5" /></g><g id="node-19" transform="translate(99.899,29.167)"><circle r="2.5" /></g><g id="node-20" transform="translate(107.732,69.737)"><circle r="0.0" /></g><g id="node-21" transform="translate(92.007,68.092)"><circle r="0.0" /></g><g id="node-22" transform="translate(90.381,63.158)"><circle r="0.0" /></g><g id="node-23" transform="translate(76.709,65.625)"><circle r="0.0" /></g><g id="node-24" transform="translate(74.234,62.747)"><circle r="0.0" /></g><g id="node-25" transform="translate(58.431,52.193)"><circle r="0.0" /></g><g id="node-26" transform="translate(64.994,60.211)"><circle r="0.0" /></g><g id="node-27" transform="translate(53.925,50.548)"><circle r="0.0" /></g><g id="node-28" transform="translate(54.139,57.847)"><circle r="0.0" /></g><g id="node-29" transform="translate(50.828,48.629)"><circle r="0.0" /></g><g id="node-30" transform="translate(50.081,53.238)"><circle r="0.0" /></g><g id="node-31" transform="translate(39.536,48.878)"><circle r="0.0" /></g><g id="node-32" transform="translate(38.211,41.228)"><circle r="0.0" /></g><g id="node-33" transform="translate(35.487,45.053)"><circle r="0.0" /></g><g id="node-34" transform="translate(30.897,41.496)"><circle r="0.0" /></g><g id="node-35" transform="translate(39.516,34.649)"><circle r="0.0" /></g><g id="node-36" transform="translate(28.323,38.072)"><circle r="0.0" /></g><g id="node-37" transform="translate(27.849,34.716)"><circle r="0.0" /></g><g id="node-38" transform="translate(25.000,31.941)"><circle r="0.0" /></g></g></g></g></g><g class="toyplot-coordinates-Cartesian" id="tef59c73116994a03a1e15f3a854d5af1"><clipPath id="t5d01ddb41c7d4f3dab7e82cbde5a80a8"><rect x="155.0" y="15.0" width="110.0" height="70.0" /></clipPath><g clip-path="url(#t5d01ddb41c7d4f3dab7e82cbde5a80a8)"><g class="toytree-mark-Toytree" id="t7138dffa3c5e4ce78551d32a6a401b7f"><g class="toytree-Edges" style="fill:none;stroke:rgb(14.9%,14.9%,14.9%);stroke-linecap:round;stroke-opacity:1;stroke-width:0.5"><path d="M 165.0 35.7 L 165.0 30.8 L 170.3 30.8" id="38,37" /><path d="M 165.0 35.7 L 165.0 40.5 L 168.7 40.5" id="38,36" /><path d="M 170.3 30.8 L 170.3 32.5 L 192.5 32.5" id="37,35" /><path d="M 168.7 40.5 L 168.7 36.8 L 177.3 36.8" id="36,34" /><path d="M 168.7 40.5 L 168.7 44.2 L 175.0 44.2" id="36,33" /><path d="M 175.0 44.2 L 175.0 48.2 L 178.1 48.2" id="33,32" /><path d="M 178.1 48.2 L 178.1 43.4 L 179.2 43.4" id="32,31" /><path d="M 178.1 48.2 L 178.1 52.9 L 182.1 52.9" id="32,30" /><path d="M 182.1 52.9 L 182.1 48.4 L 187.9 48.4" id="30,29" /><path d="M 182.1 52.9 L 182.1 57.5 L 183.7 57.5" id="30,28" /><path d="M 187.9 48.4 L 187.9 50.0 L 194.4 50.0" id="29,27" /><path d="M 183.7 57.5 L 183.7 54.4 L 190.0 54.4" id="28,26" /><path d="M 183.7 57.5 L 183.7 60.6 L 189.9 60.6" id="28,25" /><path d="M 189.9 60.6 L 189.9 63.6 L 193.8 63.6" id="25,24" /><path d="M 193.8 63.6 L 193.8 61.0 L 203.1 61.0" id="24,23" /><path d="M 193.8 63.6 L 193.8 66.2 L 199.8 66.2" id="24,22" /><path d="M 199.8 66.2 L 199.8 68.1 L 201.8 68.1" id="22,21" /><path d="M 201.8 68.1 L 201.8 69.7 L 206.2 69.7" id="21,20" /><path d="M 170.3 30.8 L 170.3 29.2 L 219.8 29.2" id="37,19" /><path d="M 192.5 32.5 L 192.5 31.4 L 223.3 31.4" id="35,18" /><path d="M 192.5 32.5 L 192.5 33.6 L 225.0 33.6" id="35,17" /><path d="M 177.3 36.8 L 177.3 35.7 L 219.8 35.7" id="34,16" /><path d="M 177.3 36.8 L 177.3 37.9 L 215.3 37.9" id="34,15" /><path d="M 175.0 44.2 L 175.0 40.1 L 218.0 40.1" id="33,14" /><path d="M 179.2 43.4 L 179.2 42.3 L 215.7 42.3" id="31,13" /><path d="M 179.2 43.4 L 179.2 44.5 L 230.1 44.5" id="31,12" /><path d="M 187.9 48.4 L 187.9 46.7 L 217.9 46.7" id="29,11" /><path d="M 194.4 50.0 L 194.4 48.9 L 209.4 48.9" id="27,10" /><path d="M 194.4 50.0 L 194.4 51.1 L 250.3 51.1" id="27,9" /><path d="M 190.0 54.4 L 190.0 53.3 L 226.2 53.3" id="26,8" /><path d="M 190.0 54.4 L 190.0 55.5 L 231.2 55.5" id="26,7" /><path d="M 189.9 60.6 L 189.9 57.7 L 221.8 57.7" id="25,6" /><path d="M 203.1 61.0 L 203.1 59.9 L 220.1 59.9" id="23,5" /><path d="M 203.1 61.0 L 203.1 62.1 L 224.3 62.1" id="23,4" /><path d="M 199.8 66.2 L 199.8 64.3 L 222.9 64.3" id="22,3" /><path d="M 201.8 68.1 L 201.8 66.4 L 230.5 66.4" id="21,2" /><path d="M 206.2 69.7 L 206.2 68.6 L 229.0 68.6" id="20,1" /><path d="M 206.2 69.7 L 206.2 70.8 L 222.4 70.8" id="20,0" /></g><g class="toytree-Nodes" style="fill:rgb(100%,0%,0%);fill-opacity:1.0;stroke:None;stroke-width:1"><g id="node-0" transform="translate(222.408,70.833)"><circle r="2.5" /></g><g id="node-1" transform="translate(229.038,68.640)"><circle r="2.5" /></g><g id="node-2" transform="translate(230.457,66.447)"><circle r="2.5" /></g><g id="node-3" transform="translate(222.890,64.254)"><circle r="2.5" /></g><g id="node-4" transform="translate(224.318,62.061)"><circle r="2.5" /></g><g id="node-5" transform="translate(220.127,59.868)"><circle r="2.5" /></g><g id="node-6" transform="translate(221.765,57.675)"><circle r="2.5" /></g><g id="node-7" transform="translate(231.207,55.482)"><circle r="2.5" /></g><g id="node-8" transform="translate(226.215,53.289)"><circle r="2.5" /></g><g id="node-9" transform="translate(250.263,51.096)"><circle r="2.5" /></g><g id="node-10" transform="translate(209.357,48.904)"><circle r="2.5" /></g><g id="node-11" transform="translate(217.868,46.711)"><circle r="2.5" /></g><g id="node-12" transform="translate(230.138,44.518)"><circle r="2.5" /></g><g id="node-13" transform="translate(215.678,42.325)"><circle r="2.5" /></g><g id="node-14" transform="translate(217.971,40.132)"><circle r="2.5" /></g><g id="node-15" transform="translate(215.315,37.939)"><circle r="2.5" /></g><g id="node-16" transform="translate(219.799,35.746)"><circle r="2.5" /></g><g id="node-17" transform="translate(225.042,33.553)"><circle r="2.5" /></g><g id="node-18" transform="translate(223.309,31.360)"><circle r="2.5" /></g><g id="node-19" transform="translate(219.760,29.167)"><circle r="2.5" /></g><g id="node-20" transform="translate(206.171,69.737)"><circle r="0.0" /></g><g id="node-21" transform="translate(201.791,68.092)"><circle r="0.0" /></g><g id="node-22" transform="translate(199.833,66.173)"><circle r="0.0" /></g><g id="node-23" transform="translate(203.101,60.965)"><circle r="0.0" /></g><g id="node-24" transform="translate(193.823,63.569)"><circle r="0.0" /></g><g id="node-25" transform="translate(189.866,60.622)"><circle r="0.0" /></g><g id="node-26" transform="translate(189.952,54.386)"><circle r="0.0" /></g><g id="node-27" transform="translate(194.393,50.000)"><circle r="0.0" /></g><g id="node-28" transform="translate(183.705,57.504)"><circle r="0.0" /></g><g id="node-29" transform="translate(187.861,48.355)"><circle r="0.0" /></g><g id="node-30" transform="translate(182.088,52.930)"><circle r="0.0" /></g><g id="node-31" transform="translate(179.234,43.421)"><circle r="0.0" /></g><g id="node-32" transform="translate(178.109,48.175)"><circle r="0.0" /></g><g id="node-33" transform="translate(174.987,44.153)"><circle r="0.0" /></g><g id="node-34" transform="translate(177.290,36.842)"><circle r="0.0" /></g><g id="node-35" transform="translate(192.487,32.456)"><circle r="0.0" /></g><g id="node-36" transform="translate(168.740,40.498)"><circle r="0.0" /></g><g id="node-37" transform="translate(170.253,30.811)"><circle r="0.0" /></g><g id="node-38" transform="translate(165.000,35.655)"><circle r="0.0" /></g></g></g></g></g><g class="toyplot-coordinates-Cartesian" id="t0282f05b8e05419baf370b4b96fb4906"><clipPath id="t7e6d3f58d88f4bb39bca52b53156f18e"><rect x="295.0" y="15.0" width="110.0" height="70.0" /></clipPath><g clip-path="url(#t7e6d3f58d88f4bb39bca52b53156f18e)"><g class="toytree-mark-Toytree" id="t11e6571afa0146a69885bb0b9c7a8d6b"><g class="toytree-Edges" style="fill:none;stroke:rgb(14.9%,14.9%,14.9%);stroke-linecap:round;stroke-opacity:1;stroke-width:0.5"><path d="M 305.0 33.8 L 305.0 30.3 L 322.6 30.3" id="38,37" /><path d="M 305.0 33.8 L 305.0 37.3 L 307.8 37.3" id="38,36" /><path d="M 307.8 37.3 L 307.8 41.1 L 310.4 41.1" id="36,35" /><path d="M 310.4 41.1 L 310.4 36.8 L 319.0 36.8" id="35,34" /><path d="M 310.4 41.1 L 310.4 45.3 L 315.9 45.3" id="35,33" /><path d="M 315.9 45.3 L 315.9 41.2 L 316.2 41.2" id="33,32" /><path d="M 315.9 45.3 L 315.9 49.3 L 319.2 49.3" id="33,31" /><path d="M 319.2 49.3 L 319.2 54.2 L 333.1 54.2" id="31,30" /><path d="M 333.1 54.2 L 333.1 50.0 L 337.6 50.0" id="30,29" /><path d="M 333.1 54.2 L 333.1 58.4 L 334.4 58.4" id="30,28" /><path d="M 337.6 50.0 L 337.6 47.8 L 339.8 47.8" id="29,27" /><path d="M 337.6 50.0 L 337.6 52.2 L 341.1 52.2" id="29,26" /><path d="M 334.4 58.4 L 334.4 61.2 L 340.6 61.2" id="28,25" /><path d="M 340.6 61.2 L 340.6 64.8 L 346.4 64.8" id="25,24" /><path d="M 346.4 64.8 L 346.4 61.5 L 347.9 61.5" id="24,23" /><path d="M 346.4 64.8 L 346.4 68.1 L 351.2 68.1" id="24,22" /><path d="M 347.9 61.5 L 347.9 63.2 L 354.6 63.2" id="23,21" /><path d="M 351.2 68.1 L 351.2 69.7 L 359.6 69.7" id="22,20" /><path d="M 322.6 30.3 L 322.6 29.2 L 370.8 29.2" id="37,19" /><path d="M 322.6 30.3 L 322.6 31.4 L 365.2 31.4" id="37,18" /><path d="M 307.8 37.3 L 307.8 33.6 L 362.5 33.6" id="36,17" /><path d="M 319.0 36.8 L 319.0 35.7 L 365.0 35.7" id="34,16" /><path d="M 319.0 36.8 L 319.0 37.9 L 390.3 37.9" id="34,15" /><path d="M 316.2 41.2 L 316.2 40.1 L 365.7 40.1" id="32,14" /><path d="M 316.2 41.2 L 316.2 42.3 L 357.9 42.3" id="32,13" /><path d="M 319.2 49.3 L 319.2 44.5 L 358.3 44.5" id="31,12" /><path d="M 339.8 47.8 L 339.8 46.7 L 365.0 46.7" id="27,11" /><path d="M 339.8 47.8 L 339.8 48.9 L 369.2 48.9" id="27,10" /><path d="M 341.1 52.2 L 341.1 51.1 L 374.8 51.1" id="26,9" /><path d="M 341.1 52.2 L 341.1 53.3 L 363.6 53.3" id="26,8" /><path d="M 334.4 58.4 L 334.4 55.5 L 369.3 55.5" id="28,7" /><path d="M 340.6 61.2 L 340.6 57.7 L 366.3 57.7" id="25,6" /><path d="M 347.9 61.5 L 347.9 59.9 L 372.5 59.9" id="23,5" /><path d="M 354.6 63.2 L 354.6 62.1 L 367.5 62.1" id="21,4" /><path d="M 354.6 63.2 L 354.6 64.3 L 369.3 64.3" id="21,3" /><path d="M 351.2 68.1 L 351.2 66.4 L 366.9 66.4" id="22,2" /><path d="M 359.6 69.7 L 359.6 68.6 L 373.1 68.6" id="20,1" /><path d="M 359.6 69.7 L 359.6 70.8 L 378.0 70.8" id="20,0" /></g><g class="toytree-Nodes" style="fill:rgb(100%,0%,0%);fill-opacity:1.0;stroke:None;stroke-width:1"><g id="node-0" transform="translate(378.039,70.833)"><circle r="2.5" /></g><g id="node-1" transform="translate(373.094,68.640)"><circle r="2.5" /></g><g id="node-2" transform="translate(366.862,66.447)"><circle r="2.5" /></g><g id="node-3" transform="translate(369.331,64.254)"><circle r="2.5" /></g><g id="node-4" transform="translate(367.530,62.061)"><circle r="2.5" /></g><g id="node-5" transform="translate(372.482,59.868)"><circle r="2.5" /></g><g id="node-6" transform="translate(366.316,57.675)"><circle r="2.5" /></g><g id="node-7" transform="translate(369.338,55.482)"><circle r="2.5" /></g><g id="node-8" transform="translate(363.608,53.289)"><circle r="2.5" /></g><g id="node-9" transform="translate(374.847,51.096)"><circle r="2.5" /></g><g id="node-10" transform="translate(369.172,48.904)"><circle r="2.5" /></g><g id="node-11" transform="translate(365.047,46.711)"><circle r="2.5" /></g><g id="node-12" transform="translate(358.332,44.518)"><circle r="2.5" /></g><g id="node-13" transform="translate(357.896,42.325)"><circle r="2.5" /></g><g id="node-14" transform="translate(365.652,40.132)"><circle r="2.5" /></g><g id="node-15" transform="translate(390.263,37.939)"><circle r="2.5" /></g><g id="node-16" transform="translate(365.010,35.746)"><circle r="2.5" /></g><g id="node-17" transform="translate(362.527,33.553)"><circle r="2.5" /></g><g id="node-18" transform="translate(365.200,31.360)"><circle r="2.5" /></g><g id="node-19" transform="translate(370.765,29.167)"><circle r="2.5" /></g><g id="node-20" transform="translate(359.571,69.737)"><circle r="0.0" /></g><g id="node-21" transform="translate(354.649,63.158)"><circle r="0.0" /></g><g id="node-22" transform="translate(351.206,68.092)"><circle r="0.0" /></g><g id="node-23" transform="translate(347.948,61.513)"><circle r="0.0" /></g><g id="node-24" transform="translate(346.424,64.803)"><circle r="0.0" /></g><g id="node-25" transform="translate(340.550,61.239)"><circle r="0.0" /></g><g id="node-26" transform="translate(341.148,52.193)"><circle r="0.0" /></g><g id="node-27" transform="translate(339.768,47.807)"><circle r="0.0" /></g><g id="node-28" transform="translate(334.374,58.361)"><circle r="0.0" /></g><g id="node-29" transform="translate(337.598,50.000)"><circle r="0.0" /></g><g id="node-30" transform="translate(333.149,54.180)"><circle r="0.0" /></g><g id="node-31" transform="translate(319.194,49.349)"><circle r="0.0" /></g><g id="node-32" transform="translate(316.186,41.228)"><circle r="0.0" /></g><g id="node-33" transform="translate(315.865,45.289)"><circle r="0.0" /></g><g id="node-34" transform="translate(319.042,36.842)"><circle r="0.0" /></g><g id="node-35" transform="translate(310.390,41.065)"><circle r="0.0" /></g><g id="node-36" transform="translate(307.829,37.309)"><circle r="0.0" /></g><g id="node-37" transform="translate(322.598,30.263)"><circle r="0.0" /></g><g id="node-38" transform="translate(305.000,33.786)"><circle r="0.0" /></g></g></g></g></g><g class="toyplot-coordinates-Cartesian" id="t096bf4950fe2470db0bc1d3430c1e373"><clipPath id="tdc57f135712e4c4481f7fac6fae8cb98"><rect x="435.0" y="15.0" width="110.0" height="70.0" /></clipPath><g clip-path="url(#tdc57f135712e4c4481f7fac6fae8cb98)"><g class="toytree-mark-Toytree" id="t8ebeffe903d549858bf62bd8dba8f293"><g class="toytree-Edges" style="fill:none;stroke:rgb(14.9%,14.9%,14.9%);stroke-linecap:round;stroke-opacity:1;stroke-width:0.5"><path d="M 445.0 36.1 L 445.0 31.1 L 449.1 31.1" id="38,37" /><path d="M 445.0 36.1 L 445.0 41.2 L 449.1 41.2" id="38,36" /><path d="M 449.1 31.1 L 449.1 33.0 L 450.8 33.0" id="37,35" /><path d="M 449.1 41.2 L 449.1 44.4 L 461.5 44.4" id="36,34" /><path d="M 450.8 33.0 L 450.8 34.6 L 473.7 34.6" id="35,33" /><path d="M 461.5 44.4 L 461.5 41.2 L 465.8 41.2" id="34,32" /><path d="M 461.5 44.4 L 461.5 47.5 L 468.5 47.5" id="34,31" /><path d="M 468.5 47.5 L 468.5 50.5 L 480.1 50.5" id="31,30" /><path d="M 480.1 50.5 L 480.1 54.3 L 485.3 54.3" id="30,29" /><path d="M 485.3 54.3 L 485.3 50.5 L 489.6 50.5" id="29,28" /><path d="M 485.3 54.3 L 485.3 58.1 L 492.5 58.1" id="29,27" /><path d="M 489.6 50.5 L 489.6 52.2 L 492.5 52.2" id="28,26" /><path d="M 492.5 58.1 L 492.5 60.6 L 502.2 60.6" id="27,25" /><path d="M 502.2 60.6 L 502.2 63.6 L 507.8 63.6" id="25,24" /><path d="M 507.8 63.6 L 507.8 61.0 L 511.8 61.0" id="24,23" /><path d="M 507.8 63.6 L 507.8 66.2 L 509.6 66.2" id="24,22" /><path d="M 509.6 66.2 L 509.6 68.1 L 514.0 68.1" id="22,21" /><path d="M 514.0 68.1 L 514.0 69.7 L 514.2 69.7" id="21,20" /><path d="M 449.1 31.1 L 449.1 29.2 L 492.5 29.2" id="37,19" /><path d="M 450.8 33.0 L 450.8 31.4 L 530.3 31.4" id="35,18" /><path d="M 473.7 34.6 L 473.7 33.6 L 504.1 33.6" id="33,17" /><path d="M 473.7 34.6 L 473.7 35.7 L 509.5 35.7" id="33,16" /><path d="M 449.1 41.2 L 449.1 37.9 L 493.1 37.9" id="36,15" /><path d="M 465.8 41.2 L 465.8 40.1 L 499.1 40.1" id="32,14" /><path d="M 465.8 41.2 L 465.8 42.3 L 489.2 42.3" id="32,13" /><path d="M 468.5 47.5 L 468.5 44.5 L 510.0 44.5" id="31,12" /><path d="M 480.1 50.5 L 480.1 46.7 L 495.7 46.7" id="30,11" /><path d="M 489.6 50.5 L 489.6 48.9 L 511.8 48.9" id="28,10" /><path d="M 492.5 52.2 L 492.5 51.1 L 506.7 51.1" id="26,9" /><path d="M 492.5 52.2 L 492.5 53.3 L 506.2 53.3" id="26,8" /><path d="M 492.5 58.1 L 492.5 55.5 L 509.2 55.5" id="27,7" /><path d="M 502.2 60.6 L 502.2 57.7 L 511.6 57.7" id="25,6" /><path d="M 511.8 61.0 L 511.8 59.9 L 514.1 59.9" id="23,5" /><path d="M 511.8 61.0 L 511.8 62.1 L 514.1 62.1" id="23,4" /><path d="M 509.6 66.2 L 509.6 64.3 L 516.4 64.3" id="22,3" /><path d="M 514.0 68.1 L 514.0 66.4 L 514.4 66.4" id="21,2" /><path d="M 514.2 69.7 L 514.2 68.6 L 514.4 68.6" id="20,1" /><path d="M 514.2 69.7 L 514.2 70.8 L 514.8 70.8" id="20,0" /></g><g class="toytree-Nodes" style="fill:rgb(100%,0%,0%);fill-opacity:1.0;stroke:None;stroke-width:1"><g id="node-0" transform="translate(514.783,70.833)"><circle r="2.5" /></g><g id="node-1" transform="translate(514.399,68.640)"><circle r="2.5" /></g><g id="node-2" transform="translate(514.369,66.447)"><circle r="2.5" /></g><g id="node-3" transform="translate(516.426,64.254)"><circle r="2.5" /></g><g id="node-4" transform="translate(514.134,62.061)"><circle r="2.5" /></g><g id="node-5" transform="translate(514.052,59.868)"><circle r="2.5" /></g><g id="node-6" transform="translate(511.645,57.675)"><circle r="2.5" /></g><g id="node-7" transform="translate(509.186,55.482)"><circle r="2.5" /></g><g id="node-8" transform="translate(506.200,53.289)"><circle r="2.5" /></g><g id="node-9" transform="translate(506.666,51.096)"><circle r="2.5" /></g><g id="node-10" transform="translate(511.777,48.904)"><circle r="2.5" /></g><g id="node-11" transform="translate(495.686,46.711)"><circle r="2.5" /></g><g id="node-12" transform="translate(509.973,44.518)"><circle r="2.5" /></g><g id="node-13" transform="translate(489.220,42.325)"><circle r="2.5" /></g><g id="node-14" transform="translate(499.060,40.132)"><circle r="2.5" /></g><g id="node-15" transform="translate(493.097,37.939)"><circle r="2.5" /></g><g id="node-16" transform="translate(509.537,35.746)"><circle r="2.5" /></g><g id="node-17" transform="translate(504.059,33.553)"><circle r="2.5" /></g><g id="node-18" transform="translate(530.263,31.360)"><circle r="2.5" /></g><g id="node-19" transform="translate(492.490,29.167)"><circle r="2.5" /></g><g id="node-20" transform="translate(514.240,69.737)"><circle r="0.0" /></g><g id="node-21" transform="translate(514.033,68.092)"><circle r="0.0" /></g><g id="node-22" transform="translate(509.569,66.173)"><circle r="0.0" /></g><g id="node-23" transform="translate(511.758,60.965)"><circle r="0.0" /></g><g id="node-24" transform="translate(507.823,63.569)"><circle r="0.0" /></g><g id="node-25" transform="translate(502.171,60.622)"><circle r="0.0" /></g><g id="node-26" transform="translate(492.481,52.193)"><circle r="0.0" /></g><g id="node-27" transform="translate(492.487,58.052)"><circle r="0.0" /></g><g id="node-28" transform="translate(489.608,50.548)"><circle r="0.0" /></g><g id="node-29" transform="translate(485.341,54.300)"><circle r="0.0" /></g><g id="node-30" transform="translate(480.128,50.505)"><circle r="0.0" /></g><g id="node-31" transform="translate(468.549,47.511)"><circle r="0.0" /></g><g id="node-32" transform="translate(465.751,41.228)"><circle r="0.0" /></g><g id="node-33" transform="translate(473.696,34.649)"><circle r="0.0" /></g><g id="node-34" transform="translate(461.534,44.370)"><circle r="0.0" /></g><g id="node-35" transform="translate(450.778,33.004)"><circle r="0.0" /></g><g id="node-36" transform="translate(449.148,41.154)"><circle r="0.0" /></g><g id="node-37" transform="translate(449.083,31.086)"><circle r="0.0" /></g><g id="node-38" transform="translate(445.000,36.120)"><circle r="0.0" /></g></g></g></g></g></svg>