<svg class="toyplot-canvas-Canvas" xmlns:toyplot="http://www.sandia.gov/toyplot" xmlns:xlink="http://www.w3.org/1999/xlink" xmlns="http://www.w3.org/2000/svg" width="560.0px" height="100.0px" viewBox="0 0 560.0 100.0" preserveAspectRatio="xMidYMid meet" style="background-color:transparent;border-color:#292724;border-style:none;border-width:1.0;fill:rgb(16.1%,15.3%,14.1%);fill-opacity:1.0;font-family:Helvetica;font-size:12px;opacity:1.0;stroke:rgb(16.1%,15.3%,14.1%);stroke-opacity:1.0;stroke-width:1.0" id="t22943b16d21f44cfb93b347c13f8803f"><g class="toyplot-coordinates-Cartesian" id="te84a026eb73241c89afab0f09fb93a13"><clipPath id="t38d31de8dd6b460b913d300776fcf111"><rect x="15.0" y="15.0" width="110.0" height="70.0" /></clipPath><g clip-path="url(#t38d31de8dd6b460b913d300776fcf111)"><g class="toytree-mark-Toytree" id="tc41541c5902b4991a5ea2c5254a63b84"><g class="toytree-Edges" style="fill:none;stroke:rgb(14.9%,14.9%,14.9%);stroke-linecap:round;stroke-opacity:1;stroke-width:0.5"><path d="M 25.0 39.2 L 25.0 32.4 L 26.0 32.4" id="86,85" /><path d="M 25.0 39.2 L 25.0 46.1 L 26.7 46.1" id="86,84" /><path d="M 26.0 32.4 L 26.0 30.0 L 28.0 30.0" id="85,83" /><path d="M 26.0 32.4 L 26.0 34.7 L 26.6 34.7" id="85,82" /><path d="M 26.7 46.1 L 26.7 41.3 L 29.8 41.3" id="84,81" /><path d="M 26.7 46.1 L 26.7 51.0 L 28.1 51.0" id="84,80" /><path d="M 28.0 30.0 L 28.0 30.9 L 30.5 30.9" id="83,79" /><path d="M 26.6 34.7 L 26.6 33.5 L 31.4 33.5" id="82,78" /><path d="M 26.6 34.7 L 26.6 35.9 L 29.0 35.9" id="82,77" /><path d="M 28.1 51.0 L 28.1 45.0 L 32.1 45.0" id="80,76" /><path d="M 28.1 51.0 L 28.1 56.9 L 32.2 56.9" id="80,75" /><path d="M 30.5 30.9 L 30.5 31.6 L 87.1 31.6" id="79,74" /><path d="M 29.0 35.9 L 29.0 36.9 L 32.0 36.9" id="77,73" /><path d="M 32.1 45.0 L 32.1 43.2 L 33.2 43.2" id="76,72" /><path d="M 32.1 45.0 L 32.1 46.8 L 32.7 46.8" id="76,71" /><path d="M 32.2 56.9 L 32.2 54.8 L 36.3 54.8" id="75,70" /><path d="M 32.2 56.9 L 32.2 58.9 L 34.1 58.9" id="75,69" /><path d="M 32.0 36.9 L 32.0 37.8 L 34.7 37.8" id="73,68" /><path d="M 32.7 46.8 L 32.7 45.2 L 34.5 45.2" id="71,67" /><path d="M 32.7 46.8 L 32.7 48.5 L 33.2 48.5" id="71,66" /><path d="M 34.1 58.9 L 34.1 57.0 L 41.5 57.0" id="69,65" /><path d="M 34.1 58.9 L 34.1 60.8 L 36.4 60.8" id="69,64" /><path d="M 34.7 37.8 L 34.7 38.6 L 45.1 38.6" id="68,63" /><path d="M 33.2 48.5 L 33.2 47.1 L 35.4 47.1" id="66,62" /><path d="M 33.2 48.5 L 33.2 49.8 L 36.4 49.8" id="66,61" /><path d="M 41.5 57.0 L 41.5 57.8 L 43.3 57.8" id="65,60" /><path d="M 36.4 60.8 L 36.4 62.5 L 41.5 62.5" id="64,59" /><path d="M 45.1 38.6 L 45.1 39.3 L 49.8 39.3" id="63,58" /><path d="M 36.4 49.8 L 36.4 51.1 L 38.8 51.1" id="61,57" /><path d="M 41.5 62.5 L 41.5 60.9 L 43.3 60.9" id="59,56" /><path d="M 41.5 62.5 L 41.5 64.1 L 51.1 64.1" id="59,55" /><path d="M 38.8 51.1 L 38.8 50.0 L 41.2 50.0" id="57,54" /><path d="M 38.8 51.1 L 38.8 52.2 L 58.6 52.2" id="57,53" /><path d="M 43.3 60.9 L 43.3 61.6 L 52.6 61.6" id="56,52" /><path d="M 51.1 64.1 L 51.1 65.0 L 55.7 65.0" id="55,51" /><path d="M 58.6 52.2 L 58.6 52.9 L 76.0 52.9" id="53,50" /><path d="M 55.7 65.0 L 55.7 66.0 L 57.8 66.0" id="51,49" /><path d="M 57.8 66.0 L 57.8 67.1 L 67.0 67.1" id="49,48" /><path d="M 67.0 67.1 L 67.0 68.2 L 73.4 68.2" id="48,47" /><path d="M 73.4 68.2 L 73.4 69.4 L 76.0 69.4" id="47,46" /><path d="M 76.0 69.4 L 76.0 68.4 L 83.3 68.4" id="46,45" /><path d="M 76.0 69.4 L 76.0 70.3 L 85.5 70.3" id="46,44" /><path d="M 28.0 30.0 L 28.0 29.2 L 91.2 29.2" id="83,43" /><path d="M 30.5 30.9 L 30.5 30.1 L 88.9 30.1" id="79,42" /><path d="M 87.1 31.6 L 87.1 31.1 L 88.9 31.1" id="74,41" /><path d="M 87.1 31.6 L 87.1 32.1 L 88.5 32.1" id="74,40" /><path d="M 31.4 33.5 L 31.4 33.0 L 93.7 33.0" id="78,39" /><path d="M 31.4 33.5 L 31.4 34.0 L 104.8 34.0" id="78,38" /><path d="M 29.0 35.9 L 29.0 35.0 L 89.6 35.0" id="77,37" /><path d="M 32.0 36.9 L 32.0 35.9 L 90.7 35.9" id="73,36" /><path d="M 34.7 37.8 L 34.7 36.9 L 92.9 36.9" id="68,35" /><path d="M 45.1 38.6 L 45.1 37.9 L 88.0 37.9" id="63,34" /><path d="M 49.8 39.3 L 49.8 38.9 L 98.9 38.9" id="58,33" /><path d="M 49.8 39.3 L 49.8 39.8 L 88.6 39.8" id="58,32" /><path d="M 29.8 41.3 L 29.8 40.8 L 99.9 40.8" id="81,31" /><path d="M 29.8 41.3 L 29.8 41.8 L 87.9 41.8" id="81,30" /><path d="M 33.2 43.2 L 33.2 42.7 L 98.8 42.7" id="72,29" /><path d="M 33.2 43.2 L 33.2 43.7 L 110.3 43.7" id="72,28" /><path d="M 34.5 45.2 L 34.5 44.7 L 98.2 44.7" id="67,27" /><path d="M 34.5 45.2 L 34.5 45.6 L 102.6 45.6" id="67,26" /><path d="M 35.4 47.1 L 35.4 46.6 L 94.8 46.6" id="62,25" /><path d="M 35.4 47.1 L 35.4 47.6 L 99.2 47.6" id="62,24" /><path d="M 36.4 49.8 L 36.4 48.5 L 102.1 48.5" id="61,23" /><path d="M 41.2 50.0 L 41.2 49.5 L 92.9 49.5" id="54,22" /><path d="M 41.2 50.0 L 41.2 50.5 L 93.9 50.5" id="54,21" /><path d="M 58.6 52.2 L 58.6 51.5 L 93.5 51.5" id="53,20" /><path d="M 76.0 52.9 L 76.0 52.4 L 92.4 52.4" id="50,19" /><path d="M 76.0 52.9 L 76.0 53.4 L 93.4 53.4" id="50,18" /><path d="M 36.3 54.8 L 36.3 54.4 L 90.5 54.4" id="70,17" /><path d="M 36.3 54.8 L 36.3 55.3 L 91.1 55.3" id="70,16" /><path d="M 41.5 57.0 L 41.5 56.3 L 91.6 56.3" id="65,15" /><path d="M 43.3 57.8 L 43.3 57.3 L 95.8 57.3" id="60,14" /><path d="M 43.3 57.8 L 43.3 58.2 L 93.2 58.2" id="60,13" /><path d="M 36.4 60.8 L 36.4 59.2 L 87.4 59.2" id="64,12" /><path d="M 43.3 60.9 L 43.3 60.2 L 90.3 60.2" id="56,11" /><path d="M 52.6 61.6 L 52.6 61.1 L 85.0 61.1" id="52,10" /><path d="M 52.6 61.6 L 52.6 62.1 L 83.8 62.1" id="52,9" /><path d="M 51.1 64.1 L 51.1 63.1 L 89.5 63.1" id="55,8" /><path d="M 55.7 65.0 L 55.7 64.1 L 86.5 64.1" id="51,7" /><path d="M 57.8 66.0 L 57.8 65.0 L 85.6 65.0" id="49,6" /><path d="M 67.0 67.1 L 67.0 66.0 L 85.7 66.0" id="48,5" /><path d="M 73.4 68.2 L 73.4 67.0 L 86.2 67.0" id="47,4" /><path d="M 83.3 68.4 L 83.3 67.9 L 86.2 67.9" id="45,3" /><path d="M 83.3 68.4 L 83.3 68.9 L 86.7 68.9" id="45,2" /><path d="M 85.5 70.3 L 85.5 69.9 L 85.5 69.9" id="44,1" /><path d="M 85.5 70.3 L 85.5 70.8 L 85.5 70.8" id="44,0" /></g><g class="toytree-Nodes" style="fill:rgb(100%,0%,0%);fill-opacity:1.0;stroke:None;stroke-width:1"><g id="node-0" transform="translate(85.498,70.833)"><circle r="2.5" /></g><g id="node-1" transform="translate(85.498,69.864)"><circle r="2.5" /></g><g id="node-2" transform="translate(86.653,68.895)"><circle r="2.5" /></g><g id="node-3" transform="translate(86.180,67.926)"><circle r="2.5" /></g><g id="node-4" transform="translate(86.209,66.957)"><circle r="2.5" /></g><g id="node-5" transform="translate(85.700,65.988)"><circle r="2.5" /></g><g id="node-6" transform="translate(85.628,65.019)"><circle r="2.5" /></g><g id="node-7" transform="translate(86.504,64.050)"><circle r="2.5" /></g><g id="node-8" transform="translate(89.537,63.081)"><circle r="2.5" /></g><g id="node-9" transform="translate(83.792,62.112)"><circle r="2.5" /></g><g id="node-10" transform="translate(85.027,61.143)"><circle r="2.5" /></g><g id="node-11" transform="translate(90.341,60.174)"><circle r="2.5" /></g><g id="node-12" transform="translate(87.372,59.205)"><circle r="2.5" /></g><g id="node-13" transform="translate(93.238,58.236)"><circle r="2.5" /></g><g id="node-14" transform="translate(95.808,57.267)"><circle r="2.5" /></g><g id="node-15" transform="translate(91.594,56.298)"><circle r="2.5" /></g><g id="node-16" transform="translate(91.092,55.329)"><circle r="2.5" /></g><g id="node-17" transform="translate(90.524,54.360)"><circle r="2.5" /></g><g id="node-18" transform="translate(93.364,53.391)"><circle r="2.5" /></g><g id="node-19" transform="translate(92.377,52.422)"><circle r="2.5" /></g><g id="node-20" transform="translate(93.522,51.453)"><circle r="2.5" /></g><g id="node-21" transform="translate(93.879,50.484)"><circle r="2.5" /></g><g id="node-22" transform="translate(92.922,49.516)"><circle r="2.5" /></g><g id="node-23" transform="translate(102.111,48.547)"><circle r="2.5" /></g><g id="node-24" transform="translate(99.220,47.578)"><circle r="2.5" /></g><g id="node-25" transform="translate(94.767,46.609)"><circle r="2.5" /></g><g id="node-26" transform="translate(102.597,45.640)"><circle r="2.5" /></g><g id="node-27" transform="translate(98.202,44.671)"><circle r="2.5" /></g><g id="node-28" transform="translate(110.263,43.702)"><circle r="2.5" /></g><g id="node-29" transform="translate(98.819,42.733)"><circle r="2.5" /></g><g id="node-30" transform="translate(87.924,41.764)"><circle r="2.5" /></g><g id="node-31" transform="translate(99.894,40.795)"><circle r="2.5" /></g><g id="node-32" transform="translate(88.630,39.826)"><circle r="2.5" /></g><g id="node-33" transform="translate(98.931,38.857)"><circle r="2.5" /></g><g id="node-34" transform="translate(87.990,37.888)"><circle r="2.5" /></g><g id="node-35" transform="translate(92.883,36.919)"><circle r="2.5" /></g><g id="node-36" transform="translate(90.727,35.950)"><circle r="2.5" /></g><g id="node-37" transform="translate(89.608,34.981)"><circle r="2.5" /></g><g id="node-38" transform="translate(104.828,34.012)"><circle r="2.5" /></g><g id="node-39" transform="translate(93.704,33.043)"><circle r="2.5" /></g><g id="node-40" transform="translate(88.459,32.074)"><circle r="2.5" /></g><g id="node-41" transform="translate(88.882,31.105)"><circle r="2.5" /></g><g id="node-42" transform="translate(88.888,30.136)"><circle r="2.5" /></g><g id="node-43" transform="translate(91.158,29.167)"><circle r="2.5" /></g><g id="node-44" transform="translate(85.498,70.349)"><circle r="0.0" /></g><g id="node-45" transform="translate(83.272,68.411)"><circle r="0.0" /></g><g id="node-46" transform="translate(75.951,69.380)"><circle r="0.0" /></g><g id="node-47" transform="translate(73.360,68.169)"><circle r="0.0" /></g><g id="node-48" transform="translate(67.034,67.078)"><circle r="0.0" /></g><g id="node-49" transform="translate(57.788,66.049)"><circle r="0.0" /></g><g id="node-50" transform="translate(76.002,52.907)"><circle r="0.0" /></g><g id="node-51" transform="translate(55.718,65.050)"><circle r="0.0" /></g><g id="node-52" transform="translate(52.627,61.628)"><circle r="0.0" /></g><g id="node-53" transform="translate(58.602,52.180)"><circle r="0.0" /></g><g id="node-54" transform="translate(41.175,50.000)"><circle r="0.0" /></g><g id="node-55" transform="translate(51.113,64.066)"><circle r="0.0" /></g><g id="node-56" transform="translate(43.346,60.901)"><circle r="0.0" /></g><g id="node-57" transform="translate(38.827,51.090)"><circle r="0.0" /></g><g id="node-58" transform="translate(49.847,39.341)"><circle r="0.0" /></g><g id="node-59" transform="translate(41.465,62.483)"><circle r="0.0" /></g><g id="node-60" transform="translate(43.346,57.752)"><circle r="0.0" /></g><g id="node-61" transform="translate(36.372,49.818)"><circle r="0.0" /></g><g id="node-62" transform="translate(35.428,47.093)"><circle r="0.0" /></g><g id="node-63" transform="translate(45.093,38.614)"><circle r="0.0" /></g><g id="node-64" transform="translate(36.381,60.844)"><circle r="0.0" /></g><g id="node-65" transform="translate(41.476,57.025)"><circle r="0.0" /></g><g id="node-66" transform="translate(33.223,48.456)"><circle r="0.0" /></g><g id="node-67" transform="translate(34.546,45.155)"><circle r="0.0" /></g><g id="node-68" transform="translate(34.739,37.766)"><circle r="0.0" /></g><g id="node-69" transform="translate(34.077,58.935)"><circle r="0.0" /></g><g id="node-70" transform="translate(36.296,54.845)"><circle r="0.0" /></g><g id="node-71" transform="translate(32.747,46.805)"><circle r="0.0" /></g><g id="node-72" transform="translate(33.208,43.217)"><circle r="0.0" /></g><g id="node-73" transform="translate(31.987,36.858)"><circle r="0.0" /></g><g id="node-74" transform="translate(87.146,31.589)"><circle r="0.0" /></g><g id="node-75" transform="translate(32.179,56.890)"><circle r="0.0" /></g><g id="node-76" transform="translate(32.116,45.011)"><circle r="0.0" /></g><g id="node-77" transform="translate(29.006,35.919)"><circle r="0.0" /></g><g id="node-78" transform="translate(31.411,33.527)"><circle r="0.0" /></g><g id="node-79" transform="translate(30.550,30.862)"><circle r="0.0" /></g><g id="node-80" transform="translate(28.052,50.951)"><circle r="0.0" /></g><g id="node-81" transform="translate(29.771,41.279)"><circle r="0.0" /></g><g id="node-82" transform="translate(26.568,34.723)"><circle r="0.0" /></g><g id="node-83" transform="translate(28.022,30.015)"><circle r="0.0" /></g><g id="node-84" transform="translate(26.699,46.115)"><circle r="0.0" /></g><g id="node-85" transform="translate(25.956,32.369)"><circle r="0.0" /></g><g id="node-86" transform="translate(25.000,39.242)"><circle r="0.0" /></g></g></g></g></g><g class="toyplot-coordinates-Cartesian" id="t4ff6a62420484fe789cf1acfad445450"><clipPath id="t51b9cec536c64362b9439e571e291488"><rect x="155.0" y="15.0" width="110.0" height="70.0" /></clipPath><g clip-path="url(#t51b9cec536c64362b9439e571e291488)"><g class="toytree-mark-Toytree" id="tc8235e58d1da4b5ebef69f0632359f0b"><g class="toytree-Edges" style="fill:none;stroke:rgb(14.9%,14.9%,14.9%);stroke-linecap:round;stroke-opacity:1;stroke-width:0.5"><path d="M 165.3 31.6 L 165.3 34.0 L 165.5 34.0" id="86,85" /><path d="M 165.5 34.0 L 165.5 37.8 L 170.1 37.8" id="85,84" /><path d="M 170.1 37.8 L 170.1 44.5 L 171.6 44.5" id="84,83" /><path d="M 171.6 44.5 L 171.6 35.9 L 175.0 35.9" id="83,82" /><path d="M 171.6 44.5 L 171.6 53.2 L 173.3 53.2" id="83,81" /><path d="M 175.0 35.9 L 175.0 32.9 L 176.7 32.9" id="82,80" /><path d="M 175.0 35.9 L 175.0 38.9 L 178.9 38.9" id="82,79" /><path d="M 173.3 53.2 L 173.3 47.1 L 177.4 47.1" id="81,78" /><path d="M 173.3 53.2 L 173.3 59.2 L 174.4 59.2" id="81,77" /><path d="M 176.7 32.9 L 176.7 33.8 L 187.3 33.8" id="80,76" /><path d="M 178.9 38.9 L 178.9 36.7 L 187.2 36.7" id="79,75" /><path d="M 178.9 38.9 L 178.9 41.0 L 181.4 41.0" id="79,74" /><path d="M 177.4 47.1 L 177.4 45.4 L 208.3 45.4" id="78,73" /><path d="M 177.4 47.1 L 177.4 48.9 L 179.9 48.9" id="78,72" /><path d="M 174.4 59.2 L 174.4 56.0 L 176.6 56.0" id="77,71" /><path d="M 174.4 59.2 L 174.4 62.4 L 186.5 62.4" id="77,70" /><path d="M 187.3 33.8 L 187.3 34.5 L 207.1 34.5" id="76,69" /><path d="M 187.2 36.7 L 187.2 37.4 L 196.4 37.4" id="75,68" /><path d="M 181.4 41.0 L 181.4 39.6 L 190.8 39.6" id="74,67" /><path d="M 181.4 41.0 L 181.4 42.5 L 187.8 42.5" id="74,66" /><path d="M 208.3 45.4 L 208.3 46.1 L 226.1 46.1" id="73,65" /><path d="M 179.9 48.9 L 179.9 50.2 L 183.4 50.2" id="72,64" /><path d="M 176.6 56.0 L 176.6 54.8 L 186.6 54.8" id="71,63" /><path d="M 176.6 56.0 L 176.6 57.1 L 180.1 57.1" id="71,62" /><path d="M 186.5 62.4 L 186.5 64.6 L 191.8 64.6" id="70,61" /><path d="M 190.8 39.6 L 190.8 40.3 L 203.5 40.3" id="67,60" /><path d="M 187.8 42.5 L 187.8 43.2 L 205.7 43.2" id="66,59" /><path d="M 183.4 50.2 L 183.4 49.0 L 203.7 49.0" id="64,58" /><path d="M 183.4 50.2 L 183.4 51.3 L 194.7 51.3" id="64,57" /><path d="M 180.1 57.1 L 180.1 58.0 L 189.0 58.0" id="62,56" /><path d="M 191.8 64.6 L 191.8 62.1 L 199.8 62.1" id="61,55" /><path d="M 191.8 64.6 L 191.8 67.1 L 197.6 67.1" id="61,54" /><path d="M 194.7 51.3 L 194.7 52.2 L 220.6 52.2" id="57,53" /><path d="M 189.0 58.0 L 189.0 58.7 L 228.0 58.7" id="56,52" /><path d="M 199.8 62.1 L 199.8 63.0 L 207.6 63.0" id="55,51" /><path d="M 197.6 67.1 L 197.6 68.2 L 202.7 68.2" id="54,50" /><path d="M 220.6 52.2 L 220.6 52.9 L 221.9 52.9" id="53,49" /><path d="M 207.6 63.0 L 207.6 63.8 L 209.7 63.8" id="51,48" /><path d="M 202.7 68.2 L 202.7 69.4 L 210.2 69.4" id="50,47" /><path d="M 209.7 63.8 L 209.7 64.5 L 215.7 64.5" id="48,46" /><path d="M 210.2 69.4 L 210.2 68.4 L 219.6 68.4" id="47,45" /><path d="M 210.2 69.4 L 210.2 70.3 L 215.6 70.3" id="47,44" /><path d="M 165.3 31.6 L 165.3 29.2 L 234.6 29.2" id="86,43" /><path d="M 165.5 34.0 L 165.5 30.1 L 234.7 30.1" id="85,42" /><path d="M 170.1 37.8 L 170.1 31.1 L 244.6 31.1" id="84,41" /><path d="M 176.7 32.9 L 176.7 32.1 L 233.3 32.1" id="80,40" /><path d="M 187.3 33.8 L 187.3 33.0 L 250.3 33.0" id="76,39" /><path d="M 207.1 34.5 L 207.1 34.0 L 241.9 34.0" id="69,38" /><path d="M 207.1 34.5 L 207.1 35.0 L 238.9 35.0" id="69,37" /><path d="M 187.2 36.7 L 187.2 35.9 L 244.0 35.9" id="75,36" /><path d="M 196.4 37.4 L 196.4 36.9 L 237.3 36.9" id="68,35" /><path d="M 196.4 37.4 L 196.4 37.9 L 239.0 37.9" id="68,34" /><path d="M 190.8 39.6 L 190.8 38.9 L 234.8 38.9" id="67,33" /><path d="M 203.5 40.3 L 203.5 39.8 L 228.6 39.8" id="60,32" /><path d="M 203.5 40.3 L 203.5 40.8 L 236.1 40.8" id="60,31" /><path d="M 187.8 42.5 L 187.8 41.8 L 243.7 41.8" id="66,30" /><path d="M 205.7 43.2 L 205.7 42.7 L 245.9 42.7" id="59,29" /><path d="M 205.7 43.2 L 205.7 43.7 L 243.9 43.7" id="59,28" /><path d="M 208.3 45.4 L 208.3 44.7 L 237.1 44.7" id="73,27" /><path d="M 226.1 46.1 L 226.1 45.6 L 237.5 45.6" id="65,26" /><path d="M 226.1 46.1 L 226.1 46.6 L 238.7 46.6" id="65,25" /><path d="M 179.9 48.9 L 179.9 47.6 L 226.8 47.6" id="72,24" /><path d="M 203.7 49.0 L 203.7 48.5 L 236.1 48.5" id="58,23" /><path d="M 203.7 49.0 L 203.7 49.5 L 242.2 49.5" id="58,22" /><path d="M 194.7 51.3 L 194.7 50.5 L 231.6 50.5" id="57,21" /><path d="M 220.6 52.2 L 220.6 51.5 L 231.1 51.5" id="53,20" /><path d="M 221.9 52.9 L 221.9 52.4 L 227.4 52.4" id="49,19" /><path d="M 221.9 52.9 L 221.9 53.4 L 230.9 53.4" id="49,18" /><path d="M 186.6 54.8 L 186.6 54.4 L 237.2 54.4" id="63,17" /><path d="M 186.6 54.8 L 186.6 55.3 L 239.1 55.3" id="63,16" /><path d="M 180.1 57.1 L 180.1 56.3 L 234.4 56.3" id="62,15" /><path d="M 189.0 58.0 L 189.0 57.3 L 230.2 57.3" id="56,14" /><path d="M 228.0 58.7 L 228.0 58.2 L 235.8 58.2" id="52,13" /><path d="M 228.0 58.7 L 228.0 59.2 L 238.0 59.2" id="52,12" /><path d="M 186.5 62.4 L 186.5 60.2 L 237.1 60.2" id="70,11" /><path d="M 199.8 62.1 L 199.8 61.1 L 231.4 61.1" id="55,10" /><path d="M 207.6 63.0 L 207.6 62.1 L 230.7 62.1" id="51,9" /><path d="M 209.7 63.8 L 209.7 63.1 L 235.2 63.1" id="48,8" /><path d="M 215.7 64.5 L 215.7 64.1 L 235.0 64.1" id="46,7" /><path d="M 215.7 64.5 L 215.7 65.0 L 229.4 65.0" id="46,6" /><path d="M 197.6 67.1 L 197.6 66.0 L 228.3 66.0" id="54,5" /><path d="M 202.7 68.2 L 202.7 67.0 L 226.0 67.0" id="50,4" /><path d="M 219.6 68.4 L 219.6 67.9 L 226.9 67.9" id="45,3" /><path d="M 219.6 68.4 L 219.6 68.9 L 232.4 68.9" id="45,2" /><path d="M 215.6 70.3 L 215.6 69.9 L 223.0 69.9" id="44,1" /><path d="M 215.6 70.3 L 215.6 70.8 L 223.7 70.8" id="44,0" /></g><g class="toytree-Nodes" style="fill:rgb(100%,0%,0%);fill-opacity:1.0;stroke:None;stroke-width:1"><g id="node-0" transform="translate(223.668,70.833)"><circle r="2.5" /></g><g id="node-1" transform="translate(223.030,69.864)"><circle r="2.5" /></g><g id="node-2" transform="translate(232.427,68.895)"><circle r="2.5" /></g><g id="node-3" transform="translate(226.870,67.926)"><circle r="2.5" /></g><g id="node-4" transform="translate(226.011,66.957)"><circle r="2.5" /></g><g id="node-5" transform="translate(228.330,65.988)"><circle r="2.5" /></g><g id="node-6" transform="translate(229.414,65.019)"><circle r="2.5" /></g><g id="node-7" transform="translate(235.003,64.050)"><circle r="2.5" /></g><g id="node-8" transform="translate(235.238,63.081)"><circle r="2.5" /></g><g id="node-9" transform="translate(230.676,62.112)"><circle r="2.5" /></g><g id="node-10" transform="translate(231.382,61.143)"><circle r="2.5" /></g><g id="node-11" transform="translate(237.137,60.174)"><circle r="2.5" /></g><g id="node-12" transform="translate(238.012,59.205)"><circle r="2.5" /></g><g id="node-13" transform="translate(235.784,58.236)"><circle r="2.5" /></g><g id="node-14" transform="translate(230.163,57.267)"><circle r="2.5" /></g><g id="node-15" transform="translate(234.420,56.298)"><circle r="2.5" /></g><g id="node-16" transform="translate(239.071,55.329)"><circle r="2.5" /></g><g id="node-17" transform="translate(237.172,54.360)"><circle r="2.5" /></g><g id="node-18" transform="translate(230.933,53.391)"><circle r="2.5" /></g><g id="node-19" transform="translate(227.444,52.422)"><circle r="2.5" /></g><g id="node-20" transform="translate(231.058,51.453)"><circle r="2.5" /></g><g id="node-21" transform="translate(231.585,50.484)"><circle r="2.5" /></g><g id="node-22" transform="translate(242.237,49.516)"><circle r="2.5" /></g><g id="node-23" transform="translate(236.078,48.547)"><circle r="2.5" /></g><g id="node-24" transform="translate(226.799,47.578)"><circle r="2.5" /></g><g id="node-25" transform="translate(238.677,46.609)"><circle r="2.5" /></g><g id="node-26" transform="translate(237.511,45.640)"><circle r="2.5" /></g><g id="node-27" transform="translate(237.135,44.671)"><circle r="2.5" /></g><g id="node-28" transform="translate(243.886,43.702)"><circle r="2.5" /></g><g id="node-29" transform="translate(245.918,42.733)"><circle r="2.5" /></g><g id="node-30" transform="translate(243.733,41.764)"><circle r="2.5" /></g><g id="node-31" transform="translate(236.053,40.795)"><circle r="2.5" /></g><g id="node-32" transform="translate(228.578,39.826)"><circle r="2.5" /></g><g id="node-33" transform="translate(234.796,38.857)"><circle r="2.5" /></g><g id="node-34" transform="translate(239.005,37.888)"><circle r="2.5" /></g><g id="node-35" transform="translate(237.338,36.919)"><circle r="2.5" /></g><g id="node-36" transform="translate(243.986,35.950)"><circle r="2.5" /></g><g id="node-37" transform="translate(238.907,34.981)"><circle r="2.5" /></g><g id="node-38" transform="translate(241.863,34.012)"><circle r="2.5" /></g><g id="node-39" transform="translate(250.277,33.043)"><circle r="2.5" /></g><g id="node-40" transform="translate(233.259,32.074)"><circle r="2.5" /></g><g id="node-41" transform="translate(244.562,31.105)"><circle r="2.5" /></g><g id="node-42" transform="translate(234.746,30.136)"><circle r="2.5" /></g><g id="node-43" transform="translate(234.573,29.167)"><circle r="2.5" /></g><g id="node-44" transform="translate(215.628,70.349)"><circle r="0.0" /></g><g id="node-45" transform="translate(219.593,68.411)"><circle r="0.0" /></g><g id="node-46" transform="translate(215.673,64.535)"><circle r="0.0" /></g><g id="node-47" transform="translate(210.248,69.380)"><circle r="0.0" /></g><g id="node-48" transform="translate(209.672,63.808)"><circle r="0.0" /></g><g id="node-49" transform="translate(221.923,52.907)"><circle r="0.0" /></g><g id="node-50" transform="translate(202.741,68.169)"><circle r="0.0" /></g><g id="node-51" transform="translate(207.601,62.960)"><circle r="0.0" /></g><g id="node-52" transform="translate(228.050,58.721)"><circle r="0.0" /></g><g id="node-53" transform="translate(220.609,52.180)"><circle r="0.0" /></g><g id="node-54" transform="translate(197.612,67.078)"><circle r="0.0" /></g><g id="node-55" transform="translate(199.832,62.052)"><circle r="0.0" /></g><g id="node-56" transform="translate(188.975,57.994)"><circle r="0.0" /></g><g id="node-57" transform="translate(194.737,51.332)"><circle r="0.0" /></g><g id="node-58" transform="translate(203.661,49.031)"><circle r="0.0" /></g><g id="node-59" transform="translate(205.670,43.217)"><circle r="0.0" /></g><g id="node-60" transform="translate(203.527,40.310)"><circle r="0.0" /></g><g id="node-61" transform="translate(191.756,64.565)"><circle r="0.0" /></g><g id="node-62" transform="translate(180.147,57.146)"><circle r="0.0" /></g><g id="node-63" transform="translate(186.613,54.845)"><circle r="0.0" /></g><g id="node-64" transform="translate(183.449,50.182)"><circle r="0.0" /></g><g id="node-65" transform="translate(226.125,46.124)"><circle r="0.0" /></g><g id="node-66" transform="translate(187.816,42.490)"><circle r="0.0" /></g><g id="node-67" transform="translate(190.811,39.583)"><circle r="0.0" /></g><g id="node-68" transform="translate(196.411,37.403)"><circle r="0.0" /></g><g id="node-69" transform="translate(207.098,34.496)"><circle r="0.0" /></g><g id="node-70" transform="translate(186.463,62.370)"><circle r="0.0" /></g><g id="node-71" transform="translate(176.623,55.996)"><circle r="0.0" /></g><g id="node-72" transform="translate(179.885,48.880)"><circle r="0.0" /></g><g id="node-73" transform="translate(208.296,45.397)"><circle r="0.0" /></g><g id="node-74" transform="translate(181.406,41.037)"><circle r="0.0" /></g><g id="node-75" transform="translate(187.208,36.676)"><circle r="0.0" /></g><g id="node-76" transform="translate(187.337,33.769)"><circle r="0.0" /></g><g id="node-77" transform="translate(174.373,59.183)"><circle r="0.0" /></g><g id="node-78" transform="translate(177.400,47.138)"><circle r="0.0" /></g><g id="node-79" transform="translate(178.947,38.857)"><circle r="0.0" /></g><g id="node-80" transform="translate(176.724,32.922)"><circle r="0.0" /></g><g id="node-81" transform="translate(173.319,53.161)"><circle r="0.0" /></g><g id="node-82" transform="translate(175.050,35.889)"><circle r="0.0" /></g><g id="node-83" transform="translate(171.629,44.525)"><circle r="0.0" /></g><g id="node-84" transform="translate(170.137,37.815)"><circle r="0.0" /></g><g id="node-85" transform="translate(165.472,33.975)"><circle r="0.0" /></g><g id="node-86" transform="translate(165.261,31.571)"><circle r="0.0" /></g></g></g></g></g><g class="toyplot-coordinates-Cartesian" id="t7065bcd098d6429984de8388cb997107"><clipPath id="t12b24fec53974712a3217e9ce6c5c69a"><rect x="295.0" y="15.0" width="110.0" height="70.0" /></clipPath><g clip-path="url(#t12b24fec53974712a3217e9ce6c5c69a)"><g class="toytree-mark-Toytree" id="t0232cba20b764f759b454f658ff54991"><g class="toytree-Edges" style="fill:none;stroke:rgb(14.9%,14.9%,14.9%);stroke-linecap:round;stroke-opacity:1;stroke-width:0.5"><path d="M 305.0 33.8 L 305.0 29.7 L 311.0 29.7" id="86,85" /><path d="M 305.0 33.8 L 305.0 37.9 L 308.0 37.9" id="86,84" /><path d="M 308.0 37.9 L 308.0 32.0 L 315.3 32.0" id="84,83" /><path d="M 308.0 37.9 L 308.0 43.8 L 313.3 43.8" id="84,82" /><path d="M 315.3 32.0 L 315.3 33.0 L 320.2 33.0" id="83,81" /><path d="M 313.3 43.8 L 313.3 38.5 L 314.1 38.5" id="82,80" /><path d="M 313.3 43.8 L 313.3 49.0 L 317.9 49.0" id="82,79" /><path d="M 320.2 33.0 L 320.2 33.9 L 321.4 33.9" id="81,78" /><path d="M 314.1 38.5 L 314.1 37.4 L 317.5 37.4" id="80,77" /><path d="M 314.1 38.5 L 314.1 39.6 L 318.7 39.6" id="80,76" /><path d="M 317.9 49.0 L 317.9 44.1 L 320.9 44.1" id="79,75" /><path d="M 317.9 49.0 L 317.9 53.9 L 322.2 53.9" id="79,74" /><path d="M 321.4 33.9 L 321.4 34.7 L 334.9 34.7" id="78,73" /><path d="M 318.7 39.6 L 318.7 40.3 L 354.2 40.3" id="76,72" /><path d="M 320.9 44.1 L 320.9 46.5 L 329.1 46.5" id="75,71" /><path d="M 322.2 53.9 L 322.2 55.5 L 324.0 55.5" id="74,70" /><path d="M 334.9 34.7 L 334.9 35.5 L 343.5 35.5" id="73,69" /><path d="M 329.1 46.5 L 329.1 44.2 L 331.3 44.2" id="71,68" /><path d="M 329.1 46.5 L 329.1 48.8 L 332.3 48.8" id="71,67" /><path d="M 324.0 55.5 L 324.0 57.5 L 327.0 57.5" id="70,66" /><path d="M 331.3 44.2 L 331.3 43.2 L 341.1 43.2" id="68,65" /><path d="M 331.3 44.2 L 331.3 45.2 L 334.7 45.2" id="68,64" /><path d="M 332.3 48.8 L 332.3 47.3 L 334.8 47.3" id="67,63" /><path d="M 332.3 48.8 L 332.3 50.2 L 339.2 50.2" id="67,62" /><path d="M 327.0 57.5 L 327.0 54.8 L 332.7 54.8" id="66,61" /><path d="M 327.0 57.5 L 327.0 60.2 L 328.6 60.2" id="66,60" /><path d="M 334.8 47.3 L 334.8 48.1 L 336.5 48.1" id="63,59" /><path d="M 339.2 50.2 L 339.2 51.0 L 344.6 51.0" id="62,58" /><path d="M 328.6 60.2 L 328.6 57.2 L 329.8 57.2" id="60,57" /><path d="M 328.6 60.2 L 328.6 63.2 L 332.2 63.2" id="60,56" /><path d="M 329.8 57.2 L 329.8 58.1 L 332.0 58.1" id="57,55" /><path d="M 332.2 63.2 L 332.2 61.6 L 336.0 61.6" id="56,54" /><path d="M 332.2 63.2 L 332.2 64.8 L 338.5 64.8" id="56,53" /><path d="M 332.0 58.1 L 332.0 59.0 L 335.0 59.0" id="55,52" /><path d="M 338.5 64.8 L 338.5 63.6 L 340.4 63.6" id="53,51" /><path d="M 338.5 64.8 L 338.5 66.0 L 339.6 66.0" id="53,50" /><path d="M 335.0 59.0 L 335.0 59.7 L 340.9 59.7" id="52,49" /><path d="M 339.6 66.0 L 339.6 67.1 L 340.7 67.1" id="50,48" /><path d="M 340.7 67.1 L 340.7 68.2 L 342.1 68.2" id="48,47" /><path d="M 342.1 68.2 L 342.1 69.4 L 343.6 69.4" id="47,46" /><path d="M 343.6 69.4 L 343.6 68.4 L 344.1 68.4" id="46,45" /><path d="M 343.6 69.4 L 343.6 70.3 L 345.9 70.3" id="46,44" /><path d="M 311.0 29.7 L 311.0 29.2 L 347.9 29.2" id="85,43" /><path d="M 311.0 29.7 L 311.0 30.1 L 359.3 30.1" id="85,42" /><path d="M 315.3 32.0 L 315.3 31.1 L 345.2 31.1" id="83,41" /><path d="M 320.2 33.0 L 320.2 32.1 L 349.7 32.1" id="81,40" /><path d="M 321.4 33.9 L 321.4 33.0 L 353.0 33.0" id="78,39" /><path d="M 334.9 34.7 L 334.9 34.0 L 348.9 34.0" id="73,38" /><path d="M 343.5 35.5 L 343.5 35.0 L 380.4 35.0" id="69,37" /><path d="M 343.5 35.5 L 343.5 35.9 L 356.1 35.9" id="69,36" /><path d="M 317.5 37.4 L 317.5 36.9 L 355.7 36.9" id="77,35" /><path d="M 317.5 37.4 L 317.5 37.9 L 367.1 37.9" id="77,34" /><path d="M 318.7 39.6 L 318.7 38.9 L 344.8 38.9" id="76,33" /><path d="M 354.2 40.3 L 354.2 39.8 L 359.1 39.8" id="72,32" /><path d="M 354.2 40.3 L 354.2 40.8 L 359.3 40.8" id="72,31" /><path d="M 320.9 44.1 L 320.9 41.8 L 364.1 41.8" id="75,30" /><path d="M 341.1 43.2 L 341.1 42.7 L 362.5 42.7" id="65,29" /><path d="M 341.1 43.2 L 341.1 43.7 L 372.1 43.7" id="65,28" /><path d="M 334.7 45.2 L 334.7 44.7 L 361.9 44.7" id="64,27" /><path d="M 334.7 45.2 L 334.7 45.6 L 390.3 45.6" id="64,26" /><path d="M 334.8 47.3 L 334.8 46.6 L 362.2 46.6" id="63,25" /><path d="M 336.5 48.1 L 336.5 47.6 L 364.2 47.6" id="59,24" /><path d="M 336.5 48.1 L 336.5 48.5 L 358.8 48.5" id="59,23" /><path d="M 339.2 50.2 L 339.2 49.5 L 356.3 49.5" id="62,22" /><path d="M 344.6 51.0 L 344.6 50.5 L 351.3 50.5" id="58,21" /><path d="M 344.6 51.0 L 344.6 51.5 L 353.2 51.5" id="58,20" /><path d="M 322.2 53.9 L 322.2 52.4 L 350.4 52.4" id="74,19" /><path d="M 324.0 55.5 L 324.0 53.4 L 373.0 53.4" id="70,18" /><path d="M 332.7 54.8 L 332.7 54.4 L 343.3 54.4" id="61,17" /><path d="M 332.7 54.8 L 332.7 55.3 L 359.2 55.3" id="61,16" /><path d="M 329.8 57.2 L 329.8 56.3 L 345.9 56.3" id="57,15" /><path d="M 332.0 58.1 L 332.0 57.3 L 366.9 57.3" id="55,14" /><path d="M 335.0 59.0 L 335.0 58.2 L 353.5 58.2" id="52,13" /><path d="M 340.9 59.7 L 340.9 59.2 L 361.5 59.2" id="49,12" /><path d="M 340.9 59.7 L 340.9 60.2 L 353.5 60.2" id="49,11" /><path d="M 336.0 61.6 L 336.0 61.1 L 346.1 61.1" id="54,10" /><path d="M 336.0 61.6 L 336.0 62.1 L 342.9 62.1" id="54,9" /><path d="M 340.4 63.6 L 340.4 63.1 L 345.8 63.1" id="51,8" /><path d="M 340.4 63.6 L 340.4 64.1 L 345.9 64.1" id="51,7" /><path d="M 339.6 66.0 L 339.6 65.0 L 341.7 65.0" id="50,6" /><path d="M 340.7 67.1 L 340.7 66.0 L 342.8 66.0" id="48,5" /><path d="M 342.1 68.2 L 342.1 67.0 L 342.7 67.0" id="47,4" /><path d="M 344.1 68.4 L 344.1 67.9 L 344.3 67.9" id="45,3" /><path d="M 344.1 68.4 L 344.1 68.9 L 344.3 68.9" id="45,2" /><path d="M 345.9 70.3 L 345.9 69.9 L 345.9 69.9" id="44,1" /><path d="M 345.9 70.3 L 345.9 70.8 L 346.3 70.8" id="44,0" /></g><g class="toytree-Nodes" style="fill:rgb(100%,0%,0%);fill-opacity:1.0;stroke:None;stroke-width:1"><g id="node-0" transform="translate(346.281,70.833)"><circle r="2.5" /></g><g id="node-1" transform="translate(345.920,69.864)"><circle r="2.5" /></g><g id="node-2" transform="translate(344.341,68.895)"><circle r="2.5" /></g><g id="node-3" transform="translate(344.320,67.926)"><circle r="2.5" /></g><g id="node-4" transform="translate(342.738,66.957)"><circle r="2.5" /></g><g id="node-5" transform="translate(342.835,65.988)"><circle r="2.5" /></g><g id="node-6" transform="translate(341.701,65.019)"><circle r="2.5" /></g><g id="node-7" transform="translate(345.898,64.050)"><circle r="2.5" /></g><g id="node-8" transform="translate(345.775,63.081)"><circle r="2.5" /></g><g id="node-9" transform="translate(342.944,62.112)"><circle r="2.5" /></g><g id="node-10" transform="translate(346.144,61.143)"><circle r="2.5" /></g><g id="node-11" transform="translate(353.544,60.174)"><circle r="2.5" /></g><g id="node-12" transform="translate(361.460,59.205)"><circle r="2.5" /></g><g id="node-13" transform="translate(353.472,58.236)"><circle r="2.5" /></g><g id="node-14" transform="translate(366.885,57.267)"><circle r="2.5" /></g><g id="node-15" transform="translate(345.862,56.298)"><circle r="2.5" /></g><g id="node-16" transform="translate(359.163,55.329)"><circle r="2.5" /></g><g id="node-17" transform="translate(343.323,54.360)"><circle r="2.5" /></g><g id="node-18" transform="translate(373.028,53.391)"><circle r="2.5" /></g><g id="node-19" transform="translate(350.384,52.422)"><circle r="2.5" /></g><g id="node-20" transform="translate(353.248,51.453)"><circle r="2.5" /></g><g id="node-21" transform="translate(351.312,50.484)"><circle r="2.5" /></g><g id="node-22" transform="translate(356.321,49.516)"><circle r="2.5" /></g><g id="node-23" transform="translate(358.770,48.547)"><circle r="2.5" /></g><g id="node-24" transform="translate(364.187,47.578)"><circle r="2.5" /></g><g id="node-25" transform="translate(362.172,46.609)"><circle r="2.5" /></g><g id="node-26" transform="translate(390.263,45.640)"><circle r="2.5" /></g><g id="node-27" transform="translate(361.890,44.671)"><circle r="2.5" /></g><g id="node-28" transform="translate(372.144,43.702)"><circle r="2.5" /></g><g id="node-29" transform="translate(362.522,42.733)"><circle r="2.5" /></g><g id="node-30" transform="translate(364.054,41.764)"><circle r="2.5" /></g><g id="node-31" transform="translate(359.297,40.795)"><circle r="2.5" /></g><g id="node-32" transform="translate(359.059,39.826)"><circle r="2.5" /></g><g id="node-33" transform="translate(344.760,38.857)"><circle r="2.5" /></g><g id="node-34" transform="translate(367.116,37.888)"><circle r="2.5" /></g><g id="node-35" transform="translate(355.703,36.919)"><circle r="2.5" /></g><g id="node-36" transform="translate(356.104,35.950)"><circle r="2.5" /></g><g id="node-37" transform="translate(380.440,34.981)"><circle r="2.5" /></g><g id="node-38" transform="translate(348.881,34.012)"><circle r="2.5" /></g><g id="node-39" transform="translate(353.013,33.043)"><circle r="2.5" /></g><g id="node-40" transform="translate(349.654,32.074)"><circle r="2.5" /></g><g id="node-41" transform="translate(345.183,31.105)"><circle r="2.5" /></g><g id="node-42" transform="translate(359.312,30.136)"><circle r="2.5" /></g><g id="node-43" transform="translate(347.899,29.167)"><circle r="2.5" /></g><g id="node-44" transform="translate(345.920,70.349)"><circle r="0.0" /></g><g id="node-45" transform="translate(344.132,68.411)"><circle r="0.0" /></g><g id="node-46" transform="translate(343.630,69.380)"><circle r="0.0" /></g><g id="node-47" transform="translate(342.059,68.169)"><circle r="0.0" /></g><g id="node-48" transform="translate(340.697,67.078)"><circle r="0.0" /></g><g id="node-49" transform="translate(340.943,59.690)"><circle r="0.0" /></g><g id="node-50" transform="translate(339.650,66.049)"><circle r="0.0" /></g><g id="node-51" transform="translate(340.419,63.566)"><circle r="0.0" /></g><g id="node-52" transform="translate(335.009,58.963)"><circle r="0.0" /></g><g id="node-53" transform="translate(338.523,64.807)"><circle r="0.0" /></g><g id="node-54" transform="translate(336.020,61.628)"><circle r="0.0" /></g><g id="node-55" transform="translate(332.026,58.115)"><circle r="0.0" /></g><g id="node-56" transform="translate(332.224,63.218)"><circle r="0.0" /></g><g id="node-57" transform="translate(329.772,57.207)"><circle r="0.0" /></g><g id="node-58" transform="translate(344.587,50.969)"><circle r="0.0" /></g><g id="node-59" transform="translate(336.486,48.062)"><circle r="0.0" /></g><g id="node-60" transform="translate(328.587,60.212)"><circle r="0.0" /></g><g id="node-61" transform="translate(332.679,54.845)"><circle r="0.0" /></g><g id="node-62" transform="translate(339.159,50.242)"><circle r="0.0" /></g><g id="node-63" transform="translate(334.828,47.335)"><circle r="0.0" /></g><g id="node-64" transform="translate(334.724,45.155)"><circle r="0.0" /></g><g id="node-65" transform="translate(341.113,43.217)"><circle r="0.0" /></g><g id="node-66" transform="translate(326.987,57.529)"><circle r="0.0" /></g><g id="node-67" transform="translate(332.315,48.789)"><circle r="0.0" /></g><g id="node-68" transform="translate(331.300,44.186)"><circle r="0.0" /></g><g id="node-69" transform="translate(343.478,35.465)"><circle r="0.0" /></g><g id="node-70" transform="translate(323.983,55.460)"><circle r="0.0" /></g><g id="node-71" transform="translate(329.104,46.487)"><circle r="0.0" /></g><g id="node-72" transform="translate(354.158,40.310)"><circle r="0.0" /></g><g id="node-73" transform="translate(334.875,34.738)"><circle r="0.0" /></g><g id="node-74" transform="translate(322.188,53.941)"><circle r="0.0" /></g><g id="node-75" transform="translate(320.862,44.125)"><circle r="0.0" /></g><g id="node-76" transform="translate(318.688,39.583)"><circle r="0.0" /></g><g id="node-77" transform="translate(317.511,37.403)"><circle r="0.0" /></g><g id="node-78" transform="translate(321.429,33.891)"><circle r="0.0" /></g><g id="node-79" transform="translate(317.854,49.033)"><circle r="0.0" /></g><g id="node-80" transform="translate(314.101,38.493)"><circle r="0.0" /></g><g id="node-81" transform="translate(320.151,32.982)"><circle r="0.0" /></g><g id="node-82" transform="translate(313.339,43.763)"><circle r="0.0" /></g><g id="node-83" transform="translate(315.286,32.043)"><circle r="0.0" /></g><g id="node-84" transform="translate(308.008,37.903)"><circle r="0.0" /></g><g id="node-85" transform="translate(311.006,29.651)"><circle r="0.0" /></g><g id="node-86" transform="translate(305.000,33.777)"><circle r="0.0" /></g></g></g></g></g><g class="toyplot-coordinates-Cartesian" id="t49e9026460de4125994e13722c66ec88"><clipPath id="t54ddb4a6375b420f8e058d1c92936cc5"><rect x="435.0" y="15.0" width="110.0" height="70.0" /></clipPath><g clip-path="url(#t54ddb4a6375b420f8e058d1c92936cc5)"><g class="toytree-mark-Toytree" id="t45d3f57888f145c5b63662a69c0cf9a5"><g class="toytree-Edges" style="fill:none;stroke:rgb(14.9%,14.9%,14.9%);stroke-linecap:round;stroke-opacity:1;stroke-width:0.5"><path d="M 445.0 37.2 L 445.0 32.1 L 452.9 32.1" id="86,85" /><path d="M 445.0 37.2 L 445.0 42.3 L 446.0 42.3" id="86,84" /><path d="M 452.9 32.1 L 452.9 29.9 L 459.5 29.9" id="85,83" /><path d="M 452.9 32.1 L 452.9 34.3 L 459.5 34.3" id="85,82" /><path d="M 446.0 42.3 L 446.0 39.3 L 457.2 39.3" id="84,81" /><path d="M 446.0 42.3 L 446.0 45.2 L 450.9 45.2" id="84,80" /><path d="M 459.5 29.9 L 459.5 30.6 L 464.0 30.6" id="83,79" /><path d="M 459.5 34.3 L 459.5 32.8 L 465.3 32.8" id="82,78" /><path d="M 459.5 34.3 L 459.5 35.8 L 466.6 35.8" id="82,77" /><path d="M 450.9 45.2 L 450.9 49.6 L 453.6 49.6" id="80,76" /><path d="M 465.3 32.8 L 465.3 33.5 L 473.5 33.5" id="78,75" /><path d="M 466.6 35.8 L 466.6 36.7 L 480.0 36.7" id="77,74" /><path d="M 453.6 49.6 L 453.6 44.6 L 457.6 44.6" id="76,73" /><path d="M 453.6 49.6 L 453.6 54.6 L 457.7 54.6" id="76,72" /><path d="M 480.0 36.7 L 480.0 37.4 L 487.0 37.4" id="74,71" /><path d="M 457.6 44.6 L 457.6 42.6 L 461.4 42.6" id="73,70" /><path d="M 457.6 44.6 L 457.6 46.7 L 466.8 46.7" id="73,69" /><path d="M 457.7 54.6 L 457.7 52.9 L 463.8 52.9" id="72,68" /><path d="M 457.7 54.6 L 457.7 56.3 L 462.2 56.3" id="72,67" /><path d="M 461.4 42.6 L 461.4 43.5 L 467.1 43.5" id="70,66" /><path d="M 466.8 46.7 L 466.8 47.7 L 470.9 47.7" id="69,65" /><path d="M 462.2 56.3 L 462.2 54.8 L 470.6 54.8" id="67,64" /><path d="M 462.2 56.3 L 462.2 57.8 L 465.5 57.8" id="67,63" /><path d="M 467.1 43.5 L 467.1 44.2 L 490.0 44.2" id="66,62" /><path d="M 470.9 47.7 L 470.9 48.8 L 480.3 48.8" id="65,61" /><path d="M 465.5 57.8 L 465.5 59.4 L 471.1 59.4" id="63,60" /><path d="M 480.3 48.8 L 480.3 50.0 L 488.2 50.0" id="61,59" /><path d="M 471.1 59.4 L 471.1 57.8 L 473.9 57.8" id="60,58" /><path d="M 471.1 59.4 L 471.1 61.0 L 474.2 61.0" id="60,57" /><path d="M 488.2 50.0 L 488.2 49.0 L 494.5 49.0" id="59,56" /><path d="M 488.2 50.0 L 488.2 51.0 L 490.9 51.0" id="59,55" /><path d="M 474.2 61.0 L 474.2 62.9 L 475.3 62.9" id="57,54" /><path d="M 475.3 62.9 L 475.3 60.9 L 486.9 60.9" id="54,53" /><path d="M 475.3 62.9 L 475.3 64.8 L 479.4 64.8" id="54,52" /><path d="M 486.9 60.9 L 486.9 61.6 L 492.8 61.6" id="53,51" /><path d="M 479.4 64.8 L 479.4 63.6 L 482.2 63.6" id="52,50" /><path d="M 479.4 64.8 L 479.4 66.0 L 481.2 66.0" id="52,49" /><path d="M 481.2 66.0 L 481.2 67.1 L 486.7 67.1" id="49,48" /><path d="M 486.7 67.1 L 486.7 68.2 L 490.1 68.2" id="48,47" /><path d="M 490.1 68.2 L 490.1 69.4 L 491.3 69.4" id="47,46" /><path d="M 491.3 69.4 L 491.3 68.4 L 492.7 68.4" id="46,45" /><path d="M 491.3 69.4 L 491.3 70.3 L 493.4 70.3" id="46,44" /><path d="M 459.5 29.9 L 459.5 29.2 L 492.6 29.2" id="83,43" /><path d="M 464.0 30.6 L 464.0 30.1 L 491.3 30.1" id="79,42" /><path d="M 464.0 30.6 L 464.0 31.1 L 530.3 31.1" id="79,41" /><path d="M 465.3 32.8 L 465.3 32.1 L 484.2 32.1" id="78,40" /><path d="M 473.5 33.5 L 473.5 33.0 L 514.9 33.0" id="75,39" /><path d="M 473.5 33.5 L 473.5 34.0 L 502.7 34.0" id="75,38" /><path d="M 466.6 35.8 L 466.6 35.0 L 489.0 35.0" id="77,37" /><path d="M 480.0 36.7 L 480.0 35.9 L 488.6 35.9" id="74,36" /><path d="M 487.0 37.4 L 487.0 36.9 L 490.9 36.9" id="71,35" /><path d="M 487.0 37.4 L 487.0 37.9 L 490.6 37.9" id="71,34" /><path d="M 457.2 39.3 L 457.2 38.9 L 522.9 38.9" id="81,33" /><path d="M 457.2 39.3 L 457.2 39.8 L 479.1 39.8" id="81,32" /><path d="M 450.9 45.2 L 450.9 40.8 L 494.9 40.8" id="80,31" /><path d="M 461.4 42.6 L 461.4 41.8 L 493.1 41.8" id="70,30" /><path d="M 467.1 43.5 L 467.1 42.7 L 498.3 42.7" id="66,29" /><path d="M 490.0 44.2 L 490.0 43.7 L 490.2 43.7" id="62,28" /><path d="M 490.0 44.2 L 490.0 44.7 L 490.4 44.7" id="62,27" /><path d="M 466.8 46.7 L 466.8 45.6 L 497.6 45.6" id="69,26" /><path d="M 470.9 47.7 L 470.9 46.6 L 496.7 46.6" id="65,25" /><path d="M 480.3 48.8 L 480.3 47.6 L 505.9 47.6" id="61,24" /><path d="M 494.5 49.0 L 494.5 48.5 L 501.7 48.5" id="56,23" /><path d="M 494.5 49.0 L 494.5 49.5 L 511.9 49.5" id="56,22" /><path d="M 490.9 51.0 L 490.9 50.5 L 499.2 50.5" id="55,21" /><path d="M 490.9 51.0 L 490.9 51.5 L 515.2 51.5" id="55,20" /><path d="M 463.8 52.9 L 463.8 52.4 L 489.2 52.4" id="68,19" /><path d="M 463.8 52.9 L 463.8 53.4 L 486.0 53.4" id="68,18" /><path d="M 470.6 54.8 L 470.6 54.4 L 498.1 54.4" id="64,17" /><path d="M 470.6 54.8 L 470.6 55.3 L 498.5 55.3" id="64,16" /><path d="M 465.5 57.8 L 465.5 56.3 L 487.8 56.3" id="63,15" /><path d="M 473.9 57.8 L 473.9 57.3 L 485.5 57.3" id="58,14" /><path d="M 473.9 57.8 L 473.9 58.2 L 481.1 58.2" id="58,13" /><path d="M 474.2 61.0 L 474.2 59.2 L 494.8 59.2" id="57,12" /><path d="M 486.9 60.9 L 486.9 60.2 L 502.3 60.2" id="53,11" /><path d="M 492.8 61.6 L 492.8 61.1 L 515.9 61.1" id="51,10" /><path d="M 492.8 61.6 L 492.8 62.1 L 505.9 62.1" id="51,9" /><path d="M 482.2 63.6 L 482.2 63.1 L 488.1 63.1" id="50,8" /><path d="M 482.2 63.6 L 482.2 64.1 L 496.2 64.1" id="50,7" /><path d="M 481.2 66.0 L 481.2 65.0 L 488.2 65.0" id="49,6" /><path d="M 486.7 67.1 L 486.7 66.0 L 490.5 66.0" id="48,5" /><path d="M 490.1 68.2 L 490.1 67.0 L 492.8 67.0" id="47,4" /><path d="M 492.7 68.4 L 492.7 67.9 L 492.7 67.9" id="45,3" /><path d="M 492.7 68.4 L 492.7 68.9 L 492.7 68.9" id="45,2" /><path d="M 493.4 70.3 L 493.4 69.9 L 494.1 69.9" id="44,1" /><path d="M 493.4 70.3 L 493.4 70.8 L 494.0 70.8" id="44,0" /></g><g class="toytree-Nodes" style="fill:rgb(100%,0%,0%);fill-opacity:1.0;stroke:None;stroke-width:1"><g id="node-0" transform="translate(494.024,70.833)"><circle r="2.5" /></g><g id="node-1" transform="translate(494.077,69.864)"><circle r="2.5" /></g><g id="node-2" transform="translate(492.699,68.895)"><circle r="2.5" /></g><g id="node-3" transform="translate(492.699,67.926)"><circle r="2.5" /></g><g id="node-4" transform="translate(492.832,66.957)"><circle r="2.5" /></g><g id="node-5" transform="translate(490.494,65.988)"><circle r="2.5" /></g><g id="node-6" transform="translate(488.250,65.019)"><circle r="2.5" /></g><g id="node-7" transform="translate(496.226,64.050)"><circle r="2.5" /></g><g id="node-8" transform="translate(488.104,63.081)"><circle r="2.5" /></g><g id="node-9" transform="translate(505.868,62.112)"><circle r="2.5" /></g><g id="node-10" transform="translate(515.946,61.143)"><circle r="2.5" /></g><g id="node-11" transform="translate(502.296,60.174)"><circle r="2.5" /></g><g id="node-12" transform="translate(494.827,59.205)"><circle r="2.5" /></g><g id="node-13" transform="translate(481.125,58.236)"><circle r="2.5" /></g><g id="node-14" transform="translate(485.495,57.267)"><circle r="2.5" /></g><g id="node-15" transform="translate(487.805,56.298)"><circle r="2.5" /></g><g id="node-16" transform="translate(498.494,55.329)"><circle r="2.5" /></g><g id="node-17" transform="translate(498.147,54.360)"><circle r="2.5" /></g><g id="node-18" transform="translate(486.037,53.391)"><circle r="2.5" /></g><g id="node-19" transform="translate(489.221,52.422)"><circle r="2.5" /></g><g id="node-20" transform="translate(515.243,51.453)"><circle r="2.5" /></g><g id="node-21" transform="translate(499.208,50.484)"><circle r="2.5" /></g><g id="node-22" transform="translate(511.859,49.516)"><circle r="2.5" /></g><g id="node-23" transform="translate(501.697,48.547)"><circle r="2.5" /></g><g id="node-24" transform="translate(505.918,47.578)"><circle r="2.5" /></g><g id="node-25" transform="translate(496.707,46.609)"><circle r="2.5" /></g><g id="node-26" transform="translate(497.556,45.640)"><circle r="2.5" /></g><g id="node-27" transform="translate(490.443,44.671)"><circle r="2.5" /></g><g id="node-28" transform="translate(490.152,43.702)"><circle r="2.5" /></g><g id="node-29" transform="translate(498.291,42.733)"><circle r="2.5" /></g><g id="node-30" transform="translate(493.109,41.764)"><circle r="2.5" /></g><g id="node-31" transform="translate(494.922,40.795)"><circle r="2.5" /></g><g id="node-32" transform="translate(479.065,39.826)"><circle r="2.5" /></g><g id="node-33" transform="translate(522.876,38.857)"><circle r="2.5" /></g><g id="node-34" transform="translate(490.616,37.888)"><circle r="2.5" /></g><g id="node-35" transform="translate(490.902,36.919)"><circle r="2.5" /></g><g id="node-36" transform="translate(488.566,35.950)"><circle r="2.5" /></g><g id="node-37" transform="translate(489.007,34.981)"><circle r="2.5" /></g><g id="node-38" transform="translate(502.712,34.012)"><circle r="2.5" /></g><g id="node-39" transform="translate(514.934,33.043)"><circle r="2.5" /></g><g id="node-40" transform="translate(484.191,32.074)"><circle r="2.5" /></g><g id="node-41" transform="translate(530.263,31.105)"><circle r="2.5" /></g><g id="node-42" transform="translate(491.269,30.136)"><circle r="2.5" /></g><g id="node-43" transform="translate(492.623,29.167)"><circle r="2.5" /></g><g id="node-44" transform="translate(493.429,70.349)"><circle r="0.0" /></g><g id="node-45" transform="translate(492.699,68.411)"><circle r="0.0" /></g><g id="node-46" transform="translate(491.256,69.380)"><circle r="0.0" /></g><g id="node-47" transform="translate(490.124,68.169)"><circle r="0.0" /></g><g id="node-48" transform="translate(486.744,67.078)"><circle r="0.0" /></g><g id="node-49" transform="translate(481.150,66.049)"><circle r="0.0" /></g><g id="node-50" transform="translate(482.229,63.566)"><circle r="0.0" /></g><g id="node-51" transform="translate(492.784,61.628)"><circle r="0.0" /></g><g id="node-52" transform="translate(479.353,64.807)"><circle r="0.0" /></g><g id="node-53" transform="translate(486.855,60.901)"><circle r="0.0" /></g><g id="node-54" transform="translate(475.315,62.854)"><circle r="0.0" /></g><g id="node-55" transform="translate(490.902,50.969)"><circle r="0.0" /></g><g id="node-56" transform="translate(494.521,49.031)"><circle r="0.0" /></g><g id="node-57" transform="translate(474.207,61.030)"><circle r="0.0" /></g><g id="node-58" transform="translate(473.910,57.752)"><circle r="0.0" /></g><g id="node-59" transform="translate(488.230,50.000)"><circle r="0.0" /></g><g id="node-60" transform="translate(471.101,59.391)"><circle r="0.0" /></g><g id="node-61" transform="translate(480.260,48.789)"><circle r="0.0" /></g><g id="node-62" transform="translate(490.006,44.186)"><circle r="0.0" /></g><g id="node-63" transform="translate(465.510,57.845)"><circle r="0.0" /></g><g id="node-64" transform="translate(470.630,54.845)"><circle r="0.0" /></g><g id="node-65" transform="translate(470.921,47.699)"><circle r="0.0" /></g><g id="node-66" transform="translate(467.085,43.459)"><circle r="0.0" /></g><g id="node-67" transform="translate(462.226,56.345)"><circle r="0.0" /></g><g id="node-68" transform="translate(463.832,52.907)"><circle r="0.0" /></g><g id="node-69" transform="translate(466.768,46.669)"><circle r="0.0" /></g><g id="node-70" transform="translate(461.357,42.611)"><circle r="0.0" /></g><g id="node-71" transform="translate(486.988,37.403)"><circle r="0.0" /></g><g id="node-72" transform="translate(457.688,54.626)"><circle r="0.0" /></g><g id="node-73" transform="translate(457.603,44.640)"><circle r="0.0" /></g><g id="node-74" transform="translate(479.956,36.676)"><circle r="0.0" /></g><g id="node-75" transform="translate(473.497,33.527)"><circle r="0.0" /></g><g id="node-76" transform="translate(453.646,49.633)"><circle r="0.0" /></g><g id="node-77" transform="translate(466.649,35.828)"><circle r="0.0" /></g><g id="node-78" transform="translate(465.294,32.800)"><circle r="0.0" /></g><g id="node-79" transform="translate(463.961,30.620)"><circle r="0.0" /></g><g id="node-80" transform="translate(450.852,45.214)"><circle r="0.0" /></g><g id="node-81" transform="translate(457.166,39.341)"><circle r="0.0" /></g><g id="node-82" transform="translate(459.480,34.314)"><circle r="0.0" /></g><g id="node-83" transform="translate(459.495,29.893)"><circle r="0.0" /></g><g id="node-84" transform="translate(446.037,42.277)"><circle r="0.0" /></g><g id="node-85" transform="translate(452.899,32.104)"><circle r="0.0" /></g><g id="node-86" transform="translate(445.000,37.191)"><circle r="0.0" /></g></g></g></g></g></svg>