<svg class="toyplot-canvas-Canvas" xmlns:toyplot="http://www.sandia.gov/toyplot" xmlns:xlink="http://www.w3.org/1999/xlink" xmlns="http://www.w3.org/2000/svg" width="560.0px" height="100.0px" viewBox="0 0 560.0 100.0" preserveAspectRatio="xMidYMid meet" style="background-color:transparent;border-color:#292724;border-style:none;border-width:1.0;fill:rgb(16.1%,15.3%,14.1%);fill-opacity:1.0;font-family:Helvetica;font-size:12px;opacity:1.0;stroke:rgb(16.1%,15.3%,14.1%);stroke-opacity:1.0;stroke-width:1.0" id="t61373e93ed1b4de2b4e3c3b73ffde0b0"><g class="toyplot-coordinates-Cartesian" id="tbd35476a6aa54a048291becf32c2428c"><clipPath id="tf1e9bb05cf4e4871a99739a482fb130f"><rect x="15.0" y="15.0" width="110.0" height="70.0" /></clipPath><g clip-path="url(#tf1e9bb05cf4e4871a99739a482fb130f)"><g class="toytree-mark-Toytree" id="t069607b510004f92b1a6553ee6d591ac"><g class="toytree-Edges" style="fill:none;stroke:rgb(14.9%,14.9%,14.9%);stroke-linecap:round;stroke-opacity:1;stroke-width:0.5"><path d="M 25.0 41.4 L 25.0 31.2 L 28.6 31.2" id="100,99" /><path d="M 25.0 41.4 L 25.0 51.6 L 26.1 51.6" id="100,98" /><path d="M 28.6 31.2 L 28.6 33.3 L 35.3 33.3" id="99,97" /><path d="M 26.1 51.6 L 26.1 53.2 L 29.6 53.2" id="98,96" /><path d="M 35.3 33.3 L 35.3 30.4 L 37.9 30.4" id="97,95" /><path d="M 35.3 33.3 L 35.3 36.2 L 36.2 36.2" id="97,94" /><path d="M 29.6 53.2 L 29.6 55.5 L 33.9 55.5" id="96,93" /><path d="M 36.2 36.2 L 36.2 32.1 L 42.4 32.1" id="94,92" /><path d="M 36.2 36.2 L 36.2 40.2 L 36.9 40.2" id="94,91" /><path d="M 33.9 55.5 L 33.9 52.1 L 37.9 52.1" id="93,90" /><path d="M 33.9 55.5 L 33.9 59.0 L 34.4 59.0" id="93,89" /><path d="M 36.9 40.2 L 36.9 36.8 L 37.7 36.8" id="91,88" /><path d="M 36.9 40.2 L 36.9 43.7 L 37.5 43.7" id="91,87" /><path d="M 34.4 59.0 L 34.4 54.6 L 43.7 54.6" id="89,86" /><path d="M 34.4 59.0 L 34.4 63.3 L 35.5 63.3" id="89,85" /><path d="M 37.7 36.8 L 37.7 34.7 L 38.4 34.7" id="88,84" /><path d="M 37.7 36.8 L 37.7 38.9 L 40.8 38.9" id="88,83" /><path d="M 37.5 43.7 L 37.5 42.1 L 39.4 42.1" id="87,82" /><path d="M 37.5 43.7 L 37.5 45.3 L 38.8 45.3" id="87,81" /><path d="M 43.7 54.6 L 43.7 55.9 L 58.3 55.9" id="86,80" /><path d="M 35.5 63.3 L 35.5 61.3 L 58.8 61.3" id="85,79" /><path d="M 35.5 63.3 L 35.5 65.4 L 37.4 65.4" id="85,78" /><path d="M 38.4 34.7 L 38.4 33.8 L 42.8 33.8" id="84,77" /><path d="M 38.4 34.7 L 38.4 35.6 L 39.2 35.6" id="84,76" /><path d="M 40.8 38.9 L 40.8 37.9 L 42.5 37.9" id="83,75" /><path d="M 40.8 38.9 L 40.8 39.8 L 54.2 39.8" id="83,74" /><path d="M 38.8 45.3 L 38.8 44.0 L 39.5 44.0" id="81,73" /><path d="M 38.8 45.3 L 38.8 46.6 L 40.0 46.6" id="81,72" /><path d="M 58.3 55.9 L 58.3 54.6 L 59.4 54.6" id="80,71" /><path d="M 58.3 55.9 L 58.3 57.2 L 66.2 57.2" id="80,70" /><path d="M 37.4 65.4 L 37.4 63.3 L 39.1 63.3" id="78,69" /><path d="M 37.4 65.4 L 37.4 67.5 L 40.7 67.5" id="78,68" /><path d="M 39.2 35.6 L 39.2 36.2 L 43.1 36.2" id="76,67" /><path d="M 54.2 39.8 L 54.2 40.4 L 94.8 40.4" id="74,66" /><path d="M 39.5 44.0 L 39.5 44.6 L 40.9 44.6" id="73,65" /><path d="M 40.0 46.6 L 40.0 47.4 L 43.1 47.4" id="72,64" /><path d="M 66.2 57.2 L 66.2 56.2 L 99.9 56.2" id="70,63" /><path d="M 66.2 57.2 L 66.2 58.2 L 92.0 58.2" id="70,62" /><path d="M 39.1 63.3 L 39.1 64.1 L 39.7 64.1" id="69,61" /><path d="M 40.7 67.5 L 40.7 68.3 L 43.1 68.3" id="68,60" /><path d="M 43.1 47.4 L 43.1 48.1 L 58.0 48.1" id="64,59" /><path d="M 92.0 58.2 L 92.0 59.0 L 93.1 59.0" id="62,58" /><path d="M 39.7 64.1 L 39.7 64.8 L 49.7 64.8" id="61,57" /><path d="M 43.1 68.3 L 43.1 69.1 L 47.6 69.1" id="60,56" /><path d="M 58.0 48.1 L 58.0 48.8 L 80.2 48.8" id="59,55" /><path d="M 93.1 59.0 L 93.1 59.6 L 96.6 59.6" id="58,54" /><path d="M 49.7 64.8 L 49.7 65.4 L 54.6 65.4" id="57,53" /><path d="M 47.6 69.1 L 47.6 69.8 L 49.3 69.8" id="56,52" /><path d="M 49.3 69.8 L 49.3 70.4 L 55.8 70.4" id="52,51" /><path d="M 28.6 31.2 L 28.6 29.2 L 92.7 29.2" id="99,50" /><path d="M 37.9 30.4 L 37.9 30.0 L 107.8 30.0" id="95,49" /><path d="M 37.9 30.4 L 37.9 30.8 L 97.6 30.8" id="95,48" /><path d="M 42.4 32.1 L 42.4 31.7 L 110.3 31.7" id="92,47" /><path d="M 42.4 32.1 L 42.4 32.5 L 104.2 32.5" id="92,46" /><path d="M 42.8 33.8 L 42.8 33.3 L 98.0 33.3" id="77,45" /><path d="M 42.8 33.8 L 42.8 34.2 L 98.5 34.2" id="77,44" /><path d="M 39.2 35.6 L 39.2 35.0 L 94.1 35.0" id="76,43" /><path d="M 43.1 36.2 L 43.1 35.8 L 93.3 35.8" id="67,42" /><path d="M 43.1 36.2 L 43.1 36.7 L 101.0 36.7" id="67,41" /><path d="M 42.5 37.9 L 42.5 37.5 L 101.1 37.5" id="75,40" /><path d="M 42.5 37.9 L 42.5 38.3 L 101.6 38.3" id="75,39" /><path d="M 54.2 39.8 L 54.2 39.2 L 101.9 39.2" id="74,38" /><path d="M 94.8 40.4 L 94.8 40.0 L 98.2 40.0" id="66,37" /><path d="M 94.8 40.4 L 94.8 40.8 L 98.3 40.8" id="66,36" /><path d="M 39.4 42.1 L 39.4 41.7 L 100.3 41.7" id="82,35" /><path d="M 39.4 42.1 L 39.4 42.5 L 109.3 42.5" id="82,34" /><path d="M 39.5 44.0 L 39.5 43.3 L 101.6 43.3" id="73,33" /><path d="M 40.9 44.6 L 40.9 44.2 L 99.8 44.2" id="65,32" /><path d="M 40.9 44.6 L 40.9 45.0 L 102.9 45.0" id="65,31" /><path d="M 40.0 46.6 L 40.0 45.8 L 105.8 45.8" id="72,30" /><path d="M 43.1 47.4 L 43.1 46.7 L 100.0 46.7" id="64,29" /><path d="M 58.0 48.1 L 58.0 47.5 L 101.1 47.5" id="59,28" /><path d="M 80.2 48.8 L 80.2 48.3 L 100.6 48.3" id="55,27" /><path d="M 80.2 48.8 L 80.2 49.2 L 97.1 49.2" id="55,26" /><path d="M 26.1 51.6 L 26.1 50.0 L 103.0 50.0" id="98,25" /><path d="M 29.6 53.2 L 29.6 50.8 L 95.7 50.8" id="96,24" /><path d="M 37.9 52.1 L 37.9 51.7 L 98.3 51.7" id="90,23" /><path d="M 37.9 52.1 L 37.9 52.5 L 98.4 52.5" id="90,22" /><path d="M 43.7 54.6 L 43.7 53.3 L 98.9 53.3" id="86,21" /><path d="M 59.4 54.6 L 59.4 54.2 L 101.7 54.2" id="71,20" /><path d="M 59.4 54.6 L 59.4 55.0 L 100.4 55.0" id="71,19" /><path d="M 99.9 56.2 L 99.9 55.8 L 101.2 55.8" id="63,18" /><path d="M 99.9 56.2 L 99.9 56.7 L 101.2 56.7" id="63,17" /><path d="M 92.0 58.2 L 92.0 57.5 L 100.6 57.5" id="62,16" /><path d="M 93.1 59.0 L 93.1 58.3 L 100.1 58.3" id="58,15" /><path d="M 96.6 59.6 L 96.6 59.2 L 99.7 59.2" id="54,14" /><path d="M 96.6 59.6 L 96.6 60.0 L 99.8 60.0" id="54,13" /><path d="M 58.8 61.3 L 58.8 60.8 L 99.9 60.8" id="79,12" /><path d="M 58.8 61.3 L 58.8 61.7 L 103.0 61.7" id="79,11" /><path d="M 39.1 63.3 L 39.1 62.5 L 99.9 62.5" id="69,10" /><path d="M 39.7 64.1 L 39.7 63.3 L 98.5 63.3" id="61,9" /><path d="M 49.7 64.8 L 49.7 64.2 L 102.4 64.2" id="57,8" /><path d="M 54.6 65.4 L 54.6 65.0 L 101.7 65.0" id="53,7" /><path d="M 54.6 65.4 L 54.6 65.8 L 101.4 65.8" id="53,6" /><path d="M 40.7 67.5 L 40.7 66.7 L 98.2 66.7" id="68,5" /><path d="M 43.1 68.3 L 43.1 67.5 L 106.9 67.5" id="60,4" /><path d="M 47.6 69.1 L 47.6 68.3 L 103.1 68.3" id="56,3" /><path d="M 49.3 69.8 L 49.3 69.2 L 101.0 69.2" id="52,2" /><path d="M 55.8 70.4 L 55.8 70.0 L 96.7 70.0" id="51,1" /><path d="M 55.8 70.4 L 55.8 70.8 L 101.6 70.8" id="51,0" /></g><g class="toytree-Nodes" style="fill:rgb(100%,0%,0%);fill-opacity:1.0;stroke:None;stroke-width:1"><g id="node-0" transform="translate(101.563,70.833)"><circle r="2.5" /></g><g id="node-1" transform="translate(96.660,70.000)"><circle r="2.5" /></g><g id="node-2" transform="translate(100.986,69.167)"><circle r="2.5" /></g><g id="node-3" transform="translate(103.141,68.333)"><circle r="2.5" /></g><g id="node-4" transform="translate(106.890,67.500)"><circle r="2.5" /></g><g id="node-5" transform="translate(98.245,66.667)"><circle r="2.5" /></g><g id="node-6" transform="translate(101.374,65.833)"><circle r="2.5" /></g><g id="node-7" transform="translate(101.692,65.000)"><circle r="2.5" /></g><g id="node-8" transform="translate(102.416,64.167)"><circle r="2.5" /></g><g id="node-9" transform="translate(98.514,63.333)"><circle r="2.5" /></g><g id="node-10" transform="translate(99.925,62.500)"><circle r="2.5" /></g><g id="node-11" transform="translate(102.959,61.667)"><circle r="2.5" /></g><g id="node-12" transform="translate(99.872,60.833)"><circle r="2.5" /></g><g id="node-13" transform="translate(99.770,60.000)"><circle r="2.5" /></g><g id="node-14" transform="translate(99.728,59.167)"><circle r="2.5" /></g><g id="node-15" transform="translate(100.071,58.333)"><circle r="2.5" /></g><g id="node-16" transform="translate(100.568,57.500)"><circle r="2.5" /></g><g id="node-17" transform="translate(101.183,56.667)"><circle r="2.5" /></g><g id="node-18" transform="translate(101.156,55.833)"><circle r="2.5" /></g><g id="node-19" transform="translate(100.400,55.000)"><circle r="2.5" /></g><g id="node-20" transform="translate(101.690,54.167)"><circle r="2.5" /></g><g id="node-21" transform="translate(98.902,53.333)"><circle r="2.5" /></g><g id="node-22" transform="translate(98.398,52.500)"><circle r="2.5" /></g><g id="node-23" transform="translate(98.262,51.667)"><circle r="2.5" /></g><g id="node-24" transform="translate(95.657,50.833)"><circle r="2.5" /></g><g id="node-25" transform="translate(103.046,50.000)"><circle r="2.5" /></g><g id="node-26" transform="translate(97.124,49.167)"><circle r="2.5" /></g><g id="node-27" transform="translate(100.631,48.333)"><circle r="2.5" /></g><g id="node-28" transform="translate(101.121,47.500)"><circle r="2.5" /></g><g id="node-29" transform="translate(100.031,46.667)"><circle r="2.5" /></g><g id="node-30" transform="translate(105.757,45.833)"><circle r="2.5" /></g><g id="node-31" transform="translate(102.918,45.000)"><circle r="2.5" /></g><g id="node-32" transform="translate(99.816,44.167)"><circle r="2.5" /></g><g id="node-33" transform="translate(101.628,43.333)"><circle r="2.5" /></g><g id="node-34" transform="translate(109.261,42.500)"><circle r="2.5" /></g><g id="node-35" transform="translate(100.260,41.667)"><circle r="2.5" /></g><g id="node-36" transform="translate(98.333,40.833)"><circle r="2.5" /></g><g id="node-37" transform="translate(98.219,40.000)"><circle r="2.5" /></g><g id="node-38" transform="translate(101.930,39.167)"><circle r="2.5" /></g><g id="node-39" transform="translate(101.645,38.333)"><circle r="2.5" /></g><g id="node-40" transform="translate(101.077,37.500)"><circle r="2.5" /></g><g id="node-41" transform="translate(100.964,36.667)"><circle r="2.5" /></g><g id="node-42" transform="translate(93.284,35.833)"><circle r="2.5" /></g><g id="node-43" transform="translate(94.090,35.000)"><circle r="2.5" /></g><g id="node-44" transform="translate(98.471,34.167)"><circle r="2.5" /></g><g id="node-45" transform="translate(97.979,33.333)"><circle r="2.5" /></g><g id="node-46" transform="translate(104.202,32.500)"><circle r="2.5" /></g><g id="node-47" transform="translate(110.263,31.667)"><circle r="2.5" /></g><g id="node-48" transform="translate(97.578,30.833)"><circle r="2.5" /></g><g id="node-49" transform="translate(107.766,30.000)"><circle r="2.5" /></g><g id="node-50" transform="translate(92.720,29.167)"><circle r="2.5" /></g><g id="node-51" transform="translate(55.793,70.417)"><circle r="0.0" /></g><g id="node-52" transform="translate(49.329,69.792)"><circle r="0.0" /></g><g id="node-53" transform="translate(54.620,65.417)"><circle r="0.0" /></g><g id="node-54" transform="translate(96.628,59.583)"><circle r="0.0" /></g><g id="node-55" transform="translate(80.245,48.750)"><circle r="0.0" /></g><g id="node-56" transform="translate(47.612,69.062)"><circle r="0.0" /></g><g id="node-57" transform="translate(49.742,64.792)"><circle r="0.0" /></g><g id="node-58" transform="translate(93.053,58.958)"><circle r="0.0" /></g><g id="node-59" transform="translate(57.957,48.125)"><circle r="0.0" /></g><g id="node-60" transform="translate(43.130,68.281)"><circle r="0.0" /></g><g id="node-61" transform="translate(39.735,64.062)"><circle r="0.0" /></g><g id="node-62" transform="translate(92.010,58.229)"><circle r="0.0" /></g><g id="node-63" transform="translate(99.940,56.250)"><circle r="0.0" /></g><g id="node-64" transform="translate(43.064,47.396)"><circle r="0.0" /></g><g id="node-65" transform="translate(40.929,44.583)"><circle r="0.0" /></g><g id="node-66" transform="translate(94.776,40.417)"><circle r="0.0" /></g><g id="node-67" transform="translate(43.117,36.250)"><circle r="0.0" /></g><g id="node-68" transform="translate(40.732,67.474)"><circle r="0.0" /></g><g id="node-69" transform="translate(39.145,63.281)"><circle r="0.0" /></g><g id="node-70" transform="translate(66.197,57.240)"><circle r="0.0" /></g><g id="node-71" transform="translate(59.429,54.583)"><circle r="0.0" /></g><g id="node-72" transform="translate(40.025,46.615)"><circle r="0.0" /></g><g id="node-73" transform="translate(39.499,43.958)"><circle r="0.0" /></g><g id="node-74" transform="translate(54.231,39.792)"><circle r="0.0" /></g><g id="node-75" transform="translate(42.531,37.917)"><circle r="0.0" /></g><g id="node-76" transform="translate(39.188,35.625)"><circle r="0.0" /></g><g id="node-77" transform="translate(42.800,33.750)"><circle r="0.0" /></g><g id="node-78" transform="translate(37.423,65.378)"><circle r="0.0" /></g><g id="node-79" transform="translate(58.759,61.250)"><circle r="0.0" /></g><g id="node-80" transform="translate(58.301,55.911)"><circle r="0.0" /></g><g id="node-81" transform="translate(38.774,45.286)"><circle r="0.0" /></g><g id="node-82" transform="translate(39.404,42.083)"><circle r="0.0" /></g><g id="node-83" transform="translate(40.827,38.854)"><circle r="0.0" /></g><g id="node-84" transform="translate(38.428,34.688)"><circle r="0.0" /></g><g id="node-85" transform="translate(35.516,63.314)"><circle r="0.0" /></g><g id="node-86" transform="translate(43.684,54.622)"><circle r="0.0" /></g><g id="node-87" transform="translate(37.486,43.685)"><circle r="0.0" /></g><g id="node-88" transform="translate(37.715,36.771)"><circle r="0.0" /></g><g id="node-89" transform="translate(34.408,58.968)"><circle r="0.0" /></g><g id="node-90" transform="translate(37.892,52.083)"><circle r="0.0" /></g><g id="node-91" transform="translate(36.900,40.228)"><circle r="0.0" /></g><g id="node-92" transform="translate(42.397,32.083)"><circle r="0.0" /></g><g id="node-93" transform="translate(33.871,55.526)"><circle r="0.0" /></g><g id="node-94" transform="translate(36.168,36.156)"><circle r="0.0" /></g><g id="node-95" transform="translate(37.883,30.417)"><circle r="0.0" /></g><g id="node-96" transform="translate(29.607,53.180)"><circle r="0.0" /></g><g id="node-97" transform="translate(35.322,33.286)"><circle r="0.0" /></g><g id="node-98" transform="translate(26.117,51.590)"><circle r="0.0" /></g><g id="node-99" transform="translate(28.563,31.226)"><circle r="0.0" /></g><g id="node-100" transform="translate(25.000,41.408)"><circle r="0.0" /></g></g></g></g></g><g class="toyplot-coordinates-Cartesian" id="t2c824e948c7b40b1a3df297746b6205a"><clipPath id="t935d24577c204ea09e5fdca8b6f71a37"><rect x="155.0" y="15.0" width="110.0" height="70.0" /></clipPath><g clip-path="url(#t935d24577c204ea09e5fdca8b6f71a37)"><g class="toytree-mark-Toytree" id="tffc519df38864d0491a349335b641ab9"><g class="toytree-Edges" style="fill:none;stroke:rgb(14.9%,14.9%,14.9%);stroke-linecap:round;stroke-opacity:1;stroke-width:0.5"><path d="M 165.0 36.9 L 165.0 44.7 L 169.8 44.7" id="100,99" /><path d="M 169.8 44.7 L 169.8 37.0 L 178.1 37.0" id="99,98" /><path d="M 169.8 44.7 L 169.8 52.4 L 179.5 52.4" id="99,97" /><path d="M 178.1 37.0 L 178.1 31.3 L 180.9 31.3" id="98,96" /><path d="M 178.1 37.0 L 178.1 42.7 L 181.4 42.7" id="98,95" /><path d="M 179.5 52.4 L 179.5 54.0 L 184.0 54.0" id="97,94" /><path d="M 180.9 31.3 L 180.9 32.5 L 182.8 32.5" id="96,93" /><path d="M 181.4 42.7 L 181.4 41.2 L 184.6 41.2" id="95,92" /><path d="M 181.4 42.7 L 181.4 44.2 L 192.0 44.2" id="95,91" /><path d="M 184.0 54.0 L 184.0 56.3 L 186.7 56.3" id="94,90" /><path d="M 182.8 32.5 L 182.8 34.2 L 184.8 34.2" id="93,89" /><path d="M 184.6 41.2 L 184.6 40.4 L 187.6 40.4" id="92,88" /><path d="M 184.6 41.2 L 184.6 42.1 L 189.6 42.1" id="92,87" /><path d="M 192.0 44.2 L 192.0 45.0 L 193.5 45.0" id="91,86" /><path d="M 186.7 56.3 L 186.7 53.1 L 193.4 53.1" id="90,85" /><path d="M 186.7 56.3 L 186.7 59.6 L 188.3 59.6" id="90,84" /><path d="M 184.8 34.2 L 184.8 32.3 L 188.4 32.3" id="89,83" /><path d="M 184.8 34.2 L 184.8 36.1 L 185.4 36.1" id="89,82" /><path d="M 193.5 45.0 L 193.5 45.8 L 195.7 45.8" id="86,81" /><path d="M 193.4 53.1 L 193.4 53.8 L 201.9 53.8" id="85,80" /><path d="M 188.3 59.6 L 188.3 56.2 L 189.6 56.2" id="84,79" /><path d="M 188.3 59.6 L 188.3 62.9 L 189.2 62.9" id="84,78" /><path d="M 188.4 32.3 L 188.4 32.9 L 193.9 32.9" id="83,77" /><path d="M 185.4 36.1 L 185.4 34.8 L 190.0 34.8" id="82,76" /><path d="M 185.4 36.1 L 185.4 37.4 L 197.5 37.4" id="82,75" /><path d="M 195.7 45.8 L 195.7 46.6 L 197.6 46.6" id="81,74" /><path d="M 189.6 56.2 L 189.6 55.4 L 193.9 55.4" id="79,73" /><path d="M 189.6 56.2 L 189.6 57.1 L 191.7 57.1" id="79,72" /><path d="M 189.2 62.9 L 189.2 60.2 L 189.7 60.2" id="78,71" /><path d="M 189.2 62.9 L 189.2 65.6 L 192.0 65.6" id="78,70" /><path d="M 190.0 34.8 L 190.0 35.4 L 198.5 35.4" id="76,69" /><path d="M 197.5 37.4 L 197.5 38.1 L 199.7 38.1" id="75,68" /><path d="M 197.6 46.6 L 197.6 47.4 L 198.8 47.4" id="74,67" /><path d="M 189.7 60.2 L 189.7 59.0 L 190.5 59.0" id="71,66" /><path d="M 189.7 60.2 L 189.7 61.5 L 191.4 61.5" id="71,65" /><path d="M 192.0 65.6 L 192.0 63.8 L 197.9 63.8" id="70,64" /><path d="M 192.0 65.6 L 192.0 67.4 L 193.4 67.4" id="70,63" /><path d="M 199.7 38.1 L 199.7 38.8 L 204.0 38.8" id="68,62" /><path d="M 198.8 47.4 L 198.8 48.2 L 203.7 48.2" id="67,61" /><path d="M 190.5 59.0 L 190.5 59.6 L 193.0 59.6" id="66,60" /><path d="M 191.4 61.5 L 191.4 62.1 L 194.6 62.1" id="65,59" /><path d="M 193.4 67.4 L 193.4 65.7 L 197.6 65.7" id="63,58" /><path d="M 193.4 67.4 L 193.4 69.1 L 197.5 69.1" id="63,57" /><path d="M 203.7 48.2 L 203.7 49.0 L 205.0 49.0" id="61,56" /><path d="M 197.6 65.7 L 197.6 66.5 L 208.8 66.5" id="58,55" /><path d="M 197.5 69.1 L 197.5 69.8 L 204.1 69.8" id="57,54" /><path d="M 205.0 49.0 L 205.0 49.6 L 205.5 49.6" id="56,53" /><path d="M 208.8 66.5 L 208.8 67.1 L 214.1 67.1" id="55,52" /><path d="M 204.1 69.8 L 204.1 70.4 L 210.1 70.4" id="54,51" /><path d="M 165.0 36.9 L 165.0 29.2 L 205.4 29.2" id="100,50" /><path d="M 180.9 31.3 L 180.9 30.0 L 197.0 30.0" id="96,49" /><path d="M 182.8 32.5 L 182.8 30.8 L 200.8 30.8" id="93,48" /><path d="M 188.4 32.3 L 188.4 31.7 L 216.0 31.7" id="83,47" /><path d="M 193.9 32.9 L 193.9 32.5 L 216.9 32.5" id="77,46" /><path d="M 193.9 32.9 L 193.9 33.3 L 193.9 33.3" id="77,45" /><path d="M 190.0 34.8 L 190.0 34.2 L 195.2 34.2" id="76,44" /><path d="M 198.5 35.4 L 198.5 35.0 L 206.9 35.0" id="69,43" /><path d="M 198.5 35.4 L 198.5 35.8 L 198.5 35.8" id="69,42" /><path d="M 197.5 37.4 L 197.5 36.7 L 206.6 36.7" id="75,41" /><path d="M 199.7 38.1 L 199.7 37.5 L 212.3 37.5" id="68,40" /><path d="M 204.0 38.8 L 204.0 38.3 L 204.2 38.3" id="62,39" /><path d="M 204.0 38.8 L 204.0 39.2 L 226.3 39.2" id="62,38" /><path d="M 187.6 40.4 L 187.6 40.0 L 193.3 40.0" id="88,37" /><path d="M 187.6 40.4 L 187.6 40.8 L 203.9 40.8" id="88,36" /><path d="M 189.6 42.1 L 189.6 41.7 L 195.7 41.7" id="87,35" /><path d="M 189.6 42.1 L 189.6 42.5 L 202.8 42.5" id="87,34" /><path d="M 192.0 44.2 L 192.0 43.3 L 205.9 43.3" id="91,33" /><path d="M 193.5 45.0 L 193.5 44.2 L 208.2 44.2" id="86,32" /><path d="M 195.7 45.8 L 195.7 45.0 L 210.0 45.0" id="81,31" /><path d="M 197.6 46.6 L 197.6 45.8 L 210.4 45.8" id="74,30" /><path d="M 198.8 47.4 L 198.8 46.7 L 209.9 46.7" id="67,29" /><path d="M 203.7 48.2 L 203.7 47.5 L 206.4 47.5" id="61,28" /><path d="M 205.0 49.0 L 205.0 48.3 L 206.1 48.3" id="56,27" /><path d="M 205.5 49.6 L 205.5 49.2 L 206.1 49.2" id="53,26" /><path d="M 205.5 49.6 L 205.5 50.0 L 207.4 50.0" id="53,25" /><path d="M 179.5 52.4 L 179.5 50.8 L 195.7 50.8" id="97,24" /><path d="M 184.0 54.0 L 184.0 51.7 L 196.0 51.7" id="94,23" /><path d="M 193.4 53.1 L 193.4 52.5 L 203.3 52.5" id="85,22" /><path d="M 201.9 53.8 L 201.9 53.3 L 201.9 53.3" id="80,21" /><path d="M 201.9 53.8 L 201.9 54.2 L 206.2 54.2" id="80,20" /><path d="M 193.9 55.4 L 193.9 55.0 L 207.4 55.0" id="73,19" /><path d="M 193.9 55.4 L 193.9 55.8 L 204.4 55.8" id="73,18" /><path d="M 191.7 57.1 L 191.7 56.7 L 201.4 56.7" id="72,17" /><path d="M 191.7 57.1 L 191.7 57.5 L 197.4 57.5" id="72,16" /><path d="M 190.5 59.0 L 190.5 58.3 L 197.2 58.3" id="66,15" /><path d="M 193.0 59.6 L 193.0 59.2 L 199.3 59.2" id="60,14" /><path d="M 193.0 59.6 L 193.0 60.0 L 202.1 60.0" id="60,13" /><path d="M 191.4 61.5 L 191.4 60.8 L 204.3 60.8" id="65,12" /><path d="M 194.6 62.1 L 194.6 61.7 L 196.0 61.7" id="59,11" /><path d="M 194.6 62.1 L 194.6 62.5 L 213.5 62.5" id="59,10" /><path d="M 197.9 63.8 L 197.9 63.3 L 222.5 63.3" id="64,9" /><path d="M 197.9 63.8 L 197.9 64.2 L 214.5 64.2" id="64,8" /><path d="M 197.6 65.7 L 197.6 65.0 L 210.5 65.0" id="58,7" /><path d="M 208.8 66.5 L 208.8 65.8 L 215.9 65.8" id="55,6" /><path d="M 214.1 67.1 L 214.1 66.7 L 219.4 66.7" id="52,5" /><path d="M 214.1 67.1 L 214.1 67.5 L 222.3 67.5" id="52,4" /><path d="M 197.5 69.1 L 197.5 68.3 L 222.5 68.3" id="57,3" /><path d="M 204.1 69.8 L 204.1 69.2 L 214.8 69.2" id="54,2" /><path d="M 210.1 70.4 L 210.1 70.0 L 250.3 70.0" id="51,1" /><path d="M 210.1 70.4 L 210.1 70.8 L 218.7 70.8" id="51,0" /></g><g class="toytree-Nodes" style="fill:rgb(100%,0%,0%);fill-opacity:1.0;stroke:None;stroke-width:1"><g id="node-0" transform="translate(218.682,70.833)"><circle r="2.5" /></g><g id="node-1" transform="translate(250.263,70.000)"><circle r="2.5" /></g><g id="node-2" transform="translate(214.827,69.167)"><circle r="2.5" /></g><g id="node-3" transform="translate(222.496,68.333)"><circle r="2.5" /></g><g id="node-4" transform="translate(222.302,67.500)"><circle r="2.5" /></g><g id="node-5" transform="translate(219.407,66.667)"><circle r="2.5" /></g><g id="node-6" transform="translate(215.916,65.833)"><circle r="2.5" /></g><g id="node-7" transform="translate(210.467,65.000)"><circle r="2.5" /></g><g id="node-8" transform="translate(214.457,64.167)"><circle r="2.5" /></g><g id="node-9" transform="translate(222.543,63.333)"><circle r="2.5" /></g><g id="node-10" transform="translate(213.546,62.500)"><circle r="2.5" /></g><g id="node-11" transform="translate(196.042,61.667)"><circle r="2.5" /></g><g id="node-12" transform="translate(204.273,60.833)"><circle r="2.5" /></g><g id="node-13" transform="translate(202.078,60.000)"><circle r="2.5" /></g><g id="node-14" transform="translate(199.347,59.167)"><circle r="2.5" /></g><g id="node-15" transform="translate(197.184,58.333)"><circle r="2.5" /></g><g id="node-16" transform="translate(197.426,57.500)"><circle r="2.5" /></g><g id="node-17" transform="translate(201.381,56.667)"><circle r="2.5" /></g><g id="node-18" transform="translate(204.439,55.833)"><circle r="2.5" /></g><g id="node-19" transform="translate(207.359,55.000)"><circle r="2.5" /></g><g id="node-20" transform="translate(206.200,54.167)"><circle r="2.5" /></g><g id="node-21" transform="translate(201.899,53.333)"><circle r="2.5" /></g><g id="node-22" transform="translate(203.287,52.500)"><circle r="2.5" /></g><g id="node-23" transform="translate(195.979,51.667)"><circle r="2.5" /></g><g id="node-24" transform="translate(195.734,50.833)"><circle r="2.5" /></g><g id="node-25" transform="translate(207.447,50.000)"><circle r="2.5" /></g><g id="node-26" transform="translate(206.115,49.167)"><circle r="2.5" /></g><g id="node-27" transform="translate(206.072,48.333)"><circle r="2.5" /></g><g id="node-28" transform="translate(206.448,47.500)"><circle r="2.5" /></g><g id="node-29" transform="translate(209.898,46.667)"><circle r="2.5" /></g><g id="node-30" transform="translate(210.385,45.833)"><circle r="2.5" /></g><g id="node-31" transform="translate(209.958,45.000)"><circle r="2.5" /></g><g id="node-32" transform="translate(208.241,44.167)"><circle r="2.5" /></g><g id="node-33" transform="translate(205.940,43.333)"><circle r="2.5" /></g><g id="node-34" transform="translate(202.760,42.500)"><circle r="2.5" /></g><g id="node-35" transform="translate(195.728,41.667)"><circle r="2.5" /></g><g id="node-36" transform="translate(203.883,40.833)"><circle r="2.5" /></g><g id="node-37" transform="translate(193.348,40.000)"><circle r="2.5" /></g><g id="node-38" transform="translate(226.267,39.167)"><circle r="2.5" /></g><g id="node-39" transform="translate(204.197,38.333)"><circle r="2.5" /></g><g id="node-40" transform="translate(212.341,37.500)"><circle r="2.5" /></g><g id="node-41" transform="translate(206.633,36.667)"><circle r="2.5" /></g><g id="node-42" transform="translate(198.547,35.833)"><circle r="2.5" /></g><g id="node-43" transform="translate(206.897,35.000)"><circle r="2.5" /></g><g id="node-44" transform="translate(195.194,34.167)"><circle r="2.5" /></g><g id="node-45" transform="translate(193.916,33.333)"><circle r="2.5" /></g><g id="node-46" transform="translate(216.927,32.500)"><circle r="2.5" /></g><g id="node-47" transform="translate(215.960,31.667)"><circle r="2.5" /></g><g id="node-48" transform="translate(200.782,30.833)"><circle r="2.5" /></g><g id="node-49" transform="translate(196.986,30.000)"><circle r="2.5" /></g><g id="node-50" transform="translate(205.437,29.167)"><circle r="2.5" /></g><g id="node-51" transform="translate(210.143,70.417)"><circle r="0.0" /></g><g id="node-52" transform="translate(214.089,67.083)"><circle r="0.0" /></g><g id="node-53" transform="translate(205.494,49.583)"><circle r="0.0" /></g><g id="node-54" transform="translate(204.135,69.792)"><circle r="0.0" /></g><g id="node-55" transform="translate(208.756,66.458)"><circle r="0.0" /></g><g id="node-56" transform="translate(205.014,48.958)"><circle r="0.0" /></g><g id="node-57" transform="translate(197.548,69.062)"><circle r="0.0" /></g><g id="node-58" transform="translate(197.561,65.729)"><circle r="0.0" /></g><g id="node-59" transform="translate(194.638,62.083)"><circle r="0.0" /></g><g id="node-60" transform="translate(193.022,59.583)"><circle r="0.0" /></g><g id="node-61" transform="translate(203.683,48.229)"><circle r="0.0" /></g><g id="node-62" transform="translate(204.025,38.750)"><circle r="0.0" /></g><g id="node-63" transform="translate(193.414,67.396)"><circle r="0.0" /></g><g id="node-64" transform="translate(197.891,63.750)"><circle r="0.0" /></g><g id="node-65" transform="translate(191.380,61.458)"><circle r="0.0" /></g><g id="node-66" transform="translate(190.472,58.958)"><circle r="0.0" /></g><g id="node-67" transform="translate(198.776,47.448)"><circle r="0.0" /></g><g id="node-68" transform="translate(199.683,38.125)"><circle r="0.0" /></g><g id="node-69" transform="translate(198.547,35.417)"><circle r="0.0" /></g><g id="node-70" transform="translate(191.970,65.573)"><circle r="0.0" /></g><g id="node-71" transform="translate(189.672,60.208)"><circle r="0.0" /></g><g id="node-72" transform="translate(191.744,57.083)"><circle r="0.0" /></g><g id="node-73" transform="translate(193.875,55.417)"><circle r="0.0" /></g><g id="node-74" transform="translate(197.599,46.641)"><circle r="0.0" /></g><g id="node-75" transform="translate(197.508,37.396)"><circle r="0.0" /></g><g id="node-76" transform="translate(190.027,34.792)"><circle r="0.0" /></g><g id="node-77" transform="translate(193.916,32.917)"><circle r="0.0" /></g><g id="node-78" transform="translate(189.214,62.891)"><circle r="0.0" /></g><g id="node-79" transform="translate(189.581,56.250)"><circle r="0.0" /></g><g id="node-80" transform="translate(201.899,53.750)"><circle r="0.0" /></g><g id="node-81" transform="translate(195.684,45.820)"><circle r="0.0" /></g><g id="node-82" transform="translate(185.393,36.094)"><circle r="0.0" /></g><g id="node-83" transform="translate(188.410,32.292)"><circle r="0.0" /></g><g id="node-84" transform="translate(188.341,59.570)"><circle r="0.0" /></g><g id="node-85" transform="translate(193.364,53.125)"><circle r="0.0" /></g><g id="node-86" transform="translate(193.477,44.993)"><circle r="0.0" /></g><g id="node-87" transform="translate(189.622,42.083)"><circle r="0.0" /></g><g id="node-88" transform="translate(187.613,40.417)"><circle r="0.0" /></g><g id="node-89" transform="translate(184.762,34.193)"><circle r="0.0" /></g><g id="node-90" transform="translate(186.668,56.348)"><circle r="0.0" /></g><g id="node-91" transform="translate(192.039,44.163)"><circle r="0.0" /></g><g id="node-92" transform="translate(184.599,41.250)"><circle r="0.0" /></g><g id="node-93" transform="translate(182.781,32.513)"><circle r="0.0" /></g><g id="node-94" transform="translate(184.049,54.007)"><circle r="0.0" /></g><g id="node-95" transform="translate(181.416,42.707)"><circle r="0.0" /></g><g id="node-96" transform="translate(180.894,31.257)"><circle r="0.0" /></g><g id="node-97" transform="translate(179.513,52.420)"><circle r="0.0" /></g><g id="node-98" transform="translate(178.094,36.982)"><circle r="0.0" /></g><g id="node-99" transform="translate(169.807,44.701)"><circle r="0.0" /></g><g id="node-100" transform="translate(165.000,36.934)"><circle r="0.0" /></g></g></g></g></g><g class="toyplot-coordinates-Cartesian" id="t918fbfa978d240a890436929992280d8"><clipPath id="te5083a21bc4d499b8dc7be7b6985c14f"><rect x="295.0" y="15.0" width="110.0" height="70.0" /></clipPath><g clip-path="url(#te5083a21bc4d499b8dc7be7b6985c14f)"><g class="toytree-mark-Toytree" id="t8105914c91a44078acb8b81aaeadb639"><g class="toytree-Edges" style="fill:none;stroke:rgb(14.9%,14.9%,14.9%);stroke-linecap:round;stroke-opacity:1;stroke-width:0.5"><path d="M 305.0 41.7 L 305.0 31.2 L 309.0 31.2" id="100,99" /><path d="M 305.0 41.7 L 305.0 52.3 L 307.3 52.3" id="100,98" /><path d="M 309.0 31.2 L 309.0 33.2 L 319.3 33.2" id="99,97" /><path d="M 307.3 52.3 L 307.3 54.5 L 313.3 54.5" id="98,96" /><path d="M 319.3 33.2 L 319.3 36.5 L 322.5 36.5" id="97,95" /><path d="M 313.3 54.5 L 313.3 58.2 L 318.9 58.2" id="96,94" /><path d="M 322.5 36.5 L 322.5 32.6 L 324.5 32.6" id="95,93" /><path d="M 322.5 36.5 L 322.5 40.4 L 323.0 40.4" id="95,92" /><path d="M 318.9 58.2 L 318.9 54.1 L 321.2 54.1" id="94,91" /><path d="M 318.9 58.2 L 318.9 62.4 L 321.0 62.4" id="94,90" /><path d="M 324.5 32.6 L 324.5 31.3 L 328.6 31.3" id="93,89" /><path d="M 324.5 32.6 L 324.5 33.9 L 326.2 33.9" id="93,88" /><path d="M 323.0 40.4 L 323.0 38.1 L 326.5 38.1" id="92,87" /><path d="M 323.0 40.4 L 323.0 42.7 L 325.2 42.7" id="92,86" /><path d="M 321.2 54.1 L 321.2 52.4 L 339.9 52.4" id="91,85" /><path d="M 321.2 54.1 L 321.2 55.8 L 322.9 55.8" id="91,84" /><path d="M 321.0 62.4 L 321.0 60.6 L 327.3 60.6" id="90,83" /><path d="M 321.0 62.4 L 321.0 64.1 L 321.3 64.1" id="90,82" /><path d="M 326.2 33.9 L 326.2 32.9 L 328.9 32.9" id="88,81" /><path d="M 326.2 33.9 L 326.2 34.9 L 327.7 34.9" id="88,80" /><path d="M 326.5 38.1 L 326.5 38.8 L 329.3 38.8" id="87,79" /><path d="M 325.2 42.7 L 325.2 40.6 L 327.6 40.6" id="86,78" /><path d="M 325.2 42.7 L 325.2 44.8 L 326.4 44.8" id="86,77" /><path d="M 339.9 52.4 L 339.9 53.1 L 341.8 53.1" id="85,76" /><path d="M 322.9 55.8 L 322.9 56.6 L 325.1 56.6" id="84,75" /><path d="M 327.3 60.6 L 327.3 61.3 L 331.0 61.3" id="83,74" /><path d="M 321.3 64.1 L 321.3 62.9 L 327.5 62.9" id="82,73" /><path d="M 321.3 64.1 L 321.3 65.3 L 329.7 65.3" id="82,72" /><path d="M 327.7 34.9 L 327.7 35.6 L 339.5 35.6" id="80,71" /><path d="M 327.6 40.6 L 327.6 41.2 L 331.2 41.2" id="78,70" /><path d="M 326.4 44.8 L 326.4 43.1 L 340.3 43.1" id="77,69" /><path d="M 326.4 44.8 L 326.4 46.4 L 330.6 46.4" id="77,68" /><path d="M 341.8 53.1 L 341.8 53.8 L 344.9 53.8" id="76,67" /><path d="M 325.1 56.6 L 325.1 57.4 L 328.3 57.4" id="75,66" /><path d="M 329.7 65.3 L 329.7 66.4 L 332.6 66.4" id="72,65" /><path d="M 339.5 35.6 L 339.5 36.2 L 345.2 36.2" id="71,64" /><path d="M 340.3 43.1 L 340.3 43.8 L 345.4 43.8" id="69,63" /><path d="M 330.6 46.4 L 330.6 45.4 L 334.1 45.4" id="68,62" /><path d="M 330.6 46.4 L 330.6 47.4 L 331.4 47.4" id="68,61" /><path d="M 328.3 57.4 L 328.3 58.1 L 332.3 58.1" id="66,60" /><path d="M 332.6 66.4 L 332.6 65.4 L 335.9 65.4" id="65,59" /><path d="M 332.6 66.4 L 332.6 67.5 L 336.1 67.5" id="65,58" /><path d="M 331.4 47.4 L 331.4 48.1 L 342.6 48.1" id="61,57" /><path d="M 332.3 58.1 L 332.3 58.8 L 336.9 58.8" id="60,56" /><path d="M 336.1 67.5 L 336.1 68.3 L 338.1 68.3" id="58,55" /><path d="M 342.6 48.1 L 342.6 48.8 L 350.0 48.8" id="57,54" /><path d="M 338.1 68.3 L 338.1 69.1 L 345.1 69.1" id="55,53" /><path d="M 345.1 69.1 L 345.1 69.8 L 346.5 69.8" id="53,52" /><path d="M 346.5 69.8 L 346.5 70.4 L 346.8 70.4" id="52,51" /><path d="M 309.0 31.2 L 309.0 29.2 L 325.5 29.2" id="99,50" /><path d="M 319.3 33.2 L 319.3 30.0 L 343.7 30.0" id="97,49" /><path d="M 328.6 31.3 L 328.6 30.8 L 345.7 30.8" id="89,48" /><path d="M 328.6 31.3 L 328.6 31.7 L 340.1 31.7" id="89,47" /><path d="M 328.9 32.9 L 328.9 32.5 L 339.6 32.5" id="81,46" /><path d="M 328.9 32.9 L 328.9 33.3 L 343.2 33.3" id="81,45" /><path d="M 327.7 34.9 L 327.7 34.2 L 334.5 34.2" id="80,44" /><path d="M 339.5 35.6 L 339.5 35.0 L 345.5 35.0" id="71,43" /><path d="M 345.2 36.2 L 345.2 35.8 L 345.2 35.8" id="64,42" /><path d="M 345.2 36.2 L 345.2 36.7 L 355.9 36.7" id="64,41" /><path d="M 326.5 38.1 L 326.5 37.5 L 342.6 37.5" id="87,40" /><path d="M 329.3 38.8 L 329.3 38.3 L 335.9 38.3" id="79,39" /><path d="M 329.3 38.8 L 329.3 39.2 L 335.8 39.2" id="79,38" /><path d="M 327.6 40.6 L 327.6 40.0 L 349.4 40.0" id="78,37" /><path d="M 331.2 41.2 L 331.2 40.8 L 346.6 40.8" id="70,36" /><path d="M 331.2 41.2 L 331.2 41.7 L 332.8 41.7" id="70,35" /><path d="M 340.3 43.1 L 340.3 42.5 L 358.3 42.5" id="69,34" /><path d="M 345.4 43.8 L 345.4 43.3 L 355.3 43.3" id="63,33" /><path d="M 345.4 43.8 L 345.4 44.2 L 390.3 44.2" id="63,32" /><path d="M 334.1 45.4 L 334.1 45.0 L 363.4 45.0" id="62,31" /><path d="M 334.1 45.4 L 334.1 45.8 L 361.3 45.8" id="62,30" /><path d="M 331.4 47.4 L 331.4 46.7 L 349.8 46.7" id="61,29" /><path d="M 342.6 48.1 L 342.6 47.5 L 359.8 47.5" id="57,28" /><path d="M 350.0 48.8 L 350.0 48.3 L 357.4 48.3" id="54,27" /><path d="M 350.0 48.8 L 350.0 49.2 L 356.5 49.2" id="54,26" /><path d="M 307.3 52.3 L 307.3 50.0 L 356.5 50.0" id="98,25" /><path d="M 313.3 54.5 L 313.3 50.8 L 336.4 50.8" id="96,24" /><path d="M 339.9 52.4 L 339.9 51.7 L 352.4 51.7" id="85,23" /><path d="M 341.8 53.1 L 341.8 52.5 L 358.5 52.5" id="76,22" /><path d="M 344.9 53.8 L 344.9 53.3 L 348.2 53.3" id="67,21" /><path d="M 344.9 53.8 L 344.9 54.2 L 375.1 54.2" id="67,20" /><path d="M 322.9 55.8 L 322.9 55.0 L 330.2 55.0" id="84,19" /><path d="M 325.1 56.6 L 325.1 55.8 L 341.5 55.8" id="75,18" /><path d="M 328.3 57.4 L 328.3 56.7 L 346.8 56.7" id="66,17" /><path d="M 332.3 58.1 L 332.3 57.5 L 333.2 57.5" id="60,16" /><path d="M 336.9 58.8 L 336.9 58.3 L 362.5 58.3" id="56,15" /><path d="M 336.9 58.8 L 336.9 59.2 L 366.8 59.2" id="56,14" /><path d="M 327.3 60.6 L 327.3 60.0 L 342.7 60.0" id="83,13" /><path d="M 331.0 61.3 L 331.0 60.8 L 340.7 60.8" id="74,12" /><path d="M 331.0 61.3 L 331.0 61.7 L 331.5 61.7" id="74,11" /><path d="M 327.5 62.9 L 327.5 62.5 L 338.2 62.5" id="73,10" /><path d="M 327.5 62.9 L 327.5 63.3 L 334.6 63.3" id="73,9" /><path d="M 329.7 65.3 L 329.7 64.2 L 345.5 64.2" id="72,8" /><path d="M 335.9 65.4 L 335.9 65.0 L 351.2 65.0" id="59,7" /><path d="M 335.9 65.4 L 335.9 65.8 L 351.1 65.8" id="59,6" /><path d="M 336.1 67.5 L 336.1 66.7 L 351.1 66.7" id="58,5" /><path d="M 338.1 68.3 L 338.1 67.5 L 351.2 67.5" id="55,4" /><path d="M 345.1 69.1 L 345.1 68.3 L 348.3 68.3" id="53,3" /><path d="M 346.5 69.8 L 346.5 69.2 L 347.4 69.2" id="52,2" /><path d="M 346.8 70.4 L 346.8 70.0 L 349.2 70.0" id="51,1" /><path d="M 346.8 70.4 L 346.8 70.8 L 347.3 70.8" id="51,0" /></g><g class="toytree-Nodes" style="fill:rgb(100%,0%,0%);fill-opacity:1.0;stroke:None;stroke-width:1"><g id="node-0" transform="translate(347.308,70.833)"><circle r="2.5" /></g><g id="node-1" transform="translate(349.156,70.000)"><circle r="2.5" /></g><g id="node-2" transform="translate(347.424,69.167)"><circle r="2.5" /></g><g id="node-3" transform="translate(348.250,68.333)"><circle r="2.5" /></g><g id="node-4" transform="translate(351.238,67.500)"><circle r="2.5" /></g><g id="node-5" transform="translate(351.083,66.667)"><circle r="2.5" /></g><g id="node-6" transform="translate(351.073,65.833)"><circle r="2.5" /></g><g id="node-7" transform="translate(351.195,65.000)"><circle r="2.5" /></g><g id="node-8" transform="translate(345.525,64.167)"><circle r="2.5" /></g><g id="node-9" transform="translate(334.647,63.333)"><circle r="2.5" /></g><g id="node-10" transform="translate(338.242,62.500)"><circle r="2.5" /></g><g id="node-11" transform="translate(331.515,61.667)"><circle r="2.5" /></g><g id="node-12" transform="translate(340.654,60.833)"><circle r="2.5" /></g><g id="node-13" transform="translate(342.671,60.000)"><circle r="2.5" /></g><g id="node-14" transform="translate(366.826,59.167)"><circle r="2.5" /></g><g id="node-15" transform="translate(362.505,58.333)"><circle r="2.5" /></g><g id="node-16" transform="translate(333.230,57.500)"><circle r="2.5" /></g><g id="node-17" transform="translate(346.791,56.667)"><circle r="2.5" /></g><g id="node-18" transform="translate(341.474,55.833)"><circle r="2.5" /></g><g id="node-19" transform="translate(330.232,55.000)"><circle r="2.5" /></g><g id="node-20" transform="translate(375.073,54.167)"><circle r="2.5" /></g><g id="node-21" transform="translate(348.247,53.333)"><circle r="2.5" /></g><g id="node-22" transform="translate(358.453,52.500)"><circle r="2.5" /></g><g id="node-23" transform="translate(352.367,51.667)"><circle r="2.5" /></g><g id="node-24" transform="translate(336.419,50.833)"><circle r="2.5" /></g><g id="node-25" transform="translate(356.462,50.000)"><circle r="2.5" /></g><g id="node-26" transform="translate(356.541,49.167)"><circle r="2.5" /></g><g id="node-27" transform="translate(357.418,48.333)"><circle r="2.5" /></g><g id="node-28" transform="translate(359.831,47.500)"><circle r="2.5" /></g><g id="node-29" transform="translate(349.800,46.667)"><circle r="2.5" /></g><g id="node-30" transform="translate(361.337,45.833)"><circle r="2.5" /></g><g id="node-31" transform="translate(363.394,45.000)"><circle r="2.5" /></g><g id="node-32" transform="translate(390.263,44.167)"><circle r="2.5" /></g><g id="node-33" transform="translate(355.326,43.333)"><circle r="2.5" /></g><g id="node-34" transform="translate(358.317,42.500)"><circle r="2.5" /></g><g id="node-35" transform="translate(332.781,41.667)"><circle r="2.5" /></g><g id="node-36" transform="translate(346.630,40.833)"><circle r="2.5" /></g><g id="node-37" transform="translate(349.427,40.000)"><circle r="2.5" /></g><g id="node-38" transform="translate(335.765,39.167)"><circle r="2.5" /></g><g id="node-39" transform="translate(335.902,38.333)"><circle r="2.5" /></g><g id="node-40" transform="translate(342.596,37.500)"><circle r="2.5" /></g><g id="node-41" transform="translate(355.869,36.667)"><circle r="2.5" /></g><g id="node-42" transform="translate(345.192,35.833)"><circle r="2.5" /></g><g id="node-43" transform="translate(345.519,35.000)"><circle r="2.5" /></g><g id="node-44" transform="translate(334.525,34.167)"><circle r="2.5" /></g><g id="node-45" transform="translate(343.164,33.333)"><circle r="2.5" /></g><g id="node-46" transform="translate(339.626,32.500)"><circle r="2.5" /></g><g id="node-47" transform="translate(340.065,31.667)"><circle r="2.5" /></g><g id="node-48" transform="translate(345.702,30.833)"><circle r="2.5" /></g><g id="node-49" transform="translate(343.664,30.000)"><circle r="2.5" /></g><g id="node-50" transform="translate(325.455,29.167)"><circle r="2.5" /></g><g id="node-51" transform="translate(346.758,70.417)"><circle r="0.0" /></g><g id="node-52" transform="translate(346.543,69.792)"><circle r="0.0" /></g><g id="node-53" transform="translate(345.090,69.062)"><circle r="0.0" /></g><g id="node-54" transform="translate(350.041,48.750)"><circle r="0.0" /></g><g id="node-55" transform="translate(338.105,68.281)"><circle r="0.0" /></g><g id="node-56" transform="translate(336.894,58.750)"><circle r="0.0" /></g><g id="node-57" transform="translate(342.560,48.125)"><circle r="0.0" /></g><g id="node-58" transform="translate(336.067,67.474)"><circle r="0.0" /></g><g id="node-59" transform="translate(335.855,65.417)"><circle r="0.0" /></g><g id="node-60" transform="translate(332.321,58.125)"><circle r="0.0" /></g><g id="node-61" transform="translate(331.440,47.396)"><circle r="0.0" /></g><g id="node-62" transform="translate(334.090,45.417)"><circle r="0.0" /></g><g id="node-63" transform="translate(345.400,43.750)"><circle r="0.0" /></g><g id="node-64" transform="translate(345.192,36.250)"><circle r="0.0" /></g><g id="node-65" transform="translate(332.576,66.445)"><circle r="0.0" /></g><g id="node-66" transform="translate(328.312,57.396)"><circle r="0.0" /></g><g id="node-67" transform="translate(344.925,53.750)"><circle r="0.0" /></g><g id="node-68" transform="translate(330.639,46.406)"><circle r="0.0" /></g><g id="node-69" transform="translate(340.274,43.125)"><circle r="0.0" /></g><g id="node-70" transform="translate(331.239,41.250)"><circle r="0.0" /></g><g id="node-71" transform="translate(339.522,35.625)"><circle r="0.0" /></g><g id="node-72" transform="translate(329.678,65.306)"><circle r="0.0" /></g><g id="node-73" transform="translate(327.546,62.917)"><circle r="0.0" /></g><g id="node-74" transform="translate(331.034,61.250)"><circle r="0.0" /></g><g id="node-75" transform="translate(325.148,56.615)"><circle r="0.0" /></g><g id="node-76" transform="translate(341.812,53.125)"><circle r="0.0" /></g><g id="node-77" transform="translate(326.414,44.766)"><circle r="0.0" /></g><g id="node-78" transform="translate(327.633,40.625)"><circle r="0.0" /></g><g id="node-79" transform="translate(329.309,38.750)"><circle r="0.0" /></g><g id="node-80" transform="translate(327.748,34.896)"><circle r="0.0" /></g><g id="node-81" transform="translate(328.920,32.917)"><circle r="0.0" /></g><g id="node-82" transform="translate(321.262,64.111)"><circle r="0.0" /></g><g id="node-83" transform="translate(327.262,60.625)"><circle r="0.0" /></g><g id="node-84" transform="translate(322.930,55.807)"><circle r="0.0" /></g><g id="node-85" transform="translate(339.931,52.396)"><circle r="0.0" /></g><g id="node-86" transform="translate(325.196,42.695)"><circle r="0.0" /></g><g id="node-87" transform="translate(326.515,38.125)"><circle r="0.0" /></g><g id="node-88" transform="translate(326.199,33.906)"><circle r="0.0" /></g><g id="node-89" transform="translate(328.629,31.250)"><circle r="0.0" /></g><g id="node-90" transform="translate(321.043,62.368)"><circle r="0.0" /></g><g id="node-91" transform="translate(321.208,54.102)"><circle r="0.0" /></g><g id="node-92" transform="translate(322.952,40.410)"><circle r="0.0" /></g><g id="node-93" transform="translate(324.541,32.578)"><circle r="0.0" /></g><g id="node-94" transform="translate(318.853,58.235)"><circle r="0.0" /></g><g id="node-95" transform="translate(322.535,36.494)"><circle r="0.0" /></g><g id="node-96" transform="translate(313.310,54.534)"><circle r="0.0" /></g><g id="node-97" transform="translate(319.303,33.247)"><circle r="0.0" /></g><g id="node-98" transform="translate(307.342,52.267)"><circle r="0.0" /></g><g id="node-99" transform="translate(309.047,31.207)"><circle r="0.0" /></g><g id="node-100" transform="translate(305.000,41.737)"><circle r="0.0" /></g></g></g></g></g><g class="toyplot-coordinates-Cartesian" id="t24da8fb8d85e40198eea74ac90e6409f"><clipPath id="t921db2badf6e42b996e67d8718fe3860"><rect x="435.0" y="15.0" width="110.0" height="70.0" /></clipPath><g clip-path="url(#t921db2badf6e42b996e67d8718fe3860)"><g class="toytree-mark-Toytree" id="tf5b8e18ec2e041f79aa5cb095a261a77"><g class="toytree-Edges" style="fill:none;stroke:rgb(14.9%,14.9%,14.9%);stroke-linecap:round;stroke-opacity:1;stroke-width:0.5"><path d="M 445.3 41.6 L 445.3 30.6 L 456.0 30.6" id="100,99" /><path d="M 445.3 41.6 L 445.3 52.5 L 445.5 52.5" id="100,98" /><path d="M 456.0 30.6 L 456.0 32.0 L 466.3 32.0" id="99,97" /><path d="M 445.5 52.5 L 445.5 55.1 L 461.6 55.1" id="98,96" /><path d="M 466.3 32.0 L 466.3 34.0 L 469.5 34.0" id="97,95" /><path d="M 461.6 55.1 L 461.6 51.3 L 463.8 51.3" id="96,94" /><path d="M 461.6 55.1 L 461.6 58.9 L 466.1 58.9" id="96,93" /><path d="M 469.5 34.0 L 469.5 37.2 L 472.4 37.2" id="95,92" /><path d="M 466.1 58.9 L 466.1 54.2 L 466.9 54.2" id="93,91" /><path d="M 466.1 58.9 L 466.1 63.7 L 469.0 63.7" id="93,90" /><path d="M 472.4 37.2 L 472.4 33.1 L 474.8 33.1" id="92,89" /><path d="M 472.4 37.2 L 472.4 41.2 L 472.8 41.2" id="92,88" /><path d="M 466.9 54.2 L 466.9 52.9 L 476.4 52.9" id="91,87" /><path d="M 466.9 54.2 L 466.9 55.5 L 478.0 55.5" id="91,86" /><path d="M 469.0 63.7 L 469.0 62.1 L 481.0 62.1" id="90,85" /><path d="M 469.0 63.7 L 469.0 65.3 L 471.6 65.3" id="90,84" /><path d="M 474.8 33.1 L 474.8 32.1 L 475.8 32.1" id="89,83" /><path d="M 474.8 33.1 L 474.8 34.1 L 476.8 34.1" id="89,82" /><path d="M 472.8 41.2 L 472.8 38.8 L 474.3 38.8" id="88,81" /><path d="M 472.8 41.2 L 472.8 43.7 L 473.6 43.7" id="88,80" /><path d="M 478.0 55.5 L 478.0 56.7 L 492.4 56.7" id="86,79" /><path d="M 471.6 65.3 L 471.6 64.0 L 475.8 64.0" id="84,78" /><path d="M 471.6 65.3 L 471.6 66.7 L 473.0 66.7" id="84,77" /><path d="M 476.8 34.1 L 476.8 34.9 L 478.0 34.9" id="82,76" /><path d="M 474.3 38.8 L 474.3 37.9 L 475.1 37.9" id="81,75" /><path d="M 474.3 38.8 L 474.3 39.6 L 476.3 39.6" id="81,74" /><path d="M 473.6 43.7 L 473.6 41.5 L 478.1 41.5" id="80,73" /><path d="M 473.6 43.7 L 473.6 46.0 L 476.2 46.0" id="80,72" /><path d="M 492.4 56.7 L 492.4 55.4 L 492.9 55.4" id="79,71" /><path d="M 492.4 56.7 L 492.4 58.1 L 494.7 58.1" id="79,70" /><path d="M 475.8 64.0 L 475.8 64.6 L 479.6 64.6" id="78,69" /><path d="M 473.0 66.7 L 473.0 67.5 L 474.9 67.5" id="77,68" /><path d="M 478.0 34.9 L 478.0 35.6 L 494.1 35.6" id="76,67" /><path d="M 478.1 41.5 L 478.1 42.1 L 479.5 42.1" id="73,66" /><path d="M 476.2 46.0 L 476.2 44.6 L 481.0 44.6" id="72,65" /><path d="M 476.2 46.0 L 476.2 47.4 L 477.5 47.4" id="72,64" /><path d="M 494.7 58.1 L 494.7 57.1 L 502.0 57.1" id="70,63" /><path d="M 494.7 58.1 L 494.7 59.1 L 498.0 59.1" id="70,62" /><path d="M 474.9 67.5 L 474.9 68.3 L 477.9 68.3" id="68,61" /><path d="M 494.1 35.6 L 494.1 36.2 L 496.2 36.2" id="67,60" /><path d="M 481.0 44.6 L 481.0 43.8 L 484.1 43.8" id="65,59" /><path d="M 481.0 44.6 L 481.0 45.4 L 483.2 45.4" id="65,58" /><path d="M 477.5 47.4 L 477.5 48.1 L 483.6 48.1" id="64,57" /><path d="M 498.0 59.1 L 498.0 59.8 L 498.8 59.8" id="62,56" /><path d="M 477.9 68.3 L 477.9 69.1 L 485.1 69.1" id="61,55" /><path d="M 483.6 48.1 L 483.6 48.8 L 490.4 48.8" id="57,54" /><path d="M 498.8 59.8 L 498.8 60.4 L 499.3 60.4" id="56,53" /><path d="M 485.1 69.1 L 485.1 69.8 L 489.0 69.8" id="55,52" /><path d="M 489.0 69.8 L 489.0 70.4 L 492.6 70.4" id="52,51" /><path d="M 456.0 30.6 L 456.0 29.2 L 483.3 29.2" id="99,50" /><path d="M 466.3 32.0 L 466.3 30.0 L 486.8 30.0" id="97,49" /><path d="M 469.5 34.0 L 469.5 30.8 L 486.0 30.8" id="95,48" /><path d="M 475.8 32.1 L 475.8 31.7 L 498.1 31.7" id="83,47" /><path d="M 475.8 32.1 L 475.8 32.5 L 495.3 32.5" id="83,46" /><path d="M 476.8 34.1 L 476.8 33.3 L 504.9 33.3" id="82,45" /><path d="M 478.0 34.9 L 478.0 34.2 L 511.1 34.2" id="76,44" /><path d="M 494.1 35.6 L 494.1 35.0 L 509.3 35.0" id="67,43" /><path d="M 496.2 36.2 L 496.2 35.8 L 502.3 35.8" id="60,42" /><path d="M 496.2 36.2 L 496.2 36.7 L 507.1 36.7" id="60,41" /><path d="M 475.1 37.9 L 475.1 37.5 L 498.9 37.5" id="75,40" /><path d="M 475.1 37.9 L 475.1 38.3 L 495.4 38.3" id="75,39" /><path d="M 476.3 39.6 L 476.3 39.2 L 491.1 39.2" id="74,38" /><path d="M 476.3 39.6 L 476.3 40.0 L 495.1 40.0" id="74,37" /><path d="M 478.1 41.5 L 478.1 40.8 L 493.7 40.8" id="73,36" /><path d="M 479.5 42.1 L 479.5 41.7 L 503.5 41.7" id="66,35" /><path d="M 479.5 42.1 L 479.5 42.5 L 494.6 42.5" id="66,34" /><path d="M 484.1 43.8 L 484.1 43.3 L 509.7 43.3" id="59,33" /><path d="M 484.1 43.8 L 484.1 44.2 L 530.3 44.2" id="59,32" /><path d="M 483.2 45.4 L 483.2 45.0 L 504.5 45.0" id="58,31" /><path d="M 483.2 45.4 L 483.2 45.8 L 504.9 45.8" id="58,30" /><path d="M 477.5 47.4 L 477.5 46.7 L 499.3 46.7" id="64,29" /><path d="M 483.6 48.1 L 483.6 47.5 L 495.2 47.5" id="57,28" /><path d="M 490.4 48.8 L 490.4 48.3 L 495.5 48.3" id="54,27" /><path d="M 490.4 48.8 L 490.4 49.2 L 506.4 49.2" id="54,26" /><path d="M 445.5 52.5 L 445.5 50.0 L 491.9 50.0" id="98,25" /><path d="M 463.8 51.3 L 463.8 50.8 L 485.2 50.8" id="94,24" /><path d="M 463.8 51.3 L 463.8 51.7 L 497.0 51.7" id="94,23" /><path d="M 476.4 52.9 L 476.4 52.5 L 500.7 52.5" id="87,22" /><path d="M 476.4 52.9 L 476.4 53.3 L 497.3 53.3" id="87,21" /><path d="M 478.0 55.5 L 478.0 54.2 L 500.6 54.2" id="86,20" /><path d="M 492.9 55.4 L 492.9 55.0 L 502.0 55.0" id="71,19" /><path d="M 492.9 55.4 L 492.9 55.8 L 502.5 55.8" id="71,18" /><path d="M 502.0 57.1 L 502.0 56.7 L 504.7 56.7" id="63,17" /><path d="M 502.0 57.1 L 502.0 57.5 L 504.6 57.5" id="63,16" /><path d="M 498.0 59.1 L 498.0 58.3 L 501.1 58.3" id="62,15" /><path d="M 498.8 59.8 L 498.8 59.2 L 501.1 59.2" id="56,14" /><path d="M 499.3 60.4 L 499.3 60.0 L 501.1 60.0" id="53,13" /><path d="M 499.3 60.4 L 499.3 60.8 L 500.7 60.8" id="53,12" /><path d="M 481.0 62.1 L 481.0 61.7 L 492.1 61.7" id="85,11" /><path d="M 481.0 62.1 L 481.0 62.5 L 494.0 62.5" id="85,10" /><path d="M 475.8 64.0 L 475.8 63.3 L 489.3 63.3" id="78,9" /><path d="M 479.6 64.6 L 479.6 64.2 L 499.8 64.2" id="69,8" /><path d="M 479.6 64.6 L 479.6 65.0 L 488.7 65.0" id="69,7" /><path d="M 473.0 66.7 L 473.0 65.8 L 488.0 65.8" id="77,6" /><path d="M 474.9 67.5 L 474.9 66.7 L 490.8 66.7" id="68,5" /><path d="M 477.9 68.3 L 477.9 67.5 L 506.1 67.5" id="61,4" /><path d="M 485.1 69.1 L 485.1 68.3 L 514.6 68.3" id="55,3" /><path d="M 489.0 69.8 L 489.0 69.2 L 504.1 69.2" id="52,2" /><path d="M 492.6 70.4 L 492.6 70.0 L 523.9 70.0" id="51,1" /><path d="M 492.6 70.4 L 492.6 70.8 L 513.7 70.8" id="51,0" /></g><g class="toytree-Nodes" style="fill:rgb(100%,0%,0%);fill-opacity:1.0;stroke:None;stroke-width:1"><g id="node-0" transform="translate(513.743,70.833)"><circle r="2.5" /></g><g id="node-1" transform="translate(523.858,70.000)"><circle r="2.5" /></g><g id="node-2" transform="translate(504.058,69.167)"><circle r="2.5" /></g><g id="node-3" transform="translate(514.630,68.333)"><circle r="2.5" /></g><g id="node-4" transform="translate(506.118,67.500)"><circle r="2.5" /></g><g id="node-5" transform="translate(490.824,66.667)"><circle r="2.5" /></g><g id="node-6" transform="translate(488.011,65.833)"><circle r="2.5" /></g><g id="node-7" transform="translate(488.683,65.000)"><circle r="2.5" /></g><g id="node-8" transform="translate(499.766,64.167)"><circle r="2.5" /></g><g id="node-9" transform="translate(489.293,63.333)"><circle r="2.5" /></g><g id="node-10" transform="translate(493.988,62.500)"><circle r="2.5" /></g><g id="node-11" transform="translate(492.090,61.667)"><circle r="2.5" /></g><g id="node-12" transform="translate(500.738,60.833)"><circle r="2.5" /></g><g id="node-13" transform="translate(501.111,60.000)"><circle r="2.5" /></g><g id="node-14" transform="translate(501.119,59.167)"><circle r="2.5" /></g><g id="node-15" transform="translate(501.142,58.333)"><circle r="2.5" /></g><g id="node-16" transform="translate(504.645,57.500)"><circle r="2.5" /></g><g id="node-17" transform="translate(504.733,56.667)"><circle r="2.5" /></g><g id="node-18" transform="translate(502.475,55.833)"><circle r="2.5" /></g><g id="node-19" transform="translate(501.955,55.000)"><circle r="2.5" /></g><g id="node-20" transform="translate(500.576,54.167)"><circle r="2.5" /></g><g id="node-21" transform="translate(497.348,53.333)"><circle r="2.5" /></g><g id="node-22" transform="translate(500.713,52.500)"><circle r="2.5" /></g><g id="node-23" transform="translate(496.950,51.667)"><circle r="2.5" /></g><g id="node-24" transform="translate(485.218,50.833)"><circle r="2.5" /></g><g id="node-25" transform="translate(491.859,50.000)"><circle r="2.5" /></g><g id="node-26" transform="translate(506.375,49.167)"><circle r="2.5" /></g><g id="node-27" transform="translate(495.511,48.333)"><circle r="2.5" /></g><g id="node-28" transform="translate(495.188,47.500)"><circle r="2.5" /></g><g id="node-29" transform="translate(499.250,46.667)"><circle r="2.5" /></g><g id="node-30" transform="translate(504.919,45.833)"><circle r="2.5" /></g><g id="node-31" transform="translate(504.530,45.000)"><circle r="2.5" /></g><g id="node-32" transform="translate(530.277,44.167)"><circle r="2.5" /></g><g id="node-33" transform="translate(509.713,43.333)"><circle r="2.5" /></g><g id="node-34" transform="translate(494.583,42.500)"><circle r="2.5" /></g><g id="node-35" transform="translate(503.482,41.667)"><circle r="2.5" /></g><g id="node-36" transform="translate(493.730,40.833)"><circle r="2.5" /></g><g id="node-37" transform="translate(495.060,40.000)"><circle r="2.5" /></g><g id="node-38" transform="translate(491.126,39.167)"><circle r="2.5" /></g><g id="node-39" transform="translate(495.419,38.333)"><circle r="2.5" /></g><g id="node-40" transform="translate(498.938,37.500)"><circle r="2.5" /></g><g id="node-41" transform="translate(507.075,36.667)"><circle r="2.5" /></g><g id="node-42" transform="translate(502.340,35.833)"><circle r="2.5" /></g><g id="node-43" transform="translate(509.315,35.000)"><circle r="2.5" /></g><g id="node-44" transform="translate(511.076,34.167)"><circle r="2.5" /></g><g id="node-45" transform="translate(504.888,33.333)"><circle r="2.5" /></g><g id="node-46" transform="translate(495.301,32.500)"><circle r="2.5" /></g><g id="node-47" transform="translate(498.071,31.667)"><circle r="2.5" /></g><g id="node-48" transform="translate(486.014,30.833)"><circle r="2.5" /></g><g id="node-49" transform="translate(486.815,30.000)"><circle r="2.5" /></g><g id="node-50" transform="translate(483.303,29.167)"><circle r="2.5" /></g><g id="node-51" transform="translate(492.624,70.417)"><circle r="0.0" /></g><g id="node-52" transform="translate(488.956,69.792)"><circle r="0.0" /></g><g id="node-53" transform="translate(499.290,60.417)"><circle r="0.0" /></g><g id="node-54" transform="translate(490.363,48.750)"><circle r="0.0" /></g><g id="node-55" transform="translate(485.101,69.062)"><circle r="0.0" /></g><g id="node-56" transform="translate(498.796,59.792)"><circle r="0.0" /></g><g id="node-57" transform="translate(483.584,48.125)"><circle r="0.0" /></g><g id="node-58" transform="translate(483.220,45.417)"><circle r="0.0" /></g><g id="node-59" transform="translate(484.139,43.750)"><circle r="0.0" /></g><g id="node-60" transform="translate(496.234,36.250)"><circle r="0.0" /></g><g id="node-61" transform="translate(477.907,68.281)"><circle r="0.0" /></g><g id="node-62" transform="translate(497.991,59.062)"><circle r="0.0" /></g><g id="node-63" transform="translate(502.049,57.083)"><circle r="0.0" /></g><g id="node-64" transform="translate(477.496,47.396)"><circle r="0.0" /></g><g id="node-65" transform="translate(480.961,44.583)"><circle r="0.0" /></g><g id="node-66" transform="translate(479.549,42.083)"><circle r="0.0" /></g><g id="node-67" transform="translate(494.059,35.625)"><circle r="0.0" /></g><g id="node-68" transform="translate(474.892,67.474)"><circle r="0.0" /></g><g id="node-69" transform="translate(479.623,64.583)"><circle r="0.0" /></g><g id="node-70" transform="translate(494.727,58.073)"><circle r="0.0" /></g><g id="node-71" transform="translate(492.924,55.417)"><circle r="0.0" /></g><g id="node-72" transform="translate(476.216,45.990)"><circle r="0.0" /></g><g id="node-73" transform="translate(478.118,41.458)"><circle r="0.0" /></g><g id="node-74" transform="translate(476.271,39.583)"><circle r="0.0" /></g><g id="node-75" transform="translate(475.139,37.917)"><circle r="0.0" /></g><g id="node-76" transform="translate(478.020,34.896)"><circle r="0.0" /></g><g id="node-77" transform="translate(472.958,66.654)"><circle r="0.0" /></g><g id="node-78" transform="translate(475.837,63.958)"><circle r="0.0" /></g><g id="node-79" transform="translate(492.377,56.745)"><circle r="0.0" /></g><g id="node-80" transform="translate(473.646,43.724)"><circle r="0.0" /></g><g id="node-81" transform="translate(474.272,38.750)"><circle r="0.0" /></g><g id="node-82" transform="translate(476.815,34.115)"><circle r="0.0" /></g><g id="node-83" transform="translate(475.789,32.083)"><circle r="0.0" /></g><g id="node-84" transform="translate(471.611,65.306)"><circle r="0.0" /></g><g id="node-85" transform="translate(480.951,62.083)"><circle r="0.0" /></g><g id="node-86" transform="translate(477.978,55.456)"><circle r="0.0" /></g><g id="node-87" transform="translate(476.447,52.917)"><circle r="0.0" /></g><g id="node-88" transform="translate(472.833,41.237)"><circle r="0.0" /></g><g id="node-89" transform="translate(474.773,33.099)"><circle r="0.0" /></g><g id="node-90" transform="translate(469.011,63.695)"><circle r="0.0" /></g><g id="node-91" transform="translate(466.902,54.186)"><circle r="0.0" /></g><g id="node-92" transform="translate(472.374,37.168)"><circle r="0.0" /></g><g id="node-93" transform="translate(466.106,58.940)"><circle r="0.0" /></g><g id="node-94" transform="translate(463.755,51.250)"><circle r="0.0" /></g><g id="node-95" transform="translate(469.451,34.001)"><circle r="0.0" /></g><g id="node-96" transform="translate(461.553,55.095)"><circle r="0.0" /></g><g id="node-97" transform="translate(466.298,32.000)"><circle r="0.0" /></g><g id="node-98" transform="translate(445.472,52.548)"><circle r="0.0" /></g><g id="node-99" transform="translate(456.029,30.583)"><circle r="0.0" /></g><g id="node-100" transform="translate(445.262,41.566)"><circle r="0.0" /></g></g></g></g></g></svg>