<svg class="toyplot-canvas-Canvas" xmlns:toyplot="http://www.sandia.gov/toyplot" xmlns:xlink="http://www.w3.org/1999/xlink" xmlns="http://www.w3.org/2000/svg" width="560.0px" height="100.0px" viewBox="0 0 560.0 100.0" preserveAspectRatio="xMidYMid meet" style="background-color:transparent;border-color:#292724;border-style:none;border-width:1.0;fill:rgb(16.1%,15.3%,14.1%);fill-opacity:1.0;font-family:Helvetica;font-size:12px;opacity:1.0;stroke:rgb(16.1%,15.3%,14.1%);stroke-opacity:1.0;stroke-width:1.0" id="t3967fc2bb47846c6807afe787dfe0eb6"><g class="toyplot-coordinates-Cartesian" id="t806347932a3641e9b330bb7173e09238"><clipPath id="td809a59409e34bbda1c62808f11d598d"><rect x="15.0" y="15.0" width="110.0" height="70.0" /></clipPath><g clip-path="url(#td809a59409e34bbda1c62808f11d598d)"><g class="toytree-mark-Toytree" id="tc0eeab8259334c258502aa628f719df3"><g class="toytree-Edges" style="fill:none;stroke:rgb(14.9%,14.9%,14.9%);stroke-linecap:round;stroke-opacity:1;stroke-width:0.5"><path d="M 25.0 32.8 L 25.0 36.4 L 32.2 36.4" id="28,27" /><path d="M 32.2 36.4 L 32.2 40.7 L 37.4 40.7" id="27,26" /><path d="M 37.4 40.7 L 37.4 46.3 L 37.6 46.3" id="26,25" /><path d="M 37.6 46.3 L 37.6 40.3 L 43.2 40.3" id="25,24" /><path d="M 37.6 46.3 L 37.6 52.3 L 63.3 52.3" id="25,23" /><path d="M 43.2 40.3 L 43.2 42.6 L 45.0 42.6" id="24,22" /><path d="M 63.3 52.3 L 63.3 48.5 L 82.7 48.5" id="23,21" /><path d="M 63.3 52.3 L 63.3 56.1 L 74.8 56.1" id="23,20" /><path d="M 74.8 56.1 L 74.8 59.3 L 80.0 59.3" id="20,19" /><path d="M 80.0 59.3 L 80.0 62.6 L 84.6 62.6" id="19,18" /><path d="M 84.6 62.6 L 84.6 66.4 L 85.4 66.4" id="18,17" /><path d="M 85.4 66.4 L 85.4 63.4 L 88.7 63.4" id="17,16" /><path d="M 85.4 66.4 L 85.4 69.3 L 85.9 69.3" id="17,15" /><path d="M 25.0 32.8 L 25.0 29.2 L 91.4 29.2" id="28,14" /><path d="M 32.2 36.4 L 32.2 32.1 L 91.1 32.1" id="27,13" /><path d="M 37.4 40.7 L 37.4 35.1 L 94.9 35.1" id="26,12" /><path d="M 43.2 40.3 L 43.2 38.1 L 110.3 38.1" id="24,11" /><path d="M 45.0 42.6 L 45.0 41.1 L 94.9 41.1" id="22,10" /><path d="M 45.0 42.6 L 45.0 44.0 L 89.7 44.0" id="22,9" /><path d="M 82.7 48.5 L 82.7 47.0 L 92.6 47.0" id="21,8" /><path d="M 82.7 48.5 L 82.7 50.0 L 89.3 50.0" id="21,7" /><path d="M 74.8 56.1 L 74.8 53.0 L 93.8 53.0" id="20,6" /><path d="M 80.0 59.3 L 80.0 56.0 L 89.2 56.0" id="19,5" /><path d="M 84.6 62.6 L 84.6 58.9 L 86.9 58.9" id="18,4" /><path d="M 88.7 63.4 L 88.7 61.9 L 88.7 61.9" id="16,3" /><path d="M 88.7 63.4 L 88.7 64.9 L 88.7 64.9" id="16,2" /><path d="M 85.9 69.3 L 85.9 67.9 L 86.5 67.9" id="15,1" /><path d="M 85.9 69.3 L 85.9 70.8 L 86.0 70.8" id="15,0" /></g><g class="toytree-Nodes" style="fill:rgb(100%,0%,0%);fill-opacity:1.0;stroke:None;stroke-width:1"><g id="node-0" transform="translate(86.015,70.833)"><circle r="2.5" /></g><g id="node-1" transform="translate(86.458,67.857)"><circle r="2.5" /></g><g id="node-2" transform="translate(88.698,64.881)"><circle r="2.5" /></g><g id="node-3" transform="translate(88.698,61.905)"><circle r="2.5" /></g><g id="node-4" transform="translate(86.922,58.929)"><circle r="2.5" /></g><g id="node-5" transform="translate(89.211,55.952)"><circle r="2.5" /></g><g id="node-6" transform="translate(93.815,52.976)"><circle r="2.5" /></g><g id="node-7" transform="translate(89.350,50.000)"><circle r="2.5" /></g><g id="node-8" transform="translate(92.610,47.024)"><circle r="2.5" /></g><g id="node-9" transform="translate(89.711,44.048)"><circle r="2.5" /></g><g id="node-10" transform="translate(94.863,41.071)"><circle r="2.5" /></g><g id="node-11" transform="translate(110.263,38.095)"><circle r="2.5" /></g><g id="node-12" transform="translate(94.884,35.119)"><circle r="2.5" /></g><g id="node-13" transform="translate(91.088,32.143)"><circle r="2.5" /></g><g id="node-14" transform="translate(91.351,29.167)"><circle r="2.5" /></g><g id="node-15" transform="translate(85.865,69.345)"><circle r="0.0" /></g><g id="node-16" transform="translate(88.698,63.393)"><circle r="0.0" /></g><g id="node-17" transform="translate(85.422,66.369)"><circle r="0.0" /></g><g id="node-18" transform="translate(84.605,62.649)"><circle r="0.0" /></g><g id="node-19" transform="translate(79.985,59.301)"><circle r="0.0" /></g><g id="node-20" transform="translate(74.794,56.138)"><circle r="0.0" /></g><g id="node-21" transform="translate(82.709,48.512)"><circle r="0.0" /></g><g id="node-22" transform="translate(44.981,42.560)"><circle r="0.0" /></g><g id="node-23" transform="translate(63.292,52.325)"><circle r="0.0" /></g><g id="node-24" transform="translate(43.211,40.327)"><circle r="0.0" /></g><g id="node-25" transform="translate(37.559,46.326)"><circle r="0.0" /></g><g id="node-26" transform="translate(37.380,40.723)"><circle r="0.0" /></g><g id="node-27" transform="translate(32.196,36.433)"><circle r="0.0" /></g><g id="node-28" transform="translate(25.000,32.800)"><circle r="0.0" /></g></g></g></g></g><g class="toyplot-coordinates-Cartesian" id="t3d7fc5e31c6448899adec7db517818b8"><clipPath id="t7121f459480b44fa842614ed48a79cee"><rect x="155.0" y="15.0" width="110.0" height="70.0" /></clipPath><g clip-path="url(#t7121f459480b44fa842614ed48a79cee)"><g class="toytree-mark-Toytree" id="t8dc8d55595ba42e2b6e8f7ac9a2b965c"><g class="toytree-Edges" style="fill:none;stroke:rgb(14.9%,14.9%,14.9%);stroke-linecap:round;stroke-opacity:1;stroke-width:0.5"><path d="M 165.0 37.2 L 165.0 30.7 L 174.6 30.7" id="28,27" /><path d="M 165.0 37.2 L 165.0 43.7 L 172.7 43.7" id="28,26" /><path d="M 172.7 43.7 L 172.7 37.4 L 183.6 37.4" id="26,25" /><path d="M 172.7 43.7 L 172.7 50.1 L 175.8 50.1" id="26,24" /><path d="M 183.6 37.4 L 183.6 39.6 L 186.7 39.6" id="25,23" /><path d="M 175.8 50.1 L 175.8 56.1 L 186.6 56.1" id="24,22" /><path d="M 186.6 56.1 L 186.6 49.6 L 192.5 49.6" id="22,21" /><path d="M 186.6 56.1 L 186.6 62.6 L 188.7 62.6" id="22,20" /><path d="M 192.5 49.6 L 192.5 52.2 L 195.1 52.2" id="21,19" /><path d="M 188.7 62.6 L 188.7 66.4 L 191.7 66.4" id="20,18" /><path d="M 195.1 52.2 L 195.1 54.5 L 195.5 54.5" id="19,17" /><path d="M 191.7 66.4 L 191.7 63.4 L 192.9 63.4" id="18,16" /><path d="M 191.7 66.4 L 191.7 69.3 L 193.4 69.3" id="18,15" /><path d="M 174.6 30.7 L 174.6 29.2 L 185.2 29.2" id="27,14" /><path d="M 174.6 30.7 L 174.6 32.1 L 250.3 32.1" id="27,13" /><path d="M 183.6 37.4 L 183.6 35.1 L 209.6 35.1" id="25,12" /><path d="M 186.7 39.6 L 186.7 38.1 L 197.9 38.1" id="23,11" /><path d="M 186.7 39.6 L 186.7 41.1 L 193.9 41.1" id="23,10" /><path d="M 175.8 50.1 L 175.8 44.0 L 184.8 44.0" id="24,9" /><path d="M 192.5 49.6 L 192.5 47.0 L 200.6 47.0" id="21,8" /><path d="M 195.1 52.2 L 195.1 50.0 L 198.3 50.0" id="19,7" /><path d="M 195.5 54.5 L 195.5 53.0 L 203.1 53.0" id="17,6" /><path d="M 195.5 54.5 L 195.5 56.0 L 197.6 56.0" id="17,5" /><path d="M 188.7 62.6 L 188.7 58.9 L 196.5 58.9" id="20,4" /><path d="M 192.9 63.4 L 192.9 61.9 L 193.3 61.9" id="16,3" /><path d="M 192.9 63.4 L 192.9 64.9 L 193.2 64.9" id="16,2" /><path d="M 193.4 69.3 L 193.4 67.9 L 195.2 67.9" id="15,1" /><path d="M 193.4 69.3 L 193.4 70.8 L 194.0 70.8" id="15,0" /></g><g class="toytree-Nodes" style="fill:rgb(100%,0%,0%);fill-opacity:1.0;stroke:None;stroke-width:1"><g id="node-0" transform="translate(194.029,70.833)"><circle r="2.5" /></g><g id="node-1" transform="translate(195.152,67.857)"><circle r="2.5" /></g><g id="node-2" transform="translate(193.248,64.881)"><circle r="2.5" /></g><g id="node-3" transform="translate(193.327,61.905)"><circle r="2.5" /></g><g id="node-4" transform="translate(196.547,58.929)"><circle r="2.5" /></g><g id="node-5" transform="translate(197.565,55.952)"><circle r="2.5" /></g><g id="node-6" transform="translate(203.136,52.976)"><circle r="2.5" /></g><g id="node-7" transform="translate(198.284,50.000)"><circle r="2.5" /></g><g id="node-8" transform="translate(200.626,47.024)"><circle r="2.5" /></g><g id="node-9" transform="translate(184.760,44.048)"><circle r="2.5" /></g><g id="node-10" transform="translate(193.941,41.071)"><circle r="2.5" /></g><g id="node-11" transform="translate(197.889,38.095)"><circle r="2.5" /></g><g id="node-12" transform="translate(209.566,35.119)"><circle r="2.5" /></g><g id="node-13" transform="translate(250.263,32.143)"><circle r="2.5" /></g><g id="node-14" transform="translate(185.193,29.167)"><circle r="2.5" /></g><g id="node-15" transform="translate(193.406,69.345)"><circle r="0.0" /></g><g id="node-16" transform="translate(192.937,63.393)"><circle r="0.0" /></g><g id="node-17" transform="translate(195.503,54.464)"><circle r="0.0" /></g><g id="node-18" transform="translate(191.713,66.369)"><circle r="0.0" /></g><g id="node-19" transform="translate(195.117,52.232)"><circle r="0.0" /></g><g id="node-20" transform="translate(188.734,62.649)"><circle r="0.0" /></g><g id="node-21" transform="translate(192.454,49.628)"><circle r="0.0" /></g><g id="node-22" transform="translate(186.611,56.138)"><circle r="0.0" /></g><g id="node-23" transform="translate(186.747,39.583)"><circle r="0.0" /></g><g id="node-24" transform="translate(175.798,50.093)"><circle r="0.0" /></g><g id="node-25" transform="translate(183.571,37.351)"><circle r="0.0" /></g><g id="node-26" transform="translate(172.675,43.722)"><circle r="0.0" /></g><g id="node-27" transform="translate(174.564,30.655)"><circle r="0.0" /></g><g id="node-28" transform="translate(165.000,37.188)"><circle r="0.0" /></g></g></g></g></g><g class="toyplot-coordinates-Cartesian" id="t825730a6bbba4b0b91b87ba943a64f38"><clipPath id="t96ddf7d47a9e44b0829cdd3036cbe394"><rect x="295.0" y="15.0" width="110.0" height="70.0" /></clipPath><g clip-path="url(#t96ddf7d47a9e44b0829cdd3036cbe394)"><g class="toytree-mark-Toytree" id="t35e6ef74d4d44176a680a8d1c7b612ea"><g class="toytree-Edges" style="fill:none;stroke:rgb(14.9%,14.9%,14.9%);stroke-linecap:round;stroke-opacity:1;stroke-width:0.5"><path d="M 305.0 38.3 L 305.0 31.8 L 307.0 31.8" id="28,27" /><path d="M 305.0 38.3 L 305.0 44.7 L 309.9 44.7" id="28,26" /><path d="M 307.0 31.8 L 307.0 34.4 L 317.6 34.4" id="27,25" /><path d="M 309.9 44.7 L 309.9 48.4 L 315.2 48.4" id="26,24" /><path d="M 317.6 34.4 L 317.6 36.6 L 320.3 36.6" id="25,23" /><path d="M 315.2 48.4 L 315.2 52.7 L 328.2 52.7" id="24,22" /><path d="M 328.2 52.7 L 328.2 48.5 L 335.8 48.5" id="22,21" /><path d="M 328.2 52.7 L 328.2 57.0 L 331.4 57.0" id="22,20" /><path d="M 331.4 57.0 L 331.4 61.0 L 332.1 61.0" id="20,19" /><path d="M 332.1 61.0 L 332.1 57.4 L 334.8 57.4" id="19,18" /><path d="M 332.1 61.0 L 332.1 64.5 L 334.6 64.5" id="19,17" /><path d="M 334.6 64.5 L 334.6 67.1 L 335.7 67.1" id="17,16" /><path d="M 335.7 67.1 L 335.7 69.3 L 338.0 69.3" id="16,15" /><path d="M 307.0 31.8 L 307.0 29.2 L 343.5 29.2" id="27,14" /><path d="M 317.6 34.4 L 317.6 32.1 L 390.3 32.1" id="25,13" /><path d="M 320.3 36.6 L 320.3 35.1 L 335.6 35.1" id="23,12" /><path d="M 320.3 36.6 L 320.3 38.1 L 328.3 38.1" id="23,11" /><path d="M 309.9 44.7 L 309.9 41.1 L 345.9 41.1" id="26,10" /><path d="M 315.2 48.4 L 315.2 44.0 L 334.5 44.0" id="24,9" /><path d="M 335.8 48.5 L 335.8 47.0 L 342.1 47.0" id="21,8" /><path d="M 335.8 48.5 L 335.8 50.0 L 342.6 50.0" id="21,7" /><path d="M 331.4 57.0 L 331.4 53.0 L 341.6 53.0" id="20,6" /><path d="M 334.8 57.4 L 334.8 56.0 L 338.4 56.0" id="18,5" /><path d="M 334.8 57.4 L 334.8 58.9 L 339.4 58.9" id="18,4" /><path d="M 334.6 64.5 L 334.6 61.9 L 338.1 61.9" id="17,3" /><path d="M 335.7 67.1 L 335.7 64.9 L 338.5 64.9" id="16,2" /><path d="M 338.0 69.3 L 338.0 67.9 L 338.4 67.9" id="15,1" /><path d="M 338.0 69.3 L 338.0 70.8 L 338.2 70.8" id="15,0" /></g><g class="toytree-Nodes" style="fill:rgb(100%,0%,0%);fill-opacity:1.0;stroke:None;stroke-width:1"><g id="node-0" transform="translate(338.221,70.833)"><circle r="2.5" /></g><g id="node-1" transform="translate(338.405,67.857)"><circle r="2.5" /></g><g id="node-2" transform="translate(338.501,64.881)"><circle r="2.5" /></g><g id="node-3" transform="translate(338.133,61.905)"><circle r="2.5" /></g><g id="node-4" transform="translate(339.355,58.929)"><circle r="2.5" /></g><g id="node-5" transform="translate(338.444,55.952)"><circle r="2.5" /></g><g id="node-6" transform="translate(341.622,52.976)"><circle r="2.5" /></g><g id="node-7" transform="translate(342.572,50.000)"><circle r="2.5" /></g><g id="node-8" transform="translate(342.113,47.024)"><circle r="2.5" /></g><g id="node-9" transform="translate(334.495,44.048)"><circle r="2.5" /></g><g id="node-10" transform="translate(345.912,41.071)"><circle r="2.5" /></g><g id="node-11" transform="translate(328.329,38.095)"><circle r="2.5" /></g><g id="node-12" transform="translate(335.620,35.119)"><circle r="2.5" /></g><g id="node-13" transform="translate(390.263,32.143)"><circle r="2.5" /></g><g id="node-14" transform="translate(343.536,29.167)"><circle r="2.5" /></g><g id="node-15" transform="translate(337.988,69.345)"><circle r="0.0" /></g><g id="node-16" transform="translate(335.679,67.113)"><circle r="0.0" /></g><g id="node-17" transform="translate(334.560,64.509)"><circle r="0.0" /></g><g id="node-18" transform="translate(334.821,57.440)"><circle r="0.0" /></g><g id="node-19" transform="translate(332.140,60.975)"><circle r="0.0" /></g><g id="node-20" transform="translate(331.428,56.975)"><circle r="0.0" /></g><g id="node-21" transform="translate(335.774,48.512)"><circle r="0.0" /></g><g id="node-22" transform="translate(328.188,52.744)"><circle r="0.0" /></g><g id="node-23" transform="translate(320.275,36.607)"><circle r="0.0" /></g><g id="node-24" transform="translate(315.178,48.396)"><circle r="0.0" /></g><g id="node-25" transform="translate(317.632,34.375)"><circle r="0.0" /></g><g id="node-26" transform="translate(309.908,44.734)"><circle r="0.0" /></g><g id="node-27" transform="translate(306.989,31.771)"><circle r="0.0" /></g><g id="node-28" transform="translate(305.000,38.252)"><circle r="0.0" /></g></g></g></g></g><g class="toyplot-coordinates-Cartesian" id="t2f2cac0860964bdd92433caae65c8a13"><clipPath id="t87c10d7455b94d3793b5a93835e24177"><rect x="435.0" y="15.0" width="110.0" height="70.0" /></clipPath><g clip-path="url(#t87c10d7455b94d3793b5a93835e24177)"><g class="toytree-mark-Toytree" id="te7801afc85c845dea82c87bf756487c9"><g class="toytree-Edges" style="fill:none;stroke:rgb(14.9%,14.9%,14.9%);stroke-linecap:round;stroke-opacity:1;stroke-width:0.5"><path d="M 445.0 35.4 L 445.0 30.7 L 449.4 30.7" id="28,27" /><path d="M 445.0 35.4 L 445.0 40.2 L 460.6 40.2" id="28,26" /><path d="M 460.6 40.2 L 460.6 45.3 L 468.2 45.3" id="26,25" /><path d="M 468.2 45.3 L 468.2 40.3 L 480.7 40.3" id="25,24" /><path d="M 468.2 45.3 L 468.2 50.4 L 495.6 50.4" id="25,23" /><path d="M 480.7 40.3 L 480.7 42.6 L 487.9 42.6" id="24,22" /><path d="M 495.6 50.4 L 495.6 53.7 L 502.9 53.7" id="23,21" /><path d="M 502.9 53.7 L 502.9 57.4 L 504.8 57.4" id="21,20" /><path d="M 504.8 57.4 L 504.8 61.9 L 505.1 61.9" id="20,19" /><path d="M 505.1 61.9 L 505.1 57.4 L 525.3 57.4" id="19,18" /><path d="M 505.1 61.9 L 505.1 66.4 L 505.4 66.4" id="19,17" /><path d="M 505.4 66.4 L 505.4 63.4 L 506.7 63.4" id="17,16" /><path d="M 505.4 66.4 L 505.4 69.3 L 505.4 69.3" id="17,15" /><path d="M 449.4 30.7 L 449.4 29.2 L 528.6 29.2" id="27,14" /><path d="M 449.4 30.7 L 449.4 32.1 L 498.2 32.1" id="27,13" /><path d="M 460.6 40.2 L 460.6 35.1 L 505.5 35.1" id="26,12" /><path d="M 480.7 40.3 L 480.7 38.1 L 506.7 38.1" id="24,11" /><path d="M 487.9 42.6 L 487.9 41.1 L 523.2 41.1" id="22,10" /><path d="M 487.9 42.6 L 487.9 44.0 L 512.9 44.0" id="22,9" /><path d="M 495.6 50.4 L 495.6 47.0 L 498.9 47.0" id="23,8" /><path d="M 502.9 53.7 L 502.9 50.0 L 505.9 50.0" id="21,7" /><path d="M 504.8 57.4 L 504.8 53.0 L 505.5 53.0" id="20,6" /><path d="M 525.3 57.4 L 525.3 56.0 L 526.5 56.0" id="18,5" /><path d="M 525.3 57.4 L 525.3 58.9 L 530.3 58.9" id="18,4" /><path d="M 506.7 63.4 L 506.7 61.9 L 506.7 61.9" id="16,3" /><path d="M 506.7 63.4 L 506.7 64.9 L 506.7 64.9" id="16,2" /><path d="M 505.4 69.3 L 505.4 67.9 L 507.2 67.9" id="15,1" /><path d="M 505.4 69.3 L 505.4 70.8 L 505.4 70.8" id="15,0" /></g><g class="toytree-Nodes" style="fill:rgb(100%,0%,0%);fill-opacity:1.0;stroke:None;stroke-width:1"><g id="node-0" transform="translate(505.446,70.833)"><circle r="2.5" /></g><g id="node-1" transform="translate(507.178,67.857)"><circle r="2.5" /></g><g id="node-2" transform="translate(506.699,64.881)"><circle r="2.5" /></g><g id="node-3" transform="translate(506.699,61.905)"><circle r="2.5" /></g><g id="node-4" transform="translate(530.263,58.929)"><circle r="2.5" /></g><g id="node-5" transform="translate(526.510,55.952)"><circle r="2.5" /></g><g id="node-6" transform="translate(505.467,52.976)"><circle r="2.5" /></g><g id="node-7" transform="translate(505.879,50.000)"><circle r="2.5" /></g><g id="node-8" transform="translate(498.869,47.024)"><circle r="2.5" /></g><g id="node-9" transform="translate(512.942,44.048)"><circle r="2.5" /></g><g id="node-10" transform="translate(523.219,41.071)"><circle r="2.5" /></g><g id="node-11" transform="translate(506.652,38.095)"><circle r="2.5" /></g><g id="node-12" transform="translate(505.459,35.119)"><circle r="2.5" /></g><g id="node-13" transform="translate(498.168,32.143)"><circle r="2.5" /></g><g id="node-14" transform="translate(528.630,29.167)"><circle r="2.5" /></g><g id="node-15" transform="translate(505.446,69.345)"><circle r="0.0" /></g><g id="node-16" transform="translate(506.699,63.393)"><circle r="0.0" /></g><g id="node-17" transform="translate(505.446,66.369)"><circle r="0.0" /></g><g id="node-18" transform="translate(525.295,57.440)"><circle r="0.0" /></g><g id="node-19" transform="translate(505.130,61.905)"><circle r="0.0" /></g><g id="node-20" transform="translate(504.828,57.440)"><circle r="0.0" /></g><g id="node-21" transform="translate(502.875,53.720)"><circle r="0.0" /></g><g id="node-22" transform="translate(487.945,42.560)"><circle r="0.0" /></g><g id="node-23" transform="translate(495.623,50.372)"><circle r="0.0" /></g><g id="node-24" transform="translate(480.692,40.327)"><circle r="0.0" /></g><g id="node-25" transform="translate(468.190,45.350)"><circle r="0.0" /></g><g id="node-26" transform="translate(460.568,40.234)"><circle r="0.0" /></g><g id="node-27" transform="translate(449.416,30.655)"><circle r="0.0" /></g><g id="node-28" transform="translate(445.000,35.445)"><circle r="0.0" /></g></g></g></g></g></svg>