<svg class="toyplot-canvas-Canvas" xmlns:toyplot="http://www.sandia.gov/toyplot" xmlns:xlink="http://www.w3.org/1999/xlink" xmlns="http://www.w3.org/2000/svg" width="560.0px" height="100.0px" viewBox="0 0 560.0 100.0" preserveAspectRatio="xMidYMid meet" style="background-color:transparent;border-color:#292724;border-style:none;border-width:1.0;fill:rgb(16.1%,15.3%,14.1%);fill-opacity:1.0;font-family:Helvetica;font-size:12px;opacity:1.0;stroke:rgb(16.1%,15.3%,14.1%);stroke-opacity:1.0;stroke-width:1.0" id="t363b78623f8c4e8092d4280e044714b7"><g class="toyplot-coordinates-Cartesian" id="t4175af4268f44ae88b848a45c7b022a2"><clipPath id="t1a8eedbb64364a1380eca2cb0599e92e"><rect x="15.0" y="15.0" width="110.0" height="70.0" /></clipPath><g clip-path="url(#t1a8eedbb64364a1380eca2cb0599e92e)"><g class="toytree-mark-Toytree" id="tf94c505470b94899b60d0a56417af9e2"><g class="toytree-Edges" style="fill:none;stroke:rgb(14.9%,14.9%,14.9%);stroke-linecap:round;stroke-opacity:1;stroke-width:0.5"><path d="M 25.0 33.9 L 25.0 38.5 L 25.6 38.5" id="132,131" /><path d="M 25.6 38.5 L 25.6 30.6 L 27.3 30.6" id="131,130" /><path d="M 25.6 38.5 L 25.6 46.4 L 27.0 46.4" id="131,129" /><path d="M 27.3 30.6 L 27.3 31.5 L 30.2 31.5" id="130,128" /><path d="M 27.0 46.4 L 27.0 43.0 L 28.4 43.0" id="129,127" /><path d="M 27.0 46.4 L 27.0 49.9 L 27.8 49.9" id="129,126" /><path d="M 30.2 31.5 L 30.2 32.6 L 34.1 32.6" id="128,125" /><path d="M 28.4 43.0 L 28.4 43.5 L 39.0 43.5" id="127,124" /><path d="M 27.8 49.9 L 27.8 45.4 L 37.2 45.4" id="126,123" /><path d="M 27.8 49.9 L 27.8 54.4 L 28.8 54.4" id="126,122" /><path d="M 34.1 32.6 L 34.1 31.5 L 44.7 31.5" id="125,121" /><path d="M 34.1 32.6 L 34.1 33.6 L 35.9 33.6" id="125,120" /><path d="M 39.0 43.5 L 39.0 44.0 L 76.7 44.0" id="124,119" /><path d="M 37.2 45.4 L 37.2 45.9 L 41.2 45.9" id="123,118" /><path d="M 28.8 54.4 L 28.8 49.4 L 29.0 49.4" id="122,117" /><path d="M 28.8 54.4 L 28.8 59.4 L 31.2 59.4" id="122,116" /><path d="M 44.7 31.5 L 44.7 32.0 L 46.8 32.0" id="121,115" /><path d="M 35.9 33.6 L 35.9 34.3 L 38.2 34.3" id="120,114" /><path d="M 29.0 49.4 L 29.0 51.9 L 31.4 51.9" id="117,113" /><path d="M 31.2 59.4 L 31.2 60.5 L 32.4 60.5" id="116,112" /><path d="M 38.2 34.3 L 38.2 35.0 L 43.9 35.0" id="114,111" /><path d="M 31.4 51.9 L 31.4 49.3 L 31.8 49.3" id="113,110" /><path d="M 31.4 51.9 L 31.4 54.6 L 32.0 54.6" id="113,109" /><path d="M 32.4 60.5 L 32.4 62.2 L 33.5 62.2" id="112,108" /><path d="M 43.9 35.0 L 43.9 35.7 L 44.8 35.7" id="111,107" /><path d="M 31.8 49.3 L 31.8 48.0 L 33.0 48.0" id="110,106" /><path d="M 31.8 49.3 L 31.8 50.6 L 34.3 50.6" id="110,105" /><path d="M 32.0 54.6 L 32.0 53.1 L 32.5 53.1" id="109,104" /><path d="M 32.0 54.6 L 32.0 56.1 L 33.9 56.1" id="109,103" /><path d="M 33.5 62.2 L 33.5 59.9 L 49.9 59.9" id="108,102" /><path d="M 33.5 62.2 L 33.5 64.4 L 39.2 64.4" id="108,101" /><path d="M 44.8 35.7 L 44.8 36.6 L 53.6 36.6" id="107,100" /><path d="M 33.0 48.0 L 33.0 48.6 L 37.1 48.6" id="106,99" /><path d="M 34.3 50.6 L 34.3 51.1 L 34.5 51.1" id="105,98" /><path d="M 32.5 53.1 L 32.5 53.6 L 33.7 53.6" id="104,97" /><path d="M 33.9 56.1 L 33.9 55.4 L 54.1 55.4" id="103,96" /><path d="M 33.9 56.1 L 33.9 56.8 L 35.7 56.8" id="103,95" /><path d="M 49.9 59.9 L 49.9 60.4 L 51.9 60.4" id="102,94" /><path d="M 39.2 64.4 L 39.2 62.4 L 41.0 62.4" id="101,93" /><path d="M 39.2 64.4 L 39.2 66.4 L 41.3 66.4" id="101,92" /><path d="M 53.6 36.6 L 53.6 37.7 L 56.2 37.7" id="100,91" /><path d="M 37.1 48.6 L 37.1 49.1 L 75.9 49.1" id="99,90" /><path d="M 34.5 51.1 L 34.5 51.6 L 37.1 51.6" id="98,89" /><path d="M 33.7 53.6 L 33.7 54.1 L 42.9 54.1" id="97,88" /><path d="M 35.7 56.8 L 35.7 57.3 L 60.5 57.3" id="95,87" /><path d="M 41.0 62.4 L 41.0 61.7 L 45.2 61.7" id="93,86" /><path d="M 41.0 62.4 L 41.0 63.2 L 47.7 63.2" id="93,85" /><path d="M 41.3 66.4 L 41.3 65.5 L 41.8 65.5" id="92,84" /><path d="M 41.3 66.4 L 41.3 67.2 L 42.4 67.2" id="92,83" /><path d="M 56.2 37.7 L 56.2 36.6 L 62.7 36.6" id="91,82" /><path d="M 56.2 37.7 L 56.2 38.7 L 70.2 38.7" id="91,81" /><path d="M 47.7 63.2 L 47.7 63.7 L 50.2 63.7" id="85,80" /><path d="M 42.4 67.2 L 42.4 68.1 L 44.4 68.1" id="83,79" /><path d="M 62.7 36.6 L 62.7 37.1 L 64.3 37.1" id="82,78" /><path d="M 70.2 38.7 L 70.2 39.5 L 82.9 39.5" id="81,77" /><path d="M 50.2 63.7 L 50.2 64.2 L 60.6 64.2" id="80,76" /><path d="M 44.4 68.1 L 44.4 69.1 L 45.4 69.1" id="79,75" /><path d="M 82.9 39.5 L 82.9 40.3 L 86.1 40.3" id="77,74" /><path d="M 45.4 69.1 L 45.4 68.2 L 49.0 68.2" id="75,73" /><path d="M 45.4 69.1 L 45.4 70.0 L 47.7 70.0" id="75,72" /><path d="M 86.1 40.3 L 86.1 39.6 L 92.9 39.6" id="74,71" /><path d="M 86.1 40.3 L 86.1 41.0 L 92.0 41.0" id="74,70" /><path d="M 49.0 68.2 L 49.0 68.6 L 57.7 68.6" id="73,69" /><path d="M 47.7 70.0 L 47.7 70.5 L 55.6 70.5" id="72,68" /><path d="M 92.0 41.0 L 92.0 41.5 L 98.2 41.5" id="70,67" /><path d="M 25.0 33.9 L 25.0 29.2 L 100.7 29.2" id="132,66" /><path d="M 27.3 30.6 L 27.3 29.8 L 98.0 29.8" id="130,65" /><path d="M 30.2 31.5 L 30.2 30.4 L 104.8 30.4" id="128,64" /><path d="M 44.7 31.5 L 44.7 31.1 L 107.2 31.1" id="121,63" /><path d="M 46.8 32.0 L 46.8 31.7 L 102.5 31.7" id="115,62" /><path d="M 46.8 32.0 L 46.8 32.3 L 103.3 32.3" id="115,61" /><path d="M 35.9 33.6 L 35.9 33.0 L 101.2 33.0" id="120,60" /><path d="M 38.2 34.3 L 38.2 33.6 L 97.9 33.6" id="114,59" /><path d="M 43.9 35.0 L 43.9 34.2 L 101.6 34.2" id="111,58" /><path d="M 44.8 35.7 L 44.8 34.8 L 104.9 34.8" id="107,57" /><path d="M 53.6 36.6 L 53.6 35.5 L 101.2 35.5" id="100,56" /><path d="M 62.7 36.6 L 62.7 36.1 L 101.6 36.1" id="82,55" /><path d="M 64.3 37.1 L 64.3 36.7 L 100.0 36.7" id="78,54" /><path d="M 64.3 37.1 L 64.3 37.4 L 99.6 37.4" id="78,53" /><path d="M 70.2 38.7 L 70.2 38.0 L 98.8 38.0" id="81,52" /><path d="M 82.9 39.5 L 82.9 38.6 L 100.7 38.6" id="77,51" /><path d="M 92.9 39.6 L 92.9 39.3 L 100.0 39.3" id="71,50" /><path d="M 92.9 39.6 L 92.9 39.9 L 99.2 39.9" id="71,49" /><path d="M 92.0 41.0 L 92.0 40.5 L 99.7 40.5" id="70,48" /><path d="M 98.2 41.5 L 98.2 41.2 L 98.5 41.2" id="67,47" /><path d="M 98.2 41.5 L 98.2 41.8 L 98.6 41.8" id="67,46" /><path d="M 28.4 43.0 L 28.4 42.4 L 97.2 42.4" id="127,45" /><path d="M 39.0 43.5 L 39.0 43.1 L 98.5 43.1" id="124,44" /><path d="M 76.7 44.0 L 76.7 43.7 L 104.1 43.7" id="119,43" /><path d="M 76.7 44.0 L 76.7 44.3 L 102.8 44.3" id="119,42" /><path d="M 37.2 45.4 L 37.2 44.9 L 98.1 44.9" id="123,41" /><path d="M 41.2 45.9 L 41.2 45.6 L 101.8 45.6" id="118,40" /><path d="M 41.2 45.9 L 41.2 46.2 L 103.8 46.2" id="118,39" /><path d="M 29.0 49.4 L 29.0 46.8 L 105.7 46.8" id="117,38" /><path d="M 33.0 48.0 L 33.0 47.5 L 110.2 47.5" id="106,37" /><path d="M 37.1 48.6 L 37.1 48.1 L 102.2 48.1" id="99,36" /><path d="M 75.9 49.1 L 75.9 48.7 L 103.0 48.7" id="90,35" /><path d="M 75.9 49.1 L 75.9 49.4 L 103.7 49.4" id="90,34" /><path d="M 34.3 50.6 L 34.3 50.0 L 100.2 50.0" id="105,33" /><path d="M 34.5 51.1 L 34.5 50.6 L 99.5 50.6" id="98,32" /><path d="M 37.1 51.6 L 37.1 51.3 L 104.1 51.3" id="89,31" /><path d="M 37.1 51.6 L 37.1 51.9 L 100.4 51.9" id="89,30" /><path d="M 32.5 53.1 L 32.5 52.5 L 106.6 52.5" id="104,29" /><path d="M 33.7 53.6 L 33.7 53.2 L 110.3 53.2" id="97,28" /><path d="M 42.9 54.1 L 42.9 53.8 L 109.1 53.8" id="88,27" /><path d="M 42.9 54.1 L 42.9 54.4 L 109.0 54.4" id="88,26" /><path d="M 54.1 55.4 L 54.1 55.1 L 106.9 55.1" id="96,25" /><path d="M 54.1 55.4 L 54.1 55.7 L 107.2 55.7" id="96,24" /><path d="M 35.7 56.8 L 35.7 56.3 L 103.6 56.3" id="95,23" /><path d="M 60.5 57.3 L 60.5 56.9 L 102.7 56.9" id="87,22" /><path d="M 60.5 57.3 L 60.5 57.6 L 102.5 57.6" id="87,21" /><path d="M 31.2 59.4 L 31.2 58.2 L 97.8 58.2" id="116,20" /><path d="M 32.4 60.5 L 32.4 58.8 L 105.6 58.8" id="112,19" /><path d="M 49.9 59.9 L 49.9 59.5 L 97.4 59.5" id="102,18" /><path d="M 51.9 60.4 L 51.9 60.1 L 93.9 60.1" id="94,17" /><path d="M 51.9 60.4 L 51.9 60.7 L 97.2 60.7" id="94,16" /><path d="M 45.2 61.7 L 45.2 61.4 L 101.4 61.4" id="86,15" /><path d="M 45.2 61.7 L 45.2 62.0 L 98.6 62.0" id="86,14" /><path d="M 47.7 63.2 L 47.7 62.6 L 98.1 62.6" id="85,13" /><path d="M 50.2 63.7 L 50.2 63.3 L 95.7 63.3" id="80,12" /><path d="M 60.6 64.2 L 60.6 63.9 L 96.8 63.9" id="76,11" /><path d="M 60.6 64.2 L 60.6 64.5 L 97.0 64.5" id="76,10" /><path d="M 41.8 65.5 L 41.8 65.2 L 101.8 65.2" id="84,9" /><path d="M 41.8 65.5 L 41.8 65.8 L 98.4 65.8" id="84,8" /><path d="M 42.4 67.2 L 42.4 66.4 L 96.2 66.4" id="83,7" /><path d="M 44.4 68.1 L 44.4 67.0 L 96.2 67.0" id="79,6" /><path d="M 49.0 68.2 L 49.0 67.7 L 96.8 67.7" id="73,5" /><path d="M 57.7 68.6 L 57.7 68.3 L 95.2 68.3" id="69,4" /><path d="M 57.7 68.6 L 57.7 68.9 L 94.9 68.9" id="69,3" /><path d="M 47.7 70.0 L 47.7 69.6 L 94.8 69.6" id="72,2" /><path d="M 55.6 70.5 L 55.6 70.2 L 99.5 70.2" id="68,1" /><path d="M 55.6 70.5 L 55.6 70.8 L 95.4 70.8" id="68,0" /></g><g class="toytree-Nodes" style="fill:rgb(100%,0%,0%);fill-opacity:1.0;stroke:None;stroke-width:1"><g id="node-0" transform="translate(95.356,70.833)"><circle r="2.5" /></g><g id="node-1" transform="translate(99.503,70.202)"><circle r="2.5" /></g><g id="node-2" transform="translate(94.765,69.571)"><circle r="2.5" /></g><g id="node-3" transform="translate(94.853,68.939)"><circle r="2.5" /></g><g id="node-4" transform="translate(95.181,68.308)"><circle r="2.5" /></g><g id="node-5" transform="translate(96.772,67.677)"><circle r="2.5" /></g><g id="node-6" transform="translate(96.173,67.045)"><circle r="2.5" /></g><g id="node-7" transform="translate(96.216,66.414)"><circle r="2.5" /></g><g id="node-8" transform="translate(98.379,65.783)"><circle r="2.5" /></g><g id="node-9" transform="translate(101.824,65.152)"><circle r="2.5" /></g><g id="node-10" transform="translate(97.036,64.520)"><circle r="2.5" /></g><g id="node-11" transform="translate(96.817,63.889)"><circle r="2.5" /></g><g id="node-12" transform="translate(95.733,63.258)"><circle r="2.5" /></g><g id="node-13" transform="translate(98.077,62.626)"><circle r="2.5" /></g><g id="node-14" transform="translate(98.643,61.995)"><circle r="2.5" /></g><g id="node-15" transform="translate(101.354,61.364)"><circle r="2.5" /></g><g id="node-16" transform="translate(97.166,60.732)"><circle r="2.5" /></g><g id="node-17" transform="translate(93.862,60.101)"><circle r="2.5" /></g><g id="node-18" transform="translate(97.418,59.470)"><circle r="2.5" /></g><g id="node-19" transform="translate(105.627,58.838)"><circle r="2.5" /></g><g id="node-20" transform="translate(97.775,58.207)"><circle r="2.5" /></g><g id="node-21" transform="translate(102.547,57.576)"><circle r="2.5" /></g><g id="node-22" transform="translate(102.703,56.944)"><circle r="2.5" /></g><g id="node-23" transform="translate(103.604,56.313)"><circle r="2.5" /></g><g id="node-24" transform="translate(107.203,55.682)"><circle r="2.5" /></g><g id="node-25" transform="translate(106.887,55.051)"><circle r="2.5" /></g><g id="node-26" transform="translate(108.952,54.419)"><circle r="2.5" /></g><g id="node-27" transform="translate(109.124,53.788)"><circle r="2.5" /></g><g id="node-28" transform="translate(110.263,53.157)"><circle r="2.5" /></g><g id="node-29" transform="translate(106.565,52.525)"><circle r="2.5" /></g><g id="node-30" transform="translate(100.445,51.894)"><circle r="2.5" /></g><g id="node-31" transform="translate(104.139,51.263)"><circle r="2.5" /></g><g id="node-32" transform="translate(99.474,50.631)"><circle r="2.5" /></g><g id="node-33" transform="translate(100.170,50.000)"><circle r="2.5" /></g><g id="node-34" transform="translate(103.723,49.369)"><circle r="2.5" /></g><g id="node-35" transform="translate(103.033,48.737)"><circle r="2.5" /></g><g id="node-36" transform="translate(102.177,48.106)"><circle r="2.5" /></g><g id="node-37" transform="translate(110.160,47.475)"><circle r="2.5" /></g><g id="node-38" transform="translate(105.709,46.843)"><circle r="2.5" /></g><g id="node-39" transform="translate(103.848,46.212)"><circle r="2.5" /></g><g id="node-40" transform="translate(101.765,45.581)"><circle r="2.5" /></g><g id="node-41" transform="translate(98.104,44.949)"><circle r="2.5" /></g><g id="node-42" transform="translate(102.768,44.318)"><circle r="2.5" /></g><g id="node-43" transform="translate(104.075,43.687)"><circle r="2.5" /></g><g id="node-44" transform="translate(98.512,43.056)"><circle r="2.5" /></g><g id="node-45" transform="translate(97.194,42.424)"><circle r="2.5" /></g><g id="node-46" transform="translate(98.598,41.793)"><circle r="2.5" /></g><g id="node-47" transform="translate(98.504,41.162)"><circle r="2.5" /></g><g id="node-48" transform="translate(99.686,40.530)"><circle r="2.5" /></g><g id="node-49" transform="translate(99.216,39.899)"><circle r="2.5" /></g><g id="node-50" transform="translate(99.981,39.268)"><circle r="2.5" /></g><g id="node-51" transform="translate(100.710,38.636)"><circle r="2.5" /></g><g id="node-52" transform="translate(98.781,38.005)"><circle r="2.5" /></g><g id="node-53" transform="translate(99.569,37.374)"><circle r="2.5" /></g><g id="node-54" transform="translate(100.014,36.742)"><circle r="2.5" /></g><g id="node-55" transform="translate(101.605,36.111)"><circle r="2.5" /></g><g id="node-56" transform="translate(101.237,35.480)"><circle r="2.5" /></g><g id="node-57" transform="translate(104.866,34.848)"><circle r="2.5" /></g><g id="node-58" transform="translate(101.605,34.217)"><circle r="2.5" /></g><g id="node-59" transform="translate(97.944,33.586)"><circle r="2.5" /></g><g id="node-60" transform="translate(101.204,32.955)"><circle r="2.5" /></g><g id="node-61" transform="translate(103.294,32.323)"><circle r="2.5" /></g><g id="node-62" transform="translate(102.452,31.692)"><circle r="2.5" /></g><g id="node-63" transform="translate(107.195,31.061)"><circle r="2.5" /></g><g id="node-64" transform="translate(104.847,30.429)"><circle r="2.5" /></g><g id="node-65" transform="translate(98.017,29.798)"><circle r="2.5" /></g><g id="node-66" transform="translate(100.720,29.167)"><circle r="2.5" /></g><g id="node-67" transform="translate(98.161,41.477)"><circle r="0.0" /></g><g id="node-68" transform="translate(55.593,70.518)"><circle r="0.0" /></g><g id="node-69" transform="translate(57.667,68.624)"><circle r="0.0" /></g><g id="node-70" transform="translate(91.951,41.004)"><circle r="0.0" /></g><g id="node-71" transform="translate(92.869,39.583)"><circle r="0.0" /></g><g id="node-72" transform="translate(47.727,70.044)"><circle r="0.0" /></g><g id="node-73" transform="translate(49.036,68.150)"><circle r="0.0" /></g><g id="node-74" transform="translate(86.145,40.294)"><circle r="0.0" /></g><g id="node-75" transform="translate(45.438,69.097)"><circle r="0.0" /></g><g id="node-76" transform="translate(60.649,64.205)"><circle r="0.0" /></g><g id="node-77" transform="translate(82.889,39.465)"><circle r="0.0" /></g><g id="node-78" transform="translate(64.294,37.058)"><circle r="0.0" /></g><g id="node-79" transform="translate(44.363,68.071)"><circle r="0.0" /></g><g id="node-80" transform="translate(50.154,63.731)"><circle r="0.0" /></g><g id="node-81" transform="translate(70.237,38.735)"><circle r="0.0" /></g><g id="node-82" transform="translate(62.714,36.585)"><circle r="0.0" /></g><g id="node-83" transform="translate(42.387,67.243)"><circle r="0.0" /></g><g id="node-84" transform="translate(41.785,65.467)"><circle r="0.0" /></g><g id="node-85" transform="translate(47.663,63.179)"><circle r="0.0" /></g><g id="node-86" transform="translate(45.192,61.679)"><circle r="0.0" /></g><g id="node-87" transform="translate(60.497,57.260)"><circle r="0.0" /></g><g id="node-88" transform="translate(42.920,54.104)"><circle r="0.0" /></g><g id="node-89" transform="translate(37.149,51.578)"><circle r="0.0" /></g><g id="node-90" transform="translate(75.878,49.053)"><circle r="0.0" /></g><g id="node-91" transform="translate(56.190,37.660)"><circle r="0.0" /></g><g id="node-92" transform="translate(41.328,66.355)"><circle r="0.0" /></g><g id="node-93" transform="translate(40.991,62.429)"><circle r="0.0" /></g><g id="node-94" transform="translate(51.923,60.417)"><circle r="0.0" /></g><g id="node-95" transform="translate(35.680,56.787)"><circle r="0.0" /></g><g id="node-96" transform="translate(54.140,55.366)"><circle r="0.0" /></g><g id="node-97" transform="translate(33.683,53.630)"><circle r="0.0" /></g><g id="node-98" transform="translate(34.496,51.105)"><circle r="0.0" /></g><g id="node-99" transform="translate(37.098,48.580)"><circle r="0.0" /></g><g id="node-100" transform="translate(53.620,36.570)"><circle r="0.0" /></g><g id="node-101" transform="translate(39.241,64.392)"><circle r="0.0" /></g><g id="node-102" transform="translate(49.900,59.943)"><circle r="0.0" /></g><g id="node-103" transform="translate(33.921,56.076)"><circle r="0.0" /></g><g id="node-104" transform="translate(32.481,53.078)"><circle r="0.0" /></g><g id="node-105" transform="translate(34.262,50.552)"><circle r="0.0" /></g><g id="node-106" transform="translate(33.012,48.027)"><circle r="0.0" /></g><g id="node-107" transform="translate(44.771,35.709)"><circle r="0.0" /></g><g id="node-108" transform="translate(33.488,62.168)"><circle r="0.0" /></g><g id="node-109" transform="translate(32.040,54.577)"><circle r="0.0" /></g><g id="node-110" transform="translate(31.783,49.290)"><circle r="0.0" /></g><g id="node-111" transform="translate(43.934,34.963)"><circle r="0.0" /></g><g id="node-112" transform="translate(32.423,60.503)"><circle r="0.0" /></g><g id="node-113" transform="translate(31.440,51.933)"><circle r="0.0" /></g><g id="node-114" transform="translate(38.171,34.275)"><circle r="0.0" /></g><g id="node-115" transform="translate(46.799,32.008)"><circle r="0.0" /></g><g id="node-116" transform="translate(31.202,59.355)"><circle r="0.0" /></g><g id="node-117" transform="translate(29.033,49.388)"><circle r="0.0" /></g><g id="node-118" transform="translate(41.174,45.896)"><circle r="0.0" /></g><g id="node-119" transform="translate(76.701,44.003)"><circle r="0.0" /></g><g id="node-120" transform="translate(35.922,33.615)"><circle r="0.0" /></g><g id="node-121" transform="translate(44.718,31.534)"><circle r="0.0" /></g><g id="node-122" transform="translate(28.789,54.372)"><circle r="0.0" /></g><g id="node-123" transform="translate(37.189,45.423)"><circle r="0.0" /></g><g id="node-124" transform="translate(38.968,43.529)"><circle r="0.0" /></g><g id="node-125" transform="translate(34.088,32.574)"><circle r="0.0" /></g><g id="node-126" transform="translate(27.830,49.897)"><circle r="0.0" /></g><g id="node-127" transform="translate(28.403,42.977)"><circle r="0.0" /></g><g id="node-128" transform="translate(30.203,31.502)"><circle r="0.0" /></g><g id="node-129" transform="translate(27.016,46.437)"><circle r="0.0" /></g><g id="node-130" transform="translate(27.256,30.650)"><circle r="0.0" /></g><g id="node-131" transform="translate(25.649,38.543)"><circle r="0.0" /></g><g id="node-132" transform="translate(25.000,33.855)"><circle r="0.0" /></g></g></g></g></g><g class="toyplot-coordinates-Cartesian" id="taf1da408bd994fafaae96cf9b012f307"><clipPath id="t82eadc771ec74765bac93b7cb7be8185"><rect x="155.0" y="15.0" width="110.0" height="70.0" /></clipPath><g clip-path="url(#t82eadc771ec74765bac93b7cb7be8185)"><g class="toytree-mark-Toytree" id="te4bccb9f0f24453c9379ad5c2f0924c7"><g class="toytree-Edges" style="fill:none;stroke:rgb(14.9%,14.9%,14.9%);stroke-linecap:round;stroke-opacity:1;stroke-width:0.5"><path d="M 165.0 35.6 L 165.0 29.7 L 169.6 29.7" id="132,131" /><path d="M 165.0 35.6 L 165.0 41.5 L 169.9 41.5" id="132,130" /><path d="M 169.6 29.7 L 169.6 30.3 L 173.3 30.3" id="131,129" /><path d="M 169.9 41.5 L 169.9 36.1 L 181.7 36.1" id="130,128" /><path d="M 169.9 41.5 L 169.9 47.0 L 172.4 47.0" id="130,127" /><path d="M 173.3 30.3 L 173.3 30.7 L 182.1 30.7" id="129,126" /><path d="M 181.7 36.1 L 181.7 33.0 L 185.0 33.0" id="128,125" /><path d="M 181.7 36.1 L 181.7 39.2 L 189.2 39.2" id="128,124" /><path d="M 172.4 47.0 L 172.4 44.2 L 175.3 44.2" id="127,123" /><path d="M 172.4 47.0 L 172.4 49.8 L 181.2 49.8" id="127,122" /><path d="M 185.0 33.0 L 185.0 32.0 L 186.1 32.0" id="125,121" /><path d="M 185.0 33.0 L 185.0 34.0 L 187.4 34.0" id="125,120" /><path d="M 189.2 39.2 L 189.2 37.8 L 190.3 37.8" id="124,119" /><path d="M 189.2 39.2 L 189.2 40.7 L 191.6 40.7" id="124,118" /><path d="M 175.3 44.2 L 175.3 44.6 L 188.8 44.6" id="123,117" /><path d="M 181.2 49.8 L 181.2 46.9 L 185.1 46.9" id="122,116" /><path d="M 181.2 49.8 L 181.2 52.6 L 181.9 52.6" id="122,115" /><path d="M 187.4 34.0 L 187.4 33.3 L 191.7 33.3" id="120,114" /><path d="M 187.4 34.0 L 187.4 34.8 L 190.5 34.8" id="120,113" /><path d="M 190.3 37.8 L 190.3 37.1 L 192.0 37.1" id="119,112" /><path d="M 190.3 37.8 L 190.3 38.5 L 193.3 38.5" id="119,111" /><path d="M 191.6 40.7 L 191.6 41.6 L 193.1 41.6" id="118,110" /><path d="M 185.1 46.9 L 185.1 45.9 L 195.8 45.9" id="116,109" /><path d="M 185.1 46.9 L 185.1 47.9 L 187.6 47.9" id="116,108" /><path d="M 181.9 52.6 L 181.9 55.3 L 184.5 55.3" id="115,107" /><path d="M 190.5 34.8 L 190.5 35.3 L 193.5 35.3" id="113,106" /><path d="M 193.3 38.5 L 193.3 39.0 L 194.0 39.0" id="111,105" /><path d="M 193.1 41.6 L 193.1 40.8 L 194.6 40.8" id="110,104" /><path d="M 193.1 41.6 L 193.1 42.3 L 196.3 42.3" id="110,103" /><path d="M 187.6 47.9 L 187.6 47.2 L 203.4 47.2" id="108,102" /><path d="M 187.6 47.9 L 187.6 48.6 L 192.1 48.6" id="108,101" /><path d="M 184.5 55.3 L 184.5 52.1 L 186.6 52.1" id="107,100" /><path d="M 184.5 55.3 L 184.5 58.4 L 186.7 58.4" id="107,99" /><path d="M 193.5 35.3 L 193.5 35.8 L 197.0 35.8" id="106,98" /><path d="M 196.3 42.3 L 196.3 42.7 L 197.1 42.7" id="103,97" /><path d="M 192.1 48.6 L 192.1 49.1 L 196.6 49.1" id="101,96" /><path d="M 186.6 52.1 L 186.6 51.1 L 189.5 51.1" id="100,95" /><path d="M 186.6 52.1 L 186.6 53.1 L 190.5 53.1" id="100,94" /><path d="M 186.7 58.4 L 186.7 56.2 L 191.2 56.2" id="99,93" /><path d="M 186.7 58.4 L 186.7 60.6 L 188.2 60.6" id="99,92" /><path d="M 189.5 51.1 L 189.5 51.6 L 200.8 51.6" id="95,91" /><path d="M 190.5 53.1 L 190.5 53.7 L 193.7 53.7" id="94,90" /><path d="M 191.2 56.2 L 191.2 56.8 L 194.9 56.8" id="93,89" /><path d="M 188.2 60.6 L 188.2 58.5 L 191.9 58.5" id="92,88" /><path d="M 188.2 60.6 L 188.2 62.7 L 190.2 62.7" id="92,87" /><path d="M 193.7 53.7 L 193.7 54.3 L 199.7 54.3" id="90,86" /><path d="M 194.9 56.8 L 194.9 57.3 L 199.6 57.3" id="89,85" /><path d="M 190.2 62.7 L 190.2 60.1 L 191.7 60.1" id="87,84" /><path d="M 190.2 62.7 L 190.2 65.4 L 191.4 65.4" id="87,83" /><path d="M 199.7 54.3 L 199.7 54.7 L 207.5 54.7" id="86,82" /><path d="M 191.7 60.1 L 191.7 60.7 L 193.5 60.7" id="84,81" /><path d="M 191.4 65.4 L 191.4 63.7 L 192.7 63.7" id="83,80" /><path d="M 191.4 65.4 L 191.4 67.0 L 192.8 67.0" id="83,79" /><path d="M 193.5 60.7 L 193.5 61.3 L 194.5 61.3" id="81,78" /><path d="M 192.7 63.7 L 192.7 64.2 L 195.3 64.2" id="80,77" /><path d="M 192.8 67.0 L 192.8 65.6 L 193.9 65.6" id="79,76" /><path d="M 192.8 67.0 L 192.8 68.3 L 193.5 68.3" id="79,75" /><path d="M 194.5 61.3 L 194.5 61.8 L 200.4 61.8" id="78,74" /><path d="M 193.9 65.6 L 193.9 66.1 L 195.0 66.1" id="76,73" /><path d="M 193.5 68.3 L 193.5 67.4 L 196.5 67.4" id="75,72" /><path d="M 193.5 68.3 L 193.5 69.3 L 194.0 69.3" id="75,71" /><path d="M 200.4 61.8 L 200.4 62.3 L 203.6 62.3" id="74,70" /><path d="M 194.0 69.3 L 194.0 68.6 L 196.8 68.6" id="71,69" /><path d="M 194.0 69.3 L 194.0 70.0 L 195.7 70.0" id="71,68" /><path d="M 195.7 70.0 L 195.7 70.5 L 197.4 70.5" id="68,67" /><path d="M 169.6 29.7 L 169.6 29.2 L 204.0 29.2" id="131,66" /><path d="M 173.3 30.3 L 173.3 29.8 L 195.5 29.8" id="129,65" /><path d="M 182.1 30.7 L 182.1 30.4 L 200.4 30.4" id="126,64" /><path d="M 182.1 30.7 L 182.1 31.1 L 221.5 31.1" id="126,63" /><path d="M 186.1 32.0 L 186.1 31.7 L 205.6 31.7" id="121,62" /><path d="M 186.1 32.0 L 186.1 32.3 L 196.6 32.3" id="121,61" /><path d="M 191.7 33.3 L 191.7 33.0 L 219.6 33.0" id="114,60" /><path d="M 191.7 33.3 L 191.7 33.6 L 195.5 33.6" id="114,59" /><path d="M 190.5 34.8 L 190.5 34.2 L 200.2 34.2" id="113,58" /><path d="M 193.5 35.3 L 193.5 34.8 L 229.2 34.8" id="106,57" /><path d="M 197.0 35.8 L 197.0 35.5 L 210.3 35.5" id="98,56" /><path d="M 197.0 35.8 L 197.0 36.1 L 211.4 36.1" id="98,55" /><path d="M 192.0 37.1 L 192.0 36.7 L 200.9 36.7" id="112,54" /><path d="M 192.0 37.1 L 192.0 37.4 L 196.0 37.4" id="112,53" /><path d="M 193.3 38.5 L 193.3 38.0 L 196.1 38.0" id="111,52" /><path d="M 194.0 39.0 L 194.0 38.6 L 196.0 38.6" id="105,51" /><path d="M 194.0 39.0 L 194.0 39.3 L 195.9 39.3" id="105,50" /><path d="M 191.6 40.7 L 191.6 39.9 L 195.2 39.9" id="118,49" /><path d="M 194.6 40.8 L 194.6 40.5 L 196.5 40.5" id="104,48" /><path d="M 194.6 40.8 L 194.6 41.2 L 197.0 41.2" id="104,47" /><path d="M 196.3 42.3 L 196.3 41.8 L 197.9 41.8" id="103,46" /><path d="M 197.1 42.7 L 197.1 42.4 L 200.4 42.4" id="97,45" /><path d="M 197.1 42.7 L 197.1 43.1 L 201.8 43.1" id="97,44" /><path d="M 175.3 44.2 L 175.3 43.7 L 195.0 43.7" id="123,43" /><path d="M 188.8 44.6 L 188.8 44.3 L 188.8 44.3" id="117,42" /><path d="M 188.8 44.6 L 188.8 44.9 L 193.0 44.9" id="117,41" /><path d="M 195.8 45.9 L 195.8 45.6 L 199.3 45.6" id="109,40" /><path d="M 195.8 45.9 L 195.8 46.2 L 198.8 46.2" id="109,39" /><path d="M 203.4 47.2 L 203.4 46.8 L 207.9 46.8" id="102,38" /><path d="M 203.4 47.2 L 203.4 47.5 L 212.3 47.5" id="102,37" /><path d="M 192.1 48.6 L 192.1 48.1 L 204.6 48.1" id="101,36" /><path d="M 196.6 49.1 L 196.6 48.7 L 218.1 48.7" id="96,35" /><path d="M 196.6 49.1 L 196.6 49.4 L 225.5 49.4" id="96,34" /><path d="M 181.9 52.6 L 181.9 50.0 L 224.0 50.0" id="115,33" /><path d="M 189.5 51.1 L 189.5 50.6 L 203.3 50.6" id="95,32" /><path d="M 200.8 51.6 L 200.8 51.3 L 250.3 51.3" id="91,31" /><path d="M 200.8 51.6 L 200.8 51.9 L 207.6 51.9" id="91,30" /><path d="M 190.5 53.1 L 190.5 52.5 L 233.2 52.5" id="94,29" /><path d="M 193.7 53.7 L 193.7 53.2 L 245.1 53.2" id="90,28" /><path d="M 199.7 54.3 L 199.7 53.8 L 211.7 53.8" id="86,27" /><path d="M 207.5 54.7 L 207.5 54.4 L 209.1 54.4" id="82,26" /><path d="M 207.5 54.7 L 207.5 55.1 L 209.6 55.1" id="82,25" /><path d="M 191.2 56.2 L 191.2 55.7 L 202.8 55.7" id="93,24" /><path d="M 194.9 56.8 L 194.9 56.3 L 207.6 56.3" id="89,23" /><path d="M 199.6 57.3 L 199.6 56.9 L 233.0 56.9" id="85,22" /><path d="M 199.6 57.3 L 199.6 57.6 L 202.3 57.6" id="85,21" /><path d="M 191.9 58.5 L 191.9 58.2 L 197.8 58.2" id="88,20" /><path d="M 191.9 58.5 L 191.9 58.8 L 192.9 58.8" id="88,19" /><path d="M 191.7 60.1 L 191.7 59.5 L 196.5 59.5" id="84,18" /><path d="M 193.5 60.7 L 193.5 60.1 L 207.2 60.1" id="81,17" /><path d="M 194.5 61.3 L 194.5 60.7 L 196.4 60.7" id="78,16" /><path d="M 200.4 61.8 L 200.4 61.4 L 214.7 61.4" id="74,15" /><path d="M 203.6 62.3 L 203.6 62.0 L 206.0 62.0" id="70,14" /><path d="M 203.6 62.3 L 203.6 62.6 L 208.6 62.6" id="70,13" /><path d="M 192.7 63.7 L 192.7 63.3 L 201.6 63.3" id="80,12" /><path d="M 195.3 64.2 L 195.3 63.9 L 220.9 63.9" id="77,11" /><path d="M 195.3 64.2 L 195.3 64.5 L 206.2 64.5" id="77,10" /><path d="M 193.9 65.6 L 193.9 65.2 L 196.8 65.2" id="76,9" /><path d="M 195.0 66.1 L 195.0 65.8 L 200.6 65.8" id="73,8" /><path d="M 195.0 66.1 L 195.0 66.4 L 197.7 66.4" id="73,7" /><path d="M 196.5 67.4 L 196.5 67.0 L 196.5 67.0" id="72,6" /><path d="M 196.5 67.4 L 196.5 67.7 L 210.9 67.7" id="72,5" /><path d="M 196.8 68.6 L 196.8 68.3 L 196.8 68.3" id="69,4" /><path d="M 196.8 68.6 L 196.8 68.9 L 205.6 68.9" id="69,3" /><path d="M 195.7 70.0 L 195.7 69.6 L 200.0 69.6" id="68,2" /><path d="M 197.4 70.5 L 197.4 70.2 L 210.0 70.2" id="67,1" /><path d="M 197.4 70.5 L 197.4 70.8 L 199.8 70.8" id="67,0" /></g><g class="toytree-Nodes" style="fill:rgb(100%,0%,0%);fill-opacity:1.0;stroke:None;stroke-width:1"><g id="node-0" transform="translate(199.768,70.833)"><circle r="2.5" /></g><g id="node-1" transform="translate(210.013,70.202)"><circle r="2.5" /></g><g id="node-2" transform="translate(199.979,69.571)"><circle r="2.5" /></g><g id="node-3" transform="translate(205.613,68.939)"><circle r="2.5" /></g><g id="node-4" transform="translate(196.801,68.308)"><circle r="2.5" /></g><g id="node-5" transform="translate(210.854,67.677)"><circle r="2.5" /></g><g id="node-6" transform="translate(196.471,67.045)"><circle r="2.5" /></g><g id="node-7" transform="translate(197.688,66.414)"><circle r="2.5" /></g><g id="node-8" transform="translate(200.633,65.783)"><circle r="2.5" /></g><g id="node-9" transform="translate(196.835,65.152)"><circle r="2.5" /></g><g id="node-10" transform="translate(206.181,64.520)"><circle r="2.5" /></g><g id="node-11" transform="translate(220.928,63.889)"><circle r="2.5" /></g><g id="node-12" transform="translate(201.627,63.258)"><circle r="2.5" /></g><g id="node-13" transform="translate(208.552,62.626)"><circle r="2.5" /></g><g id="node-14" transform="translate(205.959,61.995)"><circle r="2.5" /></g><g id="node-15" transform="translate(214.743,61.364)"><circle r="2.5" /></g><g id="node-16" transform="translate(196.380,60.732)"><circle r="2.5" /></g><g id="node-17" transform="translate(207.199,60.101)"><circle r="2.5" /></g><g id="node-18" transform="translate(196.454,59.470)"><circle r="2.5" /></g><g id="node-19" transform="translate(192.929,58.838)"><circle r="2.5" /></g><g id="node-20" transform="translate(197.750,58.207)"><circle r="2.5" /></g><g id="node-21" transform="translate(202.287,57.576)"><circle r="2.5" /></g><g id="node-22" transform="translate(233.009,56.944)"><circle r="2.5" /></g><g id="node-23" transform="translate(207.597,56.313)"><circle r="2.5" /></g><g id="node-24" transform="translate(202.804,55.682)"><circle r="2.5" /></g><g id="node-25" transform="translate(209.643,55.051)"><circle r="2.5" /></g><g id="node-26" transform="translate(209.052,54.419)"><circle r="2.5" /></g><g id="node-27" transform="translate(211.650,53.788)"><circle r="2.5" /></g><g id="node-28" transform="translate(245.084,53.157)"><circle r="2.5" /></g><g id="node-29" transform="translate(233.168,52.525)"><circle r="2.5" /></g><g id="node-30" transform="translate(207.602,51.894)"><circle r="2.5" /></g><g id="node-31" transform="translate(250.263,51.263)"><circle r="2.5" /></g><g id="node-32" transform="translate(203.259,50.631)"><circle r="2.5" /></g><g id="node-33" transform="translate(224.021,50.000)"><circle r="2.5" /></g><g id="node-34" transform="translate(225.522,49.369)"><circle r="2.5" /></g><g id="node-35" transform="translate(218.074,48.737)"><circle r="2.5" /></g><g id="node-36" transform="translate(204.612,48.106)"><circle r="2.5" /></g><g id="node-37" transform="translate(212.293,47.475)"><circle r="2.5" /></g><g id="node-38" transform="translate(207.904,46.843)"><circle r="2.5" /></g><g id="node-39" transform="translate(198.791,46.212)"><circle r="2.5" /></g><g id="node-40" transform="translate(199.268,45.581)"><circle r="2.5" /></g><g id="node-41" transform="translate(192.992,44.949)"><circle r="2.5" /></g><g id="node-42" transform="translate(188.842,44.318)"><circle r="2.5" /></g><g id="node-43" transform="translate(194.970,43.687)"><circle r="2.5" /></g><g id="node-44" transform="translate(201.764,43.056)"><circle r="2.5" /></g><g id="node-45" transform="translate(200.354,42.424)"><circle r="2.5" /></g><g id="node-46" transform="translate(197.858,41.793)"><circle r="2.5" /></g><g id="node-47" transform="translate(197.045,41.162)"><circle r="2.5" /></g><g id="node-48" transform="translate(196.454,40.530)"><circle r="2.5" /></g><g id="node-49" transform="translate(195.175,39.899)"><circle r="2.5" /></g><g id="node-50" transform="translate(195.886,39.268)"><circle r="2.5" /></g><g id="node-51" transform="translate(195.954,38.636)"><circle r="2.5" /></g><g id="node-52" transform="translate(196.113,38.005)"><circle r="2.5" /></g><g id="node-53" transform="translate(196.028,37.374)"><circle r="2.5" /></g><g id="node-54" transform="translate(200.894,36.742)"><circle r="2.5" /></g><g id="node-55" transform="translate(211.400,36.111)"><circle r="2.5" /></g><g id="node-56" transform="translate(210.331,35.480)"><circle r="2.5" /></g><g id="node-57" transform="translate(229.228,34.848)"><circle r="2.5" /></g><g id="node-58" transform="translate(200.201,34.217)"><circle r="2.5" /></g><g id="node-59" transform="translate(195.533,33.586)"><circle r="2.5" /></g><g id="node-60" transform="translate(219.570,32.955)"><circle r="2.5" /></g><g id="node-61" transform="translate(196.642,32.323)"><circle r="2.5" /></g><g id="node-62" transform="translate(205.635,31.692)"><circle r="2.5" /></g><g id="node-63" transform="translate(221.505,31.061)"><circle r="2.5" /></g><g id="node-64" transform="translate(200.436,30.429)"><circle r="2.5" /></g><g id="node-65" transform="translate(195.456,29.798)"><circle r="2.5" /></g><g id="node-66" transform="translate(203.972,29.167)"><circle r="2.5" /></g><g id="node-67" transform="translate(197.415,70.518)"><circle r="0.0" /></g><g id="node-68" transform="translate(195.670,70.044)"><circle r="0.0" /></g><g id="node-69" transform="translate(196.801,68.624)"><circle r="0.0" /></g><g id="node-70" transform="translate(203.646,62.311)"><circle r="0.0" /></g><g id="node-71" transform="translate(193.953,69.334)"><circle r="0.0" /></g><g id="node-72" transform="translate(196.471,67.361)"><circle r="0.0" /></g><g id="node-73" transform="translate(194.953,66.098)"><circle r="0.0" /></g><g id="node-74" transform="translate(200.411,61.837)"><circle r="0.0" /></g><g id="node-75" transform="translate(193.464,68.348)"><circle r="0.0" /></g><g id="node-76" transform="translate(193.947,65.625)"><circle r="0.0" /></g><g id="node-77" transform="translate(195.334,64.205)"><circle r="0.0" /></g><g id="node-78" transform="translate(194.510,61.285)"><circle r="0.0" /></g><g id="node-79" transform="translate(192.764,66.986)"><circle r="0.0" /></g><g id="node-80" transform="translate(192.725,63.731)"><circle r="0.0" /></g><g id="node-81" transform="translate(193.452,60.693)"><circle r="0.0" /></g><g id="node-82" transform="translate(207.529,54.735)"><circle r="0.0" /></g><g id="node-83" transform="translate(191.434,65.359)"><circle r="0.0" /></g><g id="node-84" transform="translate(191.735,60.081)"><circle r="0.0" /></g><g id="node-85" transform="translate(199.569,57.260)"><circle r="0.0" /></g><g id="node-86" transform="translate(199.683,54.261)"><circle r="0.0" /></g><g id="node-87" transform="translate(190.246,62.720)"><circle r="0.0" /></g><g id="node-88" transform="translate(191.900,58.523)"><circle r="0.0" /></g><g id="node-89" transform="translate(194.913,56.787)"><circle r="0.0" /></g><g id="node-90" transform="translate(193.708,53.709)"><circle r="0.0" /></g><g id="node-91" transform="translate(200.763,51.578)"><circle r="0.0" /></g><g id="node-92" transform="translate(188.211,60.621)"><circle r="0.0" /></g><g id="node-93" transform="translate(191.241,56.234)"><circle r="0.0" /></g><g id="node-94" transform="translate(190.451,53.117)"><circle r="0.0" /></g><g id="node-95" transform="translate(189.461,51.105)"><circle r="0.0" /></g><g id="node-96" transform="translate(196.642,49.053)"><circle r="0.0" /></g><g id="node-97" transform="translate(197.079,42.740)"><circle r="0.0" /></g><g id="node-98" transform="translate(197.023,35.795)"><circle r="0.0" /></g><g id="node-99" transform="translate(186.670,58.428)"><circle r="0.0" /></g><g id="node-100" transform="translate(186.636,52.111)"><circle r="0.0" /></g><g id="node-101" transform="translate(192.099,48.580)"><circle r="0.0" /></g><g id="node-102" transform="translate(203.447,47.159)"><circle r="0.0" /></g><g id="node-103" transform="translate(196.261,42.266)"><circle r="0.0" /></g><g id="node-104" transform="translate(194.589,40.846)"><circle r="0.0" /></g><g id="node-105" transform="translate(193.958,38.952)"><circle r="0.0" /></g><g id="node-106" transform="translate(193.498,35.322)"><circle r="0.0" /></g><g id="node-107" transform="translate(184.464,55.269)"><circle r="0.0" /></g><g id="node-108" transform="translate(187.602,47.869)"><circle r="0.0" /></g><g id="node-109" transform="translate(195.760,45.896)"><circle r="0.0" /></g><g id="node-110" transform="translate(193.106,41.556)"><circle r="0.0" /></g><g id="node-111" transform="translate(193.344,38.479)"><circle r="0.0" /></g><g id="node-112" transform="translate(192.008,37.058)"><circle r="0.0" /></g><g id="node-113" transform="translate(190.496,34.770)"><circle r="0.0" /></g><g id="node-114" transform="translate(191.690,33.270)"><circle r="0.0" /></g><g id="node-115" transform="translate(181.912,52.635)"><circle r="0.0" /></g><g id="node-116" transform="translate(185.124,46.883)"><circle r="0.0" /></g><g id="node-117" transform="translate(188.842,44.634)"><circle r="0.0" /></g><g id="node-118" transform="translate(191.576,40.728)"><circle r="0.0" /></g><g id="node-119" transform="translate(190.297,37.768)"><circle r="0.0" /></g><g id="node-120" transform="translate(187.409,34.020)"><circle r="0.0" /></g><g id="node-121" transform="translate(186.102,32.008)"><circle r="0.0" /></g><g id="node-122" transform="translate(181.167,49.759)"><circle r="0.0" /></g><g id="node-123" transform="translate(175.334,44.160)"><circle r="0.0" /></g><g id="node-124" transform="translate(189.234,39.248)"><circle r="0.0" /></g><g id="node-125" transform="translate(184.993,33.014)"><circle r="0.0" /></g><g id="node-126" transform="translate(182.091,30.745)"><circle r="0.0" /></g><g id="node-127" transform="translate(172.418,46.960)"><circle r="0.0" /></g><g id="node-128" transform="translate(181.730,36.131)"><circle r="0.0" /></g><g id="node-129" transform="translate(173.296,30.271)"><circle r="0.0" /></g><g id="node-130" transform="translate(169.911,41.545)"><circle r="0.0" /></g><g id="node-131" transform="translate(169.618,29.719)"><circle r="0.0" /></g><g id="node-132" transform="translate(165.000,35.632)"><circle r="0.0" /></g></g></g></g></g><g class="toyplot-coordinates-Cartesian" id="ta0390f829138444a8f71d908ccfd9e95"><clipPath id="t24bee044537645a0b064b12f86494245"><rect x="295.0" y="15.0" width="110.0" height="70.0" /></clipPath><g clip-path="url(#t24bee044537645a0b064b12f86494245)"><g class="toytree-mark-Toytree" id="t3f56eb6b540c419f9047c8c93ee7b908"><g class="toytree-Edges" style="fill:none;stroke:rgb(14.9%,14.9%,14.9%);stroke-linecap:round;stroke-opacity:1;stroke-width:0.5"><path d="M 305.0 34.9 L 305.0 29.7 L 308.7 29.7" id="132,131" /><path d="M 305.0 34.9 L 305.0 40.0 L 307.9 40.0" id="132,130" /><path d="M 308.7 29.7 L 308.7 30.3 L 312.7 30.3" id="131,129" /><path d="M 307.9 40.0 L 307.9 32.9 L 320.2 32.9" id="130,128" /><path d="M 307.9 40.0 L 307.9 47.1 L 309.8 47.1" id="130,127" /><path d="M 312.7 30.3 L 312.7 30.7 L 323.9 30.7" id="129,126" /><path d="M 320.2 32.9 L 320.2 34.2 L 322.9 34.2" id="128,125" /><path d="M 309.8 47.1 L 309.8 44.2 L 316.6 44.2" id="127,124" /><path d="M 309.8 47.1 L 309.8 50.0 L 315.5 50.0" id="127,123" /><path d="M 322.9 34.2 L 322.9 32.9 L 326.0 32.9" id="125,122" /><path d="M 322.9 34.2 L 322.9 35.5 L 325.3 35.5" id="125,121" /><path d="M 316.6 44.2 L 316.6 44.6 L 337.6 44.6" id="124,120" /><path d="M 315.5 50.0 L 315.5 47.2 L 316.0 47.2" id="123,119" /><path d="M 315.5 50.0 L 315.5 52.7 L 317.0 52.7" id="123,118" /><path d="M 326.0 32.9 L 326.0 33.4 L 334.0 33.4" id="122,117" /><path d="M 325.3 35.5 L 325.3 36.2 L 327.2 36.2" id="121,116" /><path d="M 316.0 47.2 L 316.0 46.1 L 319.2 46.1" id="119,115" /><path d="M 316.0 47.2 L 316.0 48.4 L 319.0 48.4" id="119,114" /><path d="M 317.0 52.7 L 317.0 55.4 L 318.8 55.4" id="118,113" /><path d="M 334.0 33.4 L 334.0 33.9 L 334.4 33.9" id="117,112" /><path d="M 327.2 36.2 L 327.2 37.0 L 327.9 37.0" id="116,111" /><path d="M 319.2 46.1 L 319.2 46.5 L 334.5 46.5" id="115,110" /><path d="M 319.0 48.4 L 319.0 47.8 L 339.5 47.8" id="114,109" /><path d="M 319.0 48.4 L 319.0 49.1 L 339.3 49.1" id="114,108" /><path d="M 318.8 55.4 L 318.8 51.7 L 319.8 51.7" id="113,107" /><path d="M 318.8 55.4 L 318.8 59.1 L 319.6 59.1" id="113,106" /><path d="M 327.9 37.0 L 327.9 37.8 L 336.9 37.8" id="111,105" /><path d="M 319.8 51.7 L 319.8 50.9 L 327.4 50.9" id="107,104" /><path d="M 319.8 51.7 L 319.8 52.5 L 321.0 52.5" id="107,103" /><path d="M 319.6 59.1 L 319.6 56.2 L 324.1 56.2" id="106,102" /><path d="M 319.6 59.1 L 319.6 61.9 L 325.8 61.9" id="106,101" /><path d="M 336.9 37.8 L 336.9 38.9 L 339.4 38.9" id="105,100" /><path d="M 321.0 52.5 L 321.0 53.1 L 324.8 53.1" id="103,99" /><path d="M 324.1 56.2 L 324.1 56.8 L 324.6 56.8" id="102,98" /><path d="M 325.8 61.9 L 325.8 59.9 L 330.6 59.9" id="101,97" /><path d="M 325.8 61.9 L 325.8 64.0 L 326.1 64.0" id="101,96" /><path d="M 339.4 38.9 L 339.4 37.8 L 343.9 37.8" id="100,95" /><path d="M 339.4 38.9 L 339.4 39.9 L 343.5 39.9" id="100,94" /><path d="M 324.8 53.1 L 324.8 53.7 L 332.0 53.7" id="99,93" /><path d="M 324.6 56.8 L 324.6 57.3 L 327.0 57.3" id="98,92" /><path d="M 330.6 59.9 L 330.6 58.7 L 341.3 58.7" id="97,91" /><path d="M 330.6 59.9 L 330.6 61.0 L 330.6 61.0" id="97,90" /><path d="M 326.1 64.0 L 326.1 65.4 L 327.9 65.4" id="96,89" /><path d="M 343.9 37.8 L 343.9 38.3 L 345.4 38.3" id="95,88" /><path d="M 343.5 39.9 L 343.5 40.6 L 344.2 40.6" id="94,87" /><path d="M 332.0 53.7 L 332.0 54.3 L 334.4 54.3" id="93,86" /><path d="M 341.3 58.7 L 341.3 59.2 L 344.4 59.2" id="91,85" /><path d="M 330.6 61.0 L 330.6 60.4 L 331.9 60.4" id="90,84" /><path d="M 330.6 61.0 L 330.6 61.7 L 336.9 61.7" id="90,83" /><path d="M 327.9 65.4 L 327.9 63.7 L 330.5 63.7" id="89,82" /><path d="M 327.9 65.4 L 327.9 67.0 L 329.6 67.0" id="89,81" /><path d="M 344.2 40.6 L 344.2 41.3 L 345.0 41.3" id="87,80" /><path d="M 334.4 54.3 L 334.4 54.7 L 354.0 54.7" id="86,79" /><path d="M 330.5 63.7 L 330.5 64.2 L 332.8 64.2" id="82,78" /><path d="M 329.6 67.0 L 329.6 65.7 L 331.0 65.7" id="81,77" /><path d="M 329.6 67.0 L 329.6 68.3 L 331.5 68.3" id="81,76" /><path d="M 345.0 41.3 L 345.0 42.1 L 348.4 42.1" id="80,75" /><path d="M 331.0 65.7 L 331.0 66.3 L 335.7 66.3" id="77,74" /><path d="M 331.5 68.3 L 331.5 68.9 L 332.9 68.9" id="76,73" /><path d="M 348.4 42.1 L 348.4 41.5 L 348.9 41.5" id="75,72" /><path d="M 348.4 42.1 L 348.4 42.7 L 348.8 42.7" id="75,71" /><path d="M 335.7 66.3 L 335.7 66.7 L 337.3 66.7" id="74,70" /><path d="M 332.9 68.9 L 332.9 69.5 L 334.0 69.5" id="73,69" /><path d="M 334.0 69.5 L 334.0 70.0 L 336.1 70.0" id="69,68" /><path d="M 336.1 70.0 L 336.1 70.5 L 341.0 70.5" id="68,67" /><path d="M 308.7 29.7 L 308.7 29.2 L 352.6 29.2" id="131,66" /><path d="M 312.7 30.3 L 312.7 29.8 L 347.5 29.8" id="129,65" /><path d="M 323.9 30.7 L 323.9 30.4 L 351.3 30.4" id="126,64" /><path d="M 323.9 30.7 L 323.9 31.1 L 363.8 31.1" id="126,63" /><path d="M 320.2 32.9 L 320.2 31.7 L 370.1 31.7" id="128,62" /><path d="M 326.0 32.9 L 326.0 32.3 L 354.6 32.3" id="122,61" /><path d="M 334.0 33.4 L 334.0 33.0 L 356.4 33.0" id="117,60" /><path d="M 334.4 33.9 L 334.4 33.6 L 357.2 33.6" id="112,59" /><path d="M 334.4 33.9 L 334.4 34.2 L 351.1 34.2" id="112,58" /><path d="M 325.3 35.5 L 325.3 34.8 L 346.1 34.8" id="121,57" /><path d="M 327.2 36.2 L 327.2 35.5 L 354.1 35.5" id="116,56" /><path d="M 327.9 37.0 L 327.9 36.1 L 365.8 36.1" id="111,55" /><path d="M 336.9 37.8 L 336.9 36.7 L 352.3 36.7" id="105,54" /><path d="M 343.9 37.8 L 343.9 37.4 L 351.9 37.4" id="95,53" /><path d="M 345.4 38.3 L 345.4 38.0 L 353.2 38.0" id="88,52" /><path d="M 345.4 38.3 L 345.4 38.6 L 351.4 38.6" id="88,51" /><path d="M 343.5 39.9 L 343.5 39.3 L 350.8 39.3" id="94,50" /><path d="M 344.2 40.6 L 344.2 39.9 L 350.8 39.9" id="87,49" /><path d="M 345.0 41.3 L 345.0 40.5 L 349.3 40.5" id="80,48" /><path d="M 348.9 41.5 L 348.9 41.2 L 350.6 41.2" id="72,47" /><path d="M 348.9 41.5 L 348.9 41.8 L 350.3 41.8" id="72,46" /><path d="M 348.8 42.7 L 348.8 42.4 L 350.0 42.4" id="71,45" /><path d="M 348.8 42.7 L 348.8 43.1 L 350.7 43.1" id="71,44" /><path d="M 316.6 44.2 L 316.6 43.7 L 345.4 43.7" id="124,43" /><path d="M 337.6 44.6 L 337.6 44.3 L 340.6 44.3" id="120,42" /><path d="M 337.6 44.6 L 337.6 44.9 L 344.9 44.9" id="120,41" /><path d="M 319.2 46.1 L 319.2 45.6 L 353.6 45.6" id="115,40" /><path d="M 334.5 46.5 L 334.5 46.2 L 365.3 46.2" id="110,39" /><path d="M 334.5 46.5 L 334.5 46.8 L 372.6 46.8" id="110,38" /><path d="M 339.5 47.8 L 339.5 47.5 L 356.0 47.5" id="109,37" /><path d="M 339.5 47.8 L 339.5 48.1 L 356.9 48.1" id="109,36" /><path d="M 339.3 49.1 L 339.3 48.7 L 347.0 48.7" id="108,35" /><path d="M 339.3 49.1 L 339.3 49.4 L 346.4 49.4" id="108,34" /><path d="M 317.0 52.7 L 317.0 50.0 L 358.9 50.0" id="118,33" /><path d="M 327.4 50.9 L 327.4 50.6 L 354.6 50.6" id="104,32" /><path d="M 327.4 50.9 L 327.4 51.3 L 356.3 51.3" id="104,31" /><path d="M 321.0 52.5 L 321.0 51.9 L 379.6 51.9" id="103,30" /><path d="M 324.8 53.1 L 324.8 52.5 L 371.8 52.5" id="99,29" /><path d="M 332.0 53.7 L 332.0 53.2 L 390.3 53.2" id="93,28" /><path d="M 334.4 54.3 L 334.4 53.8 L 364.0 53.8" id="86,27" /><path d="M 354.0 54.7 L 354.0 54.4 L 360.7 54.4" id="79,26" /><path d="M 354.0 54.7 L 354.0 55.1 L 361.1 55.1" id="79,25" /><path d="M 324.1 56.2 L 324.1 55.7 L 357.7 55.7" id="102,24" /><path d="M 324.6 56.8 L 324.6 56.3 L 350.0 56.3" id="98,23" /><path d="M 327.0 57.3 L 327.0 56.9 L 372.4 56.9" id="92,22" /><path d="M 327.0 57.3 L 327.0 57.6 L 352.7 57.6" id="92,21" /><path d="M 341.3 58.7 L 341.3 58.2 L 359.8 58.2" id="91,20" /><path d="M 344.4 59.2 L 344.4 58.8 L 355.3 58.8" id="85,19" /><path d="M 344.4 59.2 L 344.4 59.5 L 358.9 59.5" id="85,18" /><path d="M 331.9 60.4 L 331.9 60.1 L 342.8 60.1" id="84,17" /><path d="M 331.9 60.4 L 331.9 60.7 L 343.3 60.7" id="84,16" /><path d="M 336.9 61.7 L 336.9 61.4 L 347.0 61.4" id="83,15" /><path d="M 336.9 61.7 L 336.9 62.0 L 346.3 62.0" id="83,14" /><path d="M 326.1 64.0 L 326.1 62.6 L 354.1 62.6" id="96,13" /><path d="M 330.5 63.7 L 330.5 63.3 L 348.4 63.3" id="82,12" /><path d="M 332.8 64.2 L 332.8 63.9 L 372.1 63.9" id="78,11" /><path d="M 332.8 64.2 L 332.8 64.5 L 357.7 64.5" id="78,10" /><path d="M 331.0 65.7 L 331.0 65.2 L 343.1 65.2" id="77,9" /><path d="M 335.7 66.3 L 335.7 65.8 L 347.4 65.8" id="74,8" /><path d="M 337.3 66.7 L 337.3 66.4 L 351.1 66.4" id="70,7" /><path d="M 337.3 66.7 L 337.3 67.0 L 348.7 67.0" id="70,6" /><path d="M 331.5 68.3 L 331.5 67.7 L 351.5 67.7" id="76,5" /><path d="M 332.9 68.9 L 332.9 68.3 L 351.4 68.3" id="73,4" /><path d="M 334.0 69.5 L 334.0 68.9 L 344.9 68.9" id="69,3" /><path d="M 336.1 70.0 L 336.1 69.6 L 353.8 69.6" id="68,2" /><path d="M 341.0 70.5 L 341.0 70.2 L 345.1 70.2" id="67,1" /><path d="M 341.0 70.5 L 341.0 70.8 L 344.3 70.8" id="67,0" /></g><g class="toytree-Nodes" style="fill:rgb(100%,0%,0%);fill-opacity:1.0;stroke:None;stroke-width:1"><g id="node-0" transform="translate(344.290,70.833)"><circle r="2.5" /></g><g id="node-1" transform="translate(345.118,70.202)"><circle r="2.5" /></g><g id="node-2" transform="translate(353.823,69.571)"><circle r="2.5" /></g><g id="node-3" transform="translate(344.917,68.939)"><circle r="2.5" /></g><g id="node-4" transform="translate(351.416,68.308)"><circle r="2.5" /></g><g id="node-5" transform="translate(351.467,67.677)"><circle r="2.5" /></g><g id="node-6" transform="translate(348.716,67.045)"><circle r="2.5" /></g><g id="node-7" transform="translate(351.078,66.414)"><circle r="2.5" /></g><g id="node-8" transform="translate(347.359,65.783)"><circle r="2.5" /></g><g id="node-9" transform="translate(343.086,65.152)"><circle r="2.5" /></g><g id="node-10" transform="translate(357.710,64.520)"><circle r="2.5" /></g><g id="node-11" transform="translate(372.089,63.889)"><circle r="2.5" /></g><g id="node-12" transform="translate(348.385,63.258)"><circle r="2.5" /></g><g id="node-13" transform="translate(354.081,62.626)"><circle r="2.5" /></g><g id="node-14" transform="translate(346.347,61.995)"><circle r="2.5" /></g><g id="node-15" transform="translate(346.971,61.364)"><circle r="2.5" /></g><g id="node-16" transform="translate(343.309,60.732)"><circle r="2.5" /></g><g id="node-17" transform="translate(342.800,60.101)"><circle r="2.5" /></g><g id="node-18" transform="translate(358.882,59.470)"><circle r="2.5" /></g><g id="node-19" transform="translate(355.322,58.838)"><circle r="2.5" /></g><g id="node-20" transform="translate(359.840,58.207)"><circle r="2.5" /></g><g id="node-21" transform="translate(352.651,57.576)"><circle r="2.5" /></g><g id="node-22" transform="translate(372.360,56.944)"><circle r="2.5" /></g><g id="node-23" transform="translate(349.989,56.313)"><circle r="2.5" /></g><g id="node-24" transform="translate(357.749,55.682)"><circle r="2.5" /></g><g id="node-25" transform="translate(361.127,55.051)"><circle r="2.5" /></g><g id="node-26" transform="translate(360.719,54.419)"><circle r="2.5" /></g><g id="node-27" transform="translate(363.996,53.788)"><circle r="2.5" /></g><g id="node-28" transform="translate(390.263,53.157)"><circle r="2.5" /></g><g id="node-29" transform="translate(371.787,52.525)"><circle r="2.5" /></g><g id="node-30" transform="translate(379.584,51.894)"><circle r="2.5" /></g><g id="node-31" transform="translate(356.265,51.263)"><circle r="2.5" /></g><g id="node-32" transform="translate(354.584,50.631)"><circle r="2.5" /></g><g id="node-33" transform="translate(358.869,50.000)"><circle r="2.5" /></g><g id="node-34" transform="translate(346.391,49.369)"><circle r="2.5" /></g><g id="node-35" transform="translate(347.022,48.737)"><circle r="2.5" /></g><g id="node-36" transform="translate(356.857,48.106)"><circle r="2.5" /></g><g id="node-37" transform="translate(355.966,47.475)"><circle r="2.5" /></g><g id="node-38" transform="translate(372.560,46.843)"><circle r="2.5" /></g><g id="node-39" transform="translate(365.307,46.212)"><circle r="2.5" /></g><g id="node-40" transform="translate(353.648,45.581)"><circle r="2.5" /></g><g id="node-41" transform="translate(344.869,44.949)"><circle r="2.5" /></g><g id="node-42" transform="translate(340.616,44.318)"><circle r="2.5" /></g><g id="node-43" transform="translate(345.357,43.687)"><circle r="2.5" /></g><g id="node-44" transform="translate(350.655,43.056)"><circle r="2.5" /></g><g id="node-45" transform="translate(350.005,42.424)"><circle r="2.5" /></g><g id="node-46" transform="translate(350.292,41.793)"><circle r="2.5" /></g><g id="node-47" transform="translate(350.566,41.162)"><circle r="2.5" /></g><g id="node-48" transform="translate(349.251,40.530)"><circle r="2.5" /></g><g id="node-49" transform="translate(350.817,39.899)"><circle r="2.5" /></g><g id="node-50" transform="translate(350.811,39.268)"><circle r="2.5" /></g><g id="node-51" transform="translate(351.355,38.636)"><circle r="2.5" /></g><g id="node-52" transform="translate(353.164,38.005)"><circle r="2.5" /></g><g id="node-53" transform="translate(351.947,37.374)"><circle r="2.5" /></g><g id="node-54" transform="translate(352.256,36.742)"><circle r="2.5" /></g><g id="node-55" transform="translate(365.810,36.111)"><circle r="2.5" /></g><g id="node-56" transform="translate(354.109,35.480)"><circle r="2.5" /></g><g id="node-57" transform="translate(346.092,34.848)"><circle r="2.5" /></g><g id="node-58" transform="translate(351.116,34.217)"><circle r="2.5" /></g><g id="node-59" transform="translate(357.223,33.586)"><circle r="2.5" /></g><g id="node-60" transform="translate(356.364,32.955)"><circle r="2.5" /></g><g id="node-61" transform="translate(354.612,32.323)"><circle r="2.5" /></g><g id="node-62" transform="translate(370.115,31.692)"><circle r="2.5" /></g><g id="node-63" transform="translate(363.789,31.061)"><circle r="2.5" /></g><g id="node-64" transform="translate(351.269,30.429)"><circle r="2.5" /></g><g id="node-65" transform="translate(347.468,29.798)"><circle r="2.5" /></g><g id="node-66" transform="translate(352.629,29.167)"><circle r="2.5" /></g><g id="node-67" transform="translate(340.979,70.518)"><circle r="0.0" /></g><g id="node-68" transform="translate(336.114,70.044)"><circle r="0.0" /></g><g id="node-69" transform="translate(333.964,69.492)"><circle r="0.0" /></g><g id="node-70" transform="translate(337.257,66.730)"><circle r="0.0" /></g><g id="node-71" transform="translate(348.818,42.740)"><circle r="0.0" /></g><g id="node-72" transform="translate(348.884,41.477)"><circle r="0.0" /></g><g id="node-73" transform="translate(332.949,68.900)"><circle r="0.0" /></g><g id="node-74" transform="translate(335.725,66.256)"><circle r="0.0" /></g><g id="node-75" transform="translate(348.397,42.109)"><circle r="0.0" /></g><g id="node-76" transform="translate(331.538,68.288)"><circle r="0.0" /></g><g id="node-77" transform="translate(331.029,65.704)"><circle r="0.0" /></g><g id="node-78" transform="translate(332.774,64.205)"><circle r="0.0" /></g><g id="node-79" transform="translate(354.046,54.735)"><circle r="0.0" /></g><g id="node-80" transform="translate(344.975,41.319)"><circle r="0.0" /></g><g id="node-81" transform="translate(329.637,66.996)"><circle r="0.0" /></g><g id="node-82" transform="translate(330.542,63.731)"><circle r="0.0" /></g><g id="node-83" transform="translate(336.868,61.679)"><circle r="0.0" /></g><g id="node-84" transform="translate(331.943,60.417)"><circle r="0.0" /></g><g id="node-85" transform="translate(344.382,59.154)"><circle r="0.0" /></g><g id="node-86" transform="translate(334.448,54.261)"><circle r="0.0" /></g><g id="node-87" transform="translate(344.163,40.609)"><circle r="0.0" /></g><g id="node-88" transform="translate(345.366,38.321)"><circle r="0.0" /></g><g id="node-89" transform="translate(327.851,65.364)"><circle r="0.0" /></g><g id="node-90" transform="translate(330.621,61.048)"><circle r="0.0" /></g><g id="node-91" transform="translate(341.262,58.681)"><circle r="0.0" /></g><g id="node-92" transform="translate(327.036,57.260)"><circle r="0.0" /></g><g id="node-93" transform="translate(332.013,53.709)"><circle r="0.0" /></g><g id="node-94" transform="translate(343.504,39.938)"><circle r="0.0" /></g><g id="node-95" transform="translate(343.873,37.847)"><circle r="0.0" /></g><g id="node-96" transform="translate(326.056,63.995)"><circle r="0.0" /></g><g id="node-97" transform="translate(330.615,59.864)"><circle r="0.0" /></g><g id="node-98" transform="translate(324.607,56.787)"><circle r="0.0" /></g><g id="node-99" transform="translate(324.804,53.117)"><circle r="0.0" /></g><g id="node-100" transform="translate(339.380,38.893)"><circle r="0.0" /></g><g id="node-101" transform="translate(325.766,61.930)"><circle r="0.0" /></g><g id="node-102" transform="translate(324.085,56.234)"><circle r="0.0" /></g><g id="node-103" transform="translate(320.983,52.506)"><circle r="0.0" /></g><g id="node-104" transform="translate(327.374,50.947)"><circle r="0.0" /></g><g id="node-105" transform="translate(336.916,37.818)"><circle r="0.0" /></g><g id="node-106" transform="translate(319.618,59.082)"><circle r="0.0" /></g><g id="node-107" transform="translate(319.764,51.726)"><circle r="0.0" /></g><g id="node-108" transform="translate(339.336,49.053)"><circle r="0.0" /></g><g id="node-109" transform="translate(339.505,47.790)"><circle r="0.0" /></g><g id="node-110" transform="translate(334.499,46.528)"><circle r="0.0" /></g><g id="node-111" transform="translate(327.947,36.964)"><circle r="0.0" /></g><g id="node-112" transform="translate(334.397,33.902)"><circle r="0.0" /></g><g id="node-113" transform="translate(318.758,55.404)"><circle r="0.0" /></g><g id="node-114" transform="translate(319.006,48.422)"><circle r="0.0" /></g><g id="node-115" transform="translate(319.159,46.054)"><circle r="0.0" /></g><g id="node-116" transform="translate(327.249,36.222)"><circle r="0.0" /></g><g id="node-117" transform="translate(333.958,33.428)"><circle r="0.0" /></g><g id="node-118" transform="translate(317.010,52.702)"><circle r="0.0" /></g><g id="node-119" transform="translate(316.020,47.238)"><circle r="0.0" /></g><g id="node-120" transform="translate(337.585,44.634)"><circle r="0.0" /></g><g id="node-121" transform="translate(325.310,35.535)"><circle r="0.0" /></g><g id="node-122" transform="translate(325.966,32.876)"><circle r="0.0" /></g><g id="node-123" transform="translate(315.456,49.970)"><circle r="0.0" /></g><g id="node-124" transform="translate(316.564,44.160)"><circle r="0.0" /></g><g id="node-125" transform="translate(322.910,34.205)"><circle r="0.0" /></g><g id="node-126" transform="translate(323.890,30.745)"><circle r="0.0" /></g><g id="node-127" transform="translate(309.795,47.065)"><circle r="0.0" /></g><g id="node-128" transform="translate(320.226,32.949)"><circle r="0.0" /></g><g id="node-129" transform="translate(312.715,30.271)"><circle r="0.0" /></g><g id="node-130" transform="translate(307.853,40.007)"><circle r="0.0" /></g><g id="node-131" transform="translate(308.677,29.719)"><circle r="0.0" /></g><g id="node-132" transform="translate(305.000,34.863)"><circle r="0.0" /></g></g></g></g></g><g class="toyplot-coordinates-Cartesian" id="t0429144769e241a88fc6d4de2badfbe5"><clipPath id="t354f8198158845e1ada2203c0b8ade0f"><rect x="435.0" y="15.0" width="110.0" height="70.0" /></clipPath><g clip-path="url(#t354f8198158845e1ada2203c0b8ade0f)"><g class="toytree-mark-Toytree" id="ta63969213d544224badcd82c6ac8d40d"><g class="toytree-Edges" style="fill:none;stroke:rgb(14.9%,14.9%,14.9%);stroke-linecap:round;stroke-opacity:1;stroke-width:0.5"><path d="M 445.0 41.4 L 445.0 30.9 L 446.8 30.9" id="132,131" /><path d="M 445.0 41.4 L 445.0 52.0 L 449.9 52.0" id="132,130" /><path d="M 446.8 30.9 L 446.8 29.6 L 460.6 29.6" id="131,129" /><path d="M 446.8 30.9 L 446.8 32.1 L 459.5 32.1" id="131,128" /><path d="M 449.9 52.0 L 449.9 45.9 L 451.3 45.9" id="130,127" /><path d="M 449.9 52.0 L 449.9 58.1 L 452.1 58.1" id="130,126" /><path d="M 460.6 29.6 L 460.6 30.1 L 480.0 30.1" id="129,125" /><path d="M 459.5 32.1 L 459.5 33.1 L 462.3 33.1" id="128,124" /><path d="M 451.3 45.9 L 451.3 44.0 L 455.5 44.0" id="127,123" /><path d="M 451.3 45.9 L 451.3 47.8 L 456.0 47.8" id="127,122" /><path d="M 452.1 58.1 L 452.1 54.6 L 453.7 54.6" id="126,121" /><path d="M 452.1 58.1 L 452.1 61.6 L 463.3 61.6" id="126,120" /><path d="M 462.3 33.1 L 462.3 34.5 L 465.6 34.5" id="124,119" /><path d="M 455.5 44.0 L 455.5 43.4 L 471.6 43.4" id="123,118" /><path d="M 455.5 44.0 L 455.5 44.6 L 474.8 44.6" id="123,117" /><path d="M 456.0 47.8 L 456.0 46.1 L 460.7 46.1" id="122,116" /><path d="M 456.0 47.8 L 456.0 49.6 L 460.7 49.6" id="122,115" /><path d="M 453.7 54.6 L 453.7 55.4 L 457.1 55.4" id="121,114" /><path d="M 463.3 61.6 L 463.3 58.9 L 467.3 58.9" id="120,113" /><path d="M 463.3 61.6 L 463.3 64.3 L 465.3 64.3" id="120,112" /><path d="M 465.6 34.5 L 465.6 32.9 L 471.3 32.9" id="119,111" /><path d="M 465.6 34.5 L 465.6 36.2 L 474.3 36.2" id="119,110" /><path d="M 460.7 46.1 L 460.7 46.5 L 478.9 46.5" id="116,109" /><path d="M 460.7 49.6 L 460.7 48.0 L 470.0 48.0" id="115,108" /><path d="M 460.7 49.6 L 460.7 51.3 L 461.8 51.3" id="115,107" /><path d="M 457.1 55.4 L 457.1 54.7 L 461.7 54.7" id="114,106" /><path d="M 457.1 55.4 L 457.1 56.2 L 474.2 56.2" id="114,105" /><path d="M 467.3 58.9 L 467.3 57.9 L 470.1 57.9" id="113,104" /><path d="M 467.3 58.9 L 467.3 59.9 L 470.6 59.9" id="113,103" /><path d="M 465.3 64.3 L 465.3 62.9 L 467.4 62.9" id="112,102" /><path d="M 465.3 64.3 L 465.3 65.8 L 467.8 65.8" id="112,101" /><path d="M 471.3 32.9 L 471.3 33.4 L 486.2 33.4" id="111,100" /><path d="M 474.3 36.2 L 474.3 35.2 L 476.2 35.2" id="110,99" /><path d="M 474.3 36.2 L 474.3 37.2 L 479.5 37.2" id="110,98" /><path d="M 470.0 48.0 L 470.0 48.6 L 473.7 48.6" id="108,97" /><path d="M 461.8 51.3 L 461.8 50.3 L 464.3 50.3" id="107,96" /><path d="M 461.8 51.3 L 461.8 52.2 L 462.3 52.2" id="107,95" /><path d="M 474.2 56.2 L 474.2 56.6 L 484.4 56.6" id="105,94" /><path d="M 470.6 59.9 L 470.6 59.2 L 475.0 59.2" id="103,93" /><path d="M 470.6 59.9 L 470.6 60.6 L 482.4 60.6" id="103,92" /><path d="M 467.4 62.9 L 467.4 62.3 L 479.3 62.3" id="102,91" /><path d="M 467.4 62.9 L 467.4 63.6 L 469.4 63.6" id="102,90" /><path d="M 467.8 65.8 L 467.8 67.0 L 469.7 67.0" id="101,89" /><path d="M 486.2 33.4 L 486.2 33.9 L 489.2 33.9" id="100,88" /><path d="M 479.5 37.2 L 479.5 38.3 L 481.1 38.3" id="98,87" /><path d="M 473.7 48.6 L 473.7 49.1 L 492.1 49.1" id="97,86" /><path d="M 462.3 52.2 L 462.3 51.6 L 469.7 51.6" id="95,85" /><path d="M 462.3 52.2 L 462.3 52.8 L 465.8 52.8" id="95,84" /><path d="M 482.4 60.6 L 482.4 61.0 L 484.9 61.0" id="92,83" /><path d="M 469.7 67.0 L 469.7 65.6 L 473.7 65.6" id="89,82" /><path d="M 469.7 67.0 L 469.7 68.3 L 471.4 68.3" id="89,81" /><path d="M 481.1 38.3 L 481.1 37.2 L 488.0 37.2" id="87,80" /><path d="M 481.1 38.3 L 481.1 39.4 L 485.8 39.4" id="87,79" /><path d="M 473.7 65.6 L 473.7 66.1 L 475.4 66.1" id="82,78" /><path d="M 471.4 68.3 L 471.4 67.4 L 476.9 67.4" id="81,77" /><path d="M 471.4 68.3 L 471.4 69.3 L 474.9 69.3" id="81,76" /><path d="M 488.0 37.2 L 488.0 37.7 L 490.1 37.7" id="80,75" /><path d="M 485.8 39.4 L 485.8 40.1 L 489.6 40.1" id="79,74" /><path d="M 474.9 69.3 L 474.9 68.6 L 482.3 68.6" id="76,73" /><path d="M 474.9 69.3 L 474.9 70.0 L 478.1 70.0" id="76,72" /><path d="M 489.6 40.1 L 489.6 40.9 L 490.7 40.9" id="74,71" /><path d="M 478.1 70.0 L 478.1 70.5 L 482.5 70.5" id="72,70" /><path d="M 490.7 40.9 L 490.7 40.2 L 491.7 40.2" id="71,69" /><path d="M 490.7 40.9 L 490.7 41.6 L 492.2 41.6" id="71,68" /><path d="M 492.2 41.6 L 492.2 42.1 L 493.0 42.1" id="68,67" /><path d="M 460.6 29.6 L 460.6 29.2 L 480.9 29.2" id="129,66" /><path d="M 480.0 30.1 L 480.0 29.8 L 484.9 29.8" id="125,65" /><path d="M 480.0 30.1 L 480.0 30.4 L 486.2 30.4" id="125,64" /><path d="M 459.5 32.1 L 459.5 31.1 L 502.1 31.1" id="128,63" /><path d="M 462.3 33.1 L 462.3 31.7 L 485.6 31.7" id="124,62" /><path d="M 471.3 32.9 L 471.3 32.3 L 491.7 32.3" id="111,61" /><path d="M 486.2 33.4 L 486.2 33.0 L 498.9 33.0" id="100,60" /><path d="M 489.2 33.9 L 489.2 33.6 L 514.6 33.6" id="88,59" /><path d="M 489.2 33.9 L 489.2 34.2 L 508.7 34.2" id="88,58" /><path d="M 476.2 35.2 L 476.2 34.8 L 497.9 34.8" id="99,57" /><path d="M 476.2 35.2 L 476.2 35.5 L 495.4 35.5" id="99,56" /><path d="M 479.5 37.2 L 479.5 36.1 L 494.3 36.1" id="98,55" /><path d="M 488.0 37.2 L 488.0 36.7 L 497.9 36.7" id="80,54" /><path d="M 490.1 37.7 L 490.1 37.4 L 498.6 37.4" id="75,53" /><path d="M 490.1 37.7 L 490.1 38.0 L 498.8 38.0" id="75,52" /><path d="M 485.8 39.4 L 485.8 38.6 L 493.1 38.6" id="79,51" /><path d="M 489.6 40.1 L 489.6 39.3 L 493.6 39.3" id="74,50" /><path d="M 491.7 40.2 L 491.7 39.9 L 492.1 39.9" id="69,49" /><path d="M 491.7 40.2 L 491.7 40.5 L 493.4 40.5" id="69,48" /><path d="M 492.2 41.6 L 492.2 41.2 L 493.5 41.2" id="68,47" /><path d="M 493.0 42.1 L 493.0 41.8 L 493.0 41.8" id="67,46" /><path d="M 493.0 42.1 L 493.0 42.4 L 493.1 42.4" id="67,45" /><path d="M 471.6 43.4 L 471.6 43.1 L 483.3 43.1" id="118,44" /><path d="M 471.6 43.4 L 471.6 43.7 L 482.5 43.7" id="118,43" /><path d="M 474.8 44.6 L 474.8 44.3 L 495.4 44.3" id="117,42" /><path d="M 474.8 44.6 L 474.8 44.9 L 489.0 44.9" id="117,41" /><path d="M 460.7 46.1 L 460.7 45.6 L 506.5 45.6" id="116,40" /><path d="M 478.9 46.5 L 478.9 46.2 L 506.2 46.2" id="109,39" /><path d="M 478.9 46.5 L 478.9 46.8 L 508.0 46.8" id="109,38" /><path d="M 470.0 48.0 L 470.0 47.5 L 499.2 47.5" id="108,37" /><path d="M 473.7 48.6 L 473.7 48.1 L 530.3 48.1" id="97,36" /><path d="M 492.1 49.1 L 492.1 48.7 L 497.7 48.7" id="86,35" /><path d="M 492.1 49.1 L 492.1 49.4 L 496.8 49.4" id="86,34" /><path d="M 464.3 50.3 L 464.3 50.0 L 488.6 50.0" id="96,33" /><path d="M 464.3 50.3 L 464.3 50.6 L 493.1 50.6" id="96,32" /><path d="M 469.7 51.6 L 469.7 51.3 L 493.7 51.3" id="85,31" /><path d="M 469.7 51.6 L 469.7 51.9 L 502.7 51.9" id="85,30" /><path d="M 465.8 52.8 L 465.8 52.5 L 513.0 52.5" id="84,29" /><path d="M 465.8 52.8 L 465.8 53.2 L 486.3 53.2" id="84,28" /><path d="M 453.7 54.6 L 453.7 53.8 L 488.0 53.8" id="121,27" /><path d="M 461.7 54.7 L 461.7 54.4 L 504.4 54.4" id="106,26" /><path d="M 461.7 54.7 L 461.7 55.1 L 493.3 55.1" id="106,25" /><path d="M 474.2 56.2 L 474.2 55.7 L 494.0 55.7" id="105,24" /><path d="M 484.4 56.6 L 484.4 56.3 L 507.9 56.3" id="94,23" /><path d="M 484.4 56.6 L 484.4 56.9 L 504.0 56.9" id="94,22" /><path d="M 470.1 57.9 L 470.1 57.6 L 486.6 57.6" id="104,21" /><path d="M 470.1 57.9 L 470.1 58.2 L 481.5 58.2" id="104,20" /><path d="M 475.0 59.2 L 475.0 58.8 L 482.9 58.8" id="93,19" /><path d="M 475.0 59.2 L 475.0 59.5 L 485.0 59.5" id="93,18" /><path d="M 482.4 60.6 L 482.4 60.1 L 496.9 60.1" id="92,17" /><path d="M 484.9 61.0 L 484.9 60.7 L 491.8 60.7" id="83,16" /><path d="M 484.9 61.0 L 484.9 61.4 L 502.1 61.4" id="83,15" /><path d="M 479.3 62.3 L 479.3 62.0 L 521.7 62.0" id="91,14" /><path d="M 479.3 62.3 L 479.3 62.6 L 517.4 62.6" id="91,13" /><path d="M 469.4 63.6 L 469.4 63.3 L 482.6 63.3" id="90,12" /><path d="M 469.4 63.6 L 469.4 63.9 L 489.9 63.9" id="90,11" /><path d="M 467.8 65.8 L 467.8 64.5 L 488.9 64.5" id="101,10" /><path d="M 473.7 65.6 L 473.7 65.2 L 486.8 65.2" id="82,9" /><path d="M 475.4 66.1 L 475.4 65.8 L 497.3 65.8" id="78,8" /><path d="M 475.4 66.1 L 475.4 66.4 L 492.2 66.4" id="78,7" /><path d="M 476.9 67.4 L 476.9 67.0 L 484.8 67.0" id="77,6" /><path d="M 476.9 67.4 L 476.9 67.7 L 486.7 67.7" id="77,5" /><path d="M 482.3 68.6 L 482.3 68.3 L 491.3 68.3" id="73,4" /><path d="M 482.3 68.6 L 482.3 68.9 L 512.8 68.9" id="73,3" /><path d="M 478.1 70.0 L 478.1 69.6 L 491.5 69.6" id="72,2" /><path d="M 482.5 70.5 L 482.5 70.2 L 493.1 70.2" id="70,1" /><path d="M 482.5 70.5 L 482.5 70.8 L 492.6 70.8" id="70,0" /></g><g class="toytree-Nodes" style="fill:rgb(100%,0%,0%);fill-opacity:1.0;stroke:None;stroke-width:1"><g id="node-0" transform="translate(492.552,70.833)"><circle r="2.5" /></g><g id="node-1" transform="translate(493.094,70.202)"><circle r="2.5" /></g><g id="node-2" transform="translate(491.518,69.571)"><circle r="2.5" /></g><g id="node-3" transform="translate(512.766,68.939)"><circle r="2.5" /></g><g id="node-4" transform="translate(491.304,68.308)"><circle r="2.5" /></g><g id="node-5" transform="translate(486.660,67.677)"><circle r="2.5" /></g><g id="node-6" transform="translate(484.807,67.045)"><circle r="2.5" /></g><g id="node-7" transform="translate(492.229,66.414)"><circle r="2.5" /></g><g id="node-8" transform="translate(497.255,65.783)"><circle r="2.5" /></g><g id="node-9" transform="translate(486.752,65.152)"><circle r="2.5" /></g><g id="node-10" transform="translate(488.904,64.520)"><circle r="2.5" /></g><g id="node-11" transform="translate(489.896,63.889)"><circle r="2.5" /></g><g id="node-12" transform="translate(482.560,63.258)"><circle r="2.5" /></g><g id="node-13" transform="translate(517.396,62.626)"><circle r="2.5" /></g><g id="node-14" transform="translate(521.718,61.995)"><circle r="2.5" /></g><g id="node-15" transform="translate(502.074,61.364)"><circle r="2.5" /></g><g id="node-16" transform="translate(491.824,60.732)"><circle r="2.5" /></g><g id="node-17" transform="translate(496.913,60.101)"><circle r="2.5" /></g><g id="node-18" transform="translate(484.989,59.470)"><circle r="2.5" /></g><g id="node-19" transform="translate(482.902,58.838)"><circle r="2.5" /></g><g id="node-20" transform="translate(481.545,58.207)"><circle r="2.5" /></g><g id="node-21" transform="translate(486.621,57.576)"><circle r="2.5" /></g><g id="node-22" transform="translate(504.006,56.944)"><circle r="2.5" /></g><g id="node-23" transform="translate(507.863,56.313)"><circle r="2.5" /></g><g id="node-24" transform="translate(493.974,55.682)"><circle r="2.5" /></g><g id="node-25" transform="translate(493.327,55.051)"><circle r="2.5" /></g><g id="node-26" transform="translate(504.387,54.419)"><circle r="2.5" /></g><g id="node-27" transform="translate(487.987,53.788)"><circle r="2.5" /></g><g id="node-28" transform="translate(486.288,53.157)"><circle r="2.5" /></g><g id="node-29" transform="translate(513.029,52.525)"><circle r="2.5" /></g><g id="node-30" transform="translate(502.705,51.894)"><circle r="2.5" /></g><g id="node-31" transform="translate(493.658,51.263)"><circle r="2.5" /></g><g id="node-32" transform="translate(493.051,50.631)"><circle r="2.5" /></g><g id="node-33" transform="translate(488.642,50.000)"><circle r="2.5" /></g><g id="node-34" transform="translate(496.756,49.369)"><circle r="2.5" /></g><g id="node-35" transform="translate(497.730,48.737)"><circle r="2.5" /></g><g id="node-36" transform="translate(530.263,48.106)"><circle r="2.5" /></g><g id="node-37" transform="translate(499.184,47.475)"><circle r="2.5" /></g><g id="node-38" transform="translate(508.033,46.843)"><circle r="2.5" /></g><g id="node-39" transform="translate(506.154,46.212)"><circle r="2.5" /></g><g id="node-40" transform="translate(506.548,45.581)"><circle r="2.5" /></g><g id="node-41" transform="translate(488.952,44.949)"><circle r="2.5" /></g><g id="node-42" transform="translate(495.441,44.318)"><circle r="2.5" /></g><g id="node-43" transform="translate(482.497,43.687)"><circle r="2.5" /></g><g id="node-44" transform="translate(483.286,43.056)"><circle r="2.5" /></g><g id="node-45" transform="translate(493.134,42.424)"><circle r="2.5" /></g><g id="node-46" transform="translate(493.043,41.793)"><circle r="2.5" /></g><g id="node-47" transform="translate(493.502,41.162)"><circle r="2.5" /></g><g id="node-48" transform="translate(493.424,40.530)"><circle r="2.5" /></g><g id="node-49" transform="translate(492.091,39.899)"><circle r="2.5" /></g><g id="node-50" transform="translate(493.632,39.268)"><circle r="2.5" /></g><g id="node-51" transform="translate(493.051,38.636)"><circle r="2.5" /></g><g id="node-52" transform="translate(498.789,38.005)"><circle r="2.5" /></g><g id="node-53" transform="translate(498.616,37.374)"><circle r="2.5" /></g><g id="node-54" transform="translate(497.902,36.742)"><circle r="2.5" /></g><g id="node-55" transform="translate(494.256,36.111)"><circle r="2.5" /></g><g id="node-56" transform="translate(495.395,35.480)"><circle r="2.5" /></g><g id="node-57" transform="translate(497.941,34.848)"><circle r="2.5" /></g><g id="node-58" transform="translate(508.721,34.217)"><circle r="2.5" /></g><g id="node-59" transform="translate(514.639,33.586)"><circle r="2.5" /></g><g id="node-60" transform="translate(498.934,32.955)"><circle r="2.5" /></g><g id="node-61" transform="translate(491.678,32.323)"><circle r="2.5" /></g><g id="node-62" transform="translate(485.569,31.692)"><circle r="2.5" /></g><g id="node-63" transform="translate(502.116,31.061)"><circle r="2.5" /></g><g id="node-64" transform="translate(486.190,30.429)"><circle r="2.5" /></g><g id="node-65" transform="translate(484.860,29.798)"><circle r="2.5" /></g><g id="node-66" transform="translate(480.925,29.167)"><circle r="2.5" /></g><g id="node-67" transform="translate(493.043,42.109)"><circle r="0.0" /></g><g id="node-68" transform="translate(492.197,41.635)"><circle r="0.0" /></g><g id="node-69" transform="translate(491.699,40.215)"><circle r="0.0" /></g><g id="node-70" transform="translate(482.541,70.518)"><circle r="0.0" /></g><g id="node-71" transform="translate(490.724,40.925)"><circle r="0.0" /></g><g id="node-72" transform="translate(478.110,70.044)"><circle r="0.0" /></g><g id="node-73" transform="translate(482.251,68.624)"><circle r="0.0" /></g><g id="node-74" transform="translate(489.581,40.096)"><circle r="0.0" /></g><g id="node-75" transform="translate(490.059,37.689)"><circle r="0.0" /></g><g id="node-76" transform="translate(474.922,69.334)"><circle r="0.0" /></g><g id="node-77" transform="translate(476.944,67.361)"><circle r="0.0" /></g><g id="node-78" transform="translate(475.421,66.098)"><circle r="0.0" /></g><g id="node-79" transform="translate(485.760,39.366)"><circle r="0.0" /></g><g id="node-80" transform="translate(487.994,37.216)"><circle r="0.0" /></g><g id="node-81" transform="translate(471.358,68.348)"><circle r="0.0" /></g><g id="node-82" transform="translate(473.736,65.625)"><circle r="0.0" /></g><g id="node-83" transform="translate(484.852,61.048)"><circle r="0.0" /></g><g id="node-84" transform="translate(465.846,52.841)"><circle r="0.0" /></g><g id="node-85" transform="translate(469.688,51.578)"><circle r="0.0" /></g><g id="node-86" transform="translate(492.147,49.053)"><circle r="0.0" /></g><g id="node-87" transform="translate(481.068,38.291)"><circle r="0.0" /></g><g id="node-88" transform="translate(489.214,33.902)"><circle r="0.0" /></g><g id="node-89" transform="translate(469.677,66.986)"><circle r="0.0" /></g><g id="node-90" transform="translate(469.429,63.573)"><circle r="0.0" /></g><g id="node-91" transform="translate(479.269,62.311)"><circle r="0.0" /></g><g id="node-92" transform="translate(482.415,60.574)"><circle r="0.0" /></g><g id="node-93" transform="translate(474.952,59.154)"><circle r="0.0" /></g><g id="node-94" transform="translate(484.432,56.629)"><circle r="0.0" /></g><g id="node-95" transform="translate(462.293,52.210)"><circle r="0.0" /></g><g id="node-96" transform="translate(464.277,50.316)"><circle r="0.0" /></g><g id="node-97" transform="translate(473.653,48.580)"><circle r="0.0" /></g><g id="node-98" transform="translate(479.488,37.201)"><circle r="0.0" /></g><g id="node-99" transform="translate(476.202,35.164)"><circle r="0.0" /></g><g id="node-100" transform="translate(486.248,33.428)"><circle r="0.0" /></g><g id="node-101" transform="translate(467.806,65.753)"><circle r="0.0" /></g><g id="node-102" transform="translate(467.389,62.942)"><circle r="0.0" /></g><g id="node-103" transform="translate(470.649,59.864)"><circle r="0.0" /></g><g id="node-104" transform="translate(470.101,57.891)"><circle r="0.0" /></g><g id="node-105" transform="translate(474.158,56.155)"><circle r="0.0" /></g><g id="node-106" transform="translate(461.660,54.735)"><circle r="0.0" /></g><g id="node-107" transform="translate(461.822,51.263)"><circle r="0.0" /></g><g id="node-108" transform="translate(470.023,48.027)"><circle r="0.0" /></g><g id="node-109" transform="translate(478.855,46.528)"><circle r="0.0" /></g><g id="node-110" transform="translate(474.341,36.183)"><circle r="0.0" /></g><g id="node-111" transform="translate(471.262,32.876)"><circle r="0.0" /></g><g id="node-112" transform="translate(465.322,64.348)"><circle r="0.0" /></g><g id="node-113" transform="translate(467.326,58.878)"><circle r="0.0" /></g><g id="node-114" transform="translate(457.082,55.445)"><circle r="0.0" /></g><g id="node-115" transform="translate(460.650,49.645)"><circle r="0.0" /></g><g id="node-116" transform="translate(460.741,46.054)"><circle r="0.0" /></g><g id="node-117" transform="translate(474.785,44.634)"><circle r="0.0" /></g><g id="node-118" transform="translate(471.580,43.371)"><circle r="0.0" /></g><g id="node-119" transform="translate(465.577,34.529)"><circle r="0.0" /></g><g id="node-120" transform="translate(463.334,61.613)"><circle r="0.0" /></g><g id="node-121" transform="translate(453.676,54.616)"><circle r="0.0" /></g><g id="node-122" transform="translate(455.952,47.850)"><circle r="0.0" /></g><g id="node-123" transform="translate(455.454,44.003)"><circle r="0.0" /></g><g id="node-124" transform="translate(462.286,33.111)"><circle r="0.0" /></g><g id="node-125" transform="translate(480.001,30.114)"><circle r="0.0" /></g><g id="node-126" transform="translate(452.113,58.115)"><circle r="0.0" /></g><g id="node-127" transform="translate(451.306,45.926)"><circle r="0.0" /></g><g id="node-128" transform="translate(459.547,32.086)"><circle r="0.0" /></g><g id="node-129" transform="translate(460.566,29.640)"><circle r="0.0" /></g><g id="node-130" transform="translate(449.918,52.020)"><circle r="0.0" /></g><g id="node-131" transform="translate(446.761,30.863)"><circle r="0.0" /></g><g id="node-132" transform="translate(445.000,41.442)"><circle r="0.0" /></g></g></g></g></g></svg>