<svg class="toyplot-canvas-Canvas" xmlns:toyplot="http://www.sandia.gov/toyplot" xmlns:xlink="http://www.w3.org/1999/xlink" xmlns="http://www.w3.org/2000/svg" width="560.0px" height="100.0px" viewBox="0 0 560.0 100.0" preserveAspectRatio="xMidYMid meet" style="background-color:transparent;border-color:#292724;border-style:none;border-width:1.0;fill:rgb(16.1%,15.3%,14.1%);fill-opacity:1.0;font-family:Helvetica;font-size:12px;opacity:1.0;stroke:rgb(16.1%,15.3%,14.1%);stroke-opacity:1.0;stroke-width:1.0" id="t88e64324b6aa483e90673f346b15e37a"><g class="toyplot-coordinates-Cartesian" id="t7c7e472d9e544756a148109052a42441"><clipPath id="tc8e7b62c280f49c68f2af183539ad2e6"><rect x="15.0" y="15.0" width="110.0" height="70.0" /></clipPath><g clip-path="url(#tc8e7b62c280f49c68f2af183539ad2e6)"><g class="toytree-mark-Toytree" id="tf63495cd892445989df6b528c2252687"><g class="toytree-Edges" style="fill:none;stroke:rgb(14.9%,14.9%,14.9%);stroke-linecap:round;stroke-opacity:1;stroke-width:0.5"><path d="M 25.0 37.8 L 25.0 30.3 L 26.3 30.3" id="54,53" /><path d="M 25.0 37.8 L 25.0 45.3 L 28.7 45.3" id="54,52" /><path d="M 26.3 30.3 L 26.3 31.5 L 40.6 31.5" id="53,51" /><path d="M 28.7 45.3 L 28.7 36.4 L 30.3 36.4" id="52,50" /><path d="M 28.7 45.3 L 28.7 54.3 L 31.1 54.3" id="52,49" /><path d="M 30.3 36.4 L 30.3 39.0 L 34.7 39.0" id="50,48" /><path d="M 31.1 54.3 L 31.1 49.0 L 55.2 49.0" id="49,47" /><path d="M 31.1 54.3 L 31.1 59.5 L 32.8 59.5" id="49,46" /><path d="M 34.7 39.0 L 34.7 36.5 L 36.5 36.5" id="48,45" /><path d="M 34.7 39.0 L 34.7 41.4 L 38.1 41.4" id="48,44" /><path d="M 55.2 49.0 L 55.2 50.4 L 58.5 50.4" id="47,43" /><path d="M 32.8 59.5 L 32.8 55.0 L 35.2 55.0" id="46,42" /><path d="M 32.8 59.5 L 32.8 64.0 L 34.3 64.0" id="46,41" /><path d="M 36.5 36.5 L 36.5 37.7 L 48.3 37.7" id="45,40" /><path d="M 38.1 41.4 L 38.1 42.9 L 39.5 42.9" id="44,39" /><path d="M 58.5 50.4 L 58.5 51.5 L 63.6 51.5" id="43,38" /><path d="M 35.2 55.0 L 35.2 56.2 L 45.2 56.2" id="42,37" /><path d="M 34.3 64.0 L 34.3 60.8 L 38.4 60.8" id="41,36" /><path d="M 34.3 64.0 L 34.3 67.2 L 36.3 67.2" id="41,35" /><path d="M 39.5 42.9 L 39.5 44.2 L 44.2 44.2" id="39,34" /><path d="M 38.4 60.8 L 38.4 59.3 L 59.7 59.3" id="36,33" /><path d="M 38.4 60.8 L 38.4 62.3 L 39.0 62.3" id="36,32" /><path d="M 36.3 67.2 L 36.3 65.4 L 39.0 65.4" id="35,31" /><path d="M 36.3 67.2 L 36.3 68.9 L 38.5 68.9" id="35,30" /><path d="M 44.2 44.2 L 44.2 45.4 L 46.0 45.4" id="34,29" /><path d="M 38.5 68.9 L 38.5 70.1 L 42.7 70.1" id="30,28" /><path d="M 26.3 30.3 L 26.3 29.2 L 92.6 29.2" id="53,27" /><path d="M 40.6 31.5 L 40.6 30.7 L 95.5 30.7" id="51,26" /><path d="M 40.6 31.5 L 40.6 32.3 L 110.3 32.3" id="51,25" /><path d="M 30.3 36.4 L 30.3 33.8 L 101.6 33.8" id="50,24" /><path d="M 36.5 36.5 L 36.5 35.3 L 109.2 35.3" id="45,23" /><path d="M 48.3 37.7 L 48.3 36.9 L 102.0 36.9" id="40,22" /><path d="M 48.3 37.7 L 48.3 38.4 L 105.1 38.4" id="40,21" /><path d="M 38.1 41.4 L 38.1 40.0 L 95.0 40.0" id="44,20" /><path d="M 39.5 42.9 L 39.5 41.5 L 99.0 41.5" id="39,19" /><path d="M 44.2 44.2 L 44.2 43.1 L 99.0 43.1" id="34,18" /><path d="M 46.0 45.4 L 46.0 44.6 L 99.0 44.6" id="29,17" /><path d="M 46.0 45.4 L 46.0 46.1 L 103.1 46.1" id="29,16" /><path d="M 55.2 49.0 L 55.2 47.7 L 107.8 47.7" id="47,15" /><path d="M 58.5 50.4 L 58.5 49.2 L 100.1 49.2" id="43,14" /><path d="M 63.6 51.5 L 63.6 50.8 L 103.7 50.8" id="38,13" /><path d="M 63.6 51.5 L 63.6 52.3 L 97.7 52.3" id="38,12" /><path d="M 35.2 55.0 L 35.2 53.9 L 94.3 53.9" id="42,11" /><path d="M 45.2 56.2 L 45.2 55.4 L 96.9 55.4" id="37,10" /><path d="M 45.2 56.2 L 45.2 56.9 L 94.4 56.9" id="37,9" /><path d="M 59.7 59.3 L 59.7 58.5 L 105.0 58.5" id="33,8" /><path d="M 59.7 59.3 L 59.7 60.0 L 105.3 60.0" id="33,7" /><path d="M 39.0 62.3 L 39.0 61.6 L 96.7 61.6" id="32,6" /><path d="M 39.0 62.3 L 39.0 63.1 L 88.2 63.1" id="32,5" /><path d="M 39.0 65.4 L 39.0 64.7 L 93.5 64.7" id="31,4" /><path d="M 39.0 65.4 L 39.0 66.2 L 99.2 66.2" id="31,3" /><path d="M 38.5 68.9 L 38.5 67.7 L 92.0 67.7" id="30,2" /><path d="M 42.7 70.1 L 42.7 69.3 L 94.9 69.3" id="28,1" /><path d="M 42.7 70.1 L 42.7 70.8 L 93.0 70.8" id="28,0" /></g><g class="toytree-Nodes" style="fill:rgb(100%,0%,0%);fill-opacity:1.0;stroke:None;stroke-width:1"><g id="node-0" transform="translate(92.997,70.833)"><circle r="2.5" /></g><g id="node-1" transform="translate(94.893,69.290)"><circle r="2.5" /></g><g id="node-2" transform="translate(91.971,67.747)"><circle r="2.5" /></g><g id="node-3" transform="translate(99.235,66.204)"><circle r="2.5" /></g><g id="node-4" transform="translate(93.495,64.660)"><circle r="2.5" /></g><g id="node-5" transform="translate(88.197,63.117)"><circle r="2.5" /></g><g id="node-6" transform="translate(96.686,61.574)"><circle r="2.5" /></g><g id="node-7" transform="translate(105.273,60.031)"><circle r="2.5" /></g><g id="node-8" transform="translate(104.990,58.488)"><circle r="2.5" /></g><g id="node-9" transform="translate(94.437,56.944)"><circle r="2.5" /></g><g id="node-10" transform="translate(96.932,55.401)"><circle r="2.5" /></g><g id="node-11" transform="translate(94.297,53.858)"><circle r="2.5" /></g><g id="node-12" transform="translate(97.684,52.315)"><circle r="2.5" /></g><g id="node-13" transform="translate(103.715,50.772)"><circle r="2.5" /></g><g id="node-14" transform="translate(100.091,49.228)"><circle r="2.5" /></g><g id="node-15" transform="translate(107.835,47.685)"><circle r="2.5" /></g><g id="node-16" transform="translate(103.080,46.142)"><circle r="2.5" /></g><g id="node-17" transform="translate(99.019,44.599)"><circle r="2.5" /></g><g id="node-18" transform="translate(98.954,43.056)"><circle r="2.5" /></g><g id="node-19" transform="translate(98.967,41.512)"><circle r="2.5" /></g><g id="node-20" transform="translate(95.030,39.969)"><circle r="2.5" /></g><g id="node-21" transform="translate(105.102,38.426)"><circle r="2.5" /></g><g id="node-22" transform="translate(102.041,36.883)"><circle r="2.5" /></g><g id="node-23" transform="translate(109.210,35.340)"><circle r="2.5" /></g><g id="node-24" transform="translate(101.616,33.796)"><circle r="2.5" /></g><g id="node-25" transform="translate(110.263,32.253)"><circle r="2.5" /></g><g id="node-26" transform="translate(95.480,30.710)"><circle r="2.5" /></g><g id="node-27" transform="translate(92.570,29.167)"><circle r="2.5" /></g><g id="node-28" transform="translate(42.709,70.062)"><circle r="0.0" /></g><g id="node-29" transform="translate(45.960,45.370)"><circle r="0.0" /></g><g id="node-30" transform="translate(38.545,68.904)"><circle r="0.0" /></g><g id="node-31" transform="translate(38.985,65.432)"><circle r="0.0" /></g><g id="node-32" transform="translate(39.018,62.346)"><circle r="0.0" /></g><g id="node-33" transform="translate(59.727,59.259)"><circle r="0.0" /></g><g id="node-34" transform="translate(44.184,44.213)"><circle r="0.0" /></g><g id="node-35" transform="translate(36.292,67.168)"><circle r="0.0" /></g><g id="node-36" transform="translate(38.412,60.802)"><circle r="0.0" /></g><g id="node-37" transform="translate(45.177,56.173)"><circle r="0.0" /></g><g id="node-38" transform="translate(63.574,51.543)"><circle r="0.0" /></g><g id="node-39" transform="translate(39.474,42.863)"><circle r="0.0" /></g><g id="node-40" transform="translate(48.274,37.654)"><circle r="0.0" /></g><g id="node-41" transform="translate(34.251,63.985)"><circle r="0.0" /></g><g id="node-42" transform="translate(35.163,55.015)"><circle r="0.0" /></g><g id="node-43" transform="translate(58.532,50.386)"><circle r="0.0" /></g><g id="node-44" transform="translate(38.146,41.416)"><circle r="0.0" /></g><g id="node-45" transform="translate(36.488,36.497)"><circle r="0.0" /></g><g id="node-46" transform="translate(32.841,59.500)"><circle r="0.0" /></g><g id="node-47" transform="translate(55.158,49.035)"><circle r="0.0" /></g><g id="node-48" transform="translate(34.713,38.956)"><circle r="0.0" /></g><g id="node-49" transform="translate(31.075,54.268)"><circle r="0.0" /></g><g id="node-50" transform="translate(30.294,36.376)"><circle r="0.0" /></g><g id="node-51" transform="translate(40.597,31.481)"><circle r="0.0" /></g><g id="node-52" transform="translate(28.736,45.322)"><circle r="0.0" /></g><g id="node-53" transform="translate(26.282,30.324)"><circle r="0.0" /></g><g id="node-54" transform="translate(25.000,37.823)"><circle r="0.0" /></g></g></g></g></g><g class="toyplot-coordinates-Cartesian" id="t3a0f27aecc11474aac5d546b8ac97fb0"><clipPath id="t7fbdeb62c6a5413c9faeba7da78e0aac"><rect x="155.0" y="15.0" width="110.0" height="70.0" /></clipPath><g clip-path="url(#t7fbdeb62c6a5413c9faeba7da78e0aac)"><g class="toytree-mark-Toytree" id="t1b506b12e8bd40298e302afff6bae6d2"><g class="toytree-Edges" style="fill:none;stroke:rgb(14.9%,14.9%,14.9%);stroke-linecap:round;stroke-opacity:1;stroke-width:0.5"><path d="M 165.0 34.6 L 165.0 29.9 L 177.5 29.9" id="54,53" /><path d="M 165.0 34.6 L 165.0 39.3 L 177.8 39.3" id="54,52" /><path d="M 177.8 39.3 L 177.8 34.8 L 198.6 34.8" id="52,51" /><path d="M 177.8 39.3 L 177.8 43.8 L 181.9 43.8" id="52,50" /><path d="M 198.6 34.8 L 198.6 33.0 L 213.2 33.0" id="51,49" /><path d="M 198.6 34.8 L 198.6 36.5 L 206.1 36.5" id="51,48" /><path d="M 181.9 43.8 L 181.9 47.7 L 190.2 47.7" id="50,47" /><path d="M 206.1 36.5 L 206.1 37.7 L 210.2 37.7" id="48,46" /><path d="M 190.2 47.7 L 190.2 42.9 L 195.2 42.9" id="47,45" /><path d="M 190.2 47.7 L 190.2 52.6 L 205.8 52.6" id="47,44" /><path d="M 195.2 42.9 L 195.2 44.2 L 196.6 44.2" id="45,43" /><path d="M 205.8 52.6 L 205.8 48.5 L 223.6 48.5" id="44,42" /><path d="M 205.8 52.6 L 205.8 56.7 L 216.9 56.7" id="44,41" /><path d="M 196.6 44.2 L 196.6 45.4 L 199.5 45.4" id="43,40" /><path d="M 216.9 56.7 L 216.9 51.9 L 219.1 51.9" id="41,39" /><path d="M 216.9 56.7 L 216.9 61.5 L 225.9 61.5" id="41,38" /><path d="M 219.1 51.9 L 219.1 53.1 L 223.9 53.1" id="39,37" /><path d="M 225.9 61.5 L 225.9 57.3 L 229.1 57.3" id="38,36" /><path d="M 225.9 61.5 L 225.9 65.7 L 227.1 65.7" id="38,35" /><path d="M 229.1 57.3 L 229.1 59.3 L 232.0 59.3" id="36,34" /><path d="M 227.1 65.7 L 227.1 63.9 L 231.5 63.9" id="35,33" /><path d="M 227.1 65.7 L 227.1 67.6 L 229.3 67.6" id="35,32" /><path d="M 232.0 59.3 L 232.0 57.7 L 234.5 57.7" id="34,31" /><path d="M 232.0 59.3 L 232.0 60.8 L 235.6 60.8" id="34,30" /><path d="M 229.3 67.6 L 229.3 68.9 L 230.5 68.9" id="32,29" /><path d="M 230.5 68.9 L 230.5 70.1 L 231.6 70.1" id="29,28" /><path d="M 177.5 29.9 L 177.5 29.2 L 222.0 29.2" id="53,27" /><path d="M 177.5 29.9 L 177.5 30.7 L 239.4 30.7" id="53,26" /><path d="M 213.2 33.0 L 213.2 32.3 L 228.2 32.3" id="49,25" /><path d="M 213.2 33.0 L 213.2 33.8 L 229.7 33.8" id="49,24" /><path d="M 206.1 36.5 L 206.1 35.3 L 237.6 35.3" id="48,23" /><path d="M 210.2 37.7 L 210.2 36.9 L 225.9 36.9" id="46,22" /><path d="M 210.2 37.7 L 210.2 38.4 L 223.0 38.4" id="46,21" /><path d="M 181.9 43.8 L 181.9 40.0 L 233.2 40.0" id="50,20" /><path d="M 195.2 42.9 L 195.2 41.5 L 209.3 41.5" id="45,19" /><path d="M 196.6 44.2 L 196.6 43.1 L 202.7 43.1" id="43,18" /><path d="M 199.5 45.4 L 199.5 44.6 L 206.2 44.6" id="40,17" /><path d="M 199.5 45.4 L 199.5 46.1 L 199.7 46.1" id="40,16" /><path d="M 223.6 48.5 L 223.6 47.7 L 238.9 47.7" id="42,15" /><path d="M 223.6 48.5 L 223.6 49.2 L 250.3 49.2" id="42,14" /><path d="M 219.1 51.9 L 219.1 50.8 L 247.3 50.8" id="39,13" /><path d="M 223.9 53.1 L 223.9 52.3 L 242.7 52.3" id="37,12" /><path d="M 223.9 53.1 L 223.9 53.9 L 240.2 53.9" id="37,11" /><path d="M 229.1 57.3 L 229.1 55.4 L 238.6 55.4" id="36,10" /><path d="M 234.5 57.7 L 234.5 56.9 L 250.2 56.9" id="31,9" /><path d="M 234.5 57.7 L 234.5 58.5 L 249.0 58.5" id="31,8" /><path d="M 235.6 60.8 L 235.6 60.0 L 242.1 60.0" id="30,7" /><path d="M 235.6 60.8 L 235.6 61.6 L 243.2 61.6" id="30,6" /><path d="M 231.5 63.9 L 231.5 63.1 L 235.9 63.1" id="33,5" /><path d="M 231.5 63.9 L 231.5 64.7 L 240.9 64.7" id="33,4" /><path d="M 229.3 67.6 L 229.3 66.2 L 234.1 66.2" id="32,3" /><path d="M 230.5 68.9 L 230.5 67.7 L 240.5 67.7" id="29,2" /><path d="M 231.6 70.1 L 231.6 69.3 L 234.7 69.3" id="28,1" /><path d="M 231.6 70.1 L 231.6 70.8 L 239.4 70.8" id="28,0" /></g><g class="toytree-Nodes" style="fill:rgb(100%,0%,0%);fill-opacity:1.0;stroke:None;stroke-width:1"><g id="node-0" transform="translate(239.421,70.833)"><circle r="2.5" /></g><g id="node-1" transform="translate(234.715,69.290)"><circle r="2.5" /></g><g id="node-2" transform="translate(240.516,67.747)"><circle r="2.5" /></g><g id="node-3" transform="translate(234.077,66.204)"><circle r="2.5" /></g><g id="node-4" transform="translate(240.905,64.660)"><circle r="2.5" /></g><g id="node-5" transform="translate(235.918,63.117)"><circle r="2.5" /></g><g id="node-6" transform="translate(243.201,61.574)"><circle r="2.5" /></g><g id="node-7" transform="translate(242.141,60.031)"><circle r="2.5" /></g><g id="node-8" transform="translate(248.959,58.488)"><circle r="2.5" /></g><g id="node-9" transform="translate(250.227,56.944)"><circle r="2.5" /></g><g id="node-10" transform="translate(238.556,55.401)"><circle r="2.5" /></g><g id="node-11" transform="translate(240.177,53.858)"><circle r="2.5" /></g><g id="node-12" transform="translate(242.700,52.315)"><circle r="2.5" /></g><g id="node-13" transform="translate(247.323,50.772)"><circle r="2.5" /></g><g id="node-14" transform="translate(250.263,49.228)"><circle r="2.5" /></g><g id="node-15" transform="translate(238.855,47.685)"><circle r="2.5" /></g><g id="node-16" transform="translate(199.701,46.142)"><circle r="2.5" /></g><g id="node-17" transform="translate(206.166,44.599)"><circle r="2.5" /></g><g id="node-18" transform="translate(202.739,43.056)"><circle r="2.5" /></g><g id="node-19" transform="translate(209.257,41.512)"><circle r="2.5" /></g><g id="node-20" transform="translate(233.151,39.969)"><circle r="2.5" /></g><g id="node-21" transform="translate(222.957,38.426)"><circle r="2.5" /></g><g id="node-22" transform="translate(225.890,36.883)"><circle r="2.5" /></g><g id="node-23" transform="translate(237.597,35.340)"><circle r="2.5" /></g><g id="node-24" transform="translate(229.703,33.796)"><circle r="2.5" /></g><g id="node-25" transform="translate(228.189,32.253)"><circle r="2.5" /></g><g id="node-26" transform="translate(239.444,30.710)"><circle r="2.5" /></g><g id="node-27" transform="translate(221.996,29.167)"><circle r="2.5" /></g><g id="node-28" transform="translate(231.645,70.062)"><circle r="0.0" /></g><g id="node-29" transform="translate(230.459,68.904)"><circle r="0.0" /></g><g id="node-30" transform="translate(235.626,60.802)"><circle r="0.0" /></g><g id="node-31" transform="translate(234.477,57.716)"><circle r="0.0" /></g><g id="node-32" transform="translate(229.310,67.554)"><circle r="0.0" /></g><g id="node-33" transform="translate(231.457,63.889)"><circle r="0.0" /></g><g id="node-34" transform="translate(232.034,59.259)"><circle r="0.0" /></g><g id="node-35" transform="translate(227.094,65.721)"><circle r="0.0" /></g><g id="node-36" transform="translate(229.137,57.330)"><circle r="0.0" /></g><g id="node-37" transform="translate(223.872,53.086)"><circle r="0.0" /></g><g id="node-38" transform="translate(225.941,61.526)"><circle r="0.0" /></g><g id="node-39" transform="translate(219.112,51.929)"><circle r="0.0" /></g><g id="node-40" transform="translate(199.492,45.370)"><circle r="0.0" /></g><g id="node-41" transform="translate(216.947,56.727)"><circle r="0.0" /></g><g id="node-42" transform="translate(223.606,48.457)"><circle r="0.0" /></g><g id="node-43" transform="translate(196.638,44.213)"><circle r="0.0" /></g><g id="node-44" transform="translate(205.845,52.592)"><circle r="0.0" /></g><g id="node-45" transform="translate(195.233,42.863)"><circle r="0.0" /></g><g id="node-46" transform="translate(210.190,37.654)"><circle r="0.0" /></g><g id="node-47" transform="translate(190.221,47.727)"><circle r="0.0" /></g><g id="node-48" transform="translate(206.130,36.497)"><circle r="0.0" /></g><g id="node-49" transform="translate(213.181,33.025)"><circle r="0.0" /></g><g id="node-50" transform="translate(181.944,43.848)"><circle r="0.0" /></g><g id="node-51" transform="translate(198.627,34.761)"><circle r="0.0" /></g><g id="node-52" transform="translate(177.825,39.305)"><circle r="0.0" /></g><g id="node-53" transform="translate(177.481,29.938)"><circle r="0.0" /></g><g id="node-54" transform="translate(165.000,34.621)"><circle r="0.0" /></g></g></g></g></g><g class="toyplot-coordinates-Cartesian" id="tcb50b4999a5a452ba78a9e632bd9d523"><clipPath id="t38e03b836cca4cdebc95b538819755d1"><rect x="295.0" y="15.0" width="110.0" height="70.0" /></clipPath><g clip-path="url(#t38e03b836cca4cdebc95b538819755d1)"><g class="toytree-mark-Toytree" id="tbd136686ac9a4a948c541639a62fd311"><g class="toytree-Edges" style="fill:none;stroke:rgb(14.9%,14.9%,14.9%);stroke-linecap:round;stroke-opacity:1;stroke-width:0.5"><path d="M 305.0 35.5 L 305.0 29.9 L 326.9 29.9" id="54,53" /><path d="M 305.0 35.5 L 305.0 41.0 L 318.6 41.0" id="54,52" /><path d="M 318.6 41.0 L 318.6 33.6 L 339.3 33.6" id="52,51" /><path d="M 318.6 41.0 L 318.6 48.4 L 323.7 48.4" id="52,50" /><path d="M 339.3 33.6 L 339.3 35.0 L 341.9 35.0" id="51,49" /><path d="M 323.7 48.4 L 323.7 40.8 L 329.9 40.8" id="50,48" /><path d="M 323.7 48.4 L 323.7 55.9 L 326.0 55.9" id="50,47" /><path d="M 341.9 35.0 L 341.9 36.1 L 348.5 36.1" id="49,46" /><path d="M 329.9 40.8 L 329.9 43.2 L 332.4 43.2" id="48,45" /><path d="M 326.0 55.9 L 326.0 51.9 L 330.4 51.9" id="47,44" /><path d="M 326.0 55.9 L 326.0 59.9 L 331.4 59.9" id="47,43" /><path d="M 332.4 43.2 L 332.4 40.7 L 332.7 40.7" id="45,42" /><path d="M 332.4 43.2 L 332.4 45.6 L 336.5 45.6" id="45,41" /><path d="M 330.4 51.9 L 330.4 53.1 L 351.2 53.1" id="44,40" /><path d="M 331.4 59.9 L 331.4 56.6 L 334.6 56.6" id="43,39" /><path d="M 331.4 59.9 L 331.4 63.3 L 332.7 63.3" id="43,38" /><path d="M 336.5 45.6 L 336.5 43.8 L 349.5 43.8" id="41,37" /><path d="M 336.5 45.6 L 336.5 47.3 L 337.8 47.3" id="41,36" /><path d="M 334.6 56.6 L 334.6 57.7 L 338.1 57.7" id="39,35" /><path d="M 332.7 63.3 L 332.7 60.8 L 341.7 60.8" id="38,34" /><path d="M 332.7 63.3 L 332.7 65.7 L 335.1 65.7" id="38,33" /><path d="M 337.8 47.3 L 337.8 48.5 L 341.6 48.5" id="36,32" /><path d="M 335.1 65.7 L 335.1 63.9 L 338.9 63.9" id="33,31" /><path d="M 335.1 65.7 L 335.1 67.6 L 337.1 67.6" id="33,30" /><path d="M 337.1 67.6 L 337.1 68.9 L 341.6 68.9" id="30,29" /><path d="M 341.6 68.9 L 341.6 70.1 L 344.1 70.1" id="29,28" /><path d="M 326.9 29.9 L 326.9 29.2 L 358.6 29.2" id="53,27" /><path d="M 326.9 29.9 L 326.9 30.7 L 382.6 30.7" id="53,26" /><path d="M 339.3 33.6 L 339.3 32.3 L 369.7 32.3" id="51,25" /><path d="M 341.9 35.0 L 341.9 33.8 L 373.5 33.8" id="49,24" /><path d="M 348.5 36.1 L 348.5 35.3 L 365.0 35.3" id="46,23" /><path d="M 348.5 36.1 L 348.5 36.9 L 362.8 36.9" id="46,22" /><path d="M 329.9 40.8 L 329.9 38.4 L 371.4 38.4" id="48,21" /><path d="M 332.7 40.7 L 332.7 40.0 L 362.4 40.0" id="42,20" /><path d="M 332.7 40.7 L 332.7 41.5 L 371.1 41.5" id="42,19" /><path d="M 349.5 43.8 L 349.5 43.1 L 372.4 43.1" id="37,18" /><path d="M 349.5 43.8 L 349.5 44.6 L 380.2 44.6" id="37,17" /><path d="M 337.8 47.3 L 337.8 46.1 L 369.2 46.1" id="36,16" /><path d="M 341.6 48.5 L 341.6 47.7 L 370.6 47.7" id="32,15" /><path d="M 341.6 48.5 L 341.6 49.2 L 390.3 49.2" id="32,14" /><path d="M 330.4 51.9 L 330.4 50.8 L 381.3 50.8" id="44,13" /><path d="M 351.2 53.1 L 351.2 52.3 L 375.8 52.3" id="40,12" /><path d="M 351.2 53.1 L 351.2 53.9 L 379.8 53.9" id="40,11" /><path d="M 334.6 56.6 L 334.6 55.4 L 363.7 55.4" id="39,10" /><path d="M 338.1 57.7 L 338.1 56.9 L 384.6 56.9" id="35,9" /><path d="M 338.1 57.7 L 338.1 58.5 L 381.7 58.5" id="35,8" /><path d="M 341.7 60.8 L 341.7 60.0 L 357.4 60.0" id="34,7" /><path d="M 341.7 60.8 L 341.7 61.6 L 363.9 61.6" id="34,6" /><path d="M 338.9 63.9 L 338.9 63.1 L 357.8 63.1" id="31,5" /><path d="M 338.9 63.9 L 338.9 64.7 L 360.9 64.7" id="31,4" /><path d="M 337.1 67.6 L 337.1 66.2 L 354.4 66.2" id="30,3" /><path d="M 341.6 68.9 L 341.6 67.7 L 359.9 67.7" id="29,2" /><path d="M 344.1 70.1 L 344.1 69.3 L 366.5 69.3" id="28,1" /><path d="M 344.1 70.1 L 344.1 70.8 L 364.5 70.8" id="28,0" /></g><g class="toytree-Nodes" style="fill:rgb(100%,0%,0%);fill-opacity:1.0;stroke:None;stroke-width:1"><g id="node-0" transform="translate(364.544,70.833)"><circle r="2.5" /></g><g id="node-1" transform="translate(366.456,69.290)"><circle r="2.5" /></g><g id="node-2" transform="translate(359.895,67.747)"><circle r="2.5" /></g><g id="node-3" transform="translate(354.416,66.204)"><circle r="2.5" /></g><g id="node-4" transform="translate(360.945,64.660)"><circle r="2.5" /></g><g id="node-5" transform="translate(357.848,63.117)"><circle r="2.5" /></g><g id="node-6" transform="translate(363.935,61.574)"><circle r="2.5" /></g><g id="node-7" transform="translate(357.398,60.031)"><circle r="2.5" /></g><g id="node-8" transform="translate(381.667,58.488)"><circle r="2.5" /></g><g id="node-9" transform="translate(384.609,56.944)"><circle r="2.5" /></g><g id="node-10" transform="translate(363.702,55.401)"><circle r="2.5" /></g><g id="node-11" transform="translate(379.759,53.858)"><circle r="2.5" /></g><g id="node-12" transform="translate(375.755,52.315)"><circle r="2.5" /></g><g id="node-13" transform="translate(381.262,50.772)"><circle r="2.5" /></g><g id="node-14" transform="translate(390.263,49.228)"><circle r="2.5" /></g><g id="node-15" transform="translate(370.570,47.685)"><circle r="2.5" /></g><g id="node-16" transform="translate(369.169,46.142)"><circle r="2.5" /></g><g id="node-17" transform="translate(380.241,44.599)"><circle r="2.5" /></g><g id="node-18" transform="translate(372.372,43.056)"><circle r="2.5" /></g><g id="node-19" transform="translate(371.142,41.512)"><circle r="2.5" /></g><g id="node-20" transform="translate(362.366,39.969)"><circle r="2.5" /></g><g id="node-21" transform="translate(371.412,38.426)"><circle r="2.5" /></g><g id="node-22" transform="translate(362.783,36.883)"><circle r="2.5" /></g><g id="node-23" transform="translate(365.022,35.340)"><circle r="2.5" /></g><g id="node-24" transform="translate(373.545,33.796)"><circle r="2.5" /></g><g id="node-25" transform="translate(369.651,32.253)"><circle r="2.5" /></g><g id="node-26" transform="translate(382.574,30.710)"><circle r="2.5" /></g><g id="node-27" transform="translate(358.648,29.167)"><circle r="2.5" /></g><g id="node-28" transform="translate(344.112,70.062)"><circle r="0.0" /></g><g id="node-29" transform="translate(341.575,68.904)"><circle r="0.0" /></g><g id="node-30" transform="translate(337.052,67.554)"><circle r="0.0" /></g><g id="node-31" transform="translate(338.907,63.889)"><circle r="0.0" /></g><g id="node-32" transform="translate(341.644,48.457)"><circle r="0.0" /></g><g id="node-33" transform="translate(335.119,65.721)"><circle r="0.0" /></g><g id="node-34" transform="translate(341.730,60.802)"><circle r="0.0" /></g><g id="node-35" transform="translate(338.114,57.716)"><circle r="0.0" /></g><g id="node-36" transform="translate(337.767,47.299)"><circle r="0.0" /></g><g id="node-37" transform="translate(349.484,43.827)"><circle r="0.0" /></g><g id="node-38" transform="translate(332.725,63.262)"><circle r="0.0" /></g><g id="node-39" transform="translate(334.555,56.559)"><circle r="0.0" /></g><g id="node-40" transform="translate(351.160,53.086)"><circle r="0.0" /></g><g id="node-41" transform="translate(336.496,45.563)"><circle r="0.0" /></g><g id="node-42" transform="translate(332.741,40.741)"><circle r="0.0" /></g><g id="node-43" transform="translate(331.377,59.910)"><circle r="0.0" /></g><g id="node-44" transform="translate(330.360,51.929)"><circle r="0.0" /></g><g id="node-45" transform="translate(332.439,43.152)"><circle r="0.0" /></g><g id="node-46" transform="translate(348.500,36.111)"><circle r="0.0" /></g><g id="node-47" transform="translate(325.955,55.920)"><circle r="0.0" /></g><g id="node-48" transform="translate(329.902,40.789)"><circle r="0.0" /></g><g id="node-49" transform="translate(341.861,34.954)"><circle r="0.0" /></g><g id="node-50" transform="translate(323.663,48.354)"><circle r="0.0" /></g><g id="node-51" transform="translate(339.291,33.603)"><circle r="0.0" /></g><g id="node-52" transform="translate(318.609,40.979)"><circle r="0.0" /></g><g id="node-53" transform="translate(326.854,29.938)"><circle r="0.0" /></g><g id="node-54" transform="translate(305.000,35.459)"><circle r="0.0" /></g></g></g></g></g><g class="toyplot-coordinates-Cartesian" id="t61a45cb9574c4a29abbb665049ab728f"><clipPath id="t7f3b2bcae89e4378ad4a68b11ea1d9cb"><rect x="435.0" y="15.0" width="110.0" height="70.0" /></clipPath><g clip-path="url(#t7f3b2bcae89e4378ad4a68b11ea1d9cb)"><g class="toytree-mark-Toytree" id="t11e8d69ce1294b9ba7b1ae6d791e4ebb"><g class="toytree-Edges" style="fill:none;stroke:rgb(14.9%,14.9%,14.9%);stroke-linecap:round;stroke-opacity:1;stroke-width:0.5"><path d="M 445.0 35.4 L 445.0 30.5 L 448.2 30.5" id="54,53" /><path d="M 445.0 35.4 L 445.0 40.2 L 448.2 40.2" id="54,52" /><path d="M 448.2 30.5 L 448.2 31.9 L 454.2 31.9" id="53,51" /><path d="M 448.2 40.2 L 448.2 36.1 L 471.2 36.1" id="52,50" /><path d="M 448.2 40.2 L 448.2 44.3 L 452.6 44.3" id="52,49" /><path d="M 454.2 31.9 L 454.2 33.0 L 480.6 33.0" id="51,48" /><path d="M 452.6 44.3 L 452.6 50.1 L 455.1 50.1" id="49,47" /><path d="M 455.1 50.1 L 455.1 41.9 L 460.0 41.9" id="47,46" /><path d="M 455.1 50.1 L 455.1 58.4 L 458.9 58.4" id="47,45" /><path d="M 460.0 41.9 L 460.0 43.8 L 462.1 43.8" id="46,44" /><path d="M 458.9 58.4 L 458.9 56.2 L 463.8 56.2" id="45,43" /><path d="M 458.9 58.4 L 458.9 60.5 L 461.6 60.5" id="45,42" /><path d="M 462.1 43.8 L 462.1 46.0 L 474.8 46.0" id="44,41" /><path d="M 461.6 60.5 L 461.6 62.6 L 463.8 62.6" id="42,40" /><path d="M 474.8 46.0 L 474.8 43.8 L 479.4 43.8" id="41,39" /><path d="M 474.8 46.0 L 474.8 48.2 L 476.8 48.2" id="41,38" /><path d="M 463.8 62.6 L 463.8 65.1 L 468.6 65.1" id="40,37" /><path d="M 476.8 48.2 L 476.8 50.2 L 481.6 50.2" id="38,36" /><path d="M 468.6 65.1 L 468.6 62.7 L 472.4 62.7" id="37,35" /><path d="M 468.6 65.1 L 468.6 67.6 L 484.9 67.6" id="37,34" /><path d="M 481.6 50.2 L 481.6 48.5 L 486.5 48.5" id="36,33" /><path d="M 481.6 50.2 L 481.6 51.9 L 489.3 51.9" id="36,32" /><path d="M 472.4 62.7 L 472.4 63.9 L 480.2 63.9" id="35,31" /><path d="M 484.9 67.6 L 484.9 68.9 L 489.6 68.9" id="34,30" /><path d="M 489.3 51.9 L 489.3 53.1 L 497.6 53.1" id="32,29" /><path d="M 489.6 68.9 L 489.6 70.1 L 494.4 70.1" id="30,28" /><path d="M 448.2 30.5 L 448.2 29.2 L 491.2 29.2" id="53,27" /><path d="M 454.2 31.9 L 454.2 30.7 L 483.9 30.7" id="51,26" /><path d="M 480.6 33.0 L 480.6 32.3 L 528.1 32.3" id="48,25" /><path d="M 480.6 33.0 L 480.6 33.8 L 485.0 33.8" id="48,24" /><path d="M 471.2 36.1 L 471.2 35.3 L 490.0 35.3" id="50,23" /><path d="M 471.2 36.1 L 471.2 36.9 L 483.2 36.9" id="50,22" /><path d="M 452.6 44.3 L 452.6 38.4 L 464.5 38.4" id="49,21" /><path d="M 460.0 41.9 L 460.0 40.0 L 480.7 40.0" id="46,20" /><path d="M 462.1 43.8 L 462.1 41.5 L 484.3 41.5" id="44,19" /><path d="M 479.4 43.8 L 479.4 43.1 L 499.5 43.1" id="39,18" /><path d="M 479.4 43.8 L 479.4 44.6 L 497.9 44.6" id="39,17" /><path d="M 476.8 48.2 L 476.8 46.1 L 495.5 46.1" id="38,16" /><path d="M 486.5 48.5 L 486.5 47.7 L 502.8 47.7" id="33,15" /><path d="M 486.5 48.5 L 486.5 49.2 L 507.5 49.2" id="33,14" /><path d="M 489.3 51.9 L 489.3 50.8 L 530.3 50.8" id="32,13" /><path d="M 497.6 53.1 L 497.6 52.3 L 511.5 52.3" id="29,12" /><path d="M 497.6 53.1 L 497.6 53.9 L 524.6 53.9" id="29,11" /><path d="M 463.8 56.2 L 463.8 55.4 L 479.1 55.4" id="43,10" /><path d="M 463.8 56.2 L 463.8 56.9 L 482.4 56.9" id="43,9" /><path d="M 461.6 60.5 L 461.6 58.5 L 487.8 58.5" id="42,8" /><path d="M 463.8 62.6 L 463.8 60.0 L 483.1 60.0" id="40,7" /><path d="M 472.4 62.7 L 472.4 61.6 L 499.3 61.6" id="35,6" /><path d="M 480.2 63.9 L 480.2 63.1 L 493.1 63.1" id="31,5" /><path d="M 480.2 63.9 L 480.2 64.7 L 500.2 64.7" id="31,4" /><path d="M 484.9 67.6 L 484.9 66.2 L 496.0 66.2" id="34,3" /><path d="M 489.6 68.9 L 489.6 67.7 L 509.4 67.7" id="30,2" /><path d="M 494.4 70.1 L 494.4 69.3 L 512.0 69.3" id="28,1" /><path d="M 494.4 70.1 L 494.4 70.8 L 501.5 70.8" id="28,0" /></g><g class="toytree-Nodes" style="fill:rgb(100%,0%,0%);fill-opacity:1.0;stroke:None;stroke-width:1"><g id="node-0" transform="translate(501.490,70.833)"><circle r="2.5" /></g><g id="node-1" transform="translate(511.987,69.290)"><circle r="2.5" /></g><g id="node-2" transform="translate(509.431,67.747)"><circle r="2.5" /></g><g id="node-3" transform="translate(495.960,66.204)"><circle r="2.5" /></g><g id="node-4" transform="translate(500.240,64.660)"><circle r="2.5" /></g><g id="node-5" transform="translate(493.053,63.117)"><circle r="2.5" /></g><g id="node-6" transform="translate(499.300,61.574)"><circle r="2.5" /></g><g id="node-7" transform="translate(483.125,60.031)"><circle r="2.5" /></g><g id="node-8" transform="translate(487.804,58.488)"><circle r="2.5" /></g><g id="node-9" transform="translate(482.355,56.944)"><circle r="2.5" /></g><g id="node-10" transform="translate(479.124,55.401)"><circle r="2.5" /></g><g id="node-11" transform="translate(524.623,53.858)"><circle r="2.5" /></g><g id="node-12" transform="translate(511.472,52.315)"><circle r="2.5" /></g><g id="node-13" transform="translate(530.263,50.772)"><circle r="2.5" /></g><g id="node-14" transform="translate(507.545,49.228)"><circle r="2.5" /></g><g id="node-15" transform="translate(502.824,47.685)"><circle r="2.5" /></g><g id="node-16" transform="translate(495.495,46.142)"><circle r="2.5" /></g><g id="node-17" transform="translate(497.852,44.599)"><circle r="2.5" /></g><g id="node-18" transform="translate(499.518,43.056)"><circle r="2.5" /></g><g id="node-19" transform="translate(484.278,41.512)"><circle r="2.5" /></g><g id="node-20" transform="translate(480.718,39.969)"><circle r="2.5" /></g><g id="node-21" transform="translate(464.512,38.426)"><circle r="2.5" /></g><g id="node-22" transform="translate(483.178,36.883)"><circle r="2.5" /></g><g id="node-23" transform="translate(490.013,35.340)"><circle r="2.5" /></g><g id="node-24" transform="translate(484.982,33.796)"><circle r="2.5" /></g><g id="node-25" transform="translate(528.126,32.253)"><circle r="2.5" /></g><g id="node-26" transform="translate(483.874,30.710)"><circle r="2.5" /></g><g id="node-27" transform="translate(491.171,29.167)"><circle r="2.5" /></g><g id="node-28" transform="translate(494.375,70.062)"><circle r="0.0" /></g><g id="node-29" transform="translate(497.575,53.086)"><circle r="0.0" /></g><g id="node-30" transform="translate(489.563,68.904)"><circle r="0.0" /></g><g id="node-31" transform="translate(480.239,63.889)"><circle r="0.0" /></g><g id="node-32" transform="translate(489.348,51.929)"><circle r="0.0" /></g><g id="node-33" transform="translate(486.452,48.457)"><circle r="0.0" /></g><g id="node-34" transform="translate(484.893,67.554)"><circle r="0.0" /></g><g id="node-35" transform="translate(472.417,62.731)"><circle r="0.0" /></g><g id="node-36" transform="translate(481.576,50.193)"><circle r="0.0" /></g><g id="node-37" transform="translate(468.645,65.143)"><circle r="0.0" /></g><g id="node-38" transform="translate(476.775,48.167)"><circle r="0.0" /></g><g id="node-39" transform="translate(479.423,43.827)"><circle r="0.0" /></g><g id="node-40" transform="translate(463.756,62.587)"><circle r="0.0" /></g><g id="node-41" transform="translate(474.794,45.997)"><circle r="0.0" /></g><g id="node-42" transform="translate(461.590,60.537)"><circle r="0.0" /></g><g id="node-43" transform="translate(463.843,56.173)"><circle r="0.0" /></g><g id="node-44" transform="translate(462.072,43.755)"><circle r="0.0" /></g><g id="node-45" transform="translate(458.853,58.355)"><circle r="0.0" /></g><g id="node-46" transform="translate(460.013,41.862)"><circle r="0.0" /></g><g id="node-47" transform="translate(455.139,50.109)"><circle r="0.0" /></g><g id="node-48" transform="translate(480.635,33.025)"><circle r="0.0" /></g><g id="node-49" transform="translate(452.577,44.267)"><circle r="0.0" /></g><g id="node-50" transform="translate(471.161,36.111)"><circle r="0.0" /></g><g id="node-51" transform="translate(454.243,31.867)"><circle r="0.0" /></g><g id="node-52" transform="translate(448.194,40.189)"><circle r="0.0" /></g><g id="node-53" transform="translate(448.203,30.517)"><circle r="0.0" /></g><g id="node-54" transform="translate(445.000,35.353)"><circle r="0.0" /></g></g></g></g></g></svg>