<svg class="toyplot-canvas-Canvas" xmlns:toyplot="http://www.sandia.gov/toyplot" xmlns:xlink="http://www.w3.org/1999/xlink" xmlns="http://www.w3.org/2000/svg" width="560.0px" height="100.0px" viewBox="0 0 560.0 100.0" preserveAspectRatio="xMidYMid meet" style="background-color:transparent;border-color:#292724;border-style:none;border-width:1.0;fill:rgb(16.1%,15.3%,14.1%);fill-opacity:1.0;font-family:Helvetica;font-size:12px;opacity:1.0;stroke:rgb(16.1%,15.3%,14.1%);stroke-opacity:1.0;stroke-width:1.0" id="t4db9c71c9f0d4f569cf0d0a3bb4c5463"><g class="toyplot-coordinates-Cartesian" id="t7e524e8b5d42416881e1dbe269ba43cf"><clipPath id="tb6e79accb27c4bb4b09f8b1fa081b0be"><rect x="15.0" y="15.0" width="110.0" height="70.0" /></clipPath><g clip-path="url(#tb6e79accb27c4bb4b09f8b1fa081b0be)"><g class="toytree-mark-Toytree" id="t60adab4256644ba8b874c559f29675aa"><g class="toytree-Edges" style="fill:none;stroke:rgb(14.9%,14.9%,14.9%);stroke-linecap:round;stroke-opacity:1;stroke-width:0.5"><path d="M 25.0 42.2 L 25.0 55.2 L 62.1 55.2" id="8,7" /><path d="M 62.1 55.2 L 62.1 44.8 L 92.2 44.8" id="7,6" /><path d="M 62.1 55.2 L 62.1 65.6 L 69.2 65.6" id="7,5" /><path d="M 25.0 42.2 L 25.0 29.2 L 104.2 29.2" id="8,4" /><path d="M 92.2 44.8 L 92.2 39.6 L 101.8 39.6" id="6,3" /><path d="M 92.2 44.8 L 92.2 50.0 L 102.2 50.0" id="6,2" /><path d="M 69.2 65.6 L 69.2 60.4 L 110.3 60.4" id="5,1" /><path d="M 69.2 65.6 L 69.2 70.8 L 102.9 70.8" id="5,0" /></g><g class="toytree-Nodes" style="fill:rgb(100%,0%,0%);fill-opacity:1.0;stroke:None;stroke-width:1"><g id="node-0" transform="translate(102.935,70.833)"><circle r="2.5" /></g><g id="node-1" transform="translate(110.263,60.417)"><circle r="2.5" /></g><g id="node-2" transform="translate(102.249,50.000)"><circle r="2.5" /></g><g id="node-3" transform="translate(101.820,39.583)"><circle r="2.5" /></g><g id="node-4" transform="translate(104.172,29.167)"><circle r="2.5" /></g><g id="node-5" transform="translate(69.225,65.625)"><circle r="0.0" /></g><g id="node-6" transform="translate(92.154,44.792)"><circle r="0.0" /></g><g id="node-7" transform="translate(62.124,55.208)"><circle r="0.0" /></g><g id="node-8" transform="translate(25.000,42.188)"><circle r="0.0" /></g></g></g></g></g><g class="toyplot-coordinates-Cartesian" id="t4e80b64fe2fe43478f2e1950ecf3f5ef"><clipPath id="t7f89f00ffccd4323be4fb1ca6f9aa2f0"><rect x="155.0" y="15.0" width="110.0" height="70.0" /></clipPath><g clip-path="url(#t7f89f00ffccd4323be4fb1ca6f9aa2f0)"><g class="toytree-mark-Toytree" id="t6b3dd6d0acac4506a65242085dad9d1d"><g class="toytree-Edges" style="fill:none;stroke:rgb(14.9%,14.9%,14.9%);stroke-linecap:round;stroke-opacity:1;stroke-width:0.5"><path d="M 165.0 46.1 L 165.0 34.4 L 166.8 34.4" id="8,7" /><path d="M 165.0 46.1 L 165.0 57.8 L 176.9 57.8" id="8,6" /><path d="M 176.9 57.8 L 176.9 65.6 L 186.9 65.6" id="6,5" /><path d="M 166.8 34.4 L 166.8 29.2 L 246.9 29.2" id="7,4" /><path d="M 166.8 34.4 L 166.8 39.6 L 250.3 39.6" id="7,3" /><path d="M 176.9 57.8 L 176.9 50.0 L 246.7 50.0" id="6,2" /><path d="M 186.9 65.6 L 186.9 60.4 L 248.8 60.4" id="5,1" /><path d="M 186.9 65.6 L 186.9 70.8 L 250.1 70.8" id="5,0" /></g><g class="toytree-Nodes" style="fill:rgb(100%,0%,0%);fill-opacity:1.0;stroke:None;stroke-width:1"><g id="node-0" transform="translate(250.107,70.833)"><circle r="2.5" /></g><g id="node-1" transform="translate(248.844,60.417)"><circle r="2.5" /></g><g id="node-2" transform="translate(246.696,50.000)"><circle r="2.5" /></g><g id="node-3" transform="translate(250.263,39.583)"><circle r="2.5" /></g><g id="node-4" transform="translate(246.856,29.167)"><circle r="2.5" /></g><g id="node-5" transform="translate(186.875,65.625)"><circle r="0.0" /></g><g id="node-6" transform="translate(176.879,57.812)"><circle r="0.0" /></g><g id="node-7" transform="translate(166.751,34.375)"><circle r="0.0" /></g><g id="node-8" transform="translate(165.000,46.094)"><circle r="0.0" /></g></g></g></g></g><g class="toyplot-coordinates-Cartesian" id="t28e38d4e7f9546bca9b00ba07beda06e"><clipPath id="td3f78ac8df47469388b5c428b3c19b2d"><rect x="295.0" y="15.0" width="110.0" height="70.0" /></clipPath><g clip-path="url(#td3f78ac8df47469388b5c428b3c19b2d)"><g class="toytree-mark-Toytree" id="te575f63a4f464e32ab543177c43cdeae"><g class="toytree-Edges" style="fill:none;stroke:rgb(14.9%,14.9%,14.9%);stroke-linecap:round;stroke-opacity:1;stroke-width:0.5"><path d="M 305.0 38.9 L 305.0 48.7 L 330.7 48.7" id="8,7" /><path d="M 330.7 48.7 L 330.7 57.8 L 339.2 57.8" id="7,6" /><path d="M 339.2 57.8 L 339.2 65.6 L 355.8 65.6" id="6,5" /><path d="M 305.0 38.9 L 305.0 29.2 L 383.6 29.2" id="8,4" /><path d="M 330.7 48.7 L 330.7 39.6 L 372.4 39.6" id="7,3" /><path d="M 339.2 57.8 L 339.2 50.0 L 384.8 50.0" id="6,2" /><path d="M 355.8 65.6 L 355.8 60.4 L 390.0 60.4" id="5,1" /><path d="M 355.8 65.6 L 355.8 70.8 L 390.3 70.8" id="5,0" /></g><g class="toytree-Nodes" style="fill:rgb(100%,0%,0%);fill-opacity:1.0;stroke:None;stroke-width:1"><g id="node-0" transform="translate(390.263,70.833)"><circle r="2.5" /></g><g id="node-1" transform="translate(389.996,60.417)"><circle r="2.5" /></g><g id="node-2" transform="translate(384.810,50.000)"><circle r="2.5" /></g><g id="node-3" transform="translate(372.361,39.583)"><circle r="2.5" /></g><g id="node-4" transform="translate(383.649,29.167)"><circle r="2.5" /></g><g id="node-5" transform="translate(355.759,65.625)"><circle r="0.0" /></g><g id="node-6" transform="translate(339.162,57.812)"><circle r="0.0" /></g><g id="node-7" transform="translate(330.745,48.698)"><circle r="0.0" /></g><g id="node-8" transform="translate(305.000,38.932)"><circle r="0.0" /></g></g></g></g></g><g class="toyplot-coordinates-Cartesian" id="td0b775d0c3094f9094596879cf11d6c9"><clipPath id="t3bf2dcedc21441bbb92ce8756ad43955"><rect x="435.0" y="15.0" width="110.0" height="70.0" /></clipPath><g clip-path="url(#t3bf2dcedc21441bbb92ce8756ad43955)"><g class="toytree-mark-Toytree" id="t0cf4a92e220545c4bd319c1d274146a7"><g class="toytree-Edges" style="fill:none;stroke:rgb(14.9%,14.9%,14.9%);stroke-linecap:round;stroke-opacity:1;stroke-width:0.5"><path d="M 445.0 42.2 L 445.0 55.2 L 497.8 55.2" id="8,7" /><path d="M 497.8 55.2 L 497.8 44.8 L 509.0 44.8" id="7,6" /><path d="M 497.8 55.2 L 497.8 65.6 L 508.0 65.6" id="7,5" /><path d="M 445.0 42.2 L 445.0 29.2 L 518.6 29.2" id="8,4" /><path d="M 509.0 44.8 L 509.0 39.6 L 512.5 39.6" id="6,3" /><path d="M 509.0 44.8 L 509.0 50.0 L 512.8 50.0" id="6,2" /><path d="M 508.0 65.6 L 508.0 60.4 L 521.6 60.4" id="5,1" /><path d="M 508.0 65.6 L 508.0 70.8 L 530.3 70.8" id="5,0" /></g><g class="toytree-Nodes" style="fill:rgb(100%,0%,0%);fill-opacity:1.0;stroke:None;stroke-width:1"><g id="node-0" transform="translate(530.263,70.833)"><circle r="2.5" /></g><g id="node-1" transform="translate(521.552,60.417)"><circle r="2.5" /></g><g id="node-2" transform="translate(512.781,50.000)"><circle r="2.5" /></g><g id="node-3" transform="translate(512.516,39.583)"><circle r="2.5" /></g><g id="node-4" transform="translate(518.580,29.167)"><circle r="2.5" /></g><g id="node-5" transform="translate(507.980,65.625)"><circle r="0.0" /></g><g id="node-6" transform="translate(509.017,44.792)"><circle r="0.0" /></g><g id="node-7" transform="translate(497.839,55.208)"><circle r="0.0" /></g><g id="node-8" transform="translate(445.000,42.188)"><circle r="0.0" /></g></g></g></g></g></svg>