<svg class="toyplot-canvas-Canvas" xmlns:toyplot="http://www.sandia.gov/toyplot" xmlns:xlink="http://www.w3.org/1999/xlink" xmlns="http://www.w3.org/2000/svg" width="560.0px" height="100.0px" viewBox="0 0 560.0 100.0" preserveAspectRatio="xMidYMid meet" style="background-color:transparent;border-color:#292724;border-style:none;border-width:1.0;fill:rgb(16.1%,15.3%,14.1%);fill-opacity:1.0;font-family:Helvetica;font-size:12px;opacity:1.0;stroke:rgb(16.1%,15.3%,14.1%);stroke-opacity:1.0;stroke-width:1.0" id="t56e324ea0318418ca6a7d19239054165"><g class="toyplot-coordinates-Cartesian" id="t8c2cbe17e309450084330f9fff74e758"><clipPath id="tf71cec156f2b422296be92824f119003"><rect x="15.0" y="15.0" width="110.0" height="70.0" /></clipPath><g clip-path="url(#tf71cec156f2b422296be92824f119003)"><g class="toytree-mark-Toytree" id="tff929a767674412983118b6d4d5475ba"><g class="toytree-Edges" style="fill:none;stroke:rgb(14.9%,14.9%,14.9%);stroke-linecap:round;stroke-opacity:1;stroke-width:0.5"><path d="M 25.0 42.6 L 25.0 31.5 L 27.5 31.5" id="36,35" /><path d="M 25.0 42.6 L 25.0 53.7 L 27.2 53.7" id="36,34" /><path d="M 27.5 31.5 L 27.5 33.8 L 40.2 33.8" id="35,33" /><path d="M 27.2 53.7 L 27.2 48.8 L 29.3 48.8" id="34,32" /><path d="M 27.2 53.7 L 27.2 58.6 L 29.5 58.6" id="34,31" /><path d="M 40.2 33.8 L 40.2 36.0 L 42.6 36.0" id="33,30" /><path d="M 29.5 58.6 L 29.5 54.1 L 32.1 54.1" id="31,29" /><path d="M 29.5 58.6 L 29.5 63.2 L 31.9 63.2" id="31,28" /><path d="M 42.6 36.0 L 42.6 38.3 L 43.7 38.3" id="30,27" /><path d="M 32.1 54.1 L 32.1 55.8 L 33.9 55.8" id="29,26" /><path d="M 31.9 63.2 L 31.9 60.4 L 33.9 60.4" id="28,25" /><path d="M 31.9 63.2 L 31.9 65.9 L 33.8 65.9" id="28,24" /><path d="M 43.7 38.3 L 43.7 40.5 L 47.3 40.5" id="27,23" /><path d="M 33.8 65.9 L 33.8 67.9 L 34.4 67.9" id="24,22" /><path d="M 47.3 40.5 L 47.3 42.5 L 50.0 42.5" id="23,21" /><path d="M 34.4 67.9 L 34.4 69.7 L 49.6 69.7" id="22,20" /><path d="M 50.0 42.5 L 50.0 44.2 L 51.0 44.2" id="21,19" /><path d="M 27.5 31.5 L 27.5 29.2 L 105.9 29.2" id="35,18" /><path d="M 40.2 33.8 L 40.2 31.5 L 99.1 31.5" id="33,17" /><path d="M 42.6 36.0 L 42.6 33.8 L 98.7 33.8" id="30,16" /><path d="M 43.7 38.3 L 43.7 36.1 L 102.2 36.1" id="27,15" /><path d="M 47.3 40.5 L 47.3 38.4 L 104.9 38.4" id="23,14" /><path d="M 50.0 42.5 L 50.0 40.7 L 97.8 40.7" id="21,13" /><path d="M 51.0 44.2 L 51.0 43.1 L 96.6 43.1" id="19,12" /><path d="M 51.0 44.2 L 51.0 45.4 L 101.1 45.4" id="19,11" /><path d="M 29.3 48.8 L 29.3 47.7 L 94.5 47.7" id="32,10" /><path d="M 29.3 48.8 L 29.3 50.0 L 98.6 50.0" id="32,9" /><path d="M 32.1 54.1 L 32.1 52.3 L 102.9 52.3" id="29,8" /><path d="M 33.9 55.8 L 33.9 54.6 L 100.0 54.6" id="26,7" /><path d="M 33.9 55.8 L 33.9 56.9 L 98.8 56.9" id="26,6" /><path d="M 33.9 60.4 L 33.9 59.3 L 96.7 59.3" id="25,5" /><path d="M 33.9 60.4 L 33.9 61.6 L 98.7 61.6" id="25,4" /><path d="M 33.8 65.9 L 33.8 63.9 L 101.6 63.9" id="24,3" /><path d="M 34.4 67.9 L 34.4 66.2 L 98.7 66.2" id="22,2" /><path d="M 49.6 69.7 L 49.6 68.5 L 110.3 68.5" id="20,1" /><path d="M 49.6 69.7 L 49.6 70.8 L 109.7 70.8" id="20,0" /></g><g class="toytree-Nodes" style="fill:rgb(100%,0%,0%);fill-opacity:1.0;stroke:None;stroke-width:1"><g id="node-0" transform="translate(109.678,70.833)"><circle r="2.5" /></g><g id="node-1" transform="translate(110.263,68.519)"><circle r="2.5" /></g><g id="node-2" transform="translate(98.660,66.204)"><circle r="2.5" /></g><g id="node-3" transform="translate(101.559,63.889)"><circle r="2.5" /></g><g id="node-4" transform="translate(98.654,61.574)"><circle r="2.5" /></g><g id="node-5" transform="translate(96.727,59.259)"><circle r="2.5" /></g><g id="node-6" transform="translate(98.778,56.944)"><circle r="2.5" /></g><g id="node-7" transform="translate(99.957,54.630)"><circle r="2.5" /></g><g id="node-8" transform="translate(102.897,52.315)"><circle r="2.5" /></g><g id="node-9" transform="translate(98.558,50.000)"><circle r="2.5" /></g><g id="node-10" transform="translate(94.481,47.685)"><circle r="2.5" /></g><g id="node-11" transform="translate(101.073,45.370)"><circle r="2.5" /></g><g id="node-12" transform="translate(96.629,43.056)"><circle r="2.5" /></g><g id="node-13" transform="translate(97.762,40.741)"><circle r="2.5" /></g><g id="node-14" transform="translate(104.910,38.426)"><circle r="2.5" /></g><g id="node-15" transform="translate(102.158,36.111)"><circle r="2.5" /></g><g id="node-16" transform="translate(98.674,33.796)"><circle r="2.5" /></g><g id="node-17" transform="translate(99.084,31.481)"><circle r="2.5" /></g><g id="node-18" transform="translate(105.874,29.167)"><circle r="2.5" /></g><g id="node-19" transform="translate(50.995,44.213)"><circle r="0.0" /></g><g id="node-20" transform="translate(49.616,69.676)"><circle r="0.0" /></g><g id="node-21" transform="translate(50.023,42.477)"><circle r="0.0" /></g><g id="node-22" transform="translate(34.400,67.940)"><circle r="0.0" /></g><g id="node-23" transform="translate(47.262,40.451)"><circle r="0.0" /></g><g id="node-24" transform="translate(33.757,65.914)"><circle r="0.0" /></g><g id="node-25" transform="translate(33.917,60.417)"><circle r="0.0" /></g><g id="node-26" transform="translate(33.885,55.787)"><circle r="0.0" /></g><g id="node-27" transform="translate(43.652,38.281)"><circle r="0.0" /></g><g id="node-28" transform="translate(31.887,63.166)"><circle r="0.0" /></g><g id="node-29" transform="translate(32.125,54.051)"><circle r="0.0" /></g><g id="node-30" transform="translate(42.641,36.039)"><circle r="0.0" /></g><g id="node-31" transform="translate(29.507,58.608)"><circle r="0.0" /></g><g id="node-32" transform="translate(29.328,48.843)"><circle r="0.0" /></g><g id="node-33" transform="translate(40.220,33.760)"><circle r="0.0" /></g><g id="node-34" transform="translate(27.153,53.725)"><circle r="0.0" /></g><g id="node-35" transform="translate(27.513,31.463)"><circle r="0.0" /></g><g id="node-36" transform="translate(25.000,42.594)"><circle r="0.0" /></g></g></g></g></g><g class="toyplot-coordinates-Cartesian" id="t7348858c74b44d62b3244baa49ffaec9"><clipPath id="tc324151a7d814fe4aabe8722a33397c5"><rect x="155.0" y="15.0" width="110.0" height="70.0" /></clipPath><g clip-path="url(#tc324151a7d814fe4aabe8722a33397c5)"><g class="toytree-mark-Toytree" id="t64019c08e5a6407a91b227c37d6c4c2f"><g class="toytree-Edges" style="fill:none;stroke:rgb(14.9%,14.9%,14.9%);stroke-linecap:round;stroke-opacity:1;stroke-width:0.5"><path d="M 165.0 42.0 L 165.0 32.9 L 192.8 32.9" id="36,35" /><path d="M 165.0 42.0 L 165.0 51.1 L 174.5 51.1" id="36,34" /><path d="M 192.8 32.9 L 192.8 36.7 L 194.8 36.7" id="35,33" /><path d="M 174.5 51.1 L 174.5 46.5 L 186.3 46.5" id="34,32" /><path d="M 174.5 51.1 L 174.5 55.6 L 179.4 55.6" id="34,31" /><path d="M 194.8 36.7 L 194.8 33.2 L 200.3 33.2" id="33,30" /><path d="M 194.8 36.7 L 194.8 40.2 L 196.9 40.2" id="33,29" /><path d="M 179.4 55.6 L 179.4 51.2 L 185.8 51.2" id="31,28" /><path d="M 179.4 55.6 L 179.4 60.1 L 183.8 60.1" id="31,27" /><path d="M 200.3 33.2 L 200.3 35.0 L 204.1 35.0" id="30,26" /><path d="M 196.9 40.2 L 196.9 41.9 L 199.8 41.9" id="29,25" /><path d="M 183.8 60.1 L 183.8 55.8 L 186.4 55.8" id="27,24" /><path d="M 183.8 60.1 L 183.8 64.5 L 187.8 64.5" id="27,23" /><path d="M 187.8 64.5 L 187.8 61.0 L 189.2 61.0" id="23,22" /><path d="M 187.8 64.5 L 187.8 67.9 L 195.7 67.9" id="23,21" /><path d="M 189.2 61.0 L 189.2 62.7 L 221.9 62.7" id="22,20" /><path d="M 195.7 67.9 L 195.7 69.7 L 203.2 69.7" id="21,19" /><path d="M 192.8 32.9 L 192.8 29.2 L 210.4 29.2" id="35,18" /><path d="M 200.3 33.2 L 200.3 31.5 L 203.3 31.5" id="30,17" /><path d="M 204.1 35.0 L 204.1 33.8 L 207.7 33.8" id="26,16" /><path d="M 204.1 35.0 L 204.1 36.1 L 211.9 36.1" id="26,15" /><path d="M 196.9 40.2 L 196.9 38.4 L 201.9 38.4" id="29,14" /><path d="M 199.8 41.9 L 199.8 40.7 L 210.3 40.7" id="25,13" /><path d="M 199.8 41.9 L 199.8 43.1 L 203.4 43.1" id="25,12" /><path d="M 186.3 46.5 L 186.3 45.4 L 188.4 45.4" id="32,11" /><path d="M 186.3 46.5 L 186.3 47.7 L 204.0 47.7" id="32,10" /><path d="M 185.8 51.2 L 185.8 50.0 L 189.6 50.0" id="28,9" /><path d="M 185.8 51.2 L 185.8 52.3 L 216.0 52.3" id="28,8" /><path d="M 186.4 55.8 L 186.4 54.6 L 203.9 54.6" id="24,7" /><path d="M 186.4 55.8 L 186.4 56.9 L 211.5 56.9" id="24,6" /><path d="M 189.2 61.0 L 189.2 59.3 L 199.7 59.3" id="22,5" /><path d="M 221.9 62.7 L 221.9 61.6 L 225.6 61.6" id="20,4" /><path d="M 221.9 62.7 L 221.9 63.9 L 234.9 63.9" id="20,3" /><path d="M 195.7 67.9 L 195.7 66.2 L 205.8 66.2" id="21,2" /><path d="M 203.2 69.7 L 203.2 68.5 L 225.9 68.5" id="19,1" /><path d="M 203.2 69.7 L 203.2 70.8 L 250.3 70.8" id="19,0" /></g><g class="toytree-Nodes" style="fill:rgb(100%,0%,0%);fill-opacity:1.0;stroke:None;stroke-width:1"><g id="node-0" transform="translate(250.263,70.833)"><circle r="2.5" /></g><g id="node-1" transform="translate(225.934,68.519)"><circle r="2.5" /></g><g id="node-2" transform="translate(205.838,66.204)"><circle r="2.5" /></g><g id="node-3" transform="translate(234.902,63.889)"><circle r="2.5" /></g><g id="node-4" transform="translate(225.616,61.574)"><circle r="2.5" /></g><g id="node-5" transform="translate(199.678,59.259)"><circle r="2.5" /></g><g id="node-6" transform="translate(211.468,56.944)"><circle r="2.5" /></g><g id="node-7" transform="translate(203.904,54.630)"><circle r="2.5" /></g><g id="node-8" transform="translate(215.963,52.315)"><circle r="2.5" /></g><g id="node-9" transform="translate(189.559,50.000)"><circle r="2.5" /></g><g id="node-10" transform="translate(204.045,47.685)"><circle r="2.5" /></g><g id="node-11" transform="translate(188.437,45.370)"><circle r="2.5" /></g><g id="node-12" transform="translate(203.403,43.056)"><circle r="2.5" /></g><g id="node-13" transform="translate(210.304,40.741)"><circle r="2.5" /></g><g id="node-14" transform="translate(201.935,38.426)"><circle r="2.5" /></g><g id="node-15" transform="translate(211.871,36.111)"><circle r="2.5" /></g><g id="node-16" transform="translate(207.707,33.796)"><circle r="2.5" /></g><g id="node-17" transform="translate(203.290,31.481)"><circle r="2.5" /></g><g id="node-18" transform="translate(210.382,29.167)"><circle r="2.5" /></g><g id="node-19" transform="translate(203.170,69.676)"><circle r="0.0" /></g><g id="node-20" transform="translate(221.897,62.731)"><circle r="0.0" /></g><g id="node-21" transform="translate(195.684,67.940)"><circle r="0.0" /></g><g id="node-22" transform="translate(189.213,60.995)"><circle r="0.0" /></g><g id="node-23" transform="translate(187.767,64.468)"><circle r="0.0" /></g><g id="node-24" transform="translate(186.447,55.787)"><circle r="0.0" /></g><g id="node-25" transform="translate(199.833,41.898)"><circle r="0.0" /></g><g id="node-26" transform="translate(204.109,34.954)"><circle r="0.0" /></g><g id="node-27" transform="translate(183.787,60.127)"><circle r="0.0" /></g><g id="node-28" transform="translate(185.791,51.157)"><circle r="0.0" /></g><g id="node-29" transform="translate(196.862,40.162)"><circle r="0.0" /></g><g id="node-30" transform="translate(200.313,33.218)"><circle r="0.0" /></g><g id="node-31" transform="translate(179.433,55.642)"><circle r="0.0" /></g><g id="node-32" transform="translate(186.327,46.528)"><circle r="0.0" /></g><g id="node-33" transform="translate(194.773,36.690)"><circle r="0.0" /></g><g id="node-34" transform="translate(174.487,51.085)"><circle r="0.0" /></g><g id="node-35" transform="translate(192.847,32.928)"><circle r="0.0" /></g><g id="node-36" transform="translate(165.000,42.007)"><circle r="0.0" /></g></g></g></g></g><g class="toyplot-coordinates-Cartesian" id="t1aeac788cc9d48e3a86c9b4dc99bb9f8"><clipPath id="t8f4917013eca4dccb25aff5c28bac773"><rect x="295.0" y="15.0" width="110.0" height="70.0" /></clipPath><g clip-path="url(#t8f4917013eca4dccb25aff5c28bac773)"><g class="toytree-mark-Toytree" id="t8638100916454f3baa702e35a282fb26"><g class="toytree-Edges" style="fill:none;stroke:rgb(14.9%,14.9%,14.9%);stroke-linecap:round;stroke-opacity:1;stroke-width:0.5"><path d="M 305.0 41.1 L 305.0 33.5 L 336.0 33.5" id="36,35" /><path d="M 305.0 41.1 L 305.0 48.6 L 310.2 48.6" id="36,34" /><path d="M 336.0 33.5 L 336.0 30.3 L 338.5 30.3" id="35,33" /><path d="M 336.0 33.5 L 336.0 36.7 L 340.4 36.7" id="35,32" /><path d="M 310.2 48.6 L 310.2 51.8 L 313.7 51.8" id="34,31" /><path d="M 340.4 36.7 L 340.4 39.6 L 345.9 39.6" id="32,30" /><path d="M 313.7 51.8 L 313.7 56.0 L 319.7 56.0" id="31,29" /><path d="M 345.9 39.6 L 345.9 37.3 L 350.4 37.3" id="30,28" /><path d="M 345.9 39.6 L 345.9 41.9 L 346.3 41.9" id="30,27" /><path d="M 319.7 56.0 L 319.7 51.2 L 330.0 51.2" id="29,26" /><path d="M 319.7 56.0 L 319.7 60.9 L 321.1 60.9" id="29,25" /><path d="M 321.1 60.9 L 321.1 56.4 L 325.1 56.4" id="25,24" /><path d="M 321.1 60.9 L 321.1 65.3 L 323.2 65.3" id="25,23" /><path d="M 325.1 56.4 L 325.1 58.1 L 330.2 58.1" id="24,22" /><path d="M 323.2 65.3 L 323.2 62.7 L 327.1 62.7" id="23,21" /><path d="M 323.2 65.3 L 323.2 67.9 L 326.6 67.9" id="23,20" /><path d="M 326.6 67.9 L 326.6 69.7 L 360.8 69.7" id="20,19" /><path d="M 338.5 30.3 L 338.5 29.2 L 368.9 29.2" id="33,18" /><path d="M 338.5 30.3 L 338.5 31.5 L 364.8 31.5" id="33,17" /><path d="M 340.4 36.7 L 340.4 33.8 L 369.2 33.8" id="32,16" /><path d="M 350.4 37.3 L 350.4 36.1 L 369.4 36.1" id="28,15" /><path d="M 350.4 37.3 L 350.4 38.4 L 372.7 38.4" id="28,14" /><path d="M 346.3 41.9 L 346.3 40.7 L 363.0 40.7" id="27,13" /><path d="M 346.3 41.9 L 346.3 43.1 L 366.2 43.1" id="27,12" /><path d="M 310.2 48.6 L 310.2 45.4 L 367.0 45.4" id="34,11" /><path d="M 313.7 51.8 L 313.7 47.7 L 349.6 47.7" id="31,10" /><path d="M 330.0 51.2 L 330.0 50.0 L 352.7 50.0" id="26,9" /><path d="M 330.0 51.2 L 330.0 52.3 L 377.0 52.3" id="26,8" /><path d="M 325.1 56.4 L 325.1 54.6 L 379.0 54.6" id="24,7" /><path d="M 330.2 58.1 L 330.2 56.9 L 358.5 56.9" id="22,6" /><path d="M 330.2 58.1 L 330.2 59.3 L 370.8 59.3" id="22,5" /><path d="M 327.1 62.7 L 327.1 61.6 L 365.0 61.6" id="21,4" /><path d="M 327.1 62.7 L 327.1 63.9 L 369.5 63.9" id="21,3" /><path d="M 326.6 67.9 L 326.6 66.2 L 373.3 66.2" id="20,2" /><path d="M 360.8 69.7 L 360.8 68.5 L 385.2 68.5" id="19,1" /><path d="M 360.8 69.7 L 360.8 70.8 L 390.3 70.8" id="19,0" /></g><g class="toytree-Nodes" style="fill:rgb(100%,0%,0%);fill-opacity:1.0;stroke:None;stroke-width:1"><g id="node-0" transform="translate(390.263,70.833)"><circle r="2.5" /></g><g id="node-1" transform="translate(385.198,68.519)"><circle r="2.5" /></g><g id="node-2" transform="translate(373.277,66.204)"><circle r="2.5" /></g><g id="node-3" transform="translate(369.509,63.889)"><circle r="2.5" /></g><g id="node-4" transform="translate(364.989,61.574)"><circle r="2.5" /></g><g id="node-5" transform="translate(370.841,59.259)"><circle r="2.5" /></g><g id="node-6" transform="translate(358.459,56.944)"><circle r="2.5" /></g><g id="node-7" transform="translate(378.976,54.630)"><circle r="2.5" /></g><g id="node-8" transform="translate(377.050,52.315)"><circle r="2.5" /></g><g id="node-9" transform="translate(352.673,50.000)"><circle r="2.5" /></g><g id="node-10" transform="translate(349.608,47.685)"><circle r="2.5" /></g><g id="node-11" transform="translate(367.047,45.370)"><circle r="2.5" /></g><g id="node-12" transform="translate(366.234,43.056)"><circle r="2.5" /></g><g id="node-13" transform="translate(363.024,40.741)"><circle r="2.5" /></g><g id="node-14" transform="translate(372.702,38.426)"><circle r="2.5" /></g><g id="node-15" transform="translate(369.360,36.111)"><circle r="2.5" /></g><g id="node-16" transform="translate(369.176,33.796)"><circle r="2.5" /></g><g id="node-17" transform="translate(364.801,31.481)"><circle r="2.5" /></g><g id="node-18" transform="translate(368.881,29.167)"><circle r="2.5" /></g><g id="node-19" transform="translate(360.842,69.676)"><circle r="0.0" /></g><g id="node-20" transform="translate(326.607,67.940)"><circle r="0.0" /></g><g id="node-21" transform="translate(327.104,62.731)"><circle r="0.0" /></g><g id="node-22" transform="translate(330.243,58.102)"><circle r="0.0" /></g><g id="node-23" transform="translate(323.151,65.336)"><circle r="0.0" /></g><g id="node-24" transform="translate(325.072,56.366)"><circle r="0.0" /></g><g id="node-25" transform="translate(321.084,60.851)"><circle r="0.0" /></g><g id="node-26" transform="translate(330.014,51.157)"><circle r="0.0" /></g><g id="node-27" transform="translate(346.337,41.898)"><circle r="0.0" /></g><g id="node-28" transform="translate(350.409,37.269)"><circle r="0.0" /></g><g id="node-29" transform="translate(319.673,56.004)"><circle r="0.0" /></g><g id="node-30" transform="translate(345.911,39.583)"><circle r="0.0" /></g><g id="node-31" transform="translate(313.701,51.845)"><circle r="0.0" /></g><g id="node-32" transform="translate(340.362,36.690)"><circle r="0.0" /></g><g id="node-33" transform="translate(338.458,30.324)"><circle r="0.0" /></g><g id="node-34" transform="translate(310.197,48.607)"><circle r="0.0" /></g><g id="node-35" transform="translate(335.969,33.507)"><circle r="0.0" /></g><g id="node-36" transform="translate(305.000,41.057)"><circle r="0.0" /></g></g></g></g></g><g class="toyplot-coordinates-Cartesian" id="t169dfe5b668a4b1a913381fc95f3e5ed"><clipPath id="t4386856e25484808bd724ac80c5a8a25"><rect x="435.0" y="15.0" width="110.0" height="70.0" /></clipPath><g clip-path="url(#t4386856e25484808bd724ac80c5a8a25)"><g class="toytree-mark-Toytree" id="t74d6bb0404454fa48a16943bbc36005e"><g class="toytree-Edges" style="fill:none;stroke:rgb(14.9%,14.9%,14.9%);stroke-linecap:round;stroke-opacity:1;stroke-width:0.5"><path d="M 445.0 41.4 L 445.0 31.6 L 468.1 31.6" id="36,35" /><path d="M 445.0 41.4 L 445.0 51.2 L 449.4 51.2" id="36,34" /><path d="M 468.1 31.6 L 468.1 34.1 L 473.4 34.1" id="35,33" /><path d="M 449.4 51.2 L 449.4 46.5 L 459.3 46.5" id="34,32" /><path d="M 449.4 51.2 L 449.4 55.9 L 455.4 55.9" id="34,31" /><path d="M 473.4 34.1 L 473.4 36.7 L 477.2 36.7" id="33,30" /><path d="M 455.4 55.9 L 455.4 51.7 L 466.0 51.7" id="31,29" /><path d="M 455.4 55.9 L 455.4 60.1 L 457.0 60.1" id="31,28" /><path d="M 477.2 36.7 L 477.2 39.6 L 480.7 39.6" id="30,27" /><path d="M 466.0 51.7 L 466.0 53.5 L 471.7 53.5" id="29,26" /><path d="M 457.0 60.1 L 457.0 63.2 L 462.1 63.2" id="28,25" /><path d="M 480.7 39.6 L 480.7 37.3 L 483.7 37.3" id="27,24" /><path d="M 480.7 39.6 L 480.7 41.9 L 485.2 41.9" id="27,23" /><path d="M 462.1 63.2 L 462.1 60.4 L 464.5 60.4" id="25,22" /><path d="M 462.1 63.2 L 462.1 65.9 L 467.2 65.9" id="25,21" /><path d="M 467.2 65.9 L 467.2 67.9 L 473.9 67.9" id="21,20" /><path d="M 473.9 67.9 L 473.9 69.7 L 495.7 69.7" id="20,19" /><path d="M 468.1 31.6 L 468.1 29.2 L 496.5 29.2" id="35,18" /><path d="M 473.4 34.1 L 473.4 31.5 L 495.8 31.5" id="33,17" /><path d="M 477.2 36.7 L 477.2 33.8 L 504.8 33.8" id="30,16" /><path d="M 483.7 37.3 L 483.7 36.1 L 500.7 36.1" id="24,15" /><path d="M 483.7 37.3 L 483.7 38.4 L 501.9 38.4" id="24,14" /><path d="M 485.2 41.9 L 485.2 40.7 L 498.4 40.7" id="23,13" /><path d="M 485.2 41.9 L 485.2 43.1 L 512.6 43.1" id="23,12" /><path d="M 459.3 46.5 L 459.3 45.4 L 496.0 45.4" id="32,11" /><path d="M 459.3 46.5 L 459.3 47.7 L 485.9 47.7" id="32,10" /><path d="M 466.0 51.7 L 466.0 50.0 L 498.8 50.0" id="29,9" /><path d="M 471.7 53.5 L 471.7 52.3 L 530.3 52.3" id="26,8" /><path d="M 471.7 53.5 L 471.7 54.6 L 494.1 54.6" id="26,7" /><path d="M 457.0 60.1 L 457.0 56.9 L 496.6 56.9" id="28,6" /><path d="M 464.5 60.4 L 464.5 59.3 L 498.4 59.3" id="22,5" /><path d="M 464.5 60.4 L 464.5 61.6 L 492.4 61.6" id="22,4" /><path d="M 467.2 65.9 L 467.2 63.9 L 511.5 63.9" id="21,3" /><path d="M 473.9 67.9 L 473.9 66.2 L 498.3 66.2" id="20,2" /><path d="M 495.7 69.7 L 495.7 68.5 L 520.0 68.5" id="19,1" /><path d="M 495.7 69.7 L 495.7 70.8 L 523.3 70.8" id="19,0" /></g><g class="toytree-Nodes" style="fill:rgb(100%,0%,0%);fill-opacity:1.0;stroke:None;stroke-width:1"><g id="node-0" transform="translate(523.317,70.833)"><circle r="2.5" /></g><g id="node-1" transform="translate(520.019,68.519)"><circle r="2.5" /></g><g id="node-2" transform="translate(498.285,66.204)"><circle r="2.5" /></g><g id="node-3" transform="translate(511.480,63.889)"><circle r="2.5" /></g><g id="node-4" transform="translate(492.392,61.574)"><circle r="2.5" /></g><g id="node-5" transform="translate(498.427,59.259)"><circle r="2.5" /></g><g id="node-6" transform="translate(496.641,56.944)"><circle r="2.5" /></g><g id="node-7" transform="translate(494.148,54.630)"><circle r="2.5" /></g><g id="node-8" transform="translate(530.263,52.315)"><circle r="2.5" /></g><g id="node-9" transform="translate(498.761,50.000)"><circle r="2.5" /></g><g id="node-10" transform="translate(485.948,47.685)"><circle r="2.5" /></g><g id="node-11" transform="translate(496.026,45.370)"><circle r="2.5" /></g><g id="node-12" transform="translate(512.633,43.056)"><circle r="2.5" /></g><g id="node-13" transform="translate(498.429,40.741)"><circle r="2.5" /></g><g id="node-14" transform="translate(501.941,38.426)"><circle r="2.5" /></g><g id="node-15" transform="translate(500.712,36.111)"><circle r="2.5" /></g><g id="node-16" transform="translate(504.775,33.796)"><circle r="2.5" /></g><g id="node-17" transform="translate(495.770,31.481)"><circle r="2.5" /></g><g id="node-18" transform="translate(496.464,29.167)"><circle r="2.5" /></g><g id="node-19" transform="translate(495.706,69.676)"><circle r="0.0" /></g><g id="node-20" transform="translate(473.948,67.940)"><circle r="0.0" /></g><g id="node-21" transform="translate(467.173,65.914)"><circle r="0.0" /></g><g id="node-22" transform="translate(464.500,60.417)"><circle r="0.0" /></g><g id="node-23" transform="translate(485.213,41.898)"><circle r="0.0" /></g><g id="node-24" transform="translate(483.697,37.269)"><circle r="0.0" /></g><g id="node-25" transform="translate(462.135,63.166)"><circle r="0.0" /></g><g id="node-26" transform="translate(471.716,53.472)"><circle r="0.0" /></g><g id="node-27" transform="translate(480.651,39.583)"><circle r="0.0" /></g><g id="node-28" transform="translate(456.968,60.055)"><circle r="0.0" /></g><g id="node-29" transform="translate(466.015,51.736)"><circle r="0.0" /></g><g id="node-30" transform="translate(477.156,36.690)"><circle r="0.0" /></g><g id="node-31" transform="translate(455.420,55.896)"><circle r="0.0" /></g><g id="node-32" transform="translate(459.333,46.528)"><circle r="0.0" /></g><g id="node-33" transform="translate(473.374,34.086)"><circle r="0.0" /></g><g id="node-34" transform="translate(449.391,51.212)"><circle r="0.0" /></g><g id="node-35" transform="translate(468.127,31.626)"><circle r="0.0" /></g><g id="node-36" transform="translate(445.000,41.419)"><circle r="0.0" /></g></g></g></g></g></svg>