<svg class="toyplot-canvas-Canvas" xmlns:toyplot="http://www.sandia.gov/toyplot" xmlns:xlink="http://www.w3.org/1999/xlink" xmlns="http://www.w3.org/2000/svg" width="560.0px" height="100.0px" viewBox="0 0 560.0 100.0" preserveAspectRatio="xMidYMid meet" style="background-color:transparent;border-color:#292724;border-style:none;border-width:1.0;fill:rgb(16.1%,15.3%,14.1%);fill-opacity:1.0;font-family:Helvetica;font-size:12px;opacity:1.0;stroke:rgb(16.1%,15.3%,14.1%);stroke-opacity:1.0;stroke-width:1.0" id="t58299800bbe5427e92c05f5486e736da"><g class="toyplot-coordinates-Cartesian" id="tc1a80fd4bc76458487d82a17a48667f7"><clipPath id="t693e6a25542a401ab2d4e83a522d597a"><rect x="15.0" y="15.0" width="110.0" height="70.0" /></clipPath><g clip-path="url(#t693e6a25542a401ab2d4e83a522d597a)"><g class="toytree-mark-Toytree" id="t43136bdee91e47babddb3994679c78b4"><g class="toytree-Edges" style="fill:none;stroke:rgb(14.9%,14.9%,14.9%);stroke-linecap:round;stroke-opacity:1;stroke-width:0.5"><path d="M 25.0 37.2 L 25.0 45.3 L 34.8 45.3" id="10,9" /><path d="M 34.8 45.3 L 34.8 53.1 L 39.3 53.1" id="9,8" /><path d="M 39.3 53.1 L 39.3 60.4 L 43.1 60.4" id="8,7" /><path d="M 43.1 60.4 L 43.1 66.7 L 55.7 66.7" id="7,6" /><path d="M 25.0 37.2 L 25.0 29.2 L 106.9 29.2" id="10,5" /><path d="M 34.8 45.3 L 34.8 37.5 L 110.3 37.5" id="9,4" /><path d="M 39.3 53.1 L 39.3 45.8 L 107.2 45.8" id="8,3" /><path d="M 43.1 60.4 L 43.1 54.2 L 107.4 54.2" id="7,2" /><path d="M 55.7 66.7 L 55.7 62.5 L 103.4 62.5" id="6,1" /><path d="M 55.7 66.7 L 55.7 70.8 L 106.7 70.8" id="6,0" /></g><g class="toytree-Nodes" style="fill:rgb(100%,0%,0%);fill-opacity:1.0;stroke:None;stroke-width:1"><g id="node-0" transform="translate(106.714,70.833)"><circle r="2.5" /></g><g id="node-1" transform="translate(103.421,62.500)"><circle r="2.5" /></g><g id="node-2" transform="translate(107.448,54.167)"><circle r="2.5" /></g><g id="node-3" transform="translate(107.173,45.833)"><circle r="2.5" /></g><g id="node-4" transform="translate(110.263,37.500)"><circle r="2.5" /></g><g id="node-5" transform="translate(106.946,29.167)"><circle r="2.5" /></g><g id="node-6" transform="translate(55.673,66.667)"><circle r="0.0" /></g><g id="node-7" transform="translate(43.143,60.417)"><circle r="0.0" /></g><g id="node-8" transform="translate(39.301,53.125)"><circle r="0.0" /></g><g id="node-9" transform="translate(34.850,45.312)"><circle r="0.0" /></g><g id="node-10" transform="translate(25.000,37.240)"><circle r="0.0" /></g></g></g></g></g><g class="toyplot-coordinates-Cartesian" id="te06b4cbd75d54e80a26f52604fe85b99"><clipPath id="tf11d1ed03d484b808d531b449d8c13e1"><rect x="155.0" y="15.0" width="110.0" height="70.0" /></clipPath><g clip-path="url(#tf11d1ed03d484b808d531b449d8c13e1)"><g class="toytree-mark-Toytree" id="t7de5d0db26f147808484e7e5b4a9c219"><g class="toytree-Edges" style="fill:none;stroke:rgb(14.9%,14.9%,14.9%);stroke-linecap:round;stroke-opacity:1;stroke-width:0.5"><path d="M 165.0 37.2 L 165.0 45.3 L 239.4 45.3" id="10,9" /><path d="M 239.4 45.3 L 239.4 53.1 L 241.1 53.1" id="9,8" /><path d="M 241.1 53.1 L 241.1 60.4 L 243.9 60.4" id="8,7" /><path d="M 243.9 60.4 L 243.9 66.7 L 245.6 66.7" id="7,6" /><path d="M 165.0 37.2 L 165.0 29.2 L 247.4 29.2" id="10,5" /><path d="M 239.4 45.3 L 239.4 37.5 L 242.4 37.5" id="9,4" /><path d="M 241.1 53.1 L 241.1 45.8 L 247.7 45.8" id="8,3" /><path d="M 243.9 60.4 L 243.9 54.2 L 247.2 54.2" id="7,2" /><path d="M 245.6 66.7 L 245.6 62.5 L 249.8 62.5" id="6,1" /><path d="M 245.6 66.7 L 245.6 70.8 L 250.3 70.8" id="6,0" /></g><g class="toytree-Nodes" style="fill:rgb(100%,0%,0%);fill-opacity:1.0;stroke:None;stroke-width:1"><g id="node-0" transform="translate(250.263,70.833)"><circle r="2.5" /></g><g id="node-1" transform="translate(249.797,62.500)"><circle r="2.5" /></g><g id="node-2" transform="translate(247.177,54.167)"><circle r="2.5" /></g><g id="node-3" transform="translate(247.683,45.833)"><circle r="2.5" /></g><g id="node-4" transform="translate(242.440,37.500)"><circle r="2.5" /></g><g id="node-5" transform="translate(247.378,29.167)"><circle r="2.5" /></g><g id="node-6" transform="translate(245.634,66.667)"><circle r="0.0" /></g><g id="node-7" transform="translate(243.930,60.417)"><circle r="0.0" /></g><g id="node-8" transform="translate(241.112,53.125)"><circle r="0.0" /></g><g id="node-9" transform="translate(239.444,45.312)"><circle r="0.0" /></g><g id="node-10" transform="translate(165.000,37.240)"><circle r="0.0" /></g></g></g></g></g><g class="toyplot-coordinates-Cartesian" id="t9b302af52fa646c984e06d95f46c9c1a"><clipPath id="tf2b5a3c0764c426e8288ae011e2d1b61"><rect x="295.0" y="15.0" width="110.0" height="70.0" /></clipPath><g clip-path="url(#tf2b5a3c0764c426e8288ae011e2d1b61)"><g class="toytree-mark-Toytree" id="t62e2ba1e25e04bd1860c880d43f1e335"><g class="toytree-Edges" style="fill:none;stroke:rgb(14.9%,14.9%,14.9%);stroke-linecap:round;stroke-opacity:1;stroke-width:0.5"><path d="M 305.0 37.2 L 305.0 45.3 L 355.4 45.3" id="10,9" /><path d="M 355.4 45.3 L 355.4 53.1 L 359.6 53.1" id="9,8" /><path d="M 359.6 53.1 L 359.6 60.4 L 364.5 60.4" id="8,7" /><path d="M 364.5 60.4 L 364.5 66.7 L 368.0 66.7" id="7,6" /><path d="M 305.0 37.2 L 305.0 29.2 L 386.7 29.2" id="10,5" /><path d="M 355.4 45.3 L 355.4 37.5 L 387.5 37.5" id="9,4" /><path d="M 359.6 53.1 L 359.6 45.8 L 387.6 45.8" id="8,3" /><path d="M 364.5 60.4 L 364.5 54.2 L 386.9 54.2" id="7,2" /><path d="M 368.0 66.7 L 368.0 62.5 L 381.8 62.5" id="6,1" /><path d="M 368.0 66.7 L 368.0 70.8 L 390.3 70.8" id="6,0" /></g><g class="toytree-Nodes" style="fill:rgb(100%,0%,0%);fill-opacity:1.0;stroke:None;stroke-width:1"><g id="node-0" transform="translate(390.263,70.833)"><circle r="2.5" /></g><g id="node-1" transform="translate(381.811,62.500)"><circle r="2.5" /></g><g id="node-2" transform="translate(386.930,54.167)"><circle r="2.5" /></g><g id="node-3" transform="translate(387.647,45.833)"><circle r="2.5" /></g><g id="node-4" transform="translate(387.469,37.500)"><circle r="2.5" /></g><g id="node-5" transform="translate(386.730,29.167)"><circle r="2.5" /></g><g id="node-6" transform="translate(367.957,66.667)"><circle r="0.0" /></g><g id="node-7" transform="translate(364.478,60.417)"><circle r="0.0" /></g><g id="node-8" transform="translate(359.631,53.125)"><circle r="0.0" /></g><g id="node-9" transform="translate(355.361,45.312)"><circle r="0.0" /></g><g id="node-10" transform="translate(305.000,37.240)"><circle r="0.0" /></g></g></g></g></g><g class="toyplot-coordinates-Cartesian" id="t371ce545146e4673986dd8ab2e368727"><clipPath id="t34cbfe1418bf4691ba17a537c24851e5"><rect x="435.0" y="15.0" width="110.0" height="70.0" /></clipPath><g clip-path="url(#t34cbfe1418bf4691ba17a537c24851e5)"><g class="toytree-mark-Toytree" id="t08e7d5b308ba4a2eab5ee0fa7ab775e2"><g class="toytree-Edges" style="fill:none;stroke:rgb(14.9%,14.9%,14.9%);stroke-linecap:round;stroke-opacity:1;stroke-width:0.5"><path d="M 445.0 47.9 L 445.0 35.4 L 458.1 35.4" id="10,9" /><path d="M 445.0 47.9 L 445.0 60.4 L 451.7 60.4" id="10,8" /><path d="M 458.1 35.4 L 458.1 41.7 L 477.2 41.7" id="9,7" /><path d="M 451.7 60.4 L 451.7 66.7 L 459.6 66.7" id="8,6" /><path d="M 458.1 35.4 L 458.1 29.2 L 501.6 29.2" id="9,5" /><path d="M 477.2 41.7 L 477.2 37.5 L 507.6 37.5" id="7,4" /><path d="M 477.2 41.7 L 477.2 45.8 L 502.7 45.8" id="7,3" /><path d="M 451.7 60.4 L 451.7 54.2 L 486.6 54.2" id="8,2" /><path d="M 459.6 66.7 L 459.6 62.5 L 510.5 62.5" id="6,1" /><path d="M 459.6 66.7 L 459.6 70.8 L 530.3 70.8" id="6,0" /></g><g class="toytree-Nodes" style="fill:rgb(100%,0%,0%);fill-opacity:1.0;stroke:None;stroke-width:1"><g id="node-0" transform="translate(530.263,70.833)"><circle r="2.5" /></g><g id="node-1" transform="translate(510.539,62.500)"><circle r="2.5" /></g><g id="node-2" transform="translate(486.646,54.167)"><circle r="2.5" /></g><g id="node-3" transform="translate(502.709,45.833)"><circle r="2.5" /></g><g id="node-4" transform="translate(507.571,37.500)"><circle r="2.5" /></g><g id="node-5" transform="translate(501.614,29.167)"><circle r="2.5" /></g><g id="node-6" transform="translate(459.631,66.667)"><circle r="0.0" /></g><g id="node-7" transform="translate(477.190,41.667)"><circle r="0.0" /></g><g id="node-8" transform="translate(451.687,60.417)"><circle r="0.0" /></g><g id="node-9" transform="translate(458.070,35.417)"><circle r="0.0" /></g><g id="node-10" transform="translate(445.000,47.917)"><circle r="0.0" /></g></g></g></g></g></svg>