<svg class="toyplot-canvas-Canvas" xmlns:toyplot="http://www.sandia.gov/toyplot" xmlns:xlink="http://www.w3.org/1999/xlink" xmlns="http://www.w3.org/2000/svg" width="560.0px" height="100.0px" viewBox="0 0 560.0 100.0" preserveAspectRatio="xMidYMid meet" style="background-color:transparent;border-color:#292724;border-style:none;border-width:1.0;fill:rgb(16.1%,15.3%,14.1%);fill-opacity:1.0;font-family:Helvetica;font-size:12px;opacity:1.0;stroke:rgb(16.1%,15.3%,14.1%);stroke-opacity:1.0;stroke-width:1.0" id="t565d42a616224090984e69e71c4e7893"><g class="toyplot-coordinates-Cartesian" id="ta1bee68615e14930b3c1400ab0aebc9c"><clipPath id="t1060dd6e855c4f8fbba6462972f1f1e0"><rect x="15.0" y="15.0" width="110.0" height="70.0" /></clipPath><g clip-path="url(#t1060dd6e855c4f8fbba6462972f1f1e0)"><g class="toytree-mark-Toytree" id="tdc38ce8a15c84cba8aa03d124597a85c"><g class="toytree-Edges" style="fill:none;stroke:rgb(14.9%,14.9%,14.9%);stroke-linecap:round;stroke-opacity:1;stroke-width:0.5"><path d="M 25.0 33.2 L 25.0 30.3 L 31.1 30.3" id="38,37" /><path d="M 25.0 33.2 L 25.0 36.2 L 28.6 36.2" id="38,36" /><path d="M 28.6 36.2 L 28.6 38.9 L 34.1 38.9" id="36,35" /><path d="M 34.1 38.9 L 34.1 42.0 L 38.5 42.0" id="35,34" /><path d="M 38.5 42.0 L 38.5 39.0 L 40.7 39.0" id="34,33" /><path d="M 38.5 42.0 L 38.5 45.0 L 46.1 45.0" id="34,32" /><path d="M 46.1 45.0 L 46.1 47.6 L 50.2 47.6" id="32,31" /><path d="M 50.2 47.6 L 50.2 50.7 L 55.0 50.7" id="31,30" /><path d="M 55.0 50.7 L 55.0 54.6 L 60.8 54.6" id="30,29" /><path d="M 60.8 54.6 L 60.8 50.5 L 65.3 50.5" id="29,28" /><path d="M 60.8 54.6 L 60.8 58.6 L 77.7 58.6" id="29,27" /><path d="M 65.3 50.5 L 65.3 52.2 L 72.7 52.2" id="28,26" /><path d="M 77.7 58.6 L 77.7 61.8 L 89.0 61.8" id="27,25" /><path d="M 89.0 61.8 L 89.0 58.8 L 100.6 58.8" id="25,24" /><path d="M 89.0 61.8 L 89.0 64.8 L 90.1 64.8" id="25,23" /><path d="M 90.1 64.8 L 90.1 67.5 L 96.5 67.5" id="23,22" /><path d="M 96.5 67.5 L 96.5 65.4 L 97.5 65.4" id="22,21" /><path d="M 96.5 67.5 L 96.5 69.7 L 97.8 69.7" id="22,20" /><path d="M 31.1 30.3 L 31.1 29.2 L 95.3 29.2" id="37,19" /><path d="M 31.1 30.3 L 31.1 31.4 L 108.4 31.4" id="37,18" /><path d="M 28.6 36.2 L 28.6 33.6 L 102.5 33.6" id="36,17" /><path d="M 34.1 38.9 L 34.1 35.7 L 104.6 35.7" id="35,16" /><path d="M 40.7 39.0 L 40.7 37.9 L 96.7 37.9" id="33,15" /><path d="M 40.7 39.0 L 40.7 40.1 L 110.3 40.1" id="33,14" /><path d="M 46.1 45.0 L 46.1 42.3 L 102.9 42.3" id="32,13" /><path d="M 50.2 47.6 L 50.2 44.5 L 105.2 44.5" id="31,12" /><path d="M 55.0 50.7 L 55.0 46.7 L 107.0 46.7" id="30,11" /><path d="M 65.3 50.5 L 65.3 48.9 L 96.2 48.9" id="28,10" /><path d="M 72.7 52.2 L 72.7 51.1 L 103.4 51.1" id="26,9" /><path d="M 72.7 52.2 L 72.7 53.3 L 95.3 53.3" id="26,8" /><path d="M 77.7 58.6 L 77.7 55.5 L 101.6 55.5" id="27,7" /><path d="M 100.6 58.8 L 100.6 57.7 L 104.7 57.7" id="24,6" /><path d="M 100.6 58.8 L 100.6 59.9 L 103.5 59.9" id="24,5" /><path d="M 90.1 64.8 L 90.1 62.1 L 97.4 62.1" id="23,4" /><path d="M 97.5 65.4 L 97.5 64.3 L 99.8 64.3" id="21,3" /><path d="M 97.5 65.4 L 97.5 66.4 L 97.8 66.4" id="21,2" /><path d="M 97.8 69.7 L 97.8 68.6 L 98.0 68.6" id="20,1" /><path d="M 97.8 69.7 L 97.8 70.8 L 100.2 70.8" id="20,0" /></g><g class="toytree-Nodes" style="fill:rgb(100%,0%,0%);fill-opacity:1.0;stroke:None;stroke-width:1"><g id="node-0" transform="translate(100.181,70.833)"><circle r="2.5" /></g><g id="node-1" transform="translate(97.981,68.640)"><circle r="2.5" /></g><g id="node-2" transform="translate(97.785,66.447)"><circle r="2.5" /></g><g id="node-3" transform="translate(99.785,64.254)"><circle r="2.5" /></g><g id="node-4" transform="translate(97.366,62.061)"><circle r="2.5" /></g><g id="node-5" transform="translate(103.517,59.868)"><circle r="2.5" /></g><g id="node-6" transform="translate(104.737,57.675)"><circle r="2.5" /></g><g id="node-7" transform="translate(101.615,55.482)"><circle r="2.5" /></g><g id="node-8" transform="translate(95.335,53.289)"><circle r="2.5" /></g><g id="node-9" transform="translate(103.432,51.096)"><circle r="2.5" /></g><g id="node-10" transform="translate(96.201,48.904)"><circle r="2.5" /></g><g id="node-11" transform="translate(107.039,46.711)"><circle r="2.5" /></g><g id="node-12" transform="translate(105.158,44.518)"><circle r="2.5" /></g><g id="node-13" transform="translate(102.886,42.325)"><circle r="2.5" /></g><g id="node-14" transform="translate(110.263,40.132)"><circle r="2.5" /></g><g id="node-15" transform="translate(96.688,37.939)"><circle r="2.5" /></g><g id="node-16" transform="translate(104.596,35.746)"><circle r="2.5" /></g><g id="node-17" transform="translate(102.462,33.553)"><circle r="2.5" /></g><g id="node-18" transform="translate(108.444,31.360)"><circle r="2.5" /></g><g id="node-19" transform="translate(95.274,29.167)"><circle r="2.5" /></g><g id="node-20" transform="translate(97.829,69.737)"><circle r="0.0" /></g><g id="node-21" transform="translate(97.533,65.351)"><circle r="0.0" /></g><g id="node-22" transform="translate(96.542,67.544)"><circle r="0.0" /></g><g id="node-23" transform="translate(90.066,64.803)"><circle r="0.0" /></g><g id="node-24" transform="translate(100.597,58.772)"><circle r="0.0" /></g><g id="node-25" transform="translate(88.976,61.787)"><circle r="0.0" /></g><g id="node-26" transform="translate(72.743,52.193)"><circle r="0.0" /></g><g id="node-27" transform="translate(77.655,58.635)"><circle r="0.0" /></g><g id="node-28" transform="translate(65.289,50.548)"><circle r="0.0" /></g><g id="node-29" transform="translate(60.757,54.592)"><circle r="0.0" /></g><g id="node-30" transform="translate(54.956,50.651)"><circle r="0.0" /></g><g id="node-31" transform="translate(50.217,47.584)"><circle r="0.0" /></g><g id="node-32" transform="translate(46.053,44.954)"><circle r="0.0" /></g><g id="node-33" transform="translate(40.688,39.035)"><circle r="0.0" /></g><g id="node-34" transform="translate(38.518,41.995)"><circle r="0.0" /></g><g id="node-35" transform="translate(34.071,38.870)"><circle r="0.0" /></g><g id="node-36" transform="translate(28.575,36.211)"><circle r="0.0" /></g><g id="node-37" transform="translate(31.102,30.263)"><circle r="0.0" /></g><g id="node-38" transform="translate(25.000,33.237)"><circle r="0.0" /></g></g></g></g></g><g class="toyplot-coordinates-Cartesian" id="t2ea310a1b28b4b7a966c8298087ea58b"><clipPath id="tc1abebfc48f14decacf34d6fd20c7d69"><rect x="155.0" y="15.0" width="110.0" height="70.0" /></clipPath><g clip-path="url(#tc1abebfc48f14decacf34d6fd20c7d69)"><g class="toytree-mark-Toytree" id="t08989df9bee74d7bacbf148f60f615fa"><g class="toytree-Edges" style="fill:none;stroke:rgb(14.9%,14.9%,14.9%);stroke-linecap:round;stroke-opacity:1;stroke-width:0.5"><path d="M 165.0 35.8 L 165.0 30.8 L 166.0 30.8" id="38,37" /><path d="M 165.0 35.8 L 165.0 40.7 L 167.8 40.7" id="38,36" /><path d="M 166.0 30.8 L 166.0 32.5 L 174.4 32.5" id="37,35" /><path d="M 167.8 40.7 L 167.8 45.7 L 170.3 45.7" id="36,34" /><path d="M 170.3 45.7 L 170.3 40.0 L 178.1 40.0" id="34,33" /><path d="M 170.3 45.7 L 170.3 51.5 L 172.9 51.5" id="34,32" /><path d="M 178.1 40.0 L 178.1 42.1 L 188.1 42.1" id="33,31" /><path d="M 172.9 51.5 L 172.9 54.0 L 180.1 54.0" id="32,30" /><path d="M 188.1 42.1 L 188.1 44.0 L 191.9 44.0" id="31,29" /><path d="M 180.1 54.0 L 180.1 57.0 L 182.3 57.0" id="30,28" /><path d="M 191.9 44.0 L 191.9 45.6 L 205.0 45.6" id="29,27" /><path d="M 182.3 57.0 L 182.3 60.6 L 187.3 60.6" id="28,26" /><path d="M 187.3 60.6 L 187.3 57.1 L 192.0 57.1" id="26,25" /><path d="M 187.3 60.6 L 187.3 64.1 L 190.7 64.1" id="26,24" /><path d="M 192.0 57.1 L 192.0 58.8 L 196.6 58.8" id="25,23" /><path d="M 190.7 64.1 L 190.7 66.2 L 194.7 66.2" id="24,22" /><path d="M 194.7 66.2 L 194.7 68.1 L 217.5 68.1" id="22,21" /><path d="M 217.5 68.1 L 217.5 69.7 L 219.9 69.7" id="21,20" /><path d="M 166.0 30.8 L 166.0 29.2 L 238.8 29.2" id="37,19" /><path d="M 174.4 32.5 L 174.4 31.4 L 229.7 31.4" id="35,18" /><path d="M 174.4 32.5 L 174.4 33.6 L 247.2 33.6" id="35,17" /><path d="M 167.8 40.7 L 167.8 35.7 L 238.6 35.7" id="36,16" /><path d="M 178.1 40.0 L 178.1 37.9 L 248.2 37.9" id="33,15" /><path d="M 188.1 42.1 L 188.1 40.1 L 230.7 40.1" id="31,14" /><path d="M 191.9 44.0 L 191.9 42.3 L 233.7 42.3" id="29,13" /><path d="M 205.0 45.6 L 205.0 44.5 L 250.3 44.5" id="27,12" /><path d="M 205.0 45.6 L 205.0 46.7 L 244.7 46.7" id="27,11" /><path d="M 172.9 51.5 L 172.9 48.9 L 241.0 48.9" id="32,10" /><path d="M 180.1 54.0 L 180.1 51.1 L 240.0 51.1" id="30,9" /><path d="M 182.3 57.0 L 182.3 53.3 L 231.2 53.3" id="28,8" /><path d="M 192.0 57.1 L 192.0 55.5 L 236.0 55.5" id="25,7" /><path d="M 196.6 58.8 L 196.6 57.7 L 234.6 57.7" id="23,6" /><path d="M 196.6 58.8 L 196.6 59.9 L 238.6 59.9" id="23,5" /><path d="M 190.7 64.1 L 190.7 62.1 L 235.8 62.1" id="24,4" /><path d="M 194.7 66.2 L 194.7 64.3 L 245.5 64.3" id="22,3" /><path d="M 217.5 68.1 L 217.5 66.4 L 231.9 66.4" id="21,2" /><path d="M 219.9 69.7 L 219.9 68.6 L 234.3 68.6" id="20,1" /><path d="M 219.9 69.7 L 219.9 70.8 L 236.3 70.8" id="20,0" /></g><g class="toytree-Nodes" style="fill:rgb(100%,0%,0%);fill-opacity:1.0;stroke:None;stroke-width:1"><g id="node-0" transform="translate(236.325,70.833)"><circle r="2.5" /></g><g id="node-1" transform="translate(234.284,68.640)"><circle r="2.5" /></g><g id="node-2" transform="translate(231.921,66.447)"><circle r="2.5" /></g><g id="node-3" transform="translate(245.455,64.254)"><circle r="2.5" /></g><g id="node-4" transform="translate(235.775,62.061)"><circle r="2.5" /></g><g id="node-5" transform="translate(238.597,59.868)"><circle r="2.5" /></g><g id="node-6" transform="translate(234.649,57.675)"><circle r="2.5" /></g><g id="node-7" transform="translate(236.007,55.482)"><circle r="2.5" /></g><g id="node-8" transform="translate(231.157,53.289)"><circle r="2.5" /></g><g id="node-9" transform="translate(240.037,51.096)"><circle r="2.5" /></g><g id="node-10" transform="translate(241.012,48.904)"><circle r="2.5" /></g><g id="node-11" transform="translate(244.677,46.711)"><circle r="2.5" /></g><g id="node-12" transform="translate(250.263,44.518)"><circle r="2.5" /></g><g id="node-13" transform="translate(233.689,42.325)"><circle r="2.5" /></g><g id="node-14" transform="translate(230.682,40.132)"><circle r="2.5" /></g><g id="node-15" transform="translate(248.211,37.939)"><circle r="2.5" /></g><g id="node-16" transform="translate(238.582,35.746)"><circle r="2.5" /></g><g id="node-17" transform="translate(247.211,33.553)"><circle r="2.5" /></g><g id="node-18" transform="translate(229.690,31.360)"><circle r="2.5" /></g><g id="node-19" transform="translate(238.839,29.167)"><circle r="2.5" /></g><g id="node-20" transform="translate(219.921,69.737)"><circle r="0.0" /></g><g id="node-21" transform="translate(217.543,68.092)"><circle r="0.0" /></g><g id="node-22" transform="translate(194.710,66.173)"><circle r="0.0" /></g><g id="node-23" transform="translate(196.626,58.772)"><circle r="0.0" /></g><g id="node-24" transform="translate(190.747,64.117)"><circle r="0.0" /></g><g id="node-25" transform="translate(191.967,57.127)"><circle r="0.0" /></g><g id="node-26" transform="translate(187.314,60.622)"><circle r="0.0" /></g><g id="node-27" transform="translate(205.019,45.614)"><circle r="0.0" /></g><g id="node-28" transform="translate(182.283,56.956)"><circle r="0.0" /></g><g id="node-29" transform="translate(191.880,43.969)"><circle r="0.0" /></g><g id="node-30" transform="translate(180.112,54.026)"><circle r="0.0" /></g><g id="node-31" transform="translate(188.142,42.050)"><circle r="0.0" /></g><g id="node-32" transform="translate(172.870,51.465)"><circle r="0.0" /></g><g id="node-33" transform="translate(178.058,39.995)"><circle r="0.0" /></g><g id="node-34" transform="translate(170.279,45.730)"><circle r="0.0" /></g><g id="node-35" transform="translate(174.357,32.456)"><circle r="0.0" /></g><g id="node-36" transform="translate(167.828,40.738)"><circle r="0.0" /></g><g id="node-37" transform="translate(166.023,30.811)"><circle r="0.0" /></g><g id="node-38" transform="translate(165.000,35.775)"><circle r="0.0" /></g></g></g></g></g><g class="toyplot-coordinates-Cartesian" id="t9273e72502564391a7a612fe435df3d0"><clipPath id="t5a2479e8c053468ba117288a4157d5ca"><rect x="295.0" y="15.0" width="110.0" height="70.0" /></clipPath><g clip-path="url(#t5a2479e8c053468ba117288a4157d5ca)"><g class="toytree-mark-Toytree" id="t6aca029e0dea4e58ae33db63fd05d272"><g class="toytree-Edges" style="fill:none;stroke:rgb(14.9%,14.9%,14.9%);stroke-linecap:round;stroke-opacity:1;stroke-width:0.5"><path d="M 305.0 33.5 L 305.0 37.9 L 314.4 37.9" id="38,37" /><path d="M 314.4 37.9 L 314.4 32.5 L 319.6 32.5" id="37,36" /><path d="M 314.4 37.9 L 314.4 43.4 L 320.1 43.4" id="37,35" /><path d="M 320.1 43.4 L 320.1 51.1 L 326.9 51.1" id="35,34" /><path d="M 326.9 51.1 L 326.9 42.5 L 332.2 42.5" id="34,33" /><path d="M 326.9 51.1 L 326.9 59.7 L 332.7 59.7" id="34,32" /><path d="M 332.2 42.5 L 332.2 39.0 L 341.3 39.0" id="33,31" /><path d="M 332.2 42.5 L 332.2 45.9 L 333.1 45.9" id="33,30" /><path d="M 332.7 59.7 L 332.7 55.2 L 337.8 55.2" id="32,29" /><path d="M 332.7 59.7 L 332.7 64.1 L 337.3 64.1" id="32,28" /><path d="M 333.1 45.9 L 333.1 43.4 L 335.0 43.4" id="30,27" /><path d="M 333.1 45.9 L 333.1 48.4 L 337.2 48.4" id="30,26" /><path d="M 337.8 55.2 L 337.8 57.1 L 346.9 57.1" id="29,25" /><path d="M 337.3 64.1 L 337.3 66.2 L 357.7 66.2" id="28,24" /><path d="M 337.2 48.4 L 337.2 50.0 L 339.5 50.0" id="26,23" /><path d="M 346.9 57.1 L 346.9 58.8 L 350.6 58.8" id="25,22" /><path d="M 357.7 66.2 L 357.7 68.1 L 363.3 68.1" id="24,21" /><path d="M 363.3 68.1 L 363.3 69.7 L 367.9 69.7" id="21,20" /><path d="M 305.0 33.5 L 305.0 29.2 L 368.8 29.2" id="38,19" /><path d="M 319.6 32.5 L 319.6 31.4 L 363.8 31.4" id="36,18" /><path d="M 319.6 32.5 L 319.6 33.6 L 361.2 33.6" id="36,17" /><path d="M 320.1 43.4 L 320.1 35.7 L 345.9 35.7" id="35,16" /><path d="M 341.3 39.0 L 341.3 37.9 L 390.0 37.9" id="31,15" /><path d="M 341.3 39.0 L 341.3 40.1 L 387.0 40.1" id="31,14" /><path d="M 335.0 43.4 L 335.0 42.3 L 366.8 42.3" id="27,13" /><path d="M 335.0 43.4 L 335.0 44.5 L 368.4 44.5" id="27,12" /><path d="M 337.2 48.4 L 337.2 46.7 L 363.9 46.7" id="26,11" /><path d="M 339.5 50.0 L 339.5 48.9 L 376.9 48.9" id="23,10" /><path d="M 339.5 50.0 L 339.5 51.1 L 390.3 51.1" id="23,9" /><path d="M 337.8 55.2 L 337.8 53.3 L 369.0 53.3" id="29,8" /><path d="M 346.9 57.1 L 346.9 55.5 L 360.0 55.5" id="25,7" /><path d="M 350.6 58.8 L 350.6 57.7 L 359.7 57.7" id="22,6" /><path d="M 350.6 58.8 L 350.6 59.9 L 364.3 59.9" id="22,5" /><path d="M 337.3 64.1 L 337.3 62.1 L 372.9 62.1" id="28,4" /><path d="M 357.7 66.2 L 357.7 64.3 L 375.9 64.3" id="24,3" /><path d="M 363.3 68.1 L 363.3 66.4 L 373.9 66.4" id="21,2" /><path d="M 367.9 69.7 L 367.9 68.6 L 376.3 68.6" id="20,1" /><path d="M 367.9 69.7 L 367.9 70.8 L 376.1 70.8" id="20,0" /></g><g class="toytree-Nodes" style="fill:rgb(100%,0%,0%);fill-opacity:1.0;stroke:None;stroke-width:1"><g id="node-0" transform="translate(376.112,70.833)"><circle r="2.5" /></g><g id="node-1" transform="translate(376.348,68.640)"><circle r="2.5" /></g><g id="node-2" transform="translate(373.888,66.447)"><circle r="2.5" /></g><g id="node-3" transform="translate(375.901,64.254)"><circle r="2.5" /></g><g id="node-4" transform="translate(372.867,62.061)"><circle r="2.5" /></g><g id="node-5" transform="translate(364.268,59.868)"><circle r="2.5" /></g><g id="node-6" transform="translate(359.713,57.675)"><circle r="2.5" /></g><g id="node-7" transform="translate(360.046,55.482)"><circle r="2.5" /></g><g id="node-8" transform="translate(369.023,53.289)"><circle r="2.5" /></g><g id="node-9" transform="translate(390.263,51.096)"><circle r="2.5" /></g><g id="node-10" transform="translate(376.881,48.904)"><circle r="2.5" /></g><g id="node-11" transform="translate(363.902,46.711)"><circle r="2.5" /></g><g id="node-12" transform="translate(368.392,44.518)"><circle r="2.5" /></g><g id="node-13" transform="translate(366.847,42.325)"><circle r="2.5" /></g><g id="node-14" transform="translate(386.969,40.132)"><circle r="2.5" /></g><g id="node-15" transform="translate(389.970,37.939)"><circle r="2.5" /></g><g id="node-16" transform="translate(345.879,35.746)"><circle r="2.5" /></g><g id="node-17" transform="translate(361.230,33.553)"><circle r="2.5" /></g><g id="node-18" transform="translate(363.841,31.360)"><circle r="2.5" /></g><g id="node-19" transform="translate(368.778,29.167)"><circle r="2.5" /></g><g id="node-20" transform="translate(367.892,69.737)"><circle r="0.0" /></g><g id="node-21" transform="translate(363.304,68.092)"><circle r="0.0" /></g><g id="node-22" transform="translate(350.601,58.772)"><circle r="0.0" /></g><g id="node-23" transform="translate(339.481,50.000)"><circle r="0.0" /></g><g id="node-24" transform="translate(357.691,66.173)"><circle r="0.0" /></g><g id="node-25" transform="translate(346.884,57.127)"><circle r="0.0" /></g><g id="node-26" transform="translate(337.171,48.355)"><circle r="0.0" /></g><g id="node-27" transform="translate(334.958,43.421)"><circle r="0.0" /></g><g id="node-28" transform="translate(337.321,64.117)"><circle r="0.0" /></g><g id="node-29" transform="translate(337.850,55.208)"><circle r="0.0" /></g><g id="node-30" transform="translate(333.128,45.888)"><circle r="0.0" /></g><g id="node-31" transform="translate(341.267,39.035)"><circle r="0.0" /></g><g id="node-32" transform="translate(332.717,59.663)"><circle r="0.0" /></g><g id="node-33" transform="translate(332.180,42.462)"><circle r="0.0" /></g><g id="node-34" transform="translate(326.872,51.062)"><circle r="0.0" /></g><g id="node-35" transform="translate(320.079,43.404)"><circle r="0.0" /></g><g id="node-36" transform="translate(319.583,32.456)"><circle r="0.0" /></g><g id="node-37" transform="translate(314.356,37.930)"><circle r="0.0" /></g><g id="node-38" transform="translate(305.000,33.548)"><circle r="0.0" /></g></g></g></g></g><g class="toyplot-coordinates-Cartesian" id="t717d776f462d4b8faa6ad753e0d1870c"><clipPath id="t3135ae860519430f8acd5dc76bc2776f"><rect x="435.0" y="15.0" width="110.0" height="70.0" /></clipPath><g clip-path="url(#t3135ae860519430f8acd5dc76bc2776f)"><g class="toytree-mark-Toytree" id="t1964c2aed6e5498aaec69a736ce6e367"><g class="toytree-Edges" style="fill:none;stroke:rgb(14.9%,14.9%,14.9%);stroke-linecap:round;stroke-opacity:1;stroke-width:0.5"><path d="M 445.0 36.3 L 445.0 32.5 L 447.0 32.5" id="38,37" /><path d="M 445.0 36.3 L 445.0 40.2 L 456.1 40.2" id="38,36" /><path d="M 447.0 32.5 L 447.0 30.3 L 463.7 30.3" id="37,35" /><path d="M 447.0 32.5 L 447.0 34.6 L 456.6 34.6" id="37,34" /><path d="M 456.1 40.2 L 456.1 42.5 L 467.5 42.5" id="36,33" /><path d="M 467.5 42.5 L 467.5 45.0 L 478.7 45.0" id="33,32" /><path d="M 478.7 45.0 L 478.7 47.6 L 484.0 47.6" id="32,31" /><path d="M 484.0 47.6 L 484.0 50.7 L 492.7 50.7" id="31,30" /><path d="M 492.7 50.7 L 492.7 54.6 L 503.6 54.6" id="30,29" /><path d="M 503.6 54.6 L 503.6 50.5 L 509.0 50.5" id="29,28" /><path d="M 503.6 54.6 L 503.6 58.6 L 512.6 58.6" id="29,27" /><path d="M 509.0 50.5 L 509.0 52.2 L 509.9 52.2" id="28,26" /><path d="M 512.6 58.6 L 512.6 61.8 L 518.1 61.8" id="27,25" /><path d="M 518.1 61.8 L 518.1 58.8 L 522.7 58.8" id="25,24" /><path d="M 518.1 61.8 L 518.1 64.8 L 519.3 64.8" id="25,23" /><path d="M 519.3 64.8 L 519.3 67.5 L 522.5 67.5" id="23,22" /><path d="M 522.5 67.5 L 522.5 65.4 L 522.5 65.4" id="22,21" /><path d="M 522.5 67.5 L 522.5 69.7 L 523.2 69.7" id="22,20" /><path d="M 463.7 30.3 L 463.7 29.2 L 513.4 29.2" id="35,19" /><path d="M 463.7 30.3 L 463.7 31.4 L 517.1 31.4" id="35,18" /><path d="M 456.6 34.6 L 456.6 33.6 L 516.7 33.6" id="34,17" /><path d="M 456.6 34.6 L 456.6 35.7 L 530.3 35.7" id="34,16" /><path d="M 456.1 40.2 L 456.1 37.9 L 492.2 37.9" id="36,15" /><path d="M 467.5 42.5 L 467.5 40.1 L 526.6 40.1" id="33,14" /><path d="M 478.7 45.0 L 478.7 42.3 L 513.9 42.3" id="32,13" /><path d="M 484.0 47.6 L 484.0 44.5 L 524.7 44.5" id="31,12" /><path d="M 492.7 50.7 L 492.7 46.7 L 515.0 46.7" id="30,11" /><path d="M 509.0 50.5 L 509.0 48.9 L 524.4 48.9" id="28,10" /><path d="M 509.9 52.2 L 509.9 51.1 L 521.2 51.1" id="26,9" /><path d="M 509.9 52.2 L 509.9 53.3 L 516.6 53.3" id="26,8" /><path d="M 512.6 58.6 L 512.6 55.5 L 521.8 55.5" id="27,7" /><path d="M 522.7 58.8 L 522.7 57.7 L 524.9 57.7" id="24,6" /><path d="M 522.7 58.8 L 522.7 59.9 L 522.7 59.9" id="24,5" /><path d="M 519.3 64.8 L 519.3 62.1 L 521.3 62.1" id="23,4" /><path d="M 522.5 65.4 L 522.5 64.3 L 523.2 64.3" id="21,3" /><path d="M 522.5 65.4 L 522.5 66.4 L 522.5 66.4" id="21,2" /><path d="M 523.2 69.7 L 523.2 68.6 L 523.2 68.6" id="20,1" /><path d="M 523.2 69.7 L 523.2 70.8 L 524.0 70.8" id="20,0" /></g><g class="toytree-Nodes" style="fill:rgb(100%,0%,0%);fill-opacity:1.0;stroke:None;stroke-width:1"><g id="node-0" transform="translate(523.962,70.833)"><circle r="2.5" /></g><g id="node-1" transform="translate(523.215,68.640)"><circle r="2.5" /></g><g id="node-2" transform="translate(522.464,66.447)"><circle r="2.5" /></g><g id="node-3" transform="translate(523.222,64.254)"><circle r="2.5" /></g><g id="node-4" transform="translate(521.308,62.061)"><circle r="2.5" /></g><g id="node-5" transform="translate(522.691,59.868)"><circle r="2.5" /></g><g id="node-6" transform="translate(524.944,57.675)"><circle r="2.5" /></g><g id="node-7" transform="translate(521.805,55.482)"><circle r="2.5" /></g><g id="node-8" transform="translate(516.590,53.289)"><circle r="2.5" /></g><g id="node-9" transform="translate(521.171,51.096)"><circle r="2.5" /></g><g id="node-10" transform="translate(524.367,48.904)"><circle r="2.5" /></g><g id="node-11" transform="translate(515.039,46.711)"><circle r="2.5" /></g><g id="node-12" transform="translate(524.670,44.518)"><circle r="2.5" /></g><g id="node-13" transform="translate(513.944,42.325)"><circle r="2.5" /></g><g id="node-14" transform="translate(526.566,40.132)"><circle r="2.5" /></g><g id="node-15" transform="translate(492.229,37.939)"><circle r="2.5" /></g><g id="node-16" transform="translate(530.263,35.746)"><circle r="2.5" /></g><g id="node-17" transform="translate(516.671,33.553)"><circle r="2.5" /></g><g id="node-18" transform="translate(517.094,31.360)"><circle r="2.5" /></g><g id="node-19" transform="translate(513.355,29.167)"><circle r="2.5" /></g><g id="node-20" transform="translate(523.215,69.737)"><circle r="0.0" /></g><g id="node-21" transform="translate(522.464,65.351)"><circle r="0.0" /></g><g id="node-22" transform="translate(522.464,67.544)"><circle r="0.0" /></g><g id="node-23" transform="translate(519.316,64.803)"><circle r="0.0" /></g><g id="node-24" transform="translate(522.691,58.772)"><circle r="0.0" /></g><g id="node-25" transform="translate(518.144,61.787)"><circle r="0.0" /></g><g id="node-26" transform="translate(509.880,52.193)"><circle r="0.0" /></g><g id="node-27" transform="translate(512.592,58.635)"><circle r="0.0" /></g><g id="node-28" transform="translate(509.049,50.548)"><circle r="0.0" /></g><g id="node-29" transform="translate(503.627,54.592)"><circle r="0.0" /></g><g id="node-30" transform="translate(492.723,50.651)"><circle r="0.0" /></g><g id="node-31" transform="translate(484.024,47.584)"><circle r="0.0" /></g><g id="node-32" transform="translate(478.746,44.954)"><circle r="0.0" /></g><g id="node-33" transform="translate(467.492,42.543)"><circle r="0.0" /></g><g id="node-34" transform="translate(456.602,34.649)"><circle r="0.0" /></g><g id="node-35" transform="translate(463.673,30.263)"><circle r="0.0" /></g><g id="node-36" transform="translate(456.083,40.241)"><circle r="0.0" /></g><g id="node-37" transform="translate(447.034,32.456)"><circle r="0.0" /></g><g id="node-38" transform="translate(445.000,36.348)"><circle r="0.0" /></g></g></g></g></g></svg>