<svg class="toyplot-canvas-Canvas" xmlns:toyplot="http://www.sandia.gov/toyplot" xmlns:xlink="http://www.w3.org/1999/xlink" xmlns="http://www.w3.org/2000/svg" width="560.0px" height="100.0px" viewBox="0 0 560.0 100.0" preserveAspectRatio="xMidYMid meet" style="background-color:transparent;border-color:#292724;border-style:none;border-width:1.0;fill:rgb(16.1%,15.3%,14.1%);fill-opacity:1.0;font-family:Helvetica;font-size:12px;opacity:1.0;stroke:rgb(16.1%,15.3%,14.1%);stroke-opacity:1.0;stroke-width:1.0" id="t74a2e65276064e21b708359f34349e4f"><g class="toyplot-coordinates-Cartesian" id="tc7ca9d1dad364a24985619c2d24f99bf"><clipPath id="t6783a2cdcf5640b698fac9ed1b22d8eb"><rect x="15.0" y="15.0" width="110.0" height="70.0" /></clipPath><g clip-path="url(#t6783a2cdcf5640b698fac9ed1b22d8eb)"><g class="toytree-mark-Toytree" id="t40a83f0afd5b433faf887785dc4841bb"><g class="toytree-Edges" style="fill:none;stroke:rgb(14.9%,14.9%,14.9%);stroke-linecap:round;stroke-opacity:1;stroke-width:0.5"><path d="M 25.0 45.7 L 25.0 33.2 L 45.8 33.2" id="18,17" /><path d="M 25.0 45.7 L 25.0 58.1 L 35.3 58.1" id="18,16" /><path d="M 45.8 33.2 L 45.8 37.3 L 71.3 37.3" id="17,15" /><path d="M 35.3 58.1 L 35.3 51.2 L 42.2 51.2" id="16,14" /><path d="M 35.3 58.1 L 35.3 65.0 L 37.5 65.0" id="16,13" /><path d="M 71.3 37.3 L 71.3 40.7 L 81.3 40.7" id="15,12" /><path d="M 42.2 51.2 L 42.2 54.6 L 45.4 54.6" id="14,11" /><path d="M 37.5 65.0 L 37.5 68.5 L 45.3 68.5" id="13,10" /><path d="M 45.8 33.2 L 45.8 29.2 L 103.3 29.2" id="17,9" /><path d="M 71.3 37.3 L 71.3 33.8 L 104.2 33.8" id="15,8" /><path d="M 81.3 40.7 L 81.3 38.4 L 107.4 38.4" id="12,7" /><path d="M 81.3 40.7 L 81.3 43.1 L 105.5 43.1" id="12,6" /><path d="M 42.2 51.2 L 42.2 47.7 L 101.7 47.7" id="14,5" /><path d="M 45.4 54.6 L 45.4 52.3 L 108.8 52.3" id="11,4" /><path d="M 45.4 54.6 L 45.4 56.9 L 106.1 56.9" id="11,3" /><path d="M 37.5 65.0 L 37.5 61.6 L 103.8 61.6" id="13,2" /><path d="M 45.3 68.5 L 45.3 66.2 L 110.3 66.2" id="10,1" /><path d="M 45.3 68.5 L 45.3 70.8 L 100.7 70.8" id="10,0" /></g><g class="toytree-Nodes" style="fill:rgb(100%,0%,0%);fill-opacity:1.0;stroke:None;stroke-width:1"><g id="node-0" transform="translate(100.740,70.833)"><circle r="2.5" /></g><g id="node-1" transform="translate(110.263,66.204)"><circle r="2.5" /></g><g id="node-2" transform="translate(103.763,61.574)"><circle r="2.5" /></g><g id="node-3" transform="translate(106.149,56.944)"><circle r="2.5" /></g><g id="node-4" transform="translate(108.808,52.315)"><circle r="2.5" /></g><g id="node-5" transform="translate(101.725,47.685)"><circle r="2.5" /></g><g id="node-6" transform="translate(105.462,43.056)"><circle r="2.5" /></g><g id="node-7" transform="translate(107.411,38.426)"><circle r="2.5" /></g><g id="node-8" transform="translate(104.250,33.796)"><circle r="2.5" /></g><g id="node-9" transform="translate(103.349,29.167)"><circle r="2.5" /></g><g id="node-10" transform="translate(45.293,68.519)"><circle r="0.0" /></g><g id="node-11" transform="translate(45.387,54.630)"><circle r="0.0" /></g><g id="node-12" transform="translate(81.349,40.741)"><circle r="0.0" /></g><g id="node-13" transform="translate(37.524,65.046)"><circle r="0.0" /></g><g id="node-14" transform="translate(42.197,51.157)"><circle r="0.0" /></g><g id="node-15" transform="translate(71.266,37.269)"><circle r="0.0" /></g><g id="node-16" transform="translate(35.287,58.102)"><circle r="0.0" /></g><g id="node-17" transform="translate(45.769,33.218)"><circle r="0.0" /></g><g id="node-18" transform="translate(25.000,45.660)"><circle r="0.0" /></g></g></g></g></g><g class="toyplot-coordinates-Cartesian" id="t52f172133f7f4c15840f3a87dce66f89"><clipPath id="tc5624afa405847bc9f20792fe06bb547"><rect x="155.0" y="15.0" width="110.0" height="70.0" /></clipPath><g clip-path="url(#tc5624afa405847bc9f20792fe06bb547)"><g class="toytree-mark-Toytree" id="t612c9143f2ef42d5b077030a96cab5f3"><g class="toytree-Edges" style="fill:none;stroke:rgb(14.9%,14.9%,14.9%);stroke-linecap:round;stroke-opacity:1;stroke-width:0.5"><path d="M 165.0 44.4 L 165.0 33.2 L 197.0 33.2" id="18,17" /><path d="M 165.0 44.4 L 165.0 55.5 L 173.9 55.5" id="18,16" /><path d="M 197.0 33.2 L 197.0 37.3 L 226.0 37.3" id="17,15" /><path d="M 173.9 55.5 L 173.9 50.0 L 211.2 50.0" id="16,14" /><path d="M 173.9 55.5 L 173.9 61.0 L 187.1 61.0" id="16,13" /><path d="M 226.0 37.3 L 226.0 40.7 L 227.4 40.7" id="15,12" /><path d="M 187.1 61.0 L 187.1 65.0 L 199.0 65.0" id="13,11" /><path d="M 199.0 65.0 L 199.0 68.5 L 204.0 68.5" id="11,10" /><path d="M 197.0 33.2 L 197.0 29.2 L 223.2 29.2" id="17,9" /><path d="M 226.0 37.3 L 226.0 33.8 L 231.9 33.8" id="15,8" /><path d="M 227.4 40.7 L 227.4 38.4 L 231.7 38.4" id="12,7" /><path d="M 227.4 40.7 L 227.4 43.1 L 231.7 43.1" id="12,6" /><path d="M 211.2 50.0 L 211.2 47.7 L 237.5 47.7" id="14,5" /><path d="M 211.2 50.0 L 211.2 52.3 L 250.3 52.3" id="14,4" /><path d="M 187.1 61.0 L 187.1 56.9 L 238.6 56.9" id="13,3" /><path d="M 199.0 65.0 L 199.0 61.6 L 216.8 61.6" id="11,2" /><path d="M 204.0 68.5 L 204.0 66.2 L 220.7 66.2" id="10,1" /><path d="M 204.0 68.5 L 204.0 70.8 L 224.7 70.8" id="10,0" /></g><g class="toytree-Nodes" style="fill:rgb(100%,0%,0%);fill-opacity:1.0;stroke:None;stroke-width:1"><g id="node-0" transform="translate(224.691,70.833)"><circle r="2.5" /></g><g id="node-1" transform="translate(220.658,66.204)"><circle r="2.5" /></g><g id="node-2" transform="translate(216.842,61.574)"><circle r="2.5" /></g><g id="node-3" transform="translate(238.572,56.944)"><circle r="2.5" /></g><g id="node-4" transform="translate(250.263,52.315)"><circle r="2.5" /></g><g id="node-5" transform="translate(237.509,47.685)"><circle r="2.5" /></g><g id="node-6" transform="translate(231.706,43.056)"><circle r="2.5" /></g><g id="node-7" transform="translate(231.724,38.426)"><circle r="2.5" /></g><g id="node-8" transform="translate(231.924,33.796)"><circle r="2.5" /></g><g id="node-9" transform="translate(223.194,29.167)"><circle r="2.5" /></g><g id="node-10" transform="translate(204.006,68.519)"><circle r="0.0" /></g><g id="node-11" transform="translate(199.001,65.046)"><circle r="0.0" /></g><g id="node-12" transform="translate(227.446,40.741)"><circle r="0.0" /></g><g id="node-13" transform="translate(187.137,60.995)"><circle r="0.0" /></g><g id="node-14" transform="translate(211.228,50.000)"><circle r="0.0" /></g><g id="node-15" transform="translate(225.983,37.269)"><circle r="0.0" /></g><g id="node-16" transform="translate(173.947,55.498)"><circle r="0.0" /></g><g id="node-17" transform="translate(197.032,33.218)"><circle r="0.0" /></g><g id="node-18" transform="translate(165.000,44.358)"><circle r="0.0" /></g></g></g></g></g><g class="toyplot-coordinates-Cartesian" id="t98fe23e50cd24c8f958e19c904cf3694"><clipPath id="tbc5be8967a084aa8a18c0011070aa1a1"><rect x="295.0" y="15.0" width="110.0" height="70.0" /></clipPath><g clip-path="url(#tbc5be8967a084aa8a18c0011070aa1a1)"><g class="toytree-mark-Toytree" id="t2777f979abb54f75adf37ba1edd8597b"><g class="toytree-Edges" style="fill:none;stroke:rgb(14.9%,14.9%,14.9%);stroke-linecap:round;stroke-opacity:1;stroke-width:0.5"><path d="M 305.0 44.4 L 305.0 33.2 L 333.0 33.2" id="18,17" /><path d="M 305.0 44.4 L 305.0 55.5 L 314.5 55.5" id="18,16" /><path d="M 333.0 33.2 L 333.0 37.3 L 371.6 37.3" id="17,15" /><path d="M 314.5 55.5 L 314.5 50.0 L 345.5 50.0" id="16,14" /><path d="M 314.5 55.5 L 314.5 61.0 L 320.7 61.0" id="16,13" /><path d="M 371.6 37.3 L 371.6 40.7 L 373.4 40.7" id="15,12" /><path d="M 320.7 61.0 L 320.7 65.0 L 331.7 65.0" id="13,11" /><path d="M 331.7 65.0 L 331.7 68.5 L 338.8 68.5" id="11,10" /><path d="M 333.0 33.2 L 333.0 29.2 L 368.3 29.2" id="17,9" /><path d="M 371.6 37.3 L 371.6 33.8 L 378.6 33.8" id="15,8" /><path d="M 373.4 40.7 L 373.4 38.4 L 379.8 38.4" id="12,7" /><path d="M 373.4 40.7 L 373.4 43.1 L 378.1 43.1" id="12,6" /><path d="M 345.5 50.0 L 345.5 47.7 L 380.3 47.7" id="14,5" /><path d="M 345.5 50.0 L 345.5 52.3 L 390.3 52.3" id="14,4" /><path d="M 320.7 61.0 L 320.7 56.9 L 381.2 56.9" id="13,3" /><path d="M 331.7 65.0 L 331.7 61.6 L 367.5 61.6" id="11,2" /><path d="M 338.8 68.5 L 338.8 66.2 L 366.9 66.2" id="10,1" /><path d="M 338.8 68.5 L 338.8 70.8 L 374.6 70.8" id="10,0" /></g><g class="toytree-Nodes" style="fill:rgb(100%,0%,0%);fill-opacity:1.0;stroke:None;stroke-width:1"><g id="node-0" transform="translate(374.600,70.833)"><circle r="2.5" /></g><g id="node-1" transform="translate(366.908,66.204)"><circle r="2.5" /></g><g id="node-2" transform="translate(367.540,61.574)"><circle r="2.5" /></g><g id="node-3" transform="translate(381.213,56.944)"><circle r="2.5" /></g><g id="node-4" transform="translate(390.263,52.315)"><circle r="2.5" /></g><g id="node-5" transform="translate(380.302,47.685)"><circle r="2.5" /></g><g id="node-6" transform="translate(378.053,43.056)"><circle r="2.5" /></g><g id="node-7" transform="translate(379.805,38.426)"><circle r="2.5" /></g><g id="node-8" transform="translate(378.596,33.796)"><circle r="2.5" /></g><g id="node-9" transform="translate(368.331,29.167)"><circle r="2.5" /></g><g id="node-10" transform="translate(338.811,68.519)"><circle r="0.0" /></g><g id="node-11" transform="translate(331.706,65.046)"><circle r="0.0" /></g><g id="node-12" transform="translate(373.406,40.741)"><circle r="0.0" /></g><g id="node-13" transform="translate(320.725,60.995)"><circle r="0.0" /></g><g id="node-14" transform="translate(345.454,50.000)"><circle r="0.0" /></g><g id="node-15" transform="translate(371.585,37.269)"><circle r="0.0" /></g><g id="node-16" transform="translate(314.496,55.498)"><circle r="0.0" /></g><g id="node-17" transform="translate(332.960,33.218)"><circle r="0.0" /></g><g id="node-18" transform="translate(305.000,44.358)"><circle r="0.0" /></g></g></g></g></g><g class="toyplot-coordinates-Cartesian" id="t179e7aa8da8f473387e4617045a2cc5f"><clipPath id="t7f10318fa755497c87d3250df74e43d1"><rect x="435.0" y="15.0" width="110.0" height="70.0" /></clipPath><g clip-path="url(#t7f10318fa755497c87d3250df74e43d1)"><g class="toytree-mark-Toytree" id="tb42b598e58574d61879b228efe610804"><g class="toytree-Edges" style="fill:none;stroke:rgb(14.9%,14.9%,14.9%);stroke-linecap:round;stroke-opacity:1;stroke-width:0.5"><path d="M 445.0 45.7 L 445.0 33.2 L 486.9 33.2" id="18,17" /><path d="M 445.0 45.7 L 445.0 58.1 L 468.5 58.1" id="18,16" /><path d="M 486.9 33.2 L 486.9 37.3 L 508.5 37.3" id="17,15" /><path d="M 468.5 58.1 L 468.5 51.2 L 476.4 51.2" id="16,14" /><path d="M 468.5 58.1 L 468.5 65.0 L 480.5 65.0" id="16,13" /><path d="M 508.5 37.3 L 508.5 40.7 L 515.3 40.7" id="15,12" /><path d="M 476.4 51.2 L 476.4 54.6 L 497.3 54.6" id="14,11" /><path d="M 480.5 65.0 L 480.5 68.5 L 492.5 68.5" id="13,10" /><path d="M 486.9 33.2 L 486.9 29.2 L 516.8 29.2" id="17,9" /><path d="M 508.5 37.3 L 508.5 33.8 L 519.0 33.8" id="15,8" /><path d="M 515.3 40.7 L 515.3 38.4 L 524.3 38.4" id="12,7" /><path d="M 515.3 40.7 L 515.3 43.1 L 522.1 43.1" id="12,6" /><path d="M 476.4 51.2 L 476.4 47.7 L 517.8 47.7" id="14,5" /><path d="M 497.3 54.6 L 497.3 52.3 L 525.1 52.3" id="11,4" /><path d="M 497.3 54.6 L 497.3 56.9 L 530.0 56.9" id="11,3" /><path d="M 480.5 65.0 L 480.5 61.6 L 505.3 61.6" id="13,2" /><path d="M 492.5 68.5 L 492.5 66.2 L 530.3 66.2" id="10,1" /><path d="M 492.5 68.5 L 492.5 70.8 L 520.3 70.8" id="10,0" /></g><g class="toytree-Nodes" style="fill:rgb(100%,0%,0%);fill-opacity:1.0;stroke:None;stroke-width:1"><g id="node-0" transform="translate(520.294,70.833)"><circle r="2.5" /></g><g id="node-1" transform="translate(530.263,66.204)"><circle r="2.5" /></g><g id="node-2" transform="translate(505.337,61.574)"><circle r="2.5" /></g><g id="node-3" transform="translate(529.987,56.944)"><circle r="2.5" /></g><g id="node-4" transform="translate(525.137,52.315)"><circle r="2.5" /></g><g id="node-5" transform="translate(517.789,47.685)"><circle r="2.5" /></g><g id="node-6" transform="translate(522.054,43.056)"><circle r="2.5" /></g><g id="node-7" transform="translate(524.251,38.426)"><circle r="2.5" /></g><g id="node-8" transform="translate(519.039,33.796)"><circle r="2.5" /></g><g id="node-9" transform="translate(516.827,29.167)"><circle r="2.5" /></g><g id="node-10" transform="translate(492.468,68.519)"><circle r="0.0" /></g><g id="node-11" transform="translate(497.344,54.630)"><circle r="0.0" /></g><g id="node-12" transform="translate(515.335,40.741)"><circle r="0.0" /></g><g id="node-13" transform="translate(480.467,65.046)"><circle r="0.0" /></g><g id="node-14" transform="translate(476.395,51.157)"><circle r="0.0" /></g><g id="node-15" transform="translate(508.542,37.269)"><circle r="0.0" /></g><g id="node-16" transform="translate(468.503,58.102)"><circle r="0.0" /></g><g id="node-17" transform="translate(486.912,33.218)"><circle r="0.0" /></g><g id="node-18" transform="translate(445.000,45.660)"><circle r="0.0" /></g></g></g></g></g></svg>