<svg class="toyplot-canvas-Canvas" xmlns:toyplot="http://www.sandia.gov/toyplot" xmlns:xlink="http://www.w3.org/1999/xlink" xmlns="http://www.w3.org/2000/svg" width="560.0px" height="100.0px" viewBox="0 0 560.0 100.0" preserveAspectRatio="xMidYMid meet" style="background-color:transparent;border-color:#292724;border-style:none;border-width:1.0;fill:rgb(16.1%,15.3%,14.1%);fill-opacity:1.0;font-family:Helvetica;font-size:12px;opacity:1.0;stroke:rgb(16.1%,15.3%,14.1%);stroke-opacity:1.0;stroke-width:1.0" id="t4b6d3291343f48ef861c8ebf68114661"><g class="toyplot-coordinates-Cartesian" id="t86c2e1e716f34afdb13c24632075b468"><clipPath id="t25d8ce5dd4184d358f8cc20a33e3b1fc"><rect x="15.0" y="15.0" width="110.0" height="70.0" /></clipPath><g clip-path="url(#t25d8ce5dd4184d358f8cc20a33e3b1fc)"><g class="toytree-mark-Toytree" id="t85d2bbb8f8e44801ba2e840862ecc4fe"><g class="toytree-Edges" style="fill:none;stroke:rgb(14.9%,14.9%,14.9%);stroke-linecap:round;stroke-opacity:1;stroke-width:0.5"><path d="M 25.0 37.3 L 25.0 31.0 L 31.6 31.0" id="136,135" /><path d="M 25.0 37.3 L 25.0 43.7 L 26.0 43.7" id="136,134" /><path d="M 31.6 31.0 L 31.6 29.7 L 35.3 29.7" id="135,133" /><path d="M 31.6 31.0 L 31.6 32.3 L 32.1 32.3" id="135,132" /><path d="M 26.0 43.7 L 26.0 37.9 L 29.6 37.9" id="134,131" /><path d="M 26.0 43.7 L 26.0 49.4 L 34.4 49.4" id="134,130" /><path d="M 35.3 29.7 L 35.3 30.2 L 37.9 30.2" id="133,129" /><path d="M 32.1 32.3 L 32.1 32.9 L 35.9 32.9" id="132,128" /><path d="M 29.6 37.9 L 29.6 36.8 L 41.0 36.8" id="131,127" /><path d="M 29.6 37.9 L 29.6 39.0 L 31.7 39.0" id="131,126" /><path d="M 34.4 49.4 L 34.4 46.6 L 43.0 46.6" id="130,125" /><path d="M 34.4 49.4 L 34.4 52.2 L 37.7 52.2" id="130,124" /><path d="M 37.9 30.2 L 37.9 30.7 L 39.0 30.7" id="129,123" /><path d="M 35.9 32.9 L 35.9 33.6 L 37.2 33.6" id="128,122" /><path d="M 31.7 39.0 L 31.7 38.1 L 44.2 38.1" id="126,121" /><path d="M 31.7 39.0 L 31.7 40.0 L 32.4 40.0" id="126,120" /><path d="M 37.7 52.2 L 37.7 48.8 L 38.7 48.8" id="124,119" /><path d="M 37.7 52.2 L 37.7 55.6 L 38.6 55.6" id="124,118" /><path d="M 37.2 33.6 L 37.2 34.5 L 38.8 34.5" id="122,117" /><path d="M 32.4 40.0 L 32.4 41.1 L 36.5 41.1" id="120,116" /><path d="M 38.7 48.8 L 38.7 47.9 L 41.8 47.9" id="119,115" /><path d="M 38.7 48.8 L 38.7 49.7 L 42.3 49.7" id="119,114" /><path d="M 38.6 55.6 L 38.6 52.2 L 39.5 52.2" id="118,113" /><path d="M 38.6 55.6 L 38.6 58.9 L 40.2 58.9" id="118,112" /><path d="M 38.8 34.5 L 38.8 33.8 L 46.5 33.8" id="117,111" /><path d="M 38.8 34.5 L 38.8 35.1 L 40.5 35.1" id="117,110" /><path d="M 36.5 41.1 L 36.5 42.6 L 45.2 42.6" id="116,109" /><path d="M 42.3 49.7 L 42.3 49.1 L 60.1 49.1" id="114,108" /><path d="M 42.3 49.7 L 42.3 50.3 L 56.6 50.3" id="114,107" /><path d="M 39.5 52.2 L 39.5 51.5 L 45.0 51.5" id="113,106" /><path d="M 39.5 52.2 L 39.5 52.9 L 40.7 52.9" id="113,105" /><path d="M 40.2 58.9 L 40.2 55.1 L 45.9 55.1" id="112,104" /><path d="M 40.2 58.9 L 40.2 62.7 L 42.2 62.7" id="112,103" /><path d="M 40.5 35.1 L 40.5 35.6 L 53.0 35.6" id="110,102" /><path d="M 45.2 42.6 L 45.2 41.0 L 47.8 41.0" id="109,101" /><path d="M 45.2 42.6 L 45.2 44.3 L 47.0 44.3" id="109,100" /><path d="M 40.7 52.9 L 40.7 53.4 L 45.4 53.4" id="105,99" /><path d="M 45.9 55.1 L 45.9 55.9 L 49.3 55.9" id="104,98" /><path d="M 42.2 62.7 L 42.2 59.0 L 42.5 59.0" id="103,97" /><path d="M 42.2 62.7 L 42.2 66.4 L 44.1 66.4" id="103,96" /><path d="M 47.8 41.0 L 47.8 41.7 L 53.5 41.7" id="101,95" /><path d="M 47.0 44.3 L 47.0 43.6 L 51.0 43.6" id="100,94" /><path d="M 47.0 44.3 L 47.0 44.9 L 64.0 44.9" id="100,93" /><path d="M 49.3 55.9 L 49.3 55.2 L 58.3 55.2" id="98,92" /><path d="M 49.3 55.9 L 49.3 56.6 L 53.5 56.6" id="98,91" /><path d="M 42.5 59.0 L 42.5 60.1 L 43.8 60.1" id="97,90" /><path d="M 44.1 66.4 L 44.1 64.6 L 48.3 64.6" id="96,89" /><path d="M 44.1 66.4 L 44.1 68.2 L 45.0 68.2" id="96,88" /><path d="M 53.5 41.7 L 53.5 41.1 L 71.3 41.1" id="95,87" /><path d="M 53.5 41.7 L 53.5 42.3 L 60.9 42.3" id="95,86" /><path d="M 64.0 44.9 L 64.0 45.4 L 70.8 45.4" id="93,85" /><path d="M 53.5 56.6 L 53.5 57.0 L 66.3 57.0" id="91,84" /><path d="M 43.8 60.1 L 43.8 58.9 L 58.2 58.9" id="90,83" /><path d="M 43.8 60.1 L 43.8 61.2 L 46.1 61.2" id="90,82" /><path d="M 48.3 64.6 L 48.3 65.2 L 49.4 65.2" id="89,81" /><path d="M 45.0 68.2 L 45.0 67.0 L 48.1 67.0" id="88,80" /><path d="M 45.0 68.2 L 45.0 69.4 L 49.6 69.4" id="88,79" /><path d="M 46.1 61.2 L 46.1 60.3 L 53.4 60.3" id="82,78" /><path d="M 46.1 61.2 L 46.1 62.2 L 48.7 62.2" id="82,77" /><path d="M 49.4 65.2 L 49.4 65.6 L 51.1 65.6" id="81,76" /><path d="M 48.1 67.0 L 48.1 67.5 L 52.3 67.5" id="80,75" /><path d="M 49.6 69.4 L 49.6 68.7 L 53.7 68.7" id="79,74" /><path d="M 49.6 69.4 L 49.6 70.1 L 56.2 70.1" id="79,73" /><path d="M 53.4 60.3 L 53.4 60.7 L 71.1 60.7" id="78,72" /><path d="M 48.7 62.2 L 48.7 62.7 L 53.4 62.7" id="77,71" /><path d="M 56.2 70.1 L 56.2 70.5 L 58.6 70.5" id="73,70" /><path d="M 53.4 62.7 L 53.4 63.2 L 69.5 63.2" id="71,69" /><path d="M 35.3 29.7 L 35.3 29.2 L 105.3 29.2" id="133,68" /><path d="M 37.9 30.2 L 37.9 29.8 L 99.8 29.8" id="129,67" /><path d="M 39.0 30.7 L 39.0 30.4 L 108.3 30.4" id="123,66" /><path d="M 39.0 30.7 L 39.0 31.0 L 102.4 31.0" id="123,65" /><path d="M 32.1 32.3 L 32.1 31.6 L 94.2 31.6" id="132,64" /><path d="M 35.9 32.9 L 35.9 32.2 L 95.4 32.2" id="128,63" /><path d="M 37.2 33.6 L 37.2 32.8 L 102.6 32.8" id="122,62" /><path d="M 46.5 33.8 L 46.5 33.5 L 94.8 33.5" id="111,61" /><path d="M 46.5 33.8 L 46.5 34.1 L 98.1 34.1" id="111,60" /><path d="M 40.5 35.1 L 40.5 34.7 L 96.4 34.7" id="110,59" /><path d="M 53.0 35.6 L 53.0 35.3 L 98.1 35.3" id="102,58" /><path d="M 53.0 35.6 L 53.0 35.9 L 102.3 35.9" id="102,57" /><path d="M 41.0 36.8 L 41.0 36.5 L 102.2 36.5" id="127,56" /><path d="M 41.0 36.8 L 41.0 37.1 L 97.7 37.1" id="127,55" /><path d="M 44.2 38.1 L 44.2 37.7 L 94.2 37.7" id="121,54" /><path d="M 44.2 38.1 L 44.2 38.4 L 96.4 38.4" id="121,53" /><path d="M 32.4 40.0 L 32.4 39.0 L 104.4 39.0" id="120,52" /><path d="M 36.5 41.1 L 36.5 39.6 L 101.5 39.6" id="116,51" /><path d="M 47.8 41.0 L 47.8 40.2 L 99.5 40.2" id="101,50" /><path d="M 71.3 41.1 L 71.3 40.8 L 103.0 40.8" id="87,49" /><path d="M 71.3 41.1 L 71.3 41.4 L 101.8 41.4" id="87,48" /><path d="M 60.9 42.3 L 60.9 42.0 L 98.4 42.0" id="86,47" /><path d="M 60.9 42.3 L 60.9 42.6 L 98.8 42.6" id="86,46" /><path d="M 51.0 43.6 L 51.0 43.3 L 100.5 43.3" id="94,45" /><path d="M 51.0 43.6 L 51.0 43.9 L 97.6 43.9" id="94,44" /><path d="M 64.0 44.9 L 64.0 44.5 L 102.4 44.5" id="93,43" /><path d="M 70.8 45.4 L 70.8 45.1 L 102.0 45.1" id="85,42" /><path d="M 70.8 45.4 L 70.8 45.7 L 98.9 45.7" id="85,41" /><path d="M 43.0 46.6 L 43.0 46.3 L 95.0 46.3" id="125,40" /><path d="M 43.0 46.6 L 43.0 46.9 L 100.7 46.9" id="125,39" /><path d="M 41.8 47.9 L 41.8 47.5 L 95.4 47.5" id="115,38" /><path d="M 41.8 47.9 L 41.8 48.2 L 101.8 48.2" id="115,37" /><path d="M 60.1 49.1 L 60.1 48.8 L 94.6 48.8" id="108,36" /><path d="M 60.1 49.1 L 60.1 49.4 L 94.7 49.4" id="108,35" /><path d="M 56.6 50.3 L 56.6 50.0 L 106.2 50.0" id="107,34" /><path d="M 56.6 50.3 L 56.6 50.6 L 100.2 50.6" id="107,33" /><path d="M 45.0 51.5 L 45.0 51.2 L 95.4 51.2" id="106,32" /><path d="M 45.0 51.5 L 45.0 51.8 L 104.7 51.8" id="106,31" /><path d="M 40.7 52.9 L 40.7 52.5 L 95.5 52.5" id="105,30" /><path d="M 45.4 53.4 L 45.4 53.1 L 98.9 53.1" id="99,29" /><path d="M 45.4 53.4 L 45.4 53.7 L 101.8 53.7" id="99,28" /><path d="M 45.9 55.1 L 45.9 54.3 L 99.5 54.3" id="104,27" /><path d="M 58.3 55.2 L 58.3 54.9 L 88.7 54.9" id="92,26" /><path d="M 58.3 55.2 L 58.3 55.5 L 100.6 55.5" id="92,25" /><path d="M 53.5 56.6 L 53.5 56.1 L 100.7 56.1" id="91,24" /><path d="M 66.3 57.0 L 66.3 56.7 L 98.8 56.7" id="84,23" /><path d="M 66.3 57.0 L 66.3 57.4 L 99.3 57.4" id="84,22" /><path d="M 42.5 59.0 L 42.5 58.0 L 110.3 58.0" id="97,21" /><path d="M 58.2 58.9 L 58.2 58.6 L 94.3 58.6" id="83,20" /><path d="M 58.2 58.9 L 58.2 59.2 L 95.8 59.2" id="83,19" /><path d="M 53.4 60.3 L 53.4 59.8 L 97.3 59.8" id="78,18" /><path d="M 71.1 60.7 L 71.1 60.4 L 104.9 60.4" id="72,17" /><path d="M 71.1 60.7 L 71.1 61.0 L 106.0 61.0" id="72,16" /><path d="M 48.7 62.2 L 48.7 61.6 L 101.6 61.6" id="77,15" /><path d="M 53.4 62.7 L 53.4 62.3 L 105.8 62.3" id="71,14" /><path d="M 69.5 63.2 L 69.5 62.9 L 102.8 62.9" id="69,13" /><path d="M 69.5 63.2 L 69.5 63.5 L 106.6 63.5" id="69,12" /><path d="M 48.3 64.6 L 48.3 64.1 L 101.8 64.1" id="89,11" /><path d="M 49.4 65.2 L 49.4 64.7 L 103.4 64.7" id="81,10" /><path d="M 51.1 65.6 L 51.1 65.3 L 95.0 65.3" id="76,9" /><path d="M 51.1 65.6 L 51.1 65.9 L 101.1 65.9" id="76,8" /><path d="M 48.1 67.0 L 48.1 66.5 L 97.5 66.5" id="80,7" /><path d="M 52.3 67.5 L 52.3 67.2 L 96.7 67.2" id="75,6" /><path d="M 52.3 67.5 L 52.3 67.8 L 93.6 67.8" id="75,5" /><path d="M 53.7 68.7 L 53.7 68.4 L 102.6 68.4" id="74,4" /><path d="M 53.7 68.7 L 53.7 69.0 L 102.6 69.0" id="74,3" /><path d="M 56.2 70.1 L 56.2 69.6 L 95.1 69.6" id="73,2" /><path d="M 58.6 70.5 L 58.6 70.2 L 101.8 70.2" id="70,1" /><path d="M 58.6 70.5 L 58.6 70.8 L 100.0 70.8" id="70,0" /></g><g class="toytree-Nodes" style="fill:rgb(100%,0%,0%);fill-opacity:1.0;stroke:None;stroke-width:1"><g id="node-0" transform="translate(99.963,70.833)"><circle r="2.5" /></g><g id="node-1" transform="translate(101.840,70.221)"><circle r="2.5" /></g><g id="node-2" transform="translate(95.114,69.608)"><circle r="2.5" /></g><g id="node-3" transform="translate(102.571,68.995)"><circle r="2.5" /></g><g id="node-4" transform="translate(102.598,68.382)"><circle r="2.5" /></g><g id="node-5" transform="translate(93.626,67.770)"><circle r="2.5" /></g><g id="node-6" transform="translate(96.722,67.157)"><circle r="2.5" /></g><g id="node-7" transform="translate(97.476,66.544)"><circle r="2.5" /></g><g id="node-8" transform="translate(101.053,65.931)"><circle r="2.5" /></g><g id="node-9" transform="translate(95.012,65.319)"><circle r="2.5" /></g><g id="node-10" transform="translate(103.357,64.706)"><circle r="2.5" /></g><g id="node-11" transform="translate(101.823,64.093)"><circle r="2.5" /></g><g id="node-12" transform="translate(106.588,63.480)"><circle r="2.5" /></g><g id="node-13" transform="translate(102.810,62.868)"><circle r="2.5" /></g><g id="node-14" transform="translate(105.823,62.255)"><circle r="2.5" /></g><g id="node-15" transform="translate(101.566,61.642)"><circle r="2.5" /></g><g id="node-16" transform="translate(106.016,61.029)"><circle r="2.5" /></g><g id="node-17" transform="translate(104.886,60.417)"><circle r="2.5" /></g><g id="node-18" transform="translate(97.326,59.804)"><circle r="2.5" /></g><g id="node-19" transform="translate(95.784,59.191)"><circle r="2.5" /></g><g id="node-20" transform="translate(94.257,58.578)"><circle r="2.5" /></g><g id="node-21" transform="translate(110.263,57.966)"><circle r="2.5" /></g><g id="node-22" transform="translate(99.270,57.353)"><circle r="2.5" /></g><g id="node-23" transform="translate(98.787,56.740)"><circle r="2.5" /></g><g id="node-24" transform="translate(100.654,56.127)"><circle r="2.5" /></g><g id="node-25" transform="translate(100.629,55.515)"><circle r="2.5" /></g><g id="node-26" transform="translate(88.734,54.902)"><circle r="2.5" /></g><g id="node-27" transform="translate(99.525,54.289)"><circle r="2.5" /></g><g id="node-28" transform="translate(101.772,53.676)"><circle r="2.5" /></g><g id="node-29" transform="translate(98.855,53.064)"><circle r="2.5" /></g><g id="node-30" transform="translate(95.525,52.451)"><circle r="2.5" /></g><g id="node-31" transform="translate(104.693,51.838)"><circle r="2.5" /></g><g id="node-32" transform="translate(95.357,51.225)"><circle r="2.5" /></g><g id="node-33" transform="translate(100.216,50.613)"><circle r="2.5" /></g><g id="node-34" transform="translate(106.183,50.000)"><circle r="2.5" /></g><g id="node-35" transform="translate(94.722,49.387)"><circle r="2.5" /></g><g id="node-36" transform="translate(94.601,48.775)"><circle r="2.5" /></g><g id="node-37" transform="translate(101.753,48.162)"><circle r="2.5" /></g><g id="node-38" transform="translate(95.380,47.549)"><circle r="2.5" /></g><g id="node-39" transform="translate(100.678,46.936)"><circle r="2.5" /></g><g id="node-40" transform="translate(94.995,46.324)"><circle r="2.5" /></g><g id="node-41" transform="translate(98.861,45.711)"><circle r="2.5" /></g><g id="node-42" transform="translate(101.977,45.098)"><circle r="2.5" /></g><g id="node-43" transform="translate(102.428,44.485)"><circle r="2.5" /></g><g id="node-44" transform="translate(97.618,43.873)"><circle r="2.5" /></g><g id="node-45" transform="translate(100.454,43.260)"><circle r="2.5" /></g><g id="node-46" transform="translate(98.804,42.647)"><circle r="2.5" /></g><g id="node-47" transform="translate(98.450,42.034)"><circle r="2.5" /></g><g id="node-48" transform="translate(101.848,41.422)"><circle r="2.5" /></g><g id="node-49" transform="translate(103.040,40.809)"><circle r="2.5" /></g><g id="node-50" transform="translate(99.509,40.196)"><circle r="2.5" /></g><g id="node-51" transform="translate(101.544,39.583)"><circle r="2.5" /></g><g id="node-52" transform="translate(104.405,38.971)"><circle r="2.5" /></g><g id="node-53" transform="translate(96.420,38.358)"><circle r="2.5" /></g><g id="node-54" transform="translate(94.153,37.745)"><circle r="2.5" /></g><g id="node-55" transform="translate(97.741,37.132)"><circle r="2.5" /></g><g id="node-56" transform="translate(102.224,36.520)"><circle r="2.5" /></g><g id="node-57" transform="translate(102.259,35.907)"><circle r="2.5" /></g><g id="node-58" transform="translate(98.138,35.294)"><circle r="2.5" /></g><g id="node-59" transform="translate(96.378,34.681)"><circle r="2.5" /></g><g id="node-60" transform="translate(98.144,34.069)"><circle r="2.5" /></g><g id="node-61" transform="translate(94.795,33.456)"><circle r="2.5" /></g><g id="node-62" transform="translate(102.635,32.843)"><circle r="2.5" /></g><g id="node-63" transform="translate(95.426,32.230)"><circle r="2.5" /></g><g id="node-64" transform="translate(94.239,31.618)"><circle r="2.5" /></g><g id="node-65" transform="translate(102.378,31.005)"><circle r="2.5" /></g><g id="node-66" transform="translate(108.310,30.392)"><circle r="2.5" /></g><g id="node-67" transform="translate(99.782,29.779)"><circle r="2.5" /></g><g id="node-68" transform="translate(105.332,29.167)"><circle r="2.5" /></g><g id="node-69" transform="translate(69.547,63.174)"><circle r="0.0" /></g><g id="node-70" transform="translate(58.592,70.527)"><circle r="0.0" /></g><g id="node-71" transform="translate(53.385,62.714)"><circle r="0.0" /></g><g id="node-72" transform="translate(71.126,60.723)"><circle r="0.0" /></g><g id="node-73" transform="translate(56.185,70.067)"><circle r="0.0" /></g><g id="node-74" transform="translate(53.702,68.689)"><circle r="0.0" /></g><g id="node-75" transform="translate(52.280,67.463)"><circle r="0.0" /></g><g id="node-76" transform="translate(51.098,65.625)"><circle r="0.0" /></g><g id="node-77" transform="translate(48.738,62.178)"><circle r="0.0" /></g><g id="node-78" transform="translate(53.431,60.263)"><circle r="0.0" /></g><g id="node-79" transform="translate(49.569,69.378)"><circle r="0.0" /></g><g id="node-80" transform="translate(48.076,67.004)"><circle r="0.0" /></g><g id="node-81" transform="translate(49.379,65.165)"><circle r="0.0" /></g><g id="node-82" transform="translate(46.150,61.221)"><circle r="0.0" /></g><g id="node-83" transform="translate(58.164,58.885)"><circle r="0.0" /></g><g id="node-84" transform="translate(66.310,57.047)"><circle r="0.0" /></g><g id="node-85" transform="translate(70.817,45.404)"><circle r="0.0" /></g><g id="node-86" transform="translate(60.894,42.341)"><circle r="0.0" /></g><g id="node-87" transform="translate(71.333,41.115)"><circle r="0.0" /></g><g id="node-88" transform="translate(45.003,68.191)"><circle r="0.0" /></g><g id="node-89" transform="translate(48.251,64.629)"><circle r="0.0" /></g><g id="node-90" transform="translate(43.813,60.053)"><circle r="0.0" /></g><g id="node-91" transform="translate(53.515,56.587)"><circle r="0.0" /></g><g id="node-92" transform="translate(58.312,55.208)"><circle r="0.0" /></g><g id="node-93" transform="translate(64.032,44.945)"><circle r="0.0" /></g><g id="node-94" transform="translate(51.030,43.566)"><circle r="0.0" /></g><g id="node-95" transform="translate(53.455,41.728)"><circle r="0.0" /></g><g id="node-96" transform="translate(44.074,66.410)"><circle r="0.0" /></g><g id="node-97" transform="translate(42.525,59.009)"><circle r="0.0" /></g><g id="node-98" transform="translate(49.256,55.898)"><circle r="0.0" /></g><g id="node-99" transform="translate(45.394,53.370)"><circle r="0.0" /></g><g id="node-100" transform="translate(47.032,44.256)"><circle r="0.0" /></g><g id="node-101" transform="translate(47.793,40.962)"><circle r="0.0" /></g><g id="node-102" transform="translate(52.972,35.600)"><circle r="0.0" /></g><g id="node-103" transform="translate(42.224,62.710)"><circle r="0.0" /></g><g id="node-104" transform="translate(45.859,55.093)"><circle r="0.0" /></g><g id="node-105" transform="translate(40.687,52.911)"><circle r="0.0" /></g><g id="node-106" transform="translate(44.960,51.532)"><circle r="0.0" /></g><g id="node-107" transform="translate(56.557,50.306)"><circle r="0.0" /></g><g id="node-108" transform="translate(60.094,49.081)"><circle r="0.0" /></g><g id="node-109" transform="translate(45.158,42.609)"><circle r="0.0" /></g><g id="node-110" transform="translate(40.545,35.141)"><circle r="0.0" /></g><g id="node-111" transform="translate(46.516,33.762)"><circle r="0.0" /></g><g id="node-112" transform="translate(40.229,58.902)"><circle r="0.0" /></g><g id="node-113" transform="translate(39.501,52.221)"><circle r="0.0" /></g><g id="node-114" transform="translate(42.307,49.694)"><circle r="0.0" /></g><g id="node-115" transform="translate(41.797,47.855)"><circle r="0.0" /></g><g id="node-116" transform="translate(36.547,41.096)"><circle r="0.0" /></g><g id="node-117" transform="translate(38.765,34.452)"><circle r="0.0" /></g><g id="node-118" transform="translate(38.626,55.561)"><circle r="0.0" /></g><g id="node-119" transform="translate(38.724,48.775)"><circle r="0.0" /></g><g id="node-120" transform="translate(32.365,40.033)"><circle r="0.0" /></g><g id="node-121" transform="translate(44.165,38.051)"><circle r="0.0" /></g><g id="node-122" transform="translate(37.230,33.647)"><circle r="0.0" /></g><g id="node-123" transform="translate(39.032,30.699)"><circle r="0.0" /></g><g id="node-124" transform="translate(37.696,52.168)"><circle r="0.0" /></g><g id="node-125" transform="translate(42.966,46.630)"><circle r="0.0" /></g><g id="node-126" transform="translate(31.680,39.042)"><circle r="0.0" /></g><g id="node-127" transform="translate(40.973,36.826)"><circle r="0.0" /></g><g id="node-128" transform="translate(35.865,32.939)"><circle r="0.0" /></g><g id="node-129" transform="translate(37.906,30.239)"><circle r="0.0" /></g><g id="node-130" transform="translate(34.414,49.399)"><circle r="0.0" /></g><g id="node-131" transform="translate(29.559,37.934)"><circle r="0.0" /></g><g id="node-132" transform="translate(32.128,32.278)"><circle r="0.0" /></g><g id="node-133" transform="translate(35.347,29.703)"><circle r="0.0" /></g><g id="node-134" transform="translate(25.972,43.667)"><circle r="0.0" /></g><g id="node-135" transform="translate(31.633,30.991)"><circle r="0.0" /></g><g id="node-136" transform="translate(25.000,37.329)"><circle r="0.0" /></g></g></g></g></g><g class="toyplot-coordinates-Cartesian" id="t73bf4573bbfa4151b781b3aa7ce08540"><clipPath id="t3cdd61df049a47b588e9ee383bcb0154"><rect x="155.0" y="15.0" width="110.0" height="70.0" /></clipPath><g clip-path="url(#t3cdd61df049a47b588e9ee383bcb0154)"><g class="toytree-mark-Toytree" id="tc5cb2ae1525e43deb1fb26e4658c11b8"><g class="toytree-Edges" style="fill:none;stroke:rgb(14.9%,14.9%,14.9%);stroke-linecap:round;stroke-opacity:1;stroke-width:0.5"><path d="M 165.0 33.1 L 165.0 30.1 L 178.9 30.1" id="136,135" /><path d="M 165.0 33.1 L 165.0 36.2 L 172.8 36.2" id="136,134" /><path d="M 178.9 30.1 L 178.9 31.0 L 188.4 31.0" id="135,133" /><path d="M 172.8 36.2 L 172.8 34.4 L 189.8 34.4" id="134,132" /><path d="M 172.8 36.2 L 172.8 38.0 L 183.9 38.0" id="134,131" /><path d="M 188.4 31.0 L 188.4 30.1 L 192.0 30.1" id="133,130" /><path d="M 188.4 31.0 L 188.4 32.0 L 204.4 32.0" id="133,129" /><path d="M 183.9 38.0 L 183.9 40.7 L 190.2 40.7" id="131,128" /><path d="M 204.4 32.0 L 204.4 31.3 L 210.6 31.3" id="129,127" /><path d="M 204.4 32.0 L 204.4 32.7 L 205.1 32.7" id="129,126" /><path d="M 190.2 40.7 L 190.2 36.9 L 198.8 36.9" id="128,125" /><path d="M 190.2 40.7 L 190.2 44.5 L 190.9 44.5" id="128,124" /><path d="M 205.1 32.7 L 205.1 33.1 L 206.7 33.1" id="126,123" /><path d="M 198.8 36.9 L 198.8 37.8 L 199.6 37.8" id="125,122" /><path d="M 190.9 44.5 L 190.9 42.6 L 192.9 42.6" id="124,121" /><path d="M 190.9 44.5 L 190.9 46.4 L 195.3 46.4" id="124,120" /><path d="M 199.6 37.8 L 199.6 36.8 L 207.6 36.8" id="122,119" /><path d="M 199.6 37.8 L 199.6 38.8 L 201.0 38.8" id="122,118" /><path d="M 192.9 42.6 L 192.9 43.2 L 198.5 43.2" id="121,117" /><path d="M 195.3 46.4 L 195.3 47.6 L 198.9 47.6" id="120,116" /><path d="M 201.0 38.8 L 201.0 38.1 L 211.9 38.1" id="118,115" /><path d="M 201.0 38.8 L 201.0 39.5 L 204.7 39.5" id="118,114" /><path d="M 198.5 43.2 L 198.5 43.7 L 201.7 43.7" id="117,113" /><path d="M 198.9 47.6 L 198.9 49.6 L 201.9 49.6" id="116,112" /><path d="M 204.7 39.5 L 204.7 40.1 L 205.6 40.1" id="114,111" /><path d="M 201.7 43.7 L 201.7 44.2 L 205.8 44.2" id="113,110" /><path d="M 201.9 49.6 L 201.9 46.6 L 212.8 46.6" id="112,109" /><path d="M 201.9 49.6 L 201.9 52.5 L 203.1 52.5" id="112,108" /><path d="M 205.6 40.1 L 205.6 40.7 L 208.7 40.7" id="111,107" /><path d="M 203.1 52.5 L 203.1 49.2 L 205.0 49.2" id="108,106" /><path d="M 203.1 52.5 L 203.1 55.8 L 204.2 55.8" id="108,105" /><path d="M 208.7 40.7 L 208.7 41.1 L 213.0 41.1" id="107,104" /><path d="M 205.0 49.2 L 205.0 48.0 L 207.7 48.0" id="106,103" /><path d="M 205.0 49.2 L 205.0 50.4 L 206.5 50.4" id="106,102" /><path d="M 204.2 55.8 L 204.2 52.8 L 210.7 52.8" id="105,101" /><path d="M 204.2 55.8 L 204.2 58.8 L 206.1 58.8" id="105,100" /><path d="M 207.7 48.0 L 207.7 48.5 L 213.9 48.5" id="103,99" /><path d="M 206.5 50.4 L 206.5 49.7 L 211.1 49.7" id="102,98" /><path d="M 206.5 50.4 L 206.5 51.1 L 212.3 51.1" id="102,97" /><path d="M 206.1 58.8 L 206.1 55.8 L 208.0 55.8" id="100,96" /><path d="M 206.1 58.8 L 206.1 61.8 L 207.1 61.8" id="100,95" /><path d="M 212.3 51.1 L 212.3 51.5 L 213.7 51.5" id="97,94" /><path d="M 208.0 55.8 L 208.0 54.6 L 209.6 54.6" id="96,93" /><path d="M 208.0 55.8 L 208.0 57.0 L 210.7 57.0" id="96,92" /><path d="M 207.1 61.8 L 207.1 59.8 L 208.3 59.8" id="95,91" /><path d="M 207.1 61.8 L 207.1 63.9 L 210.7 63.9" id="95,90" /><path d="M 209.6 54.6 L 209.6 54.0 L 217.7 54.0" id="93,89" /><path d="M 209.6 54.6 L 209.6 55.2 L 224.1 55.2" id="93,88" /><path d="M 210.7 57.0 L 210.7 56.4 L 212.8 56.4" id="92,87" /><path d="M 210.7 57.0 L 210.7 57.7 L 216.3 57.7" id="92,86" /><path d="M 208.3 59.8 L 208.3 58.9 L 214.4 58.9" id="91,85" /><path d="M 208.3 59.8 L 208.3 60.7 L 211.3 60.7" id="91,84" /><path d="M 210.7 63.9 L 210.7 65.5 L 211.6 65.5" id="90,83" /><path d="M 211.3 60.7 L 211.3 60.1 L 218.1 60.1" id="84,82" /><path d="M 211.3 60.7 L 211.3 61.3 L 219.2 61.3" id="84,81" /><path d="M 211.6 65.5 L 211.6 63.9 L 213.9 63.9" id="83,80" /><path d="M 211.6 65.5 L 211.6 67.2 L 213.0 67.2" id="83,79" /><path d="M 213.9 63.9 L 213.9 63.2 L 218.0 63.2" id="80,78" /><path d="M 213.9 63.9 L 213.9 64.6 L 216.1 64.6" id="80,77" /><path d="M 213.0 67.2 L 213.0 66.2 L 217.1 66.2" id="79,76" /><path d="M 213.0 67.2 L 213.0 68.2 L 216.6 68.2" id="79,75" /><path d="M 216.1 64.6 L 216.1 65.0 L 219.5 65.0" id="77,74" /><path d="M 216.6 68.2 L 216.6 69.1 L 218.3 69.1" id="75,73" /><path d="M 218.3 69.1 L 218.3 68.2 L 219.7 68.2" id="73,72" /><path d="M 218.3 69.1 L 218.3 70.1 L 222.5 70.1" id="73,71" /><path d="M 219.7 68.2 L 219.7 68.7 L 224.6 68.7" id="72,70" /><path d="M 222.5 70.1 L 222.5 70.5 L 224.9 70.5" id="71,69" /><path d="M 178.9 30.1 L 178.9 29.2 L 221.7 29.2" id="135,68" /><path d="M 192.0 30.1 L 192.0 29.8 L 227.0 29.8" id="130,67" /><path d="M 192.0 30.1 L 192.0 30.4 L 219.3 30.4" id="130,66" /><path d="M 210.6 31.3 L 210.6 31.0 L 221.9 31.0" id="127,65" /><path d="M 210.6 31.3 L 210.6 31.6 L 221.5 31.6" id="127,64" /><path d="M 205.1 32.7 L 205.1 32.2 L 223.5 32.2" id="126,63" /><path d="M 206.7 33.1 L 206.7 32.8 L 223.6 32.8" id="123,62" /><path d="M 206.7 33.1 L 206.7 33.5 L 222.4 33.5" id="123,61" /><path d="M 189.8 34.4 L 189.8 34.1 L 216.0 34.1" id="132,60" /><path d="M 189.8 34.4 L 189.8 34.7 L 210.0 34.7" id="132,59" /><path d="M 183.9 38.0 L 183.9 35.3 L 214.9 35.3" id="131,58" /><path d="M 198.8 36.9 L 198.8 35.9 L 216.0 35.9" id="125,57" /><path d="M 207.6 36.8 L 207.6 36.5 L 220.0 36.5" id="119,56" /><path d="M 207.6 36.8 L 207.6 37.1 L 219.6 37.1" id="119,55" /><path d="M 211.9 38.1 L 211.9 37.7 L 218.9 37.7" id="115,54" /><path d="M 211.9 38.1 L 211.9 38.4 L 223.1 38.4" id="115,53" /><path d="M 204.7 39.5 L 204.7 39.0 L 219.5 39.0" id="114,52" /><path d="M 205.6 40.1 L 205.6 39.6 L 230.0 39.6" id="111,51" /><path d="M 208.7 40.7 L 208.7 40.2 L 222.2 40.2" id="107,50" /><path d="M 213.0 41.1 L 213.0 40.8 L 219.7 40.8" id="104,49" /><path d="M 213.0 41.1 L 213.0 41.4 L 224.7 41.4" id="104,48" /><path d="M 192.9 42.6 L 192.9 42.0 L 214.8 42.0" id="121,47" /><path d="M 198.5 43.2 L 198.5 42.6 L 204.1 42.6" id="117,46" /><path d="M 201.7 43.7 L 201.7 43.3 L 218.8 43.3" id="113,45" /><path d="M 205.8 44.2 L 205.8 43.9 L 222.0 43.9" id="110,44" /><path d="M 205.8 44.2 L 205.8 44.5 L 229.8 44.5" id="110,43" /><path d="M 195.3 46.4 L 195.3 45.1 L 206.8 45.1" id="120,42" /><path d="M 198.9 47.6 L 198.9 45.7 L 211.7 45.7" id="116,41" /><path d="M 212.8 46.6 L 212.8 46.3 L 212.8 46.3" id="109,40" /><path d="M 212.8 46.6 L 212.8 46.9 L 223.4 46.9" id="109,39" /><path d="M 207.7 48.0 L 207.7 47.5 L 222.5 47.5" id="103,38" /><path d="M 213.9 48.5 L 213.9 48.2 L 220.7 48.2" id="99,37" /><path d="M 213.9 48.5 L 213.9 48.8 L 213.9 48.8" id="99,36" /><path d="M 211.1 49.7 L 211.1 49.4 L 231.1 49.4" id="98,35" /><path d="M 211.1 49.7 L 211.1 50.0 L 213.4 50.0" id="98,34" /><path d="M 212.3 51.1 L 212.3 50.6 L 226.9 50.6" id="97,33" /><path d="M 213.7 51.5 L 213.7 51.2 L 217.0 51.2" id="94,32" /><path d="M 213.7 51.5 L 213.7 51.8 L 223.0 51.8" id="94,31" /><path d="M 210.7 52.8 L 210.7 52.5 L 241.6 52.5" id="101,30" /><path d="M 210.7 52.8 L 210.7 53.1 L 250.3 53.1" id="101,29" /><path d="M 217.7 54.0 L 217.7 53.7 L 218.6 53.7" id="89,28" /><path d="M 217.7 54.0 L 217.7 54.3 L 222.9 54.3" id="89,27" /><path d="M 224.1 55.2 L 224.1 54.9 L 229.7 54.9" id="88,26" /><path d="M 224.1 55.2 L 224.1 55.5 L 238.0 55.5" id="88,25" /><path d="M 212.8 56.4 L 212.8 56.1 L 214.2 56.1" id="87,24" /><path d="M 212.8 56.4 L 212.8 56.7 L 231.8 56.7" id="87,23" /><path d="M 216.3 57.7 L 216.3 57.4 L 226.0 57.4" id="86,22" /><path d="M 216.3 57.7 L 216.3 58.0 L 227.3 58.0" id="86,21" /><path d="M 214.4 58.9 L 214.4 58.6 L 231.4 58.6" id="85,20" /><path d="M 214.4 58.9 L 214.4 59.2 L 218.8 59.2" id="85,19" /><path d="M 218.1 60.1 L 218.1 59.8 L 225.6 59.8" id="82,18" /><path d="M 218.1 60.1 L 218.1 60.4 L 218.4 60.4" id="82,17" /><path d="M 219.2 61.3 L 219.2 61.0 L 219.2 61.0" id="81,16" /><path d="M 219.2 61.3 L 219.2 61.6 L 226.3 61.6" id="81,15" /><path d="M 210.7 63.9 L 210.7 62.3 L 226.1 62.3" id="90,14" /><path d="M 218.0 63.2 L 218.0 62.9 L 224.5 62.9" id="78,13" /><path d="M 218.0 63.2 L 218.0 63.5 L 240.5 63.5" id="78,12" /><path d="M 216.1 64.6 L 216.1 64.1 L 217.9 64.1" id="77,11" /><path d="M 219.5 65.0 L 219.5 64.7 L 230.4 64.7" id="74,10" /><path d="M 219.5 65.0 L 219.5 65.3 L 220.8 65.3" id="74,9" /><path d="M 217.1 66.2 L 217.1 65.9 L 240.5 65.9" id="76,8" /><path d="M 217.1 66.2 L 217.1 66.5 L 217.1 66.5" id="76,7" /><path d="M 216.6 68.2 L 216.6 67.2 L 226.4 67.2" id="75,6" /><path d="M 219.7 68.2 L 219.7 67.8 L 229.2 67.8" id="72,5" /><path d="M 224.6 68.7 L 224.6 68.4 L 233.4 68.4" id="70,4" /><path d="M 224.6 68.7 L 224.6 69.0 L 243.8 69.0" id="70,3" /><path d="M 222.5 70.1 L 222.5 69.6 L 236.8 69.6" id="71,2" /><path d="M 224.9 70.5 L 224.9 70.2 L 228.3 70.2" id="69,1" /><path d="M 224.9 70.5 L 224.9 70.8 L 235.8 70.8" id="69,0" /></g><g class="toytree-Nodes" style="fill:rgb(100%,0%,0%);fill-opacity:1.0;stroke:None;stroke-width:1"><g id="node-0" transform="translate(235.750,70.833)"><circle r="2.5" /></g><g id="node-1" transform="translate(228.294,70.221)"><circle r="2.5" /></g><g id="node-2" transform="translate(236.803,69.608)"><circle r="2.5" /></g><g id="node-3" transform="translate(243.806,68.995)"><circle r="2.5" /></g><g id="node-4" transform="translate(233.374,68.382)"><circle r="2.5" /></g><g id="node-5" transform="translate(229.234,67.770)"><circle r="2.5" /></g><g id="node-6" transform="translate(226.408,67.157)"><circle r="2.5" /></g><g id="node-7" transform="translate(217.068,66.544)"><circle r="2.5" /></g><g id="node-8" transform="translate(240.540,65.931)"><circle r="2.5" /></g><g id="node-9" transform="translate(220.805,65.319)"><circle r="2.5" /></g><g id="node-10" transform="translate(230.438,64.706)"><circle r="2.5" /></g><g id="node-11" transform="translate(217.866,64.093)"><circle r="2.5" /></g><g id="node-12" transform="translate(240.453,63.480)"><circle r="2.5" /></g><g id="node-13" transform="translate(224.529,62.868)"><circle r="2.5" /></g><g id="node-14" transform="translate(226.053,62.255)"><circle r="2.5" /></g><g id="node-15" transform="translate(226.343,61.642)"><circle r="2.5" /></g><g id="node-16" transform="translate(219.210,61.029)"><circle r="2.5" /></g><g id="node-17" transform="translate(218.355,60.417)"><circle r="2.5" /></g><g id="node-18" transform="translate(225.553,59.804)"><circle r="2.5" /></g><g id="node-19" transform="translate(218.833,59.191)"><circle r="2.5" /></g><g id="node-20" transform="translate(231.401,58.578)"><circle r="2.5" /></g><g id="node-21" transform="translate(227.275,57.966)"><circle r="2.5" /></g><g id="node-22" transform="translate(226.039,57.353)"><circle r="2.5" /></g><g id="node-23" transform="translate(231.764,56.740)"><circle r="2.5" /></g><g id="node-24" transform="translate(214.196,56.127)"><circle r="2.5" /></g><g id="node-25" transform="translate(237.974,55.515)"><circle r="2.5" /></g><g id="node-26" transform="translate(229.672,54.902)"><circle r="2.5" /></g><g id="node-27" transform="translate(222.865,54.289)"><circle r="2.5" /></g><g id="node-28" transform="translate(218.643,53.676)"><circle r="2.5" /></g><g id="node-29" transform="translate(250.263,53.064)"><circle r="2.5" /></g><g id="node-30" transform="translate(241.584,52.451)"><circle r="2.5" /></g><g id="node-31" transform="translate(222.985,51.838)"><circle r="2.5" /></g><g id="node-32" transform="translate(217.044,51.225)"><circle r="2.5" /></g><g id="node-33" transform="translate(226.941,50.613)"><circle r="2.5" /></g><g id="node-34" transform="translate(213.449,50.000)"><circle r="2.5" /></g><g id="node-35" transform="translate(231.109,49.387)"><circle r="2.5" /></g><g id="node-36" transform="translate(213.950,48.775)"><circle r="2.5" /></g><g id="node-37" transform="translate(220.675,48.162)"><circle r="2.5" /></g><g id="node-38" transform="translate(222.525,47.549)"><circle r="2.5" /></g><g id="node-39" transform="translate(223.403,46.936)"><circle r="2.5" /></g><g id="node-40" transform="translate(212.839,46.324)"><circle r="2.5" /></g><g id="node-41" transform="translate(211.664,45.711)"><circle r="2.5" /></g><g id="node-42" transform="translate(206.791,45.098)"><circle r="2.5" /></g><g id="node-43" transform="translate(229.772,44.485)"><circle r="2.5" /></g><g id="node-44" transform="translate(221.983,43.873)"><circle r="2.5" /></g><g id="node-45" transform="translate(218.826,43.260)"><circle r="2.5" /></g><g id="node-46" transform="translate(204.077,42.647)"><circle r="2.5" /></g><g id="node-47" transform="translate(214.816,42.034)"><circle r="2.5" /></g><g id="node-48" transform="translate(224.655,41.422)"><circle r="2.5" /></g><g id="node-49" transform="translate(219.699,40.809)"><circle r="2.5" /></g><g id="node-50" transform="translate(222.170,40.196)"><circle r="2.5" /></g><g id="node-51" transform="translate(230.046,39.583)"><circle r="2.5" /></g><g id="node-52" transform="translate(219.538,38.971)"><circle r="2.5" /></g><g id="node-53" transform="translate(223.077,38.358)"><circle r="2.5" /></g><g id="node-54" transform="translate(218.919,37.745)"><circle r="2.5" /></g><g id="node-55" transform="translate(219.605,37.132)"><circle r="2.5" /></g><g id="node-56" transform="translate(219.952,36.520)"><circle r="2.5" /></g><g id="node-57" transform="translate(216.013,35.907)"><circle r="2.5" /></g><g id="node-58" transform="translate(214.923,35.294)"><circle r="2.5" /></g><g id="node-59" transform="translate(210.049,34.681)"><circle r="2.5" /></g><g id="node-60" transform="translate(215.996,34.069)"><circle r="2.5" /></g><g id="node-61" transform="translate(222.388,33.456)"><circle r="2.5" /></g><g id="node-62" transform="translate(223.625,32.843)"><circle r="2.5" /></g><g id="node-63" transform="translate(223.506,32.230)"><circle r="2.5" /></g><g id="node-64" transform="translate(221.474,31.618)"><circle r="2.5" /></g><g id="node-65" transform="translate(221.926,31.005)"><circle r="2.5" /></g><g id="node-66" transform="translate(219.341,30.392)"><circle r="2.5" /></g><g id="node-67" transform="translate(227.021,29.779)"><circle r="2.5" /></g><g id="node-68" transform="translate(221.661,29.167)"><circle r="2.5" /></g><g id="node-69" transform="translate(224.898,70.527)"><circle r="0.0" /></g><g id="node-70" transform="translate(224.553,68.689)"><circle r="0.0" /></g><g id="node-71" transform="translate(222.477,70.067)"><circle r="0.0" /></g><g id="node-72" transform="translate(219.658,68.229)"><circle r="0.0" /></g><g id="node-73" transform="translate(218.347,69.148)"><circle r="0.0" /></g><g id="node-74" transform="translate(219.532,65.012)"><circle r="0.0" /></g><g id="node-75" transform="translate(216.579,68.153)"><circle r="0.0" /></g><g id="node-76" transform="translate(217.068,66.238)"><circle r="0.0" /></g><g id="node-77" transform="translate(216.148,64.553)"><circle r="0.0" /></g><g id="node-78" transform="translate(217.961,63.174)"><circle r="0.0" /></g><g id="node-79" transform="translate(212.983,67.195)"><circle r="0.0" /></g><g id="node-80" transform="translate(213.887,63.863)"><circle r="0.0" /></g><g id="node-81" transform="translate(219.210,61.336)"><circle r="0.0" /></g><g id="node-82" transform="translate(218.141,60.110)"><circle r="0.0" /></g><g id="node-83" transform="translate(211.591,65.529)"><circle r="0.0" /></g><g id="node-84" transform="translate(211.343,60.723)"><circle r="0.0" /></g><g id="node-85" transform="translate(214.425,58.885)"><circle r="0.0" /></g><g id="node-86" transform="translate(216.289,57.659)"><circle r="0.0" /></g><g id="node-87" transform="translate(212.824,56.434)"><circle r="0.0" /></g><g id="node-88" transform="translate(224.133,55.208)"><circle r="0.0" /></g><g id="node-89" transform="translate(217.654,53.983)"><circle r="0.0" /></g><g id="node-90" transform="translate(210.726,63.892)"><circle r="0.0" /></g><g id="node-91" transform="translate(208.316,59.804)"><circle r="0.0" /></g><g id="node-92" transform="translate(210.743,57.047)"><circle r="0.0" /></g><g id="node-93" transform="translate(209.585,54.596)"><circle r="0.0" /></g><g id="node-94" transform="translate(213.663,51.532)"><circle r="0.0" /></g><g id="node-95" transform="translate(207.054,61.848)"><circle r="0.0" /></g><g id="node-96" transform="translate(207.965,55.821)"><circle r="0.0" /></g><g id="node-97" transform="translate(212.277,51.072)"><circle r="0.0" /></g><g id="node-98" transform="translate(211.095,49.694)"><circle r="0.0" /></g><g id="node-99" transform="translate(213.950,48.468)"><circle r="0.0" /></g><g id="node-100" transform="translate(206.142,58.835)"><circle r="0.0" /></g><g id="node-101" transform="translate(210.691,52.757)"><circle r="0.0" /></g><g id="node-102" transform="translate(206.526,50.383)"><circle r="0.0" /></g><g id="node-103" transform="translate(207.661,48.009)"><circle r="0.0" /></g><g id="node-104" transform="translate(212.980,41.115)"><circle r="0.0" /></g><g id="node-105" transform="translate(204.203,55.796)"><circle r="0.0" /></g><g id="node-106" transform="translate(204.955,49.196)"><circle r="0.0" /></g><g id="node-107" transform="translate(208.680,40.656)"><circle r="0.0" /></g><g id="node-108" transform="translate(203.072,52.496)"><circle r="0.0" /></g><g id="node-109" transform="translate(212.839,46.630)"><circle r="0.0" /></g><g id="node-110" transform="translate(205.803,44.179)"><circle r="0.0" /></g><g id="node-111" transform="translate(205.553,40.119)"><circle r="0.0" /></g><g id="node-112" transform="translate(201.867,49.563)"><circle r="0.0" /></g><g id="node-113" transform="translate(201.665,43.719)"><circle r="0.0" /></g><g id="node-114" transform="translate(204.745,39.545)"><circle r="0.0" /></g><g id="node-115" transform="translate(211.878,38.051)"><circle r="0.0" /></g><g id="node-116" transform="translate(198.902,47.637)"><circle r="0.0" /></g><g id="node-117" transform="translate(198.489,43.183)"><circle r="0.0" /></g><g id="node-118" transform="translate(201.025,38.798)"><circle r="0.0" /></g><g id="node-119" transform="translate(207.550,36.826)"><circle r="0.0" /></g><g id="node-120" transform="translate(195.312,46.367)"><circle r="0.0" /></g><g id="node-121" transform="translate(192.925,42.609)"><circle r="0.0" /></g><g id="node-122" transform="translate(199.619,37.812)"><circle r="0.0" /></g><g id="node-123" transform="translate(206.668,33.150)"><circle r="0.0" /></g><g id="node-124" transform="translate(190.857,44.488)"><circle r="0.0" /></g><g id="node-125" transform="translate(198.753,36.859)"><circle r="0.0" /></g><g id="node-126" transform="translate(205.100,32.690)"><circle r="0.0" /></g><g id="node-127" transform="translate(210.618,31.311)"><circle r="0.0" /></g><g id="node-128" transform="translate(190.169,40.674)"><circle r="0.0" /></g><g id="node-129" transform="translate(204.355,32.001)"><circle r="0.0" /></g><g id="node-130" transform="translate(191.982,30.086)"><circle r="0.0" /></g><g id="node-131" transform="translate(183.944,37.984)"><circle r="0.0" /></g><g id="node-132" transform="translate(189.780,34.375)"><circle r="0.0" /></g><g id="node-133" transform="translate(188.419,31.043)"><circle r="0.0" /></g><g id="node-134" transform="translate(172.794,36.179)"><circle r="0.0" /></g><g id="node-135" transform="translate(178.889,30.105)"><circle r="0.0" /></g><g id="node-136" transform="translate(165.000,33.142)"><circle r="0.0" /></g></g></g></g></g><g class="toyplot-coordinates-Cartesian" id="tdfac7f35b6d24daf8a8f6028c9cf325e"><clipPath id="t3b3d1e14eceb4ba2adaf5075183929d8"><rect x="295.0" y="15.0" width="110.0" height="70.0" /></clipPath><g clip-path="url(#t3b3d1e14eceb4ba2adaf5075183929d8)"><g class="toytree-mark-Toytree" id="teb661b0a8c3049b4aa4caead37e9f42c"><g class="toytree-Edges" style="fill:none;stroke:rgb(14.9%,14.9%,14.9%);stroke-linecap:round;stroke-opacity:1;stroke-width:0.5"><path d="M 305.0 33.1 L 305.0 30.1 L 317.3 30.1" id="136,135" /><path d="M 305.0 33.1 L 305.0 36.0 L 313.8 36.0" id="136,134" /><path d="M 317.3 30.1 L 317.3 31.0 L 324.7 31.0" id="135,133" /><path d="M 313.8 36.0 L 313.8 34.4 L 328.7 34.4" id="134,132" /><path d="M 313.8 36.0 L 313.8 37.6 L 324.5 37.6" id="134,131" /><path d="M 324.7 31.0 L 324.7 30.1 L 329.8 30.1" id="133,130" /><path d="M 324.7 31.0 L 324.7 32.0 L 340.8 32.0" id="133,129" /><path d="M 324.5 37.6 L 324.5 40.0 L 328.9 40.0" id="131,128" /><path d="M 340.8 32.0 L 340.8 31.3 L 342.0 31.3" id="129,127" /><path d="M 340.8 32.0 L 340.8 32.7 L 342.6 32.7" id="129,126" /><path d="M 328.9 40.0 L 328.9 36.7 L 330.5 36.7" id="128,125" /><path d="M 328.9 40.0 L 328.9 43.3 L 330.0 43.3" id="128,124" /><path d="M 342.6 32.7 L 342.6 33.1 L 348.0 33.1" id="126,123" /><path d="M 330.5 36.7 L 330.5 37.4 L 334.6 37.4" id="125,122" /><path d="M 330.0 43.3 L 330.0 40.2 L 336.6 40.2" id="124,121" /><path d="M 330.0 43.3 L 330.0 46.4 L 334.2 46.4" id="124,120" /><path d="M 334.6 37.4 L 334.6 36.8 L 338.1 36.8" id="122,119" /><path d="M 334.6 37.4 L 334.6 38.1 L 340.9 38.1" id="122,118" /><path d="M 336.6 40.2 L 336.6 39.3 L 344.4 39.3" id="121,117" /><path d="M 336.6 40.2 L 336.6 41.2 L 337.4 41.2" id="121,116" /><path d="M 334.2 46.4 L 334.2 47.7 L 337.1 47.7" id="120,115" /><path d="M 337.4 41.2 L 337.4 42.2 L 341.6 42.2" id="116,114" /><path d="M 337.1 47.7 L 337.1 49.7 L 342.9 49.7" id="115,113" /><path d="M 341.6 42.2 L 341.6 41.3 L 342.7 41.3" id="114,112" /><path d="M 341.6 42.2 L 341.6 43.2 L 344.3 43.2" id="114,111" /><path d="M 342.9 49.7 L 342.9 46.6 L 350.0 46.6" id="113,110" /><path d="M 342.9 49.7 L 342.9 52.7 L 344.4 52.7" id="113,109" /><path d="M 342.7 41.3 L 342.7 41.7 L 351.1 41.7" id="112,108" /><path d="M 344.3 43.2 L 344.3 43.7 L 344.9 43.7" id="111,107" /><path d="M 344.4 52.7 L 344.4 47.9 L 348.2 47.9" id="109,106" /><path d="M 344.4 52.7 L 344.4 57.5 L 344.8 57.5" id="109,105" /><path d="M 344.9 43.7 L 344.9 44.2 L 351.1 44.2" id="107,104" /><path d="M 344.8 57.5 L 344.8 51.9 L 346.5 51.9" id="105,103" /><path d="M 344.8 57.5 L 344.8 63.2 L 345.5 63.2" id="105,102" /><path d="M 346.5 51.9 L 346.5 49.3 L 351.2 49.3" id="103,101" /><path d="M 346.5 51.9 L 346.5 54.4 L 348.2 54.4" id="103,100" /><path d="M 345.5 63.2 L 345.5 60.8 L 347.7 60.8" id="102,99" /><path d="M 345.5 63.2 L 345.5 65.6 L 346.3 65.6" id="102,98" /><path d="M 351.2 49.3 L 351.2 49.9 L 352.8 49.9" id="101,97" /><path d="M 348.2 54.4 L 348.2 52.8 L 348.9 52.8" id="100,96" /><path d="M 348.2 54.4 L 348.2 56.0 L 350.1 56.0" id="100,95" /><path d="M 347.7 60.8 L 347.7 60.1 L 349.9 60.1" id="99,94" /><path d="M 347.7 60.8 L 347.7 61.6 L 348.6 61.6" id="99,93" /><path d="M 346.3 65.6 L 346.3 63.8 L 355.2 63.8" id="98,92" /><path d="M 346.3 65.6 L 346.3 67.3 L 346.8 67.3" id="98,91" /><path d="M 352.8 49.9 L 352.8 50.5 L 356.1 50.5" id="97,90" /><path d="M 348.9 52.8 L 348.9 52.1 L 352.8 52.1" id="96,89" /><path d="M 348.9 52.8 L 348.9 53.4 L 353.6 53.4" id="96,88" /><path d="M 350.1 56.0 L 350.1 54.7 L 352.2 54.7" id="95,87" /><path d="M 350.1 56.0 L 350.1 57.2 L 350.6 57.2" id="95,86" /><path d="M 348.6 61.6 L 348.6 62.1 L 351.8 62.1" id="93,85" /><path d="M 346.8 67.3 L 346.8 65.7 L 350.1 65.7" id="91,84" /><path d="M 346.8 67.3 L 346.8 69.0 L 348.1 69.0" id="91,83" /><path d="M 356.1 50.5 L 356.1 50.9 L 359.8 50.9" id="90,82" /><path d="M 352.2 54.7 L 352.2 55.2 L 356.9 55.2" id="87,81" /><path d="M 350.6 57.2 L 350.6 56.4 L 354.0 56.4" id="86,80" /><path d="M 350.6 57.2 L 350.6 57.9 L 352.4 57.9" id="86,79" /><path d="M 351.8 62.1 L 351.8 62.6 L 360.5 62.6" id="85,78" /><path d="M 350.1 65.7 L 350.1 65.0 L 358.5 65.0" id="84,77" /><path d="M 350.1 65.7 L 350.1 66.4 L 351.7 66.4" id="84,76" /><path d="M 348.1 69.0 L 348.1 68.1 L 351.8 68.1" id="83,75" /><path d="M 348.1 69.0 L 348.1 69.9 L 351.7 69.9" id="83,74" /><path d="M 352.4 57.9 L 352.4 58.4 L 353.6 58.4" id="79,73" /><path d="M 351.7 66.4 L 351.7 66.9 L 355.7 66.9" id="76,72" /><path d="M 351.7 69.9 L 351.7 69.3 L 354.4 69.3" id="74,71" /><path d="M 351.7 69.9 L 351.7 70.5 L 355.2 70.5" id="74,70" /><path d="M 353.6 58.4 L 353.6 58.9 L 355.9 58.9" id="73,69" /><path d="M 317.3 30.1 L 317.3 29.2 L 356.9 29.2" id="135,68" /><path d="M 329.8 30.1 L 329.8 29.8 L 359.7 29.8" id="130,67" /><path d="M 329.8 30.1 L 329.8 30.4 L 357.1 30.4" id="130,66" /><path d="M 342.0 31.3 L 342.0 31.0 L 358.8 31.0" id="127,65" /><path d="M 342.0 31.3 L 342.0 31.6 L 359.6 31.6" id="127,64" /><path d="M 342.6 32.7 L 342.6 32.2 L 360.7 32.2" id="126,63" /><path d="M 348.0 33.1 L 348.0 32.8 L 356.8 32.8" id="123,62" /><path d="M 348.0 33.1 L 348.0 33.5 L 355.9 33.5" id="123,61" /><path d="M 328.7 34.4 L 328.7 34.1 L 348.1 34.1" id="132,60" /><path d="M 328.7 34.4 L 328.7 34.7 L 352.4 34.7" id="132,59" /><path d="M 324.5 37.6 L 324.5 35.3 L 352.4 35.3" id="131,58" /><path d="M 330.5 36.7 L 330.5 35.9 L 350.5 35.9" id="125,57" /><path d="M 338.1 36.8 L 338.1 36.5 L 355.1 36.5" id="119,56" /><path d="M 338.1 36.8 L 338.1 37.1 L 340.6 37.1" id="119,55" /><path d="M 340.9 38.1 L 340.9 37.7 L 364.3 37.7" id="118,54" /><path d="M 340.9 38.1 L 340.9 38.4 L 355.1 38.4" id="118,53" /><path d="M 344.4 39.3 L 344.4 39.0 L 357.0 39.0" id="117,52" /><path d="M 344.4 39.3 L 344.4 39.6 L 355.0 39.6" id="117,51" /><path d="M 337.4 41.2 L 337.4 40.2 L 354.0 40.2" id="116,50" /><path d="M 342.7 41.3 L 342.7 40.8 L 358.4 40.8" id="112,49" /><path d="M 351.1 41.7 L 351.1 41.4 L 356.7 41.4" id="108,48" /><path d="M 351.1 41.7 L 351.1 42.0 L 360.8 42.0" id="108,47" /><path d="M 344.3 43.2 L 344.3 42.6 L 366.3 42.6" id="111,46" /><path d="M 344.9 43.7 L 344.9 43.3 L 356.6 43.3" id="107,45" /><path d="M 351.1 44.2 L 351.1 43.9 L 362.8 43.9" id="104,44" /><path d="M 351.1 44.2 L 351.1 44.5 L 356.4 44.5" id="104,43" /><path d="M 334.2 46.4 L 334.2 45.1 L 344.7 45.1" id="120,42" /><path d="M 337.1 47.7 L 337.1 45.7 L 350.1 45.7" id="115,41" /><path d="M 350.0 46.6 L 350.0 46.3 L 390.3 46.3" id="110,40" /><path d="M 350.0 46.6 L 350.0 46.9 L 381.2 46.9" id="110,39" /><path d="M 348.2 47.9 L 348.2 47.5 L 353.8 47.5" id="106,38" /><path d="M 348.2 47.9 L 348.2 48.2 L 358.8 48.2" id="106,37" /><path d="M 351.2 49.3 L 351.2 48.8 L 360.3 48.8" id="101,36" /><path d="M 352.8 49.9 L 352.8 49.4 L 359.6 49.4" id="97,35" /><path d="M 356.1 50.5 L 356.1 50.0 L 364.9 50.0" id="90,34" /><path d="M 359.8 50.9 L 359.8 50.6 L 368.1 50.6" id="82,33" /><path d="M 359.8 50.9 L 359.8 51.2 L 363.6 51.2" id="82,32" /><path d="M 352.8 52.1 L 352.8 51.8 L 356.1 51.8" id="89,31" /><path d="M 352.8 52.1 L 352.8 52.5 L 358.6 52.5" id="89,30" /><path d="M 353.6 53.4 L 353.6 53.1 L 356.3 53.1" id="88,29" /><path d="M 353.6 53.4 L 353.6 53.7 L 356.8 53.7" id="88,28" /><path d="M 352.2 54.7 L 352.2 54.3 L 357.3 54.3" id="87,27" /><path d="M 356.9 55.2 L 356.9 54.9 L 360.8 54.9" id="81,26" /><path d="M 356.9 55.2 L 356.9 55.5 L 357.1 55.5" id="81,25" /><path d="M 354.0 56.4 L 354.0 56.1 L 356.2 56.1" id="80,24" /><path d="M 354.0 56.4 L 354.0 56.7 L 374.0 56.7" id="80,23" /><path d="M 352.4 57.9 L 352.4 57.4 L 358.7 57.4" id="79,22" /><path d="M 353.6 58.4 L 353.6 58.0 L 356.2 58.0" id="73,21" /><path d="M 355.9 58.9 L 355.9 58.6 L 358.8 58.6" id="69,20" /><path d="M 355.9 58.9 L 355.9 59.2 L 363.1 59.2" id="69,19" /><path d="M 349.9 60.1 L 349.9 59.8 L 352.5 59.8" id="94,18" /><path d="M 349.9 60.1 L 349.9 60.4 L 366.4 60.4" id="94,17" /><path d="M 348.6 61.6 L 348.6 61.0 L 354.5 61.0" id="93,16" /><path d="M 351.8 62.1 L 351.8 61.6 L 361.0 61.6" id="85,15" /><path d="M 360.5 62.6 L 360.5 62.3 L 371.3 62.3" id="78,14" /><path d="M 360.5 62.6 L 360.5 62.9 L 366.5 62.9" id="78,13" /><path d="M 355.2 63.8 L 355.2 63.5 L 364.4 63.5" id="92,12" /><path d="M 355.2 63.8 L 355.2 64.1 L 356.4 64.1" id="92,11" /><path d="M 358.5 65.0 L 358.5 64.7 L 363.8 64.7" id="77,10" /><path d="M 358.5 65.0 L 358.5 65.3 L 358.5 65.3" id="77,9" /><path d="M 351.7 66.4 L 351.7 65.9 L 353.5 65.9" id="76,8" /><path d="M 355.7 66.9 L 355.7 66.5 L 363.0 66.5" id="72,7" /><path d="M 355.7 66.9 L 355.7 67.2 L 358.8 67.2" id="72,6" /><path d="M 351.8 68.1 L 351.8 67.8 L 356.4 67.8" id="75,5" /><path d="M 351.8 68.1 L 351.8 68.4 L 359.7 68.4" id="75,4" /><path d="M 354.4 69.3 L 354.4 69.0 L 354.4 69.0" id="71,3" /><path d="M 354.4 69.3 L 354.4 69.6 L 361.9 69.6" id="71,2" /><path d="M 355.2 70.5 L 355.2 70.2 L 355.2 70.2" id="70,1" /><path d="M 355.2 70.5 L 355.2 70.8 L 360.0 70.8" id="70,0" /></g><g class="toytree-Nodes" style="fill:rgb(100%,0%,0%);fill-opacity:1.0;stroke:None;stroke-width:1"><g id="node-0" transform="translate(360.023,70.833)"><circle r="2.5" /></g><g id="node-1" transform="translate(355.234,70.221)"><circle r="2.5" /></g><g id="node-2" transform="translate(361.923,69.608)"><circle r="2.5" /></g><g id="node-3" transform="translate(354.433,68.995)"><circle r="2.5" /></g><g id="node-4" transform="translate(359.667,68.382)"><circle r="2.5" /></g><g id="node-5" transform="translate(356.366,67.770)"><circle r="2.5" /></g><g id="node-6" transform="translate(358.832,67.157)"><circle r="2.5" /></g><g id="node-7" transform="translate(363.012,66.544)"><circle r="2.5" /></g><g id="node-8" transform="translate(353.493,65.931)"><circle r="2.5" /></g><g id="node-9" transform="translate(358.474,65.319)"><circle r="2.5" /></g><g id="node-10" transform="translate(363.844,64.706)"><circle r="2.5" /></g><g id="node-11" transform="translate(356.427,64.093)"><circle r="2.5" /></g><g id="node-12" transform="translate(364.429,63.480)"><circle r="2.5" /></g><g id="node-13" transform="translate(366.538,62.868)"><circle r="2.5" /></g><g id="node-14" transform="translate(371.299,62.255)"><circle r="2.5" /></g><g id="node-15" transform="translate(360.970,61.642)"><circle r="2.5" /></g><g id="node-16" transform="translate(354.518,61.029)"><circle r="2.5" /></g><g id="node-17" transform="translate(366.372,60.417)"><circle r="2.5" /></g><g id="node-18" transform="translate(352.507,59.804)"><circle r="2.5" /></g><g id="node-19" transform="translate(363.092,59.191)"><circle r="2.5" /></g><g id="node-20" transform="translate(358.805,58.578)"><circle r="2.5" /></g><g id="node-21" transform="translate(356.204,57.966)"><circle r="2.5" /></g><g id="node-22" transform="translate(358.700,57.353)"><circle r="2.5" /></g><g id="node-23" transform="translate(373.958,56.740)"><circle r="2.5" /></g><g id="node-24" transform="translate(356.220,56.127)"><circle r="2.5" /></g><g id="node-25" transform="translate(357.052,55.515)"><circle r="2.5" /></g><g id="node-26" transform="translate(360.752,54.902)"><circle r="2.5" /></g><g id="node-27" transform="translate(357.274,54.289)"><circle r="2.5" /></g><g id="node-28" transform="translate(356.842,53.676)"><circle r="2.5" /></g><g id="node-29" transform="translate(356.305,53.064)"><circle r="2.5" /></g><g id="node-30" transform="translate(358.596,52.451)"><circle r="2.5" /></g><g id="node-31" transform="translate(356.080,51.838)"><circle r="2.5" /></g><g id="node-32" transform="translate(363.624,51.225)"><circle r="2.5" /></g><g id="node-33" transform="translate(368.102,50.613)"><circle r="2.5" /></g><g id="node-34" transform="translate(364.894,50.000)"><circle r="2.5" /></g><g id="node-35" transform="translate(359.650,49.387)"><circle r="2.5" /></g><g id="node-36" transform="translate(360.282,48.775)"><circle r="2.5" /></g><g id="node-37" transform="translate(358.814,48.162)"><circle r="2.5" /></g><g id="node-38" transform="translate(353.808,47.549)"><circle r="2.5" /></g><g id="node-39" transform="translate(381.215,46.936)"><circle r="2.5" /></g><g id="node-40" transform="translate(390.263,46.324)"><circle r="2.5" /></g><g id="node-41" transform="translate(350.096,45.711)"><circle r="2.5" /></g><g id="node-42" transform="translate(344.665,45.098)"><circle r="2.5" /></g><g id="node-43" transform="translate(356.449,44.485)"><circle r="2.5" /></g><g id="node-44" transform="translate(362.774,43.873)"><circle r="2.5" /></g><g id="node-45" transform="translate(356.616,43.260)"><circle r="2.5" /></g><g id="node-46" transform="translate(366.256,42.647)"><circle r="2.5" /></g><g id="node-47" transform="translate(360.801,42.034)"><circle r="2.5" /></g><g id="node-48" transform="translate(356.709,41.422)"><circle r="2.5" /></g><g id="node-49" transform="translate(358.387,40.809)"><circle r="2.5" /></g><g id="node-50" transform="translate(353.990,40.196)"><circle r="2.5" /></g><g id="node-51" transform="translate(354.999,39.583)"><circle r="2.5" /></g><g id="node-52" transform="translate(357.024,38.971)"><circle r="2.5" /></g><g id="node-53" transform="translate(355.123,38.358)"><circle r="2.5" /></g><g id="node-54" transform="translate(364.283,37.745)"><circle r="2.5" /></g><g id="node-55" transform="translate(340.650,37.132)"><circle r="2.5" /></g><g id="node-56" transform="translate(355.071,36.520)"><circle r="2.5" /></g><g id="node-57" transform="translate(350.530,35.907)"><circle r="2.5" /></g><g id="node-58" transform="translate(352.408,35.294)"><circle r="2.5" /></g><g id="node-59" transform="translate(352.361,34.681)"><circle r="2.5" /></g><g id="node-60" transform="translate(348.111,34.069)"><circle r="2.5" /></g><g id="node-61" transform="translate(355.926,33.456)"><circle r="2.5" /></g><g id="node-62" transform="translate(356.796,32.843)"><circle r="2.5" /></g><g id="node-63" transform="translate(360.740,32.230)"><circle r="2.5" /></g><g id="node-64" transform="translate(359.556,31.618)"><circle r="2.5" /></g><g id="node-65" transform="translate(358.834,31.005)"><circle r="2.5" /></g><g id="node-66" transform="translate(357.132,30.392)"><circle r="2.5" /></g><g id="node-67" transform="translate(359.651,29.779)"><circle r="2.5" /></g><g id="node-68" transform="translate(356.921,29.167)"><circle r="2.5" /></g><g id="node-69" transform="translate(355.900,58.885)"><circle r="0.0" /></g><g id="node-70" transform="translate(355.234,70.527)"><circle r="0.0" /></g><g id="node-71" transform="translate(354.433,69.301)"><circle r="0.0" /></g><g id="node-72" transform="translate(355.669,66.850)"><circle r="0.0" /></g><g id="node-73" transform="translate(353.579,58.425)"><circle r="0.0" /></g><g id="node-74" transform="translate(351.699,69.914)"><circle r="0.0" /></g><g id="node-75" transform="translate(351.751,68.076)"><circle r="0.0" /></g><g id="node-76" transform="translate(351.692,66.391)"><circle r="0.0" /></g><g id="node-77" transform="translate(358.474,65.012)"><circle r="0.0" /></g><g id="node-78" transform="translate(360.542,62.561)"><circle r="0.0" /></g><g id="node-79" transform="translate(352.398,57.889)"><circle r="0.0" /></g><g id="node-80" transform="translate(353.995,56.434)"><circle r="0.0" /></g><g id="node-81" transform="translate(356.908,55.208)"><circle r="0.0" /></g><g id="node-82" transform="translate(359.794,50.919)"><circle r="0.0" /></g><g id="node-83" transform="translate(348.118,68.995)"><circle r="0.0" /></g><g id="node-84" transform="translate(350.055,65.702)"><circle r="0.0" /></g><g id="node-85" transform="translate(351.825,62.102)"><circle r="0.0" /></g><g id="node-86" transform="translate(350.622,57.161)"><circle r="0.0" /></g><g id="node-87" transform="translate(352.164,54.749)"><circle r="0.0" /></g><g id="node-88" transform="translate(353.566,53.370)"><circle r="0.0" /></g><g id="node-89" transform="translate(352.832,52.145)"><circle r="0.0" /></g><g id="node-90" transform="translate(356.134,50.460)"><circle r="0.0" /></g><g id="node-91" transform="translate(346.805,67.348)"><circle r="0.0" /></g><g id="node-92" transform="translate(355.168,63.787)"><circle r="0.0" /></g><g id="node-93" transform="translate(348.592,61.566)"><circle r="0.0" /></g><g id="node-94" transform="translate(349.931,60.110)"><circle r="0.0" /></g><g id="node-95" transform="translate(350.128,55.955)"><circle r="0.0" /></g><g id="node-96" transform="translate(348.936,52.757)"><circle r="0.0" /></g><g id="node-97" transform="translate(352.791,49.923)"><circle r="0.0" /></g><g id="node-98" transform="translate(346.276,65.568)"><circle r="0.0" /></g><g id="node-99" transform="translate(347.683,60.838)"><circle r="0.0" /></g><g id="node-100" transform="translate(348.223,54.356)"><circle r="0.0" /></g><g id="node-101" transform="translate(351.225,49.349)"><circle r="0.0" /></g><g id="node-102" transform="translate(345.503,63.203)"><circle r="0.0" /></g><g id="node-103" transform="translate(346.461,51.853)"><circle r="0.0" /></g><g id="node-104" transform="translate(351.117,44.179)"><circle r="0.0" /></g><g id="node-105" transform="translate(344.834,57.528)"><circle r="0.0" /></g><g id="node-106" transform="translate(348.170,47.855)"><circle r="0.0" /></g><g id="node-107" transform="translate(344.869,43.719)"><circle r="0.0" /></g><g id="node-108" transform="translate(351.100,41.728)"><circle r="0.0" /></g><g id="node-109" transform="translate(344.446,52.692)"><circle r="0.0" /></g><g id="node-110" transform="translate(350.048,46.630)"><circle r="0.0" /></g><g id="node-111" transform="translate(344.296,43.183)"><circle r="0.0" /></g><g id="node-112" transform="translate(342.664,41.268)"><circle r="0.0" /></g><g id="node-113" transform="translate(342.873,49.661)"><circle r="0.0" /></g><g id="node-114" transform="translate(341.584,42.226)"><circle r="0.0" /></g><g id="node-115" transform="translate(337.121,47.686)"><circle r="0.0" /></g><g id="node-116" transform="translate(337.432,41.211)"><circle r="0.0" /></g><g id="node-117" transform="translate(344.376,39.277)"><circle r="0.0" /></g><g id="node-118" transform="translate(340.868,38.051)"><circle r="0.0" /></g><g id="node-119" transform="translate(338.085,36.826)"><circle r="0.0" /></g><g id="node-120" transform="translate(334.160,46.392)"><circle r="0.0" /></g><g id="node-121" transform="translate(336.620,40.244)"><circle r="0.0" /></g><g id="node-122" transform="translate(334.585,37.439)"><circle r="0.0" /></g><g id="node-123" transform="translate(348.015,33.150)"><circle r="0.0" /></g><g id="node-124" transform="translate(330.011,43.318)"><circle r="0.0" /></g><g id="node-125" transform="translate(330.528,36.673)"><circle r="0.0" /></g><g id="node-126" transform="translate(342.609,32.690)"><circle r="0.0" /></g><g id="node-127" transform="translate(342.009,31.311)"><circle r="0.0" /></g><g id="node-128" transform="translate(328.901,39.995)"><circle r="0.0" /></g><g id="node-129" transform="translate(340.781,32.001)"><circle r="0.0" /></g><g id="node-130" transform="translate(329.821,30.086)"><circle r="0.0" /></g><g id="node-131" transform="translate(324.512,37.645)"><circle r="0.0" /></g><g id="node-132" transform="translate(328.731,34.375)"><circle r="0.0" /></g><g id="node-133" transform="translate(324.725,31.043)"><circle r="0.0" /></g><g id="node-134" transform="translate(313.841,36.010)"><circle r="0.0" /></g><g id="node-135" transform="translate(317.310,30.105)"><circle r="0.0" /></g><g id="node-136" transform="translate(305.000,33.057)"><circle r="0.0" /></g></g></g></g></g><g class="toyplot-coordinates-Cartesian" id="t23b11963f77d4d058a8f4895b2f1e415"><clipPath id="tf81fc18c2ff04ee2b97471a03b8a2c54"><rect x="435.0" y="15.0" width="110.0" height="70.0" /></clipPath><g clip-path="url(#tf81fc18c2ff04ee2b97471a03b8a2c54)"><g class="toytree-mark-Toytree" id="t528a688e664d41f599d0a3c7a0b774ae"><g class="toytree-Edges" style="fill:none;stroke:rgb(14.9%,14.9%,14.9%);stroke-linecap:round;stroke-opacity:1;stroke-width:0.5"><path d="M 445.0 41.1 L 445.0 34.9 L 451.3 34.9" id="136,135" /><path d="M 445.0 41.1 L 445.0 47.3 L 455.9 47.3" id="136,134" /><path d="M 451.3 34.9 L 451.3 31.2 L 458.2 31.2" id="135,133" /><path d="M 451.3 34.9 L 451.3 38.6 L 453.6 38.6" id="135,132" /><path d="M 455.9 47.3 L 455.9 48.3 L 457.0 48.3" id="134,131" /><path d="M 458.2 31.2 L 458.2 29.7 L 459.5 29.7" id="133,130" /><path d="M 458.2 31.2 L 458.2 32.8 L 474.6 32.8" id="133,129" /><path d="M 453.6 38.6 L 453.6 37.0 L 454.4 37.0" id="132,128" /><path d="M 453.6 38.6 L 453.6 40.2 L 456.0 40.2" id="132,127" /><path d="M 457.0 48.3 L 457.0 49.7 L 458.5 49.7" id="131,126" /><path d="M 459.5 29.7 L 459.5 30.2 L 462.4 30.2" id="130,125" /><path d="M 474.6 32.8 L 474.6 31.9 L 484.1 31.9" id="129,124" /><path d="M 474.6 32.8 L 474.6 33.6 L 480.6 33.6" id="129,123" /><path d="M 454.4 37.0 L 454.4 37.4 L 462.2 37.4" id="128,122" /><path d="M 456.0 40.2 L 456.0 38.8 L 460.5 38.8" id="127,121" /><path d="M 456.0 40.2 L 456.0 41.5 L 463.0 41.5" id="127,120" /><path d="M 458.5 49.7 L 458.5 51.9 L 461.4 51.9" id="126,119" /><path d="M 462.4 30.2 L 462.4 30.7 L 466.5 30.7" id="125,118" /><path d="M 480.6 33.6 L 480.6 34.5 L 485.9 34.5" id="123,117" /><path d="M 460.5 38.8 L 460.5 39.3 L 466.9 39.3" id="121,116" /><path d="M 463.0 41.5 L 463.0 42.8 L 466.1 42.8" id="120,115" /><path d="M 461.4 51.9 L 461.4 48.6 L 464.0 48.6" id="119,114" /><path d="M 461.4 51.9 L 461.4 55.1 L 462.6 55.1" id="119,113" /><path d="M 485.9 34.5 L 485.9 33.8 L 489.0 33.8" id="117,112" /><path d="M 485.9 34.5 L 485.9 35.1 L 488.0 35.1" id="117,111" /><path d="M 466.1 42.8 L 466.1 41.3 L 468.2 41.3" id="115,110" /><path d="M 466.1 42.8 L 466.1 44.3 L 467.3 44.3" id="115,109" /><path d="M 464.0 48.6 L 464.0 49.1 L 471.6 49.1" id="114,108" /><path d="M 462.6 55.1 L 462.6 51.0 L 463.6 51.0" id="113,107" /><path d="M 462.6 55.1 L 462.6 59.3 L 463.3 59.3" id="113,106" /><path d="M 488.0 35.1 L 488.0 35.6 L 490.9 35.6" id="111,105" /><path d="M 468.2 41.3 L 468.2 41.9 L 472.9 41.9" id="110,104" /><path d="M 467.3 44.3 L 467.3 43.6 L 470.4 43.6" id="109,103" /><path d="M 467.3 44.3 L 467.3 44.9 L 478.1 44.9" id="109,102" /><path d="M 463.6 51.0 L 463.6 50.3 L 467.4 50.3" id="107,101" /><path d="M 463.6 51.0 L 463.6 51.7 L 471.8 51.7" id="107,100" /><path d="M 463.3 59.3 L 463.3 55.1 L 465.0 55.1" id="106,99" /><path d="M 463.3 59.3 L 463.3 63.4 L 467.8 63.4" id="106,98" /><path d="M 472.9 41.9 L 472.9 42.3 L 475.8 42.3" id="104,97" /><path d="M 478.1 44.9 L 478.1 45.4 L 482.3 45.4" id="102,96" /><path d="M 471.8 51.7 L 471.8 52.1 L 480.5 52.1" id="100,95" /><path d="M 465.0 55.1 L 465.0 53.6 L 468.9 53.6" id="99,94" /><path d="M 465.0 55.1 L 465.0 56.5 L 465.7 56.5" id="99,93" /><path d="M 467.8 63.4 L 467.8 59.5 L 471.0 59.5" id="98,92" /><path d="M 467.8 63.4 L 467.8 67.4 L 470.0 67.4" id="98,91" /><path d="M 468.9 53.6 L 468.9 54.1 L 474.2 54.1" id="94,90" /><path d="M 465.7 56.5 L 465.7 55.8 L 471.2 55.8" id="93,89" /><path d="M 465.7 56.5 L 465.7 57.2 L 466.7 57.2" id="93,88" /><path d="M 471.0 59.5 L 471.0 60.4 L 472.3 60.4" id="92,87" /><path d="M 470.0 67.4 L 470.0 65.7 L 470.9 65.7" id="91,86" /><path d="M 470.0 67.4 L 470.0 69.1 L 470.7 69.1" id="91,85" /><path d="M 474.2 54.1 L 474.2 54.6 L 478.7 54.6" id="90,84" /><path d="M 466.7 57.2 L 466.7 57.7 L 473.3 57.7" id="88,83" /><path d="M 472.3 60.4 L 472.3 59.5 L 473.5 59.5" id="87,82" /><path d="M 472.3 60.4 L 472.3 61.2 L 476.1 61.2" id="87,81" /><path d="M 470.9 65.7 L 470.9 65.0 L 472.1 65.0" id="86,80" /><path d="M 470.9 65.7 L 470.9 66.4 L 471.9 66.4" id="86,79" /><path d="M 470.7 69.1 L 470.7 68.2 L 471.8 68.2" id="85,78" /><path d="M 470.7 69.1 L 470.7 70.1 L 471.1 70.1" id="85,77" /><path d="M 476.1 61.2 L 476.1 62.1 L 476.8 62.1" id="81,76" /><path d="M 471.9 66.4 L 471.9 66.9 L 473.0 66.9" id="79,75" /><path d="M 471.8 68.2 L 471.8 68.7 L 474.6 68.7" id="78,74" /><path d="M 471.1 70.1 L 471.1 70.5 L 474.8 70.5" id="77,73" /><path d="M 476.8 62.1 L 476.8 61.3 L 479.5 61.3" id="76,72" /><path d="M 476.8 62.1 L 476.8 62.8 L 477.3 62.8" id="76,71" /><path d="M 477.3 62.8 L 477.3 63.3 L 479.1 63.3" id="71,70" /><path d="M 479.1 63.3 L 479.1 63.8 L 482.3 63.8" id="70,69" /><path d="M 459.5 29.7 L 459.5 29.2 L 482.5 29.2" id="130,68" /><path d="M 462.4 30.2 L 462.4 29.8 L 474.4 29.8" id="125,67" /><path d="M 466.5 30.7 L 466.5 30.4 L 485.2 30.4" id="118,66" /><path d="M 466.5 30.7 L 466.5 31.0 L 473.3 31.0" id="118,65" /><path d="M 484.1 31.9 L 484.1 31.6 L 517.0 31.6" id="124,64" /><path d="M 484.1 31.9 L 484.1 32.2 L 530.3 32.2" id="124,63" /><path d="M 480.6 33.6 L 480.6 32.8 L 519.6 32.8" id="123,62" /><path d="M 489.0 33.8 L 489.0 33.5 L 508.3 33.5" id="112,61" /><path d="M 489.0 33.8 L 489.0 34.1 L 512.7 34.1" id="112,60" /><path d="M 488.0 35.1 L 488.0 34.7 L 528.7 34.7" id="111,59" /><path d="M 490.9 35.6 L 490.9 35.3 L 514.6 35.3" id="105,58" /><path d="M 490.9 35.6 L 490.9 35.9 L 519.2 35.9" id="105,57" /><path d="M 454.4 37.0 L 454.4 36.5 L 477.3 36.5" id="128,56" /><path d="M 462.2 37.4 L 462.2 37.1 L 476.1 37.1" id="122,55" /><path d="M 462.2 37.4 L 462.2 37.7 L 474.1 37.7" id="122,54" /><path d="M 460.5 38.8 L 460.5 38.4 L 486.8 38.4" id="121,53" /><path d="M 466.9 39.3 L 466.9 39.0 L 479.3 39.0" id="116,52" /><path d="M 466.9 39.3 L 466.9 39.6 L 482.1 39.6" id="116,51" /><path d="M 463.0 41.5 L 463.0 40.2 L 476.0 40.2" id="120,50" /><path d="M 468.2 41.3 L 468.2 40.8 L 486.2 40.8" id="110,49" /><path d="M 472.9 41.9 L 472.9 41.4 L 485.7 41.4" id="104,48" /><path d="M 475.8 42.3 L 475.8 42.0 L 482.9 42.0" id="97,47" /><path d="M 475.8 42.3 L 475.8 42.6 L 487.7 42.6" id="97,46" /><path d="M 470.4 43.6 L 470.4 43.3 L 482.8 43.3" id="103,45" /><path d="M 470.4 43.6 L 470.4 43.9 L 480.4 43.9" id="103,44" /><path d="M 478.1 44.9 L 478.1 44.5 L 490.7 44.5" id="102,43" /><path d="M 482.3 45.4 L 482.3 45.1 L 486.4 45.1" id="96,42" /><path d="M 482.3 45.4 L 482.3 45.7 L 487.0 45.7" id="96,41" /><path d="M 455.9 47.3 L 455.9 46.3 L 481.4 46.3" id="134,40" /><path d="M 457.0 48.3 L 457.0 46.9 L 479.8 46.9" id="131,39" /><path d="M 458.5 49.7 L 458.5 47.5 L 473.9 47.5" id="126,38" /><path d="M 464.0 48.6 L 464.0 48.2 L 488.8 48.2" id="114,37" /><path d="M 471.6 49.1 L 471.6 48.8 L 483.4 48.8" id="108,36" /><path d="M 471.6 49.1 L 471.6 49.4 L 484.1 49.4" id="108,35" /><path d="M 467.4 50.3 L 467.4 50.0 L 486.9 50.0" id="101,34" /><path d="M 467.4 50.3 L 467.4 50.6 L 485.8 50.6" id="101,33" /><path d="M 471.8 51.7 L 471.8 51.2 L 489.5 51.2" id="100,32" /><path d="M 480.5 52.1 L 480.5 51.8 L 489.3 51.8" id="95,31" /><path d="M 480.5 52.1 L 480.5 52.5 L 495.7 52.5" id="95,30" /><path d="M 468.9 53.6 L 468.9 53.1 L 477.9 53.1" id="94,29" /><path d="M 474.2 54.1 L 474.2 53.7 L 491.8 53.7" id="90,28" /><path d="M 478.7 54.6 L 478.7 54.3 L 494.2 54.3" id="84,27" /><path d="M 478.7 54.6 L 478.7 54.9 L 496.9 54.9" id="84,26" /><path d="M 471.2 55.8 L 471.2 55.5 L 476.1 55.5" id="89,25" /><path d="M 471.2 55.8 L 471.2 56.1 L 496.9 56.1" id="89,24" /><path d="M 466.7 57.2 L 466.7 56.7 L 474.8 56.7" id="88,23" /><path d="M 473.3 57.7 L 473.3 57.4 L 494.2 57.4" id="83,22" /><path d="M 473.3 57.7 L 473.3 58.0 L 505.5 58.0" id="83,21" /><path d="M 471.0 59.5 L 471.0 58.6 L 493.3 58.6" id="92,20" /><path d="M 473.5 59.5 L 473.5 59.2 L 483.0 59.2" id="82,19" /><path d="M 473.5 59.5 L 473.5 59.8 L 492.3 59.8" id="82,18" /><path d="M 476.1 61.2 L 476.1 60.4 L 495.3 60.4" id="81,17" /><path d="M 479.5 61.3 L 479.5 61.0 L 494.5 61.0" id="72,16" /><path d="M 479.5 61.3 L 479.5 61.6 L 508.9 61.6" id="72,15" /><path d="M 477.3 62.8 L 477.3 62.3 L 490.8 62.3" id="71,14" /><path d="M 479.1 63.3 L 479.1 62.9 L 502.1 62.9" id="70,13" /><path d="M 482.3 63.8 L 482.3 63.5 L 485.4 63.5" id="69,12" /><path d="M 482.3 63.8 L 482.3 64.1 L 489.5 64.1" id="69,11" /><path d="M 472.1 65.0 L 472.1 64.7 L 487.0 64.7" id="80,10" /><path d="M 472.1 65.0 L 472.1 65.3 L 479.8 65.3" id="80,9" /><path d="M 471.9 66.4 L 471.9 65.9 L 485.2 65.9" id="79,8" /><path d="M 473.0 66.9 L 473.0 66.5 L 495.9 66.5" id="75,7" /><path d="M 473.0 66.9 L 473.0 67.2 L 481.9 67.2" id="75,6" /><path d="M 471.8 68.2 L 471.8 67.8 L 484.8 67.8" id="78,5" /><path d="M 474.6 68.7 L 474.6 68.4 L 493.8 68.4" id="74,4" /><path d="M 474.6 68.7 L 474.6 69.0 L 478.1 69.0" id="74,3" /><path d="M 471.1 70.1 L 471.1 69.6 L 479.5 69.6" id="77,2" /><path d="M 474.8 70.5 L 474.8 70.2 L 484.5 70.2" id="73,1" /><path d="M 474.8 70.5 L 474.8 70.8 L 490.4 70.8" id="73,0" /></g><g class="toytree-Nodes" style="fill:rgb(100%,0%,0%);fill-opacity:1.0;stroke:None;stroke-width:1"><g id="node-0" transform="translate(490.425,70.833)"><circle r="2.5" /></g><g id="node-1" transform="translate(484.493,70.221)"><circle r="2.5" /></g><g id="node-2" transform="translate(479.454,69.608)"><circle r="2.5" /></g><g id="node-3" transform="translate(478.129,68.995)"><circle r="2.5" /></g><g id="node-4" transform="translate(493.782,68.382)"><circle r="2.5" /></g><g id="node-5" transform="translate(484.766,67.770)"><circle r="2.5" /></g><g id="node-6" transform="translate(481.931,67.157)"><circle r="2.5" /></g><g id="node-7" transform="translate(495.941,66.544)"><circle r="2.5" /></g><g id="node-8" transform="translate(485.229,65.931)"><circle r="2.5" /></g><g id="node-9" transform="translate(479.823,65.319)"><circle r="2.5" /></g><g id="node-10" transform="translate(487.013,64.706)"><circle r="2.5" /></g><g id="node-11" transform="translate(489.539,64.093)"><circle r="2.5" /></g><g id="node-12" transform="translate(485.365,63.480)"><circle r="2.5" /></g><g id="node-13" transform="translate(502.110,62.868)"><circle r="2.5" /></g><g id="node-14" transform="translate(490.776,62.255)"><circle r="2.5" /></g><g id="node-15" transform="translate(508.923,61.642)"><circle r="2.5" /></g><g id="node-16" transform="translate(494.533,61.029)"><circle r="2.5" /></g><g id="node-17" transform="translate(495.262,60.417)"><circle r="2.5" /></g><g id="node-18" transform="translate(492.301,59.804)"><circle r="2.5" /></g><g id="node-19" transform="translate(483.050,59.191)"><circle r="2.5" /></g><g id="node-20" transform="translate(493.293,58.578)"><circle r="2.5" /></g><g id="node-21" transform="translate(505.499,57.966)"><circle r="2.5" /></g><g id="node-22" transform="translate(494.224,57.353)"><circle r="2.5" /></g><g id="node-23" transform="translate(474.784,56.740)"><circle r="2.5" /></g><g id="node-24" transform="translate(496.879,56.127)"><circle r="2.5" /></g><g id="node-25" transform="translate(476.130,55.515)"><circle r="2.5" /></g><g id="node-26" transform="translate(496.910,54.902)"><circle r="2.5" /></g><g id="node-27" transform="translate(494.165,54.289)"><circle r="2.5" /></g><g id="node-28" transform="translate(491.781,53.676)"><circle r="2.5" /></g><g id="node-29" transform="translate(477.885,53.064)"><circle r="2.5" /></g><g id="node-30" transform="translate(495.658,52.451)"><circle r="2.5" /></g><g id="node-31" transform="translate(489.347,51.838)"><circle r="2.5" /></g><g id="node-32" transform="translate(489.466,51.225)"><circle r="2.5" /></g><g id="node-33" transform="translate(485.849,50.613)"><circle r="2.5" /></g><g id="node-34" transform="translate(486.865,50.000)"><circle r="2.5" /></g><g id="node-35" transform="translate(484.118,49.387)"><circle r="2.5" /></g><g id="node-36" transform="translate(483.406,48.775)"><circle r="2.5" /></g><g id="node-37" transform="translate(488.756,48.162)"><circle r="2.5" /></g><g id="node-38" transform="translate(473.898,47.549)"><circle r="2.5" /></g><g id="node-39" transform="translate(479.820,46.936)"><circle r="2.5" /></g><g id="node-40" transform="translate(481.449,46.324)"><circle r="2.5" /></g><g id="node-41" transform="translate(486.982,45.711)"><circle r="2.5" /></g><g id="node-42" transform="translate(486.389,45.098)"><circle r="2.5" /></g><g id="node-43" transform="translate(490.670,44.485)"><circle r="2.5" /></g><g id="node-44" transform="translate(480.362,43.873)"><circle r="2.5" /></g><g id="node-45" transform="translate(482.789,43.260)"><circle r="2.5" /></g><g id="node-46" transform="translate(487.706,42.647)"><circle r="2.5" /></g><g id="node-47" transform="translate(482.929,42.034)"><circle r="2.5" /></g><g id="node-48" transform="translate(485.669,41.422)"><circle r="2.5" /></g><g id="node-49" transform="translate(486.175,40.809)"><circle r="2.5" /></g><g id="node-50" transform="translate(476.036,40.196)"><circle r="2.5" /></g><g id="node-51" transform="translate(482.081,39.583)"><circle r="2.5" /></g><g id="node-52" transform="translate(479.260,38.971)"><circle r="2.5" /></g><g id="node-53" transform="translate(486.828,38.358)"><circle r="2.5" /></g><g id="node-54" transform="translate(474.072,37.745)"><circle r="2.5" /></g><g id="node-55" transform="translate(476.142,37.132)"><circle r="2.5" /></g><g id="node-56" transform="translate(477.261,36.520)"><circle r="2.5" /></g><g id="node-57" transform="translate(519.243,35.907)"><circle r="2.5" /></g><g id="node-58" transform="translate(514.636,35.294)"><circle r="2.5" /></g><g id="node-59" transform="translate(528.724,34.681)"><circle r="2.5" /></g><g id="node-60" transform="translate(512.684,34.069)"><circle r="2.5" /></g><g id="node-61" transform="translate(508.277,33.456)"><circle r="2.5" /></g><g id="node-62" transform="translate(519.561,32.843)"><circle r="2.5" /></g><g id="node-63" transform="translate(530.263,32.230)"><circle r="2.5" /></g><g id="node-64" transform="translate(517.042,31.618)"><circle r="2.5" /></g><g id="node-65" transform="translate(473.298,31.005)"><circle r="2.5" /></g><g id="node-66" transform="translate(485.204,30.392)"><circle r="2.5" /></g><g id="node-67" transform="translate(474.369,29.779)"><circle r="2.5" /></g><g id="node-68" transform="translate(482.499,29.167)"><circle r="2.5" /></g><g id="node-69" transform="translate(482.347,63.787)"><circle r="0.0" /></g><g id="node-70" transform="translate(479.127,63.327)"><circle r="0.0" /></g><g id="node-71" transform="translate(477.341,62.791)"><circle r="0.0" /></g><g id="node-72" transform="translate(479.514,61.336)"><circle r="0.0" /></g><g id="node-73" transform="translate(474.838,70.527)"><circle r="0.0" /></g><g id="node-74" transform="translate(474.582,68.689)"><circle r="0.0" /></g><g id="node-75" transform="translate(472.991,66.850)"><circle r="0.0" /></g><g id="node-76" transform="translate(476.850,62.063)"><circle r="0.0" /></g><g id="node-77" transform="translate(471.068,70.067)"><circle r="0.0" /></g><g id="node-78" transform="translate(471.785,68.229)"><circle r="0.0" /></g><g id="node-79" transform="translate(471.939,66.391)"><circle r="0.0" /></g><g id="node-80" transform="translate(472.115,65.012)"><circle r="0.0" /></g><g id="node-81" transform="translate(476.054,61.240)"><circle r="0.0" /></g><g id="node-82" transform="translate(473.452,59.498)"><circle r="0.0" /></g><g id="node-83" transform="translate(473.326,57.659)"><circle r="0.0" /></g><g id="node-84" transform="translate(478.737,54.596)"><circle r="0.0" /></g><g id="node-85" transform="translate(470.692,69.148)"><circle r="0.0" /></g><g id="node-86" transform="translate(470.856,65.702)"><circle r="0.0" /></g><g id="node-87" transform="translate(472.319,60.369)"><circle r="0.0" /></g><g id="node-88" transform="translate(466.682,57.200)"><circle r="0.0" /></g><g id="node-89" transform="translate(471.201,55.821)"><circle r="0.0" /></g><g id="node-90" transform="translate(474.188,54.136)"><circle r="0.0" /></g><g id="node-91" transform="translate(470.018,67.425)"><circle r="0.0" /></g><g id="node-92" transform="translate(471.044,59.474)"><circle r="0.0" /></g><g id="node-93" transform="translate(465.694,56.510)"><circle r="0.0" /></g><g id="node-94" transform="translate(468.897,53.600)"><circle r="0.0" /></g><g id="node-95" transform="translate(480.476,52.145)"><circle r="0.0" /></g><g id="node-96" transform="translate(482.269,45.404)"><circle r="0.0" /></g><g id="node-97" transform="translate(475.796,42.341)"><circle r="0.0" /></g><g id="node-98" transform="translate(467.805,63.449)"><circle r="0.0" /></g><g id="node-99" transform="translate(464.989,55.055)"><circle r="0.0" /></g><g id="node-100" transform="translate(471.792,51.685)"><circle r="0.0" /></g><g id="node-101" transform="translate(467.385,50.306)"><circle r="0.0" /></g><g id="node-102" transform="translate(478.099,44.945)"><circle r="0.0" /></g><g id="node-103" transform="translate(470.403,43.566)"><circle r="0.0" /></g><g id="node-104" transform="translate(472.873,41.881)"><circle r="0.0" /></g><g id="node-105" transform="translate(490.891,35.600)"><circle r="0.0" /></g><g id="node-106" transform="translate(463.310,59.252)"><circle r="0.0" /></g><g id="node-107" transform="translate(463.626,50.996)"><circle r="0.0" /></g><g id="node-108" transform="translate(471.616,49.081)"><circle r="0.0" /></g><g id="node-109" transform="translate(467.278,44.256)"><circle r="0.0" /></g><g id="node-110" transform="translate(468.176,41.345)"><circle r="0.0" /></g><g id="node-111" transform="translate(487.980,35.141)"><circle r="0.0" /></g><g id="node-112" transform="translate(488.956,33.762)"><circle r="0.0" /></g><g id="node-113" transform="translate(462.624,55.124)"><circle r="0.0" /></g><g id="node-114" transform="translate(463.956,48.621)"><circle r="0.0" /></g><g id="node-115" transform="translate(466.051,42.800)"><circle r="0.0" /></g><g id="node-116" transform="translate(466.946,39.277)"><circle r="0.0" /></g><g id="node-117" transform="translate(485.852,34.452)"><circle r="0.0" /></g><g id="node-118" transform="translate(466.452,30.699)"><circle r="0.0" /></g><g id="node-119" transform="translate(461.406,51.873)"><circle r="0.0" /></g><g id="node-120" transform="translate(463.030,41.498)"><circle r="0.0" /></g><g id="node-121" transform="translate(460.532,38.817)"><circle r="0.0" /></g><g id="node-122" transform="translate(462.201,37.439)"><circle r="0.0" /></g><g id="node-123" transform="translate(480.554,33.647)"><circle r="0.0" /></g><g id="node-124" transform="translate(484.140,31.924)"><circle r="0.0" /></g><g id="node-125" transform="translate(462.408,30.239)"><circle r="0.0" /></g><g id="node-126" transform="translate(458.539,49.711)"><circle r="0.0" /></g><g id="node-127" transform="translate(456.037,40.158)"><circle r="0.0" /></g><g id="node-128" transform="translate(454.392,36.979)"><circle r="0.0" /></g><g id="node-129" transform="translate(474.635,32.786)"><circle r="0.0" /></g><g id="node-130" transform="translate(459.506,29.703)"><circle r="0.0" /></g><g id="node-131" transform="translate(457.001,48.324)"><circle r="0.0" /></g><g id="node-132" transform="translate(453.584,38.568)"><circle r="0.0" /></g><g id="node-133" transform="translate(458.212,31.244)"><circle r="0.0" /></g><g id="node-134" transform="translate(455.899,47.324)"><circle r="0.0" /></g><g id="node-135" transform="translate(451.338,34.906)"><circle r="0.0" /></g><g id="node-136" transform="translate(445.000,41.115)"><circle r="0.0" /></g></g></g></g></g></svg>