<svg class="toyplot-canvas-Canvas" xmlns:toyplot="http://www.sandia.gov/toyplot" xmlns:xlink="http://www.w3.org/1999/xlink" xmlns="http://www.w3.org/2000/svg" width="560.0px" height="100.0px" viewBox="0 0 560.0 100.0" preserveAspectRatio="xMidYMid meet" style="background-color:transparent;border-color:#292724;border-style:none;border-width:1.0;fill:rgb(16.1%,15.3%,14.1%);fill-opacity:1.0;font-family:Helvetica;font-size:12px;opacity:1.0;stroke:rgb(16.1%,15.3%,14.1%);stroke-opacity:1.0;stroke-width:1.0" id="t8537bd6d024b45a6ac259a9121735b9a"><g class="toyplot-coordinates-Cartesian" id="t7f6bbc4480d5472abb897e8d26ad39ee"><clipPath id="t38f676b63219475c907db912681ed20e"><rect x="15.0" y="15.0" width="110.0" height="70.0" /></clipPath><g clip-path="url(#t38f676b63219475c907db912681ed20e)"><g class="toytree-mark-Toytree" id="t29fcc98ac0b9415eba4af28ca4230716"><g class="toytree-Edges" style="fill:none;stroke:rgb(14.9%,14.9%,14.9%);stroke-linecap:round;stroke-opacity:1;stroke-width:0.5"><path d="M 25.0 45.0 L 25.0 33.4 L 26.9 33.4" id="50,49" /><path d="M 25.0 45.0 L 25.0 56.7 L 25.6 56.7" id="50,48" /><path d="M 26.9 33.4 L 26.9 30.4 L 28.4 30.4" id="49,47" /><path d="M 26.9 33.4 L 26.9 36.4 L 28.0 36.4" id="49,46" /><path d="M 25.6 56.7 L 25.6 51.9 L 27.5 51.9" id="48,45" /><path d="M 25.6 56.7 L 25.6 61.5 L 28.9 61.5" id="48,44" /><path d="M 28.4 30.4 L 28.4 31.7 L 33.6 31.7" id="47,43" /><path d="M 28.0 36.4 L 28.0 38.6 L 29.2 38.6" id="46,42" /><path d="M 27.5 51.9 L 27.5 50.0 L 33.0 50.0" id="45,41" /><path d="M 27.5 51.9 L 27.5 53.8 L 34.1 53.8" id="45,40" /><path d="M 28.9 61.5 L 28.9 58.3 L 46.9 58.3" id="44,39" /><path d="M 28.9 61.5 L 28.9 64.7 L 30.5 64.7" id="44,38" /><path d="M 29.2 38.6 L 29.2 41.4 L 30.5 41.4" id="42,37" /><path d="M 34.1 53.8 L 34.1 55.0 L 50.6 55.0" id="40,36" /><path d="M 30.5 64.7 L 30.5 62.1 L 33.9 62.1" id="38,35" /><path d="M 30.5 64.7 L 30.5 67.3 L 44.6 67.3" id="38,34" /><path d="M 30.5 41.4 L 30.5 38.8 L 33.3 38.8" id="37,33" /><path d="M 30.5 41.4 L 30.5 44.0 L 33.3 44.0" id="37,32" /><path d="M 33.9 62.1 L 33.9 63.3 L 48.3 63.3" id="35,31" /><path d="M 44.6 67.3 L 44.6 68.8 L 49.8 68.8" id="34,30" /><path d="M 33.3 38.8 L 33.3 40.0 L 55.7 40.0" id="33,29" /><path d="M 33.3 44.0 L 33.3 45.4 L 36.8 45.4" id="32,28" /><path d="M 49.8 68.8 L 49.8 70.0 L 54.7 70.0" id="30,27" /><path d="M 36.8 45.4 L 36.8 46.7 L 95.0 46.7" id="28,26" /><path d="M 28.4 30.4 L 28.4 29.2 L 97.1 29.2" id="47,25" /><path d="M 33.6 31.7 L 33.6 30.8 L 96.7 30.8" id="43,24" /><path d="M 33.6 31.7 L 33.6 32.5 L 96.4 32.5" id="43,23" /><path d="M 28.0 36.4 L 28.0 34.2 L 103.6 34.2" id="46,22" /><path d="M 29.2 38.6 L 29.2 35.8 L 104.9 35.8" id="42,21" /><path d="M 33.3 38.8 L 33.3 37.5 L 108.4 37.5" id="33,20" /><path d="M 55.7 40.0 L 55.7 39.2 L 108.5 39.2" id="29,19" /><path d="M 55.7 40.0 L 55.7 40.8 L 110.3 40.8" id="29,18" /><path d="M 33.3 44.0 L 33.3 42.5 L 105.9 42.5" id="32,17" /><path d="M 36.8 45.4 L 36.8 44.2 L 103.1 44.2" id="28,16" /><path d="M 95.0 46.7 L 95.0 45.8 L 108.9 45.8" id="26,15" /><path d="M 95.0 46.7 L 95.0 47.5 L 108.2 47.5" id="26,14" /><path d="M 33.0 50.0 L 33.0 49.2 L 101.9 49.2" id="41,13" /><path d="M 33.0 50.0 L 33.0 50.8 L 101.1 50.8" id="41,12" /><path d="M 34.1 53.8 L 34.1 52.5 L 100.5 52.5" id="40,11" /><path d="M 50.6 55.0 L 50.6 54.2 L 105.6 54.2" id="36,10" /><path d="M 50.6 55.0 L 50.6 55.8 L 105.3 55.8" id="36,9" /><path d="M 46.9 58.3 L 46.9 57.5 L 101.1 57.5" id="39,8" /><path d="M 46.9 58.3 L 46.9 59.2 L 100.8 59.2" id="39,7" /><path d="M 33.9 62.1 L 33.9 60.8 L 104.4 60.8" id="35,6" /><path d="M 48.3 63.3 L 48.3 62.5 L 109.5 62.5" id="31,5" /><path d="M 48.3 63.3 L 48.3 64.2 L 102.6 64.2" id="31,4" /><path d="M 44.6 67.3 L 44.6 65.8 L 106.1 65.8" id="34,3" /><path d="M 49.8 68.8 L 49.8 67.5 L 106.4 67.5" id="30,2" /><path d="M 54.7 70.0 L 54.7 69.2 L 107.7 69.2" id="27,1" /><path d="M 54.7 70.0 L 54.7 70.8 L 104.9 70.8" id="27,0" /></g><g class="toytree-Nodes" style="fill:rgb(100%,0%,0%);fill-opacity:1.0;stroke:None;stroke-width:1"><g id="node-0" transform="translate(104.869,70.833)"><circle r="2.5" /></g><g id="node-1" transform="translate(107.673,69.167)"><circle r="2.5" /></g><g id="node-2" transform="translate(106.390,67.500)"><circle r="2.5" /></g><g id="node-3" transform="translate(106.083,65.833)"><circle r="2.5" /></g><g id="node-4" transform="translate(102.609,64.167)"><circle r="2.5" /></g><g id="node-5" transform="translate(109.534,62.500)"><circle r="2.5" /></g><g id="node-6" transform="translate(104.376,60.833)"><circle r="2.5" /></g><g id="node-7" transform="translate(100.787,59.167)"><circle r="2.5" /></g><g id="node-8" transform="translate(101.148,57.500)"><circle r="2.5" /></g><g id="node-9" transform="translate(105.312,55.833)"><circle r="2.5" /></g><g id="node-10" transform="translate(105.581,54.167)"><circle r="2.5" /></g><g id="node-11" transform="translate(100.459,52.500)"><circle r="2.5" /></g><g id="node-12" transform="translate(101.108,50.833)"><circle r="2.5" /></g><g id="node-13" transform="translate(101.894,49.167)"><circle r="2.5" /></g><g id="node-14" transform="translate(108.182,47.500)"><circle r="2.5" /></g><g id="node-15" transform="translate(108.884,45.833)"><circle r="2.5" /></g><g id="node-16" transform="translate(103.087,44.167)"><circle r="2.5" /></g><g id="node-17" transform="translate(105.922,42.500)"><circle r="2.5" /></g><g id="node-18" transform="translate(110.263,40.833)"><circle r="2.5" /></g><g id="node-19" transform="translate(108.548,39.167)"><circle r="2.5" /></g><g id="node-20" transform="translate(108.439,37.500)"><circle r="2.5" /></g><g id="node-21" transform="translate(104.950,35.833)"><circle r="2.5" /></g><g id="node-22" transform="translate(103.565,34.167)"><circle r="2.5" /></g><g id="node-23" transform="translate(96.437,32.500)"><circle r="2.5" /></g><g id="node-24" transform="translate(96.679,30.833)"><circle r="2.5" /></g><g id="node-25" transform="translate(97.149,29.167)"><circle r="2.5" /></g><g id="node-26" transform="translate(95.010,46.667)"><circle r="0.0" /></g><g id="node-27" transform="translate(54.673,70.000)"><circle r="0.0" /></g><g id="node-28" transform="translate(36.829,45.417)"><circle r="0.0" /></g><g id="node-29" transform="translate(55.698,40.000)"><circle r="0.0" /></g><g id="node-30" transform="translate(49.842,68.750)"><circle r="0.0" /></g><g id="node-31" transform="translate(48.336,63.333)"><circle r="0.0" /></g><g id="node-32" transform="translate(33.325,43.958)"><circle r="0.0" /></g><g id="node-33" transform="translate(33.252,38.750)"><circle r="0.0" /></g><g id="node-34" transform="translate(44.563,67.292)"><circle r="0.0" /></g><g id="node-35" transform="translate(33.869,62.083)"><circle r="0.0" /></g><g id="node-36" transform="translate(50.636,55.000)"><circle r="0.0" /></g><g id="node-37" transform="translate(30.496,41.354)"><circle r="0.0" /></g><g id="node-38" transform="translate(30.465,64.688)"><circle r="0.0" /></g><g id="node-39" transform="translate(46.876,58.333)"><circle r="0.0" /></g><g id="node-40" transform="translate(34.140,53.750)"><circle r="0.0" /></g><g id="node-41" transform="translate(33.023,50.000)"><circle r="0.0" /></g><g id="node-42" transform="translate(29.159,38.594)"><circle r="0.0" /></g><g id="node-43" transform="translate(33.595,31.667)"><circle r="0.0" /></g><g id="node-44" transform="translate(28.920,61.510)"><circle r="0.0" /></g><g id="node-45" transform="translate(27.539,51.875)"><circle r="0.0" /></g><g id="node-46" transform="translate(27.969,36.380)"><circle r="0.0" /></g><g id="node-47" transform="translate(28.376,30.417)"><circle r="0.0" /></g><g id="node-48" transform="translate(25.610,56.693)"><circle r="0.0" /></g><g id="node-49" transform="translate(26.857,33.398)"><circle r="0.0" /></g><g id="node-50" transform="translate(25.000,45.046)"><circle r="0.0" /></g></g></g></g></g><g class="toyplot-coordinates-Cartesian" id="t0d7b088168044e16878045ef2b05756a"><clipPath id="t131b50ff8775479eb3d963474c4dc5b6"><rect x="155.0" y="15.0" width="110.0" height="70.0" /></clipPath><g clip-path="url(#t131b50ff8775479eb3d963474c4dc5b6)"><g class="toytree-mark-Toytree" id="t63ff68d929e649cf8f41fe04b15e97e3"><g class="toytree-Edges" style="fill:none;stroke:rgb(14.9%,14.9%,14.9%);stroke-linecap:round;stroke-opacity:1;stroke-width:0.5"><path d="M 165.0 35.8 L 165.0 30.6 L 169.1 30.6" id="50,49" /><path d="M 165.0 35.8 L 165.0 41.0 L 170.2 41.0" id="50,48" /><path d="M 169.1 30.6 L 169.1 32.1 L 175.8 32.1" id="49,47" /><path d="M 170.2 41.0 L 170.2 37.1 L 182.8 37.1" id="48,46" /><path d="M 170.2 41.0 L 170.2 45.0 L 178.4 45.0" id="48,45" /><path d="M 175.8 32.1 L 175.8 33.3 L 217.7 33.3" id="47,44" /><path d="M 182.8 37.1 L 182.8 38.3 L 209.3 38.3" id="46,43" /><path d="M 178.4 45.0 L 178.4 49.2 L 181.5 49.2" id="45,42" /><path d="M 181.5 49.2 L 181.5 43.8 L 200.2 43.8" id="42,41" /><path d="M 181.5 49.2 L 181.5 54.6 L 183.1 54.6" id="42,40" /><path d="M 200.2 43.8 L 200.2 45.0 L 210.4 45.0" id="41,39" /><path d="M 183.1 54.6 L 183.1 50.2 L 186.9 50.2" id="40,38" /><path d="M 183.1 54.6 L 183.1 58.9 L 183.9 58.9" id="40,37" /><path d="M 186.9 50.2 L 186.9 48.3 L 192.9 48.3" id="38,36" /><path d="M 186.9 50.2 L 186.9 52.1 L 188.2 52.1" id="38,35" /><path d="M 183.9 58.9 L 183.9 62.0 L 185.8 62.0" id="37,34" /><path d="M 188.2 52.1 L 188.2 53.3 L 199.8 53.3" id="35,33" /><path d="M 185.8 62.0 L 185.8 58.8 L 194.9 58.8" id="34,32" /><path d="M 185.8 62.0 L 185.8 65.3 L 194.3 65.3" id="34,31" /><path d="M 194.9 58.8 L 194.9 60.0 L 198.0 60.0" id="32,30" /><path d="M 194.3 65.3 L 194.3 63.3 L 207.1 63.3" id="31,29" /><path d="M 194.3 65.3 L 194.3 67.3 L 224.8 67.3" id="31,28" /><path d="M 224.8 67.3 L 224.8 68.8 L 230.0 68.8" id="28,27" /><path d="M 230.0 68.8 L 230.0 70.0 L 234.0 70.0" id="27,26" /><path d="M 169.1 30.6 L 169.1 29.2 L 211.3 29.2" id="49,25" /><path d="M 175.8 32.1 L 175.8 30.8 L 213.1 30.8" id="47,24" /><path d="M 217.7 33.3 L 217.7 32.5 L 233.6 32.5" id="44,23" /><path d="M 217.7 33.3 L 217.7 34.2 L 234.3 34.2" id="44,22" /><path d="M 182.8 37.1 L 182.8 35.8 L 207.5 35.8" id="46,21" /><path d="M 209.3 38.3 L 209.3 37.5 L 217.6 37.5" id="43,20" /><path d="M 209.3 38.3 L 209.3 39.2 L 217.3 39.2" id="43,19" /><path d="M 178.4 45.0 L 178.4 40.8 L 217.3 40.8" id="45,18" /><path d="M 200.2 43.8 L 200.2 42.5 L 225.3 42.5" id="41,17" /><path d="M 210.4 45.0 L 210.4 44.2 L 225.9 44.2" id="39,16" /><path d="M 210.4 45.0 L 210.4 45.8 L 229.0 45.8" id="39,15" /><path d="M 192.9 48.3 L 192.9 47.5 L 213.7 47.5" id="36,14" /><path d="M 192.9 48.3 L 192.9 49.2 L 210.0 49.2" id="36,13" /><path d="M 188.2 52.1 L 188.2 50.8 L 225.2 50.8" id="35,12" /><path d="M 199.8 53.3 L 199.8 52.5 L 214.9 52.5" id="33,11" /><path d="M 199.8 53.3 L 199.8 54.2 L 229.4 54.2" id="33,10" /><path d="M 183.9 58.9 L 183.9 55.8 L 216.7 55.8" id="37,9" /><path d="M 194.9 58.8 L 194.9 57.5 L 214.8 57.5" id="32,8" /><path d="M 198.0 60.0 L 198.0 59.2 L 229.2 59.2" id="30,7" /><path d="M 198.0 60.0 L 198.0 60.8 L 221.4 60.8" id="30,6" /><path d="M 207.1 63.3 L 207.1 62.5 L 212.7 62.5" id="29,5" /><path d="M 207.1 63.3 L 207.1 64.2 L 207.7 64.2" id="29,4" /><path d="M 224.8 67.3 L 224.8 65.8 L 250.3 65.8" id="28,3" /><path d="M 230.0 68.8 L 230.0 67.5 L 235.1 67.5" id="27,2" /><path d="M 234.0 70.0 L 234.0 69.2 L 245.6 69.2" id="26,1" /><path d="M 234.0 70.0 L 234.0 70.8 L 243.6 70.8" id="26,0" /></g><g class="toytree-Nodes" style="fill:rgb(100%,0%,0%);fill-opacity:1.0;stroke:None;stroke-width:1"><g id="node-0" transform="translate(243.601,70.833)"><circle r="2.5" /></g><g id="node-1" transform="translate(245.622,69.167)"><circle r="2.5" /></g><g id="node-2" transform="translate(235.115,67.500)"><circle r="2.5" /></g><g id="node-3" transform="translate(250.263,65.833)"><circle r="2.5" /></g><g id="node-4" transform="translate(207.722,64.167)"><circle r="2.5" /></g><g id="node-5" transform="translate(212.699,62.500)"><circle r="2.5" /></g><g id="node-6" transform="translate(221.385,60.833)"><circle r="2.5" /></g><g id="node-7" transform="translate(229.175,59.167)"><circle r="2.5" /></g><g id="node-8" transform="translate(214.848,57.500)"><circle r="2.5" /></g><g id="node-9" transform="translate(216.737,55.833)"><circle r="2.5" /></g><g id="node-10" transform="translate(229.360,54.167)"><circle r="2.5" /></g><g id="node-11" transform="translate(214.937,52.500)"><circle r="2.5" /></g><g id="node-12" transform="translate(225.173,50.833)"><circle r="2.5" /></g><g id="node-13" transform="translate(209.996,49.167)"><circle r="2.5" /></g><g id="node-14" transform="translate(213.666,47.500)"><circle r="2.5" /></g><g id="node-15" transform="translate(228.993,45.833)"><circle r="2.5" /></g><g id="node-16" transform="translate(225.858,44.167)"><circle r="2.5" /></g><g id="node-17" transform="translate(225.344,42.500)"><circle r="2.5" /></g><g id="node-18" transform="translate(217.279,40.833)"><circle r="2.5" /></g><g id="node-19" transform="translate(217.258,39.167)"><circle r="2.5" /></g><g id="node-20" transform="translate(217.615,37.500)"><circle r="2.5" /></g><g id="node-21" transform="translate(207.533,35.833)"><circle r="2.5" /></g><g id="node-22" transform="translate(234.260,34.167)"><circle r="2.5" /></g><g id="node-23" transform="translate(233.610,32.500)"><circle r="2.5" /></g><g id="node-24" transform="translate(213.118,30.833)"><circle r="2.5" /></g><g id="node-25" transform="translate(211.251,29.167)"><circle r="2.5" /></g><g id="node-26" transform="translate(233.991,70.000)"><circle r="0.0" /></g><g id="node-27" transform="translate(230.028,68.750)"><circle r="0.0" /></g><g id="node-28" transform="translate(224.791,67.292)"><circle r="0.0" /></g><g id="node-29" transform="translate(207.122,63.333)"><circle r="0.0" /></g><g id="node-30" transform="translate(197.987,60.000)"><circle r="0.0" /></g><g id="node-31" transform="translate(194.310,65.312)"><circle r="0.0" /></g><g id="node-32" transform="translate(194.913,58.750)"><circle r="0.0" /></g><g id="node-33" transform="translate(199.818,53.333)"><circle r="0.0" /></g><g id="node-34" transform="translate(185.845,62.031)"><circle r="0.0" /></g><g id="node-35" transform="translate(188.165,52.083)"><circle r="0.0" /></g><g id="node-36" transform="translate(192.928,48.333)"><circle r="0.0" /></g><g id="node-37" transform="translate(183.860,58.932)"><circle r="0.0" /></g><g id="node-38" transform="translate(186.934,50.208)"><circle r="0.0" /></g><g id="node-39" transform="translate(210.450,45.000)"><circle r="0.0" /></g><g id="node-40" transform="translate(183.089,54.570)"><circle r="0.0" /></g><g id="node-41" transform="translate(200.207,43.750)"><circle r="0.0" /></g><g id="node-42" transform="translate(181.497,49.160)"><circle r="0.0" /></g><g id="node-43" transform="translate(209.279,38.333)"><circle r="0.0" /></g><g id="node-44" transform="translate(217.656,33.333)"><circle r="0.0" /></g><g id="node-45" transform="translate(178.412,44.997)"><circle r="0.0" /></g><g id="node-46" transform="translate(182.800,37.083)"><circle r="0.0" /></g><g id="node-47" transform="translate(175.768,32.083)"><circle r="0.0" /></g><g id="node-48" transform="translate(170.190,41.040)"><circle r="0.0" /></g><g id="node-49" transform="translate(169.081,30.625)"><circle r="0.0" /></g><g id="node-50" transform="translate(165.000,35.833)"><circle r="0.0" /></g></g></g></g></g><g class="toyplot-coordinates-Cartesian" id="t77ccd2b4a4f14e009e4fe9bab0d10780"><clipPath id="t70d75926af4c4764a96324b6036f4f7c"><rect x="295.0" y="15.0" width="110.0" height="70.0" /></clipPath><g clip-path="url(#t70d75926af4c4764a96324b6036f4f7c)"><g class="toytree-mark-Toytree" id="t1a33736742e041c6972ecbbd0a9fdb83"><g class="toytree-Edges" style="fill:none;stroke:rgb(14.9%,14.9%,14.9%);stroke-linecap:round;stroke-opacity:1;stroke-width:0.5"><path d="M 305.0 39.9 L 305.0 33.0 L 308.8 33.0" id="50,49" /><path d="M 305.0 39.9 L 305.0 46.8 L 309.4 46.8" id="50,48" /><path d="M 308.8 33.0 L 308.8 30.4 L 313.5 30.4" id="49,47" /><path d="M 308.8 33.0 L 308.8 35.6 L 310.4 35.6" id="49,46" /><path d="M 309.4 46.8 L 309.4 42.3 L 310.4 42.3" id="48,45" /><path d="M 309.4 46.8 L 309.4 51.3 L 313.6 51.3" id="48,44" /><path d="M 313.5 30.4 L 313.5 31.7 L 357.0 31.7" id="47,43" /><path d="M 310.4 35.6 L 310.4 37.1 L 316.4 37.1" id="46,42" /><path d="M 310.4 42.3 L 310.4 43.8 L 330.8 43.8" id="45,41" /><path d="M 313.6 51.3 L 313.6 55.0 L 314.3 55.0" id="44,40" /><path d="M 316.4 37.1 L 316.4 38.3 L 361.3 38.3" id="42,39" /><path d="M 330.8 43.8 L 330.8 45.0 L 340.3 45.0" id="41,38" /><path d="M 314.3 55.0 L 314.3 50.0 L 316.7 50.0" id="40,37" /><path d="M 314.3 55.0 L 314.3 60.0 L 317.7 60.0" id="40,36" /><path d="M 317.7 60.0 L 317.7 54.7 L 319.6 54.7" id="36,35" /><path d="M 317.7 60.0 L 317.7 65.3 L 320.4 65.3" id="36,34" /><path d="M 319.6 54.7 L 319.6 56.9 L 322.2 56.9" id="35,33" /><path d="M 320.4 65.3 L 320.4 63.3 L 346.5 63.3" id="34,32" /><path d="M 320.4 65.3 L 320.4 67.3 L 350.5 67.3" id="34,31" /><path d="M 322.2 56.9 L 322.2 55.0 L 329.8 55.0" id="33,30" /><path d="M 322.2 56.9 L 322.2 58.8 L 329.5 58.8" id="33,29" /><path d="M 350.5 67.3 L 350.5 68.8 L 356.3 68.8" id="31,28" /><path d="M 329.5 58.8 L 329.5 60.0 L 340.8 60.0" id="29,27" /><path d="M 356.3 68.8 L 356.3 70.0 L 359.0 70.0" id="28,26" /><path d="M 313.5 30.4 L 313.5 29.2 L 369.2 29.2" id="47,25" /><path d="M 357.0 31.7 L 357.0 30.8 L 379.3 30.8" id="43,24" /><path d="M 357.0 31.7 L 357.0 32.5 L 380.1 32.5" id="43,23" /><path d="M 310.4 35.6 L 310.4 34.2 L 363.1 34.2" id="46,22" /><path d="M 316.4 37.1 L 316.4 35.8 L 355.9 35.8" id="42,21" /><path d="M 361.3 38.3 L 361.3 37.5 L 364.1 37.5" id="39,20" /><path d="M 361.3 38.3 L 361.3 39.2 L 363.5 39.2" id="39,19" /><path d="M 310.4 42.3 L 310.4 40.8 L 362.1 40.8" id="45,18" /><path d="M 330.8 43.8 L 330.8 42.5 L 366.6 42.5" id="41,17" /><path d="M 340.3 45.0 L 340.3 44.2 L 365.7 44.2" id="38,16" /><path d="M 340.3 45.0 L 340.3 45.8 L 369.2 45.8" id="38,15" /><path d="M 313.6 51.3 L 313.6 47.5 L 354.7 47.5" id="44,14" /><path d="M 316.7 50.0 L 316.7 49.2 L 363.5 49.2" id="37,13" /><path d="M 316.7 50.0 L 316.7 50.8 L 348.2 50.8" id="37,12" /><path d="M 319.6 54.7 L 319.6 52.5 L 359.6 52.5" id="35,11" /><path d="M 329.8 55.0 L 329.8 54.2 L 362.1 54.2" id="30,10" /><path d="M 329.8 55.0 L 329.8 55.8 L 373.8 55.8" id="30,9" /><path d="M 329.5 58.8 L 329.5 57.5 L 369.2 57.5" id="29,8" /><path d="M 340.8 60.0 L 340.8 59.2 L 390.3 59.2" id="27,7" /><path d="M 340.8 60.0 L 340.8 60.8 L 372.6 60.8" id="27,6" /><path d="M 346.5 63.3 L 346.5 62.5 L 360.1 62.5" id="32,5" /><path d="M 346.5 63.3 L 346.5 64.2 L 359.8 64.2" id="32,4" /><path d="M 350.5 67.3 L 350.5 65.8 L 388.2 65.8" id="31,3" /><path d="M 356.3 68.8 L 356.3 67.5 L 375.2 67.5" id="28,2" /><path d="M 359.0 70.0 L 359.0 69.2 L 381.5 69.2" id="26,1" /><path d="M 359.0 70.0 L 359.0 70.8 L 381.8 70.8" id="26,0" /></g><g class="toytree-Nodes" style="fill:rgb(100%,0%,0%);fill-opacity:1.0;stroke:None;stroke-width:1"><g id="node-0" transform="translate(381.778,70.833)"><circle r="2.5" /></g><g id="node-1" transform="translate(381.546,69.167)"><circle r="2.5" /></g><g id="node-2" transform="translate(375.235,67.500)"><circle r="2.5" /></g><g id="node-3" transform="translate(388.246,65.833)"><circle r="2.5" /></g><g id="node-4" transform="translate(359.764,64.167)"><circle r="2.5" /></g><g id="node-5" transform="translate(360.127,62.500)"><circle r="2.5" /></g><g id="node-6" transform="translate(372.596,60.833)"><circle r="2.5" /></g><g id="node-7" transform="translate(390.263,59.167)"><circle r="2.5" /></g><g id="node-8" transform="translate(369.237,57.500)"><circle r="2.5" /></g><g id="node-9" transform="translate(373.816,55.833)"><circle r="2.5" /></g><g id="node-10" transform="translate(362.076,54.167)"><circle r="2.5" /></g><g id="node-11" transform="translate(359.636,52.500)"><circle r="2.5" /></g><g id="node-12" transform="translate(348.230,50.833)"><circle r="2.5" /></g><g id="node-13" transform="translate(363.451,49.167)"><circle r="2.5" /></g><g id="node-14" transform="translate(354.692,47.500)"><circle r="2.5" /></g><g id="node-15" transform="translate(369.199,45.833)"><circle r="2.5" /></g><g id="node-16" transform="translate(365.694,44.167)"><circle r="2.5" /></g><g id="node-17" transform="translate(366.628,42.500)"><circle r="2.5" /></g><g id="node-18" transform="translate(362.118,40.833)"><circle r="2.5" /></g><g id="node-19" transform="translate(363.543,39.167)"><circle r="2.5" /></g><g id="node-20" transform="translate(364.126,37.500)"><circle r="2.5" /></g><g id="node-21" transform="translate(355.915,35.833)"><circle r="2.5" /></g><g id="node-22" transform="translate(363.070,34.167)"><circle r="2.5" /></g><g id="node-23" transform="translate(380.130,32.500)"><circle r="2.5" /></g><g id="node-24" transform="translate(379.291,30.833)"><circle r="2.5" /></g><g id="node-25" transform="translate(369.160,29.167)"><circle r="2.5" /></g><g id="node-26" transform="translate(359.006,70.000)"><circle r="0.0" /></g><g id="node-27" transform="translate(340.833,60.000)"><circle r="0.0" /></g><g id="node-28" transform="translate(356.343,68.750)"><circle r="0.0" /></g><g id="node-29" transform="translate(329.486,58.750)"><circle r="0.0" /></g><g id="node-30" transform="translate(329.819,55.000)"><circle r="0.0" /></g><g id="node-31" transform="translate(350.506,67.292)"><circle r="0.0" /></g><g id="node-32" transform="translate(346.483,63.333)"><circle r="0.0" /></g><g id="node-33" transform="translate(322.170,56.875)"><circle r="0.0" /></g><g id="node-34" transform="translate(320.379,65.312)"><circle r="0.0" /></g><g id="node-35" transform="translate(319.587,54.688)"><circle r="0.0" /></g><g id="node-36" transform="translate(317.695,60.000)"><circle r="0.0" /></g><g id="node-37" transform="translate(316.657,50.000)"><circle r="0.0" /></g><g id="node-38" transform="translate(340.268,45.000)"><circle r="0.0" /></g><g id="node-39" transform="translate(361.291,38.333)"><circle r="0.0" /></g><g id="node-40" transform="translate(314.318,55.000)"><circle r="0.0" /></g><g id="node-41" transform="translate(330.837,43.750)"><circle r="0.0" /></g><g id="node-42" transform="translate(316.392,37.083)"><circle r="0.0" /></g><g id="node-43" transform="translate(356.995,31.667)"><circle r="0.0" /></g><g id="node-44" transform="translate(313.613,51.250)"><circle r="0.0" /></g><g id="node-45" transform="translate(310.403,42.292)"><circle r="0.0" /></g><g id="node-46" transform="translate(310.430,35.625)"><circle r="0.0" /></g><g id="node-47" transform="translate(313.458,30.417)"><circle r="0.0" /></g><g id="node-48" transform="translate(309.371,46.771)"><circle r="0.0" /></g><g id="node-49" transform="translate(308.796,33.021)"><circle r="0.0" /></g><g id="node-50" transform="translate(305.000,39.896)"><circle r="0.0" /></g></g></g></g></g><g class="toyplot-coordinates-Cartesian" id="tb93386db04184d2b9955f0c0b4a3f3fb"><clipPath id="t21825239a8044e9a873655f1de9507ae"><rect x="435.0" y="15.0" width="110.0" height="70.0" /></clipPath><g clip-path="url(#t21825239a8044e9a873655f1de9507ae)"><g class="toytree-mark-Toytree" id="t362313e9b506416e922ec68ac46358c9"><g class="toytree-Edges" style="fill:none;stroke:rgb(14.9%,14.9%,14.9%);stroke-linecap:round;stroke-opacity:1;stroke-width:0.5"><path d="M 445.0 40.5 L 445.0 33.0 L 453.5 33.0" id="50,49" /><path d="M 445.0 40.5 L 445.0 48.0 L 447.2 48.0" id="50,48" /><path d="M 453.5 33.0 L 453.5 30.4 L 458.4 30.4" id="49,47" /><path d="M 453.5 33.0 L 453.5 35.6 L 463.1 35.6" id="49,46" /><path d="M 447.2 48.0 L 447.2 42.3 L 453.1 42.3" id="48,45" /><path d="M 447.2 48.0 L 447.2 53.7 L 452.9 53.7" id="48,44" /><path d="M 458.4 30.4 L 458.4 31.7 L 495.3 31.7" id="47,43" /><path d="M 463.1 35.6 L 463.1 37.1 L 476.2 37.1" id="46,42" /><path d="M 453.1 42.3 L 453.1 43.8 L 472.6 43.8" id="45,41" /><path d="M 452.9 53.7 L 452.9 49.0 L 457.8 49.0" id="44,40" /><path d="M 452.9 53.7 L 452.9 58.4 L 460.2 58.4" id="44,39" /><path d="M 476.2 37.1 L 476.2 38.3 L 514.3 38.3" id="42,38" /><path d="M 472.6 43.8 L 472.6 45.0 L 490.4 45.0" id="41,37" /><path d="M 457.8 49.0 L 457.8 50.4 L 461.7 50.4" id="40,36" /><path d="M 460.2 58.4 L 460.2 55.0 L 475.4 55.0" id="39,35" /><path d="M 460.2 58.4 L 460.2 61.8 L 466.0 61.8" id="39,34" /><path d="M 461.7 50.4 L 461.7 51.7 L 464.8 51.7" id="36,33" /><path d="M 466.0 61.8 L 466.0 58.3 L 490.6 58.3" id="34,32" /><path d="M 466.0 61.8 L 466.0 65.2 L 471.5 65.2" id="34,31" /><path d="M 471.5 65.2 L 471.5 62.1 L 473.1 62.1" id="31,30" /><path d="M 471.5 65.2 L 471.5 68.3 L 500.6 68.3" id="31,29" /><path d="M 473.1 62.1 L 473.1 63.3 L 493.8 63.3" id="30,28" /><path d="M 500.6 68.3 L 500.6 66.7 L 505.7 66.7" id="29,27" /><path d="M 500.6 68.3 L 500.6 70.0 L 502.2 70.0" id="29,26" /><path d="M 458.4 30.4 L 458.4 29.2 L 501.0 29.2" id="47,25" /><path d="M 495.3 31.7 L 495.3 30.8 L 512.6 30.8" id="43,24" /><path d="M 495.3 31.7 L 495.3 32.5 L 512.6 32.5" id="43,23" /><path d="M 463.1 35.6 L 463.1 34.2 L 497.8 34.2" id="46,22" /><path d="M 476.2 37.1 L 476.2 35.8 L 496.5 35.8" id="42,21" /><path d="M 514.3 38.3 L 514.3 37.5 L 515.9 37.5" id="38,20" /><path d="M 514.3 38.3 L 514.3 39.2 L 517.8 39.2" id="38,19" /><path d="M 453.1 42.3 L 453.1 40.8 L 494.3 40.8" id="45,18" /><path d="M 472.6 43.8 L 472.6 42.5 L 498.5 42.5" id="41,17" /><path d="M 490.4 45.0 L 490.4 44.2 L 512.3 44.2" id="37,16" /><path d="M 490.4 45.0 L 490.4 45.8 L 513.1 45.8" id="37,15" /><path d="M 457.8 49.0 L 457.8 47.5 L 487.2 47.5" id="40,14" /><path d="M 461.7 50.4 L 461.7 49.2 L 511.7 49.2" id="36,13" /><path d="M 464.8 51.7 L 464.8 50.8 L 493.7 50.8" id="33,12" /><path d="M 464.8 51.7 L 464.8 52.5 L 483.2 52.5" id="33,11" /><path d="M 475.4 55.0 L 475.4 54.2 L 509.6 54.2" id="35,10" /><path d="M 475.4 55.0 L 475.4 55.8 L 509.0 55.8" id="35,9" /><path d="M 490.6 58.3 L 490.6 57.5 L 507.7 57.5" id="32,8" /><path d="M 490.6 58.3 L 490.6 59.2 L 521.4 59.2" id="32,7" /><path d="M 473.1 62.1 L 473.1 60.8 L 515.3 60.8" id="30,6" /><path d="M 493.8 63.3 L 493.8 62.5 L 510.9 62.5" id="28,5" /><path d="M 493.8 63.3 L 493.8 64.2 L 512.2 64.2" id="28,4" /><path d="M 505.7 66.7 L 505.7 65.8 L 517.2 65.8" id="27,3" /><path d="M 505.7 66.7 L 505.7 67.5 L 528.8 67.5" id="27,2" /><path d="M 502.2 70.0 L 502.2 69.2 L 520.7 69.2" id="26,1" /><path d="M 502.2 70.0 L 502.2 70.8 L 530.3 70.8" id="26,0" /></g><g class="toytree-Nodes" style="fill:rgb(100%,0%,0%);fill-opacity:1.0;stroke:None;stroke-width:1"><g id="node-0" transform="translate(530.263,70.833)"><circle r="2.5" /></g><g id="node-1" transform="translate(520.709,69.167)"><circle r="2.5" /></g><g id="node-2" transform="translate(528.758,67.500)"><circle r="2.5" /></g><g id="node-3" transform="translate(517.172,65.833)"><circle r="2.5" /></g><g id="node-4" transform="translate(512.198,64.167)"><circle r="2.5" /></g><g id="node-5" transform="translate(510.911,62.500)"><circle r="2.5" /></g><g id="node-6" transform="translate(515.292,60.833)"><circle r="2.5" /></g><g id="node-7" transform="translate(521.443,59.167)"><circle r="2.5" /></g><g id="node-8" transform="translate(507.721,57.500)"><circle r="2.5" /></g><g id="node-9" transform="translate(508.999,55.833)"><circle r="2.5" /></g><g id="node-10" transform="translate(509.610,54.167)"><circle r="2.5" /></g><g id="node-11" transform="translate(483.189,52.500)"><circle r="2.5" /></g><g id="node-12" transform="translate(493.692,50.833)"><circle r="2.5" /></g><g id="node-13" transform="translate(511.692,49.167)"><circle r="2.5" /></g><g id="node-14" transform="translate(487.249,47.500)"><circle r="2.5" /></g><g id="node-15" transform="translate(513.100,45.833)"><circle r="2.5" /></g><g id="node-16" transform="translate(512.262,44.167)"><circle r="2.5" /></g><g id="node-17" transform="translate(498.548,42.500)"><circle r="2.5" /></g><g id="node-18" transform="translate(494.274,40.833)"><circle r="2.5" /></g><g id="node-19" transform="translate(517.813,39.167)"><circle r="2.5" /></g><g id="node-20" transform="translate(515.892,37.500)"><circle r="2.5" /></g><g id="node-21" transform="translate(496.519,35.833)"><circle r="2.5" /></g><g id="node-22" transform="translate(497.771,34.167)"><circle r="2.5" /></g><g id="node-23" transform="translate(512.633,32.500)"><circle r="2.5" /></g><g id="node-24" transform="translate(512.596,30.833)"><circle r="2.5" /></g><g id="node-25" transform="translate(500.956,29.167)"><circle r="2.5" /></g><g id="node-26" transform="translate(502.152,70.000)"><circle r="0.0" /></g><g id="node-27" transform="translate(505.660,66.667)"><circle r="0.0" /></g><g id="node-28" transform="translate(493.756,63.333)"><circle r="0.0" /></g><g id="node-29" transform="translate(500.555,68.333)"><circle r="0.0" /></g><g id="node-30" transform="translate(473.066,62.083)"><circle r="0.0" /></g><g id="node-31" transform="translate(471.545,65.208)"><circle r="0.0" /></g><g id="node-32" transform="translate(490.623,58.333)"><circle r="0.0" /></g><g id="node-33" transform="translate(464.790,51.667)"><circle r="0.0" /></g><g id="node-34" transform="translate(465.981,61.771)"><circle r="0.0" /></g><g id="node-35" transform="translate(475.402,55.000)"><circle r="0.0" /></g><g id="node-36" transform="translate(461.664,50.417)"><circle r="0.0" /></g><g id="node-37" transform="translate(490.418,45.000)"><circle r="0.0" /></g><g id="node-38" transform="translate(514.286,38.333)"><circle r="0.0" /></g><g id="node-39" transform="translate(460.203,58.385)"><circle r="0.0" /></g><g id="node-40" transform="translate(457.837,48.958)"><circle r="0.0" /></g><g id="node-41" transform="translate(472.568,43.750)"><circle r="0.0" /></g><g id="node-42" transform="translate(476.171,37.083)"><circle r="0.0" /></g><g id="node-43" transform="translate(495.317,31.667)"><circle r="0.0" /></g><g id="node-44" transform="translate(452.929,53.672)"><circle r="0.0" /></g><g id="node-45" transform="translate(453.078,42.292)"><circle r="0.0" /></g><g id="node-46" transform="translate(463.132,35.625)"><circle r="0.0" /></g><g id="node-47" transform="translate(458.397,30.417)"><circle r="0.0" /></g><g id="node-48" transform="translate(447.172,47.982)"><circle r="0.0" /></g><g id="node-49" transform="translate(453.492,33.021)"><circle r="0.0" /></g><g id="node-50" transform="translate(445.000,40.501)"><circle r="0.0" /></g></g></g></g></g></svg>