<svg class="toyplot-canvas-Canvas" xmlns:toyplot="http://www.sandia.gov/toyplot" xmlns:xlink="http://www.w3.org/1999/xlink" xmlns="http://www.w3.org/2000/svg" width="560.0px" height="100.0px" viewBox="0 0 560.0 100.0" preserveAspectRatio="xMidYMid meet" style="background-color:transparent;border-color:#292724;border-style:none;border-width:1.0;fill:rgb(16.1%,15.3%,14.1%);fill-opacity:1.0;font-family:Helvetica;font-size:12px;opacity:1.0;stroke:rgb(16.1%,15.3%,14.1%);stroke-opacity:1.0;stroke-width:1.0" id="te945a958f2a742778caefca82520759c"><g class="toyplot-coordinates-Cartesian" id="ted957e5b6239485da0750aac7e0cd223"><clipPath id="tca7aea05e28848e5805afa90317eb6aa"><rect x="15.0" y="15.0" width="110.0" height="70.0" /></clipPath><g clip-path="url(#tca7aea05e28848e5805afa90317eb6aa)"><g class="toytree-mark-Toytree" id="ta8b5e27f67d848a4aac98fb16d0a6cf0"><g class="toytree-Edges" style="fill:none;stroke:rgb(14.9%,14.9%,14.9%);stroke-linecap:round;stroke-opacity:1;stroke-width:0.5"><path d="M 25.0 34.4 L 25.0 39.6 L 43.6 39.6" id="28,27" /><path d="M 43.6 39.6 L 43.6 47.1 L 49.1 47.1" id="27,26" /><path d="M 49.1 47.1 L 49.1 37.9 L 54.1 37.9" id="26,25" /><path d="M 49.1 47.1 L 49.1 56.2 L 49.7 56.2" id="26,24" /><path d="M 54.1 37.9 L 54.1 40.7 L 55.1 40.7" id="25,23" /><path d="M 49.7 56.2 L 49.7 51.5 L 82.6 51.5" id="24,22" /><path d="M 49.7 56.2 L 49.7 61.0 L 66.5 61.0" id="24,21" /><path d="M 55.1 40.7 L 55.1 43.3 L 72.1 43.3" id="23,20" /><path d="M 66.5 61.0 L 66.5 57.4 L 92.3 57.4" id="21,19" /><path d="M 66.5 61.0 L 66.5 64.5 L 74.7 64.5" id="21,18" /><path d="M 72.1 43.3 L 72.1 45.5 L 75.8 45.5" id="20,17" /><path d="M 74.7 64.5 L 74.7 67.1 L 99.6 67.1" id="18,16" /><path d="M 99.6 67.1 L 99.6 69.3 L 100.2 69.3" id="16,15" /><path d="M 25.0 34.4 L 25.0 29.2 L 102.9 29.2" id="28,14" /><path d="M 43.6 39.6 L 43.6 32.1 L 107.2 32.1" id="27,13" /><path d="M 54.1 37.9 L 54.1 35.1 L 100.4 35.1" id="25,12" /><path d="M 55.1 40.7 L 55.1 38.1 L 99.7 38.1" id="23,11" /><path d="M 72.1 43.3 L 72.1 41.1 L 99.9 41.1" id="20,10" /><path d="M 75.8 45.5 L 75.8 44.0 L 105.1 44.0" id="17,9" /><path d="M 75.8 45.5 L 75.8 47.0 L 107.2 47.0" id="17,8" /><path d="M 82.6 51.5 L 82.6 50.0 L 99.0 50.0" id="22,7" /><path d="M 82.6 51.5 L 82.6 53.0 L 101.5 53.0" id="22,6" /><path d="M 92.3 57.4 L 92.3 56.0 L 110.3 56.0" id="19,5" /><path d="M 92.3 57.4 L 92.3 58.9 L 107.5 58.9" id="19,4" /><path d="M 74.7 64.5 L 74.7 61.9 L 102.0 61.9" id="18,3" /><path d="M 99.6 67.1 L 99.6 64.9 L 101.0 64.9" id="16,2" /><path d="M 100.2 69.3 L 100.2 67.9 L 100.6 67.9" id="15,1" /><path d="M 100.2 69.3 L 100.2 70.8 L 101.7 70.8" id="15,0" /></g><g class="toytree-Nodes" style="fill:rgb(100%,0%,0%);fill-opacity:1.0;stroke:None;stroke-width:1"><g id="node-0" transform="translate(101.737,70.833)"><circle r="2.5" /></g><g id="node-1" transform="translate(100.611,67.857)"><circle r="2.5" /></g><g id="node-2" transform="translate(101.023,64.881)"><circle r="2.5" /></g><g id="node-3" transform="translate(102.045,61.905)"><circle r="2.5" /></g><g id="node-4" transform="translate(107.510,58.929)"><circle r="2.5" /></g><g id="node-5" transform="translate(110.263,55.952)"><circle r="2.5" /></g><g id="node-6" transform="translate(101.483,52.976)"><circle r="2.5" /></g><g id="node-7" transform="translate(98.988,50.000)"><circle r="2.5" /></g><g id="node-8" transform="translate(107.193,47.024)"><circle r="2.5" /></g><g id="node-9" transform="translate(105.067,44.048)"><circle r="2.5" /></g><g id="node-10" transform="translate(99.881,41.071)"><circle r="2.5" /></g><g id="node-11" transform="translate(99.681,38.095)"><circle r="2.5" /></g><g id="node-12" transform="translate(100.408,35.119)"><circle r="2.5" /></g><g id="node-13" transform="translate(107.221,32.143)"><circle r="2.5" /></g><g id="node-14" transform="translate(102.926,29.167)"><circle r="2.5" /></g><g id="node-15" transform="translate(100.182,69.345)"><circle r="0.0" /></g><g id="node-16" transform="translate(99.562,67.113)"><circle r="0.0" /></g><g id="node-17" transform="translate(75.786,45.536)"><circle r="0.0" /></g><g id="node-18" transform="translate(74.723,64.509)"><circle r="0.0" /></g><g id="node-19" transform="translate(92.327,57.440)"><circle r="0.0" /></g><g id="node-20" transform="translate(72.092,43.304)"><circle r="0.0" /></g><g id="node-21" transform="translate(66.528,60.975)"><circle r="0.0" /></g><g id="node-22" transform="translate(82.585,51.488)"><circle r="0.0" /></g><g id="node-23" transform="translate(55.109,40.699)"><circle r="0.0" /></g><g id="node-24" transform="translate(49.657,56.231)"><circle r="0.0" /></g><g id="node-25" transform="translate(54.101,37.909)"><circle r="0.0" /></g><g id="node-26" transform="translate(49.127,47.070)"><circle r="0.0" /></g><g id="node-27" transform="translate(43.594,39.607)"><circle r="0.0" /></g><g id="node-28" transform="translate(25.000,34.387)"><circle r="0.0" /></g></g></g></g></g><g class="toyplot-coordinates-Cartesian" id="t009bde5fd90d4030a0d806a39549873c"><clipPath id="te616bdf47d254fc8b85886fa7761a4d9"><rect x="155.0" y="15.0" width="110.0" height="70.0" /></clipPath><g clip-path="url(#te616bdf47d254fc8b85886fa7761a4d9)"><g class="toytree-mark-Toytree" id="t52ddac3951e64bc7b019fdc838991654"><g class="toytree-Edges" style="fill:none;stroke:rgb(14.9%,14.9%,14.9%);stroke-linecap:round;stroke-opacity:1;stroke-width:0.5"><path d="M 165.0 33.8 L 165.0 38.5 L 167.9 38.5" id="28,27" /><path d="M 167.9 38.5 L 167.9 33.6 L 172.2 33.6" id="27,26" /><path d="M 167.9 38.5 L 167.9 43.4 L 168.7 43.4" id="27,25" /><path d="M 168.7 43.4 L 168.7 48.7 L 170.9 48.7" id="25,24" /><path d="M 170.9 48.7 L 170.9 56.3 L 171.0 56.3" id="24,23" /><path d="M 171.0 56.3 L 171.0 48.9 L 177.1 48.9" id="23,22" /><path d="M 171.0 56.3 L 171.0 63.8 L 175.1 63.8" id="23,21" /><path d="M 177.1 48.9 L 177.1 45.5 L 181.4 45.5" id="22,20" /><path d="M 177.1 48.9 L 177.1 52.2 L 184.6 52.2" id="22,19" /><path d="M 175.1 63.8 L 175.1 60.4 L 182.1 60.4" id="21,18" /><path d="M 175.1 63.8 L 175.1 67.1 L 184.7 67.1" id="21,17" /><path d="M 184.6 52.2 L 184.6 54.5 L 198.7 54.5" id="19,16" /><path d="M 184.7 67.1 L 184.7 69.3 L 207.1 69.3" id="17,15" /><path d="M 165.0 33.8 L 165.0 29.2 L 243.3 29.2" id="28,14" /><path d="M 172.2 33.6 L 172.2 32.1 L 243.8 32.1" id="26,13" /><path d="M 172.2 33.6 L 172.2 35.1 L 247.1 35.1" id="26,12" /><path d="M 168.7 43.4 L 168.7 38.1 L 250.3 38.1" id="25,11" /><path d="M 170.9 48.7 L 170.9 41.1 L 246.9 41.1" id="24,10" /><path d="M 181.4 45.5 L 181.4 44.0 L 232.2 44.0" id="20,9" /><path d="M 181.4 45.5 L 181.4 47.0 L 242.9 47.0" id="20,8" /><path d="M 184.6 52.2 L 184.6 50.0 L 244.5 50.0" id="19,7" /><path d="M 198.7 54.5 L 198.7 53.0 L 243.2 53.0" id="16,6" /><path d="M 198.7 54.5 L 198.7 56.0 L 247.4 56.0" id="16,5" /><path d="M 182.1 60.4 L 182.1 58.9 L 236.9 58.9" id="18,4" /><path d="M 182.1 60.4 L 182.1 61.9 L 246.3 61.9" id="18,3" /><path d="M 184.7 67.1 L 184.7 64.9 L 246.0 64.9" id="17,2" /><path d="M 207.1 69.3 L 207.1 67.9 L 237.5 67.9" id="15,1" /><path d="M 207.1 69.3 L 207.1 70.8 L 244.8 70.8" id="15,0" /></g><g class="toytree-Nodes" style="fill:rgb(100%,0%,0%);fill-opacity:1.0;stroke:None;stroke-width:1"><g id="node-0" transform="translate(244.788,70.833)"><circle r="2.5" /></g><g id="node-1" transform="translate(237.498,67.857)"><circle r="2.5" /></g><g id="node-2" transform="translate(245.990,64.881)"><circle r="2.5" /></g><g id="node-3" transform="translate(246.281,61.905)"><circle r="2.5" /></g><g id="node-4" transform="translate(236.898,58.929)"><circle r="2.5" /></g><g id="node-5" transform="translate(247.355,55.952)"><circle r="2.5" /></g><g id="node-6" transform="translate(243.218,52.976)"><circle r="2.5" /></g><g id="node-7" transform="translate(244.491,50.000)"><circle r="2.5" /></g><g id="node-8" transform="translate(242.939,47.024)"><circle r="2.5" /></g><g id="node-9" transform="translate(232.181,44.048)"><circle r="2.5" /></g><g id="node-10" transform="translate(246.857,41.071)"><circle r="2.5" /></g><g id="node-11" transform="translate(250.263,38.095)"><circle r="2.5" /></g><g id="node-12" transform="translate(247.108,35.119)"><circle r="2.5" /></g><g id="node-13" transform="translate(243.776,32.143)"><circle r="2.5" /></g><g id="node-14" transform="translate(243.251,29.167)"><circle r="2.5" /></g><g id="node-15" transform="translate(207.095,69.345)"><circle r="0.0" /></g><g id="node-16" transform="translate(198.650,54.464)"><circle r="0.0" /></g><g id="node-17" transform="translate(184.675,67.113)"><circle r="0.0" /></g><g id="node-18" transform="translate(182.070,60.417)"><circle r="0.0" /></g><g id="node-19" transform="translate(184.634,52.232)"><circle r="0.0" /></g><g id="node-20" transform="translate(181.386,45.536)"><circle r="0.0" /></g><g id="node-21" transform="translate(175.087,63.765)"><circle r="0.0" /></g><g id="node-22" transform="translate(177.128,48.884)"><circle r="0.0" /></g><g id="node-23" transform="translate(171.012,56.324)"><circle r="0.0" /></g><g id="node-24" transform="translate(170.854,48.698)"><circle r="0.0" /></g><g id="node-25" transform="translate(168.658,43.397)"><circle r="0.0" /></g><g id="node-26" transform="translate(172.204,33.631)"><circle r="0.0" /></g><g id="node-27" transform="translate(167.866,38.514)"><circle r="0.0" /></g><g id="node-28" transform="translate(165.000,33.840)"><circle r="0.0" /></g></g></g></g></g><g class="toyplot-coordinates-Cartesian" id="t052c80a53ce34881b73a5943b2995d9c"><clipPath id="t1332af1419dd45809c23f48b2ef74b20"><rect x="295.0" y="15.0" width="110.0" height="70.0" /></clipPath><g clip-path="url(#t1332af1419dd45809c23f48b2ef74b20)"><g class="toytree-mark-Toytree" id="tb621f76f9b3f465eb25378dc4ba015ba"><g class="toytree-Edges" style="fill:none;stroke:rgb(14.9%,14.9%,14.9%);stroke-linecap:round;stroke-opacity:1;stroke-width:0.5"><path d="M 305.0 33.9 L 305.0 38.6 L 324.3 38.6" id="28,27" /><path d="M 324.3 38.6 L 324.3 45.0 L 326.3 45.0" id="27,26" /><path d="M 326.3 45.0 L 326.3 36.6 L 339.7 36.6" id="26,25" /><path d="M 326.3 45.0 L 326.3 53.4 L 327.7 53.4" id="26,24" /><path d="M 327.7 53.4 L 327.7 45.9 L 330.5 45.9" id="24,23" /><path d="M 327.7 53.4 L 327.7 61.0 L 332.6 61.0" id="24,22" /><path d="M 330.5 45.9 L 330.5 42.6 L 330.7 42.6" id="23,21" /><path d="M 330.5 45.9 L 330.5 49.3 L 335.1 49.3" id="23,20" /><path d="M 332.6 61.0 L 332.6 57.4 L 348.9 57.4" id="22,19" /><path d="M 332.6 61.0 L 332.6 64.5 L 337.5 64.5" id="22,18" /><path d="M 335.1 49.3 L 335.1 51.5 L 341.0 51.5" id="20,17" /><path d="M 337.5 64.5 L 337.5 67.1 L 343.2 67.1" id="18,16" /><path d="M 343.2 67.1 L 343.2 69.3 L 350.4 69.3" id="16,15" /><path d="M 305.0 33.9 L 305.0 29.2 L 364.9 29.2" id="28,14" /><path d="M 324.3 38.6 L 324.3 32.1 L 367.8 32.1" id="27,13" /><path d="M 339.7 36.6 L 339.7 35.1 L 359.7 35.1" id="25,12" /><path d="M 339.7 36.6 L 339.7 38.1 L 364.8 38.1" id="25,11" /><path d="M 330.7 42.6 L 330.7 41.1 L 362.4 41.1" id="21,10" /><path d="M 330.7 42.6 L 330.7 44.0 L 363.0 44.0" id="21,9" /><path d="M 335.1 49.3 L 335.1 47.0 L 364.4 47.0" id="20,8" /><path d="M 341.0 51.5 L 341.0 50.0 L 358.8 50.0" id="17,7" /><path d="M 341.0 51.5 L 341.0 53.0 L 360.9 53.0" id="17,6" /><path d="M 348.9 57.4 L 348.9 56.0 L 390.3 56.0" id="19,5" /><path d="M 348.9 57.4 L 348.9 58.9 L 382.0 58.9" id="19,4" /><path d="M 337.5 64.5 L 337.5 61.9 L 365.0 61.9" id="18,3" /><path d="M 343.2 67.1 L 343.2 64.9 L 370.0 64.9" id="16,2" /><path d="M 350.4 69.3 L 350.4 67.9 L 358.0 67.9" id="15,1" /><path d="M 350.4 69.3 L 350.4 70.8 L 358.2 70.8" id="15,0" /></g><g class="toytree-Nodes" style="fill:rgb(100%,0%,0%);fill-opacity:1.0;stroke:None;stroke-width:1"><g id="node-0" transform="translate(358.224,70.833)"><circle r="2.5" /></g><g id="node-1" transform="translate(358.005,67.857)"><circle r="2.5" /></g><g id="node-2" transform="translate(369.952,64.881)"><circle r="2.5" /></g><g id="node-3" transform="translate(365.025,61.905)"><circle r="2.5" /></g><g id="node-4" transform="translate(381.969,58.929)"><circle r="2.5" /></g><g id="node-5" transform="translate(390.263,55.952)"><circle r="2.5" /></g><g id="node-6" transform="translate(360.851,52.976)"><circle r="2.5" /></g><g id="node-7" transform="translate(358.767,50.000)"><circle r="2.5" /></g><g id="node-8" transform="translate(364.368,47.024)"><circle r="2.5" /></g><g id="node-9" transform="translate(362.997,44.048)"><circle r="2.5" /></g><g id="node-10" transform="translate(362.402,41.071)"><circle r="2.5" /></g><g id="node-11" transform="translate(364.841,38.095)"><circle r="2.5" /></g><g id="node-12" transform="translate(359.682,35.119)"><circle r="2.5" /></g><g id="node-13" transform="translate(367.766,32.143)"><circle r="2.5" /></g><g id="node-14" transform="translate(364.944,29.167)"><circle r="2.5" /></g><g id="node-15" transform="translate(350.363,69.345)"><circle r="0.0" /></g><g id="node-16" transform="translate(343.155,67.113)"><circle r="0.0" /></g><g id="node-17" transform="translate(341.000,51.488)"><circle r="0.0" /></g><g id="node-18" transform="translate(337.496,64.509)"><circle r="0.0" /></g><g id="node-19" transform="translate(348.892,57.440)"><circle r="0.0" /></g><g id="node-20" transform="translate(335.079,49.256)"><circle r="0.0" /></g><g id="node-21" transform="translate(330.687,42.560)"><circle r="0.0" /></g><g id="node-22" transform="translate(332.605,60.975)"><circle r="0.0" /></g><g id="node-23" transform="translate(330.468,45.908)"><circle r="0.0" /></g><g id="node-24" transform="translate(327.669,53.441)"><circle r="0.0" /></g><g id="node-25" transform="translate(339.708,36.607)"><circle r="0.0" /></g><g id="node-26" transform="translate(326.268,45.024)"><circle r="0.0" /></g><g id="node-27" transform="translate(324.315,38.584)"><circle r="0.0" /></g><g id="node-28" transform="translate(305.000,33.875)"><circle r="0.0" /></g></g></g></g></g><g class="toyplot-coordinates-Cartesian" id="t301e078d9c614a7cac49122f2392c081"><clipPath id="t6b0c3edfa5544483b92f58abcac4bf34"><rect x="435.0" y="15.0" width="110.0" height="70.0" /></clipPath><g clip-path="url(#t6b0c3edfa5544483b92f58abcac4bf34)"><g class="toytree-mark-Toytree" id="tb9bb1f42b64048c481e7b26117e3eecb"><g class="toytree-Edges" style="fill:none;stroke:rgb(14.9%,14.9%,14.9%);stroke-linecap:round;stroke-opacity:1;stroke-width:0.5"><path d="M 445.0 37.9 L 445.0 46.7 L 479.5 46.7" id="28,27" /><path d="M 479.5 46.7 L 479.5 37.2 L 485.7 37.2" id="27,26" /><path d="M 479.5 46.7 L 479.5 56.2 L 485.3 56.2" id="27,25" /><path d="M 485.7 37.2 L 485.7 33.6 L 498.6 33.6" id="26,24" /><path d="M 485.7 37.2 L 485.7 40.7 L 487.5 40.7" id="26,23" /><path d="M 485.3 56.2 L 485.3 51.5 L 500.8 51.5" id="25,22" /><path d="M 485.3 56.2 L 485.3 61.0 L 493.3 61.0" id="25,21" /><path d="M 487.5 40.7 L 487.5 43.3 L 493.1 43.3" id="23,20" /><path d="M 493.3 61.0 L 493.3 57.4 L 497.2 57.4" id="21,19" /><path d="M 493.3 61.0 L 493.3 64.5 L 495.6 64.5" id="21,18" /><path d="M 493.1 43.3 L 493.1 45.5 L 493.1 45.5" id="20,17" /><path d="M 495.6 64.5 L 495.6 67.1 L 507.2 67.1" id="18,16" /><path d="M 507.2 67.1 L 507.2 69.3 L 512.9 69.3" id="16,15" /><path d="M 445.0 37.9 L 445.0 29.2 L 505.6 29.2" id="28,14" /><path d="M 498.6 33.6 L 498.6 32.1 L 505.7 32.1" id="24,13" /><path d="M 498.6 33.6 L 498.6 35.1 L 503.8 35.1" id="24,12" /><path d="M 487.5 40.7 L 487.5 38.1 L 496.1 38.1" id="23,11" /><path d="M 493.1 43.3 L 493.1 41.1 L 493.4 41.1" id="20,10" /><path d="M 493.1 45.5 L 493.1 44.0 L 493.1 44.0" id="17,9" /><path d="M 493.1 45.5 L 493.1 47.0 L 493.5 47.0" id="17,8" /><path d="M 500.8 51.5 L 500.8 50.0 L 506.0 50.0" id="22,7" /><path d="M 500.8 51.5 L 500.8 53.0 L 504.5 53.0" id="22,6" /><path d="M 497.2 57.4 L 497.2 56.0 L 512.1 56.0" id="19,5" /><path d="M 497.2 57.4 L 497.2 58.9 L 530.3 58.9" id="19,4" /><path d="M 495.6 64.5 L 495.6 61.9 L 511.7 61.9" id="18,3" /><path d="M 507.2 67.1 L 507.2 64.9 L 511.1 64.9" id="16,2" /><path d="M 512.9 69.3 L 512.9 67.9 L 519.8 67.9" id="15,1" /><path d="M 512.9 69.3 L 512.9 70.8 L 523.7 70.8" id="15,0" /></g><g class="toytree-Nodes" style="fill:rgb(100%,0%,0%);fill-opacity:1.0;stroke:None;stroke-width:1"><g id="node-0" transform="translate(523.651,70.833)"><circle r="2.5" /></g><g id="node-1" transform="translate(519.759,67.857)"><circle r="2.5" /></g><g id="node-2" transform="translate(511.127,64.881)"><circle r="2.5" /></g><g id="node-3" transform="translate(511.722,61.905)"><circle r="2.5" /></g><g id="node-4" transform="translate(530.263,58.929)"><circle r="2.5" /></g><g id="node-5" transform="translate(512.111,55.952)"><circle r="2.5" /></g><g id="node-6" transform="translate(504.536,52.976)"><circle r="2.5" /></g><g id="node-7" transform="translate(505.973,50.000)"><circle r="2.5" /></g><g id="node-8" transform="translate(493.496,47.024)"><circle r="2.5" /></g><g id="node-9" transform="translate(493.136,44.048)"><circle r="2.5" /></g><g id="node-10" transform="translate(493.436,41.071)"><circle r="2.5" /></g><g id="node-11" transform="translate(496.080,38.095)"><circle r="2.5" /></g><g id="node-12" transform="translate(503.779,35.119)"><circle r="2.5" /></g><g id="node-13" transform="translate(505.670,32.143)"><circle r="2.5" /></g><g id="node-14" transform="translate(505.552,29.167)"><circle r="2.5" /></g><g id="node-15" transform="translate(512.899,69.345)"><circle r="0.0" /></g><g id="node-16" transform="translate(507.230,67.113)"><circle r="0.0" /></g><g id="node-17" transform="translate(493.076,45.536)"><circle r="0.0" /></g><g id="node-18" transform="translate(495.620,64.509)"><circle r="0.0" /></g><g id="node-19" transform="translate(497.205,57.440)"><circle r="0.0" /></g><g id="node-20" transform="translate(493.076,43.304)"><circle r="0.0" /></g><g id="node-21" transform="translate(493.266,60.975)"><circle r="0.0" /></g><g id="node-22" transform="translate(500.832,51.488)"><circle r="0.0" /></g><g id="node-23" transform="translate(487.540,40.699)"><circle r="0.0" /></g><g id="node-24" transform="translate(498.583,33.631)"><circle r="0.0" /></g><g id="node-25" transform="translate(485.341,56.231)"><circle r="0.0" /></g><g id="node-26" transform="translate(485.678,37.165)"><circle r="0.0" /></g><g id="node-27" transform="translate(479.497,46.698)"><circle r="0.0" /></g><g id="node-28" transform="translate(445.000,37.932)"><circle r="0.0" /></g></g></g></g></g></svg>