<svg class="toyplot-canvas-Canvas" xmlns:toyplot="http://www.sandia.gov/toyplot" xmlns:xlink="http://www.w3.org/1999/xlink" xmlns="http://www.w3.org/2000/svg" width="560.0px" height="100.0px" viewBox="0 0 560.0 100.0" preserveAspectRatio="xMidYMid meet" style="background-color:transparent;border-color:#292724;border-style:none;border-width:1.0;fill:rgb(16.1%,15.3%,14.1%);fill-opacity:1.0;font-family:Helvetica;font-size:12px;opacity:1.0;stroke:rgb(16.1%,15.3%,14.1%);stroke-opacity:1.0;stroke-width:1.0" id="td2e9fdff900f4d3e8bbfd1aadb128369"><g class="toyplot-coordinates-Cartesian" id="tc752213fe82f45a3bba4fb7452f86ac0"><clipPath id="ta50b32f335184d478ddb385e3cf8579b"><rect x="15.0" y="15.0" width="110.0" height="70.0" /></clipPath><g clip-path="url(#ta50b32f335184d478ddb385e3cf8579b)"><g class="toytree-mark-Toytree" id="t823972f53b254c779bfb8bb0e7edad49"><g class="toytree-Edges" style="fill:none;stroke:rgb(14.9%,14.9%,14.9%);stroke-linecap:round;stroke-opacity:1;stroke-width:0.5"><path d="M 25.0 40.5 L 25.0 31.8 L 30.0 31.8" id="36,35" /><path d="M 25.0 40.5 L 25.0 49.2 L 26.6 49.2" id="36,34" /><path d="M 30.0 31.8 L 30.0 34.4 L 38.8 34.4" id="35,33" /><path d="M 26.6 49.2 L 26.6 44.2 L 29.2 44.2" id="34,32" /><path d="M 26.6 49.2 L 26.6 54.1 L 34.2 54.1" id="34,31" /><path d="M 38.8 34.4 L 38.8 37.3 L 43.9 37.3" id="33,30" /><path d="M 34.2 54.1 L 34.2 49.4 L 36.8 49.4" id="31,29" /><path d="M 34.2 54.1 L 34.2 58.8 L 38.0 58.8" id="31,28" /><path d="M 43.9 37.3 L 43.9 35.0 L 74.3 35.0" id="30,27" /><path d="M 43.9 37.3 L 43.9 39.6 L 47.8 39.6" id="30,26" /><path d="M 36.8 49.4 L 36.8 51.2 L 38.0 51.2" id="29,25" /><path d="M 38.0 58.8 L 38.0 63.0 L 40.7 63.0" id="28,24" /><path d="M 40.7 63.0 L 40.7 58.7 L 48.1 58.7" id="24,23" /><path d="M 40.7 63.0 L 40.7 67.4 L 61.3 67.4" id="24,22" /><path d="M 48.1 58.7 L 48.1 60.4 L 54.6 60.4" id="23,21" /><path d="M 61.3 67.4 L 61.3 65.0 L 67.7 65.0" id="22,20" /><path d="M 61.3 67.4 L 61.3 69.7 L 64.5 69.7" id="22,19" /><path d="M 30.0 31.8 L 30.0 29.2 L 110.3 29.2" id="35,18" /><path d="M 38.8 34.4 L 38.8 31.5 L 102.4 31.5" id="33,17" /><path d="M 74.3 35.0 L 74.3 33.8 L 99.1 33.8" id="27,16" /><path d="M 74.3 35.0 L 74.3 36.1 L 100.1 36.1" id="27,15" /><path d="M 47.8 39.6 L 47.8 38.4 L 102.8 38.4" id="26,14" /><path d="M 47.8 39.6 L 47.8 40.7 L 100.5 40.7" id="26,13" /><path d="M 29.2 44.2 L 29.2 43.1 L 93.3 43.1" id="32,12" /><path d="M 29.2 44.2 L 29.2 45.4 L 102.3 45.4" id="32,11" /><path d="M 36.8 49.4 L 36.8 47.7 L 100.0 47.7" id="29,10" /><path d="M 38.0 51.2 L 38.0 50.0 L 108.3 50.0" id="25,9" /><path d="M 38.0 51.2 L 38.0 52.3 L 105.7 52.3" id="25,8" /><path d="M 38.0 58.8 L 38.0 54.6 L 98.1 54.6" id="28,7" /><path d="M 48.1 58.7 L 48.1 56.9 L 97.1 56.9" id="23,6" /><path d="M 54.6 60.4 L 54.6 59.3 L 100.0 59.3" id="21,5" /><path d="M 54.6 60.4 L 54.6 61.6 L 103.5 61.6" id="21,4" /><path d="M 67.7 65.0 L 67.7 63.9 L 108.2 63.9" id="20,3" /><path d="M 67.7 65.0 L 67.7 66.2 L 107.7 66.2" id="20,2" /><path d="M 64.5 69.7 L 64.5 68.5 L 106.0 68.5" id="19,1" /><path d="M 64.5 69.7 L 64.5 70.8 L 103.9 70.8" id="19,0" /></g><g class="toytree-Nodes" style="fill:rgb(100%,0%,0%);fill-opacity:1.0;stroke:None;stroke-width:1"><g id="node-0" transform="translate(103.932,70.833)"><circle r="2.5" /></g><g id="node-1" transform="translate(105.984,68.519)"><circle r="2.5" /></g><g id="node-2" transform="translate(107.697,66.204)"><circle r="2.5" /></g><g id="node-3" transform="translate(108.204,63.889)"><circle r="2.5" /></g><g id="node-4" transform="translate(103.480,61.574)"><circle r="2.5" /></g><g id="node-5" transform="translate(100.018,59.259)"><circle r="2.5" /></g><g id="node-6" transform="translate(97.067,56.944)"><circle r="2.5" /></g><g id="node-7" transform="translate(98.082,54.630)"><circle r="2.5" /></g><g id="node-8" transform="translate(105.712,52.315)"><circle r="2.5" /></g><g id="node-9" transform="translate(108.325,50.000)"><circle r="2.5" /></g><g id="node-10" transform="translate(99.987,47.685)"><circle r="2.5" /></g><g id="node-11" transform="translate(102.283,45.370)"><circle r="2.5" /></g><g id="node-12" transform="translate(93.347,43.056)"><circle r="2.5" /></g><g id="node-13" transform="translate(100.510,40.741)"><circle r="2.5" /></g><g id="node-14" transform="translate(102.824,38.426)"><circle r="2.5" /></g><g id="node-15" transform="translate(100.101,36.111)"><circle r="2.5" /></g><g id="node-16" transform="translate(99.072,33.796)"><circle r="2.5" /></g><g id="node-17" transform="translate(102.379,31.481)"><circle r="2.5" /></g><g id="node-18" transform="translate(110.263,29.167)"><circle r="2.5" /></g><g id="node-19" transform="translate(64.514,69.676)"><circle r="0.0" /></g><g id="node-20" transform="translate(67.674,65.046)"><circle r="0.0" /></g><g id="node-21" transform="translate(54.630,60.417)"><circle r="0.0" /></g><g id="node-22" transform="translate(61.297,67.361)"><circle r="0.0" /></g><g id="node-23" transform="translate(48.061,58.681)"><circle r="0.0" /></g><g id="node-24" transform="translate(40.671,63.021)"><circle r="0.0" /></g><g id="node-25" transform="translate(38.036,51.157)"><circle r="0.0" /></g><g id="node-26" transform="translate(47.817,39.583)"><circle r="0.0" /></g><g id="node-27" transform="translate(74.330,34.954)"><circle r="0.0" /></g><g id="node-28" transform="translate(37.985,58.825)"><circle r="0.0" /></g><g id="node-29" transform="translate(36.801,49.421)"><circle r="0.0" /></g><g id="node-30" transform="translate(43.911,37.269)"><circle r="0.0" /></g><g id="node-31" transform="translate(34.176,54.123)"><circle r="0.0" /></g><g id="node-32" transform="translate(29.167,44.213)"><circle r="0.0" /></g><g id="node-33" transform="translate(38.751,34.375)"><circle r="0.0" /></g><g id="node-34" transform="translate(26.648,49.168)"><circle r="0.0" /></g><g id="node-35" transform="translate(29.981,31.771)"><circle r="0.0" /></g><g id="node-36" transform="translate(25.000,40.469)"><circle r="0.0" /></g></g></g></g></g><g class="toyplot-coordinates-Cartesian" id="t5bdf693e8934436c805f0188b6eda66b"><clipPath id="t99ecbb02cfb64409870702bc25c408a9"><rect x="155.0" y="15.0" width="110.0" height="70.0" /></clipPath><g clip-path="url(#t99ecbb02cfb64409870702bc25c408a9)"><g class="toytree-mark-Toytree" id="t2e9c3734cf1647eabe5ccd6f5988ee38"><g class="toytree-Edges" style="fill:none;stroke:rgb(14.9%,14.9%,14.9%);stroke-linecap:round;stroke-opacity:1;stroke-width:0.5"><path d="M 165.0 39.9 L 165.0 32.2 L 182.5 32.2" id="36,35" /><path d="M 165.0 39.9 L 165.0 47.6 L 170.1 47.6" id="36,34" /><path d="M 182.5 32.2 L 182.5 35.2 L 188.6 35.2" id="35,33" /><path d="M 170.1 47.6 L 170.1 44.2 L 175.7 44.2" id="34,32" /><path d="M 170.1 47.6 L 170.1 51.1 L 171.5 51.1" id="34,31" /><path d="M 188.6 35.2 L 188.6 32.6 L 194.2 32.6" id="33,30" /><path d="M 188.6 35.2 L 188.6 37.8 L 191.4 37.8" id="33,29" /><path d="M 171.5 51.1 L 171.5 54.5 L 176.1 54.5" id="31,28" /><path d="M 191.4 37.8 L 191.4 39.6 L 194.4 39.6" id="29,27" /><path d="M 176.1 54.5 L 176.1 51.2 L 178.6 51.2" id="28,26" /><path d="M 176.1 54.5 L 176.1 57.8 L 185.5 57.8" id="28,25" /><path d="M 185.5 57.8 L 185.5 60.9 L 191.9 60.9" id="25,24" /><path d="M 191.9 60.9 L 191.9 58.1 L 194.3 58.1" id="24,23" /><path d="M 191.9 60.9 L 191.9 63.7 L 193.6 63.7" id="24,22" /><path d="M 193.6 63.7 L 193.6 65.9 L 196.2 65.9" id="22,21" /><path d="M 196.2 65.9 L 196.2 67.9 L 196.6 67.9" id="21,20" /><path d="M 196.6 67.9 L 196.6 69.7 L 201.6 69.7" id="20,19" /><path d="M 182.5 32.2 L 182.5 29.2 L 198.1 29.2" id="35,18" /><path d="M 194.2 32.6 L 194.2 31.5 L 194.8 31.5" id="30,17" /><path d="M 194.2 32.6 L 194.2 33.8 L 195.6 33.8" id="30,16" /><path d="M 191.4 37.8 L 191.4 36.1 L 250.3 36.1" id="29,15" /><path d="M 194.4 39.6 L 194.4 38.4 L 212.6 38.4" id="27,14" /><path d="M 194.4 39.6 L 194.4 40.7 L 204.0 40.7" id="27,13" /><path d="M 175.7 44.2 L 175.7 43.1 L 202.0 43.1" id="32,12" /><path d="M 175.7 44.2 L 175.7 45.4 L 208.2 45.4" id="32,11" /><path d="M 171.5 51.1 L 171.5 47.7 L 183.3 47.7" id="31,10" /><path d="M 178.6 51.2 L 178.6 50.0 L 215.5 50.0" id="26,9" /><path d="M 178.6 51.2 L 178.6 52.3 L 222.3 52.3" id="26,8" /><path d="M 185.5 57.8 L 185.5 54.6 L 186.4 54.6" id="25,7" /><path d="M 194.3 58.1 L 194.3 56.9 L 219.1 56.9" id="23,6" /><path d="M 194.3 58.1 L 194.3 59.3 L 203.0 59.3" id="23,5" /><path d="M 193.6 63.7 L 193.6 61.6 L 219.4 61.6" id="22,4" /><path d="M 196.2 65.9 L 196.2 63.9 L 224.8 63.9" id="21,3" /><path d="M 196.6 67.9 L 196.6 66.2 L 196.6 66.2" id="20,2" /><path d="M 201.6 69.7 L 201.6 68.5 L 204.9 68.5" id="19,1" /><path d="M 201.6 69.7 L 201.6 70.8 L 223.8 70.8" id="19,0" /></g><g class="toytree-Nodes" style="fill:rgb(100%,0%,0%);fill-opacity:1.0;stroke:None;stroke-width:1"><g id="node-0" transform="translate(223.788,70.833)"><circle r="2.5" /></g><g id="node-1" transform="translate(204.937,68.519)"><circle r="2.5" /></g><g id="node-2" transform="translate(196.633,66.204)"><circle r="2.5" /></g><g id="node-3" transform="translate(224.799,63.889)"><circle r="2.5" /></g><g id="node-4" transform="translate(219.424,61.574)"><circle r="2.5" /></g><g id="node-5" transform="translate(203.033,59.259)"><circle r="2.5" /></g><g id="node-6" transform="translate(219.138,56.944)"><circle r="2.5" /></g><g id="node-7" transform="translate(186.385,54.630)"><circle r="2.5" /></g><g id="node-8" transform="translate(222.289,52.315)"><circle r="2.5" /></g><g id="node-9" transform="translate(215.485,50.000)"><circle r="2.5" /></g><g id="node-10" transform="translate(183.261,47.685)"><circle r="2.5" /></g><g id="node-11" transform="translate(208.192,45.370)"><circle r="2.5" /></g><g id="node-12" transform="translate(202.001,43.056)"><circle r="2.5" /></g><g id="node-13" transform="translate(204.019,40.741)"><circle r="2.5" /></g><g id="node-14" transform="translate(212.567,38.426)"><circle r="2.5" /></g><g id="node-15" transform="translate(250.263,36.111)"><circle r="2.5" /></g><g id="node-16" transform="translate(195.597,33.796)"><circle r="2.5" /></g><g id="node-17" transform="translate(194.830,31.481)"><circle r="2.5" /></g><g id="node-18" transform="translate(198.107,29.167)"><circle r="2.5" /></g><g id="node-19" transform="translate(201.569,69.676)"><circle r="0.0" /></g><g id="node-20" transform="translate(196.626,67.940)"><circle r="0.0" /></g><g id="node-21" transform="translate(196.159,65.914)"><circle r="0.0" /></g><g id="node-22" transform="translate(193.649,63.744)"><circle r="0.0" /></g><g id="node-23" transform="translate(194.284,58.102)"><circle r="0.0" /></g><g id="node-24" transform="translate(191.899,60.923)"><circle r="0.0" /></g><g id="node-25" transform="translate(185.457,57.776)"><circle r="0.0" /></g><g id="node-26" transform="translate(178.555,51.157)"><circle r="0.0" /></g><g id="node-27" transform="translate(194.419,39.583)"><circle r="0.0" /></g><g id="node-28" transform="translate(176.150,54.467)"><circle r="0.0" /></g><g id="node-29" transform="translate(191.386,37.847)"><circle r="0.0" /></g><g id="node-30" transform="translate(194.203,32.639)"><circle r="0.0" /></g><g id="node-31" transform="translate(171.493,51.076)"><circle r="0.0" /></g><g id="node-32" transform="translate(175.676,44.213)"><circle r="0.0" /></g><g id="node-33" transform="translate(188.577,35.243)"><circle r="0.0" /></g><g id="node-34" transform="translate(170.071,47.644)"><circle r="0.0" /></g><g id="node-35" transform="translate(182.462,32.205)"><circle r="0.0" /></g><g id="node-36" transform="translate(165.000,39.925)"><circle r="0.0" /></g></g></g></g></g><g class="toyplot-coordinates-Cartesian" id="td39aace051a34582966380ddfba6e512"><clipPath id="t5ac0c7bab0464085ae93ea071eba3cf2"><rect x="295.0" y="15.0" width="110.0" height="70.0" /></clipPath><g clip-path="url(#t5ac0c7bab0464085ae93ea071eba3cf2)"><g class="toytree-mark-Toytree" id="t4639ad527c194c12939d3546ba45db0b"><g class="toytree-Edges" style="fill:none;stroke:rgb(14.9%,14.9%,14.9%);stroke-linecap:round;stroke-opacity:1;stroke-width:0.5"><path d="M 305.0 42.8 L 305.0 31.6 L 307.7 31.6" id="36,35" /><path d="M 305.0 42.8 L 305.0 54.1 L 317.7 54.1" id="36,34" /><path d="M 307.7 31.6 L 307.7 33.9 L 312.7 33.9" id="35,33" /><path d="M 317.7 54.1 L 317.7 49.4 L 320.3 49.4" id="34,32" /><path d="M 317.7 54.1 L 317.7 58.8 L 322.6 58.8" id="34,31" /><path d="M 312.7 33.9 L 312.7 36.4 L 325.5 36.4" id="33,30" /><path d="M 320.3 49.4 L 320.3 51.2 L 324.2 51.2" id="32,29" /><path d="M 322.6 58.8 L 322.6 63.0 L 329.0 63.0" id="31,28" /><path d="M 325.5 36.4 L 325.5 39.0 L 333.1 39.0" id="30,27" /><path d="M 329.0 63.0 L 329.0 58.7 L 336.2 58.7" id="28,26" /><path d="M 329.0 63.0 L 329.0 67.4 L 338.8 67.4" id="28,25" /><path d="M 333.1 39.0 L 333.1 41.9 L 337.6 41.9" id="27,24" /><path d="M 336.2 58.7 L 336.2 60.4 L 337.7 60.4" id="26,23" /><path d="M 338.8 67.4 L 338.8 65.0 L 340.6 65.0" id="25,22" /><path d="M 338.8 67.4 L 338.8 69.7 L 341.5 69.7" id="25,21" /><path d="M 337.6 41.9 L 337.6 39.6 L 351.0 39.6" id="24,20" /><path d="M 337.6 41.9 L 337.6 44.2 L 348.1 44.2" id="24,19" /><path d="M 307.7 31.6 L 307.7 29.2 L 335.0 29.2" id="35,18" /><path d="M 312.7 33.9 L 312.7 31.5 L 344.6 31.5" id="33,17" /><path d="M 325.5 36.4 L 325.5 33.8 L 390.3 33.8" id="30,16" /><path d="M 333.1 39.0 L 333.1 36.1 L 362.2 36.1" id="27,15" /><path d="M 351.0 39.6 L 351.0 38.4 L 354.6 38.4" id="20,14" /><path d="M 351.0 39.6 L 351.0 40.7 L 356.3 40.7" id="20,13" /><path d="M 348.1 44.2 L 348.1 43.1 L 363.1 43.1" id="19,12" /><path d="M 348.1 44.2 L 348.1 45.4 L 364.7 45.4" id="19,11" /><path d="M 320.3 49.4 L 320.3 47.7 L 347.9 47.7" id="32,10" /><path d="M 324.2 51.2 L 324.2 50.0 L 358.4 50.0" id="29,9" /><path d="M 324.2 51.2 L 324.2 52.3 L 356.4 52.3" id="29,8" /><path d="M 322.6 58.8 L 322.6 54.6 L 342.0 54.6" id="31,7" /><path d="M 336.2 58.7 L 336.2 56.9 L 351.1 56.9" id="26,6" /><path d="M 337.7 60.4 L 337.7 59.3 L 351.8 59.3" id="23,5" /><path d="M 337.7 60.4 L 337.7 61.6 L 359.1 61.6" id="23,4" /><path d="M 340.6 65.0 L 340.6 63.9 L 360.0 63.9" id="22,3" /><path d="M 340.6 65.0 L 340.6 66.2 L 363.9 66.2" id="22,2" /><path d="M 341.5 69.7 L 341.5 68.5 L 360.2 68.5" id="21,1" /><path d="M 341.5 69.7 L 341.5 70.8 L 359.1 70.8" id="21,0" /></g><g class="toytree-Nodes" style="fill:rgb(100%,0%,0%);fill-opacity:1.0;stroke:None;stroke-width:1"><g id="node-0" transform="translate(359.091,70.833)"><circle r="2.5" /></g><g id="node-1" transform="translate(360.159,68.519)"><circle r="2.5" /></g><g id="node-2" transform="translate(363.877,66.204)"><circle r="2.5" /></g><g id="node-3" transform="translate(360.008,63.889)"><circle r="2.5" /></g><g id="node-4" transform="translate(359.108,61.574)"><circle r="2.5" /></g><g id="node-5" transform="translate(351.831,59.259)"><circle r="2.5" /></g><g id="node-6" transform="translate(351.104,56.944)"><circle r="2.5" /></g><g id="node-7" transform="translate(342.015,54.630)"><circle r="2.5" /></g><g id="node-8" transform="translate(356.403,52.315)"><circle r="2.5" /></g><g id="node-9" transform="translate(358.405,50.000)"><circle r="2.5" /></g><g id="node-10" transform="translate(347.853,47.685)"><circle r="2.5" /></g><g id="node-11" transform="translate(364.662,45.370)"><circle r="2.5" /></g><g id="node-12" transform="translate(363.089,43.056)"><circle r="2.5" /></g><g id="node-13" transform="translate(356.254,40.741)"><circle r="2.5" /></g><g id="node-14" transform="translate(354.639,38.426)"><circle r="2.5" /></g><g id="node-15" transform="translate(362.214,36.111)"><circle r="2.5" /></g><g id="node-16" transform="translate(390.263,33.796)"><circle r="2.5" /></g><g id="node-17" transform="translate(344.579,31.481)"><circle r="2.5" /></g><g id="node-18" transform="translate(334.972,29.167)"><circle r="2.5" /></g><g id="node-19" transform="translate(348.061,44.213)"><circle r="0.0" /></g><g id="node-20" transform="translate(350.968,39.583)"><circle r="0.0" /></g><g id="node-21" transform="translate(341.540,69.676)"><circle r="0.0" /></g><g id="node-22" transform="translate(340.597,65.046)"><circle r="0.0" /></g><g id="node-23" transform="translate(337.700,60.417)"><circle r="0.0" /></g><g id="node-24" transform="translate(337.580,41.898)"><circle r="0.0" /></g><g id="node-25" transform="translate(338.844,67.361)"><circle r="0.0" /></g><g id="node-26" transform="translate(336.211,58.681)"><circle r="0.0" /></g><g id="node-27" transform="translate(333.084,39.005)"><circle r="0.0" /></g><g id="node-28" transform="translate(328.989,63.021)"><circle r="0.0" /></g><g id="node-29" transform="translate(324.178,51.157)"><circle r="0.0" /></g><g id="node-30" transform="translate(325.530,36.400)"><circle r="0.0" /></g><g id="node-31" transform="translate(322.605,58.825)"><circle r="0.0" /></g><g id="node-32" transform="translate(320.296,49.421)"><circle r="0.0" /></g><g id="node-33" transform="translate(312.711,33.941)"><circle r="0.0" /></g><g id="node-34" transform="translate(317.654,54.123)"><circle r="0.0" /></g><g id="node-35" transform="translate(307.668,31.554)"><circle r="0.0" /></g><g id="node-36" transform="translate(305.000,42.839)"><circle r="0.0" /></g></g></g></g></g><g class="toyplot-coordinates-Cartesian" id="te560bead178b48ddad4f43d4f1354128"><clipPath id="tda7e2383fd0d48709faa9cc462ee0baf"><rect x="435.0" y="15.0" width="110.0" height="70.0" /></clipPath><g clip-path="url(#tda7e2383fd0d48709faa9cc462ee0baf)"><g class="toytree-mark-Toytree" id="t1467cfdcf2ef4a19b83d0cd8988a54e6"><g class="toytree-Edges" style="fill:none;stroke:rgb(14.9%,14.9%,14.9%);stroke-linecap:round;stroke-opacity:1;stroke-width:0.5"><path d="M 445.0 40.6 L 445.0 31.6 L 446.5 31.6" id="36,35" /><path d="M 445.0 40.6 L 445.0 49.7 L 448.6 49.7" id="36,34" /><path d="M 446.5 31.6 L 446.5 34.1 L 457.6 34.1" id="35,33" /><path d="M 448.6 49.7 L 448.6 53.9 L 465.5 53.9" id="34,32" /><path d="M 457.6 34.1 L 457.6 36.7 L 471.8 36.7" id="33,31" /><path d="M 465.5 53.9 L 465.5 49.4 L 472.2 49.4" id="32,30" /><path d="M 465.5 53.9 L 465.5 58.5 L 470.1 58.5" id="32,29" /><path d="M 471.8 36.7 L 471.8 39.6 L 482.3 39.6" id="31,28" /><path d="M 472.2 49.4 L 472.2 51.2 L 477.5 51.2" id="30,27" /><path d="M 470.1 58.5 L 470.1 62.3 L 480.5 62.3" id="29,26" /><path d="M 482.3 39.6 L 482.3 37.3 L 497.2 37.3" id="28,25" /><path d="M 482.3 39.6 L 482.3 41.9 L 495.1 41.9" id="28,24" /><path d="M 480.5 62.3 L 480.5 58.7 L 487.2 58.7" id="26,23" /><path d="M 480.5 62.3 L 480.5 65.9 L 499.0 65.9" id="26,22" /><path d="M 487.2 58.7 L 487.2 60.4 L 493.5 60.4" id="23,21" /><path d="M 499.0 65.9 L 499.0 67.9 L 502.0 67.9" id="22,20" /><path d="M 502.0 67.9 L 502.0 69.7 L 509.7 69.7" id="20,19" /><path d="M 446.5 31.6 L 446.5 29.2 L 489.5 29.2" id="35,18" /><path d="M 457.6 34.1 L 457.6 31.5 L 530.3 31.5" id="33,17" /><path d="M 471.8 36.7 L 471.8 33.8 L 500.7 33.8" id="31,16" /><path d="M 497.2 37.3 L 497.2 36.1 L 503.7 36.1" id="25,15" /><path d="M 497.2 37.3 L 497.2 38.4 L 506.0 38.4" id="25,14" /><path d="M 495.1 41.9 L 495.1 40.7 L 512.2 40.7" id="24,13" /><path d="M 495.1 41.9 L 495.1 43.1 L 520.4 43.1" id="24,12" /><path d="M 448.6 49.7 L 448.6 45.4 L 479.1 45.4" id="34,11" /><path d="M 472.2 49.4 L 472.2 47.7 L 503.9 47.7" id="30,10" /><path d="M 477.5 51.2 L 477.5 50.0 L 508.2 50.0" id="27,9" /><path d="M 477.5 51.2 L 477.5 52.3 L 514.8 52.3" id="27,8" /><path d="M 470.1 58.5 L 470.1 54.6 L 496.0 54.6" id="29,7" /><path d="M 487.2 58.7 L 487.2 56.9 L 510.3 56.9" id="23,6" /><path d="M 493.5 60.4 L 493.5 59.3 L 514.4 59.3" id="21,5" /><path d="M 493.5 60.4 L 493.5 61.6 L 509.8 61.6" id="21,4" /><path d="M 499.0 65.9 L 499.0 63.9 L 511.6 63.9" id="22,3" /><path d="M 502.0 67.9 L 502.0 66.2 L 517.2 66.2" id="20,2" /><path d="M 509.7 69.7 L 509.7 68.5 L 521.8 68.5" id="19,1" /><path d="M 509.7 69.7 L 509.7 70.8 L 522.9 70.8" id="19,0" /></g><g class="toytree-Nodes" style="fill:rgb(100%,0%,0%);fill-opacity:1.0;stroke:None;stroke-width:1"><g id="node-0" transform="translate(522.909,70.833)"><circle r="2.5" /></g><g id="node-1" transform="translate(521.833,68.519)"><circle r="2.5" /></g><g id="node-2" transform="translate(517.243,66.204)"><circle r="2.5" /></g><g id="node-3" transform="translate(511.553,63.889)"><circle r="2.5" /></g><g id="node-4" transform="translate(509.793,61.574)"><circle r="2.5" /></g><g id="node-5" transform="translate(514.386,59.259)"><circle r="2.5" /></g><g id="node-6" transform="translate(510.309,56.944)"><circle r="2.5" /></g><g id="node-7" transform="translate(496.007,54.630)"><circle r="2.5" /></g><g id="node-8" transform="translate(514.815,52.315)"><circle r="2.5" /></g><g id="node-9" transform="translate(508.187,50.000)"><circle r="2.5" /></g><g id="node-10" transform="translate(503.929,47.685)"><circle r="2.5" /></g><g id="node-11" transform="translate(479.054,45.370)"><circle r="2.5" /></g><g id="node-12" transform="translate(520.368,43.056)"><circle r="2.5" /></g><g id="node-13" transform="translate(512.184,40.741)"><circle r="2.5" /></g><g id="node-14" transform="translate(505.959,38.426)"><circle r="2.5" /></g><g id="node-15" transform="translate(503.686,36.111)"><circle r="2.5" /></g><g id="node-16" transform="translate(500.654,33.796)"><circle r="2.5" /></g><g id="node-17" transform="translate(530.263,31.481)"><circle r="2.5" /></g><g id="node-18" transform="translate(489.508,29.167)"><circle r="2.5" /></g><g id="node-19" transform="translate(509.690,69.676)"><circle r="0.0" /></g><g id="node-20" transform="translate(501.987,67.940)"><circle r="0.0" /></g><g id="node-21" transform="translate(493.494,60.417)"><circle r="0.0" /></g><g id="node-22" transform="translate(498.982,65.914)"><circle r="0.0" /></g><g id="node-23" transform="translate(487.247,58.681)"><circle r="0.0" /></g><g id="node-24" transform="translate(495.076,41.898)"><circle r="0.0" /></g><g id="node-25" transform="translate(497.205,37.269)"><circle r="0.0" /></g><g id="node-26" transform="translate(480.545,62.297)"><circle r="0.0" /></g><g id="node-27" transform="translate(477.466,51.157)"><circle r="0.0" /></g><g id="node-28" transform="translate(482.313,39.583)"><circle r="0.0" /></g><g id="node-29" transform="translate(470.098,58.464)"><circle r="0.0" /></g><g id="node-30" transform="translate(472.234,49.421)"><circle r="0.0" /></g><g id="node-31" transform="translate(471.840,36.690)"><circle r="0.0" /></g><g id="node-32" transform="translate(465.527,53.942)"><circle r="0.0" /></g><g id="node-33" transform="translate(457.612,34.086)"><circle r="0.0" /></g><g id="node-34" transform="translate(448.579,49.656)"><circle r="0.0" /></g><g id="node-35" transform="translate(446.547,31.626)"><circle r="0.0" /></g><g id="node-36" transform="translate(445.000,40.641)"><circle r="0.0" /></g></g></g></g></g></svg>