<svg class="toyplot-canvas-Canvas" xmlns:toyplot="http://www.sandia.gov/toyplot" xmlns:xlink="http://www.w3.org/1999/xlink" xmlns="http://www.w3.org/2000/svg" width="560.0px" height="100.0px" viewBox="0 0 560.0 100.0" preserveAspectRatio="xMidYMid meet" style="background-color:transparent;border-color:#292724;border-style:none;border-width:1.0;fill:rgb(16.1%,15.3%,14.1%);fill-opacity:1.0;font-family:Helvetica;font-size:12px;opacity:1.0;stroke:rgb(16.1%,15.3%,14.1%);stroke-opacity:1.0;stroke-width:1.0" id="t2e0a7a9adc1f48a7be5be5d257aa53b2"><g class="toyplot-coordinates-Cartesian" id="t8e9514061fa645db8783a5833198046d"><clipPath id="t7b5ae496c7224c138799500a5b6869e9"><rect x="15.0" y="15.0" width="110.0" height="70.0" /></clipPath><g clip-path="url(#t7b5ae496c7224c138799500a5b6869e9)"><g class="toytree-mark-Toytree" id="t3a06e9ff56c44b118cb0b3057a7bca3b"><g class="toytree-Edges" style="fill:none;stroke:rgb(14.9%,14.9%,14.9%);stroke-linecap:round;stroke-opacity:1;stroke-width:0.5"><path d="M 25.0 32.2 L 25.0 35.2 L 42.3 35.2" id="44,43" /><path d="M 42.3 35.2 L 42.3 32.0 L 45.2 32.0" id="43,42" /><path d="M 42.3 35.2 L 42.3 38.3 L 45.8 38.3" id="43,41" /><path d="M 45.8 38.3 L 45.8 41.8 L 47.7 41.8" id="41,40" /><path d="M 47.7 41.8 L 47.7 37.7 L 67.2 37.7" id="40,39" /><path d="M 47.7 41.8 L 47.7 45.8 L 52.9 45.8" id="40,38" /><path d="M 52.9 45.8 L 52.9 51.1 L 65.9 51.1" id="38,37" /><path d="M 65.9 51.1 L 65.9 44.6 L 81.9 44.6" id="37,36" /><path d="M 65.9 51.1 L 65.9 57.6 L 80.5 57.6" id="37,35" /><path d="M 81.9 44.6 L 81.9 46.8 L 86.9 46.8" id="36,34" /><path d="M 80.5 57.6 L 80.5 59.5 L 89.5 59.5" id="35,33" /><path d="M 86.9 46.8 L 86.9 49.3 L 103.3 49.3" id="34,32" /><path d="M 89.5 59.5 L 89.5 61.3 L 90.0 61.3" id="33,31" /><path d="M 103.3 49.3 L 103.3 47.2 L 105.3 47.2" id="32,30" /><path d="M 103.3 49.3 L 103.3 51.4 L 107.7 51.4" id="32,29" /><path d="M 90.0 61.3 L 90.0 63.2 L 90.9 63.2" id="31,28" /><path d="M 107.7 51.4 L 107.7 52.8 L 107.7 52.8" id="29,27" /><path d="M 90.9 63.2 L 90.9 65.0 L 90.9 65.0" id="28,26" /><path d="M 90.9 65.0 L 90.9 66.8 L 91.0 66.8" id="26,25" /><path d="M 91.0 66.8 L 91.0 68.5 L 91.1 68.5" id="25,24" /><path d="M 91.1 68.5 L 91.1 69.9 L 91.1 69.9" id="24,23" /><path d="M 25.0 32.2 L 25.0 29.2 L 97.3 29.2" id="44,22" /><path d="M 45.2 32.0 L 45.2 31.1 L 87.6 31.1" id="42,21" /><path d="M 45.2 32.0 L 45.2 33.0 L 103.6 33.0" id="42,20" /><path d="M 45.8 38.3 L 45.8 34.8 L 102.2 34.8" id="41,19" /><path d="M 67.2 37.7 L 67.2 36.7 L 85.7 36.7" id="39,18" /><path d="M 67.2 37.7 L 67.2 38.6 L 84.9 38.6" id="39,17" /><path d="M 52.9 45.8 L 52.9 40.5 L 109.5 40.5" id="38,16" /><path d="M 81.9 44.6 L 81.9 42.4 L 100.6 42.4" id="36,15" /><path d="M 86.9 46.8 L 86.9 44.3 L 110.3 44.3" id="34,14" /><path d="M 105.3 47.2 L 105.3 46.2 L 106.1 46.2" id="30,13" /><path d="M 105.3 47.2 L 105.3 48.1 L 106.7 48.1" id="30,12" /><path d="M 107.7 51.4 L 107.7 50.0 L 107.7 50.0" id="29,11" /><path d="M 107.7 52.8 L 107.7 51.9 L 107.8 51.9" id="27,10" /><path d="M 107.7 52.8 L 107.7 53.8 L 109.8 53.8" id="27,9" /><path d="M 80.5 57.6 L 80.5 55.7 L 93.2 55.7" id="35,8" /><path d="M 89.5 59.5 L 89.5 57.6 L 90.1 57.6" id="33,7" /><path d="M 90.0 61.3 L 90.0 59.5 L 91.1 59.5" id="31,6" /><path d="M 90.9 63.2 L 90.9 61.4 L 90.9 61.4" id="28,5" /><path d="M 90.9 65.0 L 90.9 63.3 L 90.9 63.3" id="26,4" /><path d="M 91.0 66.8 L 91.0 65.2 L 91.0 65.2" id="25,3" /><path d="M 91.1 68.5 L 91.1 67.0 L 91.1 67.0" id="24,2" /><path d="M 91.1 69.9 L 91.1 68.9 L 91.1 68.9" id="23,1" /><path d="M 91.1 69.9 L 91.1 70.8 L 91.1 70.8" id="23,0" /></g><g class="toytree-Nodes" style="fill:rgb(100%,0%,0%);fill-opacity:1.0;stroke:None;stroke-width:1"><g id="node-0" transform="translate(91.136,70.833)"><circle r="2.5" /></g><g id="node-1" transform="translate(91.136,68.939)"><circle r="2.5" /></g><g id="node-2" transform="translate(91.136,67.045)"><circle r="2.5" /></g><g id="node-3" transform="translate(91.047,65.152)"><circle r="2.5" /></g><g id="node-4" transform="translate(90.946,63.258)"><circle r="2.5" /></g><g id="node-5" transform="translate(90.946,61.364)"><circle r="2.5" /></g><g id="node-6" transform="translate(91.100,59.470)"><circle r="2.5" /></g><g id="node-7" transform="translate(90.133,57.576)"><circle r="2.5" /></g><g id="node-8" transform="translate(93.155,55.682)"><circle r="2.5" /></g><g id="node-9" transform="translate(109.795,53.788)"><circle r="2.5" /></g><g id="node-10" transform="translate(107.780,51.894)"><circle r="2.5" /></g><g id="node-11" transform="translate(107.683,50.000)"><circle r="2.5" /></g><g id="node-12" transform="translate(106.689,48.106)"><circle r="2.5" /></g><g id="node-13" transform="translate(106.079,46.212)"><circle r="2.5" /></g><g id="node-14" transform="translate(110.263,44.318)"><circle r="2.5" /></g><g id="node-15" transform="translate(100.569,42.424)"><circle r="2.5" /></g><g id="node-16" transform="translate(109.477,40.530)"><circle r="2.5" /></g><g id="node-17" transform="translate(84.914,38.636)"><circle r="2.5" /></g><g id="node-18" transform="translate(85.701,36.742)"><circle r="2.5" /></g><g id="node-19" transform="translate(102.239,34.848)"><circle r="2.5" /></g><g id="node-20" transform="translate(103.591,32.955)"><circle r="2.5" /></g><g id="node-21" transform="translate(87.641,31.061)"><circle r="2.5" /></g><g id="node-22" transform="translate(97.321,29.167)"><circle r="2.5" /></g><g id="node-23" transform="translate(91.136,69.886)"><circle r="0.0" /></g><g id="node-24" transform="translate(91.136,68.466)"><circle r="0.0" /></g><g id="node-25" transform="translate(91.047,66.809)"><circle r="0.0" /></g><g id="node-26" transform="translate(90.946,65.033)"><circle r="0.0" /></g><g id="node-27" transform="translate(107.683,52.841)"><circle r="0.0" /></g><g id="node-28" transform="translate(90.946,63.198)"><circle r="0.0" /></g><g id="node-29" transform="translate(107.683,51.420)"><circle r="0.0" /></g><g id="node-30" transform="translate(105.279,47.159)"><circle r="0.0" /></g><g id="node-31" transform="translate(90.035,61.334)"><circle r="0.0" /></g><g id="node-32" transform="translate(103.304,49.290)"><circle r="0.0" /></g><g id="node-33" transform="translate(89.514,59.455)"><circle r="0.0" /></g><g id="node-34" transform="translate(86.859,46.804)"><circle r="0.0" /></g><g id="node-35" transform="translate(80.456,57.568)"><circle r="0.0" /></g><g id="node-36" transform="translate(81.852,44.614)"><circle r="0.0" /></g><g id="node-37" transform="translate(65.946,51.091)"><circle r="0.0" /></g><g id="node-38" transform="translate(52.872,45.811)"><circle r="0.0" /></g><g id="node-39" transform="translate(67.192,37.689)"><circle r="0.0" /></g><g id="node-40" transform="translate(47.742,41.750)"><circle r="0.0" /></g><g id="node-41" transform="translate(45.846,38.299)"><circle r="0.0" /></g><g id="node-42" transform="translate(45.245,32.008)"><circle r="0.0" /></g><g id="node-43" transform="translate(42.259,35.153)"><circle r="0.0" /></g><g id="node-44" transform="translate(25.000,32.160)"><circle r="0.0" /></g></g></g></g></g><g class="toyplot-coordinates-Cartesian" id="t397b8305802d4325b8eac526e41da537"><clipPath id="t70f60e54b46545bb96e99888a5837009"><rect x="155.0" y="15.0" width="110.0" height="70.0" /></clipPath><g clip-path="url(#t70f60e54b46545bb96e99888a5837009)"><g class="toytree-mark-Toytree" id="td7db0728b90843e4a5d14a5edf2c26a2"><g class="toytree-Edges" style="fill:none;stroke:rgb(14.9%,14.9%,14.9%);stroke-linecap:round;stroke-opacity:1;stroke-width:0.5"><path d="M 165.0 33.4 L 165.0 37.6 L 166.8 37.6" id="44,43" /><path d="M 166.8 37.6 L 166.8 32.0 L 192.6 32.0" id="43,42" /><path d="M 166.8 37.6 L 166.8 43.1 L 177.2 43.1" id="43,41" /><path d="M 177.2 43.1 L 177.2 35.8 L 180.8 35.8" id="41,40" /><path d="M 177.2 43.1 L 177.2 50.5 L 180.8 50.5" id="41,39" /><path d="M 180.8 50.5 L 180.8 42.5 L 185.6 42.5" id="39,38" /><path d="M 180.8 50.5 L 180.8 58.5 L 184.7 58.5" id="39,37" /><path d="M 185.6 42.5 L 185.6 39.6 L 197.5 39.6" id="38,36" /><path d="M 185.6 42.5 L 185.6 45.5 L 195.0 45.5" id="38,35" /><path d="M 184.7 58.5 L 184.7 53.6 L 193.2 53.6" id="37,34" /><path d="M 184.7 58.5 L 184.7 63.4 L 190.2 63.4" id="37,33" /><path d="M 195.0 45.5 L 195.0 43.4 L 202.1 43.4" id="35,32" /><path d="M 195.0 45.5 L 195.0 47.6 L 200.0 47.6" id="35,31" /><path d="M 193.2 53.6 L 193.2 55.2 L 203.7 55.2" id="34,30" /><path d="M 190.2 63.4 L 190.2 60.4 L 198.4 60.4" id="33,29" /><path d="M 190.2 63.4 L 190.2 66.3 L 198.0 66.3" id="33,28" /><path d="M 200.0 47.6 L 200.0 49.1 L 203.5 49.1" id="31,27" /><path d="M 203.7 55.2 L 203.7 56.6 L 217.6 56.6" id="30,26" /><path d="M 198.0 66.3 L 198.0 64.2 L 207.3 64.2" id="28,25" /><path d="M 198.0 66.3 L 198.0 68.5 L 212.0 68.5" id="28,24" /><path d="M 212.0 68.5 L 212.0 69.9 L 231.1 69.9" id="24,23" /><path d="M 165.0 33.4 L 165.0 29.2 L 224.8 29.2" id="44,22" /><path d="M 192.6 32.0 L 192.6 31.1 L 229.7 31.1" id="42,21" /><path d="M 192.6 32.0 L 192.6 33.0 L 223.2 33.0" id="42,20" /><path d="M 180.8 35.8 L 180.8 34.8 L 215.6 34.8" id="40,19" /><path d="M 180.8 35.8 L 180.8 36.7 L 234.8 36.7" id="40,18" /><path d="M 197.5 39.6 L 197.5 38.6 L 242.5 38.6" id="36,17" /><path d="M 197.5 39.6 L 197.5 40.5 L 224.5 40.5" id="36,16" /><path d="M 202.1 43.4 L 202.1 42.4 L 216.2 42.4" id="32,15" /><path d="M 202.1 43.4 L 202.1 44.3 L 212.0 44.3" id="32,14" /><path d="M 200.0 47.6 L 200.0 46.2 L 207.2 46.2" id="31,13" /><path d="M 203.5 49.1 L 203.5 48.1 L 214.1 48.1" id="27,12" /><path d="M 203.5 49.1 L 203.5 50.0 L 214.9 50.0" id="27,11" /><path d="M 193.2 53.6 L 193.2 51.9 L 234.4 51.9" id="34,10" /><path d="M 203.7 55.2 L 203.7 53.8 L 224.1 53.8" id="30,9" /><path d="M 217.6 56.6 L 217.6 55.7 L 223.0 55.7" id="26,8" /><path d="M 217.6 56.6 L 217.6 57.6 L 224.9 57.6" id="26,7" /><path d="M 198.4 60.4 L 198.4 59.5 L 220.7 59.5" id="29,6" /><path d="M 198.4 60.4 L 198.4 61.4 L 226.1 61.4" id="29,5" /><path d="M 207.3 64.2 L 207.3 63.3 L 224.4 63.3" id="25,4" /><path d="M 207.3 64.2 L 207.3 65.2 L 247.4 65.2" id="25,3" /><path d="M 212.0 68.5 L 212.0 67.0 L 247.8 67.0" id="24,2" /><path d="M 231.1 69.9 L 231.1 68.9 L 235.9 68.9" id="23,1" /><path d="M 231.1 69.9 L 231.1 70.8 L 250.3 70.8" id="23,0" /></g><g class="toytree-Nodes" style="fill:rgb(100%,0%,0%);fill-opacity:1.0;stroke:None;stroke-width:1"><g id="node-0" transform="translate(250.263,70.833)"><circle r="2.5" /></g><g id="node-1" transform="translate(235.905,68.939)"><circle r="2.5" /></g><g id="node-2" transform="translate(247.842,67.045)"><circle r="2.5" /></g><g id="node-3" transform="translate(247.427,65.152)"><circle r="2.5" /></g><g id="node-4" transform="translate(224.365,63.258)"><circle r="2.5" /></g><g id="node-5" transform="translate(226.138,61.364)"><circle r="2.5" /></g><g id="node-6" transform="translate(220.689,59.470)"><circle r="2.5" /></g><g id="node-7" transform="translate(224.892,57.576)"><circle r="2.5" /></g><g id="node-8" transform="translate(223.044,55.682)"><circle r="2.5" /></g><g id="node-9" transform="translate(224.058,53.788)"><circle r="2.5" /></g><g id="node-10" transform="translate(234.448,51.894)"><circle r="2.5" /></g><g id="node-11" transform="translate(214.914,50.000)"><circle r="2.5" /></g><g id="node-12" transform="translate(214.071,48.106)"><circle r="2.5" /></g><g id="node-13" transform="translate(207.189,46.212)"><circle r="2.5" /></g><g id="node-14" transform="translate(212.050,44.318)"><circle r="2.5" /></g><g id="node-15" transform="translate(216.216,42.424)"><circle r="2.5" /></g><g id="node-16" transform="translate(224.470,40.530)"><circle r="2.5" /></g><g id="node-17" transform="translate(242.455,38.636)"><circle r="2.5" /></g><g id="node-18" transform="translate(234.830,36.742)"><circle r="2.5" /></g><g id="node-19" transform="translate(215.602,34.848)"><circle r="2.5" /></g><g id="node-20" transform="translate(223.205,32.955)"><circle r="2.5" /></g><g id="node-21" transform="translate(229.696,31.061)"><circle r="2.5" /></g><g id="node-22" transform="translate(224.794,29.167)"><circle r="2.5" /></g><g id="node-23" transform="translate(231.057,69.886)"><circle r="0.0" /></g><g id="node-24" transform="translate(211.978,68.466)"><circle r="0.0" /></g><g id="node-25" transform="translate(207.285,64.205)"><circle r="0.0" /></g><g id="node-26" transform="translate(217.645,56.629)"><circle r="0.0" /></g><g id="node-27" transform="translate(203.457,49.053)"><circle r="0.0" /></g><g id="node-28" transform="translate(197.980,66.335)"><circle r="0.0" /></g><g id="node-29" transform="translate(198.429,60.417)"><circle r="0.0" /></g><g id="node-30" transform="translate(203.717,55.208)"><circle r="0.0" /></g><g id="node-31" transform="translate(199.992,47.633)"><circle r="0.0" /></g><g id="node-32" transform="translate(202.075,43.371)"><circle r="0.0" /></g><g id="node-33" transform="translate(190.184,63.376)"><circle r="0.0" /></g><g id="node-34" transform="translate(193.184,53.551)"><circle r="0.0" /></g><g id="node-35" transform="translate(194.989,45.502)"><circle r="0.0" /></g><g id="node-36" transform="translate(197.537,39.583)"><circle r="0.0" /></g><g id="node-37" transform="translate(184.673,58.464)"><circle r="0.0" /></g><g id="node-38" transform="translate(185.624,42.543)"><circle r="0.0" /></g><g id="node-39" transform="translate(180.813,50.503)"><circle r="0.0" /></g><g id="node-40" transform="translate(180.841,35.795)"><circle r="0.0" /></g><g id="node-41" transform="translate(177.236,43.149)"><circle r="0.0" /></g><g id="node-42" transform="translate(192.633,32.008)"><circle r="0.0" /></g><g id="node-43" transform="translate(166.830,37.578)"><circle r="0.0" /></g><g id="node-44" transform="translate(165.000,33.373)"><circle r="0.0" /></g></g></g></g></g><g class="toyplot-coordinates-Cartesian" id="td5fac4756d7947349f7506f217f7862d"><clipPath id="tb6e942b24ed044c19925ef6883bc1d64"><rect x="295.0" y="15.0" width="110.0" height="70.0" /></clipPath><g clip-path="url(#tb6e942b24ed044c19925ef6883bc1d64)"><g class="toytree-mark-Toytree" id="t0920f5092c6644debb41f0f7021b5e50"><g class="toytree-Edges" style="fill:none;stroke:rgb(14.9%,14.9%,14.9%);stroke-linecap:round;stroke-opacity:1;stroke-width:0.5"><path d="M 305.0 39.6 L 305.0 32.4 L 308.4 32.4" id="44,43" /><path d="M 305.0 39.6 L 305.0 46.8 L 315.7 46.8" id="44,42" /><path d="M 308.4 32.4 L 308.4 30.1 L 317.5 30.1" id="43,41" /><path d="M 308.4 32.4 L 308.4 34.7 L 323.4 34.7" id="43,40" /><path d="M 315.7 46.8 L 315.7 51.1 L 318.5 51.1" id="42,39" /><path d="M 323.4 34.7 L 323.4 36.5 L 330.3 36.5" id="40,38" /><path d="M 318.5 51.1 L 318.5 45.3 L 328.1 45.3" id="39,37" /><path d="M 318.5 51.1 L 318.5 56.9 L 319.6 56.9" id="39,36" /><path d="M 330.3 36.5 L 330.3 38.2 L 340.8 38.2" id="38,35" /><path d="M 319.6 56.9 L 319.6 49.9 L 326.0 49.9" id="36,34" /><path d="M 319.6 56.9 L 319.6 63.8 L 323.6 63.8" id="36,33" /><path d="M 340.8 38.2 L 340.8 39.6 L 343.4 39.6" id="35,32" /><path d="M 326.0 49.9 L 326.0 51.8 L 330.5 51.8" id="34,31" /><path d="M 323.6 63.8 L 323.6 60.9 L 327.9 60.9" id="33,30" /><path d="M 323.6 63.8 L 323.6 66.8 L 328.6 66.8" id="33,29" /><path d="M 330.5 51.8 L 330.5 53.6 L 341.1 53.6" id="31,28" /><path d="M 327.9 60.9 L 327.9 62.3 L 331.3 62.3" id="30,27" /><path d="M 328.6 66.8 L 328.6 68.5 L 331.1 68.5" id="29,26" /><path d="M 341.1 53.6 L 341.1 55.2 L 343.5 55.2" id="28,25" /><path d="M 331.1 68.5 L 331.1 69.9 L 337.3 69.9" id="26,24" /><path d="M 343.5 55.2 L 343.5 56.6 L 346.7 56.6" id="25,23" /><path d="M 317.5 30.1 L 317.5 29.2 L 339.4 29.2" id="41,22" /><path d="M 317.5 30.1 L 317.5 31.1 L 340.7 31.1" id="41,21" /><path d="M 323.4 34.7 L 323.4 33.0 L 379.5 33.0" id="40,20" /><path d="M 330.3 36.5 L 330.3 34.8 L 353.2 34.8" id="38,19" /><path d="M 340.8 38.2 L 340.8 36.7 L 363.3 36.7" id="35,18" /><path d="M 343.4 39.6 L 343.4 38.6 L 361.1 38.6" id="32,17" /><path d="M 343.4 39.6 L 343.4 40.5 L 362.1 40.5" id="32,16" /><path d="M 315.7 46.8 L 315.7 42.4 L 350.2 42.4" id="42,15" /><path d="M 328.1 45.3 L 328.1 44.3 L 351.8 44.3" id="37,14" /><path d="M 328.1 45.3 L 328.1 46.2 L 348.6 46.2" id="37,13" /><path d="M 326.0 49.9 L 326.0 48.1 L 351.0 48.1" id="34,12" /><path d="M 330.5 51.8 L 330.5 50.0 L 352.5 50.0" id="31,11" /><path d="M 341.1 53.6 L 341.1 51.9 L 351.2 51.9" id="28,10" /><path d="M 343.5 55.2 L 343.5 53.8 L 350.0 53.8" id="25,9" /><path d="M 346.7 56.6 L 346.7 55.7 L 366.8 55.7" id="23,8" /><path d="M 346.7 56.6 L 346.7 57.6 L 384.6 57.6" id="23,7" /><path d="M 327.9 60.9 L 327.9 59.5 L 339.9 59.5" id="30,6" /><path d="M 331.3 62.3 L 331.3 61.4 L 359.2 61.4" id="27,5" /><path d="M 331.3 62.3 L 331.3 63.3 L 345.4 63.3" id="27,4" /><path d="M 328.6 66.8 L 328.6 65.2 L 354.3 65.2" id="29,3" /><path d="M 331.1 68.5 L 331.1 67.0 L 390.3 67.0" id="26,2" /><path d="M 337.3 69.9 L 337.3 68.9 L 357.1 68.9" id="24,1" /><path d="M 337.3 69.9 L 337.3 70.8 L 348.9 70.8" id="24,0" /></g><g class="toytree-Nodes" style="fill:rgb(100%,0%,0%);fill-opacity:1.0;stroke:None;stroke-width:1"><g id="node-0" transform="translate(348.898,70.833)"><circle r="2.5" /></g><g id="node-1" transform="translate(357.130,68.939)"><circle r="2.5" /></g><g id="node-2" transform="translate(390.263,67.045)"><circle r="2.5" /></g><g id="node-3" transform="translate(354.301,65.152)"><circle r="2.5" /></g><g id="node-4" transform="translate(345.364,63.258)"><circle r="2.5" /></g><g id="node-5" transform="translate(359.213,61.364)"><circle r="2.5" /></g><g id="node-6" transform="translate(339.889,59.470)"><circle r="2.5" /></g><g id="node-7" transform="translate(384.554,57.576)"><circle r="2.5" /></g><g id="node-8" transform="translate(366.823,55.682)"><circle r="2.5" /></g><g id="node-9" transform="translate(350.042,53.788)"><circle r="2.5" /></g><g id="node-10" transform="translate(351.206,51.894)"><circle r="2.5" /></g><g id="node-11" transform="translate(352.503,50.000)"><circle r="2.5" /></g><g id="node-12" transform="translate(350.991,48.106)"><circle r="2.5" /></g><g id="node-13" transform="translate(348.581,46.212)"><circle r="2.5" /></g><g id="node-14" transform="translate(351.808,44.318)"><circle r="2.5" /></g><g id="node-15" transform="translate(350.164,42.424)"><circle r="2.5" /></g><g id="node-16" transform="translate(362.065,40.530)"><circle r="2.5" /></g><g id="node-17" transform="translate(361.146,38.636)"><circle r="2.5" /></g><g id="node-18" transform="translate(363.250,36.742)"><circle r="2.5" /></g><g id="node-19" transform="translate(353.210,34.848)"><circle r="2.5" /></g><g id="node-20" transform="translate(379.510,32.955)"><circle r="2.5" /></g><g id="node-21" transform="translate(340.668,31.061)"><circle r="2.5" /></g><g id="node-22" transform="translate(339.360,29.167)"><circle r="2.5" /></g><g id="node-23" transform="translate(346.681,56.629)"><circle r="0.0" /></g><g id="node-24" transform="translate(337.285,69.886)"><circle r="0.0" /></g><g id="node-25" transform="translate(343.484,55.208)"><circle r="0.0" /></g><g id="node-26" transform="translate(331.064,68.466)"><circle r="0.0" /></g><g id="node-27" transform="translate(331.299,62.311)"><circle r="0.0" /></g><g id="node-28" transform="translate(341.064,53.551)"><circle r="0.0" /></g><g id="node-29" transform="translate(328.562,66.809)"><circle r="0.0" /></g><g id="node-30" transform="translate(327.857,60.890)"><circle r="0.0" /></g><g id="node-31" transform="translate(330.482,51.776)"><circle r="0.0" /></g><g id="node-32" transform="translate(343.425,39.583)"><circle r="0.0" /></g><g id="node-33" transform="translate(323.629,63.849)"><circle r="0.0" /></g><g id="node-34" transform="translate(325.988,49.941)"><circle r="0.0" /></g><g id="node-35" transform="translate(340.800,38.163)"><circle r="0.0" /></g><g id="node-36" transform="translate(319.615,56.895)"><circle r="0.0" /></g><g id="node-37" transform="translate(328.082,45.265)"><circle r="0.0" /></g><g id="node-38" transform="translate(330.331,36.506)"><circle r="0.0" /></g><g id="node-39" transform="translate(318.491,51.080)"><circle r="0.0" /></g><g id="node-40" transform="translate(323.427,34.730)"><circle r="0.0" /></g><g id="node-41" transform="translate(317.544,30.114)"><circle r="0.0" /></g><g id="node-42" transform="translate(315.744,46.752)"><circle r="0.0" /></g><g id="node-43" transform="translate(308.402,32.422)"><circle r="0.0" /></g><g id="node-44" transform="translate(305.000,39.587)"><circle r="0.0" /></g></g></g></g></g><g class="toyplot-coordinates-Cartesian" id="t9f6d360c67c9430480e0b40d9684a77b"><clipPath id="tb47076b42dec49f5b0fca294435df193"><rect x="435.0" y="15.0" width="110.0" height="70.0" /></clipPath><g clip-path="url(#tb47076b42dec49f5b0fca294435df193)"><g class="toytree-mark-Toytree" id="tb8052185df1e43c28c911b32ccdd647b"><g class="toytree-Edges" style="fill:none;stroke:rgb(14.9%,14.9%,14.9%);stroke-linecap:round;stroke-opacity:1;stroke-width:0.5"><path d="M 445.0 34.8 L 445.0 30.6 L 455.8 30.6" id="44,43" /><path d="M 445.0 34.8 L 445.0 39.0 L 453.3 39.0" id="44,42" /><path d="M 455.8 30.6 L 455.8 32.0 L 464.5 32.0" id="43,41" /><path d="M 453.3 39.0 L 453.3 35.8 L 465.5 35.8" id="42,40" /><path d="M 453.3 39.0 L 453.3 42.2 L 457.3 42.2" id="42,39" /><path d="M 457.3 42.2 L 457.3 45.8 L 466.2 45.8" id="39,38" /><path d="M 466.2 45.8 L 466.2 51.1 L 469.7 51.1" id="38,37" /><path d="M 469.7 51.1 L 469.7 44.6 L 489.0 44.6" id="37,36" /><path d="M 469.7 51.1 L 469.7 57.6 L 482.5 57.6" id="37,35" /><path d="M 489.0 44.6 L 489.0 46.8 L 492.9 46.8" id="36,34" /><path d="M 482.5 57.6 L 482.5 59.5 L 483.4 59.5" id="35,33" /><path d="M 492.9 46.8 L 492.9 49.3 L 499.3 49.3" id="34,32" /><path d="M 483.4 59.5 L 483.4 61.3 L 483.4 61.3" id="33,31" /><path d="M 499.3 49.3 L 499.3 47.2 L 500.4 47.2" id="32,30" /><path d="M 499.3 49.3 L 499.3 51.4 L 500.6 51.4" id="32,29" /><path d="M 483.4 61.3 L 483.4 63.2 L 484.3 63.2" id="31,28" /><path d="M 500.6 51.4 L 500.6 52.8 L 500.6 52.8" id="29,27" /><path d="M 484.3 63.2 L 484.3 65.0 L 484.3 65.0" id="28,26" /><path d="M 484.3 65.0 L 484.3 66.8 L 484.3 66.8" id="26,25" /><path d="M 484.3 66.8 L 484.3 68.5 L 484.3 68.5" id="25,24" /><path d="M 484.3 68.5 L 484.3 69.9 L 484.3 69.9" id="24,23" /><path d="M 455.8 30.6 L 455.8 29.2 L 473.7 29.2" id="43,22" /><path d="M 464.5 32.0 L 464.5 31.1 L 530.3 31.1" id="41,21" /><path d="M 464.5 32.0 L 464.5 33.0 L 495.4 33.0" id="41,20" /><path d="M 465.5 35.8 L 465.5 34.8 L 470.8 34.8" id="40,19" /><path d="M 465.5 35.8 L 465.5 36.7 L 473.5 36.7" id="40,18" /><path d="M 457.3 42.2 L 457.3 38.6 L 490.3 38.6" id="39,17" /><path d="M 466.2 45.8 L 466.2 40.5 L 505.7 40.5" id="38,16" /><path d="M 489.0 44.6 L 489.0 42.4 L 498.8 42.4" id="36,15" /><path d="M 492.9 46.8 L 492.9 44.3 L 504.8 44.3" id="34,14" /><path d="M 500.4 47.2 L 500.4 46.2 L 501.2 46.2" id="30,13" /><path d="M 500.4 47.2 L 500.4 48.1 L 500.4 48.1" id="30,12" /><path d="M 500.6 51.4 L 500.6 50.0 L 501.5 50.0" id="29,11" /><path d="M 500.6 52.8 L 500.6 51.9 L 500.6 51.9" id="27,10" /><path d="M 500.6 52.8 L 500.6 53.8 L 500.6 53.8" id="27,9" /><path d="M 482.5 57.6 L 482.5 55.7 L 493.1 55.7" id="35,8" /><path d="M 483.4 59.5 L 483.4 57.6 L 483.4 57.6" id="33,7" /><path d="M 483.4 61.3 L 483.4 59.5 L 491.5 59.5" id="31,6" /><path d="M 484.3 63.2 L 484.3 61.4 L 484.3 61.4" id="28,5" /><path d="M 484.3 65.0 L 484.3 63.3 L 484.3 63.3" id="26,4" /><path d="M 484.3 66.8 L 484.3 65.2 L 484.3 65.2" id="25,3" /><path d="M 484.3 68.5 L 484.3 67.0 L 484.3 67.0" id="24,2" /><path d="M 484.3 69.9 L 484.3 68.9 L 484.3 68.9" id="23,1" /><path d="M 484.3 69.9 L 484.3 70.8 L 484.3 70.8" id="23,0" /></g><g class="toytree-Nodes" style="fill:rgb(100%,0%,0%);fill-opacity:1.0;stroke:None;stroke-width:1"><g id="node-0" transform="translate(484.328,70.833)"><circle r="2.5" /></g><g id="node-1" transform="translate(484.328,68.939)"><circle r="2.5" /></g><g id="node-2" transform="translate(484.328,67.045)"><circle r="2.5" /></g><g id="node-3" transform="translate(484.328,65.152)"><circle r="2.5" /></g><g id="node-4" transform="translate(484.328,63.258)"><circle r="2.5" /></g><g id="node-5" transform="translate(484.328,61.364)"><circle r="2.5" /></g><g id="node-6" transform="translate(491.469,59.470)"><circle r="2.5" /></g><g id="node-7" transform="translate(483.429,57.576)"><circle r="2.5" /></g><g id="node-8" transform="translate(493.074,55.682)"><circle r="2.5" /></g><g id="node-9" transform="translate(500.639,53.788)"><circle r="2.5" /></g><g id="node-10" transform="translate(500.639,51.894)"><circle r="2.5" /></g><g id="node-11" transform="translate(501.489,50.000)"><circle r="2.5" /></g><g id="node-12" transform="translate(500.372,48.106)"><circle r="2.5" /></g><g id="node-13" transform="translate(501.188,46.212)"><circle r="2.5" /></g><g id="node-14" transform="translate(504.842,44.318)"><circle r="2.5" /></g><g id="node-15" transform="translate(498.845,42.424)"><circle r="2.5" /></g><g id="node-16" transform="translate(505.731,40.530)"><circle r="2.5" /></g><g id="node-17" transform="translate(490.285,38.636)"><circle r="2.5" /></g><g id="node-18" transform="translate(473.458,36.742)"><circle r="2.5" /></g><g id="node-19" transform="translate(470.777,34.848)"><circle r="2.5" /></g><g id="node-20" transform="translate(495.388,32.955)"><circle r="2.5" /></g><g id="node-21" transform="translate(530.263,31.061)"><circle r="2.5" /></g><g id="node-22" transform="translate(473.690,29.167)"><circle r="2.5" /></g><g id="node-23" transform="translate(484.328,69.886)"><circle r="0.0" /></g><g id="node-24" transform="translate(484.328,68.466)"><circle r="0.0" /></g><g id="node-25" transform="translate(484.328,66.809)"><circle r="0.0" /></g><g id="node-26" transform="translate(484.328,65.033)"><circle r="0.0" /></g><g id="node-27" transform="translate(500.639,52.841)"><circle r="0.0" /></g><g id="node-28" transform="translate(484.328,63.198)"><circle r="0.0" /></g><g id="node-29" transform="translate(500.639,51.420)"><circle r="0.0" /></g><g id="node-30" transform="translate(500.372,47.159)"><circle r="0.0" /></g><g id="node-31" transform="translate(483.429,61.334)"><circle r="0.0" /></g><g id="node-32" transform="translate(499.269,49.290)"><circle r="0.0" /></g><g id="node-33" transform="translate(483.429,59.455)"><circle r="0.0" /></g><g id="node-34" transform="translate(492.935,46.804)"><circle r="0.0" /></g><g id="node-35" transform="translate(482.534,57.568)"><circle r="0.0" /></g><g id="node-36" transform="translate(489.032,44.614)"><circle r="0.0" /></g><g id="node-37" transform="translate(469.727,51.091)"><circle r="0.0" /></g><g id="node-38" transform="translate(466.220,45.811)"><circle r="0.0" /></g><g id="node-39" transform="translate(457.262,42.224)"><circle r="0.0" /></g><g id="node-40" transform="translate(465.516,35.795)"><circle r="0.0" /></g><g id="node-41" transform="translate(464.479,32.008)"><circle r="0.0" /></g><g id="node-42" transform="translate(453.275,39.010)"><circle r="0.0" /></g><g id="node-43" transform="translate(455.769,30.587)"><circle r="0.0" /></g><g id="node-44" transform="translate(445.000,34.798)"><circle r="0.0" /></g></g></g></g></g></svg>