<svg class="toyplot-canvas-Canvas" xmlns:toyplot="http://www.sandia.gov/toyplot" xmlns:xlink="http://www.w3.org/1999/xlink" xmlns="http://www.w3.org/2000/svg" width="560.0px" height="100.0px" viewBox="0 0 560.0 100.0" preserveAspectRatio="xMidYMid meet" style="background-color:transparent;border-color:#292724;border-style:none;border-width:1.0;fill:rgb(16.1%,15.3%,14.1%);fill-opacity:1.0;font-family:Helvetica;font-size:12px;opacity:1.0;stroke:rgb(16.1%,15.3%,14.1%);stroke-opacity:1.0;stroke-width:1.0" id="t3d921fef9c634c40acd028e897d806a8"><g class="toyplot-coordinates-Cartesian" id="t82c9b2d7173f41faacc969d6de9bc7a5"><clipPath id="tfc26352cb39849a4a56d0fa1f63ab48d"><rect x="15.0" y="15.0" width="110.0" height="70.0" /></clipPath><g clip-path="url(#tfc26352cb39849a4a56d0fa1f63ab48d)"><g class="toytree-mark-Toytree" id="t3374e8a6fe7e4e05bae14c6079b69cfb"><g class="toytree-Edges" style="fill:none;stroke:rgb(14.9%,14.9%,14.9%);stroke-linecap:round;stroke-opacity:1;stroke-width:0.5"><path d="M 25.0 33.4 L 25.0 37.6 L 25.5 37.6" id="34,33" /><path d="M 25.5 37.6 L 25.5 43.5 L 32.1 43.5" id="33,32" /><path d="M 32.1 43.5 L 32.1 36.4 L 32.9 36.4" id="32,31" /><path d="M 32.1 43.5 L 32.1 50.7 L 36.4 50.7" id="32,30" /><path d="M 32.9 36.4 L 32.9 38.7 L 37.5 38.7" id="31,29" /><path d="M 36.4 50.7 L 36.4 47.5 L 38.4 47.5" id="30,28" /><path d="M 36.4 50.7 L 36.4 53.8 L 50.6 53.8" id="30,27" /><path d="M 37.5 38.7 L 37.5 40.8 L 47.4 40.8" id="29,26" /><path d="M 50.6 53.8 L 50.6 56.3 L 54.3 56.3" id="27,25" /><path d="M 47.4 40.8 L 47.4 42.6 L 65.5 42.6" id="26,24" /><path d="M 54.3 56.3 L 54.3 59.0 L 71.8 59.0" id="25,23" /><path d="M 71.8 59.0 L 71.8 61.8 L 82.8 61.8" id="23,22" /><path d="M 82.8 61.8 L 82.8 65.0 L 83.5 65.0" id="22,21" /><path d="M 83.5 65.0 L 83.5 62.3 L 91.3 62.3" id="21,20" /><path d="M 83.5 65.0 L 83.5 67.8 L 93.0 67.8" id="21,19" /><path d="M 93.0 67.8 L 93.0 69.6 L 93.5 69.6" id="19,18" /><path d="M 25.0 33.4 L 25.0 29.2 L 96.4 29.2" id="34,17" /><path d="M 25.5 37.6 L 25.5 31.6 L 96.6 31.6" id="33,16" /><path d="M 32.9 36.4 L 32.9 34.1 L 110.3 34.1" id="31,15" /><path d="M 37.5 38.7 L 37.5 36.5 L 100.6 36.5" id="29,14" /><path d="M 47.4 40.8 L 47.4 39.0 L 94.4 39.0" id="26,13" /><path d="M 65.5 42.6 L 65.5 41.4 L 99.3 41.4" id="24,12" /><path d="M 65.5 42.6 L 65.5 43.9 L 98.0 43.9" id="24,11" /><path d="M 38.4 47.5 L 38.4 46.3 L 93.9 46.3" id="28,10" /><path d="M 38.4 47.5 L 38.4 48.8 L 97.8 48.8" id="28,9" /><path d="M 50.6 53.8 L 50.6 51.2 L 92.7 51.2" id="27,8" /><path d="M 54.3 56.3 L 54.3 53.7 L 97.8 53.7" id="25,7" /><path d="M 71.8 59.0 L 71.8 56.1 L 98.8 56.1" id="23,6" /><path d="M 82.8 61.8 L 82.8 58.6 L 93.7 58.6" id="22,5" /><path d="M 91.3 62.3 L 91.3 61.0 L 93.4 61.0" id="20,4" /><path d="M 91.3 62.3 L 91.3 63.5 L 93.4 63.5" id="20,3" /><path d="M 93.0 67.8 L 93.0 65.9 L 94.4 65.9" id="19,2" /><path d="M 93.5 69.6 L 93.5 68.4 L 93.7 68.4" id="18,1" /><path d="M 93.5 69.6 L 93.5 70.8 L 94.1 70.8" id="18,0" /></g><g class="toytree-Nodes" style="fill:rgb(100%,0%,0%);fill-opacity:1.0;stroke:None;stroke-width:1"><g id="node-0" transform="translate(94.061,70.833)"><circle r="2.5" /></g><g id="node-1" transform="translate(93.721,68.382)"><circle r="2.5" /></g><g id="node-2" transform="translate(94.363,65.931)"><circle r="2.5" /></g><g id="node-3" transform="translate(93.398,63.480)"><circle r="2.5" /></g><g id="node-4" transform="translate(93.421,61.029)"><circle r="2.5" /></g><g id="node-5" transform="translate(93.745,58.578)"><circle r="2.5" /></g><g id="node-6" transform="translate(98.810,56.127)"><circle r="2.5" /></g><g id="node-7" transform="translate(97.755,53.676)"><circle r="2.5" /></g><g id="node-8" transform="translate(92.747,51.225)"><circle r="2.5" /></g><g id="node-9" transform="translate(97.798,48.775)"><circle r="2.5" /></g><g id="node-10" transform="translate(93.932,46.324)"><circle r="2.5" /></g><g id="node-11" transform="translate(97.952,43.873)"><circle r="2.5" /></g><g id="node-12" transform="translate(99.282,41.422)"><circle r="2.5" /></g><g id="node-13" transform="translate(94.369,38.971)"><circle r="2.5" /></g><g id="node-14" transform="translate(100.636,36.520)"><circle r="2.5" /></g><g id="node-15" transform="translate(110.263,34.069)"><circle r="2.5" /></g><g id="node-16" transform="translate(96.592,31.618)"><circle r="2.5" /></g><g id="node-17" transform="translate(96.415,29.167)"><circle r="2.5" /></g><g id="node-18" transform="translate(93.516,69.608)"><circle r="0.0" /></g><g id="node-19" transform="translate(93.003,67.770)"><circle r="0.0" /></g><g id="node-20" transform="translate(91.256,62.255)"><circle r="0.0" /></g><g id="node-21" transform="translate(83.548,65.012)"><circle r="0.0" /></g><g id="node-22" transform="translate(82.846,61.795)"><circle r="0.0" /></g><g id="node-23" transform="translate(71.793,58.961)"><circle r="0.0" /></g><g id="node-24" transform="translate(65.464,42.647)"><circle r="0.0" /></g><g id="node-25" transform="translate(54.267,56.319)"><circle r="0.0" /></g><g id="node-26" transform="translate(47.419,40.809)"><circle r="0.0" /></g><g id="node-27" transform="translate(50.613,53.772)"><circle r="0.0" /></g><g id="node-28" transform="translate(38.363,47.549)"><circle r="0.0" /></g><g id="node-29" transform="translate(37.468,38.664)"><circle r="0.0" /></g><g id="node-30" transform="translate(36.357,50.661)"><circle r="0.0" /></g><g id="node-31" transform="translate(32.858,36.366)"><circle r="0.0" /></g><g id="node-32" transform="translate(32.105,43.514)"><circle r="0.0" /></g><g id="node-33" transform="translate(25.540,37.566)"><circle r="0.0" /></g><g id="node-34" transform="translate(25.000,33.366)"><circle r="0.0" /></g></g></g></g></g><g class="toyplot-coordinates-Cartesian" id="tc38eb82d84db41b0a6c4dcfdfda67fca"><clipPath id="t20d1b46417424194b116a7220e1477b3"><rect x="155.0" y="15.0" width="110.0" height="70.0" /></clipPath><g clip-path="url(#t20d1b46417424194b116a7220e1477b3)"><g class="toytree-mark-Toytree" id="t6c5aacb514464cb086c00945ce29ac63"><g class="toytree-Edges" style="fill:none;stroke:rgb(14.9%,14.9%,14.9%);stroke-linecap:round;stroke-opacity:1;stroke-width:0.5"><path d="M 165.0 34.5 L 165.0 39.9 L 173.2 39.9" id="34,33" /><path d="M 173.2 39.9 L 173.2 33.8 L 178.3 33.8" id="33,32" /><path d="M 173.2 39.9 L 173.2 46.0 L 189.0 46.0" id="33,31" /><path d="M 178.3 33.8 L 178.3 35.9 L 214.2 35.9" id="32,30" /><path d="M 189.0 46.0 L 189.0 42.6 L 198.8 42.6" id="31,29" /><path d="M 189.0 46.0 L 189.0 49.4 L 189.0 49.4" id="31,28" /><path d="M 214.2 35.9 L 214.2 37.7 L 221.5 37.7" id="30,27" /><path d="M 189.0 49.4 L 189.0 52.5 L 192.7 52.5" id="28,26" /><path d="M 192.7 52.5 L 192.7 56.3 L 210.4 56.3" id="26,25" /><path d="M 210.4 56.3 L 210.4 52.5 L 215.0 52.5" id="25,24" /><path d="M 210.4 56.3 L 210.4 60.1 L 212.9 60.1" id="25,23" /><path d="M 212.9 60.1 L 212.9 64.1 L 215.2 64.1" id="23,22" /><path d="M 215.2 64.1 L 215.2 60.4 L 217.3 60.4" id="22,21" /><path d="M 215.2 64.1 L 215.2 67.8 L 216.2 67.8" id="22,20" /><path d="M 217.3 60.4 L 217.3 62.3 L 220.8 62.3" id="21,19" /><path d="M 216.2 67.8 L 216.2 69.6 L 217.5 69.6" id="20,18" /><path d="M 165.0 34.5 L 165.0 29.2 L 220.3 29.2" id="34,17" /><path d="M 178.3 33.8 L 178.3 31.6 L 200.1 31.6" id="32,16" /><path d="M 214.2 35.9 L 214.2 34.1 L 227.7 34.1" id="30,15" /><path d="M 221.5 37.7 L 221.5 36.5 L 240.3 36.5" id="27,14" /><path d="M 221.5 37.7 L 221.5 39.0 L 240.3 39.0" id="27,13" /><path d="M 198.8 42.6 L 198.8 41.4 L 237.8 41.4" id="29,12" /><path d="M 198.8 42.6 L 198.8 43.9 L 250.3 43.9" id="29,11" /><path d="M 189.0 49.4 L 189.0 46.3 L 189.0 46.3" id="28,10" /><path d="M 192.7 52.5 L 192.7 48.8 L 220.5 48.8" id="26,9" /><path d="M 215.0 52.5 L 215.0 51.2 L 227.2 51.2" id="24,8" /><path d="M 215.0 52.5 L 215.0 53.7 L 215.0 53.7" id="24,7" /><path d="M 212.9 60.1 L 212.9 56.1 L 234.9 56.1" id="23,6" /><path d="M 217.3 60.4 L 217.3 58.6 L 223.3 58.6" id="21,5" /><path d="M 220.8 62.3 L 220.8 61.0 L 223.0 61.0" id="19,4" /><path d="M 220.8 62.3 L 220.8 63.5 L 222.5 63.5" id="19,3" /><path d="M 216.2 67.8 L 216.2 65.9 L 219.9 65.9" id="20,2" /><path d="M 217.5 69.6 L 217.5 68.4 L 223.6 68.4" id="18,1" /><path d="M 217.5 69.6 L 217.5 70.8 L 222.1 70.8" id="18,0" /></g><g class="toytree-Nodes" style="fill:rgb(100%,0%,0%);fill-opacity:1.0;stroke:None;stroke-width:1"><g id="node-0" transform="translate(222.144,70.833)"><circle r="2.5" /></g><g id="node-1" transform="translate(223.611,68.382)"><circle r="2.5" /></g><g id="node-2" transform="translate(219.892,65.931)"><circle r="2.5" /></g><g id="node-3" transform="translate(222.521,63.480)"><circle r="2.5" /></g><g id="node-4" transform="translate(222.979,61.029)"><circle r="2.5" /></g><g id="node-5" transform="translate(223.310,58.578)"><circle r="2.5" /></g><g id="node-6" transform="translate(234.941,56.127)"><circle r="2.5" /></g><g id="node-7" transform="translate(214.959,53.676)"><circle r="2.5" /></g><g id="node-8" transform="translate(227.220,51.225)"><circle r="2.5" /></g><g id="node-9" transform="translate(220.469,48.775)"><circle r="2.5" /></g><g id="node-10" transform="translate(189.040,46.324)"><circle r="2.5" /></g><g id="node-11" transform="translate(250.263,43.873)"><circle r="2.5" /></g><g id="node-12" transform="translate(237.770,41.422)"><circle r="2.5" /></g><g id="node-13" transform="translate(240.301,38.971)"><circle r="2.5" /></g><g id="node-14" transform="translate(240.318,36.520)"><circle r="2.5" /></g><g id="node-15" transform="translate(227.666,34.069)"><circle r="2.5" /></g><g id="node-16" transform="translate(200.118,31.618)"><circle r="2.5" /></g><g id="node-17" transform="translate(220.278,29.167)"><circle r="2.5" /></g><g id="node-18" transform="translate(217.501,69.608)"><circle r="0.0" /></g><g id="node-19" transform="translate(220.750,62.255)"><circle r="0.0" /></g><g id="node-20" transform="translate(216.182,67.770)"><circle r="0.0" /></g><g id="node-21" transform="translate(217.298,60.417)"><circle r="0.0" /></g><g id="node-22" transform="translate(215.150,64.093)"><circle r="0.0" /></g><g id="node-23" transform="translate(212.936,60.110)"><circle r="0.0" /></g><g id="node-24" transform="translate(214.959,52.451)"><circle r="0.0" /></g><g id="node-25" transform="translate(210.391,56.281)"><circle r="0.0" /></g><g id="node-26" transform="translate(192.678,52.528)"><circle r="0.0" /></g><g id="node-27" transform="translate(221.498,37.745)"><circle r="0.0" /></g><g id="node-28" transform="translate(189.040,49.426)"><circle r="0.0" /></g><g id="node-29" transform="translate(198.785,42.647)"><circle r="0.0" /></g><g id="node-30" transform="translate(214.220,35.907)"><circle r="0.0" /></g><g id="node-31" transform="translate(189.040,46.036)"><circle r="0.0" /></g><g id="node-32" transform="translate(178.307,33.762)"><circle r="0.0" /></g><g id="node-33" transform="translate(173.246,39.899)"><circle r="0.0" /></g><g id="node-34" transform="translate(165.000,34.533)"><circle r="0.0" /></g></g></g></g></g><g class="toyplot-coordinates-Cartesian" id="te1af8b380a4d41a0806ae4170e50c1c8"><clipPath id="t0837aeb3b72047cf8c8d0071d2be28b5"><rect x="295.0" y="15.0" width="110.0" height="70.0" /></clipPath><g clip-path="url(#t0837aeb3b72047cf8c8d0071d2be28b5)"><g class="toytree-mark-Toytree" id="t312d4030109c44beb18c97d03cf8e578"><g class="toytree-Edges" style="fill:none;stroke:rgb(14.9%,14.9%,14.9%);stroke-linecap:round;stroke-opacity:1;stroke-width:0.5"><path d="M 305.0 32.8 L 305.0 36.5 L 306.1 36.5" id="34,33" /><path d="M 306.1 36.5 L 306.1 41.4 L 317.5 41.4" id="33,32" /><path d="M 317.5 41.4 L 317.5 36.2 L 324.1 36.2" id="32,31" /><path d="M 317.5 41.4 L 317.5 46.6 L 322.8 46.6" id="32,30" /><path d="M 324.1 36.2 L 324.1 38.4 L 337.1 38.4" id="31,29" /><path d="M 322.8 46.6 L 322.8 49.3 L 328.3 49.3" id="30,28" /><path d="M 337.1 38.4 L 337.1 40.2 L 345.3 40.2" id="29,27" /><path d="M 328.3 49.3 L 328.3 52.2 L 333.6 52.2" id="28,26" /><path d="M 333.6 52.2 L 333.6 55.7 L 343.6 55.7" id="26,25" /><path d="M 343.6 55.7 L 343.6 52.5 L 350.4 52.5" id="25,24" /><path d="M 343.6 55.7 L 343.6 59.0 L 351.1 59.0" id="25,23" /><path d="M 351.1 59.0 L 351.1 61.8 L 354.0 61.8" id="23,22" /><path d="M 354.0 61.8 L 354.0 65.0 L 355.6 65.0" id="22,21" /><path d="M 355.6 65.0 L 355.6 62.3 L 358.1 62.3" id="21,20" /><path d="M 355.6 65.0 L 355.6 67.8 L 356.8 67.8" id="21,19" /><path d="M 356.8 67.8 L 356.8 69.6 L 358.2 69.6" id="19,18" /><path d="M 305.0 32.8 L 305.0 29.2 L 364.4 29.2" id="34,17" /><path d="M 306.1 36.5 L 306.1 31.6 L 366.1 31.6" id="33,16" /><path d="M 324.1 36.2 L 324.1 34.1 L 390.3 34.1" id="31,15" /><path d="M 337.1 38.4 L 337.1 36.5 L 360.6 36.5" id="29,14" /><path d="M 345.3 40.2 L 345.3 39.0 L 361.7 39.0" id="27,13" /><path d="M 345.3 40.2 L 345.3 41.4 L 361.1 41.4" id="27,12" /><path d="M 322.8 46.6 L 322.8 43.9 L 384.2 43.9" id="30,11" /><path d="M 328.3 49.3 L 328.3 46.3 L 360.9 46.3" id="28,10" /><path d="M 333.6 52.2 L 333.6 48.8 L 358.4 48.8" id="26,9" /><path d="M 350.4 52.5 L 350.4 51.2 L 368.7 51.2" id="24,8" /><path d="M 350.4 52.5 L 350.4 53.7 L 360.6 53.7" id="24,7" /><path d="M 351.1 59.0 L 351.1 56.1 L 373.6 56.1" id="23,6" /><path d="M 354.0 61.8 L 354.0 58.6 L 361.7 58.6" id="22,5" /><path d="M 358.1 62.3 L 358.1 61.0 L 361.3 61.0" id="20,4" /><path d="M 358.1 62.3 L 358.1 63.5 L 360.9 63.5" id="20,3" /><path d="M 356.8 67.8 L 356.8 65.9 L 362.0 65.9" id="19,2" /><path d="M 358.2 69.6 L 358.2 68.4 L 360.7 68.4" id="18,1" /><path d="M 358.2 69.6 L 358.2 70.8 L 360.4 70.8" id="18,0" /></g><g class="toytree-Nodes" style="fill:rgb(100%,0%,0%);fill-opacity:1.0;stroke:None;stroke-width:1"><g id="node-0" transform="translate(360.420,70.833)"><circle r="2.5" /></g><g id="node-1" transform="translate(360.690,68.382)"><circle r="2.5" /></g><g id="node-2" transform="translate(362.003,65.931)"><circle r="2.5" /></g><g id="node-3" transform="translate(360.884,63.480)"><circle r="2.5" /></g><g id="node-4" transform="translate(361.323,61.029)"><circle r="2.5" /></g><g id="node-5" transform="translate(361.681,58.578)"><circle r="2.5" /></g><g id="node-6" transform="translate(373.644,56.127)"><circle r="2.5" /></g><g id="node-7" transform="translate(360.573,53.676)"><circle r="2.5" /></g><g id="node-8" transform="translate(368.724,51.225)"><circle r="2.5" /></g><g id="node-9" transform="translate(358.377,48.775)"><circle r="2.5" /></g><g id="node-10" transform="translate(360.932,46.324)"><circle r="2.5" /></g><g id="node-11" transform="translate(384.210,43.873)"><circle r="2.5" /></g><g id="node-12" transform="translate(361.052,41.422)"><circle r="2.5" /></g><g id="node-13" transform="translate(361.688,38.971)"><circle r="2.5" /></g><g id="node-14" transform="translate(360.625,36.520)"><circle r="2.5" /></g><g id="node-15" transform="translate(390.263,34.069)"><circle r="2.5" /></g><g id="node-16" transform="translate(366.093,31.618)"><circle r="2.5" /></g><g id="node-17" transform="translate(364.412,29.167)"><circle r="2.5" /></g><g id="node-18" transform="translate(358.161,69.608)"><circle r="0.0" /></g><g id="node-19" transform="translate(356.838,67.770)"><circle r="0.0" /></g><g id="node-20" transform="translate(358.070,62.255)"><circle r="0.0" /></g><g id="node-21" transform="translate(355.555,65.012)"><circle r="0.0" /></g><g id="node-22" transform="translate(354.046,61.795)"><circle r="0.0" /></g><g id="node-23" transform="translate(351.067,58.961)"><circle r="0.0" /></g><g id="node-24" transform="translate(350.412,52.451)"><circle r="0.0" /></g><g id="node-25" transform="translate(343.592,55.706)"><circle r="0.0" /></g><g id="node-26" transform="translate(333.556,52.240)"><circle r="0.0" /></g><g id="node-27" transform="translate(345.325,40.196)"><circle r="0.0" /></g><g id="node-28" transform="translate(328.252,49.282)"><circle r="0.0" /></g><g id="node-29" transform="translate(337.068,38.358)"><circle r="0.0" /></g><g id="node-30" transform="translate(322.799,46.577)"><circle r="0.0" /></g><g id="node-31" transform="translate(324.118,36.213)"><circle r="0.0" /></g><g id="node-32" transform="translate(317.503,41.395)"><circle r="0.0" /></g><g id="node-33" transform="translate(306.136,36.506)"><circle r="0.0" /></g><g id="node-34" transform="translate(305.000,32.837)"><circle r="0.0" /></g></g></g></g></g><g class="toyplot-coordinates-Cartesian" id="t64d5c2e557424c629576a91e46605aea"><clipPath id="t055015c88ffe4670907d153d347a45eb"><rect x="435.0" y="15.0" width="110.0" height="70.0" /></clipPath><g clip-path="url(#t055015c88ffe4670907d153d347a45eb)"><g class="toytree-mark-Toytree" id="td925ea7b1bd444aaa2752aa5596d623b"><g class="toytree-Edges" style="fill:none;stroke:rgb(14.9%,14.9%,14.9%);stroke-linecap:round;stroke-opacity:1;stroke-width:0.5"><path d="M 445.0 32.8 L 445.0 36.5 L 450.0 36.5" id="34,33" /><path d="M 450.0 36.5 L 450.0 41.4 L 467.2 41.4" id="33,32" /><path d="M 467.2 41.4 L 467.2 36.2 L 470.7 36.2" id="32,31" /><path d="M 467.2 41.4 L 467.2 46.6 L 469.9 46.6" id="32,30" /><path d="M 470.7 36.2 L 470.7 38.4 L 481.8 38.4" id="31,29" /><path d="M 469.9 46.6 L 469.9 49.3 L 474.1 49.3" id="30,28" /><path d="M 481.8 38.4 L 481.8 40.2 L 492.0 40.2" id="29,27" /><path d="M 474.1 49.3 L 474.1 52.2 L 483.5 52.2" id="28,26" /><path d="M 483.5 52.2 L 483.5 55.7 L 493.0 55.7" id="26,25" /><path d="M 493.0 55.7 L 493.0 52.5 L 495.8 52.5" id="25,24" /><path d="M 493.0 55.7 L 493.0 59.0 L 503.6 59.0" id="25,23" /><path d="M 503.6 59.0 L 503.6 61.8 L 507.6 61.8" id="23,22" /><path d="M 507.6 61.8 L 507.6 65.0 L 508.1 65.0" id="22,21" /><path d="M 508.1 65.0 L 508.1 62.3 L 510.0 62.3" id="21,20" /><path d="M 508.1 65.0 L 508.1 67.8 L 510.5 67.8" id="21,19" /><path d="M 510.5 67.8 L 510.5 69.6 L 510.5 69.6" id="19,18" /><path d="M 445.0 32.8 L 445.0 29.2 L 507.3 29.2" id="34,17" /><path d="M 450.0 36.5 L 450.0 31.6 L 494.5 31.6" id="33,16" /><path d="M 470.7 36.2 L 470.7 34.1 L 502.9 34.1" id="31,15" /><path d="M 481.8 38.4 L 481.8 36.5 L 498.3 36.5" id="29,14" /><path d="M 492.0 40.2 L 492.0 39.0 L 503.2 39.0" id="27,13" /><path d="M 492.0 40.2 L 492.0 41.4 L 501.1 41.4" id="27,12" /><path d="M 469.9 46.6 L 469.9 43.9 L 530.3 43.9" id="30,11" /><path d="M 474.1 49.3 L 474.1 46.3 L 500.5 46.3" id="28,10" /><path d="M 483.5 52.2 L 483.5 48.8 L 523.0 48.8" id="26,9" /><path d="M 495.8 52.5 L 495.8 51.2 L 511.3 51.2" id="24,8" /><path d="M 495.8 52.5 L 495.8 53.7 L 506.2 53.7" id="24,7" /><path d="M 503.6 59.0 L 503.6 56.1 L 508.3 56.1" id="23,6" /><path d="M 507.6 61.8 L 507.6 58.6 L 510.1 58.6" id="22,5" /><path d="M 510.0 62.3 L 510.0 61.0 L 510.4 61.0" id="20,4" /><path d="M 510.0 62.3 L 510.0 63.5 L 510.5 63.5" id="20,3" /><path d="M 510.5 67.8 L 510.5 65.9 L 510.9 65.9" id="19,2" /><path d="M 510.5 69.6 L 510.5 68.4 L 510.5 68.4" id="18,1" /><path d="M 510.5 69.6 L 510.5 70.8 L 510.7 70.8" id="18,0" /></g><g class="toytree-Nodes" style="fill:rgb(100%,0%,0%);fill-opacity:1.0;stroke:None;stroke-width:1"><g id="node-0" transform="translate(510.661,70.833)"><circle r="2.5" /></g><g id="node-1" transform="translate(510.510,68.382)"><circle r="2.5" /></g><g id="node-2" transform="translate(510.913,65.931)"><circle r="2.5" /></g><g id="node-3" transform="translate(510.489,63.480)"><circle r="2.5" /></g><g id="node-4" transform="translate(510.410,61.029)"><circle r="2.5" /></g><g id="node-5" transform="translate(510.104,58.578)"><circle r="2.5" /></g><g id="node-6" transform="translate(508.315,56.127)"><circle r="2.5" /></g><g id="node-7" transform="translate(506.187,53.676)"><circle r="2.5" /></g><g id="node-8" transform="translate(511.344,51.225)"><circle r="2.5" /></g><g id="node-9" transform="translate(522.989,48.775)"><circle r="2.5" /></g><g id="node-10" transform="translate(500.485,46.324)"><circle r="2.5" /></g><g id="node-11" transform="translate(530.263,43.873)"><circle r="2.5" /></g><g id="node-12" transform="translate(501.100,41.422)"><circle r="2.5" /></g><g id="node-13" transform="translate(503.235,38.971)"><circle r="2.5" /></g><g id="node-14" transform="translate(498.274,36.520)"><circle r="2.5" /></g><g id="node-15" transform="translate(502.866,34.069)"><circle r="2.5" /></g><g id="node-16" transform="translate(494.462,31.618)"><circle r="2.5" /></g><g id="node-17" transform="translate(507.341,29.167)"><circle r="2.5" /></g><g id="node-18" transform="translate(510.510,69.608)"><circle r="0.0" /></g><g id="node-19" transform="translate(510.510,67.770)"><circle r="0.0" /></g><g id="node-20" transform="translate(509.991,62.255)"><circle r="0.0" /></g><g id="node-21" transform="translate(508.126,65.012)"><circle r="0.0" /></g><g id="node-22" transform="translate(507.557,61.795)"><circle r="0.0" /></g><g id="node-23" transform="translate(503.612,58.961)"><circle r="0.0" /></g><g id="node-24" transform="translate(495.775,52.451)"><circle r="0.0" /></g><g id="node-25" transform="translate(492.974,55.706)"><circle r="0.0" /></g><g id="node-26" transform="translate(483.515,52.240)"><circle r="0.0" /></g><g id="node-27" transform="translate(491.979,40.196)"><circle r="0.0" /></g><g id="node-28" transform="translate(474.143,49.282)"><circle r="0.0" /></g><g id="node-29" transform="translate(481.779,38.358)"><circle r="0.0" /></g><g id="node-30" transform="translate(469.909,46.577)"><circle r="0.0" /></g><g id="node-31" transform="translate(470.739,36.213)"><circle r="0.0" /></g><g id="node-32" transform="translate(467.192,41.395)"><circle r="0.0" /></g><g id="node-33" transform="translate(450.025,36.506)"><circle r="0.0" /></g><g id="node-34" transform="translate(445.000,32.837)"><circle r="0.0" /></g></g></g></g></g></svg>