<svg class="toyplot-canvas-Canvas" xmlns:toyplot="http://www.sandia.gov/toyplot" xmlns:xlink="http://www.w3.org/1999/xlink" xmlns="http://www.w3.org/2000/svg" width="560.0px" height="100.0px" viewBox="0 0 560.0 100.0" preserveAspectRatio="xMidYMid meet" style="background-color:transparent;border-color:#292724;border-style:none;border-width:1.0;fill:rgb(16.1%,15.3%,14.1%);fill-opacity:1.0;font-family:Helvetica;font-size:12px;opacity:1.0;stroke:rgb(16.1%,15.3%,14.1%);stroke-opacity:1.0;stroke-width:1.0" id="t76a69511e6374565912609046dec60a8"><g class="toyplot-coordinates-Cartesian" id="t796d6df07b024d2c96e2379e3c439637"><clipPath id="t7fc2ea7208064caebd25162821e0dfe8"><rect x="15.0" y="15.0" width="110.0" height="70.0" /></clipPath><g clip-path="url(#t7fc2ea7208064caebd25162821e0dfe8)"><g class="toytree-mark-Toytree" id="t9b3e2adc5b094c3b96a2b41f9af0e48c"><g class="toytree-Edges" style="fill:none;stroke:rgb(14.9%,14.9%,14.9%);stroke-linecap:round;stroke-opacity:1;stroke-width:0.5"><path d="M 25.0 46.1 L 25.0 35.3 L 27.8 35.3" id="22,21" /><path d="M 25.0 46.1 L 25.0 56.9 L 28.1 56.9" id="22,20" /><path d="M 27.8 35.3 L 27.8 31.1 L 36.0 31.1" id="21,19" /><path d="M 27.8 35.3 L 27.8 39.6 L 30.1 39.6" id="21,18" /><path d="M 28.1 56.9 L 28.1 50.9 L 29.6 50.9" id="20,17" /><path d="M 28.1 56.9 L 28.1 62.8 L 30.0 62.8" id="20,16" /><path d="M 30.1 39.6 L 30.1 42.4 L 31.9 42.4" id="18,15" /><path d="M 29.6 50.9 L 29.6 53.8 L 39.4 53.8" id="17,14" /><path d="M 30.0 62.8 L 30.0 66.1 L 33.5 66.1" id="16,13" /><path d="M 33.5 66.1 L 33.5 68.9 L 38.4 68.9" id="13,12" /><path d="M 36.0 31.1 L 36.0 29.2 L 97.1 29.2" id="19,11" /><path d="M 36.0 31.1 L 36.0 33.0 L 94.4 33.0" id="19,10" /><path d="M 30.1 39.6 L 30.1 36.7 L 109.5 36.7" id="18,9" /><path d="M 31.9 42.4 L 31.9 40.5 L 103.4 40.5" id="15,8" /><path d="M 31.9 42.4 L 31.9 44.3 L 107.0 44.3" id="15,7" /><path d="M 29.6 50.9 L 29.6 48.1 L 104.2 48.1" id="17,6" /><path d="M 39.4 53.8 L 39.4 51.9 L 110.3 51.9" id="14,5" /><path d="M 39.4 53.8 L 39.4 55.7 L 96.4 55.7" id="14,4" /><path d="M 30.0 62.8 L 30.0 59.5 L 96.3 59.5" id="16,3" /><path d="M 33.5 66.1 L 33.5 63.3 L 100.1 63.3" id="13,2" /><path d="M 38.4 68.9 L 38.4 67.0 L 105.2 67.0" id="12,1" /><path d="M 38.4 68.9 L 38.4 70.8 L 102.7 70.8" id="12,0" /></g><g class="toytree-Nodes" style="fill:rgb(100%,0%,0%);fill-opacity:1.0;stroke:None;stroke-width:1"><g id="node-0" transform="translate(102.696,70.833)"><circle r="2.5" /></g><g id="node-1" transform="translate(105.209,67.045)"><circle r="2.5" /></g><g id="node-2" transform="translate(100.066,63.258)"><circle r="2.5" /></g><g id="node-3" transform="translate(96.286,59.470)"><circle r="2.5" /></g><g id="node-4" transform="translate(96.393,55.682)"><circle r="2.5" /></g><g id="node-5" transform="translate(110.263,51.894)"><circle r="2.5" /></g><g id="node-6" transform="translate(104.207,48.106)"><circle r="2.5" /></g><g id="node-7" transform="translate(107.032,44.318)"><circle r="2.5" /></g><g id="node-8" transform="translate(103.450,40.530)"><circle r="2.5" /></g><g id="node-9" transform="translate(109.518,36.742)"><circle r="2.5" /></g><g id="node-10" transform="translate(94.422,32.955)"><circle r="2.5" /></g><g id="node-11" transform="translate(97.137,29.167)"><circle r="2.5" /></g><g id="node-12" transform="translate(38.405,68.939)"><circle r="0.0" /></g><g id="node-13" transform="translate(33.531,66.098)"><circle r="0.0" /></g><g id="node-14" transform="translate(39.375,53.788)"><circle r="0.0" /></g><g id="node-15" transform="translate(31.931,42.424)"><circle r="0.0" /></g><g id="node-16" transform="translate(30.027,62.784)"><circle r="0.0" /></g><g id="node-17" transform="translate(29.610,50.947)"><circle r="0.0" /></g><g id="node-18" transform="translate(30.111,39.583)"><circle r="0.0" /></g><g id="node-19" transform="translate(36.042,31.061)"><circle r="0.0" /></g><g id="node-20" transform="translate(28.065,56.866)"><circle r="0.0" /></g><g id="node-21" transform="translate(27.839,35.322)"><circle r="0.0" /></g><g id="node-22" transform="translate(25.000,46.094)"><circle r="0.0" /></g></g></g></g></g><g class="toyplot-coordinates-Cartesian" id="tf041d26f3fe240ae82c2b63670d54e19"><clipPath id="t714926b727c245ee8e30466bf7de375e"><rect x="155.0" y="15.0" width="110.0" height="70.0" /></clipPath><g clip-path="url(#t714926b727c245ee8e30466bf7de375e)"><g class="toytree-mark-Toytree" id="t58fff406b35a4c76990491b57a12da03"><g class="toytree-Edges" style="fill:none;stroke:rgb(14.9%,14.9%,14.9%);stroke-linecap:round;stroke-opacity:1;stroke-width:0.5"><path d="M 165.0 39.0 L 165.0 31.1 L 169.8 31.1" id="22,21" /><path d="M 165.0 39.0 L 165.0 46.9 L 173.1 46.9" id="22,20" /><path d="M 173.1 46.9 L 173.1 39.6 L 184.6 39.6" id="20,19" /><path d="M 173.1 46.9 L 173.1 54.3 L 187.9 54.3" id="20,18" /><path d="M 184.6 39.6 L 184.6 42.4 L 191.6 42.4" id="19,17" /><path d="M 187.9 54.3 L 187.9 60.4 L 192.1 60.4" id="18,16" /><path d="M 192.1 60.4 L 192.1 54.7 L 201.7 54.7" id="16,15" /><path d="M 192.1 60.4 L 192.1 66.1 L 195.0 66.1" id="16,14" /><path d="M 201.7 54.7 L 201.7 57.6 L 218.0 57.6" id="15,13" /><path d="M 195.0 66.1 L 195.0 68.9 L 202.1 68.9" id="14,12" /><path d="M 169.8 31.1 L 169.8 29.2 L 219.2 29.2" id="21,11" /><path d="M 169.8 31.1 L 169.8 33.0 L 209.5 33.0" id="21,10" /><path d="M 184.6 39.6 L 184.6 36.7 L 206.1 36.7" id="19,9" /><path d="M 191.6 42.4 L 191.6 40.5 L 212.6 40.5" id="17,8" /><path d="M 191.6 42.4 L 191.6 44.3 L 217.2 44.3" id="17,7" /><path d="M 187.9 54.3 L 187.9 48.1 L 187.9 48.1" id="18,6" /><path d="M 201.7 54.7 L 201.7 51.9 L 226.6 51.9" id="15,5" /><path d="M 218.0 57.6 L 218.0 55.7 L 229.1 55.7" id="13,4" /><path d="M 218.0 57.6 L 218.0 59.5 L 225.7 59.5" id="13,3" /><path d="M 195.0 66.1 L 195.0 63.3 L 207.3 63.3" id="14,2" /><path d="M 202.1 68.9 L 202.1 67.0 L 232.8 67.0" id="12,1" /><path d="M 202.1 68.9 L 202.1 70.8 L 250.3 70.8" id="12,0" /></g><g class="toytree-Nodes" style="fill:rgb(100%,0%,0%);fill-opacity:1.0;stroke:None;stroke-width:1"><g id="node-0" transform="translate(250.263,70.833)"><circle r="2.5" /></g><g id="node-1" transform="translate(232.818,67.045)"><circle r="2.5" /></g><g id="node-2" transform="translate(207.338,63.258)"><circle r="2.5" /></g><g id="node-3" transform="translate(225.739,59.470)"><circle r="2.5" /></g><g id="node-4" transform="translate(229.099,55.682)"><circle r="2.5" /></g><g id="node-5" transform="translate(226.616,51.894)"><circle r="2.5" /></g><g id="node-6" transform="translate(187.919,48.106)"><circle r="2.5" /></g><g id="node-7" transform="translate(217.205,44.318)"><circle r="2.5" /></g><g id="node-8" transform="translate(212.599,40.530)"><circle r="2.5" /></g><g id="node-9" transform="translate(206.118,36.742)"><circle r="2.5" /></g><g id="node-10" transform="translate(209.547,32.955)"><circle r="2.5" /></g><g id="node-11" transform="translate(219.249,29.167)"><circle r="2.5" /></g><g id="node-12" transform="translate(202.118,68.939)"><circle r="0.0" /></g><g id="node-13" transform="translate(218.040,57.576)"><circle r="0.0" /></g><g id="node-14" transform="translate(194.974,66.098)"><circle r="0.0" /></g><g id="node-15" transform="translate(201.720,54.735)"><circle r="0.0" /></g><g id="node-16" transform="translate(192.061,60.417)"><circle r="0.0" /></g><g id="node-17" transform="translate(191.562,42.424)"><circle r="0.0" /></g><g id="node-18" transform="translate(187.919,54.261)"><circle r="0.0" /></g><g id="node-19" transform="translate(184.568,39.583)"><circle r="0.0" /></g><g id="node-20" transform="translate(173.063,46.922)"><circle r="0.0" /></g><g id="node-21" transform="translate(169.806,31.061)"><circle r="0.0" /></g><g id="node-22" transform="translate(165.000,38.991)"><circle r="0.0" /></g></g></g></g></g><g class="toyplot-coordinates-Cartesian" id="t6a18cef240f8412dabbaf1afbd995fdd"><clipPath id="t2f68be8d7f1548f09532d6182fd1cf2c"><rect x="295.0" y="15.0" width="110.0" height="70.0" /></clipPath><g clip-path="url(#t2f68be8d7f1548f09532d6182fd1cf2c)"><g class="toytree-mark-Toytree" id="tf95cbaa86f0a4f92a52aa6a7305e573f"><g class="toytree-Edges" style="fill:none;stroke:rgb(14.9%,14.9%,14.9%);stroke-linecap:round;stroke-opacity:1;stroke-width:0.5"><path d="M 305.0 39.6 L 305.0 31.1 L 312.2 31.1" id="22,21" /><path d="M 305.0 39.6 L 305.0 48.2 L 314.2 48.2" id="22,20" /><path d="M 314.2 48.2 L 314.2 39.6 L 330.0 39.6" id="20,19" /><path d="M 314.2 48.2 L 314.2 56.9 L 333.7 56.9" id="20,18" /><path d="M 330.0 39.6 L 330.0 42.4 L 333.0 42.4" id="19,17" /><path d="M 333.7 56.9 L 333.7 50.9 L 339.1 50.9" id="18,16" /><path d="M 333.7 56.9 L 333.7 62.8 L 337.3 62.8" id="18,15" /><path d="M 339.1 50.9 L 339.1 53.8 L 348.5 53.8" id="16,14" /><path d="M 337.3 62.8 L 337.3 66.1 L 351.5 66.1" id="15,13" /><path d="M 351.5 66.1 L 351.5 68.9 L 359.0 68.9" id="13,12" /><path d="M 312.2 31.1 L 312.2 29.2 L 363.6 29.2" id="21,11" /><path d="M 312.2 31.1 L 312.2 33.0 L 357.5 33.0" id="21,10" /><path d="M 330.0 39.6 L 330.0 36.7 L 350.0 36.7" id="19,9" /><path d="M 333.0 42.4 L 333.0 40.5 L 359.5 40.5" id="17,8" /><path d="M 333.0 42.4 L 333.0 44.3 L 352.7 44.3" id="17,7" /><path d="M 339.1 50.9 L 339.1 48.1 L 346.4 48.1" id="16,6" /><path d="M 348.5 53.8 L 348.5 51.9 L 387.6 51.9" id="14,5" /><path d="M 348.5 53.8 L 348.5 55.7 L 390.3 55.7" id="14,4" /><path d="M 337.3 62.8 L 337.3 59.5 L 347.0 59.5" id="15,3" /><path d="M 351.5 66.1 L 351.5 63.3 L 371.2 63.3" id="13,2" /><path d="M 359.0 68.9 L 359.0 67.0 L 373.7 67.0" id="12,1" /><path d="M 359.0 68.9 L 359.0 70.8 L 362.8 70.8" id="12,0" /></g><g class="toytree-Nodes" style="fill:rgb(100%,0%,0%);fill-opacity:1.0;stroke:None;stroke-width:1"><g id="node-0" transform="translate(362.840,70.833)"><circle r="2.5" /></g><g id="node-1" transform="translate(373.702,67.045)"><circle r="2.5" /></g><g id="node-2" transform="translate(371.238,63.258)"><circle r="2.5" /></g><g id="node-3" transform="translate(347.028,59.470)"><circle r="2.5" /></g><g id="node-4" transform="translate(390.263,55.682)"><circle r="2.5" /></g><g id="node-5" transform="translate(387.640,51.894)"><circle r="2.5" /></g><g id="node-6" transform="translate(346.403,48.106)"><circle r="2.5" /></g><g id="node-7" transform="translate(352.724,44.318)"><circle r="2.5" /></g><g id="node-8" transform="translate(359.483,40.530)"><circle r="2.5" /></g><g id="node-9" transform="translate(349.954,36.742)"><circle r="2.5" /></g><g id="node-10" transform="translate(357.493,32.955)"><circle r="2.5" /></g><g id="node-11" transform="translate(363.614,29.167)"><circle r="2.5" /></g><g id="node-12" transform="translate(359.001,68.939)"><circle r="0.0" /></g><g id="node-13" transform="translate(351.486,66.098)"><circle r="0.0" /></g><g id="node-14" transform="translate(348.458,53.788)"><circle r="0.0" /></g><g id="node-15" transform="translate(337.334,62.784)"><circle r="0.0" /></g><g id="node-16" transform="translate(339.133,50.947)"><circle r="0.0" /></g><g id="node-17" transform="translate(332.968,42.424)"><circle r="0.0" /></g><g id="node-18" transform="translate(333.661,56.866)"><circle r="0.0" /></g><g id="node-19" transform="translate(330.013,39.583)"><circle r="0.0" /></g><g id="node-20" transform="translate(314.202,48.224)"><circle r="0.0" /></g><g id="node-21" transform="translate(312.241,31.061)"><circle r="0.0" /></g><g id="node-22" transform="translate(305.000,39.643)"><circle r="0.0" /></g></g></g></g></g><g class="toyplot-coordinates-Cartesian" id="t0657832592f34bacbf39889859880a6d"><clipPath id="tecb9d3c156c448a7a3e10be35d6fb84d"><rect x="435.0" y="15.0" width="110.0" height="70.0" /></clipPath><g clip-path="url(#tecb9d3c156c448a7a3e10be35d6fb84d)"><g class="toytree-mark-Toytree" id="t201bbbcdaa274fb7bc29cde631c7248b"><g class="toytree-Edges" style="fill:none;stroke:rgb(14.9%,14.9%,14.9%);stroke-linecap:round;stroke-opacity:1;stroke-width:0.5"><path d="M 445.0 46.7 L 445.0 35.3 L 451.7 35.3" id="22,21" /><path d="M 445.0 46.7 L 445.0 58.0 L 457.4 58.0" id="22,20" /><path d="M 451.7 35.3 L 451.7 31.1 L 467.6 31.1" id="21,19" /><path d="M 451.7 35.3 L 451.7 39.6 L 457.4 39.6" id="21,18" /><path d="M 457.4 58.0 L 457.4 50.9 L 461.5 50.9" id="20,17" /><path d="M 457.4 58.0 L 457.4 65.2 L 470.6 65.2" id="20,16" /><path d="M 457.4 39.6 L 457.4 42.4 L 461.5 42.4" id="18,15" /><path d="M 461.5 50.9 L 461.5 53.8 L 463.9 53.8" id="17,14" /><path d="M 470.6 65.2 L 470.6 61.4 L 479.3 61.4" id="16,13" /><path d="M 470.6 65.2 L 470.6 68.9 L 474.6 68.9" id="16,12" /><path d="M 467.6 31.1 L 467.6 29.2 L 515.3 29.2" id="19,11" /><path d="M 467.6 31.1 L 467.6 33.0 L 515.5 33.0" id="19,10" /><path d="M 457.4 39.6 L 457.4 36.7 L 497.0 36.7" id="18,9" /><path d="M 461.5 42.4 L 461.5 40.5 L 489.1 40.5" id="15,8" /><path d="M 461.5 42.4 L 461.5 44.3 L 485.2 44.3" id="15,7" /><path d="M 461.5 50.9 L 461.5 48.1 L 495.3 48.1" id="17,6" /><path d="M 463.9 53.8 L 463.9 51.9 L 480.2 51.9" id="14,5" /><path d="M 463.9 53.8 L 463.9 55.7 L 491.7 55.7" id="14,4" /><path d="M 479.3 61.4 L 479.3 59.5 L 521.1 59.5" id="13,3" /><path d="M 479.3 61.4 L 479.3 63.3 L 530.3 63.3" id="13,2" /><path d="M 474.6 68.9 L 474.6 67.0 L 499.8 67.0" id="12,1" /><path d="M 474.6 68.9 L 474.6 70.8 L 494.3 70.8" id="12,0" /></g><g class="toytree-Nodes" style="fill:rgb(100%,0%,0%);fill-opacity:1.0;stroke:None;stroke-width:1"><g id="node-0" transform="translate(494.271,70.833)"><circle r="2.5" /></g><g id="node-1" transform="translate(499.840,67.045)"><circle r="2.5" /></g><g id="node-2" transform="translate(530.263,63.258)"><circle r="2.5" /></g><g id="node-3" transform="translate(521.139,59.470)"><circle r="2.5" /></g><g id="node-4" transform="translate(491.699,55.682)"><circle r="2.5" /></g><g id="node-5" transform="translate(480.152,51.894)"><circle r="2.5" /></g><g id="node-6" transform="translate(495.305,48.106)"><circle r="2.5" /></g><g id="node-7" transform="translate(485.214,44.318)"><circle r="2.5" /></g><g id="node-8" transform="translate(489.119,40.530)"><circle r="2.5" /></g><g id="node-9" transform="translate(496.993,36.742)"><circle r="2.5" /></g><g id="node-10" transform="translate(515.462,32.955)"><circle r="2.5" /></g><g id="node-11" transform="translate(515.284,29.167)"><circle r="2.5" /></g><g id="node-12" transform="translate(474.596,68.939)"><circle r="0.0" /></g><g id="node-13" transform="translate(479.328,61.364)"><circle r="0.0" /></g><g id="node-14" transform="translate(463.924,53.788)"><circle r="0.0" /></g><g id="node-15" transform="translate(461.462,42.424)"><circle r="0.0" /></g><g id="node-16" transform="translate(470.616,65.152)"><circle r="0.0" /></g><g id="node-17" transform="translate(461.498,50.947)"><circle r="0.0" /></g><g id="node-18" transform="translate(457.414,39.583)"><circle r="0.0" /></g><g id="node-19" transform="translate(467.640,31.061)"><circle r="0.0" /></g><g id="node-20" transform="translate(457.366,58.049)"><circle r="0.0" /></g><g id="node-21" transform="translate(451.670,35.322)"><circle r="0.0" /></g><g id="node-22" transform="translate(445.000,46.686)"><circle r="0.0" /></g></g></g></g></g></svg>