<svg class="toyplot-canvas-Canvas" xmlns:toyplot="http://www.sandia.gov/toyplot" xmlns:xlink="http://www.w3.org/1999/xlink" xmlns="http://www.w3.org/2000/svg" width="560.0px" height="100.0px" viewBox="0 0 560.0 100.0" preserveAspectRatio="xMidYMid meet" style="background-color:transparent;border-color:#292724;border-style:none;border-width:1.0;fill:rgb(16.1%,15.3%,14.1%);fill-opacity:1.0;font-family:Helvetica;font-size:12px;opacity:1.0;stroke:rgb(16.1%,15.3%,14.1%);stroke-opacity:1.0;stroke-width:1.0" id="tda3734a755c4421d82d291f559d91a2b"><g class="toyplot-coordinates-Cartesian" id="t98c16a9430f049f0aaa8377c995d9350"><clipPath id="tbba7c72f2c904cb7806d806274d32dd0"><rect x="15.0" y="15.0" width="110.0" height="70.0" /></clipPath><g clip-path="url(#tbba7c72f2c904cb7806d806274d32dd0)"><g class="toytree-mark-Toytree" id="tde7e51f0563844c39d13ad238974ce0d"><g class="toytree-Edges" style="fill:none;stroke:rgb(14.9%,14.9%,14.9%);stroke-linecap:round;stroke-opacity:1;stroke-width:0.5"><path d="M 25.0 45.2 L 25.0 34.4 L 26.2 34.4" id="12,11" /><path d="M 25.0 45.2 L 25.0 56.1 L 32.3 56.1" id="12,10" /><path d="M 26.2 34.4 L 26.2 39.6 L 27.8 39.6" id="11,9" /><path d="M 32.3 56.1 L 32.3 62.2 L 40.7 62.2" id="10,8" /><path d="M 40.7 62.2 L 40.7 67.4 L 47.2 67.4" id="8,7" /><path d="M 26.2 34.4 L 26.2 29.2 L 110.3 29.2" id="11,6" /><path d="M 27.8 39.6 L 27.8 36.1 L 106.1 36.1" id="9,5" /><path d="M 27.8 39.6 L 27.8 43.1 L 104.7 43.1" id="9,4" /><path d="M 32.3 56.1 L 32.3 50.0 L 104.2 50.0" id="10,3" /><path d="M 40.7 62.2 L 40.7 56.9 L 106.6 56.9" id="8,2" /><path d="M 47.2 67.4 L 47.2 63.9 L 108.9 63.9" id="7,1" /><path d="M 47.2 67.4 L 47.2 70.8 L 108.3 70.8" id="7,0" /></g><g class="toytree-Nodes" style="fill:rgb(100%,0%,0%);fill-opacity:1.0;stroke:None;stroke-width:1"><g id="node-0" transform="translate(108.303,70.833)"><circle r="2.5" /></g><g id="node-1" transform="translate(108.858,63.889)"><circle r="2.5" /></g><g id="node-2" transform="translate(106.621,56.944)"><circle r="2.5" /></g><g id="node-3" transform="translate(104.179,50.000)"><circle r="2.5" /></g><g id="node-4" transform="translate(104.694,43.056)"><circle r="2.5" /></g><g id="node-5" transform="translate(106.093,36.111)"><circle r="2.5" /></g><g id="node-6" transform="translate(110.263,29.167)"><circle r="2.5" /></g><g id="node-7" transform="translate(47.215,67.361)"><circle r="0.0" /></g><g id="node-8" transform="translate(40.684,62.153)"><circle r="0.0" /></g><g id="node-9" transform="translate(27.770,39.583)"><circle r="0.0" /></g><g id="node-10" transform="translate(32.330,56.076)"><circle r="0.0" /></g><g id="node-11" transform="translate(26.239,34.375)"><circle r="0.0" /></g><g id="node-12" transform="translate(25.000,45.226)"><circle r="0.0" /></g></g></g></g></g><g class="toyplot-coordinates-Cartesian" id="t878899704c5e408da2891a9c1520f04c"><clipPath id="tc7450ea53a4444ae80b96fc5823f29a8"><rect x="155.0" y="15.0" width="110.0" height="70.0" /></clipPath><g clip-path="url(#tc7450ea53a4444ae80b96fc5823f29a8)"><g class="toytree-mark-Toytree" id="t1d97b0b5ba6e4415b5e039e186f73abf"><g class="toytree-Edges" style="fill:none;stroke:rgb(14.9%,14.9%,14.9%);stroke-linecap:round;stroke-opacity:1;stroke-width:0.5"><path d="M 165.0 36.0 L 165.0 42.8 L 171.3 42.8" id="12,11" /><path d="M 171.3 42.8 L 171.3 49.6 L 174.5 49.6" id="11,10" /><path d="M 174.5 49.6 L 174.5 56.1 L 205.7 56.1" id="10,9" /><path d="M 205.7 56.1 L 205.7 62.2 L 217.9 62.2" id="9,8" /><path d="M 217.9 62.2 L 217.9 67.4 L 230.0 67.4" id="8,7" /><path d="M 165.0 36.0 L 165.0 29.2 L 237.0 29.2" id="12,6" /><path d="M 171.3 42.8 L 171.3 36.1 L 223.9 36.1" id="11,5" /><path d="M 174.5 49.6 L 174.5 43.1 L 236.7 43.1" id="10,4" /><path d="M 205.7 56.1 L 205.7 50.0 L 239.7 50.0" id="9,3" /><path d="M 217.9 62.2 L 217.9 56.9 L 230.2 56.9" id="8,2" /><path d="M 230.0 67.4 L 230.0 63.9 L 250.3 63.9" id="7,1" /><path d="M 230.0 67.4 L 230.0 70.8 L 248.2 70.8" id="7,0" /></g><g class="toytree-Nodes" style="fill:rgb(100%,0%,0%);fill-opacity:1.0;stroke:None;stroke-width:1"><g id="node-0" transform="translate(248.194,70.833)"><circle r="2.5" /></g><g id="node-1" transform="translate(250.263,63.889)"><circle r="2.5" /></g><g id="node-2" transform="translate(230.238,56.944)"><circle r="2.5" /></g><g id="node-3" transform="translate(239.669,50.000)"><circle r="2.5" /></g><g id="node-4" transform="translate(236.723,43.056)"><circle r="2.5" /></g><g id="node-5" transform="translate(223.902,36.111)"><circle r="2.5" /></g><g id="node-6" transform="translate(236.960,29.167)"><circle r="2.5" /></g><g id="node-7" transform="translate(230.037,67.361)"><circle r="0.0" /></g><g id="node-8" transform="translate(217.859,62.153)"><circle r="0.0" /></g><g id="node-9" transform="translate(205.680,56.076)"><circle r="0.0" /></g><g id="node-10" transform="translate(174.462,49.566)"><circle r="0.0" /></g><g id="node-11" transform="translate(171.344,42.839)"><circle r="0.0" /></g><g id="node-12" transform="translate(165.000,36.003)"><circle r="0.0" /></g></g></g></g></g><g class="toyplot-coordinates-Cartesian" id="t2399ecdff86d47939ff3d0c7a096cca3"><clipPath id="te1368137d5034b1b82b9f53c31ff966f"><rect x="295.0" y="15.0" width="110.0" height="70.0" /></clipPath><g clip-path="url(#te1368137d5034b1b82b9f53c31ff966f)"><g class="toytree-mark-Toytree" id="tcc83f9f3dfa94e17ac3c720c1a797d2b"><g class="toytree-Edges" style="fill:none;stroke:rgb(14.9%,14.9%,14.9%);stroke-linecap:round;stroke-opacity:1;stroke-width:0.5"><path d="M 305.0 38.5 L 305.0 47.8 L 315.5 47.8" id="12,11" /><path d="M 315.5 47.8 L 315.5 39.6 L 324.9 39.6" id="11,10" /><path d="M 315.5 47.8 L 315.5 56.1 L 337.7 56.1" id="11,9" /><path d="M 337.7 56.1 L 337.7 62.2 L 355.8 62.2" id="9,8" /><path d="M 355.8 62.2 L 355.8 67.4 L 358.2 67.4" id="8,7" /><path d="M 305.0 38.5 L 305.0 29.2 L 376.8 29.2" id="12,6" /><path d="M 324.9 39.6 L 324.9 36.1 L 377.9 36.1" id="10,5" /><path d="M 324.9 39.6 L 324.9 43.1 L 370.4 43.1" id="10,4" /><path d="M 337.7 56.1 L 337.7 50.0 L 368.2 50.0" id="9,3" /><path d="M 355.8 62.2 L 355.8 56.9 L 390.3 56.9" id="8,2" /><path d="M 358.2 67.4 L 358.2 63.9 L 382.1 63.9" id="7,1" /><path d="M 358.2 67.4 L 358.2 70.8 L 376.1 70.8" id="7,0" /></g><g class="toytree-Nodes" style="fill:rgb(100%,0%,0%);fill-opacity:1.0;stroke:None;stroke-width:1"><g id="node-0" transform="translate(376.080,70.833)"><circle r="2.5" /></g><g id="node-1" transform="translate(382.121,63.889)"><circle r="2.5" /></g><g id="node-2" transform="translate(390.263,56.944)"><circle r="2.5" /></g><g id="node-3" transform="translate(368.170,50.000)"><circle r="2.5" /></g><g id="node-4" transform="translate(370.386,43.056)"><circle r="2.5" /></g><g id="node-5" transform="translate(377.886,36.111)"><circle r="2.5" /></g><g id="node-6" transform="translate(376.756,29.167)"><circle r="2.5" /></g><g id="node-7" transform="translate(358.157,67.361)"><circle r="0.0" /></g><g id="node-8" transform="translate(355.778,62.153)"><circle r="0.0" /></g><g id="node-9" transform="translate(337.699,56.076)"><circle r="0.0" /></g><g id="node-10" transform="translate(324.905,39.583)"><circle r="0.0" /></g><g id="node-11" transform="translate(315.501,47.830)"><circle r="0.0" /></g><g id="node-12" transform="translate(305.000,38.498)"><circle r="0.0" /></g></g></g></g></g><g class="toyplot-coordinates-Cartesian" id="tdb08cadf5f0a449794c37836d9dce87c"><clipPath id="t56e8b58f73a94fed86bbba743e3fafbd"><rect x="435.0" y="15.0" width="110.0" height="70.0" /></clipPath><g clip-path="url(#t56e8b58f73a94fed86bbba743e3fafbd)"><g class="toytree-mark-Toytree" id="t34045fd16d1949d39126a9ec1e00f401"><g class="toytree-Edges" style="fill:none;stroke:rgb(14.9%,14.9%,14.9%);stroke-linecap:round;stroke-opacity:1;stroke-width:0.5"><path d="M 445.0 45.2 L 445.0 34.4 L 447.3 34.4" id="12,11" /><path d="M 445.0 45.2 L 445.0 56.1 L 459.7 56.1" id="12,10" /><path d="M 447.3 34.4 L 447.3 39.6 L 451.0 39.6" id="11,9" /><path d="M 459.7 56.1 L 459.7 62.2 L 484.2 62.2" id="10,8" /><path d="M 484.2 62.2 L 484.2 67.4 L 498.3 67.4" id="8,7" /><path d="M 447.3 34.4 L 447.3 29.2 L 523.2 29.2" id="11,6" /><path d="M 451.0 39.6 L 451.0 36.1 L 508.4 36.1" id="9,5" /><path d="M 451.0 39.6 L 451.0 43.1 L 515.8 43.1" id="9,4" /><path d="M 459.7 56.1 L 459.7 50.0 L 496.7 50.0" id="10,3" /><path d="M 484.2 62.2 L 484.2 56.9 L 517.6 56.9" id="8,2" /><path d="M 498.3 67.4 L 498.3 63.9 L 530.3 63.9" id="7,1" /><path d="M 498.3 67.4 L 498.3 70.8 L 527.2 70.8" id="7,0" /></g><g class="toytree-Nodes" style="fill:rgb(100%,0%,0%);fill-opacity:1.0;stroke:None;stroke-width:1"><g id="node-0" transform="translate(527.230,70.833)"><circle r="2.5" /></g><g id="node-1" transform="translate(530.263,63.889)"><circle r="2.5" /></g><g id="node-2" transform="translate(517.574,56.944)"><circle r="2.5" /></g><g id="node-3" transform="translate(496.739,50.000)"><circle r="2.5" /></g><g id="node-4" transform="translate(515.796,43.056)"><circle r="2.5" /></g><g id="node-5" transform="translate(508.392,36.111)"><circle r="2.5" /></g><g id="node-6" transform="translate(523.210,29.167)"><circle r="2.5" /></g><g id="node-7" transform="translate(498.302,67.361)"><circle r="0.0" /></g><g id="node-8" transform="translate(484.210,62.153)"><circle r="0.0" /></g><g id="node-9" transform="translate(451.037,39.583)"><circle r="0.0" /></g><g id="node-10" transform="translate(459.713,56.076)"><circle r="0.0" /></g><g id="node-11" transform="translate(447.255,34.375)"><circle r="0.0" /></g><g id="node-12" transform="translate(445.000,45.226)"><circle r="0.0" /></g></g></g></g></g></svg>