<svg class="toyplot-canvas-Canvas" xmlns:toyplot="http://www.sandia.gov/toyplot" xmlns:xlink="http://www.w3.org/1999/xlink" xmlns="http://www.w3.org/2000/svg" width="560.0px" height="100.0px" viewBox="0 0 560.0 100.0" preserveAspectRatio="xMidYMid meet" style="background-color:transparent;border-color:#292724;border-style:none;border-width:1.0;fill:rgb(16.1%,15.3%,14.1%);fill-opacity:1.0;font-family:Helvetica;font-size:12px;opacity:1.0;stroke:rgb(16.1%,15.3%,14.1%);stroke-opacity:1.0;stroke-width:1.0" id="t8298fe1a4a29476aa2957a0def2d47f2"><g class="toyplot-coordinates-Cartesian" id="t898a4ca4ddea449c93f2f99ee107b985"><clipPath id="tdc4e61900490488284d91b2630c914d3"><rect x="15.0" y="15.0" width="110.0" height="70.0" /></clipPath><g clip-path="url(#tdc4e61900490488284d91b2630c914d3)"><g class="toytree-mark-Toytree" id="t1432e3f6a81a4994ac4674e62934c81a"><g class="toytree-Edges" style="fill:none;stroke:rgb(14.9%,14.9%,14.9%);stroke-linecap:round;stroke-opacity:1;stroke-width:0.5"><path d="M 25.0 38.3 L 25.0 47.5 L 47.3 47.5" id="28,27" /><path d="M 47.3 47.5 L 47.3 39.0 L 49.8 39.0" id="27,26" /><path d="M 47.3 47.5 L 47.3 55.9 L 49.6 55.9" id="27,25" /><path d="M 49.8 39.0 L 49.8 34.4 L 68.9 34.4" id="26,24" /><path d="M 49.8 39.0 L 49.8 43.7 L 58.3 43.7" id="26,23" /><path d="M 49.6 55.9 L 49.6 58.8 L 51.3 58.8" id="25,22" /><path d="M 68.9 34.4 L 68.9 36.6 L 87.0 36.6" id="24,21" /><path d="M 58.3 43.7 L 58.3 46.3 L 64.6 46.3" id="23,20" /><path d="M 51.3 58.8 L 51.3 61.7 L 55.5 61.7" id="22,19" /><path d="M 64.6 46.3 L 64.6 48.5 L 78.5 48.5" id="20,18" /><path d="M 55.5 61.7 L 55.5 64.5 L 58.6 64.5" id="19,17" /><path d="M 58.6 64.5 L 58.6 67.1 L 64.5 67.1" id="17,16" /><path d="M 64.5 67.1 L 64.5 69.3 L 70.4 69.3" id="16,15" /><path d="M 25.0 38.3 L 25.0 29.2 L 105.7 29.2" id="28,14" /><path d="M 68.9 34.4 L 68.9 32.1 L 106.3 32.1" id="24,13" /><path d="M 87.0 36.6 L 87.0 35.1 L 106.0 35.1" id="21,12" /><path d="M 87.0 36.6 L 87.0 38.1 L 110.3 38.1" id="21,11" /><path d="M 58.3 43.7 L 58.3 41.1 L 101.6 41.1" id="23,10" /><path d="M 64.6 46.3 L 64.6 44.0 L 100.5 44.0" id="20,9" /><path d="M 78.5 48.5 L 78.5 47.0 L 102.0 47.0" id="18,8" /><path d="M 78.5 48.5 L 78.5 50.0 L 108.0 50.0" id="18,7" /><path d="M 49.6 55.9 L 49.6 53.0 L 103.6 53.0" id="25,6" /><path d="M 51.3 58.8 L 51.3 56.0 L 108.6 56.0" id="22,5" /><path d="M 55.5 61.7 L 55.5 58.9 L 109.2 58.9" id="19,4" /><path d="M 58.6 64.5 L 58.6 61.9 L 109.6 61.9" id="17,3" /><path d="M 64.5 67.1 L 64.5 64.9 L 108.9 64.9" id="16,2" /><path d="M 70.4 69.3 L 70.4 67.9 L 105.8 67.9" id="15,1" /><path d="M 70.4 69.3 L 70.4 70.8 L 101.2 70.8" id="15,0" /></g><g class="toytree-Nodes" style="fill:rgb(100%,0%,0%);fill-opacity:1.0;stroke:None;stroke-width:1"><g id="node-0" transform="translate(101.210,70.833)"><circle r="2.5" /></g><g id="node-1" transform="translate(105.809,67.857)"><circle r="2.5" /></g><g id="node-2" transform="translate(108.860,64.881)"><circle r="2.5" /></g><g id="node-3" transform="translate(109.649,61.905)"><circle r="2.5" /></g><g id="node-4" transform="translate(109.162,58.929)"><circle r="2.5" /></g><g id="node-5" transform="translate(108.584,55.952)"><circle r="2.5" /></g><g id="node-6" transform="translate(103.633,52.976)"><circle r="2.5" /></g><g id="node-7" transform="translate(108.036,50.000)"><circle r="2.5" /></g><g id="node-8" transform="translate(101.991,47.024)"><circle r="2.5" /></g><g id="node-9" transform="translate(100.479,44.048)"><circle r="2.5" /></g><g id="node-10" transform="translate(101.618,41.071)"><circle r="2.5" /></g><g id="node-11" transform="translate(110.263,38.095)"><circle r="2.5" /></g><g id="node-12" transform="translate(105.971,35.119)"><circle r="2.5" /></g><g id="node-13" transform="translate(106.308,32.143)"><circle r="2.5" /></g><g id="node-14" transform="translate(105.688,29.167)"><circle r="2.5" /></g><g id="node-15" transform="translate(70.446,69.345)"><circle r="0.0" /></g><g id="node-16" transform="translate(64.535,67.113)"><circle r="0.0" /></g><g id="node-17" transform="translate(58.642,64.509)"><circle r="0.0" /></g><g id="node-18" transform="translate(78.509,48.512)"><circle r="0.0" /></g><g id="node-19" transform="translate(55.531,61.719)"><circle r="0.0" /></g><g id="node-20" transform="translate(64.616,46.280)"><circle r="0.0" /></g><g id="node-21" transform="translate(86.999,36.607)"><circle r="0.0" /></g><g id="node-22" transform="translate(51.314,58.836)"><circle r="0.0" /></g><g id="node-23" transform="translate(58.266,43.676)"><circle r="0.0" /></g><g id="node-24" transform="translate(68.923,34.375)"><circle r="0.0" /></g><g id="node-25" transform="translate(49.586,55.906)"><circle r="0.0" /></g><g id="node-26" transform="translate(49.836,39.025)"><circle r="0.0" /></g><g id="node-27" transform="translate(47.266,47.466)"><circle r="0.0" /></g><g id="node-28" transform="translate(25.000,38.316)"><circle r="0.0" /></g></g></g></g></g><g class="toyplot-coordinates-Cartesian" id="t15f63cbb125741d0bde714841e7ef772"><clipPath id="te566e0d20e514a75a45662774788ac89"><rect x="155.0" y="15.0" width="110.0" height="70.0" /></clipPath><g clip-path="url(#te566e0d20e514a75a45662774788ac89)"><g class="toytree-mark-Toytree" id="ta4e611b8bc7a4c5285727793e0224596"><g class="toytree-Edges" style="fill:none;stroke:rgb(14.9%,14.9%,14.9%);stroke-linecap:round;stroke-opacity:1;stroke-width:0.5"><path d="M 165.0 43.3 L 165.0 32.0 L 167.3 32.0" id="28,27" /><path d="M 165.0 43.3 L 165.0 54.6 L 167.2 54.6" id="28,26" /><path d="M 167.3 32.0 L 167.3 34.9 L 170.0 34.9" id="27,25" /><path d="M 167.2 54.6 L 167.2 49.3 L 169.6 49.3" id="26,24" /><path d="M 167.2 54.6 L 167.2 59.9 L 169.6 59.9" id="26,23" /><path d="M 170.0 34.9 L 170.0 37.7 L 171.7 37.7" id="25,22" /><path d="M 169.6 49.3 L 169.6 51.5 L 175.0 51.5" id="24,21" /><path d="M 169.6 59.9 L 169.6 63.8 L 171.7 63.8" id="23,20" /><path d="M 171.7 37.7 L 171.7 40.3 L 172.5 40.3" id="22,19" /><path d="M 171.7 63.8 L 171.7 60.4 L 176.4 60.4" id="20,18" /><path d="M 171.7 63.8 L 171.7 67.1 L 172.4 67.1" id="20,17" /><path d="M 172.5 40.3 L 172.5 42.6 L 173.7 42.6" id="19,16" /><path d="M 172.4 67.1 L 172.4 69.3 L 182.8 69.3" id="17,15" /><path d="M 167.3 32.0 L 167.3 29.2 L 178.7 29.2" id="27,14" /><path d="M 170.0 34.9 L 170.0 32.1 L 176.9 32.1" id="25,13" /><path d="M 171.7 37.7 L 171.7 35.1 L 179.3 35.1" id="22,12" /><path d="M 172.5 40.3 L 172.5 38.1 L 172.7 38.1" id="19,11" /><path d="M 173.7 42.6 L 173.7 41.1 L 175.1 41.1" id="16,10" /><path d="M 173.7 42.6 L 173.7 44.0 L 175.1 44.0" id="16,9" /><path d="M 169.6 49.3 L 169.6 47.0 L 175.4 47.0" id="24,8" /><path d="M 175.0 51.5 L 175.0 50.0 L 175.2 50.0" id="21,7" /><path d="M 175.0 51.5 L 175.0 53.0 L 176.9 53.0" id="21,6" /><path d="M 169.6 59.9 L 169.6 56.0 L 170.8 56.0" id="23,5" /><path d="M 176.4 60.4 L 176.4 58.9 L 176.4 58.9" id="18,4" /><path d="M 176.4 60.4 L 176.4 61.9 L 178.9 61.9" id="18,3" /><path d="M 172.4 67.1 L 172.4 64.9 L 174.2 64.9" id="17,2" /><path d="M 182.8 69.3 L 182.8 67.9 L 250.3 67.9" id="15,1" /><path d="M 182.8 69.3 L 182.8 70.8 L 182.8 70.8" id="15,0" /></g><g class="toytree-Nodes" style="fill:rgb(100%,0%,0%);fill-opacity:1.0;stroke:None;stroke-width:1"><g id="node-0" transform="translate(182.799,70.833)"><circle r="2.5" /></g><g id="node-1" transform="translate(250.263,67.857)"><circle r="2.5" /></g><g id="node-2" transform="translate(174.168,64.881)"><circle r="2.5" /></g><g id="node-3" transform="translate(178.937,61.905)"><circle r="2.5" /></g><g id="node-4" transform="translate(176.377,58.929)"><circle r="2.5" /></g><g id="node-5" transform="translate(170.791,55.952)"><circle r="2.5" /></g><g id="node-6" transform="translate(176.858,52.976)"><circle r="2.5" /></g><g id="node-7" transform="translate(175.246,50.000)"><circle r="2.5" /></g><g id="node-8" transform="translate(175.444,47.024)"><circle r="2.5" /></g><g id="node-9" transform="translate(175.150,44.048)"><circle r="2.5" /></g><g id="node-10" transform="translate(175.143,41.071)"><circle r="2.5" /></g><g id="node-11" transform="translate(172.746,38.095)"><circle r="2.5" /></g><g id="node-12" transform="translate(179.274,35.119)"><circle r="2.5" /></g><g id="node-13" transform="translate(176.867,32.143)"><circle r="2.5" /></g><g id="node-14" transform="translate(178.721,29.167)"><circle r="2.5" /></g><g id="node-15" transform="translate(182.799,69.345)"><circle r="0.0" /></g><g id="node-16" transform="translate(173.747,42.560)"><circle r="0.0" /></g><g id="node-17" transform="translate(172.423,67.113)"><circle r="0.0" /></g><g id="node-18" transform="translate(176.377,60.417)"><circle r="0.0" /></g><g id="node-19" transform="translate(172.487,40.327)"><circle r="0.0" /></g><g id="node-20" transform="translate(171.658,63.765)"><circle r="0.0" /></g><g id="node-21" transform="translate(174.977,51.488)"><circle r="0.0" /></g><g id="node-22" transform="translate(171.698,37.723)"><circle r="0.0" /></g><g id="node-23" transform="translate(169.627,59.859)"><circle r="0.0" /></g><g id="node-24" transform="translate(169.552,49.256)"><circle r="0.0" /></g><g id="node-25" transform="translate(170.046,34.933)"><circle r="0.0" /></g><g id="node-26" transform="translate(167.158,54.557)"><circle r="0.0" /></g><g id="node-27" transform="translate(167.270,32.050)"><circle r="0.0" /></g><g id="node-28" transform="translate(165.000,43.304)"><circle r="0.0" /></g></g></g></g></g><g class="toyplot-coordinates-Cartesian" id="t5f56add91f1344caada0039e99fe81aa"><clipPath id="t7fe29d391d51424e9f29e26bb6bc5c92"><rect x="295.0" y="15.0" width="110.0" height="70.0" /></clipPath><g clip-path="url(#t7fe29d391d51424e9f29e26bb6bc5c92)"><g class="toytree-mark-Toytree" id="t82524614a6a348779dbe53fea6e2b949"><g class="toytree-Edges" style="fill:none;stroke:rgb(14.9%,14.9%,14.9%);stroke-linecap:round;stroke-opacity:1;stroke-width:0.5"><path d="M 305.0 34.9 L 305.0 40.5 L 338.4 40.5" id="28,27" /><path d="M 338.4 40.5 L 338.4 48.9 L 347.8 48.9" id="27,26" /><path d="M 347.8 48.9 L 347.8 38.0 L 354.7 38.0" id="26,25" /><path d="M 347.8 48.9 L 347.8 59.9 L 353.4 59.9" id="26,24" /><path d="M 354.7 38.0 L 354.7 40.9 L 356.1 40.9" id="25,23" /><path d="M 353.4 59.9 L 353.4 55.2 L 364.7 55.2" id="24,22" /><path d="M 353.4 59.9 L 353.4 64.5 L 356.7 64.5" id="24,21" /><path d="M 356.1 40.9 L 356.1 43.7 L 368.8 43.7" id="23,20" /><path d="M 364.7 55.2 L 364.7 57.4 L 381.9 57.4" id="22,19" /><path d="M 356.7 64.5 L 356.7 67.1 L 358.7 67.1" id="21,18" /><path d="M 368.8 43.7 L 368.8 46.3 L 373.9 46.3" id="20,17" /><path d="M 358.7 67.1 L 358.7 69.3 L 367.7 69.3" id="18,16" /><path d="M 373.9 46.3 L 373.9 48.5 L 378.6 48.5" id="17,15" /><path d="M 305.0 34.9 L 305.0 29.2 L 378.9 29.2" id="28,14" /><path d="M 338.4 40.5 L 338.4 32.1 L 362.9 32.1" id="27,13" /><path d="M 354.7 38.0 L 354.7 35.1 L 379.0 35.1" id="25,12" /><path d="M 356.1 40.9 L 356.1 38.1 L 384.6 38.1" id="23,11" /><path d="M 368.8 43.7 L 368.8 41.1 L 390.3 41.1" id="20,10" /><path d="M 373.9 46.3 L 373.9 44.0 L 381.2 44.0" id="17,9" /><path d="M 378.6 48.5 L 378.6 47.0 L 383.3 47.0" id="15,8" /><path d="M 378.6 48.5 L 378.6 50.0 L 383.5 50.0" id="15,7" /><path d="M 364.7 55.2 L 364.7 53.0 L 386.0 53.0" id="22,6" /><path d="M 381.9 57.4 L 381.9 56.0 L 385.9 56.0" id="19,5" /><path d="M 381.9 57.4 L 381.9 58.9 L 389.4 58.9" id="19,4" /><path d="M 356.7 64.5 L 356.7 61.9 L 369.3 61.9" id="21,3" /><path d="M 358.7 67.1 L 358.7 64.9 L 368.5 64.9" id="18,2" /><path d="M 367.7 69.3 L 367.7 67.9 L 372.3 67.9" id="16,1" /><path d="M 367.7 69.3 L 367.7 70.8 L 381.3 70.8" id="16,0" /></g><g class="toytree-Nodes" style="fill:rgb(100%,0%,0%);fill-opacity:1.0;stroke:None;stroke-width:1"><g id="node-0" transform="translate(381.309,70.833)"><circle r="2.5" /></g><g id="node-1" transform="translate(372.259,67.857)"><circle r="2.5" /></g><g id="node-2" transform="translate(368.478,64.881)"><circle r="2.5" /></g><g id="node-3" transform="translate(369.348,61.905)"><circle r="2.5" /></g><g id="node-4" transform="translate(389.424,58.929)"><circle r="2.5" /></g><g id="node-5" transform="translate(385.891,55.952)"><circle r="2.5" /></g><g id="node-6" transform="translate(386.044,52.976)"><circle r="2.5" /></g><g id="node-7" transform="translate(383.491,50.000)"><circle r="2.5" /></g><g id="node-8" transform="translate(383.255,47.024)"><circle r="2.5" /></g><g id="node-9" transform="translate(381.204,44.048)"><circle r="2.5" /></g><g id="node-10" transform="translate(390.263,41.071)"><circle r="2.5" /></g><g id="node-11" transform="translate(384.601,38.095)"><circle r="2.5" /></g><g id="node-12" transform="translate(378.979,35.119)"><circle r="2.5" /></g><g id="node-13" transform="translate(362.886,32.143)"><circle r="2.5" /></g><g id="node-14" transform="translate(378.886,29.167)"><circle r="2.5" /></g><g id="node-15" transform="translate(378.629,48.512)"><circle r="0.0" /></g><g id="node-16" transform="translate(367.713,69.345)"><circle r="0.0" /></g><g id="node-17" transform="translate(373.851,46.280)"><circle r="0.0" /></g><g id="node-18" transform="translate(358.728,67.113)"><circle r="0.0" /></g><g id="node-19" transform="translate(381.886,57.440)"><circle r="0.0" /></g><g id="node-20" transform="translate(368.849,43.676)"><circle r="0.0" /></g><g id="node-21" transform="translate(356.682,64.509)"><circle r="0.0" /></g><g id="node-22" transform="translate(364.696,55.208)"><circle r="0.0" /></g><g id="node-23" transform="translate(356.057,40.885)"><circle r="0.0" /></g><g id="node-24" transform="translate(353.412,59.859)"><circle r="0.0" /></g><g id="node-25" transform="translate(354.697,38.002)"><circle r="0.0" /></g><g id="node-26" transform="translate(347.759,48.930)"><circle r="0.0" /></g><g id="node-27" transform="translate(338.403,40.537)"><circle r="0.0" /></g><g id="node-28" transform="translate(305.000,34.852)"><circle r="0.0" /></g></g></g></g></g><g class="toyplot-coordinates-Cartesian" id="tdb5f164dcda64cefb128fbb1d49ef718"><clipPath id="t9849dcff60e24d18a05151e4da7b861c"><rect x="435.0" y="15.0" width="110.0" height="70.0" /></clipPath><g clip-path="url(#t9849dcff60e24d18a05151e4da7b861c)"><g class="toytree-mark-Toytree" id="tf209f80276e44768b115ff576164e9c2"><g class="toytree-Edges" style="fill:none;stroke:rgb(14.9%,14.9%,14.9%);stroke-linecap:round;stroke-opacity:1;stroke-width:0.5"><path d="M 445.0 36.0 L 445.0 42.9 L 475.7 42.9" id="28,27" /><path d="M 475.7 42.9 L 475.7 34.7 L 479.0 34.7" id="27,26" /><path d="M 475.7 42.9 L 475.7 51.1 L 478.2 51.1" id="27,25" /><path d="M 479.0 34.7 L 479.0 37.4 L 486.4 37.4" id="26,24" /><path d="M 478.2 51.1 L 478.2 46.3 L 492.4 46.3" id="25,23" /><path d="M 478.2 51.1 L 478.2 55.9 L 485.0 55.9" id="25,22" /><path d="M 486.4 37.4 L 486.4 39.6 L 498.7 39.6" id="24,21" /><path d="M 492.4 46.3 L 492.4 48.5 L 500.6 48.5" id="23,20" /><path d="M 485.0 55.9 L 485.0 58.8 L 490.5 58.8" id="22,19" /><path d="M 490.5 58.8 L 490.5 61.7 L 497.2 61.7" id="19,18" /><path d="M 497.2 61.7 L 497.2 64.5 L 502.5 64.5" id="18,17" /><path d="M 502.5 64.5 L 502.5 67.1 L 506.3 67.1" id="17,16" /><path d="M 506.3 67.1 L 506.3 69.3 L 508.8 69.3" id="16,15" /><path d="M 445.0 36.0 L 445.0 29.2 L 509.2 29.2" id="28,14" /><path d="M 479.0 34.7 L 479.0 32.1 L 494.2 32.1" id="26,13" /><path d="M 486.4 37.4 L 486.4 35.1 L 493.9 35.1" id="24,12" /><path d="M 498.7 39.6 L 498.7 38.1 L 501.7 38.1" id="21,11" /><path d="M 498.7 39.6 L 498.7 41.1 L 510.7 41.1" id="21,10" /><path d="M 492.4 46.3 L 492.4 44.0 L 503.3 44.0" id="23,9" /><path d="M 500.6 48.5 L 500.6 47.0 L 506.8 47.0" id="20,8" /><path d="M 500.6 48.5 L 500.6 50.0 L 505.5 50.0" id="20,7" /><path d="M 485.0 55.9 L 485.0 53.0 L 511.6 53.0" id="22,6" /><path d="M 490.5 58.8 L 490.5 56.0 L 512.9 56.0" id="19,5" /><path d="M 497.2 61.7 L 497.2 58.9 L 523.8 58.9" id="18,4" /><path d="M 502.5 64.5 L 502.5 61.9 L 523.0 61.9" id="17,3" /><path d="M 506.3 67.1 L 506.3 64.9 L 514.8 64.9" id="16,2" /><path d="M 508.8 69.3 L 508.8 67.9 L 520.6 67.9" id="15,1" /><path d="M 508.8 69.3 L 508.8 70.8 L 530.3 70.8" id="15,0" /></g><g class="toytree-Nodes" style="fill:rgb(100%,0%,0%);fill-opacity:1.0;stroke:None;stroke-width:1"><g id="node-0" transform="translate(530.263,70.833)"><circle r="2.5" /></g><g id="node-1" transform="translate(520.611,67.857)"><circle r="2.5" /></g><g id="node-2" transform="translate(514.834,64.881)"><circle r="2.5" /></g><g id="node-3" transform="translate(523.004,61.905)"><circle r="2.5" /></g><g id="node-4" transform="translate(523.824,58.929)"><circle r="2.5" /></g><g id="node-5" transform="translate(512.941,55.952)"><circle r="2.5" /></g><g id="node-6" transform="translate(511.572,52.976)"><circle r="2.5" /></g><g id="node-7" transform="translate(505.518,50.000)"><circle r="2.5" /></g><g id="node-8" transform="translate(506.797,47.024)"><circle r="2.5" /></g><g id="node-9" transform="translate(503.297,44.048)"><circle r="2.5" /></g><g id="node-10" transform="translate(510.738,41.071)"><circle r="2.5" /></g><g id="node-11" transform="translate(501.664,38.095)"><circle r="2.5" /></g><g id="node-12" transform="translate(493.943,35.119)"><circle r="2.5" /></g><g id="node-13" transform="translate(494.238,32.143)"><circle r="2.5" /></g><g id="node-14" transform="translate(509.236,29.167)"><circle r="2.5" /></g><g id="node-15" transform="translate(508.842,69.345)"><circle r="0.0" /></g><g id="node-16" transform="translate(506.277,67.113)"><circle r="0.0" /></g><g id="node-17" transform="translate(502.519,64.509)"><circle r="0.0" /></g><g id="node-18" transform="translate(497.207,61.719)"><circle r="0.0" /></g><g id="node-19" transform="translate(490.531,58.836)"><circle r="0.0" /></g><g id="node-20" transform="translate(500.634,48.512)"><circle r="0.0" /></g><g id="node-21" transform="translate(498.653,39.583)"><circle r="0.0" /></g><g id="node-22" transform="translate(485.002,55.906)"><circle r="0.0" /></g><g id="node-23" transform="translate(492.359,46.280)"><circle r="0.0" /></g><g id="node-24" transform="translate(486.356,37.351)"><circle r="0.0" /></g><g id="node-25" transform="translate(478.185,51.093)"><circle r="0.0" /></g><g id="node-26" transform="translate(478.990,34.747)"><circle r="0.0" /></g><g id="node-27" transform="translate(475.663,42.920)"><circle r="0.0" /></g><g id="node-28" transform="translate(445.000,36.043)"><circle r="0.0" /></g></g></g></g></g></svg>