<svg class="toyplot-canvas-Canvas" xmlns:toyplot="http://www.sandia.gov/toyplot" xmlns:xlink="http://www.w3.org/1999/xlink" xmlns="http://www.w3.org/2000/svg" width="560.0px" height="100.0px" viewBox="0 0 560.0 100.0" preserveAspectRatio="xMidYMid meet" style="background-color:transparent;border-color:#292724;border-style:none;border-width:1.0;fill:rgb(16.1%,15.3%,14.1%);fill-opacity:1.0;font-family:Helvetica;font-size:12px;opacity:1.0;stroke:rgb(16.1%,15.3%,14.1%);stroke-opacity:1.0;stroke-width:1.0" id="t19a2dc3208e64283bf4d8cfad85fc78a"><g class="toyplot-coordinates-Cartesian" id="td08cfb47990749858be4c3515dbf0695"><clipPath id="tb41ac253aa2f43c89fd89b1902f062ec"><rect x="15.0" y="15.0" width="110.0" height="70.0" /></clipPath><g clip-path="url(#tb41ac253aa2f43c89fd89b1902f062ec)"><g class="toytree-mark-Toytree" id="t8ebbfd6a55724cc78776355b15b6599a"><g class="toytree-Edges" style="fill:none;stroke:rgb(14.9%,14.9%,14.9%);stroke-linecap:round;stroke-opacity:1;stroke-width:0.5"><path d="M 25.0 34.7 L 25.0 40.3 L 29.3 40.3" id="20,19" /><path d="M 29.3 40.3 L 29.3 47.3 L 33.5 47.3" id="19,18" /><path d="M 33.5 47.3 L 33.5 40.6 L 45.3 40.6" id="18,17" /><path d="M 33.5 47.3 L 33.5 54.0 L 65.3 54.0" id="18,16" /><path d="M 45.3 40.6 L 45.3 43.8 L 56.5 43.8" id="17,15" /><path d="M 65.3 54.0 L 65.3 58.1 L 79.2 58.1" id="16,14" /><path d="M 79.2 58.1 L 79.2 62.0 L 84.9 62.0" id="14,13" /><path d="M 84.9 62.0 L 84.9 65.6 L 89.4 65.6" id="13,12" /><path d="M 89.4 65.6 L 89.4 68.8 L 89.8 68.8" id="12,11" /><path d="M 25.0 34.7 L 25.0 29.2 L 91.2 29.2" id="20,10" /><path d="M 29.3 40.3 L 29.3 33.3 L 83.4 33.3" id="19,9" /><path d="M 45.3 40.6 L 45.3 37.5 L 110.3 37.5" id="17,8" /><path d="M 56.5 43.8 L 56.5 41.7 L 93.3 41.7" id="15,7" /><path d="M 56.5 43.8 L 56.5 45.8 L 82.5 45.8" id="15,6" /><path d="M 65.3 54.0 L 65.3 50.0 L 92.3 50.0" id="16,5" /><path d="M 79.2 58.1 L 79.2 54.2 L 91.9 54.2" id="14,4" /><path d="M 84.9 62.0 L 84.9 58.3 L 93.0 58.3" id="13,3" /><path d="M 89.4 65.6 L 89.4 62.5 L 91.2 62.5" id="12,2" /><path d="M 89.8 68.8 L 89.8 66.7 L 90.6 66.7" id="11,1" /><path d="M 89.8 68.8 L 89.8 70.8 L 90.8 70.8" id="11,0" /></g><g class="toytree-Nodes" style="fill:rgb(100%,0%,0%);fill-opacity:1.0;stroke:None;stroke-width:1"><g id="node-0" transform="translate(90.791,70.833)"><circle r="2.5" /></g><g id="node-1" transform="translate(90.640,66.667)"><circle r="2.5" /></g><g id="node-2" transform="translate(91.231,62.500)"><circle r="2.5" /></g><g id="node-3" transform="translate(93.015,58.333)"><circle r="2.5" /></g><g id="node-4" transform="translate(91.870,54.167)"><circle r="2.5" /></g><g id="node-5" transform="translate(92.280,50.000)"><circle r="2.5" /></g><g id="node-6" transform="translate(82.487,45.833)"><circle r="2.5" /></g><g id="node-7" transform="translate(93.260,41.667)"><circle r="2.5" /></g><g id="node-8" transform="translate(110.263,37.500)"><circle r="2.5" /></g><g id="node-9" transform="translate(83.377,33.333)"><circle r="2.5" /></g><g id="node-10" transform="translate(91.230,29.167)"><circle r="2.5" /></g><g id="node-11" transform="translate(89.773,68.750)"><circle r="0.0" /></g><g id="node-12" transform="translate(89.350,65.625)"><circle r="0.0" /></g><g id="node-13" transform="translate(84.935,61.979)"><circle r="0.0" /></g><g id="node-14" transform="translate(79.158,58.073)"><circle r="0.0" /></g><g id="node-15" transform="translate(56.460,43.750)"><circle r="0.0" /></g><g id="node-16" transform="translate(65.298,54.036)"><circle r="0.0" /></g><g id="node-17" transform="translate(45.325,40.625)"><circle r="0.0" /></g><g id="node-18" transform="translate(33.503,47.331)"><circle r="0.0" /></g><g id="node-19" transform="translate(29.344,40.332)"><circle r="0.0" /></g><g id="node-20" transform="translate(25.000,34.749)"><circle r="0.0" /></g></g></g></g></g><g class="toyplot-coordinates-Cartesian" id="ta69d2f208e7c48f8ad4104455cb95ff7"><clipPath id="t694ee70bf48f476c91d0a0af3fe0db7d"><rect x="155.0" y="15.0" width="110.0" height="70.0" /></clipPath><g clip-path="url(#t694ee70bf48f476c91d0a0af3fe0db7d)"><g class="toytree-mark-Toytree" id="tc60031d950194eca8765b9d35c8370b1"><g class="toytree-Edges" style="fill:none;stroke:rgb(14.9%,14.9%,14.9%);stroke-linecap:round;stroke-opacity:1;stroke-width:0.5"><path d="M 165.0 39.3 L 165.0 31.2 L 186.2 31.2" id="20,19" /><path d="M 165.0 39.3 L 165.0 47.3 L 170.2 47.3" id="20,18" /><path d="M 170.2 47.3 L 170.2 40.6 L 174.4 40.6" id="18,17" /><path d="M 170.2 47.3 L 170.2 54.0 L 173.9 54.0" id="18,16" /><path d="M 174.4 40.6 L 174.4 43.8 L 190.0 43.8" id="17,15" /><path d="M 173.9 54.0 L 173.9 58.1 L 179.7 58.1" id="16,14" /><path d="M 179.7 58.1 L 179.7 62.0 L 190.7 62.0" id="14,13" /><path d="M 190.7 62.0 L 190.7 65.6 L 196.4 65.6" id="13,12" /><path d="M 196.4 65.6 L 196.4 68.8 L 201.9 68.8" id="12,11" /><path d="M 186.2 31.2 L 186.2 29.2 L 211.3 29.2" id="19,10" /><path d="M 186.2 31.2 L 186.2 33.3 L 208.9 33.3" id="19,9" /><path d="M 174.4 40.6 L 174.4 37.5 L 216.2 37.5" id="17,8" /><path d="M 190.0 43.8 L 190.0 41.7 L 214.8 41.7" id="15,7" /><path d="M 190.0 43.8 L 190.0 45.8 L 218.7 45.8" id="15,6" /><path d="M 173.9 54.0 L 173.9 50.0 L 224.3 50.0" id="16,5" /><path d="M 179.7 58.1 L 179.7 54.2 L 181.5 54.2" id="14,4" /><path d="M 190.7 62.0 L 190.7 58.3 L 232.5 58.3" id="13,3" /><path d="M 196.4 65.6 L 196.4 62.5 L 250.3 62.5" id="12,2" /><path d="M 201.9 68.8 L 201.9 66.7 L 222.8 66.7" id="11,1" /><path d="M 201.9 68.8 L 201.9 70.8 L 201.9 70.8" id="11,0" /></g><g class="toytree-Nodes" style="fill:rgb(100%,0%,0%);fill-opacity:1.0;stroke:None;stroke-width:1"><g id="node-0" transform="translate(201.931,70.833)"><circle r="2.5" /></g><g id="node-1" transform="translate(222.809,66.667)"><circle r="2.5" /></g><g id="node-2" transform="translate(250.263,62.500)"><circle r="2.5" /></g><g id="node-3" transform="translate(232.478,58.333)"><circle r="2.5" /></g><g id="node-4" transform="translate(181.507,54.167)"><circle r="2.5" /></g><g id="node-5" transform="translate(224.308,50.000)"><circle r="2.5" /></g><g id="node-6" transform="translate(218.723,45.833)"><circle r="2.5" /></g><g id="node-7" transform="translate(214.802,41.667)"><circle r="2.5" /></g><g id="node-8" transform="translate(216.154,37.500)"><circle r="2.5" /></g><g id="node-9" transform="translate(208.872,33.333)"><circle r="2.5" /></g><g id="node-10" transform="translate(211.271,29.167)"><circle r="2.5" /></g><g id="node-11" transform="translate(201.931,68.750)"><circle r="0.0" /></g><g id="node-12" transform="translate(196.355,65.625)"><circle r="0.0" /></g><g id="node-13" transform="translate(190.658,61.979)"><circle r="0.0" /></g><g id="node-14" transform="translate(179.674,58.073)"><circle r="0.0" /></g><g id="node-15" transform="translate(189.980,43.750)"><circle r="0.0" /></g><g id="node-16" transform="translate(173.945,54.036)"><circle r="0.0" /></g><g id="node-17" transform="translate(174.423,40.625)"><circle r="0.0" /></g><g id="node-18" transform="translate(170.206,47.331)"><circle r="0.0" /></g><g id="node-19" transform="translate(186.169,31.250)"><circle r="0.0" /></g><g id="node-20" transform="translate(165.000,39.290)"><circle r="0.0" /></g></g></g></g></g><g class="toyplot-coordinates-Cartesian" id="te6bcf28fe8d24c6ea24ad641cfaa1cea"><clipPath id="t8f863254782348ac8698f68a0fc23fa9"><rect x="295.0" y="15.0" width="110.0" height="70.0" /></clipPath><g clip-path="url(#t8f863254782348ac8698f68a0fc23fa9)"><g class="toytree-mark-Toytree" id="t95cb351c2ea54dfcbff6a6c921425725"><g class="toytree-Edges" style="fill:none;stroke:rgb(14.9%,14.9%,14.9%);stroke-linecap:round;stroke-opacity:1;stroke-width:0.5"><path d="M 305.0 45.7 L 305.0 34.4 L 307.8 34.4" id="20,19" /><path d="M 305.0 45.7 L 305.0 57.0 L 320.0 57.0" id="20,18" /><path d="M 307.8 34.4 L 307.8 39.6 L 311.3 39.6" id="19,17" /><path d="M 320.0 57.0 L 320.0 52.1 L 341.2 52.1" id="18,16" /><path d="M 320.0 57.0 L 320.0 62.0 L 330.5 62.0" id="18,15" /><path d="M 311.3 39.6 L 311.3 35.4 L 328.7 35.4" id="17,14" /><path d="M 311.3 39.6 L 311.3 43.8 L 315.3 43.8" id="17,13" /><path d="M 330.5 62.0 L 330.5 65.6 L 333.1 65.6" id="15,12" /><path d="M 333.1 65.6 L 333.1 68.8 L 335.0 68.8" id="12,11" /><path d="M 307.8 34.4 L 307.8 29.2 L 357.5 29.2" id="19,10" /><path d="M 328.7 35.4 L 328.7 33.3 L 369.0 33.3" id="14,9" /><path d="M 328.7 35.4 L 328.7 37.5 L 345.9 37.5" id="14,8" /><path d="M 315.3 43.8 L 315.3 41.7 L 336.3 41.7" id="13,7" /><path d="M 315.3 43.8 L 315.3 45.8 L 390.3 45.8" id="13,6" /><path d="M 341.2 52.1 L 341.2 50.0 L 365.8 50.0" id="16,5" /><path d="M 341.2 52.1 L 341.2 54.2 L 370.6 54.2" id="16,4" /><path d="M 330.5 62.0 L 330.5 58.3 L 348.0 58.3" id="15,3" /><path d="M 333.1 65.6 L 333.1 62.5 L 341.4 62.5" id="12,2" /><path d="M 335.0 68.8 L 335.0 66.7 L 352.5 66.7" id="11,1" /><path d="M 335.0 68.8 L 335.0 70.8 L 354.5 70.8" id="11,0" /></g><g class="toytree-Nodes" style="fill:rgb(100%,0%,0%);fill-opacity:1.0;stroke:None;stroke-width:1"><g id="node-0" transform="translate(354.508,70.833)"><circle r="2.5" /></g><g id="node-1" transform="translate(352.510,66.667)"><circle r="2.5" /></g><g id="node-2" transform="translate(341.424,62.500)"><circle r="2.5" /></g><g id="node-3" transform="translate(348.039,58.333)"><circle r="2.5" /></g><g id="node-4" transform="translate(370.642,54.167)"><circle r="2.5" /></g><g id="node-5" transform="translate(365.790,50.000)"><circle r="2.5" /></g><g id="node-6" transform="translate(390.263,45.833)"><circle r="2.5" /></g><g id="node-7" transform="translate(336.309,41.667)"><circle r="2.5" /></g><g id="node-8" transform="translate(345.870,37.500)"><circle r="2.5" /></g><g id="node-9" transform="translate(368.958,33.333)"><circle r="2.5" /></g><g id="node-10" transform="translate(357.465,29.167)"><circle r="2.5" /></g><g id="node-11" transform="translate(335.016,68.750)"><circle r="0.0" /></g><g id="node-12" transform="translate(333.095,65.625)"><circle r="0.0" /></g><g id="node-13" transform="translate(315.303,43.750)"><circle r="0.0" /></g><g id="node-14" transform="translate(328.696,35.417)"><circle r="0.0" /></g><g id="node-15" transform="translate(330.509,61.979)"><circle r="0.0" /></g><g id="node-16" transform="translate(341.172,52.083)"><circle r="0.0" /></g><g id="node-17" transform="translate(311.264,39.583)"><circle r="0.0" /></g><g id="node-18" transform="translate(320.021,57.031)"><circle r="0.0" /></g><g id="node-19" transform="translate(307.807,34.375)"><circle r="0.0" /></g><g id="node-20" transform="translate(305.000,45.703)"><circle r="0.0" /></g></g></g></g></g><g class="toyplot-coordinates-Cartesian" id="teedb801c7b154860902313c94483a082"><clipPath id="ta8030d4d9a744388beb56c23c7107837"><rect x="435.0" y="15.0" width="110.0" height="70.0" /></clipPath><g clip-path="url(#ta8030d4d9a744388beb56c23c7107837)"><g class="toytree-mark-Toytree" id="tc2e57e78d9684de0b77622243a40f4de"><g class="toytree-Edges" style="fill:none;stroke:rgb(14.9%,14.9%,14.9%);stroke-linecap:round;stroke-opacity:1;stroke-width:0.5"><path d="M 445.0 41.4 L 445.0 32.8 L 455.9 32.8" id="20,19" /><path d="M 445.0 41.4 L 445.0 49.9 L 451.3 49.9" id="20,18" /><path d="M 455.9 32.8 L 455.9 36.5 L 469.8 36.5" id="19,17" /><path d="M 451.3 49.9 L 451.3 54.0 L 486.1 54.0" id="18,16" /><path d="M 469.8 36.5 L 469.8 39.6 L 475.7 39.6" id="17,15" /><path d="M 486.1 54.0 L 486.1 58.1 L 495.9 58.1" id="16,14" /><path d="M 495.9 58.1 L 495.9 62.0 L 499.3 62.0" id="14,13" /><path d="M 499.3 62.0 L 499.3 65.6 L 500.9 65.6" id="13,12" /><path d="M 500.9 65.6 L 500.9 68.8 L 501.1 68.8" id="12,11" /><path d="M 455.9 32.8 L 455.9 29.2 L 527.7 29.2" id="19,10" /><path d="M 469.8 36.5 L 469.8 33.3 L 481.8 33.3" id="17,9" /><path d="M 475.7 39.6 L 475.7 37.5 L 494.4 37.5" id="15,8" /><path d="M 475.7 39.6 L 475.7 41.7 L 530.3 41.7" id="15,7" /><path d="M 451.3 49.9 L 451.3 45.8 L 498.6 45.8" id="18,6" /><path d="M 486.1 54.0 L 486.1 50.0 L 501.7 50.0" id="16,5" /><path d="M 495.9 58.1 L 495.9 54.2 L 500.7 54.2" id="14,4" /><path d="M 499.3 62.0 L 499.3 58.3 L 503.3 58.3" id="13,3" /><path d="M 500.9 65.6 L 500.9 62.5 L 500.9 62.5" id="12,2" /><path d="M 501.1 68.8 L 501.1 66.7 L 501.6 66.7" id="11,1" /><path d="M 501.1 68.8 L 501.1 70.8 L 501.3 70.8" id="11,0" /></g><g class="toytree-Nodes" style="fill:rgb(100%,0%,0%);fill-opacity:1.0;stroke:None;stroke-width:1"><g id="node-0" transform="translate(501.336,70.833)"><circle r="2.5" /></g><g id="node-1" transform="translate(501.585,66.667)"><circle r="2.5" /></g><g id="node-2" transform="translate(500.862,62.500)"><circle r="2.5" /></g><g id="node-3" transform="translate(503.251,58.333)"><circle r="2.5" /></g><g id="node-4" transform="translate(500.664,54.167)"><circle r="2.5" /></g><g id="node-5" transform="translate(501.660,50.000)"><circle r="2.5" /></g><g id="node-6" transform="translate(498.634,45.833)"><circle r="2.5" /></g><g id="node-7" transform="translate(530.263,41.667)"><circle r="2.5" /></g><g id="node-8" transform="translate(494.411,37.500)"><circle r="2.5" /></g><g id="node-9" transform="translate(481.805,33.333)"><circle r="2.5" /></g><g id="node-10" transform="translate(527.696,29.167)"><circle r="2.5" /></g><g id="node-11" transform="translate(501.100,68.750)"><circle r="0.0" /></g><g id="node-12" transform="translate(500.862,65.625)"><circle r="0.0" /></g><g id="node-13" transform="translate(499.349,61.979)"><circle r="0.0" /></g><g id="node-14" transform="translate(495.890,58.073)"><circle r="0.0" /></g><g id="node-15" transform="translate(475.730,39.583)"><circle r="0.0" /></g><g id="node-16" transform="translate(486.095,54.036)"><circle r="0.0" /></g><g id="node-17" transform="translate(469.847,36.458)"><circle r="0.0" /></g><g id="node-18" transform="translate(451.289,49.935)"><circle r="0.0" /></g><g id="node-19" transform="translate(455.948,32.812)"><circle r="0.0" /></g><g id="node-20" transform="translate(445.000,41.374)"><circle r="0.0" /></g></g></g></g></g></svg>