<svg class="toyplot-canvas-Canvas" xmlns:toyplot="http://www.sandia.gov/toyplot" xmlns:xlink="http://www.w3.org/1999/xlink" xmlns="http://www.w3.org/2000/svg" width="560.0px" height="100.0px" viewBox="0 0 560.0 100.0" preserveAspectRatio="xMidYMid meet" style="background-color:transparent;border-color:#292724;border-style:none;border-width:1.0;fill:rgb(16.1%,15.3%,14.1%);fill-opacity:1.0;font-family:Helvetica;font-size:12px;opacity:1.0;stroke:rgb(16.1%,15.3%,14.1%);stroke-opacity:1.0;stroke-width:1.0" id="t9d593c6fecab4d31becfc5c223b3f33a"><g class="toyplot-coordinates-Cartesian" id="t9f70325a8c3b43ee8db62217b6c7ccda"><clipPath id="tafa7cc975ffa4dd89216af0559f876f6"><rect x="15.0" y="15.0" width="110.0" height="70.0" /></clipPath><g clip-path="url(#tafa7cc975ffa4dd89216af0559f876f6)"><g class="toytree-mark-Toytree" id="t30ec1142d90f4818ae4ed333ffb7cc3d"><g class="toytree-Edges" style="fill:none;stroke:rgb(14.9%,14.9%,14.9%);stroke-linecap:round;stroke-opacity:1;stroke-width:0.5"><path d="M 25.0 44.8 L 25.0 60.4 L 98.2 60.4" id="4,3" /><path d="M 25.0 44.8 L 25.0 29.2 L 110.0 29.2" id="4,2" /><path d="M 98.2 60.4 L 98.2 50.0 L 110.3 50.0" id="3,1" /><path d="M 98.2 60.4 L 98.2 70.8 L 110.3 70.8" id="3,0" /></g><g class="toytree-Nodes" style="fill:rgb(100%,0%,0%);fill-opacity:1.0;stroke:None;stroke-width:1"><g id="node-0" transform="translate(110.263,70.833)"><circle r="2.5" /></g><g id="node-1" transform="translate(110.263,50.000)"><circle r="2.5" /></g><g id="node-2" transform="translate(109.961,29.167)"><circle r="2.5" /></g><g id="node-3" transform="translate(98.169,60.417)"><circle r="0.0" /></g><g id="node-4" transform="translate(25.000,44.792)"><circle r="0.0" /></g></g></g></g></g><g class="toyplot-coordinates-Cartesian" id="tfc4dba1a113346ea9371a81a0a65c4a9"><clipPath id="ta4ce1be905f940e2947359451edc0cdd"><rect x="155.0" y="15.0" width="110.0" height="70.0" /></clipPath><g clip-path="url(#ta4ce1be905f940e2947359451edc0cdd)"><g class="toytree-mark-Toytree" id="tff4915d140d644dba1e5977e6025b430"><g class="toytree-Edges" style="fill:none;stroke:rgb(14.9%,14.9%,14.9%);stroke-linecap:round;stroke-opacity:1;stroke-width:0.5"><path d="M 165.0 44.8 L 165.0 60.4 L 209.5 60.4" id="4,3" /><path d="M 165.0 44.8 L 165.0 29.2 L 248.2 29.2" id="4,2" /><path d="M 209.5 60.4 L 209.5 50.0 L 250.3 50.0" id="3,1" /><path d="M 209.5 60.4 L 209.5 70.8 L 246.2 70.8" id="3,0" /></g><g class="toytree-Nodes" style="fill:rgb(100%,0%,0%);fill-opacity:1.0;stroke:None;stroke-width:1"><g id="node-0" transform="translate(246.196,70.833)"><circle r="2.5" /></g><g id="node-1" transform="translate(250.263,50.000)"><circle r="2.5" /></g><g id="node-2" transform="translate(248.199,29.167)"><circle r="2.5" /></g><g id="node-3" transform="translate(209.465,60.417)"><circle r="0.0" /></g><g id="node-4" transform="translate(165.000,44.792)"><circle r="0.0" /></g></g></g></g></g><g class="toyplot-coordinates-Cartesian" id="tfb0d00fe0f284ca084fe56e2ea108626"><clipPath id="t14b6466627094bec8050c4f1628e8b7c"><rect x="295.0" y="15.0" width="110.0" height="70.0" /></clipPath><g clip-path="url(#t14b6466627094bec8050c4f1628e8b7c)"><g class="toytree-mark-Toytree" id="tc3498cecaa2b44e285046c83e41efe50"><g class="toytree-Edges" style="fill:none;stroke:rgb(14.9%,14.9%,14.9%);stroke-linecap:round;stroke-opacity:1;stroke-width:0.5"><path d="M 305.0 44.8 L 305.0 60.4 L 365.9 60.4" id="4,3" /><path d="M 305.0 44.8 L 305.0 29.2 L 385.2 29.2" id="4,2" /><path d="M 365.9 60.4 L 365.9 50.0 L 390.3 50.0" id="3,1" /><path d="M 365.9 60.4 L 365.9 70.8 L 380.7 70.8" id="3,0" /></g><g class="toytree-Nodes" style="fill:rgb(100%,0%,0%);fill-opacity:1.0;stroke:None;stroke-width:1"><g id="node-0" transform="translate(380.736,70.833)"><circle r="2.5" /></g><g id="node-1" transform="translate(390.263,50.000)"><circle r="2.5" /></g><g id="node-2" transform="translate(385.218,29.167)"><circle r="2.5" /></g><g id="node-3" transform="translate(365.934,60.417)"><circle r="0.0" /></g><g id="node-4" transform="translate(305.000,44.792)"><circle r="0.0" /></g></g></g></g></g><g class="toyplot-coordinates-Cartesian" id="t686f0a508acc47e7a4131215a4d846d9"><clipPath id="tb5d098cd724343558553ea3dd5c4d7e0"><rect x="435.0" y="15.0" width="110.0" height="70.0" /></clipPath><g clip-path="url(#tb5d098cd724343558553ea3dd5c4d7e0)"><g class="toytree-mark-Toytree" id="t9fadf9b8998a4367aa0417dad9803685"><g class="toytree-Edges" style="fill:none;stroke:rgb(14.9%,14.9%,14.9%);stroke-linecap:round;stroke-opacity:1;stroke-width:0.5"><path d="M 445.0 44.8 L 445.0 60.4 L 521.9 60.4" id="4,3" /><path d="M 445.0 44.8 L 445.0 29.2 L 528.4 29.2" id="4,2" /><path d="M 521.9 60.4 L 521.9 50.0 L 526.6 50.0" id="3,1" /><path d="M 521.9 60.4 L 521.9 70.8 L 530.3 70.8" id="3,0" /></g><g class="toytree-Nodes" style="fill:rgb(100%,0%,0%);fill-opacity:1.0;stroke:None;stroke-width:1"><g id="node-0" transform="translate(530.263,70.833)"><circle r="2.5" /></g><g id="node-1" transform="translate(526.633,50.000)"><circle r="2.5" /></g><g id="node-2" transform="translate(528.409,29.167)"><circle r="2.5" /></g><g id="node-3" transform="translate(521.924,60.417)"><circle r="0.0" /></g><g id="node-4" transform="translate(445.000,44.792)"><circle r="0.0" /></g></g></g></g></g></svg>