<svg class="toyplot-canvas-Canvas" xmlns:toyplot="http://www.sandia.gov/toyplot" xmlns:xlink="http://www.w3.org/1999/xlink" xmlns="http://www.w3.org/2000/svg" width="560.0px" height="100.0px" viewBox="0 0 560.0 100.0" preserveAspectRatio="xMidYMid meet" style="background-color:transparent;border-color:#292724;border-style:none;border-width:1.0;fill:rgb(16.1%,15.3%,14.1%);fill-opacity:1.0;font-family:Helvetica;font-size:12px;opacity:1.0;stroke:rgb(16.1%,15.3%,14.1%);stroke-opacity:1.0;stroke-width:1.0" id="t69615a5b8bcc4db1adaa544bcffc2925"><g class="toyplot-coordinates-Cartesian" id="t2259b37b9c384541adbaaf6dfb1baf65"><clipPath id="t0ea40f0991264b4bb5c4573ca84abc8f"><rect x="15.0" y="15.0" width="110.0" height="70.0" /></clipPath><g clip-path="url(#t0ea40f0991264b4bb5c4573ca84abc8f)"><g class="toytree-mark-Toytree" id="t3b4cb5b902604a99815366a583be1849"><g class="toytree-Edges" style="fill:none;stroke:rgb(14.9%,14.9%,14.9%);stroke-linecap:round;stroke-opacity:1;stroke-width:0.5"><path d="M 25.0 38.7 L 25.0 30.5 L 27.3 30.5" id="32,31" /><path d="M 25.0 38.7 L 25.0 47.0 L 26.7 47.0" id="32,30" /><path d="M 26.7 47.0 L 26.7 37.8 L 28.9 37.8" id="30,29" /><path d="M 26.7 47.0 L 26.7 56.1 L 29.8 56.1" id="30,28" /><path d="M 28.9 37.8 L 28.9 41.2 L 32.6 41.2" id="29,27" /><path d="M 29.8 56.1 L 29.8 52.0 L 45.8 52.0" id="28,26" /><path d="M 29.8 56.1 L 29.8 60.3 L 49.4 60.3" id="28,25" /><path d="M 32.6 41.2 L 32.6 38.3 L 49.7 38.3" id="27,24" /><path d="M 32.6 41.2 L 32.6 44.1 L 35.0 44.1" id="27,23" /><path d="M 45.8 52.0 L 45.8 53.9 L 51.9 53.9" id="26,22" /><path d="M 49.4 60.3 L 49.4 62.9 L 53.4 62.9" id="25,21" /><path d="M 35.0 44.1 L 35.0 46.1 L 38.4 46.1" id="23,20" /><path d="M 53.4 62.9 L 53.4 65.3 L 56.2 65.3" id="21,19" /><path d="M 56.2 65.3 L 56.2 67.6 L 56.3 67.6" id="19,18" /><path d="M 56.3 67.6 L 56.3 69.5 L 79.6 69.5" id="18,17" /><path d="M 27.3 30.5 L 27.3 29.2 L 103.2 29.2" id="31,16" /><path d="M 27.3 30.5 L 27.3 31.8 L 104.0 31.8" id="31,15" /><path d="M 28.9 37.8 L 28.9 34.4 L 99.1 34.4" id="29,14" /><path d="M 49.7 38.3 L 49.7 37.0 L 106.6 37.0" id="24,13" /><path d="M 49.7 38.3 L 49.7 39.6 L 99.4 39.6" id="24,12" /><path d="M 35.0 44.1 L 35.0 42.2 L 110.3 42.2" id="23,11" /><path d="M 38.4 46.1 L 38.4 44.8 L 99.0 44.8" id="20,10" /><path d="M 38.4 46.1 L 38.4 47.4 L 97.8 47.4" id="20,9" /><path d="M 45.8 52.0 L 45.8 50.0 L 105.5 50.0" id="26,8" /><path d="M 51.9 53.9 L 51.9 52.6 L 107.8 52.6" id="22,7" /><path d="M 51.9 53.9 L 51.9 55.2 L 103.5 55.2" id="22,6" /><path d="M 49.4 60.3 L 49.4 57.8 L 106.6 57.8" id="25,5" /><path d="M 53.4 62.9 L 53.4 60.4 L 103.7 60.4" id="21,4" /><path d="M 56.2 65.3 L 56.2 63.0 L 106.6 63.0" id="19,3" /><path d="M 56.3 67.6 L 56.3 65.6 L 103.2 65.6" id="18,2" /><path d="M 79.6 69.5 L 79.6 68.2 L 104.1 68.2" id="17,1" /><path d="M 79.6 69.5 L 79.6 70.8 L 103.2 70.8" id="17,0" /></g><g class="toytree-Nodes" style="fill:rgb(100%,0%,0%);fill-opacity:1.0;stroke:None;stroke-width:1"><g id="node-0" transform="translate(103.224,70.833)"><circle r="2.5" /></g><g id="node-1" transform="translate(104.081,68.229)"><circle r="2.5" /></g><g id="node-2" transform="translate(103.156,65.625)"><circle r="2.5" /></g><g id="node-3" transform="translate(106.560,63.021)"><circle r="2.5" /></g><g id="node-4" transform="translate(103.727,60.417)"><circle r="2.5" /></g><g id="node-5" transform="translate(106.564,57.812)"><circle r="2.5" /></g><g id="node-6" transform="translate(103.542,55.208)"><circle r="2.5" /></g><g id="node-7" transform="translate(107.778,52.604)"><circle r="2.5" /></g><g id="node-8" transform="translate(105.459,50.000)"><circle r="2.5" /></g><g id="node-9" transform="translate(97.777,47.396)"><circle r="2.5" /></g><g id="node-10" transform="translate(98.967,44.792)"><circle r="2.5" /></g><g id="node-11" transform="translate(110.263,42.188)"><circle r="2.5" /></g><g id="node-12" transform="translate(99.387,39.583)"><circle r="2.5" /></g><g id="node-13" transform="translate(106.583,36.979)"><circle r="2.5" /></g><g id="node-14" transform="translate(99.063,34.375)"><circle r="2.5" /></g><g id="node-15" transform="translate(104.003,31.771)"><circle r="2.5" /></g><g id="node-16" transform="translate(103.169,29.167)"><circle r="2.5" /></g><g id="node-17" transform="translate(79.641,69.531)"><circle r="0.0" /></g><g id="node-18" transform="translate(56.260,67.578)"><circle r="0.0" /></g><g id="node-19" transform="translate(56.169,65.299)"><circle r="0.0" /></g><g id="node-20" transform="translate(38.403,46.094)"><circle r="0.0" /></g><g id="node-21" transform="translate(53.360,62.858)"><circle r="0.0" /></g><g id="node-22" transform="translate(51.899,53.906)"><circle r="0.0" /></g><g id="node-23" transform="translate(35.037,44.141)"><circle r="0.0" /></g><g id="node-24" transform="translate(49.692,38.281)"><circle r="0.0" /></g><g id="node-25" transform="translate(49.392,60.335)"><circle r="0.0" /></g><g id="node-26" transform="translate(45.766,51.953)"><circle r="0.0" /></g><g id="node-27" transform="translate(32.584,41.211)"><circle r="0.0" /></g><g id="node-28" transform="translate(29.815,56.144)"><circle r="0.0" /></g><g id="node-29" transform="translate(28.900,37.793)"><circle r="0.0" /></g><g id="node-30" transform="translate(26.679,46.969)"><circle r="0.0" /></g><g id="node-31" transform="translate(27.278,30.469)"><circle r="0.0" /></g><g id="node-32" transform="translate(25.000,38.719)"><circle r="0.0" /></g></g></g></g></g><g class="toyplot-coordinates-Cartesian" id="t6b4a2d7531d74fd1b37ded7cb20fb77e"><clipPath id="t4985de5ec7034a7399ec172f8927c6f3"><rect x="155.0" y="15.0" width="110.0" height="70.0" /></clipPath><g clip-path="url(#t4985de5ec7034a7399ec172f8927c6f3)"><g class="toytree-mark-Toytree" id="tcd6064d0aeff408aaa19c000ee449649"><g class="toytree-Edges" style="fill:none;stroke:rgb(14.9%,14.9%,14.9%);stroke-linecap:round;stroke-opacity:1;stroke-width:0.5"><path d="M 165.0 41.0 L 165.0 31.7 L 199.5 31.7" id="32,31" /><path d="M 165.0 41.0 L 165.0 50.4 L 173.4 50.4" id="32,30" /><path d="M 199.5 31.7 L 199.5 34.2 L 201.9 34.2" id="31,29" /><path d="M 173.4 50.4 L 173.4 55.9 L 184.0 55.9" id="30,28" /><path d="M 201.9 34.2 L 201.9 36.7 L 202.4 36.7" id="29,27" /><path d="M 184.0 55.9 L 184.0 49.7 L 201.3 49.7" id="28,26" /><path d="M 184.0 55.9 L 184.0 62.2 L 188.8 62.2" id="28,25" /><path d="M 202.4 36.7 L 202.4 38.9 L 206.9 38.9" id="27,24" /><path d="M 201.3 49.7 L 201.3 52.0 L 224.0 52.0" id="26,23" /><path d="M 188.8 62.2 L 188.8 59.1 L 194.6 59.1" id="25,22" /><path d="M 188.8 62.2 L 188.8 65.3 L 192.5 65.3" id="25,21" /><path d="M 206.9 38.9 L 206.9 40.9 L 213.0 40.9" id="24,20" /><path d="M 224.0 52.0 L 224.0 53.9 L 239.2 53.9" id="23,19" /><path d="M 192.5 65.3 L 192.5 67.6 L 199.2 67.6" id="21,18" /><path d="M 199.2 67.6 L 199.2 69.5 L 207.2 69.5" id="18,17" /><path d="M 199.5 31.7 L 199.5 29.2 L 211.7 29.2" id="31,16" /><path d="M 201.9 34.2 L 201.9 31.8 L 209.7 31.8" id="29,15" /><path d="M 202.4 36.7 L 202.4 34.4 L 214.3 34.4" id="27,14" /><path d="M 206.9 38.9 L 206.9 37.0 L 216.2 37.0" id="24,13" /><path d="M 213.0 40.9 L 213.0 39.6 L 214.5 39.6" id="20,12" /><path d="M 213.0 40.9 L 213.0 42.2 L 213.0 42.2" id="20,11" /><path d="M 173.4 50.4 L 173.4 44.8 L 183.5 44.8" id="30,10" /><path d="M 201.3 49.7 L 201.3 47.4 L 210.3 47.4" id="26,9" /><path d="M 224.0 52.0 L 224.0 50.0 L 243.4 50.0" id="23,8" /><path d="M 239.2 53.9 L 239.2 52.6 L 239.3 52.6" id="19,7" /><path d="M 239.2 53.9 L 239.2 55.2 L 250.3 55.2" id="19,6" /><path d="M 194.6 59.1 L 194.6 57.8 L 204.6 57.8" id="22,5" /><path d="M 194.6 59.1 L 194.6 60.4 L 202.2 60.4" id="22,4" /><path d="M 192.5 65.3 L 192.5 63.0 L 231.3 63.0" id="21,3" /><path d="M 199.2 67.6 L 199.2 65.6 L 237.4 65.6" id="18,2" /><path d="M 207.2 69.5 L 207.2 68.2 L 220.5 68.2" id="17,1" /><path d="M 207.2 69.5 L 207.2 70.8 L 214.6 70.8" id="17,0" /></g><g class="toytree-Nodes" style="fill:rgb(100%,0%,0%);fill-opacity:1.0;stroke:None;stroke-width:1"><g id="node-0" transform="translate(214.626,70.833)"><circle r="2.5" /></g><g id="node-1" transform="translate(220.542,68.229)"><circle r="2.5" /></g><g id="node-2" transform="translate(237.424,65.625)"><circle r="2.5" /></g><g id="node-3" transform="translate(231.272,63.021)"><circle r="2.5" /></g><g id="node-4" transform="translate(202.154,60.417)"><circle r="2.5" /></g><g id="node-5" transform="translate(204.622,57.812)"><circle r="2.5" /></g><g id="node-6" transform="translate(250.263,55.208)"><circle r="2.5" /></g><g id="node-7" transform="translate(239.306,52.604)"><circle r="2.5" /></g><g id="node-8" transform="translate(243.445,50.000)"><circle r="2.5" /></g><g id="node-9" transform="translate(210.293,47.396)"><circle r="2.5" /></g><g id="node-10" transform="translate(183.469,44.792)"><circle r="2.5" /></g><g id="node-11" transform="translate(213.001,42.188)"><circle r="2.5" /></g><g id="node-12" transform="translate(214.489,39.583)"><circle r="2.5" /></g><g id="node-13" transform="translate(216.187,36.979)"><circle r="2.5" /></g><g id="node-14" transform="translate(214.261,34.375)"><circle r="2.5" /></g><g id="node-15" transform="translate(209.746,31.771)"><circle r="2.5" /></g><g id="node-16" transform="translate(211.653,29.167)"><circle r="2.5" /></g><g id="node-17" transform="translate(207.169,69.531)"><circle r="0.0" /></g><g id="node-18" transform="translate(199.214,67.578)"><circle r="0.0" /></g><g id="node-19" transform="translate(239.227,53.906)"><circle r="0.0" /></g><g id="node-20" transform="translate(213.001,40.885)"><circle r="0.0" /></g><g id="node-21" transform="translate(192.510,65.299)"><circle r="0.0" /></g><g id="node-22" transform="translate(194.593,59.115)"><circle r="0.0" /></g><g id="node-23" transform="translate(223.964,51.953)"><circle r="0.0" /></g><g id="node-24" transform="translate(206.892,38.932)"><circle r="0.0" /></g><g id="node-25" transform="translate(188.816,62.207)"><circle r="0.0" /></g><g id="node-26" transform="translate(201.323,49.674)"><circle r="0.0" /></g><g id="node-27" transform="translate(202.447,36.654)"><circle r="0.0" /></g><g id="node-28" transform="translate(183.985,55.941)"><circle r="0.0" /></g><g id="node-29" transform="translate(201.948,34.212)"><circle r="0.0" /></g><g id="node-30" transform="translate(173.439,50.366)"><circle r="0.0" /></g><g id="node-31" transform="translate(199.550,31.689)"><circle r="0.0" /></g><g id="node-32" transform="translate(165.000,41.028)"><circle r="0.0" /></g></g></g></g></g><g class="toyplot-coordinates-Cartesian" id="tb23deb3f2d684dd894ad2bbd3e56b17a"><clipPath id="tfefc1afc333344f79d766eca04f1533a"><rect x="295.0" y="15.0" width="110.0" height="70.0" /></clipPath><g clip-path="url(#tfefc1afc333344f79d766eca04f1533a)"><g class="toytree-mark-Toytree" id="t71bcb3fc922c4454a0244cf6d6eddad0"><g class="toytree-Edges" style="fill:none;stroke:rgb(14.9%,14.9%,14.9%);stroke-linecap:round;stroke-opacity:1;stroke-width:0.5"><path d="M 305.0 41.7 L 305.0 32.1 L 342.8 32.1" id="32,31" /><path d="M 305.0 41.7 L 305.0 51.3 L 310.0 51.3" id="32,30" /><path d="M 342.8 32.1 L 342.8 35.0 L 348.7 35.0" id="31,29" /><path d="M 310.0 51.3 L 310.0 46.7 L 339.8 46.7" id="30,28" /><path d="M 310.0 51.3 L 310.0 55.9 L 312.8 55.9" id="30,27" /><path d="M 348.7 35.0 L 348.7 38.3 L 351.5 38.3" id="29,26" /><path d="M 339.8 46.7 L 339.8 48.7 L 352.7 48.7" id="28,25" /><path d="M 312.8 55.9 L 312.8 59.1 L 314.5 59.1" id="27,24" /><path d="M 351.5 38.3 L 351.5 35.7 L 368.4 35.7" id="26,23" /><path d="M 351.5 38.3 L 351.5 40.9 L 353.6 40.9" id="26,22" /><path d="M 314.5 59.1 L 314.5 63.0 L 319.5 63.0" id="24,21" /><path d="M 319.5 63.0 L 319.5 59.1 L 323.6 59.1" id="21,20" /><path d="M 319.5 63.0 L 319.5 66.9 L 324.6 66.9" id="21,19" /><path d="M 324.6 66.9 L 324.6 64.3 L 332.7 64.3" id="19,18" /><path d="M 324.6 66.9 L 324.6 69.5 L 349.4 69.5" id="19,17" /><path d="M 342.8 32.1 L 342.8 29.2 L 372.8 29.2" id="31,16" /><path d="M 348.7 35.0 L 348.7 31.8 L 366.4 31.8" id="29,15" /><path d="M 368.4 35.7 L 368.4 34.4 L 374.4 34.4" id="23,14" /><path d="M 368.4 35.7 L 368.4 37.0 L 371.3 37.0" id="23,13" /><path d="M 353.6 40.9 L 353.6 39.6 L 375.4 39.6" id="22,12" /><path d="M 353.6 40.9 L 353.6 42.2 L 371.9 42.2" id="22,11" /><path d="M 339.8 46.7 L 339.8 44.8 L 379.2 44.8" id="28,10" /><path d="M 352.7 48.7 L 352.7 47.4 L 369.7 47.4" id="25,9" /><path d="M 352.7 48.7 L 352.7 50.0 L 371.0 50.0" id="25,8" /><path d="M 312.8 55.9 L 312.8 52.6 L 385.7 52.6" id="27,7" /><path d="M 314.5 59.1 L 314.5 55.2 L 390.3 55.2" id="24,6" /><path d="M 323.6 59.1 L 323.6 57.8 L 374.0 57.8" id="20,5" /><path d="M 323.6 59.1 L 323.6 60.4 L 370.6 60.4" id="20,4" /><path d="M 332.7 64.3 L 332.7 63.0 L 351.0 63.0" id="18,3" /><path d="M 332.7 64.3 L 332.7 65.6 L 361.3 65.6" id="18,2" /><path d="M 349.4 69.5 L 349.4 68.2 L 380.0 68.2" id="17,1" /><path d="M 349.4 69.5 L 349.4 70.8 L 377.5 70.8" id="17,0" /></g><g class="toytree-Nodes" style="fill:rgb(100%,0%,0%);fill-opacity:1.0;stroke:None;stroke-width:1"><g id="node-0" transform="translate(377.547,70.833)"><circle r="2.5" /></g><g id="node-1" transform="translate(379.954,68.229)"><circle r="2.5" /></g><g id="node-2" transform="translate(361.266,65.625)"><circle r="2.5" /></g><g id="node-3" transform="translate(351.005,63.021)"><circle r="2.5" /></g><g id="node-4" transform="translate(370.567,60.417)"><circle r="2.5" /></g><g id="node-5" transform="translate(374.023,57.812)"><circle r="2.5" /></g><g id="node-6" transform="translate(390.263,55.208)"><circle r="2.5" /></g><g id="node-7" transform="translate(385.690,52.604)"><circle r="2.5" /></g><g id="node-8" transform="translate(371.024,50.000)"><circle r="2.5" /></g><g id="node-9" transform="translate(369.665,47.396)"><circle r="2.5" /></g><g id="node-10" transform="translate(379.228,44.792)"><circle r="2.5" /></g><g id="node-11" transform="translate(371.896,42.188)"><circle r="2.5" /></g><g id="node-12" transform="translate(375.407,39.583)"><circle r="2.5" /></g><g id="node-13" transform="translate(371.271,36.979)"><circle r="2.5" /></g><g id="node-14" transform="translate(374.351,34.375)"><circle r="2.5" /></g><g id="node-15" transform="translate(366.449,31.771)"><circle r="2.5" /></g><g id="node-16" transform="translate(372.831,29.167)"><circle r="2.5" /></g><g id="node-17" transform="translate(349.364,69.531)"><circle r="0.0" /></g><g id="node-18" transform="translate(332.734,64.323)"><circle r="0.0" /></g><g id="node-19" transform="translate(324.563,66.927)"><circle r="0.0" /></g><g id="node-20" transform="translate(323.608,59.115)"><circle r="0.0" /></g><g id="node-21" transform="translate(319.473,63.021)"><circle r="0.0" /></g><g id="node-22" transform="translate(353.646,40.885)"><circle r="0.0" /></g><g id="node-23" transform="translate(368.406,35.677)"><circle r="0.0" /></g><g id="node-24" transform="translate(314.496,59.115)"><circle r="0.0" /></g><g id="node-25" transform="translate(352.692,48.698)"><circle r="0.0" /></g><g id="node-26" transform="translate(351.460,38.281)"><circle r="0.0" /></g><g id="node-27" transform="translate(312.781,55.859)"><circle r="0.0" /></g><g id="node-28" transform="translate(339.801,46.745)"><circle r="0.0" /></g><g id="node-29" transform="translate(348.683,35.026)"><circle r="0.0" /></g><g id="node-30" transform="translate(309.984,51.302)"><circle r="0.0" /></g><g id="node-31" transform="translate(342.752,32.096)"><circle r="0.0" /></g><g id="node-32" transform="translate(305.000,41.699)"><circle r="0.0" /></g></g></g></g></g><g class="toyplot-coordinates-Cartesian" id="t504f4153423b45eca54b29b71cf5df79"><clipPath id="t7020bb3edf734516a59849af1452c373"><rect x="435.0" y="15.0" width="110.0" height="70.0" /></clipPath><g clip-path="url(#t7020bb3edf734516a59849af1452c373)"><g class="toytree-mark-Toytree" id="t12fd8d3a11a6424e870b7a1a5fc00e38"><g class="toytree-Edges" style="fill:none;stroke:rgb(14.9%,14.9%,14.9%);stroke-linecap:round;stroke-opacity:1;stroke-width:0.5"><path d="M 445.0 45.5 L 445.0 34.6 L 454.5 34.6" id="32,31" /><path d="M 445.0 45.5 L 445.0 56.3 L 455.1 56.3" id="32,30" /><path d="M 454.5 34.6 L 454.5 30.5 L 465.8 30.5" id="31,29" /><path d="M 454.5 34.6 L 454.5 38.8 L 458.2 38.8" id="31,28" /><path d="M 455.1 56.3 L 455.1 52.0 L 481.3 52.0" id="30,27" /><path d="M 455.1 56.3 L 455.1 60.7 L 479.3 60.7" id="30,26" /><path d="M 458.2 38.8 L 458.2 35.7 L 480.9 35.7" id="28,25" /><path d="M 458.2 38.8 L 458.2 41.9 L 464.5 41.9" id="28,24" /><path d="M 481.3 52.0 L 481.3 53.9 L 489.1 53.9" id="27,23" /><path d="M 479.3 60.7 L 479.3 63.7 L 485.1 63.7" id="26,22" /><path d="M 464.5 41.9 L 464.5 44.1 L 468.8 44.1" id="24,21" /><path d="M 485.1 63.7 L 485.1 66.9 L 491.2 66.9" id="22,20" /><path d="M 468.8 44.1 L 468.8 46.1 L 476.4 46.1" id="21,19" /><path d="M 491.2 66.9 L 491.2 64.3 L 503.3 64.3" id="20,18" /><path d="M 491.2 66.9 L 491.2 69.5 L 498.9 69.5" id="20,17" /><path d="M 465.8 30.5 L 465.8 29.2 L 523.4 29.2" id="29,16" /><path d="M 465.8 30.5 L 465.8 31.8 L 519.5 31.8" id="29,15" /><path d="M 480.9 35.7 L 480.9 34.4 L 512.6 34.4" id="25,14" /><path d="M 480.9 35.7 L 480.9 37.0 L 502.5 37.0" id="25,13" /><path d="M 464.5 41.9 L 464.5 39.6 L 514.2 39.6" id="24,12" /><path d="M 468.8 44.1 L 468.8 42.2 L 502.9 42.2" id="21,11" /><path d="M 476.4 46.1 L 476.4 44.8 L 520.1 44.8" id="19,10" /><path d="M 476.4 46.1 L 476.4 47.4 L 501.2 47.4" id="19,9" /><path d="M 481.3 52.0 L 481.3 50.0 L 515.0 50.0" id="27,8" /><path d="M 489.1 53.9 L 489.1 52.6 L 515.9 52.6" id="23,7" /><path d="M 489.1 53.9 L 489.1 55.2 L 509.4 55.2" id="23,6" /><path d="M 479.3 60.7 L 479.3 57.8 L 497.3 57.8" id="26,5" /><path d="M 485.1 63.7 L 485.1 60.4 L 501.5 60.4" id="22,4" /><path d="M 503.3 64.3 L 503.3 63.0 L 511.2 63.0" id="18,3" /><path d="M 503.3 64.3 L 503.3 65.6 L 511.1 65.6" id="18,2" /><path d="M 498.9 69.5 L 498.9 68.2 L 530.3 68.2" id="17,1" /><path d="M 498.9 69.5 L 498.9 70.8 L 518.2 70.8" id="17,0" /></g><g class="toytree-Nodes" style="fill:rgb(100%,0%,0%);fill-opacity:1.0;stroke:None;stroke-width:1"><g id="node-0" transform="translate(518.152,70.833)"><circle r="2.5" /></g><g id="node-1" transform="translate(530.263,68.229)"><circle r="2.5" /></g><g id="node-2" transform="translate(511.136,65.625)"><circle r="2.5" /></g><g id="node-3" transform="translate(511.181,63.021)"><circle r="2.5" /></g><g id="node-4" transform="translate(501.543,60.417)"><circle r="2.5" /></g><g id="node-5" transform="translate(497.339,57.812)"><circle r="2.5" /></g><g id="node-6" transform="translate(509.404,55.208)"><circle r="2.5" /></g><g id="node-7" transform="translate(515.920,52.604)"><circle r="2.5" /></g><g id="node-8" transform="translate(515.032,50.000)"><circle r="2.5" /></g><g id="node-9" transform="translate(501.214,47.396)"><circle r="2.5" /></g><g id="node-10" transform="translate(520.110,44.792)"><circle r="2.5" /></g><g id="node-11" transform="translate(502.922,42.188)"><circle r="2.5" /></g><g id="node-12" transform="translate(514.239,39.583)"><circle r="2.5" /></g><g id="node-13" transform="translate(502.504,36.979)"><circle r="2.5" /></g><g id="node-14" transform="translate(512.560,34.375)"><circle r="2.5" /></g><g id="node-15" transform="translate(519.524,31.771)"><circle r="2.5" /></g><g id="node-16" transform="translate(523.377,29.167)"><circle r="2.5" /></g><g id="node-17" transform="translate(498.855,69.531)"><circle r="0.0" /></g><g id="node-18" transform="translate(503.268,64.323)"><circle r="0.0" /></g><g id="node-19" transform="translate(476.398,46.094)"><circle r="0.0" /></g><g id="node-20" transform="translate(491.184,66.927)"><circle r="0.0" /></g><g id="node-21" transform="translate(468.798,44.141)"><circle r="0.0" /></g><g id="node-22" transform="translate(485.102,63.672)"><circle r="0.0" /></g><g id="node-23" transform="translate(489.072,53.906)"><circle r="0.0" /></g><g id="node-24" transform="translate(464.473,41.862)"><circle r="0.0" /></g><g id="node-25" transform="translate(480.857,35.677)"><circle r="0.0" /></g><g id="node-26" transform="translate(479.315,60.742)"><circle r="0.0" /></g><g id="node-27" transform="translate(481.330,51.953)"><circle r="0.0" /></g><g id="node-28" transform="translate(458.202,38.770)"><circle r="0.0" /></g><g id="node-29" transform="translate(465.842,30.469)"><circle r="0.0" /></g><g id="node-30" transform="translate(455.051,56.348)"><circle r="0.0" /></g><g id="node-31" transform="translate(454.486,34.619)"><circle r="0.0" /></g><g id="node-32" transform="translate(445.000,45.483)"><circle r="0.0" /></g></g></g></g></g></svg>