<svg class="toyplot-canvas-Canvas" xmlns:toyplot="http://www.sandia.gov/toyplot" xmlns:xlink="http://www.w3.org/1999/xlink" xmlns="http://www.w3.org/2000/svg" width="560.0px" height="100.0px" viewBox="0 0 560.0 100.0" preserveAspectRatio="xMidYMid meet" style="background-color:transparent;border-color:#292724;border-style:none;border-width:1.0;fill:rgb(16.1%,15.3%,14.1%);fill-opacity:1.0;font-family:Helvetica;font-size:12px;opacity:1.0;stroke:rgb(16.1%,15.3%,14.1%);stroke-opacity:1.0;stroke-width:1.0" id="tf171e50c493a4c4cad39bc4827b11e8f"><g class="toyplot-coordinates-Cartesian" id="tc1639ef6dd97449d947e3a00c873a985"><clipPath id="tbbcac939e2434a58b7977c3fb8d6c4c6"><rect x="15.0" y="15.0" width="110.0" height="70.0" /></clipPath><g clip-path="url(#tbbcac939e2434a58b7977c3fb8d6c4c6)"><g class="toytree-mark-Toytree" id="t61d88dac25c840b3b84684dc1255cbba"><g class="toytree-Edges" style="fill:none;stroke:rgb(14.9%,14.9%,14.9%);stroke-linecap:round;stroke-opacity:1;stroke-width:0.5"><path d="M 25.0 38.8 L 25.0 31.8 L 45.1 31.8" id="24,23" /><path d="M 25.0 38.8 L 25.0 45.8 L 55.0 45.8" id="24,22" /><path d="M 45.1 31.8 L 45.1 34.4 L 55.4 34.4" id="23,21" /><path d="M 55.0 45.8 L 55.0 41.3 L 76.4 41.3" id="22,20" /><path d="M 55.0 45.8 L 55.0 50.3 L 60.7 50.3" id="22,19" /><path d="M 60.7 50.3 L 60.7 54.0 L 71.4 54.0" id="19,18" /><path d="M 71.4 54.0 L 71.4 58.0 L 84.3 58.0" id="18,17" /><path d="M 84.3 58.0 L 84.3 62.6 L 86.3 62.6" id="17,16" /><path d="M 86.3 62.6 L 86.3 58.7 L 102.6 58.7" id="16,15" /><path d="M 86.3 62.6 L 86.3 66.5 L 101.8 66.5" id="16,14" /><path d="M 101.8 66.5 L 101.8 69.1 L 102.3 69.1" id="14,13" /><path d="M 45.1 31.8 L 45.1 29.2 L 102.6 29.2" id="23,12" /><path d="M 55.4 34.4 L 55.4 32.6 L 105.5 32.6" id="21,11" /><path d="M 55.4 34.4 L 55.4 36.1 L 101.8 36.1" id="21,10" /><path d="M 76.4 41.3 L 76.4 39.6 L 105.7 39.6" id="20,9" /><path d="M 76.4 41.3 L 76.4 43.1 L 100.5 43.1" id="20,8" /><path d="M 60.7 50.3 L 60.7 46.5 L 106.5 46.5" id="19,7" /><path d="M 71.4 54.0 L 71.4 50.0 L 91.3 50.0" id="18,6" /><path d="M 84.3 58.0 L 84.3 53.5 L 110.3 53.5" id="17,5" /><path d="M 102.6 58.7 L 102.6 56.9 L 105.1 56.9" id="15,4" /><path d="M 102.6 58.7 L 102.6 60.4 L 104.5 60.4" id="15,3" /><path d="M 101.8 66.5 L 101.8 63.9 L 104.7 63.9" id="14,2" /><path d="M 102.3 69.1 L 102.3 67.4 L 104.0 67.4" id="13,1" /><path d="M 102.3 69.1 L 102.3 70.8 L 103.0 70.8" id="13,0" /></g><g class="toytree-Nodes" style="fill:rgb(100%,0%,0%);fill-opacity:1.0;stroke:None;stroke-width:1"><g id="node-0" transform="translate(102.955,70.833)"><circle r="2.5" /></g><g id="node-1" transform="translate(103.974,67.361)"><circle r="2.5" /></g><g id="node-2" transform="translate(104.673,63.889)"><circle r="2.5" /></g><g id="node-3" transform="translate(104.531,60.417)"><circle r="2.5" /></g><g id="node-4" transform="translate(105.128,56.944)"><circle r="2.5" /></g><g id="node-5" transform="translate(110.263,53.472)"><circle r="2.5" /></g><g id="node-6" transform="translate(91.254,50.000)"><circle r="2.5" /></g><g id="node-7" transform="translate(106.518,46.528)"><circle r="2.5" /></g><g id="node-8" transform="translate(100.546,43.056)"><circle r="2.5" /></g><g id="node-9" transform="translate(105.735,39.583)"><circle r="2.5" /></g><g id="node-10" transform="translate(101.815,36.111)"><circle r="2.5" /></g><g id="node-11" transform="translate(105.460,32.639)"><circle r="2.5" /></g><g id="node-12" transform="translate(102.574,29.167)"><circle r="2.5" /></g><g id="node-13" transform="translate(102.332,69.097)"><circle r="0.0" /></g><g id="node-14" transform="translate(101.805,66.493)"><circle r="0.0" /></g><g id="node-15" transform="translate(102.565,58.681)"><circle r="0.0" /></g><g id="node-16" transform="translate(86.339,62.587)"><circle r="0.0" /></g><g id="node-17" transform="translate(84.261,58.030)"><circle r="0.0" /></g><g id="node-18" transform="translate(71.388,54.015)"><circle r="0.0" /></g><g id="node-19" transform="translate(60.726,50.271)"><circle r="0.0" /></g><g id="node-20" transform="translate(76.425,41.319)"><circle r="0.0" /></g><g id="node-21" transform="translate(55.414,34.375)"><circle r="0.0" /></g><g id="node-22" transform="translate(55.012,45.795)"><circle r="0.0" /></g><g id="node-23" transform="translate(45.090,31.771)"><circle r="0.0" /></g><g id="node-24" transform="translate(25.000,38.783)"><circle r="0.0" /></g></g></g></g></g><g class="toyplot-coordinates-Cartesian" id="tbcfc9b35027440b1b02adc8b9459c2b4"><clipPath id="t3af7bf1c3f4d449ca98730feb0b0b9ad"><rect x="155.0" y="15.0" width="110.0" height="70.0" /></clipPath><g clip-path="url(#t3af7bf1c3f4d449ca98730feb0b0b9ad)"><g class="toytree-mark-Toytree" id="tcbaa770ccf404458a11bca6b7ca6588c"><g class="toytree-Edges" style="fill:none;stroke:rgb(14.9%,14.9%,14.9%);stroke-linecap:round;stroke-opacity:1;stroke-width:0.5"><path d="M 165.0 37.4 L 165.0 31.8 L 186.7 31.8" id="24,23" /><path d="M 165.0 37.4 L 165.0 43.0 L 180.6 43.0" id="24,22" /><path d="M 186.7 31.8 L 186.7 34.4 L 191.0 34.4" id="23,21" /><path d="M 180.6 43.0 L 180.6 46.5 L 185.3 46.5" id="22,20" /><path d="M 185.3 46.5 L 185.3 50.0 L 186.2 50.0" id="20,19" /><path d="M 186.2 50.0 L 186.2 53.4 L 187.1 53.4" id="19,18" /><path d="M 187.1 53.4 L 187.1 56.8 L 189.1 56.8" id="18,17" /><path d="M 189.1 56.8 L 189.1 60.2 L 189.7 60.2" id="17,16" /><path d="M 189.7 60.2 L 189.7 63.5 L 190.3 63.5" id="16,15" /><path d="M 190.3 63.5 L 190.3 66.5 L 190.7 66.5" id="15,14" /><path d="M 190.7 66.5 L 190.7 69.1 L 191.3 69.1" id="14,13" /><path d="M 186.7 31.8 L 186.7 29.2 L 187.6 29.2" id="23,12" /><path d="M 191.0 34.4 L 191.0 32.6 L 191.0 32.6" id="21,11" /><path d="M 191.0 34.4 L 191.0 36.1 L 198.4 36.1" id="21,10" /><path d="M 180.6 43.0 L 180.6 39.6 L 250.3 39.6" id="22,9" /><path d="M 185.3 46.5 L 185.3 43.1 L 185.3 43.1" id="20,8" /><path d="M 186.2 50.0 L 186.2 46.5 L 191.4 46.5" id="19,7" /><path d="M 187.1 53.4 L 187.1 50.0 L 189.2 50.0" id="18,6" /><path d="M 189.1 56.8 L 189.1 53.5 L 190.1 53.5" id="17,5" /><path d="M 189.7 60.2 L 189.7 56.9 L 192.4 56.9" id="16,4" /><path d="M 190.3 63.5 L 190.3 60.4 L 191.4 60.4" id="15,3" /><path d="M 190.7 66.5 L 190.7 63.9 L 190.9 63.9" id="14,2" /><path d="M 191.3 69.1 L 191.3 67.4 L 191.4 67.4" id="13,1" /><path d="M 191.3 69.1 L 191.3 70.8 L 191.5 70.8" id="13,0" /></g><g class="toytree-Nodes" style="fill:rgb(100%,0%,0%);fill-opacity:1.0;stroke:None;stroke-width:1"><g id="node-0" transform="translate(191.454,70.833)"><circle r="2.5" /></g><g id="node-1" transform="translate(191.360,67.361)"><circle r="2.5" /></g><g id="node-2" transform="translate(190.905,63.889)"><circle r="2.5" /></g><g id="node-3" transform="translate(191.437,60.417)"><circle r="2.5" /></g><g id="node-4" transform="translate(192.438,56.944)"><circle r="2.5" /></g><g id="node-5" transform="translate(190.061,53.472)"><circle r="2.5" /></g><g id="node-6" transform="translate(189.154,50.000)"><circle r="2.5" /></g><g id="node-7" transform="translate(191.399,46.528)"><circle r="2.5" /></g><g id="node-8" transform="translate(185.307,43.056)"><circle r="2.5" /></g><g id="node-9" transform="translate(250.263,39.583)"><circle r="2.5" /></g><g id="node-10" transform="translate(198.420,36.111)"><circle r="2.5" /></g><g id="node-11" transform="translate(191.008,32.639)"><circle r="2.5" /></g><g id="node-12" transform="translate(187.604,29.167)"><circle r="2.5" /></g><g id="node-13" transform="translate(191.343,69.097)"><circle r="0.0" /></g><g id="node-14" transform="translate(190.730,66.493)"><circle r="0.0" /></g><g id="node-15" transform="translate(190.274,63.455)"><circle r="0.0" /></g><g id="node-16" transform="translate(189.682,60.200)"><circle r="0.0" /></g><g id="node-17" transform="translate(189.132,56.836)"><circle r="0.0" /></g><g id="node-18" transform="translate(187.083,53.418)"><circle r="0.0" /></g><g id="node-19" transform="translate(186.214,49.973)"><circle r="0.0" /></g><g id="node-20" transform="translate(185.307,46.514)"><circle r="0.0" /></g><g id="node-21" transform="translate(191.008,34.375)"><circle r="0.0" /></g><g id="node-22" transform="translate(180.617,43.049)"><circle r="0.0" /></g><g id="node-23" transform="translate(186.697,31.771)"><circle r="0.0" /></g><g id="node-24" transform="translate(165.000,37.410)"><circle r="0.0" /></g></g></g></g></g><g class="toyplot-coordinates-Cartesian" id="tc1ec1e1caf514c95806983c0add10253"><clipPath id="t28180edb1b384692b9f79fbce1471e20"><rect x="295.0" y="15.0" width="110.0" height="70.0" /></clipPath><g clip-path="url(#t28180edb1b384692b9f79fbce1471e20)"><g class="toytree-mark-Toytree" id="tc67b0b73eaec4a2889281c55b2faaf2e"><g class="toytree-Edges" style="fill:none;stroke:rgb(14.9%,14.9%,14.9%);stroke-linecap:round;stroke-opacity:1;stroke-width:0.5"><path d="M 305.0 37.4 L 305.0 31.8 L 327.8 31.8" id="24,23" /><path d="M 305.0 37.4 L 305.0 43.0 L 315.8 43.0" id="24,22" /><path d="M 327.8 31.8 L 327.8 34.4 L 329.7 34.4" id="23,21" /><path d="M 315.8 43.0 L 315.8 46.5 L 327.2 46.5" id="22,20" /><path d="M 327.2 46.5 L 327.2 50.0 L 328.9 50.0" id="20,19" /><path d="M 328.9 50.0 L 328.9 53.4 L 330.2 53.4" id="19,18" /><path d="M 330.2 53.4 L 330.2 56.8 L 331.6 56.8" id="18,17" /><path d="M 331.6 56.8 L 331.6 60.2 L 333.8 60.2" id="17,16" /><path d="M 333.8 60.2 L 333.8 63.5 L 335.3 63.5" id="16,15" /><path d="M 335.3 63.5 L 335.3 66.5 L 337.5 66.5" id="15,14" /><path d="M 337.5 66.5 L 337.5 69.1 L 338.9 69.1" id="14,13" /><path d="M 327.8 31.8 L 327.8 29.2 L 339.7 29.2" id="23,12" /><path d="M 329.7 34.4 L 329.7 32.6 L 336.3 32.6" id="21,11" /><path d="M 329.7 34.4 L 329.7 36.1 L 338.8 36.1" id="21,10" /><path d="M 315.8 43.0 L 315.8 39.6 L 390.3 39.6" id="22,9" /><path d="M 327.2 46.5 L 327.2 43.1 L 334.0 43.1" id="20,8" /><path d="M 328.9 50.0 L 328.9 46.5 L 332.2 46.5" id="19,7" /><path d="M 330.2 53.4 L 330.2 50.0 L 336.7 50.0" id="18,6" /><path d="M 331.6 56.8 L 331.6 53.5 L 336.9 53.5" id="17,5" /><path d="M 333.8 60.2 L 333.8 56.9 L 339.1 56.9" id="16,4" /><path d="M 335.3 63.5 L 335.3 60.4 L 336.3 60.4" id="15,3" /><path d="M 337.5 66.5 L 337.5 63.9 L 337.5 63.9" id="14,2" /><path d="M 338.9 69.1 L 338.9 67.4 L 338.9 67.4" id="13,1" /><path d="M 338.9 69.1 L 338.9 70.8 L 338.9 70.8" id="13,0" /></g><g class="toytree-Nodes" style="fill:rgb(100%,0%,0%);fill-opacity:1.0;stroke:None;stroke-width:1"><g id="node-0" transform="translate(338.851,70.833)"><circle r="2.5" /></g><g id="node-1" transform="translate(338.851,67.361)"><circle r="2.5" /></g><g id="node-2" transform="translate(337.538,63.889)"><circle r="2.5" /></g><g id="node-3" transform="translate(336.276,60.417)"><circle r="2.5" /></g><g id="node-4" transform="translate(339.120,56.944)"><circle r="2.5" /></g><g id="node-5" transform="translate(336.887,53.472)"><circle r="2.5" /></g><g id="node-6" transform="translate(336.671,50.000)"><circle r="2.5" /></g><g id="node-7" transform="translate(332.152,46.528)"><circle r="2.5" /></g><g id="node-8" transform="translate(333.961,43.056)"><circle r="2.5" /></g><g id="node-9" transform="translate(390.263,39.583)"><circle r="2.5" /></g><g id="node-10" transform="translate(338.840,36.111)"><circle r="2.5" /></g><g id="node-11" transform="translate(336.278,32.639)"><circle r="2.5" /></g><g id="node-12" transform="translate(339.694,29.167)"><circle r="2.5" /></g><g id="node-13" transform="translate(338.851,69.097)"><circle r="0.0" /></g><g id="node-14" transform="translate(337.538,66.493)"><circle r="0.0" /></g><g id="node-15" transform="translate(335.265,63.455)"><circle r="0.0" /></g><g id="node-16" transform="translate(333.754,60.200)"><circle r="0.0" /></g><g id="node-17" transform="translate(331.636,56.836)"><circle r="0.0" /></g><g id="node-18" transform="translate(330.237,53.418)"><circle r="0.0" /></g><g id="node-19" transform="translate(328.914,49.973)"><circle r="0.0" /></g><g id="node-20" transform="translate(327.226,46.514)"><circle r="0.0" /></g><g id="node-21" transform="translate(329.727,34.375)"><circle r="0.0" /></g><g id="node-22" transform="translate(315.820,43.049)"><circle r="0.0" /></g><g id="node-23" transform="translate(327.822,31.771)"><circle r="0.0" /></g><g id="node-24" transform="translate(305.000,37.410)"><circle r="0.0" /></g></g></g></g></g><g class="toyplot-coordinates-Cartesian" id="t2d49a03d04874e1ab57f7bcfdf378a66"><clipPath id="td5f3b689140342e88432116114b40b84"><rect x="435.0" y="15.0" width="110.0" height="70.0" /></clipPath><g clip-path="url(#td5f3b689140342e88432116114b40b84)"><g class="toytree-mark-Toytree" id="t26dd5da94afb4050b858c32b84f8d7ab"><g class="toytree-Edges" style="fill:none;stroke:rgb(14.9%,14.9%,14.9%);stroke-linecap:round;stroke-opacity:1;stroke-width:0.5"><path d="M 445.0 38.9 L 445.0 31.8 L 477.2 31.8" id="24,23" /><path d="M 445.0 38.9 L 445.0 46.0 L 480.5 46.0" id="24,22" /><path d="M 477.2 31.8 L 477.2 34.4 L 495.8 34.4" id="23,21" /><path d="M 480.5 46.0 L 480.5 41.3 L 488.5 41.3" id="22,20" /><path d="M 480.5 46.0 L 480.5 50.6 L 490.1 50.6" id="22,19" /><path d="M 490.1 50.6 L 490.1 54.7 L 496.3 54.7" id="19,18" /><path d="M 496.3 54.7 L 496.3 59.3 L 505.2 59.3" id="18,17" /><path d="M 505.2 59.3 L 505.2 55.2 L 510.1 55.2" id="17,16" /><path d="M 505.2 59.3 L 505.2 63.5 L 506.5 63.5" id="17,15" /><path d="M 506.5 63.5 L 506.5 66.5 L 510.7 66.5" id="15,14" /><path d="M 510.7 66.5 L 510.7 69.1 L 511.0 69.1" id="14,13" /><path d="M 477.2 31.8 L 477.2 29.2 L 496.1 29.2" id="23,12" /><path d="M 495.8 34.4 L 495.8 32.6 L 509.7 32.6" id="21,11" /><path d="M 495.8 34.4 L 495.8 36.1 L 530.3 36.1" id="21,10" /><path d="M 488.5 41.3 L 488.5 39.6 L 496.6 39.6" id="20,9" /><path d="M 488.5 41.3 L 488.5 43.1 L 502.4 43.1" id="20,8" /><path d="M 490.1 50.6 L 490.1 46.5 L 513.8 46.5" id="19,7" /><path d="M 496.3 54.7 L 496.3 50.0 L 510.9 50.0" id="18,6" /><path d="M 510.1 55.2 L 510.1 53.5 L 511.2 53.5" id="16,5" /><path d="M 510.1 55.2 L 510.1 56.9 L 510.5 56.9" id="16,4" /><path d="M 506.5 63.5 L 506.5 60.4 L 517.1 60.4" id="15,3" /><path d="M 510.7 66.5 L 510.7 63.9 L 510.7 63.9" id="14,2" /><path d="M 511.0 69.1 L 511.0 67.4 L 511.9 67.4" id="13,1" /><path d="M 511.0 69.1 L 511.0 70.8 L 511.3 70.8" id="13,0" /></g><g class="toytree-Nodes" style="fill:rgb(100%,0%,0%);fill-opacity:1.0;stroke:None;stroke-width:1"><g id="node-0" transform="translate(511.252,70.833)"><circle r="2.5" /></g><g id="node-1" transform="translate(511.854,67.361)"><circle r="2.5" /></g><g id="node-2" transform="translate(510.661,63.889)"><circle r="2.5" /></g><g id="node-3" transform="translate(517.058,60.417)"><circle r="2.5" /></g><g id="node-4" transform="translate(510.477,56.944)"><circle r="2.5" /></g><g id="node-5" transform="translate(511.212,53.472)"><circle r="2.5" /></g><g id="node-6" transform="translate(510.949,50.000)"><circle r="2.5" /></g><g id="node-7" transform="translate(513.831,46.528)"><circle r="2.5" /></g><g id="node-8" transform="translate(502.450,43.056)"><circle r="2.5" /></g><g id="node-9" transform="translate(496.551,39.583)"><circle r="2.5" /></g><g id="node-10" transform="translate(530.263,36.111)"><circle r="2.5" /></g><g id="node-11" transform="translate(509.678,32.639)"><circle r="2.5" /></g><g id="node-12" transform="translate(496.070,29.167)"><circle r="2.5" /></g><g id="node-13" transform="translate(510.954,69.097)"><circle r="0.0" /></g><g id="node-14" transform="translate(510.661,66.493)"><circle r="0.0" /></g><g id="node-15" transform="translate(506.523,63.455)"><circle r="0.0" /></g><g id="node-16" transform="translate(510.055,55.208)"><circle r="0.0" /></g><g id="node-17" transform="translate(505.214,59.332)"><circle r="0.0" /></g><g id="node-18" transform="translate(496.347,54.666)"><circle r="0.0" /></g><g id="node-19" transform="translate(490.091,50.597)"><circle r="0.0" /></g><g id="node-20" transform="translate(488.497,41.319)"><circle r="0.0" /></g><g id="node-21" transform="translate(495.789,34.375)"><circle r="0.0" /></g><g id="node-22" transform="translate(480.487,45.958)"><circle r="0.0" /></g><g id="node-23" transform="translate(477.161,31.771)"><circle r="0.0" /></g><g id="node-24" transform="translate(445.000,38.864)"><circle r="0.0" /></g></g></g></g></g></svg>