<svg class="toyplot-canvas-Canvas" xmlns:toyplot="http://www.sandia.gov/toyplot" xmlns:xlink="http://www.w3.org/1999/xlink" xmlns="http://www.w3.org/2000/svg" width="560.0px" height="100.0px" viewBox="0 0 560.0 100.0" preserveAspectRatio="xMidYMid meet" style="background-color:transparent;border-color:#292724;border-style:none;border-width:1.0;fill:rgb(16.1%,15.3%,14.1%);fill-opacity:1.0;font-family:Helvetica;font-size:12px;opacity:1.0;stroke:rgb(16.1%,15.3%,14.1%);stroke-opacity:1.0;stroke-width:1.0" id="tf6780a3f2c134c4cad50ab666e35e72f"><g class="toyplot-coordinates-Cartesian" id="t0fa13ddc0c4344d9a53d45d9e11b137b"><clipPath id="te5ae3a7c2c60454a83acea8925f9a78e"><rect x="15.0" y="15.0" width="110.0" height="70.0" /></clipPath><g clip-path="url(#te5ae3a7c2c60454a83acea8925f9a78e)"><g class="toytree-mark-Toytree" id="tdb7e06569b7642eda2da5e759d0f63a9"><g class="toytree-Edges" style="fill:none;stroke:rgb(14.9%,14.9%,14.9%);stroke-linecap:round;stroke-opacity:1;stroke-width:0.5"><path d="M 25.0 33.2 L 25.0 37.2 L 29.6 37.2" id="50,49" /><path d="M 29.6 37.2 L 29.6 31.7 L 52.1 31.7" id="49,48" /><path d="M 29.6 37.2 L 29.6 42.7 L 33.2 42.7" id="49,47" /><path d="M 33.2 42.7 L 33.2 36.9 L 34.3 36.9" id="47,46" /><path d="M 33.2 42.7 L 33.2 48.4 L 34.7 48.4" id="47,45" /><path d="M 34.3 36.9 L 34.3 35.0 L 35.8 35.0" id="46,44" /><path d="M 34.3 36.9 L 34.3 38.8 L 35.1 38.8" id="46,43" /><path d="M 34.7 48.4 L 34.7 44.1 L 36.5 44.1" id="45,42" /><path d="M 34.7 48.4 L 34.7 52.8 L 34.8 52.8" id="45,41" /><path d="M 35.1 38.8 L 35.1 40.0 L 55.8 40.0" id="43,40" /><path d="M 36.5 44.1 L 36.5 45.6 L 36.9 45.6" id="42,39" /><path d="M 34.8 52.8 L 34.8 54.8 L 36.2 54.8" id="41,38" /><path d="M 36.9 45.6 L 36.9 47.1 L 39.9 47.1" id="39,37" /><path d="M 36.2 54.8 L 36.2 57.0 L 39.4 57.0" id="38,36" /><path d="M 39.9 47.1 L 39.9 48.3 L 53.7 48.3" id="37,35" /><path d="M 39.4 57.0 L 39.4 59.9 L 44.2 59.9" id="36,34" /><path d="M 44.2 59.9 L 44.2 57.1 L 65.1 57.1" id="34,33" /><path d="M 44.2 59.9 L 44.2 62.8 L 50.0 62.8" id="34,32" /><path d="M 65.1 57.1 L 65.1 58.3 L 68.2 58.3" id="33,31" /><path d="M 50.0 62.8 L 50.0 64.7 L 52.8 64.7" id="32,30" /><path d="M 52.8 64.7 L 52.8 66.9 L 57.8 66.9" id="30,29" /><path d="M 57.8 66.9 L 57.8 65.0 L 59.0 65.0" id="29,28" /><path d="M 57.8 66.9 L 57.8 68.8 L 58.3 68.8" id="29,27" /><path d="M 58.3 68.8 L 58.3 70.0 L 60.9 70.0" id="27,26" /><path d="M 25.0 33.2 L 25.0 29.2 L 101.8 29.2" id="50,25" /><path d="M 52.1 31.7 L 52.1 30.8 L 101.8 30.8" id="48,24" /><path d="M 52.1 31.7 L 52.1 32.5 L 103.6 32.5" id="48,23" /><path d="M 35.8 35.0 L 35.8 34.2 L 99.1 34.2" id="44,22" /><path d="M 35.8 35.0 L 35.8 35.8 L 106.4 35.8" id="44,21" /><path d="M 35.1 38.8 L 35.1 37.5 L 95.8 37.5" id="43,20" /><path d="M 55.8 40.0 L 55.8 39.2 L 105.2 39.2" id="40,19" /><path d="M 55.8 40.0 L 55.8 40.8 L 101.9 40.8" id="40,18" /><path d="M 36.5 44.1 L 36.5 42.5 L 97.1 42.5" id="42,17" /><path d="M 36.9 45.6 L 36.9 44.2 L 97.6 44.2" id="39,16" /><path d="M 39.9 47.1 L 39.9 45.8 L 102.0 45.8" id="37,15" /><path d="M 53.7 48.3 L 53.7 47.5 L 106.5 47.5" id="35,14" /><path d="M 53.7 48.3 L 53.7 49.2 L 100.0 49.2" id="35,13" /><path d="M 34.8 52.8 L 34.8 50.8 L 110.3 50.8" id="41,12" /><path d="M 36.2 54.8 L 36.2 52.5 L 100.9 52.5" id="38,11" /><path d="M 39.4 57.0 L 39.4 54.2 L 102.4 54.2" id="36,10" /><path d="M 65.1 57.1 L 65.1 55.8 L 109.2 55.8" id="33,9" /><path d="M 68.2 58.3 L 68.2 57.5 L 105.0 57.5" id="31,8" /><path d="M 68.2 58.3 L 68.2 59.2 L 104.9 59.2" id="31,7" /><path d="M 50.0 62.8 L 50.0 60.8 L 103.2 60.8" id="32,6" /><path d="M 52.8 64.7 L 52.8 62.5 L 100.8 62.5" id="30,5" /><path d="M 59.0 65.0 L 59.0 64.2 L 97.5 64.2" id="28,4" /><path d="M 59.0 65.0 L 59.0 65.8 L 98.4 65.8" id="28,3" /><path d="M 58.3 68.8 L 58.3 67.5 L 101.2 67.5" id="27,2" /><path d="M 60.9 70.0 L 60.9 69.2 L 98.4 69.2" id="26,1" /><path d="M 60.9 70.0 L 60.9 70.8 L 100.0 70.8" id="26,0" /></g><g class="toytree-Nodes" style="fill:rgb(100%,0%,0%);fill-opacity:1.0;stroke:None;stroke-width:1"><g id="node-0" transform="translate(99.987,70.833)"><circle r="2.5" /></g><g id="node-1" transform="translate(98.366,69.167)"><circle r="2.5" /></g><g id="node-2" transform="translate(101.219,67.500)"><circle r="2.5" /></g><g id="node-3" transform="translate(98.372,65.833)"><circle r="2.5" /></g><g id="node-4" transform="translate(97.491,64.167)"><circle r="2.5" /></g><g id="node-5" transform="translate(100.784,62.500)"><circle r="2.5" /></g><g id="node-6" transform="translate(103.166,60.833)"><circle r="2.5" /></g><g id="node-7" transform="translate(104.885,59.167)"><circle r="2.5" /></g><g id="node-8" transform="translate(104.986,57.500)"><circle r="2.5" /></g><g id="node-9" transform="translate(109.156,55.833)"><circle r="2.5" /></g><g id="node-10" transform="translate(102.413,54.167)"><circle r="2.5" /></g><g id="node-11" transform="translate(100.870,52.500)"><circle r="2.5" /></g><g id="node-12" transform="translate(110.263,50.833)"><circle r="2.5" /></g><g id="node-13" transform="translate(100.005,49.167)"><circle r="2.5" /></g><g id="node-14" transform="translate(106.535,47.500)"><circle r="2.5" /></g><g id="node-15" transform="translate(102.025,45.833)"><circle r="2.5" /></g><g id="node-16" transform="translate(97.571,44.167)"><circle r="2.5" /></g><g id="node-17" transform="translate(97.119,42.500)"><circle r="2.5" /></g><g id="node-18" transform="translate(101.917,40.833)"><circle r="2.5" /></g><g id="node-19" transform="translate(105.172,39.167)"><circle r="2.5" /></g><g id="node-20" transform="translate(95.803,37.500)"><circle r="2.5" /></g><g id="node-21" transform="translate(106.421,35.833)"><circle r="2.5" /></g><g id="node-22" transform="translate(99.096,34.167)"><circle r="2.5" /></g><g id="node-23" transform="translate(103.584,32.500)"><circle r="2.5" /></g><g id="node-24" transform="translate(101.795,30.833)"><circle r="2.5" /></g><g id="node-25" transform="translate(101.786,29.167)"><circle r="2.5" /></g><g id="node-26" transform="translate(60.907,70.000)"><circle r="0.0" /></g><g id="node-27" transform="translate(58.288,68.750)"><circle r="0.0" /></g><g id="node-28" transform="translate(59.009,65.000)"><circle r="0.0" /></g><g id="node-29" transform="translate(57.809,66.875)"><circle r="0.0" /></g><g id="node-30" transform="translate(52.765,64.688)"><circle r="0.0" /></g><g id="node-31" transform="translate(68.207,58.333)"><circle r="0.0" /></g><g id="node-32" transform="translate(49.992,62.760)"><circle r="0.0" /></g><g id="node-33" transform="translate(65.113,57.083)"><circle r="0.0" /></g><g id="node-34" transform="translate(44.179,59.922)"><circle r="0.0" /></g><g id="node-35" transform="translate(53.707,48.333)"><circle r="0.0" /></g><g id="node-36" transform="translate(39.374,57.044)"><circle r="0.0" /></g><g id="node-37" transform="translate(39.901,47.083)"><circle r="0.0" /></g><g id="node-38" transform="translate(36.158,54.772)"><circle r="0.0" /></g><g id="node-39" transform="translate(36.919,45.625)"><circle r="0.0" /></g><g id="node-40" transform="translate(55.755,40.000)"><circle r="0.0" /></g><g id="node-41" transform="translate(34.825,52.803)"><circle r="0.0" /></g><g id="node-42" transform="translate(36.497,44.063)"><circle r="0.0" /></g><g id="node-43" transform="translate(35.107,38.750)"><circle r="0.0" /></g><g id="node-44" transform="translate(35.835,35.000)"><circle r="0.0" /></g><g id="node-45" transform="translate(34.735,48.433)"><circle r="0.0" /></g><g id="node-46" transform="translate(34.257,36.875)"><circle r="0.0" /></g><g id="node-47" transform="translate(33.246,42.654)"><circle r="0.0" /></g><g id="node-48" transform="translate(52.053,31.667)"><circle r="0.0" /></g><g id="node-49" transform="translate(29.594,37.160)"><circle r="0.0" /></g><g id="node-50" transform="translate(25.000,33.163)"><circle r="0.0" /></g></g></g></g></g><g class="toyplot-coordinates-Cartesian" id="ta0c065995a374815888154976127fb9b"><clipPath id="t38a4161fe5fd44a589b0cd076aa59f64"><rect x="155.0" y="15.0" width="110.0" height="70.0" /></clipPath><g clip-path="url(#t38a4161fe5fd44a589b0cd076aa59f64)"><g class="toytree-mark-Toytree" id="t6c7920ff8509492398e643db9b0a397a"><g class="toytree-Edges" style="fill:none;stroke:rgb(14.9%,14.9%,14.9%);stroke-linecap:round;stroke-opacity:1;stroke-width:0.5"><path d="M 165.0 34.5 L 165.0 30.0 L 174.1 30.0" id="50,49" /><path d="M 165.0 34.5 L 165.0 39.0 L 171.6 39.0" id="50,48" /><path d="M 171.6 39.0 L 171.6 34.0 L 176.5 34.0" id="48,47" /><path d="M 171.6 39.0 L 171.6 44.0 L 172.6 44.0" id="48,46" /><path d="M 176.5 34.0 L 176.5 35.4 L 183.8 35.4" id="47,45" /><path d="M 172.6 44.0 L 172.6 40.4 L 179.7 40.4" id="46,44" /><path d="M 172.6 44.0 L 172.6 47.5 L 177.1 47.5" id="46,43" /><path d="M 183.8 35.4 L 183.8 36.7 L 190.4 36.7" id="45,42" /><path d="M 179.7 40.4 L 179.7 41.7 L 187.2 41.7" id="44,41" /><path d="M 177.1 47.5 L 177.1 45.0 L 181.6 45.0" id="43,40" /><path d="M 177.1 47.5 L 177.1 50.0 L 179.9 50.0" id="43,39" /><path d="M 179.9 50.0 L 179.9 52.5 L 182.9 52.5" id="39,38" /><path d="M 182.9 52.5 L 182.9 50.0 L 188.7 50.0" id="38,37" /><path d="M 182.9 52.5 L 182.9 55.0 L 185.7 55.0" id="38,36" /><path d="M 185.7 55.0 L 185.7 57.6 L 187.6 57.6" id="36,35" /><path d="M 187.6 57.6 L 187.6 61.0 L 194.1 61.0" id="35,34" /><path d="M 194.1 61.0 L 194.1 57.3 L 195.5 57.3" id="34,33" /><path d="M 194.1 61.0 L 194.1 64.7 L 195.0 64.7" id="34,32" /><path d="M 195.5 57.3 L 195.5 58.8 L 196.4 58.8" id="33,31" /><path d="M 195.0 64.7 L 195.0 66.9 L 198.4 66.9" id="32,30" /><path d="M 196.4 58.8 L 196.4 60.0 L 200.8 60.0" id="31,29" /><path d="M 198.4 66.9 L 198.4 65.0 L 202.0 65.0" id="30,28" /><path d="M 198.4 66.9 L 198.4 68.8 L 200.8 68.8" id="30,27" /><path d="M 200.8 68.8 L 200.8 70.0 L 202.3 70.0" id="27,26" /><path d="M 174.1 30.0 L 174.1 29.2 L 210.7 29.2" id="49,25" /><path d="M 174.1 30.0 L 174.1 30.8 L 204.0 30.8" id="49,24" /><path d="M 176.5 34.0 L 176.5 32.5 L 188.4 32.5" id="47,23" /><path d="M 183.8 35.4 L 183.8 34.2 L 203.2 34.2" id="45,22" /><path d="M 190.4 36.7 L 190.4 35.8 L 233.9 35.8" id="42,21" /><path d="M 190.4 36.7 L 190.4 37.5 L 250.3 37.5" id="42,20" /><path d="M 179.7 40.4 L 179.7 39.2 L 214.7 39.2" id="44,19" /><path d="M 187.2 41.7 L 187.2 40.8 L 200.5 40.8" id="41,18" /><path d="M 187.2 41.7 L 187.2 42.5 L 187.2 42.5" id="41,17" /><path d="M 181.6 45.0 L 181.6 44.2 L 196.2 44.2" id="40,16" /><path d="M 181.6 45.0 L 181.6 45.8 L 194.5 45.8" id="40,15" /><path d="M 179.9 50.0 L 179.9 47.5 L 234.9 47.5" id="39,14" /><path d="M 188.7 50.0 L 188.7 49.2 L 202.1 49.2" id="37,13" /><path d="M 188.7 50.0 L 188.7 50.8 L 220.9 50.8" id="37,12" /><path d="M 185.7 55.0 L 185.7 52.5 L 211.9 52.5" id="36,11" /><path d="M 187.6 57.6 L 187.6 54.2 L 213.3 54.2" id="35,10" /><path d="M 195.5 57.3 L 195.5 55.8 L 220.7 55.8" id="33,9" /><path d="M 196.4 58.8 L 196.4 57.5 L 209.9 57.5" id="31,8" /><path d="M 200.8 60.0 L 200.8 59.2 L 215.1 59.2" id="29,7" /><path d="M 200.8 60.0 L 200.8 60.8 L 214.6 60.8" id="29,6" /><path d="M 195.0 64.7 L 195.0 62.5 L 208.0 62.5" id="32,5" /><path d="M 202.0 65.0 L 202.0 64.2 L 208.8 64.2" id="28,4" /><path d="M 202.0 65.0 L 202.0 65.8 L 210.7 65.8" id="28,3" /><path d="M 200.8 68.8 L 200.8 67.5 L 211.4 67.5" id="27,2" /><path d="M 202.3 70.0 L 202.3 69.2 L 209.6 69.2" id="26,1" /><path d="M 202.3 70.0 L 202.3 70.8 L 206.6 70.8" id="26,0" /></g><g class="toytree-Nodes" style="fill:rgb(100%,0%,0%);fill-opacity:1.0;stroke:None;stroke-width:1"><g id="node-0" transform="translate(206.647,70.833)"><circle r="2.5" /></g><g id="node-1" transform="translate(209.587,69.167)"><circle r="2.5" /></g><g id="node-2" transform="translate(211.358,67.500)"><circle r="2.5" /></g><g id="node-3" transform="translate(210.733,65.833)"><circle r="2.5" /></g><g id="node-4" transform="translate(208.781,64.167)"><circle r="2.5" /></g><g id="node-5" transform="translate(208.014,62.500)"><circle r="2.5" /></g><g id="node-6" transform="translate(214.563,60.833)"><circle r="2.5" /></g><g id="node-7" transform="translate(215.069,59.167)"><circle r="2.5" /></g><g id="node-8" transform="translate(209.876,57.500)"><circle r="2.5" /></g><g id="node-9" transform="translate(220.717,55.833)"><circle r="2.5" /></g><g id="node-10" transform="translate(213.326,54.167)"><circle r="2.5" /></g><g id="node-11" transform="translate(211.947,52.500)"><circle r="2.5" /></g><g id="node-12" transform="translate(220.851,50.833)"><circle r="2.5" /></g><g id="node-13" transform="translate(202.054,49.167)"><circle r="2.5" /></g><g id="node-14" transform="translate(234.925,47.500)"><circle r="2.5" /></g><g id="node-15" transform="translate(194.450,45.833)"><circle r="2.5" /></g><g id="node-16" transform="translate(196.165,44.167)"><circle r="2.5" /></g><g id="node-17" transform="translate(187.206,42.500)"><circle r="2.5" /></g><g id="node-18" transform="translate(200.485,40.833)"><circle r="2.5" /></g><g id="node-19" transform="translate(214.745,39.167)"><circle r="2.5" /></g><g id="node-20" transform="translate(250.263,37.500)"><circle r="2.5" /></g><g id="node-21" transform="translate(233.909,35.833)"><circle r="2.5" /></g><g id="node-22" transform="translate(203.196,34.167)"><circle r="2.5" /></g><g id="node-23" transform="translate(188.411,32.500)"><circle r="2.5" /></g><g id="node-24" transform="translate(203.958,30.833)"><circle r="2.5" /></g><g id="node-25" transform="translate(210.669,29.167)"><circle r="2.5" /></g><g id="node-26" transform="translate(202.307,70.000)"><circle r="0.0" /></g><g id="node-27" transform="translate(200.766,68.750)"><circle r="0.0" /></g><g id="node-28" transform="translate(202.011,65.000)"><circle r="0.0" /></g><g id="node-29" transform="translate(200.845,60.000)"><circle r="0.0" /></g><g id="node-30" transform="translate(198.359,66.875)"><circle r="0.0" /></g><g id="node-31" transform="translate(196.438,58.750)"><circle r="0.0" /></g><g id="node-32" transform="translate(194.984,64.688)"><circle r="0.0" /></g><g id="node-33" transform="translate(195.462,57.292)"><circle r="0.0" /></g><g id="node-34" transform="translate(194.095,60.990)"><circle r="0.0" /></g><g id="node-35" transform="translate(187.617,57.578)"><circle r="0.0" /></g><g id="node-36" transform="translate(185.668,55.039)"><circle r="0.0" /></g><g id="node-37" transform="translate(188.708,50.000)"><circle r="0.0" /></g><g id="node-38" transform="translate(182.898,52.520)"><circle r="0.0" /></g><g id="node-39" transform="translate(179.886,50.010)"><circle r="0.0" /></g><g id="node-40" transform="translate(181.574,45.000)"><circle r="0.0" /></g><g id="node-41" transform="translate(187.206,41.667)"><circle r="0.0" /></g><g id="node-42" transform="translate(190.372,36.667)"><circle r="0.0" /></g><g id="node-43" transform="translate(177.112,47.505)"><circle r="0.0" /></g><g id="node-44" transform="translate(179.673,40.417)"><circle r="0.0" /></g><g id="node-45" transform="translate(183.752,35.417)"><circle r="0.0" /></g><g id="node-46" transform="translate(172.618,43.961)"><circle r="0.0" /></g><g id="node-47" transform="translate(176.464,33.958)"><circle r="0.0" /></g><g id="node-48" transform="translate(171.610,38.960)"><circle r="0.0" /></g><g id="node-49" transform="translate(174.135,30.000)"><circle r="0.0" /></g><g id="node-50" transform="translate(165.000,34.480)"><circle r="0.0" /></g></g></g></g></g><g class="toyplot-coordinates-Cartesian" id="tbaf6fa95f91e47be87c1a0c912598e1a"><clipPath id="t661cf082486646f1809812379cfe68df"><rect x="295.0" y="15.0" width="110.0" height="70.0" /></clipPath><g clip-path="url(#t661cf082486646f1809812379cfe68df)"><g class="toytree-mark-Toytree" id="t70635d4ff56d46d8a42c58154129e9b8"><g class="toytree-Edges" style="fill:none;stroke:rgb(14.9%,14.9%,14.9%);stroke-linecap:round;stroke-opacity:1;stroke-width:0.5"><path d="M 305.0 32.2 L 305.0 35.3 L 319.7 35.3" id="50,49" /><path d="M 319.7 35.3 L 319.7 31.7 L 352.2 31.7" id="49,48" /><path d="M 319.7 35.3 L 319.7 38.8 L 320.9 38.8" id="49,47" /><path d="M 320.9 38.8 L 320.9 35.0 L 334.1 35.0" id="47,46" /><path d="M 320.9 38.8 L 320.9 42.7 L 323.1 42.7" id="47,45" /><path d="M 323.1 42.7 L 323.1 38.3 L 329.6 38.3" id="45,44" /><path d="M 323.1 42.7 L 323.1 47.0 L 323.9 47.0" id="45,43" /><path d="M 323.9 47.0 L 323.9 42.3 L 325.7 42.3" id="43,42" /><path d="M 323.9 47.0 L 323.9 51.8 L 324.6 51.8" id="43,41" /><path d="M 325.7 42.3 L 325.7 43.8 L 326.0 43.8" id="42,40" /><path d="M 324.6 51.8 L 324.6 48.8 L 325.8 48.8" id="41,39" /><path d="M 324.6 51.8 L 324.6 54.8 L 328.1 54.8" id="41,38" /><path d="M 326.0 43.8 L 326.0 45.0 L 344.1 45.0" id="40,37" /><path d="M 325.8 48.8 L 325.8 50.0 L 327.6 50.0" id="39,36" /><path d="M 328.1 54.8 L 328.1 57.0 L 335.0 57.0" id="38,35" /><path d="M 335.0 57.0 L 335.0 59.9 L 339.3 59.9" id="35,34" /><path d="M 339.3 59.9 L 339.3 57.1 L 350.6 57.1" id="34,33" /><path d="M 339.3 59.9 L 339.3 62.8 L 342.6 62.8" id="34,32" /><path d="M 350.6 57.1 L 350.6 58.3 L 355.1 58.3" id="33,31" /><path d="M 342.6 62.8 L 342.6 64.7 L 345.6 64.7" id="32,30" /><path d="M 345.6 64.7 L 345.6 66.9 L 346.8 66.9" id="30,29" /><path d="M 346.8 66.9 L 346.8 65.0 L 347.2 65.0" id="29,28" /><path d="M 346.8 66.9 L 346.8 68.8 L 347.9 68.8" id="29,27" /><path d="M 347.9 68.8 L 347.9 70.0 L 349.4 70.0" id="27,26" /><path d="M 305.0 32.2 L 305.0 29.2 L 358.9 29.2" id="50,25" /><path d="M 352.2 31.7 L 352.2 30.8 L 372.9 30.8" id="48,24" /><path d="M 352.2 31.7 L 352.2 32.5 L 372.3 32.5" id="48,23" /><path d="M 334.1 35.0 L 334.1 34.2 L 349.2 34.2" id="46,22" /><path d="M 334.1 35.0 L 334.1 35.8 L 359.5 35.8" id="46,21" /><path d="M 329.6 38.3 L 329.6 37.5 L 349.0 37.5" id="44,20" /><path d="M 329.6 38.3 L 329.6 39.2 L 351.9 39.2" id="44,19" /><path d="M 325.7 42.3 L 325.7 40.8 L 356.7 40.8" id="42,18" /><path d="M 326.0 43.8 L 326.0 42.5 L 360.2 42.5" id="40,17" /><path d="M 344.1 45.0 L 344.1 44.2 L 366.7 44.2" id="37,16" /><path d="M 344.1 45.0 L 344.1 45.8 L 357.3 45.8" id="37,15" /><path d="M 325.8 48.8 L 325.8 47.5 L 356.9 47.5" id="39,14" /><path d="M 327.6 50.0 L 327.6 49.2 L 350.8 49.2" id="36,13" /><path d="M 327.6 50.0 L 327.6 50.8 L 390.3 50.8" id="36,12" /><path d="M 328.1 54.8 L 328.1 52.5 L 357.4 52.5" id="38,11" /><path d="M 335.0 57.0 L 335.0 54.2 L 359.4 54.2" id="35,10" /><path d="M 350.6 57.1 L 350.6 55.8 L 369.1 55.8" id="33,9" /><path d="M 355.1 58.3 L 355.1 57.5 L 361.9 57.5" id="31,8" /><path d="M 355.1 58.3 L 355.1 59.2 L 361.5 59.2" id="31,7" /><path d="M 342.6 62.8 L 342.6 60.8 L 357.9 60.8" id="32,6" /><path d="M 345.6 64.7 L 345.6 62.5 L 355.3 62.5" id="30,5" /><path d="M 347.2 65.0 L 347.2 64.2 L 355.7 64.2" id="28,4" /><path d="M 347.2 65.0 L 347.2 65.8 L 356.6 65.8" id="28,3" /><path d="M 347.9 68.8 L 347.9 67.5 L 357.0 67.5" id="27,2" /><path d="M 349.4 70.0 L 349.4 69.2 L 357.7 69.2" id="26,1" /><path d="M 349.4 70.0 L 349.4 70.8 L 357.4 70.8" id="26,0" /></g><g class="toytree-Nodes" style="fill:rgb(100%,0%,0%);fill-opacity:1.0;stroke:None;stroke-width:1"><g id="node-0" transform="translate(357.363,70.833)"><circle r="2.5" /></g><g id="node-1" transform="translate(357.679,69.167)"><circle r="2.5" /></g><g id="node-2" transform="translate(356.964,67.500)"><circle r="2.5" /></g><g id="node-3" transform="translate(356.614,65.833)"><circle r="2.5" /></g><g id="node-4" transform="translate(355.738,64.167)"><circle r="2.5" /></g><g id="node-5" transform="translate(355.343,62.500)"><circle r="2.5" /></g><g id="node-6" transform="translate(357.947,60.833)"><circle r="2.5" /></g><g id="node-7" transform="translate(361.463,59.167)"><circle r="2.5" /></g><g id="node-8" transform="translate(361.911,57.500)"><circle r="2.5" /></g><g id="node-9" transform="translate(369.084,55.833)"><circle r="2.5" /></g><g id="node-10" transform="translate(359.383,54.167)"><circle r="2.5" /></g><g id="node-11" transform="translate(357.402,52.500)"><circle r="2.5" /></g><g id="node-12" transform="translate(390.263,50.833)"><circle r="2.5" /></g><g id="node-13" transform="translate(350.810,49.167)"><circle r="2.5" /></g><g id="node-14" transform="translate(356.893,47.500)"><circle r="2.5" /></g><g id="node-15" transform="translate(357.256,45.833)"><circle r="2.5" /></g><g id="node-16" transform="translate(366.741,44.167)"><circle r="2.5" /></g><g id="node-17" transform="translate(360.186,42.500)"><circle r="2.5" /></g><g id="node-18" transform="translate(356.721,40.833)"><circle r="2.5" /></g><g id="node-19" transform="translate(351.898,39.167)"><circle r="2.5" /></g><g id="node-20" transform="translate(348.997,37.500)"><circle r="2.5" /></g><g id="node-21" transform="translate(359.478,35.833)"><circle r="2.5" /></g><g id="node-22" transform="translate(349.199,34.167)"><circle r="2.5" /></g><g id="node-23" transform="translate(372.272,32.500)"><circle r="2.5" /></g><g id="node-24" transform="translate(372.909,30.833)"><circle r="2.5" /></g><g id="node-25" transform="translate(358.865,29.167)"><circle r="2.5" /></g><g id="node-26" transform="translate(349.406,70.000)"><circle r="0.0" /></g><g id="node-27" transform="translate(347.929,68.750)"><circle r="0.0" /></g><g id="node-28" transform="translate(347.233,65.000)"><circle r="0.0" /></g><g id="node-29" transform="translate(346.781,66.875)"><circle r="0.0" /></g><g id="node-30" transform="translate(345.571,64.688)"><circle r="0.0" /></g><g id="node-31" transform="translate(355.117,58.333)"><circle r="0.0" /></g><g id="node-32" transform="translate(342.552,62.760)"><circle r="0.0" /></g><g id="node-33" transform="translate(350.579,57.083)"><circle r="0.0" /></g><g id="node-34" transform="translate(339.267,59.922)"><circle r="0.0" /></g><g id="node-35" transform="translate(334.999,57.044)"><circle r="0.0" /></g><g id="node-36" transform="translate(327.553,50.000)"><circle r="0.0" /></g><g id="node-37" transform="translate(344.090,45.000)"><circle r="0.0" /></g><g id="node-38" transform="translate(328.130,54.772)"><circle r="0.0" /></g><g id="node-39" transform="translate(325.823,48.750)"><circle r="0.0" /></g><g id="node-40" transform="translate(326.010,43.750)"><circle r="0.0" /></g><g id="node-41" transform="translate(324.633,51.761)"><circle r="0.0" /></g><g id="node-42" transform="translate(325.740,42.292)"><circle r="0.0" /></g><g id="node-43" transform="translate(323.923,47.026)"><circle r="0.0" /></g><g id="node-44" transform="translate(329.595,38.333)"><circle r="0.0" /></g><g id="node-45" transform="translate(323.139,42.680)"><circle r="0.0" /></g><g id="node-46" transform="translate(334.082,35.000)"><circle r="0.0" /></g><g id="node-47" transform="translate(320.896,38.840)"><circle r="0.0" /></g><g id="node-48" transform="translate(352.175,31.667)"><circle r="0.0" /></g><g id="node-49" transform="translate(319.667,35.253)"><circle r="0.0" /></g><g id="node-50" transform="translate(305.000,32.210)"><circle r="0.0" /></g></g></g></g></g><g class="toyplot-coordinates-Cartesian" id="t8d9215099b8f4fc99b68c330802f5274"><clipPath id="t42c636469da24a68acd0c8d7719983c8"><rect x="435.0" y="15.0" width="110.0" height="70.0" /></clipPath><g clip-path="url(#t42c636469da24a68acd0c8d7719983c8)"><g class="toytree-mark-Toytree" id="tb1bc4cd6b96a4c73b7e635b2009f060a"><g class="toytree-Edges" style="fill:none;stroke:rgb(14.9%,14.9%,14.9%);stroke-linecap:round;stroke-opacity:1;stroke-width:0.5"><path d="M 445.0 32.0 L 445.0 34.8 L 457.8 34.8" id="50,49" /><path d="M 457.8 34.8 L 457.8 31.7 L 489.4 31.7" id="49,48" /><path d="M 457.8 34.8 L 457.8 38.0 L 459.8 38.0" id="49,47" /><path d="M 459.8 38.0 L 459.8 35.0 L 474.3 35.0" id="47,46" /><path d="M 459.8 38.0 L 459.8 41.0 L 461.8 41.0" id="47,45" /><path d="M 461.8 41.0 L 461.8 38.3 L 469.5 38.3" id="45,44" /><path d="M 461.8 41.0 L 461.8 43.7 L 462.3 43.7" id="45,43" /><path d="M 462.3 43.7 L 462.3 46.7 L 463.0 46.7" id="43,42" /><path d="M 463.0 46.7 L 463.0 50.8 L 463.4 50.8" id="42,41" /><path d="M 463.4 50.8 L 463.4 46.9 L 464.5 46.9" id="41,40" /><path d="M 463.4 50.8 L 463.4 54.8 L 467.2 54.8" id="41,39" /><path d="M 464.5 46.9 L 464.5 45.0 L 466.7 45.0" id="40,38" /><path d="M 464.5 46.9 L 464.5 48.8 L 465.1 48.8" id="40,37" /><path d="M 467.2 54.8 L 467.2 57.0 L 474.5 57.0" id="39,36" /><path d="M 465.1 48.8 L 465.1 50.0 L 484.4 50.0" id="37,35" /><path d="M 474.5 57.0 L 474.5 59.9 L 479.1 59.9" id="36,34" /><path d="M 479.1 59.9 L 479.1 57.1 L 491.4 57.1" id="34,33" /><path d="M 479.1 59.9 L 479.1 62.8 L 483.5 62.8" id="34,32" /><path d="M 491.4 57.1 L 491.4 58.3 L 497.6 58.3" id="33,31" /><path d="M 483.5 62.8 L 483.5 64.7 L 487.3 64.7" id="32,30" /><path d="M 487.3 64.7 L 487.3 66.9 L 488.6 66.9" id="30,29" /><path d="M 488.6 66.9 L 488.6 65.0 L 489.4 65.0" id="29,28" /><path d="M 488.6 66.9 L 488.6 68.8 L 489.9 68.8" id="29,27" /><path d="M 489.9 68.8 L 489.9 70.0 L 491.6 70.0" id="27,26" /><path d="M 445.0 32.0 L 445.0 29.2 L 503.5 29.2" id="50,25" /><path d="M 489.4 31.7 L 489.4 30.8 L 514.9 30.8" id="48,24" /><path d="M 489.4 31.7 L 489.4 32.5 L 514.3 32.5" id="48,23" /><path d="M 474.3 35.0 L 474.3 34.2 L 494.2 34.2" id="46,22" /><path d="M 474.3 35.0 L 474.3 35.8 L 504.3 35.8" id="46,21" /><path d="M 469.5 38.3 L 469.5 37.5 L 493.7 37.5" id="44,20" /><path d="M 469.5 38.3 L 469.5 39.2 L 496.6 39.2" id="44,19" /><path d="M 462.3 43.7 L 462.3 40.8 L 530.3 40.8" id="43,18" /><path d="M 463.0 46.7 L 463.0 42.5 L 500.5 42.5" id="42,17" /><path d="M 466.7 45.0 L 466.7 44.2 L 505.5 44.2" id="38,16" /><path d="M 466.7 45.0 L 466.7 45.8 L 495.7 45.8" id="38,15" /><path d="M 465.1 48.8 L 465.1 47.5 L 502.2 47.5" id="37,14" /><path d="M 484.4 50.0 L 484.4 49.2 L 511.3 49.2" id="35,13" /><path d="M 484.4 50.0 L 484.4 50.8 L 502.1 50.8" id="35,12" /><path d="M 467.2 54.8 L 467.2 52.5 L 502.1 52.5" id="39,11" /><path d="M 474.5 57.0 L 474.5 54.2 L 504.2 54.2" id="36,10" /><path d="M 491.4 57.1 L 491.4 55.8 L 513.9 55.8" id="33,9" /><path d="M 497.6 58.3 L 497.6 57.5 L 506.4 57.5" id="31,8" /><path d="M 497.6 58.3 L 497.6 59.2 L 506.1 59.2" id="31,7" /><path d="M 483.5 62.8 L 483.5 60.8 L 502.7 60.8" id="32,6" /><path d="M 487.3 64.7 L 487.3 62.5 L 500.0 62.5" id="30,5" /><path d="M 489.4 65.0 L 489.4 64.2 L 500.5 64.2" id="28,4" /><path d="M 489.4 65.0 L 489.4 65.8 L 501.4 65.8" id="28,3" /><path d="M 489.9 68.8 L 489.9 67.5 L 501.6 67.5" id="27,2" /><path d="M 491.6 70.0 L 491.6 69.2 L 502.3 69.2" id="26,1" /><path d="M 491.6 70.0 L 491.6 70.8 L 501.9 70.8" id="26,0" /></g><g class="toytree-Nodes" style="fill:rgb(100%,0%,0%);fill-opacity:1.0;stroke:None;stroke-width:1"><g id="node-0" transform="translate(501.919,70.833)"><circle r="2.5" /></g><g id="node-1" transform="translate(502.291,69.167)"><circle r="2.5" /></g><g id="node-2" transform="translate(501.636,67.500)"><circle r="2.5" /></g><g id="node-3" transform="translate(501.369,65.833)"><circle r="2.5" /></g><g id="node-4" transform="translate(500.463,64.167)"><circle r="2.5" /></g><g id="node-5" transform="translate(500.046,62.500)"><circle r="2.5" /></g><g id="node-6" transform="translate(502.741,60.833)"><circle r="2.5" /></g><g id="node-7" transform="translate(506.055,59.167)"><circle r="2.5" /></g><g id="node-8" transform="translate(506.361,57.500)"><circle r="2.5" /></g><g id="node-9" transform="translate(513.935,55.833)"><circle r="2.5" /></g><g id="node-10" transform="translate(504.188,54.167)"><circle r="2.5" /></g><g id="node-11" transform="translate(502.118,52.500)"><circle r="2.5" /></g><g id="node-12" transform="translate(502.056,50.833)"><circle r="2.5" /></g><g id="node-13" transform="translate(511.332,49.167)"><circle r="2.5" /></g><g id="node-14" transform="translate(502.187,47.500)"><circle r="2.5" /></g><g id="node-15" transform="translate(495.701,45.833)"><circle r="2.5" /></g><g id="node-16" transform="translate(505.504,44.167)"><circle r="2.5" /></g><g id="node-17" transform="translate(500.518,42.500)"><circle r="2.5" /></g><g id="node-18" transform="translate(530.263,40.833)"><circle r="2.5" /></g><g id="node-19" transform="translate(496.620,39.167)"><circle r="2.5" /></g><g id="node-20" transform="translate(493.668,37.500)"><circle r="2.5" /></g><g id="node-21" transform="translate(504.334,35.833)"><circle r="2.5" /></g><g id="node-22" transform="translate(494.238,34.167)"><circle r="2.5" /></g><g id="node-23" transform="translate(514.317,32.500)"><circle r="2.5" /></g><g id="node-24" transform="translate(514.877,30.833)"><circle r="2.5" /></g><g id="node-25" transform="translate(503.467,29.167)"><circle r="2.5" /></g><g id="node-26" transform="translate(491.595,70.000)"><circle r="0.0" /></g><g id="node-27" transform="translate(489.861,68.750)"><circle r="0.0" /></g><g id="node-28" transform="translate(489.362,65.000)"><circle r="0.0" /></g><g id="node-29" transform="translate(488.629,66.875)"><circle r="0.0" /></g><g id="node-30" transform="translate(487.306,64.688)"><circle r="0.0" /></g><g id="node-31" transform="translate(497.637,58.333)"><circle r="0.0" /></g><g id="node-32" transform="translate(483.516,62.760)"><circle r="0.0" /></g><g id="node-33" transform="translate(491.406,57.083)"><circle r="0.0" /></g><g id="node-34" transform="translate(479.087,59.922)"><circle r="0.0" /></g><g id="node-35" transform="translate(484.386,50.000)"><circle r="0.0" /></g><g id="node-36" transform="translate(474.495,57.044)"><circle r="0.0" /></g><g id="node-37" transform="translate(465.112,48.750)"><circle r="0.0" /></g><g id="node-38" transform="translate(466.709,45.000)"><circle r="0.0" /></g><g id="node-39" transform="translate(467.250,54.772)"><circle r="0.0" /></g><g id="node-40" transform="translate(464.535,46.875)"><circle r="0.0" /></g><g id="node-41" transform="translate(463.372,50.824)"><circle r="0.0" /></g><g id="node-42" transform="translate(462.990,46.662)"><circle r="0.0" /></g><g id="node-43" transform="translate(462.293,43.748)"><circle r="0.0" /></g><g id="node-44" transform="translate(469.479,38.333)"><circle r="0.0" /></g><g id="node-45" transform="translate(461.840,41.040)"><circle r="0.0" /></g><g id="node-46" transform="translate(474.289,35.000)"><circle r="0.0" /></g><g id="node-47" transform="translate(459.842,38.020)"><circle r="0.0" /></g><g id="node-48" transform="translate(489.437,31.667)"><circle r="0.0" /></g><g id="node-49" transform="translate(457.753,34.843)"><circle r="0.0" /></g><g id="node-50" transform="translate(445.000,32.005)"><circle r="0.0" /></g></g></g></g></g></svg>