<svg class="toyplot-canvas-Canvas" xmlns:toyplot="http://www.sandia.gov/toyplot" xmlns:xlink="http://www.w3.org/1999/xlink" xmlns="http://www.w3.org/2000/svg" width="560.0px" height="100.0px" viewBox="0 0 560.0 100.0" preserveAspectRatio="xMidYMid meet" style="background-color:transparent;border-color:#292724;border-style:none;border-width:1.0;fill:rgb(16.1%,15.3%,14.1%);fill-opacity:1.0;font-family:Helvetica;font-size:12px;opacity:1.0;stroke:rgb(16.1%,15.3%,14.1%);stroke-opacity:1.0;stroke-width:1.0" id="ta135cf7bca704069b3ffc3dfad891cc8"><g class="toyplot-coordinates-Cartesian" id="t7cb09598878242a09192a8bd4366932b"><clipPath id="tcf9f2718bb314d309f63d6868080dfc6"><rect x="15.0" y="15.0" width="110.0" height="70.0" /></clipPath><g clip-path="url(#tcf9f2718bb314d309f63d6868080dfc6)"><g class="toytree-mark-Toytree" id="t81a8c1c2ca2a4c03829e4f22ecd84fa3"><g class="toytree-Edges" style="fill:none;stroke:rgb(14.9%,14.9%,14.9%);stroke-linecap:round;stroke-opacity:1;stroke-width:0.5"><path d="M 25.0 35.1 L 25.0 41.0 L 28.3 41.0" id="20,19" /><path d="M 28.3 41.0 L 28.3 35.4 L 29.1 35.4" id="19,18" /><path d="M 28.3 41.0 L 28.3 46.5 L 44.9 46.5" id="19,17" /><path d="M 44.9 46.5 L 44.9 51.4 L 57.0 51.4" id="17,16" /><path d="M 57.0 51.4 L 57.0 57.0 L 78.1 57.0" id="16,15" /><path d="M 78.1 57.0 L 78.1 52.1 L 95.4 52.1" id="15,14" /><path d="M 78.1 57.0 L 78.1 62.0 L 81.5 62.0" id="15,13" /><path d="M 81.5 62.0 L 81.5 65.6 L 97.7 65.6" id="13,12" /><path d="M 97.7 65.6 L 97.7 68.8 L 98.8 68.8" id="12,11" /><path d="M 25.0 35.1 L 25.0 29.2 L 101.5 29.2" id="20,10" /><path d="M 29.1 35.4 L 29.1 33.3 L 89.8 33.3" id="18,9" /><path d="M 29.1 35.4 L 29.1 37.5 L 110.3 37.5" id="18,8" /><path d="M 44.9 46.5 L 44.9 41.7 L 106.3 41.7" id="17,7" /><path d="M 57.0 51.4 L 57.0 45.8 L 101.2 45.8" id="16,6" /><path d="M 95.4 52.1 L 95.4 50.0 L 104.4 50.0" id="14,5" /><path d="M 95.4 52.1 L 95.4 54.2 L 103.1 54.2" id="14,4" /><path d="M 81.5 62.0 L 81.5 58.3 L 106.9 58.3" id="13,3" /><path d="M 97.7 65.6 L 97.7 62.5 L 98.5 62.5" id="12,2" /><path d="M 98.8 68.8 L 98.8 66.7 L 98.9 66.7" id="11,1" /><path d="M 98.8 68.8 L 98.8 70.8 L 99.4 70.8" id="11,0" /></g><g class="toytree-Nodes" style="fill:rgb(100%,0%,0%);fill-opacity:1.0;stroke:None;stroke-width:1"><g id="node-0" transform="translate(99.362,70.833)"><circle r="2.5" /></g><g id="node-1" transform="translate(98.886,66.667)"><circle r="2.5" /></g><g id="node-2" transform="translate(98.459,62.500)"><circle r="2.5" /></g><g id="node-3" transform="translate(106.877,58.333)"><circle r="2.5" /></g><g id="node-4" transform="translate(103.085,54.167)"><circle r="2.5" /></g><g id="node-5" transform="translate(104.375,50.000)"><circle r="2.5" /></g><g id="node-6" transform="translate(101.185,45.833)"><circle r="2.5" /></g><g id="node-7" transform="translate(106.348,41.667)"><circle r="2.5" /></g><g id="node-8" transform="translate(110.263,37.500)"><circle r="2.5" /></g><g id="node-9" transform="translate(89.786,33.333)"><circle r="2.5" /></g><g id="node-10" transform="translate(101.461,29.167)"><circle r="2.5" /></g><g id="node-11" transform="translate(98.794,68.750)"><circle r="0.0" /></g><g id="node-12" transform="translate(97.691,65.625)"><circle r="0.0" /></g><g id="node-13" transform="translate(81.532,61.979)"><circle r="0.0" /></g><g id="node-14" transform="translate(95.363,52.083)"><circle r="0.0" /></g><g id="node-15" transform="translate(78.121,57.031)"><circle r="0.0" /></g><g id="node-16" transform="translate(56.972,51.432)"><circle r="0.0" /></g><g id="node-17" transform="translate(44.873,46.549)"><circle r="0.0" /></g><g id="node-18" transform="translate(29.126,35.417)"><circle r="0.0" /></g><g id="node-19" transform="translate(28.320,40.983)"><circle r="0.0" /></g><g id="node-20" transform="translate(25.000,35.075)"><circle r="0.0" /></g></g></g></g></g><g class="toyplot-coordinates-Cartesian" id="t49df42c1309b44c0a70c8db704eca1ab"><clipPath id="t9de502b4aeea496aa2026b847848db98"><rect x="155.0" y="15.0" width="110.0" height="70.0" /></clipPath><g clip-path="url(#t9de502b4aeea496aa2026b847848db98)"><g class="toytree-mark-Toytree" id="tda0a1fd2d462472fa6ae4c6edf2f4dd1"><g class="toytree-Edges" style="fill:none;stroke:rgb(14.9%,14.9%,14.9%);stroke-linecap:round;stroke-opacity:1;stroke-width:0.5"><path d="M 165.0 39.3 L 165.0 31.2 L 169.7 31.2" id="20,19" /><path d="M 165.0 39.3 L 165.0 47.3 L 168.4 47.3" id="20,18" /><path d="M 168.4 47.3 L 168.4 40.6 L 173.3 40.6" id="18,17" /><path d="M 168.4 47.3 L 168.4 54.0 L 170.9 54.0" id="18,16" /><path d="M 173.3 40.6 L 173.3 43.8 L 177.0 43.8" id="17,15" /><path d="M 170.9 54.0 L 170.9 58.1 L 172.6 58.1" id="16,14" /><path d="M 172.6 58.1 L 172.6 62.0 L 173.9 62.0" id="14,13" /><path d="M 173.9 62.0 L 173.9 65.6 L 178.4 65.6" id="13,12" /><path d="M 178.4 65.6 L 178.4 68.8 L 180.8 68.8" id="12,11" /><path d="M 169.7 31.2 L 169.7 29.2 L 234.6 29.2" id="19,10" /><path d="M 169.7 31.2 L 169.7 33.3 L 233.3 33.3" id="19,9" /><path d="M 173.3 40.6 L 173.3 37.5 L 250.3 37.5" id="17,8" /><path d="M 177.0 43.8 L 177.0 41.7 L 235.9 41.7" id="15,7" /><path d="M 177.0 43.8 L 177.0 45.8 L 230.6 45.8" id="15,6" /><path d="M 170.9 54.0 L 170.9 50.0 L 239.0 50.0" id="16,5" /><path d="M 172.6 58.1 L 172.6 54.2 L 234.2 54.2" id="14,4" /><path d="M 173.9 62.0 L 173.9 58.3 L 229.6 58.3" id="13,3" /><path d="M 178.4 65.6 L 178.4 62.5 L 233.1 62.5" id="12,2" /><path d="M 180.8 68.8 L 180.8 66.7 L 229.0 66.7" id="11,1" /><path d="M 180.8 68.8 L 180.8 70.8 L 228.9 70.8" id="11,0" /></g><g class="toytree-Nodes" style="fill:rgb(100%,0%,0%);fill-opacity:1.0;stroke:None;stroke-width:1"><g id="node-0" transform="translate(228.856,70.833)"><circle r="2.5" /></g><g id="node-1" transform="translate(229.043,66.667)"><circle r="2.5" /></g><g id="node-2" transform="translate(233.066,62.500)"><circle r="2.5" /></g><g id="node-3" transform="translate(229.628,58.333)"><circle r="2.5" /></g><g id="node-4" transform="translate(234.209,54.167)"><circle r="2.5" /></g><g id="node-5" transform="translate(239.007,50.000)"><circle r="2.5" /></g><g id="node-6" transform="translate(230.555,45.833)"><circle r="2.5" /></g><g id="node-7" transform="translate(235.902,41.667)"><circle r="2.5" /></g><g id="node-8" transform="translate(250.263,37.500)"><circle r="2.5" /></g><g id="node-9" transform="translate(233.346,33.333)"><circle r="2.5" /></g><g id="node-10" transform="translate(234.580,29.167)"><circle r="2.5" /></g><g id="node-11" transform="translate(180.839,68.750)"><circle r="0.0" /></g><g id="node-12" transform="translate(178.378,65.625)"><circle r="0.0" /></g><g id="node-13" transform="translate(173.906,61.979)"><circle r="0.0" /></g><g id="node-14" transform="translate(172.553,58.073)"><circle r="0.0" /></g><g id="node-15" transform="translate(177.015,43.750)"><circle r="0.0" /></g><g id="node-16" transform="translate(170.887,54.036)"><circle r="0.0" /></g><g id="node-17" transform="translate(173.254,40.625)"><circle r="0.0" /></g><g id="node-18" transform="translate(168.362,47.331)"><circle r="0.0" /></g><g id="node-19" transform="translate(169.666,31.250)"><circle r="0.0" /></g><g id="node-20" transform="translate(165.000,39.290)"><circle r="0.0" /></g></g></g></g></g><g class="toyplot-coordinates-Cartesian" id="ta55952c2e4c2483aab952e4c9554378c"><clipPath id="t396b22d02ccb4f61a9f744493975d65e"><rect x="295.0" y="15.0" width="110.0" height="70.0" /></clipPath><g clip-path="url(#t396b22d02ccb4f61a9f744493975d65e)"><g class="toytree-mark-Toytree" id="tea7b059ce0ca420c9bda05647c42188e"><g class="toytree-Edges" style="fill:none;stroke:rgb(14.9%,14.9%,14.9%);stroke-linecap:round;stroke-opacity:1;stroke-width:0.5"><path d="M 305.0 33.4 L 305.0 37.6 L 306.3 37.6" id="20,19" /><path d="M 306.3 37.6 L 306.3 41.8 L 308.5 41.8" id="19,18" /><path d="M 308.5 41.8 L 308.5 46.2 L 315.8 46.2" id="18,17" /><path d="M 315.8 46.2 L 315.8 50.7 L 319.9 50.7" id="17,16" /><path d="M 319.9 50.7 L 319.9 55.5 L 326.5 55.5" id="16,15" /><path d="M 326.5 55.5 L 326.5 60.9 L 332.5 60.9" id="15,14" /><path d="M 332.5 60.9 L 332.5 56.2 L 336.1 56.2" id="14,13" /><path d="M 332.5 60.9 L 332.5 65.6 L 338.7 65.6" id="14,12" /><path d="M 338.7 65.6 L 338.7 68.8 L 344.3 68.8" id="12,11" /><path d="M 305.0 33.4 L 305.0 29.2 L 369.0 29.2" id="20,10" /><path d="M 306.3 37.6 L 306.3 33.3 L 369.8 33.3" id="19,9" /><path d="M 308.5 41.8 L 308.5 37.5 L 363.2 37.5" id="18,8" /><path d="M 315.8 46.2 L 315.8 41.7 L 371.3 41.7" id="17,7" /><path d="M 319.9 50.7 L 319.9 45.8 L 363.8 45.8" id="16,6" /><path d="M 326.5 55.5 L 326.5 50.0 L 361.6 50.0" id="15,5" /><path d="M 336.1 56.2 L 336.1 54.2 L 368.7 54.2" id="13,4" /><path d="M 336.1 56.2 L 336.1 58.3 L 356.7 58.3" id="13,3" /><path d="M 338.7 65.6 L 338.7 62.5 L 374.9 62.5" id="12,2" /><path d="M 344.3 68.8 L 344.3 66.7 L 390.3 66.7" id="11,1" /><path d="M 344.3 68.8 L 344.3 70.8 L 383.9 70.8" id="11,0" /></g><g class="toytree-Nodes" style="fill:rgb(100%,0%,0%);fill-opacity:1.0;stroke:None;stroke-width:1"><g id="node-0" transform="translate(383.867,70.833)"><circle r="2.5" /></g><g id="node-1" transform="translate(390.263,66.667)"><circle r="2.5" /></g><g id="node-2" transform="translate(374.890,62.500)"><circle r="2.5" /></g><g id="node-3" transform="translate(356.714,58.333)"><circle r="2.5" /></g><g id="node-4" transform="translate(368.665,54.167)"><circle r="2.5" /></g><g id="node-5" transform="translate(361.606,50.000)"><circle r="2.5" /></g><g id="node-6" transform="translate(363.799,45.833)"><circle r="2.5" /></g><g id="node-7" transform="translate(371.331,41.667)"><circle r="2.5" /></g><g id="node-8" transform="translate(363.221,37.500)"><circle r="2.5" /></g><g id="node-9" transform="translate(369.808,33.333)"><circle r="2.5" /></g><g id="node-10" transform="translate(369.032,29.167)"><circle r="2.5" /></g><g id="node-11" transform="translate(344.349,68.750)"><circle r="0.0" /></g><g id="node-12" transform="translate(338.721,65.625)"><circle r="0.0" /></g><g id="node-13" transform="translate(336.061,56.250)"><circle r="0.0" /></g><g id="node-14" transform="translate(332.463,60.938)"><circle r="0.0" /></g><g id="node-15" transform="translate(326.520,55.469)"><circle r="0.0" /></g><g id="node-16" transform="translate(319.887,50.651)"><circle r="0.0" /></g><g id="node-17" transform="translate(315.829,46.159)"><circle r="0.0" /></g><g id="node-18" transform="translate(308.540,41.829)"><circle r="0.0" /></g><g id="node-19" transform="translate(306.288,37.581)"><circle r="0.0" /></g><g id="node-20" transform="translate(305.000,33.374)"><circle r="0.0" /></g></g></g></g></g><g class="toyplot-coordinates-Cartesian" id="td6b713dceb4449d5bddc519a431addea"><clipPath id="t907ff9d1c99f460dbc43d1d398d856bc"><rect x="435.0" y="15.0" width="110.0" height="70.0" /></clipPath><g clip-path="url(#t907ff9d1c99f460dbc43d1d398d856bc)"><g class="toytree-mark-Toytree" id="ta66f6c6839e74b04bafdec0a6dbc28d4"><g class="toytree-Edges" style="fill:none;stroke:rgb(14.9%,14.9%,14.9%);stroke-linecap:round;stroke-opacity:1;stroke-width:0.5"><path d="M 445.0 39.2 L 445.0 32.3 L 454.3 32.3" id="20,19" /><path d="M 445.0 39.2 L 445.0 46.2 L 469.1 46.2" id="20,18" /><path d="M 454.3 32.3 L 454.3 35.4 L 462.9 35.4" id="19,17" /><path d="M 469.1 46.2 L 469.1 50.7 L 484.9 50.7" id="18,16" /><path d="M 484.9 50.7 L 484.9 55.5 L 495.3 55.5" id="16,15" /><path d="M 495.3 55.5 L 495.3 60.9 L 498.2 60.9" id="15,14" /><path d="M 498.2 60.9 L 498.2 56.2 L 507.8 56.2" id="14,13" /><path d="M 498.2 60.9 L 498.2 65.6 L 501.5 65.6" id="14,12" /><path d="M 501.5 65.6 L 501.5 68.8 L 501.7 68.8" id="12,11" /><path d="M 454.3 32.3 L 454.3 29.2 L 483.5 29.2" id="19,10" /><path d="M 462.9 35.4 L 462.9 33.3 L 525.9 33.3" id="17,9" /><path d="M 462.9 35.4 L 462.9 37.5 L 530.3 37.5" id="17,8" /><path d="M 469.1 46.2 L 469.1 41.7 L 504.9 41.7" id="18,7" /><path d="M 484.9 50.7 L 484.9 45.8 L 508.5 45.8" id="16,6" /><path d="M 495.3 55.5 L 495.3 50.0 L 503.5 50.0" id="15,5" /><path d="M 507.8 56.2 L 507.8 54.2 L 510.3 54.2" id="13,4" /><path d="M 507.8 56.2 L 507.8 58.3 L 510.6 58.3" id="13,3" /><path d="M 501.5 65.6 L 501.5 62.5 L 501.8 62.5" id="12,2" /><path d="M 501.7 68.8 L 501.7 66.7 L 501.7 66.7" id="11,1" /><path d="M 501.7 68.8 L 501.7 70.8 L 501.9 70.8" id="11,0" /></g><g class="toytree-Nodes" style="fill:rgb(100%,0%,0%);fill-opacity:1.0;stroke:None;stroke-width:1"><g id="node-0" transform="translate(501.906,70.833)"><circle r="2.5" /></g><g id="node-1" transform="translate(501.727,66.667)"><circle r="2.5" /></g><g id="node-2" transform="translate(501.775,62.500)"><circle r="2.5" /></g><g id="node-3" transform="translate(510.618,58.333)"><circle r="2.5" /></g><g id="node-4" transform="translate(510.274,54.167)"><circle r="2.5" /></g><g id="node-5" transform="translate(503.496,50.000)"><circle r="2.5" /></g><g id="node-6" transform="translate(508.521,45.833)"><circle r="2.5" /></g><g id="node-7" transform="translate(504.858,41.667)"><circle r="2.5" /></g><g id="node-8" transform="translate(530.263,37.500)"><circle r="2.5" /></g><g id="node-9" transform="translate(525.882,33.333)"><circle r="2.5" /></g><g id="node-10" transform="translate(483.510,29.167)"><circle r="2.5" /></g><g id="node-11" transform="translate(501.727,68.750)"><circle r="0.0" /></g><g id="node-12" transform="translate(501.482,65.625)"><circle r="0.0" /></g><g id="node-13" transform="translate(507.805,56.250)"><circle r="0.0" /></g><g id="node-14" transform="translate(498.218,60.938)"><circle r="0.0" /></g><g id="node-15" transform="translate(495.263,55.469)"><circle r="0.0" /></g><g id="node-16" transform="translate(484.926,50.651)"><circle r="0.0" /></g><g id="node-17" transform="translate(462.899,35.417)"><circle r="0.0" /></g><g id="node-18" transform="translate(469.112,46.159)"><circle r="0.0" /></g><g id="node-19" transform="translate(454.271,32.292)"><circle r="0.0" /></g><g id="node-20" transform="translate(445.000,39.225)"><circle r="0.0" /></g></g></g></g></g></svg>