<svg class="toyplot-canvas-Canvas" xmlns:toyplot="http://www.sandia.gov/toyplot" xmlns:xlink="http://www.w3.org/1999/xlink" xmlns="http://www.w3.org/2000/svg" width="560.0px" height="100.0px" viewBox="0 0 560.0 100.0" preserveAspectRatio="xMidYMid meet" style="background-color:transparent;border-color:#292724;border-style:none;border-width:1.0;fill:rgb(16.1%,15.3%,14.1%);fill-opacity:1.0;font-family:Helvetica;font-size:12px;opacity:1.0;stroke:rgb(16.1%,15.3%,14.1%);stroke-opacity:1.0;stroke-width:1.0" id="tdd19407206fb41a2a862935d486acba2"><g class="toyplot-coordinates-Cartesian" id="tacf6fb147a4d4a4686ea747c6ffc70e1"><clipPath id="t9e88bb869a394f5cab53d83b1fb63a9e"><rect x="15.0" y="15.0" width="110.0" height="70.0" /></clipPath><g clip-path="url(#t9e88bb869a394f5cab53d83b1fb63a9e)"><g class="toytree-mark-Toytree" id="td031f5b380f4411ba820680afe425054"><g class="toytree-Edges" style="fill:none;stroke:rgb(14.9%,14.9%,14.9%);stroke-linecap:round;stroke-opacity:1;stroke-width:0.5"><path d="M 25.0 33.5 L 25.0 30.1 L 84.9 30.1" id="44,43" /><path d="M 25.0 33.5 L 25.0 36.8 L 31.6 36.8" id="44,42" /><path d="M 31.6 36.8 L 31.6 40.6 L 36.4 40.6" id="42,41" /><path d="M 36.4 40.6 L 36.4 46.4 L 40.1 46.4" id="41,40" /><path d="M 40.1 46.4 L 40.1 39.8 L 42.8 39.8" id="40,39" /><path d="M 40.1 46.4 L 40.1 53.0 L 51.6 53.0" id="40,38" /><path d="M 42.8 39.8 L 42.8 37.7 L 49.8 37.7" id="39,37" /><path d="M 42.8 39.8 L 42.8 42.0 L 44.8 42.0" id="39,36" /><path d="M 51.6 53.0 L 51.6 47.9 L 56.8 47.9" id="38,35" /><path d="M 51.6 53.0 L 51.6 58.1 L 60.1 58.1" id="38,34" /><path d="M 44.8 42.0 L 44.8 43.4 L 50.6 43.4" id="36,33" /><path d="M 56.8 47.9 L 56.8 49.5 L 60.5 49.5" id="35,32" /><path d="M 60.1 58.1 L 60.1 54.7 L 78.9 54.7" id="34,31" /><path d="M 60.1 58.1 L 60.1 61.5 L 69.7 61.5" id="34,30" /><path d="M 60.5 49.5 L 60.5 50.9 L 65.9 50.9" id="32,29" /><path d="M 69.7 61.5 L 69.7 58.5 L 87.6 58.5" id="30,28" /><path d="M 69.7 61.5 L 69.7 64.6 L 70.5 64.6" id="30,27" /><path d="M 70.5 64.6 L 70.5 62.3 L 78.7 62.3" id="27,26" /><path d="M 70.5 64.6 L 70.5 66.8 L 76.2 66.8" id="27,25" /><path d="M 76.2 66.8 L 76.2 68.5 L 92.9 68.5" id="25,24" /><path d="M 92.9 68.5 L 92.9 69.9 L 92.9 69.9" id="24,23" /><path d="M 84.9 30.1 L 84.9 29.2 L 90.6 29.2" id="43,22" /><path d="M 84.9 30.1 L 84.9 31.1 L 90.1 31.1" id="43,21" /><path d="M 31.6 36.8 L 31.6 33.0 L 77.7 33.0" id="42,20" /><path d="M 36.4 40.6 L 36.4 34.8 L 103.8 34.8" id="41,19" /><path d="M 49.8 37.7 L 49.8 36.7 L 90.8 36.7" id="37,18" /><path d="M 49.8 37.7 L 49.8 38.6 L 87.3 38.6" id="37,17" /><path d="M 44.8 42.0 L 44.8 40.5 L 98.6 40.5" id="36,16" /><path d="M 50.6 43.4 L 50.6 42.4 L 83.5 42.4" id="33,15" /><path d="M 50.6 43.4 L 50.6 44.3 L 89.9 44.3" id="33,14" /><path d="M 56.8 47.9 L 56.8 46.2 L 92.8 46.2" id="35,13" /><path d="M 60.5 49.5 L 60.5 48.1 L 88.5 48.1" id="32,12" /><path d="M 65.9 50.9 L 65.9 50.0 L 84.7 50.0" id="29,11" /><path d="M 65.9 50.9 L 65.9 51.9 L 90.9 51.9" id="29,10" /><path d="M 78.9 54.7 L 78.9 53.8 L 91.8 53.8" id="31,9" /><path d="M 78.9 54.7 L 78.9 55.7 L 110.3 55.7" id="31,8" /><path d="M 87.6 58.5 L 87.6 57.6 L 87.6 57.6" id="28,7" /><path d="M 87.6 58.5 L 87.6 59.5 L 87.6 59.5" id="28,6" /><path d="M 78.7 62.3 L 78.7 61.4 L 86.2 61.4" id="26,5" /><path d="M 78.7 62.3 L 78.7 63.3 L 85.7 63.3" id="26,4" /><path d="M 76.2 66.8 L 76.2 65.2 L 97.4 65.2" id="25,3" /><path d="M 92.9 68.5 L 92.9 67.0 L 92.9 67.0" id="24,2" /><path d="M 92.9 69.9 L 92.9 68.9 L 92.9 68.9" id="23,1" /><path d="M 92.9 69.9 L 92.9 70.8 L 92.9 70.8" id="23,0" /></g><g class="toytree-Nodes" style="fill:rgb(100%,0%,0%);fill-opacity:1.0;stroke:None;stroke-width:1"><g id="node-0" transform="translate(92.946,70.833)"><circle r="2.5" /></g><g id="node-1" transform="translate(92.946,68.939)"><circle r="2.5" /></g><g id="node-2" transform="translate(92.946,67.045)"><circle r="2.5" /></g><g id="node-3" transform="translate(97.418,65.152)"><circle r="2.5" /></g><g id="node-4" transform="translate(85.669,63.258)"><circle r="2.5" /></g><g id="node-5" transform="translate(86.168,61.364)"><circle r="2.5" /></g><g id="node-6" transform="translate(87.616,59.470)"><circle r="2.5" /></g><g id="node-7" transform="translate(87.616,57.576)"><circle r="2.5" /></g><g id="node-8" transform="translate(110.263,55.682)"><circle r="2.5" /></g><g id="node-9" transform="translate(91.770,53.788)"><circle r="2.5" /></g><g id="node-10" transform="translate(90.942,51.894)"><circle r="2.5" /></g><g id="node-11" transform="translate(84.692,50.000)"><circle r="2.5" /></g><g id="node-12" transform="translate(88.538,48.106)"><circle r="2.5" /></g><g id="node-13" transform="translate(92.794,46.212)"><circle r="2.5" /></g><g id="node-14" transform="translate(89.895,44.318)"><circle r="2.5" /></g><g id="node-15" transform="translate(83.532,42.424)"><circle r="2.5" /></g><g id="node-16" transform="translate(98.617,40.530)"><circle r="2.5" /></g><g id="node-17" transform="translate(87.337,38.636)"><circle r="2.5" /></g><g id="node-18" transform="translate(90.792,36.742)"><circle r="2.5" /></g><g id="node-19" transform="translate(103.758,34.848)"><circle r="2.5" /></g><g id="node-20" transform="translate(77.697,32.955)"><circle r="2.5" /></g><g id="node-21" transform="translate(90.060,31.061)"><circle r="2.5" /></g><g id="node-22" transform="translate(90.625,29.167)"><circle r="2.5" /></g><g id="node-23" transform="translate(92.946,69.886)"><circle r="0.0" /></g><g id="node-24" transform="translate(92.946,68.466)"><circle r="0.0" /></g><g id="node-25" transform="translate(76.175,66.809)"><circle r="0.0" /></g><g id="node-26" transform="translate(78.705,62.311)"><circle r="0.0" /></g><g id="node-27" transform="translate(70.519,64.560)"><circle r="0.0" /></g><g id="node-28" transform="translate(87.616,58.523)"><circle r="0.0" /></g><g id="node-29" transform="translate(65.885,50.947)"><circle r="0.0" /></g><g id="node-30" transform="translate(69.662,61.541)"><circle r="0.0" /></g><g id="node-31" transform="translate(78.890,54.735)"><circle r="0.0" /></g><g id="node-32" transform="translate(60.495,49.527)"><circle r="0.0" /></g><g id="node-33" transform="translate(50.551,43.371)"><circle r="0.0" /></g><g id="node-34" transform="translate(60.133,58.138)"><circle r="0.0" /></g><g id="node-35" transform="translate(56.760,47.869)"><circle r="0.0" /></g><g id="node-36" transform="translate(44.806,41.951)"><circle r="0.0" /></g><g id="node-37" transform="translate(49.783,37.689)"><circle r="0.0" /></g><g id="node-38" transform="translate(51.553,53.004)"><circle r="0.0" /></g><g id="node-39" transform="translate(42.835,39.820)"><circle r="0.0" /></g><g id="node-40" transform="translate(40.108,46.412)"><circle r="0.0" /></g><g id="node-41" transform="translate(36.384,40.630)"><circle r="0.0" /></g><g id="node-42" transform="translate(31.602,36.792)"><circle r="0.0" /></g><g id="node-43" transform="translate(84.884,30.114)"><circle r="0.0" /></g><g id="node-44" transform="translate(25.000,33.453)"><circle r="0.0" /></g></g></g></g></g><g class="toyplot-coordinates-Cartesian" id="tf0395ebe55fc42f3bacda0e5e1d1b47e"><clipPath id="t9b1993df400c4a409852ef89bc8e79ef"><rect x="155.0" y="15.0" width="110.0" height="70.0" /></clipPath><g clip-path="url(#t9b1993df400c4a409852ef89bc8e79ef)"><g class="toytree-mark-Toytree" id="t76c3f9e8c9144a8eaa26897951accb43"><g class="toytree-Edges" style="fill:none;stroke:rgb(14.9%,14.9%,14.9%);stroke-linecap:round;stroke-opacity:1;stroke-width:0.5"><path d="M 165.0 32.1 L 165.0 35.0 L 194.4 35.0" id="44,43" /><path d="M 194.4 35.0 L 194.4 32.0 L 229.3 32.0" id="43,42" /><path d="M 194.4 35.0 L 194.4 38.0 L 205.9 38.0" id="43,41" /><path d="M 205.9 38.0 L 205.9 41.2 L 208.5 41.2" id="41,40" /><path d="M 208.5 41.2 L 208.5 45.6 L 209.5 45.6" id="40,39" /><path d="M 209.5 45.6 L 209.5 52.6 L 211.5 52.6" id="39,38" /><path d="M 211.5 52.6 L 211.5 43.7 L 213.1 43.7" id="38,37" /><path d="M 211.5 52.6 L 211.5 61.5 L 213.9 61.5" id="38,36" /><path d="M 213.1 43.7 L 213.1 46.8 L 213.4 46.8" id="37,35" /><path d="M 213.9 61.5 L 213.9 57.3 L 222.0 57.3" id="36,34" /><path d="M 213.9 61.5 L 213.9 65.6 L 214.9 65.6" id="36,33" /><path d="M 213.4 46.8 L 213.4 43.8 L 214.5 43.8" id="35,32" /><path d="M 213.4 46.8 L 213.4 49.8 L 214.7 49.8" id="35,31" /><path d="M 222.0 57.3 L 222.0 59.0 L 227.3 59.0" id="34,30" /><path d="M 214.9 65.6 L 214.9 68.0 L 216.7 68.0" id="33,29" /><path d="M 214.5 43.8 L 214.5 45.3 L 217.3 45.3" id="32,28" /><path d="M 214.7 49.8 L 214.7 51.4 L 215.1 51.4" id="31,27" /><path d="M 227.3 59.0 L 227.3 60.4 L 230.1 60.4" id="30,26" /><path d="M 216.7 68.0 L 216.7 66.1 L 218.9 66.1" id="29,25" /><path d="M 216.7 68.0 L 216.7 69.9 L 218.8 69.9" id="29,24" /><path d="M 215.1 51.4 L 215.1 52.8 L 215.7 52.8" id="27,23" /><path d="M 165.0 32.1 L 165.0 29.2 L 221.6 29.2" id="44,22" /><path d="M 229.3 32.0 L 229.3 31.1 L 246.2 31.1" id="42,21" /><path d="M 229.3 32.0 L 229.3 33.0 L 237.6 33.0" id="42,20" /><path d="M 205.9 38.0 L 205.9 34.8 L 218.7 34.8" id="41,19" /><path d="M 208.5 41.2 L 208.5 36.7 L 210.2 36.7" id="40,18" /><path d="M 209.5 45.6 L 209.5 38.6 L 214.3 38.6" id="39,17" /><path d="M 213.1 43.7 L 213.1 40.5 L 216.6 40.5" id="37,16" /><path d="M 214.5 43.8 L 214.5 42.4 L 216.1 42.4" id="32,15" /><path d="M 217.3 45.3 L 217.3 44.3 L 217.8 44.3" id="28,14" /><path d="M 217.3 45.3 L 217.3 46.2 L 219.5 46.2" id="28,13" /><path d="M 214.7 49.8 L 214.7 48.1 L 220.0 48.1" id="31,12" /><path d="M 215.1 51.4 L 215.1 50.0 L 216.6 50.0" id="27,11" /><path d="M 215.7 52.8 L 215.7 51.9 L 216.3 51.9" id="23,10" /><path d="M 215.7 52.8 L 215.7 53.8 L 216.4 53.8" id="23,9" /><path d="M 222.0 57.3 L 222.0 55.7 L 225.0 55.7" id="34,8" /><path d="M 227.3 59.0 L 227.3 57.6 L 233.4 57.6" id="30,7" /><path d="M 230.1 60.4 L 230.1 59.5 L 250.3 59.5" id="26,6" /><path d="M 230.1 60.4 L 230.1 61.4 L 233.8 61.4" id="26,5" /><path d="M 214.9 65.6 L 214.9 63.3 L 215.6 63.3" id="33,4" /><path d="M 218.9 66.1 L 218.9 65.2 L 226.0 65.2" id="25,3" /><path d="M 218.9 66.1 L 218.9 67.0 L 221.9 67.0" id="25,2" /><path d="M 218.8 69.9 L 218.8 68.9 L 219.2 68.9" id="24,1" /><path d="M 218.8 69.9 L 218.8 70.8 L 218.8 70.8" id="24,0" /></g><g class="toytree-Nodes" style="fill:rgb(100%,0%,0%);fill-opacity:1.0;stroke:None;stroke-width:1"><g id="node-0" transform="translate(218.776,70.833)"><circle r="2.5" /></g><g id="node-1" transform="translate(219.250,68.939)"><circle r="2.5" /></g><g id="node-2" transform="translate(221.909,67.045)"><circle r="2.5" /></g><g id="node-3" transform="translate(226.048,65.152)"><circle r="2.5" /></g><g id="node-4" transform="translate(215.632,63.258)"><circle r="2.5" /></g><g id="node-5" transform="translate(233.818,61.364)"><circle r="2.5" /></g><g id="node-6" transform="translate(250.263,59.470)"><circle r="2.5" /></g><g id="node-7" transform="translate(233.359,57.576)"><circle r="2.5" /></g><g id="node-8" transform="translate(225.042,55.682)"><circle r="2.5" /></g><g id="node-9" transform="translate(216.397,53.788)"><circle r="2.5" /></g><g id="node-10" transform="translate(216.281,51.894)"><circle r="2.5" /></g><g id="node-11" transform="translate(216.579,50.000)"><circle r="2.5" /></g><g id="node-12" transform="translate(220.022,48.106)"><circle r="2.5" /></g><g id="node-13" transform="translate(219.468,46.212)"><circle r="2.5" /></g><g id="node-14" transform="translate(217.829,44.318)"><circle r="2.5" /></g><g id="node-15" transform="translate(216.128,42.424)"><circle r="2.5" /></g><g id="node-16" transform="translate(216.616,40.530)"><circle r="2.5" /></g><g id="node-17" transform="translate(214.310,38.636)"><circle r="2.5" /></g><g id="node-18" transform="translate(210.226,36.742)"><circle r="2.5" /></g><g id="node-19" transform="translate(218.732,34.848)"><circle r="2.5" /></g><g id="node-20" transform="translate(237.644,32.955)"><circle r="2.5" /></g><g id="node-21" transform="translate(246.183,31.061)"><circle r="2.5" /></g><g id="node-22" transform="translate(221.624,29.167)"><circle r="2.5" /></g><g id="node-23" transform="translate(215.701,52.841)"><circle r="0.0" /></g><g id="node-24" transform="translate(218.776,69.886)"><circle r="0.0" /></g><g id="node-25" transform="translate(218.915,66.098)"><circle r="0.0" /></g><g id="node-26" transform="translate(230.128,60.417)"><circle r="0.0" /></g><g id="node-27" transform="translate(215.148,51.420)"><circle r="0.0" /></g><g id="node-28" transform="translate(217.319,45.265)"><circle r="0.0" /></g><g id="node-29" transform="translate(216.732,67.992)"><circle r="0.0" /></g><g id="node-30" transform="translate(227.272,58.996)"><circle r="0.0" /></g><g id="node-31" transform="translate(214.689,49.763)"><circle r="0.0" /></g><g id="node-32" transform="translate(214.546,43.845)"><circle r="0.0" /></g><g id="node-33" transform="translate(214.925,65.625)"><circle r="0.0" /></g><g id="node-34" transform="translate(222.037,57.339)"><circle r="0.0" /></g><g id="node-35" transform="translate(213.406,46.804)"><circle r="0.0" /></g><g id="node-36" transform="translate(213.876,61.482)"><circle r="0.0" /></g><g id="node-37" transform="translate(213.140,43.667)"><circle r="0.0" /></g><g id="node-38" transform="translate(211.461,52.575)"><circle r="0.0" /></g><g id="node-39" transform="translate(209.519,45.605)"><circle r="0.0" /></g><g id="node-40" transform="translate(208.521,41.174)"><circle r="0.0" /></g><g id="node-41" transform="translate(205.901,38.011)"><circle r="0.0" /></g><g id="node-42" transform="translate(229.272,32.008)"><circle r="0.0" /></g><g id="node-43" transform="translate(194.378,35.009)"><circle r="0.0" /></g><g id="node-44" transform="translate(165.000,32.088)"><circle r="0.0" /></g></g></g></g></g><g class="toyplot-coordinates-Cartesian" id="tfafd522b7be242c4aa094192c2427ed1"><clipPath id="t9b1da15ebc8346d0a8037d21d2baffe9"><rect x="295.0" y="15.0" width="110.0" height="70.0" /></clipPath><g clip-path="url(#t9b1da15ebc8346d0a8037d21d2baffe9)"><g class="toytree-mark-Toytree" id="tbc919cc2ee87498ca41eceee7c4dfea3"><g class="toytree-Edges" style="fill:none;stroke:rgb(14.9%,14.9%,14.9%);stroke-linecap:round;stroke-opacity:1;stroke-width:0.5"><path d="M 305.0 43.0 L 305.0 34.8 L 307.7 34.8" id="44,43" /><path d="M 305.0 43.0 L 305.0 51.1 L 307.2 51.1" id="44,42" /><path d="M 307.7 34.8 L 307.7 30.6 L 314.2 30.6" id="43,41" /><path d="M 307.7 34.8 L 307.7 39.1 L 309.2 39.1" id="43,40" /><path d="M 307.2 51.1 L 307.2 47.2 L 308.8 47.2" id="42,39" /><path d="M 307.2 51.1 L 307.2 55.0 L 310.2 55.0" id="42,38" /><path d="M 314.2 30.6 L 314.2 32.0 L 316.1 32.0" id="41,37" /><path d="M 309.2 39.1 L 309.2 36.3 L 310.5 36.3" id="40,36" /><path d="M 309.2 39.1 L 309.2 42.0 L 312.3 42.0" id="40,35" /><path d="M 310.2 55.0 L 310.2 50.9 L 313.8 50.9" id="38,34" /><path d="M 310.2 55.0 L 310.2 59.0 L 311.1 59.0" id="38,33" /><path d="M 310.5 36.3 L 310.5 37.7 L 316.7 37.7" id="36,32" /><path d="M 312.3 42.0 L 312.3 43.4 L 314.1 43.4" id="35,31" /><path d="M 311.1 59.0 L 311.1 55.2 L 313.3 55.2" id="33,30" /><path d="M 311.1 59.0 L 311.1 62.7 L 312.6 62.7" id="33,29" /><path d="M 313.3 55.2 L 313.3 56.6 L 361.1 56.6" id="30,28" /><path d="M 312.6 62.7 L 312.6 60.4 L 312.7 60.4" id="29,27" /><path d="M 312.6 62.7 L 312.6 65.0 L 313.8 65.0" id="29,26" /><path d="M 313.8 65.0 L 313.8 66.8 L 315.8 66.8" id="26,25" /><path d="M 315.8 66.8 L 315.8 68.5 L 315.8 68.5" id="25,24" /><path d="M 315.8 68.5 L 315.8 69.9 L 322.1 69.9" id="24,23" /><path d="M 314.2 30.6 L 314.2 29.2 L 314.8 29.2" id="41,22" /><path d="M 316.1 32.0 L 316.1 31.1 L 316.1 31.1" id="37,21" /><path d="M 316.1 32.0 L 316.1 33.0 L 316.1 33.0" id="37,20" /><path d="M 310.5 36.3 L 310.5 34.8 L 310.5 34.8" id="36,19" /><path d="M 316.7 37.7 L 316.7 36.7 L 324.7 36.7" id="32,18" /><path d="M 316.7 37.7 L 316.7 38.6 L 334.3 38.6" id="32,17" /><path d="M 312.3 42.0 L 312.3 40.5 L 331.6 40.5" id="35,16" /><path d="M 314.1 43.4 L 314.1 42.4 L 319.3 42.4" id="31,15" /><path d="M 314.1 43.4 L 314.1 44.3 L 322.6 44.3" id="31,14" /><path d="M 308.8 47.2 L 308.8 46.2 L 322.0 46.2" id="39,13" /><path d="M 308.8 47.2 L 308.8 48.1 L 334.3 48.1" id="39,12" /><path d="M 313.8 50.9 L 313.8 50.0 L 320.5 50.0" id="34,11" /><path d="M 313.8 50.9 L 313.8 51.9 L 313.9 51.9" id="34,10" /><path d="M 313.3 55.2 L 313.3 53.8 L 313.3 53.8" id="30,9" /><path d="M 361.1 56.6 L 361.1 55.7 L 363.7 55.7" id="28,8" /><path d="M 361.1 56.6 L 361.1 57.6 L 367.8 57.6" id="28,7" /><path d="M 312.7 60.4 L 312.7 59.5 L 314.7 59.5" id="27,6" /><path d="M 312.7 60.4 L 312.7 61.4 L 313.1 61.4" id="27,5" /><path d="M 313.8 65.0 L 313.8 63.3 L 313.8 63.3" id="26,4" /><path d="M 315.8 66.8 L 315.8 65.2 L 315.8 65.2" id="25,3" /><path d="M 315.8 68.5 L 315.8 67.0 L 316.4 67.0" id="24,2" /><path d="M 322.1 69.9 L 322.1 68.9 L 323.8 68.9" id="23,1" /><path d="M 322.1 69.9 L 322.1 70.8 L 390.3 70.8" id="23,0" /></g><g class="toytree-Nodes" style="fill:rgb(100%,0%,0%);fill-opacity:1.0;stroke:None;stroke-width:1"><g id="node-0" transform="translate(390.263,70.833)"><circle r="2.5" /></g><g id="node-1" transform="translate(323.768,68.939)"><circle r="2.5" /></g><g id="node-2" transform="translate(316.376,67.045)"><circle r="2.5" /></g><g id="node-3" transform="translate(315.814,65.152)"><circle r="2.5" /></g><g id="node-4" transform="translate(313.789,63.258)"><circle r="2.5" /></g><g id="node-5" transform="translate(313.138,61.364)"><circle r="2.5" /></g><g id="node-6" transform="translate(314.720,59.470)"><circle r="2.5" /></g><g id="node-7" transform="translate(367.770,57.576)"><circle r="2.5" /></g><g id="node-8" transform="translate(363.720,55.682)"><circle r="2.5" /></g><g id="node-9" transform="translate(313.338,53.788)"><circle r="2.5" /></g><g id="node-10" transform="translate(313.870,51.894)"><circle r="2.5" /></g><g id="node-11" transform="translate(320.478,50.000)"><circle r="2.5" /></g><g id="node-12" transform="translate(334.286,48.106)"><circle r="2.5" /></g><g id="node-13" transform="translate(321.986,46.212)"><circle r="2.5" /></g><g id="node-14" transform="translate(322.600,44.318)"><circle r="2.5" /></g><g id="node-15" transform="translate(319.259,42.424)"><circle r="2.5" /></g><g id="node-16" transform="translate(331.617,40.530)"><circle r="2.5" /></g><g id="node-17" transform="translate(334.271,38.636)"><circle r="2.5" /></g><g id="node-18" transform="translate(324.706,36.742)"><circle r="2.5" /></g><g id="node-19" transform="translate(310.455,34.848)"><circle r="2.5" /></g><g id="node-20" transform="translate(316.065,32.955)"><circle r="2.5" /></g><g id="node-21" transform="translate(316.065,31.061)"><circle r="2.5" /></g><g id="node-22" transform="translate(314.801,29.167)"><circle r="2.5" /></g><g id="node-23" transform="translate(322.090,69.886)"><circle r="0.0" /></g><g id="node-24" transform="translate(315.814,68.466)"><circle r="0.0" /></g><g id="node-25" transform="translate(315.814,66.809)"><circle r="0.0" /></g><g id="node-26" transform="translate(313.789,65.033)"><circle r="0.0" /></g><g id="node-27" transform="translate(312.710,60.417)"><circle r="0.0" /></g><g id="node-28" transform="translate(361.088,56.629)"><circle r="0.0" /></g><g id="node-29" transform="translate(312.591,62.725)"><circle r="0.0" /></g><g id="node-30" transform="translate(313.338,55.208)"><circle r="0.0" /></g><g id="node-31" transform="translate(314.055,43.371)"><circle r="0.0" /></g><g id="node-32" transform="translate(316.664,37.689)"><circle r="0.0" /></g><g id="node-33" transform="translate(311.054,58.967)"><circle r="0.0" /></g><g id="node-34" transform="translate(313.811,50.947)"><circle r="0.0" /></g><g id="node-35" transform="translate(312.266,41.951)"><circle r="0.0" /></g><g id="node-36" transform="translate(310.455,36.269)"><circle r="0.0" /></g><g id="node-37" transform="translate(316.065,32.008)"><circle r="0.0" /></g><g id="node-38" transform="translate(310.167,54.957)"><circle r="0.0" /></g><g id="node-39" transform="translate(308.770,47.159)"><circle r="0.0" /></g><g id="node-40" transform="translate(309.154,39.110)"><circle r="0.0" /></g><g id="node-41" transform="translate(314.232,30.587)"><circle r="0.0" /></g><g id="node-42" transform="translate(307.181,51.058)"><circle r="0.0" /></g><g id="node-43" transform="translate(307.713,34.848)"><circle r="0.0" /></g><g id="node-44" transform="translate(305.000,42.953)"><circle r="0.0" /></g></g></g></g></g><g class="toyplot-coordinates-Cartesian" id="tc9f56f9fb711443d924085cf34033f1a"><clipPath id="tcf128de5e08d41e4946c49a3683b7f28"><rect x="435.0" y="15.0" width="110.0" height="70.0" /></clipPath><g clip-path="url(#tcf128de5e08d41e4946c49a3683b7f28)"><g class="toytree-mark-Toytree" id="t65addc22e6f642b6ae126ed9c19bbd82"><g class="toytree-Edges" style="fill:none;stroke:rgb(14.9%,14.9%,14.9%);stroke-linecap:round;stroke-opacity:1;stroke-width:0.5"><path d="M 445.0 36.5 L 445.0 30.6 L 452.2 30.6" id="44,43" /><path d="M 445.0 36.5 L 445.0 42.4 L 451.2 42.4" id="44,42" /><path d="M 452.2 30.6 L 452.2 32.0 L 502.5 32.0" id="43,41" /><path d="M 451.2 42.4 L 451.2 36.6 L 457.2 36.6" id="42,40" /><path d="M 451.2 42.4 L 451.2 48.2 L 458.4 48.2" id="42,39" /><path d="M 457.2 36.6 L 457.2 38.4 L 462.0 38.4" id="40,38" /><path d="M 458.4 48.2 L 458.4 52.0 L 468.0 52.0" id="39,37" /><path d="M 462.0 38.4 L 462.0 40.1 L 467.2 40.1" id="38,36" /><path d="M 468.0 52.0 L 468.0 47.9 L 476.4 47.9" id="37,35" /><path d="M 468.0 52.0 L 468.0 56.2 L 478.9 56.2" id="37,34" /><path d="M 467.2 40.1 L 467.2 41.5 L 471.5 41.5" id="36,33" /><path d="M 476.4 47.9 L 476.4 49.5 L 478.7 49.5" id="35,32" /><path d="M 478.9 56.2 L 478.9 58.6 L 481.8 58.6" id="34,31" /><path d="M 478.7 49.5 L 478.7 50.9 L 481.4 50.9" id="32,30" /><path d="M 481.8 58.6 L 481.8 61.5 L 483.6 61.5" id="31,29" /><path d="M 483.6 61.5 L 483.6 58.5 L 499.0 58.5" id="29,28" /><path d="M 483.6 61.5 L 483.6 64.6 L 484.8 64.6" id="29,27" /><path d="M 484.8 64.6 L 484.8 62.3 L 492.7 62.3" id="27,26" /><path d="M 484.8 64.6 L 484.8 66.8 L 487.6 66.8" id="27,25" /><path d="M 487.6 66.8 L 487.6 68.5 L 493.4 68.5" id="25,24" /><path d="M 493.4 68.5 L 493.4 69.9 L 493.4 69.9" id="24,23" /><path d="M 452.2 30.6 L 452.2 29.2 L 476.4 29.2" id="43,22" /><path d="M 502.5 32.0 L 502.5 31.1 L 505.4 31.1" id="41,21" /><path d="M 502.5 32.0 L 502.5 33.0 L 503.3 33.0" id="41,20" /><path d="M 457.2 36.6 L 457.2 34.8 L 476.0 34.8" id="40,19" /><path d="M 462.0 38.4 L 462.0 36.7 L 485.0 36.7" id="38,18" /><path d="M 467.2 40.1 L 467.2 38.6 L 488.1 38.6" id="36,17" /><path d="M 471.5 41.5 L 471.5 40.5 L 530.3 40.5" id="33,16" /><path d="M 471.5 41.5 L 471.5 42.4 L 491.1 42.4" id="33,15" /><path d="M 458.4 48.2 L 458.4 44.3 L 500.0 44.3" id="39,14" /><path d="M 476.4 47.9 L 476.4 46.2 L 493.9 46.2" id="35,13" /><path d="M 478.7 49.5 L 478.7 48.1 L 483.3 48.1" id="32,12" /><path d="M 481.4 50.9 L 481.4 50.0 L 492.1 50.0" id="30,11" /><path d="M 481.4 50.9 L 481.4 51.9 L 495.2 51.9" id="30,10" /><path d="M 478.9 56.2 L 478.9 53.8 L 479.2 53.8" id="34,9" /><path d="M 481.8 58.6 L 481.8 55.7 L 483.9 55.7" id="31,8" /><path d="M 499.0 58.5 L 499.0 57.6 L 512.6 57.6" id="28,7" /><path d="M 499.0 58.5 L 499.0 59.5 L 499.0 59.5" id="28,6" /><path d="M 492.7 62.3 L 492.7 61.4 L 492.7 61.4" id="26,5" /><path d="M 492.7 62.3 L 492.7 63.3 L 492.7 63.3" id="26,4" /><path d="M 487.6 66.8 L 487.6 65.2 L 494.8 65.2" id="25,3" /><path d="M 493.4 68.5 L 493.4 67.0 L 493.4 67.0" id="24,2" /><path d="M 493.4 69.9 L 493.4 68.9 L 493.4 68.9" id="23,1" /><path d="M 493.4 69.9 L 493.4 70.8 L 493.4 70.8" id="23,0" /></g><g class="toytree-Nodes" style="fill:rgb(100%,0%,0%);fill-opacity:1.0;stroke:None;stroke-width:1"><g id="node-0" transform="translate(493.437,70.833)"><circle r="2.5" /></g><g id="node-1" transform="translate(493.437,68.939)"><circle r="2.5" /></g><g id="node-2" transform="translate(493.437,67.045)"><circle r="2.5" /></g><g id="node-3" transform="translate(494.765,65.152)"><circle r="2.5" /></g><g id="node-4" transform="translate(492.714,63.258)"><circle r="2.5" /></g><g id="node-5" transform="translate(492.714,61.364)"><circle r="2.5" /></g><g id="node-6" transform="translate(498.975,59.470)"><circle r="2.5" /></g><g id="node-7" transform="translate(512.604,57.576)"><circle r="2.5" /></g><g id="node-8" transform="translate(483.927,55.682)"><circle r="2.5" /></g><g id="node-9" transform="translate(479.200,53.788)"><circle r="2.5" /></g><g id="node-10" transform="translate(495.237,51.894)"><circle r="2.5" /></g><g id="node-11" transform="translate(492.115,50.000)"><circle r="2.5" /></g><g id="node-12" transform="translate(483.290,48.106)"><circle r="2.5" /></g><g id="node-13" transform="translate(493.922,46.212)"><circle r="2.5" /></g><g id="node-14" transform="translate(499.987,44.318)"><circle r="2.5" /></g><g id="node-15" transform="translate(491.115,42.424)"><circle r="2.5" /></g><g id="node-16" transform="translate(530.263,40.530)"><circle r="2.5" /></g><g id="node-17" transform="translate(488.127,38.636)"><circle r="2.5" /></g><g id="node-18" transform="translate(485.037,36.742)"><circle r="2.5" /></g><g id="node-19" transform="translate(475.971,34.848)"><circle r="2.5" /></g><g id="node-20" transform="translate(503.335,32.955)"><circle r="2.5" /></g><g id="node-21" transform="translate(505.410,31.061)"><circle r="2.5" /></g><g id="node-22" transform="translate(476.424,29.167)"><circle r="2.5" /></g><g id="node-23" transform="translate(493.437,69.886)"><circle r="0.0" /></g><g id="node-24" transform="translate(493.437,68.466)"><circle r="0.0" /></g><g id="node-25" transform="translate(487.644,66.809)"><circle r="0.0" /></g><g id="node-26" transform="translate(492.714,62.311)"><circle r="0.0" /></g><g id="node-27" transform="translate(484.786,64.560)"><circle r="0.0" /></g><g id="node-28" transform="translate(498.975,58.523)"><circle r="0.0" /></g><g id="node-29" transform="translate(483.615,61.541)"><circle r="0.0" /></g><g id="node-30" transform="translate(481.402,50.947)"><circle r="0.0" /></g><g id="node-31" transform="translate(481.822,58.612)"><circle r="0.0" /></g><g id="node-32" transform="translate(478.745,49.527)"><circle r="0.0" /></g><g id="node-33" transform="translate(471.482,41.477)"><circle r="0.0" /></g><g id="node-34" transform="translate(478.947,56.200)"><circle r="0.0" /></g><g id="node-35" transform="translate(476.412,47.869)"><circle r="0.0" /></g><g id="node-36" transform="translate(467.213,40.057)"><circle r="0.0" /></g><g id="node-37" transform="translate(468.033,52.035)"><circle r="0.0" /></g><g id="node-38" transform="translate(461.982,38.400)"><circle r="0.0" /></g><g id="node-39" transform="translate(458.359,48.176)"><circle r="0.0" /></g><g id="node-40" transform="translate(457.215,36.624)"><circle r="0.0" /></g><g id="node-41" transform="translate(502.528,32.008)"><circle r="0.0" /></g><g id="node-42" transform="translate(451.172,42.400)"><circle r="0.0" /></g><g id="node-43" transform="translate(452.163,30.587)"><circle r="0.0" /></g><g id="node-44" transform="translate(445.000,36.494)"><circle r="0.0" /></g></g></g></g></g></svg>