<svg class="toyplot-canvas-Canvas" xmlns:toyplot="http://www.sandia.gov/toyplot" xmlns:xlink="http://www.w3.org/1999/xlink" xmlns="http://www.w3.org/2000/svg" width="560.0px" height="100.0px" viewBox="0 0 560.0 100.0" preserveAspectRatio="xMidYMid meet" style="background-color:transparent;border-color:#292724;border-style:none;border-width:1.0;fill:rgb(16.1%,15.3%,14.1%);fill-opacity:1.0;font-family:Helvetica;font-size:12px;opacity:1.0;stroke:rgb(16.1%,15.3%,14.1%);stroke-opacity:1.0;stroke-width:1.0" id="t5b580c2c5d3b4b6bbbac1b690ea3019a"><g class="toyplot-coordinates-Cartesian" id="tecbcf4ba924b464e9776714fe6c33ce3"><clipPath id="te86fe2be2142468b9a570e72de5053d4"><rect x="15.0" y="15.0" width="110.0" height="70.0" /></clipPath><g clip-path="url(#te86fe2be2142468b9a570e72de5053d4)"><g class="toytree-mark-Toytree" id="t44cca15b0ead4ad095f4f872041bc185"><g class="toytree-Edges" style="fill:none;stroke:rgb(14.9%,14.9%,14.9%);stroke-linecap:round;stroke-opacity:1;stroke-width:0.5"><path d="M 25.0 43.3 L 25.0 34.8 L 30.8 34.8" id="24,23" /><path d="M 25.0 43.3 L 25.0 51.8 L 43.2 51.8" id="24,22" /><path d="M 30.8 34.8 L 30.8 30.9 L 35.6 30.9" id="23,21" /><path d="M 30.8 34.8 L 30.8 38.7 L 43.3 38.7" id="23,20" /><path d="M 43.2 51.8 L 43.2 57.2 L 55.3 57.2" id="22,19" /><path d="M 43.3 38.7 L 43.3 41.3 L 47.9 41.3" id="20,18" /><path d="M 55.3 57.2 L 55.3 51.7 L 77.7 51.7" id="19,17" /><path d="M 55.3 57.2 L 55.3 62.6 L 61.5 62.6" id="19,16" /><path d="M 61.5 62.6 L 61.5 58.7 L 107.9 58.7" id="16,15" /><path d="M 61.5 62.6 L 61.5 66.5 L 92.1 66.5" id="16,14" /><path d="M 92.1 66.5 L 92.1 69.1 L 92.4 69.1" id="14,13" /><path d="M 35.6 30.9 L 35.6 29.2 L 88.2 29.2" id="21,12" /><path d="M 35.6 30.9 L 35.6 32.6 L 89.6 32.6" id="21,11" /><path d="M 43.3 38.7 L 43.3 36.1 L 107.4 36.1" id="20,10" /><path d="M 47.9 41.3 L 47.9 39.6 L 100.9 39.6" id="18,9" /><path d="M 47.9 41.3 L 47.9 43.1 L 100.9 43.1" id="18,8" /><path d="M 43.2 51.8 L 43.2 46.5 L 88.8 46.5" id="22,7" /><path d="M 77.7 51.7 L 77.7 50.0 L 92.7 50.0" id="17,6" /><path d="M 77.7 51.7 L 77.7 53.5 L 93.2 53.5" id="17,5" /><path d="M 107.9 58.7 L 107.9 56.9 L 110.3 56.9" id="15,4" /><path d="M 107.9 58.7 L 107.9 60.4 L 107.9 60.4" id="15,3" /><path d="M 92.1 66.5 L 92.1 63.9 L 94.9 63.9" id="14,2" /><path d="M 92.4 69.1 L 92.4 67.4 L 95.4 67.4" id="13,1" /><path d="M 92.4 69.1 L 92.4 70.8 L 95.3 70.8" id="13,0" /></g><g class="toytree-Nodes" style="fill:rgb(100%,0%,0%);fill-opacity:1.0;stroke:None;stroke-width:1"><g id="node-0" transform="translate(95.269,70.833)"><circle r="2.5" /></g><g id="node-1" transform="translate(95.404,67.361)"><circle r="2.5" /></g><g id="node-2" transform="translate(94.894,63.889)"><circle r="2.5" /></g><g id="node-3" transform="translate(107.878,60.417)"><circle r="2.5" /></g><g id="node-4" transform="translate(110.263,56.944)"><circle r="2.5" /></g><g id="node-5" transform="translate(93.209,53.472)"><circle r="2.5" /></g><g id="node-6" transform="translate(92.698,50.000)"><circle r="2.5" /></g><g id="node-7" transform="translate(88.829,46.528)"><circle r="2.5" /></g><g id="node-8" transform="translate(100.898,43.056)"><circle r="2.5" /></g><g id="node-9" transform="translate(100.920,39.583)"><circle r="2.5" /></g><g id="node-10" transform="translate(107.398,36.111)"><circle r="2.5" /></g><g id="node-11" transform="translate(89.641,32.639)"><circle r="2.5" /></g><g id="node-12" transform="translate(88.162,29.167)"><circle r="2.5" /></g><g id="node-13" transform="translate(92.409,69.097)"><circle r="0.0" /></g><g id="node-14" transform="translate(92.134,66.493)"><circle r="0.0" /></g><g id="node-15" transform="translate(107.878,58.681)"><circle r="0.0" /></g><g id="node-16" transform="translate(61.478,62.587)"><circle r="0.0" /></g><g id="node-17" transform="translate(77.665,51.736)"><circle r="0.0" /></g><g id="node-18" transform="translate(47.887,41.319)"><circle r="0.0" /></g><g id="node-19" transform="translate(55.326,57.161)"><circle r="0.0" /></g><g id="node-20" transform="translate(43.270,38.715)"><circle r="0.0" /></g><g id="node-21" transform="translate(35.554,30.903)"><circle r="0.0" /></g><g id="node-22" transform="translate(43.193,51.845)"><circle r="0.0" /></g><g id="node-23" transform="translate(30.840,34.809)"><circle r="0.0" /></g><g id="node-24" transform="translate(25.000,43.327)"><circle r="0.0" /></g></g></g></g></g><g class="toyplot-coordinates-Cartesian" id="tdf6cb35cd3564337830ca055ae9b1c89"><clipPath id="t11dabb5e334b4b04b415c8a257762738"><rect x="155.0" y="15.0" width="110.0" height="70.0" /></clipPath><g clip-path="url(#t11dabb5e334b4b04b415c8a257762738)"><g class="toytree-mark-Toytree" id="ta63d76b78fbb482ca7f019f268894b06"><g class="toytree-Edges" style="fill:none;stroke:rgb(14.9%,14.9%,14.9%);stroke-linecap:round;stroke-opacity:1;stroke-width:0.5"><path d="M 165.0 48.0 L 165.0 37.0 L 166.1 37.0" id="24,23" /><path d="M 165.0 48.0 L 165.0 59.1 L 165.9 59.1" id="24,22" /><path d="M 166.1 37.0 L 166.1 31.8 L 168.1 31.8" id="23,21" /><path d="M 166.1 37.0 L 166.1 42.2 L 170.0 42.2" id="23,20" /><path d="M 165.9 59.1 L 165.9 52.6 L 166.8 52.6" id="22,19" /><path d="M 165.9 59.1 L 165.9 65.6 L 166.1 65.6" id="22,18" /><path d="M 168.1 31.8 L 168.1 34.4 L 172.2 34.4" id="21,17" /><path d="M 170.0 42.2 L 170.0 44.8 L 179.4 44.8" id="20,16" /><path d="M 166.8 52.6 L 166.8 55.2 L 174.3 55.2" id="19,15" /><path d="M 166.1 65.6 L 166.1 62.2 L 167.0 62.2" id="18,14" /><path d="M 166.1 65.6 L 166.1 69.1 L 181.9 69.1" id="18,13" /><path d="M 168.1 31.8 L 168.1 29.2 L 238.0 29.2" id="21,12" /><path d="M 172.2 34.4 L 172.2 32.6 L 238.7 32.6" id="17,11" /><path d="M 172.2 34.4 L 172.2 36.1 L 241.0 36.1" id="17,10" /><path d="M 170.0 42.2 L 170.0 39.6 L 239.5 39.6" id="20,9" /><path d="M 179.4 44.8 L 179.4 43.1 L 241.8 43.1" id="16,8" /><path d="M 179.4 44.8 L 179.4 46.5 L 238.2 46.5" id="16,7" /><path d="M 166.8 52.6 L 166.8 50.0 L 238.7 50.0" id="19,6" /><path d="M 174.3 55.2 L 174.3 53.5 L 250.3 53.5" id="15,5" /><path d="M 174.3 55.2 L 174.3 56.9 L 231.8 56.9" id="15,4" /><path d="M 167.0 62.2 L 167.0 60.4 L 238.9 60.4" id="14,3" /><path d="M 167.0 62.2 L 167.0 63.9 L 240.3 63.9" id="14,2" /><path d="M 181.9 69.1 L 181.9 67.4 L 239.6 67.4" id="13,1" /><path d="M 181.9 69.1 L 181.9 70.8 L 239.3 70.8" id="13,0" /></g><g class="toytree-Nodes" style="fill:rgb(100%,0%,0%);fill-opacity:1.0;stroke:None;stroke-width:1"><g id="node-0" transform="translate(239.348,70.833)"><circle r="2.5" /></g><g id="node-1" transform="translate(239.609,67.361)"><circle r="2.5" /></g><g id="node-2" transform="translate(240.289,63.889)"><circle r="2.5" /></g><g id="node-3" transform="translate(238.854,60.417)"><circle r="2.5" /></g><g id="node-4" transform="translate(231.820,56.944)"><circle r="2.5" /></g><g id="node-5" transform="translate(250.263,53.472)"><circle r="2.5" /></g><g id="node-6" transform="translate(238.663,50.000)"><circle r="2.5" /></g><g id="node-7" transform="translate(238.224,46.528)"><circle r="2.5" /></g><g id="node-8" transform="translate(241.820,43.056)"><circle r="2.5" /></g><g id="node-9" transform="translate(239.520,39.583)"><circle r="2.5" /></g><g id="node-10" transform="translate(240.985,36.111)"><circle r="2.5" /></g><g id="node-11" transform="translate(238.715,32.639)"><circle r="2.5" /></g><g id="node-12" transform="translate(237.954,29.167)"><circle r="2.5" /></g><g id="node-13" transform="translate(181.900,69.097)"><circle r="0.0" /></g><g id="node-14" transform="translate(166.969,62.153)"><circle r="0.0" /></g><g id="node-15" transform="translate(174.299,55.208)"><circle r="0.0" /></g><g id="node-16" transform="translate(179.432,44.792)"><circle r="0.0" /></g><g id="node-17" transform="translate(172.237,34.375)"><circle r="0.0" /></g><g id="node-18" transform="translate(166.110,65.625)"><circle r="0.0" /></g><g id="node-19" transform="translate(166.771,52.604)"><circle r="0.0" /></g><g id="node-20" transform="translate(170.033,42.188)"><circle r="0.0" /></g><g id="node-21" transform="translate(168.093,31.771)"><circle r="0.0" /></g><g id="node-22" transform="translate(165.945,59.115)"><circle r="0.0" /></g><g id="node-23" transform="translate(166.110,36.979)"><circle r="0.0" /></g><g id="node-24" transform="translate(165.000,48.047)"><circle r="0.0" /></g></g></g></g></g><g class="toyplot-coordinates-Cartesian" id="t81383f8116c24ffba05e47eb549cb523"><clipPath id="t9c728eaca18544199c19da2f69ade5c5"><rect x="295.0" y="15.0" width="110.0" height="70.0" /></clipPath><g clip-path="url(#t9c728eaca18544199c19da2f69ade5c5)"><g class="toytree-mark-Toytree" id="td5490f79153b4950a52c08f732038960"><g class="toytree-Edges" style="fill:none;stroke:rgb(14.9%,14.9%,14.9%);stroke-linecap:round;stroke-opacity:1;stroke-width:0.5"><path d="M 305.0 41.5 L 305.0 32.4 L 313.2 32.4" id="24,23" /><path d="M 305.0 41.5 L 305.0 50.6 L 314.4 50.6" id="24,22" /><path d="M 313.2 32.4 L 313.2 35.7 L 316.7 35.7" id="23,21" /><path d="M 314.4 50.6 L 314.4 54.7 L 317.8 54.7" id="22,20" /><path d="M 316.7 35.7 L 316.7 38.7 L 319.9 38.7" id="21,19" /><path d="M 317.8 54.7 L 317.8 59.3 L 319.1 59.3" id="20,18" /><path d="M 319.9 38.7 L 319.9 41.3 L 322.8 41.3" id="19,17" /><path d="M 319.1 59.3 L 319.1 55.2 L 331.5 55.2" id="18,16" /><path d="M 319.1 59.3 L 319.1 63.5 L 321.3 63.5" id="18,15" /><path d="M 321.3 63.5 L 321.3 66.5 L 326.2 66.5" id="15,14" /><path d="M 326.2 66.5 L 326.2 69.1 L 332.0 69.1" id="14,13" /><path d="M 313.2 32.4 L 313.2 29.2 L 359.1 29.2" id="23,12" /><path d="M 316.7 35.7 L 316.7 32.6 L 357.5 32.6" id="21,11" /><path d="M 319.9 38.7 L 319.9 36.1 L 360.5 36.1" id="19,10" /><path d="M 322.8 41.3 L 322.8 39.6 L 352.7 39.6" id="17,9" /><path d="M 322.8 41.3 L 322.8 43.1 L 361.7 43.1" id="17,8" /><path d="M 314.4 50.6 L 314.4 46.5 L 347.6 46.5" id="22,7" /><path d="M 317.8 54.7 L 317.8 50.0 L 390.3 50.0" id="20,6" /><path d="M 331.5 55.2 L 331.5 53.5 L 368.9 53.5" id="16,5" /><path d="M 331.5 55.2 L 331.5 56.9 L 360.3 56.9" id="16,4" /><path d="M 321.3 63.5 L 321.3 60.4 L 345.1 60.4" id="15,3" /><path d="M 326.2 66.5 L 326.2 63.9 L 359.2 63.9" id="14,2" /><path d="M 332.0 69.1 L 332.0 67.4 L 357.2 67.4" id="13,1" /><path d="M 332.0 69.1 L 332.0 70.8 L 357.9 70.8" id="13,0" /></g><g class="toytree-Nodes" style="fill:rgb(100%,0%,0%);fill-opacity:1.0;stroke:None;stroke-width:1"><g id="node-0" transform="translate(357.856,70.833)"><circle r="2.5" /></g><g id="node-1" transform="translate(357.181,67.361)"><circle r="2.5" /></g><g id="node-2" transform="translate(359.153,63.889)"><circle r="2.5" /></g><g id="node-3" transform="translate(345.125,60.417)"><circle r="2.5" /></g><g id="node-4" transform="translate(360.257,56.944)"><circle r="2.5" /></g><g id="node-5" transform="translate(368.912,53.472)"><circle r="2.5" /></g><g id="node-6" transform="translate(390.263,50.000)"><circle r="2.5" /></g><g id="node-7" transform="translate(347.589,46.528)"><circle r="2.5" /></g><g id="node-8" transform="translate(361.735,43.056)"><circle r="2.5" /></g><g id="node-9" transform="translate(352.692,39.583)"><circle r="2.5" /></g><g id="node-10" transform="translate(360.474,36.111)"><circle r="2.5" /></g><g id="node-11" transform="translate(357.479,32.639)"><circle r="2.5" /></g><g id="node-12" transform="translate(359.078,29.167)"><circle r="2.5" /></g><g id="node-13" transform="translate(331.962,69.097)"><circle r="0.0" /></g><g id="node-14" transform="translate(326.238,66.493)"><circle r="0.0" /></g><g id="node-15" transform="translate(321.293,63.455)"><circle r="0.0" /></g><g id="node-16" transform="translate(331.507,55.208)"><circle r="0.0" /></g><g id="node-17" transform="translate(322.785,41.319)"><circle r="0.0" /></g><g id="node-18" transform="translate(319.055,59.332)"><circle r="0.0" /></g><g id="node-19" transform="translate(319.866,38.715)"><circle r="0.0" /></g><g id="node-20" transform="translate(317.771,54.666)"><circle r="0.0" /></g><g id="node-21" transform="translate(316.673,35.677)"><circle r="0.0" /></g><g id="node-22" transform="translate(314.430,50.597)"><circle r="0.0" /></g><g id="node-23" transform="translate(313.188,32.422)"><circle r="0.0" /></g><g id="node-24" transform="translate(305.000,41.509)"><circle r="0.0" /></g></g></g></g></g><g class="toyplot-coordinates-Cartesian" id="t7360e391663c4ec38a05d49a1e14ee1f"><clipPath id="t2fcc003872324822b89290dbc969a55b"><rect x="435.0" y="15.0" width="110.0" height="70.0" /></clipPath><g clip-path="url(#t2fcc003872324822b89290dbc969a55b)"><g class="toytree-mark-Toytree" id="td14992195d904a418c1c65651c6bdc3d"><g class="toytree-Edges" style="fill:none;stroke:rgb(14.9%,14.9%,14.9%);stroke-linecap:round;stroke-opacity:1;stroke-width:0.5"><path d="M 445.0 39.8 L 445.0 32.2 L 449.8 32.2" id="24,23" /><path d="M 445.0 39.8 L 445.0 47.5 L 449.8 47.5" id="24,22" /><path d="M 449.8 32.2 L 449.8 35.2 L 481.9 35.2" id="23,21" /><path d="M 449.8 47.5 L 449.8 51.8 L 477.8 51.8" id="22,20" /><path d="M 481.9 35.2 L 481.9 37.8 L 493.0 37.8" id="21,19" /><path d="M 477.8 51.8 L 477.8 57.2 L 488.1 57.2" id="20,18" /><path d="M 488.1 57.2 L 488.1 51.7 L 504.2 51.7" id="18,17" /><path d="M 488.1 57.2 L 488.1 62.6 L 491.5 62.6" id="18,16" /><path d="M 491.5 62.6 L 491.5 58.7 L 502.0 58.7" id="16,15" /><path d="M 491.5 62.6 L 491.5 66.5 L 498.3 66.5" id="16,14" /><path d="M 498.3 66.5 L 498.3 69.1 L 498.5 69.1" id="14,13" /><path d="M 449.8 32.2 L 449.8 29.2 L 474.2 29.2" id="23,12" /><path d="M 481.9 35.2 L 481.9 32.6 L 500.0 32.6" id="21,11" /><path d="M 493.0 37.8 L 493.0 36.1 L 513.1 36.1" id="19,10" /><path d="M 493.0 37.8 L 493.0 39.6 L 530.3 39.6" id="19,9" /><path d="M 449.8 47.5 L 449.8 43.1 L 472.7 43.1" id="22,8" /><path d="M 477.8 51.8 L 477.8 46.5 L 494.1 46.5" id="20,7" /><path d="M 504.2 51.7 L 504.2 50.0 L 505.4 50.0" id="17,6" /><path d="M 504.2 51.7 L 504.2 53.5 L 504.2 53.5" id="17,5" /><path d="M 502.0 58.7 L 502.0 56.9 L 506.6 56.9" id="15,4" /><path d="M 502.0 58.7 L 502.0 60.4 L 506.7 60.4" id="15,3" /><path d="M 498.3 66.5 L 498.3 63.9 L 498.9 63.9" id="14,2" /><path d="M 498.5 69.1 L 498.5 67.4 L 499.4 67.4" id="13,1" /><path d="M 498.5 69.1 L 498.5 70.8 L 499.2 70.8" id="13,0" /></g><g class="toytree-Nodes" style="fill:rgb(100%,0%,0%);fill-opacity:1.0;stroke:None;stroke-width:1"><g id="node-0" transform="translate(499.215,70.833)"><circle r="2.5" /></g><g id="node-1" transform="translate(499.430,67.361)"><circle r="2.5" /></g><g id="node-2" transform="translate(498.940,63.889)"><circle r="2.5" /></g><g id="node-3" transform="translate(506.729,60.417)"><circle r="2.5" /></g><g id="node-4" transform="translate(506.567,56.944)"><circle r="2.5" /></g><g id="node-5" transform="translate(504.167,53.472)"><circle r="2.5" /></g><g id="node-6" transform="translate(505.358,50.000)"><circle r="2.5" /></g><g id="node-7" transform="translate(494.108,46.528)"><circle r="2.5" /></g><g id="node-8" transform="translate(472.745,43.056)"><circle r="2.5" /></g><g id="node-9" transform="translate(530.263,39.583)"><circle r="2.5" /></g><g id="node-10" transform="translate(513.078,36.111)"><circle r="2.5" /></g><g id="node-11" transform="translate(499.959,32.639)"><circle r="2.5" /></g><g id="node-12" transform="translate(474.157,29.167)"><circle r="2.5" /></g><g id="node-13" transform="translate(498.515,69.097)"><circle r="0.0" /></g><g id="node-14" transform="translate(498.307,66.493)"><circle r="0.0" /></g><g id="node-15" transform="translate(501.976,58.681)"><circle r="0.0" /></g><g id="node-16" transform="translate(491.488,62.587)"><circle r="0.0" /></g><g id="node-17" transform="translate(504.167,51.736)"><circle r="0.0" /></g><g id="node-18" transform="translate(488.116,57.161)"><circle r="0.0" /></g><g id="node-19" transform="translate(492.992,37.847)"><circle r="0.0" /></g><g id="node-20" transform="translate(477.814,51.845)"><circle r="0.0" /></g><g id="node-21" transform="translate(481.914,35.243)"><circle r="0.0" /></g><g id="node-22" transform="translate(449.797,47.450)"><circle r="0.0" /></g><g id="node-23" transform="translate(449.769,32.205)"><circle r="0.0" /></g><g id="node-24" transform="translate(445.000,39.827)"><circle r="0.0" /></g></g></g></g></g></svg>