<svg class="toyplot-canvas-Canvas" xmlns:toyplot="http://www.sandia.gov/toyplot" xmlns:xlink="http://www.w3.org/1999/xlink" xmlns="http://www.w3.org/2000/svg" width="560.0px" height="100.0px" viewBox="0 0 560.0 100.0" preserveAspectRatio="xMidYMid meet" style="background-color:transparent;border-color:#292724;border-style:none;border-width:1.0;fill:rgb(16.1%,15.3%,14.1%);fill-opacity:1.0;font-family:Helvetica;font-size:12px;opacity:1.0;stroke:rgb(16.1%,15.3%,14.1%);stroke-opacity:1.0;stroke-width:1.0" id="tab16666e2be84b9591de17fef26bf673"><g class="toyplot-coordinates-Cartesian" id="t0c9fdcbae2884b8a871ac9bce4807910"><clipPath id="tc154d7ed832545cf9634cd2b66cbf39a"><rect x="15.0" y="15.0" width="110.0" height="70.0" /></clipPath><g clip-path="url(#tc154d7ed832545cf9634cd2b66cbf39a)"><g class="toytree-mark-Toytree" id="tdf552fba7a00488a94921896d886550f"><g class="toytree-Edges" style="fill:none;stroke:rgb(14.9%,14.9%,14.9%);stroke-linecap:round;stroke-opacity:1;stroke-width:0.5"><path d="M 25.0 45.2 L 25.0 34.4 L 31.9 34.4" id="12,11" /><path d="M 25.0 45.2 L 25.0 56.1 L 28.5 56.1" id="12,10" /><path d="M 31.9 34.4 L 31.9 39.6 L 72.4 39.6" id="11,9" /><path d="M 28.5 56.1 L 28.5 62.2 L 36.4 62.2" id="10,8" /><path d="M 36.4 62.2 L 36.4 67.4 L 47.8 67.4" id="8,7" /><path d="M 31.9 34.4 L 31.9 29.2 L 100.2 29.2" id="11,6" /><path d="M 72.4 39.6 L 72.4 36.1 L 99.2 36.1" id="9,5" /><path d="M 72.4 39.6 L 72.4 43.1 L 98.8 43.1" id="9,4" /><path d="M 28.5 56.1 L 28.5 50.0 L 110.3 50.0" id="10,3" /><path d="M 36.4 62.2 L 36.4 56.9 L 102.2 56.9" id="8,2" /><path d="M 47.8 67.4 L 47.8 63.9 L 92.0 63.9" id="7,1" /><path d="M 47.8 67.4 L 47.8 70.8 L 95.6 70.8" id="7,0" /></g><g class="toytree-Nodes" style="fill:rgb(100%,0%,0%);fill-opacity:1.0;stroke:None;stroke-width:1"><g id="node-0" transform="translate(95.561,70.833)"><circle r="2.5" /></g><g id="node-1" transform="translate(92.021,63.889)"><circle r="2.5" /></g><g id="node-2" transform="translate(102.244,56.944)"><circle r="2.5" /></g><g id="node-3" transform="translate(110.263,50.000)"><circle r="2.5" /></g><g id="node-4" transform="translate(98.792,43.056)"><circle r="2.5" /></g><g id="node-5" transform="translate(99.215,36.111)"><circle r="2.5" /></g><g id="node-6" transform="translate(100.176,29.167)"><circle r="2.5" /></g><g id="node-7" transform="translate(47.824,67.361)"><circle r="0.0" /></g><g id="node-8" transform="translate(36.367,62.153)"><circle r="0.0" /></g><g id="node-9" transform="translate(72.371,39.583)"><circle r="0.0" /></g><g id="node-10" transform="translate(28.546,56.076)"><circle r="0.0" /></g><g id="node-11" transform="translate(31.949,34.375)"><circle r="0.0" /></g><g id="node-12" transform="translate(25.000,45.226)"><circle r="0.0" /></g></g></g></g></g><g class="toyplot-coordinates-Cartesian" id="t00e5f264c693458ea50abc6fd854120b"><clipPath id="t981fd7e2599c412992251f1d1d659155"><rect x="155.0" y="15.0" width="110.0" height="70.0" /></clipPath><g clip-path="url(#t981fd7e2599c412992251f1d1d659155)"><g class="toytree-mark-Toytree" id="t815c2c6577584213a412d83f02f7b2c2"><g class="toytree-Edges" style="fill:none;stroke:rgb(14.9%,14.9%,14.9%);stroke-linecap:round;stroke-opacity:1;stroke-width:0.5"><path d="M 165.0 43.5 L 165.0 32.6 L 183.7 32.6" id="12,11" /><path d="M 165.0 43.5 L 165.0 54.3 L 189.8 54.3" id="12,10" /><path d="M 189.8 54.3 L 189.8 46.5 L 201.5 46.5" id="10,9" /><path d="M 189.8 54.3 L 189.8 62.2 L 195.2 62.2" id="10,8" /><path d="M 195.2 62.2 L 195.2 67.4 L 244.9 67.4" id="8,7" /><path d="M 183.7 32.6 L 183.7 29.2 L 222.7 29.2" id="11,6" /><path d="M 183.7 32.6 L 183.7 36.1 L 221.7 36.1" id="11,5" /><path d="M 201.5 46.5 L 201.5 43.1 L 203.2 43.1" id="9,4" /><path d="M 201.5 46.5 L 201.5 50.0 L 214.5 50.0" id="9,3" /><path d="M 195.2 62.2 L 195.2 56.9 L 222.4 56.9" id="8,2" /><path d="M 244.9 67.4 L 244.9 63.9 L 249.6 63.9" id="7,1" /><path d="M 244.9 67.4 L 244.9 70.8 L 250.3 70.8" id="7,0" /></g><g class="toytree-Nodes" style="fill:rgb(100%,0%,0%);fill-opacity:1.0;stroke:None;stroke-width:1"><g id="node-0" transform="translate(250.263,70.833)"><circle r="2.5" /></g><g id="node-1" transform="translate(249.586,63.889)"><circle r="2.5" /></g><g id="node-2" transform="translate(222.409,56.944)"><circle r="2.5" /></g><g id="node-3" transform="translate(214.470,50.000)"><circle r="2.5" /></g><g id="node-4" transform="translate(203.207,43.056)"><circle r="2.5" /></g><g id="node-5" transform="translate(221.705,36.111)"><circle r="2.5" /></g><g id="node-6" transform="translate(222.677,29.167)"><circle r="2.5" /></g><g id="node-7" transform="translate(244.892,67.361)"><circle r="0.0" /></g><g id="node-8" transform="translate(195.232,62.153)"><circle r="0.0" /></g><g id="node-9" transform="translate(201.549,46.528)"><circle r="0.0" /></g><g id="node-10" transform="translate(189.844,54.340)"><circle r="0.0" /></g><g id="node-11" transform="translate(183.664,32.639)"><circle r="0.0" /></g><g id="node-12" transform="translate(165.000,43.490)"><circle r="0.0" /></g></g></g></g></g><g class="toyplot-coordinates-Cartesian" id="tb1cedd41ef7548058b05390960d738de"><clipPath id="tf3bfddf9c01e4cf1a018a50592377a5b"><rect x="295.0" y="15.0" width="110.0" height="70.0" /></clipPath><g clip-path="url(#tf3bfddf9c01e4cf1a018a50592377a5b)"><g class="toytree-mark-Toytree" id="tdd2a8e491fd846fa8c286c6c7634931b"><g class="toytree-Edges" style="fill:none;stroke:rgb(14.9%,14.9%,14.9%);stroke-linecap:round;stroke-opacity:1;stroke-width:0.5"><path d="M 305.0 43.5 L 305.0 32.6 L 313.6 32.6" id="12,11" /><path d="M 305.0 43.5 L 305.0 54.3 L 331.7 54.3" id="12,10" /><path d="M 331.7 54.3 L 331.7 46.5 L 336.4 46.5" id="10,9" /><path d="M 331.7 54.3 L 331.7 62.2 L 338.1 62.2" id="10,8" /><path d="M 338.1 62.2 L 338.1 67.4 L 384.6 67.4" id="8,7" /><path d="M 313.6 32.6 L 313.6 29.2 L 359.4 29.2" id="11,6" /><path d="M 313.6 32.6 L 313.6 36.1 L 360.0 36.1" id="11,5" /><path d="M 336.4 46.5 L 336.4 43.1 L 342.6 43.1" id="9,4" /><path d="M 336.4 46.5 L 336.4 50.0 L 343.5 50.0" id="9,3" /><path d="M 338.1 62.2 L 338.1 56.9 L 372.2 56.9" id="8,2" /><path d="M 384.6 67.4 L 384.6 63.9 L 387.9 63.9" id="7,1" /><path d="M 384.6 67.4 L 384.6 70.8 L 390.3 70.8" id="7,0" /></g><g class="toytree-Nodes" style="fill:rgb(100%,0%,0%);fill-opacity:1.0;stroke:None;stroke-width:1"><g id="node-0" transform="translate(390.263,70.833)"><circle r="2.5" /></g><g id="node-1" transform="translate(387.867,63.889)"><circle r="2.5" /></g><g id="node-2" transform="translate(372.166,56.944)"><circle r="2.5" /></g><g id="node-3" transform="translate(343.455,50.000)"><circle r="2.5" /></g><g id="node-4" transform="translate(342.585,43.056)"><circle r="2.5" /></g><g id="node-5" transform="translate(360.024,36.111)"><circle r="2.5" /></g><g id="node-6" transform="translate(359.413,29.167)"><circle r="2.5" /></g><g id="node-7" transform="translate(384.640,67.361)"><circle r="0.0" /></g><g id="node-8" transform="translate(338.061,62.153)"><circle r="0.0" /></g><g id="node-9" transform="translate(336.421,46.528)"><circle r="0.0" /></g><g id="node-10" transform="translate(331.713,54.340)"><circle r="0.0" /></g><g id="node-11" transform="translate(313.635,32.639)"><circle r="0.0" /></g><g id="node-12" transform="translate(305.000,43.490)"><circle r="0.0" /></g></g></g></g></g><g class="toyplot-coordinates-Cartesian" id="t24aea576ed3144b09cf5ff75f124d0b0"><clipPath id="tdc86008618f946809a38f61802843d1d"><rect x="435.0" y="15.0" width="110.0" height="70.0" /></clipPath><g clip-path="url(#tdc86008618f946809a38f61802843d1d)"><g class="toytree-mark-Toytree" id="t678b2333e32746f8809aedab728c5c74"><g class="toytree-Edges" style="fill:none;stroke:rgb(14.9%,14.9%,14.9%);stroke-linecap:round;stroke-opacity:1;stroke-width:0.5"><path d="M 445.0 43.5 L 445.0 32.6 L 459.7 32.6" id="12,11" /><path d="M 445.0 43.5 L 445.0 54.3 L 452.4 54.3" id="12,10" /><path d="M 452.4 54.3 L 452.4 46.5 L 519.6 46.5" id="10,9" /><path d="M 452.4 54.3 L 452.4 62.2 L 473.7 62.2" id="10,8" /><path d="M 473.7 62.2 L 473.7 67.4 L 488.7 67.4" id="8,7" /><path d="M 459.7 32.6 L 459.7 29.2 L 529.5 29.2" id="11,6" /><path d="M 459.7 32.6 L 459.7 36.1 L 508.1 36.1" id="11,5" /><path d="M 519.6 46.5 L 519.6 43.1 L 527.1 43.1" id="9,4" /><path d="M 519.6 46.5 L 519.6 50.0 L 530.3 50.0" id="9,3" /><path d="M 473.7 62.2 L 473.7 56.9 L 530.2 56.9" id="8,2" /><path d="M 488.7 67.4 L 488.7 63.9 L 503.7 63.9" id="7,1" /><path d="M 488.7 67.4 L 488.7 70.8 L 505.3 70.8" id="7,0" /></g><g class="toytree-Nodes" style="fill:rgb(100%,0%,0%);fill-opacity:1.0;stroke:None;stroke-width:1"><g id="node-0" transform="translate(505.336,70.833)"><circle r="2.5" /></g><g id="node-1" transform="translate(503.711,63.889)"><circle r="2.5" /></g><g id="node-2" transform="translate(530.165,56.944)"><circle r="2.5" /></g><g id="node-3" transform="translate(530.263,50.000)"><circle r="2.5" /></g><g id="node-4" transform="translate(527.131,43.056)"><circle r="2.5" /></g><g id="node-5" transform="translate(508.066,36.111)"><circle r="2.5" /></g><g id="node-6" transform="translate(529.507,29.167)"><circle r="2.5" /></g><g id="node-7" transform="translate(488.699,67.361)"><circle r="0.0" /></g><g id="node-8" transform="translate(473.686,62.153)"><circle r="0.0" /></g><g id="node-9" transform="translate(519.589,46.528)"><circle r="0.0" /></g><g id="node-10" transform="translate(452.396,54.340)"><circle r="0.0" /></g><g id="node-11" transform="translate(459.713,32.639)"><circle r="0.0" /></g><g id="node-12" transform="translate(445.000,43.490)"><circle r="0.0" /></g></g></g></g></g></svg>