<svg class="toyplot-canvas-Canvas" xmlns:toyplot="http://www.sandia.gov/toyplot" xmlns:xlink="http://www.w3.org/1999/xlink" xmlns="http://www.w3.org/2000/svg" width="560.0px" height="100.0px" viewBox="0 0 560.0 100.0" preserveAspectRatio="xMidYMid meet" style="background-color:transparent;border-color:#292724;border-style:none;border-width:1.0;fill:rgb(16.1%,15.3%,14.1%);fill-opacity:1.0;font-family:Helvetica;font-size:12px;opacity:1.0;stroke:rgb(16.1%,15.3%,14.1%);stroke-opacity:1.0;stroke-width:1.0" id="t7bac59c56a0c4358b98cbeb63e51a9f4"><g class="toyplot-coordinates-Cartesian" id="t1ed67bf31d9745b4b025bca750315703"><clipPath id="tb6ec5dea0c8d45618809483fa2510072"><rect x="15.0" y="15.0" width="110.0" height="70.0" /></clipPath><g clip-path="url(#tb6ec5dea0c8d45618809483fa2510072)"><g class="toytree-mark-Toytree" id="t09543202a58f46acb59c4f0d39fdda36"><g class="toytree-Edges" style="fill:none;stroke:rgb(14.9%,14.9%,14.9%);stroke-linecap:round;stroke-opacity:1;stroke-width:0.5"><path d="M 25.0 44.8 L 25.0 60.4 L 59.2 60.4" id="4,3" /><path d="M 25.0 44.8 L 25.0 29.2 L 108.9 29.2" id="4,2" /><path d="M 59.2 60.4 L 59.2 50.0 L 110.3 50.0" id="3,1" /><path d="M 59.2 60.4 L 59.2 70.8 L 107.6 70.8" id="3,0" /></g><g class="toytree-Nodes" style="fill:rgb(100%,0%,0%);fill-opacity:1.0;stroke:None;stroke-width:1"><g id="node-0" transform="translate(107.599,70.833)"><circle r="2.5" /></g><g id="node-1" transform="translate(110.263,50.000)"><circle r="2.5" /></g><g id="node-2" transform="translate(108.931,29.167)"><circle r="2.5" /></g><g id="node-3" transform="translate(59.194,60.417)"><circle r="0.0" /></g><g id="node-4" transform="translate(25.000,44.792)"><circle r="0.0" /></g></g></g></g></g><g class="toyplot-coordinates-Cartesian" id="tb467d81418bb4ba687c349f45088282d"><clipPath id="t5a9eca82d65b47c4b6e3f21191115894"><rect x="155.0" y="15.0" width="110.0" height="70.0" /></clipPath><g clip-path="url(#t5a9eca82d65b47c4b6e3f21191115894)"><g class="toytree-mark-Toytree" id="t6b7b56ddf6e245b0af9f9c6fbbef8955"><g class="toytree-Edges" style="fill:none;stroke:rgb(14.9%,14.9%,14.9%);stroke-linecap:round;stroke-opacity:1;stroke-width:0.5"><path d="M 165.0 44.8 L 165.0 60.4 L 217.2 60.4" id="4,3" /><path d="M 165.0 44.8 L 165.0 29.2 L 248.0 29.2" id="4,2" /><path d="M 217.2 60.4 L 217.2 50.0 L 250.3 50.0" id="3,1" /><path d="M 217.2 60.4 L 217.2 70.8 L 245.8 70.8" id="3,0" /></g><g class="toytree-Nodes" style="fill:rgb(100%,0%,0%);fill-opacity:1.0;stroke:None;stroke-width:1"><g id="node-0" transform="translate(245.784,70.833)"><circle r="2.5" /></g><g id="node-1" transform="translate(250.263,50.000)"><circle r="2.5" /></g><g id="node-2" transform="translate(247.968,29.167)"><circle r="2.5" /></g><g id="node-3" transform="translate(217.233,60.417)"><circle r="0.0" /></g><g id="node-4" transform="translate(165.000,44.792)"><circle r="0.0" /></g></g></g></g></g><g class="toyplot-coordinates-Cartesian" id="ta16cd09c5b6a4c0794b58245e0cd9506"><clipPath id="td022268f1e654ec7b9f6373b0d0ed4b4"><rect x="295.0" y="15.0" width="110.0" height="70.0" /></clipPath><g clip-path="url(#td022268f1e654ec7b9f6373b0d0ed4b4)"><g class="toytree-mark-Toytree" id="t7ba0deabe69e46a5962571e41347ccda"><g class="toytree-Edges" style="fill:none;stroke:rgb(14.9%,14.9%,14.9%);stroke-linecap:round;stroke-opacity:1;stroke-width:0.5"><path d="M 305.0 44.8 L 305.0 60.4 L 358.1 60.4" id="4,3" /><path d="M 305.0 44.8 L 305.0 29.2 L 380.8 29.2" id="4,2" /><path d="M 358.1 60.4 L 358.1 50.0 L 390.3 50.0" id="3,1" /><path d="M 358.1 60.4 L 358.1 70.8 L 373.2 70.8" id="3,0" /></g><g class="toytree-Nodes" style="fill:rgb(100%,0%,0%);fill-opacity:1.0;stroke:None;stroke-width:1"><g id="node-0" transform="translate(373.165,70.833)"><circle r="2.5" /></g><g id="node-1" transform="translate(390.263,50.000)"><circle r="2.5" /></g><g id="node-2" transform="translate(380.754,29.167)"><circle r="2.5" /></g><g id="node-3" transform="translate(358.078,60.417)"><circle r="0.0" /></g><g id="node-4" transform="translate(305.000,44.792)"><circle r="0.0" /></g></g></g></g></g><g class="toyplot-coordinates-Cartesian" id="t527e56f2e8384f178f79d72127fcb089"><clipPath id="tcc780b9166d94feabfd6a8df40246493"><rect x="435.0" y="15.0" width="110.0" height="70.0" /></clipPath><g clip-path="url(#tcc780b9166d94feabfd6a8df40246493)"><g class="toytree-mark-Toytree" id="tdaba905edaf241d9b815d795e6338b98"><g class="toytree-Edges" style="fill:none;stroke:rgb(14.9%,14.9%,14.9%);stroke-linecap:round;stroke-opacity:1;stroke-width:0.5"><path d="M 445.0 44.8 L 445.0 60.4 L 504.1 60.4" id="4,3" /><path d="M 445.0 44.8 L 445.0 29.2 L 530.0 29.2" id="4,2" /><path d="M 504.1 60.4 L 504.1 50.0 L 530.3 50.0" id="3,1" /><path d="M 504.1 60.4 L 504.1 70.8 L 529.8 70.8" id="3,0" /></g><g class="toytree-Nodes" style="fill:rgb(100%,0%,0%);fill-opacity:1.0;stroke:None;stroke-width:1"><g id="node-0" transform="translate(529.783,70.833)"><circle r="2.5" /></g><g id="node-1" transform="translate(530.263,50.000)"><circle r="2.5" /></g><g id="node-2" transform="translate(530.022,29.167)"><circle r="2.5" /></g><g id="node-3" transform="translate(504.133,60.417)"><circle r="0.0" /></g><g id="node-4" transform="translate(445.000,44.792)"><circle r="0.0" /></g></g></g></g></g></svg>