<?xml version="1.0" encoding="utf-8" standalone="no"?>
<!DOCTYPE svg PUBLIC "-//W3C//DTD SVG 1.1//EN"
  "http://www.w3.org/Graphics/SVG/1.1/DTD/svg11.dtd">
<svg xmlns:xlink="http://www.w3.org/1999/xlink" width="432pt" height="432pt" viewBox="0 0 432 432" xmlns="http://www.w3.org/2000/svg" version="1.1">
 <metadata>
  <rdf:RDF xmlns:dc="http://purl.org/dc/elements/1.1/" xmlns:cc="http://creativecommons.org/ns#" xmlns:rdf="http://www.w3.org/1999/02/22-rdf-syntax-ns#">
   <cc:Work>
    <dc:type rdf:resource="http://purl.org/dc/dcmitype/StillImage"/>
    <dc:date>2023-08-31T18:53:36.305426</dc:date>
    <dc:format>image/svg+xml</dc:format>
    <dc:creator>
     <cc:Agent>
      <dc:title>Matplotlib v3.6.2, https://matplotlib.org/</dc:title>
     </cc:Agent>
    </dc:creator>
   </cc:Work>
  </rdf:RDF>
 </metadata>
 <defs>
  <style type="text/css">*{stroke-linejoin: round; stroke-linecap: butt}</style>
 </defs>
 <g id="figure_1">
  <g id="patch_1">
   <path d="M 0 432 
L 432 432 
L 432 0 
L 0 0 
z
" style="fill: #ffffff"/>
  </g>
  <g id="axes_1">
   <g id="patch_2">
    <path d="M 44.66 390.04 
L 421.2 390.04 
L 421.2 25.44 
L 44.66 25.44 
z
" style="fill: #ffffff"/>
   </g>
   <g id="matplotlib.axis_1">
    <g id="xtick_1">
     <g id="line2d_1">
      <defs>
       <path id="me2f41890bf" d="M 0 0 
L 0 3.5 
" style="stroke: #000000; stroke-width: 0.8"/>
      </defs>
      <g>
       <use xlink:href="#me2f41890bf" x="60.917537" y="390.04" style="stroke: #000000; stroke-width: 0.8"/>
      </g>
     </g>
     <g id="text_1">
      <!-- 0 -->
      <g transform="translate(57.736287 404.638438) scale(0.1 -0.1)">
       <defs>
        <path id="DejaVuSans-30" d="M 2034 4250 
Q 1547 4250 1301 3770 
Q 1056 3291 1056 2328 
Q 1056 1369 1301 889 
Q 1547 409 2034 409 
Q 2525 409 2770 889 
Q 3016 1369 3016 2328 
Q 3016 3291 2770 3770 
Q 2525 4250 2034 4250 
z
M 2034 4750 
Q 2819 4750 3233 4129 
Q 3647 3509 3647 2328 
Q 3647 1150 3233 529 
Q 2819 -91 2034 -91 
Q 1250 -91 836 529 
Q 422 1150 422 2328 
Q 422 3509 836 4129 
Q 1250 4750 2034 4750 
z
" transform="scale(0.015625)"/>
       </defs>
       <use xlink:href="#DejaVuSans-30"/>
      </g>
     </g>
    </g>
    <g id="xtick_2">
     <g id="line2d_2">
      <g>
       <use xlink:href="#me2f41890bf" x="103.813413" y="390.04" style="stroke: #000000; stroke-width: 0.8"/>
      </g>
     </g>
     <g id="text_2">
      <!-- 50 -->
      <g transform="translate(97.450913 404.638438) scale(0.1 -0.1)">
       <defs>
        <path id="DejaVuSans-35" d="M 691 4666 
L 3169 4666 
L 3169 4134 
L 1269 4134 
L 1269 2991 
Q 1406 3038 1543 3061 
Q 1681 3084 1819 3084 
Q 2600 3084 3056 2656 
Q 3513 2228 3513 1497 
Q 3513 744 3044 326 
Q 2575 -91 1722 -91 
Q 1428 -91 1123 -41 
Q 819 9 494 109 
L 494 744 
Q 775 591 1075 516 
Q 1375 441 1709 441 
Q 2250 441 2565 725 
Q 2881 1009 2881 1497 
Q 2881 1984 2565 2268 
Q 2250 2553 1709 2553 
Q 1456 2553 1204 2497 
Q 953 2441 691 2322 
L 691 4666 
z
" transform="scale(0.015625)"/>
       </defs>
       <use xlink:href="#DejaVuSans-35"/>
       <use xlink:href="#DejaVuSans-30" x="63.623047"/>
      </g>
     </g>
    </g>
    <g id="xtick_3">
     <g id="line2d_3">
      <g>
       <use xlink:href="#me2f41890bf" x="146.709289" y="390.04" style="stroke: #000000; stroke-width: 0.8"/>
      </g>
     </g>
     <g id="text_3">
      <!-- 100 -->
      <g transform="translate(137.165539 404.638438) scale(0.1 -0.1)">
       <defs>
        <path id="DejaVuSans-31" d="M 794 531 
L 1825 531 
L 1825 4091 
L 703 3866 
L 703 4441 
L 1819 4666 
L 2450 4666 
L 2450 531 
L 3481 531 
L 3481 0 
L 794 0 
L 794 531 
z
" transform="scale(0.015625)"/>
       </defs>
       <use xlink:href="#DejaVuSans-31"/>
       <use xlink:href="#DejaVuSans-30" x="63.623047"/>
       <use xlink:href="#DejaVuSans-30" x="127.246094"/>
      </g>
     </g>
    </g>
    <g id="xtick_4">
     <g id="line2d_4">
      <g>
       <use xlink:href="#me2f41890bf" x="189.605165" y="390.04" style="stroke: #000000; stroke-width: 0.8"/>
      </g>
     </g>
     <g id="text_4">
      <!-- 150 -->
      <g transform="translate(180.061415 404.638438) scale(0.1 -0.1)">
       <use xlink:href="#DejaVuSans-31"/>
       <use xlink:href="#DejaVuSans-35" x="63.623047"/>
       <use xlink:href="#DejaVuSans-30" x="127.246094"/>
      </g>
     </g>
    </g>
    <g id="xtick_5">
     <g id="line2d_5">
      <g>
       <use xlink:href="#me2f41890bf" x="232.501041" y="390.04" style="stroke: #000000; stroke-width: 0.8"/>
      </g>
     </g>
     <g id="text_5">
      <!-- 200 -->
      <g transform="translate(222.957291 404.638438) scale(0.1 -0.1)">
       <defs>
        <path id="DejaVuSans-32" d="M 1228 531 
L 3431 531 
L 3431 0 
L 469 0 
L 469 531 
Q 828 903 1448 1529 
Q 2069 2156 2228 2338 
Q 2531 2678 2651 2914 
Q 2772 3150 2772 3378 
Q 2772 3750 2511 3984 
Q 2250 4219 1831 4219 
Q 1534 4219 1204 4116 
Q 875 4013 500 3803 
L 500 4441 
Q 881 4594 1212 4672 
Q 1544 4750 1819 4750 
Q 2544 4750 2975 4387 
Q 3406 4025 3406 3419 
Q 3406 3131 3298 2873 
Q 3191 2616 2906 2266 
Q 2828 2175 2409 1742 
Q 1991 1309 1228 531 
z
" transform="scale(0.015625)"/>
       </defs>
       <use xlink:href="#DejaVuSans-32"/>
       <use xlink:href="#DejaVuSans-30" x="63.623047"/>
       <use xlink:href="#DejaVuSans-30" x="127.246094"/>
      </g>
     </g>
    </g>
    <g id="xtick_6">
     <g id="line2d_6">
      <g>
       <use xlink:href="#me2f41890bf" x="275.396917" y="390.04" style="stroke: #000000; stroke-width: 0.8"/>
      </g>
     </g>
     <g id="text_6">
      <!-- 250 -->
      <g transform="translate(265.853167 404.638438) scale(0.1 -0.1)">
       <use xlink:href="#DejaVuSans-32"/>
       <use xlink:href="#DejaVuSans-35" x="63.623047"/>
       <use xlink:href="#DejaVuSans-30" x="127.246094"/>
      </g>
     </g>
    </g>
    <g id="xtick_7">
     <g id="line2d_7">
      <g>
       <use xlink:href="#me2f41890bf" x="318.292793" y="390.04" style="stroke: #000000; stroke-width: 0.8"/>
      </g>
     </g>
     <g id="text_7">
      <!-- 300 -->
      <g transform="translate(308.749043 404.638438) scale(0.1 -0.1)">
       <defs>
        <path id="DejaVuSans-33" d="M 2597 2516 
Q 3050 2419 3304 2112 
Q 3559 1806 3559 1356 
Q 3559 666 3084 287 
Q 2609 -91 1734 -91 
Q 1441 -91 1130 -33 
Q 819 25 488 141 
L 488 750 
Q 750 597 1062 519 
Q 1375 441 1716 441 
Q 2309 441 2620 675 
Q 2931 909 2931 1356 
Q 2931 1769 2642 2001 
Q 2353 2234 1838 2234 
L 1294 2234 
L 1294 2753 
L 1863 2753 
Q 2328 2753 2575 2939 
Q 2822 3125 2822 3475 
Q 2822 3834 2567 4026 
Q 2313 4219 1838 4219 
Q 1578 4219 1281 4162 
Q 984 4106 628 3988 
L 628 4550 
Q 988 4650 1302 4700 
Q 1616 4750 1894 4750 
Q 2613 4750 3031 4423 
Q 3450 4097 3450 3541 
Q 3450 3153 3228 2886 
Q 3006 2619 2597 2516 
z
" transform="scale(0.015625)"/>
       </defs>
       <use xlink:href="#DejaVuSans-33"/>
       <use xlink:href="#DejaVuSans-30" x="63.623047"/>
       <use xlink:href="#DejaVuSans-30" x="127.246094"/>
      </g>
     </g>
    </g>
    <g id="xtick_8">
     <g id="line2d_8">
      <g>
       <use xlink:href="#me2f41890bf" x="361.188669" y="390.04" style="stroke: #000000; stroke-width: 0.8"/>
      </g>
     </g>
     <g id="text_8">
      <!-- 350 -->
      <g transform="translate(351.644919 404.638438) scale(0.1 -0.1)">
       <use xlink:href="#DejaVuSans-33"/>
       <use xlink:href="#DejaVuSans-35" x="63.623047"/>
       <use xlink:href="#DejaVuSans-30" x="127.246094"/>
      </g>
     </g>
    </g>
    <g id="xtick_9">
     <g id="line2d_9">
      <g>
       <use xlink:href="#me2f41890bf" x="404.084545" y="390.04" style="stroke: #000000; stroke-width: 0.8"/>
      </g>
     </g>
     <g id="text_9">
      <!-- 400 -->
      <g transform="translate(394.540795 404.638438) scale(0.1 -0.1)">
       <defs>
        <path id="DejaVuSans-34" d="M 2419 4116 
L 825 1625 
L 2419 1625 
L 2419 4116 
z
M 2253 4666 
L 3047 4666 
L 3047 1625 
L 3713 1625 
L 3713 1100 
L 3047 1100 
L 3047 0 
L 2419 0 
L 2419 1100 
L 313 1100 
L 313 1709 
L 2253 4666 
z
" transform="scale(0.015625)"/>
       </defs>
       <use xlink:href="#DejaVuSans-34"/>
       <use xlink:href="#DejaVuSans-30" x="63.623047"/>
       <use xlink:href="#DejaVuSans-30" x="127.246094"/>
      </g>
     </g>
    </g>
    <g id="text_10">
     <!-- Boosting Iterations -->
     <g transform="translate(185.681562 418.316562) scale(0.1 -0.1)">
      <defs>
       <path id="DejaVuSans-42" d="M 1259 2228 
L 1259 519 
L 2272 519 
Q 2781 519 3026 730 
Q 3272 941 3272 1375 
Q 3272 1813 3026 2020 
Q 2781 2228 2272 2228 
L 1259 2228 
z
M 1259 4147 
L 1259 2741 
L 2194 2741 
Q 2656 2741 2882 2914 
Q 3109 3088 3109 3444 
Q 3109 3797 2882 3972 
Q 2656 4147 2194 4147 
L 1259 4147 
z
M 628 4666 
L 2241 4666 
Q 2963 4666 3353 4366 
Q 3744 4066 3744 3513 
Q 3744 3084 3544 2831 
Q 3344 2578 2956 2516 
Q 3422 2416 3680 2098 
Q 3938 1781 3938 1306 
Q 3938 681 3513 340 
Q 3088 0 2303 0 
L 628 0 
L 628 4666 
z
" transform="scale(0.015625)"/>
       <path id="DejaVuSans-6f" d="M 1959 3097 
Q 1497 3097 1228 2736 
Q 959 2375 959 1747 
Q 959 1119 1226 758 
Q 1494 397 1959 397 
Q 2419 397 2687 759 
Q 2956 1122 2956 1747 
Q 2956 2369 2687 2733 
Q 2419 3097 1959 3097 
z
M 1959 3584 
Q 2709 3584 3137 3096 
Q 3566 2609 3566 1747 
Q 3566 888 3137 398 
Q 2709 -91 1959 -91 
Q 1206 -91 779 398 
Q 353 888 353 1747 
Q 353 2609 779 3096 
Q 1206 3584 1959 3584 
z
" transform="scale(0.015625)"/>
       <path id="DejaVuSans-73" d="M 2834 3397 
L 2834 2853 
Q 2591 2978 2328 3040 
Q 2066 3103 1784 3103 
Q 1356 3103 1142 2972 
Q 928 2841 928 2578 
Q 928 2378 1081 2264 
Q 1234 2150 1697 2047 
L 1894 2003 
Q 2506 1872 2764 1633 
Q 3022 1394 3022 966 
Q 3022 478 2636 193 
Q 2250 -91 1575 -91 
Q 1294 -91 989 -36 
Q 684 19 347 128 
L 347 722 
Q 666 556 975 473 
Q 1284 391 1588 391 
Q 1994 391 2212 530 
Q 2431 669 2431 922 
Q 2431 1156 2273 1281 
Q 2116 1406 1581 1522 
L 1381 1569 
Q 847 1681 609 1914 
Q 372 2147 372 2553 
Q 372 3047 722 3315 
Q 1072 3584 1716 3584 
Q 2034 3584 2315 3537 
Q 2597 3491 2834 3397 
z
" transform="scale(0.015625)"/>
       <path id="DejaVuSans-74" d="M 1172 4494 
L 1172 3500 
L 2356 3500 
L 2356 3053 
L 1172 3053 
L 1172 1153 
Q 1172 725 1289 603 
Q 1406 481 1766 481 
L 2356 481 
L 2356 0 
L 1766 0 
Q 1100 0 847 248 
Q 594 497 594 1153 
L 594 3053 
L 172 3053 
L 172 3500 
L 594 3500 
L 594 4494 
L 1172 4494 
z
" transform="scale(0.015625)"/>
       <path id="DejaVuSans-69" d="M 603 3500 
L 1178 3500 
L 1178 0 
L 603 0 
L 603 3500 
z
M 603 4863 
L 1178 4863 
L 1178 4134 
L 603 4134 
L 603 4863 
z
" transform="scale(0.015625)"/>
       <path id="DejaVuSans-6e" d="M 3513 2113 
L 3513 0 
L 2938 0 
L 2938 2094 
Q 2938 2591 2744 2837 
Q 2550 3084 2163 3084 
Q 1697 3084 1428 2787 
Q 1159 2491 1159 1978 
L 1159 0 
L 581 0 
L 581 3500 
L 1159 3500 
L 1159 2956 
Q 1366 3272 1645 3428 
Q 1925 3584 2291 3584 
Q 2894 3584 3203 3211 
Q 3513 2838 3513 2113 
z
" transform="scale(0.015625)"/>
       <path id="DejaVuSans-67" d="M 2906 1791 
Q 2906 2416 2648 2759 
Q 2391 3103 1925 3103 
Q 1463 3103 1205 2759 
Q 947 2416 947 1791 
Q 947 1169 1205 825 
Q 1463 481 1925 481 
Q 2391 481 2648 825 
Q 2906 1169 2906 1791 
z
M 3481 434 
Q 3481 -459 3084 -895 
Q 2688 -1331 1869 -1331 
Q 1566 -1331 1297 -1286 
Q 1028 -1241 775 -1147 
L 775 -588 
Q 1028 -725 1275 -790 
Q 1522 -856 1778 -856 
Q 2344 -856 2625 -561 
Q 2906 -266 2906 331 
L 2906 616 
Q 2728 306 2450 153 
Q 2172 0 1784 0 
Q 1141 0 747 490 
Q 353 981 353 1791 
Q 353 2603 747 3093 
Q 1141 3584 1784 3584 
Q 2172 3584 2450 3431 
Q 2728 3278 2906 2969 
L 2906 3500 
L 3481 3500 
L 3481 434 
z
" transform="scale(0.015625)"/>
       <path id="DejaVuSans-20" transform="scale(0.015625)"/>
       <path id="DejaVuSans-49" d="M 628 4666 
L 1259 4666 
L 1259 0 
L 628 0 
L 628 4666 
z
" transform="scale(0.015625)"/>
       <path id="DejaVuSans-65" d="M 3597 1894 
L 3597 1613 
L 953 1613 
Q 991 1019 1311 708 
Q 1631 397 2203 397 
Q 2534 397 2845 478 
Q 3156 559 3463 722 
L 3463 178 
Q 3153 47 2828 -22 
Q 2503 -91 2169 -91 
Q 1331 -91 842 396 
Q 353 884 353 1716 
Q 353 2575 817 3079 
Q 1281 3584 2069 3584 
Q 2775 3584 3186 3129 
Q 3597 2675 3597 1894 
z
M 3022 2063 
Q 3016 2534 2758 2815 
Q 2500 3097 2075 3097 
Q 1594 3097 1305 2825 
Q 1016 2553 972 2059 
L 3022 2063 
z
" transform="scale(0.015625)"/>
       <path id="DejaVuSans-72" d="M 2631 2963 
Q 2534 3019 2420 3045 
Q 2306 3072 2169 3072 
Q 1681 3072 1420 2755 
Q 1159 2438 1159 1844 
L 1159 0 
L 581 0 
L 581 3500 
L 1159 3500 
L 1159 2956 
Q 1341 3275 1631 3429 
Q 1922 3584 2338 3584 
Q 2397 3584 2469 3576 
Q 2541 3569 2628 3553 
L 2631 2963 
z
" transform="scale(0.015625)"/>
       <path id="DejaVuSans-61" d="M 2194 1759 
Q 1497 1759 1228 1600 
Q 959 1441 959 1056 
Q 959 750 1161 570 
Q 1363 391 1709 391 
Q 2188 391 2477 730 
Q 2766 1069 2766 1631 
L 2766 1759 
L 2194 1759 
z
M 3341 1997 
L 3341 0 
L 2766 0 
L 2766 531 
Q 2569 213 2275 61 
Q 1981 -91 1556 -91 
Q 1019 -91 701 211 
Q 384 513 384 1019 
Q 384 1609 779 1909 
Q 1175 2209 1959 2209 
L 2766 2209 
L 2766 2266 
Q 2766 2663 2505 2880 
Q 2244 3097 1772 3097 
Q 1472 3097 1187 3025 
Q 903 2953 641 2809 
L 641 3341 
Q 956 3463 1253 3523 
Q 1550 3584 1831 3584 
Q 2591 3584 2966 3190 
Q 3341 2797 3341 1997 
z
" transform="scale(0.015625)"/>
      </defs>
      <use xlink:href="#DejaVuSans-42"/>
      <use xlink:href="#DejaVuSans-6f" x="68.603516"/>
      <use xlink:href="#DejaVuSans-6f" x="129.785156"/>
      <use xlink:href="#DejaVuSans-73" x="190.966797"/>
      <use xlink:href="#DejaVuSans-74" x="243.066406"/>
      <use xlink:href="#DejaVuSans-69" x="282.275391"/>
      <use xlink:href="#DejaVuSans-6e" x="310.058594"/>
      <use xlink:href="#DejaVuSans-67" x="373.4375"/>
      <use xlink:href="#DejaVuSans-20" x="436.914062"/>
      <use xlink:href="#DejaVuSans-49" x="468.701172"/>
      <use xlink:href="#DejaVuSans-74" x="498.193359"/>
      <use xlink:href="#DejaVuSans-65" x="537.402344"/>
      <use xlink:href="#DejaVuSans-72" x="598.925781"/>
      <use xlink:href="#DejaVuSans-61" x="640.039062"/>
      <use xlink:href="#DejaVuSans-74" x="701.318359"/>
      <use xlink:href="#DejaVuSans-69" x="740.527344"/>
      <use xlink:href="#DejaVuSans-6f" x="768.310547"/>
      <use xlink:href="#DejaVuSans-6e" x="829.492188"/>
      <use xlink:href="#DejaVuSans-73" x="892.871094"/>
     </g>
    </g>
   </g>
   <g id="matplotlib.axis_2">
    <g id="ytick_1">
     <g id="line2d_10">
      <defs>
       <path id="m5cfbfcbf7d" d="M 0 0 
L -3.5 0 
" style="stroke: #000000; stroke-width: 0.8"/>
      </defs>
      <g>
       <use xlink:href="#m5cfbfcbf7d" x="44.66" y="367.880376" style="stroke: #000000; stroke-width: 0.8"/>
      </g>
     </g>
     <g id="text_11">
      <!-- 55 -->
      <g transform="translate(24.935 371.679595) scale(0.1 -0.1)">
       <use xlink:href="#DejaVuSans-35"/>
       <use xlink:href="#DejaVuSans-35" x="63.623047"/>
      </g>
     </g>
    </g>
    <g id="ytick_2">
     <g id="line2d_11">
      <g>
       <use xlink:href="#m5cfbfcbf7d" x="44.66" y="309.469008" style="stroke: #000000; stroke-width: 0.8"/>
      </g>
     </g>
     <g id="text_12">
      <!-- 60 -->
      <g transform="translate(24.935 313.268227) scale(0.1 -0.1)">
       <defs>
        <path id="DejaVuSans-36" d="M 2113 2584 
Q 1688 2584 1439 2293 
Q 1191 2003 1191 1497 
Q 1191 994 1439 701 
Q 1688 409 2113 409 
Q 2538 409 2786 701 
Q 3034 994 3034 1497 
Q 3034 2003 2786 2293 
Q 2538 2584 2113 2584 
z
M 3366 4563 
L 3366 3988 
Q 3128 4100 2886 4159 
Q 2644 4219 2406 4219 
Q 1781 4219 1451 3797 
Q 1122 3375 1075 2522 
Q 1259 2794 1537 2939 
Q 1816 3084 2150 3084 
Q 2853 3084 3261 2657 
Q 3669 2231 3669 1497 
Q 3669 778 3244 343 
Q 2819 -91 2113 -91 
Q 1303 -91 875 529 
Q 447 1150 447 2328 
Q 447 3434 972 4092 
Q 1497 4750 2381 4750 
Q 2619 4750 2861 4703 
Q 3103 4656 3366 4563 
z
" transform="scale(0.015625)"/>
       </defs>
       <use xlink:href="#DejaVuSans-36"/>
       <use xlink:href="#DejaVuSans-30" x="63.623047"/>
      </g>
     </g>
    </g>
    <g id="ytick_3">
     <g id="line2d_12">
      <g>
       <use xlink:href="#m5cfbfcbf7d" x="44.66" y="251.05764" style="stroke: #000000; stroke-width: 0.8"/>
      </g>
     </g>
     <g id="text_13">
      <!-- 65 -->
      <g transform="translate(24.935 254.856859) scale(0.1 -0.1)">
       <use xlink:href="#DejaVuSans-36"/>
       <use xlink:href="#DejaVuSans-35" x="63.623047"/>
      </g>
     </g>
    </g>
    <g id="ytick_4">
     <g id="line2d_13">
      <g>
       <use xlink:href="#m5cfbfcbf7d" x="44.66" y="192.646272" style="stroke: #000000; stroke-width: 0.8"/>
      </g>
     </g>
     <g id="text_14">
      <!-- 70 -->
      <g transform="translate(24.935 196.44549) scale(0.1 -0.1)">
       <defs>
        <path id="DejaVuSans-37" d="M 525 4666 
L 3525 4666 
L 3525 4397 
L 1831 0 
L 1172 0 
L 2766 4134 
L 525 4134 
L 525 4666 
z
" transform="scale(0.015625)"/>
       </defs>
       <use xlink:href="#DejaVuSans-37"/>
       <use xlink:href="#DejaVuSans-30" x="63.623047"/>
      </g>
     </g>
    </g>
    <g id="ytick_5">
     <g id="line2d_14">
      <g>
       <use xlink:href="#m5cfbfcbf7d" x="44.66" y="134.234904" style="stroke: #000000; stroke-width: 0.8"/>
      </g>
     </g>
     <g id="text_15">
      <!-- 75 -->
      <g transform="translate(24.935 138.034122) scale(0.1 -0.1)">
       <use xlink:href="#DejaVuSans-37"/>
       <use xlink:href="#DejaVuSans-35" x="63.623047"/>
      </g>
     </g>
    </g>
    <g id="ytick_6">
     <g id="line2d_15">
      <g>
       <use xlink:href="#m5cfbfcbf7d" x="44.66" y="75.823536" style="stroke: #000000; stroke-width: 0.8"/>
      </g>
     </g>
     <g id="text_16">
      <!-- 80 -->
      <g transform="translate(24.935 79.622754) scale(0.1 -0.1)">
       <defs>
        <path id="DejaVuSans-38" d="M 2034 2216 
Q 1584 2216 1326 1975 
Q 1069 1734 1069 1313 
Q 1069 891 1326 650 
Q 1584 409 2034 409 
Q 2484 409 2743 651 
Q 3003 894 3003 1313 
Q 3003 1734 2745 1975 
Q 2488 2216 2034 2216 
z
M 1403 2484 
Q 997 2584 770 2862 
Q 544 3141 544 3541 
Q 544 4100 942 4425 
Q 1341 4750 2034 4750 
Q 2731 4750 3128 4425 
Q 3525 4100 3525 3541 
Q 3525 3141 3298 2862 
Q 3072 2584 2669 2484 
Q 3125 2378 3379 2068 
Q 3634 1759 3634 1313 
Q 3634 634 3220 271 
Q 2806 -91 2034 -91 
Q 1263 -91 848 271 
Q 434 634 434 1313 
Q 434 1759 690 2068 
Q 947 2378 1403 2484 
z
M 1172 3481 
Q 1172 3119 1398 2916 
Q 1625 2713 2034 2713 
Q 2441 2713 2670 2916 
Q 2900 3119 2900 3481 
Q 2900 3844 2670 4047 
Q 2441 4250 2034 4250 
Q 1625 4250 1398 4047 
Q 1172 3844 1172 3481 
z
" transform="scale(0.015625)"/>
       </defs>
       <use xlink:href="#DejaVuSans-38"/>
       <use xlink:href="#DejaVuSans-30" x="63.623047"/>
      </g>
     </g>
    </g>
    <g id="text_17">
     <!-- Deviance -->
     <g transform="translate(18.855313 231.073594) rotate(-90) scale(0.1 -0.1)">
      <defs>
       <path id="DejaVuSans-44" d="M 1259 4147 
L 1259 519 
L 2022 519 
Q 2988 519 3436 956 
Q 3884 1394 3884 2338 
Q 3884 3275 3436 3711 
Q 2988 4147 2022 4147 
L 1259 4147 
z
M 628 4666 
L 1925 4666 
Q 3281 4666 3915 4102 
Q 4550 3538 4550 2338 
Q 4550 1131 3912 565 
Q 3275 0 1925 0 
L 628 0 
L 628 4666 
z
" transform="scale(0.015625)"/>
       <path id="DejaVuSans-76" d="M 191 3500 
L 800 3500 
L 1894 563 
L 2988 3500 
L 3597 3500 
L 2284 0 
L 1503 0 
L 191 3500 
z
" transform="scale(0.015625)"/>
       <path id="DejaVuSans-63" d="M 3122 3366 
L 3122 2828 
Q 2878 2963 2633 3030 
Q 2388 3097 2138 3097 
Q 1578 3097 1268 2742 
Q 959 2388 959 1747 
Q 959 1106 1268 751 
Q 1578 397 2138 397 
Q 2388 397 2633 464 
Q 2878 531 3122 666 
L 3122 134 
Q 2881 22 2623 -34 
Q 2366 -91 2075 -91 
Q 1284 -91 818 406 
Q 353 903 353 1747 
Q 353 2603 823 3093 
Q 1294 3584 2113 3584 
Q 2378 3584 2631 3529 
Q 2884 3475 3122 3366 
z
" transform="scale(0.015625)"/>
      </defs>
      <use xlink:href="#DejaVuSans-44"/>
      <use xlink:href="#DejaVuSans-65" x="77.001953"/>
      <use xlink:href="#DejaVuSans-76" x="138.525391"/>
      <use xlink:href="#DejaVuSans-69" x="197.705078"/>
      <use xlink:href="#DejaVuSans-61" x="225.488281"/>
      <use xlink:href="#DejaVuSans-6e" x="286.767578"/>
      <use xlink:href="#DejaVuSans-63" x="350.146484"/>
      <use xlink:href="#DejaVuSans-65" x="405.126953"/>
     </g>
    </g>
   </g>
   <g id="line2d_16">
    <path d="M 61.775455 230.270857 
L 65.207125 234.909384 
L 68.638795 239.204293 
L 72.070465 243.185022 
L 75.502135 246.887652 
L 78.933805 250.299205 
L 81.507558 252.706619 
L 87.51298 257.864006 
L 96.092155 264.501846 
L 98.665908 266.354013 
L 102.955496 269.314811 
L 107.245083 272.096442 
L 108.960918 273.126405 
L 109.818836 273.788295 
L 110.676753 274.267806 
L 111.534671 274.991499 
L 112.392588 275.458682 
L 113.250506 276.16342 
L 114.966341 277.181716 
L 117.540093 278.709848 
L 119.255928 279.795843 
L 120.113846 280.266633 
L 120.971763 280.913244 
L 122.687599 281.778208 
L 123.545516 282.564096 
L 124.403434 283.00753 
L 125.261351 283.773679 
L 126.977186 284.721313 
L 127.835104 285.29398 
L 129.550939 285.949674 
L 130.408856 286.415363 
L 133.840526 288.842343 
L 134.698444 289.146572 
L 135.556361 289.761245 
L 136.414279 290.057534 
L 137.272196 290.719443 
L 138.130114 291.148196 
L 138.988031 291.793565 
L 139.845949 292.076883 
L 140.703866 292.812855 
L 141.561784 293.225653 
L 143.277619 294.429504 
L 144.135537 294.699361 
L 145.851372 295.708327 
L 146.709289 296.313293 
L 147.567207 296.572817 
L 150.998877 298.3974 
L 151.856794 298.643094 
L 154.430547 300.088751 
L 158.720134 301.969761 
L 159.578052 302.475719 
L 160.435969 302.788666 
L 163.009722 304.027843 
L 163.86764 304.330576 
L 168.157227 306.370823 
L 171.588897 307.92357 
L 172.446815 308.205137 
L 176.736402 310.316892 
L 177.59432 310.815756 
L 179.310155 311.495798 
L 180.168072 311.998523 
L 181.02599 312.237198 
L 183.599743 313.449715 
L 185.315578 314.286386 
L 186.173495 314.639931 
L 187.88933 315.476697 
L 188.747248 315.946126 
L 189.605165 316.218495 
L 193.036835 317.912318 
L 203.331846 321.808565 
L 205.047681 322.338514 
L 207.621433 323.346398 
L 211.053103 324.583053 
L 212.768938 325.306323 
L 215.342691 326.329171 
L 217.058526 326.992144 
L 217.916443 327.350721 
L 219.632278 327.809374 
L 221.348113 328.369211 
L 222.206031 328.544741 
L 225.637701 329.638918 
L 227.353536 330.065487 
L 229.069371 330.630648 
L 230.785206 331.203757 
L 231.643124 331.495384 
L 233.358959 331.935151 
L 239.364381 333.663363 
L 240.222299 334.196842 
L 243.653969 335.029951 
L 244.511887 335.552241 
L 246.227722 336.243173 
L 248.801474 336.9112 
L 249.659392 337.419661 
L 250.517309 337.565016 
L 252.233144 338.120584 
L 253.091062 338.287129 
L 253.948979 338.613314 
L 255.664814 338.974504 
L 256.522732 339.29397 
L 259.096484 339.81151 
L 260.812319 340.424531 
L 262.528154 340.771041 
L 265.959825 342.015642 
L 268.533577 342.599168 
L 270.249412 342.934777 
L 271.10733 343.089461 
L 272.823165 343.545656 
L 315.719041 353.562413 
L 317.434876 353.780595 
L 324.298216 355.300567 
L 326.014051 355.726389 
L 327.729886 356.090486 
L 330.303639 356.738775 
L 332.019474 357.139664 
L 337.166979 358.037764 
L 338.024896 358.485271 
L 339.740731 358.995127 
L 345.746154 359.995279 
L 347.461989 360.39347 
L 348.319907 360.521269 
L 351.751577 361.402404 
L 353.467412 361.74836 
L 355.183247 362.010803 
L 356.041164 362.442868 
L 357.756999 362.781522 
L 359.472834 363.043975 
L 361.188669 363.493217 
L 363.762422 363.886938 
L 367.194092 364.756417 
L 368.05201 365.175268 
L 371.48368 365.727828 
L 372.341597 365.995794 
L 374.057432 366.356979 
L 377.489102 367.047866 
L 378.34702 367.094373 
L 379.204937 367.50188 
L 380.920772 367.850249 
L 386.068278 368.878088 
L 386.926195 369.138588 
L 388.64203 369.396336 
L 392.0737 370.254577 
L 393.789535 370.982296 
L 395.50537 371.157756 
L 398.93704 371.889863 
L 399.794958 372.271933 
L 403.226628 372.992714 
L 404.084545 373.467273 
L 404.084545 373.467273 
" clip-path="url(#p41f5bc9576)" style="fill: none; stroke: #0000ff; stroke-width: 1.5; stroke-linecap: square"/>
   </g>
   <g id="line2d_17">
    <path d="M 61.775455 42.012727 
L 63.49129 43.233642 
L 66.065042 45.06644 
L 66.92296 45.571714 
L 67.780877 46.209039 
L 68.638795 46.695669 
L 69.496712 47.312401 
L 74.644217 50.010056 
L 75.502135 50.337512 
L 76.360052 50.887464 
L 79.791722 52.409499 
L 82.365475 53.616256 
L 88.370898 55.989997 
L 89.228815 56.305287 
L 90.086733 56.451643 
L 90.94465 56.961833 
L 91.802568 57.214076 
L 92.660485 57.347213 
L 94.37632 57.954272 
L 95.234238 58.437117 
L 97.80799 59.353429 
L 98.665908 59.801933 
L 108.960918 63.019352 
L 109.818836 63.106008 
L 110.676753 63.359268 
L 111.534671 63.434986 
L 112.392588 63.831854 
L 113.250506 63.898011 
L 114.966341 64.21257 
L 115.824258 64.635718 
L 116.682176 64.663661 
L 118.398011 65.090958 
L 120.113846 64.594606 
L 120.971763 64.883777 
L 121.829681 64.682642 
L 122.687599 65.028109 
L 123.545516 65.147487 
L 124.403434 64.886652 
L 125.261351 64.999539 
L 126.119269 64.793717 
L 126.977186 65.099135 
L 128.693021 65.388125 
L 129.550939 65.579262 
L 130.408856 66.06746 
L 131.266774 66.315261 
L 132.124691 66.404848 
L 132.982609 66.880406 
L 133.840526 66.767247 
L 134.698444 66.914462 
L 135.556361 66.659881 
L 137.272196 66.928222 
L 138.130114 67.385661 
L 138.988031 67.271577 
L 139.845949 67.481191 
L 140.703866 67.430076 
L 141.561784 67.874553 
L 142.419702 67.951082 
L 143.277619 67.683616 
L 144.135537 67.814156 
L 144.993454 68.36038 
L 145.851372 68.543975 
L 146.709289 68.427953 
L 147.567207 68.623578 
L 148.425124 69.074069 
L 149.283042 69.070852 
L 150.140959 69.505633 
L 152.714712 69.971149 
L 153.572629 70.366579 
L 155.288464 70.235476 
L 156.146382 70.617425 
L 157.862217 70.913145 
L 158.720134 71.286919 
L 159.578052 71.111595 
L 162.151805 71.538387 
L 163.009722 71.895244 
L 163.86764 72.031733 
L 164.725557 72.286181 
L 165.583475 72.169774 
L 166.441392 72.518262 
L 167.29931 72.445529 
L 168.157227 72.528776 
L 169.015145 72.890533 
L 169.873062 72.846275 
L 170.73098 73.179571 
L 172.446815 73.407126 
L 173.304732 73.685303 
L 174.16265 73.805801 
L 175.020567 74.124319 
L 175.878485 73.833777 
L 176.736402 74.106229 
L 177.59432 74.138624 
L 179.310155 74.714366 
L 180.168072 74.705881 
L 181.883907 74.890209 
L 182.741825 75.211607 
L 183.599743 75.293267 
L 184.45766 74.996277 
L 186.173495 75.543198 
L 187.031413 75.535066 
L 187.88933 75.786055 
L 188.747248 75.778033 
L 189.605165 76.167887 
L 190.463083 76.098165 
L 193.036835 76.278396 
L 193.894753 76.563055 
L 194.75267 76.686139 
L 195.610588 76.659043 
L 196.468505 76.897096 
L 197.326423 77.265013 
L 198.18434 77.25769 
L 199.900175 77.771848 
L 200.758093 77.883879 
L 201.61601 77.829975 
L 202.473928 77.912067 
L 203.331846 78.139241 
L 204.189763 78.155027 
L 205.905598 78.663335 
L 208.479351 78.944151 
L 210.195186 79.293686 
L 211.053103 79.488383 
L 212.768938 79.562889 
L 213.626856 79.659436 
L 216.200608 80.376357 
L 217.058526 80.350834 
L 219.632278 80.819183 
L 220.490196 81.026391 
L 222.206031 81.132913 
L 223.063949 81.44853 
L 223.921866 81.609218 
L 224.779784 81.609246 
L 225.637701 81.839445 
L 227.353536 81.970686 
L 228.211454 81.970739 
L 229.069371 82.253311 
L 230.785206 82.45887 
L 232.501041 82.59083 
L 233.358959 82.891322 
L 238.506464 83.231692 
L 239.364381 83.230743 
L 241.938134 83.677527 
L 242.796051 83.675335 
L 244.511887 83.897201 
L 245.369804 84.288447 
L 246.227722 84.263568 
L 247.085639 84.402342 
L 249.659392 84.518959 
L 251.375227 84.654622 
L 252.233144 84.818015 
L 253.948979 84.853765 
L 254.806897 84.865818 
L 256.522732 85.099495 
L 258.238567 85.176688 
L 259.096484 85.290998 
L 260.812319 85.346417 
L 264.24399 85.51622 
L 266.817742 85.095742 
L 268.533577 85.160518 
L 270.249412 85.325767 
L 274.539 85.373401 
L 275.396917 85.160361 
L 277.112752 85.163322 
L 280.544422 85.0969 
L 281.40234 84.849353 
L 283.118175 84.831564 
L 285.691928 84.820152 
L 287.407763 84.84511 
L 288.26568 84.675751 
L 289.123598 84.887992 
L 292.555268 84.8912 
L 294.271103 84.80103 
L 295.12902 84.636243 
L 298.56069 84.787079 
L 301.134443 84.680861 
L 304.566113 84.745853 
L 306.281948 84.923505 
L 307.139866 84.676456 
L 308.855701 84.634993 
L 310.571536 84.886924 
L 311.429453 84.667812 
L 312.287371 84.715809 
L 313.145288 84.621004 
L 314.003206 84.756196 
L 316.576958 84.761868 
L 318.292793 84.932799 
L 319.150711 84.979763 
L 320.008628 84.732549 
L 320.866546 84.778077 
L 321.724463 84.662107 
L 322.582381 84.789563 
L 323.440298 84.783062 
L 324.298216 84.607774 
L 325.156134 84.585099 
L 326.871969 84.843509 
L 328.587804 84.814502 
L 329.445721 84.997262 
L 330.303639 84.961062 
L 331.161556 84.797244 
L 333.735309 85.074649 
L 335.451144 84.965986 
L 337.166979 84.910377 
L 338.882814 85.070459 
L 340.598649 84.970063 
L 342.314484 85.202072 
L 345.746154 85.152973 
L 347.461989 85.051015 
L 349.177824 85.220187 
L 350.035742 85.318212 
L 354.325329 85.223531 
L 356.041164 85.464105 
L 358.614917 85.583379 
L 359.472834 85.511719 
L 361.188669 85.538746 
L 363.762422 85.587641 
L 364.620339 85.681798 
L 367.194092 85.671332 
L 371.48368 85.947969 
L 379.204937 85.888293 
L 380.062855 85.978172 
L 380.920772 85.814378 
L 386.926195 85.876285 
L 388.64203 85.939504 
L 394.647453 86.035893 
L 396.363288 85.96957 
L 399.794958 86.158782 
L 400.652875 86.412997 
L 402.36871 86.431037 
L 404.084545 86.465094 
L 404.084545 86.465094 
" clip-path="url(#p41f5bc9576)" style="fill: none; stroke: #ff0000; stroke-width: 1.5; stroke-linecap: square"/>
   </g>
   <g id="patch_3">
    <path d="M 44.66 390.04 
L 44.66 25.44 
" style="fill: none; stroke: #000000; stroke-width: 0.8; stroke-linejoin: miter; stroke-linecap: square"/>
   </g>
   <g id="patch_4">
    <path d="M 421.2 390.04 
L 421.2 25.44 
" style="fill: none; stroke: #000000; stroke-width: 0.8; stroke-linejoin: miter; stroke-linecap: square"/>
   </g>
   <g id="patch_5">
    <path d="M 44.66 390.04 
L 421.2 390.04 
" style="fill: none; stroke: #000000; stroke-width: 0.8; stroke-linejoin: miter; stroke-linecap: square"/>
   </g>
   <g id="patch_6">
    <path d="M 44.66 25.44 
L 421.2 25.44 
" style="fill: none; stroke: #000000; stroke-width: 0.8; stroke-linejoin: miter; stroke-linecap: square"/>
   </g>
   <g id="text_18">
    <!-- Deviance -->
    <g transform="translate(204.929687 19.44) scale(0.12 -0.12)">
     <use xlink:href="#DejaVuSans-44"/>
     <use xlink:href="#DejaVuSans-65" x="77.001953"/>
     <use xlink:href="#DejaVuSans-76" x="138.525391"/>
     <use xlink:href="#DejaVuSans-69" x="197.705078"/>
     <use xlink:href="#DejaVuSans-61" x="225.488281"/>
     <use xlink:href="#DejaVuSans-6e" x="286.767578"/>
     <use xlink:href="#DejaVuSans-63" x="350.146484"/>
     <use xlink:href="#DejaVuSans-65" x="405.126953"/>
    </g>
   </g>
   <g id="legend_1">
    <g id="patch_7">
     <path d="M 273.303125 62.79625 
L 414.2 62.79625 
Q 416.2 62.79625 416.2 60.79625 
L 416.2 32.44 
Q 416.2 30.44 414.2 30.44 
L 273.303125 30.44 
Q 271.303125 30.44 271.303125 32.44 
L 271.303125 60.79625 
Q 271.303125 62.79625 273.303125 62.79625 
z
" style="fill: #ffffff; opacity: 0.8; stroke: #cccccc; stroke-linejoin: miter"/>
    </g>
    <g id="line2d_18">
     <path d="M 275.303125 38.538437 
L 285.303125 38.538437 
L 295.303125 38.538437 
" style="fill: none; stroke: #0000ff; stroke-width: 1.5; stroke-linecap: square"/>
    </g>
    <g id="text_19">
     <!-- Training Set Deviance -->
     <g transform="translate(303.303125 42.038437) scale(0.1 -0.1)">
      <defs>
       <path id="DejaVuSans-54" d="M -19 4666 
L 3928 4666 
L 3928 4134 
L 2272 4134 
L 2272 0 
L 1638 0 
L 1638 4134 
L -19 4134 
L -19 4666 
z
" transform="scale(0.015625)"/>
       <path id="DejaVuSans-53" d="M 3425 4513 
L 3425 3897 
Q 3066 4069 2747 4153 
Q 2428 4238 2131 4238 
Q 1616 4238 1336 4038 
Q 1056 3838 1056 3469 
Q 1056 3159 1242 3001 
Q 1428 2844 1947 2747 
L 2328 2669 
Q 3034 2534 3370 2195 
Q 3706 1856 3706 1288 
Q 3706 609 3251 259 
Q 2797 -91 1919 -91 
Q 1588 -91 1214 -16 
Q 841 59 441 206 
L 441 856 
Q 825 641 1194 531 
Q 1563 422 1919 422 
Q 2459 422 2753 634 
Q 3047 847 3047 1241 
Q 3047 1584 2836 1778 
Q 2625 1972 2144 2069 
L 1759 2144 
Q 1053 2284 737 2584 
Q 422 2884 422 3419 
Q 422 4038 858 4394 
Q 1294 4750 2059 4750 
Q 2388 4750 2728 4690 
Q 3069 4631 3425 4513 
z
" transform="scale(0.015625)"/>
      </defs>
      <use xlink:href="#DejaVuSans-54"/>
      <use xlink:href="#DejaVuSans-72" x="46.333984"/>
      <use xlink:href="#DejaVuSans-61" x="87.447266"/>
      <use xlink:href="#DejaVuSans-69" x="148.726562"/>
      <use xlink:href="#DejaVuSans-6e" x="176.509766"/>
      <use xlink:href="#DejaVuSans-69" x="239.888672"/>
      <use xlink:href="#DejaVuSans-6e" x="267.671875"/>
      <use xlink:href="#DejaVuSans-67" x="331.050781"/>
      <use xlink:href="#DejaVuSans-20" x="394.527344"/>
      <use xlink:href="#DejaVuSans-53" x="426.314453"/>
      <use xlink:href="#DejaVuSans-65" x="489.791016"/>
      <use xlink:href="#DejaVuSans-74" x="551.314453"/>
      <use xlink:href="#DejaVuSans-20" x="590.523438"/>
      <use xlink:href="#DejaVuSans-44" x="622.310547"/>
      <use xlink:href="#DejaVuSans-65" x="699.3125"/>
      <use xlink:href="#DejaVuSans-76" x="760.835938"/>
      <use xlink:href="#DejaVuSans-69" x="820.015625"/>
      <use xlink:href="#DejaVuSans-61" x="847.798828"/>
      <use xlink:href="#DejaVuSans-6e" x="909.078125"/>
      <use xlink:href="#DejaVuSans-63" x="972.457031"/>
      <use xlink:href="#DejaVuSans-65" x="1027.4375"/>
     </g>
    </g>
    <g id="line2d_19">
     <path d="M 275.303125 53.216563 
L 285.303125 53.216563 
L 295.303125 53.216563 
" style="fill: none; stroke: #ff0000; stroke-width: 1.5; stroke-linecap: square"/>
    </g>
    <g id="text_20">
     <!-- Test Set Deviance -->
     <g transform="translate(303.303125 56.716563) scale(0.1 -0.1)">
      <use xlink:href="#DejaVuSans-54"/>
      <use xlink:href="#DejaVuSans-65" x="44.083984"/>
      <use xlink:href="#DejaVuSans-73" x="105.607422"/>
      <use xlink:href="#DejaVuSans-74" x="157.707031"/>
      <use xlink:href="#DejaVuSans-20" x="196.916016"/>
      <use xlink:href="#DejaVuSans-53" x="228.703125"/>
      <use xlink:href="#DejaVuSans-65" x="292.179688"/>
      <use xlink:href="#DejaVuSans-74" x="353.703125"/>
      <use xlink:href="#DejaVuSans-20" x="392.912109"/>
      <use xlink:href="#DejaVuSans-44" x="424.699219"/>
      <use xlink:href="#DejaVuSans-65" x="501.701172"/>
      <use xlink:href="#DejaVuSans-76" x="563.224609"/>
      <use xlink:href="#DejaVuSans-69" x="622.404297"/>
      <use xlink:href="#DejaVuSans-61" x="650.1875"/>
      <use xlink:href="#DejaVuSans-6e" x="711.466797"/>
      <use xlink:href="#DejaVuSans-63" x="774.845703"/>
      <use xlink:href="#DejaVuSans-65" x="829.826172"/>
     </g>
    </g>
   </g>
  </g>
 </g>
 <defs>
  <clipPath id="p41f5bc9576">
   <rect x="44.66" y="25.44" width="376.54" height="364.6"/>
  </clipPath>
 </defs>
</svg>
